<svg xmlns="http://www.w3.org/2000/svg" width="76" height="63" viewBox="0 0 76 63"><path fill="none" stroke="currentColor" d="M24.642 62.362c3.808 0 7.192-.747 10.151-2.24a19.13 19.13 0 0 0 7.25-6.329c1.876-2.725 3.297-5.933 4.264-9.624.966-3.691 1.45-7.808 1.45-12.349 0-6.093-.828-11.389-2.483-15.886-1.655-4.497-4.24-8.057-7.756-10.679S29.71 1.322 24.642 1.322c-5.069 0-9.36 1.311-12.876 3.933s-6.109 6.19-7.779 10.701c-1.67 4.512-2.505 9.8-2.505 15.864 0 9.024 1.744 16.084 5.23 21.182 4.16 6.24 10.137 9.36 17.93 9.36zm0-7.822c-3.75 0-6.841-1.26-9.273-3.78-3.428-3.603-5.141-9.916-5.141-18.94 0-8.994 1.713-15.293 5.141-18.896 2.432-2.52 5.523-3.78 9.273-3.78s6.84 1.26 9.272 3.78c3.398 3.574 5.098 9.873 5.098 18.896 0 9.053-1.7 15.367-5.098 18.94-2.432 2.52-5.522 3.78-9.272 3.78zM75.444 61V2.685H67.71c-.674 3.252-2.366 5.888-5.076 7.91-2.71 2.021-6.027 3.047-9.953 3.076v6.196h14.15V61h8.613z"/></svg>