<svg xmlns="http://www.w3.org/2000/svg" width="95" height="63" viewBox="0 0 95 63"><path fill="none" stroke="currentColor" d="M24.642 62.362c3.808 0 7.192-.747 10.151-2.24a19.13 19.13 0 0 0 7.25-6.329c1.876-2.725 3.297-5.933 4.264-9.624.966-3.691 1.45-7.808 1.45-12.349 0-6.093-.828-11.389-2.483-15.886-1.655-4.497-4.24-8.057-7.756-10.679S29.71 1.322 24.642 1.322c-5.069 0-9.36 1.311-12.876 3.933s-6.109 6.19-7.779 10.701c-1.67 4.512-2.505 9.8-2.505 15.864 0 9.024 1.744 16.084 5.23 21.182 4.16 6.24 10.137 9.36 17.93 9.36zm0-7.822c-3.75 0-6.841-1.26-9.273-3.78-3.428-3.603-5.141-9.916-5.141-18.94 0-8.994 1.713-15.293 5.141-18.896 2.432-2.52 5.523-3.78 9.273-3.78s6.84 1.26 9.272 3.78c3.398 3.574 5.098 9.873 5.098 18.896 0 9.053-1.7 15.367-5.098 18.94-2.432 2.52-5.522 3.78-9.272 3.78zM94.429 61v-8.174h-29.97c.644-2.9 3.017-5.64 7.118-8.218l11.514-7.382c7.324-4.6 10.986-10.591 10.986-17.974 0-5.156-1.794-9.434-5.383-12.832-3.589-3.399-8.357-5.098-14.304-5.098-6.006 0-10.87 1.81-14.59 5.428-3.72 3.618-5.581 8.107-5.581 13.469 0 1.23.03 2.021.088 2.373l8.833 1.054c-.117-1.582-.176-2.446-.176-2.592 0-3.633.981-6.54 2.944-8.723 1.963-2.183 4.732-3.274 8.306-3.274 3.37 0 6.042.974 8.02 2.922 1.978 1.948 2.966 4.402 2.966 7.36 0 4.63-2.68 8.673-8.042 12.13l-9.712 6.328c-4.775 3.047-8.24 6.423-10.393 10.13C54.9 51.631 53.75 55.99 53.603 61H94.43z"/></svg>