<svg xmlns="http://www.w3.org/2000/svg" viewBox="-1107 844.2 51.6 51.6"><circle cx="-1081.2" cy="870" r="17.9" fill="#03061b"/><path fill="#7effe1" d="M-1065.5 861.1l-2.8-2.8c-.4-.4-1-.4-1.4 0l-14.6 15.3-8.3-8.3c-.4-.4-1-.4-1.4 0l-2.9 2.9c-.4.4-.4 1 0 1.4l11.8 12.1c.2.2.5.3.8.3s.6 0 .9-.3l17.9-19.2c.4-.3.4-1 0-1.4z"/><path fill="#7effe1" d="M-1081.2 895.8c-14.2 0-25.8-11.5-25.8-25.8s11.6-25.8 25.8-25.8c14.2 0 25.8 11.6 25.8 25.8s-11.5 25.8-25.8 25.8zm0-46.6c-11.5 0-20.8 9.3-20.8 20.8s9.3 20.8 20.8 20.8 20.8-9.3 20.8-20.8-9.3-20.8-20.8-20.8z"/></svg>
