<svg aria-label="DUDE KVLT - OVROBOROS" width="708" height="145" viewBox="0 0 708 145" fill="none" xmlns="http://www.w3.org/2000/svg"><g clip-path="url(#prefix__clip0)" fill="#fff"><path d="M195.482 116.448h.248c1.984 0 3.721.752 5.209 2.258.496.501.992 1.505 1.489 2.257.248 1.004.496 2.007.496 3.011v.251c0 1.254-.248 2.759-.744 4.013-.497 1.506-1.241 2.76-2.233 3.763-.992 1.004-2.233 2.007-3.473 2.509-1.241.502-2.729 1.004-3.969 1.004h-.248c-.993 0-1.985-.251-2.729-.502-1.737-.753-2.977-2.007-3.721-3.763-.496-1.004-.496-2.007-.496-3.261v-.251c0-1.255.248-2.509.744-4.014.496-1.254 1.24-2.509 2.232-3.763.993-1.004 2.233-2.007 3.473-2.509.993-.502 2.233-1.003 3.722-1.003zm-3.225 17.811h.744c.992 0 1.736-.251 2.729-1.003.992-.502 1.736-1.505 2.232-2.258.496-.753 1.241-2.007 1.489-3.261.248-1.255.496-2.258.496-3.512v-.251c0-1.004-.248-1.756-.496-2.509-.744-2.258-2.233-3.512-4.218-3.512h-.248c-.992 0-1.984.251-2.728.753-1.737 1.254-2.977 3.01-3.721 5.268-.497 1.254-.497 2.508-.497 3.763v.251c0 1.756.497 3.01 1.241 4.264.496.502.992 1.004 1.488 1.255.496.501.992.752 1.489.752zM240.631 117.702c0-.251.248-.502.744-.753.497-.25 1.241-.25 2.729-.25 1.241 0 1.985.25 1.985.501s-.248.502-.992.753c-.745.251-.993.753-1.241 1.003-.248.251-1.736 2.509-4.217 6.774-2.481 4.264-3.969 6.522-4.465 7.275-.993 1.254-1.737 2.007-2.233 2.007-.744 0-1.24-.753-1.488-2.509 0-.251-.001-.502-.249-1.254 0-.753-.248-1.255-.248-2.007l-.248-1.004v-2.006c-.496-4.265-.992-6.774-.992-7.025 0-.251-.496-.752-.992-1.254s-.745-.753-.745-1.004c0-.25.993-.501 2.977-.501h2.233c.496 0 .744.251.744.501 0 0-.248.251-.496.753s-.496 1.004-.496 1.756c0 1.254.248 3.512.496 6.523.496 3.01.496 4.515.744 4.766l.248.251c.248 0 2.233-3.01 5.458-9.031.992-1.756 1.488-2.76 1.488-3.512 0-.251 0-.502-.248-.753-.248.251-.496 0-.496 0zM283.052 134.761c0 .502-.744.753-2.48.753h-.496c-.993 0-1.489-.502-2.233-1.506a21.821 21.821 0 01-1.24-3.01c-.497-1.505-.745-2.509-.993-2.759-.496-.753-.992-1.004-1.984-1.004-.496 0-.993.502-.993 1.254-.496 1.506-.496 2.76-.496 4.014 0 .502.248.753.496 1.255.249.501.497.752.497 1.003 0 .502-1.489.502-4.218.502h-1.736c-.248 0-.248-.251-.248-.502s.248-.502.744-.753c.496-.25.992-.501.992-.752.248-.251.248-.502.248-.753s.248-1.003.496-2.007l.497-2.257c0-.251 0-.502.248-1.004l.744-3.512c.496-2.258.744-4.014.744-4.766 0-.502-.248-.753-.496-1.004s-.496-.502-.496-.753c0-.25 1.488-.501 4.465-.501h2.233c2.729 0 4.465.752 5.457 2.258.249.501.497 1.254.497 2.257 0 1.004-.248 1.756-.745 2.509a5.878 5.878 0 01-2.232 2.007c-.993.502-1.241 1.003-1.241 1.254 0 .251.248 1.255.993 2.76l1.488 3.01c.248.502.744.753.992 1.004 0 .501.496.752.496 1.003zm-7.69-16.557c-.496 0-.992.251-.992.753-.744 2.508-1.24 4.515-1.24 6.271 0 .251.248.251.992.251h.496c2.233 0 3.969-.753 4.713-2.509.248-.501.497-1.254.497-1.756v-.501c0-.753-.249-1.506-.993-2.007-.744-.502-1.488-.753-2.48-.753h-.249c-.496.251-.744.251-.744.251zM318.03 116.448h.248c1.985 0 3.722.752 5.21 2.258.496.501.992 1.505 1.488 2.257.248 1.004.497 2.007.497 3.011v.251c0 1.254-.249 2.759-.745 4.013-.496 1.506-1.24 2.76-2.232 3.763-.993 1.004-2.233 2.007-3.473 2.509-1.241.502-2.729 1.004-3.97 1.004h-.248c-.992 0-1.984-.251-2.728-.502-1.737-.753-2.977-2.007-3.721-3.763-.497-1.004-.497-2.007-.497-3.261v-.251c0-1.255.248-2.509.745-4.014.496-1.254 1.24-2.509 2.232-3.763.993-1.004 2.233-2.007 3.473-2.509.993-.502 2.233-1.003 3.721-1.003zm-3.225 17.811h.745c.992 0 1.736-.251 2.728-1.003.993-.502 1.737-1.505 2.233-2.258.744-1.004 1.24-2.007 1.489-3.261.248-1.255.496-2.258.496-3.512v-.251c0-1.004 0-1.756-.496-2.509-.745-2.258-2.233-3.512-4.218-3.512h-.248c-.992 0-1.984.251-2.729.753-1.736 1.254-2.976 3.01-3.721 5.268-.496 1.254-.496 2.508-.496 3.763v.251c0 1.756.496 3.01 1.241 4.264.496.502.992 1.004 1.488 1.255.496.501.992.752 1.488.752zM352.016 125.479c.744-3.763.992-5.77.992-6.272 0-.501-.248-.752-.496-1.003-.496-.502-.992-.753-.992-.753 0-.25.248-.501.744-.501h6.202c2.729 0 4.465.752 5.209 2.508.249.502.249 1.004.249 2.007 0 1.004-.249 1.505-.745 2.258-.496.753-.992 1.254-1.488 1.505l-1.24.753s.248 0 .496.251c.992.501 1.488 1.003 1.984 1.756.496.502.496 1.254.496 2.258 0 1.756-.744 3.261-2.232 4.264-.496.502-1.241.753-2.233 1.004s-1.985.501-2.977.501h-3.721c-2.481 0-3.969-.25-3.969-.501s.496-.502 1.24-1.004c.496-.251.745-.752.993-1.505.248-1.505.744-3.763 1.488-7.526zm3.473 1.004c-.496 0-.992.25-.992.501 0 0 0 .502-.248 1.004-.248.752-.248 1.254-.248 1.505 0 .251-.248 1.003-.497 2.007-.248 1.003-.248 1.756-.248 2.007 0 .502.497.502 1.241.502h1.488c1.241 0 2.481-.251 3.225-1.004.992-.753 1.489-2.007 1.489-3.261v-.502c0-1.003-.248-1.756-.993-2.258-.744-.501-1.736-.752-2.977-.752h-.744l-.496.251zm.248-1.506H357.474c.992 0 1.984-.25 2.728-1.003.745-.753 1.241-1.756 1.241-2.76v-.25c0-.753-.248-1.506-.744-2.007-.497-.502-1.241-.753-2.233-.753h-.744c-.745 0-1.241.251-1.489.502s-.496 1.254-.744 3.01v1.254l-.248 1.004v.251c-.496.752-.248.752.496.752zM398.902 116.448h.248c1.984 0 3.721.752 5.209 2.258.496.501.992 1.505 1.489 2.257.248 1.004.496 2.007.496 3.011v.251c0 1.254-.248 2.759-.744 4.013-.497 1.506-1.241 2.76-2.233 3.763-.992 1.004-2.233 2.007-3.473 2.509-1.241.502-2.729 1.004-3.969 1.004h-.248c-.993 0-1.985-.251-2.729-.502-1.737-.753-2.977-2.007-3.721-3.763-.497-1.004-.497-2.007-.497-3.261v-.251c0-1.255.249-2.509.745-4.014.496-1.505 1.24-2.509 2.232-3.763.993-1.004 2.233-2.007 3.473-2.509 1.241-.502 2.481-1.003 3.722-1.003zm-2.977 17.811h.744c.992 0 1.736-.251 2.729-1.003.992-.502 1.736-1.505 2.232-2.258.496-.753 1.241-2.007 1.489-3.261.248-1.255.496-2.258.496-3.512v-.251c0-1.004 0-1.756-.496-2.509-.744-2.258-2.233-3.512-4.217-3.512h-.249c-.992 0-1.984.251-2.728.753-1.737 1.254-2.977 3.01-3.721 5.268-.497 1.254-.497 2.508-.497 3.763v.251c0 1.756.497 3.01 1.241 4.264.496.502.992 1.004 1.488 1.255.496.25.744.752 1.489.752zM445.54 134.761c0 .502-.744.753-2.481.753h-.496c-.992 0-1.489-.502-2.233-1.506a21.821 21.821 0 01-1.24-3.01c-.496-1.505-.744-2.509-.992-2.759-.497-.753-.993-1.004-1.985-1.004-.496 0-.992.502-.992 1.254-.496 1.506-.496 2.76-.496 4.014 0 .502.248.753.496 1.255.248.501.496.752.496 1.003 0 .502-1.489.502-4.217.502h-1.737c-.248 0-.248-.251-.248-.502s.248-.502.744-.753c.496-.25.993-.501.993-.752.248-.251.248-.502.248-.753s.248-1.003.496-2.007l.496-2.257c0-.251 0-.502.248-1.004l.744-3.512c.496-2.258.744-4.014.744-4.766 0-.502-.248-.753-.496-1.004s-.496-.502-.496-.753c0-.25 1.489-.501 4.465-.501h2.233c2.729 0 4.465.752 5.458 2.258.248.501.496 1.254.496 2.257 0 1.004-.248 1.756-.744 2.509a5.889 5.889 0 01-2.233 2.007c-.992.502-1.24 1.003-1.24 1.254 0 .251.248 1.255.992 2.76l1.488 3.01c.248.502.744.753.993 1.004 0 .501.496.752.496 1.003zm-7.691-16.557c-.496 0-.992.251-.992.753-.744 2.508-1.24 4.515-1.24 6.271 0 .251.248.251.992.251h.496c2.233 0 3.969-.753 4.714-2.509.248-.501.496-1.254.496-1.756v-.501c0-.753-.248-1.506-.993-2.007-.744-.502-1.488-.753-2.48-.753h-.248c-.496.251-.745.251-.745.251zM480.518 116.448h.248c1.984 0 3.721.752 5.209 2.258.496.501.992 1.505 1.489 2.257.248 1.004.496 2.007.496 3.011v.251c0 1.254-.248 2.759-.744 4.013-.497 1.506-1.241 2.76-2.233 3.763-.992 1.004-2.233 2.007-3.473 2.509-1.24.502-2.729 1.004-3.969 1.004h-.248c-.993 0-1.985-.251-2.729-.502-1.737-.753-2.977-2.007-3.721-3.763-.496-1.004-.496-2.007-.496-3.261v-.251c0-1.255.248-2.509.744-4.014.496-1.505 1.24-2.509 2.233-3.763.992-1.004 2.232-2.007 3.473-2.509 1.24-.502 2.232-1.003 3.721-1.003zm-3.225 17.811h.744c.992 0 1.736-.251 2.729-1.003.992-.502 1.736-1.505 2.232-2.258.496-.753 1.241-2.007 1.489-3.261.248-1.255.496-2.258.496-3.512v-.251c0-1.004 0-1.756-.496-2.509-.744-2.258-2.233-3.512-4.217-3.512h-.249c-.992 0-1.984.251-2.728.753-1.737 1.254-2.977 3.01-3.721 5.268-.497 1.254-.497 2.508-.497 3.763v.251c0 1.756.497 3.01 1.241 4.264.496.502.992 1.004 1.488 1.255.496.25.993.752 1.489.752zM519.713 116.448c.744 0 1.24 0 1.984.251.745.25 1.241.25 1.737.25s.744 0 .992.251.248.502.248.753v.502c0 1.003-.248 1.756-.496 2.508-.248.251-.248.502-.496.502s-.496-.251-.992-1.003c-.496-.753-.744-1.255-1.241-1.506-.496-.25-1.24-.501-1.984-.501s-1.489.251-2.233.752c-.496.502-.992 1.255-.992 2.007 0 .753.248 1.505.992 2.258.496.502 1.24 1.003 2.481 1.756 1.24.753 2.233 1.505 2.729 2.258.496.752.744 1.756.744 3.01 0 .753-.248 1.505-.496 2.007-.248.753-.744 1.254-1.489 1.756-1.24 1.004-2.729 1.505-4.713 1.505h-.496c-1.489 0-2.977-.25-4.466-.752-.496-.251-.744-.502-.744-1.255v-.501c0-.753 0-1.505.248-2.007.248-.502.496-.753.745-.753.248 0 .496.502.992 1.255.496.752.744 1.254 1.24 1.756.744.501 1.489.752 2.729.752.992 0 1.985-.251 2.729-1.003.744-.502.992-1.255.992-2.258 0-1.004-.248-1.756-.992-2.258-.248-.251-1.241-.752-2.481-1.756-1.24-.753-2.233-1.505-2.729-2.258-.744-.752-.992-1.505-.992-2.508 0-1.756.496-3.262 1.736-4.265 1.737-1.004 2.977-1.505 4.714-1.505zM150.333 32.863c0 6.021-1.985 17.56-15.38 17.56-13.396 0-15.381-11.539-15.381-17.56V0H94.02v34.62c0 22.076 15.381 35.12 40.933 35.12 25.551 0 40.932-13.044 40.932-35.12V0h-25.552v32.863zM356.481 19.317V0h-79.135v69.74h79.135V50.424h-54.08v-7.777h44.901V27.093h-44.901v-7.776h54.08zM51.104 0H1.737v69.74h49.367c17.117 0 34.482-14.048 34.482-34.87C85.586 13.798 67.973 0 51.104 0zm-6.45 50.424H27.289V19.567h17.365c8.93 0 15.38 7.276 15.38 15.554 0 8.028-6.201 15.303-15.38 15.303zM234.182 0h-49.119v69.74h49.367c17.117 0 34.482-14.048 34.482-34.87 0-21.072-17.613-34.87-34.73-34.87zm-6.202 50.424h-17.365V19.567h17.365c8.931 0 15.381 7.276 15.381 15.554 0 8.028-6.202 15.303-15.381 15.303zM452.983 69.74l-20.094-27.344-12.652 12.293V69.74h-24.063V0h24.063v29.602L450.254 0h29.024l-29.52 28.097 31.009 41.894h-27.784v-.25z"/><path d="M506.813 0l18.11 45.407L543.032 0h27.04l-32.746 69.74h-25.055L479.277 0h27.536zM638.54 50.424V69.74h-68.468V0h24.063v50.424h44.405zM708.001 19.317h-27.288V69.74H656.65V19.317h-27.288V0h78.639v19.317z"/></g><defs><clipPath id="prefix__clip0"><path fill="#fff" d="M0 0h708v145H0z"/></clipPath></defs></svg>
