<?xml version="1.0" standalone="no"?>
<!DOCTYPE svg PUBLIC "-//W3C//DTD SVG 1.1//EN" "http://www.w3.org/Graphics/SVG/1.1/DTD/svg11.dtd" >
<svg xmlns="http://www.w3.org/2000/svg" xmlns:xlink="http://www.w3.org/1999/xlink" version="1.1">
<metadata>
Created by FontForge 20170731 at Thu Feb 16 14:22:16 2017
 By Aleksey,,,
(c) 2017, Copyright by Lineto. All rights reserved.
</metadata>
<defs>
<font id="Fdigxfxayrvtjyjdpuqwpaluzhv" horiz-adv-x="810" >
  <font-face 
    font-family="Fdigxfxayrvtjyjdpuqwpaluzhv"
    font-weight="400"
    font-stretch="normal"
    units-per-em="1000"
    panose-1="2 11 5 4 2 1 1 2 1 2"
    ascent="700"
    descent="-300"
    x-height="520"
    cap-height="700"
    bbox="-355 -255 1296 930"
    underline-thickness="40"
    underline-position="-180"
    unicode-range="U+0020-1F310"
  />
<missing-glyph horiz-adv-x="680" 
d="M85 0v700h510v-700h-510zM125 40h430v620h-430v-620z" />
    <glyph glyph-name="f_f" unicode="ff" horiz-adv-x="696" 
d="M453 520v55q0 125 135 125h96v-78h-90q-26 0 -35.5 -10.5t-9.5 -36.5v-55h135v-80h-135v-440h-96v440h-219v-440h-96v440h-125v80h125v55q0 125 135 125h81v-78h-75q-26 0 -35.5 -10.5t-9.5 -36.5v-55h219z" />
    <glyph glyph-name="f_f_i" unicode="ffi" horiz-adv-x="937" 
d="M549 440v-440h-96v440h-219v-440h-96v440h-125v80h125v55q0 125 135 125h81v-78h-75q-26 0 -35.5 -10.5t-9.5 -36.5v-55h219v55q0 125 135 125h81v-78h-75q-26 0 -35.5 -10.5t-9.5 -36.5v-55h315v-520h-96v440h-219zM768 700h96v-100h-96v100z" />
    <glyph glyph-name="f_f_l" unicode="ffl" horiz-adv-x="937" 
d="M549 440v-440h-96v440h-219v-440h-96v440h-125v80h125v55q0 125 135 125h81v-78h-75q-26 0 -35.5 -10.5t-9.5 -36.5v-55h219v55q0 125 135 125h81v-78h-75q-26 0 -35.5 -10.5t-9.5 -36.5v-55h219v180h96v-700h-96v440h-219z" />
    <glyph glyph-name="f_i" unicode="fi" horiz-adv-x="622" 
d="M549 520v-520h-96v440h-219v-440h-96v440h-125v80h125v55q0 125 135 125h81v-78h-75q-26 0 -35.5 -10.5t-9.5 -36.5v-55h315zM453 700h96v-100h-96v100z" />
    <glyph glyph-name="f_l" unicode="fl" horiz-adv-x="622" 
d="M453 520v180h96v-700h-96v440h-219v-440h-96v440h-125v80h125v55q0 125 135 125h81v-78h-75q-26 0 -35.5 -10.5t-9.5 -36.5v-55h219z" />
    <glyph glyph-name=".notdef" horiz-adv-x="680" 
d="M85 0v700h510v-700h-510zM125 40h430v620h-430v-620z" />
    <glyph glyph-name=".null" horiz-adv-x="0" 
 />
    <glyph glyph-name="nonmarkingreturn" horiz-adv-x="242" 
 />
    <glyph glyph-name="space" unicode=" " horiz-adv-x="242" 
 />
    <glyph glyph-name="exclam" unicode="!" horiz-adv-x="262" 
d="M71 135h120v-135h-120v135zM161 220h-60l-20 225v255h100v-255z" />
    <glyph glyph-name="quotedbl" unicode="&#x22;" horiz-adv-x="394" 
d="M68 700h100v-205l-100 -100v305zM243 700h100v-205l-100 -100v305z" />
    <glyph glyph-name="numbersign" unicode="#" horiz-adv-x="782" 
d="M428 190h-153l-48 -190h-96l48 190h-150l20 80h150l40 160h-151l20 80h151l47 190h96l-47 -190h153l47 190h96l-47 -190h149l-20 -80h-149l-40 -160h150l-20 -80h-150l-48 -190h-96zM295 270h153l40 160h-153z" />
    <glyph glyph-name="dollar" unicode="$" horiz-adv-x="608" 
d="M264 -14q-57 4 -98.5 20.5t-70 41t-44 56t-18.5 66.5h99q3 -38 33.5 -66.5t98.5 -36.5v257q-41 9 -80 23t-69 37.5t-48.5 57.5t-18.5 83q0 36 13.5 68t40.5 57.5t67.5 41.5t94.5 21v87h80v-87q49 -5 86 -20.5t62.5 -38t40 -50.5t17.5 -59h-99q-5 28 -30 53.5t-77 33.5
v-229q43 -8 84.5 -21t74 -37.5t52.5 -62t20 -92.5q0 -84 -59 -139t-172 -65v-86h-80v86zM477 185q0 30 -8.5 50.5t-25.5 35t-41.5 23.5t-57.5 16v-243q69 8 101 39.5t32 78.5zM146 530q0 -48 29.5 -72.5t88.5 -38.5v214q-33 -5 -55.5 -15t-36.5 -24.5t-20 -31t-6 -32.5z" />
    <glyph glyph-name="percent" unicode="%" horiz-adv-x="918" 
d="M110 495q0 -68 20.5 -109t69.5 -41t69.5 41t20.5 109t-20.5 109t-69.5 41t-69.5 -41t-20.5 -109zM365 495q0 -58 -13 -99t-35 -66.5t-52.5 -37.5t-64.5 -12q-35 0 -65 12t-52 37.5t-35 66.5t-13 99t13 99t35 66.5t52 37.5t65 12q34 0 64.5 -12t52.5 -37.5t35 -66.5
t13 -99zM611 700h84l-390 -700h-84zM628 205q0 -68 20.5 -109t69.5 -41t69.5 41t20.5 109t-20.5 109t-69.5 41t-69.5 -41t-20.5 -109zM883 205q0 -58 -13 -99t-35 -66.5t-52.5 -37.5t-64.5 -12q-35 0 -65 12t-52 37.5t-35 66.5t-13 99t13 99t35 66.5t52 37.5t65 12
q34 0 64.5 -12t52.5 -37.5t35 -66.5t13 -99z" />
    <glyph glyph-name="ampersand" unicode="&#x26;" horiz-adv-x="736" 
d="M724 0h-130l-78 78q-18 -19 -40.5 -36t-50 -29.5t-61.5 -20t-75 -7.5q-58 0 -104.5 16t-78.5 44t-49.5 66.5t-17.5 83.5q0 69 34.5 119t120.5 86q-34 34 -54.5 72t-20.5 83q0 32 11.5 61t34.5 51t57.5 35t81.5 13t81 -13.5t56 -35.5t32.5 -50t10.5 -56q0 -63 -31 -106.5
t-103 -79.5l160 -160l89 126h110l-135 -190zM139 195q0 -57 39 -91t111 -34q56 0 94 18.5t70 52.5l-194 194q-34 -14 -57 -28t-37 -31t-20 -37t-6 -44zM304 635q-45 0 -67.5 -23t-22.5 -57q0 -26 18.5 -53.5t54.5 -64.5q60 26 83.5 54t23.5 64q0 30 -20.5 55t-69.5 25z" />
    <glyph glyph-name="quotesingle" unicode="'" horiz-adv-x="219" 
d="M68 700h100v-205l-100 -100v305z" />
    <glyph glyph-name="parenleft" unicode="(" horiz-adv-x="292" 
d="M39 260q0 35 4 64t14.5 63t27.5 78.5t44 110.5l50 124h80l-50 -150q-21 -62 -34.5 -103.5t-21.5 -73t-11 -57.5t-3 -56t3 -56t11 -57.5t21.5 -73t34.5 -103.5l50 -150h-80l-50 124q-27 66 -44 110.5t-27.5 78.5t-14.5 63t-4 64z" />
    <glyph glyph-name="parenright" unicode=")" horiz-adv-x="293" 
d="M253 260q0 -35 -4 -64t-14.5 -63t-27.5 -78.5t-44 -110.5l-50 -124h-80l50 150q21 62 34.5 103.5t21.5 73t11 57.5t3 56t-3 56t-11 57.5t-21.5 73t-34.5 103.5l-50 150h80l50 -124q27 -66 44 -110.5t27.5 -78.5t14.5 -63t4 -64z" />
    <glyph glyph-name="asterisk" unicode="*" horiz-adv-x="500" 
d="M230 543v157h40v-157l111 111l28 -28l-111 -111h157v-40h-157l111 -111l-28 -28l-111 111v-157h-40v157l-111 -111l-28 28l111 111h-157v40h157l-111 111l28 28z" />
    <glyph glyph-name="plus" unicode="+" horiz-adv-x="576" 
d="M33 390h215v220h80v-220h215v-80h-215v-220h-80v220h-215v80z" />
    <glyph glyph-name="comma" unicode="," horiz-adv-x="248" 
d="M64 135h120v-135l-80 -135h-45l55 135h-50v135z" />
    <glyph glyph-name="hyphen" unicode="-" horiz-adv-x="396" 
d="M63 300h270v-80h-270v80z" />
    <glyph glyph-name="period" unicode="." horiz-adv-x="248" 
d="M64 135h120v-135h-120v135z" />
    <glyph glyph-name="slash" unicode="/" horiz-adv-x="553" 
d="M425 700h107l-405 -700h-107z" />
    <glyph glyph-name="zero" unicode="0" horiz-adv-x="650" 
d="M150 350q0 -143 48 -211.5t127 -68.5t127 68.5t48 211.5t-48 211.5t-127 68.5t-127 -68.5t-48 -211.5zM600 350q0 -99 -22 -168.5t-59.5 -113t-87.5 -63.5t-106 -20t-106 20t-87.5 63.5t-59.5 113t-22 168.5t22 168.5t59.5 113t87.5 63.5t106 20t106 -20t87.5 -63.5
t59.5 -113t22 -168.5z" />
    <glyph glyph-name="one" unicode="1" horiz-adv-x="418" 
d="M228 0v580l-155 -160v125l155 155h100v-700h-100z" />
    <glyph glyph-name="two" unicode="2" horiz-adv-x="557" 
d="M44 530q4 45 22.5 79.5t49 58t71 35.5t87.5 12q51 0 92.5 -14.5t71 -40t45.5 -61.5t16 -79q0 -33 -5.5 -61t-19 -54.5t-35 -53t-52.5 -56.5l-218 -210h345v-85h-470v85l275 275q42 42 61 77.5t19 77.5q0 49 -30.5 82t-94.5 33q-57 0 -91.5 -25.5t-37.5 -74.5h-101z" />
    <glyph glyph-name="three" unicode="3" horiz-adv-x="574" 
d="M221 415h55q57 0 91 28t34 77t-32.5 79.5t-92.5 30.5q-30 0 -52.5 -8t-37.5 -20t-23 -27t-10 -30h-102q4 36 21 67t46.5 54t69 36t88.5 13q51 0 92.5 -14t71 -39.5t45.5 -60.5t16 -76q0 -45 -21.5 -82t-63.5 -63q60 -26 85 -75t25 -105q0 -47 -18 -86.5t-51 -68
t-79 -44.5t-102 -16q-58 0 -102 15t-74.5 40t-47.5 58.5t-21 71.5h101q3 -21 12.5 -40t27 -33.5t43 -23t61.5 -8.5q37 0 65.5 11t47 30t28 43.5t9.5 50.5q0 60 -35 95t-110 35h-60v85z" />
    <glyph glyph-name="four" unicode="4" horiz-adv-x="592" 
d="M354 700h105v-475h100v-85h-100v-140h-100v140h-340v85zM359 225v130v71.5t1 55.5t2 47t3 46h-4q-10 -17 -21 -35.5t-27 -42.5l-37 -55.5t-51 -73.5l-101 -143h235z" />
    <glyph glyph-name="five" unicode="5" horiz-adv-x="583" 
d="M58 315l25 385h415v-85h-320l-13 -185q21 25 58.5 42.5t94.5 17.5q58 0 100.5 -19.5t70 -53t41 -79.5t13.5 -98q0 -54 -16.5 -101t-49 -81t-80 -53.5t-109.5 -19.5q-49 0 -89.5 13.5t-71.5 38t-51.5 58.5t-27.5 75h103q8 -42 44 -71t93 -29q41 0 70.5 14t48 37.5t27.5 54
t9 64.5q0 36 -8 67t-25 54t-45 36t-67 13q-53 0 -90 -25.5t-51 -69.5h-99z" />
    <glyph glyph-name="six" unicode="6" horiz-adv-x="602" 
d="M316 715q83 0 140.5 -41t74.5 -109h-109q-11 28 -36 46.5t-70 18.5q-79 0 -117.5 -63t-42.5 -172q23 34 67 59.5t108 25.5q54 0 97 -18.5t72.5 -51t45 -76t15.5 -94.5q0 -54 -18.5 -101t-51.5 -81t-78 -53.5t-97 -19.5q-77 0 -128 30.5t-81.5 81.5t-43 116.5t-12.5 136.5
q0 101 21 171t57 113t84.5 62t102.5 19zM316 70q36 0 63 14t45 37t27.5 52.5t9.5 61.5t-8.5 61t-26.5 51t-45.5 35t-64.5 13q-36 0 -63.5 -13t-47 -35t-29.5 -51t-10 -61t9.5 -61.5t28 -52.5t46.5 -37t66 -14z" />
    <glyph glyph-name="seven" unicode="7" horiz-adv-x="507" 
d="M173 0h-106l314 615h-364v85h470v-85z" />
    <glyph glyph-name="eight" unicode="8" horiz-adv-x="604" 
d="M302 -15q-53 0 -99 15t-81 43t-55 66.5t-20 85.5q0 36 9.5 65t26 51.5t38.5 38.5t46 25q-45 23 -70 64t-25 86q0 43 17.5 78t48.5 60t73 38.5t91 13.5t91 -13.5t73 -38.5t48.5 -60t17.5 -78q0 -45 -25 -86t-70 -64q24 -9 46 -25t38.5 -38.5t26 -51.5t9.5 -65
q0 -47 -19.5 -85.5t-53.5 -66.5t-81 -43t-101 -15zM302 330q-38 0 -66.5 -10.5t-48.5 -28.5t-30 -41.5t-10 -49.5q0 -28 10 -52.5t30 -43t48.5 -29t66.5 -10.5q37 0 66 10.5t49 29t30 43t10 52.5q0 26 -10 49.5t-30 41.5t-49 28.5t-66 10.5zM302 635q-64 0 -99.5 -31
t-35.5 -84q0 -49 37.5 -79.5t97.5 -30.5t97.5 30.5t37.5 79.5q0 53 -35.5 84t-99.5 31z" />
    <glyph glyph-name="nine" unicode="9" horiz-adv-x="602" 
d="M286 -15q-83 0 -140.5 41t-74.5 109h109q11 -28 36 -46.5t70 -18.5q79 0 117.5 63t42.5 172q-23 -34 -67 -59.5t-108 -25.5q-54 0 -97 19.5t-72.5 52.5t-45 77.5t-15.5 95.5q0 54 18.5 100t51.5 79.5t77.5 52t97.5 18.5q79 0 130.5 -30.5t81.5 -81.5t41.5 -117t11.5 -136
q0 -101 -21 -171t-57 -113t-84.5 -62t-102.5 -19zM286 630q-36 0 -63 -13t-45 -35t-27.5 -51t-9.5 -61t8.5 -61.5t26.5 -52.5t45 -37t65 -14q36 0 63.5 14t47 37t29.5 52.5t10 61.5t-9.5 61t-28 51t-47 35t-65.5 13z" />
    <glyph glyph-name="colon" unicode=":" horiz-adv-x="248" 
d="M64 135h120v-135h-120v135zM64 520h120v-135h-120v135z" />
    <glyph glyph-name="semicolon" unicode=";" horiz-adv-x="254" 
d="M68 520h120v-135h-120v135zM68 135h120v-135l-80 -135h-45l55 135h-50v135z" />
    <glyph glyph-name="less" unicode="&#x3c;" horiz-adv-x="542" 
d="M472 600v-90l-355 -160l355 -160v-90l-440 210v80z" />
    <glyph glyph-name="equal" unicode="=" horiz-adv-x="572" 
d="M66 495h440v-80h-440v80zM66 285h440v-80h-440v80z" />
    <glyph glyph-name="greater" unicode="&#x3e;" horiz-adv-x="542" 
d="M510 390v-80l-440 -210v90l355 160l-355 160v90z" />
    <glyph glyph-name="question" unicode="?" horiz-adv-x="498" 
d="M169 135h120v-135h-120v135zM29 545q2 37 18 68.5t44.5 54t67 35t85.5 12.5q52 0 92.5 -15t67.5 -40t41 -59t14 -71q0 -44 -13.5 -73.5t-34.5 -51.5t-44.5 -39.5t-44.5 -37.5t-34.5 -45t-13.5 -63h-90q0 47 13 79.5t32.5 56.5t42 41.5t42 36.5t32.5 41t13 55
q0 17 -6 34.5t-19.5 32t-35.5 24t-54 9.5q-30 0 -51 -7.5t-34.5 -20t-20.5 -27.5t-9 -30h-100z" />
    <glyph glyph-name="at" unicode="@" horiz-adv-x="919" 
d="M452 115q32 0 55.5 12t39 32.5t23 46.5t7.5 54t-7.5 54t-23 46.5t-39 32.5t-55.5 12q-30 0 -53.5 -11.5t-39 -31t-24 -46t-8.5 -56.5t8.5 -56.5t24 -46t39 -31t53.5 -11.5zM452 -155q-86 0 -161 32.5t-130.5 88.5t-87 132t-31.5 162t32 161.5t87.5 132t131.5 89t164 32.5
t164 -31.5t131.5 -87t87.5 -130.5t32 -161q0 -60 -14 -102t-36.5 -68t-51 -38t-58.5 -12q-38 0 -69 18t-46 52q-23 -34 -64.5 -54.5t-90.5 -20.5q-43 0 -80.5 16t-65 45t-43.5 69.5t-16 89.5t16 89.5t43.5 69.5t65 45t80.5 16q26 0 47.5 -5.5t38.5 -14t29 -18t20 -17.5v40
h90v-280q0 -38 13.5 -51.5t36.5 -13.5q34 0 54.5 40.5t20.5 104.5q0 69 -25 130t-69.5 106.5t-106 72t-134.5 26.5t-134.5 -27t-106 -73.5t-69.5 -108.5t-25 -131t25 -131t69.5 -108.5t106 -73.5t134.5 -27q41 0 73 6t67 18v-75q-68 -24 -145 -24z" />
    <glyph glyph-name="A" unicode="A" horiz-adv-x="682" 
d="M506 165h-330l-65 -165h-105l285 700h100l285 -700h-105zM339 590q-11 -34 -28 -82.5t-37 -96.5l-64 -161h262l-64 161q-20 48 -37 96.5t-28 82.5h-4z" />
    <glyph glyph-name="B" unicode="B" horiz-adv-x="705" 
d="M90 0v700h330q47 0 85.5 -12.5t66.5 -36.5t43 -58.5t15 -77.5q0 -99 -85 -145q53 -23 81.5 -67t28.5 -108q0 -45 -15.5 -81t-44 -61.5t-68 -39t-87.5 -13.5h-350zM435 85q67 0 93.5 33t26.5 82q0 24 -7 46t-22 38.5t-38.5 26t-57.5 9.5h-240v-235h245zM410 405
q60 0 90 28t30 77t-27.5 77t-87.5 28h-225v-210h220z" />
    <glyph glyph-name="C" unicode="C" horiz-adv-x="715" 
d="M685 185q-15 -44 -41.5 -81t-63 -63.5t-84.5 -41t-106 -14.5q-79 0 -142.5 27.5t-108.5 76t-69.5 115.5t-24.5 146t24.5 145.5t69.5 115.5t108.5 76.5t142.5 27.5q112 0 184 -50.5t106 -134.5h-109q-24 46 -68 73t-113 27q-62 0 -108 -23.5t-76.5 -62.5t-45.5 -89.5
t-15 -104.5t15 -104.5t45.5 -89.5t76.5 -62.5t108 -23.5q77 0 122 32.5t65 82.5h108z" />
    <glyph glyph-name="D" unicode="D" horiz-adv-x="722" 
d="M675 350q0 -83 -23 -148t-66.5 -110t-106.5 -68.5t-144 -23.5h-245v700h245q81 0 144 -24t106.5 -69t66.5 -110t23 -147zM190 85h135q124 0 187 70.5t63 194.5t-63 194.5t-187 70.5h-135v-530z" />
    <glyph glyph-name="E" unicode="E" horiz-adv-x="636" 
d="M90 700h490v-85h-390v-210h370v-85h-370v-235h390v-85h-490v700z" />
    <glyph glyph-name="F" unicode="F" horiz-adv-x="616" 
d="M90 700h490v-85h-390v-220h370v-85h-370v-310h-100v700z" />
    <glyph glyph-name="G" unicode="G" horiz-adv-x="752" 
d="M390 630q-62 0 -108 -23.5t-76.5 -62.5t-45.5 -89.5t-15 -104.5t15 -104.5t45.5 -89.5t76.5 -62.5t108 -23.5q58 0 98 19.5t65 50.5t36 69t11 76h-220v85h315v-370h-75l-10 85q-13 -19 -32.5 -37t-46.5 -32t-62 -22.5t-79 -8.5q-79 0 -142.5 27.5t-108.5 76t-69.5 115.5
t-24.5 146t24.5 145.5t69.5 115.5t108.5 76.5t142.5 27.5q112 0 184 -50.5t106 -134.5h-109q-24 46 -68 73t-113 27z" />
    <glyph glyph-name="H" unicode="H" horiz-adv-x="750" 
d="M660 0h-100v320h-370v-320h-100v700h100v-295h370v295h100v-700z" />
    <glyph glyph-name="I" unicode="I" horiz-adv-x="280" 
d="M90 0v700h100v-700h-100z" />
    <glyph glyph-name="J" unicode="J" horiz-adv-x="465" 
d="M157 85q71 0 98 33.5t27 101.5v480h100v-480q0 -113 -58 -166.5t-167 -53.5h-133v85h133z" />
    <glyph glyph-name="K" unicode="K" horiz-adv-x="635" 
d="M90 0v700h100v-310l305 310h125l-340 -340l360 -360h-135l-315 325v-325h-100z" />
    <glyph glyph-name="L" unicode="L" horiz-adv-x="575" 
d="M90 700h100v-615h370v-85h-470v700z" />
    <glyph glyph-name="M" unicode="M" horiz-adv-x="890" 
d="M445 195q11 26 21.5 49t21 45t21.5 45.5t25 50.5l156 315h110v-700h-100v335q0 28 0.5 52.5t1 47.5t2 47.5t4.5 52.5h-4q-11 -26 -20.5 -49.5t-19.5 -46t-21 -45.5t-24 -49l-174 -345l-174 345q-13 26 -24 49t-21 45.5t-19.5 46t-20.5 49.5h-4q3 -28 4.5 -52.5t2 -47.5
t1 -47.5t0.5 -52.5v-335h-100v700h110l156 -315q13 -27 24.5 -50.5t22 -45.5t21 -45t21.5 -49z" />
    <glyph glyph-name="N" unicode="N" horiz-adv-x="760" 
d="M324 347q-57 81 -87.5 129.5t-47.5 78.5h-4q2 -24 3 -46t1.5 -47t0.5 -55.5v-71.5v-335h-100v700h105l241 -347q57 -81 87.5 -129.5t47.5 -78.5h4q-2 24 -3 46t-1.5 47t-0.5 55.5v71.5v335h100v-700h-105z" />
    <glyph glyph-name="O" unicode="O" horiz-adv-x="780" 
d="M45 350q0 79 25 145.5t70.5 115.5t109 76.5t140.5 27.5t140.5 -27.5t109 -76.5t70.5 -115.5t25 -145.5t-25 -146t-70.5 -115.5t-109 -76t-140.5 -27.5t-140.5 27.5t-109 76t-70.5 115.5t-25 146zM145 350q0 -54 16 -104.5t46.5 -89.5t76.5 -62.5t106 -23.5t106 23.5
t76.5 62.5t46.5 89.5t16 104.5t-16 104.5t-46.5 89.5t-76.5 62.5t-106 23.5t-106 -23.5t-76.5 -62.5t-46.5 -89.5t-16 -104.5z" />
    <glyph glyph-name="P" unicode="P" horiz-adv-x="677" 
d="M190 300v-300h-100v700h335q106 0 165.5 -53t59.5 -147t-59.5 -147t-165.5 -53h-235zM425 385q64 0 94.5 31t30.5 84t-30.5 84t-94.5 31h-235v-230h235z" />
    <glyph glyph-name="Q" unicode="Q" horiz-adv-x="788" 
d="M45 350q0 79 25 145.5t70.5 115.5t109 76.5t140.5 27.5t140.5 -27.5t109 -76.5t70.5 -115.5t25 -145.5q0 -77 -23.5 -142t-66.5 -113l95 -95h-120l-39 39q-40 -26 -88 -40t-103 -14q-77 0 -140.5 27.5t-109 76t-70.5 115.5t-25 146zM145 350q0 -54 16 -104.5t46.5 -89.5
t76.5 -62.5t106 -23.5q37 0 68.5 9t57.5 25l-161 161h120l103 -103q29 38 43 86.5t14 101.5q0 54 -16 104.5t-46.5 89.5t-76.5 62.5t-106 23.5t-106 -23.5t-76.5 -62.5t-46.5 -89.5t-16 -104.5z" />
    <glyph glyph-name="R" unicode="R" horiz-adv-x="695" 
d="M425 385q64 0 94.5 31t30.5 84t-30.5 84t-94.5 31h-235v-230h235zM375 300l300 -300h-135l-295 300h-55v-300h-100v700h335q106 0 165.5 -53t59.5 -147t-59.5 -147t-165.5 -53h-50z" />
    <glyph glyph-name="S" unicode="S" horiz-adv-x="645" 
d="M324 715q71 0 120.5 -17.5t80.5 -44.5t46 -59.5t18 -63.5h-102q-2 21 -11.5 40t-29.5 34t-50 23.5t-72 8.5q-46 0 -79 -9t-54 -24t-30.5 -35.5t-9.5 -42.5q0 -56 39 -82.5t106 -36.5l80 -12q51 -8 93 -22t72 -37t46.5 -58t16.5 -84q0 -45 -18 -83t-53.5 -66t-88 -43.5
t-120.5 -15.5q-71 0 -123.5 16t-87.5 43t-53.5 63.5t-20.5 77.5h100q3 -58 49.5 -89.5t135.5 -31.5q88 0 134.5 33.5t46.5 87.5q0 30 -10.5 49.5t-30 31.5t-47 19t-61.5 13l-80 13q-103 16 -162.5 65t-59.5 142q0 40 16.5 76t50 63t84 42.5t119.5 15.5z" />
    <glyph glyph-name="T" unicode="T" horiz-adv-x="598" 
d="M584 615h-235v-615h-100v615h-235v85h570v-85z" />
    <glyph glyph-name="U" unicode="U" horiz-adv-x="724" 
d="M362 -15q-66 0 -118 20.5t-88 56t-55 84t-19 104.5v450h100v-450q0 -83 48.5 -131.5t131.5 -48.5t131.5 48.5t48.5 131.5v450h100v-450q0 -56 -19 -104.5t-55 -84t-88 -56t-118 -20.5z" />
    <glyph glyph-name="V" unicode="V" horiz-adv-x="645" 
d="M257 309q20 -56 35.5 -103t28.5 -96h3q13 49 28.5 96t35.5 103l142 391h105l-265 -700h-95l-265 700h105z" />
    <glyph glyph-name="W" unicode="W" horiz-adv-x="940" 
d="M468 565q-10 -49 -21.5 -96t-22.5 -87l-109 -382h-100l-200 700h100l102 -372q29 -107 46 -198h4q9 45 20.5 94t27.5 105l105 371h100l105 -371q16 -56 27.5 -105t20.5 -94h4q17 91 46 198l102 372h100l-200 -700h-100l-109 382q-11 40 -22.5 87t-21.5 96h-4z" />
    <glyph glyph-name="X" unicode="X" horiz-adv-x="632" 
d="M317 449l175 251h114l-234 -330l259 -370h-118l-198 287l-200 -287h-114l259 367l-234 333h118z" />
    <glyph glyph-name="Y" unicode="Y" horiz-adv-x="596" 
d="M248 280l-235 420h112l173 -330l173 330h112l-235 -420v-280h-100v280z" />
    <glyph glyph-name="Z" unicode="Z" horiz-adv-x="598" 
d="M566 0h-530v85l395 530h-385v85h505v-85l-395 -530h410v-85z" />
    <glyph glyph-name="bracketleft" unicode="[" horiz-adv-x="326" 
d="M83 700h216v-80h-120v-720h120v-80h-216v880z" />
    <glyph glyph-name="backslash" unicode="\" horiz-adv-x="553" 
d="M533 0h-107l-405 700h107z" />
    <glyph glyph-name="bracketright" unicode="]" horiz-adv-x="326" 
d="M243 -180h-216v80h120v720h-120v80h216v-880z" />
    <glyph glyph-name="asciicircum" unicode="^" horiz-adv-x="524" 
d="M222 700h80l190 -440h-87l-143 345l-143 -345h-87z" />
    <glyph glyph-name="underscore" unicode="_" horiz-adv-x="598" 
d="M54 0h490v-70h-490v70z" />
    <glyph glyph-name="grave" unicode="`" horiz-adv-x="270" 
d="M235 585h-95l-115 115h130z" />
    <glyph glyph-name="a" unicode="a" horiz-adv-x="572" 
d="M243 60q34 0 64 11t52.5 32t35.5 52t13 70v40l-170 -15q-53 -5 -79 -29t-26 -66q0 -26 8.5 -44.5t23.5 -29.5t35 -16t43 -5zM62 385q4 31 19 58.5t42.5 47.5t67 32t92.5 12q65 0 116.5 -19t79.5 -66q25 -42 25 -105v-345h-96v65q-23 -30 -67 -55t-108 -25
q-40 0 -75.5 10.5t-62.5 31.5t-42.5 53t-15.5 75q0 68 46.5 112.5t144.5 52.5l180 15v10q0 26 -6 47.5t-20.5 36.5t-38.5 23t-60 8q-57 0 -87.5 -20.5t-34.5 -54.5h-99z" />
    <glyph glyph-name="b" unicode="b" horiz-adv-x="622" 
d="M164 260q0 -39 10 -74.5t30.5 -62.5t50.5 -42.5t69 -15.5t69 15t50.5 41t30.5 62t10 77t-10 76.5t-30.5 62t-50.5 41.5t-69 15t-69 -15.5t-50.5 -42.5t-30.5 -62.5t-10 -74.5zM169 0h-96v700h96v-250q23 38 66.5 61.5t103.5 23.5q58 0 103 -22t76 -59.5t46.5 -87.5
t15.5 -106t-15.5 -106t-46.5 -87.5t-76 -59.5t-103 -22q-60 0 -103.5 23.5t-66.5 61.5v-70z" />
    <glyph glyph-name="c" unicode="c" horiz-adv-x="559" 
d="M531 145q-22 -72 -79.5 -116t-150.5 -44q-62 0 -110.5 21t-81.5 58t-50.5 87.5t-17.5 108.5t17.5 108.5t50.5 87.5t81.5 58t110.5 21q88 0 143.5 -41t81.5 -109h-104q-14 30 -43.5 50t-77.5 20q-43 0 -74 -15.5t-51 -42.5t-29.5 -62.5t-9.5 -74.5t9.5 -74.5t29.5 -62.5
t51 -42.5t74 -15.5q52 0 83 22t46 58h101z" />
    <glyph glyph-name="d" unicode="d" horiz-adv-x="621" 
d="M457 260q0 39 -10 74.5t-30.5 62.5t-50.5 42.5t-69 15.5t-69 -15t-50.5 -41.5t-30.5 -62t-10 -76.5t10 -77t30.5 -62t50.5 -41t69 -15t69 15.5t50.5 42.5t30.5 62.5t10 74.5zM452 70q-23 -38 -66.5 -61.5t-103.5 -23.5q-59 0 -103.5 22t-75.5 59.5t-46.5 87.5t-15.5 106
t15.5 106t46.5 87.5t75.5 59.5t103.5 22q60 0 103.5 -23.5t66.5 -61.5v250h96v-700h-96v70z" />
    <glyph glyph-name="e" unicode="e" horiz-adv-x="584" 
d="M536 145q-9 -32 -28.5 -61t-49 -51t-69 -35t-88.5 -13q-60 0 -108 21t-82 58t-52 87.5t-18 108.5t18 108.5t51.5 87.5t80.5 58t105 21q94 0 151 -48t82 -126q9 -29 13 -61t4 -65v-10h-409q1 -32 13 -61.5t33 -52.5t50.5 -37t67.5 -14q31 0 55 8t40 21t25 27.5t12 28.5
h103zM296 460q-38 0 -66.5 -13t-49 -35t-31.5 -51t-12 -61h313q-2 34 -12 63t-29 50.5t-47.5 34t-65.5 12.5z" />
    <glyph glyph-name="f" unicode="f" horiz-adv-x="381" 
d="M13 520h125v55q0 125 135 125h96v-78h-90q-26 0 -35.5 -10.5t-9.5 -36.5v-55h135v-80h-135v-440h-96v440h-125v80z" />
    <glyph glyph-name="g" unicode="g" horiz-adv-x="616" 
d="M452 270q0 37 -11 71t-31.5 59t-50.5 40t-67 15q-36 0 -64.5 -15t-48.5 -40t-31 -59t-11 -71q0 -38 11 -71.5t31 -58.5t48.5 -40t64.5 -15q37 0 67 15t50.5 40t31.5 58.5t11 71.5zM447 80q-8 -11 -22 -24.5t-34.5 -24.5t-47.5 -18.5t-61 -7.5q-55 0 -99.5 21t-76 57
t-48.5 84.5t-17 102.5t17 102.5t48.5 84.5t76 57t99.5 21q34 0 61 -7.5t47.5 -19t34.5 -24.5t22 -24v60h96v-465q0 -62 -17 -108.5t-49 -78t-77.5 -47.5t-102.5 -16q-44 0 -81 11t-65.5 30.5t-48 47t-26.5 61.5h100q3 -14 12 -27t24 -24t36 -17.5t49 -6.5q82 0 116 48
t34 127v25z" />
    <glyph glyph-name="h" unicode="h" horiz-adv-x="598" 
d="M169 450q26 42 71.5 63.5t98.5 21.5q91 0 141 -51t50 -149v-335h-96v325q0 64 -28 97t-92 33q-30 0 -56.5 -10t-46 -30.5t-31 -50.5t-11.5 -69v-295h-96v700h96v-250z" />
    <glyph glyph-name="i" unicode="i" horiz-adv-x="242" 
d="M73 520h96v-520h-96v520zM73 700h96v-100h-96v100z" />
    <glyph glyph-name="j" unicode="j" horiz-adv-x="246" 
d="M77 700h96v-100h-96v100zM77 520h96v-565q0 -68 -39.5 -101.5t-111.5 -33.5h-45v78h40q34 0 47 13.5t13 43.5v565z" />
    <glyph glyph-name="k" unicode="k" horiz-adv-x="521" 
d="M73 700h96v-402l217 222h124l-250 -250l270 -270h-131l-230 240v-240h-96v700z" />
    <glyph glyph-name="l" unicode="l" horiz-adv-x="242" 
d="M73 700h96v-700h-96v700z" />
    <glyph glyph-name="m" unicode="m" horiz-adv-x="917" 
d="M169 460q23 42 64 58.5t86 16.5q53 0 97.5 -22.5t67.5 -67.5q23 42 65 66t110 24q41 0 76 -12t60.5 -36.5t39.5 -61t14 -85.5v-340h-96v325q0 64 -27 97t-87 33q-24 0 -47.5 -8t-42 -25t-29.5 -45t-11 -67v-310h-96v325q0 64 -27 97t-87 33q-24 0 -47.5 -8t-42 -25
t-29.5 -45t-11 -67v-310h-96v520h96v-60z" />
    <glyph glyph-name="n" unicode="n" horiz-adv-x="597" 
d="M169 450q26 42 71.5 63.5t98.5 21.5q91 0 140.5 -51t49.5 -149v-335h-96v325q0 64 -28 97t-91 33q-30 0 -56.5 -10t-46 -30.5t-31 -50.5t-11.5 -69v-295h-96v520h96v-70z" />
    <glyph glyph-name="o" unicode="o" horiz-adv-x="610" 
d="M40 260q0 58 19 108.5t53.5 87.5t83.5 58t109 21t109 -21t83.5 -58t53.5 -87.5t19 -108.5t-19 -108.5t-53.5 -87.5t-83.5 -58t-109 -21t-109 21t-83.5 58t-53.5 87.5t-19 108.5zM474 260q0 39 -11 74.5t-32.5 62.5t-53 42.5t-72.5 15.5t-72.5 -15.5t-53 -42.5
t-32.5 -62.5t-11 -74.5t11 -74.5t32.5 -62.5t53 -42.5t72.5 -15.5t72.5 15.5t53 42.5t32.5 62.5t11 74.5z" />
    <glyph glyph-name="p" unicode="p" horiz-adv-x="622" 
d="M164 260q0 -39 10 -74.5t30.5 -62.5t50.5 -42.5t69 -15.5t69 15t50.5 41t30.5 62t10 77t-10 76.5t-30.5 62t-50.5 41.5t-69 15t-69 -15.5t-50.5 -42.5t-30.5 -62.5t-10 -74.5zM169 450q23 38 66.5 61.5t103.5 23.5q58 0 103 -22t76 -59.5t46.5 -87.5t15.5 -106
t-15.5 -106t-46.5 -87.5t-76 -59.5t-103 -22q-60 0 -103.5 23.5t-66.5 61.5v-250h-96v700h96v-70z" />
    <glyph glyph-name="q" unicode="q" horiz-adv-x="621" 
d="M457 260q0 39 -10 74.5t-30.5 62.5t-50.5 42.5t-69 15.5t-69 -15t-50.5 -41.5t-30.5 -62t-10 -76.5t10 -77t30.5 -62t50.5 -41t69 -15t69 15.5t50.5 42.5t30.5 62.5t10 74.5zM452 520h96v-700h-96v250q-23 -38 -66.5 -61.5t-103.5 -23.5q-59 0 -103.5 22t-75.5 59.5
t-46.5 87.5t-15.5 106t15.5 106t46.5 87.5t75.5 59.5t103.5 22q60 0 103.5 -23.5t66.5 -61.5v70z" />
    <glyph glyph-name="r" unicode="r" horiz-adv-x="355" 
d="M284 440q-53 0 -84 -31t-31 -99v-310h-96v520h96v-60q19 34 51 52t89 18h27v-90h-52z" />
    <glyph glyph-name="s" unicode="s" horiz-adv-x="521" 
d="M232 220q-40 6 -74 18t-58.5 31.5t-38.5 47t-14 65.5q0 67 55 110t160 43q54 0 93 -13.5t64.5 -35t38 -48t14.5 -53.5h-94q-2 34 -31 55.5t-87 21.5q-63 0 -90.5 -21t-27.5 -51q0 -38 28.5 -53.5t78.5 -23.5l48 -7q39 -6 72.5 -16t58.5 -28t39.5 -46.5t14.5 -70.5
q0 -72 -57.5 -116t-162.5 -44q-54 0 -95.5 12t-70 33.5t-43.5 50.5t-16 64h97q2 -45 35 -65.5t93 -20.5q62 0 93.5 21t31.5 57q0 21 -8 34t-22.5 21t-34 13t-43.5 8z" />
    <glyph glyph-name="t" unicode="t" horiz-adv-x="396" 
d="M137 440h-125v80h125v120h96v-120h135v-80h-135v-315q0 -26 9.5 -36.5t35.5 -10.5h90v-78h-110q-68 0 -94.5 32.5t-26.5 92.5v315z" />
    <glyph glyph-name="u" unicode="u" horiz-adv-x="592" 
d="M423 65q-23 -42 -67.5 -61t-97.5 -19q-91 0 -140.5 51t-49.5 149v335h96v-325q0 -64 28 -97t91 -33q60 0 100 40.5t40 119.5v295h96v-520h-96v65z" />
    <glyph glyph-name="v" unicode="v" horiz-adv-x="526" 
d="M13 520h100l89 -237q17 -44 32 -92.5t27 -90.5h4q12 42 27 90.5t32 92.5l89 237h100l-205 -520h-90z" />
    <glyph glyph-name="w" unicode="w" horiz-adv-x="766" 
d="M381 410q-9 -42 -21.5 -90.5t-26.5 -92.5l-73 -227h-88l-155 520h97l60 -224q14 -50 24.5 -99t16.5 -87h4q8 38 20.5 87t27.5 98l70 225h92l70 -225q15 -49 27.5 -98t20.5 -87h4q6 38 16.5 87t24.5 99l60 224h97l-155 -520h-88l-73 227q-14 44 -26.5 92.5t-21.5 90.5h-4z
" />
    <glyph glyph-name="x" unicode="x" horiz-adv-x="514" 
d="M258 345l122 175h112l-182 -248l197 -272h-116l-135 196l-137 -196h-112l197 269l-182 251h116z" />
    <glyph glyph-name="y" unicode="y" horiz-adv-x="514" 
d="M212 0l-196 520h102l84 -230q17 -45 30.5 -93t22.5 -83h5q10 35 25.5 83t32.5 93l84 230h99l-211 -569q-11 -30 -25.5 -54.5t-36.5 -41.5t-53.5 -26t-76.5 -9h-56v78h51q22 0 39 3.5t30.5 13t23.5 25.5t19 40z" />
    <glyph glyph-name="z" unicode="z" horiz-adv-x="512" 
d="M477 80v-80h-440v80l309 360h-299v80h420v-80l-309 -360h319z" />
    <glyph glyph-name="braceleft" unicode="{" horiz-adv-x="349" 
d="M40 300q17 0 32 2.5t26.5 11t17 24.5t4.5 42l-10 165q-3 41 8.5 70.5t32.5 48t50.5 27.5t63.5 9h55v-80h-39q-38 0 -57.5 -16.5t-17.5 -58.5l10 -165q4 -56 -19.5 -84.5t-60.5 -35.5q19 -4 34.5 -12.5t26 -23t16 -35.5t3.5 -49l-10 -165q-2 -42 17.5 -58.5t57.5 -16.5h39
v-80h-55q-34 0 -63.5 8.5t-50.5 27.5t-32.5 48.5t-8.5 70.5l10 165q1 26 -4.5 42t-17 24.5t-26.5 11t-32 2.5h-10v80h10z" />
    <glyph glyph-name="bar" unicode="|" horiz-adv-x="262" 
d="M83 700h96v-880h-96v880z" />
    <glyph glyph-name="braceright" unicode="}" horiz-adv-x="349" 
d="M319 300v-80h-10q-17 0 -32 -2.5t-26.5 -11t-17.5 -24.5t-4 -42l10 -165q3 -41 -8.5 -70.5t-32.5 -48.5t-50.5 -27.5t-63.5 -8.5h-55v80h39q38 0 57.5 16.5t17.5 58.5l-10 165q-4 56 19 84t61 36q-38 7 -61 35.5t-19 84.5l10 165q2 42 -17.5 58.5t-57.5 16.5h-39v80h55
q34 0 63.5 -9t50.5 -27.5t32.5 -48t8.5 -70.5l-10 -165q-2 -26 4 -42t17.5 -24.5t26.5 -11t32 -2.5h10z" />
    <glyph glyph-name="asciitilde" unicode="~" horiz-adv-x="620" 
d="M69 285q0 64 36 104.5t104 40.5q37 0 68 -13.5t57 -29t49 -29t46 -13.5q55 0 55 70h75q0 -64 -36 -104.5t-104 -40.5q-38 0 -68.5 13.5t-56.5 29t-49.5 29t-45.5 13.5q-55 0 -55 -70h-75z" />
    <glyph glyph-name="uni00A0" unicode="&#xa0;" horiz-adv-x="242" 
 />
    <glyph glyph-name="exclamdown" unicode="&#xa1;" horiz-adv-x="252" 
d="M186 385h-120v135h120v-135zM96 300h60l20 -225v-255h-100v255z" />
    <glyph glyph-name="cent" unicode="&#xa2;" horiz-adv-x="576" 
d="M262 -12q-51 8 -91.5 31.5t-69 59.5t-44 82t-15.5 99q0 52 15.5 98.5t44 82.5t69 59.5t91.5 31.5v88h80v-87q81 -8 130.5 -50.5t69.5 -107.5h-102q-11 31 -35.5 51t-62.5 26v-384q75 12 98 77h102q-20 -65 -69.5 -107.5t-130.5 -50.5v-87h-80v88zM138 260q0 -34 8 -65
t24 -56t39 -43t53 -25v378q-61 -16 -92.5 -69t-31.5 -120z" />
    <glyph glyph-name="sterling" unicode="&#xa3;" horiz-adv-x="581" 
d="M309 635q-60 0 -94.5 -35t-34.5 -95q0 -25 5.5 -47.5t14.5 -43t20 -40t22 -39.5h232v-80h-200q6 -24 6 -50q0 -45 -17 -75.5t-43 -49.5h325v-80h-498v80q28 0 53.5 7.5t44.5 22.5t30.5 37.5t11.5 52.5q0 14 -2.5 27.5t-7.5 27.5h-123v80h83q-20 37 -37.5 78.5t-17.5 96.5
q0 49 18.5 87t49.5 64t72.5 40t86.5 14q51 0 89.5 -14t65.5 -37.5t43 -54t22 -64.5h-99q-5 35 -35 62.5t-86 27.5z" />
    <glyph glyph-name="currency" unicode="&#xa4;" horiz-adv-x="636" 
d="M194 260q0 -28 9.5 -52t26 -41t39.5 -27t49 -10t49 10t39.5 27t26 41t9.5 52t-9.5 52t-26 41t-39.5 27t-49 10t-49 -10t-39.5 -27t-26 -41t-9.5 -52zM538 260q0 -34 -10 -65t-28 -57l93 -93l-60 -60l-95 95q-53 -35 -120 -35t-120 35l-95 -95l-60 60l93 93q-18 26 -28 57
t-10 65t10 65t28 57l-93 93l60 60l95 -95q53 35 120 35t120 -35l95 95l60 -60l-93 -93q18 -26 28 -57t10 -65z" />
    <glyph glyph-name="yen" unicode="&#xa5;" horiz-adv-x="604" 
d="M312 395l157 305h107l-165 -305h110v-80h-153l-17 -30v-30h130v-80h-130v-175h-98v175h-130v80h130v30l-17 30h-153v80h110l-165 305h107l157 -305h20z" />
    <glyph glyph-name="brokenbar" unicode="&#xa6;" horiz-adv-x="262" 
d="M83 165h96v-345h-96v345zM83 700h96v-345h-96v345z" />
    <glyph glyph-name="section" unicode="&#xa7;" horiz-adv-x="613" 
d="M33 280q0 47 27.5 83.5t71.5 53.5q-26 22 -42.5 52.5t-16.5 75.5q0 36 17 67t47.5 54t73 36t93.5 13q103 0 162.5 -45.5t68.5 -124.5h-97q-3 19 -11.5 35.5t-24.5 28.5t-40 19t-58 7q-64 0 -99.5 -26t-35.5 -64q0 -28 14 -46.5t37 -31t52.5 -19.5t61.5 -13
q43 -8 87 -19.5t79 -33t57.5 -56t22.5 -86.5q0 -48 -28 -84.5t-71 -53.5q26 -21 42.5 -52t16.5 -75q0 -36 -17 -67t-47.5 -54t-73 -36t-93.5 -13q-103 0 -162.5 45.5t-68.5 124.5h97q3 -19 11.5 -35.5t24.5 -28.5t40 -19t58 -7q64 0 99.5 26t35.5 64q0 28 -14 46.5t-37 31
t-52.5 19.5t-61.5 13q-43 7 -87 19t-79 33.5t-57.5 55.5t-22.5 87zM299 350q-23 5 -48.5 11.5t-50.5 17.5q-32 -12 -51.5 -36t-19.5 -53q0 -36 16 -56t42.5 -32t59.5 -18.5t67 -13.5q23 -5 48 -11.5t51 -17.5q32 12 51.5 36t19.5 53q0 36 -16.5 56t-42.5 32t-59 18t-67 14z
" />
    <glyph glyph-name="dieresis" unicode="&#xa8;" horiz-adv-x="410" 
d="M55 700h96v-100h-96v100zM259 700h96v-100h-96v100z" />
    <glyph glyph-name="copyright" unicode="&#xa9;" horiz-adv-x="816" 
d="M511 445q-6 21 -31 38t-67 17q-31 0 -56.5 -11t-44 -31t-29 -47.5t-10.5 -60.5q0 -32 10 -59.5t28 -47.5t44 -31.5t58 -11.5q44 0 68 17.5t32 42.5h81q-20 -61 -66 -93t-115 -32q-47 0 -86.5 16t-68 44.5t-44.5 68t-16 86.5t16 86.5t44.5 68t68 44.5t86.5 16
q69 0 115 -31.5t66 -88.5h-83zM43 350q0 75 29 141.5t78.5 116t116 78.5t141.5 29t141.5 -29t116 -78.5t78.5 -116t29 -141.5t-29 -141.5t-78.5 -116t-116 -78.5t-141.5 -29t-141.5 29t-116 78.5t-78.5 116t-29 141.5zM108 350q0 -62 23.5 -117t64 -95.5t95.5 -64t117 -23.5
t117 23.5t95.5 64t64 95.5t23.5 117t-23.5 117t-64 95.5t-95.5 64t-117 23.5t-117 -23.5t-95.5 -64t-64 -95.5t-23.5 -117z" />
    <glyph glyph-name="ordfeminine" unicode="&#xaa;" horiz-adv-x="469" 
d="M63 595q11 53 52 84t118 31q36 0 67 -8t54 -25t36 -45t13 -67v-275h-75v51q-20 -24 -53 -42.5t-82 -18.5q-30 0 -57 7.5t-48 23.5t-33 40.5t-12 58.5q0 117 151 130l134 12v13q0 37 -20 59.5t-75 22.5q-42 0 -64 -14t-27 -38h-79zM195 343q27 0 51.5 8.5t42.5 25t28.5 40
t10.5 53.5v23l-133 -13q-37 -4 -57 -20t-20 -50q0 -30 21 -48.5t56 -18.5z" />
    <glyph glyph-name="guillemotleft" unicode="&#xab;" horiz-adv-x="604" 
d="M317 90h-120l-170 170l170 170h120l-175 -170zM547 90h-120l-170 170l170 170h120l-175 -170z" />
    <glyph glyph-name="logicalnot" unicode="&#xac;" horiz-adv-x="607" 
d="M456 380h-400v80h480v-220h-80v140z" />
    <glyph glyph-name="uni00AD" unicode="&#xad;" horiz-adv-x="396" 
d="M63 300h270v-80h-270v80z" />
    <glyph glyph-name="registered" unicode="&#xae;" horiz-adv-x="816" 
d="M43 350q0 75 29 141.5t78.5 116t116 78.5t141.5 29t141.5 -29t116 -78.5t78.5 -116t29 -141.5t-29 -141.5t-78.5 -116t-116 -78.5t-141.5 -29t-141.5 29t-116 78.5t-78.5 116t-29 141.5zM108 350q0 -62 23.5 -117t64 -95.5t95.5 -64t117 -23.5t117 23.5t95.5 64t64 95.5
t23.5 117t-23.5 117t-64 95.5t-95.5 64t-117 23.5t-117 -23.5t-95.5 -64t-64 -95.5t-23.5 -117zM328 305v-160h-75v410h210q60 0 95 -34t35 -91t-35 -91t-95 -34h-20l160 -160h-98l-157 160h-20zM458 370q30 0 45 17t15 43t-15 43t-45 17h-130v-120h130z" />
    <glyph glyph-name="macron" unicode="&#xaf;" horiz-adv-x="430" 
d="M50 685h330v-75h-330v75z" />
    <glyph glyph-name="degree" unicode="&#xb0;" horiz-adv-x="506" 
d="M118 505q0 -30 10 -55.5t27.5 -44.5t42.5 -29.5t55 -10.5t55 10.5t42.5 29.5t27.5 44.5t10 55.5t-10 55.5t-27.5 44.5t-42.5 29.5t-55 10.5t-55 -10.5t-42.5 -29.5t-27.5 -44.5t-10 -55.5zM468 505q0 -43 -16 -81.5t-44.5 -67t-68 -45t-86.5 -16.5t-86.5 16.5t-68 45
t-44.5 67t-16 81.5t16 81.5t44.5 67t68 45t86.5 16.5t86.5 -16.5t68 -45t44.5 -67t16 -81.5z" />
    <glyph glyph-name="plusminus" unicode="&#xb1;" horiz-adv-x="586" 
d="M73 480h180v130h80v-130h180v-80h-180v-130h-80v130h-180v80zM73 170h440v-80h-440v80z" />
    <glyph glyph-name="twosuperior" unicode="&#xb2;" horiz-adv-x="353" 
d="M33 700q2 21 11.5 40.5t26.5 35t42.5 25t59.5 9.5q64 0 102 -33.5t38 -86.5q0 -42 -20 -71.5t-50 -58.5l-110 -105h190v-65h-290v65l160 155q24 23 34.5 40t10.5 40q0 19 -14 37t-51 18q-30 0 -46 -12.5t-18 -32.5h-76z" />
    <glyph glyph-name="threesuperior" unicode="&#xb3;" horiz-adv-x="359" 
d="M101 495q3 -17 18 -33.5t51 -16.5q42 0 61 18t19 44t-16.5 44.5t-58.5 18.5h-35v60h35q34 0 49.5 16.5t15.5 40.5q0 23 -15 40.5t-50 17.5t-48.5 -15.5t-15.5 -29.5h-76q4 45 40 77.5t100 32.5t102 -33.5t38 -86.5q0 -30 -16 -52t-39 -33q30 -11 47.5 -36.5t17.5 -63.5
q0 -57 -41.5 -91t-113.5 -34q-33 0 -59 9.5t-44.5 25.5t-29 36.5t-12.5 43.5h76z" />
    <glyph glyph-name="acute" unicode="&#xb4;" horiz-adv-x="270" 
d="M115 700h130l-115 -115h-95z" />
    <glyph glyph-name="mu" unicode="&#xb5;" horiz-adv-x="628" 
d="M448 40q-23 -26 -57.5 -40.5t-76.5 -14.5t-76.5 14.5t-57.5 40.5v-220h-96v700h96v-325q0 -57 33 -93.5t101 -36.5q64 0 99 35t35 95v325h96v-520h-96v40z" />
    <glyph glyph-name="paragraph" unicode="&#xb6;" horiz-adv-x="651" 
d="M238 -180v480q-45 0 -83.5 14.5t-66.5 40.5t-44 63t-16 82t16 82t44 63t66.5 40.5t83.5 14.5h372v-80h-80v-800h-96v800h-100v-800h-96z" />
    <glyph glyph-name="periodcentered" unicode="&#xb7;" horiz-adv-x="248" 
d="M64 330h120v-135h-120v135z" />
    <glyph glyph-name="cedilla" unicode="&#xb8;" horiz-adv-x="275" 
d="M130 -165q17 0 28.5 11.5t11.5 28.5t-11.5 28.5t-28.5 11.5t-29 -12l-38 38l74 74h76l-59 -59q35 -2 55.5 -24.5t20.5 -56.5q0 -19 -8 -35.5t-21.5 -28.5t-31.5 -19t-39 -7q-36 0 -62.5 20t-32.5 50h63q8 -20 32 -20z" />
    <glyph glyph-name="onesuperior" unicode="&#xb9;" horiz-adv-x="264" 
d="M121 390v320l-100 -105v95l100 100h75v-410h-75z" />
    <glyph glyph-name="ordmasculine" unicode="&#xba;" horiz-adv-x="490" 
d="M450 495q0 -47 -14.5 -86t-41 -68t-64.5 -45t-85 -16t-85 16t-64.5 45t-41 68t-14.5 86q0 46 14.5 85.5t41 68.5t64.5 45t85 16t85 -16t64.5 -45t41 -68.5t14.5 -85.5zM115 495q0 -27 7.5 -53.5t23 -48t40 -35t59.5 -13.5q34 0 59 13.5t40.5 35t23 48t7.5 53.5t-7.5 53.5
t-23 48t-40.5 35t-59 13.5q-35 0 -59.5 -13.5t-40 -35t-23 -48t-7.5 -53.5z" />
    <glyph glyph-name="guillemotright" unicode="&#xbb;" horiz-adv-x="604" 
d="M232 260l-175 170h120l170 -170l-170 -170h-120zM462 260l-175 170h120l170 -170l-170 -170h-120z" />
    <glyph glyph-name="onequarter" unicode="&#xbc;" horiz-adv-x="742" 
d="M121 290v320l-100 -105v95l100 100h75v-410h-75zM490 700h84l-390 -700h-84zM577 410h80v-265h60v-65h-60v-80h-75v80h-190v65zM469 145h113v75v29.5t0.5 24t1.5 22.5t2 24h-4q-6 -11 -10.5 -20t-10 -18.5t-12.5 -20t-17 -24.5z" />
    <glyph glyph-name="onehalf" unicode="&#xbd;" horiz-adv-x="762" 
d="M121 290v320l-100 -105v95l100 100h75v-410h-75zM490 700h84l-390 -700h-84zM441 310q2 21 11.5 40.5t26.5 35t42.5 25t59.5 9.5q64 0 102 -33.5t38 -86.5q0 -42 -20 -71.5t-50 -58.5l-110 -105h190v-65h-290v65l160 155q24 23 34.5 40t10.5 40q0 19 -14 37t-51 18
q-30 0 -46 -12.5t-18 -32.5h-76z" />
    <glyph glyph-name="threequarters" unicode="&#xbe;" horiz-adv-x="831" 
d="M100 395q3 -17 18 -33.5t51 -16.5q42 0 61 18t19 44t-16.5 44.5t-58.5 18.5h-35v60h35q34 0 49.5 16.5t15.5 40.5q0 23 -15 40.5t-50 17.5t-48.5 -15.5t-15.5 -29.5h-76q4 45 40 77.5t100 32.5t102 -33.5t38 -86.5q0 -30 -16 -52t-39 -33q30 -11 47.5 -36.5t17.5 -63.5
q0 -57 -41.5 -91t-113.5 -34q-33 0 -59 9.5t-44.5 25.5t-29 36.5t-12.5 43.5h76zM579 700h84l-390 -700h-84zM666 410h80v-265h60v-65h-60v-80h-75v80h-190v65zM558 145h113v75v29.5t0.5 24t1.5 22.5t2 24h-4q-6 -11 -10.5 -20t-10 -18.5t-12.5 -20t-17 -24.5z" />
    <glyph glyph-name="questiondown" unicode="&#xbf;" horiz-adv-x="490" 
d="M324 385h-120v135h120v-135zM464 -25q-2 -38 -18 -69t-44.5 -53.5t-67 -35t-85.5 -12.5q-53 0 -93 15t-67 40t-41 58.5t-14 71.5q0 44 13.5 73.5t34.5 51.5t44.5 39.5t44.5 37.5t34.5 45t13.5 63h90q0 -48 -13 -80t-32.5 -56t-42 -41.5t-42 -36.5t-32.5 -41.5t-13 -54.5
q0 -17 6 -34.5t19.5 -32t35.5 -24t54 -9.5q30 0 51 7.5t34.5 20t20.5 27.5t9 30h100z" />
    <glyph glyph-name="Agrave" unicode="&#xc0;" horiz-adv-x="682" 
d="M506 165h-330l-65 -165h-105l285 700h100l285 -700h-105zM339 590q-11 -34 -28 -82.5t-37 -96.5l-64 -161h262l-64 161q-20 48 -37 96.5t-28 82.5h-4zM421 765h-95l-115 115h130z" />
    <glyph glyph-name="Aacute" unicode="&#xc1;" horiz-adv-x="682" 
d="M506 165h-330l-65 -165h-105l285 700h100l285 -700h-105zM339 590q-11 -34 -28 -82.5t-37 -96.5l-64 -161h262l-64 161q-20 48 -37 96.5t-28 82.5h-4zM341 880h130l-115 -115h-95z" />
    <glyph glyph-name="Acircumflex" unicode="&#xc2;" horiz-adv-x="682" 
d="M506 165h-330l-65 -165h-105l285 700h100l285 -700h-105zM339 590q-11 -34 -28 -82.5t-37 -96.5l-64 -161h262l-64 161q-20 48 -37 96.5t-28 82.5h-4zM341 830l-45 -65h-125l115 115h110l115 -115h-125z" />
    <glyph glyph-name="Atilde" unicode="&#xc3;" horiz-adv-x="682" 
d="M506 165h-330l-65 -165h-105l285 700h100l285 -700h-105zM339 590q-11 -34 -28 -82.5t-37 -96.5l-64 -161h262l-64 161q-20 48 -37 96.5t-28 82.5h-4zM156 770q0 30 9.5 52.5t25.5 37.5t36.5 22.5t43.5 7.5q26 0 48 -10t40 -22.5t33.5 -22.5t28.5 -10q19 0 27 13t8 32h70
q0 -30 -9.5 -52.5t-25.5 -37.5t-37 -22.5t-43 -7.5q-26 0 -48 10t-40 22.5t-33.5 22.5t-28.5 10q-19 0 -27 -13t-8 -32h-70z" />
    <glyph glyph-name="Adieresis" unicode="&#xc4;" horiz-adv-x="682" 
d="M506 165h-330l-65 -165h-105l285 700h100l285 -700h-105zM339 590q-11 -34 -28 -82.5t-37 -96.5l-64 -161h262l-64 161q-20 48 -37 96.5t-28 82.5h-4zM191 880h96v-100h-96v100zM395 880h96v-100h-96v100z" />
    <glyph glyph-name="Aring" unicode="&#xc5;" horiz-adv-x="682" 
d="M506 165h-330l-65 -165h-105l283 694q-35 13 -56.5 42.5t-21.5 68.5q0 26 10 48t27 38t41 25t52 9t52 -9t41 -25t27 -38t10 -48q0 -39 -21.5 -68.5t-56.5 -42.5l283 -694h-105zM339 590q-11 -34 -28 -82.5t-37 -96.5l-64 -161h262l-64 161q-20 48 -37 96.5t-28 82.5h-4z
M406 805q0 28 -18.5 46.5t-46.5 18.5t-46.5 -18.5t-18.5 -46.5t18.5 -46.5t46.5 -18.5t46.5 18.5t18.5 46.5z" />
    <glyph glyph-name="AE" unicode="&#xc6;" horiz-adv-x="1043" 
d="M987 700v-85h-370v-210h350v-85h-350v-235h370v-85h-470v165h-300l-110 -165h-120l470 700h530zM513 615q-17 -27 -42.5 -68t-66.5 -102l-130 -195h243v365h-4z" />
    <glyph glyph-name="Ccedilla" unicode="&#xc7;" horiz-adv-x="715" 
d="M385 -165q17 0 28.5 11.5t11.5 28.5t-11.5 28.5t-28.5 11.5t-29 -12l-38 38l45 45q-73 5 -132 34t-100 77.5t-63.5 113t-22.5 139.5q0 79 24.5 145.5t69.5 115.5t108.5 76.5t142.5 27.5q112 0 184 -50.5t106 -134.5h-109q-24 46 -68 73t-113 27q-62 0 -108 -23.5
t-76.5 -62.5t-45.5 -89.5t-15 -104.5t15 -104.5t45.5 -89.5t76.5 -62.5t108 -23.5q77 0 122 32.5t65 82.5h108q-28 -79 -87.5 -131.5t-156.5 -65.5l-32 -32q35 -2 55.5 -24.5t20.5 -56.5q0 -19 -8 -35.5t-21.5 -28.5t-31.5 -19t-39 -7q-36 0 -62.5 20t-32.5 50h63
q8 -20 32 -20z" />
    <glyph glyph-name="Egrave" unicode="&#xc8;" horiz-adv-x="636" 
d="M90 700h490v-85h-390v-210h370v-85h-370v-235h390v-85h-490v700zM420 765h-95l-115 115h130z" />
    <glyph glyph-name="Eacute" unicode="&#xc9;" horiz-adv-x="636" 
d="M90 700h490v-85h-390v-210h370v-85h-370v-235h390v-85h-490v700zM330 880h130l-115 -115h-95z" />
    <glyph glyph-name="Ecircumflex" unicode="&#xca;" horiz-adv-x="636" 
d="M90 700h490v-85h-390v-210h370v-85h-370v-235h390v-85h-490v700zM335 830l-45 -65h-125l115 115h110l115 -115h-125z" />
    <glyph glyph-name="Edieresis" unicode="&#xcb;" horiz-adv-x="636" 
d="M90 700h490v-85h-390v-210h370v-85h-370v-235h390v-85h-490v700zM185 880h96v-100h-96v100zM389 880h96v-100h-96v100z" />
    <glyph glyph-name="Igrave" unicode="&#xcc;" horiz-adv-x="280" 
d="M90 0v700h100v-700h-100zM221 765h-95l-115 115h130z" />
    <glyph glyph-name="Iacute" unicode="&#xcd;" horiz-adv-x="280" 
d="M90 0v700h100v-700h-100zM140 880h130l-115 -115h-95z" />
    <glyph glyph-name="Icircumflex" unicode="&#xce;" horiz-adv-x="280" 
d="M90 0v700h100v-700h-100zM141 830l-45 -65h-125l115 115h110l115 -115h-125z" />
    <glyph glyph-name="Idieresis" unicode="&#xcf;" horiz-adv-x="280" 
d="M90 0v700h100v-700h-100zM-9 880h96v-100h-96v100zM195 880h96v-100h-96v100z" />
    <glyph glyph-name="Eth" unicode="&#xd0;" horiz-adv-x="744" 
d="M112 395v305h245q81 0 144 -24t106.5 -69t66.5 -110t23 -147q0 -83 -23 -148t-66.5 -110t-106.5 -68.5t-144 -23.5h-245v315h-100v80h100zM212 395h210v-80h-210v-230h135q124 0 187 70.5t63 194.5t-63 194.5t-187 70.5h-135v-220z" />
    <glyph glyph-name="Ntilde" unicode="&#xd1;" horiz-adv-x="760" 
d="M324 347q-57 81 -87.5 129.5t-47.5 78.5h-4q2 -24 3 -46t1.5 -47t0.5 -55.5v-71.5v-335h-100v700h105l241 -347q57 -81 87.5 -129.5t47.5 -78.5h4q-2 24 -3 46t-1.5 47t-0.5 55.5v71.5v335h100v-700h-105zM195 770q0 30 9.5 52.5t25.5 37.5t36.5 22.5t43.5 7.5
q26 0 48 -10t40 -22.5t33.5 -22.5t28.5 -10q19 0 27 13t8 32h70q0 -30 -9.5 -52.5t-25.5 -37.5t-37 -22.5t-43 -7.5q-26 0 -48 10t-40 22.5t-33.5 22.5t-28.5 10q-19 0 -27 -13t-8 -32h-70z" />
    <glyph glyph-name="Ograve" unicode="&#xd2;" horiz-adv-x="780" 
d="M45 350q0 79 25 145.5t70.5 115.5t109 76.5t140.5 27.5t140.5 -27.5t109 -76.5t70.5 -115.5t25 -145.5t-25 -146t-70.5 -115.5t-109 -76t-140.5 -27.5t-140.5 27.5t-109 76t-70.5 115.5t-25 146zM145 350q0 -54 16 -104.5t46.5 -89.5t76.5 -62.5t106 -23.5t106 23.5
t76.5 62.5t46.5 89.5t16 104.5t-16 104.5t-46.5 89.5t-76.5 62.5t-106 23.5t-106 -23.5t-76.5 -62.5t-46.5 -89.5t-16 -104.5zM475 765h-95l-115 115h130z" />
    <glyph glyph-name="Oacute" unicode="&#xd3;" horiz-adv-x="780" 
d="M45 350q0 79 25 145.5t70.5 115.5t109 76.5t140.5 27.5t140.5 -27.5t109 -76.5t70.5 -115.5t25 -145.5t-25 -146t-70.5 -115.5t-109 -76t-140.5 -27.5t-140.5 27.5t-109 76t-70.5 115.5t-25 146zM145 350q0 -54 16 -104.5t46.5 -89.5t76.5 -62.5t106 -23.5t106 23.5
t76.5 62.5t46.5 89.5t16 104.5t-16 104.5t-46.5 89.5t-76.5 62.5t-106 23.5t-106 -23.5t-76.5 -62.5t-46.5 -89.5t-16 -104.5zM385 880h130l-115 -115h-95z" />
    <glyph glyph-name="Ocircumflex" unicode="&#xd4;" horiz-adv-x="780" 
d="M45 350q0 79 25 145.5t70.5 115.5t109 76.5t140.5 27.5t140.5 -27.5t109 -76.5t70.5 -115.5t25 -145.5t-25 -146t-70.5 -115.5t-109 -76t-140.5 -27.5t-140.5 27.5t-109 76t-70.5 115.5t-25 146zM145 350q0 -54 16 -104.5t46.5 -89.5t76.5 -62.5t106 -23.5t106 23.5
t76.5 62.5t46.5 89.5t16 104.5t-16 104.5t-46.5 89.5t-76.5 62.5t-106 23.5t-106 -23.5t-76.5 -62.5t-46.5 -89.5t-16 -104.5zM390 830l-45 -65h-125l115 115h110l115 -115h-125z" />
    <glyph glyph-name="Otilde" unicode="&#xd5;" horiz-adv-x="780" 
d="M45 350q0 79 25 145.5t70.5 115.5t109 76.5t140.5 27.5t140.5 -27.5t109 -76.5t70.5 -115.5t25 -145.5t-25 -146t-70.5 -115.5t-109 -76t-140.5 -27.5t-140.5 27.5t-109 76t-70.5 115.5t-25 146zM145 350q0 -54 16 -104.5t46.5 -89.5t76.5 -62.5t106 -23.5t106 23.5
t76.5 62.5t46.5 89.5t16 104.5t-16 104.5t-46.5 89.5t-76.5 62.5t-106 23.5t-106 -23.5t-76.5 -62.5t-46.5 -89.5t-16 -104.5zM205 770q0 30 9.5 52.5t25.5 37.5t36.5 22.5t43.5 7.5q26 0 48 -10t40 -22.5t33.5 -22.5t28.5 -10q19 0 27 13t8 32h70q0 -30 -9.5 -52.5
t-25.5 -37.5t-37 -22.5t-43 -7.5q-26 0 -48 10t-40 22.5t-33.5 22.5t-28.5 10q-19 0 -27 -13t-8 -32h-70z" />
    <glyph glyph-name="Odieresis" unicode="&#xd6;" horiz-adv-x="780" 
d="M45 350q0 79 25 145.5t70.5 115.5t109 76.5t140.5 27.5t140.5 -27.5t109 -76.5t70.5 -115.5t25 -145.5t-25 -146t-70.5 -115.5t-109 -76t-140.5 -27.5t-140.5 27.5t-109 76t-70.5 115.5t-25 146zM145 350q0 -54 16 -104.5t46.5 -89.5t76.5 -62.5t106 -23.5t106 23.5
t76.5 62.5t46.5 89.5t16 104.5t-16 104.5t-46.5 89.5t-76.5 62.5t-106 23.5t-106 -23.5t-76.5 -62.5t-46.5 -89.5t-16 -104.5zM240 880h96v-100h-96v100zM444 880h96v-100h-96v100z" />
    <glyph glyph-name="multiply" unicode="&#xd7;" horiz-adv-x="550" 
d="M505 176l-56 -56l-174 174l-174 -174l-56 56l174 174l-174 174l56 56l174 -174l174 174l56 -56l-174 -174z" />
    <glyph glyph-name="Oslash" unicode="&#xd8;" horiz-adv-x="784" 
d="M133 99q-42 48 -64 112t-22 139q0 79 25 145.5t70.5 115.5t109 76.5t140.5 27.5q60 0 110.5 -16.5t92.5 -46.5l52 63h100l-95 -115q41 -48 63 -111.5t22 -138.5q0 -79 -25 -146t-70.5 -115.5t-109 -76t-140.5 -27.5q-59 0 -109.5 16t-92.5 46l-53 -62h-100zM147 350
q0 -48 12.5 -93t36.5 -82l340 407q-29 23 -64.5 35.5t-79.5 12.5q-60 0 -106 -23.5t-76.5 -62.5t-46.5 -89.5t-16 -104.5zM637 350q0 48 -12 92.5t-36 82.5l-341 -408q29 -22 64.5 -34.5t79.5 -12.5q60 0 106 23.5t76.5 62.5t46.5 89.5t16 104.5z" />
    <glyph glyph-name="Ugrave" unicode="&#xd9;" horiz-adv-x="724" 
d="M362 -15q-66 0 -118 20.5t-88 56t-55 84t-19 104.5v450h100v-450q0 -83 48.5 -131.5t131.5 -48.5t131.5 48.5t48.5 131.5v450h100v-450q0 -56 -19 -104.5t-55 -84t-88 -56t-118 -20.5zM447 765h-95l-115 115h130z" />
    <glyph glyph-name="Uacute" unicode="&#xda;" horiz-adv-x="724" 
d="M362 -15q-66 0 -118 20.5t-88 56t-55 84t-19 104.5v450h100v-450q0 -83 48.5 -131.5t131.5 -48.5t131.5 48.5t48.5 131.5v450h100v-450q0 -56 -19 -104.5t-55 -84t-88 -56t-118 -20.5zM357 880h130l-115 -115h-95z" />
    <glyph glyph-name="Ucircumflex" unicode="&#xdb;" horiz-adv-x="724" 
d="M362 -15q-66 0 -118 20.5t-88 56t-55 84t-19 104.5v450h100v-450q0 -83 48.5 -131.5t131.5 -48.5t131.5 48.5t48.5 131.5v450h100v-450q0 -56 -19 -104.5t-55 -84t-88 -56t-118 -20.5zM362 830l-45 -65h-125l115 115h110l115 -115h-125z" />
    <glyph glyph-name="Udieresis" unicode="&#xdc;" horiz-adv-x="724" 
d="M362 -15q-66 0 -118 20.5t-88 56t-55 84t-19 104.5v450h100v-450q0 -83 48.5 -131.5t131.5 -48.5t131.5 48.5t48.5 131.5v450h100v-450q0 -56 -19 -104.5t-55 -84t-88 -56t-118 -20.5zM212 880h96v-100h-96v100zM416 880h96v-100h-96v100z" />
    <glyph glyph-name="Yacute" unicode="&#xdd;" horiz-adv-x="596" 
d="M248 280l-235 420h112l173 -330l173 330h112l-235 -420v-280h-100v280zM293 880h130l-115 -115h-95z" />
    <glyph glyph-name="Thorn" unicode="&#xde;" horiz-adv-x="688" 
d="M190 160v-160h-100v700h100v-140h235q106 0 165.5 -53t59.5 -147t-59.5 -147t-165.5 -53h-235zM425 245q64 0 94.5 31t30.5 84t-30.5 84t-94.5 31h-235v-230h235z" />
    <glyph glyph-name="germandbls" unicode="&#xdf;" horiz-adv-x="604" 
d="M261 0v80h63q75 0 110 36.5t35 93.5q0 60 -34 97.5t-106 37.5h-55v75h35q56 0 83 32.5t27 77.5q0 17 -6 35.5t-20 34t-37 25.5t-57 10q-71 0 -100.5 -35.5t-29.5 -99.5v-500h-96v500q0 47 13.5 86.5t41 68t70 44.5t101.5 16q55 0 95.5 -15t67.5 -39.5t40 -57t13 -68.5
q0 -45 -20 -81t-66 -59q72 -19 104 -70t32 -115q0 -45 -15.5 -83.5t-45.5 -66.5t-74 -44t-101 -16h-68z" />
    <glyph glyph-name="agrave" unicode="&#xe0;" horiz-adv-x="572" 
d="M243 60q34 0 64 11t52.5 32t35.5 52t13 70v40l-170 -15q-53 -5 -79 -29t-26 -66q0 -26 8.5 -44.5t23.5 -29.5t35 -16t43 -5zM62 385q4 31 19 58.5t42.5 47.5t67 32t92.5 12q65 0 116.5 -19t79.5 -66q25 -42 25 -105v-345h-96v65q-23 -30 -67 -55t-108 -25
q-40 0 -75.5 10.5t-62.5 31.5t-42.5 53t-15.5 75q0 68 46.5 112.5t144.5 52.5l180 15v10q0 26 -6 47.5t-20.5 36.5t-38.5 23t-60 8q-57 0 -87.5 -20.5t-34.5 -54.5h-99zM370 585h-95l-115 115h130z" />
    <glyph glyph-name="aacute" unicode="&#xe1;" horiz-adv-x="572" 
d="M243 60q34 0 64 11t52.5 32t35.5 52t13 70v40l-170 -15q-53 -5 -79 -29t-26 -66q0 -26 8.5 -44.5t23.5 -29.5t35 -16t43 -5zM62 385q4 31 19 58.5t42.5 47.5t67 32t92.5 12q65 0 116.5 -19t79.5 -66q25 -42 25 -105v-345h-96v65q-23 -30 -67 -55t-108 -25
q-40 0 -75.5 10.5t-62.5 31.5t-42.5 53t-15.5 75q0 68 46.5 112.5t144.5 52.5l180 15v10q0 26 -6 47.5t-20.5 36.5t-38.5 23t-60 8q-57 0 -87.5 -20.5t-34.5 -54.5h-99zM275 700h130l-115 -115h-95z" />
    <glyph glyph-name="acircumflex" unicode="&#xe2;" horiz-adv-x="572" 
d="M243 60q34 0 64 11t52.5 32t35.5 52t13 70v40l-170 -15q-53 -5 -79 -29t-26 -66q0 -26 8.5 -44.5t23.5 -29.5t35 -16t43 -5zM62 385q4 31 19 58.5t42.5 47.5t67 32t92.5 12q65 0 116.5 -19t79.5 -66q25 -42 25 -105v-345h-96v65q-23 -30 -67 -55t-108 -25
q-40 0 -75.5 10.5t-62.5 31.5t-42.5 53t-15.5 75q0 68 46.5 112.5t144.5 52.5l180 15v10q0 26 -6 47.5t-20.5 36.5t-38.5 23t-60 8q-57 0 -87.5 -20.5t-34.5 -54.5h-99zM283 650l-45 -65h-125l115 115h110l115 -115h-125z" />
    <glyph glyph-name="atilde" unicode="&#xe3;" horiz-adv-x="572" 
d="M243 60q34 0 64 11t52.5 32t35.5 52t13 70v40l-170 -15q-53 -5 -79 -29t-26 -66q0 -26 8.5 -44.5t23.5 -29.5t35 -16t43 -5zM62 385q4 31 19 58.5t42.5 47.5t67 32t92.5 12q65 0 116.5 -19t79.5 -66q25 -42 25 -105v-345h-96v65q-23 -30 -67 -55t-108 -25
q-40 0 -75.5 10.5t-62.5 31.5t-42.5 53t-15.5 75q0 68 46.5 112.5t144.5 52.5l180 15v10q0 26 -6 47.5t-20.5 36.5t-38.5 23t-60 8q-57 0 -87.5 -20.5t-34.5 -54.5h-99zM98 590q0 30 9.5 52.5t25.5 37.5t36.5 22.5t43.5 7.5q26 0 48 -10t40 -22.5t33.5 -22.5t28.5 -10
q19 0 27 13t8 32h70q0 -30 -9.5 -52.5t-25.5 -37.5t-37 -22.5t-43 -7.5q-26 0 -48 10t-40 22.5t-33.5 22.5t-28.5 10q-19 0 -27 -13t-8 -32h-70z" />
    <glyph glyph-name="adieresis" unicode="&#xe4;" horiz-adv-x="572" 
d="M243 60q34 0 64 11t52.5 32t35.5 52t13 70v40l-170 -15q-53 -5 -79 -29t-26 -66q0 -26 8.5 -44.5t23.5 -29.5t35 -16t43 -5zM62 385q4 31 19 58.5t42.5 47.5t67 32t92.5 12q65 0 116.5 -19t79.5 -66q25 -42 25 -105v-345h-96v65q-23 -30 -67 -55t-108 -25
q-40 0 -75.5 10.5t-62.5 31.5t-42.5 53t-15.5 75q0 68 46.5 112.5t144.5 52.5l180 15v10q0 26 -6 47.5t-20.5 36.5t-38.5 23t-60 8q-57 0 -87.5 -20.5t-34.5 -54.5h-99zM133 700h96v-100h-96v100zM337 700h96v-100h-96v100z" />
    <glyph glyph-name="aring" unicode="&#xe5;" horiz-adv-x="572" 
d="M243 60q34 0 64 11t52.5 32t35.5 52t13 70v40l-170 -15q-53 -5 -79 -29t-26 -66q0 -26 8.5 -44.5t23.5 -29.5t35 -16t43 -5zM62 385q4 31 19 58.5t42.5 47.5t67 32t92.5 12q65 0 116.5 -19t79.5 -66q25 -42 25 -105v-345h-96v65q-23 -30 -67 -55t-108 -25
q-40 0 -75.5 10.5t-62.5 31.5t-42.5 53t-15.5 75q0 68 46.5 112.5t144.5 52.5l180 15v10q0 26 -6 47.5t-20.5 36.5t-38.5 23t-60 8q-57 0 -87.5 -20.5t-34.5 -54.5h-99zM348 685q0 28 -18.5 46.5t-46.5 18.5t-46.5 -18.5t-18.5 -46.5t18.5 -46.5t46.5 -18.5t46.5 18.5
t18.5 46.5zM413 685q0 -26 -10 -48t-27 -38t-41 -25t-52 -9t-52 9t-41 25t-27 38t-10 48t10 48t27 38t41 25t52 9t52 -9t41 -25t27 -38t10 -48z" />
    <glyph glyph-name="ae" unicode="&#xe6;" horiz-adv-x="951" 
d="M243 60q34 0 64 11t52.5 32t35.5 52t13 70v40l-170 -15q-53 -5 -79 -29t-26 -66q0 -26 8.5 -44.5t23.5 -29.5t35 -16t43 -5zM663 460q-38 0 -66.5 -13t-49 -35t-31.5 -51t-12 -61h313q-2 34 -12 63t-29 50.5t-47.5 34t-65.5 12.5zM668 -15q-72 0 -126.5 30t-87.5 81
q-12 -19 -29.5 -39t-43.5 -36t-61 -26t-82 -10q-42 0 -78.5 10.5t-63.5 31.5t-43 53t-16 75q0 68 46.5 112.5t144.5 52.5l180 15v10q0 26 -6 47.5t-20.5 36.5t-38.5 23t-60 8q-57 0 -87.5 -20.5t-34.5 -54.5h-99q4 31 19 58.5t42.5 47.5t67 32t92.5 12q63 0 114 -18.5
t79 -63.5q33 38 80.5 60t106.5 22q94 0 151 -48t82 -126q9 -29 13 -61t4 -65v-10h-409q1 -32 13 -61.5t33 -52.5t50.5 -37t67.5 -14q31 0 55 8t40 21t25 27.5t12 28.5h103q-9 -32 -28.5 -61t-49 -51t-69 -35t-88.5 -13z" />
    <glyph glyph-name="ccedilla" unicode="&#xe7;" horiz-adv-x="559" 
d="M296 -165q17 0 28.5 11.5t11.5 28.5t-11.5 28.5t-28.5 11.5t-29 -12l-38 38l45 45q-56 5 -99 27.5t-73 59t-45.5 84.5t-15.5 103q0 58 17.5 108.5t50.5 87.5t81.5 58t110.5 21q88 0 143.5 -41t81.5 -109h-104q-14 30 -43.5 50t-77.5 20q-43 0 -74 -15.5t-51 -42.5
t-29.5 -62.5t-9.5 -74.5t9.5 -74.5t29.5 -62.5t51 -42.5t74 -15.5q52 0 83 22t46 58h101q-19 -62 -63 -103t-115 -53l-33 -33q35 -2 55.5 -24.5t20.5 -56.5q0 -19 -8 -35.5t-21.5 -28.5t-31.5 -19t-39 -7q-36 0 -62.5 20t-32.5 50h63q8 -20 32 -20z" />
    <glyph glyph-name="egrave" unicode="&#xe8;" horiz-adv-x="584" 
d="M536 145q-9 -32 -28.5 -61t-49 -51t-69 -35t-88.5 -13q-60 0 -108 21t-82 58t-52 87.5t-18 108.5t18 108.5t51.5 87.5t80.5 58t105 21q94 0 151 -48t82 -126q9 -29 13 -61t4 -65v-10h-409q1 -32 13 -61.5t33 -52.5t50.5 -37t67.5 -14q31 0 55 8t40 21t25 27.5t12 28.5
h103zM296 460q-38 0 -66.5 -13t-49 -35t-31.5 -51t-12 -61h313q-2 34 -12 63t-29 50.5t-47.5 34t-65.5 12.5zM381 585h-95l-115 115h130z" />
    <glyph glyph-name="eacute" unicode="&#xe9;" horiz-adv-x="584" 
d="M536 145q-9 -32 -28.5 -61t-49 -51t-69 -35t-88.5 -13q-60 0 -108 21t-82 58t-52 87.5t-18 108.5t18 108.5t51.5 87.5t80.5 58t105 21q94 0 151 -48t82 -126q9 -29 13 -61t4 -65v-10h-409q1 -32 13 -61.5t33 -52.5t50.5 -37t67.5 -14q31 0 55 8t40 21t25 27.5t12 28.5
h103zM296 460q-38 0 -66.5 -13t-49 -35t-31.5 -51t-12 -61h313q-2 34 -12 63t-29 50.5t-47.5 34t-65.5 12.5zM291 700h130l-115 -115h-95z" />
    <glyph glyph-name="ecircumflex" unicode="&#xea;" horiz-adv-x="584" 
d="M536 145q-9 -32 -28.5 -61t-49 -51t-69 -35t-88.5 -13q-60 0 -108 21t-82 58t-52 87.5t-18 108.5t18 108.5t51.5 87.5t80.5 58t105 21q94 0 151 -48t82 -126q9 -29 13 -61t4 -65v-10h-409q1 -32 13 -61.5t33 -52.5t50.5 -37t67.5 -14q31 0 55 8t40 21t25 27.5t12 28.5
h103zM296 460q-38 0 -66.5 -13t-49 -35t-31.5 -51t-12 -61h313q-2 34 -12 63t-29 50.5t-47.5 34t-65.5 12.5zM296 650l-45 -65h-125l115 115h110l115 -115h-125z" />
    <glyph glyph-name="edieresis" unicode="&#xeb;" horiz-adv-x="584" 
d="M536 145q-9 -32 -28.5 -61t-49 -51t-69 -35t-88.5 -13q-60 0 -108 21t-82 58t-52 87.5t-18 108.5t18 108.5t51.5 87.5t80.5 58t105 21q94 0 151 -48t82 -126q9 -29 13 -61t4 -65v-10h-409q1 -32 13 -61.5t33 -52.5t50.5 -37t67.5 -14q31 0 55 8t40 21t25 27.5t12 28.5
h103zM296 460q-38 0 -66.5 -13t-49 -35t-31.5 -51t-12 -61h313q-2 34 -12 63t-29 50.5t-47.5 34t-65.5 12.5zM146 700h96v-100h-96v100zM350 700h96v-100h-96v100z" />
    <glyph glyph-name="igrave" unicode="&#xec;" horiz-adv-x="242" 
d="M73 520h96v-520h-96v520zM205 585h-95l-115 115h130z" />
    <glyph glyph-name="iacute" unicode="&#xed;" horiz-adv-x="242" 
d="M73 520h96v-520h-96v520zM118 700h130l-115 -115h-95z" />
    <glyph glyph-name="icircumflex" unicode="&#xee;" horiz-adv-x="242" 
d="M73 520h96v-520h-96v520zM122 650l-45 -65h-125l115 115h110l115 -115h-125z" />
    <glyph glyph-name="idieresis" unicode="&#xef;" horiz-adv-x="242" 
d="M73 520h96v-520h-96v520zM-28 700h96v-100h-96v100zM176 700h96v-100h-96v100z" />
    <glyph glyph-name="eth" unicode="&#xf0;" horiz-adv-x="580" 
d="M372 594l9 -9q33 -35 61.5 -70t49.5 -76t33 -90.5t12 -113.5q0 -53 -17.5 -98.5t-49.5 -79t-79 -53t-105 -19.5q-53 0 -98 18.5t-78 52t-51.5 79.5t-18.5 100q0 51 16.5 94.5t47 76t74 51t98.5 18.5q38 0 72.5 -13.5t57.5 -36.5q-9 15 -18.5 27.5t-21.5 26t-29 30.5
l-41 41l-10 10l-180 -70v80l122 48l-82 82h125l46 -48l159 63v-80zM286 65q36 0 64.5 13t48.5 35.5t31 52.5t11 64q0 36 -11 66t-31 52t-48.5 34.5t-64.5 12.5q-38 0 -66 -13t-46.5 -35.5t-28 -52.5t-9.5 -64t11 -64t30.5 -52.5t47 -35.5t61.5 -13z" />
    <glyph glyph-name="ntilde" unicode="&#xf1;" horiz-adv-x="597" 
d="M169 450q26 42 71.5 63.5t98.5 21.5q91 0 140.5 -51t49.5 -149v-335h-96v325q0 64 -28 97t-91 33q-30 0 -56.5 -10t-46 -30.5t-31 -50.5t-11.5 -69v-295h-96v520h96v-70zM116 590q0 30 9.5 52.5t25.5 37.5t36.5 22.5t43.5 7.5q26 0 48 -10t40 -22.5t33.5 -22.5t28.5 -10
q19 0 27 13t8 32h70q0 -30 -9.5 -52.5t-25.5 -37.5t-37 -22.5t-43 -7.5q-26 0 -48 10t-40 22.5t-33.5 22.5t-28.5 10q-19 0 -27 -13t-8 -32h-70z" />
    <glyph glyph-name="ograve" unicode="&#xf2;" horiz-adv-x="610" 
d="M40 260q0 58 19 108.5t53.5 87.5t83.5 58t109 21t109 -21t83.5 -58t53.5 -87.5t19 -108.5t-19 -108.5t-53.5 -87.5t-83.5 -58t-109 -21t-109 21t-83.5 58t-53.5 87.5t-19 108.5zM474 260q0 39 -11 74.5t-32.5 62.5t-53 42.5t-72.5 15.5t-72.5 -15.5t-53 -42.5
t-32.5 -62.5t-11 -74.5t11 -74.5t32.5 -62.5t53 -42.5t72.5 -15.5t72.5 15.5t53 42.5t32.5 62.5t11 74.5zM390 585h-95l-115 115h130z" />
    <glyph glyph-name="oacute" unicode="&#xf3;" horiz-adv-x="610" 
d="M40 260q0 58 19 108.5t53.5 87.5t83.5 58t109 21t109 -21t83.5 -58t53.5 -87.5t19 -108.5t-19 -108.5t-53.5 -87.5t-83.5 -58t-109 -21t-109 21t-83.5 58t-53.5 87.5t-19 108.5zM474 260q0 39 -11 74.5t-32.5 62.5t-53 42.5t-72.5 15.5t-72.5 -15.5t-53 -42.5
t-32.5 -62.5t-11 -74.5t11 -74.5t32.5 -62.5t53 -42.5t72.5 -15.5t72.5 15.5t53 42.5t32.5 62.5t11 74.5zM300 700h130l-115 -115h-95z" />
    <glyph glyph-name="ocircumflex" unicode="&#xf4;" horiz-adv-x="610" 
d="M40 260q0 58 19 108.5t53.5 87.5t83.5 58t109 21t109 -21t83.5 -58t53.5 -87.5t19 -108.5t-19 -108.5t-53.5 -87.5t-83.5 -58t-109 -21t-109 21t-83.5 58t-53.5 87.5t-19 108.5zM474 260q0 39 -11 74.5t-32.5 62.5t-53 42.5t-72.5 15.5t-72.5 -15.5t-53 -42.5
t-32.5 -62.5t-11 -74.5t11 -74.5t32.5 -62.5t53 -42.5t72.5 -15.5t72.5 15.5t53 42.5t32.5 62.5t11 74.5zM305 650l-45 -65h-125l115 115h110l115 -115h-125z" />
    <glyph glyph-name="otilde" unicode="&#xf5;" horiz-adv-x="610" 
d="M40 260q0 58 19 108.5t53.5 87.5t83.5 58t109 21t109 -21t83.5 -58t53.5 -87.5t19 -108.5t-19 -108.5t-53.5 -87.5t-83.5 -58t-109 -21t-109 21t-83.5 58t-53.5 87.5t-19 108.5zM474 260q0 39 -11 74.5t-32.5 62.5t-53 42.5t-72.5 15.5t-72.5 -15.5t-53 -42.5
t-32.5 -62.5t-11 -74.5t11 -74.5t32.5 -62.5t53 -42.5t72.5 -15.5t72.5 15.5t53 42.5t32.5 62.5t11 74.5zM120 590q0 30 9.5 52.5t25.5 37.5t36.5 22.5t43.5 7.5q26 0 48 -10t40 -22.5t33.5 -22.5t28.5 -10q19 0 27 13t8 32h70q0 -30 -9.5 -52.5t-25.5 -37.5t-37 -22.5
t-43 -7.5q-26 0 -48 10t-40 22.5t-33.5 22.5t-28.5 10q-19 0 -27 -13t-8 -32h-70z" />
    <glyph glyph-name="odieresis" unicode="&#xf6;" horiz-adv-x="610" 
d="M40 260q0 58 19 108.5t53.5 87.5t83.5 58t109 21t109 -21t83.5 -58t53.5 -87.5t19 -108.5t-19 -108.5t-53.5 -87.5t-83.5 -58t-109 -21t-109 21t-83.5 58t-53.5 87.5t-19 108.5zM474 260q0 39 -11 74.5t-32.5 62.5t-53 42.5t-72.5 15.5t-72.5 -15.5t-53 -42.5
t-32.5 -62.5t-11 -74.5t11 -74.5t32.5 -62.5t53 -42.5t72.5 -15.5t72.5 15.5t53 42.5t32.5 62.5t11 74.5zM155 700h96v-100h-96v100zM359 700h96v-100h-96v100z" />
    <glyph glyph-name="divide" unicode="&#xf7;" horiz-adv-x="574" 
d="M47 390h480v-80h-480v80zM227 595h120v-125h-120v125zM227 230h120v-125h-120v125z" />
    <glyph glyph-name="oslash" unicode="&#xf8;" horiz-adv-x="612" 
d="M41 260q0 58 19 108.5t53.5 87.5t83.5 58t109 21q45 0 82.5 -11.5t67.5 -32.5l37 44h88l-74 -88q31 -36 47.5 -84t16.5 -103q0 -58 -19 -108.5t-53.5 -87.5t-83.5 -58t-109 -21q-44 0 -82 11.5t-68 32.5l-37 -44h-88l74 89q-31 37 -47.5 84t-16.5 102zM475 260
q0 64 -28 115l-236 -281q38 -29 95 -29q41 0 72.5 15.5t53 42.5t32.5 62.5t11 74.5zM137 260q0 -32 7 -61.5t21 -53.5l237 281q-20 14 -43.5 21.5t-52.5 7.5q-41 0 -72.5 -15.5t-53 -42.5t-32.5 -62.5t-11 -74.5z" />
    <glyph glyph-name="ugrave" unicode="&#xf9;" horiz-adv-x="592" 
d="M423 65q-23 -42 -67.5 -61t-97.5 -19q-91 0 -140.5 51t-49.5 149v335h96v-325q0 -64 28 -97t91 -33q60 0 100 40.5t40 119.5v295h96v-520h-96v65zM378 585h-95l-115 115h130z" />
    <glyph glyph-name="uacute" unicode="&#xfa;" horiz-adv-x="592" 
d="M423 65q-23 -42 -67.5 -61t-97.5 -19q-91 0 -140.5 51t-49.5 149v335h96v-325q0 -64 28 -97t91 -33q60 0 100 40.5t40 119.5v295h96v-520h-96v65zM289 700h130l-115 -115h-95z" />
    <glyph glyph-name="ucircumflex" unicode="&#xfb;" horiz-adv-x="592" 
d="M423 65q-23 -42 -67.5 -61t-97.5 -19q-91 0 -140.5 51t-49.5 149v335h96v-325q0 -64 28 -97t91 -33q60 0 100 40.5t40 119.5v295h96v-520h-96v65zM293 650l-45 -65h-125l115 115h110l115 -115h-125z" />
    <glyph glyph-name="udieresis" unicode="&#xfc;" horiz-adv-x="592" 
d="M423 65q-23 -42 -67.5 -61t-97.5 -19q-91 0 -140.5 51t-49.5 149v335h96v-325q0 -64 28 -97t91 -33q60 0 100 40.5t40 119.5v295h96v-520h-96v65zM143 700h96v-100h-96v100zM347 700h96v-100h-96v100z" />
    <glyph glyph-name="yacute" unicode="&#xfd;" horiz-adv-x="514" 
d="M256 700h130l-115 -115h-95zM212 0l-196 520h102l84 -230q17 -45 30.5 -93t22.5 -83h5q10 35 25.5 83t32.5 93l84 230h99l-211 -569q-11 -30 -25.5 -54.5t-36.5 -41.5t-53.5 -26t-76.5 -9h-56v78h51q22 0 39 3.5t30.5 13t23.5 25.5t19 40z" />
    <glyph glyph-name="thorn" unicode="&#xfe;" horiz-adv-x="622" 
d="M164 260q0 -39 10 -74.5t30.5 -62.5t50.5 -42.5t69 -15.5t69 15t50.5 41t30.5 62t10 77t-10 76.5t-30.5 62t-50.5 41.5t-69 15t-69 -15.5t-50.5 -42.5t-30.5 -62.5t-10 -74.5zM169 -180h-96v880h96v-250q23 38 66.5 61.5t103.5 23.5q58 0 103 -22t76 -59.5t46.5 -87.5
t15.5 -106t-15.5 -106t-46.5 -87.5t-76 -59.5t-103 -22q-60 0 -103.5 23.5t-66.5 61.5v-250z" />
    <glyph glyph-name="ydieresis" unicode="&#xff;" horiz-adv-x="514" 
d="M109 700h96v-100h-96v100zM313 700h96v-100h-96v100zM212 0l-196 520h102l84 -230q17 -45 30.5 -93t22.5 -83h5q10 35 25.5 83t32.5 93l84 230h99l-211 -569q-11 -30 -25.5 -54.5t-36.5 -41.5t-53.5 -26t-76.5 -9h-56v78h51q22 0 39 3.5t30.5 13t23.5 25.5t19 40z" />
    <glyph glyph-name="Amacron" unicode="&#x100;" horiz-adv-x="682" 
d="M506 165h-330l-65 -165h-105l285 700h100l285 -700h-105zM339 590q-11 -34 -28 -82.5t-37 -96.5l-64 -161h262l-64 161q-20 48 -37 96.5t-28 82.5h-4zM176 865h330v-75h-330v75z" />
    <glyph glyph-name="amacron" unicode="&#x101;" horiz-adv-x="572" 
d="M243 60q34 0 64 11t52.5 32t35.5 52t13 70v40l-170 -15q-53 -5 -79 -29t-26 -66q0 -26 8.5 -44.5t23.5 -29.5t35 -16t43 -5zM62 385q4 31 19 58.5t42.5 47.5t67 32t92.5 12q65 0 116.5 -19t79.5 -66q25 -42 25 -105v-345h-96v65q-23 -30 -67 -55t-108 -25
q-40 0 -75.5 10.5t-62.5 31.5t-42.5 53t-15.5 75q0 68 46.5 112.5t144.5 52.5l180 15v10q0 26 -6 47.5t-20.5 36.5t-38.5 23t-60 8q-57 0 -87.5 -20.5t-34.5 -54.5h-99zM118 685h330v-75h-330v75z" />
    <glyph glyph-name="Abreve" unicode="&#x102;" horiz-adv-x="682" 
d="M506 165h-330l-65 -165h-105l285 700h100l285 -700h-105zM339 590q-11 -34 -28 -82.5t-37 -96.5l-64 -161h262l-64 161q-20 48 -37 96.5t-28 82.5h-4zM341 755q-68 0 -110.5 39.5t-50.5 100.5h71q8 -29 30 -47t60 -18t60 18t30 47h71q-8 -61 -50.5 -100.5t-110.5 -39.5z
" />
    <glyph glyph-name="abreve" unicode="&#x103;" horiz-adv-x="572" 
d="M243 60q34 0 64 11t52.5 32t35.5 52t13 70v40l-170 -15q-53 -5 -79 -29t-26 -66q0 -26 8.5 -44.5t23.5 -29.5t35 -16t43 -5zM62 385q4 31 19 58.5t42.5 47.5t67 32t92.5 12q65 0 116.5 -19t79.5 -66q25 -42 25 -105v-345h-96v65q-23 -30 -67 -55t-108 -25
q-40 0 -75.5 10.5t-62.5 31.5t-42.5 53t-15.5 75q0 68 46.5 112.5t144.5 52.5l180 15v10q0 26 -6 47.5t-20.5 36.5t-38.5 23t-60 8q-57 0 -87.5 -20.5t-34.5 -54.5h-99zM283 575q-68 0 -110.5 39.5t-50.5 100.5h71q8 -29 30 -47t60 -18t60 18t30 47h71q-8 -61 -50.5 -100.5
t-110.5 -39.5z" />
    <glyph glyph-name="Aogonek" unicode="&#x104;" horiz-adv-x="682" 
d="M641 -140q11 0 21.5 1t23.5 5l-27 -69q-11 -4 -24 -5.5t-24 -1.5q-49 0 -82 27.5t-33 72.5q0 43 22.5 70t51.5 42l-64 163h-330l-65 -165h-105l285 700h100l285 -700q-49 -26 -69.5 -48.5t-20.5 -47.5q0 -26 18 -35t37 -9zM339 590q-11 -34 -28 -82.5t-37 -96.5l-64 -161
h262l-64 161q-20 48 -37 96.5t-28 82.5h-4z" />
    <glyph glyph-name="aogonek" unicode="&#x105;" horiz-adv-x="572" 
d="M243 60q34 0 64 11t52.5 32t35.5 52t13 70v40l-170 -15q-53 -5 -79 -29t-26 -66q0 -26 8.5 -44.5t23.5 -29.5t35 -16t43 -5zM283 535q65 0 116.5 -19t79.5 -66q25 -42 25 -105v-345q-49 -26 -69.5 -48.5t-20.5 -47.5q0 -26 18 -35t37 -9q11 0 21.5 1t23.5 5l-27 -69
q-11 -4 -24 -5.5t-24 -1.5q-49 0 -82 27.5t-33 72.5t25.5 73t58.5 44v58q-23 -30 -67 -55t-108 -25q-40 0 -75.5 10.5t-62.5 31.5t-42.5 53t-15.5 75q0 68 46.5 112.5t144.5 52.5l180 15v10q0 26 -6 47.5t-20.5 36.5t-38.5 23t-60 8q-57 0 -87.5 -20.5t-34.5 -54.5h-99
q4 31 19 58.5t42.5 47.5t67 32t92.5 12z" />
    <glyph glyph-name="Cacute" unicode="&#x106;" horiz-adv-x="715" 
d="M685 185q-15 -44 -41.5 -81t-63 -63.5t-84.5 -41t-106 -14.5q-79 0 -142.5 27.5t-108.5 76t-69.5 115.5t-24.5 146t24.5 145.5t69.5 115.5t108.5 76.5t142.5 27.5q112 0 184 -50.5t106 -134.5h-109q-24 46 -68 73t-113 27q-62 0 -108 -23.5t-76.5 -62.5t-45.5 -89.5
t-15 -104.5t15 -104.5t45.5 -89.5t76.5 -62.5t108 -23.5q77 0 122 32.5t65 82.5h108zM375 880h130l-115 -115h-95z" />
    <glyph glyph-name="cacute" unicode="&#x107;" horiz-adv-x="559" 
d="M531 145q-22 -72 -79.5 -116t-150.5 -44q-62 0 -110.5 21t-81.5 58t-50.5 87.5t-17.5 108.5t17.5 108.5t50.5 87.5t81.5 58t110.5 21q88 0 143.5 -41t81.5 -109h-104q-14 30 -43.5 50t-77.5 20q-43 0 -74 -15.5t-51 -42.5t-29.5 -62.5t-9.5 -74.5t9.5 -74.5t29.5 -62.5
t51 -42.5t74 -15.5q52 0 83 22t46 58h101zM296 700h130l-115 -115h-95z" />
    <glyph glyph-name="Ccircumflex" unicode="&#x108;" horiz-adv-x="715" 
d="M685 185q-15 -44 -41.5 -81t-63 -63.5t-84.5 -41t-106 -14.5q-79 0 -142.5 27.5t-108.5 76t-69.5 115.5t-24.5 146t24.5 145.5t69.5 115.5t108.5 76.5t142.5 27.5q112 0 184 -50.5t106 -134.5h-109q-24 46 -68 73t-113 27q-62 0 -108 -23.5t-76.5 -62.5t-45.5 -89.5
t-15 -104.5t15 -104.5t45.5 -89.5t76.5 -62.5t108 -23.5q77 0 122 32.5t65 82.5h108zM385 830l-45 -65h-125l115 115h110l115 -115h-125z" />
    <glyph glyph-name="ccircumflex" unicode="&#x109;" horiz-adv-x="559" 
d="M531 145q-22 -72 -79.5 -116t-150.5 -44q-62 0 -110.5 21t-81.5 58t-50.5 87.5t-17.5 108.5t17.5 108.5t50.5 87.5t81.5 58t110.5 21q88 0 143.5 -41t81.5 -109h-104q-14 30 -43.5 50t-77.5 20q-43 0 -74 -15.5t-51 -42.5t-29.5 -62.5t-9.5 -74.5t9.5 -74.5t29.5 -62.5
t51 -42.5t74 -15.5q52 0 83 22t46 58h101zM301 650l-45 -65h-125l115 115h110l115 -115h-125z" />
    <glyph glyph-name="Cdotaccent" unicode="&#x10a;" horiz-adv-x="715" 
d="M685 185q-15 -44 -41.5 -81t-63 -63.5t-84.5 -41t-106 -14.5q-79 0 -142.5 27.5t-108.5 76t-69.5 115.5t-24.5 146t24.5 145.5t69.5 115.5t108.5 76.5t142.5 27.5q112 0 184 -50.5t106 -134.5h-109q-24 46 -68 73t-113 27q-62 0 -108 -23.5t-76.5 -62.5t-45.5 -89.5
t-15 -104.5t15 -104.5t45.5 -89.5t76.5 -62.5t108 -23.5q77 0 122 32.5t65 82.5h108zM335 880h96v-100h-96v100z" />
    <glyph glyph-name="cdotaccent" unicode="&#x10b;" horiz-adv-x="559" 
d="M531 145q-22 -72 -79.5 -116t-150.5 -44q-62 0 -110.5 21t-81.5 58t-50.5 87.5t-17.5 108.5t17.5 108.5t50.5 87.5t81.5 58t110.5 21q88 0 143.5 -41t81.5 -109h-104q-14 30 -43.5 50t-77.5 20q-43 0 -74 -15.5t-51 -42.5t-29.5 -62.5t-9.5 -74.5t9.5 -74.5t29.5 -62.5
t51 -42.5t74 -15.5q52 0 83 22t46 58h101zM248 700h96v-100h-96v100z" />
    <glyph glyph-name="Ccaron" unicode="&#x10c;" horiz-adv-x="715" 
d="M685 185q-15 -44 -41.5 -81t-63 -63.5t-84.5 -41t-106 -14.5q-79 0 -142.5 27.5t-108.5 76t-69.5 115.5t-24.5 146t24.5 145.5t69.5 115.5t108.5 76.5t142.5 27.5q112 0 184 -50.5t106 -134.5h-109q-24 46 -68 73t-113 27q-62 0 -108 -23.5t-76.5 -62.5t-45.5 -89.5
t-15 -104.5t15 -104.5t45.5 -89.5t76.5 -62.5t108 -23.5q77 0 122 32.5t65 82.5h108zM430 880h125l-115 -115h-110l-115 115h125l45 -65z" />
    <glyph glyph-name="ccaron" unicode="&#x10d;" horiz-adv-x="559" 
d="M531 145q-22 -72 -79.5 -116t-150.5 -44q-62 0 -110.5 21t-81.5 58t-50.5 87.5t-17.5 108.5t17.5 108.5t50.5 87.5t81.5 58t110.5 21q88 0 143.5 -41t81.5 -109h-104q-14 30 -43.5 50t-77.5 20q-43 0 -74 -15.5t-51 -42.5t-29.5 -62.5t-9.5 -74.5t9.5 -74.5t29.5 -62.5
t51 -42.5t74 -15.5q52 0 83 22t46 58h101zM346 700h125l-115 -115h-110l-115 115h125l45 -65z" />
    <glyph glyph-name="Dcaron" unicode="&#x10e;" horiz-adv-x="722" 
d="M675 350q0 -83 -23 -148t-66.5 -110t-106.5 -68.5t-144 -23.5h-245v700h245q81 0 144 -24t106.5 -69t66.5 -110t23 -147zM190 85h135q124 0 187 70.5t63 194.5t-63 194.5t-187 70.5h-135v-530zM395 880h125l-115 -115h-110l-115 115h125l45 -65z" />
    <glyph glyph-name="dcaron" unicode="&#x10f;" horiz-adv-x="669" 
d="M457 260q0 39 -10 74.5t-30.5 62.5t-50.5 42.5t-69 15.5t-69 -15t-50.5 -41.5t-30.5 -62t-10 -76.5t10 -77t30.5 -62t50.5 -41t69 -15t69 15.5t50.5 42.5t30.5 62.5t10 74.5zM452 70q-23 -38 -66.5 -61.5t-103.5 -23.5q-59 0 -103.5 22t-75.5 59.5t-46.5 87.5t-15.5 106
t15.5 106t46.5 87.5t75.5 59.5t103.5 22q60 0 103.5 -23.5t66.5 -61.5v250h96v-700h-96v70zM628 700h100l-55 -185h-75z" />
    <glyph glyph-name="Dcroat" unicode="&#x110;" horiz-adv-x="744" 
d="M112 395v305h245q81 0 144 -24t106.5 -69t66.5 -110t23 -147q0 -83 -23 -148t-66.5 -110t-106.5 -68.5t-144 -23.5h-245v315h-100v80h100zM212 395h210v-80h-210v-230h135q124 0 187 70.5t63 194.5t-63 194.5t-187 70.5h-135v-220z" />
    <glyph glyph-name="dcroat" unicode="&#x111;" horiz-adv-x="587" 
d="M418 60q-19 -30 -60.5 -52.5t-94.5 -22.5q-57 0 -98.5 20.5t-68.5 54.5t-40.5 77t-13.5 88t13.5 88t40.5 77t68.5 54.5t98.5 20.5q53 0 94.5 -22.5t60.5 -52.5v140h-210v75h210v95h96v-95h70v-75h-70v-530h-96v60zM423 225q0 32 -8.5 61t-26.5 51t-45.5 35t-64.5 13
q-36 0 -62 -13t-43.5 -35t-26 -51t-8.5 -61t8.5 -61t26 -51t43.5 -35t62 -13q37 0 64.5 13t45.5 35t26.5 51t8.5 61z" />
    <glyph glyph-name="Emacron" unicode="&#x112;" horiz-adv-x="636" 
d="M90 700h490v-85h-390v-210h370v-85h-370v-235h390v-85h-490v700zM170 865h330v-75h-330v75z" />
    <glyph glyph-name="emacron" unicode="&#x113;" horiz-adv-x="584" 
d="M536 145q-9 -32 -28.5 -61t-49 -51t-69 -35t-88.5 -13q-60 0 -108 21t-82 58t-52 87.5t-18 108.5t18 108.5t51.5 87.5t80.5 58t105 21q94 0 151 -48t82 -126q9 -29 13 -61t4 -65v-10h-409q1 -32 13 -61.5t33 -52.5t50.5 -37t67.5 -14q31 0 55 8t40 21t25 27.5t12 28.5
h103zM296 460q-38 0 -66.5 -13t-49 -35t-31.5 -51t-12 -61h313q-2 34 -12 63t-29 50.5t-47.5 34t-65.5 12.5zM131 685h330v-75h-330v75z" />
    <glyph glyph-name="Ebreve" unicode="&#x114;" horiz-adv-x="636" 
d="M90 700h490v-85h-390v-210h370v-85h-370v-235h390v-85h-490v700zM335 755q-68 0 -110.5 39.5t-50.5 100.5h71q8 -29 30 -47t60 -18t60 18t30 47h71q-8 -61 -50.5 -100.5t-110.5 -39.5z" />
    <glyph glyph-name="ebreve" unicode="&#x115;" horiz-adv-x="584" 
d="M536 145q-9 -32 -28.5 -61t-49 -51t-69 -35t-88.5 -13q-60 0 -108 21t-82 58t-52 87.5t-18 108.5t18 108.5t51.5 87.5t80.5 58t105 21q94 0 151 -48t82 -126q9 -29 13 -61t4 -65v-10h-409q1 -32 13 -61.5t33 -52.5t50.5 -37t67.5 -14q31 0 55 8t40 21t25 27.5t12 28.5
h103zM296 460q-38 0 -66.5 -13t-49 -35t-31.5 -51t-12 -61h313q-2 34 -12 63t-29 50.5t-47.5 34t-65.5 12.5zM296 575q-68 0 -110.5 39.5t-50.5 100.5h71q8 -29 30 -47t60 -18t60 18t30 47h71q-8 -61 -50.5 -100.5t-110.5 -39.5z" />
    <glyph glyph-name="Edotaccent" unicode="&#x116;" horiz-adv-x="636" 
d="M90 700h490v-85h-390v-210h370v-85h-370v-235h390v-85h-490v700zM287 880h96v-100h-96v100z" />
    <glyph glyph-name="edotaccent" unicode="&#x117;" horiz-adv-x="584" 
d="M536 145q-9 -32 -28.5 -61t-49 -51t-69 -35t-88.5 -13q-60 0 -108 21t-82 58t-52 87.5t-18 108.5t18 108.5t51.5 87.5t80.5 58t105 21q94 0 151 -48t82 -126q9 -29 13 -61t4 -65v-10h-409q1 -32 13 -61.5t33 -52.5t50.5 -37t67.5 -14q31 0 55 8t40 21t25 27.5t12 28.5
h103zM296 460q-38 0 -66.5 -13t-49 -35t-31.5 -51t-12 -61h313q-2 34 -12 63t-29 50.5t-47.5 34t-65.5 12.5zM248 700h96v-100h-96v100z" />
    <glyph glyph-name="Eogonek" unicode="&#x118;" horiz-adv-x="636" 
d="M90 700h490v-85h-390v-210h370v-85h-370v-235h390v-85q-49 -26 -69.5 -48.5t-20.5 -47.5q0 -26 18 -35t37 -9q11 0 21.5 1t23.5 5l-27 -69q-11 -4 -24 -5.5t-24 -1.5q-49 0 -82 27.5t-33 72.5q0 42 21.5 68.5t48.5 41.5h-380v700z" />
    <glyph glyph-name="eogonek" unicode="&#x119;" horiz-adv-x="584" 
d="M296 460q-38 0 -66.5 -13t-49 -35t-31.5 -51t-12 -61h313q-2 34 -12 63t-29 50.5t-47.5 34t-65.5 12.5zM325 -14q-8 -1 -13.5 -1h-10.5q-60 0 -108 21t-82 58t-52 87.5t-18 108.5t18 108.5t51.5 87.5t80.5 58t105 21q94 0 151 -48t82 -126q9 -29 13 -61t4 -65v-10h-409
q1 -32 13 -61.5t33 -52.5t50.5 -37t67.5 -14q31 0 55 8t40 21t25 27.5t12 28.5h103q-13 -48 -41.5 -81.5t-57 -59.5t-50 -49t-21.5 -51q0 -26 18 -35t37 -9q11 0 21.5 1t23.5 5l-27 -69q-11 -4 -24 -5.5t-24 -1.5q-49 0 -82 27.5t-33 72.5q0 33 14 56.5t35 39.5z" />
    <glyph glyph-name="Ecaron" unicode="&#x11a;" horiz-adv-x="636" 
d="M90 700h490v-85h-390v-210h370v-85h-370v-235h390v-85h-490v700zM380 880h125l-115 -115h-110l-115 115h125l45 -65z" />
    <glyph glyph-name="ecaron" unicode="&#x11b;" horiz-adv-x="584" 
d="M536 145q-9 -32 -28.5 -61t-49 -51t-69 -35t-88.5 -13q-60 0 -108 21t-82 58t-52 87.5t-18 108.5t18 108.5t51.5 87.5t80.5 58t105 21q94 0 151 -48t82 -126q9 -29 13 -61t4 -65v-10h-409q1 -32 13 -61.5t33 -52.5t50.5 -37t67.5 -14q31 0 55 8t40 21t25 27.5t12 28.5
h103zM296 460q-38 0 -66.5 -13t-49 -35t-31.5 -51t-12 -61h313q-2 34 -12 63t-29 50.5t-47.5 34t-65.5 12.5zM341 700h125l-115 -115h-110l-115 115h125l45 -65z" />
    <glyph glyph-name="Gcircumflex" unicode="&#x11c;" horiz-adv-x="752" 
d="M385 830l-45 -65h-125l115 115h110l115 -115h-125zM390 630q-62 0 -108 -23.5t-76.5 -62.5t-45.5 -89.5t-15 -104.5t15 -104.5t45.5 -89.5t76.5 -62.5t108 -23.5q58 0 98 19.5t65 50.5t36 69t11 76h-220v85h315v-370h-75l-10 85q-13 -19 -32.5 -37t-46.5 -32t-62 -22.5
t-79 -8.5q-79 0 -142.5 27.5t-108.5 76t-69.5 115.5t-24.5 146t24.5 145.5t69.5 115.5t108.5 76.5t142.5 27.5q112 0 184 -50.5t106 -134.5h-109q-24 46 -68 73t-113 27z" />
    <glyph glyph-name="gcircumflex" unicode="&#x11d;" horiz-adv-x="616" 
d="M452 270q0 37 -11 71t-31.5 59t-50.5 40t-67 15q-36 0 -64.5 -15t-48.5 -40t-31 -59t-11 -71q0 -38 11 -71.5t31 -58.5t48.5 -40t64.5 -15q37 0 67 15t50.5 40t31.5 58.5t11 71.5zM447 80q-8 -11 -22 -24.5t-34.5 -24.5t-47.5 -18.5t-61 -7.5q-55 0 -99.5 21t-76 57
t-48.5 84.5t-17 102.5t17 102.5t48.5 84.5t76 57t99.5 21q34 0 61 -7.5t47.5 -19t34.5 -24.5t22 -24v60h96v-465q0 -62 -17 -108.5t-49 -78t-77.5 -47.5t-102.5 -16q-44 0 -81 11t-65.5 30.5t-48 47t-26.5 61.5h100q3 -14 12 -27t24 -24t36 -17.5t49 -6.5q82 0 116 48
t34 127v25zM302 650l-45 -65h-125l115 115h110l115 -115h-125z" />
    <glyph glyph-name="Gbreve" unicode="&#x11e;" horiz-adv-x="752" 
d="M385 755q-68 0 -110.5 39.5t-50.5 100.5h71q8 -29 30 -47t60 -18t60 18t30 47h71q-8 -61 -50.5 -100.5t-110.5 -39.5zM390 630q-62 0 -108 -23.5t-76.5 -62.5t-45.5 -89.5t-15 -104.5t15 -104.5t45.5 -89.5t76.5 -62.5t108 -23.5q58 0 98 19.5t65 50.5t36 69t11 76h-220
v85h315v-370h-75l-10 85q-13 -19 -32.5 -37t-46.5 -32t-62 -22.5t-79 -8.5q-79 0 -142.5 27.5t-108.5 76t-69.5 115.5t-24.5 146t24.5 145.5t69.5 115.5t108.5 76.5t142.5 27.5q112 0 184 -50.5t106 -134.5h-109q-24 46 -68 73t-113 27z" />
    <glyph glyph-name="gbreve" unicode="&#x11f;" horiz-adv-x="616" 
d="M452 270q0 37 -11 71t-31.5 59t-50.5 40t-67 15q-36 0 -64.5 -15t-48.5 -40t-31 -59t-11 -71q0 -38 11 -71.5t31 -58.5t48.5 -40t64.5 -15q37 0 67 15t50.5 40t31.5 58.5t11 71.5zM447 80q-8 -11 -22 -24.5t-34.5 -24.5t-47.5 -18.5t-61 -7.5q-55 0 -99.5 21t-76 57
t-48.5 84.5t-17 102.5t17 102.5t48.5 84.5t76 57t99.5 21q34 0 61 -7.5t47.5 -19t34.5 -24.5t22 -24v60h96v-465q0 -62 -17 -108.5t-49 -78t-77.5 -47.5t-102.5 -16q-44 0 -81 11t-65.5 30.5t-48 47t-26.5 61.5h100q3 -14 12 -27t24 -24t36 -17.5t49 -6.5q82 0 116 48
t34 127v25zM302 575q-68 0 -110.5 39.5t-50.5 100.5h71q8 -29 30 -47t60 -18t60 18t30 47h71q-8 -61 -50.5 -100.5t-110.5 -39.5z" />
    <glyph glyph-name="Gdotaccent" unicode="&#x120;" horiz-adv-x="752" 
d="M337 880h96v-100h-96v100zM390 630q-62 0 -108 -23.5t-76.5 -62.5t-45.5 -89.5t-15 -104.5t15 -104.5t45.5 -89.5t76.5 -62.5t108 -23.5q58 0 98 19.5t65 50.5t36 69t11 76h-220v85h315v-370h-75l-10 85q-13 -19 -32.5 -37t-46.5 -32t-62 -22.5t-79 -8.5
q-79 0 -142.5 27.5t-108.5 76t-69.5 115.5t-24.5 146t24.5 145.5t69.5 115.5t108.5 76.5t142.5 27.5q112 0 184 -50.5t106 -134.5h-109q-24 46 -68 73t-113 27z" />
    <glyph glyph-name="gdotaccent" unicode="&#x121;" horiz-adv-x="616" 
d="M452 270q0 37 -11 71t-31.5 59t-50.5 40t-67 15q-36 0 -64.5 -15t-48.5 -40t-31 -59t-11 -71q0 -38 11 -71.5t31 -58.5t48.5 -40t64.5 -15q37 0 67 15t50.5 40t31.5 58.5t11 71.5zM447 80q-8 -11 -22 -24.5t-34.5 -24.5t-47.5 -18.5t-61 -7.5q-55 0 -99.5 21t-76 57
t-48.5 84.5t-17 102.5t17 102.5t48.5 84.5t76 57t99.5 21q34 0 61 -7.5t47.5 -19t34.5 -24.5t22 -24v60h96v-465q0 -62 -17 -108.5t-49 -78t-77.5 -47.5t-102.5 -16q-44 0 -81 11t-65.5 30.5t-48 47t-26.5 61.5h100q3 -14 12 -27t24 -24t36 -17.5t49 -6.5q82 0 116 48
t34 127v25zM252 700h96v-100h-96v100z" />
    <glyph glyph-name="Gcommaaccent" unicode="&#x122;" horiz-adv-x="752" 
d="M340 -55h96v-100l-65 -100h-36l45 100h-40v100zM390 630q-62 0 -108 -23.5t-76.5 -62.5t-45.5 -89.5t-15 -104.5t15 -104.5t45.5 -89.5t76.5 -62.5t108 -23.5q58 0 98 19.5t65 50.5t36 69t11 76h-220v85h315v-370h-75l-10 85q-13 -19 -32.5 -37t-46.5 -32t-62 -22.5
t-79 -8.5q-79 0 -142.5 27.5t-108.5 76t-69.5 115.5t-24.5 146t24.5 145.5t69.5 115.5t108.5 76.5t142.5 27.5q112 0 184 -50.5t106 -134.5h-109q-24 46 -68 73t-113 27z" />
    <glyph glyph-name="gcommaaccent" unicode="&#x123;" horiz-adv-x="616" 
d="M452 270q0 37 -11 71t-31.5 59t-50.5 40t-67 15q-36 0 -64.5 -15t-48.5 -40t-31 -59t-11 -71q0 -38 11 -71.5t31 -58.5t48.5 -40t64.5 -15q37 0 67 15t50.5 40t31.5 58.5t11 71.5zM447 80q-8 -11 -22 -24.5t-34.5 -24.5t-47.5 -18.5t-61 -7.5q-55 0 -99.5 21t-76 57
t-48.5 84.5t-17 102.5t17 102.5t48.5 84.5t76 57t99.5 21q34 0 61 -7.5t47.5 -19t34.5 -24.5t22 -24v60h96v-465q0 -62 -17 -108.5t-49 -78t-77.5 -47.5t-102.5 -16q-44 0 -81 11t-65.5 30.5t-48 47t-26.5 61.5h100q3 -14 12 -27t24 -24t36 -17.5t49 -6.5q82 0 116 48
t34 127v25zM352 585h-96v100l65 100h36l-45 -100h40v-100z" />
    <glyph glyph-name="Hcircumflex" unicode="&#x124;" horiz-adv-x="750" 
d="M660 0h-100v320h-370v-320h-100v700h100v-295h370v295h100v-700zM375 830l-45 -65h-125l115 115h110l115 -115h-125z" />
    <glyph glyph-name="hcircumflex" unicode="&#x125;" horiz-adv-x="598" 
d="M169 450q26 42 71.5 63.5t98.5 21.5q91 0 141 -51t50 -149v-335h-96v325q0 64 -28 97t-92 33q-30 0 -56.5 -10t-46 -30.5t-31 -50.5t-11.5 -69v-295h-96v700h96v-250zM123 830l-45 -65h-125l115 115h110l115 -115h-125z" />
    <glyph glyph-name="Hbar" unicode="&#x126;" horiz-adv-x="762" 
d="M21 590h75v110h100v-110h370v110h100v-110h75v-80h-75v-510h-100v320h-370v-320h-100v510h-75v80zM566 405v105h-370v-105h370z" />
    <glyph glyph-name="hbar" unicode="&#x127;" horiz-adv-x="603" 
d="M175 605h209v-75h-209v-150q26 42 71.5 63.5t98.5 21.5q91 0 141 -51t50 -149v-265h-96v255q0 64 -28 97t-92 33q-30 0 -56.5 -10t-46 -30.5t-31 -50.5t-11.5 -69v-225h-96v530h-70v75h70v95h96v-95z" />
    <glyph glyph-name="Itilde" unicode="&#x128;" horiz-adv-x="280" 
d="M90 0v700h100v-700h-100zM-44 770q0 30 9.5 52.5t25.5 37.5t36.5 22.5t43.5 7.5q26 0 48 -10t40 -22.5t33.5 -22.5t28.5 -10q19 0 27 13t8 32h70q0 -30 -9.5 -52.5t-25.5 -37.5t-37 -22.5t-43 -7.5q-26 0 -48 10t-40 22.5t-33.5 22.5t-28.5 10q-19 0 -27 -13t-8 -32h-70z
" />
    <glyph glyph-name="itilde" unicode="&#x129;" horiz-adv-x="242" 
d="M73 520h96v-520h-96v520zM-63 590q0 30 9.5 52.5t25.5 37.5t36.5 22.5t43.5 7.5q26 0 48 -10t40 -22.5t33.5 -22.5t28.5 -10q19 0 27 13t8 32h70q0 -30 -9.5 -52.5t-25.5 -37.5t-37 -22.5t-43 -7.5q-26 0 -48 10t-40 22.5t-33.5 22.5t-28.5 10q-19 0 -27 -13t-8 -32h-70z
" />
    <glyph glyph-name="Imacron" unicode="&#x12a;" horiz-adv-x="280" 
d="M90 0v700h100v-700h-100zM-24 865h330v-75h-330v75z" />
    <glyph glyph-name="imacron" unicode="&#x12b;" horiz-adv-x="242" 
d="M73 520h96v-520h-96v520zM-43 685h330v-75h-330v75z" />
    <glyph glyph-name="Ibreve" unicode="&#x12c;" horiz-adv-x="280" 
d="M90 0v700h100v-700h-100zM141 755q-68 0 -110.5 39.5t-50.5 100.5h71q8 -29 30 -47t60 -18t60 18t30 47h71q-8 -61 -50.5 -100.5t-110.5 -39.5z" />
    <glyph glyph-name="ibreve" unicode="&#x12d;" horiz-adv-x="242" 
d="M73 520h96v-520h-96v520zM122 575q-68 0 -110.5 39.5t-50.5 100.5h71q8 -29 30 -47t60 -18t60 18t30 47h71q-8 -61 -50.5 -100.5t-110.5 -39.5z" />
    <glyph glyph-name="Iogonek" unicode="&#x12e;" horiz-adv-x="280" 
d="M155 -140q11 0 21.5 1t23.5 5l-27 -69q-11 -4 -24 -5.5t-24 -1.5q-49 0 -82 27.5t-33 72.5t25 72.5t55 42.5v695h100v-700q-49 -26 -69.5 -48.5t-20.5 -47.5q0 -26 18 -35t37 -9z" />
    <glyph glyph-name="iogonek" unicode="&#x12f;" horiz-adv-x="242" 
d="M134 -140q11 0 21.5 1t23.5 5l-27 -69q-11 -4 -24 -5.5t-24 -1.5q-49 0 -82 27.5t-33 72.5t25 72.5t59 44.5v513h96v-520q-49 -26 -69.5 -48.5t-20.5 -47.5q0 -26 18 -35t37 -9zM73 700h96v-100h-96v100z" />
    <glyph glyph-name="Idotaccent" unicode="&#x130;" horiz-adv-x="280" 
d="M90 0v700h100v-700h-100zM93 880h96v-100h-96v100z" />
    <glyph glyph-name="dotlessi" unicode="&#x131;" horiz-adv-x="242" 
d="M73 520h96v-520h-96v520z" />
    <glyph glyph-name="IJ" unicode="&#x132;" horiz-adv-x="644" 
d="M335 0q71 0 98 33.5t27 101.5v565h100v-565q0 -113 -58 -166.5t-167 -53.5h-58v85h58zM90 0v700h100v-700h-100z" />
    <glyph glyph-name="ij" unicode="&#x133;" horiz-adv-x="477" 
d="M73 520h96v-520h-96v520zM73 700h95v-100h-95v100zM308 700h96v-100h-96v100zM308 520h96v-565q0 -68 -39.5 -101.5t-111.5 -33.5h-84v78h79q34 0 47 13.5t13 43.5v565z" />
    <glyph glyph-name="Jcircumflex" unicode="&#x134;" horiz-adv-x="465" 
d="M332 830l-45 -65h-125l115 115h110l115 -115h-125zM157 85q71 0 98 33.5t27 101.5v480h100v-480q0 -113 -58 -166.5t-167 -53.5h-133v85h133z" />
    <glyph glyph-name="jcircumflex" unicode="&#x135;" horiz-adv-x="246" 
d="M126 650l-45 -65h-125l115 115h110l115 -115h-125zM77 520h96v-565q0 -68 -39.5 -101.5t-111.5 -33.5h-45v78h40q34 0 47 13.5t13 43.5v565z" />
    <glyph glyph-name="Kcommaaccent" unicode="&#x136;" horiz-adv-x="635" 
d="M90 0v700h100v-310l305 310h125l-340 -340l360 -360h-135l-315 325v-325h-100zM295 -55h96v-100l-65 -100h-36l45 100h-40v100z" />
    <glyph glyph-name="kcommaaccent" unicode="&#x137;" horiz-adv-x="521" 
d="M73 700h96v-402l217 222h124l-250 -250l270 -270h-131l-230 240v-240h-96v700zM226 -55h96v-100l-65 -100h-36l45 100h-40v100z" />
    <glyph glyph-name="kgreenlandic" unicode="&#x138;" horiz-adv-x="521" 
d="M73 520h96v-222l217 222h124l-250 -250l270 -270h-131l-230 240v-240h-96v520z" />
    <glyph glyph-name="Lacute" unicode="&#x139;" horiz-adv-x="575" 
d="M90 700h100v-615h370v-85h-470v700zM140 880h130l-115 -115h-95z" />
    <glyph glyph-name="lacute" unicode="&#x13a;" horiz-adv-x="242" 
d="M73 700h96v-700h-96v700zM128 880h130l-115 -115h-95z" />
    <glyph glyph-name="Lcommaaccent" unicode="&#x13b;" horiz-adv-x="575" 
d="M90 700h100v-615h370v-85h-470v700zM280 -55h96v-100l-65 -100h-36l45 100h-40v100z" />
    <glyph glyph-name="lcommaaccent" unicode="&#x13c;" horiz-adv-x="242" 
d="M73 700h96v-700h-96v700zM74 -55h96v-100l-65 -100h-36l45 100h-40v100z" />
    <glyph glyph-name="Lcaron" unicode="&#x13d;" horiz-adv-x="575" 
d="M90 700h100v-615h370v-85h-470v700zM315 700h100l-55 -185h-75z" />
    <glyph glyph-name="lcaron" unicode="&#x13e;" horiz-adv-x="290" 
d="M73 700h96v-700h-96v700zM249 700h100l-55 -185h-75z" />
    <glyph glyph-name="Ldot" unicode="&#x13f;" horiz-adv-x="576" 
d="M90 700h100v-615h370v-85h-470v700zM382 411h96v-100h-96v100z" />
    <glyph glyph-name="ldot" unicode="&#x140;" horiz-adv-x="346" 
d="M73 700h96v-700h-96v700zM246 401h96v-100h-96v100z" />
    <glyph glyph-name="Lslash" unicode="&#x141;" horiz-adv-x="609" 
d="M124 338v362h100v-295l180 120v-105l-180 -120v-215h370v-85h-470v233l-95 -63v105z" />
    <glyph glyph-name="lslash" unicode="&#x142;" horiz-adv-x="368" 
d="M130 382v318h96v-254l119 79v-105l-119 -79v-341h-96v277l-100 -67v105z" />
    <glyph glyph-name="Nacute" unicode="&#x143;" horiz-adv-x="760" 
d="M324 347q-57 81 -87.5 129.5t-47.5 78.5h-4q2 -24 3 -46t1.5 -47t0.5 -55.5v-71.5v-335h-100v700h105l241 -347q57 -81 87.5 -129.5t47.5 -78.5h4q-2 24 -3 46t-1.5 47t-0.5 55.5v71.5v335h100v-700h-105zM375 880h130l-115 -115h-95z" />
    <glyph glyph-name="nacute" unicode="&#x144;" horiz-adv-x="597" 
d="M169 450q26 42 71.5 63.5t98.5 21.5q91 0 140.5 -51t49.5 -149v-335h-96v325q0 64 -28 97t-91 33q-30 0 -56.5 -10t-46 -30.5t-31 -50.5t-11.5 -69v-295h-96v520h96v-70zM298 700h130l-115 -115h-95z" />
    <glyph glyph-name="Ncommaaccent" unicode="&#x145;" horiz-adv-x="760" 
d="M324 347q-57 81 -87.5 129.5t-47.5 78.5h-4q2 -24 3 -46t1.5 -47t0.5 -55.5v-71.5v-335h-100v700h105l241 -347q57 -81 87.5 -129.5t47.5 -78.5h4q-2 24 -3 46t-1.5 47t-0.5 55.5v71.5v335h100v-700h-105zM333 -55h96v-100l-65 -100h-36l45 100h-40v100z" />
    <glyph glyph-name="ncommaaccent" unicode="&#x146;" horiz-adv-x="597" 
d="M169 450q26 42 71.5 63.5t98.5 21.5q91 0 140.5 -51t49.5 -149v-335h-96v325q0 64 -28 97t-91 33q-30 0 -56.5 -10t-46 -30.5t-31 -50.5t-11.5 -69v-295h-96v520h96v-70zM253 -55h96v-100l-65 -100h-36l45 100h-40v100z" />
    <glyph glyph-name="Ncaron" unicode="&#x147;" horiz-adv-x="760" 
d="M324 347q-57 81 -87.5 129.5t-47.5 78.5h-4q2 -24 3 -46t1.5 -47t0.5 -55.5v-71.5v-335h-100v700h105l241 -347q57 -81 87.5 -129.5t47.5 -78.5h4q-2 24 -3 46t-1.5 47t-0.5 55.5v71.5v335h100v-700h-105zM425 880h125l-115 -115h-110l-115 115h125l45 -65z" />
    <glyph glyph-name="ncaron" unicode="&#x148;" horiz-adv-x="597" 
d="M169 450q26 42 71.5 63.5t98.5 21.5q91 0 140.5 -51t49.5 -149v-335h-96v325q0 64 -28 97t-91 33q-30 0 -56.5 -10t-46 -30.5t-31 -50.5t-11.5 -69v-295h-96v520h96v-70zM346 700h125l-115 -115h-110l-115 115h125l45 -65z" />
    <glyph glyph-name="napostrophe" unicode="&#x149;" horiz-adv-x="654" 
d="M226 450q26 42 71.5 63.5t98.5 21.5q91 0 140.5 -51t49.5 -149v-335h-96v325q0 64 -28 97t-91 33q-30 0 -56.5 -10t-46 -30.5t-31 -50.5t-11.5 -69v-295h-96v520h96v-70zM34 700h96v-100l-65 -100h-36l45 100h-40v100z" />
    <glyph glyph-name="Eng" unicode="&#x14a;" horiz-adv-x="760" 
d="M437 361q29 -41 50 -72.5t37 -56t27 -43.5t20 -34h4q-2 24 -2.5 46t-1.5 47t-1 55.5v71.5v325h100v-715q0 -49 -13 -82.5t-37 -54t-59.5 -29.5t-80.5 -9h-93v85h93q26 0 43.5 4t28 14.5t14.5 28t4 43.5v15l-247 354q-29 41 -50.5 72.5t-37 56t-26.5 43.5t-20 34h-4
q1 -24 2 -46t2 -47t1 -55.5v-71.5v-340h-100v700h110z" />
    <glyph glyph-name="eng" unicode="&#x14b;" horiz-adv-x="597" 
d="M433 325q0 64 -28 97t-91 33q-30 0 -56.5 -10t-46 -30.5t-31 -50.5t-11.5 -69v-295h-96v520h96v-70q26 42 71.5 63.5t98.5 21.5q91 0 140.5 -51t49.5 -149v-380q0 -68 -39.5 -101.5t-111.5 -33.5h-45v78h40q34 0 47 13.5t13 43.5v370z" />
    <glyph glyph-name="Omacron" unicode="&#x14c;" horiz-adv-x="780" 
d="M45 350q0 79 25 145.5t70.5 115.5t109 76.5t140.5 27.5t140.5 -27.5t109 -76.5t70.5 -115.5t25 -145.5t-25 -146t-70.5 -115.5t-109 -76t-140.5 -27.5t-140.5 27.5t-109 76t-70.5 115.5t-25 146zM145 350q0 -54 16 -104.5t46.5 -89.5t76.5 -62.5t106 -23.5t106 23.5
t76.5 62.5t46.5 89.5t16 104.5t-16 104.5t-46.5 89.5t-76.5 62.5t-106 23.5t-106 -23.5t-76.5 -62.5t-46.5 -89.5t-16 -104.5zM225 865h330v-75h-330v75z" />
    <glyph glyph-name="omacron" unicode="&#x14d;" horiz-adv-x="610" 
d="M40 260q0 58 19 108.5t53.5 87.5t83.5 58t109 21t109 -21t83.5 -58t53.5 -87.5t19 -108.5t-19 -108.5t-53.5 -87.5t-83.5 -58t-109 -21t-109 21t-83.5 58t-53.5 87.5t-19 108.5zM474 260q0 39 -11 74.5t-32.5 62.5t-53 42.5t-72.5 15.5t-72.5 -15.5t-53 -42.5
t-32.5 -62.5t-11 -74.5t11 -74.5t32.5 -62.5t53 -42.5t72.5 -15.5t72.5 15.5t53 42.5t32.5 62.5t11 74.5zM140 685h330v-75h-330v75z" />
    <glyph glyph-name="Obreve" unicode="&#x14e;" horiz-adv-x="780" 
d="M45 350q0 79 25 145.5t70.5 115.5t109 76.5t140.5 27.5t140.5 -27.5t109 -76.5t70.5 -115.5t25 -145.5t-25 -146t-70.5 -115.5t-109 -76t-140.5 -27.5t-140.5 27.5t-109 76t-70.5 115.5t-25 146zM145 350q0 -54 16 -104.5t46.5 -89.5t76.5 -62.5t106 -23.5t106 23.5
t76.5 62.5t46.5 89.5t16 104.5t-16 104.5t-46.5 89.5t-76.5 62.5t-106 23.5t-106 -23.5t-76.5 -62.5t-46.5 -89.5t-16 -104.5zM390 755q-68 0 -110.5 39.5t-50.5 100.5h71q8 -29 30 -47t60 -18t60 18t30 47h71q-8 -61 -50.5 -100.5t-110.5 -39.5z" />
    <glyph glyph-name="obreve" unicode="&#x14f;" horiz-adv-x="610" 
d="M40 260q0 58 19 108.5t53.5 87.5t83.5 58t109 21t109 -21t83.5 -58t53.5 -87.5t19 -108.5t-19 -108.5t-53.5 -87.5t-83.5 -58t-109 -21t-109 21t-83.5 58t-53.5 87.5t-19 108.5zM474 260q0 39 -11 74.5t-32.5 62.5t-53 42.5t-72.5 15.5t-72.5 -15.5t-53 -42.5
t-32.5 -62.5t-11 -74.5t11 -74.5t32.5 -62.5t53 -42.5t72.5 -15.5t72.5 15.5t53 42.5t32.5 62.5t11 74.5zM305 575q-68 0 -110.5 39.5t-50.5 100.5h71q8 -29 30 -47t60 -18t60 18t30 47h71q-8 -61 -50.5 -100.5t-110.5 -39.5z" />
    <glyph glyph-name="Ohungarumlaut" unicode="&#x150;" horiz-adv-x="780" 
d="M45 350q0 79 25 145.5t70.5 115.5t109 76.5t140.5 27.5t140.5 -27.5t109 -76.5t70.5 -115.5t25 -145.5t-25 -146t-70.5 -115.5t-109 -76t-140.5 -27.5t-140.5 27.5t-109 76t-70.5 115.5t-25 146zM145 350q0 -54 16 -104.5t46.5 -89.5t76.5 -62.5t106 -23.5t106 23.5
t76.5 62.5t46.5 89.5t16 104.5t-16 104.5t-46.5 89.5t-76.5 62.5t-106 23.5t-106 -23.5t-76.5 -62.5t-46.5 -89.5t-16 -104.5zM300 880h115l-90 -115h-90zM465 880h115l-90 -115h-90z" />
    <glyph glyph-name="ohungarumlaut" unicode="&#x151;" horiz-adv-x="610" 
d="M40 260q0 58 19 108.5t53.5 87.5t83.5 58t109 21t109 -21t83.5 -58t53.5 -87.5t19 -108.5t-19 -108.5t-53.5 -87.5t-83.5 -58t-109 -21t-109 21t-83.5 58t-53.5 87.5t-19 108.5zM474 260q0 39 -11 74.5t-32.5 62.5t-53 42.5t-72.5 15.5t-72.5 -15.5t-53 -42.5
t-32.5 -62.5t-11 -74.5t11 -74.5t32.5 -62.5t53 -42.5t72.5 -15.5t72.5 15.5t53 42.5t32.5 62.5t11 74.5zM215 700h115l-90 -115h-90zM380 700h115l-90 -115h-90z" />
    <glyph glyph-name="OE" unicode="&#x152;" horiz-adv-x="1127" 
d="M601 85q-38 -45 -96.5 -72.5t-133.5 -27.5t-135 27.5t-102.5 76t-65 115.5t-22.5 146t22.5 145.5t65 115.5t102.5 76.5t135 27.5t133.5 -27.5t96.5 -72.5v85h470v-85h-370v-210h350v-85h-350v-235h370v-85h-470v85zM146 350q0 -54 13.5 -104.5t41.5 -89.5t71.5 -62.5
t103.5 -23.5t103.5 23.5t71.5 62.5t41.5 89.5t13.5 104.5t-13.5 104.5t-41.5 89.5t-71.5 62.5t-103.5 23.5t-103.5 -23.5t-71.5 -62.5t-41.5 -89.5t-13.5 -104.5z" />
    <glyph glyph-name="oe" unicode="&#x153;" horiz-adv-x="1018" 
d="M730 460q-38 0 -66.5 -13t-49 -35t-31.5 -51t-12 -61h313q-2 34 -12 63t-29 50.5t-47.5 34t-65.5 12.5zM474 260q0 39 -11 74.5t-32.5 62.5t-53 42.5t-72.5 15.5t-72.5 -15.5t-53 -42.5t-32.5 -62.5t-11 -74.5t11 -74.5t32.5 -62.5t53 -42.5t72.5 -15.5t72.5 15.5
t53 42.5t32.5 62.5t11 74.5zM735 -15q-72 0 -125.5 29t-88.5 80q-33 -50 -88.5 -79.5t-127.5 -29.5q-60 0 -109 21t-83.5 58t-53.5 87.5t-19 108.5t19 108.5t53.5 87.5t83.5 58t109 21q72 0 127.5 -29.5t88.5 -80.5q32 51 86 80.5t123 29.5q94 0 151 -48t82 -126
q9 -29 13 -61t4 -65v-10h-409q1 -32 13 -61.5t33 -52.5t50.5 -37t67.5 -14q54 0 85 21.5t44 48.5h106q-26 -64 -87 -104.5t-148 -40.5z" />
    <glyph glyph-name="Racute" unicode="&#x154;" horiz-adv-x="695" 
d="M425 385q64 0 94.5 31t30.5 84t-30.5 84t-94.5 31h-235v-230h235zM375 300l300 -300h-135l-295 300h-55v-300h-100v700h335q106 0 165.5 -53t59.5 -147t-59.5 -147t-165.5 -53h-50zM345 880h130l-115 -115h-95z" />
    <glyph glyph-name="racute" unicode="&#x155;" horiz-adv-x="355" 
d="M179 700h130l-115 -115h-95zM284 440q-53 0 -84 -31t-31 -99v-310h-96v520h96v-60q19 34 51 52t89 18h27v-90h-52z" />
    <glyph glyph-name="Rcommaaccent" unicode="&#x156;" horiz-adv-x="695" 
d="M425 385q64 0 94.5 31t30.5 84t-30.5 84t-94.5 31h-235v-230h235zM375 300l300 -300h-135l-295 300h-55v-300h-100v700h335q106 0 165.5 -53t59.5 -147t-59.5 -147t-165.5 -53h-50zM315 -55h96v-100l-65 -100h-36l45 100h-40v100z" />
    <glyph glyph-name="rcommaaccent" unicode="&#x157;" horiz-adv-x="355" 
d="M74 -55h96v-100l-65 -100h-36l45 100h-40v100zM284 440q-53 0 -84 -31t-31 -99v-310h-96v520h96v-60q19 34 51 52t89 18h27v-90h-52z" />
    <glyph glyph-name="Rcaron" unicode="&#x158;" horiz-adv-x="695" 
d="M425 385q64 0 94.5 31t30.5 84t-30.5 84t-94.5 31h-235v-230h235zM375 300l300 -300h-135l-295 300h-55v-300h-100v700h335q106 0 165.5 -53t59.5 -147t-59.5 -147t-165.5 -53h-50zM390 880h125l-115 -115h-110l-115 115h125l45 -65z" />
    <glyph glyph-name="rcaron" unicode="&#x159;" horiz-adv-x="355" 
d="M235 700h125l-115 -115h-110l-115 115h125l45 -65zM284 440q-53 0 -84 -31t-31 -99v-310h-96v520h96v-60q19 34 51 52t89 18h27v-90h-52z" />
    <glyph glyph-name="Sacute" unicode="&#x15a;" horiz-adv-x="645" 
d="M324 715q71 0 120.5 -17.5t80.5 -44.5t46 -59.5t18 -63.5h-102q-2 21 -11.5 40t-29.5 34t-50 23.5t-72 8.5q-46 0 -79 -9t-54 -24t-30.5 -35.5t-9.5 -42.5q0 -56 39 -82.5t106 -36.5l80 -12q51 -8 93 -22t72 -37t46.5 -58t16.5 -84q0 -45 -18 -83t-53.5 -66t-88 -43.5
t-120.5 -15.5q-71 0 -123.5 16t-87.5 43t-53.5 63.5t-20.5 77.5h100q3 -58 49.5 -89.5t135.5 -31.5q88 0 134.5 33.5t46.5 87.5q0 30 -10.5 49.5t-30 31.5t-47 19t-61.5 13l-80 13q-103 16 -162.5 65t-59.5 142q0 40 16.5 76t50 63t84 42.5t119.5 15.5zM306 880h130
l-115 -115h-95z" />
    <glyph glyph-name="sacute" unicode="&#x15b;" horiz-adv-x="521" 
d="M232 220q-40 6 -74 18t-58.5 31.5t-38.5 47t-14 65.5q0 67 55 110t160 43q54 0 93 -13.5t64.5 -35t38 -48t14.5 -53.5h-94q-2 34 -31 55.5t-87 21.5q-63 0 -90.5 -21t-27.5 -51q0 -38 28.5 -53.5t78.5 -23.5l48 -7q39 -6 72.5 -16t58.5 -28t39.5 -46.5t14.5 -70.5
q0 -72 -57.5 -116t-162.5 -44q-54 0 -95.5 12t-70 33.5t-43.5 50.5t-16 64h97q2 -45 35 -65.5t93 -20.5q62 0 93.5 21t31.5 57q0 21 -8 34t-22.5 21t-34 13t-43.5 8zM258 700h130l-115 -115h-95z" />
    <glyph glyph-name="Scircumflex" unicode="&#x15c;" horiz-adv-x="645" 
d="M324 715q71 0 120.5 -17.5t80.5 -44.5t46 -59.5t18 -63.5h-102q-2 21 -11.5 40t-29.5 34t-50 23.5t-72 8.5q-46 0 -79 -9t-54 -24t-30.5 -35.5t-9.5 -42.5q0 -56 39 -82.5t106 -36.5l80 -12q51 -8 93 -22t72 -37t46.5 -58t16.5 -84q0 -45 -18 -83t-53.5 -66t-88 -43.5
t-120.5 -15.5q-71 0 -123.5 16t-87.5 43t-53.5 63.5t-20.5 77.5h100q3 -58 49.5 -89.5t135.5 -31.5q88 0 134.5 33.5t46.5 87.5q0 30 -10.5 49.5t-30 31.5t-47 19t-61.5 13l-80 13q-103 16 -162.5 65t-59.5 142q0 40 16.5 76t50 63t84 42.5t119.5 15.5zM314 830l-45 -65
h-125l115 115h110l115 -115h-125z" />
    <glyph glyph-name="scircumflex" unicode="&#x15d;" horiz-adv-x="521" 
d="M232 220q-40 6 -74 18t-58.5 31.5t-38.5 47t-14 65.5q0 67 55 110t160 43q54 0 93 -13.5t64.5 -35t38 -48t14.5 -53.5h-94q-2 34 -31 55.5t-87 21.5q-63 0 -90.5 -21t-27.5 -51q0 -38 28.5 -53.5t78.5 -23.5l48 -7q39 -6 72.5 -16t58.5 -28t39.5 -46.5t14.5 -70.5
q0 -72 -57.5 -116t-162.5 -44q-54 0 -95.5 12t-70 33.5t-43.5 50.5t-16 64h97q2 -45 35 -65.5t93 -20.5q62 0 93.5 21t31.5 57q0 21 -8 34t-22.5 21t-34 13t-43.5 8zM263 650l-45 -65h-125l115 115h110l115 -115h-125z" />
    <glyph glyph-name="Scedilla" unicode="&#x15e;" horiz-adv-x="645" 
d="M324 715q71 0 120.5 -17.5t80.5 -44.5t46 -59.5t18 -63.5h-102q-2 21 -11.5 40t-29.5 34t-50 23.5t-72 8.5q-46 0 -79 -9t-54 -24t-30.5 -35.5t-9.5 -42.5q0 -56 39 -82.5t106 -36.5l80 -12q51 -8 93 -22t72 -37t46.5 -58t16.5 -84q0 -40 -14.5 -75t-43 -62t-70 -44.5
t-96.5 -23.5l-32 -32q35 -2 55.5 -24.5t20.5 -56.5q0 -19 -8 -35.5t-21.5 -28.5t-31.5 -19t-39 -7q-36 0 -62.5 20t-32.5 50h63q8 -20 32 -20q17 0 28.5 11.5t11.5 28.5t-11.5 28.5t-28.5 11.5t-29 -12l-38 38l44 44q-65 3 -113 19.5t-80.5 43.5t-49.5 62t-19 75h100
q3 -58 49.5 -89.5t135.5 -31.5q88 0 134.5 33.5t46.5 87.5q0 30 -10.5 49.5t-30 31.5t-47 19t-61.5 13l-80 13q-103 16 -162.5 65t-59.5 142q0 40 16.5 76t50 63t84 42.5t119.5 15.5z" />
    <glyph glyph-name="scedilla" unicode="&#x15f;" horiz-adv-x="521" 
d="M261 -165q17 0 28.5 11.5t11.5 28.5t-11.5 28.5t-28.5 11.5t-29 -12l-38 38l45 45q-97 5 -148.5 49t-53.5 110h97q2 -45 35 -65.5t93 -20.5q62 0 93.5 21t31.5 57q0 21 -8 34t-22.5 21t-34 13t-43.5 8l-47 7q-40 6 -74 18t-58.5 31.5t-38.5 47t-14 65.5q0 67 55 110
t160 43q54 0 93 -13.5t64.5 -35t38 -48t14.5 -53.5h-94q-2 34 -31 55.5t-87 21.5q-63 0 -90.5 -21t-27.5 -51q0 -38 28.5 -53.5t78.5 -23.5l48 -7q39 -6 72.5 -16t58.5 -28t39.5 -46.5t14.5 -70.5q0 -63 -43 -104t-121 -52l-33 -33q35 -2 55.5 -24.5t20.5 -56.5
q0 -19 -8 -35.5t-21.5 -28.5t-31.5 -19t-39 -7q-36 0 -62.5 20t-32.5 50h63q8 -20 32 -20z" />
    <glyph glyph-name="Scaron" unicode="&#x160;" horiz-adv-x="645" 
d="M324 715q71 0 120.5 -17.5t80.5 -44.5t46 -59.5t18 -63.5h-102q-2 21 -11.5 40t-29.5 34t-50 23.5t-72 8.5q-46 0 -79 -9t-54 -24t-30.5 -35.5t-9.5 -42.5q0 -56 39 -82.5t106 -36.5l80 -12q51 -8 93 -22t72 -37t46.5 -58t16.5 -84q0 -45 -18 -83t-53.5 -66t-88 -43.5
t-120.5 -15.5q-71 0 -123.5 16t-87.5 43t-53.5 63.5t-20.5 77.5h100q3 -58 49.5 -89.5t135.5 -31.5q88 0 134.5 33.5t46.5 87.5q0 30 -10.5 49.5t-30 31.5t-47 19t-61.5 13l-80 13q-103 16 -162.5 65t-59.5 142q0 40 16.5 76t50 63t84 42.5t119.5 15.5zM359 880h125
l-115 -115h-110l-115 115h125l45 -65z" />
    <glyph glyph-name="scaron" unicode="&#x161;" horiz-adv-x="521" 
d="M232 220q-40 6 -74 18t-58.5 31.5t-38.5 47t-14 65.5q0 67 55 110t160 43q54 0 93 -13.5t64.5 -35t38 -48t14.5 -53.5h-94q-2 34 -31 55.5t-87 21.5q-63 0 -90.5 -21t-27.5 -51q0 -38 28.5 -53.5t78.5 -23.5l48 -7q39 -6 72.5 -16t58.5 -28t39.5 -46.5t14.5 -70.5
q0 -72 -57.5 -116t-162.5 -44q-54 0 -95.5 12t-70 33.5t-43.5 50.5t-16 64h97q2 -45 35 -65.5t93 -20.5q62 0 93.5 21t31.5 57q0 21 -8 34t-22.5 21t-34 13t-43.5 8zM308 700h125l-115 -115h-110l-115 115h125l45 -65z" />
    <glyph glyph-name="Tcommaaccent" unicode="&#x162;" horiz-adv-x="598" 
d="M281 -165q17 0 28.5 11.5t11.5 28.5t-11.5 28.5t-28.5 11.5t-29 -12l-38 38l59 59h-24v615h-235v85h570v-85h-235v-615l-44 -44q35 -2 55.5 -24.5t20.5 -56.5q0 -19 -8 -35.5t-21.5 -28.5t-31.5 -19t-39 -7q-36 0 -62.5 20t-32.5 50h63q8 -20 32 -20z" />
    <glyph glyph-name="tcommaaccent" unicode="&#x163;" horiz-adv-x="396" 
d="M220 -165q17 0 28.5 11.5t11.5 28.5t-11.5 28.5t-28.5 11.5t-29 -12l-38 38l63 63q-44 10 -61.5 40.5t-17.5 80.5v315h-125v80h125v120h96v-120h135v-80h-135v-315q0 -26 9.5 -36.5t35.5 -10.5h90v-78h-80l-44 -44q35 -2 55.5 -24.5t20.5 -56.5q0 -19 -8 -35.5
t-21.5 -28.5t-31.5 -19t-39 -7q-36 0 -62.5 20t-32.5 50h63q8 -20 32 -20z" />
    <glyph glyph-name="Tcaron" unicode="&#x164;" horiz-adv-x="598" 
d="M584 615h-235v-615h-100v615h-235v85h570v-85zM344 880h125l-115 -115h-110l-115 115h125l45 -65z" />
    <glyph glyph-name="tcaron" unicode="&#x165;" horiz-adv-x="396" 
d="M308 765h100l-55 -185h-75zM137 440h-125v80h125v120h96v-120h135v-80h-135v-315q0 -26 9.5 -36.5t35.5 -10.5h90v-78h-110q-68 0 -94.5 32.5t-26.5 92.5v315z" />
    <glyph glyph-name="Tbar" unicode="&#x166;" horiz-adv-x="616" 
d="M103 410h155v205h-235v85h570v-85h-235v-205h155v-80h-155v-330h-100v330h-155v80z" />
    <glyph glyph-name="tbar" unicode="&#x167;" horiz-adv-x="398" 
d="M138 350v90h-125v80h125v120h96v-120h135v-80h-135v-90h110v-75h-110v-150q0 -26 9.5 -36.5t35.5 -10.5h90v-78h-110q-68 0 -94.5 32.5t-26.5 92.5v150h-100v75h100z" />
    <glyph glyph-name="Utilde" unicode="&#x168;" horiz-adv-x="724" 
d="M362 -15q-66 0 -118 20.5t-88 56t-55 84t-19 104.5v450h100v-450q0 -83 48.5 -131.5t131.5 -48.5t131.5 48.5t48.5 131.5v450h100v-450q0 -56 -19 -104.5t-55 -84t-88 -56t-118 -20.5zM177 770q0 30 9.5 52.5t25.5 37.5t36.5 22.5t43.5 7.5q26 0 48 -10t40 -22.5
t33.5 -22.5t28.5 -10q19 0 27 13t8 32h70q0 -30 -9.5 -52.5t-25.5 -37.5t-37 -22.5t-43 -7.5q-26 0 -48 10t-40 22.5t-33.5 22.5t-28.5 10q-19 0 -27 -13t-8 -32h-70z" />
    <glyph glyph-name="utilde" unicode="&#x169;" horiz-adv-x="592" 
d="M423 65q-23 -42 -67.5 -61t-97.5 -19q-91 0 -140.5 51t-49.5 149v335h96v-325q0 -64 28 -97t91 -33q60 0 100 40.5t40 119.5v295h96v-520h-96v65zM108 590q0 30 9.5 52.5t25.5 37.5t36.5 22.5t43.5 7.5q26 0 48 -10t40 -22.5t33.5 -22.5t28.5 -10q19 0 27 13t8 32h70
q0 -30 -9.5 -52.5t-25.5 -37.5t-37 -22.5t-43 -7.5q-26 0 -48 10t-40 22.5t-33.5 22.5t-28.5 10q-19 0 -27 -13t-8 -32h-70z" />
    <glyph glyph-name="Umacron" unicode="&#x16a;" horiz-adv-x="724" 
d="M362 -15q-66 0 -118 20.5t-88 56t-55 84t-19 104.5v450h100v-450q0 -83 48.5 -131.5t131.5 -48.5t131.5 48.5t48.5 131.5v450h100v-450q0 -56 -19 -104.5t-55 -84t-88 -56t-118 -20.5zM197 865h330v-75h-330v75z" />
    <glyph glyph-name="umacron" unicode="&#x16b;" horiz-adv-x="592" 
d="M423 65q-23 -42 -67.5 -61t-97.5 -19q-91 0 -140.5 51t-49.5 149v335h96v-325q0 -64 28 -97t91 -33q60 0 100 40.5t40 119.5v295h96v-520h-96v65zM128 685h330v-75h-330v75z" />
    <glyph glyph-name="Ubreve" unicode="&#x16c;" horiz-adv-x="724" 
d="M362 -15q-66 0 -118 20.5t-88 56t-55 84t-19 104.5v450h100v-450q0 -83 48.5 -131.5t131.5 -48.5t131.5 48.5t48.5 131.5v450h100v-450q0 -56 -19 -104.5t-55 -84t-88 -56t-118 -20.5zM362 755q-68 0 -110.5 39.5t-50.5 100.5h71q8 -29 30 -47t60 -18t60 18t30 47h71
q-8 -61 -50.5 -100.5t-110.5 -39.5z" />
    <glyph glyph-name="ubreve" unicode="&#x16d;" horiz-adv-x="592" 
d="M423 65q-23 -42 -67.5 -61t-97.5 -19q-91 0 -140.5 51t-49.5 149v335h96v-325q0 -64 28 -97t91 -33q60 0 100 40.5t40 119.5v295h96v-520h-96v65zM293 575q-68 0 -110.5 39.5t-50.5 100.5h71q8 -29 30 -47t60 -18t60 18t30 47h71q-8 -61 -50.5 -100.5t-110.5 -39.5z" />
    <glyph glyph-name="Uring" unicode="&#x16e;" horiz-adv-x="724" 
d="M362 -15q-66 0 -118 20.5t-88 56t-55 84t-19 104.5v450h100v-450q0 -83 48.5 -131.5t131.5 -48.5t131.5 48.5t48.5 131.5v450h100v-450q0 -56 -19 -104.5t-55 -84t-88 -56t-118 -20.5zM427 805q0 28 -18.5 46.5t-46.5 18.5t-46.5 -18.5t-18.5 -46.5t18.5 -46.5
t46.5 -18.5t46.5 18.5t18.5 46.5zM492 805q0 -26 -10 -48t-27 -38t-41 -25t-52 -9t-52 9t-41 25t-27 38t-10 48t10 48t27 38t41 25t52 9t52 -9t41 -25t27 -38t10 -48z" />
    <glyph glyph-name="uring" unicode="&#x16f;" horiz-adv-x="592" 
d="M423 65q-23 -42 -67.5 -61t-97.5 -19q-91 0 -140.5 51t-49.5 149v335h96v-325q0 -64 28 -97t91 -33q60 0 100 40.5t40 119.5v295h96v-520h-96v65zM358 685q0 28 -18.5 46.5t-46.5 18.5t-46.5 -18.5t-18.5 -46.5t18.5 -46.5t46.5 -18.5t46.5 18.5t18.5 46.5zM423 685
q0 -26 -10 -48t-27 -38t-41 -25t-52 -9t-52 9t-41 25t-27 38t-10 48t10 48t27 38t41 25t52 9t52 -9t41 -25t27 -38t10 -48z" />
    <glyph glyph-name="Uhungarumlaut" unicode="&#x170;" horiz-adv-x="724" 
d="M362 -15q-66 0 -118 20.5t-88 56t-55 84t-19 104.5v450h100v-450q0 -83 48.5 -131.5t131.5 -48.5t131.5 48.5t48.5 131.5v450h100v-450q0 -56 -19 -104.5t-55 -84t-88 -56t-118 -20.5zM274 880h115l-90 -115h-90zM439 880h115l-90 -115h-90z" />
    <glyph glyph-name="uhungarumlaut" unicode="&#x171;" horiz-adv-x="592" 
d="M423 65q-23 -42 -67.5 -61t-97.5 -19q-91 0 -140.5 51t-49.5 149v335h96v-325q0 -64 28 -97t91 -33q60 0 100 40.5t40 119.5v295h96v-520h-96v65zM208 700h115l-90 -115h-90zM373 700h115l-90 -115h-90z" />
    <glyph glyph-name="Uogonek" unicode="&#x172;" horiz-adv-x="724" 
d="M492 -140q11 0 21.5 1t23.5 5l-27 -69q-11 -4 -24 -5.5t-24 -1.5q-49 0 -82 27.5t-33 72.5q0 34 15 58t36 39q-12 -2 -21.5 -2h-14.5q-66 0 -118 20.5t-88 56t-55 84t-19 104.5v450h100v-450q0 -83 48.5 -131.5t131.5 -48.5t131.5 48.5t48.5 131.5v450h100v-450
q0 -55 -15 -95t-38 -70t-49.5 -52.5t-49.5 -42.5t-38 -40.5t-15 -45.5q0 -26 18 -35t37 -9z" />
    <glyph glyph-name="uogonek" unicode="&#x173;" horiz-adv-x="592" 
d="M484 -140q11 0 21.5 1t23.5 5l-27 -69q-11 -4 -24 -5.5t-24 -1.5q-49 0 -82 27.5t-33 72.5t25.5 73t58.5 44v58q-23 -42 -67.5 -61t-97.5 -19q-91 0 -140.5 51t-49.5 149v335h96v-325q0 -64 28 -97t91 -33q60 0 100 40.5t40 119.5v295h96v-520q-49 -26 -69.5 -48.5
t-20.5 -47.5q0 -26 18 -35t37 -9z" />
    <glyph glyph-name="Wcircumflex" unicode="&#x174;" horiz-adv-x="940" 
d="M468 565q-10 -49 -21.5 -96t-22.5 -87l-109 -382h-100l-200 700h100l102 -372q29 -107 46 -198h4q9 45 20.5 94t27.5 105l105 371h100l105 -371q16 -56 27.5 -105t20.5 -94h4q17 91 46 198l102 372h100l-200 -700h-100l-109 382q-11 40 -22.5 87t-21.5 96h-4zM470 830
l-45 -65h-125l115 115h110l115 -115h-125z" />
    <glyph glyph-name="wcircumflex" unicode="&#x175;" horiz-adv-x="766" 
d="M381 410q-9 -42 -21.5 -90.5t-26.5 -92.5l-73 -227h-88l-155 520h97l60 -224q14 -50 24.5 -99t16.5 -87h4q8 38 20.5 87t27.5 98l70 225h92l70 -225q15 -49 27.5 -98t20.5 -87h4q6 38 16.5 87t24.5 99l60 224h97l-155 -520h-88l-73 227q-14 44 -26.5 92.5t-21.5 90.5h-4z
M383 650l-45 -65h-125l115 115h110l115 -115h-125z" />
    <glyph glyph-name="Ycircumflex" unicode="&#x176;" horiz-adv-x="596" 
d="M248 280l-235 420h112l173 -330l173 330h112l-235 -420v-280h-100v280zM298 830l-45 -65h-125l115 115h110l115 -115h-125z" />
    <glyph glyph-name="ycircumflex" unicode="&#x177;" horiz-adv-x="514" 
d="M258 650l-45 -65h-125l115 115h110l115 -115h-125zM212 0l-196 520h102l84 -230q17 -45 30.5 -93t22.5 -83h5q10 35 25.5 83t32.5 93l84 230h99l-211 -569q-11 -30 -25.5 -54.5t-36.5 -41.5t-53.5 -26t-76.5 -9h-56v78h51q22 0 39 3.5t30.5 13t23.5 25.5t19 40z" />
    <glyph glyph-name="Ydieresis" unicode="&#x178;" horiz-adv-x="596" 
d="M248 280l-235 420h112l173 -330l173 330h112l-235 -420v-280h-100v280zM148 880h96v-100h-96v100zM352 880h96v-100h-96v100z" />
    <glyph glyph-name="Zacute" unicode="&#x179;" horiz-adv-x="598" 
d="M566 0h-530v85l395 530h-385v85h505v-85l-395 -530h410v-85zM296 880h130l-115 -115h-95z" />
    <glyph glyph-name="zacute" unicode="&#x17a;" horiz-adv-x="512" 
d="M477 80v-80h-440v80l309 360h-299v80h420v-80l-309 -360h319zM252 700h130l-115 -115h-95z" />
    <glyph glyph-name="Zdotaccent" unicode="&#x17b;" horiz-adv-x="598" 
d="M566 0h-530v85l395 530h-385v85h505v-85l-395 -530h410v-85zM251 880h96v-100h-96v100z" />
    <glyph glyph-name="zdotaccent" unicode="&#x17c;" horiz-adv-x="512" 
d="M477 80v-80h-440v80l309 360h-299v80h420v-80l-309 -360h319zM207 700h96v-100h-96v100z" />
    <glyph glyph-name="Zcaron" unicode="&#x17d;" horiz-adv-x="598" 
d="M566 0h-530v85l395 530h-385v85h505v-85l-395 -530h410v-85zM341 880h125l-115 -115h-110l-115 115h125l45 -65z" />
    <glyph glyph-name="zcaron" unicode="&#x17e;" horiz-adv-x="512" 
d="M477 80v-80h-440v80l309 360h-299v80h420v-80l-309 -360h319zM302 700h125l-115 -115h-110l-115 115h125l45 -65z" />
    <glyph glyph-name="longs" unicode="&#x17f;" horiz-adv-x="309" 
d="M15 520h105v55q0 125 135 125h81v-78h-75q-26 0 -35.5 -10.5t-9.5 -36.5v-575h-96v440h-105v80z" />
    <glyph glyph-name="uni018F" unicode="&#x18f;" horiz-adv-x="755" 
d="M64 530q17 39 44 73t64.5 59t85.5 39t106 14q77 0 140.5 -27t109 -75t70.5 -115t25 -148q0 -79 -24.5 -146t-69 -115.5t-107 -76t-139.5 -27.5q-79 0 -140.5 28.5t-103.5 78.5t-64 118.5t-22 149.5v25h568q-3 48 -21 92.5t-49 78t-74.5 54t-98.5 20.5q-36 0 -66.5 -8.5
t-54.5 -22t-41.5 -32t-26.5 -37.5h-111zM369 70q53 0 94.5 19t71.5 50.5t47.5 73.5t22.5 87h-461q4 -45 19.5 -86.5t43.5 -73.5t68.5 -51t93.5 -19z" />
    <glyph glyph-name="florin" unicode="&#x192;" horiz-adv-x="433" 
d="M159 440h-128v80h142l11 60q12 64 44.5 92t96.5 28h86v-80h-79q-26 0 -35.5 -10.5t-13.5 -29.5l-11 -60h139v-80h-153l-88 -500q-11 -64 -44 -92t-97 -28h-68v80h61q26 0 35.5 10.5t13.5 29.5z" />
    <glyph glyph-name="uni01B5" unicode="&#x1b5;" horiz-adv-x="611" 
d="M72 400h205l160 215h-385v85h505v-85l-160 -215h145v-80h-204l-176 -235h410v-85h-530v85l175 235h-145v80z" />
    <glyph glyph-name="uni01B6" unicode="&#x1b6;" horiz-adv-x="519" 
d="M65 300h164l120 140h-299v80h420v-80l-120 -140h110v-75h-175l-124 -145h319v-80h-440v80l124 145h-99v75z" />
    <glyph glyph-name="Aringacute" unicode="&#x1fa;" horiz-adv-x="684" 
d="M507 165h-330l-65 -165h-105l239 587q-34 32 -34 83q0 26 10 48t27 38t41 25t52 9t52 -9t41 -25t27 -38t10 -48q0 -25 -9 -46t-25 -37l239 -587h-105zM342 550h-6t-8 1q-11 -32 -25 -68.5t-28 -71.5l-64 -161h262l-64 161q-15 35 -28.5 71.5t-24.5 68.5q-4 -1 -8 -1h-6z
M342 930h130l-115 -115h-95zM407 670q0 28 -18.5 46.5t-46.5 18.5t-46.5 -18.5t-18.5 -46.5t18.5 -46.5t46.5 -18.5t46.5 18.5t18.5 46.5z" />
    <glyph glyph-name="aringacute" unicode="&#x1fb;" horiz-adv-x="572" 
d="M413 620q0 -29 -12.5 -53.5t-34.5 -40.5q37 -8 66 -27t47 -49q25 -42 25 -105v-345h-96v65q-23 -30 -67 -55t-108 -25q-40 0 -75.5 10.5t-62.5 31.5t-42.5 53t-15.5 75q0 68 46.5 112.5t144.5 52.5l180 15v10q0 26 -6 47.5t-20.5 36.5t-38.5 23t-60 8q-57 0 -87.5 -20.5
t-34.5 -54.5h-99q6 48 39.5 86.5t98.5 54.5q-22 16 -34.5 40.5t-12.5 53.5q0 26 10 48t27 38t41 25t52 9t52 -9t41 -25t27 -38t10 -48zM243 60q34 0 64 11t52.5 32t35.5 52t13 70v40l-170 -15q-53 -5 -79 -29t-26 -66q0 -26 8.5 -44.5t23.5 -29.5t35 -16t43 -5zM348 620
q0 28 -18.5 46.5t-46.5 18.5t-46.5 -18.5t-18.5 -46.5t18.5 -46.5t46.5 -18.5t46.5 18.5t18.5 46.5zM275 880h130l-115 -115h-95z" />
    <glyph glyph-name="AEacute" unicode="&#x1fc;" horiz-adv-x="1043" 
d="M987 700v-85h-370v-210h350v-85h-350v-235h370v-85h-470v165h-300l-110 -165h-120l470 700h530zM513 615q-17 -27 -42.5 -68t-66.5 -102l-130 -195h243v365h-4zM692 880h130l-115 -115h-95z" />
    <glyph glyph-name="aeacute" unicode="&#x1fd;" horiz-adv-x="951" 
d="M243 60q34 0 64 11t52.5 32t35.5 52t13 70v40l-170 -15q-53 -5 -79 -29t-26 -66q0 -26 8.5 -44.5t23.5 -29.5t35 -16t43 -5zM663 460q-38 0 -66.5 -13t-49 -35t-31.5 -51t-12 -61h313q-2 34 -12 63t-29 50.5t-47.5 34t-65.5 12.5zM668 -15q-72 0 -126.5 30t-87.5 81
q-12 -19 -29.5 -39t-43.5 -36t-61 -26t-82 -10q-42 0 -78.5 10.5t-63.5 31.5t-43 53t-16 75q0 68 46.5 112.5t144.5 52.5l180 15v10q0 26 -6 47.5t-20.5 36.5t-38.5 23t-60 8q-57 0 -87.5 -20.5t-34.5 -54.5h-99q4 31 19 58.5t42.5 47.5t67 32t92.5 12q63 0 114 -18.5
t79 -63.5q33 38 80.5 60t106.5 22q94 0 151 -48t82 -126q9 -29 13 -61t4 -65v-10h-409q1 -32 13 -61.5t33 -52.5t50.5 -37t67.5 -14q31 0 55 8t40 21t25 27.5t12 28.5h103q-9 -32 -28.5 -61t-49 -51t-69 -35t-88.5 -13zM473 700h130l-115 -115h-95z" />
    <glyph glyph-name="Oslashacute" unicode="&#x1fe;" horiz-adv-x="784" 
d="M387 880h130l-115 -115h-95zM133 99q-42 48 -64 112t-22 139q0 79 25 145.5t70.5 115.5t109 76.5t140.5 27.5q60 0 110.5 -16.5t92.5 -46.5l52 63h100l-95 -115q41 -48 63 -111.5t22 -138.5q0 -79 -25 -146t-70.5 -115.5t-109 -76t-140.5 -27.5q-59 0 -109.5 16t-92.5 46
l-53 -62h-100zM147 350q0 -48 12.5 -93t36.5 -82l340 407q-29 23 -64.5 35.5t-79.5 12.5q-60 0 -106 -23.5t-76.5 -62.5t-46.5 -89.5t-16 -104.5zM637 350q0 48 -12 92.5t-36 82.5l-341 -408q29 -22 64.5 -34.5t79.5 -12.5q60 0 106 23.5t76.5 62.5t46.5 89.5t16 104.5z" />
    <glyph glyph-name="oslashacute" unicode="&#x1ff;" horiz-adv-x="612" 
d="M41 260q0 58 19 108.5t53.5 87.5t83.5 58t109 21q45 0 82.5 -11.5t67.5 -32.5l37 44h88l-74 -88q31 -36 47.5 -84t16.5 -103q0 -58 -19 -108.5t-53.5 -87.5t-83.5 -58t-109 -21q-44 0 -82 11.5t-68 32.5l-37 -44h-88l74 89q-31 37 -47.5 84t-16.5 102zM475 260
q0 64 -28 115l-236 -281q38 -29 95 -29q41 0 72.5 15.5t53 42.5t32.5 62.5t11 74.5zM137 260q0 -32 7 -61.5t21 -53.5l237 281q-20 14 -43.5 21.5t-52.5 7.5q-41 0 -72.5 -15.5t-53 -42.5t-32.5 -62.5t-11 -74.5zM301 700h130l-115 -115h-95z" />
    <glyph glyph-name="Scommaaccent" unicode="&#x218;" horiz-adv-x="645" 
d="M324 715q71 0 120.5 -17.5t80.5 -44.5t46 -59.5t18 -63.5h-102q-2 21 -11.5 40t-29.5 34t-50 23.5t-72 8.5q-46 0 -79 -9t-54 -24t-30.5 -35.5t-9.5 -42.5q0 -56 39 -82.5t106 -36.5l80 -12q51 -8 93 -22t72 -37t46.5 -58t16.5 -84q0 -45 -18 -83t-53.5 -66t-88 -43.5
t-120.5 -15.5q-71 0 -123.5 16t-87.5 43t-53.5 63.5t-20.5 77.5h100q3 -58 49.5 -89.5t135.5 -31.5q88 0 134.5 33.5t46.5 87.5q0 30 -10.5 49.5t-30 31.5t-47 19t-61.5 13l-80 13q-103 16 -162.5 65t-59.5 142q0 40 16.5 76t50 63t84 42.5t119.5 15.5zM287 -55h96v-100
l-65 -100h-36l45 100h-40v100z" />
    <glyph glyph-name="scommaaccent" unicode="&#x219;" horiz-adv-x="521" 
d="M232 220q-40 6 -74 18t-58.5 31.5t-38.5 47t-14 65.5q0 67 55 110t160 43q54 0 93 -13.5t64.5 -35t38 -48t14.5 -53.5h-94q-2 34 -31 55.5t-87 21.5q-63 0 -90.5 -21t-27.5 -51q0 -38 28.5 -53.5t78.5 -23.5l48 -7q39 -6 72.5 -16t58.5 -28t39.5 -46.5t14.5 -70.5
q0 -72 -57.5 -116t-162.5 -44q-54 0 -95.5 12t-70 33.5t-43.5 50.5t-16 64h97q2 -45 35 -65.5t93 -20.5q62 0 93.5 21t31.5 57q0 21 -8 34t-22.5 21t-34 13t-43.5 8zM223 -55h96v-100l-65 -100h-36l45 100h-40v100z" />
    <glyph glyph-name="uni021A" unicode="&#x21a;" horiz-adv-x="598" 
d="M584 615h-235v-615h-100v615h-235v85h570v-85zM252 -55h96v-100l-65 -100h-36l45 100h-40v100z" />
    <glyph glyph-name="uni021B" unicode="&#x21b;" horiz-adv-x="396" 
d="M188 -55h96v-100l-65 -100h-36l45 100h-40v100zM137 440h-125v80h125v120h96v-120h135v-80h-135v-315q0 -26 9.5 -36.5t35.5 -10.5h90v-78h-110q-68 0 -94.5 32.5t-26.5 92.5v315z" />
    <glyph glyph-name="dotlessj" unicode="&#x237;" horiz-adv-x="246" 
d="M77 520h96v-565q0 -68 -39.5 -101.5t-111.5 -33.5h-45v78h40q34 0 47 13.5t13 43.5v565z" />
    <glyph glyph-name="uni0259" unicode="&#x259;" horiz-adv-x="583" 
d="M47 385q26 68 87 109t153 41q60 0 107.5 -21t80 -58t50 -87.5t17.5 -108.5t-18 -108.5t-51.5 -87.5t-80.5 -58t-105 -21q-94 0 -151 48t-82 126q-9 29 -13 61t-4 65v10h409q-2 32 -12.5 61.5t-31 52.5t-49.5 37t-66 14q-58 0 -90 -22t-44 -53h-106zM287 60q37 0 66 13
t49.5 35t31 51t12.5 61h-313q1 -34 11.5 -63t29.5 -50.5t47 -34t66 -12.5z" />
    <glyph glyph-name="circumflex" unicode="&#x2c6;" horiz-adv-x="380" 
d="M190 650l-45 -65h-125l115 115h110l115 -115h-125z" />
    <glyph glyph-name="caron" unicode="&#x2c7;" horiz-adv-x="380" 
d="M235 700h125l-115 -115h-110l-115 115h125l45 -65z" />
    <glyph glyph-name="breve" unicode="&#x2d8;" horiz-adv-x="380" 
d="M190 575q-68 0 -110.5 39.5t-50.5 100.5h71q8 -29 30 -47t60 -18t60 18t30 47h71q-8 -61 -50.5 -100.5t-110.5 -39.5z" />
    <glyph glyph-name="dotaccent" unicode="&#x2d9;" horiz-adv-x="196" 
d="M50 700h96v-100h-96v100z" />
    <glyph glyph-name="ring" unicode="&#x2da;" horiz-adv-x="320" 
d="M225 685q0 28 -18.5 46.5t-46.5 18.5t-46.5 -18.5t-18.5 -46.5t18.5 -46.5t46.5 -18.5t46.5 18.5t18.5 46.5zM290 685q0 -26 -10 -48t-27 -38t-41 -25t-52 -9t-52 9t-41 25t-27 38t-10 48t10 48t27 38t41 25t52 9t52 -9t41 -25t27 -38t10 -48z" />
    <glyph glyph-name="ogonek" unicode="&#x2db;" horiz-adv-x="225" 
d="M165 -140q11 0 21.5 1t23.5 5l-27 -69q-11 -4 -24 -5.5t-24 -1.5q-49 0 -82 27.5t-33 72.5t25 72.5t55 42.5l100 -5q-49 -26 -69.5 -48.5t-20.5 -47.5q0 -26 18 -35t37 -9z" />
    <glyph glyph-name="tilde" unicode="&#x2dc;" horiz-adv-x="440" 
d="M35 590q0 30 9.5 52.5t25.5 37.5t36.5 22.5t43.5 7.5q26 0 48 -10t40 -22.5t33.5 -22.5t28.5 -10q19 0 27 13t8 32h70q0 -30 -9.5 -52.5t-25.5 -37.5t-37 -22.5t-43 -7.5q-26 0 -48 10t-40 22.5t-33.5 22.5t-28.5 10q-19 0 -27 -13t-8 -32h-70z" />
    <glyph glyph-name="hungarumlaut" unicode="&#x2dd;" horiz-adv-x="465" 
d="M125 700h115l-90 -115h-90zM290 700h115l-90 -115h-90z" />
    <glyph glyph-name="uni0326" unicode="&#x326;" horiz-adv-x="0" 
d="M-350 -55h96v-100l-65 -100h-36l45 100h-40v100z" />
    <glyph glyph-name="uni0394" unicode="&#x394;" horiz-adv-x="578" 
d="M28 80l215 620h92l215 -620v-80h-522v80zM129 80h320l-160 485z" />
    <glyph glyph-name="uni03A9" unicode="&#x3a9;" horiz-adv-x="706" 
d="M353 635q-53 0 -91.5 -20t-63.5 -54.5t-37.5 -79.5t-12.5 -96t11.5 -93.5t33.5 -74.5t52 -53.5t68 -28.5v-135h-246v80h166v5q-91 34 -136 115t-45 190q0 73 21.5 133t61 102.5t95 66t123.5 23.5t123.5 -23.5t95 -66t61 -102.5t21.5 -133q0 -109 -45 -190t-136 -115v-5
h166v-80h-246v135q37 7 67.5 28.5t52.5 53.5t33.5 74.5t11.5 93.5t-12.5 96t-37.5 79.5t-64 54.5t-91 20z" />
    <glyph glyph-name="uni03BC" unicode="&#x3bc;" horiz-adv-x="606" 
d="M437 40q-23 -26 -57.5 -40.5t-76.5 -14.5t-76.5 14.5t-57.5 40.5v-220h-96v700h96v-325q0 -57 33 -93.5t101 -36.5q64 0 99 35t35 95v325h96v-520h-96v40z" />
    <glyph glyph-name="pi" unicode="&#x3c0;" horiz-adv-x="560" 
d="M369 440h-178v-440h-96v440h-60v80h490v-80h-60v-440h-96v440z" />
    <glyph glyph-name="Wgrave" unicode="&#x1e80;" horiz-adv-x="940" 
d="M468 565q-10 -49 -21.5 -96t-22.5 -87l-109 -382h-100l-200 700h100l102 -372q29 -107 46 -198h4q9 45 20.5 94t27.5 105l105 371h100l105 -371q16 -56 27.5 -105t20.5 -94h4q17 91 46 198l102 372h100l-200 -700h-100l-109 382q-11 40 -22.5 87t-21.5 96h-4zM555 765
h-95l-115 115h130z" />
    <glyph glyph-name="wgrave" unicode="&#x1e81;" horiz-adv-x="766" 
d="M381 410q-9 -42 -21.5 -90.5t-26.5 -92.5l-73 -227h-88l-155 520h97l60 -224q14 -50 24.5 -99t16.5 -87h4q8 38 20.5 87t27.5 98l70 225h92l70 -225q15 -49 27.5 -98t20.5 -87h4q6 38 16.5 87t24.5 99l60 224h97l-155 -520h-88l-73 227q-14 44 -26.5 92.5t-21.5 90.5h-4z
M468 585h-95l-115 115h130z" />
    <glyph glyph-name="Wacute" unicode="&#x1e82;" horiz-adv-x="940" 
d="M468 565q-10 -49 -21.5 -96t-22.5 -87l-109 -382h-100l-200 700h100l102 -372q29 -107 46 -198h4q9 45 20.5 94t27.5 105l105 371h100l105 -371q16 -56 27.5 -105t20.5 -94h4q17 91 46 198l102 372h100l-200 -700h-100l-109 382q-11 40 -22.5 87t-21.5 96h-4zM465 880
h130l-115 -115h-95z" />
    <glyph glyph-name="wacute" unicode="&#x1e83;" horiz-adv-x="766" 
d="M381 410q-9 -42 -21.5 -90.5t-26.5 -92.5l-73 -227h-88l-155 520h97l60 -224q14 -50 24.5 -99t16.5 -87h4q8 38 20.5 87t27.5 98l70 225h92l70 -225q15 -49 27.5 -98t20.5 -87h4q6 38 16.5 87t24.5 99l60 224h97l-155 -520h-88l-73 227q-14 44 -26.5 92.5t-21.5 90.5h-4z
M378 700h130l-115 -115h-95z" />
    <glyph glyph-name="Wdieresis" unicode="&#x1e84;" horiz-adv-x="940" 
d="M468 565q-10 -49 -21.5 -96t-22.5 -87l-109 -382h-100l-200 700h100l102 -372q29 -107 46 -198h4q9 45 20.5 94t27.5 105l105 371h100l105 -371q16 -56 27.5 -105t20.5 -94h4q17 91 46 198l102 372h100l-200 -700h-100l-109 382q-11 40 -22.5 87t-21.5 96h-4zM320 880h96
v-100h-96v100zM524 880h96v-100h-96v100z" />
    <glyph glyph-name="wdieresis" unicode="&#x1e85;" horiz-adv-x="766" 
d="M381 410q-9 -42 -21.5 -90.5t-26.5 -92.5l-73 -227h-88l-155 520h97l60 -224q14 -50 24.5 -99t16.5 -87h4q8 38 20.5 87t27.5 98l70 225h92l70 -225q15 -49 27.5 -98t20.5 -87h4q6 38 16.5 87t24.5 99l60 224h97l-155 -520h-88l-73 227q-14 44 -26.5 92.5t-21.5 90.5h-4z
M233 700h96v-100h-96v100zM437 700h96v-100h-96v100z" />
    <glyph glyph-name="uni1E8A" unicode="&#x1e8a;" horiz-adv-x="632" 
d="M317 449l175 251h114l-234 -330l259 -370h-118l-198 287l-200 -287h-114l259 367l-234 333h118zM268 880h96v-100h-96v100z" />
    <glyph glyph-name="uni1E8B" unicode="&#x1e8b;" horiz-adv-x="514" 
d="M258 345l122 175h112l-182 -248l197 -272h-116l-135 196l-137 -196h-112l197 269l-182 251h116zM209 700h96v-100h-96v100z" />
    <glyph glyph-name="Ygrave" unicode="&#x1ef2;" horiz-adv-x="596" 
d="M248 280l-235 420h112l173 -330l173 330h112l-235 -420v-280h-100v280zM383 765h-95l-115 115h130z" />
    <glyph glyph-name="ygrave" unicode="&#x1ef3;" horiz-adv-x="514" 
d="M341 585h-95l-115 115h130zM212 0l-196 520h102l84 -230q17 -45 30.5 -93t22.5 -83h5q10 35 25.5 83t32.5 93l84 230h99l-211 -569q-11 -30 -25.5 -54.5t-36.5 -41.5t-53.5 -26t-76.5 -9h-56v78h51q22 0 39 3.5t30.5 13t23.5 25.5t19 40z" />
    <glyph glyph-name="uni2002" unicode="&#x2002;" horiz-adv-x="500" 
 />
    <glyph glyph-name="uni2003" unicode="&#x2003;" horiz-adv-x="1000" 
 />
    <glyph glyph-name="uni2004" unicode="&#x2004;" horiz-adv-x="333" 
 />
    <glyph glyph-name="uni2005" unicode="&#x2005;" horiz-adv-x="250" 
 />
    <glyph glyph-name="uni2006" unicode="&#x2006;" horiz-adv-x="167" 
 />
    <glyph glyph-name="uni2007" unicode="&#x2007;" horiz-adv-x="650" 
 />
    <glyph glyph-name="uni2008" unicode="&#x2008;" horiz-adv-x="248" 
 />
    <glyph glyph-name="uni2009" unicode="&#x2009;" horiz-adv-x="125" 
 />
    <glyph glyph-name="uni200A" unicode="&#x200a;" horiz-adv-x="42" 
 />
    <glyph glyph-name="uni200B" unicode="&#x200b;" horiz-adv-x="0" 
 />
    <glyph glyph-name="endash" unicode="&#x2013;" horiz-adv-x="616" 
d="M63 300h490v-80h-490v80z" />
    <glyph glyph-name="emdash" unicode="&#x2014;" horiz-adv-x="1136" 
d="M63 300h1010v-80h-1010v80z" />
    <glyph glyph-name="quoteleft" unicode="&#x2018;" horiz-adv-x="239" 
d="M176 430h-120v135l80 135h45l-55 -135h50v-135z" />
    <glyph glyph-name="quoteright" unicode="&#x2019;" horiz-adv-x="229" 
d="M64 700h120v-135l-80 -135h-45l55 135h-50v135z" />
    <glyph glyph-name="quotesinglbase" unicode="&#x201a;" horiz-adv-x="248" 
d="M64 135h120v-135l-80 -135h-45l55 135h-50v135z" />
    <glyph glyph-name="quotedblleft" unicode="&#x201c;" horiz-adv-x="429" 
d="M176 430h-120v135l80 135h45l-55 -135h50v-135zM366 430h-120v135l80 135h45l-55 -135h50v-135z" />
    <glyph glyph-name="quotedblright" unicode="&#x201d;" horiz-adv-x="419" 
d="M64 700h120v-135l-80 -135h-45l55 135h-50v135zM254 700h120v-135l-80 -135h-45l55 135h-50v135z" />
    <glyph glyph-name="quotedblbase" unicode="&#x201e;" horiz-adv-x="438" 
d="M64 135h120v-135l-80 -135h-45l55 135h-50v135zM254 135h120v-135l-80 -135h-45l55 135h-50v135z" />
    <glyph glyph-name="dagger" unicode="&#x2020;" horiz-adv-x="592" 
d="M248 -180v620h-200v80h200v180h96v-180h200v-80h-200v-620h-96z" />
    <glyph glyph-name="daggerdbl" unicode="&#x2021;" horiz-adv-x="592" 
d="M248 80v360h-200v80h200v180h96v-180h200v-80h-200v-360h200v-80h-200v-180h-96v180h-200v80h200z" />
    <glyph glyph-name="bullet" unicode="&#x2022;" horiz-adv-x="454" 
d="M67 260q0 33 12.5 62t34.5 51t51 34.5t62 12.5t62 -12.5t51 -34.5t34.5 -51t12.5 -62t-12.5 -62t-34.5 -51t-51 -34.5t-62 -12.5t-62 12.5t-51 34.5t-34.5 51t-12.5 62z" />
    <glyph glyph-name="ellipsis" unicode="&#x2026;" horiz-adv-x="718" 
d="M64 135h120v-135h-120v135zM299 135h120v-135h-120v135zM534 135h120v-135h-120v135z" />
    <glyph glyph-name="perthousand" unicode="&#x2030;" horiz-adv-x="1318" 
d="M110 495q0 -68 20.5 -109t69.5 -41t69.5 41t20.5 109t-20.5 109t-69.5 41t-69.5 -41t-20.5 -109zM365 495q0 -58 -13 -99t-35 -66.5t-52.5 -37.5t-64.5 -12q-35 0 -65 12t-52 37.5t-35 66.5t-13 99t13 99t35 66.5t52 37.5t65 12q34 0 64.5 -12t52.5 -37.5t35 -66.5
t13 -99zM611 700h84l-390 -700h-84zM628 205q0 -68 20.5 -109t69.5 -41t69.5 41t20.5 109t-20.5 109t-69.5 41t-69.5 -41t-20.5 -109zM883 205q0 -58 -13 -99t-35 -66.5t-52.5 -37.5t-64.5 -12q-35 0 -65 12t-52 37.5t-35 66.5t-13 99t13 99t35 66.5t52 37.5t65 12
q34 0 64.5 -12t52.5 -37.5t35 -66.5t13 -99zM1028 205q0 -68 20.5 -109t69.5 -41t69.5 41t20.5 109t-20.5 109t-69.5 41t-69.5 -41t-20.5 -109zM1283 205q0 -58 -13 -99t-35 -66.5t-52.5 -37.5t-64.5 -12q-35 0 -65 12t-52 37.5t-35 66.5t-13 99t13 99t35 66.5t52 37.5
t65 12q34 0 64.5 -12t52.5 -37.5t35 -66.5t13 -99z" />
    <glyph glyph-name="guilsinglleft" unicode="&#x2039;" horiz-adv-x="374" 
d="M317 90h-120l-170 170l170 170h120l-175 -170z" />
    <glyph glyph-name="guilsinglright" unicode="&#x203a;" horiz-adv-x="374" 
d="M232 260l-175 170h120l170 -170l-170 -170h-120z" />
    <glyph glyph-name="uni203D" unicode="&#x203d;" horiz-adv-x="498" 
d="M29 545q2 37 18 68.5t44.5 54t67 35t85.5 12.5q52 0 92.5 -15t67.5 -40t41 -59t14 -71q0 -44 -13.5 -73.5t-34.5 -51.5t-44.5 -39.5t-44.5 -37.5t-34.5 -45t-13.5 -63h-90v310h90v-134q9 10 23 22t28 27.5t24 36t10 48.5q0 17 -6 34.5t-19.5 32t-35.5 24t-54 9.5
q-30 0 -51 -7.5t-34.5 -20t-20.5 -27.5t-9 -30h-100zM169 135h120v-135h-120v135z" />
    <glyph glyph-name="fraction" unicode="&#x2044;" horiz-adv-x="140" 
d="M221 700h84l-390 -700h-84z" />
    <glyph glyph-name="uni2070" unicode="&#x2070;" horiz-adv-x="400" 
d="M110 595q0 -68 20.5 -109t69.5 -41t69.5 41t20.5 109t-20.5 109t-69.5 41t-69.5 -41t-20.5 -109zM365 595q0 -58 -13 -99t-35 -66.5t-52.5 -37.5t-64.5 -12q-35 0 -65 12t-52 37.5t-35 66.5t-13 99t13 99t35 66.5t52 37.5t65 12q34 0 64.5 -12t52.5 -37.5t35 -66.5
t13 -99z" />
    <glyph glyph-name="uni2074" unicode="&#x2074;" horiz-adv-x="371" 
d="M207 800h80v-265h60v-65h-60v-80h-75v80h-190v65zM99 535h113v75v29.5t0.5 24t1.5 22.5t2 24h-4q-6 -11 -10.5 -20t-10 -18.5t-12.5 -20t-17 -24.5z" />
    <glyph glyph-name="uni2075" unicode="&#x2075;" horiz-adv-x="358" 
d="M40 575l15 225h250v-65h-180l-5 -87q15 14 35.5 20.5t39.5 6.5q32 0 57 -11.5t42.5 -31t26.5 -46t9 -56.5q0 -32 -11 -59.5t-30.5 -47.5t-48 -31.5t-62.5 -11.5q-36 0 -62 10t-44 26.5t-28.5 37t-13.5 41.5h78q3 -20 19.5 -36t50.5 -16q35 0 56 24t21 63q0 43 -21.5 65
t-53.5 22q-47 0 -66 -42h-74z" />
    <glyph glyph-name="uni2076" unicode="&#x2076;" horiz-adv-x="383" 
d="M257 720q-5 10 -17 20t-38 10q-42 0 -64.5 -33.5t-22.5 -82.5q14 15 38.5 26.5t56.5 11.5q36 0 63 -11.5t45 -31t27.5 -45.5t9.5 -54q0 -32 -11.5 -59.5t-32 -47.5t-49 -31.5t-62.5 -11.5q-45 0 -76.5 16.5t-51 46t-28.5 68.5t-9 84q0 60 14 101t37.5 66.5t53.5 36.5
t62 11q53 0 88.5 -24t46.5 -66h-80zM200 443q19 0 33.5 7t25 19t16 27t5.5 31t-5 31.5t-14.5 27.5t-24.5 19.5t-36 7.5t-36 -7.5t-24.5 -19.5t-14.5 -27.5t-5 -31.5t5.5 -31t16 -27t25 -19t33.5 -7z" />
    <glyph glyph-name="uni2077" unicode="&#x2077;" horiz-adv-x="322" 
d="M123 390h-77l179 345h-203v65h280v-65z" />
    <glyph glyph-name="uni2078" unicode="&#x2078;" horiz-adv-x="378" 
d="M119 690q0 -23 18 -40.5t52 -17.5t52 17.5t18 40.5t-18 40.5t-52 17.5t-52 -17.5t-18 -40.5zM269 507q0 25 -20.5 45.5t-59.5 20.5t-59.5 -20.5t-20.5 -45.5q0 -24 20.5 -44.5t59.5 -20.5t59.5 20.5t20.5 44.5zM279 608q34 -15 49.5 -42.5t15.5 -60.5q0 -57 -43.5 -91
t-111.5 -34t-111.5 34t-43.5 91q0 33 15.5 60.5t49.5 42.5q-30 14 -42.5 37.5t-12.5 46.5q0 49 38.5 83.5t106.5 34.5t106.5 -34.5t38.5 -83.5q0 -23 -12.5 -46.5t-42.5 -37.5z" />
    <glyph glyph-name="uni2079" unicode="&#x2079;" horiz-adv-x="384" 
d="M124 470q5 -11 17 -20.5t38 -9.5q45 0 67.5 33.5t22.5 82.5q-14 -15 -38.5 -26.5t-56.5 -11.5q-36 0 -63 11.5t-45 31t-27.5 45.5t-9.5 54q0 32 11.5 59.5t32 47.5t49 31.5t62.5 11.5q45 0 76.5 -16t51 -44t28.5 -66.5t9 -83.5q0 -60 -14 -102t-38 -68t-54.5 -38
t-63.5 -12q-53 0 -88.5 24t-46.5 66h80zM184 747q-19 0 -33.5 -7t-25 -19t-16 -27t-5.5 -31t5 -31.5t14.5 -27.5t24.5 -19.5t36 -7.5t36 7.5t24.5 19.5t14.5 27.5t5 31.5t-5.5 31t-16 27t-25 19t-33.5 7z" />
    <glyph glyph-name="uni2080" unicode="&#x2080;" horiz-adv-x="400" 
d="M110 106q0 -68 20.5 -109t69.5 -41t69.5 41t20.5 109t-20.5 109t-69.5 41t-69.5 -41t-20.5 -109zM365 106q0 -58 -13 -99t-35 -66.5t-52.5 -37.5t-64.5 -12q-35 0 -65 12t-52 37.5t-35 66.5t-13 99t13 99t35 66.5t52 37.5t65 12q34 0 64.5 -12t52.5 -37.5t35 -66.5
t13 -99z" />
    <glyph glyph-name="uni2081" unicode="&#x2081;" horiz-adv-x="264" 
d="M122 -99v320l-100 -105v95l100 100h75v-410h-75z" />
    <glyph glyph-name="uni2082" unicode="&#x2082;" horiz-adv-x="353" 
d="M32 211q2 21 11.5 40.5t26.5 35t42.5 25t59.5 9.5q64 0 102 -33.5t38 -86.5q0 -42 -20 -71.5t-50 -58.5l-110 -105h190v-65h-290v65l160 155q24 23 34.5 40t10.5 40q0 19 -14 37t-51 18q-30 0 -46 -12.5t-18 -32.5h-76z" />
    <glyph glyph-name="uni2083" unicode="&#x2083;" horiz-adv-x="359" 
d="M101 6q3 -17 18 -33.5t51 -16.5q42 0 61 18t19 44t-16.5 44.5t-58.5 18.5h-35v60h35q34 0 49.5 16.5t15.5 40.5q0 23 -15 40.5t-50 17.5t-48.5 -15.5t-15.5 -29.5h-76q4 45 40 77.5t100 32.5t102 -33.5t38 -86.5q0 -30 -16 -52t-39 -33q30 -11 47.5 -36.5t17.5 -63.5
q0 -57 -41.5 -91t-113.5 -34q-33 0 -59 9.5t-44.5 25.5t-29 36.5t-12.5 43.5h76z" />
    <glyph glyph-name="uni2084" unicode="&#x2084;" horiz-adv-x="371" 
d="M207 311h80v-265h60v-65h-60v-80h-75v80h-190v65zM99 46h113v75v29.5t0.5 24t1.5 22.5t2 24h-4q-6 -11 -10.5 -20t-10 -18.5t-12.5 -20t-17 -24.5z" />
    <glyph glyph-name="uni2085" unicode="&#x2085;" horiz-adv-x="358" 
d="M40 86l15 225h250v-65h-180l-5 -87q15 14 35.5 20.5t39.5 6.5q32 0 57 -11.5t42.5 -31t26.5 -46t9 -56.5q0 -32 -11 -59.5t-30.5 -47.5t-48 -31.5t-62.5 -11.5q-36 0 -62 10t-44 26.5t-28.5 37t-13.5 41.5h78q3 -20 19.5 -36t50.5 -16q35 0 56 24t21 63q0 43 -21.5 65
t-53.5 22q-47 0 -66 -42h-74z" />
    <glyph glyph-name="uni2086" unicode="&#x2086;" horiz-adv-x="383" 
d="M257 231q-5 10 -17 20t-38 10q-42 0 -64.5 -33.5t-22.5 -82.5q14 15 38.5 26.5t56.5 11.5q36 0 63 -11.5t45 -31t27.5 -45.5t9.5 -54q0 -32 -11.5 -59.5t-32 -47.5t-49 -31.5t-62.5 -11.5q-45 0 -76.5 16.5t-51 46t-28.5 68.5t-9 84q0 60 14 101t37.5 66.5t53.5 36.5
t62 11q53 0 88.5 -24t46.5 -66h-80zM200 -46q19 0 33.5 7t25 19t16 27t5.5 31t-5 31.5t-14.5 27.5t-24.5 19.5t-36 7.5t-36 -7.5t-24.5 -19.5t-14.5 -27.5t-5 -31.5t5.5 -31t16 -27t25 -19t33.5 -7z" />
    <glyph glyph-name="uni2087" unicode="&#x2087;" horiz-adv-x="322" 
d="M123 -99h-77l179 345h-203v65h280v-65z" />
    <glyph glyph-name="uni2088" unicode="&#x2088;" horiz-adv-x="378" 
d="M119 201q0 -23 18 -40.5t52 -17.5t52 17.5t18 40.5t-18 40.5t-52 17.5t-52 -17.5t-18 -40.5zM269 18q0 25 -20.5 45.5t-59.5 20.5t-59.5 -20.5t-20.5 -45.5q0 -24 20.5 -44.5t59.5 -20.5t59.5 20.5t20.5 44.5zM279 119q34 -15 49.5 -42.5t15.5 -60.5q0 -57 -43.5 -91
t-111.5 -34t-111.5 34t-43.5 91q0 33 15.5 60.5t49.5 42.5q-30 14 -42.5 37.5t-12.5 46.5q0 49 38.5 83.5t106.5 34.5t106.5 -34.5t38.5 -83.5q0 -23 -12.5 -46.5t-42.5 -37.5z" />
    <glyph glyph-name="uni2089" unicode="&#x2089;" horiz-adv-x="384" 
d="M124 -19q5 -11 17 -20.5t38 -9.5q45 0 67.5 33.5t22.5 82.5q-14 -15 -38.5 -26.5t-56.5 -11.5q-36 0 -63 11.5t-45 31t-27.5 45.5t-9.5 54q0 32 11.5 59.5t32 47.5t49 31.5t62.5 11.5q45 0 76.5 -16t51 -44t28.5 -66.5t9 -83.5q0 -60 -14 -102t-38 -68t-54.5 -38
t-63.5 -12q-53 0 -88.5 24t-46.5 66h80zM184 258q-19 0 -33.5 -7t-25 -19t-16 -27t-5.5 -31t5 -31.5t14.5 -27.5t24.5 -19.5t36 -7.5t36 7.5t24.5 19.5t14.5 27.5t5 31.5t-5.5 31t-16 27t-25 19t-33.5 7z" />
    <glyph glyph-name="Euro" unicode="&#x20ac;" horiz-adv-x="668" 
d="M212 385q-1 -11 -1 -18.5v-16.5v-17t1 -18h223l-31 -80h-182q16 -75 58 -122.5t115 -47.5q57 0 89.5 25.5t39.5 59.5h103q-23 -88 -86 -126.5t-146 -38.5q-60 0 -106.5 18.5t-80 51.5t-54.5 79t-31 101h-88v80h79q-1 10 -1 18v17v16.5t1 18.5h-79v80h87q10 55 31.5 101
t55 79t80 51.5t106.5 18.5q83 0 146 -38.5t86 -126.5h-103q-7 34 -39.5 59.5t-89.5 25.5q-73 0 -115 -47t-58 -123h272l-31 -80h-251z" />
    <glyph glyph-name="uni2113" unicode="&#x2113;" horiz-adv-x="532" 
d="M40 220q40 14 76 31q-6 57 -6 119q0 54 11 115t36.5 112t66.5 84.5t101 33.5q71 0 109 -39.5t38 -110.5q0 -53 -18 -101.5t-51.5 -91.5t-80.5 -81t-105 -69q12 -85 41.5 -123.5t81.5 -38.5q26 0 48.5 4.5t48.5 13.5l-32 -81q-17 -6 -36 -9t-34 -3q-45 0 -79 14.5
t-59 40.5t-41.5 61.5t-26.5 78.5q-20 -9 -43 -17.5t-46 -16.5v74zM395 559q0 14 -2.5 28.5t-10 26t-21 19t-35.5 7.5q-34 0 -57 -26t-36.5 -65.5t-19 -86t-5.5 -87.5q0 -20 0.5 -42t1.5 -33q41 25 75 54.5t58.5 62t38 68t13.5 74.5z" />
    <glyph glyph-name="uni2117" unicode="&#x2117;" horiz-adv-x="816" 
d="M43 350q0 75 29 141.5t78.5 116t116 78.5t141.5 29t141.5 -29t116 -78.5t78.5 -116t29 -141.5t-29 -141.5t-78.5 -116t-116 -78.5t-141.5 -29t-141.5 29t-116 78.5t-78.5 116t-29 141.5zM108 350q0 -62 23.5 -117t64 -95.5t95.5 -64t117 -23.5t117 23.5t95.5 64t64 95.5
t23.5 117t-23.5 117t-64 95.5t-95.5 64t-117 23.5t-117 -23.5t-95.5 -64t-64 -95.5t-23.5 -117zM343 305v-160h-75v410h210q60 0 95 -34t35 -91t-35 -91t-95 -34h-135zM473 370q30 0 45 17t15 43t-15 43t-45 17h-130v-120h130z" />
    <glyph glyph-name="trademark" unicode="&#x2122;" horiz-adv-x="975" 
d="M385 635h-140v-345h-75v345h-140v65h355v-65zM578 470q-13 23 -24 47t-25 58h-4q4 -34 4.5 -60.5t0.5 -49.5v-175h-75v410h80l94 -181q16 -30 27 -52.5t19 -46.5q8 24 19 46.5t27 52.5l94 181h80v-410h-75v175q0 23 0.5 49.5t4.5 60.5h-4q-14 -34 -25 -58t-24 -47
l-97 -180z" />
    <glyph glyph-name="Omega" unicode="&#x2126;" horiz-adv-x="704" 
d="M353 635q-53 0 -91.5 -20t-63.5 -54.5t-37.5 -79.5t-12.5 -96t11.5 -93.5t33.5 -74.5t52 -53.5t68 -28.5v-135h-246v80h166v5q-91 34 -136 115t-45 190q0 73 21.5 133t61 102.5t95 66t123.5 23.5t123.5 -23.5t95 -66t61 -102.5t21.5 -133q0 -109 -45 -190t-136 -115v-5
h166v-80h-246v135q37 7 67.5 28.5t52.5 53.5t33.5 74.5t11.5 93.5t-12.5 96t-37.5 79.5t-64 54.5t-91 20z" />
    <glyph glyph-name="estimated" unicode="&#x212e;" 
d="M405 675q-66 0 -123.5 -24.5t-101.5 -66.5v-214h450v214q-45 43 -102 67t-123 24zM685 116q-51 -60 -123 -95.5t-157 -35.5q-75 0 -141.5 29t-116 78.5t-78.5 116t-29 141.5t29 141.5t78.5 116t116 78.5t141.5 29t141.5 -29t116 -78.5t78.5 -116t29 -141.5v-20h-590v-214
q44 -43 101.5 -67t123.5 -24q75 0 139.5 31t109.5 85z" />
    <glyph glyph-name="uni2150" unicode="&#x2150;" horiz-adv-x="739" 
d="M121 290v320l-100 -105v95l100 100h75v-410h-75zM490 700h84l-390 -700h-84zM543 0h-77l179 345h-203v65h280v-65z" />
    <glyph glyph-name="uni2151" unicode="&#x2151;" horiz-adv-x="792" 
d="M121 290v320l-100 -105v95l100 100h75v-410h-75zM490 700h84l-390 -700h-84zM532 80q5 -11 17 -20.5t38 -9.5q45 0 67.5 33.5t22.5 82.5q-14 -15 -38.5 -26.5t-56.5 -11.5q-36 0 -63 11.5t-45 31t-27.5 45.5t-9.5 54q0 32 11.5 59.5t32 47.5t49 31.5t62.5 11.5
q45 0 76.5 -16t51 -44t28.5 -66.5t9 -83.5q0 -60 -14 -102t-38 -68t-54.5 -38t-63.5 -12q-53 0 -88.5 24t-46.5 66h80zM592 357q-19 0 -33.5 -7t-25 -19t-16 -27t-5.5 -31t5 -31.5t14.5 -27.5t24.5 -19.5t36 -7.5t36 7.5t24.5 19.5t14.5 27.5t5 31.5t-5.5 31t-16 27t-25 19
t-33.5 7z" />
    <glyph glyph-name="uni2152" unicode="&#x2152;" horiz-adv-x="1078" 
d="M121 290v320l-100 -105v95l100 100h75v-410h-75zM490 700h84l-390 -700h-84zM533 0v320l-100 -105v95l100 100h75v-410h-75zM788 205q0 -68 20.5 -109t69.5 -41t69.5 41t20.5 109t-20.5 109t-69.5 41t-69.5 -41t-20.5 -109zM1043 205q0 -58 -13 -99t-35 -66.5
t-52.5 -37.5t-64.5 -12q-35 0 -65 12t-52 37.5t-35 66.5t-13 99t13 99t35 66.5t52 37.5t65 12q34 0 64.5 -12t52.5 -37.5t35 -66.5t13 -99z" />
    <glyph glyph-name="onethird" unicode="&#x2153;" horiz-adv-x="767" 
d="M121 290v320l-100 -105v95l100 100h75v-410h-75zM490 700h84l-390 -700h-84zM509 105q3 -17 18 -33.5t51 -16.5q42 0 61 18t19 44t-16.5 44.5t-58.5 18.5h-35v60h35q34 0 49.5 16.5t15.5 40.5q0 23 -15 40.5t-50 17.5t-48.5 -15.5t-15.5 -29.5h-76q4 45 40 77.5t100 32.5
t102 -33.5t38 -86.5q0 -30 -16 -52t-39 -33q30 -11 47.5 -36.5t17.5 -63.5q0 -57 -41.5 -91t-113.5 -34q-33 0 -59 9.5t-44.5 25.5t-29 36.5t-12.5 43.5h76z" />
    <glyph glyph-name="twothirds" unicode="&#x2154;" horiz-adv-x="851" 
d="M33 600q2 21 11.5 40.5t26.5 35t42.5 25t59.5 9.5q64 0 102 -33.5t38 -86.5q0 -42 -20 -71.5t-50 -58.5l-110 -105h190v-65h-290v65l160 155q24 23 34.5 40t10.5 40q0 19 -14 37t-51 18q-30 0 -46 -12.5t-18 -32.5h-76zM574 700h84l-390 -700h-84zM593 105
q3 -17 18 -33.5t51 -16.5q42 0 61 18t19 44t-16.5 44.5t-58.5 18.5h-35v60h35q34 0 49.5 16.5t15.5 40.5q0 23 -15 40.5t-50 17.5t-48.5 -15.5t-15.5 -29.5h-76q4 45 40 77.5t100 32.5t102 -33.5t38 -86.5q0 -30 -16 -52t-39 -33q30 -11 47.5 -36.5t17.5 -63.5
q0 -57 -41.5 -91t-113.5 -34q-33 0 -59 9.5t-44.5 25.5t-29 36.5t-12.5 43.5h76z" />
    <glyph glyph-name="uni2155" unicode="&#x2155;" horiz-adv-x="767" 
d="M121 290v320l-100 -105v95l100 100h75v-410h-75zM490 700h84l-390 -700h-84zM449 185l15 225h250v-65h-180l-5 -87q15 14 35.5 20.5t39.5 6.5q32 0 57 -11.5t42.5 -31t26.5 -46t9 -56.5q0 -32 -11 -59.5t-30.5 -47.5t-48 -31.5t-62.5 -11.5q-36 0 -62 10t-44 26.5
t-28.5 37t-13.5 41.5h78q3 -20 19.5 -36t50.5 -16q35 0 56 24t21 63q0 43 -21.5 65t-53.5 22q-47 0 -66 -42h-74z" />
    <glyph glyph-name="uni2156" unicode="&#x2156;" horiz-adv-x="851" 
d="M33 600q2 21 11.5 40.5t26.5 35t42.5 25t59.5 9.5q64 0 102 -33.5t38 -86.5q0 -42 -20 -71.5t-50 -58.5l-110 -105h190v-65h-290v65l160 155q24 23 34.5 40t10.5 40q0 19 -14 37t-51 18q-30 0 -46 -12.5t-18 -32.5h-76zM574 700h84l-390 -700h-84zM533 185l15 225h250
v-65h-180l-5 -87q15 14 35.5 20.5t39.5 6.5q32 0 57 -11.5t42.5 -31t26.5 -46t9 -56.5q0 -32 -11 -59.5t-30.5 -47.5t-48 -31.5t-62.5 -11.5q-36 0 -62 10t-44 26.5t-28.5 37t-13.5 41.5h78q3 -20 19.5 -36t50.5 -16q35 0 56 24t21 63q0 43 -21.5 65t-53.5 22q-47 0 -66 -42
h-74z" />
    <glyph glyph-name="uni2157" unicode="&#x2157;" horiz-adv-x="856" 
d="M100 395q3 -17 18 -33.5t51 -16.5q42 0 61 18t19 44t-16.5 44.5t-58.5 18.5h-35v60h35q34 0 49.5 16.5t15.5 40.5q0 23 -15 40.5t-50 17.5t-48.5 -15.5t-15.5 -29.5h-76q4 45 40 77.5t100 32.5t102 -33.5t38 -86.5q0 -30 -16 -52t-39 -33q30 -11 47.5 -36.5t17.5 -63.5
q0 -57 -41.5 -91t-113.5 -34q-33 0 -59 9.5t-44.5 25.5t-29 36.5t-12.5 43.5h76zM579 700h84l-390 -700h-84zM538 185l15 225h250v-65h-180l-5 -87q15 14 35.5 20.5t39.5 6.5q32 0 57 -11.5t42.5 -31t26.5 -46t9 -56.5q0 -32 -11 -59.5t-30.5 -47.5t-48 -31.5t-62.5 -11.5
q-36 0 -62 10t-44 26.5t-28.5 37t-13.5 41.5h78q3 -20 19.5 -36t50.5 -16q35 0 56 24t21 63q0 43 -21.5 65t-53.5 22q-47 0 -66 -42h-74z" />
    <glyph glyph-name="uni2158" unicode="&#x2158;" horiz-adv-x="867" 
d="M206 700h80v-265h60v-65h-60v-80h-75v80h-190v65zM98 435h113v75v29.5t0.5 24t1.5 22.5t2 24h-4q-6 -11 -10.5 -20t-10 -18.5t-12.5 -20t-17 -24.5zM590 700h84l-390 -700h-84zM549 185l15 225h250v-65h-180l-5 -87q15 14 35.5 20.5t39.5 6.5q32 0 57 -11.5t42.5 -31
t26.5 -46t9 -56.5q0 -32 -11 -59.5t-30.5 -47.5t-48 -31.5t-62.5 -11.5q-36 0 -62 10t-44 26.5t-28.5 37t-13.5 41.5h78q3 -20 19.5 -36t50.5 -16q35 0 56 24t21 63q0 43 -21.5 65t-53.5 22q-47 0 -66 -42h-74z" />
    <glyph glyph-name="uni2159" unicode="&#x2159;" horiz-adv-x="780" 
d="M121 290v320l-100 -105v95l100 100h75v-410h-75zM490 700h84l-390 -700h-84zM654 330q-5 10 -17 20t-38 10q-42 0 -64.5 -33.5t-22.5 -82.5q14 15 38.5 26.5t56.5 11.5q36 0 63 -11.5t45 -31t27.5 -45.5t9.5 -54q0 -32 -11.5 -59.5t-32 -47.5t-49 -31.5t-62.5 -11.5
q-45 0 -76.5 16.5t-51 46t-28.5 68.5t-9 84q0 60 14 101t37.5 66.5t53.5 36.5t62 11q53 0 88.5 -24t46.5 -66h-80zM597 53q19 0 33.5 7t25 19t16 27t5.5 31t-5 31.5t-14.5 27.5t-24.5 19.5t-36 7.5t-36 -7.5t-24.5 -19.5t-14.5 -27.5t-5 -31.5t5.5 -31t16 -27t25 -19
t33.5 -7z" />
    <glyph glyph-name="uni215A" unicode="&#x215a;" horiz-adv-x="869" 
d="M40 475l15 225h250v-65h-180l-5 -87q15 14 35.5 20.5t39.5 6.5q32 0 57 -11.5t42.5 -31t26.5 -46t9 -56.5q0 -32 -11 -59.5t-30.5 -47.5t-48 -31.5t-62.5 -11.5q-36 0 -62 10t-44 26.5t-28.5 37t-13.5 41.5h78q3 -20 19.5 -36t50.5 -16q35 0 56 24t21 63q0 43 -21.5 65
t-53.5 22q-47 0 -66 -42h-74zM579 700h84l-390 -700h-84zM743 330q-5 10 -17 20t-38 10q-42 0 -64.5 -33.5t-22.5 -82.5q14 15 38.5 26.5t56.5 11.5q36 0 63 -11.5t45 -31t27.5 -45.5t9.5 -54q0 -32 -11.5 -59.5t-32 -47.5t-49 -31.5t-62.5 -11.5q-45 0 -76.5 16.5t-51 46
t-28.5 68.5t-9 84q0 60 14 101t37.5 66.5t53.5 36.5t62 11q53 0 88.5 -24t46.5 -66h-80zM686 53q19 0 33.5 7t25 19t16 27t5.5 31t-5 31.5t-14.5 27.5t-24.5 19.5t-36 7.5t-36 -7.5t-24.5 -19.5t-14.5 -27.5t-5 -31.5t5.5 -31t16 -27t25 -19t33.5 -7z" />
    <glyph glyph-name="oneeighth" unicode="&#x215b;" horiz-adv-x="787" 
d="M121 290v320l-100 -105v95l100 100h75v-410h-75zM490 700h84l-390 -700h-84zM528 300q0 -23 18 -40.5t52 -17.5t52 17.5t18 40.5t-18 40.5t-52 17.5t-52 -17.5t-18 -40.5zM678 117q0 25 -20.5 45.5t-59.5 20.5t-59.5 -20.5t-20.5 -45.5q0 -24 20.5 -44.5t59.5 -20.5
t59.5 20.5t20.5 44.5zM688 218q34 -15 49.5 -42.5t15.5 -60.5q0 -57 -43.5 -91t-111.5 -34t-111.5 34t-43.5 91q0 33 15.5 60.5t49.5 42.5q-30 14 -42.5 37.5t-12.5 46.5q0 49 38.5 83.5t106.5 34.5t106.5 -34.5t38.5 -83.5q0 -23 -12.5 -46.5t-42.5 -37.5z" />
    <glyph glyph-name="threeeighths" unicode="&#x215c;" horiz-adv-x="876" 
d="M100 395q3 -17 18 -33.5t51 -16.5q42 0 61 18t19 44t-16.5 44.5t-58.5 18.5h-35v60h35q34 0 49.5 16.5t15.5 40.5q0 23 -15 40.5t-50 17.5t-48.5 -15.5t-15.5 -29.5h-76q4 45 40 77.5t100 32.5t102 -33.5t38 -86.5q0 -30 -16 -52t-39 -33q30 -11 47.5 -36.5t17.5 -63.5
q0 -57 -41.5 -91t-113.5 -34q-33 0 -59 9.5t-44.5 25.5t-29 36.5t-12.5 43.5h76zM579 700h84l-390 -700h-84zM617 300q0 -23 18 -40.5t52 -17.5t52 17.5t18 40.5t-18 40.5t-52 17.5t-52 -17.5t-18 -40.5zM767 117q0 25 -20.5 45.5t-59.5 20.5t-59.5 -20.5t-20.5 -45.5
q0 -24 20.5 -44.5t59.5 -20.5t59.5 20.5t20.5 44.5zM777 218q34 -15 49.5 -42.5t15.5 -60.5q0 -57 -43.5 -91t-111.5 -34t-111.5 34t-43.5 91q0 33 15.5 60.5t49.5 42.5q-30 14 -42.5 37.5t-12.5 46.5q0 49 38.5 83.5t106.5 34.5t106.5 -34.5t38.5 -83.5q0 -23 -12.5 -46.5
t-42.5 -37.5z" />
    <glyph glyph-name="fiveeighths" unicode="&#x215d;" horiz-adv-x="876" 
d="M40 475l15 225h250v-65h-180l-5 -87q15 14 35.5 20.5t39.5 6.5q32 0 57 -11.5t42.5 -31t26.5 -46t9 -56.5q0 -32 -11 -59.5t-30.5 -47.5t-48 -31.5t-62.5 -11.5q-36 0 -62 10t-44 26.5t-28.5 37t-13.5 41.5h78q3 -20 19.5 -36t50.5 -16q35 0 56 24t21 63q0 43 -21.5 65
t-53.5 22q-47 0 -66 -42h-74zM579 700h84l-390 -700h-84zM617 300q0 -23 18 -40.5t52 -17.5t52 17.5t18 40.5t-18 40.5t-52 17.5t-52 -17.5t-18 -40.5zM767 117q0 25 -20.5 45.5t-59.5 20.5t-59.5 -20.5t-20.5 -45.5q0 -24 20.5 -44.5t59.5 -20.5t59.5 20.5t20.5 44.5z
M777 218q34 -15 49.5 -42.5t15.5 -60.5q0 -57 -43.5 -91t-111.5 -34t-111.5 34t-43.5 91q0 33 15.5 60.5t49.5 42.5q-30 14 -42.5 37.5t-12.5 46.5q0 49 38.5 83.5t106.5 34.5t106.5 -34.5t38.5 -83.5q0 -23 -12.5 -46.5t-42.5 -37.5z" />
    <glyph glyph-name="seveneighths" unicode="&#x215e;" horiz-adv-x="780" 
d="M122 290h-77l179 345h-203v65h280v-65zM483 700h84l-390 -700h-84zM521 300q0 -23 18 -40.5t52 -17.5t52 17.5t18 40.5t-18 40.5t-52 17.5t-52 -17.5t-18 -40.5zM671 117q0 25 -20.5 45.5t-59.5 20.5t-59.5 -20.5t-20.5 -45.5q0 -24 20.5 -44.5t59.5 -20.5t59.5 20.5
t20.5 44.5zM681 218q34 -15 49.5 -42.5t15.5 -60.5q0 -57 -43.5 -91t-111.5 -34t-111.5 34t-43.5 91q0 33 15.5 60.5t49.5 42.5q-30 14 -42.5 37.5t-12.5 46.5q0 49 38.5 83.5t106.5 34.5t106.5 -34.5t38.5 -83.5q0 -23 -12.5 -46.5t-42.5 -37.5z" />
    <glyph glyph-name="uni215F" unicode="&#x215f;" horiz-adv-x="409" 
d="M121 290v320l-100 -105v95l100 100h75v-410h-75zM490 700h84l-390 -700h-84z" />
    <glyph glyph-name="uni2160" unicode="&#x2160;" horiz-adv-x="280" 
d="M90 0v700h100v-700h-100z" />
    <glyph glyph-name="uni2161" unicode="&#x2161;" horiz-adv-x="525" 
d="M90 0v700h100v-700h-100zM335 0v700h100v-700h-100z" />
    <glyph glyph-name="uni2162" unicode="&#x2162;" horiz-adv-x="770" 
d="M90 0v700h100v-700h-100zM335 0v700h100v-700h-100zM580 0v700h100v-700h-100z" />
    <glyph glyph-name="uni2163" unicode="&#x2163;" horiz-adv-x="898" 
d="M90 0v700h100v-700h-100zM512 309q20 -56 35.5 -103t28.5 -96h3q13 49 28.5 96t35.5 103l142 391h105l-265 -700h-95l-265 700h105z" />
    <glyph glyph-name="uni2164" unicode="&#x2164;" horiz-adv-x="645" 
d="M257 309q20 -56 35.5 -103t28.5 -96h3q13 49 28.5 96t35.5 103l142 391h105l-265 -700h-95l-265 700h105z" />
    <glyph glyph-name="uni2165" unicode="&#x2165;" horiz-adv-x="898" 
d="M256 309q20 -56 35.5 -103t28.5 -96h3q13 49 28.5 96t35.5 103l142 391h105l-265 -700h-95l-265 700h105zM708 0v700h100v-700h-100z" />
    <glyph glyph-name="uni2166" unicode="&#x2166;" horiz-adv-x="1142" 
d="M255 309q20 -56 35.5 -103t28.5 -96h3q13 49 28.5 96t35.5 103l142 391h105l-265 -700h-95l-265 700h105zM707 0v700h100v-700h-100zM952 0v700h100v-700h-100z" />
    <glyph glyph-name="uni2167" unicode="&#x2167;" horiz-adv-x="1386" 
d="M254 309q20 -56 35.5 -103t28.5 -96h3q13 49 28.5 96t35.5 103l142 391h105l-265 -700h-95l-265 700h105zM706 0v700h100v-700h-100zM951 0v700h100v-700h-100zM1196 0v700h100v-700h-100z" />
    <glyph glyph-name="uni2168" unicode="&#x2168;" horiz-adv-x="896" 
d="M90 0v700h100v-700h-100zM581 449l175 251h114l-234 -330l259 -370h-118l-198 287l-200 -287h-114l259 367l-234 333h118z" />
    <glyph glyph-name="uni2169" unicode="&#x2169;" horiz-adv-x="632" 
d="M317 449l175 251h114l-234 -330l259 -370h-118l-198 287l-200 -287h-114l259 367l-234 333h118z" />
    <glyph glyph-name="uni216A" unicode="&#x216a;" horiz-adv-x="896" 
d="M317 449l175 251h114l-234 -330l259 -370h-118l-198 287l-200 -287h-114l259 367l-234 333h118zM706 0v700h100v-700h-100z" />
    <glyph glyph-name="uni216B" unicode="&#x216b;" horiz-adv-x="1141" 
d="M317 449l175 251h114l-234 -330l259 -370h-118l-198 287l-200 -287h-114l259 367l-234 333h118zM706 0v700h100v-700h-100zM951 0v700h100v-700h-100z" />
    <glyph glyph-name="uni216C" unicode="&#x216c;" horiz-adv-x="575" 
d="M90 700h100v-615h370v-85h-470v700z" />
    <glyph glyph-name="uni216D" unicode="&#x216d;" horiz-adv-x="715" 
d="M685 185q-15 -44 -41.5 -81t-63 -63.5t-84.5 -41t-106 -14.5q-79 0 -142.5 27.5t-108.5 76t-69.5 115.5t-24.5 146t24.5 145.5t69.5 115.5t108.5 76.5t142.5 27.5q112 0 184 -50.5t106 -134.5h-109q-24 46 -68 73t-113 27q-62 0 -108 -23.5t-76.5 -62.5t-45.5 -89.5
t-15 -104.5t15 -104.5t45.5 -89.5t76.5 -62.5t108 -23.5q77 0 122 32.5t65 82.5h108z" />
    <glyph glyph-name="uni216E" unicode="&#x216e;" horiz-adv-x="722" 
d="M675 350q0 -83 -23 -148t-66.5 -110t-106.5 -68.5t-144 -23.5h-245v700h245q81 0 144 -24t106.5 -69t66.5 -110t23 -147zM190 85h135q124 0 187 70.5t63 194.5t-63 194.5t-187 70.5h-135v-530z" />
    <glyph glyph-name="uni216F" unicode="&#x216f;" horiz-adv-x="890" 
d="M445 195q11 26 21.5 49t21 45t21.5 45.5t25 50.5l156 315h110v-700h-100v335q0 28 0.5 52.5t1 47.5t2 47.5t4.5 52.5h-4q-11 -26 -20.5 -49.5t-19.5 -46t-21 -45.5t-24 -49l-174 -345l-174 345q-13 26 -24 49t-21 45.5t-19.5 46t-20.5 49.5h-4q3 -28 4.5 -52.5t2 -47.5
t1 -47.5t0.5 -52.5v-335h-100v700h110l156 -315q13 -27 24.5 -50.5t22 -45.5t21 -45t21.5 -49z" />
    <glyph glyph-name="uni2170" unicode="&#x2170;" horiz-adv-x="242" 
d="M73 520h96v-520h-96v520zM73 700h96v-100h-96v100z" />
    <glyph glyph-name="uni2171" unicode="&#x2171;" horiz-adv-x="453" 
d="M73 520h96v-520h-96v520zM73 700h96v-100h-96v100zM284 520h96v-520h-96v520zM284 700h96v-100h-96v100z" />
    <glyph glyph-name="uni2172" unicode="&#x2172;" horiz-adv-x="664" 
d="M73 520h96v-520h-96v520zM73 700h96v-100h-96v100zM284 520h96v-520h-96v520zM284 700h96v-100h-96v100zM495 520h96v-520h-96v520zM495 700h96v-100h-96v100z" />
    <glyph glyph-name="uni2173" unicode="&#x2173;" horiz-adv-x="746" 
d="M73 520h96v-520h-96v520zM73 700h96v-100h-96v100zM234 520h100l89 -237q17 -44 32 -92.5t27 -90.5h4q12 42 27 90.5t32 92.5l89 237h100l-205 -520h-90z" />
    <glyph glyph-name="uni2174" unicode="&#x2174;" horiz-adv-x="526" 
d="M13 520h100l89 -237q17 -44 32 -92.5t27 -90.5h4q12 42 27 90.5t32 92.5l89 237h100l-205 -520h-90z" />
    <glyph glyph-name="uni2175" unicode="&#x2175;" horiz-adv-x="746" 
d="M13 520h100l89 -237q17 -44 32 -92.5t27 -90.5h4q12 42 27 90.5t32 92.5l89 237h100l-205 -520h-90zM577 520h96v-520h-96v520zM577 700h96v-100h-96v100z" />
    <glyph glyph-name="uni2176" unicode="&#x2176;" horiz-adv-x="956" 
d="M12 520h100l89 -237q17 -44 32 -92.5t27 -90.5h4q12 42 27 90.5t32 92.5l89 237h100l-205 -520h-90zM576 520h96v-520h-96v520zM576 700h96v-100h-96v100zM787 520h96v-520h-96v520zM787 700h96v-100h-96v100z" />
    <glyph glyph-name="uni2177" unicode="&#x2177;" horiz-adv-x="1166" 
d="M11 520h100l89 -237q17 -44 32 -92.5t27 -90.5h4q12 42 27 90.5t32 92.5l89 237h100l-205 -520h-90zM575 520h96v-520h-96v520zM575 700h96v-100h-96v100zM786 520h96v-520h-96v520zM786 700h96v-100h-96v100zM997 520h96v-520h-96v520zM997 700h96v-100h-96v100z" />
    <glyph glyph-name="uni2178" unicode="&#x2178;" horiz-adv-x="736" 
d="M73 520h96v-520h-96v520zM73 700h96v-100h-96v100zM480 345l122 175h112l-182 -248l197 -272h-116l-135 196l-137 -196h-112l197 269l-182 251h116z" />
    <glyph glyph-name="uni2179" unicode="&#x2179;" horiz-adv-x="514" 
d="M258 345l122 175h112l-182 -248l197 -272h-116l-135 196l-137 -196h-112l197 269l-182 251h116z" />
    <glyph glyph-name="uni217A" unicode="&#x217a;" horiz-adv-x="736" 
d="M258 345l122 175h112l-182 -248l197 -272h-116l-135 196l-137 -196h-112l197 269l-182 251h116zM567 520h96v-520h-96v520zM567 700h96v-100h-96v100z" />
    <glyph glyph-name="uni217B" unicode="&#x217b;" horiz-adv-x="947" 
d="M258 345l122 175h112l-182 -248l197 -272h-116l-135 196l-137 -196h-112l197 269l-182 251h116zM567 520h96v-520h-96v520zM567 700h96v-100h-96v100zM778 520h96v-520h-96v520zM778 700h96v-100h-96v100z" />
    <glyph glyph-name="uni217C" unicode="&#x217c;" horiz-adv-x="242" 
d="M73 700h96v-700h-96v700z" />
    <glyph glyph-name="uni217D" unicode="&#x217d;" horiz-adv-x="559" 
d="M531 145q-22 -72 -79.5 -116t-150.5 -44q-62 0 -110.5 21t-81.5 58t-50.5 87.5t-17.5 108.5t17.5 108.5t50.5 87.5t81.5 58t110.5 21q88 0 143.5 -41t81.5 -109h-104q-14 30 -43.5 50t-77.5 20q-43 0 -74 -15.5t-51 -42.5t-29.5 -62.5t-9.5 -74.5t9.5 -74.5t29.5 -62.5
t51 -42.5t74 -15.5q52 0 83 22t46 58h101z" />
    <glyph glyph-name="uni217E" unicode="&#x217e;" horiz-adv-x="621" 
d="M457 260q0 39 -10 74.5t-30.5 62.5t-50.5 42.5t-69 15.5t-69 -15t-50.5 -41.5t-30.5 -62t-10 -76.5t10 -77t30.5 -62t50.5 -41t69 -15t69 15.5t50.5 42.5t30.5 62.5t10 74.5zM452 70q-23 -38 -66.5 -61.5t-103.5 -23.5q-59 0 -103.5 22t-75.5 59.5t-46.5 87.5t-15.5 106
t15.5 106t46.5 87.5t75.5 59.5t103.5 22q60 0 103.5 -23.5t66.5 -61.5v250h96v-700h-96v70z" />
    <glyph glyph-name="uni217F" unicode="&#x217f;" horiz-adv-x="917" 
d="M169 460q23 42 64 58.5t86 16.5q53 0 97.5 -22.5t67.5 -67.5q23 42 65 66t110 24q41 0 76 -12t60.5 -36.5t39.5 -61t14 -85.5v-340h-96v325q0 64 -27 97t-87 33q-24 0 -47.5 -8t-42 -25t-29.5 -45t-11 -67v-310h-96v325q0 64 -27 97t-87 33q-24 0 -47.5 -8t-42 -25
t-29.5 -45t-11 -67v-310h-96v520h96v-60z" />
    <glyph glyph-name="arrowleft" unicode="&#x2190;" horiz-adv-x="815" 
d="M190 305h565v-90h-565l225 -215h-115l-260 260l260 260h115z" />
    <glyph glyph-name="arrowup" unicode="&#x2191;" horiz-adv-x="640" 
d="M365 565v-565h-90v565l-215 -225v115l260 260l260 -260v-115z" />
    <glyph glyph-name="arrowright" unicode="&#x2192;" horiz-adv-x="815" 
d="M400 520h115l260 -260l-260 -260h-115l225 215h-565v90h565z" />
    <glyph glyph-name="arrowdown" unicode="&#x2193;" horiz-adv-x="640" 
d="M580 360v-115l-260 -260l-260 260v115l215 -225v565h90v-565z" />
    <glyph glyph-name="uni2196" unicode="&#x2196;" horiz-adv-x="657" 
d="M161 251l-81 81v368h368l81 -81l-312 7l400 -400l-63 -63l-400 400z" />
    <glyph glyph-name="uni2197" unicode="&#x2197;" horiz-adv-x="657" 
d="M503 563l-400 -400l-63 63l400 400l-312 -7l81 81h368v-368l-81 -81z" />
    <glyph glyph-name="uni2198" unicode="&#x2198;" horiz-adv-x="657" 
d="M496 449l81 -81v-368h-368l-81 81l312 -7l-400 400l63 63l400 -400z" />
    <glyph glyph-name="uni2199" unicode="&#x2199;" horiz-adv-x="657" 
d="M154 137l400 400l63 -63l-400 -400l312 7l-81 -81h-368v368l81 81z" />
    <glyph glyph-name="uni21A5" unicode="&#x21a5;" horiz-adv-x="630" 
d="M55 80h520v-80h-520v80zM165 280v90l150 150l150 -150v-90l-108 115v-275h-84v275z" />
    <glyph glyph-name="uni21A9" unicode="&#x21a9;" horiz-adv-x="1150" 
d="M1015 457q0 33 -11.5 61t-32 48.5t-48.5 32t-61 11.5h-162v90h162q52 0 97 -18.5t78.5 -51t53 -77t19.5 -96.5q0 -51 -19.5 -95.5t-53 -77t-78.5 -51t-97 -18.5h-672l225 -215h-115l-260 260l260 260h115l-225 -215h672q33 0 61 11.5t48.5 32t32 48t11.5 60.5z" />
    <glyph glyph-name="uni21AA" unicode="&#x21aa;" horiz-adv-x="1150" 
d="M135 457q0 -33 11.5 -60.5t32 -48t48.5 -32t61 -11.5h672l-225 215h115l260 -260l-260 -260h-115l225 215h-672q-52 0 -97 18.5t-78.5 51t-53 77t-19.5 95.5q0 52 19.5 96.5t53 77t78.5 51t97 18.5h162v-90h-162q-33 0 -61 -11.5t-48.5 -32t-32 -48.5t-11.5 -61z" />
    <glyph glyph-name="partialdiff" unicode="&#x2202;" horiz-adv-x="588" 
d="M247 65q41 0 74.5 16.5t57 46t36 68.5t12.5 84q0 24 -6 47t-19 40t-34 27.5t-51 10.5q-41 0 -74.5 -16.5t-57 -46t-36 -68.5t-12.5 -84q0 -24 6 -47t19 -40t34 -27.5t51 -10.5zM297 640q-55 0 -120 -28l12 80q32 11 62.5 17t60.5 6q63 0 106.5 -20t71.5 -57t40.5 -89.5
t12.5 -118.5q0 -47 -4.5 -98t-17 -100.5t-33.5 -94.5t-54 -78.5t-79 -53.5t-108 -20q-49 0 -87.5 15t-64.5 42.5t-40 65t-14 82.5q0 56 18 109t52.5 94.5t84 66.5t111.5 25q28 0 51 -6t40 -16t29 -21.5t18 -21.5q1 9 1.5 20.5t0.5 19.5q0 39 -6.5 72t-23 57t-45.5 37.5
t-75 13.5z" />
    <glyph glyph-name="Delta" unicode="&#x2206;" horiz-adv-x="582" 
d="M30 80l215 620h92l215 -620v-80h-522v80zM131 80h320l-160 485z" />
    <glyph glyph-name="product" unicode="&#x220f;" horiz-adv-x="640" 
d="M454 620h-268v-620h-96v700h460v-700h-96v620z" />
    <glyph glyph-name="summation" unicode="&#x2211;" horiz-adv-x="572" 
d="M540 -180h-505v80l260 360l-260 360v80h495v-80h-378l230 -320v-80l-230 -320h388v-80z" />
    <glyph glyph-name="minus" unicode="&#x2212;" horiz-adv-x="612" 
d="M66 390h480v-80h-480v80z" />
    <glyph glyph-name="uni2219" unicode="&#x2219;" horiz-adv-x="332" 
d="M106 330h120v-135h-120v135z" />
    <glyph glyph-name="radical" unicode="&#x221a;" horiz-adv-x="557" 
d="M381 700h176v-80h-105l-175 -620h-110l-150 520h100l58 -210q14 -49 26 -97t21 -93h1q9 45 21 91.5t26 96.5z" />
    <glyph glyph-name="infinity" unicode="&#x221e;" horiz-adv-x="756" 
d="M333 245q-26 -26 -57 -43t-73 -17q-32 0 -60 11.5t-49 32t-33.5 49t-12.5 62.5t12.5 62.5t33.5 49t49 32t60 11.5q42 0 73 -17t57 -43l45 -45l45 45q26 26 57 43t73 17q32 0 60 -11.5t49 -32t33.5 -49t12.5 -62.5t-12.5 -62.5t-33.5 -49t-49 -32t-60 -11.5q-42 0 -73 17
t-57 43l-45 45zM548 260q38 0 59 23t21 57t-21 57t-59 23q-26 0 -43 -10t-32 -25l-45 -45l45 -45q15 -15 32 -25t43 -10zM208 420q-38 0 -59 -23t-21 -57t21 -57t59 -23q26 0 43 10t32 25l45 45l-45 45q-15 15 -32 25t-43 10z" />
    <glyph glyph-name="integral" unicode="&#x222b;" horiz-adv-x="412" 
d="M195 -60q-11 -64 -44 -92t-97 -28h-60v80h55q26 0 36 10.5t13 29.5l110 640q11 64 44 92t97 28h70v-80h-65q-26 0 -35.5 -10.5t-13.5 -29.5z" />
    <glyph glyph-name="approxequal" unicode="&#x2248;" horiz-adv-x="619" 
d="M68 390q0 64 36 104.5t104 40.5q37 0 68 -13.5t57 -29t49 -29t46 -13.5q55 0 55 70h75q0 -64 -36 -104.5t-104 -40.5q-38 0 -68.5 13.5t-56.5 29t-49.5 29t-45.5 13.5q-55 0 -55 -70h-75zM68 180q0 64 36 104.5t104 40.5q37 0 68 -13.5t57 -29t49 -29t46 -13.5
q55 0 55 70h75q0 -64 -36 -104.5t-104 -40.5q-38 0 -68.5 13.5t-56.5 29t-49.5 29t-45.5 13.5q-55 0 -55 -70h-75z" />
    <glyph glyph-name="notequal" unicode="&#x2260;" horiz-adv-x="572" 
d="M66 495h250l60 115h90l-60 -115h100v-80h-141l-68 -130h209v-80h-250l-60 -115h-90l60 115h-100v80h141l68 130h-209v80z" />
    <glyph glyph-name="lessequal" unicode="&#x2264;" horiz-adv-x="587" 
d="M508 600v-82l-335 -98l335 -98v-82l-440 137v86zM68 170h440v-80h-440v80z" />
    <glyph glyph-name="greaterequal" unicode="&#x2265;" horiz-adv-x="587" 
d="M519 463v-86l-440 -137v82l335 98l-335 98v82zM519 90h-440v80h440v-80z" />
    <glyph glyph-name="uni2295" unicode="&#x2295;" horiz-adv-x="630" 
d="M335 280h214q-3 43 -21 80.5t-46.5 66t-66 46.5t-80.5 21v-214zM295 494q-43 -3 -80.5 -21t-66 -46.5t-46.5 -66t-21 -80.5h214v214zM40 260q0 57 21.5 107t59 87.5t87.5 59t107 21.5t107 -21.5t87.5 -59t59 -87.5t21.5 -107t-21.5 -107t-59 -87.5t-87.5 -59t-107 -21.5
t-107 21.5t-87.5 59t-59 87.5t-21.5 107zM335 26q43 3 80.5 21t66 46.5t46.5 66t21 80.5h-214v-214zM295 240h-214q3 -43 21 -80.5t46.5 -66t66 -46.5t80.5 -21v214z" />
    <glyph glyph-name="uni2296" unicode="&#x2296;" horiz-adv-x="630" 
d="M40 260q0 57 21.5 107t59 87.5t87.5 59t107 21.5t107 -21.5t87.5 -59t59 -87.5t21.5 -107t-21.5 -107t-59 -87.5t-87.5 -59t-107 -21.5t-107 21.5t-87.5 59t-59 87.5t-21.5 107zM315 495q-46 0 -87 -16.5t-72.5 -45.5t-51 -68.5t-23.5 -84.5h468q-4 45 -23.5 84.5
t-51 68.5t-72.5 45.5t-87 16.5zM315 25q46 0 87 16.5t72.5 45.5t51 68.5t23.5 84.5h-468q4 -45 23.5 -84.5t51 -68.5t72.5 -45.5t87 -16.5z" />
    <glyph glyph-name="uni2297" unicode="&#x2297;" horiz-adv-x="630" 
d="M315 495q-43 0 -81.5 -14.5t-70.5 -40.5l152 -152l152 152q-32 26 -70.5 40.5t-81.5 14.5zM495 108q26 31 40.5 69.5t14.5 82.5t-14.5 82.5t-40.5 69.5l-152 -152zM80 260q0 -44 14.5 -82.5t40.5 -69.5l152 152l-152 152q-26 -31 -40.5 -69.5t-14.5 -82.5zM40 260
q0 57 21.5 107t59 87.5t87.5 59t107 21.5t107 -21.5t87.5 -59t59 -87.5t21.5 -107t-21.5 -107t-59 -87.5t-87.5 -59t-107 -21.5t-107 21.5t-87.5 59t-59 87.5t-21.5 107zM315 25q43 0 81.5 14.5t70.5 40.5l-152 152l-152 -152q32 -26 70.5 -40.5t81.5 -14.5z" />
    <glyph glyph-name="uni2298" unicode="&#x2298;" horiz-adv-x="630" 
d="M590 260q0 -57 -21.5 -107t-59 -87.5t-87.5 -59t-107 -21.5t-107 21.5t-87.5 59t-59 87.5t-21.5 107t21.5 107t59 87.5t87.5 59t107 21.5t107 -21.5t87.5 -59t59 -87.5t21.5 -107zM315 495q-49 0 -91.5 -18.5t-74.5 -50.5t-50.5 -74.5t-18.5 -91.5q0 -44 14.5 -82.5
t40.5 -69.5l332 332q-32 26 -70.5 40.5t-81.5 14.5zM550 260q0 44 -14.5 82.5t-40.5 69.5l-332 -332q31 -26 69.5 -40.5t82.5 -14.5q49 0 91.5 18.5t74.5 50.5t50.5 74.5t18.5 91.5z" />
    <glyph glyph-name="uni22A0" unicode="&#x22a0;" horiz-adv-x="630" 
d="M575 520v-520h-520v520h520zM287 260l-192 192v-384zM315 232l-192 -192h384zM123 480l192 -192l192 192h-384zM343 260l192 -192v384z" />
    <glyph glyph-name="uni2300" unicode="&#x2300;" horiz-adv-x="630" 
d="M55 28l52 52q-32 36 -49.5 82t-17.5 98q0 57 21.5 107t59 87.5t87.5 59t107 21.5q52 0 98 -17.5t82 -49.5l52 52l28 -28l-52 -52q32 -36 49.5 -82t17.5 -98q0 -57 -21.5 -107t-59 -87.5t-87.5 -59t-107 -21.5q-52 0 -98 17.5t-82 49.5l-52 -52zM550 260q0 44 -14.5 82.5
t-40.5 69.5l-332 -332q31 -26 69.5 -40.5t82.5 -14.5q49 0 91.5 18.5t74.5 50.5t50.5 74.5t18.5 91.5zM80 260q0 -44 14.5 -82.5t40.5 -69.5l332 332q-31 26 -69.5 40.5t-82.5 14.5q-49 0 -91.5 -18.5t-74.5 -50.5t-50.5 -74.5t-18.5 -91.5z" />
    <glyph glyph-name="uni23CF" unicode="&#x23cf;" horiz-adv-x="630" 
d="M55 80h520v-80h-520v80zM575 200h-520l260 320z" />
    <glyph glyph-name="uni23E9" unicode="&#x23e9;" horiz-adv-x="630" 
d="M314 260l-259 -260v520zM575 260l-259 -260v520z" />
    <glyph glyph-name="uni23EA" unicode="&#x23ea;" horiz-adv-x="630" 
d="M575 520v-520l-259 260zM314 520v-520l-259 260z" />
    <glyph glyph-name="uni23EB" unicode="&#x23eb;" horiz-adv-x="630" 
d="M575 0h-520l260 259zM575 261h-520l260 259z" />
    <glyph glyph-name="uni23EC" unicode="&#x23ec;" horiz-adv-x="630" 
d="M315 261l-260 259h520zM315 0l-260 259h520z" />
    <glyph glyph-name="uni23ED" unicode="&#x23ed;" horiz-adv-x="630" 
d="M273 260l-218 -260v520zM493 260l-218 -260v520zM495 0v520h80v-520h-80z" />
    <glyph glyph-name="uni23EE" unicode="&#x23ee;" horiz-adv-x="630" 
d="M575 520v-520l-218 260zM355 520v-520l-218 260zM55 0v520h80v-520h-80z" />
    <glyph glyph-name="uni23F8" unicode="&#x23f8;" horiz-adv-x="630" 
d="M375 0v520h160v-520h-160zM95 0v520h160v-520h-160z" />
    <glyph glyph-name="uni23F9" unicode="&#x23f9;" horiz-adv-x="630" 
d="M55 520h520v-520h-520v520z" />
    <glyph glyph-name="uni23FA" unicode="&#x23fa;" horiz-adv-x="630" 
d="M55 260q0 54 20.5 101.5t55.5 82.5t82.5 55.5t101.5 20.5t101.5 -20.5t82.5 -55.5t55.5 -82.5t20.5 -101.5t-20.5 -101.5t-55.5 -82.5t-82.5 -55.5t-101.5 -20.5t-101.5 20.5t-82.5 55.5t-55.5 82.5t-20.5 101.5z" />
    <glyph glyph-name="uni25A0" unicode="&#x25a0;" horiz-adv-x="630" 
d="M55 520h520v-520h-520v520z" />
    <glyph glyph-name="uni25A1" unicode="&#x25a1;" horiz-adv-x="630" 
d="M55 0v520h520v-520h-520zM95 40h440v440h-440v-440z" />
    <glyph glyph-name="uni25B2" unicode="&#x25b2;" horiz-adv-x="630" 
d="M575 0h-520l260 520z" />
    <glyph glyph-name="uni25B3" unicode="&#x25b3;" horiz-adv-x="630" 
d="M575 0h-520l260 520zM315 432l-196 -392h392z" />
    <glyph glyph-name="uni25B6" unicode="&#x25b6;" horiz-adv-x="630" 
d="M575 260l-520 -260v520z" />
    <glyph glyph-name="uni25B7" unicode="&#x25b7;" horiz-adv-x="630" 
d="M55 0v520l520 -260zM487 260l-392 196v-392z" />
    <glyph glyph-name="uni25BC" unicode="&#x25bc;" horiz-adv-x="630" 
d="M315 0l-260 520h520z" />
    <glyph glyph-name="uni25BD" unicode="&#x25bd;" horiz-adv-x="630" 
d="M315 0l-260 520h520zM511 480h-392l196 -392z" />
    <glyph glyph-name="uni25C0" unicode="&#x25c0;" horiz-adv-x="630" 
d="M575 520v-520l-520 260z" />
    <glyph glyph-name="uni25C1" unicode="&#x25c1;" horiz-adv-x="630" 
d="M575 520v-520l-520 260zM143 260l392 -196v392z" />
    <glyph glyph-name="uni25C6" unicode="&#x25c6;" horiz-adv-x="630" 
d="M590 260l-275 -275l-275 275l275 275z" />
    <glyph glyph-name="uni25C7" unicode="&#x25c7;" horiz-adv-x="630" 
d="M40 260l275 275l275 -275l-275 -275zM315 41l219 219l-219 219l-219 -219z" />
    <glyph glyph-name="lozenge" unicode="&#x25ca;" horiz-adv-x="554" 
d="M37 385l200 315h80l200 -315v-70l-200 -315h-80l-200 315v70zM277 595l-153 -245l153 -245l153 245z" />
    <glyph glyph-name="uni25CB" unicode="&#x25cb;" horiz-adv-x="630" 
d="M40 260q0 57 21.5 107t59 87.5t87.5 59t107 21.5t107 -21.5t87.5 -59t59 -87.5t21.5 -107t-21.5 -107t-59 -87.5t-87.5 -59t-107 -21.5t-107 21.5t-87.5 59t-59 87.5t-21.5 107zM80 260q0 -49 18.5 -91.5t50.5 -74.5t74.5 -50.5t91.5 -18.5t91.5 18.5t74.5 50.5
t50.5 74.5t18.5 91.5t-18.5 91.5t-50.5 74.5t-74.5 50.5t-91.5 18.5t-91.5 -18.5t-74.5 -50.5t-50.5 -74.5t-18.5 -91.5z" />
    <glyph glyph-name="uni25CC" unicode="&#x25cc;" horiz-adv-x="630" 
d="M295 515q0 8 6 14t14 6t14 -6t6 -14t-6 -14t-14 -6t-14 6t-6 14zM383 500q0 8 6 14t14 6t14 -6t6 -14t-6 -14t-14 -6t-14 6t-6 14zM459 456q0 8 6 14t14 6t14 -6t6 -14t-6 -14t-14 -6t-14 6t-6 14zM516 388q0 8 6 14t14 6t14 -6t6 -14t-6 -14t-14 -6t-14 6t-6 14z
M546 305q0 8 6 14t14 6t14 -6t6 -14t-6 -14t-14 -6t-14 6t-6 14zM247 500q0 -8 -6 -14t-14 -6t-14 6t-6 14t6 14t14 6t14 -6t6 -14zM171 456q0 -8 -6 -14t-14 -6t-14 6t-6 14t6 14t14 6t14 -6t6 -14zM114 388q0 -8 -6 -14t-14 -6t-14 6t-6 14t6 14t14 6t14 -6t6 -14zM84 305
q0 -8 -6 -14t-14 -6t-14 6t-6 14t6 14t14 6t14 -6t6 -14zM295 5q0 8 6 14t14 6t14 -6t6 -14t-6 -14t-14 -6t-14 6t-6 14zM383 20q0 8 6 14t14 6t14 -6t6 -14t-6 -14t-14 -6t-14 6t-6 14zM459 64q0 8 6 14t14 6t14 -6t6 -14t-6 -14t-14 -6t-14 6t-6 14zM516 132q0 8 6 14
t14 6t14 -6t6 -14t-6 -14t-14 -6t-14 6t-6 14zM546 215q0 8 6 14t14 6t14 -6t6 -14t-6 -14t-14 -6t-14 6t-6 14zM247 20q0 -8 -6 -14t-14 -6t-14 6t-6 14t6 14t14 6t14 -6t6 -14zM171 64q0 -8 -6 -14t-14 -6t-14 6t-6 14t6 14t14 6t14 -6t6 -14zM114 132q0 -8 -6 -14t-14 -6
t-14 6t-6 14t6 14t14 6t14 -6t6 -14zM84 215q0 -8 -6 -14t-14 -6t-14 6t-6 14t6 14t14 6t14 -6t6 -14z" />
    <glyph glyph-name="uni25CF" unicode="&#x25cf;" horiz-adv-x="630" 
d="M40 260q0 57 21.5 107t59 87.5t87.5 59t107 21.5t107 -21.5t87.5 -59t59 -87.5t21.5 -107t-21.5 -107t-59 -87.5t-87.5 -59t-107 -21.5t-107 21.5t-87.5 59t-59 87.5t-21.5 107z" />
    <glyph glyph-name="uni25D0" unicode="&#x25d0;" horiz-adv-x="630" 
d="M40 260q0 57 21.5 107t59 87.5t87.5 59t107 21.5t107 -21.5t87.5 -59t59 -87.5t21.5 -107t-21.5 -107t-59 -87.5t-87.5 -59t-107 -21.5t-107 21.5t-87.5 59t-59 87.5t-21.5 107zM315 25q49 0 91.5 18.5t74.5 50.5t50.5 74.5t18.5 91.5t-18.5 91.5t-50.5 74.5t-74.5 50.5
t-91.5 18.5v-470z" />
    <glyph glyph-name="uni25D1" unicode="&#x25d1;" horiz-adv-x="630" 
d="M590 260q0 -57 -21.5 -107t-59 -87.5t-87.5 -59t-107 -21.5t-107 21.5t-87.5 59t-59 87.5t-21.5 107t21.5 107t59 87.5t87.5 59t107 21.5t107 -21.5t87.5 -59t59 -87.5t21.5 -107zM315 495q-49 0 -91.5 -18.5t-74.5 -50.5t-50.5 -74.5t-18.5 -91.5t18.5 -91.5t50.5 -74.5
t74.5 -50.5t91.5 -18.5v470z" />
    <glyph glyph-name="uni25D2" unicode="&#x25d2;" horiz-adv-x="630" 
d="M315 -15q-57 0 -107 21.5t-87.5 59t-59 87.5t-21.5 107t21.5 107t59 87.5t87.5 59t107 21.5t107 -21.5t87.5 -59t59 -87.5t21.5 -107t-21.5 -107t-59 -87.5t-87.5 -59t-107 -21.5zM550 260q0 49 -18.5 91.5t-50.5 74.5t-74.5 50.5t-91.5 18.5t-91.5 -18.5t-74.5 -50.5
t-50.5 -74.5t-18.5 -91.5h470z" />
    <glyph glyph-name="uni25D3" unicode="&#x25d3;" horiz-adv-x="630" 
d="M315 535q57 0 107 -21.5t87.5 -59t59 -87.5t21.5 -107t-21.5 -107t-59 -87.5t-87.5 -59t-107 -21.5t-107 21.5t-87.5 59t-59 87.5t-21.5 107t21.5 107t59 87.5t87.5 59t107 21.5zM80 260q0 -49 18.5 -91.5t50.5 -74.5t74.5 -50.5t91.5 -18.5t91.5 18.5t74.5 50.5
t50.5 74.5t18.5 91.5h-470z" />
    <glyph glyph-name="uni25D4" unicode="&#x25d4;" horiz-adv-x="630" 
d="M40 260q0 57 21.5 107t59 87.5t87.5 59t107 21.5t107 -21.5t87.5 -59t59 -87.5t21.5 -107t-21.5 -107t-59 -87.5t-87.5 -59t-107 -21.5t-107 21.5t-87.5 59t-59 87.5t-21.5 107zM80 260q0 -49 18.5 -91.5t50.5 -74.5t74.5 -50.5t91.5 -18.5t91.5 18.5t74.5 50.5
t50.5 74.5t18.5 91.5h-235v235q-49 0 -91.5 -18.5t-74.5 -50.5t-50.5 -74.5t-18.5 -91.5z" />
    <glyph glyph-name="uni25D5" unicode="&#x25d5;" horiz-adv-x="630" 
d="M40 260q0 57 21.5 107t59 87.5t87.5 59t107 21.5t107 -21.5t87.5 -59t59 -87.5t21.5 -107t-21.5 -107t-59 -87.5t-87.5 -59t-107 -21.5t-107 21.5t-87.5 59t-59 87.5t-21.5 107zM315 260v235q-49 0 -91.5 -18.5t-74.5 -50.5t-50.5 -74.5t-18.5 -91.5h235z" />
    <glyph glyph-name="uni25E7" unicode="&#x25e7;" horiz-adv-x="630" 
d="M575 0h-520v520h520v-520zM535 40v440h-220v-440h220z" />
    <glyph glyph-name="uni25E8" unicode="&#x25e8;" horiz-adv-x="630" 
d="M55 520h520v-520h-520v520zM315 40v440h-220v-440h220z" />
    <glyph glyph-name="uni25E9" unicode="&#x25e9;" horiz-adv-x="630" 
d="M55 0v520h520v-520h-520zM95 40h440v440z" />
    <glyph glyph-name="uni25EA" unicode="&#x25ea;" horiz-adv-x="630" 
d="M55 0v520h520v-520h-520zM95 40l440 440h-440v-440z" />
    <glyph glyph-name="uni2610" unicode="&#x2610;" 
d="M55 0v700h700v-700h-700zM95 40h620v620h-620v-620z" />
    <glyph glyph-name="uni2611" unicode="&#x2611;" 
d="M55 0v700h700v-700h-700zM95 40h620v620h-620v-620zM175 255v85l150 -150l330 410v-95l-325 -405z" />
    <glyph glyph-name="uni2612" unicode="&#x2612;" 
d="M755 700v-700h-700v700h700zM135 108l242 242l-242 242l28 28l242 -242l242 242l28 -28l-242 -242l242 -242l-28 -28l-242 242l-242 -242zM95 40h620v620h-620v-620z" />
    <glyph glyph-name="uni2630" unicode="&#x2630;" horiz-adv-x="630" 
d="M55 520h520v-80h-520v80zM55 80h520v-80h-520v80zM55 300h520v-80h-520v80z" />
    <glyph glyph-name="uni2631" unicode="&#x2631;" horiz-adv-x="630" 
d="M55 300h520v-80h-520v80zM55 80h520v-80h-520v80zM370 520h205v-80h-205v80zM55 520h205v-80h-205v80z" />
    <glyph glyph-name="uni2632" unicode="&#x2632;" horiz-adv-x="630" 
d="M55 300h520v-80h-520v80zM55 520h205v-80h-205v80zM55 80h205v-80h-205v80zM370 520h205v-80h-205v80zM370 80h205v-80h-205v80z" />
    <glyph glyph-name="uni2633" unicode="&#x2633;" horiz-adv-x="630" 
d="M55 80h520v-80h-520v80zM55 520h205v-80h-205v80zM55 300h205v-80h-205v80zM370 300h205v-80h-205v80zM370 520h205v-80h-205v80z" />
    <glyph glyph-name="uni2634" unicode="&#x2634;" horiz-adv-x="630" 
d="M55 520h520v-80h-520v80zM55 300h520v-80h-520v80zM55 80h205v-80h-205v80zM370 80h205v-80h-205v80z" />
    <glyph glyph-name="uni2635" unicode="&#x2635;" horiz-adv-x="630" 
d="M55 300h520v-80h-520v80zM55 520h205v-80h-205v80zM55 80h205v-80h-205v80zM370 520h205v-80h-205v80zM370 80h205v-80h-205v80z" />
    <glyph glyph-name="uni2636" unicode="&#x2636;" horiz-adv-x="630" 
d="M55 520h520v-80h-520v80zM370 80h205v-80h-205v80zM55 80h205v-80h-205v80zM370 300h205v-80h-205v80zM55 300h205v-80h-205v80z" />
    <glyph glyph-name="uni2637" unicode="&#x2637;" horiz-adv-x="630" 
d="M55 520h205v-80h-205v80zM55 300h205v-80h-205v80zM370 520h205v-80h-205v80zM370 300h205v-80h-205v80zM55 80h205v-80h-205v80zM370 80h205v-80h-205v80z" />
    <glyph glyph-name="uni2690" unicode="&#x2690;" horiz-adv-x="630" 
d="M95 0h-40v520h520v-280h-480v-240zM95 280h440v200h-440v-200z" />
    <glyph glyph-name="uni2691" unicode="&#x2691;" horiz-adv-x="630" 
d="M95 0h-40v520h520v-280h-480v-240z" />
    <glyph glyph-name="uni2713" unicode="&#x2713;" 
d="M90 216v140l205 -226l425 625v-145l-420 -625z" />
    <glyph glyph-name="uni2733" unicode="&#x2733;" horiz-adv-x="630" 
d="M295 308v212h40v-212l150 150l28 -28l-150 -150h212v-40h-212l150 -150l-28 -28l-150 150v-212h-40v212l-150 -150l-28 28l150 150h-212v40h212l-150 150l28 28z" />
    <glyph glyph-name="uni2780" unicode="&#x2780;" 
d="M40 350q0 75 29 141.5t78.5 116t116 78.5t141.5 29t141.5 -29t116 -78.5t78.5 -116t29 -141.5t-29 -141.5t-78.5 -116t-116 -78.5t-141.5 -29t-141.5 29t-116 78.5t-78.5 116t-29 141.5zM80 350q0 -67 25.5 -126t70 -103.5t103.5 -70t126 -25.5t126 25.5t103.5 70
t70 103.5t25.5 126t-25.5 126t-70 103.5t-103.5 70t-126 25.5t-126 -25.5t-103.5 -70t-70 -103.5t-25.5 -126zM390 145v320l-100 -105v95l100 100h75v-410h-75z" />
    <glyph glyph-name="uni2781" unicode="&#x2781;" 
d="M40 350q0 75 29 141.5t78.5 116t116 78.5t141.5 29t141.5 -29t116 -78.5t78.5 -116t29 -141.5t-29 -141.5t-78.5 -116t-116 -78.5t-141.5 -29t-141.5 29t-116 78.5t-78.5 116t-29 141.5zM80 350q0 -67 25.5 -126t70 -103.5t103.5 -70t126 -25.5t126 25.5t103.5 70
t70 103.5t25.5 126t-25.5 126t-70 103.5t-103.5 70t-126 25.5t-126 -25.5t-103.5 -70t-70 -103.5t-25.5 -126zM265 454q2 21 11.5 40.5t26.5 35t42.5 25t59.5 9.5q64 0 102 -33.5t38 -86.5q0 -42 -20 -71.5t-50 -58.5l-110 -105h190v-65h-290v65l160 155q24 23 34.5 40
t10.5 40q0 19 -14 37t-51 18q-30 0 -46 -12.5t-18 -32.5h-76z" />
    <glyph glyph-name="uni2782" unicode="&#x2782;" 
d="M40 350q0 75 29 141.5t78.5 116t116 78.5t141.5 29t141.5 -29t116 -78.5t78.5 -116t29 -141.5t-29 -141.5t-78.5 -116t-116 -78.5t-141.5 -29t-141.5 29t-116 78.5t-78.5 116t-29 141.5zM80 350q0 -67 25.5 -126t70 -103.5t103.5 -70t126 -25.5t126 25.5t103.5 70
t70 103.5t25.5 126t-25.5 126t-70 103.5t-103.5 70t-126 25.5t-126 -25.5t-103.5 -70t-70 -103.5t-25.5 -126zM331 250q3 -17 18 -33.5t51 -16.5q42 0 61 18t19 44t-16.5 44.5t-58.5 18.5h-35v60h35q34 0 49.5 16.5t15.5 40.5q0 23 -15 40.5t-50 17.5t-48.5 -15.5
t-15.5 -29.5h-76q4 45 40 77.5t100 32.5t102 -33.5t38 -86.5q0 -30 -16 -52t-39 -33q30 -11 47.5 -36.5t17.5 -63.5q0 -57 -41.5 -91t-113.5 -34q-33 0 -59 9.5t-44.5 25.5t-29 36.5t-12.5 43.5h76z" />
    <glyph glyph-name="uni2783" unicode="&#x2783;" 
d="M40 350q0 75 29 141.5t78.5 116t116 78.5t141.5 29t141.5 -29t116 -78.5t78.5 -116t29 -141.5t-29 -141.5t-78.5 -116t-116 -78.5t-141.5 -29t-141.5 29t-116 78.5t-78.5 116t-29 141.5zM80 350q0 -67 25.5 -126t70 -103.5t103.5 -70t126 -25.5t126 25.5t103.5 70
t70 103.5t25.5 126t-25.5 126t-70 103.5t-103.5 70t-126 25.5t-126 -25.5t-103.5 -70t-70 -103.5t-25.5 -126zM410 555h80v-265h60v-65h-60v-80h-75v80h-190v65zM302 290h113v75v29.5t0.5 24t1.5 22.5t2 24h-4q-6 -11 -10.5 -20t-10 -18.5t-12.5 -20t-17 -24.5z" />
    <glyph glyph-name="uni2784" unicode="&#x2784;" 
d="M40 350q0 75 29 141.5t78.5 116t116 78.5t141.5 29t141.5 -29t116 -78.5t78.5 -116t29 -141.5t-29 -141.5t-78.5 -116t-116 -78.5t-141.5 -29t-141.5 29t-116 78.5t-78.5 116t-29 141.5zM80 350q0 -67 25.5 -126t70 -103.5t103.5 -70t126 -25.5t126 25.5t103.5 70
t70 103.5t25.5 126t-25.5 126t-70 103.5t-103.5 70t-126 25.5t-126 -25.5t-103.5 -70t-70 -103.5t-25.5 -126zM265 330l15 225h250v-65h-180l-5 -87q15 14 35.5 20.5t39.5 6.5q32 0 57 -11.5t42.5 -31t26.5 -46t9 -56.5q0 -32 -11 -59.5t-30.5 -47.5t-48 -31.5t-62.5 -11.5
q-36 0 -62 10t-44 26.5t-28.5 37t-13.5 41.5h78q3 -20 19.5 -36t50.5 -16q35 0 56 24t21 63q0 43 -21.5 65t-53.5 22q-47 0 -66 -42h-74z" />
    <glyph glyph-name="uni2785" unicode="&#x2785;" 
d="M40 350q0 75 29 141.5t78.5 116t116 78.5t141.5 29t141.5 -29t116 -78.5t78.5 -116t29 -141.5t-29 -141.5t-78.5 -116t-116 -78.5t-141.5 -29t-141.5 29t-116 78.5t-78.5 116t-29 141.5zM80 350q0 -67 25.5 -126t70 -103.5t103.5 -70t126 -25.5t126 25.5t103.5 70
t70 103.5t25.5 126t-25.5 126t-70 103.5t-103.5 70t-126 25.5t-126 -25.5t-103.5 -70t-70 -103.5t-25.5 -126zM467 475q-5 10 -17 20t-38 10q-42 0 -64.5 -33.5t-22.5 -82.5q14 15 38.5 26.5t56.5 11.5q36 0 63 -11.5t45 -31t27.5 -45.5t9.5 -54q0 -32 -11.5 -59.5
t-32 -47.5t-49 -31.5t-62.5 -11.5q-45 0 -76.5 16.5t-51 46t-28.5 68.5t-9 84q0 60 14 101t37.5 66.5t53.5 36.5t62 11q53 0 88.5 -24t46.5 -66h-80zM410 198q19 0 33.5 7t25 19t16 27t5.5 31t-5 31.5t-14.5 27.5t-24.5 19.5t-36 7.5t-36 -7.5t-24.5 -19.5t-14.5 -27.5
t-5 -31.5t5.5 -31t16 -27t25 -19t33.5 -7z" />
    <glyph glyph-name="uni2786" unicode="&#x2786;" 
d="M40 350q0 75 29 141.5t78.5 116t116 78.5t141.5 29t141.5 -29t116 -78.5t78.5 -116t29 -141.5t-29 -141.5t-78.5 -116t-116 -78.5t-141.5 -29t-141.5 29t-116 78.5t-78.5 116t-29 141.5zM80 350q0 -67 25.5 -126t70 -103.5t103.5 -70t126 -25.5t126 25.5t103.5 70
t70 103.5t25.5 126t-25.5 126t-70 103.5t-103.5 70t-126 25.5t-126 -25.5t-103.5 -70t-70 -103.5t-25.5 -126zM381 145h-77l179 345h-203v65h280v-65z" />
    <glyph glyph-name="uni2787" unicode="&#x2787;" 
d="M40 350q0 75 29 141.5t78.5 116t116 78.5t141.5 29t141.5 -29t116 -78.5t78.5 -116t29 -141.5t-29 -141.5t-78.5 -116t-116 -78.5t-141.5 -29t-141.5 29t-116 78.5t-78.5 116t-29 141.5zM80 350q0 -67 25.5 -126t70 -103.5t103.5 -70t126 -25.5t126 25.5t103.5 70
t70 103.5t25.5 126t-25.5 126t-70 103.5t-103.5 70t-126 25.5t-126 -25.5t-103.5 -70t-70 -103.5t-25.5 -126zM335 445q0 -23 18 -40.5t52 -17.5t52 17.5t18 40.5t-18 40.5t-52 17.5t-52 -17.5t-18 -40.5zM485 262q0 25 -20.5 45.5t-59.5 20.5t-59.5 -20.5t-20.5 -45.5
q0 -24 20.5 -44.5t59.5 -20.5t59.5 20.5t20.5 44.5zM495 363q34 -15 49.5 -42.5t15.5 -60.5q0 -57 -43.5 -91t-111.5 -34t-111.5 34t-43.5 91q0 33 15.5 60.5t49.5 42.5q-30 14 -42.5 37.5t-12.5 46.5q0 49 38.5 83.5t106.5 34.5t106.5 -34.5t38.5 -83.5q0 -23 -12.5 -46.5
t-42.5 -37.5z" />
    <glyph glyph-name="uni2788" unicode="&#x2788;" 
d="M40 350q0 75 29 141.5t78.5 116t116 78.5t141.5 29t141.5 -29t116 -78.5t78.5 -116t29 -141.5t-29 -141.5t-78.5 -116t-116 -78.5t-141.5 -29t-141.5 29t-116 78.5t-78.5 116t-29 141.5zM80 350q0 -67 25.5 -126t70 -103.5t103.5 -70t126 -25.5t126 25.5t103.5 70
t70 103.5t25.5 126t-25.5 126t-70 103.5t-103.5 70t-126 25.5t-126 -25.5t-103.5 -70t-70 -103.5t-25.5 -126zM340 225q5 -11 17 -20.5t38 -9.5q45 0 67.5 33.5t22.5 82.5q-14 -15 -38.5 -26.5t-56.5 -11.5q-36 0 -63 11.5t-45 31t-27.5 45.5t-9.5 54q0 32 11.5 59.5
t32 47.5t49 31.5t62.5 11.5q45 0 76.5 -16t51 -44t28.5 -66.5t9 -83.5q0 -60 -14 -102t-38 -68t-54.5 -38t-63.5 -12q-53 0 -88.5 24t-46.5 66h80zM400 502q-19 0 -33.5 -7t-25 -19t-16 -27t-5.5 -31t5 -31.5t14.5 -27.5t24.5 -19.5t36 -7.5t36 7.5t24.5 19.5t14.5 27.5
t5 31.5t-5.5 31t-16 27t-25 19t-33.5 7z" />
    <glyph glyph-name="uni278A" unicode="&#x278a;" 
d="M40 350q0 75 29 141.5t78.5 116t116 78.5t141.5 29t141.5 -29t116 -78.5t78.5 -116t29 -141.5t-29 -141.5t-78.5 -116t-116 -78.5t-141.5 -29t-141.5 29t-116 78.5t-78.5 116t-29 141.5zM465 145v410h-75l-100 -100v-95l100 105v-320h75z" />
    <glyph glyph-name="uni278B" unicode="&#x278b;" 
d="M40 350q0 75 29 141.5t78.5 116t116 78.5t141.5 29t141.5 -29t116 -78.5t78.5 -116t29 -141.5t-29 -141.5t-78.5 -116t-116 -78.5t-141.5 -29t-141.5 29t-116 78.5t-78.5 116t-29 141.5zM341 454q2 20 18 32.5t46 12.5q37 0 51 -18t14 -37q0 -23 -10.5 -40t-34.5 -40
l-160 -155v-65h290v65h-190l110 105q30 29 50 58.5t20 71.5q0 53 -38 86.5t-102 33.5q-34 0 -59.5 -9.5t-42.5 -25t-26.5 -35t-11.5 -40.5h76z" />
    <glyph glyph-name="uni278C" unicode="&#x278c;" 
d="M40 350q0 75 29 141.5t78.5 116t116 78.5t141.5 29t141.5 -29t116 -78.5t78.5 -116t29 -141.5t-29 -141.5t-78.5 -116t-116 -78.5t-141.5 -29t-141.5 29t-116 78.5t-78.5 116t-29 141.5zM255 250q2 -23 12.5 -43.5t29 -36.5t44.5 -25.5t59 -9.5q72 0 113.5 34t41.5 91
q0 38 -17.5 63.5t-47.5 36.5q23 11 39 33t16 52q0 53 -38 86.5t-102 33.5t-100 -32.5t-40 -77.5h76q2 14 15.5 29.5t48.5 15.5t50 -17.5t15 -40.5q0 -24 -15.5 -40.5t-49.5 -16.5h-35v-60h35q42 0 58.5 -18.5t16.5 -44.5t-19 -44t-61 -18q-36 0 -51 16.5t-18 33.5h-76z" />
    <glyph glyph-name="uni278D" unicode="&#x278d;" 
d="M40 350q0 75 29 141.5t78.5 116t116 78.5t141.5 29t141.5 -29t116 -78.5t78.5 -116t29 -141.5t-29 -141.5t-78.5 -116t-116 -78.5t-141.5 -29t-141.5 29t-116 78.5t-78.5 116t-29 141.5zM225 290v-65h190v-80h75v80h60v65h-60v265h-80zM365 382q10 14 17 24.5t12.5 20
t10 18.5t10.5 20h4q-1 -13 -2 -24t-1.5 -22.5t-0.5 -24v-29.5v-75h-113z" />
    <glyph glyph-name="uni278E" unicode="&#x278e;" 
d="M40 350q0 75 29 141.5t78.5 116t116 78.5t141.5 29t141.5 -29t116 -78.5t78.5 -116t29 -141.5t-29 -141.5t-78.5 -116t-116 -78.5t-141.5 -29t-141.5 29t-116 78.5t-78.5 116t-29 141.5zM339 330q19 42 66 42q32 0 53.5 -22t21.5 -65q0 -39 -21 -63t-56 -24
q-34 0 -50.5 16t-19.5 36h-78q3 -21 13.5 -41.5t28.5 -37t44 -26.5t62 -10q34 0 62.5 11.5t48 31.5t30.5 47.5t11 59.5q0 30 -9 56.5t-26.5 46t-42.5 31t-57 11.5q-19 0 -39.5 -6.5t-35.5 -20.5l5 87h180v65h-250l-15 -225h74z" />
    <glyph glyph-name="uni278F" unicode="&#x278f;" 
d="M40 350q0 75 29 141.5t78.5 116t116 78.5t141.5 29t141.5 -29t116 -78.5t78.5 -116t29 -141.5t-29 -141.5t-78.5 -116t-116 -78.5t-141.5 -29t-141.5 29t-116 78.5t-78.5 116t-29 141.5zM547 475q-11 42 -46.5 66t-88.5 24q-32 0 -62 -11t-53.5 -36.5t-37.5 -66.5
t-14 -101q0 -45 9 -84t28.5 -68.5t51 -46t76.5 -16.5q34 0 62.5 11.5t49 31.5t32 47.5t11.5 59.5q0 28 -9.5 54t-27.5 45.5t-45 31t-63 11.5q-32 0 -56.5 -11.5t-38.5 -26.5q0 49 22.5 82.5t64.5 33.5q26 0 38 -10t17 -20h80zM410 198q-19 0 -33.5 7t-25 19t-16 27t-5.5 31
t5 31.5t14.5 27.5t24.5 19.5t36 7.5t36 -7.5t24.5 -19.5t14.5 -27.5t5 -31.5t-5.5 -31t-16 -27t-25 -19t-33.5 -7z" />
    <glyph glyph-name="uni2790" unicode="&#x2790;" 
d="M40 350q0 75 29 141.5t78.5 116t116 78.5t141.5 29t141.5 -29t116 -78.5t78.5 -116t29 -141.5t-29 -141.5t-78.5 -116t-116 -78.5t-141.5 -29t-141.5 29t-116 78.5t-78.5 116t-29 141.5zM560 490v65h-280v-65h203l-179 -345h77z" />
    <glyph glyph-name="uni2791" unicode="&#x2791;" 
d="M40 350q0 75 29 141.5t78.5 116t116 78.5t141.5 29t141.5 -29t116 -78.5t78.5 -116t29 -141.5t-29 -141.5t-78.5 -116t-116 -78.5t-141.5 -29t-141.5 29t-116 78.5t-78.5 116t-29 141.5zM335 445q0 23 18 40.5t52 17.5t52 -17.5t18 -40.5t-18 -40.5t-52 -17.5t-52 17.5
t-18 40.5zM485 262q0 -24 -20.5 -44.5t-59.5 -20.5t-59.5 20.5t-20.5 44.5q0 25 20.5 45.5t59.5 20.5t59.5 -20.5t20.5 -45.5zM495 363q30 14 42.5 37.5t12.5 46.5q0 49 -38.5 83.5t-106.5 34.5t-106.5 -34.5t-38.5 -83.5q0 -23 12.5 -46.5t42.5 -37.5q-34 -15 -49.5 -42.5
t-15.5 -60.5q0 -57 43.5 -91t111.5 -34t111.5 34t43.5 91q0 33 -15.5 60.5t-49.5 42.5z" />
    <glyph glyph-name="uni2792" unicode="&#x2792;" 
d="M40 350q0 75 29 141.5t78.5 116t116 78.5t141.5 29t141.5 -29t116 -78.5t78.5 -116t29 -141.5t-29 -141.5t-78.5 -116t-116 -78.5t-141.5 -29t-141.5 29t-116 78.5t-78.5 116t-29 141.5zM260 225q11 -42 46.5 -66t88.5 -24q33 0 63.5 12t54.5 38t38 68t14 102
q0 45 -9 83.5t-28.5 66.5t-51 44t-76.5 16q-34 0 -62.5 -11.5t-49 -31.5t-32 -47.5t-11.5 -59.5q0 -28 9.5 -54t27.5 -45.5t45 -31t63 -11.5q32 0 56.5 11.5t38.5 26.5q0 -49 -22.5 -82.5t-67.5 -33.5q-26 0 -38 9.5t-17 20.5h-80zM400 502q19 0 33.5 -7t25 -19t16 -27
t5.5 -31t-5 -31.5t-14.5 -27.5t-24.5 -19.5t-36 -7.5t-36 7.5t-24.5 19.5t-14.5 27.5t-5 31.5t5.5 31t16 27t25 19t33.5 7z" />
    <glyph glyph-name="uni2913" unicode="&#x2913;" horiz-adv-x="630" 
d="M55 80h520v-80h-520v80zM465 360v-90l-150 -150l-150 150v90l108 -115v275h84v-275z" />
    <glyph glyph-name="uni29B6" unicode="&#x29b6;" horiz-adv-x="630" 
d="M315 -15q-57 0 -107 21.5t-87.5 59t-59 87.5t-21.5 107t21.5 107t59 87.5t87.5 59t107 21.5t107 -21.5t87.5 -59t59 -87.5t21.5 -107t-21.5 -107t-59 -87.5t-87.5 -59t-107 -21.5zM80 260q0 -46 16.5 -87t45.5 -72.5t68.5 -51t84.5 -23.5v468q-45 -4 -84.5 -23.5
t-68.5 -51t-45.5 -72.5t-16.5 -87zM550 260q0 46 -16.5 87t-45.5 72.5t-68.5 51t-84.5 23.5v-468q45 4 84.5 23.5t68.5 51t45.5 72.5t16.5 87z" />
    <glyph glyph-name="uni29B8" unicode="&#x29b8;" horiz-adv-x="630" 
d="M40 260q0 57 21.5 107t59 87.5t87.5 59t107 21.5t107 -21.5t87.5 -59t59 -87.5t21.5 -107t-21.5 -107t-59 -87.5t-87.5 -59t-107 -21.5t-107 21.5t-87.5 59t-59 87.5t-21.5 107zM315 495q-43 0 -81.5 -14.5t-70.5 -40.5l332 -332q26 31 40.5 69.5t14.5 82.5
q0 49 -18.5 91.5t-50.5 74.5t-74.5 50.5t-91.5 18.5zM80 260q0 -49 18.5 -91.5t50.5 -74.5t74.5 -50.5t91.5 -18.5q44 0 82.5 14.5t69.5 40.5l-332 332q-26 -31 -40.5 -69.5t-14.5 -82.5z" />
    <glyph glyph-name="uni29BF" unicode="&#x29bf;" horiz-adv-x="630" 
d="M195 260q0 25 9.5 46.5t26 38t38 26t46.5 9.5t46.5 -9.5t38 -26t26 -38t9.5 -46.5t-9.5 -46.5t-26 -38t-38 -26t-46.5 -9.5t-46.5 9.5t-38 26t-26 38t-9.5 46.5zM40 260q0 57 21.5 107t59 87.5t87.5 59t107 21.5t107 -21.5t87.5 -59t59 -87.5t21.5 -107t-21.5 -107
t-59 -87.5t-87.5 -59t-107 -21.5t-107 21.5t-87.5 59t-59 87.5t-21.5 107zM80 260q0 -49 18.5 -91.5t50.5 -74.5t74.5 -50.5t91.5 -18.5t91.5 18.5t74.5 50.5t50.5 74.5t18.5 91.5t-18.5 91.5t-50.5 74.5t-74.5 50.5t-91.5 18.5t-91.5 -18.5t-74.5 -50.5t-50.5 -74.5
t-18.5 -91.5z" />
    <glyph glyph-name="uni2B12" unicode="&#x2b12;" horiz-adv-x="630" 
d="M55 0v520h520v-520h-520zM95 40h440v220h-440v-220z" />
    <glyph glyph-name="uni2B13" unicode="&#x2b13;" horiz-adv-x="630" 
d="M575 520v-520h-520v520h520zM95 260h440v220h-440v-220z" />
    <glyph glyph-name="uni2B14" unicode="&#x2b14;" horiz-adv-x="630" 
d="M55 0v520h520v-520h-520zM95 40h440l-440 440v-440z" />
    <glyph glyph-name="uni2B15" unicode="&#x2b15;" horiz-adv-x="630" 
d="M55 0v520h520v-520h-520zM535 40v440h-440z" />
    <glyph glyph-name="uni2B16" unicode="&#x2b16;" horiz-adv-x="630" 
d="M590 260l-275 -275l-275 275l275 275zM315 479v-438l219 219z" />
    <glyph glyph-name="uni2B17" unicode="&#x2b17;" horiz-adv-x="630" 
d="M315 -15l-275 275l275 275l275 -275zM315 479l-219 -219l219 -219v438z" />
    <glyph glyph-name="uni2B18" unicode="&#x2b18;" horiz-adv-x="630" 
d="M315 535l275 -275l-275 -275l-275 275zM96 260l219 -219l219 219h-438z" />
    <glyph glyph-name="uni2B19" unicode="&#x2b19;" horiz-adv-x="630" 
d="M315 535l275 -275l-275 -275l-275 275zM96 260h438l-219 219z" />
    <glyph glyph-name="uni2B1A" unicode="&#x2b1a;" horiz-adv-x="630" 
d="M55 20q0 8 6 14t14 6t14 -6t6 -14t-6 -14t-14 -6t-14 6t-6 14zM75 96q-8 0 -14 6t-6 14t6 14t14 6t14 -6t6 -14t-6 -14t-14 -6zM75 192q-8 0 -14 6t-6 14t6 14t14 6t14 -6t6 -14t-6 -14t-14 -6zM75 288q-8 0 -14 6t-6 14t6 14t14 6t14 -6t6 -14t-6 -14t-14 -6zM75 384
q-8 0 -14 6t-6 14t6 14t14 6t14 -6t6 -14t-6 -14t-14 -6zM75 480q-8 0 -14 6t-6 14t6 14t14 6t14 -6t6 -14t-6 -14t-14 -6zM535 20q0 8 6 14t14 6t14 -6t6 -14t-6 -14t-14 -6t-14 6t-6 14zM555 96q-8 0 -14 6t-6 14t6 14t14 6t14 -6t6 -14t-6 -14t-14 -6zM555 192
q-8 0 -14 6t-6 14t6 14t14 6t14 -6t6 -14t-6 -14t-14 -6zM555 288q-8 0 -14 6t-6 14t6 14t14 6t14 -6t6 -14t-6 -14t-14 -6zM555 384q-8 0 -14 6t-6 14t6 14t14 6t14 -6t6 -14t-6 -14t-14 -6zM555 480q-8 0 -14 6t-6 14t6 14t14 6t14 -6t6 -14t-6 -14t-14 -6zM479 20
q0 -8 -6 -14t-14 -6t-14 6t-6 14t6 14t14 6t14 -6t6 -14zM383 20q0 -8 -6 -14t-14 -6t-14 6t-6 14t6 14t14 6t14 -6t6 -14zM287 20q0 -8 -6 -14t-14 -6t-14 6t-6 14t6 14t14 6t14 -6t6 -14zM191 20q0 -8 -6 -14t-14 -6t-14 6t-6 14t6 14t14 6t14 -6t6 -14zM479 500
q0 -8 -6 -14t-14 -6t-14 6t-6 14t6 14t14 6t14 -6t6 -14zM383 500q0 -8 -6 -14t-14 -6t-14 6t-6 14t6 14t14 6t14 -6t6 -14zM287 500q0 -8 -6 -14t-14 -6t-14 6t-6 14t6 14t14 6t14 -6t6 -14zM191 500q0 -8 -6 -14t-14 -6t-14 6t-6 14t6 14t14 6t14 -6t6 -14z" />
    <glyph glyph-name="uniFB00" unicode="&#xfb00;" horiz-adv-x="696" 
d="M453 520v55q0 125 135 125h96v-78h-90q-26 0 -35.5 -10.5t-9.5 -36.5v-55h135v-80h-135v-440h-96v440h-219v-440h-96v440h-125v80h125v55q0 125 135 125h81v-78h-75q-26 0 -35.5 -10.5t-9.5 -36.5v-55h219z" />
    <glyph glyph-name="fi" unicode="&#xfb01;" horiz-adv-x="622" 
d="M549 520v-520h-96v440h-219v-440h-96v440h-125v80h125v55q0 125 135 125h81v-78h-75q-26 0 -35.5 -10.5t-9.5 -36.5v-55h315zM453 700h96v-100h-96v100z" />
    <glyph glyph-name="fl" unicode="&#xfb02;" horiz-adv-x="622" 
d="M453 520v180h96v-700h-96v440h-219v-440h-96v440h-125v80h125v55q0 125 135 125h81v-78h-75q-26 0 -35.5 -10.5t-9.5 -36.5v-55h219z" />
    <glyph glyph-name="uniFB03" unicode="&#xfb03;" horiz-adv-x="937" 
d="M549 440v-440h-96v440h-219v-440h-96v440h-125v80h125v55q0 125 135 125h81v-78h-75q-26 0 -35.5 -10.5t-9.5 -36.5v-55h219v55q0 125 135 125h81v-78h-75q-26 0 -35.5 -10.5t-9.5 -36.5v-55h315v-520h-96v440h-219zM768 700h96v-100h-96v100z" />
    <glyph glyph-name="uniFB04" unicode="&#xfb04;" horiz-adv-x="937" 
d="M549 440v-440h-96v440h-219v-440h-96v440h-125v80h125v55q0 125 135 125h81v-78h-75q-26 0 -35.5 -10.5t-9.5 -36.5v-55h219v55q0 125 135 125h81v-78h-75q-26 0 -35.5 -10.5t-9.5 -36.5v-55h219v180h96v-700h-96v440h-219z" />
    <glyph glyph-name="uniFEFF" unicode="&#xfeff;" horiz-adv-x="0" 
 />
    <glyph glyph-name="u1F310" unicode="&#x1f310;" 
d="M243 520q-45 14 -89 37q-32 -38 -51.5 -86t-21.5 -101h132q2 39 9.5 77t20.5 73zM281 509q-12 -33 -19 -68t-9 -71h132v125q-25 1 -52 4.5t-52 9.5zM385 674q-28 -28 -50 -60.5t-38 -67.5q21 -5 43 -7.5t45 -3.5v139zM258 557q12 27 28.5 55t36.5 53q-40 -11 -75.5 -31
t-64.5 -47q17 -8 36.5 -16.5t38.5 -13.5zM770 350q0 -76 -29 -142.5t-78.5 -116t-116 -78t-141.5 -28.5t-141.5 28.5t-116 78t-78.5 116t-29 142.5t29 142.5t78.5 116t116 78t141.5 28.5t141.5 -28.5t116 -78t78.5 -116t29 -142.5zM567 520q13 -35 20.5 -73t9.5 -77h132
q-2 53 -21.5 101t-51.5 86q-44 -23 -89 -37zM529 509q-25 -6 -52 -9.5t-52 -4.5v-125h132q-2 36 -9 71t-19 68zM425 535q23 1 45 3.5t43 7.5q-16 35 -38 67.5t-50 60.5v-139zM552 557q19 5 38.5 13.5t36.5 16.5q-29 27 -64.5 47t-75.5 31q20 -25 36.5 -53t28.5 -55zM243 180
q-13 35 -20.5 73t-9.5 77h-132q2 -53 21.5 -101t51.5 -86q44 23 89 37zM281 191q25 6 52 9.5t52 4.5v125h-132q2 -36 9 -71t19 -68zM385 165q-23 -1 -45 -3.5t-43 -7.5q16 -35 38 -67.5t50 -60.5v139zM258 143q-19 -5 -38.5 -13.5t-36.5 -16.5q29 -27 64.5 -47t75.5 -31
q-20 25 -36.5 53t-28.5 55zM567 180q45 -14 89 -37q32 38 51.5 86t21.5 101h-132q-2 -39 -9.5 -77t-20.5 -73zM529 191q12 33 19 68t9 71h-132v-125q25 -1 52 -4.5t52 -9.5zM425 26q28 28 50 60.5t38 67.5q-21 5 -43 7.5t-45 3.5v-139zM552 143q-12 -27 -28.5 -55t-36.5 -53
q40 11 75.5 31t64.5 47q-17 8 -36.5 16.5t-38.5 13.5z" />
    <glyph glyph-name="i.latn_TRK" horiz-adv-x="242" 
d="M73 520h96v-520h-96v520zM73 700h96v-100h-96v100z" />
    <glyph glyph-name="Ldot.latn_CAT" horiz-adv-x="576" 
d="M90 700h100v-615h370v-85h-470v700zM382 411h96v-100h-96v100z" />
    <glyph glyph-name="ldot.latn_CAT" horiz-adv-x="346" 
d="M73 700h96v-700h-96v700zM246 401h96v-100h-96v100z" />
    <glyph glyph-name="zero.numr" horiz-adv-x="400" 
d="M110 495q0 -68 20.5 -109t69.5 -41t69.5 41t20.5 109t-20.5 109t-69.5 41t-69.5 -41t-20.5 -109zM365 495q0 -58 -13 -99t-35 -66.5t-52.5 -37.5t-64.5 -12q-35 0 -65 12t-52 37.5t-35 66.5t-13 99t13 99t35 66.5t52 37.5t65 12q34 0 64.5 -12t52.5 -37.5t35 -66.5
t13 -99z" />
    <glyph glyph-name="one.numr" horiz-adv-x="269" 
d="M121 290v320l-100 -105v95l100 100h75v-410h-75z" />
    <glyph glyph-name="two.numr" horiz-adv-x="353" 
d="M33 600q2 21 11.5 40.5t26.5 35t42.5 25t59.5 9.5q64 0 102 -33.5t38 -86.5q0 -42 -20 -71.5t-50 -58.5l-110 -105h190v-65h-290v65l160 155q24 23 34.5 40t10.5 40q0 19 -14 37t-51 18q-30 0 -46 -12.5t-18 -32.5h-76z" />
    <glyph glyph-name="three.numr" horiz-adv-x="358" 
d="M100 395q3 -17 18 -33.5t51 -16.5q42 0 61 18t19 44t-16.5 44.5t-58.5 18.5h-35v60h35q34 0 49.5 16.5t15.5 40.5q0 23 -15 40.5t-50 17.5t-48.5 -15.5t-15.5 -29.5h-76q4 45 40 77.5t100 32.5t102 -33.5t38 -86.5q0 -30 -16 -52t-39 -33q30 -11 47.5 -36.5t17.5 -63.5
q0 -57 -41.5 -91t-113.5 -34q-33 0 -59 9.5t-44.5 25.5t-29 36.5t-12.5 43.5h76z" />
    <glyph glyph-name="four.numr" horiz-adv-x="369" 
d="M206 700h80v-265h60v-65h-60v-80h-75v80h-190v65zM98 435h113v75v29.5t0.5 24t1.5 22.5t2 24h-4q-6 -11 -10.5 -20t-10 -18.5t-12.5 -20t-17 -24.5z" />
    <glyph glyph-name="five.numr" horiz-adv-x="358" 
d="M40 475l15 225h250v-65h-180l-5 -87q15 14 35.5 20.5t39.5 6.5q32 0 57 -11.5t42.5 -31t26.5 -46t9 -56.5q0 -32 -11 -59.5t-30.5 -47.5t-48 -31.5t-62.5 -11.5q-36 0 -62 10t-44 26.5t-28.5 37t-13.5 41.5h78q3 -20 19.5 -36t50.5 -16q35 0 56 24t21 63q0 43 -21.5 65
t-53.5 22q-47 0 -66 -42h-74z" />
    <glyph glyph-name="six.numr" horiz-adv-x="383" 
d="M257 620q-5 10 -17 20t-38 10q-42 0 -64.5 -33.5t-22.5 -82.5q14 15 38.5 26.5t56.5 11.5q36 0 63 -11.5t45 -31t27.5 -45.5t9.5 -54q0 -32 -11.5 -59.5t-32 -47.5t-49 -31.5t-62.5 -11.5q-45 0 -76.5 16.5t-51 46t-28.5 68.5t-9 84q0 60 14 101t37.5 66.5t53.5 36.5
t62 11q53 0 88.5 -24t46.5 -66h-80zM200 343q19 0 33.5 7t25 19t16 27t5.5 31t-5 31.5t-14.5 27.5t-24.5 19.5t-36 7.5t-36 -7.5t-24.5 -19.5t-14.5 -27.5t-5 -31.5t5.5 -31t16 -27t25 -19t33.5 -7z" />
    <glyph glyph-name="seven.numr" horiz-adv-x="316" 
d="M122 290h-77l179 345h-203v65h280v-65z" />
    <glyph glyph-name="eight.numr" horiz-adv-x="378" 
d="M119 590q0 -23 18 -40.5t52 -17.5t52 17.5t18 40.5t-18 40.5t-52 17.5t-52 -17.5t-18 -40.5zM269 407q0 25 -20.5 45.5t-59.5 20.5t-59.5 -20.5t-20.5 -45.5q0 -24 20.5 -44.5t59.5 -20.5t59.5 20.5t20.5 44.5zM279 508q34 -15 49.5 -42.5t15.5 -60.5q0 -57 -43.5 -91
t-111.5 -34t-111.5 34t-43.5 91q0 33 15.5 60.5t49.5 42.5q-30 14 -42.5 37.5t-12.5 46.5q0 49 38.5 83.5t106.5 34.5t106.5 -34.5t38.5 -83.5q0 -23 -12.5 -46.5t-42.5 -37.5z" />
    <glyph glyph-name="nine.numr" horiz-adv-x="383" 
d="M123 370q5 -11 17 -20.5t38 -9.5q45 0 67.5 33.5t22.5 82.5q-14 -15 -38.5 -26.5t-56.5 -11.5q-36 0 -63 11.5t-45 31t-27.5 45.5t-9.5 54q0 32 11.5 59.5t32 47.5t49 31.5t62.5 11.5q45 0 76.5 -16t51 -44t28.5 -66.5t9 -83.5q0 -60 -14 -102t-38 -68t-54.5 -38
t-63.5 -12q-53 0 -88.5 24t-46.5 66h80zM183 647q-19 0 -33.5 -7t-25 -19t-16 -27t-5.5 -31t5 -31.5t14.5 -27.5t24.5 -19.5t36 -7.5t36 7.5t24.5 19.5t14.5 27.5t5 31.5t-5.5 31t-16 27t-25 19t-33.5 7z" />
    <glyph glyph-name="zero.dnom" horiz-adv-x="400" 
d="M110 205q0 -68 20.5 -109t69.5 -41t69.5 41t20.5 109t-20.5 109t-69.5 41t-69.5 -41t-20.5 -109zM365 205q0 -58 -13 -99t-35 -66.5t-52.5 -37.5t-64.5 -12q-35 0 -65 12t-52 37.5t-35 66.5t-13 99t13 99t35 66.5t52 37.5t65 12q34 0 64.5 -12t52.5 -37.5t35 -66.5
t13 -99z" />
    <glyph glyph-name="one.dnom" horiz-adv-x="269" 
d="M124 0v320l-100 -105v95l100 100h75v-410h-75z" />
    <glyph glyph-name="two.dnom" horiz-adv-x="353" 
d="M32 310q2 21 11.5 40.5t26.5 35t42.5 25t59.5 9.5q64 0 102 -33.5t38 -86.5q0 -42 -20 -71.5t-50 -58.5l-110 -105h190v-65h-290v65l160 155q24 23 34.5 40t10.5 40q0 19 -14 37t-51 18q-30 0 -46 -12.5t-18 -32.5h-76z" />
    <glyph glyph-name="three.dnom" horiz-adv-x="358" 
d="M100 105q3 -17 18 -33.5t51 -16.5q42 0 61 18t19 44t-16.5 44.5t-58.5 18.5h-35v60h35q34 0 49.5 16.5t15.5 40.5q0 23 -15 40.5t-50 17.5t-48.5 -15.5t-15.5 -29.5h-76q4 45 40 77.5t100 32.5t102 -33.5t38 -86.5q0 -30 -16 -52t-39 -33q30 -11 47.5 -36.5t17.5 -63.5
q0 -57 -41.5 -91t-113.5 -34q-33 0 -59 9.5t-44.5 25.5t-29 36.5t-12.5 43.5h76z" />
    <glyph glyph-name="four.dnom" horiz-adv-x="369" 
d="M204 410h80v-265h60v-65h-60v-80h-75v80h-190v65zM96 145h113v75v29.5t0.5 24t1.5 22.5t2 24h-4q-6 -11 -10.5 -20t-10 -18.5t-12.5 -20t-17 -24.5z" />
    <glyph glyph-name="five.dnom" horiz-adv-x="358" 
d="M40 185l15 225h250v-65h-180l-5 -87q15 14 35.5 20.5t39.5 6.5q32 0 57 -11.5t42.5 -31t26.5 -46t9 -56.5q0 -32 -11 -59.5t-30.5 -47.5t-48 -31.5t-62.5 -11.5q-36 0 -62 10t-44 26.5t-28.5 37t-13.5 41.5h78q3 -20 19.5 -36t50.5 -16q35 0 56 24t21 63q0 43 -21.5 65
t-53.5 22q-47 0 -66 -42h-74z" />
    <glyph glyph-name="six.dnom" horiz-adv-x="383" 
d="M257 330q-5 10 -17 20t-38 10q-42 0 -64.5 -33.5t-22.5 -82.5q14 15 38.5 26.5t56.5 11.5q36 0 63 -11.5t45 -31t27.5 -45.5t9.5 -54q0 -32 -11.5 -59.5t-32 -47.5t-49 -31.5t-62.5 -11.5q-45 0 -76.5 16.5t-51 46t-28.5 68.5t-9 84q0 60 14 101t37.5 66.5t53.5 36.5
t62 11q53 0 88.5 -24t46.5 -66h-80zM200 53q19 0 33.5 7t25 19t16 27t5.5 31t-5 31.5t-14.5 27.5t-24.5 19.5t-36 7.5t-36 -7.5t-24.5 -19.5t-14.5 -27.5t-5 -31.5t5.5 -31t16 -27t25 -19t33.5 -7z" />
    <glyph glyph-name="seven.dnom" horiz-adv-x="316" 
d="M120 0h-77l179 345h-203v65h280v-65z" />
    <glyph glyph-name="eight.dnom" horiz-adv-x="378" 
d="M119 300q0 -23 18 -40.5t52 -17.5t52 17.5t18 40.5t-18 40.5t-52 17.5t-52 -17.5t-18 -40.5zM269 117q0 25 -20.5 45.5t-59.5 20.5t-59.5 -20.5t-20.5 -45.5q0 -24 20.5 -44.5t59.5 -20.5t59.5 20.5t20.5 44.5zM279 218q34 -15 49.5 -42.5t15.5 -60.5q0 -57 -43.5 -91
t-111.5 -34t-111.5 34t-43.5 91q0 33 15.5 60.5t49.5 42.5q-30 14 -42.5 37.5t-12.5 46.5q0 49 38.5 83.5t106.5 34.5t106.5 -34.5t38.5 -83.5q0 -23 -12.5 -46.5t-42.5 -37.5z" />
    <glyph glyph-name="nine.dnom" horiz-adv-x="383" 
d="M123 80q5 -11 17 -20.5t38 -9.5q45 0 67.5 33.5t22.5 82.5q-14 -15 -38.5 -26.5t-56.5 -11.5q-36 0 -63 11.5t-45 31t-27.5 45.5t-9.5 54q0 32 11.5 59.5t32 47.5t49 31.5t62.5 11.5q45 0 76.5 -16t51 -44t28.5 -66.5t9 -83.5q0 -60 -14 -102t-38 -68t-54.5 -38
t-63.5 -12q-53 0 -88.5 24t-46.5 66h80zM183 357q-19 0 -33.5 -7t-25 -19t-16 -27t-5.5 -31t5 -31.5t14.5 -27.5t24.5 -19.5t36 -7.5t36 7.5t24.5 19.5t14.5 27.5t5 31.5t-5.5 31t-16 27t-25 19t-33.5 7z" />
    <glyph glyph-name="space.frac" horiz-adv-x="45" 
 />
    <glyph glyph-name="numbersign.tf" horiz-adv-x="610" 
d="M332 190h-133l-48 -190h-96l48 190h-110l20 80h110l40 160h-111l20 80h111l47 190h96l-47 -190h133l47 190h96l-47 -190h109l-20 -80h-109l-40 -160h110l-20 -80h-110l-48 -190h-96zM219 270h133l40 160h-133z" />
    <glyph glyph-name="dollar.tf" horiz-adv-x="610" 
d="M265 -14q-57 4 -98.5 20.5t-70 41t-44 56t-18.5 66.5h99q3 -38 33.5 -66.5t98.5 -36.5v257q-41 9 -80 23t-69 37.5t-48.5 57.5t-18.5 83q0 36 13.5 68t40.5 57.5t67.5 41.5t94.5 21v87h80v-87q49 -5 86 -20.5t62.5 -38t40 -50.5t17.5 -59h-99q-5 28 -30 53.5t-77 33.5
v-229q43 -8 84.5 -21t74 -37.5t52.5 -62t20 -92.5q0 -84 -59 -139t-172 -65v-86h-80v86zM478 185q0 30 -8.5 50.5t-25.5 35t-41.5 23.5t-57.5 16v-243q69 8 101 39.5t32 78.5zM147 530q0 -48 29.5 -72.5t88.5 -38.5v214q-33 -5 -55.5 -15t-36.5 -24.5t-20 -31t-6 -32.5z" />
    <glyph glyph-name="percent.tf" horiz-adv-x="610" 
d="M475 470v-70l-340 -170v70zM115 555q0 -53 19.5 -76.5t45.5 -23.5t45.5 23.5t19.5 76.5t-19.5 76.5t-45.5 23.5t-45.5 -23.5t-19.5 -76.5zM310 555q0 -72 -35 -113.5t-95 -41.5t-95 41.5t-35 113.5t35 113.5t95 41.5t95 -41.5t35 -113.5zM365 145q0 -53 19.5 -76.5
t45.5 -23.5t45.5 23.5t19.5 76.5t-19.5 76.5t-45.5 23.5t-45.5 -23.5t-19.5 -76.5zM560 145q0 -72 -35 -113.5t-95 -41.5t-95 41.5t-35 113.5t35 113.5t95 41.5t95 -41.5t35 -113.5z" />
    <glyph glyph-name="plus.tf" horiz-adv-x="610" 
d="M50 390h215v220h80v-220h215v-80h-215v-220h-80v220h-215v80z" />
    <glyph glyph-name="zero.tf" horiz-adv-x="610" 
d="M140 350q0 -143 43 -211.5t122 -68.5t122 68.5t43 211.5t-43 211.5t-122 68.5t-122 -68.5t-43 -211.5zM570 350q0 -99 -20.5 -168.5t-56 -113t-84 -63.5t-104.5 -20t-104.5 20t-84 63.5t-56 113t-20.5 168.5t20.5 168.5t56 113t84 63.5t104.5 20t104.5 -20t84 -63.5
t56 -113t20.5 -168.5z" />
    <glyph glyph-name="one.tf" horiz-adv-x="610" 
d="M284 85v495l-155 -160v125l155 155h100v-615h175v-85h-490v85h215z" />
    <glyph glyph-name="two.tf" horiz-adv-x="610" 
d="M71 530q4 45 22.5 79.5t49 58t71 35.5t87.5 12q51 0 92.5 -14.5t71 -40t45.5 -61.5t16 -79q0 -33 -5.5 -61t-19 -54.5t-35 -53t-52.5 -56.5l-218 -210h345v-85h-470v85l275 275q42 42 61 77.5t19 77.5q0 49 -30.5 82t-94.5 33q-57 0 -91.5 -25.5t-37.5 -74.5h-101z" />
    <glyph glyph-name="three.tf" horiz-adv-x="610" 
d="M242 415h55q57 0 91 28t34 77t-32.5 79.5t-92.5 30.5q-30 0 -52.5 -8t-37.5 -20t-23 -27t-10 -30h-102q4 36 21 67t46.5 54t69 36t88.5 13q51 0 92.5 -14t71 -39.5t45.5 -60.5t16 -76q0 -45 -21.5 -82t-63.5 -63q60 -26 85 -75t25 -105q0 -47 -18 -86.5t-51 -68
t-79 -44.5t-102 -16q-58 0 -102 15t-74.5 40t-47.5 58.5t-21 71.5h101q3 -21 12.5 -40t27 -33.5t43 -23t61.5 -8.5q37 0 65.5 11t47 30t28 43.5t9.5 50.5q0 60 -35 95t-110 35h-60v85z" />
    <glyph glyph-name="four.tf" horiz-adv-x="610" 
d="M363 700h105v-475h100v-85h-100v-140h-100v140h-340v85zM368 225v130v71.5t1 55.5t2 47t3 46h-4q-10 -17 -21 -35.5t-27 -42.5l-37 -55.5t-51 -73.5l-101 -143h235z" />
    <glyph glyph-name="five.tf" horiz-adv-x="610" 
d="M72 315l25 385h415v-85h-320l-13 -185q21 25 58.5 42.5t94.5 17.5q58 0 100.5 -19.5t70 -53t41 -79.5t13.5 -98q0 -54 -16.5 -101t-49 -81t-80 -53.5t-109.5 -19.5q-49 0 -89.5 13.5t-71.5 38t-51.5 58.5t-27.5 75h103q8 -42 44 -71t93 -29q41 0 70.5 14t48 37.5t27.5 54
t9 64.5q0 36 -8 67t-25 54t-45 36t-67 13q-53 0 -90 -25.5t-51 -69.5h-99z" />
    <glyph glyph-name="six.tf" horiz-adv-x="610" 
d="M320 715q83 0 140.5 -41t74.5 -109h-109q-11 28 -36 46.5t-70 18.5q-79 0 -117.5 -63t-42.5 -172q23 34 67 59.5t108 25.5q54 0 97 -18.5t72.5 -51t45 -76t15.5 -94.5q0 -54 -18.5 -101t-51.5 -81t-78 -53.5t-97 -19.5q-77 0 -128 30.5t-81.5 81.5t-43 116.5t-12.5 136.5
q0 101 21 171t57 113t84.5 62t102.5 19zM320 70q36 0 63 14t45 37t27.5 52.5t9.5 61.5t-8.5 61t-26.5 51t-45.5 35t-64.5 13q-36 0 -63.5 -13t-47 -35t-29.5 -51t-10 -61t9.5 -61.5t28 -52.5t46.5 -37t66 -14z" />
    <glyph glyph-name="seven.tf" horiz-adv-x="610" 
d="M229 0h-106l314 615h-364v85h470v-85z" />
    <glyph glyph-name="eight.tf" horiz-adv-x="610" 
d="M305 -15q-53 0 -99 15t-81 43t-55 66.5t-20 85.5q0 36 9.5 65t26 51.5t38.5 38.5t46 25q-45 23 -70 64t-25 86q0 43 17.5 78t48.5 60t73 38.5t91 13.5t91 -13.5t73 -38.5t48.5 -60t17.5 -78q0 -45 -25 -86t-70 -64q24 -9 46 -25t38.5 -38.5t26 -51.5t9.5 -65
q0 -47 -19.5 -85.5t-53.5 -66.5t-81 -43t-101 -15zM305 330q-38 0 -66.5 -10.5t-48.5 -28.5t-30 -41.5t-10 -49.5q0 -28 10 -52.5t30 -43t48.5 -29t66.5 -10.5q37 0 66 10.5t49 29t30 43t10 52.5q0 26 -10 49.5t-30 41.5t-49 28.5t-66 10.5zM305 635q-64 0 -99.5 -31
t-35.5 -84q0 -49 37.5 -79.5t97.5 -30.5t97.5 30.5t37.5 79.5q0 53 -35.5 84t-99.5 31z" />
    <glyph glyph-name="nine.tf" horiz-adv-x="610" 
d="M290 -15q-83 0 -140.5 41t-74.5 109h109q11 -28 36 -46.5t70 -18.5q79 0 117.5 63t42.5 172q-23 -34 -67 -59.5t-108 -25.5q-54 0 -97 19.5t-72.5 52.5t-45 77.5t-15.5 95.5q0 54 18.5 100t51.5 79.5t77.5 52t97.5 18.5q79 0 130.5 -30.5t81.5 -81.5t41.5 -117t11.5 -136
q0 -101 -21 -171t-57 -113t-84.5 -62t-102.5 -19zM290 630q-36 0 -63 -13t-45 -35t-27.5 -51t-9.5 -61t8.5 -61.5t26.5 -52.5t45 -37t65 -14q36 0 63.5 14t47 37t29.5 52.5t10 61.5t-9.5 61t-28 51t-47 35t-65.5 13z" />
    <glyph glyph-name="less.tf" horiz-adv-x="610" 
d="M506 600v-90l-355 -160l355 -160v-90l-440 210v80z" />
    <glyph glyph-name="equal.tf" horiz-adv-x="610" 
d="M85 495h440v-80h-440v80zM85 285h440v-80h-440v80z" />
    <glyph glyph-name="greater.tf" horiz-adv-x="610" 
d="M544 390v-80l-440 -210v90l355 160l-355 160v90z" />
    <glyph glyph-name="asciicircum.tf" horiz-adv-x="610" 
d="M265 700h80l190 -440h-87l-143 345l-143 -345h-87z" />
    <glyph glyph-name="asciitilde.tf" horiz-adv-x="610" 
d="M64 285q0 64 36 104.5t104 40.5q37 0 68 -13.5t57 -29t49 -29t46 -13.5q55 0 55 70h75q0 -64 -36 -104.5t-104 -40.5q-38 0 -68.5 13.5t-56.5 29t-49.5 29t-45.5 13.5q-55 0 -55 -70h-75z" />
    <glyph glyph-name="cent.tf" horiz-adv-x="610" 
d="M279 -12q-51 8 -91.5 31.5t-69 59.5t-44 82t-15.5 99q0 52 15.5 98.5t44 82.5t69 59.5t91.5 31.5v88h80v-87q81 -8 130.5 -50.5t69.5 -107.5h-102q-11 31 -35.5 51t-62.5 26v-384q75 12 98 77h102q-20 -65 -69.5 -107.5t-130.5 -50.5v-87h-80v88zM155 260q0 -34 8 -65
t24 -56t39 -43t53 -25v378q-61 -16 -92.5 -69t-31.5 -120z" />
    <glyph glyph-name="sterling.tf" horiz-adv-x="610" 
d="M324 635q-60 0 -94.5 -35t-34.5 -95q0 -25 5.5 -47.5t14.5 -43t20 -40t22 -39.5h232v-80h-200q6 -24 6 -50q0 -45 -17 -75.5t-43 -49.5h325v-80h-498v80q28 0 53.5 7.5t44.5 22.5t30.5 37.5t11.5 52.5q0 14 -2.5 27.5t-7.5 27.5h-123v80h83q-20 37 -37.5 78.5t-17.5 96.5
q0 49 18.5 87t49.5 64t72.5 40t86.5 14q51 0 89.5 -14t65.5 -37.5t43 -54t22 -64.5h-99q-5 35 -35 62.5t-86 27.5z" />
    <glyph glyph-name="currency.tf" horiz-adv-x="610" 
d="M181 260q0 -28 9.5 -52t26 -41t39.5 -27t49 -10t49 10t39.5 27t26 41t9.5 52t-9.5 52t-26 41t-39.5 27t-49 10t-49 -10t-39.5 -27t-26 -41t-9.5 -52zM525 260q0 -34 -10 -65t-28 -57l93 -93l-60 -60l-95 95q-53 -35 -120 -35t-120 35l-95 -95l-60 60l93 93q-18 26 -28 57
t-10 65t10 65t28 57l-93 93l60 60l95 -95q53 35 120 35t120 -35l95 95l60 -60l-93 -93q18 -26 28 -57t10 -65z" />
    <glyph glyph-name="yen.tf" horiz-adv-x="610" 
d="M315 395l157 305h107l-165 -305h110v-80h-153l-17 -30v-30h130v-80h-130v-175h-98v175h-130v80h130v30l-17 30h-153v80h110l-165 305h107l157 -305h20z" />
    <glyph glyph-name="section.tf" horiz-adv-x="610" 
d="M32 280q0 47 27.5 83.5t71.5 53.5q-26 22 -42.5 52.5t-16.5 75.5q0 36 17 67t47.5 54t73 36t93.5 13q103 0 162.5 -45.5t68.5 -124.5h-97q-3 19 -11.5 35.5t-24.5 28.5t-40 19t-58 7q-64 0 -99.5 -26t-35.5 -64q0 -28 14 -46.5t37 -31t52.5 -19.5t61.5 -13
q43 -8 87 -19.5t79 -33t57.5 -56t22.5 -86.5q0 -48 -28 -84.5t-71 -53.5q26 -21 42.5 -52t16.5 -75q0 -36 -17 -67t-47.5 -54t-73 -36t-93.5 -13q-103 0 -162.5 45.5t-68.5 124.5h97q3 -19 11.5 -35.5t24.5 -28.5t40 -19t58 -7q64 0 99.5 26t35.5 64q0 28 -14 46.5t-37 31
t-52.5 19.5t-61.5 13q-43 7 -87 19t-79 33.5t-57.5 55.5t-22.5 87zM298 350q-23 5 -48.5 11.5t-50.5 17.5q-32 -12 -51.5 -36t-19.5 -53q0 -36 16 -56t42.5 -32t59.5 -18.5t67 -13.5q23 -5 48 -11.5t51 -17.5q32 12 51.5 36t19.5 53q0 36 -16.5 56t-42.5 32t-59 18t-67 14z
" />
    <glyph glyph-name="logicalnot.tf" horiz-adv-x="610" 
d="M457 380h-400v80h480v-220h-80v140z" />
    <glyph glyph-name="degree.tf" horiz-adv-x="610" 
d="M170 505q0 -30 10 -55.5t27.5 -44.5t42.5 -29.5t55 -10.5t55 10.5t42.5 29.5t27.5 44.5t10 55.5t-10 55.5t-27.5 44.5t-42.5 29.5t-55 10.5t-55 -10.5t-42.5 -29.5t-27.5 -44.5t-10 -55.5zM520 505q0 -43 -16 -81.5t-44.5 -67t-68 -45t-86.5 -16.5t-86.5 16.5t-68 45
t-44.5 67t-16 81.5t16 81.5t44.5 67t68 45t86.5 16.5t86.5 -16.5t68 -45t44.5 -67t16 -81.5z" />
    <glyph glyph-name="plusminus.tf" horiz-adv-x="610" 
d="M85 480h180v130h80v-130h180v-80h-180v-130h-80v130h-180v80zM85 170h440v-80h-440v80z" />
    <glyph glyph-name="multiply.tf" horiz-adv-x="610" 
d="M535 176l-56 -56l-174 174l-174 -174l-56 56l174 174l-174 174l56 56l174 -174l174 174l56 -56l-174 -174z" />
    <glyph glyph-name="divide.tf" horiz-adv-x="610" 
d="M65 390h480v-80h-480v80zM245 595h120v-125h-120v125zM245 230h120v-125h-120v125z" />
    <glyph glyph-name="florin.tf" horiz-adv-x="610" 
d="M248 440h-128v80h142l11 60q12 64 44.5 92t96.5 28h86v-80h-79q-26 0 -35.5 -10.5t-13.5 -29.5l-11 -60h139v-80h-153l-88 -500q-11 -64 -44 -92t-97 -28h-68v80h61q26 0 35.5 10.5t13.5 29.5z" />
    <glyph glyph-name="uni2007.tf" horiz-adv-x="610" 
 />
    <glyph glyph-name="perthousand.tf" horiz-adv-x="610" 
d="M379 40q-16 -23 -40.5 -36.5t-56.5 -13.5q-60 0 -95 41.5t-35 113.5t35 113.5t95 41.5q32 0 56.5 -13.5t40.5 -36.5h1q16 23 40.5 36.5t56.5 13.5q60 0 95 -41.5t35 -113.5t-35 -113.5t-95 -41.5q-32 0 -56.5 13.5t-40.5 36.5h-1zM267 555q0 -72 -35 -113.5t-95 -41.5
t-95 41.5t-35 113.5t35 113.5t95 41.5t95 -41.5t35 -113.5zM377 470v-70l-340 -170v70zM72 555q0 -53 19.5 -76.5t45.5 -23.5t45.5 23.5t19.5 76.5t-19.5 76.5t-45.5 23.5t-45.5 -23.5t-19.5 -76.5zM217 145q0 -53 19.5 -76.5t45.5 -23.5t45.5 23.5t19.5 76.5t-19.5 76.5
t-45.5 23.5t-45.5 -23.5t-19.5 -76.5zM542 145q0 53 -19.5 76.5t-45.5 23.5t-45.5 -23.5t-19.5 -76.5t19.5 -76.5t45.5 -23.5t45.5 23.5t19.5 76.5z" />
    <glyph glyph-name="Euro.tf" horiz-adv-x="610" 
d="M183 385q-1 -11 -1 -18.5v-16.5v-17t1 -18h223l-31 -80h-182q16 -75 58 -122.5t115 -47.5q57 0 89.5 25.5t39.5 59.5h103q-23 -88 -86 -126.5t-146 -38.5q-60 0 -106.5 18.5t-80 51.5t-54.5 79t-31 101h-88v80h79q-1 10 -1 18v17v16.5t1 18.5h-79v80h87q10 55 31.5 101
t55 79t80 51.5t106.5 18.5q83 0 146 -38.5t86 -126.5h-103q-7 34 -39.5 59.5t-89.5 25.5q-73 0 -115 -47t-58 -123h272l-31 -80h-251z" />
    <glyph glyph-name="minus.tf" horiz-adv-x="610" 
d="M65 390h480v-80h-480v80z" />
    <glyph glyph-name="approxequal.tf" horiz-adv-x="610" 
d="M64 390q0 64 36 104.5t104 40.5q37 0 68 -13.5t57 -29t49 -29t46 -13.5q55 0 55 70h75q0 -64 -36 -104.5t-104 -40.5q-38 0 -68.5 13.5t-56.5 29t-49.5 29t-45.5 13.5q-55 0 -55 -70h-75zM64 180q0 64 36 104.5t104 40.5q37 0 68 -13.5t57 -29t49 -29t46 -13.5
q55 0 55 70h75q0 -64 -36 -104.5t-104 -40.5q-38 0 -68.5 13.5t-56.5 29t-49.5 29t-45.5 13.5q-55 0 -55 -70h-75z" />
    <glyph glyph-name="notequal.tf" horiz-adv-x="610" 
d="M85 495h250l60 115h90l-60 -115h100v-80h-141l-68 -130h209v-80h-250l-60 -115h-90l60 115h-100v80h141l68 130h-209v80z" />
    <glyph glyph-name="lessequal.tf" horiz-adv-x="610" 
d="M519 600v-82l-335 -98l335 -98v-82l-440 137v86zM79 170h440v-80h-440v80z" />
    <glyph glyph-name="greaterequal.tf" horiz-adv-x="610" 
d="M531 463v-86l-440 -137v82l335 98l-335 98v82zM531 90h-440v80h440v-80z" />
    <glyph glyph-name="x.ss20.tf" horiz-adv-x="610" 
d="M535 176l-56 -56l-174 174l-174 -174l-56 56l174 174l-174 174l56 56l174 -174l174 174l56 -56l-174 -174z" />
    <glyph glyph-name="orn001.case" 
d="M55 330v40h700v-40h-700z" />
    <glyph glyph-name="orn002.case" 
d="M385 700h40v-700h-40v700z" />
    <glyph glyph-name="orn003.case" 
d="M425 330v-330h-40v700h40v-330h330v-40h-330z" />
    <glyph glyph-name="orn004.case" 
d="M425 0h-40v330h-330v40h330v330h40v-700z" />
    <glyph glyph-name="orn005.case" 
d="M425 330v-330h-40v330h-330v40h700v-40h-330z" />
    <glyph glyph-name="orn006.case" 
d="M55 330v40h330v330h40v-330h330v-40h-700z" />
    <glyph glyph-name="orn007.case" 
d="M425 330v-330h-40v330h-330v40h330v330h40v-330h330v-40h-330z" />
    <glyph glyph-name="orn008.case" 
d="M55 28l672 672l28 -28l-672 -672z" />
    <glyph glyph-name="orn009.case" 
d="M55 672l28 28l672 -672l-28 -28z" />
    <glyph glyph-name="orn010.case" 
d="M55 28l322 322l-322 322l28 28l322 -322l322 322l28 -28l-322 -322l322 -322l-28 -28l-322 322l-322 -322z" />
    <glyph glyph-name="orn011.case" horiz-adv-x="700" 
d="M0 0v700h40v-330h660v-40h-660v-330h-40z" />
    <glyph glyph-name="orn012.case" horiz-adv-x="700" 
d="M660 0v330h-660v40h660v330h40v-700h-40z" />
    <glyph glyph-name="orn013.case" horiz-adv-x="40" 
d="M0 0v700h40v-700h-40z" />
    <glyph glyph-name="orn014.case" horiz-adv-x="20" 
d="M-20 0v700h40v-700h-40z" />
    <glyph glyph-name="orn015.case" horiz-adv-x="20" 
d="M0 0v700h40v-700h-40z" />
    <glyph glyph-name="orn016.case" horiz-adv-x="56" 
d="M350 700l28 -28l-322 -322l322 -322l-28 -28l-350 350z" />
    <glyph glyph-name="orn017.case" horiz-adv-x="56" 
d="M56 350l-350 -350l-28 28l322 322l-322 322l28 28z" />
    <glyph glyph-name="orn018.case" horiz-adv-x="175" 
d="M-175 350q0 36 13.5 68t37.5 56t56 37.5t68 13.5t68 -13.5t56 -37.5t37.5 -56t13.5 -68t-13.5 -68t-37.5 -56t-56 -37.5t-68 -13.5t-68 13.5t-56 37.5t-37.5 56t-13.5 68z" />
    <glyph glyph-name="orn019.case" horiz-adv-x="175" 
d="M0 350q0 36 13.5 68t37.5 56t56 37.5t68 13.5t68 -13.5t56 -37.5t37.5 -56t13.5 -68t-13.5 -68t-37.5 -56t-56 -37.5t-68 -13.5t-68 13.5t-56 37.5t-37.5 56t-13.5 68z" />
    <glyph glyph-name="orn020.case" horiz-adv-x="440" 
d="M700 90l-700 260l700 260l-260 -260z" />
    <glyph glyph-name="orn021.case" horiz-adv-x="440" 
d="M0 350l-260 260l700 -260l-700 -260z" />
    <glyph glyph-name="parenleft.case" horiz-adv-x="296" 
d="M42 350q0 35 4 64t14.5 63t27.5 78.5t44 110.5l50 124h80l-50 -150q-21 -62 -34.5 -103.5t-21.5 -73t-11 -57.5t-3 -56t3 -56t11 -57.5t21.5 -73t34.5 -103.5l50 -150h-80l-50 124q-27 66 -44 110.5t-27.5 78.5t-14.5 63t-4 64z" />
    <glyph glyph-name="parenright.case" horiz-adv-x="296" 
d="M254 350q0 -35 -4 -64t-14.5 -63t-27.5 -78.5t-44 -110.5l-50 -124h-80l50 150q21 62 34.5 103.5t21.5 73t11 57.5t3 56t-3 56t-11 57.5t-21.5 73t-34.5 103.5l-50 150h80l50 -124q27 -66 44 -110.5t27.5 -78.5t14.5 -63t4 -64z" />
    <glyph glyph-name="hyphen.case" horiz-adv-x="402" 
d="M66 390h270v-80h-270v80z" />
    </font>
</defs>
</svg>
