<?xml version="1.0" standalone="no"?>
<!DOCTYPE svg PUBLIC "-//W3C//DTD SVG 1.1//EN" "http://www.w3.org/Graphics/SVG/1.1/DTD/svg11.dtd" >
<svg xmlns="http://www.w3.org/2000/svg" xmlns:xlink="http://www.w3.org/1999/xlink" version="1.1">
<metadata>
Created by FontForge 20170731 at Thu Feb 16 14:35:53 2017
 By Aleksey,,,
(c) 2016, Copyright by Lineto. All rights reserved.
</metadata>
<defs>
<font id="RiformaLL-Heavy" horiz-adv-x="810" >
  <font-face 
    font-family="Riforma LL Heavy"
    font-weight="850"
    font-stretch="normal"
    units-per-em="1000"
    panose-1="2 11 10 4 2 1 1 2 1 2"
    ascent="700"
    descent="-300"
    x-height="520"
    cap-height="700"
    bbox="-395 -270 1522 930"
    underline-thickness="40"
    underline-position="-180"
    unicode-range="U+000D-1F310"
  />
<missing-glyph horiz-adv-x="680" 
d="M610 0h-540v700h540v-700zM110 660v-620h460v620h-460z" />
    <glyph glyph-name="f_f" unicode="ff" horiz-adv-x="835" 
d="M495 0v380h-180v-380h-180v380h-125v140h125v20q0 82 48 121t132 39h120v-130h-90q-30 0 -30 -30v-20h180v20q0 82 48 121t132 39h150v-130h-120q-30 0 -30 -30v-20h150v-140h-150v-380h-180z" />
    <glyph glyph-name="f_f_i" unicode="ffi" horiz-adv-x="1089" 
d="M675 520h360v-520h-180v380h-180v-380h-180v380h-180v-380h-180v380h-125v140h125v20q0 82 48 121t132 39h120v-130h-90q-30 0 -30 -30v-20h180v20q0 82 48 121t132 39h120v-130h-90q-30 0 -30 -30v-20zM855 570v130h180v-130h-180z" />
    <glyph glyph-name="f_f_l" unicode="ffl" horiz-adv-x="1089" 
d="M675 520h180v180h180v-700h-180v380h-180v-380h-180v380h-180v-380h-180v380h-125v140h125v20q0 82 48 121t132 39h120v-130h-90q-30 0 -30 -30v-20h180v20q0 82 48 121t132 39h120v-130h-90q-30 0 -30 -30v-20z" />
    <glyph glyph-name="f_i" unicode="fi" horiz-adv-x="729" 
d="M495 570v130h180v-130h-180zM495 0v380h-180v-380h-180v380h-125v140h125v20q0 82 48 121t132 39h120v-130h-90q-30 0 -30 -30v-20h360v-520h-180z" />
    <glyph glyph-name="f_l" unicode="fl" horiz-adv-x="729" 
d="M495 0v380h-180v-380h-180v380h-125v140h125v20q0 82 48 121t132 39h120v-130h-90q-30 0 -30 -30v-20h180v180h180v-700h-180z" />
    <glyph glyph-name=".notdef" horiz-adv-x="680" 
d="M610 0h-540v700h540v-700zM110 660v-620h460v620h-460z" />
    <glyph glyph-name=".null" horiz-adv-x="0" 
 />
    <glyph glyph-name="uni000D" unicode="&#xd;" horiz-adv-x="212" 
 />
    <glyph glyph-name="space" unicode=" " horiz-adv-x="212" 
 />
    <glyph glyph-name="exclam" unicode="!" horiz-adv-x="314" 
d="M52 0v180h210v-180h-210zM252 460l-35 -210h-120l-35 210v240h190v-240z" />
    <glyph glyph-name="quotedbl" unicode="&#x22;" horiz-adv-x="497" 
d="M56 320v380h175v-205zM291 320v380h175v-205z" />
    <glyph glyph-name="numbersign" unicode="#" horiz-adv-x="882" 
d="M396 0l40 160h-85l-40 -160h-180l40 160h-145l35 140h145l25 100h-145l35 140h145l40 160h180l-40 -160h85l40 160h180l-40 -160h145l-35 -140h-145l-25 -100h145l-35 -140h-145l-40 -160h-180zM411 400l-25 -100h85l25 100h-85z" />
    <glyph glyph-name="dollar" unicode="$" horiz-adv-x="657" 
d="M259 -100v89q-111 15 -167 72.5t-63 138.5h181q7 -45 33.5 -65t85.5 -20q69 0 94.5 20t25.5 55q0 37 -25.5 52t-94.5 23q-285 32 -285 240q0 75 54.5 132.5t160.5 72.5v90h140v-90q98 -15 148 -67.5t57 -127.5h-181q-6 70 -94 70q-105 0 -105 -70q0 -34 30.5 -54.5
t124.5 -30.5q131 -15 190.5 -71.5t59.5 -153.5q0 -85 -57 -143.5t-173 -72.5v-89h-140z" />
    <glyph glyph-name="percent" unicode="%" horiz-adv-x="955" 
d="M143 495q0 -120 60 -120t60 120t-60 120t-60 -120zM383 495q0 -110 -49.5 -162.5t-130.5 -52.5t-130.5 52.5t-49.5 162.5t49.5 162.5t130.5 52.5t130.5 -52.5t49.5 -162.5zM216 0l390 700h132l-390 -700h-132zM692 205q0 -120 60 -120t60 120t-60 120t-60 -120zM932 205
q0 -110 -49.5 -162.5t-130.5 -52.5t-130.5 52.5t-49.5 162.5t49.5 162.5t130.5 52.5t130.5 -52.5t49.5 -162.5z" />
    <glyph glyph-name="ampersand" unicode="&#x26;" horiz-adv-x="798" 
d="M637 160l160 -160h-235l-44 44q-92 -59 -206 -59q-131 0 -208 66.5t-77 163.5q0 131 135 190q-50 64 -50 140q0 71 57 120.5t158 49.5t155.5 -51.5t54.5 -118.5q0 -57 -25.5 -98.5t-84.5 -76.5l91 -91l64 91h205zM202 210q0 -40 28 -65t82 -25q53 0 98 32l-148 148
q-33 -16 -46.5 -36.5t-13.5 -53.5zM327 585q-45 0 -45 -40q0 -19 10 -34.5t33 -39.5q47 30 47 74q0 40 -45 40z" />
    <glyph glyph-name="quotesingle" unicode="'" horiz-adv-x="262" 
d="M56 320v380h175v-205z" />
    <glyph glyph-name="parenleft" unicode="(" horiz-adv-x="357" 
d="M216 260q0 -56 12.5 -105.5t57.5 -184.5l50 -150h-149l-51 109q-67 142 -88.5 203t-21.5 128t21.5 128t88.5 203l51 109h149l-50 -150q-45 -135 -57.5 -184.5t-12.5 -105.5z" />
    <glyph glyph-name="parenright" unicode=")" horiz-adv-x="357" 
d="M141 260q0 56 -12.5 105.5t-57.5 184.5l-50 150h149l51 -109q67 -142 88.5 -203t21.5 -128t-21.5 -128t-88.5 -203l-51 -109h-149l50 150q45 135 57.5 184.5t12.5 105.5z" />
    <glyph glyph-name="asterisk" unicode="*" horiz-adv-x="474" 
d="M106 654l111 -111v157h40v-157l111 111l28 -28l-111 -111h157v-40h-157l111 -111l-28 -28l-111 111v-157h-40v157l-111 -111l-28 28l111 111h-157v40h157l-111 111z" />
    <glyph glyph-name="plus" unicode="+" horiz-adv-x="600" 
d="M30 280v140h200v190h140v-190h200v-140h-200v-190h-140v190h-200z" />
    <glyph glyph-name="comma" unicode="," horiz-adv-x="312" 
d="M51 0v180h210v-180l-110 -180h-90l70 180h-80z" />
    <glyph glyph-name="hyphen" unicode="-" horiz-adv-x="462" 
d="M51 190v140h360v-140h-360z" />
    <glyph glyph-name="period" unicode="." horiz-adv-x="312" 
d="M51 0v180h210v-180h-210z" />
    <glyph glyph-name="slash" unicode="/" horiz-adv-x="638" 
d="M16 0l405 700h199l-405 -700h-199z" />
    <glyph glyph-name="zero" unicode="0" horiz-adv-x="656" 
d="M228 350q0 -113 25.5 -159t74.5 -46t74.5 46t25.5 159t-25.5 159t-74.5 46t-74.5 -46t-25.5 -159zM618 350q0 -189 -78.5 -277t-211.5 -88t-211.5 88t-78.5 277t78.5 277t211.5 88t211.5 -88t78.5 -277z" />
    <glyph glyph-name="one" unicode="1" horiz-adv-x="461" 
d="M391 0h-190v470l-170 -175v235l170 170h190v-700z" />
    <glyph glyph-name="two" unicode="2" horiz-adv-x="608" 
d="M231 500h-193q8 93 77.5 154t182.5 61q118 0 186.5 -61.5t68.5 -148.5q0 -76 -30.5 -129.5t-97.5 -109.5l-127 -106h270v-160h-530v160l260 230q65 58 65 110q0 65 -65 65q-28 0 -46.5 -16.5t-20.5 -48.5z" />
    <glyph glyph-name="three" unicode="3" horiz-adv-x="607" 
d="M237 300v145h55q32 0 48.5 18.5t16.5 46.5q0 60 -60 60t-67 -55h-193q8 83 73.5 141.5t181.5 58.5q119 0 187 -55.5t68 -134.5q0 -103 -85 -145q110 -37 110 -165q0 -98 -75 -164t-205 -66q-129 0 -198 63t-77 152h192q8 -70 83 -70q47 0 71 23t24 62t-23 62t-67 23h-60z
" />
    <glyph glyph-name="four" unicode="4" horiz-adv-x="664" 
d="M18 270l305 430h210v-430h100v-160h-100v-110h-190v110h-325v160zM208 270h135v45q0 93 8 180h-6q-37 -73 -97 -164z" />
    <glyph glyph-name="five" unicode="5" horiz-adv-x="627" 
d="M228 285h-183l27 415h475v-150h-300l-7 -100q43 40 122 40q106 0 168 -68.5t62 -176.5q0 -113 -75.5 -186.5t-209.5 -73.5q-110 0 -182.5 59.5t-87.5 155.5h195q4 -28 24.5 -46.5t55.5 -18.5q39 0 64.5 27.5t25.5 77.5q0 105 -85 105q-70 0 -89 -60z" />
    <glyph glyph-name="six" unicode="6" horiz-adv-x="641" 
d="M333 715q100 0 164 -48t81 -132h-195q-2 17 -17.5 28.5t-37.5 11.5q-91 0 -95 -150q48 55 135 55q107 0 173.5 -68.5t66.5 -171.5q0 -110 -76.5 -182.5t-198.5 -72.5q-82 0 -141 29t-91.5 81t-47.5 115t-15 140q0 192 79 278.5t216 86.5zM333 120q38 0 64 32t26 83
q0 52 -24 81t-66 29q-40 0 -67.5 -28.5t-27.5 -81.5q0 -52 26.5 -83.5t68.5 -31.5z" />
    <glyph glyph-name="seven" unicode="7" horiz-adv-x="567" 
d="M547 540l-293 -540h-202l292 540h-327v160h530v-160z" />
    <glyph glyph-name="eight" unicode="8" horiz-adv-x="640" 
d="M320 -15q-129 0 -207 62t-78 158q0 124 115 170q-42 19 -66 55.5t-24 84.5q0 88 71 144t189 56t189 -56t71 -144q0 -48 -24 -84.5t-66 -55.5q115 -46 115 -170q0 -96 -78 -158t-207 -62zM220 215q0 -44 27 -67t73 -23t73 23t27 67q0 42 -26 66t-74 24q-46 0 -73 -23
t-27 -67zM240 505q0 -35 23.5 -52.5t56.5 -17.5t56.5 17.5t23.5 52.5q0 36 -22 53t-58 17t-58 -17t-22 -53z" />
    <glyph glyph-name="nine" unicode="9" horiz-adv-x="643" 
d="M304 -15q-100 0 -164 48t-81 132h195q2 -17 17.5 -28.5t37.5 -11.5q40 0 69 34t31 116q-50 -55 -135 -55q-107 0 -173.5 70.5t-66.5 174.5q0 110 76 180t199 70q295 0 295 -365q0 -191 -81 -278t-219 -87zM309 580q-39 0 -64.5 -29.5t-25.5 -80.5q0 -53 24.5 -84
t65.5 -31q40 0 67.5 30.5t27.5 84.5q0 51 -26.5 80.5t-68.5 29.5z" />
    <glyph glyph-name="colon" unicode=":" horiz-adv-x="314" 
d="M52 0v180h210v-180h-210zM52 340v180h210v-180h-210z" />
    <glyph glyph-name="semicolon" unicode=";" horiz-adv-x="314" 
d="M52 340v180h210v-180h-210zM52 0v180h210v-180l-110 -180h-90l70 180h-80z" />
    <glyph glyph-name="less" unicode="&#x3c;" horiz-adv-x="588" 
d="M29 420l500 210v-150l-325 -130l325 -130v-150l-500 210v140z" />
    <glyph glyph-name="equal" unicode="=" horiz-adv-x="608" 
d="M54 400v140h500v-140h-500zM54 160v140h500v-140h-500z" />
    <glyph glyph-name="greater" unicode="&#x3e;" horiz-adv-x="588" 
d="M59 630l500 -210v-140l-500 -210v150l325 130l-325 130v150z" />
    <glyph glyph-name="question" unicode="?" horiz-adv-x="552" 
d="M150 0v180h210v-180h-210zM215 515h-190q4 87 72.5 143.5t172.5 56.5q114 0 179.5 -56t65.5 -144q0 -48 -19 -83.5t-46.5 -55.5t-54.5 -37t-46 -38.5t-19 -50.5h-150q0 53 15 90.5t36 57t42.5 35t36.5 35.5t15 47q0 50 -55 50q-52 0 -55 -50z" />
    <glyph glyph-name="at" unicode="@" horiz-adv-x="948" 
d="M607 -37v-111q-66 -22 -140 -22q-180 0 -307.5 125t-127.5 305q0 184 126 307t314 123q190 0 315 -114t125 -296q0 -113 -54 -174t-131 -61q-87 0 -125 60q-56 -65 -155 -65q-87 0 -146 62t-59 158t59 158t146 62q65 0 105 -40v25h145v-255q0 -45 35 -45q24 0 39.5 29
t15.5 86q0 133 -89 216.5t-226 83.5q-135 0 -225 -92t-90 -228t89 -228t226 -92q64 0 135 23zM557 260q0 49 -22 77t-63 28q-39 0 -62 -27t-23 -78t23 -78t62 -27q41 0 63 28t22 77z" />
    <glyph glyph-name="A" unicode="A" horiz-adv-x="742" 
d="M556 0l-49 125h-272l-49 -125h-195l285 700h190l285 -700h-195zM445 285l-13 34q-29 76 -59 181h-4q-30 -105 -59 -181l-13 -34h148z" />
    <glyph glyph-name="B" unicode="B" horiz-adv-x="729" 
d="M470 0h-400v700h375q98 0 161.5 -55.5t63.5 -144.5q0 -79 -60 -130q85 -54 85 -160q0 -93 -59.5 -151.5t-165.5 -58.5zM260 160h185q65 0 65 60t-65 60h-185v-120zM260 430h165q60 0 60 55t-60 55h-165v-110z" />
    <glyph glyph-name="C" unicode="C" horiz-adv-x="736" 
d="M513 215h206q-29 -103 -111 -166.5t-214 -63.5q-166 0 -263 102t-97 263t97 263t263 102q126 0 207.5 -57.5t112.5 -157.5h-207q-25 60 -113 60q-85 0 -127.5 -58.5t-42.5 -151.5t42.5 -151.5t127.5 -58.5q95 0 119 75z" />
    <glyph glyph-name="D" unicode="D" horiz-adv-x="749" 
d="M715 350q0 -162 -93.5 -256t-246.5 -94h-305v700h305q153 0 246.5 -94t93.5 -256zM525 350q0 190 -160 190h-105v-380h105q160 0 160 190z" />
    <glyph glyph-name="E" unicode="E" horiz-adv-x="669" 
d="M70 0v700h550v-160h-360v-105h340v-160h-340v-115h360v-160h-550z" />
    <glyph glyph-name="F" unicode="F" horiz-adv-x="655" 
d="M70 0v700h550v-160h-360v-115h340v-160h-340v-265h-190z" />
    <glyph glyph-name="G" unicode="G" horiz-adv-x="772" 
d="M394 560q-85 0 -127.5 -58.5t-42.5 -151.5q0 -92 41.5 -151t123.5 -59q125 0 150 100h-140v160h325v-400h-150l-11 55q-27 -32 -75 -51t-104 -19q-159 0 -254.5 102.5t-95.5 262.5q0 161 97 263t263 102q126 0 207.5 -57.5t112.5 -157.5h-207q-25 60 -113 60z" />
    <glyph glyph-name="H" unicode="H" horiz-adv-x="800" 
d="M730 700v-700h-190v275h-280v-275h-190v700h190v-265h280v265h190z" />
    <glyph glyph-name="I" unicode="I" horiz-adv-x="330" 
d="M260 0h-190v700h190v-700z" />
    <glyph glyph-name="J" unicode="J" horiz-adv-x="532" 
d="M21 160h163q47 0 71 29t24 76v435h190v-435q0 -130 -79.5 -197.5t-205.5 -67.5h-163v160z" />
    <glyph glyph-name="K" unicode="K" horiz-adv-x="767" 
d="M260 0h-190v700h190v-270l260 270h245l-340 -340l360 -360h-255l-270 280v-280z" />
    <glyph glyph-name="L" unicode="L" horiz-adv-x="609" 
d="M70 0v700h190v-540h340v-160h-530z" />
    <glyph glyph-name="M" unicode="M" horiz-adv-x="940" 
d="M470 0l-128 229q-36 64 -91 211h-4q13 -139 13 -220v-220h-190v700h230l86 -181q36 -76 84 -204q48 128 84 204l86 181h230v-700h-190v220q0 81 13 220h-4q-55 -147 -91 -211z" />
    <glyph glyph-name="N" unicode="N" 
d="M290 700l145 -226q63 -99 119 -219h4q-8 104 -8 230v215h190v-700h-220l-145 226q-63 99 -119 219h-4q8 -104 8 -230v-215h-190v700h220z" />
    <glyph glyph-name="O" unicode="O" horiz-adv-x="786" 
d="M223 350q0 -91 43.5 -148t126.5 -57t126.5 57t43.5 148t-43.5 148t-126.5 57t-126.5 -57t-43.5 -148zM753 350q0 -160 -98.5 -262.5t-261.5 -102.5t-261.5 102.5t-98.5 262.5t98.5 262.5t261.5 102.5t261.5 -102.5t98.5 -262.5z" />
    <glyph glyph-name="P" unicode="P" horiz-adv-x="737" 
d="M260 400h200q35 0 52.5 20.5t17.5 49.5t-17.5 49.5t-52.5 20.5h-200v-140zM470 240h-210v-240h-190v700h400q111 0 180.5 -65.5t69.5 -164.5t-69.5 -164.5t-180.5 -65.5z" />
    <glyph glyph-name="Q" unicode="Q" horiz-adv-x="795" 
d="M753 350q0 -143 -79 -241l109 -109h-215l-17 17q-72 -32 -158 -32q-163 0 -261.5 102.5t-98.5 262.5t98.5 262.5t261.5 102.5t261.5 -102.5t98.5 -262.5zM223 350q0 -91 43.5 -148t126.5 -57q13 0 28 2l-118 118h215l24 -24q21 48 21 109q0 91 -43.5 148t-126.5 57
t-126.5 -57t-43.5 -148z" />
    <glyph glyph-name="R" unicode="R" horiz-adv-x="762" 
d="M260 390h200q35 0 52.5 21t17.5 54t-17.5 54t-52.5 21h-200v-150zM508 242l242 -242h-245l-230 240h-15v-240h-190v700h400q111 0 180.5 -65.5t69.5 -164.5q0 -90 -58 -153t-154 -75z" />
    <glyph glyph-name="S" unicode="S" horiz-adv-x="684" 
d="M346 258l-30 4q-60 8 -105 22.5t-85.5 40t-61.5 68.5t-21 102q0 99 79 159.5t216 60.5q139 0 216.5 -62.5t83.5 -152.5h-190q-2 40 -27 60t-83 20q-110 0 -110 -63q0 -36 28 -49.5t94 -22.5l30 -4q48 -7 82.5 -14.5t73 -24t62 -39t39.5 -60.5t16 -88q0 -102 -84.5 -166
t-225.5 -64q-145 0 -228 62t-87 168h190q4 -95 125 -95q62 0 93.5 20t31.5 55q0 17 -8 28.5t-28.5 18t-35.5 9t-50 7.5z" />
    <glyph glyph-name="T" unicode="T" horiz-adv-x="650" 
d="M640 700v-160h-220v-540h-190v540h-220v160h630z" />
    <glyph glyph-name="U" unicode="U" horiz-adv-x="746" 
d="M373 -15q-138 0 -224 82t-86 198v435h190v-435q0 -57 34 -88.5t86 -31.5t86 31.5t34 88.5v435h190v-435q0 -116 -86 -198t-224 -82z" />
    <glyph glyph-name="V" unicode="V" horiz-adv-x="683" 
d="M399 425l90 275h195l-250 -700h-185l-250 700h195l90 -275q24 -74 56 -210h3q31 136 56 210z" />
    <glyph glyph-name="W" unicode="W" horiz-adv-x="1002" 
d="M341 455l65 245h190l65 -245q22 -82 43 -205h4q22 133 41 205l62 245h190l-200 -700h-190l-69 259q-19 72 -39 191h-4q-20 -119 -39 -191l-69 -259h-190l-200 700h190l62 -245q19 -72 41 -205h4q21 123 43 205z" />
    <glyph glyph-name="X" unicode="X" horiz-adv-x="698" 
d="M684 700l-230 -329l255 -371h-223l-140 212l-141 -212h-216l254 365l-229 335h223l115 -175l116 175h216z" />
    <glyph glyph-name="Y" unicode="Y" horiz-adv-x="658" 
d="M234 0v265l-235 435h200l130 -270l130 270h200l-235 -435v-265h-190z" />
    <glyph glyph-name="Z" unicode="Z" horiz-adv-x="662" 
d="M628 160v-160h-590v160l335 380h-325v160h565v-160l-335 -380h350z" />
    <glyph glyph-name="bracketleft" unicode="[" horiz-adv-x="405" 
d="M64 -180v880h315v-140h-135v-600h135v-140h-315z" />
    <glyph glyph-name="backslash" unicode="\" horiz-adv-x="638" 
d="M217 700l405 -700h-199l-405 700h199z" />
    <glyph glyph-name="bracketright" unicode="]" horiz-adv-x="405" 
d="M341 700v-880h-315v140h135v600h-135v140h315z" />
    <glyph glyph-name="asciicircum" unicode="^" horiz-adv-x="574" 
d="M27 260l190 440h140l190 -440h-150l-110 270l-110 -270h-150z" />
    <glyph glyph-name="underscore" unicode="_" horiz-adv-x="654" 
d="M37 -100v100h580v-100h-580z" />
    <glyph glyph-name="grave" unicode="`" horiz-adv-x="330" 
d="M230 700l80 -130h-170l-130 130h220z" />
    <glyph glyph-name="a" unicode="a" horiz-adv-x="609" 
d="M234 370h-185q17 82 84 123.5t171 41.5q112 0 183.5 -46t71.5 -144v-345h-180v47q-52 -62 -155 -62q-89 0 -144.5 45.5t-55.5 129.5q0 76 55 118.5t150 51.5l150 15q0 35 -15 52.5t-60 17.5q-63 0 -70 -45zM269 110q43 0 76.5 32.5t33.5 82.5v5l-117 -13q-58 -7 -58 -52
q0 -55 65 -55z" />
    <glyph glyph-name="b" unicode="b" horiz-adv-x="659" 
d="M234 55v-55h-180v700h180v-235q52 70 155 70q112 0 176 -78.5t64 -196.5t-64 -196.5t-176 -78.5q-103 0 -155 70zM339 125q44 0 77 30.5t33 104.5t-33 104.5t-77 30.5q-40 0 -75 -32.5t-35 -102.5t35 -102.5t75 -32.5z" />
    <glyph glyph-name="c" unicode="c" horiz-adv-x="579" 
d="M375 160h189q-22 -81 -87 -128t-168 -47q-133 0 -206.5 77t-73.5 198t73.5 198t206.5 77q99 0 162 -44t88 -121h-193q-10 35 -57 35q-38 0 -62 -24t-31 -54t-7 -67t7 -67t31 -54t62 -24q26 0 43.5 13t22.5 32z" />
    <glyph glyph-name="d" unicode="d" horiz-adv-x="659" 
d="M425 0v55q-52 -70 -155 -70q-112 0 -176 78.5t-64 196.5t64 196.5t176 78.5q103 0 155 -70v235h180v-700h-180zM320 125q40 0 75 32.5t35 102.5t-35 102.5t-75 32.5q-44 0 -77 -30.5t-33 -104.5t33 -104.5t77 -30.5z" />
    <glyph glyph-name="e" unicode="e" horiz-adv-x="611" 
d="M385 160h188q-20 -79 -86.5 -127t-173.5 -48q-130 0 -207.5 78t-77.5 197t76.5 197t203.5 78q101 0 166.5 -46.5t91.5 -127.5q17 -54 17 -126v-35h-370q4 -44 31.5 -69.5t68.5 -25.5q28 0 48 16t24 39zM308 415q-88 0 -95 -100h185q-7 100 -90 100z" />
    <glyph glyph-name="f" unicode="f" horiz-adv-x="475" 
d="M10 380v140h125v20q0 82 48 121t132 39h150v-130h-120q-30 0 -30 -30v-20h150v-140h-150v-380h-180v380h-125z" />
    <glyph glyph-name="g" unicode="g" horiz-adv-x="654" 
d="M210 275q0 -68 31 -99t74 -31q44 0 77 33.5t33 96.5t-33 96.5t-77 33.5q-41 0 -73 -33.5t-32 -96.5zM420 70v5q-48 -60 -150 -60q-108 0 -174 73t-66 187t66 187t174 73q102 0 150 -60v45h180v-450q0 -121 -81.5 -193t-203.5 -72q-99 0 -167 45t-83 120h183
q12 -40 67 -40q45 0 75 33.5t30 106.5z" />
    <glyph glyph-name="h" unicode="h" horiz-adv-x="658" 
d="M234 700v-235q53 70 150 70q104 0 164.5 -61t60.5 -169v-305h-180v295q0 95 -85 95q-53 0 -81.5 -33.5t-28.5 -91.5v-265h-180v700h180z" />
    <glyph glyph-name="i" unicode="i" horiz-adv-x="288" 
d="M54 0v520h180v-520h-180zM54 570v130h180v-130h-180z" />
    <glyph glyph-name="j" unicode="j" horiz-adv-x="292" 
d="M58 0v520h180v-520q0 -88 -58.5 -134t-161.5 -46h-75v130h70q45 0 45 50zM58 570v130h180v-130h-180z" />
    <glyph glyph-name="k" unicode="k" horiz-adv-x="633" 
d="M384 270l270 -270h-240l-180 190v-190h-180v700h180v-360l175 180h225z" />
    <glyph glyph-name="l" unicode="l" horiz-adv-x="288" 
d="M54 0v700h180v-700h-180z" />
    <glyph glyph-name="m" unicode="m" horiz-adv-x="993" 
d="M589 0h-180v295q0 95 -80 95q-45 0 -70 -27.5t-25 -82.5v-280h-180v520h180v-55q48 70 147 70q115 0 168 -80q53 80 180 80q94 0 154.5 -53t60.5 -157v-325h-180v295q0 95 -80 95q-45 0 -70 -27.5t-25 -82.5v-280z" />
    <glyph glyph-name="n" unicode="n" horiz-adv-x="658" 
d="M234 520v-55q53 70 150 70q104 0 164.5 -61t60.5 -169v-305h-180v295q0 95 -85 95q-53 0 -81.5 -33.5t-28.5 -91.5v-265h-180v520h180z" />
    <glyph glyph-name="o" unicode="o" horiz-adv-x="626" 
d="M598 260q0 -119 -77.5 -197t-207.5 -78t-207.5 78t-77.5 197t77.5 197t207.5 78t207.5 -78t77.5 -197zM418 260q0 55 -26 95t-79 40t-79 -40t-26 -95t26 -95t79 -40t79 40t26 95z" />
    <glyph glyph-name="p" unicode="p" horiz-adv-x="659" 
d="M234 520v-55q52 70 155 70q112 0 176 -78.5t64 -196.5t-64 -196.5t-176 -78.5q-103 0 -155 70v-235h-180v700h180zM339 395q-40 0 -75 -32.5t-35 -102.5t35 -102.5t75 -32.5q44 0 77 30.5t33 104.5t-33 104.5t-77 30.5z" />
    <glyph glyph-name="q" unicode="q" horiz-adv-x="659" 
d="M425 465v55h180v-700h-180v235q-52 -70 -155 -70q-112 0 -176 78.5t-64 196.5t64 196.5t176 78.5q103 0 155 -70zM320 395q-44 0 -77 -30.5t-33 -104.5t33 -104.5t77 -30.5q40 0 75 32.5t35 102.5t-35 102.5t-75 32.5z" />
    <glyph glyph-name="r" unicode="r" horiz-adv-x="438" 
d="M428 380h-79q-57 0 -86 -25.5t-29 -89.5v-265h-180v520h180v-60q20 36 55 53t100 17h39v-150z" />
    <glyph glyph-name="s" unicode="s" horiz-adv-x="561" 
d="M280 181l-15 1q-60 4 -109 21.5t-84 59t-35 101.5q0 83 68 127t177 44q103 0 169 -48.5t71 -116.5h-180q-2 50 -62 50q-66 0 -66 -36q0 -19 16.5 -28t58.5 -11l16 -1q227 -14 227 -184q0 -81 -69 -128t-181 -47t-182 47.5t-73 127.5h178q3 -60 77 -60q73 0 73 42
q0 15 -12.5 24t-26 11.5t-36.5 3.5z" />
    <glyph glyph-name="t" unicode="t" horiz-adv-x="486" 
d="M135 160v220h-125v140h125v120h180v-120h150v-140h-150v-220q0 -30 30 -30h120v-130h-170q-81 0 -120.5 38t-39.5 122z" />
    <glyph glyph-name="u" unicode="u" horiz-adv-x="653" 
d="M419 0v50q-49 -65 -150 -65q-102 0 -161 61t-59 169v305h180v-295q0 -95 85 -95q53 0 79 33t26 92v265h180v-520h-180z" />
    <glyph glyph-name="v" unicode="v" horiz-adv-x="574" 
d="M339 385l43 135h190l-195 -520h-180l-195 520h190l43 -135q21 -68 50 -190h4q29 122 50 190z" />
    <glyph glyph-name="w" unicode="w" horiz-adv-x="834" 
d="M504 520l40 -145q19 -68 38 -190h4q21 152 31 192l34 143h181l-160 -520h-175l-42 153q-18 64 -36 187h-4q-18 -123 -36 -187l-42 -153h-175l-160 520h181l34 -143q10 -40 31 -192h4q19 122 38 190l40 145h174z" />
    <glyph glyph-name="x" unicode="x" horiz-adv-x="560" 
d="M-5 0l188 269l-173 251h207l65 -104l66 104h202l-173 -247l188 -273h-207l-80 126l-81 -126h-202z" />
    <glyph glyph-name="y" unicode="y" horiz-adv-x="564" 
d="M193 520l50 -159q20 -63 36 -166h4q16 93 41 165l53 160h186l-209 -562q-27 -72 -71 -105t-139 -33h-98v130h78q57 0 74 50l-195 520h190z" />
    <glyph glyph-name="z" unicode="z" horiz-adv-x="568" 
d="M282 140h253v-140h-500v140l243 240h-233v140h480v-140z" />
    <glyph glyph-name="braceleft" unicode="{" horiz-adv-x="429" 
d="M190 260q122 -23 110 -150l-10 -105q-3 -28 7 -36.5t38 -8.5h65v-140h-105q-36 0 -69 9.5t-62 30t-44 58t-10 87.5l10 105q5 49 -14.5 64.5t-65.5 15.5h-25v140h25q46 0 65.5 15.5t14.5 64.5l-10 105q-5 50 10 87.5t44 58t62 30t69 9.5h105v-140h-65q-28 0 -38 -8.5
t-7 -36.5l10 -105q12 -127 -110 -150z" />
    <glyph glyph-name="bar" unicode="|" horiz-adv-x="308" 
d="M64 -180v880h180v-880h-180z" />
    <glyph glyph-name="braceright" unicode="}" horiz-adv-x="429" 
d="M239 260q-122 23 -110 150l10 105q3 28 -7 36.5t-38 8.5h-65v140h105q36 0 69 -9.5t62 -30t44 -58t10 -87.5l-10 -105q-5 -49 14.5 -64.5t65.5 -15.5h25v-140h-25q-46 0 -65.5 -15.5t-14.5 -64.5l10 -105q5 -50 -10 -87.5t-44 -58t-62 -30t-69 -9.5h-105v140h65
q28 0 38 8.5t7 36.5l-10 105q-12 127 110 150z" />
    <glyph glyph-name="asciitilde" unicode="~" horiz-adv-x="617" 
d="M163 270h-115q0 88 46 139t119 51q41 0 82.5 -21.5t74.5 -42.5t53 -21q40 0 40 55h115q0 -85 -46.5 -137.5t-118.5 -52.5q-41 0 -82.5 21.5t-74.5 42.5t-53 21q-40 0 -40 -55z" />
    <glyph glyph-name="uni00A0" unicode="&#xa0;" horiz-adv-x="212" 
 />
    <glyph glyph-name="exclamdown" unicode="&#xa1;" horiz-adv-x="304" 
d="M257 520v-180h-210v180h210zM57 60l35 210h120l35 -210v-240h-190v240z" />
    <glyph glyph-name="cent" unicode="&#xa2;" horiz-adv-x="618" 
d="M240 -100v94q-96 22 -150.5 94.5t-54.5 171.5t54.5 171t150.5 95v94h140v-90q84 -12 137 -61.5t73 -123.5h-190q-15 50 -80 50q-55 0 -80 -39.5t-25 -95.5t25 -95.5t80 -39.5q67 0 80 50h190q-20 -75 -73 -124t-137 -61v-90h-140z" />
    <glyph glyph-name="sterling" unicode="&#xa3;" horiz-adv-x="635" 
d="M338 570q-75 0 -75 -80q0 -14 2 -26t8 -26t8 -18.5t12.5 -21.5t11.5 -18h228v-140h-185q-5 -55 -50 -85h305v-155h-565v155q132 0 135 85h-120v140h57q-27 51 -27 115q0 97 71 158.5t184 61.5t178 -57t77 -143h-184q-6 55 -71 55z" />
    <glyph glyph-name="currency" unicode="&#xa4;" horiz-adv-x="614" 
d="M477 -15l-67 67q-49 -22 -103 -22t-103 22l-67 -67l-105 105l63 63q-28 50 -28 107q0 56 28 107l-63 63l105 105l67 -67q49 22 103 22t103 -22l67 67l105 -105l-63 -63q28 -51 28 -107q0 -57 -28 -107l63 -63zM377 260q0 33 -18 56.5t-52 23.5t-52 -23.5t-18 -56.5
t18 -56.5t52 -23.5t52 23.5t18 56.5z" />
    <glyph glyph-name="yen" unicode="&#xa5;" horiz-adv-x="691" 
d="M53 300v140h112l-137 260h200l115 -260h5l115 260h200l-137 -260h112v-140h-185l-15 -30v-30h130v-140h-130v-100h-185v100h-130v140h130v30l-15 30h-185z" />
    <glyph glyph-name="brokenbar" unicode="&#xa6;" horiz-adv-x="308" 
d="M64 -180v360h180v-360h-180zM64 340v360h180v-360h-180z" />
    <glyph glyph-name="section" unicode="&#xa7;" horiz-adv-x="677" 
d="M31 260q0 50 25.5 87t61.5 57q-47 49 -47 126q0 81 69 133t191 52q121 0 191.5 -56.5t78.5 -143.5h-182q-3 70 -88 70q-80 0 -80 -50q0 -29 29 -41t106 -23q127 -17 193.5 -67.5t66.5 -143.5q0 -50 -25.5 -87t-61.5 -57q47 -50 47 -126q0 -81 -69 -133t-191 -52
q-121 0 -191.5 56.5t-78.5 143.5h182q3 -70 88 -70q80 0 80 50q0 31 -27 42t-108 22q-127 17 -193.5 67t-66.5 144zM311 319q-47 8 -80 19q-25 -25 -25 -58q0 -10 2.5 -18t8.5 -14.5t12.5 -11.5t17.5 -9t19.5 -7t23 -6t24 -4.5t26.5 -4t26 -4.5q47 -8 79 -19q26 26 26 58
q0 10 -2.5 18t-8.5 14.5t-12.5 11.5t-17.5 9t-19.5 7t-23 6t-24 4.5t-26.5 4t-26 4.5z" />
    <glyph glyph-name="dieresis" unicode="&#xa8;" horiz-adv-x="500" 
d="M35 570v130h180v-130h-180zM285 570v130h180v-130h-180z" />
    <glyph glyph-name="copyright" unicode="&#xa9;" horiz-adv-x="794" 
d="M307 350q0 -52 24.5 -86t70.5 -34q51 0 68 45h128q-20 -65 -72 -102.5t-124 -37.5q-94 0 -154.5 60.5t-60.5 154.5t60.5 154.5t154.5 60.5q72 0 124 -36.5t72 -98.5h-128q-17 40 -68 40q-46 0 -70.5 -34t-24.5 -86zM32 350q0 151 107 258t258 107t258 -107t107 -258
t-107 -258t-258 -107t-258 107t-107 258zM117 350q0 -116 82 -198t198 -82t198 82t82 198t-82 198t-198 82t-198 -82t-82 -198z" />
    <glyph glyph-name="ordfeminine" unicode="&#xaa;" horiz-adv-x="471" 
d="M172 580h-123q11 63 60 96.5t125 33.5q185 0 185 -145v-275h-120v33q-43 -43 -120 -43q-64 0 -107 34t-43 99q0 118 153 131l117 10v11q0 31 -14 43.5t-51 12.5q-54 0 -62 -41zM204 368q42 0 68.5 26.5t26.5 70.5v9l-104 -9q-46 -5 -46 -50q0 -21 14.5 -34t40.5 -13z" />
    <glyph glyph-name="guillemotleft" unicode="&#xab;" horiz-adv-x="754" 
d="M227 260l175 -170h-210l-170 170l170 170h210zM532 260l175 -170h-210l-170 170l170 170h210z" />
    <glyph glyph-name="logicalnot" unicode="&#xac;" horiz-adv-x="637" 
d="M439 210v140h-400v140h540v-280h-140z" />
    <glyph glyph-name="uni00AD" unicode="&#xad;" horiz-adv-x="462" 
d="M51 190v140h360v-140h-360z" />
    <glyph glyph-name="registered" unicode="&#xae;" horiz-adv-x="794" 
d="M32 350q0 151 107 258t258 107t258 -107t107 -258t-107 -258t-258 -107t-258 107t-107 258zM117 350q0 -116 82 -198t198 -82q111 0 191 75h-113l-128 140v-140h-120v410h225q65 0 107.5 -40.5t42.5 -94.5q0 -50 -32 -86.5t-85 -45.5l123 -123q69 80 69 185
q0 116 -82 198t-198 82t-198 -82t-82 -198zM347 370h90q22 0 33.5 12.5t11.5 32.5t-11.5 32.5t-33.5 12.5h-90v-90z" />
    <glyph glyph-name="macron" unicode="&#xaf;" horiz-adv-x="460" 
d="M35 580v120h390v-120h-390z" />
    <glyph glyph-name="degree" unicode="&#xb0;" horiz-adv-x="510" 
d="M165 490q0 -42 24.5 -68.5t65.5 -26.5t65.5 26.5t24.5 68.5t-24.5 68.5t-65.5 26.5t-65.5 -26.5t-24.5 -68.5zM485 490q0 -95 -65 -160t-165 -65t-165 65t-65 160t65 160t165 65t165 -65t65 -160z" />
    <glyph glyph-name="plusminus" unicode="&#xb1;" horiz-adv-x="614" 
d="M57 370v140h180v100h140v-100h180v-140h-180v-100h-140v100h-180zM57 90v140h500v-140h-500z" />
    <glyph glyph-name="twosuperior" unicode="&#xb2;" horiz-adv-x="365" 
d="M144 685h-121q4 55 45 90t110 35q74 0 114.5 -39t40.5 -94q0 -42 -20.5 -71t-64.5 -66l-65 -55h160v-95h-320v95l145 125q45 38 45 67q0 38 -35 38q-32 0 -34 -30z" />
    <glyph glyph-name="threesuperior" unicode="&#xb3;" horiz-adv-x="365" 
d="M13 510h121q4 -35 44 -35q45 0 45 38q0 42 -45 42h-35v90h35q35 0 35 36q0 34 -35 34q-32 0 -34 -30h-121q4 56 47.5 90.5t107.5 34.5q65 0 110 -34t45 -86q0 -58 -55 -85q65 -24 65 -100q0 -55 -48 -90t-117 -35q-68 0 -114.5 37t-50.5 93z" />
    <glyph glyph-name="acute" unicode="&#xb4;" horiz-adv-x="330" 
d="M20 570l80 130h220l-130 -130h-170z" />
    <glyph glyph-name="mu" unicode="&#xb5;" horiz-adv-x="660" 
d="M415 0v22q-30 -37 -85 -37t-85 37v-202h-180v700h180v-295q0 -47 21.5 -73.5t63.5 -26.5q40 0 62.5 26t22.5 74v295h180v-520h-180z" />
    <glyph glyph-name="paragraph" unicode="&#xb6;" horiz-adv-x="805" 
d="M414 -180h-180v480q-91 0 -150.5 55.5t-59.5 144.5t59.5 144.5t150.5 55.5h530v-145h-80v-735h-180v735h-90v-735z" />
    <glyph glyph-name="periodcentered" unicode="&#xb7;" horiz-adv-x="312" 
d="M51 170v180h210v-180h-210z" />
    <glyph glyph-name="cedilla" unicode="&#xb8;" horiz-adv-x="280" 
d="M20 -130h90q4 -20 25 -20q25 0 25 25t-25 25q-10 0 -18 -8l-60 60l63 63h120l-59 -59q27 -2 48 -24t21 -57q0 -44 -33.5 -74.5t-81.5 -30.5q-46 0 -79.5 29t-35.5 71z" />
    <glyph glyph-name="onesuperior" unicode="&#xb9;" horiz-adv-x="290" 
d="M236 390h-120v275l-100 -105v140l100 100h120v-410z" />
    <glyph glyph-name="ordmasculine" unicode="&#xba;" horiz-adv-x="494" 
d="M147 495q0 -54 24 -87t76 -33t76 33t24 87t-24 87t-76 33t-76 -33t-24 -87zM467 495q0 -96 -58.5 -155.5t-161.5 -59.5t-161.5 59.5t-58.5 155.5t58.5 155.5t161.5 59.5t161.5 -59.5t58.5 -155.5z" />
    <glyph glyph-name="guillemotright" unicode="&#xbb;" horiz-adv-x="754" 
d="M47 90l175 170l-175 170h210l170 -170l-170 -170h-210zM352 90l175 170l-175 170h210l170 -170l-170 -170h-210z" />
    <glyph glyph-name="onequarter" unicode="&#xbc;" horiz-adv-x="835" 
d="M235 290h-120v275l-100 -105v140l100 100h120v-410zM117 0l390 700h132l-390 -700h-132zM432 160l185 250h140v-250h60v-95h-60v-65h-120v65h-205v95zM592 225l-45 -65h90v50q0 30 7 95h-4q-29 -54 -48 -80z" />
    <glyph glyph-name="onehalf" unicode="&#xbd;" horiz-adv-x="829" 
d="M235 290h-120v275l-100 -105v140l100 100h120v-410zM117 0l390 700h132l-390 -700h-132zM608 295h-121q4 55 45 90t110 35q74 0 114.5 -39t40.5 -94q0 -42 -20.5 -71t-64.5 -66l-65 -55h160v-95h-320v95l145 125q45 38 45 67q0 38 -35 38q-32 0 -34 -30z" />
    <glyph glyph-name="threequarters" unicode="&#xbe;" horiz-adv-x="906" 
d="M13 410h121q4 -35 44 -35q45 0 45 38q0 42 -45 42h-35v90h35q35 0 35 36q0 34 -35 34q-32 0 -34 -30h-121q4 56 47.5 90.5t107.5 34.5q65 0 110 -34t45 -86q0 -58 -55 -85q65 -24 65 -100q0 -55 -48 -90t-117 -35q-68 0 -114.5 37t-50.5 93zM188 0l390 700h132l-390 -700
h-132zM503 160l185 250h140v-250h60v-95h-60v-65h-120v65h-205v95zM663 225l-45 -65h90v50q0 30 7 95h-4q-29 -54 -48 -80z" />
    <glyph glyph-name="questiondown" unicode="&#xbf;" horiz-adv-x="545" 
d="M397 520v-180h-210v180h210zM332 5h190q-4 -87 -72.5 -143.5t-172.5 -56.5q-114 0 -179.5 56t-65.5 144q0 48 19 83.5t46 55.5t54.5 37t46.5 38.5t19 50.5h150q0 -53 -15 -90.5t-36.5 -57t-42.5 -35t-36 -35.5t-15 -47q0 -50 55 -50q52 0 55 50z" />
    <glyph glyph-name="Agrave" unicode="&#xc0;" horiz-adv-x="742" 
d="M556 0l-49 125h-272l-49 -125h-195l285 700h190l285 -700h-195zM445 285l-13 34q-29 76 -59 181h-4q-30 -105 -59 -181l-13 -34h148zM426 880l80 -130h-170l-130 130h220z" />
    <glyph glyph-name="Aacute" unicode="&#xc1;" horiz-adv-x="742" 
d="M556 0l-49 125h-272l-49 -125h-195l285 700h190l285 -700h-195zM445 285l-13 34q-29 76 -59 181h-4q-30 -105 -59 -181l-13 -34h148zM236 750l80 130h220l-130 -130h-170z" />
    <glyph glyph-name="Acircumflex" unicode="&#xc2;" horiz-adv-x="742" 
d="M556 0l-49 125h-272l-49 -125h-195l285 700h190l285 -700h-195zM445 285l-13 34q-29 76 -59 181h-4q-30 -105 -59 -181l-13 -34h148zM411 750l-40 65l-40 -65h-190l130 130h200l130 -130h-190z" />
    <glyph glyph-name="Atilde" unicode="&#xc3;" horiz-adv-x="742" 
d="M556 0l-49 125h-272l-49 -125h-195l285 700h190l285 -700h-195zM445 285l-13 34q-29 76 -59 181h-4q-30 -105 -59 -181l-13 -34h148zM261 750h-90q0 70 32.5 110t97.5 40q45 0 92.5 -27.5t62.5 -27.5q25 0 25 35h90q0 -70 -32.5 -110t-97.5 -40q-45 0 -92.5 27.5
t-62.5 27.5q-25 0 -25 -35z" />
    <glyph glyph-name="Adieresis" unicode="&#xc4;" horiz-adv-x="742" 
d="M556 0l-49 125h-272l-49 -125h-195l285 700h190l285 -700h-195zM445 285l-13 34q-29 76 -59 181h-4q-30 -105 -59 -181l-13 -34h148zM156 750v130h180v-130h-180zM406 750v130h180v-130h-180z" />
    <glyph glyph-name="Aring" unicode="&#xc5;" horiz-adv-x="742" 
d="M556 0l-49 125h-272l-49 -125h-195l283 694q-48 40 -48 101q0 56 42 95.5t103 39.5t103 -39.5t42 -95.5q0 -60 -48 -101l283 -694h-195zM321 795q0 -21 14.5 -35.5t35.5 -14.5t35.5 14.5t14.5 35.5t-14.5 35.5t-35.5 14.5t-35.5 -14.5t-14.5 -35.5zM445 285l-13 34
q-29 76 -59 181h-4q-30 -105 -59 -181l-13 -34h148z" />
    <glyph glyph-name="AE" unicode="&#xc6;" horiz-adv-x="1130" 
d="M551 0v125h-281l-84 -125h-210l470 700h635v-160h-340v-105h320v-160h-320v-115h340v-160h-530zM551 540h-5l-170 -255h175v255z" />
    <glyph glyph-name="Ccedilla" unicode="&#xc7;" horiz-adv-x="736" 
d="M269 -130h90q4 -20 25 -20q25 0 25 25t-25 25q-10 0 -18 -8l-60 60l36 36q-143 16 -225.5 115t-82.5 247q0 161 97 263t263 102q126 0 207.5 -57.5t112.5 -157.5h-207q-25 60 -113 60q-85 0 -127.5 -58.5t-42.5 -151.5t42.5 -151.5t127.5 -58.5q95 0 119 75h206
q-24 -89 -88.5 -148.5t-166.5 -76.5l-34 -34q27 -2 48 -24t21 -57q0 -44 -33.5 -74.5t-81.5 -30.5q-46 0 -79.5 29t-35.5 71z" />
    <glyph glyph-name="Egrave" unicode="&#xc8;" horiz-adv-x="669" 
d="M70 0v700h550v-160h-360v-105h340v-160h-340v-115h360v-160h-550zM395 880l80 -130h-170l-130 130h220z" />
    <glyph glyph-name="Eacute" unicode="&#xc9;" horiz-adv-x="669" 
d="M70 0v700h550v-160h-360v-105h340v-160h-340v-115h360v-160h-550zM215 750l80 130h220l-130 -130h-170z" />
    <glyph glyph-name="Ecircumflex" unicode="&#xca;" horiz-adv-x="669" 
d="M70 0v700h550v-160h-360v-105h340v-160h-340v-115h360v-160h-550zM385 750l-40 65l-40 -65h-190l130 130h200l130 -130h-190z" />
    <glyph glyph-name="Edieresis" unicode="&#xcb;" horiz-adv-x="669" 
d="M70 0v700h550v-160h-360v-105h340v-160h-340v-115h360v-160h-550zM130 750v130h180v-130h-180zM380 750v130h180v-130h-180z" />
    <glyph glyph-name="Igrave" unicode="&#xcc;" horiz-adv-x="330" 
d="M260 0h-190v700h190v-700zM225 880l80 -130h-170l-130 130h220z" />
    <glyph glyph-name="Iacute" unicode="&#xcd;" horiz-adv-x="330" 
d="M260 0h-190v700h190v-700zM25 750l80 130h220l-130 -130h-170z" />
    <glyph glyph-name="Icircumflex" unicode="&#xce;" horiz-adv-x="330" 
d="M260 0h-190v700h190v-700zM205 750l-40 65l-40 -65h-190l130 130h200l130 -130h-190z" />
    <glyph glyph-name="Idieresis" unicode="&#xcf;" horiz-adv-x="330" 
d="M260 0h-190v700h190v-700zM-50 750v130h180v-130h-180zM200 750v130h180v-130h-180z" />
    <glyph glyph-name="Eth" unicode="&#xd0;" horiz-adv-x="796" 
d="M7 435h110v265h305q152 0 246 -94t94 -256t-94 -256t-246 -94h-305v280h-110v155zM572 350q0 190 -160 190h-105v-105h170v-155h-170v-120h105q160 0 160 190z" />
    <glyph glyph-name="Ntilde" unicode="&#xd1;" 
d="M290 700l145 -226q63 -99 119 -219h4q-8 104 -8 230v215h190v-700h-220l-145 226q-63 99 -119 219h-4q8 -104 8 -230v-215h-190v700h220zM295 755h-90q0 70 32.5 110t97.5 40q45 0 92.5 -27.5t62.5 -27.5q25 0 25 35h90q0 -70 -32.5 -110t-97.5 -40q-45 0 -92.5 27.5
t-62.5 27.5q-25 0 -25 -35z" />
    <glyph glyph-name="Ograve" unicode="&#xd2;" horiz-adv-x="786" 
d="M223 350q0 -91 43.5 -148t126.5 -57t126.5 57t43.5 148t-43.5 148t-126.5 57t-126.5 -57t-43.5 -148zM753 350q0 -160 -98.5 -262.5t-261.5 -102.5t-261.5 102.5t-98.5 262.5t98.5 262.5t261.5 102.5t261.5 -102.5t98.5 -262.5zM443 880l80 -130h-170l-130 130h220z" />
    <glyph glyph-name="Oacute" unicode="&#xd3;" horiz-adv-x="786" 
d="M223 350q0 -91 43.5 -148t126.5 -57t126.5 57t43.5 148t-43.5 148t-126.5 57t-126.5 -57t-43.5 -148zM753 350q0 -160 -98.5 -262.5t-261.5 -102.5t-261.5 102.5t-98.5 262.5t98.5 262.5t261.5 102.5t261.5 -102.5t98.5 -262.5zM263 750l80 130h220l-130 -130h-170z" />
    <glyph glyph-name="Ocircumflex" unicode="&#xd4;" horiz-adv-x="786" 
d="M223 350q0 -91 43.5 -148t126.5 -57t126.5 57t43.5 148t-43.5 148t-126.5 57t-126.5 -57t-43.5 -148zM753 350q0 -160 -98.5 -262.5t-261.5 -102.5t-261.5 102.5t-98.5 262.5t98.5 262.5t261.5 102.5t261.5 -102.5t98.5 -262.5zM433 750l-40 65l-40 -65h-190l130 130h200
l130 -130h-190z" />
    <glyph glyph-name="Otilde" unicode="&#xd5;" horiz-adv-x="786" 
d="M223 350q0 -91 43.5 -148t126.5 -57t126.5 57t43.5 148t-43.5 148t-126.5 57t-126.5 -57t-43.5 -148zM753 350q0 -160 -98.5 -262.5t-261.5 -102.5t-261.5 102.5t-98.5 262.5t98.5 262.5t261.5 102.5t261.5 -102.5t98.5 -262.5zM283 755h-90q0 70 32.5 110t97.5 40
q45 0 92.5 -27.5t62.5 -27.5q25 0 25 35h90q0 -70 -32.5 -110t-97.5 -40q-45 0 -92.5 27.5t-62.5 27.5q-25 0 -25 -35z" />
    <glyph glyph-name="Odieresis" unicode="&#xd6;" horiz-adv-x="786" 
d="M223 350q0 -91 43.5 -148t126.5 -57t126.5 57t43.5 148t-43.5 148t-126.5 57t-126.5 -57t-43.5 -148zM753 350q0 -160 -98.5 -262.5t-261.5 -102.5t-261.5 102.5t-98.5 262.5t98.5 262.5t261.5 102.5t261.5 -102.5t98.5 -262.5zM178 750v130h180v-130h-180zM428 750v130
h180v-130h-180z" />
    <glyph glyph-name="multiply" unicode="&#xd7;" horiz-adv-x="616" 
d="M406 350l177 -177l-98 -98l-177 177l-177 -177l-98 98l177 177l-177 177l98 98l177 -177l177 177l98 -98z" />
    <glyph glyph-name="Oslash" unicode="&#xd8;" horiz-adv-x="790" 
d="M10 -15l104 124q-79 98 -79 241q0 160 98.5 262.5t261.5 102.5q105 0 187 -45l38 45h160l-104 -125q79 -98 79 -240q0 -160 -98.5 -262.5t-261.5 -102.5q-106 0 -187 45l-38 -45h-160zM225 350q0 -52 13 -92l234 280q-32 17 -77 17q-83 0 -126.5 -57t-43.5 -148zM565 350
q0 52 -14 91l-233 -279q34 -17 77 -17q83 0 126.5 57t43.5 148z" />
    <glyph glyph-name="Ugrave" unicode="&#xd9;" horiz-adv-x="746" 
d="M373 -15q-138 0 -224 82t-86 198v435h190v-435q0 -57 34 -88.5t86 -31.5t86 31.5t34 88.5v435h190v-435q0 -116 -86 -198t-224 -82zM423 880l80 -130h-170l-130 130h220z" />
    <glyph glyph-name="Uacute" unicode="&#xda;" horiz-adv-x="746" 
d="M373 -15q-138 0 -224 82t-86 198v435h190v-435q0 -57 34 -88.5t86 -31.5t86 31.5t34 88.5v435h190v-435q0 -116 -86 -198t-224 -82zM243 750l80 130h220l-130 -130h-170z" />
    <glyph glyph-name="Ucircumflex" unicode="&#xdb;" horiz-adv-x="746" 
d="M373 -15q-138 0 -224 82t-86 198v435h190v-435q0 -57 34 -88.5t86 -31.5t86 31.5t34 88.5v435h190v-435q0 -116 -86 -198t-224 -82zM413 750l-40 65l-40 -65h-190l130 130h200l130 -130h-190z" />
    <glyph glyph-name="Udieresis" unicode="&#xdc;" horiz-adv-x="746" 
d="M373 -15q-138 0 -224 82t-86 198v435h190v-435q0 -57 34 -88.5t86 -31.5t86 31.5t34 88.5v435h190v-435q0 -116 -86 -198t-224 -82zM158 750v130h180v-130h-180zM408 750v130h180v-130h-180z" />
    <glyph glyph-name="Yacute" unicode="&#xdd;" horiz-adv-x="658" 
d="M234 0v265l-235 435h200l130 -270l130 270h200l-235 -435v-265h-190zM199 750l80 130h220l-130 -130h-170z" />
    <glyph glyph-name="Thorn" unicode="&#xde;" horiz-adv-x="747" 
d="M470 130h-210v-130h-190v700h190v-110h210q111 0 180.5 -65.5t69.5 -164.5t-69.5 -164.5t-180.5 -65.5zM260 290h200q35 0 52.5 20.5t17.5 49.5t-17.5 49.5t-52.5 20.5h-200v-140z" />
    <glyph glyph-name="germandbls" unicode="&#xdf;" horiz-adv-x="641" 
d="M474 395q66 -15 103 -62.5t37 -112.5q0 -101 -69.5 -160.5t-205.5 -59.5h-55v130h35q60 0 87.5 23t27.5 72q0 90 -110 90h-35v135h30q34 0 49.5 20.5t15.5 44.5q0 70 -70 70q-41 0 -60.5 -22.5t-19.5 -77.5v-485h-180v485q0 107 68 168.5t192 61.5q118 0 184 -54.5
t66 -140.5q0 -43 -27 -78t-63 -47z" />
    <glyph glyph-name="agrave" unicode="&#xe0;" horiz-adv-x="609" 
d="M234 370h-185q17 82 84 123.5t171 41.5q112 0 183.5 -46t71.5 -144v-345h-180v47q-52 -62 -155 -62q-89 0 -144.5 45.5t-55.5 129.5q0 76 55 118.5t150 51.5l150 15q0 35 -15 52.5t-60 17.5q-63 0 -70 -45zM269 110q43 0 76.5 32.5t33.5 82.5v5l-117 -13q-58 -7 -58 -52
q0 -55 65 -55zM354 700l80 -130h-170l-130 130h220z" />
    <glyph glyph-name="aacute" unicode="&#xe1;" horiz-adv-x="609" 
d="M234 370h-185q17 82 84 123.5t171 41.5q112 0 183.5 -46t71.5 -144v-345h-180v47q-52 -62 -155 -62q-89 0 -144.5 45.5t-55.5 129.5q0 76 55 118.5t150 51.5l150 15q0 35 -15 52.5t-60 17.5q-63 0 -70 -45zM269 110q43 0 76.5 32.5t33.5 82.5v5l-117 -13q-58 -7 -58 -52
q0 -55 65 -55zM174 570l80 130h220l-130 -130h-170z" />
    <glyph glyph-name="acircumflex" unicode="&#xe2;" horiz-adv-x="609" 
d="M234 370h-185q17 82 84 123.5t171 41.5q112 0 183.5 -46t71.5 -144v-345h-180v47q-52 -62 -155 -62q-89 0 -144.5 45.5t-55.5 129.5q0 76 55 118.5t150 51.5l150 15q0 35 -15 52.5t-60 17.5q-63 0 -70 -45zM269 110q43 0 76.5 32.5t33.5 82.5v5l-117 -13q-58 -7 -58 -52
q0 -55 65 -55zM344 570l-40 65l-40 -65h-190l130 130h200l130 -130h-190z" />
    <glyph glyph-name="atilde" unicode="&#xe3;" horiz-adv-x="609" 
d="M234 370h-185q17 82 84 123.5t171 41.5q112 0 183.5 -46t71.5 -144v-345h-180v47q-52 -62 -155 -62q-89 0 -144.5 45.5t-55.5 129.5q0 76 55 118.5t150 51.5l150 15q0 35 -15 52.5t-60 17.5q-63 0 -70 -45zM269 110q43 0 76.5 32.5t33.5 82.5v5l-117 -13q-58 -7 -58 -52
q0 -55 65 -55zM194 575h-90q0 70 32.5 110t97.5 40q45 0 92.5 -27.5t62.5 -27.5q25 0 25 35h90q0 -70 -32.5 -110t-97.5 -40q-45 0 -92.5 27.5t-62.5 27.5q-25 0 -25 -35z" />
    <glyph glyph-name="adieresis" unicode="&#xe4;" horiz-adv-x="609" 
d="M234 370h-185q17 82 84 123.5t171 41.5q112 0 183.5 -46t71.5 -144v-345h-180v47q-52 -62 -155 -62q-89 0 -144.5 45.5t-55.5 129.5q0 76 55 118.5t150 51.5l150 15q0 35 -15 52.5t-60 17.5q-63 0 -70 -45zM269 110q43 0 76.5 32.5t33.5 82.5v5l-117 -13q-58 -7 -58 -52
q0 -55 65 -55zM91 570v130h180v-130h-180zM341 570v130h180v-130h-180z" />
    <glyph glyph-name="aring" unicode="&#xe5;" horiz-adv-x="609" 
d="M234 370h-185q17 82 84 123.5t171 41.5q112 0 183.5 -46t71.5 -144v-345h-180v47q-52 -62 -155 -62q-89 0 -144.5 45.5t-55.5 129.5q0 76 55 118.5t150 51.5l150 15q0 35 -15 52.5t-60 17.5q-63 0 -70 -45zM269 110q43 0 76.5 32.5t33.5 82.5v5l-117 -13q-58 -7 -58 -52
q0 -55 65 -55zM159 685q0 56 42 95.5t103 39.5t103 -39.5t42 -95.5t-42 -95.5t-103 -39.5t-103 39.5t-42 95.5zM254 685q0 -21 14.5 -35.5t35.5 -14.5t35.5 14.5t14.5 35.5t-14.5 35.5t-35.5 14.5t-35.5 -14.5t-14.5 -35.5z" />
    <glyph glyph-name="ae" unicode="&#xe6;" horiz-adv-x="957" 
d="M659 105q28 0 48 16t24 39h188q-20 -79 -86.5 -127t-173.5 -48q-130 0 -206 79q-71 -79 -219 -79q-93 0 -151.5 45.5t-58.5 129.5q0 76 55 118.5t150 51.5l150 15q0 35 -15 52.5t-60 17.5q-63 0 -70 -45h-185q17 82 84 123.5t171 41.5q119 0 184 -48q69 48 166 48
q101 0 166.5 -46.5t91.5 -127.5q17 -54 17 -126v-35h-370q4 -44 31.5 -69.5t68.5 -25.5zM269 110q43 0 76.5 32.5t33.5 82.5v5l-117 -13q-58 -7 -58 -52q0 -55 65 -55zM654 415q-88 0 -95 -100h185q-7 100 -90 100z" />
    <glyph glyph-name="ccedilla" unicode="&#xe7;" horiz-adv-x="579" 
d="M184 -130h90q4 -20 25 -20q25 0 25 25t-25 25q-10 0 -18 -8l-60 60l37 37q-109 13 -169 88t-60 183q0 121 73.5 198t206.5 77q99 0 162 -44t88 -121h-193q-10 35 -57 35q-38 0 -62 -24t-31 -54t-7 -67t7 -67t31 -54t62 -24q26 0 43.5 13t22.5 32h189q-38 -139 -183 -168
l-36 -36q27 -2 48 -24t21 -57q0 -44 -33.5 -74.5t-81.5 -30.5q-46 0 -79.5 29t-35.5 71z" />
    <glyph glyph-name="egrave" unicode="&#xe8;" horiz-adv-x="611" 
d="M385 160h188q-20 -79 -86.5 -127t-173.5 -48q-130 0 -207.5 78t-77.5 197t76.5 197t203.5 78q101 0 166.5 -46.5t91.5 -127.5q17 -54 17 -126v-35h-370q4 -44 31.5 -69.5t68.5 -25.5q28 0 48 16t24 39zM308 415q-88 0 -95 -100h185q-7 100 -90 100zM355 700l80 -130h-170
l-130 130h220z" />
    <glyph glyph-name="eacute" unicode="&#xe9;" horiz-adv-x="611" 
d="M385 160h188q-20 -79 -86.5 -127t-173.5 -48q-130 0 -207.5 78t-77.5 197t76.5 197t203.5 78q101 0 166.5 -46.5t91.5 -127.5q17 -54 17 -126v-35h-370q4 -44 31.5 -69.5t68.5 -25.5q28 0 48 16t24 39zM308 415q-88 0 -95 -100h185q-7 100 -90 100zM178 570l80 130h220
l-130 -130h-170z" />
    <glyph glyph-name="ecircumflex" unicode="&#xea;" horiz-adv-x="611" 
d="M385 160h188q-20 -79 -86.5 -127t-173.5 -48q-130 0 -207.5 78t-77.5 197t76.5 197t203.5 78q101 0 166.5 -46.5t91.5 -127.5q17 -54 17 -126v-35h-370q4 -44 31.5 -69.5t68.5 -25.5q28 0 48 16t24 39zM308 415q-88 0 -95 -100h185q-7 100 -90 100zM346 570l-40 65
l-40 -65h-190l130 130h200l130 -130h-190z" />
    <glyph glyph-name="edieresis" unicode="&#xeb;" horiz-adv-x="611" 
d="M385 160h188q-20 -79 -86.5 -127t-173.5 -48q-130 0 -207.5 78t-77.5 197t76.5 197t203.5 78q101 0 166.5 -46.5t91.5 -127.5q17 -54 17 -126v-35h-370q4 -44 31.5 -69.5t68.5 -25.5q28 0 48 16t24 39zM308 415q-88 0 -95 -100h185q-7 100 -90 100zM91 570v130h180v-130
h-180zM341 570v130h180v-130h-180z" />
    <glyph glyph-name="igrave" unicode="&#xec;" horiz-adv-x="288" 
d="M54 0v520h180v-520h-180zM194 700l80 -130h-170l-130 130h220z" />
    <glyph glyph-name="iacute" unicode="&#xed;" horiz-adv-x="288" 
d="M54 0v520h180v-520h-180zM14 570l80 130h220l-130 -130h-170z" />
    <glyph glyph-name="icircumflex" unicode="&#xee;" horiz-adv-x="288" 
d="M54 0v520h180v-520h-180zM184 570l-40 65l-40 -65h-190l130 130h200l130 -130h-190z" />
    <glyph glyph-name="idieresis" unicode="&#xef;" horiz-adv-x="288" 
d="M54 0v520h180v-520h-180zM-71 570v130h180v-130h-180zM179 570v130h180v-130h-180z" />
    <glyph glyph-name="eth" unicode="&#xf0;" horiz-adv-x="594" 
d="M83 585l100 30l-85 85h231l28 -32l156 47v-125l-69 -21q57 -66 88 -140.5t31 -178.5q0 -110 -73.5 -187.5t-196.5 -77.5q-118 0 -191.5 70.5t-73.5 179.5q0 104 64 172t171 68q46 0 80 -15q-3 3 -22.5 20t-41.5 39l-196 -59v125zM383 230q0 115 -90 115q-43 0 -64 -31.5
t-21 -83.5t21 -83.5t64 -31.5q44 0 67 30.5t23 84.5z" />
    <glyph glyph-name="ntilde" unicode="&#xf1;" horiz-adv-x="658" 
d="M234 520v-55q53 70 150 70q104 0 164.5 -61t60.5 -169v-305h-180v295q0 95 -85 95q-53 0 -81.5 -33.5t-28.5 -91.5v-265h-180v520h180zM219 575h-90q0 70 32.5 110t97.5 40q45 0 92.5 -27.5t62.5 -27.5q25 0 25 35h90q0 -70 -32.5 -110t-97.5 -40q-45 0 -92.5 27.5
t-62.5 27.5q-25 0 -25 -35z" />
    <glyph glyph-name="ograve" unicode="&#xf2;" horiz-adv-x="626" 
d="M598 260q0 -119 -77.5 -197t-207.5 -78t-207.5 78t-77.5 197t77.5 197t207.5 78t207.5 -78t77.5 -197zM418 260q0 55 -26 95t-79 40t-79 -40t-26 -95t26 -95t79 -40t79 40t26 95zM363 700l80 -130h-170l-130 130h220z" />
    <glyph glyph-name="oacute" unicode="&#xf3;" horiz-adv-x="626" 
d="M598 260q0 -119 -77.5 -197t-207.5 -78t-207.5 78t-77.5 197t77.5 197t207.5 78t207.5 -78t77.5 -197zM418 260q0 55 -26 95t-79 40t-79 -40t-26 -95t26 -95t79 -40t79 40t26 95zM183 570l80 130h220l-130 -130h-170z" />
    <glyph glyph-name="ocircumflex" unicode="&#xf4;" horiz-adv-x="626" 
d="M598 260q0 -119 -77.5 -197t-207.5 -78t-207.5 78t-77.5 197t77.5 197t207.5 78t207.5 -78t77.5 -197zM418 260q0 55 -26 95t-79 40t-79 -40t-26 -95t26 -95t79 -40t79 40t26 95zM353 570l-40 65l-40 -65h-190l130 130h200l130 -130h-190z" />
    <glyph glyph-name="otilde" unicode="&#xf5;" horiz-adv-x="626" 
d="M598 260q0 -119 -77.5 -197t-207.5 -78t-207.5 78t-77.5 197t77.5 197t207.5 78t207.5 -78t77.5 -197zM418 260q0 55 -26 95t-79 40t-79 -40t-26 -95t26 -95t79 -40t79 40t26 95zM203 575h-90q0 70 32.5 110t97.5 40q45 0 92.5 -27.5t62.5 -27.5q25 0 25 35h90
q0 -70 -32.5 -110t-97.5 -40q-45 0 -92.5 27.5t-62.5 27.5q-25 0 -25 -35z" />
    <glyph glyph-name="odieresis" unicode="&#xf6;" horiz-adv-x="626" 
d="M598 260q0 -119 -77.5 -197t-207.5 -78t-207.5 78t-77.5 197t77.5 197t207.5 78t207.5 -78t77.5 -197zM418 260q0 55 -26 95t-79 40t-79 -40t-26 -95t26 -95t79 -40t79 40t26 95zM98 570v130h180v-130h-180zM348 570v130h180v-130h-180z" />
    <glyph glyph-name="divide" unicode="&#xf7;" horiz-adv-x="604" 
d="M32 280v140h540v-140h-540zM197 470v140h210v-140h-210zM197 90v140h210v-140h-210z" />
    <glyph glyph-name="oslash" unicode="&#xf8;" horiz-adv-x="628" 
d="M599 260q0 -119 -77.5 -197t-207.5 -78q-81 0 -145 32l-27 -32h-118l73 87q-68 74 -68 188q0 119 77.5 197t207.5 78q84 0 145 -33l27 33h118l-73 -87q68 -74 68 -188zM209 260q0 -29 5 -49l146 173q-19 11 -46 11q-53 0 -79 -40t-26 -95zM419 260q0 26 -6 48l-145 -173
q22 -10 46 -10q53 0 79 40t26 95z" />
    <glyph glyph-name="ugrave" unicode="&#xf9;" horiz-adv-x="653" 
d="M419 0v50q-49 -65 -150 -65q-102 0 -161 61t-59 169v305h180v-295q0 -95 85 -95q53 0 79 33t26 92v265h180v-520h-180zM374 700l80 -130h-170l-130 130h220z" />
    <glyph glyph-name="uacute" unicode="&#xfa;" horiz-adv-x="653" 
d="M419 0v50q-49 -65 -150 -65q-102 0 -161 61t-59 169v305h180v-295q0 -95 85 -95q53 0 79 33t26 92v265h180v-520h-180zM194 570l80 130h220l-130 -130h-170z" />
    <glyph glyph-name="ucircumflex" unicode="&#xfb;" horiz-adv-x="653" 
d="M419 0v50q-49 -65 -150 -65q-102 0 -161 61t-59 169v305h180v-295q0 -95 85 -95q53 0 79 33t26 92v265h180v-520h-180zM364 570l-40 65l-40 -65h-190l130 130h200l130 -130h-190z" />
    <glyph glyph-name="udieresis" unicode="&#xfc;" horiz-adv-x="653" 
d="M419 0v50q-49 -65 -150 -65q-102 0 -161 61t-59 169v305h180v-295q0 -95 85 -95q53 0 79 33t26 92v265h180v-520h-180zM109 570v130h180v-130h-180zM359 570v130h180v-130h-180z" />
    <glyph glyph-name="yacute" unicode="&#xfd;" horiz-adv-x="564" 
d="M148 570l80 130h220l-130 -130h-170zM193 520l50 -159q20 -63 36 -166h4q16 93 41 165l53 160h186l-209 -562q-27 -72 -71 -105t-139 -33h-98v130h78q57 0 74 50l-195 520h190z" />
    <glyph glyph-name="thorn" unicode="&#xfe;" horiz-adv-x="659" 
d="M229 260q0 -70 35 -102.5t75 -32.5q110 0 110 135t-110 135q-40 0 -75 -32.5t-35 -102.5zM234 55v-235h-180v880h180v-235q52 70 155 70q112 0 176 -78.5t64 -196.5t-64 -196.5t-176 -78.5q-103 0 -155 70z" />
    <glyph glyph-name="ydieresis" unicode="&#xff;" horiz-adv-x="564" 
d="M68 570v130h180v-130h-180zM318 570v130h180v-130h-180zM193 520l50 -159q20 -63 36 -166h4q16 93 41 165l53 160h186l-209 -562q-27 -72 -71 -105t-139 -33h-98v130h78q57 0 74 50l-195 520h190z" />
    <glyph glyph-name="Amacron" unicode="&#x100;" horiz-adv-x="742" 
d="M556 0l-49 125h-272l-49 -125h-195l285 700h190l285 -700h-195zM445 285l-13 34q-29 76 -59 181h-4q-30 -105 -59 -181l-13 -34h148zM176 760v120h390v-120h-390z" />
    <glyph glyph-name="amacron" unicode="&#x101;" horiz-adv-x="609" 
d="M234 370h-185q17 82 84 123.5t171 41.5q112 0 183.5 -46t71.5 -144v-345h-180v47q-52 -62 -155 -62q-89 0 -144.5 45.5t-55.5 129.5q0 76 55 118.5t150 51.5l150 15q0 35 -15 52.5t-60 17.5q-63 0 -70 -45zM269 110q43 0 76.5 32.5t33.5 82.5v5l-117 -13q-58 -7 -58 -52
q0 -55 65 -55zM109 580v120h390v-120h-390z" />
    <glyph glyph-name="Abreve" unicode="&#x102;" horiz-adv-x="742" 
d="M556 0l-49 125h-272l-49 -125h-195l285 700h190l285 -700h-195zM445 285l-13 34q-29 76 -59 181h-4q-30 -105 -59 -181l-13 -34h148zM371 740q-84 0 -135 50.5t-59 119.5h119q11 -50 75 -50q28 0 49 12.5t26 37.5h119q-8 -69 -59 -119.5t-135 -50.5z" />
    <glyph glyph-name="abreve" unicode="&#x103;" horiz-adv-x="609" 
d="M234 370h-185q17 82 84 123.5t171 41.5q112 0 183.5 -46t71.5 -144v-345h-180v47q-52 -62 -155 -62q-89 0 -144.5 45.5t-55.5 129.5q0 76 55 118.5t150 51.5l150 15q0 35 -15 52.5t-60 17.5q-63 0 -70 -45zM269 110q43 0 76.5 32.5t33.5 82.5v5l-117 -13q-58 -7 -58 -52
q0 -55 65 -55zM304 560q-84 0 -135 50.5t-59 119.5h119q11 -50 75 -50q28 0 49 12.5t26 37.5h119q-8 -69 -59 -119.5t-135 -50.5z" />
    <glyph glyph-name="Aogonek" unicode="&#x104;" horiz-adv-x="742" 
d="M701 -125q29 0 60 9l-43 -113q-31 -11 -77 -11q-67 0 -111 34.5t-44 95.5q0 75 69 112l-48 123h-272l-49 -125h-195l285 700h190l285 -700q-105 -42 -105 -87q0 -38 55 -38zM445 285l-13 34q-29 76 -59 181h-4q-30 -105 -59 -181l-13 -34h148z" />
    <glyph glyph-name="aogonek" unicode="&#x105;" horiz-adv-x="609" 
d="M304 415q-63 0 -70 -45h-185q17 82 84 123.5t171 41.5q112 0 183.5 -46t71.5 -144v-345q-105 -42 -105 -87q0 -38 55 -38q29 0 60 9l-43 -113q-31 -11 -77 -11q-67 0 -111 34.5t-44 95.5q0 84 85 120v37q-52 -62 -155 -62q-89 0 -144.5 45.5t-55.5 129.5q0 76 55 118.5
t150 51.5l150 15q0 35 -15 52.5t-60 17.5zM269 110q43 0 76.5 32.5t33.5 82.5v5l-117 -13q-58 -7 -58 -52q0 -55 65 -55z" />
    <glyph glyph-name="Cacute" unicode="&#x106;" horiz-adv-x="736" 
d="M513 215h206q-29 -103 -111 -166.5t-214 -63.5q-166 0 -263 102t-97 263t97 263t263 102q126 0 207.5 -57.5t112.5 -157.5h-207q-25 60 -113 60q-85 0 -127.5 -58.5t-42.5 -151.5t42.5 -151.5t127.5 -58.5q95 0 119 75zM274 750l80 130h220l-130 -130h-170z" />
    <glyph glyph-name="cacute" unicode="&#x107;" horiz-adv-x="579" 
d="M375 160h189q-22 -81 -87 -128t-168 -47q-133 0 -206.5 77t-73.5 198t73.5 198t206.5 77q99 0 162 -44t88 -121h-193q-10 35 -57 35q-38 0 -62 -24t-31 -54t-7 -67t7 -67t31 -54t62 -24q26 0 43.5 13t22.5 32zM181 570l80 130h220l-130 -130h-170z" />
    <glyph glyph-name="Ccircumflex" unicode="&#x108;" horiz-adv-x="736" 
d="M513 215h206q-29 -103 -111 -166.5t-214 -63.5q-166 0 -263 102t-97 263t97 263t263 102q126 0 207.5 -57.5t112.5 -157.5h-207q-25 60 -113 60q-85 0 -127.5 -58.5t-42.5 -151.5t42.5 -151.5t127.5 -58.5q95 0 119 75zM444 750l-40 65l-40 -65h-190l130 130h200
l130 -130h-190z" />
    <glyph glyph-name="ccircumflex" unicode="&#x109;" horiz-adv-x="579" 
d="M375 160h189q-22 -81 -87 -128t-168 -47q-133 0 -206.5 77t-73.5 198t73.5 198t206.5 77q99 0 162 -44t88 -121h-193q-10 35 -57 35q-38 0 -62 -24t-31 -54t-7 -67t7 -67t31 -54t62 -24q26 0 43.5 13t22.5 32zM349 570l-40 65l-40 -65h-190l130 130h200l130 -130h-190z
" />
    <glyph glyph-name="Cdotaccent" unicode="&#x10a;" horiz-adv-x="736" 
d="M513 215h206q-29 -103 -111 -166.5t-214 -63.5q-166 0 -263 102t-97 263t97 263t263 102q126 0 207.5 -57.5t112.5 -157.5h-207q-25 60 -113 60q-85 0 -127.5 -58.5t-42.5 -151.5t42.5 -151.5t127.5 -58.5q95 0 119 75zM309 750v130h180v-130h-180z" />
    <glyph glyph-name="cdotaccent" unicode="&#x10b;" horiz-adv-x="579" 
d="M375 160h189q-22 -81 -87 -128t-168 -47q-133 0 -206.5 77t-73.5 198t73.5 198t206.5 77q99 0 162 -44t88 -121h-193q-10 35 -57 35q-38 0 -62 -24t-31 -54t-7 -67t7 -67t31 -54t62 -24q26 0 43.5 13t22.5 32zM214 570v130h180v-130h-180z" />
    <glyph glyph-name="Ccaron" unicode="&#x10c;" horiz-adv-x="736" 
d="M513 215h206q-29 -103 -111 -166.5t-214 -63.5q-166 0 -263 102t-97 263t97 263t263 102q126 0 207.5 -57.5t112.5 -157.5h-207q-25 60 -113 60q-85 0 -127.5 -58.5t-42.5 -151.5t42.5 -151.5t127.5 -58.5q95 0 119 75zM404 815l40 65h190l-130 -130h-200l-130 130h190z
" />
    <glyph glyph-name="ccaron" unicode="&#x10d;" horiz-adv-x="579" 
d="M375 160h189q-22 -81 -87 -128t-168 -47q-133 0 -206.5 77t-73.5 198t73.5 198t206.5 77q99 0 162 -44t88 -121h-193q-10 35 -57 35q-38 0 -62 -24t-31 -54t-7 -67t7 -67t31 -54t62 -24q26 0 43.5 13t22.5 32zM309 635l40 65h190l-130 -130h-200l-130 130h190z" />
    <glyph glyph-name="Dcaron" unicode="&#x10e;" horiz-adv-x="749" 
d="M715 350q0 -162 -93.5 -256t-246.5 -94h-305v700h305q153 0 246.5 -94t93.5 -256zM525 350q0 190 -160 190h-105v-380h105q160 0 160 190zM360 815l40 65h190l-130 -130h-200l-130 130h190z" />
    <glyph glyph-name="dcaron" unicode="&#x10f;" horiz-adv-x="779" 
d="M425 0v55q-52 -70 -155 -70q-112 0 -176 78.5t-64 196.5t64 196.5t176 78.5q103 0 155 -70v235h180v-700h-180zM320 125q40 0 75 32.5t35 102.5t-35 102.5t-75 32.5q-44 0 -77 -30.5t-33 -104.5t33 -104.5t77 -30.5zM645 470l30 230h175l-70 -230h-135z" />
    <glyph glyph-name="Dcroat" unicode="&#x110;" horiz-adv-x="796" 
d="M7 435h110v265h305q152 0 246 -94t94 -256t-94 -256t-246 -94h-305v280h-110v155zM572 350q0 190 -160 190h-105v-105h170v-155h-170v-120h105q160 0 160 190z" />
    <glyph glyph-name="dcroat" unicode="&#x111;" horiz-adv-x="665" 
d="M408 225q0 47 -27 78.5t-73 31.5t-73 -30.5t-27 -79.5t27 -79.5t73 -30.5t73 31.5t27 78.5zM403 410v95h-220v130h220v65h180v-65h70v-130h-70v-505h-180v40q-43 -55 -140 -55q-109 0 -172 69t-63 171t63 171t172 69q97 0 140 -55z" />
    <glyph glyph-name="Emacron" unicode="&#x112;" horiz-adv-x="669" 
d="M70 0v700h550v-160h-360v-105h340v-160h-340v-115h360v-160h-550zM150 760v120h390v-120h-390z" />
    <glyph glyph-name="emacron" unicode="&#x113;" horiz-adv-x="611" 
d="M385 160h188q-20 -79 -86.5 -127t-173.5 -48q-130 0 -207.5 78t-77.5 197t76.5 197t203.5 78q101 0 166.5 -46.5t91.5 -127.5q17 -54 17 -126v-35h-370q4 -44 31.5 -69.5t68.5 -25.5q28 0 48 16t24 39zM308 415q-88 0 -95 -100h185q-7 100 -90 100zM113 580v120h390v-120
h-390z" />
    <glyph glyph-name="Ebreve" unicode="&#x114;" horiz-adv-x="669" 
d="M70 0v700h550v-160h-360v-105h340v-160h-340v-115h360v-160h-550zM345 740q-84 0 -135 50.5t-59 119.5h119q11 -50 75 -50q28 0 49 12.5t26 37.5h119q-8 -69 -59 -119.5t-135 -50.5z" />
    <glyph glyph-name="ebreve" unicode="&#x115;" horiz-adv-x="611" 
d="M385 160h188q-20 -79 -86.5 -127t-173.5 -48q-130 0 -207.5 78t-77.5 197t76.5 197t203.5 78q101 0 166.5 -46.5t91.5 -127.5q17 -54 17 -126v-35h-370q4 -44 31.5 -69.5t68.5 -25.5q28 0 48 16t24 39zM308 415q-88 0 -95 -100h185q-7 100 -90 100zM308 560
q-84 0 -135 50.5t-59 119.5h119q11 -50 75 -50q28 0 49 12.5t26 37.5h119q-8 -69 -59 -119.5t-135 -50.5z" />
    <glyph glyph-name="Edotaccent" unicode="&#x116;" horiz-adv-x="669" 
d="M70 0v700h550v-160h-360v-105h340v-160h-340v-115h360v-160h-550zM255 750v130h180v-130h-180z" />
    <glyph glyph-name="edotaccent" unicode="&#x117;" horiz-adv-x="611" 
d="M385 160h188q-20 -79 -86.5 -127t-173.5 -48q-130 0 -207.5 78t-77.5 197t76.5 197t203.5 78q101 0 166.5 -46.5t91.5 -127.5q17 -54 17 -126v-35h-370q4 -44 31.5 -69.5t68.5 -25.5q28 0 48 16t24 39zM308 415q-88 0 -95 -100h185q-7 100 -90 100zM218 570v130h180v-130
h-180z" />
    <glyph glyph-name="Eogonek" unicode="&#x118;" horiz-adv-x="669" 
d="M70 0v700h550v-160h-360v-105h340v-160h-340v-115h360v-160q-105 -42 -105 -87q0 -38 55 -38q29 0 60 9l-43 -113q-31 -11 -77 -11q-67 0 -111 34.5t-44 95.5q0 73 65 110h-350z" />
    <glyph glyph-name="eogonek" unicode="&#x119;" horiz-adv-x="611" 
d="M308 415q-88 0 -95 -100h185q-7 100 -90 100zM385 160h188q-13 -51 -44 -93.5t-59.5 -65t-51 -46t-22.5 -42.5q0 -38 55 -38q29 0 60 9l-43 -113q-31 -11 -77 -11q-67 0 -111 34.5t-44 95.5q0 59 45 97q-117 10 -185 85.5t-68 187.5q0 119 76.5 197t203.5 78
q101 0 166.5 -46.5t91.5 -127.5q17 -54 17 -126v-35h-370q4 -44 31.5 -69.5t68.5 -25.5q28 0 48 16t24 39z" />
    <glyph glyph-name="Ecaron" unicode="&#x11a;" horiz-adv-x="669" 
d="M70 0v700h550v-160h-360v-105h340v-160h-340v-115h360v-160h-550zM345 815l40 65h190l-130 -130h-200l-130 130h190z" />
    <glyph glyph-name="ecaron" unicode="&#x11b;" horiz-adv-x="611" 
d="M385 160h188q-20 -79 -86.5 -127t-173.5 -48q-130 0 -207.5 78t-77.5 197t76.5 197t203.5 78q101 0 166.5 -46.5t91.5 -127.5q17 -54 17 -126v-35h-370q4 -44 31.5 -69.5t68.5 -25.5q28 0 48 16t24 39zM308 415q-88 0 -95 -100h185q-7 100 -90 100zM306 635l40 65h190
l-130 -130h-200l-130 130h190z" />
    <glyph glyph-name="Gcircumflex" unicode="&#x11c;" horiz-adv-x="772" 
d="M434 750l-40 65l-40 -65h-190l130 130h200l130 -130h-190zM394 560q-85 0 -127.5 -58.5t-42.5 -151.5q0 -92 41.5 -151t123.5 -59q125 0 150 100h-140v160h325v-400h-150l-11 55q-27 -32 -75 -51t-104 -19q-159 0 -254.5 102.5t-95.5 262.5q0 161 97 263t263 102
q126 0 207.5 -57.5t112.5 -157.5h-207q-25 60 -113 60z" />
    <glyph glyph-name="gcircumflex" unicode="&#x11d;" horiz-adv-x="654" 
d="M210 275q0 -68 31 -99t74 -31q44 0 77 33.5t33 96.5t-33 96.5t-77 33.5q-41 0 -73 -33.5t-32 -96.5zM420 70v5q-48 -60 -150 -60q-108 0 -174 73t-66 187t66 187t174 73q102 0 150 -60v45h180v-450q0 -121 -81.5 -193t-203.5 -72q-99 0 -167 45t-83 120h183
q12 -40 67 -40q45 0 75 33.5t30 106.5zM365 570l-40 65l-40 -65h-190l130 130h200l130 -130h-190z" />
    <glyph glyph-name="Gbreve" unicode="&#x11e;" horiz-adv-x="772" 
d="M394 740q-84 0 -135 50.5t-59 119.5h119q11 -50 75 -50q28 0 49 12.5t26 37.5h119q-8 -69 -59 -119.5t-135 -50.5zM394 560q-85 0 -127.5 -58.5t-42.5 -151.5q0 -92 41.5 -151t123.5 -59q125 0 150 100h-140v160h325v-400h-150l-11 55q-27 -32 -75 -51t-104 -19
q-159 0 -254.5 102.5t-95.5 262.5q0 161 97 263t263 102q126 0 207.5 -57.5t112.5 -157.5h-207q-25 60 -113 60z" />
    <glyph glyph-name="gbreve" unicode="&#x11f;" horiz-adv-x="654" 
d="M210 275q0 -68 31 -99t74 -31q44 0 77 33.5t33 96.5t-33 96.5t-77 33.5q-41 0 -73 -33.5t-32 -96.5zM420 70v5q-48 -60 -150 -60q-108 0 -174 73t-66 187t66 187t174 73q102 0 150 -60v45h180v-450q0 -121 -81.5 -193t-203.5 -72q-99 0 -167 45t-83 120h183
q12 -40 67 -40q45 0 75 33.5t30 106.5zM325 560q-84 0 -135 50.5t-59 119.5h119q11 -50 75 -50q28 0 49 12.5t26 37.5h119q-8 -69 -59 -119.5t-135 -50.5z" />
    <glyph glyph-name="Gdotaccent" unicode="&#x120;" horiz-adv-x="772" 
d="M304 750v130h180v-130h-180zM394 560q-85 0 -127.5 -58.5t-42.5 -151.5q0 -92 41.5 -151t123.5 -59q125 0 150 100h-140v160h325v-400h-150l-11 55q-27 -32 -75 -51t-104 -19q-159 0 -254.5 102.5t-95.5 262.5q0 161 97 263t263 102q126 0 207.5 -57.5t112.5 -157.5h-207
q-25 60 -113 60z" />
    <glyph glyph-name="gdotaccent" unicode="&#x121;" horiz-adv-x="654" 
d="M210 275q0 -68 31 -99t74 -31q44 0 77 33.5t33 96.5t-33 96.5t-77 33.5q-41 0 -73 -33.5t-32 -96.5zM420 70v5q-48 -60 -150 -60q-108 0 -174 73t-66 187t66 187t174 73q102 0 150 -60v45h180v-450q0 -121 -81.5 -193t-203.5 -72q-99 0 -167 45t-83 120h183
q12 -40 67 -40q45 0 75 33.5t30 106.5zM234 570v130h180v-130h-180z" />
    <glyph glyph-name="Gcommaaccent" unicode="&#x122;" horiz-adv-x="772" 
d="M304 -155v115h180v-115l-80 -115h-75l45 115h-70zM394 560q-85 0 -127.5 -58.5t-42.5 -151.5q0 -92 41.5 -151t123.5 -59q125 0 150 100h-140v160h325v-400h-150l-11 55q-27 -32 -75 -51t-104 -19q-159 0 -254.5 102.5t-95.5 262.5q0 161 97 263t263 102
q126 0 207.5 -57.5t112.5 -157.5h-207q-25 60 -113 60z" />
    <glyph glyph-name="gcommaaccent" unicode="&#x123;" horiz-adv-x="654" 
d="M210 275q0 -68 31 -99t74 -31q44 0 77 33.5t33 96.5t-33 96.5t-77 33.5q-41 0 -73 -33.5t-32 -96.5zM420 70v5q-48 -60 -150 -60q-108 0 -174 73t-66 187t66 187t174 73q102 0 150 -60v45h180v-450q0 -121 -81.5 -193t-203.5 -72q-99 0 -167 45t-83 120h183
q12 -40 67 -40q45 0 75 33.5t30 106.5zM412 685v-115h-180v115l80 115h75l-45 -115h70z" />
    <glyph glyph-name="Hcircumflex" unicode="&#x124;" horiz-adv-x="800" 
d="M730 700v-700h-190v275h-280v-275h-190v700h190v-265h280v265h190zM440 750l-40 65l-40 -65h-190l130 130h200l130 -130h-190z" />
    <glyph glyph-name="hcircumflex" unicode="&#x125;" horiz-adv-x="658" 
d="M234 700v-235q53 70 150 70q104 0 164.5 -61t60.5 -169v-305h-180v295q0 95 -85 95q-53 0 -81.5 -33.5t-28.5 -91.5v-265h-180v700h180zM184 750l-40 65l-40 -65h-190l130 130h200l130 -130h-190z" />
    <glyph glyph-name="Hbar" unicode="&#x126;" horiz-adv-x="822" 
d="M21 495v155h60v50h190v-50h280v50h190v-50h60v-155h-60v-495h-190v275h-280v-275h-190v495h-60zM271 435h280v60h-280v-60z" />
    <glyph glyph-name="hbar" unicode="&#x127;" horiz-adv-x="681" 
d="M265 700v-65h220v-135h-220v-105q53 70 150 70q104 0 164.5 -61t60.5 -169v-235h-180v225q0 95 -85 95q-53 0 -81.5 -33.5t-28.5 -91.5v-195h-180v500h-70v135h70v65h180z" />
    <glyph glyph-name="Itilde" unicode="&#x128;" horiz-adv-x="330" 
d="M260 0h-190v700h190v-700zM55 755h-90q0 70 32.5 110t97.5 40q45 0 92.5 -27.5t62.5 -27.5q25 0 25 35h90q0 -70 -32.5 -110t-97.5 -40q-45 0 -92.5 27.5t-62.5 27.5q-25 0 -25 -35z" />
    <glyph glyph-name="itilde" unicode="&#x129;" horiz-adv-x="288" 
d="M54 0v520h180v-520h-180zM34 575h-90q0 70 32.5 110t97.5 40q45 0 92.5 -27.5t62.5 -27.5q25 0 25 35h90q0 -70 -32.5 -110t-97.5 -40q-45 0 -92.5 27.5t-62.5 27.5q-25 0 -25 -35z" />
    <glyph glyph-name="Imacron" unicode="&#x12a;" horiz-adv-x="330" 
d="M260 0h-190v700h190v-700zM-30 760v120h390v-120h-390z" />
    <glyph glyph-name="imacron" unicode="&#x12b;" horiz-adv-x="288" 
d="M54 0v520h180v-520h-180zM-51 580v120h390v-120h-390z" />
    <glyph glyph-name="Ibreve" unicode="&#x12c;" horiz-adv-x="330" 
d="M260 0h-190v700h190v-700zM165 740q-84 0 -135 50.5t-59 119.5h119q11 -50 75 -50q28 0 49 12.5t26 37.5h119q-8 -69 -59 -119.5t-135 -50.5z" />
    <glyph glyph-name="ibreve" unicode="&#x12d;" horiz-adv-x="288" 
d="M54 0v520h180v-520h-180zM144 560q-84 0 -135 50.5t-59 119.5h119q11 -50 75 -50q28 0 49 12.5t26 37.5h119q-8 -69 -59 -119.5t-135 -50.5z" />
    <glyph glyph-name="Iogonek" unicode="&#x12e;" horiz-adv-x="330" 
d="M210 -125q29 0 60 9l-43 -113q-31 -11 -77 -11q-67 0 -111 34.5t-44 95.5q0 79 75 115v695h190v-700q-105 -42 -105 -87q0 -38 55 -38z" />
    <glyph glyph-name="iogonek" unicode="&#x12f;" horiz-adv-x="290" 
d="M186 -125q29 0 60 9l-43 -113q-31 -11 -77 -11q-67 0 -111 34.5t-44 95.5q0 84 85 120v510h180v-520q-105 -42 -105 -87q0 -38 55 -38zM56 570v130h180v-130h-180z" />
    <glyph glyph-name="Idotaccent" unicode="&#x130;" horiz-adv-x="330" 
d="M260 0h-190v700h190v-700zM75 750v130h180v-130h-180z" />
    <glyph glyph-name="dotlessi" unicode="&#x131;" horiz-adv-x="288" 
d="M54 0v520h180v-520h-180z" />
    <glyph glyph-name="IJ" unicode="&#x132;" horiz-adv-x="759" 
d="M332 0h73q47 0 71 29t24 76v595h190v-595q0 -130 -79.5 -197.5t-205.5 -67.5h-73v160zM260 0h-190v700h190v-700z" />
    <glyph glyph-name="ij" unicode="&#x133;" horiz-adv-x="568" 
d="M54 0v520h180v-520h-180zM54 570v130h180v-130h-180zM334 570v130h180v-130h-180zM334 0v520h180v-520q0 -88 -58.5 -134t-161.5 -46h-60v130h55q45 0 45 50z" />
    <glyph glyph-name="Jcircumflex" unicode="&#x134;" horiz-adv-x="532" 
d="M414 750l-40 65l-40 -65h-190l130 130h200l130 -130h-190zM21 160h163q47 0 71 29t24 76v435h190v-435q0 -130 -79.5 -197.5t-205.5 -67.5h-163v160z" />
    <glyph glyph-name="jcircumflex" unicode="&#x135;" horiz-adv-x="292" 
d="M188 570l-40 65l-40 -65h-190l130 130h200l130 -130h-190zM58 0v520h180v-520q0 -88 -58.5 -134t-161.5 -46h-75v130h70q45 0 45 50z" />
    <glyph glyph-name="Kcommaaccent" unicode="&#x136;" horiz-adv-x="767" 
d="M260 0h-190v700h190v-270l260 270h245l-340 -340l360 -360h-255l-270 280v-280zM305 -155v115h180v-115l-80 -115h-75l45 115h-70z" />
    <glyph glyph-name="kcommaaccent" unicode="&#x137;" horiz-adv-x="633" 
d="M384 270l270 -270h-240l-180 190v-190h-180v700h180v-360l175 180h225zM244 -155v115h180v-115l-80 -115h-75l45 115h-70z" />
    <glyph glyph-name="kgreenlandic" unicode="&#x138;" horiz-adv-x="633" 
d="M384 270l270 -270h-240l-180 190v-190h-180v520h180v-180l175 180h225z" />
    <glyph glyph-name="Lacute" unicode="&#x139;" horiz-adv-x="609" 
d="M70 0v700h190v-540h340v-160h-530zM25 750l80 130h220l-130 -130h-170z" />
    <glyph glyph-name="lacute" unicode="&#x13a;" horiz-adv-x="288" 
d="M54 0v700h180v-700h-180zM22 750l80 130h220l-130 -130h-170z" />
    <glyph glyph-name="Lcommaaccent" unicode="&#x13b;" horiz-adv-x="609" 
d="M70 0v700h190v-540h340v-160h-530zM252 -155v115h180v-115l-80 -115h-75l45 115h-70z" />
    <glyph glyph-name="lcommaaccent" unicode="&#x13c;" horiz-adv-x="288" 
d="M54 0v700h180v-700h-180zM54 -155v115h180v-115l-80 -115h-75l45 115h-70z" />
    <glyph glyph-name="Lcaron" unicode="&#x13d;" horiz-adv-x="610" 
d="M70 0v700h190v-540h340v-160h-530zM340 470l30 230h175l-70 -230h-135z" />
    <glyph glyph-name="lcaron" unicode="&#x13e;" horiz-adv-x="403" 
d="M54 0v700h180v-700h-180zM269 470l30 230h175l-70 -230h-135z" />
    <glyph glyph-name="Ldot" unicode="&#x13f;" horiz-adv-x="611" 
d="M70 0v700h190v-540h340v-160h-530zM380 295v130h180v-130h-180z" />
    <glyph glyph-name="ldot" unicode="&#x140;" horiz-adv-x="470" 
d="M54 0v700h180v-700h-180zM289 285v130h180v-130h-180z" />
    <glyph glyph-name="Lslash" unicode="&#x141;" horiz-adv-x="689" 
d="M40 245l110 73v382h190v-255l165 110v-180l-165 -110v-105h340v-160h-530v138l-110 -73v180z" />
    <glyph glyph-name="lslash" unicode="&#x142;" horiz-adv-x="458" 
d="M139 0v178l-110 -73v180l110 73v342h180v-222l115 77v-180l-115 -77v-298h-180z" />
    <glyph glyph-name="Nacute" unicode="&#x143;" 
d="M290 700l145 -226q63 -99 119 -219h4q-8 104 -8 230v215h190v-700h-220l-145 226q-63 99 -119 219h-4q8 -104 8 -230v-215h-190v700h220zM270 750l80 130h220l-130 -130h-170z" />
    <glyph glyph-name="nacute" unicode="&#x144;" horiz-adv-x="658" 
d="M234 520v-55q53 70 150 70q104 0 164.5 -61t60.5 -169v-305h-180v295q0 95 -85 95q-53 0 -81.5 -33.5t-28.5 -91.5v-265h-180v520h180zM199 570l80 130h220l-130 -130h-170z" />
    <glyph glyph-name="Ncommaaccent" unicode="&#x145;" 
d="M290 700l145 -226q63 -99 119 -219h4q-8 104 -8 230v215h190v-700h-220l-145 226q-63 99 -119 219h-4q8 -104 8 -230v-215h-190v700h220zM315 -155v115h180v-115l-80 -115h-75l45 115h-70z" />
    <glyph glyph-name="ncommaaccent" unicode="&#x146;" horiz-adv-x="658" 
d="M234 520v-55q53 70 150 70q104 0 164.5 -61t60.5 -169v-305h-180v295q0 95 -85 95q-53 0 -81.5 -33.5t-28.5 -91.5v-265h-180v520h180zM241 -155v115h180v-115l-80 -115h-75l45 115h-70z" />
    <glyph glyph-name="Ncaron" unicode="&#x147;" 
d="M290 700l145 -226q63 -99 119 -219h4q-8 104 -8 230v215h190v-700h-220l-145 226q-63 99 -119 219h-4q8 -104 8 -230v-215h-190v700h220zM405 815l40 65h190l-130 -130h-200l-130 130h190z" />
    <glyph glyph-name="ncaron" unicode="&#x148;" horiz-adv-x="658" 
d="M234 520v-55q53 70 150 70q104 0 164.5 -61t60.5 -169v-305h-180v295q0 95 -85 95q-53 0 -81.5 -33.5t-28.5 -91.5v-265h-180v520h180zM329 635l40 65h190l-130 -130h-200l-130 130h190z" />
    <glyph glyph-name="napostrophe" unicode="&#x149;" horiz-adv-x="784" 
d="M360 520v-55q53 70 150 70q104 0 164.5 -61t60.5 -169v-305h-180v295q0 95 -85 95q-53 0 -81.5 -33.5t-28.5 -91.5v-265h-180v520h180zM10 585v115h180v-115l-80 -115h-75l45 115h-70z" />
    <glyph glyph-name="Eng" unicode="&#x14a;" 
d="M290 700l154 -227q69 -101 110 -188h4q-8 84 -8 200v215h190v-685q0 -113 -70 -166.5t-180 -53.5h-123v160h123q52 0 59 45l-169 231q-72 99 -124 214h-4q8 -101 8 -230v-215h-190v700h220z" />
    <glyph glyph-name="eng" unicode="&#x14b;" horiz-adv-x="658" 
d="M429 0v295q0 95 -85 95q-53 0 -81.5 -33.5t-28.5 -91.5v-265h-180v520h180v-50q49 65 150 65q104 0 164.5 -61t60.5 -169v-305q0 -88 -58.5 -134t-161.5 -46h-75v130h70q45 0 45 50z" />
    <glyph glyph-name="Omacron" unicode="&#x14c;" horiz-adv-x="786" 
d="M223 350q0 -91 43.5 -148t126.5 -57t126.5 57t43.5 148t-43.5 148t-126.5 57t-126.5 -57t-43.5 -148zM753 350q0 -160 -98.5 -262.5t-261.5 -102.5t-261.5 102.5t-98.5 262.5t98.5 262.5t261.5 102.5t261.5 -102.5t98.5 -262.5zM198 760v120h390v-120h-390z" />
    <glyph glyph-name="omacron" unicode="&#x14d;" horiz-adv-x="626" 
d="M598 260q0 -119 -77.5 -197t-207.5 -78t-207.5 78t-77.5 197t77.5 197t207.5 78t207.5 -78t77.5 -197zM418 260q0 55 -26 95t-79 40t-79 -40t-26 -95t26 -95t79 -40t79 40t26 95zM118 580v120h390v-120h-390z" />
    <glyph glyph-name="Obreve" unicode="&#x14e;" horiz-adv-x="786" 
d="M223 350q0 -91 43.5 -148t126.5 -57t126.5 57t43.5 148t-43.5 148t-126.5 57t-126.5 -57t-43.5 -148zM753 350q0 -160 -98.5 -262.5t-261.5 -102.5t-261.5 102.5t-98.5 262.5t98.5 262.5t261.5 102.5t261.5 -102.5t98.5 -262.5zM393 740q-84 0 -135 50.5t-59 119.5h119
q11 -50 75 -50q28 0 49 12.5t26 37.5h119q-8 -69 -59 -119.5t-135 -50.5z" />
    <glyph glyph-name="obreve" unicode="&#x14f;" horiz-adv-x="626" 
d="M598 260q0 -119 -77.5 -197t-207.5 -78t-207.5 78t-77.5 197t77.5 197t207.5 78t207.5 -78t77.5 -197zM418 260q0 55 -26 95t-79 40t-79 -40t-26 -95t26 -95t79 -40t79 40t26 95zM313 560q-84 0 -135 50.5t-59 119.5h119q11 -50 75 -50q28 0 49 12.5t26 37.5h119
q-8 -69 -59 -119.5t-135 -50.5z" />
    <glyph glyph-name="Ohungarumlaut" unicode="&#x150;" horiz-adv-x="786" 
d="M223 350q0 -91 43.5 -148t126.5 -57t126.5 57t43.5 148t-43.5 148t-126.5 57t-126.5 -57t-43.5 -148zM753 350q0 -160 -98.5 -262.5t-261.5 -102.5t-261.5 102.5t-98.5 262.5t98.5 262.5t261.5 102.5t261.5 -102.5t98.5 -262.5zM188 750l65 130h175l-90 -130h-150z
M398 750l65 130h175l-90 -130h-150z" />
    <glyph glyph-name="ohungarumlaut" unicode="&#x151;" horiz-adv-x="626" 
d="M598 260q0 -119 -77.5 -197t-207.5 -78t-207.5 78t-77.5 197t77.5 197t207.5 78t207.5 -78t77.5 -197zM418 260q0 55 -26 95t-79 40t-79 -40t-26 -95t26 -95t79 -40t79 40t26 95zM108 570l65 130h175l-90 -130h-150zM318 570l65 130h175l-90 -130h-150z" />
    <glyph glyph-name="OE" unicode="&#x152;" horiz-adv-x="1128" 
d="M549 0v35q-73 -50 -175 -50q-152 0 -246 103t-94 262t94 262t246 103q102 0 175 -50v35h530v-160h-340v-105h320v-160h-320v-115h340v-160h-530zM224 350q0 -92 41.5 -148.5t123.5 -56.5t123.5 56.5t41.5 148.5t-41.5 148.5t-123.5 56.5t-123.5 -56.5t-41.5 -148.5z" />
    <glyph glyph-name="oe" unicode="&#x153;" horiz-adv-x="1001" 
d="M703 105q28 0 48 16t24 39h188q-20 -79 -86.5 -127t-173.5 -48q-121 0 -195 68q-74 -68 -195 -68q-130 0 -207.5 78t-77.5 197t77.5 197t207.5 78q121 0 195 -68q73 68 190 68q101 0 166.5 -46.5t91.5 -127.5q17 -54 17 -126v-35h-370q4 -44 31.5 -69.5t68.5 -25.5z
M418 260q0 55 -26 95t-79 40t-79 -40t-26 -95t26 -95t79 -40t79 40t26 95zM698 415q-88 0 -95 -100h185q-7 100 -90 100z" />
    <glyph glyph-name="Racute" unicode="&#x154;" horiz-adv-x="762" 
d="M260 390h200q35 0 52.5 21t17.5 54t-17.5 54t-52.5 21h-200v-150zM508 242l242 -242h-245l-230 240h-15v-240h-190v700h400q111 0 180.5 -65.5t69.5 -164.5q0 -90 -58 -153t-154 -75zM240 750l80 130h220l-130 -130h-170z" />
    <glyph glyph-name="racute" unicode="&#x155;" horiz-adv-x="438" 
d="M94 570l80 130h220l-130 -130h-170zM428 380h-79q-57 0 -86 -25.5t-29 -89.5v-265h-180v520h180v-60q20 36 55 53t100 17h39v-150z" />
    <glyph glyph-name="Rcommaaccent" unicode="&#x156;" horiz-adv-x="762" 
d="M260 390h200q35 0 52.5 21t17.5 54t-17.5 54t-52.5 21h-200v-150zM508 242l242 -242h-245l-230 240h-15v-240h-190v700h400q111 0 180.5 -65.5t69.5 -164.5q0 -90 -58 -153t-154 -75zM287 -155v115h180v-115l-80 -115h-75l45 115h-70z" />
    <glyph glyph-name="rcommaaccent" unicode="&#x157;" horiz-adv-x="438" 
d="M54 -155v115h180v-115l-80 -115h-75l45 115h-70zM428 380h-79q-57 0 -86 -25.5t-29 -89.5v-265h-180v520h180v-60q20 36 55 53t100 17h39v-150z" />
    <glyph glyph-name="Rcaron" unicode="&#x158;" horiz-adv-x="762" 
d="M260 390h200q35 0 52.5 21t17.5 54t-17.5 54t-52.5 21h-200v-150zM508 242l242 -242h-245l-230 240h-15v-240h-190v700h400q111 0 180.5 -65.5t69.5 -164.5q0 -90 -58 -153t-154 -75zM370 815l40 65h190l-130 -130h-200l-130 130h190z" />
    <glyph glyph-name="rcaron" unicode="&#x159;" horiz-adv-x="438" 
d="M234 635l40 65h190l-130 -130h-200l-130 130h190zM428 380h-79q-57 0 -86 -25.5t-29 -89.5v-265h-180v520h180v-60q20 36 55 53t100 17h39v-150z" />
    <glyph glyph-name="Sacute" unicode="&#x15a;" horiz-adv-x="684" 
d="M346 258l-30 4q-60 8 -105 22.5t-85.5 40t-61.5 68.5t-21 102q0 99 79 159.5t216 60.5q139 0 216.5 -62.5t83.5 -152.5h-190q-2 40 -27 60t-83 20q-110 0 -110 -63q0 -36 28 -49.5t94 -22.5l30 -4q48 -7 82.5 -14.5t73 -24t62 -39t39.5 -60.5t16 -88q0 -102 -84.5 -166
t-225.5 -64q-145 0 -228 62t-87 168h190q4 -95 125 -95q62 0 93.5 20t31.5 55q0 17 -8 28.5t-28.5 18t-35.5 9t-50 7.5zM208 750l80 130h220l-130 -130h-170z" />
    <glyph glyph-name="sacute" unicode="&#x15b;" horiz-adv-x="561" 
d="M280 181l-15 1q-60 4 -109 21.5t-84 59t-35 101.5q0 83 68 127t177 44q103 0 169 -48.5t71 -116.5h-180q-2 50 -62 50q-66 0 -66 -36q0 -19 16.5 -28t58.5 -11l16 -1q227 -14 227 -184q0 -81 -69 -128t-181 -47t-182 47.5t-73 127.5h178q3 -60 77 -60q73 0 73 42
q0 15 -12.5 24t-26 11.5t-36.5 3.5zM152 570l80 130h220l-130 -130h-170z" />
    <glyph glyph-name="Scircumflex" unicode="&#x15c;" horiz-adv-x="684" 
d="M346 258l-30 4q-60 8 -105 22.5t-85.5 40t-61.5 68.5t-21 102q0 99 79 159.5t216 60.5q139 0 216.5 -62.5t83.5 -152.5h-190q-2 40 -27 60t-83 20q-110 0 -110 -63q0 -36 28 -49.5t94 -22.5l30 -4q48 -7 82.5 -14.5t73 -24t62 -39t39.5 -60.5t16 -88q0 -102 -84.5 -166
t-225.5 -64q-145 0 -228 62t-87 168h190q4 -95 125 -95q62 0 93.5 20t31.5 55q0 17 -8 28.5t-28.5 18t-35.5 9t-50 7.5zM378 750l-40 65l-40 -65h-190l130 130h200l130 -130h-190z" />
    <glyph glyph-name="scircumflex" unicode="&#x15d;" horiz-adv-x="561" 
d="M280 181l-15 1q-60 4 -109 21.5t-84 59t-35 101.5q0 83 68 127t177 44q103 0 169 -48.5t71 -116.5h-180q-2 50 -62 50q-66 0 -66 -36q0 -19 16.5 -28t58.5 -11l16 -1q227 -14 227 -184q0 -81 -69 -128t-181 -47t-182 47.5t-73 127.5h178q3 -60 77 -60q73 0 73 42
q0 15 -12.5 24t-26 11.5t-36.5 3.5zM322 570l-40 65l-40 -65h-190l130 130h200l130 -130h-190z" />
    <glyph glyph-name="Scedilla" unicode="&#x15e;" horiz-adv-x="684" 
d="M346 258l-30 4q-60 8 -105 22.5t-85.5 40t-61.5 68.5t-21 102q0 99 79 159.5t216 60.5q139 0 216.5 -62.5t83.5 -152.5h-190q-2 40 -27 60t-83 20q-110 0 -110 -63q0 -36 28 -49.5t94 -22.5l30 -4q48 -7 82.5 -14.5t73 -24t62 -39t39.5 -60.5t16 -88q0 -86 -61.5 -146.5
t-167.5 -77.5l-35 -35q27 -2 48 -24t21 -57q0 -44 -33.5 -74.5t-81.5 -30.5q-46 0 -79.5 29t-35.5 71h90q4 -20 25 -20q25 0 25 25t-25 25q-10 0 -18 -8l-60 60l34 34q-125 10 -196.5 71t-74.5 158h190q4 -95 125 -95q62 0 93.5 20t31.5 55q0 17 -8 28.5t-28.5 18t-35.5 9
t-50 7.5z" />
    <glyph glyph-name="scedilla" unicode="&#x15f;" horiz-adv-x="561" 
d="M172 -130h90q4 -20 25 -20q25 0 25 25t-25 25q-10 0 -18 -8l-60 60l35 35q-95 7 -155 53.5t-62 119.5h178q3 -60 77 -60q73 0 73 42q0 15 -12.5 24t-26 11.5t-36.5 3.5l-15 1q-60 4 -109 21.5t-84 59t-35 101.5q0 83 68 127t177 44q103 0 169 -48.5t71 -116.5h-180
q-2 50 -65 50t-63 -36q0 -19 16.5 -28t58.5 -11l16 -1q227 -14 227 -184q0 -63 -43 -106.5t-118 -59.5l-38 -38q27 -2 48 -24t21 -57q0 -44 -33.5 -74.5t-81.5 -30.5q-46 0 -79.5 29t-35.5 71z" />
    <glyph glyph-name="Scaron" unicode="&#x160;" horiz-adv-x="684" 
d="M346 258l-30 4q-60 8 -105 22.5t-85.5 40t-61.5 68.5t-21 102q0 99 79 159.5t216 60.5q139 0 216.5 -62.5t83.5 -152.5h-190q-2 40 -27 60t-83 20q-110 0 -110 -63q0 -36 28 -49.5t94 -22.5l30 -4q48 -7 82.5 -14.5t73 -24t62 -39t39.5 -60.5t16 -88q0 -102 -84.5 -166
t-225.5 -64q-145 0 -228 62t-87 168h190q4 -95 125 -95q62 0 93.5 20t31.5 55q0 17 -8 28.5t-28.5 18t-35.5 9t-50 7.5zM338 815l40 65h190l-130 -130h-200l-130 130h190z" />
    <glyph glyph-name="scaron" unicode="&#x161;" horiz-adv-x="561" 
d="M280 181l-15 1q-60 4 -109 21.5t-84 59t-35 101.5q0 83 68 127t177 44q103 0 169 -48.5t71 -116.5h-180q-2 50 -62 50q-66 0 -66 -36q0 -19 16.5 -28t58.5 -11l16 -1q227 -14 227 -184q0 -81 -69 -128t-181 -47t-182 47.5t-73 127.5h178q3 -60 77 -60q73 0 73 42
q0 15 -12.5 24t-26 11.5t-36.5 3.5zM282 635l40 65h190l-130 -130h-200l-130 130h190z" />
    <glyph glyph-name="Tcommaaccent" unicode="&#x162;" horiz-adv-x="650" 
d="M200 -130h90q4 -20 25 -20q25 0 25 25t-25 25q-10 0 -18 -8l-60 60l48 48h-55v540h-220v160h630v-160h-220v-540h-15l-44 -44q27 -2 48 -24t21 -57q0 -44 -33.5 -74.5t-81.5 -30.5q-46 0 -79.5 29t-35.5 71z" />
    <glyph glyph-name="tcommaaccent" unicode="&#x163;" horiz-adv-x="486" 
d="M146 -130h90q4 -20 25 -20q25 0 25 25t-25 25q-10 0 -18 -8l-60 60l54 54q-102 23 -102 154v220h-125v140h125v120h180v-120h150v-140h-150v-220q0 -30 30 -30h120v-130h-114l-44 -44q27 -2 48 -24t21 -57q0 -44 -33.5 -74.5t-81.5 -30.5q-46 0 -79.5 29t-35.5 71z" />
    <glyph glyph-name="Tcaron" unicode="&#x164;" horiz-adv-x="650" 
d="M640 700v-160h-220v-540h-190v540h-220v160h630zM325 815l40 65h190l-130 -130h-200l-130 130h190z" />
    <glyph glyph-name="tcaron" unicode="&#x165;" horiz-adv-x="486" 
d="M360 580l30 230h175l-70 -230h-135zM135 160v220h-125v140h125v120h180v-120h150v-140h-150v-220q0 -30 30 -30h120v-130h-170q-81 0 -120.5 38t-39.5 122z" />
    <glyph glyph-name="Tbar" unicode="&#x166;" horiz-adv-x="666" 
d="M98 270v155h140v115h-220v160h630v-160h-220v-115h140v-155h-140v-270h-190v270h-140z" />
    <glyph glyph-name="tbar" unicode="&#x167;" horiz-adv-x="487" 
d="M50 335h85v45h-125v140h125v120h180v-120h150v-140h-150v-45h110v-120h-110v-55q0 -30 30 -30h120v-130h-170q-81 0 -120.5 38t-39.5 122v55h-85v120z" />
    <glyph glyph-name="Utilde" unicode="&#x168;" horiz-adv-x="746" 
d="M373 -15q-138 0 -224 82t-86 198v435h190v-435q0 -57 34 -88.5t86 -31.5t86 31.5t34 88.5v435h190v-435q0 -116 -86 -198t-224 -82zM263 755h-90q0 70 32.5 110t97.5 40q45 0 92.5 -27.5t62.5 -27.5q25 0 25 35h90q0 -70 -32.5 -110t-97.5 -40q-45 0 -92.5 27.5
t-62.5 27.5q-25 0 -25 -35z" />
    <glyph glyph-name="utilde" unicode="&#x169;" horiz-adv-x="653" 
d="M419 0v50q-49 -65 -150 -65q-102 0 -161 61t-59 169v305h180v-295q0 -95 85 -95q53 0 79 33t26 92v265h180v-520h-180zM214 575h-90q0 70 32.5 110t97.5 40q45 0 92.5 -27.5t62.5 -27.5q25 0 25 35h90q0 -70 -32.5 -110t-97.5 -40q-45 0 -92.5 27.5t-62.5 27.5
q-25 0 -25 -35z" />
    <glyph glyph-name="Umacron" unicode="&#x16a;" horiz-adv-x="746" 
d="M373 -15q-138 0 -224 82t-86 198v435h190v-435q0 -57 34 -88.5t86 -31.5t86 31.5t34 88.5v435h190v-435q0 -116 -86 -198t-224 -82zM178 760v120h390v-120h-390z" />
    <glyph glyph-name="umacron" unicode="&#x16b;" horiz-adv-x="653" 
d="M419 0v50q-49 -65 -150 -65q-102 0 -161 61t-59 169v305h180v-295q0 -95 85 -95q53 0 79 33t26 92v265h180v-520h-180zM129 580v120h390v-120h-390z" />
    <glyph glyph-name="Ubreve" unicode="&#x16c;" horiz-adv-x="746" 
d="M373 -15q-138 0 -224 82t-86 198v435h190v-435q0 -57 34 -88.5t86 -31.5t86 31.5t34 88.5v435h190v-435q0 -116 -86 -198t-224 -82zM373 740q-84 0 -135 50.5t-59 119.5h119q11 -50 75 -50q28 0 49 12.5t26 37.5h119q-8 -69 -59 -119.5t-135 -50.5z" />
    <glyph glyph-name="ubreve" unicode="&#x16d;" horiz-adv-x="653" 
d="M419 0v50q-49 -65 -150 -65q-102 0 -161 61t-59 169v305h180v-295q0 -95 85 -95q53 0 79 33t26 92v265h180v-520h-180zM324 560q-84 0 -135 50.5t-59 119.5h119q11 -50 75 -50q28 0 49 12.5t26 37.5h119q-8 -69 -59 -119.5t-135 -50.5z" />
    <glyph glyph-name="Uring" unicode="&#x16e;" horiz-adv-x="746" 
d="M373 -15q-138 0 -224 82t-86 198v435h190v-435q0 -57 34 -88.5t86 -31.5t86 31.5t34 88.5v435h190v-435q0 -116 -86 -198t-224 -82zM228 795q0 56 42 95.5t103 39.5t103 -39.5t42 -95.5t-42 -95.5t-103 -39.5t-103 39.5t-42 95.5zM323 795q0 -21 14.5 -35.5t35.5 -14.5
t35.5 14.5t14.5 35.5t-14.5 35.5t-35.5 14.5t-35.5 -14.5t-14.5 -35.5z" />
    <glyph glyph-name="uring" unicode="&#x16f;" horiz-adv-x="653" 
d="M419 0v50q-49 -65 -150 -65q-102 0 -161 61t-59 169v305h180v-295q0 -95 85 -95q53 0 79 33t26 92v265h180v-520h-180zM179 685q0 56 42 95.5t103 39.5t103 -39.5t42 -95.5t-42 -95.5t-103 -39.5t-103 39.5t-42 95.5zM274 685q0 -21 14.5 -35.5t35.5 -14.5t35.5 14.5
t14.5 35.5t-14.5 35.5t-35.5 14.5t-35.5 -14.5t-14.5 -35.5z" />
    <glyph glyph-name="Uhungarumlaut" unicode="&#x170;" horiz-adv-x="746" 
d="M373 -15q-138 0 -224 82t-86 198v435h190v-435q0 -57 34 -88.5t86 -31.5t86 31.5t34 88.5v435h190v-435q0 -116 -86 -198t-224 -82zM163 750l65 130h175l-90 -130h-150zM373 750l65 130h175l-90 -130h-150z" />
    <glyph glyph-name="uhungarumlaut" unicode="&#x171;" horiz-adv-x="653" 
d="M419 0v50q-49 -65 -150 -65q-102 0 -161 61t-59 169v305h180v-295q0 -95 85 -95q53 0 79 33t26 92v265h180v-520h-180zM119 570l65 130h175l-90 -130h-150zM329 570l65 130h175l-90 -130h-150z" />
    <glyph glyph-name="Uogonek" unicode="&#x172;" horiz-adv-x="746" 
d="M528 -125q29 0 60 9l-43 -113q-31 -11 -77 -11q-67 0 -111 34.5t-44 95.5q0 59 44 95q-132 5 -213 86t-81 194v435h190v-435q0 -57 34 -88.5t86 -31.5t86 31.5t34 88.5v435h190v-435q0 -58 -21.5 -107.5t-52.5 -81.5t-62 -59t-52.5 -53t-21.5 -51q0 -38 55 -38z" />
    <glyph glyph-name="uogonek" unicode="&#x173;" horiz-adv-x="653" 
d="M549 -125q29 0 60 9l-43 -113q-31 -11 -77 -11q-67 0 -111 34.5t-44 95.5q0 84 85 120v40q-49 -65 -150 -65q-102 0 -161 61t-59 169v305h180v-295q0 -95 85 -95q53 0 79 33t26 92v265h180v-520q-105 -42 -105 -87q0 -38 55 -38z" />
    <glyph glyph-name="Wcircumflex" unicode="&#x174;" horiz-adv-x="1002" 
d="M341 455l65 245h190l65 -245q22 -82 43 -205h4q22 133 41 205l62 245h190l-200 -700h-190l-69 259q-19 72 -39 191h-4q-20 -119 -39 -191l-69 -259h-190l-200 700h190l62 -245q19 -72 41 -205h4q21 123 43 205zM541 750l-40 65l-40 -65h-190l130 130h200l130 -130h-190z
" />
    <glyph glyph-name="wcircumflex" unicode="&#x175;" horiz-adv-x="834" 
d="M504 520l40 -145q19 -68 38 -190h4q21 152 31 192l34 143h181l-160 -520h-175l-42 153q-18 64 -36 187h-4q-18 -123 -36 -187l-42 -153h-175l-160 520h181l34 -143q10 -40 31 -192h4q19 122 38 190l40 145h174zM457 570l-40 65l-40 -65h-190l130 130h200l130 -130h-190z
" />
    <glyph glyph-name="Ycircumflex" unicode="&#x176;" horiz-adv-x="658" 
d="M234 0v265l-235 435h200l130 -270l130 270h200l-235 -435v-265h-190zM369 750l-40 65l-40 -65h-190l130 130h200l130 -130h-190z" />
    <glyph glyph-name="ycircumflex" unicode="&#x177;" horiz-adv-x="564" 
d="M323 570l-40 65l-40 -65h-190l130 130h200l130 -130h-190zM193 520l50 -159q20 -63 36 -166h4q16 93 41 165l53 160h186l-209 -562q-27 -72 -71 -105t-139 -33h-98v130h78q57 0 74 50l-195 520h190z" />
    <glyph glyph-name="Ydieresis" unicode="&#x178;" horiz-adv-x="658" 
d="M234 0v265l-235 435h200l130 -270l130 270h200l-235 -435v-265h-190zM114 750v130h180v-130h-180zM364 750v130h180v-130h-180z" />
    <glyph glyph-name="Zacute" unicode="&#x179;" horiz-adv-x="662" 
d="M628 160v-160h-590v160l335 380h-325v160h565v-160l-335 -380h350zM203 750l80 130h220l-130 -130h-170z" />
    <glyph glyph-name="zacute" unicode="&#x17a;" horiz-adv-x="568" 
d="M282 140h253v-140h-500v140l243 240h-233v140h480v-140zM155 570l80 130h220l-130 -130h-170z" />
    <glyph glyph-name="Zdotaccent" unicode="&#x17b;" horiz-adv-x="662" 
d="M628 160v-160h-590v160l335 380h-325v160h565v-160l-335 -380h350zM238 750v130h180v-130h-180z" />
    <glyph glyph-name="zdotaccent" unicode="&#x17c;" horiz-adv-x="568" 
d="M282 140h253v-140h-500v140l243 240h-233v140h480v-140zM195 570v130h180v-130h-180z" />
    <glyph glyph-name="Zcaron" unicode="&#x17d;" horiz-adv-x="662" 
d="M628 160v-160h-590v160l335 380h-325v160h565v-160l-335 -380h350zM333 815l40 65h190l-130 -130h-200l-130 130h190z" />
    <glyph glyph-name="zcaron" unicode="&#x17e;" horiz-adv-x="568" 
d="M282 140h253v-140h-500v140l243 240h-233v140h480v-140zM285 635l40 65h190l-130 -130h-200l-130 130h190z" />
    <glyph glyph-name="longs" unicode="&#x17f;" horiz-adv-x="371" 
d="M12 380v140h105v20q0 82 48 121t132 39h125v-130h-95q-30 0 -30 -30v-540h-180v380h-105z" />
    <glyph glyph-name="uni018F" unicode="&#x18f;" horiz-adv-x="766" 
d="M247 500h-205q34 98 118.5 156.5t216.5 58.5q163 0 259 -101t96 -264q0 -160 -96.5 -262.5t-258.5 -102.5q-91 0 -159 32.5t-107.5 90t-59 128t-19.5 154.5v30h504q-10 68 -51 106.5t-108 38.5q-100 0 -130 -65zM377 135q60 0 102 37t54 98h-301q8 -59 46 -97t99 -38z
" />
    <glyph glyph-name="florin" unicode="&#x192;" horiz-adv-x="553" 
d="M346 380l-70 -395q-16 -91 -73.5 -128t-148.5 -37h-89v130h82q22 0 30 7.5t12 27.5l70 395h-104v140h128l3 17q29 163 224 163h114v-130h-109q-22 0 -30 -7.5t-12 -27.5l-3 -15h155v-140h-179z" />
    <glyph glyph-name="uni01B5" unicode="&#x1b5;" horiz-adv-x="669" 
d="M72 275v155h208l97 110h-325v160h565v-160l-97 -110h82v-155h-219l-101 -115h350v-160h-590v160l101 115h-71z" />
    <glyph glyph-name="uni01B6" unicode="&#x1b6;" horiz-adv-x="571" 
d="M284 140h253v-140h-500v140l71 70h-46v120h167l51 50h-233v140h480v-140l-51 -50h41v-120h-162z" />
    <glyph glyph-name="Aringacute" unicode="&#x1fa;" horiz-adv-x="742" 
d="M556 0l-49 125h-272l-49 -125h-195l243 596q-8 21 -8 44q0 56 42 95.5t103 39.5t103 -39.5t42 -95.5q0 -23 -8 -44l243 -596h-195zM236 800l80 130h220l-130 -130h-170zM321 640q0 -21 14.5 -35.5t35.5 -14.5t35.5 14.5t14.5 35.5t-14.5 35.5t-35.5 14.5t-35.5 -14.5
t-14.5 -35.5zM445 285l-13 34q-29 76 -59 181h-4q-30 -105 -59 -181l-13 -34h148z" />
    <glyph glyph-name="aringacute" unicode="&#x1fb;" horiz-adv-x="609" 
d="M159 590q0 56 42 95.5t103 39.5t103 -39.5t42 -95.5q0 -39 -22 -72q132 -43 132 -173v-345h-180v47q-52 -62 -155 -62q-89 0 -144.5 45.5t-55.5 129.5q0 76 55 118.5t150 51.5l150 15q0 35 -15 52.5t-60 17.5q-63 0 -70 -45h-185q22 108 133 147q-23 33 -23 73zM174 750
l80 130h220l-130 -130h-170zM269 110q43 0 76.5 32.5t33.5 82.5v5l-117 -13q-58 -7 -58 -52q0 -55 65 -55zM254 590q0 -21 14.5 -35.5t35.5 -14.5t35.5 14.5t14.5 35.5t-14.5 35.5t-35.5 14.5t-35.5 -14.5t-14.5 -35.5z" />
    <glyph glyph-name="AEacute" unicode="&#x1fc;" horiz-adv-x="1130" 
d="M551 0v125h-281l-84 -125h-210l470 700h635v-160h-340v-105h320v-160h-320v-115h340v-160h-530zM551 540h-5l-170 -255h175v255zM611 750l80 130h220l-130 -130h-170z" />
    <glyph glyph-name="aeacute" unicode="&#x1fd;" horiz-adv-x="957" 
d="M659 105q28 0 48 16t24 39h188q-20 -79 -86.5 -127t-173.5 -48q-130 0 -206 79q-71 -79 -219 -79q-93 0 -151.5 45.5t-58.5 129.5q0 76 55 118.5t150 51.5l150 15q0 35 -15 52.5t-60 17.5q-63 0 -70 -45h-185q17 82 84 123.5t171 41.5q119 0 184 -48q69 48 166 48
q101 0 166.5 -46.5t91.5 -127.5q17 -54 17 -126v-35h-370q4 -44 31.5 -69.5t68.5 -25.5zM269 110q43 0 76.5 32.5t33.5 82.5v5l-117 -13q-58 -7 -58 -52q0 -55 65 -55zM654 415q-88 0 -95 -100h185q-7 100 -90 100zM349 570l80 130h220l-130 -130h-170z" />
    <glyph glyph-name="Oslashacute" unicode="&#x1fe;" horiz-adv-x="790" 
d="M265 750l80 130h220l-130 -130h-170zM10 -15l104 124q-79 98 -79 241q0 160 98.5 262.5t261.5 102.5q105 0 187 -45l38 45h160l-104 -125q79 -98 79 -240q0 -160 -98.5 -262.5t-261.5 -102.5q-106 0 -187 45l-38 -45h-160zM225 350q0 -52 13 -92l234 280q-32 17 -77 17
q-83 0 -126.5 -57t-43.5 -148zM565 350q0 52 -14 91l-233 -279q34 -17 77 -17q83 0 126.5 57t43.5 148z" />
    <glyph glyph-name="oslashacute" unicode="&#x1ff;" horiz-adv-x="628" 
d="M599 260q0 -119 -77.5 -197t-207.5 -78q-81 0 -145 32l-27 -32h-118l73 87q-68 74 -68 188q0 119 77.5 197t207.5 78q84 0 145 -33l27 33h118l-73 -87q68 -74 68 -188zM209 260q0 -29 5 -49l146 173q-19 11 -46 11q-53 0 -79 -40t-26 -95zM419 260q0 26 -6 48l-145 -173
q22 -10 46 -10q53 0 79 40t26 95zM184 570l80 130h220l-130 -130h-170z" />
    <glyph glyph-name="Scommaaccent" unicode="&#x218;" horiz-adv-x="684" 
d="M346 258l-30 4q-60 8 -105 22.5t-85.5 40t-61.5 68.5t-21 102q0 99 79 159.5t216 60.5q139 0 216.5 -62.5t83.5 -152.5h-190q-2 40 -27 60t-83 20q-110 0 -110 -63q0 -36 28 -49.5t94 -22.5l30 -4q48 -7 82.5 -14.5t73 -24t62 -39t39.5 -60.5t16 -88q0 -102 -84.5 -166
t-225.5 -64q-145 0 -228 62t-87 168h190q4 -95 125 -95q62 0 93.5 20t31.5 55q0 17 -8 28.5t-28.5 18t-35.5 9t-50 7.5zM263 -155v115h180v-115l-80 -115h-75l45 115h-70z" />
    <glyph glyph-name="scommaaccent" unicode="&#x219;" horiz-adv-x="561" 
d="M280 181l-15 1q-60 4 -109 21.5t-84 59t-35 101.5q0 83 68 127t177 44q103 0 169 -48.5t71 -116.5h-180q-2 50 -62 50q-66 0 -66 -36q0 -19 16.5 -28t58.5 -11l16 -1q227 -14 227 -184q0 -81 -69 -128t-181 -47t-182 47.5t-73 127.5h178q3 -60 77 -60q73 0 73 42
q0 15 -12.5 24t-26 11.5t-36.5 3.5zM197 -155v115h180v-115l-80 -115h-75l45 115h-70z" />
    <glyph glyph-name="uni021A" unicode="&#x21a;" horiz-adv-x="650" 
d="M640 700v-160h-220v-540h-190v540h-220v160h630zM235 -155v115h180v-115l-80 -115h-75l45 115h-70z" />
    <glyph glyph-name="uni021B" unicode="&#x21b;" horiz-adv-x="486" 
d="M182 -155v115h180v-115l-80 -115h-75l45 115h-70zM135 160v220h-125v140h125v120h180v-120h150v-140h-150v-220q0 -30 30 -30h120v-130h-170q-81 0 -120.5 38t-39.5 122z" />
    <glyph glyph-name="dotlessj" unicode="&#x237;" horiz-adv-x="292" 
d="M58 0v520h180v-520q0 -88 -58.5 -134t-161.5 -46h-75v130h70q45 0 45 50z" />
    <glyph glyph-name="uni0259" unicode="&#x259;" horiz-adv-x="612" 
d="M228 370h-190q26 79 95.5 122t169.5 43q130 0 205 -77.5t75 -197.5q0 -119 -76.5 -197t-203.5 -78q-101 0 -166.5 46.5t-91.5 127.5q-17 54 -17 126v35h370q-4 45 -29.5 70t-65.5 25q-58 0 -75 -45zM303 105q88 0 95 100h-185q7 -100 90 -100z" />
    <glyph glyph-name="circumflex" unicode="&#x2c6;" horiz-adv-x="470" 
d="M275 570l-40 65l-40 -65h-190l130 130h200l130 -130h-190z" />
    <glyph glyph-name="caron" unicode="&#x2c7;" horiz-adv-x="470" 
d="M235 635l40 65h190l-130 -130h-200l-130 130h190z" />
    <glyph glyph-name="breve" unicode="&#x2d8;" horiz-adv-x="410" 
d="M205 560q-84 0 -135 50.5t-59 119.5h119q11 -50 75 -50q28 0 49 12.5t26 37.5h119q-8 -69 -59 -119.5t-135 -50.5z" />
    <glyph glyph-name="dotaccent" unicode="&#x2d9;" horiz-adv-x="240" 
d="M30 570v130h180v-130h-180z" />
    <glyph glyph-name="ring" unicode="&#x2da;" horiz-adv-x="320" 
d="M15 685q0 56 42 95.5t103 39.5t103 -39.5t42 -95.5t-42 -95.5t-103 -39.5t-103 39.5t-42 95.5zM110 685q0 -21 14.5 -35.5t35.5 -14.5t35.5 14.5t14.5 35.5t-14.5 35.5t-35.5 14.5t-35.5 -14.5t-14.5 -35.5z" />
    <glyph glyph-name="ogonek" unicode="&#x2db;" horiz-adv-x="280" 
d="M220 -125q29 0 60 9l-43 -113q-31 -11 -77 -11q-67 0 -111 34.5t-44 95.5q0 84 85 120l180 -10q-105 -42 -105 -87q0 -38 55 -38z" />
    <glyph glyph-name="tilde" unicode="&#x2dc;" horiz-adv-x="440" 
d="M110 575h-90q0 70 32.5 110t97.5 40q45 0 92.5 -27.5t62.5 -27.5q25 0 25 35h90q0 -70 -32.5 -110t-97.5 -40q-45 0 -92.5 27.5t-62.5 27.5q-25 0 -25 -35z" />
    <glyph glyph-name="hungarumlaut" unicode="&#x2dd;" horiz-adv-x="540" 
d="M45 570l65 130h175l-90 -130h-150zM255 570l65 130h175l-90 -130h-150z" />
    <glyph glyph-name="uni0326" unicode="&#x326;" horiz-adv-x="0" 
d="M-395 -155v115h180v-115l-80 -115h-75l45 115h-70z" />
    <glyph glyph-name="uni0394" unicode="&#x394;" horiz-adv-x="644" 
d="M27 0v140l200 560h190l200 -560v-140h-590zM322 475l-110 -335h220z" />
    <glyph glyph-name="uni03A9" unicode="&#x3a9;" horiz-adv-x="748" 
d="M374 575q-66 0 -110.5 -42.5t-44.5 -117.5q0 -134 130 -170v-245h-295v140h170v5q-85 33 -135 108.5t-50 166.5q0 125 94 210t241 85t241 -85t94 -210q0 -91 -50 -166.5t-135 -108.5v-5h170v-140h-295v245q130 36 130 170q0 75 -44.5 117.5t-110.5 42.5z" />
    <glyph glyph-name="uni03BC" unicode="&#x3bc;" horiz-adv-x="638" 
d="M404 0v22q-30 -37 -85 -37t-85 37v-202h-180v700h180v-295q0 -47 21.5 -73.5t63.5 -26.5q40 0 62.5 26t22.5 74v295h180v-520h-180z" />
    <glyph glyph-name="pi" unicode="&#x3c0;" horiz-adv-x="656" 
d="M373 0v380h-90v-380h-180v380h-75v140h600v-140h-75v-380h-180z" />
    <glyph glyph-name="Wgrave" unicode="&#x1e80;" horiz-adv-x="1002" 
d="M341 455l65 245h190l65 -245q22 -82 43 -205h4q22 133 41 205l62 245h190l-200 -700h-190l-69 259q-19 72 -39 191h-4q-20 -119 -39 -191l-69 -259h-190l-200 700h190l62 -245q19 -72 41 -205h4q21 123 43 205zM556 880l80 -130h-170l-130 130h220z" />
    <glyph glyph-name="wgrave" unicode="&#x1e81;" horiz-adv-x="834" 
d="M504 520l40 -145q19 -68 38 -190h4q21 152 31 192l34 143h181l-160 -520h-175l-42 153q-18 64 -36 187h-4q-18 -123 -36 -187l-42 -153h-175l-160 520h181l34 -143q10 -40 31 -192h4q19 122 38 190l40 145h174zM467 700l80 -130h-170l-130 130h220z" />
    <glyph glyph-name="Wacute" unicode="&#x1e82;" horiz-adv-x="1002" 
d="M341 455l65 245h190l65 -245q22 -82 43 -205h4q22 133 41 205l62 245h190l-200 -700h-190l-69 259q-19 72 -39 191h-4q-20 -119 -39 -191l-69 -259h-190l-200 700h190l62 -245q19 -72 41 -205h4q21 123 43 205zM366 750l80 130h220l-130 -130h-170z" />
    <glyph glyph-name="wacute" unicode="&#x1e83;" horiz-adv-x="834" 
d="M504 520l40 -145q19 -68 38 -190h4q21 152 31 192l34 143h181l-160 -520h-175l-42 153q-18 64 -36 187h-4q-18 -123 -36 -187l-42 -153h-175l-160 520h181l34 -143q10 -40 31 -192h4q19 122 38 190l40 145h174zM287 570l80 130h220l-130 -130h-170z" />
    <glyph glyph-name="Wdieresis" unicode="&#x1e84;" horiz-adv-x="1002" 
d="M341 455l65 245h190l65 -245q22 -82 43 -205h4q22 133 41 205l62 245h190l-200 -700h-190l-69 259q-19 72 -39 191h-4q-20 -119 -39 -191l-69 -259h-190l-200 700h190l62 -245q19 -72 41 -205h4q21 123 43 205zM286 750v130h180v-130h-180zM536 750v130h180v-130h-180z
" />
    <glyph glyph-name="wdieresis" unicode="&#x1e85;" horiz-adv-x="834" 
d="M504 520l40 -145q19 -68 38 -190h4q21 152 31 192l34 143h181l-160 -520h-175l-42 153q-18 64 -36 187h-4q-18 -123 -36 -187l-42 -153h-175l-160 520h181l34 -143q10 -40 31 -192h4q19 122 38 190l40 145h174zM202 570v130h180v-130h-180zM452 570v130h180v-130h-180z
" />
    <glyph glyph-name="uni1E8A" unicode="&#x1e8a;" horiz-adv-x="698" 
d="M684 700l-230 -329l255 -371h-223l-140 212l-141 -212h-216l254 365l-229 335h223l115 -175l116 175h216zM259 750v130h180v-130h-180z" />
    <glyph glyph-name="uni1E8B" unicode="&#x1e8b;" horiz-adv-x="560" 
d="M-5 0l188 269l-173 251h207l65 -104l66 104h202l-173 -247l188 -273h-207l-80 126l-81 -126h-202zM195 570v130h180v-130h-180z" />
    <glyph glyph-name="Ygrave" unicode="&#x1ef2;" horiz-adv-x="658" 
d="M234 0v265l-235 435h200l130 -270l130 270h200l-235 -435v-265h-190zM379 880l80 -130h-170l-130 130h220z" />
    <glyph glyph-name="ygrave" unicode="&#x1ef3;" horiz-adv-x="564" 
d="M333 700l80 -130h-170l-130 130h220zM193 520l50 -159q20 -63 36 -166h4q16 93 41 165l53 160h186l-209 -562q-27 -72 -71 -105t-139 -33h-98v130h78q57 0 74 50l-195 520h190z" />
    <glyph glyph-name="uni2002" unicode="&#x2002;" horiz-adv-x="500" 
 />
    <glyph glyph-name="uni2003" unicode="&#x2003;" horiz-adv-x="1000" 
 />
    <glyph glyph-name="uni2004" unicode="&#x2004;" horiz-adv-x="333" 
 />
    <glyph glyph-name="uni2005" unicode="&#x2005;" horiz-adv-x="250" 
 />
    <glyph glyph-name="uni2006" unicode="&#x2006;" horiz-adv-x="167" 
 />
    <glyph glyph-name="uni2007" unicode="&#x2007;" horiz-adv-x="656" 
 />
    <glyph glyph-name="uni2008" unicode="&#x2008;" horiz-adv-x="312" 
 />
    <glyph glyph-name="uni2009" unicode="&#x2009;" horiz-adv-x="125" 
 />
    <glyph glyph-name="uni200A" unicode="&#x200a;" horiz-adv-x="42" 
 />
    <glyph glyph-name="uni200B" unicode="&#x200b;" horiz-adv-x="0" 
 />
    <glyph glyph-name="endash" unicode="&#x2013;" horiz-adv-x="682" 
d="M51 190v140h580v-140h-580z" />
    <glyph glyph-name="emdash" unicode="&#x2014;" horiz-adv-x="1202" 
d="M51 190v140h1100v-140h-1100z" />
    <glyph glyph-name="quoteleft" unicode="&#x2018;" horiz-adv-x="299" 
d="M252 520v-180h-210v180l110 180h90l-70 -180h80z" />
    <glyph glyph-name="quoteright" unicode="&#x2019;" horiz-adv-x="288" 
d="M46 520v180h210v-180l-110 -180h-90l70 180h-80z" />
    <glyph glyph-name="quotesinglbase" unicode="&#x201a;" horiz-adv-x="312" 
d="M51 0v180h210v-180l-110 -180h-90l70 180h-80z" />
    <glyph glyph-name="quotedblleft" unicode="&#x201c;" horiz-adv-x="579" 
d="M252 520v-180h-210v180l110 180h90l-70 -180h80zM532 520v-180h-210v180l110 180h90l-70 -180h80z" />
    <glyph glyph-name="quotedblright" unicode="&#x201d;" horiz-adv-x="568" 
d="M46 520v180h210v-180l-110 -180h-90l70 180h-80zM326 520v180h210v-180l-110 -180h-90l70 180h-80z" />
    <glyph glyph-name="quotedblbase" unicode="&#x201e;" horiz-adv-x="592" 
d="M51 0v180h210v-180l-110 -180h-90l70 180h-80zM331 0v180h210v-180l-110 -180h-90l70 180h-80z" />
    <glyph glyph-name="dagger" unicode="&#x2020;" horiz-adv-x="696" 
d="M438 -180h-180v560h-215v140h215v180h180v-180h215v-140h-215v-560z" />
    <glyph glyph-name="daggerdbl" unicode="&#x2021;" horiz-adv-x="696" 
d="M43 140h215v240h-215v140h215v180h180v-180h215v-140h-215v-240h215v-140h-215v-180h-180v180h-215v140z" />
    <glyph glyph-name="bullet" unicode="&#x2022;" horiz-adv-x="520" 
d="M55 260q0 85 60 145t145 60t145 -60t60 -145t-60 -145t-145 -60t-145 60t-60 145z" />
    <glyph glyph-name="ellipsis" unicode="&#x2026;" horiz-adv-x="872" 
d="M51 0v180h210v-180h-210zM331 0v180h210v-180h-210zM611 0v180h210v-180h-210z" />
    <glyph glyph-name="perthousand" unicode="&#x2030;" horiz-adv-x="1361" 
d="M143 495q0 -120 60 -120t60 120t-60 120t-60 -120zM383 495q0 -110 -49.5 -162.5t-130.5 -52.5t-130.5 52.5t-49.5 162.5t49.5 162.5t130.5 52.5t130.5 -52.5t49.5 -162.5zM216 0l390 700h132l-390 -700h-132zM692 205q0 -120 60 -120t60 120t-60 120t-60 -120zM932 205
q0 -110 -49.5 -162.5t-130.5 -52.5t-130.5 52.5t-49.5 162.5t49.5 162.5t130.5 52.5t130.5 -52.5t49.5 -162.5zM1098 205q0 -120 60 -120t60 120t-60 120t-60 -120zM1338 205q0 -110 -49.5 -162.5t-130.5 -52.5t-130.5 52.5t-49.5 162.5t49.5 162.5t130.5 52.5t130.5 -52.5
t49.5 -162.5z" />
    <glyph glyph-name="guilsinglleft" unicode="&#x2039;" horiz-adv-x="449" 
d="M227 260l175 -170h-210l-170 170l170 170h210z" />
    <glyph glyph-name="guilsinglright" unicode="&#x203a;" horiz-adv-x="449" 
d="M47 90l175 170l-175 170h210l170 -170l-170 -170h-210z" />
    <glyph glyph-name="uni203D" unicode="&#x203d;" horiz-adv-x="552" 
d="M180 250v235h140q5 13 5 30q0 50 -55 50q-52 0 -55 -50h-190q4 87 72.5 143.5t172.5 56.5q114 0 179.5 -56t65.5 -144q0 -48 -19 -83.5t-46.5 -55.5t-54.5 -37t-46 -38.5t-19 -50.5h-150zM150 0v180h210v-180h-210z" />
    <glyph glyph-name="fraction" unicode="&#x2044;" horiz-adv-x="170" 
d="M-177 0l390 700h132l-390 -700h-132z" />
    <glyph glyph-name="uni2070" unicode="&#x2070;" horiz-adv-x="406" 
d="M143 595q0 -120 60 -120t60 120t-60 120t-60 -120zM383 595q0 -110 -49.5 -162.5t-130.5 -52.5t-130.5 52.5t-49.5 162.5t49.5 162.5t130.5 52.5t130.5 -52.5t49.5 -162.5z" />
    <glyph glyph-name="uni2074" unicode="&#x2074;" horiz-adv-x="413" 
d="M13 550l185 250h140v-250h60v-95h-60v-65h-120v65h-205v95zM173 615l-45 -65h90v50q0 30 7 95h-4q-29 -54 -48 -80z" />
    <glyph glyph-name="uni2075" unicode="&#x2075;" horiz-adv-x="370" 
d="M146 560h-118l16 240h280v-95h-167l-4 -48q25 18 61 18q62 0 98.5 -41.5t36.5 -103.5q0 -66 -44.5 -108t-121.5 -42q-69 0 -113 37.5t-51 92.5h123q2 -18 14 -28.5t27 -10.5q46 0 46 59t-44 59q-29 0 -39 -29z" />
    <glyph glyph-name="uni2076" unicode="&#x2076;" horiz-adv-x="390" 
d="M204 810q128 0 150 -105h-120q-6 21 -30 21q-55 0 -55 -78q31 24 80 24q68 0 106.5 -41t38.5 -101q0 -65 -46.5 -107.5t-123.5 -42.5q-180 0 -180 215q0 113 49 164t131 51zM204 464q24 0 37 17t13 44q0 66 -50 66t-50 -66q0 -29 14 -45t36 -16z" />
    <glyph glyph-name="uni2077" unicode="&#x2077;" horiz-adv-x="336" 
d="M324 705l-164 -315h-128l164 315h-182v95h310v-95z" />
    <glyph glyph-name="uni2078" unicode="&#x2078;" horiz-adv-x="388" 
d="M150 683q0 -18 12 -30t32 -12t32 12t12 30q0 19 -12 30.5t-32 11.5t-32 -11.5t-12 -30.5zM246 514q0 20 -13.5 35t-38.5 15t-38.5 -15t-13.5 -35t13.5 -34.5t38.5 -14.5t38.5 14.5t13.5 34.5zM301 609q65 -31 65 -101q0 -55 -47.5 -91.5t-124.5 -36.5t-124.5 36.5
t-47.5 91.5q0 70 65 101q-25 11 -40 34t-15 47q0 51 43 85.5t119 34.5t119 -34.5t43 -85.5q0 -24 -15 -47t-40 -34z" />
    <glyph glyph-name="uni2079" unicode="&#x2079;" horiz-adv-x="391" 
d="M187 380q-127 0 -150 105h120q6 -21 30 -21q55 0 55 78q-31 -24 -80 -24q-68 0 -106.5 41t-38.5 101q0 65 46.5 107.5t123.5 42.5q180 0 180 -210q0 -113 -49.5 -166.5t-130.5 -53.5zM187 726q-24 0 -37 -17t-13 -44q0 -66 50 -66t50 66q0 29 -14 45t-36 16z" />
    <glyph glyph-name="uni2080" unicode="&#x2080;" horiz-adv-x="406" 
d="M143 105q0 -120 60 -120t60 120t-60 120t-60 -120zM383 105q0 -110 -49.5 -162.5t-130.5 -52.5t-130.5 52.5t-49.5 162.5t49.5 162.5t130.5 52.5t130.5 -52.5t49.5 -162.5z" />
    <glyph glyph-name="uni2081" unicode="&#x2081;" horiz-adv-x="290" 
d="M236 -100h-120v275l-100 -105v140l100 100h120v-410z" />
    <glyph glyph-name="uni2082" unicode="&#x2082;" horiz-adv-x="365" 
d="M144 195h-121q4 55 45 90t110 35q74 0 114.5 -39t40.5 -94q0 -42 -20.5 -71t-64.5 -66l-65 -55h160v-95h-320v95l145 125q45 38 45 67q0 38 -35 38q-32 0 -34 -30z" />
    <glyph glyph-name="uni2083" unicode="&#x2083;" horiz-adv-x="365" 
d="M13 20h121q4 -35 44 -35q45 0 45 38q0 42 -45 42h-35v90h35q35 0 35 36q0 34 -35 34q-32 0 -34 -30h-121q4 56 47.5 90.5t107.5 34.5q65 0 110 -34t45 -86q0 -58 -55 -85q65 -24 65 -100q0 -55 -48 -90t-117 -35q-68 0 -114.5 37t-50.5 93z" />
    <glyph glyph-name="uni2084" unicode="&#x2084;" horiz-adv-x="413" 
d="M13 60l185 250h140v-250h60v-95h-60v-65h-120v65h-205v95zM173 125l-45 -65h90v50q0 30 7 95h-4q-29 -54 -48 -80z" />
    <glyph glyph-name="uni2085" unicode="&#x2085;" horiz-adv-x="370" 
d="M146 70h-118l16 240h280v-95h-167l-4 -48q25 18 61 18q62 0 98.5 -41.5t36.5 -103.5q0 -66 -44.5 -108t-121.5 -42q-69 0 -113 37.5t-51 92.5h123q2 -18 14 -28.5t27 -10.5q46 0 46 59t-44 59q-29 0 -39 -29z" />
    <glyph glyph-name="uni2086" unicode="&#x2086;" horiz-adv-x="390" 
d="M203 320q127 0 150 -105h-120q-6 21 -30 21q-55 0 -55 -78q31 24 80 24q68 0 106.5 -41t38.5 -101q0 -65 -46.5 -107.5t-123.5 -42.5q-180 0 -180 215q0 113 49 164t131 51zM203 -26q24 0 37 17t13 44q0 66 -50 66t-50 -66q0 -29 14 -45t36 -16z" />
    <glyph glyph-name="uni2087" unicode="&#x2087;" horiz-adv-x="336" 
d="M324 215l-164 -315h-128l164 315h-182v95h310v-95z" />
    <glyph glyph-name="uni2088" unicode="&#x2088;" horiz-adv-x="388" 
d="M150 193q0 -18 12 -30t32 -12t32 12t12 30q0 19 -12 30.5t-32 11.5t-32 -11.5t-12 -30.5zM246 24q0 20 -13.5 35t-38.5 15t-38.5 -15t-13.5 -35t13.5 -34.5t38.5 -14.5t38.5 14.5t13.5 34.5zM301 119q65 -31 65 -101q0 -55 -47.5 -91.5t-124.5 -36.5t-124.5 36.5
t-47.5 91.5q0 70 65 101q-25 11 -40 34t-15 47q0 51 43 85.5t119 34.5t119 -34.5t43 -85.5q0 -24 -15 -47t-40 -34z" />
    <glyph glyph-name="uni2089" unicode="&#x2089;" horiz-adv-x="391" 
d="M187 -110q-127 0 -150 105h120q6 -21 30 -21q55 0 55 78q-31 -24 -80 -24q-68 0 -106.5 41t-38.5 101q0 65 46.5 107.5t123.5 42.5q180 0 180 -210q0 -113 -49.5 -166.5t-130.5 -53.5zM187 236q-24 0 -37 -17t-13 -44q0 -66 50 -66t50 66q0 29 -14 45t-36 16z" />
    <glyph glyph-name="Euro" unicode="&#x20ac;" horiz-adv-x="734" 
d="M414 175h-78q29 -50 87 -50q72 0 88 55h192q-22 -94 -98.5 -144.5t-181.5 -50.5q-216 0 -280 190h-105v140h81q-1 16 -1 35v5h-80v140h96q56 220 289 220q105 0 181.5 -50.5t98.5 -144.5h-192q-16 55 -88 55q-73 0 -101 -80h218l-55 -140h-182v-5q0 -19 1 -35h165z" />
    <glyph glyph-name="uni2113" unicode="&#x2113;" horiz-adv-x="592" 
d="M40 101v119q22 7 62 23q-7 50 -7 112t16.5 124t47.5 115.5t82 87t114 33.5q83 0 130 -42.5t47 -122.5q0 -101 -67.5 -187.5t-184.5 -155.5q11 -55 32.5 -78.5t57.5 -23.5q59 0 117 23l-52 -131q-35 -12 -79 -12q-168 0 -227 149q-41 -17 -89 -33zM268 375v-42
q142 101 142 212q0 50 -50 50q-31 0 -52.5 -33t-30.5 -81t-9 -106z" />
    <glyph glyph-name="uni2117" unicode="&#x2117;" horiz-adv-x="794" 
d="M32 350q0 151 107 258t258 107t258 -107t107 -258t-107 -258t-258 -107t-258 107t-107 258zM117 350q0 -116 82 -198t198 -82t198 82t82 198t-82 198t-198 82t-198 -82t-82 -198zM362 275v-130h-120v410h225q60 0 102.5 -41.5t42.5 -98.5t-42 -98.5t-103 -41.5h-105z
M362 370h85q22 0 33.5 12.5t11.5 32.5t-11.5 32.5t-33.5 12.5h-85v-90z" />
    <glyph glyph-name="trademark" unicode="&#x2122;" horiz-adv-x="1005" 
d="M398 700v-95h-125v-315h-120v315h-125v95h370zM688 290l-85 136q-25 40 -50 104h-4q9 -81 9 -110v-130h-120v410h140l69 -132q16 -29 41 -93q25 64 41 93l69 132h140v-410h-120v130q0 29 9 110h-4q-25 -64 -50 -104z" />
    <glyph glyph-name="Omega" unicode="&#x2126;" horiz-adv-x="748" 
d="M374 575q-66 0 -110.5 -42.5t-44.5 -117.5q0 -134 130 -170v-245h-295v140h170v5q-85 33 -135 108.5t-50 166.5q0 125 94 210t241 85t241 -85t94 -210q0 -91 -50 -166.5t-135 -108.5v-5h170v-140h-295v245q130 36 130 170q0 75 -44.5 117.5t-110.5 42.5z" />
    <glyph glyph-name="estimated" unicode="&#x212e;" 
d="M405 675q-131 0 -225 -91v-214h450v214q-94 91 -225 91zM654 141l31 -25q-51 -61 -124 -96t-156 -35q-151 0 -258 107t-107 258t107 258t258 107t258 -107t107 -258v-20h-590v-214q93 -91 225 -91q74 0 138.5 31t110.5 85z" />
    <glyph glyph-name="uni2150" unicode="&#x2150;" horiz-adv-x="816" 
d="M235 290h-120v275l-100 -105v140l100 100h120v-410zM117 0l390 700h132l-390 -700h-132zM807 315l-164 -315h-128l164 315h-182v95h310v-95z" />
    <glyph glyph-name="uni2151" unicode="&#x2151;" horiz-adv-x="855" 
d="M235 290h-120v275l-100 -105v140l100 100h120v-410zM117 0l390 700h132l-390 -700h-132zM651 -10q-127 0 -150 105h120q6 -21 30 -21q55 0 55 78q-31 -24 -80 -24q-68 0 -106.5 41t-38.5 101q0 65 46.5 107.5t123.5 42.5q180 0 180 -210q0 -113 -49.5 -166.5
t-130.5 -53.5zM651 336q-24 0 -37 -17t-13 -44q0 -66 50 -66t50 66q0 29 -14 45t-36 16z" />
    <glyph glyph-name="uni2152" unicode="&#x2152;" horiz-adv-x="1164" 
d="M235 290h-120v275l-100 -105v140l100 100h120v-410zM117 0l390 700h132l-390 -700h-132zM702 0h-120v275l-100 -105v140l100 100h120v-410zM901 205q0 -120 60 -120t60 120t-60 120t-60 -120zM1141 205q0 -110 -49.5 -162.5t-130.5 -52.5t-130.5 52.5t-49.5 162.5
t49.5 162.5t130.5 52.5t130.5 -52.5t49.5 -162.5z" />
    <glyph glyph-name="onethird" unicode="&#x2153;" horiz-adv-x="829" 
d="M235 290h-120v275l-100 -105v140l100 100h120v-410zM117 0l390 700h132l-390 -700h-132zM477 120h121q4 -35 44 -35q45 0 45 38q0 42 -45 42h-35v90h35q35 0 35 36q0 34 -35 34q-32 0 -34 -30h-121q4 56 47.5 90.5t107.5 34.5q65 0 110 -34t45 -86q0 -58 -55 -85
q65 -24 65 -100q0 -55 -48 -90t-117 -35q-68 0 -114.5 37t-50.5 93z" />
    <glyph glyph-name="twothirds" unicode="&#x2154;" horiz-adv-x="913" 
d="M144 585h-121q4 55 45 90t110 35q74 0 114.5 -39t40.5 -94q0 -42 -20.5 -71t-64.5 -66l-65 -55h160v-95h-320v95l145 125q45 38 45 67q0 38 -35 38q-32 0 -34 -30zM201 0l390 700h132l-390 -700h-132zM561 120h121q4 -35 44 -35q45 0 45 38q0 42 -45 42h-35v90h35
q35 0 35 36q0 34 -35 34q-32 0 -34 -30h-121q4 56 47.5 90.5t107.5 34.5q65 0 110 -34t45 -86q0 -58 -55 -85q65 -24 65 -100q0 -55 -48 -90t-117 -35q-68 0 -114.5 37t-50.5 93z" />
    <glyph glyph-name="uni2155" unicode="&#x2155;" horiz-adv-x="834" 
d="M235 290h-120v275l-100 -105v140l100 100h120v-410zM117 0l390 700h132l-390 -700h-132zM610 170h-118l16 240h280v-95h-167l-4 -48q25 18 61 18q62 0 98.5 -41.5t36.5 -103.5q0 -66 -44.5 -108t-121.5 -42q-69 0 -113 37.5t-51 92.5h123q2 -18 14 -28.5t27 -10.5
q46 0 46 59t-44 59q-29 0 -39 -29z" />
    <glyph glyph-name="uni2156" unicode="&#x2156;" horiz-adv-x="918" 
d="M144 585h-121q4 55 45 90t110 35q74 0 114.5 -39t40.5 -94q0 -42 -20.5 -71t-64.5 -66l-65 -55h160v-95h-320v95l145 125q45 38 45 67q0 38 -35 38q-32 0 -34 -30zM201 0l390 700h132l-390 -700h-132zM694 170h-118l16 240h280v-95h-167l-4 -48q25 18 61 18
q62 0 98.5 -41.5t36.5 -103.5q0 -66 -44.5 -108t-121.5 -42q-69 0 -113 37.5t-51 92.5h123q2 -18 14 -28.5t27 -10.5q46 0 46 59t-44 59q-29 0 -39 -29z" />
    <glyph glyph-name="uni2157" unicode="&#x2157;" horiz-adv-x="905" 
d="M13 410h121q4 -35 44 -35q45 0 45 38q0 42 -45 42h-35v90h35q35 0 35 36q0 34 -35 34q-32 0 -34 -30h-121q4 56 47.5 90.5t107.5 34.5q65 0 110 -34t45 -86q0 -58 -55 -85q65 -24 65 -100q0 -55 -48 -90t-117 -35q-68 0 -114.5 37t-50.5 93zM188 0l390 700h132l-390 -700
h-132zM681 170h-118l16 240h280v-95h-167l-4 -48q26 18 61 18q62 0 98.5 -41.5t36.5 -103.5q0 -66 -44.5 -108t-121.5 -42q-69 0 -113 37.5t-51 92.5h123q2 -18 14 -28.5t27 -10.5q46 0 46 59t-44 59q-29 0 -39 -29z" />
    <glyph glyph-name="uni2158" unicode="&#x2158;" horiz-adv-x="953" 
d="M13 450l185 250h140v-250h60v-95h-60v-65h-120v65h-205v95zM173 515l-45 -65h90v50q0 30 7 95h-4q-29 -54 -48 -80zM236 0l390 700h132l-390 -700h-132zM729 170h-118l16 240h280v-95h-167l-4 -48q26 18 61 18q62 0 98.5 -41.5t36.5 -103.5q0 -66 -44.5 -108t-121.5 -42
q-69 0 -113 37.5t-51 92.5h123q2 -18 14 -28.5t27 -10.5q46 0 46 59t-44 59q-29 0 -39 -29z" />
    <glyph glyph-name="uni2159" unicode="&#x2159;" horiz-adv-x="840" 
d="M235 290h-120v275l-100 -105v140l100 100h120v-410zM117 0l390 700h132l-390 -700h-132zM653 420q127 0 150 -105h-120q-6 21 -30 21q-55 0 -55 -78q31 24 80 24q68 0 106.5 -41t38.5 -101q0 -65 -46.5 -107.5t-123.5 -42.5q-180 0 -180 215q0 113 49 164t131 51zM653 74
q24 0 37 17t13 44q0 66 -50 66t-50 -66q0 -29 14 -45t36 -16z" />
    <glyph glyph-name="uni215A" unicode="&#x215a;" horiz-adv-x="916" 
d="M146 460h-118l16 240h280v-95h-167l-4 -48q25 18 61 18q62 0 98.5 -41.5t36.5 -103.5q0 -66 -44.5 -108t-121.5 -42q-69 0 -113 37.5t-51 92.5h123q2 -18 14 -28.5t27 -10.5q46 0 46 59t-44 59q-29 0 -39 -29zM193 0l390 700h132l-390 -700h-132zM729 420q127 0 150 -105
h-120q-6 21 -30 21q-55 0 -55 -78q31 24 80 24q68 0 106.5 -41t38.5 -101q0 -65 -46.5 -107.5t-123.5 -42.5q-180 0 -180 215q0 113 49 164t131 51zM729 74q24 0 37 17t13 44q0 66 -50 66t-50 -66q0 -29 14 -45t36 -16z" />
    <glyph glyph-name="oneeighth" unicode="&#x215b;" horiz-adv-x="852" 
d="M235 290h-120v275l-100 -105v140l100 100h120v-410zM117 0l390 700h132l-390 -700h-132zM614 293q0 -18 12 -30t32 -12t32 12t12 30q0 19 -12 30.5t-32 11.5t-32 -11.5t-12 -30.5zM710 124q0 20 -13.5 35t-38.5 15t-38.5 -15t-13.5 -35t13.5 -34.5t38.5 -14.5t38.5 14.5
t13.5 34.5zM765 219q65 -31 65 -101q0 -55 -47.5 -91.5t-124.5 -36.5t-124.5 36.5t-47.5 91.5q0 70 65 101q-25 11 -40 34t-15 47q0 51 43 85.5t119 34.5t119 -34.5t43 -85.5q0 -24 -15 -47t-40 -34z" />
    <glyph glyph-name="threeeighths" unicode="&#x215c;" horiz-adv-x="923" 
d="M13 410h121q4 -35 44 -35q45 0 45 38q0 42 -45 42h-35v90h35q35 0 35 36q0 34 -35 34q-32 0 -34 -30h-121q4 56 47.5 90.5t107.5 34.5q65 0 110 -34t45 -86q0 -58 -55 -85q65 -24 65 -100q0 -55 -48 -90t-117 -35q-68 0 -114.5 37t-50.5 93zM188 0l390 700h132l-390 -700
h-132zM685 293q0 -18 12 -30t32 -12t32 12t12 30q0 19 -12 30.5t-32 11.5t-32 -11.5t-12 -30.5zM781 124q0 20 -13.5 35t-38.5 15t-38.5 -15t-13.5 -35t13.5 -34.5t38.5 -14.5t38.5 14.5t13.5 34.5zM836 219q65 -31 65 -101q0 -55 -47.5 -91.5t-124.5 -36.5t-124.5 36.5
t-47.5 91.5q0 70 65 101q-25 11 -40 34t-15 47q0 51 43 85.5t119 34.5t119 -34.5t43 -85.5q0 -24 -15 -47t-40 -34z" />
    <glyph glyph-name="fiveeighths" unicode="&#x215d;" horiz-adv-x="928" 
d="M146 460h-118l16 240h280v-95h-167l-4 -48q25 18 61 18q62 0 98.5 -41.5t36.5 -103.5q0 -66 -44.5 -108t-121.5 -42q-69 0 -113 37.5t-51 92.5h123q2 -18 14 -28.5t27 -10.5q46 0 46 59t-44 59q-29 0 -39 -29zM193 0l390 700h132l-390 -700h-132zM690 293q0 -18 12 -30
t32 -12t32 12t12 30q0 19 -12 30.5t-32 11.5t-32 -11.5t-12 -30.5zM786 124q0 20 -13.5 35t-38.5 15t-38.5 -15t-13.5 -35t13.5 -34.5t38.5 -14.5t38.5 14.5t13.5 34.5zM841 219q65 -31 65 -101q0 -55 -47.5 -91.5t-124.5 -36.5t-124.5 36.5t-47.5 91.5q0 70 65 101
q-25 11 -40 34t-15 47q0 51 43 85.5t119 34.5t119 -34.5t43 -85.5q0 -24 -15 -47t-40 -34z" />
    <glyph glyph-name="seveneighths" unicode="&#x215e;" horiz-adv-x="837" 
d="M324 605l-164 -315h-128l164 315h-182v95h310v-95zM102 0l390 700h132l-390 -700h-132zM599 293q0 -18 12 -30t32 -12t32 12t12 30q0 19 -12 30.5t-32 11.5t-32 -11.5t-12 -30.5zM695 124q0 20 -13.5 35t-38.5 15t-38.5 -15t-13.5 -35t13.5 -34.5t38.5 -14.5t38.5 14.5
t13.5 34.5zM750 219q65 -31 65 -101q0 -55 -47.5 -91.5t-124.5 -36.5t-124.5 36.5t-47.5 91.5q0 70 65 101q-25 11 -40 34t-15 47q0 51 43 85.5t119 34.5t119 -34.5t43 -85.5q0 -24 -15 -47t-40 -34z" />
    <glyph glyph-name="uni215F" unicode="&#x215f;" horiz-adv-x="464" 
d="M235 290h-120v275l-100 -105v140l100 100h120v-410zM117 0l390 700h132l-390 -700h-132z" />
    <glyph glyph-name="uni2160" unicode="&#x2160;" horiz-adv-x="330" 
d="M260 0h-190v700h190v-700z" />
    <glyph glyph-name="uni2161" unicode="&#x2161;" horiz-adv-x="635" 
d="M260 0h-190v700h190v-700zM565 0h-190v700h190v-700z" />
    <glyph glyph-name="uni2162" unicode="&#x2162;" horiz-adv-x="940" 
d="M260 0h-190v700h190v-700zM565 0h-190v700h190v-700zM870 0h-190v700h190v-700z" />
    <glyph glyph-name="uni2163" unicode="&#x2163;" horiz-adv-x="986" 
d="M260 0h-190v700h190v-700zM705 425l90 275h195l-250 -700h-185l-250 700h195l90 -275q24 -74 56 -210h3q31 136 56 210z" />
    <glyph glyph-name="uni2164" unicode="&#x2164;" horiz-adv-x="683" 
d="M399 425l90 275h195l-250 -700h-185l-250 700h195l90 -275q24 -74 56 -210h3q31 136 56 210z" />
    <glyph glyph-name="uni2165" unicode="&#x2165;" horiz-adv-x="986" 
d="M396 425l90 275h195l-250 -700h-185l-250 700h195l90 -275q25 -74 56 -210h3q32 136 56 210zM916 0h-190v700h190v-700z" />
    <glyph glyph-name="uni2166" unicode="&#x2166;" horiz-adv-x="1289" 
d="M394 425l90 275h195l-250 -700h-185l-250 700h195l90 -275q24 -74 56 -210h3q31 136 56 210zM914 0h-190v700h190v-700zM1219 0h-190v700h190v-700z" />
    <glyph glyph-name="uni2167" unicode="&#x2167;" horiz-adv-x="1592" 
d="M392 425l90 275h195l-250 -700h-185l-250 700h195l90 -275q25 -74 56 -210h3q32 136 56 210zM912 0h-190v700h190v-700zM1217 0h-190v700h190v-700zM1522 0h-190v700h190v-700z" />
    <glyph glyph-name="uni2168" unicode="&#x2168;" horiz-adv-x="1014" 
d="M260 0h-190v700h190v-700zM1000 700l-230 -329l255 -371h-223l-140 212l-141 -212h-216l254 365l-229 335h223l115 -175l116 175h216z" />
    <glyph glyph-name="uni2169" unicode="&#x2169;" horiz-adv-x="698" 
d="M684 700l-230 -329l255 -371h-223l-140 212l-141 -212h-216l254 365l-229 335h223l115 -175l116 175h216z" />
    <glyph glyph-name="uni216A" unicode="&#x216a;" horiz-adv-x="1014" 
d="M684 700l-230 -329l255 -371h-223l-140 212l-141 -212h-216l254 365l-229 335h223l115 -175l116 175h216zM944 0h-190v700h190v-700z" />
    <glyph glyph-name="uni216B" unicode="&#x216b;" horiz-adv-x="1319" 
d="M684 700l-230 -329l255 -371h-223l-140 212l-141 -212h-216l254 365l-229 335h223l115 -175l116 175h216zM944 0h-190v700h190v-700zM1249 0h-190v700h190v-700z" />
    <glyph glyph-name="uni216C" unicode="&#x216c;" horiz-adv-x="609" 
d="M70 0v700h190v-540h340v-160h-530z" />
    <glyph glyph-name="uni216D" unicode="&#x216d;" horiz-adv-x="736" 
d="M513 215h206q-29 -103 -111 -166.5t-214 -63.5q-166 0 -263 102t-97 263t97 263t263 102q126 0 207.5 -57.5t112.5 -157.5h-207q-25 60 -113 60q-85 0 -127.5 -58.5t-42.5 -151.5t42.5 -151.5t127.5 -58.5q95 0 119 75z" />
    <glyph glyph-name="uni216E" unicode="&#x216e;" horiz-adv-x="749" 
d="M715 350q0 -162 -93.5 -256t-246.5 -94h-305v700h305q153 0 246.5 -94t93.5 -256zM525 350q0 190 -160 190h-105v-380h105q160 0 160 190z" />
    <glyph glyph-name="uni216F" unicode="&#x216f;" horiz-adv-x="940" 
d="M470 0l-128 229q-36 64 -91 211h-4q13 -139 13 -220v-220h-190v700h230l86 -181q36 -76 84 -204q48 128 84 204l86 181h230v-700h-190v220q0 81 13 220h-4q-55 -147 -91 -211z" />
    <glyph glyph-name="uni2170" unicode="&#x2170;" horiz-adv-x="288" 
d="M54 0v520h180v-520h-180zM54 570v130h180v-130h-180z" />
    <glyph glyph-name="uni2171" unicode="&#x2171;" horiz-adv-x="553" 
d="M54 0v520h180v-520h-180zM54 570v130h180v-130h-180zM319 0v520h180v-520h-180zM319 570v130h180v-130h-180z" />
    <glyph glyph-name="uni2172" unicode="&#x2172;" horiz-adv-x="818" 
d="M54 0v520h180v-520h-180zM54 570v130h180v-130h-180zM319 0v520h180v-520h-180zM319 570v130h180v-130h-180zM584 0v520h180v-520h-180zM584 570v130h180v-130h-180z" />
    <glyph glyph-name="uni2173" unicode="&#x2173;" horiz-adv-x="838" 
d="M54 0v520h180v-520h-180zM54 570v130h180v-130h-180zM606 385l43 135h190l-195 -520h-180l-195 520h190l43 -135q21 -68 50 -190h4q29 122 50 190z" />
    <glyph glyph-name="uni2174" unicode="&#x2174;" horiz-adv-x="574" 
d="M339 385l43 135h190l-195 -520h-180l-195 520h190l43 -135q21 -68 50 -190h4q29 122 50 190z" />
    <glyph glyph-name="uni2175" unicode="&#x2175;" horiz-adv-x="838" 
d="M336 385l43 135h190l-195 -520h-180l-195 520h190l43 -135q21 -68 50 -190h4q29 122 50 190zM604 0v520h180v-520h-180zM604 570v130h180v-130h-180z" />
    <glyph glyph-name="uni2176" unicode="&#x2176;" horiz-adv-x="1102" 
d="M335 385l43 135h190l-195 -520h-180l-195 520h190l43 -135q21 -68 50 -190h4q29 122 50 190zM603 0v520h180v-520h-180zM603 570v130h180v-130h-180zM868 0v520h180v-520h-180zM868 570v130h180v-130h-180z" />
    <glyph glyph-name="uni2177" unicode="&#x2177;" horiz-adv-x="1365" 
d="M333 385l43 135h190l-195 -520h-180l-195 520h190l43 -135q21 -68 50 -190h4q29 122 50 190zM601 0v520h180v-520h-180zM601 570v130h180v-130h-180zM866 0v520h180v-520h-180zM866 570v130h180v-130h-180zM1131 0v520h180v-520h-180zM1131 570v130h180v-130h-180z" />
    <glyph glyph-name="uni2178" unicode="&#x2178;" horiz-adv-x="824" 
d="M54 0v520h180v-520h-180zM54 570v130h180v-130h-180zM259 0l188 269l-173 251h207l65 -104l66 104h202l-173 -247l188 -273h-207l-80 126l-81 -126h-202z" />
    <glyph glyph-name="uni2179" unicode="&#x2179;" horiz-adv-x="560" 
d="M-5 0l188 269l-173 251h207l65 -104l66 104h202l-173 -247l188 -273h-207l-80 126l-81 -126h-202z" />
    <glyph glyph-name="uni217A" unicode="&#x217a;" horiz-adv-x="824" 
d="M-5 0l188 269l-173 251h207l65 -104l66 104h202l-173 -247l188 -273h-207l-80 126l-81 -126h-202zM590 0v520h180v-520h-180zM590 570v130h180v-130h-180z" />
    <glyph glyph-name="uni217B" unicode="&#x217b;" horiz-adv-x="1089" 
d="M-5 0l188 269l-173 251h207l65 -104l66 104h202l-173 -247l188 -273h-207l-80 126l-81 -126h-202zM590 0v520h180v-520h-180zM590 570v130h180v-130h-180zM855 0v520h180v-520h-180zM855 570v130h180v-130h-180z" />
    <glyph glyph-name="uni217C" unicode="&#x217c;" horiz-adv-x="288" 
d="M54 0v700h180v-700h-180z" />
    <glyph glyph-name="uni217D" unicode="&#x217d;" horiz-adv-x="579" 
d="M375 160h189q-22 -81 -87 -128t-168 -47q-133 0 -206.5 77t-73.5 198t73.5 198t206.5 77q99 0 162 -44t88 -121h-193q-10 35 -57 35q-38 0 -62 -24t-31 -54t-7 -67t7 -67t31 -54t62 -24q26 0 43.5 13t22.5 32z" />
    <glyph glyph-name="uni217E" unicode="&#x217e;" horiz-adv-x="659" 
d="M425 0v55q-52 -70 -155 -70q-112 0 -176 78.5t-64 196.5t64 196.5t176 78.5q103 0 155 -70v235h180v-700h-180zM320 125q40 0 75 32.5t35 102.5t-35 102.5t-75 32.5q-44 0 -77 -30.5t-33 -104.5t33 -104.5t77 -30.5z" />
    <glyph glyph-name="uni217F" unicode="&#x217f;" horiz-adv-x="993" 
d="M589 0h-180v295q0 95 -80 95q-45 0 -70 -27.5t-25 -82.5v-280h-180v520h180v-55q48 70 147 70q115 0 168 -80q53 80 180 80q94 0 154.5 -53t60.5 -157v-325h-180v295q0 95 -80 95q-45 0 -70 -27.5t-25 -82.5v-280z" />
    <glyph glyph-name="arrowleft" unicode="&#x2190;" horiz-adv-x="815" 
d="M490 520l-210 -185h475v-150h-475l210 -185h-190l-260 260l260 260h190z" />
    <glyph glyph-name="arrowup" unicode="&#x2191;" horiz-adv-x="640" 
d="M580 265l-185 210v-475h-150v475l-185 -210v190l260 260l260 -260v-190z" />
    <glyph glyph-name="arrowright" unicode="&#x2192;" horiz-adv-x="815" 
d="M535 335l-210 185h190l260 -260l-260 -260h-190l210 185h-475v150h475z" />
    <glyph glyph-name="arrowdown" unicode="&#x2193;" horiz-adv-x="640" 
d="M395 225l185 210v-190l-260 -260l-260 260v190l185 -210v475h150v-475z" />
    <glyph glyph-name="uni2196" unicode="&#x2196;" horiz-adv-x="679" 
d="M196 477l18 -279l-134 134v368h368l134 -134l-279 18l336 -336l-107 -107z" />
    <glyph glyph-name="uni2197" unicode="&#x2197;" horiz-adv-x="679" 
d="M465 198l18 279l-336 -336l-107 107l336 336l-279 -18l134 134h368v-368z" />
    <glyph glyph-name="uni2198" unicode="&#x2198;" horiz-adv-x="679" 
d="M483 223l-18 279l134 -134v-368h-368l-134 134l279 -18l-336 336l107 107z" />
    <glyph glyph-name="uni2199" unicode="&#x2199;" horiz-adv-x="679" 
d="M214 502l-18 -279l336 336l107 -107l-336 -336l279 18l-134 -134h-368v368z" />
    <glyph glyph-name="uni21A5" unicode="&#x21a5;" horiz-adv-x="630" 
d="M55 0v80h520v-80h-520zM273 395l-108 -115v90l150 150l150 -150v-90l-108 115v-275h-84v275z" />
    <glyph glyph-name="uni21A9" unicode="&#x21a9;" horiz-adv-x="1150" 
d="M955 442q0 46 -31 77t-76 31h-148v150h148q111 0 186.5 -74t75.5 -184t-75.5 -183.5t-186.5 -73.5h-568l210 -185h-190l-260 260l260 260h190l-210 -185h568q45 0 76 31t31 76z" />
    <glyph glyph-name="uni21AA" unicode="&#x21aa;" horiz-adv-x="1150" 
d="M195 442q0 -45 31 -76t76 -31h568l-210 185h190l260 -260l-260 -260h-190l210 185h-568q-111 0 -186.5 73.5t-75.5 183.5t75.5 184t186.5 74h148v-150h-148q-45 0 -76 -31t-31 -77z" />
    <glyph glyph-name="partialdiff" unicode="&#x2202;" horiz-adv-x="632" 
d="M284 120q50 0 82.5 42t32.5 103q0 85 -75 85q-50 0 -82.5 -42t-32.5 -103q0 -35 17.5 -60t57.5 -25zM319 585q-68 0 -151 -35l24 135q72 30 157 30q118 0 184 -77t66 -198q0 -70 -6 -127t-26 -121t-53 -107t-92 -71.5t-138 -28.5q-121 0 -188 62.5t-67 157.5
q0 117 75.5 198.5t199.5 81.5q72 0 113 -37q2 14 2 22q0 53 -21 84t-79 31z" />
    <glyph glyph-name="Delta" unicode="&#x2206;" horiz-adv-x="652" 
d="M31 0v140l200 560h190l200 -560v-140h-590zM326 475l-110 -335h220z" />
    <glyph glyph-name="product" unicode="&#x220f;" horiz-adv-x="670" 
d="M420 0v560h-170v-560h-180v700h530v-700h-180z" />
    <glyph glyph-name="summation" unicode="&#x2211;" horiz-adv-x="629" 
d="M599 -40v-140h-565v140l260 300l-260 300v140h555v-140h-325l190 -230v-140l-190 -230h335z" />
    <glyph glyph-name="minus" unicode="&#x2212;" horiz-adv-x="648" 
d="M54 280v140h540v-140h-540z" />
    <glyph glyph-name="uni2219" unicode="&#x2219;" horiz-adv-x="398" 
d="M94 170v180h210v-180h-210z" />
    <glyph glyph-name="radical" unicode="&#x221a;" horiz-adv-x="619" 
d="M142 0l-135 520h185l20 -100q16 -82 34 -210h1q23 133 42 210l68 280h260v-140h-120l-145 -560h-210z" />
    <glyph glyph-name="infinity" unicode="&#x221e;" horiz-adv-x="788" 
d="M394 250l-30 -30q-65 -65 -145 -65q-82 0 -133.5 52.5t-51.5 132.5t51.5 132.5t133.5 52.5q80 0 145 -65l30 -30l30 30q65 65 145 65q82 0 133.5 -52.5t51.5 -132.5t-51.5 -132.5t-133.5 -52.5q-80 0 -145 65zM564 390q-30 0 -55 -25l-25 -25l25 -25q25 -25 55 -25
q22 0 36 14t14 36t-14 36t-36 14zM224 390q-22 0 -36 -14t-14 -36t14 -36t36 -14q30 0 55 25l25 25l-25 25q-25 25 -55 25z" />
    <glyph glyph-name="integral" unicode="&#x222b;" horiz-adv-x="539" 
d="M399 530l-92 -540q-16 -95 -69 -132.5t-136 -37.5h-110v140h95q23 0 31 5.5t11 24.5l92 540q16 94 69.5 132t136.5 38h120v-140h-105q-23 0 -31 -5.5t-12 -24.5z" />
    <glyph glyph-name="approxequal" unicode="&#x2248;" horiz-adv-x="620" 
d="M163 390h-115q0 88 46 139t119 51q41 0 82.5 -21t74.5 -42.5t53 -21.5q40 0 40 55h115q0 -85 -46.5 -137.5t-118.5 -52.5q-41 0 -82.5 21.5t-74.5 42.5t-53 21q-40 0 -40 -55zM163 150h-115q0 88 46 139t119 51q41 0 82.5 -21.5t74.5 -42.5t53 -21q40 0 40 55h115
q0 -85 -46.5 -137.5t-118.5 -52.5q-41 0 -82.5 21t-74.5 42.5t-53 21.5q-40 0 -40 -55z" />
    <glyph glyph-name="notequal" unicode="&#x2260;" horiz-adv-x="608" 
d="M54 400v140h273l37 70h150l-37 -70h77v-140h-149l-52 -100h201v-140h-274l-36 -70h-150l36 70h-76v140h149l52 100h-201z" />
    <glyph glyph-name="lessequal" unicode="&#x2264;" horiz-adv-x="612" 
d="M51 495l500 135v-145l-305 -65l305 -65v-265h-500v140h426l-426 115v150z" />
    <glyph glyph-name="greaterequal" unicode="&#x2265;" horiz-adv-x="612" 
d="M61 630l500 -135v-150l-426 -115h426v-140h-500v265l305 65l-305 65v145z" />
    <glyph glyph-name="uni2295" unicode="&#x2295;" horiz-adv-x="630" 
d="M335 494v-214h214q-7 86 -67.5 146.5t-146.5 67.5zM295 280v214q-85 -7 -146 -67.5t-68 -146.5h214zM40 260q0 114 80.5 194.5t194.5 80.5t194.5 -80.5t80.5 -194.5t-80.5 -194.5t-194.5 -80.5t-194.5 80.5t-80.5 194.5zM335 240v-214q86 7 146.5 68t67.5 146h-214z
M295 26v214h-214q7 -86 68 -146.5t146 -67.5z" />
    <glyph glyph-name="uni2296" unicode="&#x2296;" horiz-adv-x="630" 
d="M40 260q0 114 80.5 194.5t194.5 80.5t194.5 -80.5t80.5 -194.5t-80.5 -194.5t-194.5 -80.5t-194.5 80.5t-80.5 194.5zM315 495q-92 0 -159 -62t-75 -153h468q-8 91 -75 153t-159 62zM315 25q92 0 159 62t75 153h-468q8 -91 75 -153t159 -62z" />
    <glyph glyph-name="uni2297" unicode="&#x2297;" horiz-adv-x="630" 
d="M315 495q-86 0 -152 -55l152 -152l152 152q-66 55 -152 55zM343 260l152 -152q55 66 55 152t-55 152zM80 260q0 -86 55 -152l152 152l-152 152q-55 -66 -55 -152zM40 260q0 114 80.5 194.5t194.5 80.5t194.5 -80.5t80.5 -194.5t-80.5 -194.5t-194.5 -80.5t-194.5 80.5
t-80.5 194.5zM315 25q86 0 152 55l-152 152l-152 -152q66 -55 152 -55z" />
    <glyph glyph-name="uni2298" unicode="&#x2298;" horiz-adv-x="630" 
d="M590 260q0 -114 -80.5 -194.5t-194.5 -80.5t-194.5 80.5t-80.5 194.5t80.5 194.5t194.5 80.5t194.5 -80.5t80.5 -194.5zM315 495q-97 0 -166 -68.5t-69 -166.5q0 -86 55 -152l332 332q-66 55 -152 55zM550 260q0 86 -55 152l-332 -332q66 -55 152 -55q97 0 166 68.5
t69 166.5z" />
    <glyph glyph-name="uni22A0" unicode="&#x22a0;" horiz-adv-x="630" 
d="M55 520h520v-520h-520v520zM95 68l192 192l-192 192v-384zM507 40l-192 192l-192 -192h384zM507 480h-384l192 -192zM535 452l-192 -192l192 -192v384z" />
    <glyph glyph-name="uni2300" unicode="&#x2300;" horiz-adv-x="630" 
d="M83 0l-28 28l52 52q-67 77 -67 180q0 114 80.5 194.5t194.5 80.5q103 0 180 -67l52 52l28 -28l-52 -52q67 -77 67 -180q0 -114 -80.5 -194.5t-194.5 -80.5q-103 0 -180 67zM550 260q0 88 -55 152l-332 -332q66 -55 152 -55q97 0 166 68.5t69 166.5zM80 260q0 -86 55 -152
l332 332q-64 55 -152 55q-97 0 -166 -68.5t-69 -166.5z" />
    <glyph glyph-name="uni23CF" unicode="&#x23cf;" horiz-adv-x="630" 
d="M55 0v80h520v-80h-520zM315 520l260 -320h-520z" />
    <glyph glyph-name="uni23E9" unicode="&#x23e9;" horiz-adv-x="630" 
d="M55 520l259 -260l-259 -260v520zM316 520l259 -260l-259 -260v520z" />
    <glyph glyph-name="uni23EA" unicode="&#x23ea;" horiz-adv-x="630" 
d="M316 260l259 260v-520zM55 260l259 260v-520z" />
    <glyph glyph-name="uni23EB" unicode="&#x23eb;" horiz-adv-x="630" 
d="M315 259l260 -259h-520zM315 520l260 -259h-520z" />
    <glyph glyph-name="uni23EC" unicode="&#x23ec;" horiz-adv-x="630" 
d="M575 520l-260 -259l-260 259h520zM575 259l-260 -259l-260 259h520z" />
    <glyph glyph-name="uni23ED" unicode="&#x23ed;" horiz-adv-x="630" 
d="M55 520l218 -260l-218 -260v520zM275 520l218 -260l-218 -260v520zM575 0h-80v520h80v-520z" />
    <glyph glyph-name="uni23EE" unicode="&#x23ee;" horiz-adv-x="630" 
d="M357 260l218 260v-520zM137 260l218 260v-520zM135 0h-80v520h80v-520z" />
    <glyph glyph-name="uni23F8" unicode="&#x23f8;" horiz-adv-x="630" 
d="M535 0h-160v520h160v-520zM255 0h-160v520h160v-520z" />
    <glyph glyph-name="uni23F9" unicode="&#x23f9;" horiz-adv-x="630" 
d="M55 0v520h520v-520h-520z" />
    <glyph glyph-name="uni23FA" unicode="&#x23fa;" horiz-adv-x="630" 
d="M55 260q0 108 76 184t184 76t184 -76t76 -184t-76 -184t-184 -76t-184 76t-76 184z" />
    <glyph glyph-name="uni25A0" unicode="&#x25a0;" horiz-adv-x="630" 
d="M55 0v520h520v-520h-520z" />
    <glyph glyph-name="uni25A1" unicode="&#x25a1;" horiz-adv-x="630" 
d="M575 0h-520v520h520v-520zM95 480v-440h440v440h-440z" />
    <glyph glyph-name="uni25B2" unicode="&#x25b2;" horiz-adv-x="630" 
d="M315 520l260 -520h-520z" />
    <glyph glyph-name="uni25B3" unicode="&#x25b3;" horiz-adv-x="630" 
d="M315 520l260 -520h-520zM511 40l-196 392l-196 -392h392z" />
    <glyph glyph-name="uni25B6" unicode="&#x25b6;" horiz-adv-x="630" 
d="M55 520l520 -260l-520 -260v520z" />
    <glyph glyph-name="uni25B7" unicode="&#x25b7;" horiz-adv-x="630" 
d="M575 260l-520 -260v520zM95 64l392 196l-392 196v-392z" />
    <glyph glyph-name="uni25BC" unicode="&#x25bc;" horiz-adv-x="630" 
d="M575 520l-260 -520l-260 520h520z" />
    <glyph glyph-name="uni25BD" unicode="&#x25bd;" horiz-adv-x="630" 
d="M575 520l-260 -520l-260 520h520zM315 88l196 392h-392z" />
    <glyph glyph-name="uni25C0" unicode="&#x25c0;" horiz-adv-x="630" 
d="M55 260l520 260v-520z" />
    <glyph glyph-name="uni25C1" unicode="&#x25c1;" horiz-adv-x="630" 
d="M55 260l520 260v-520zM535 456l-392 -196l392 -196v392z" />
    <glyph glyph-name="uni25C6" unicode="&#x25c6;" horiz-adv-x="630" 
d="M315 535l275 -275l-275 -275l-275 275z" />
    <glyph glyph-name="uni25C7" unicode="&#x25c7;" horiz-adv-x="630" 
d="M315 -15l-275 275l275 275l275 -275zM96 260l219 -219l219 219l-219 219z" />
    <glyph glyph-name="lozenge" unicode="&#x25ca;" horiz-adv-x="614" 
d="M32 285v130l195 285h160l195 -285v-130l-195 -285h-160zM412 350l-105 176l-105 -176l105 -176z" />
    <glyph glyph-name="uni25CB" unicode="&#x25cb;" horiz-adv-x="630" 
d="M40 260q0 114 80.5 194.5t194.5 80.5t194.5 -80.5t80.5 -194.5t-80.5 -194.5t-194.5 -80.5t-194.5 80.5t-80.5 194.5zM80 260q0 -98 69 -166.5t166 -68.5t166 68.5t69 166.5t-69 166.5t-166 68.5t-166 -68.5t-69 -166.5z" />
    <glyph glyph-name="uni25CC" unicode="&#x25cc;" horiz-adv-x="630" 
d="M295 515q0 8 6 14t14 6t14 -6t6 -14t-6 -14t-14 -6t-14 6t-6 14zM383 500q0 8 6 14t14 6t14 -6t6 -14t-6 -14t-14 -6t-14 6t-6 14zM459 456q0 8 6 14t14 6t14 -6t6 -14t-6 -14t-14 -6t-14 6t-6 14zM516 388q0 8 6 14t14 6t14 -6t6 -14t-6 -14t-14 -6t-14 6t-6 14z
M546 305q0 8 6 14t14 6t14 -6t6 -14t-6 -14t-14 -6t-14 6t-6 14zM247 500q0 -8 -6 -14t-14 -6t-14 6t-6 14t6 14t14 6t14 -6t6 -14zM171 456q0 -8 -6 -14t-14 -6t-14 6t-6 14t6 14t14 6t14 -6t6 -14zM114 388q0 -8 -6 -14t-14 -6t-14 6t-6 14t6 14t14 6t14 -6t6 -14zM84 305
q0 -8 -6 -14t-14 -6t-14 6t-6 14t6 14t14 6t14 -6t6 -14zM295 5q0 8 6 14t14 6t14 -6t6 -14t-6 -14t-14 -6t-14 6t-6 14zM383 20q0 8 6 14t14 6t14 -6t6 -14t-6 -14t-14 -6t-14 6t-6 14zM459 64q0 8 6 14t14 6t14 -6t6 -14t-6 -14t-14 -6t-14 6t-6 14zM516 132q0 8 6 14
t14 6t14 -6t6 -14t-6 -14t-14 -6t-14 6t-6 14zM546 215q0 8 6 14t14 6t14 -6t6 -14t-6 -14t-14 -6t-14 6t-6 14zM247 20q0 -8 -6 -14t-14 -6t-14 6t-6 14t6 14t14 6t14 -6t6 -14zM171 64q0 -8 -6 -14t-14 -6t-14 6t-6 14t6 14t14 6t14 -6t6 -14zM114 132q0 -8 -6 -14t-14 -6
t-14 6t-6 14t6 14t14 6t14 -6t6 -14zM84 215q0 -8 -6 -14t-14 -6t-14 6t-6 14t6 14t14 6t14 -6t6 -14z" />
    <glyph glyph-name="uni25CF" unicode="&#x25cf;" horiz-adv-x="630" 
d="M40 260q0 114 80.5 194.5t194.5 80.5t194.5 -80.5t80.5 -194.5t-80.5 -194.5t-194.5 -80.5t-194.5 80.5t-80.5 194.5z" />
    <glyph glyph-name="uni25D0" unicode="&#x25d0;" horiz-adv-x="630" 
d="M40 260q0 114 80.5 194.5t194.5 80.5t194.5 -80.5t80.5 -194.5t-80.5 -194.5t-194.5 -80.5t-194.5 80.5t-80.5 194.5zM315 495v-470q97 0 166 68.5t69 166.5t-69 166.5t-166 68.5z" />
    <glyph glyph-name="uni25D1" unicode="&#x25d1;" horiz-adv-x="630" 
d="M590 260q0 -114 -80.5 -194.5t-194.5 -80.5t-194.5 80.5t-80.5 194.5t80.5 194.5t194.5 80.5t194.5 -80.5t80.5 -194.5zM315 25v470q-97 0 -166 -68.5t-69 -166.5t69 -166.5t166 -68.5z" />
    <glyph glyph-name="uni25D2" unicode="&#x25d2;" horiz-adv-x="630" 
d="M315 -15q-114 0 -194.5 80.5t-80.5 194.5t80.5 194.5t194.5 80.5t194.5 -80.5t80.5 -194.5t-80.5 -194.5t-194.5 -80.5zM80 260h470q0 98 -69 166.5t-166 68.5t-166 -68.5t-69 -166.5z" />
    <glyph glyph-name="uni25D3" unicode="&#x25d3;" horiz-adv-x="630" 
d="M315 535q114 0 194.5 -80.5t80.5 -194.5t-80.5 -194.5t-194.5 -80.5t-194.5 80.5t-80.5 194.5t80.5 194.5t194.5 80.5zM550 260h-470q0 -98 69 -166.5t166 -68.5t166 68.5t69 166.5z" />
    <glyph glyph-name="uni25D4" unicode="&#x25d4;" horiz-adv-x="630" 
d="M40 260q0 114 80.5 194.5t194.5 80.5t194.5 -80.5t80.5 -194.5t-80.5 -194.5t-194.5 -80.5t-194.5 80.5t-80.5 194.5zM80 260q0 -98 69 -166.5t166 -68.5t166 68.5t69 166.5h-235v235q-97 0 -166 -68.5t-69 -166.5z" />
    <glyph glyph-name="uni25D5" unicode="&#x25d5;" horiz-adv-x="630" 
d="M40 260q0 114 80.5 194.5t194.5 80.5t194.5 -80.5t80.5 -194.5t-80.5 -194.5t-194.5 -80.5t-194.5 80.5t-80.5 194.5zM80 260h235v235q-97 0 -166 -68.5t-69 -166.5z" />
    <glyph glyph-name="uni25E7" unicode="&#x25e7;" horiz-adv-x="630" 
d="M575 520v-520h-520v520h520zM315 40h220v440h-220v-440z" />
    <glyph glyph-name="uni25E8" unicode="&#x25e8;" horiz-adv-x="630" 
d="M55 0v520h520v-520h-520zM95 40h220v440h-220v-440z" />
    <glyph glyph-name="uni25E9" unicode="&#x25e9;" horiz-adv-x="630" 
d="M575 0h-520v520h520v-520zM535 480l-440 -440h440v440z" />
    <glyph glyph-name="uni25EA" unicode="&#x25ea;" horiz-adv-x="630" 
d="M575 0h-520v520h520v-520zM95 480v-440l440 440h-440z" />
    <glyph glyph-name="uni2610" unicode="&#x2610;" 
d="M755 0h-700v700h700v-700zM95 660v-620h620v620h-620z" />
    <glyph glyph-name="uni2611" unicode="&#x2611;" 
d="M755 0h-700v700h700v-700zM95 660v-620h620v620h-620zM330 100l-155 155v85l150 -150l330 410v-95z" />
    <glyph glyph-name="uni2612" unicode="&#x2612;" 
d="M55 700h700v-700h-700v700zM163 80l-28 28l242 242l-242 242l28 28l242 -242l242 242l28 -28l-242 -242l242 -242l-28 -28l-242 242zM95 660v-620h620v620h-620z" />
    <glyph glyph-name="uni2630" unicode="&#x2630;" horiz-adv-x="630" 
d="M55 440v80h520v-80h-520zM55 0v80h520v-80h-520zM55 220v80h520v-80h-520z" />
    <glyph glyph-name="uni2631" unicode="&#x2631;" horiz-adv-x="630" 
d="M55 220v80h520v-80h-520zM55 0v80h520v-80h-520zM370 440v80h205v-80h-205zM55 440v80h205v-80h-205z" />
    <glyph glyph-name="uni2632" unicode="&#x2632;" horiz-adv-x="630" 
d="M55 220v80h520v-80h-520zM55 440v80h205v-80h-205zM55 0v80h205v-80h-205zM370 440v80h205v-80h-205zM370 0v80h205v-80h-205z" />
    <glyph glyph-name="uni2633" unicode="&#x2633;" horiz-adv-x="630" 
d="M55 0v80h520v-80h-520zM55 440v80h205v-80h-205zM55 220v80h205v-80h-205zM370 220v80h205v-80h-205zM370 440v80h205v-80h-205z" />
    <glyph glyph-name="uni2634" unicode="&#x2634;" horiz-adv-x="630" 
d="M55 440v80h520v-80h-520zM55 220v80h520v-80h-520zM55 0v80h205v-80h-205zM370 0v80h205v-80h-205z" />
    <glyph glyph-name="uni2635" unicode="&#x2635;" horiz-adv-x="630" 
d="M55 220v80h520v-80h-520zM55 440v80h205v-80h-205zM55 0v80h205v-80h-205zM370 440v80h205v-80h-205zM370 0v80h205v-80h-205z" />
    <glyph glyph-name="uni2636" unicode="&#x2636;" horiz-adv-x="630" 
d="M55 440v80h520v-80h-520zM370 0v80h205v-80h-205zM55 0v80h205v-80h-205zM370 220v80h205v-80h-205zM55 220v80h205v-80h-205z" />
    <glyph glyph-name="uni2637" unicode="&#x2637;" horiz-adv-x="630" 
d="M55 440v80h205v-80h-205zM55 220v80h205v-80h-205zM370 440v80h205v-80h-205zM370 220v80h205v-80h-205zM55 0v80h205v-80h-205zM370 0v80h205v-80h-205z" />
    <glyph glyph-name="uni2690" unicode="&#x2690;" horiz-adv-x="630" 
d="M95 240v-240h-40v520h520v-280h-480zM95 480v-200h440v200h-440z" />
    <glyph glyph-name="uni2691" unicode="&#x2691;" horiz-adv-x="630" 
d="M95 240v-240h-40v520h520v-280h-480z" />
    <glyph glyph-name="uni2713" unicode="&#x2713;" 
d="M315 -15l-240 264v260l235 -259l425 625v-265z" />
    <glyph glyph-name="uni2733" unicode="&#x2733;" horiz-adv-x="630" 
d="M145 458l150 -150v212h40v-212l150 150l28 -28l-150 -150h212v-40h-212l150 -150l-28 -28l-150 150v-212h-40v212l-150 -150l-28 28l150 150h-212v40h212l-150 150z" />
    <glyph glyph-name="uni2780" unicode="&#x2780;" 
d="M40 350q0 151 107 258t258 107t258 -107t107 -258t-107 -258t-258 -107t-258 107t-107 258zM80 350q0 -134 95.5 -229.5t229.5 -95.5t229.5 95.5t95.5 229.5t-95.5 229.5t-229.5 95.5t-229.5 -95.5t-95.5 -229.5zM485 145h-120v275l-100 -105v140l100 100h120v-410z" />
    <glyph glyph-name="uni2781" unicode="&#x2781;" 
d="M40 350q0 151 107 258t258 107t258 -107t107 -258t-107 -258t-258 -107t-258 107t-107 258zM80 350q0 -134 95.5 -229.5t229.5 -95.5t229.5 95.5t95.5 229.5t-95.5 229.5t-229.5 95.5t-229.5 -95.5t-95.5 -229.5zM371 440h-121q4 55 45 90t110 35q74 0 114.5 -39
t40.5 -94q0 -42 -20.5 -71t-64.5 -66l-65 -55h160v-95h-320v95l145 125q45 38 45 67q0 38 -35 38q-31 0 -34 -30z" />
    <glyph glyph-name="uni2782" unicode="&#x2782;" 
d="M40 350q0 151 107 258t258 107t258 -107t107 -258t-107 -258t-258 -107t-258 107t-107 258zM80 350q0 -134 95.5 -229.5t229.5 -95.5t229.5 95.5t95.5 229.5t-95.5 229.5t-229.5 95.5t-229.5 -95.5t-95.5 -229.5zM240 265h121q4 -35 44 -35q45 0 45 38q0 42 -45 42h-35
v90h35q35 0 35 36q0 34 -35 34q-32 0 -34 -30h-121q4 56 47.5 90.5t107.5 34.5q65 0 110 -34t45 -86q0 -57 -55 -85q65 -24 65 -100q0 -55 -48 -90t-117 -35q-68 0 -114.5 37t-50.5 93z" />
    <glyph glyph-name="uni2783" unicode="&#x2783;" 
d="M40 350q0 151 107 258t258 107t258 -107t107 -258t-107 -258t-258 -107t-258 107t-107 258zM80 350q0 -134 95.5 -229.5t229.5 -95.5t229.5 95.5t95.5 229.5t-95.5 229.5t-229.5 95.5t-229.5 -95.5t-95.5 -229.5zM190 305l185 250h140v-250h60v-95h-60v-65h-120v65h-205
v95zM350 370l-45 -65h90v50q0 30 7 95h-4q-29 -54 -48 -80z" />
    <glyph glyph-name="uni2784" unicode="&#x2784;" 
d="M40 350q0 151 107 258t258 107t258 -107t107 -258t-107 -258t-258 -107t-258 107t-107 258zM80 350q0 -134 95.5 -229.5t229.5 -95.5t229.5 95.5t95.5 229.5t-95.5 229.5t-229.5 95.5t-229.5 -95.5t-95.5 -229.5zM367 315h-118l16 240h280v-95h-167l-4 -48q26 18 61 18
q62 0 98.5 -41.5t36.5 -103.5q0 -66 -44.5 -108t-121.5 -42q-69 0 -113 37.5t-51 92.5h123q2 -18 14 -28.5t27 -10.5q46 0 46 59t-44 59q-29 0 -39 -29z" />
    <glyph glyph-name="uni2785" unicode="&#x2785;" 
d="M40 350q0 151 107 258t258 107t258 -107t107 -258t-107 -258t-258 -107t-258 107t-107 258zM80 350q0 -134 95.5 -229.5t229.5 -95.5t229.5 95.5t95.5 229.5t-95.5 229.5t-229.5 95.5t-229.5 -95.5t-95.5 -229.5zM410 565q128 0 150 -105h-120q-6 21 -30 21
q-55 0 -55 -78q31 24 80 24q68 0 106.5 -41t38.5 -101q0 -65 -46.5 -107.5t-123.5 -42.5q-180 0 -180 215q0 113 49 164t131 51zM410 219q24 0 37 17t13 44q0 66 -50 66t-50 -66q0 -29 14 -45t36 -16z" />
    <glyph glyph-name="uni2786" unicode="&#x2786;" 
d="M40 350q0 151 107 258t258 107t258 -107t107 -258t-107 -258t-258 -107t-258 107t-107 258zM80 350q0 -134 95.5 -229.5t229.5 -95.5t229.5 95.5t95.5 229.5t-95.5 229.5t-229.5 95.5t-229.5 -95.5t-95.5 -229.5zM570 460l-164 -315h-128l164 315h-182v95h310v-95z" />
    <glyph glyph-name="uni2787" unicode="&#x2787;" 
d="M40 350q0 151 107 258t258 107t258 -107t107 -258t-107 -258t-258 -107t-258 107t-107 258zM80 350q0 -134 95.5 -229.5t229.5 -95.5t229.5 95.5t95.5 229.5t-95.5 229.5t-229.5 95.5t-229.5 -95.5t-95.5 -229.5zM361 438q0 -18 12 -30t32 -12t32 12t12 30q0 19 -12 30.5
t-32 11.5t-32 -11.5t-12 -30.5zM457 269q0 20 -13.5 35t-38.5 15t-38.5 -15t-13.5 -35t13.5 -34.5t38.5 -14.5t38.5 14.5t13.5 34.5zM512 364q65 -31 65 -101q0 -55 -47.5 -91.5t-124.5 -36.5t-124.5 36.5t-47.5 91.5q0 70 65 101q-25 11 -40 34t-15 47q0 51 43 85.5
t119 34.5t119 -34.5t43 -85.5q0 -24 -15 -47t-40 -34z" />
    <glyph glyph-name="uni2788" unicode="&#x2788;" 
d="M40 350q0 151 107 258t258 107t258 -107t107 -258t-107 -258t-258 -107t-258 107t-107 258zM80 350q0 -134 95.5 -229.5t229.5 -95.5t229.5 95.5t95.5 229.5t-95.5 229.5t-229.5 95.5t-229.5 -95.5t-95.5 -229.5zM400 135q-128 0 -150 105h120q6 -21 30 -21q55 0 55 78
q-31 -24 -80 -24q-68 0 -106.5 41t-38.5 101q0 65 46.5 107.5t123.5 42.5q180 0 180 -210q0 -113 -49.5 -166.5t-130.5 -53.5zM400 481q-24 0 -37 -17t-13 -44q0 -66 50 -66t50 66q0 29 -14 45t-36 16z" />
    <glyph glyph-name="uni278A" unicode="&#x278a;" 
d="M40 350q0 151 107 258t258 107t258 -107t107 -258t-107 -258t-258 -107t-258 107t-107 258zM365 145h120v410h-120l-100 -100v-140l100 105v-275z" />
    <glyph glyph-name="uni278B" unicode="&#x278b;" 
d="M40 350q0 151 107 258t258 107t258 -107t107 -258t-107 -258t-258 -107t-258 107t-107 258zM250 440h121q3 30 34 30q35 0 35 -38q0 -29 -45 -67l-145 -125v-95h320v95h-160l65 55q29 25 44 40.5t28 41.5t13 55q0 55 -40.5 94t-114.5 39q-69 0 -110 -35t-45 -90z" />
    <glyph glyph-name="uni278C" unicode="&#x278c;" 
d="M40 350q0 151 107 258t258 107t258 -107t107 -258t-107 -258t-258 -107t-258 107t-107 258zM361 265h-121q4 -56 50.5 -93t114.5 -37q69 0 117 35t48 90q0 76 -65 100q55 28 55 85q0 52 -45 86t-110 34q-64 0 -107.5 -34.5t-47.5 -90.5h121q2 30 34 30q35 0 35 -34
q0 -36 -35 -36h-35v-90h35q45 0 45 -42q0 -38 -45 -38q-40 0 -44 35z" />
    <glyph glyph-name="uni278D" unicode="&#x278d;" 
d="M40 350q0 151 107 258t258 107t258 -107t107 -258t-107 -258t-258 -107t-258 107t-107 258zM375 555l-185 -250v-95h205v-65h120v65h60v95h-60v250h-140zM305 305l45 65q19 26 48 80h4q-7 -65 -7 -95v-50h-90z" />
    <glyph glyph-name="uni278E" unicode="&#x278e;" 
d="M40 350q0 151 107 258t258 107t258 -107t107 -258t-107 -258t-258 -107t-258 107t-107 258zM249 315h118q10 29 39 29q44 0 44 -59t-46 -59q-15 0 -27 10.5t-14 28.5h-123q7 -55 51 -92.5t113 -37.5q77 0 121.5 42t44.5 108q0 62 -36.5 103.5t-98.5 41.5q-35 0 -61 -18
l4 48h167v95h-280z" />
    <glyph glyph-name="uni278F" unicode="&#x278f;" 
d="M40 350q0 151 107 258t258 107t258 -107t107 -258t-107 -258t-258 -107t-258 107t-107 258zM410 565q-82 0 -131 -51t-49 -164q0 -215 180 -215q77 0 123.5 42.5t46.5 107.5q0 60 -38.5 101t-106.5 41q-49 0 -80 -24q0 78 55 78q24 0 30 -21h120q-22 105 -150 105z
M410 219q-22 0 -36 16t-14 45q0 66 50 66t50 -66q0 -27 -13 -44t-37 -17z" />
    <glyph glyph-name="uni2790" unicode="&#x2790;" 
d="M40 350q0 151 107 258t258 107t258 -107t107 -258t-107 -258t-258 -107t-258 107t-107 258zM406 145l164 315v95h-310v-95h182l-164 -315h128z" />
    <glyph glyph-name="uni2791" unicode="&#x2791;" 
d="M40 350q0 151 107 258t258 107t258 -107t107 -258t-107 -258t-258 -107t-258 107t-107 258zM361 438q0 19 12 30.5t32 11.5t32 -11.5t12 -30.5q0 -18 -12 -30t-32 -12t-32 12t-12 30zM457 269q0 -20 -13.5 -34.5t-38.5 -14.5t-38.5 14.5t-13.5 34.5t13.5 35t38.5 15
t38.5 -15t13.5 -35zM512 364q25 11 40 34t15 47q0 51 -43 85.5t-119 34.5t-119 -34.5t-43 -85.5q0 -24 15 -47t40 -34q-65 -31 -65 -101q0 -55 47.5 -91.5t124.5 -36.5t124.5 36.5t47.5 91.5q0 70 -65 101z" />
    <glyph glyph-name="uni2792" unicode="&#x2792;" 
d="M40 350q0 151 107 258t258 107t258 -107t107 -258t-107 -258t-258 -107t-258 107t-107 258zM400 135q81 0 130.5 53.5t49.5 166.5q0 210 -180 210q-77 0 -123.5 -42.5t-46.5 -107.5q0 -60 38.5 -101t106.5 -41q49 0 80 24q0 -78 -55 -78q-24 0 -30 21h-120
q22 -105 150 -105zM400 481q22 0 36 -16t14 -45q0 -66 -50 -66t-50 66q0 27 13 44t37 17z" />
    <glyph glyph-name="uni2913" unicode="&#x2913;" horiz-adv-x="630" 
d="M55 0v80h520v-80h-520zM357 245l108 115v-90l-150 -150l-150 150v90l108 -115v275h84v-275z" />
    <glyph glyph-name="uni29B6" unicode="&#x29b6;" horiz-adv-x="630" 
d="M315 -15q-114 0 -194.5 80.5t-80.5 194.5t80.5 194.5t194.5 80.5t194.5 -80.5t80.5 -194.5t-80.5 -194.5t-194.5 -80.5zM80 260q0 -92 62 -159t153 -75v468q-91 -8 -153 -75t-62 -159zM550 260q0 92 -62 159t-153 75v-468q91 8 153 75t62 159z" />
    <glyph glyph-name="uni29B8" unicode="&#x29b8;" horiz-adv-x="630" 
d="M40 260q0 114 80.5 194.5t194.5 80.5t194.5 -80.5t80.5 -194.5t-80.5 -194.5t-194.5 -80.5t-194.5 80.5t-80.5 194.5zM315 495q-86 0 -152 -55l332 -332q55 66 55 152q0 98 -69 166.5t-166 68.5zM80 260q0 -98 69 -166.5t166 -68.5q86 0 152 55l-332 332
q-55 -66 -55 -152z" />
    <glyph glyph-name="uni29BF" unicode="&#x29bf;" horiz-adv-x="630" 
d="M195 260q0 50 35.5 85t84.5 35t84.5 -35t35.5 -85t-35.5 -85t-84.5 -35t-84.5 35t-35.5 85zM40 260q0 114 80.5 194.5t194.5 80.5t194.5 -80.5t80.5 -194.5t-80.5 -194.5t-194.5 -80.5t-194.5 80.5t-80.5 194.5zM80 260q0 -98 69 -166.5t166 -68.5t166 68.5t69 166.5
t-69 166.5t-166 68.5t-166 -68.5t-69 -166.5z" />
    <glyph glyph-name="uni2B12" unicode="&#x2b12;" horiz-adv-x="630" 
d="M575 0h-520v520h520v-520zM95 260v-220h440v220h-440z" />
    <glyph glyph-name="uni2B13" unicode="&#x2b13;" horiz-adv-x="630" 
d="M55 520h520v-520h-520v520zM95 480v-220h440v220h-440z" />
    <glyph glyph-name="uni2B14" unicode="&#x2b14;" horiz-adv-x="630" 
d="M575 0h-520v520h520v-520zM95 480v-440h440z" />
    <glyph glyph-name="uni2B15" unicode="&#x2b15;" horiz-adv-x="630" 
d="M575 0h-520v520h520v-520zM95 480l440 -440v440h-440z" />
    <glyph glyph-name="uni2B16" unicode="&#x2b16;" horiz-adv-x="630" 
d="M315 535l275 -275l-275 -275l-275 275zM534 260l-219 219v-438z" />
    <glyph glyph-name="uni2B17" unicode="&#x2b17;" horiz-adv-x="630" 
d="M590 260l-275 -275l-275 275l275 275zM315 41v438l-219 -219z" />
    <glyph glyph-name="uni2B18" unicode="&#x2b18;" horiz-adv-x="630" 
d="M40 260l275 275l275 -275l-275 -275zM534 260h-438l219 -219z" />
    <glyph glyph-name="uni2B19" unicode="&#x2b19;" horiz-adv-x="630" 
d="M40 260l275 275l275 -275l-275 -275zM315 479l-219 -219h438z" />
    <glyph glyph-name="uni2B1A" unicode="&#x2b1a;" horiz-adv-x="630" 
d="M55 20q0 8 6 14t14 6t14 -6t6 -14t-6 -14t-14 -6t-14 6t-6 14zM75 96q-8 0 -14 6t-6 14t6 14t14 6t14 -6t6 -14t-6 -14t-14 -6zM75 192q-8 0 -14 6t-6 14t6 14t14 6t14 -6t6 -14t-6 -14t-14 -6zM75 288q-8 0 -14 6t-6 14t6 14t14 6t14 -6t6 -14t-6 -14t-14 -6zM75 384
q-8 0 -14 6t-6 14t6 14t14 6t14 -6t6 -14t-6 -14t-14 -6zM75 480q-8 0 -14 6t-6 14t6 14t14 6t14 -6t6 -14t-6 -14t-14 -6zM535 20q0 8 6 14t14 6t14 -6t6 -14t-6 -14t-14 -6t-14 6t-6 14zM555 96q-8 0 -14 6t-6 14t6 14t14 6t14 -6t6 -14t-6 -14t-14 -6zM555 192
q-8 0 -14 6t-6 14t6 14t14 6t14 -6t6 -14t-6 -14t-14 -6zM555 288q-8 0 -14 6t-6 14t6 14t14 6t14 -6t6 -14t-6 -14t-14 -6zM555 384q-8 0 -14 6t-6 14t6 14t14 6t14 -6t6 -14t-6 -14t-14 -6zM555 480q-8 0 -14 6t-6 14t6 14t14 6t14 -6t6 -14t-6 -14t-14 -6zM479 20
q0 -8 -6 -14t-14 -6t-14 6t-6 14t6 14t14 6t14 -6t6 -14zM383 20q0 -8 -6 -14t-14 -6t-14 6t-6 14t6 14t14 6t14 -6t6 -14zM287 20q0 -8 -6 -14t-14 -6t-14 6t-6 14t6 14t14 6t14 -6t6 -14zM191 20q0 -8 -6 -14t-14 -6t-14 6t-6 14t6 14t14 6t14 -6t6 -14zM479 500
q0 -8 -6 -14t-14 -6t-14 6t-6 14t6 14t14 6t14 -6t6 -14zM383 500q0 -8 -6 -14t-14 -6t-14 6t-6 14t6 14t14 6t14 -6t6 -14zM287 500q0 -8 -6 -14t-14 -6t-14 6t-6 14t6 14t14 6t14 -6t6 -14zM191 500q0 -8 -6 -14t-14 -6t-14 6t-6 14t6 14t14 6t14 -6t6 -14z" />
    <glyph glyph-name="uniFB00" unicode="&#xfb00;" horiz-adv-x="835" 
d="M495 0v380h-180v-380h-180v380h-125v140h125v20q0 82 48 121t132 39h120v-130h-90q-30 0 -30 -30v-20h180v20q0 82 48 121t132 39h150v-130h-120q-30 0 -30 -30v-20h150v-140h-150v-380h-180z" />
    <glyph glyph-name="fi" unicode="&#xfb01;" horiz-adv-x="729" 
d="M495 570v130h180v-130h-180zM495 0v380h-180v-380h-180v380h-125v140h125v20q0 82 48 121t132 39h120v-130h-90q-30 0 -30 -30v-20h360v-520h-180z" />
    <glyph glyph-name="fl" unicode="&#xfb02;" horiz-adv-x="729" 
d="M495 0v380h-180v-380h-180v380h-125v140h125v20q0 82 48 121t132 39h120v-130h-90q-30 0 -30 -30v-20h180v180h180v-700h-180z" />
    <glyph glyph-name="uniFB03" unicode="&#xfb03;" horiz-adv-x="1089" 
d="M675 520h360v-520h-180v380h-180v-380h-180v380h-180v-380h-180v380h-125v140h125v20q0 82 48 121t132 39h120v-130h-90q-30 0 -30 -30v-20h180v20q0 82 48 121t132 39h120v-130h-90q-30 0 -30 -30v-20zM855 570v130h180v-130h-180z" />
    <glyph glyph-name="uniFB04" unicode="&#xfb04;" horiz-adv-x="1089" 
d="M675 520h180v180h180v-700h-180v380h-180v-380h-180v380h-180v-380h-180v380h-125v140h125v20q0 82 48 121t132 39h120v-130h-90q-30 0 -30 -30v-20h180v20q0 82 48 121t132 39h120v-130h-90q-30 0 -30 -30v-20z" />
    <glyph glyph-name="uniFEFF" unicode="&#xfeff;" horiz-adv-x="0" 
 />
    <glyph glyph-name="u1F310" unicode="&#x1f310;" 
d="M243 520q-45 14 -89 37q-69 -83 -73 -187h132q3 75 30 150zM281 509q-25 -69 -28 -139h132v125q-53 2 -104 14zM385 674q-54 -54 -88 -128q45 -10 88 -11v139zM258 557q26 58 65 108q-80 -21 -140 -78q41 -20 75 -30zM770 350q0 -151 -107 -258t-258 -107t-258 107
t-107 258t107 258t258 107t258 -107t107 -258zM567 520q27 -75 30 -150h132q-4 104 -73 187q-44 -23 -89 -37zM529 509q-51 -12 -104 -14v-125h132q-3 70 -28 139zM425 674v-139q43 1 88 11q-34 74 -88 128zM552 557q34 10 75 30q-60 57 -140 78q39 -50 65 -108zM243 180
q-27 75 -30 150h-132q4 -104 73 -187q44 23 89 37zM281 191q51 12 104 14v125h-132q3 -70 28 -139zM385 26v139q-43 -1 -88 -11q34 -74 88 -128zM258 143q-34 -10 -75 -30q60 -57 140 -78q-39 49 -65 108zM567 180q45 -14 89 -37q69 83 73 187h-132q-3 -75 -30 -150z
M529 191q25 69 28 139h-132v-125q53 -2 104 -14zM425 165v-139q54 54 88 128q-45 10 -88 11zM552 143q-26 -58 -65 -108q80 21 140 78q-41 20 -75 30z" />
    <glyph glyph-name="i.latn_TRK" horiz-adv-x="288" 
d="M54 0v520h180v-520h-180zM54 570v130h180v-130h-180z" />
    <glyph glyph-name="Ldot.latn_CAT" horiz-adv-x="611" 
d="M70 0v700h190v-540h340v-160h-530zM380 295v130h180v-130h-180z" />
    <glyph glyph-name="ldot.latn_CAT" horiz-adv-x="470" 
d="M54 0v700h180v-700h-180zM289 285v130h180v-130h-180z" />
    <glyph glyph-name="zero.numr" horiz-adv-x="406" 
d="M143 495q0 -120 60 -120t60 120t-60 120t-60 -120zM383 495q0 -110 -49.5 -162.5t-130.5 -52.5t-130.5 52.5t-49.5 162.5t49.5 162.5t130.5 52.5t130.5 -52.5t49.5 -162.5z" />
    <glyph glyph-name="one.numr" horiz-adv-x="294" 
d="M235 290h-120v275l-100 -105v140l100 100h120v-410z" />
    <glyph glyph-name="two.numr" horiz-adv-x="365" 
d="M144 585h-121q4 55 45 90t110 35q74 0 114.5 -39t40.5 -94q0 -42 -20.5 -71t-64.5 -66l-65 -55h160v-95h-320v95l145 125q45 38 45 67q0 38 -35 38q-32 0 -34 -30z" />
    <glyph glyph-name="three.numr" horiz-adv-x="365" 
d="M13 410h121q4 -35 44 -35q45 0 45 38q0 42 -45 42h-35v90h35q35 0 35 36q0 34 -35 34q-32 0 -34 -30h-121q4 56 47.5 90.5t107.5 34.5q65 0 110 -34t45 -86q0 -58 -55 -85q65 -24 65 -100q0 -55 -48 -90t-117 -35q-68 0 -114.5 37t-50.5 93z" />
    <glyph glyph-name="four.numr" horiz-adv-x="413" 
d="M13 450l185 250h140v-250h60v-95h-60v-65h-120v65h-205v95zM173 515l-45 -65h90v50q0 30 7 95h-4q-29 -54 -48 -80z" />
    <glyph glyph-name="five.numr" horiz-adv-x="370" 
d="M146 460h-118l16 240h280v-95h-167l-4 -48q25 18 61 18q62 0 98.5 -41.5t36.5 -103.5q0 -66 -44.5 -108t-121.5 -42q-69 0 -113 37.5t-51 92.5h123q2 -18 14 -28.5t27 -10.5q46 0 46 59t-44 59q-29 0 -39 -29z" />
    <glyph glyph-name="six.numr" horiz-adv-x="390" 
d="M204 710q128 0 150 -105h-120q-6 21 -30 21q-55 0 -55 -78q31 24 80 24q68 0 106.5 -41t38.5 -101q0 -65 -46.5 -107.5t-123.5 -42.5q-180 0 -180 215q0 113 49 164t131 51zM204 364q24 0 37 17t13 44q0 66 -50 66t-50 -66q0 -29 14 -45t36 -16z" />
    <glyph glyph-name="seven.numr" horiz-adv-x="331" 
d="M324 605l-164 -315h-128l164 315h-182v95h310v-95z" />
    <glyph glyph-name="eight.numr" horiz-adv-x="388" 
d="M150 583q0 -18 12 -30t32 -12t32 12t12 30q0 19 -12 30.5t-32 11.5t-32 -11.5t-12 -30.5zM246 414q0 20 -13.5 35t-38.5 15t-38.5 -15t-13.5 -35t13.5 -34.5t38.5 -14.5t38.5 14.5t13.5 34.5zM301 509q65 -31 65 -101q0 -55 -47.5 -91.5t-124.5 -36.5t-124.5 36.5
t-47.5 91.5q0 70 65 101q-25 11 -40 34t-15 47q0 51 43 85.5t119 34.5t119 -34.5t43 -85.5q0 -24 -15 -47t-40 -34z" />
    <glyph glyph-name="nine.numr" horiz-adv-x="391" 
d="M187 280q-127 0 -150 105h120q6 -21 30 -21q55 0 55 78q-31 -24 -80 -24q-68 0 -106.5 41t-38.5 101q0 65 46.5 107.5t123.5 42.5q180 0 180 -210q0 -113 -49.5 -166.5t-130.5 -53.5zM187 626q-24 0 -37 -17t-13 -44q0 -66 50 -66t50 66q0 29 -14 45t-36 16z" />
    <glyph glyph-name="zero.dnom" horiz-adv-x="406" 
d="M143 205q0 -120 60 -120t60 120t-60 120t-60 -120zM383 205q0 -110 -49.5 -162.5t-130.5 -52.5t-130.5 52.5t-49.5 162.5t49.5 162.5t130.5 52.5t130.5 -52.5t49.5 -162.5z" />
    <glyph glyph-name="one.dnom" horiz-adv-x="294" 
d="M238 0h-120v275l-100 -105v140l100 100h120v-410z" />
    <glyph glyph-name="two.dnom" horiz-adv-x="365" 
d="M144 295h-121q4 55 45 90t110 35q74 0 114.5 -39t40.5 -94q0 -42 -20.5 -71t-64.5 -66l-65 -55h160v-95h-320v95l145 125q45 38 45 67q0 38 -35 38q-32 0 -34 -30z" />
    <glyph glyph-name="three.dnom" horiz-adv-x="365" 
d="M13 120h121q4 -35 44 -35q45 0 45 38q0 42 -45 42h-35v90h35q35 0 35 36q0 34 -35 34q-32 0 -34 -30h-121q4 56 47.5 90.5t107.5 34.5q65 0 110 -34t45 -86q0 -58 -55 -85q65 -24 65 -100q0 -55 -48 -90t-117 -35q-68 0 -114.5 37t-50.5 93z" />
    <glyph glyph-name="four.dnom" horiz-adv-x="413" 
d="M10 160l185 250h140v-250h60v-95h-60v-65h-120v65h-205v95zM170 225l-45 -65h90v50q0 30 7 95h-4q-29 -54 -48 -80z" />
    <glyph glyph-name="five.dnom" horiz-adv-x="370" 
d="M146 170h-118l16 240h280v-95h-167l-4 -48q25 18 61 18q62 0 98.5 -41.5t36.5 -103.5q0 -66 -44.5 -108t-121.5 -42q-69 0 -113 37.5t-51 92.5h123q2 -18 14 -28.5t27 -10.5q46 0 46 59t-44 59q-29 0 -39 -29z" />
    <glyph glyph-name="six.dnom" horiz-adv-x="390" 
d="M203 420q127 0 150 -105h-120q-6 21 -30 21q-55 0 -55 -78q31 24 80 24q68 0 106.5 -41t38.5 -101q0 -65 -46.5 -107.5t-123.5 -42.5q-180 0 -180 215q0 113 49 164t131 51zM203 74q24 0 37 17t13 44q0 66 -50 66t-50 -66q0 -29 14 -45t36 -16z" />
    <glyph glyph-name="seven.dnom" horiz-adv-x="331" 
d="M322 315l-164 -315h-128l164 315h-182v95h310v-95z" />
    <glyph glyph-name="eight.dnom" horiz-adv-x="388" 
d="M150 293q0 -18 12 -30t32 -12t32 12t12 30q0 19 -12 30.5t-32 11.5t-32 -11.5t-12 -30.5zM246 124q0 20 -13.5 35t-38.5 15t-38.5 -15t-13.5 -35t13.5 -34.5t38.5 -14.5t38.5 14.5t13.5 34.5zM301 219q65 -31 65 -101q0 -55 -47.5 -91.5t-124.5 -36.5t-124.5 36.5
t-47.5 91.5q0 70 65 101q-25 11 -40 34t-15 47q0 51 43 85.5t119 34.5t119 -34.5t43 -85.5q0 -24 -15 -47t-40 -34z" />
    <glyph glyph-name="nine.dnom" horiz-adv-x="391" 
d="M187 -10q-127 0 -150 105h120q6 -21 30 -21q55 0 55 78q-31 -24 -80 -24q-68 0 -106.5 41t-38.5 101q0 65 46.5 107.5t123.5 42.5q180 0 180 -210q0 -113 -49.5 -166.5t-130.5 -53.5zM187 336q-24 0 -37 -17t-13 -44q0 -66 50 -66t50 66q0 29 -14 45t-36 16z" />
    <glyph glyph-name="space.frac" horiz-adv-x="45" 
 />
    <glyph glyph-name="numbersign.tf" horiz-adv-x="640" 
d="M265 0l40 160h-65l-40 -160h-180l40 160h-95l35 140h95l25 100h-95l35 140h95l40 160h180l-40 -160h65l40 160h180l-40 -160h95l-35 -140h-95l-25 -100h95l-35 -140h-95l-40 -160h-180zM300 400l-25 -100h65l25 100h-65z" />
    <glyph glyph-name="dollar.tf" horiz-adv-x="640" 
d="M250 -100v89q-111 15 -167 72.5t-63 138.5h181q7 -45 33.5 -65t85.5 -20q69 0 94.5 20t25.5 55q0 37 -25.5 52t-94.5 23q-285 32 -285 240q0 75 54.5 132.5t160.5 72.5v90h140v-90q98 -15 148 -67.5t57 -127.5h-181q-6 70 -94 70q-105 0 -105 -70q0 -34 30.5 -54.5
t124.5 -30.5q131 -15 190.5 -71.5t59.5 -153.5q0 -85 -57 -143.5t-173 -72.5v-89h-140z" />
    <glyph glyph-name="percent.tf" horiz-adv-x="640" 
d="M150 315l340 170v-100l-340 -170v100zM145 555q0 -85 50 -85t50 85t-50 85t-50 -85zM340 555q0 -72 -37.5 -113.5t-107.5 -41.5t-107.5 41.5t-37.5 113.5t37.5 113.5t107.5 41.5t107.5 -41.5t37.5 -113.5zM395 145q0 -85 50 -85t50 85t-50 85t-50 -85zM590 145
q0 -72 -37.5 -113.5t-107.5 -41.5t-107.5 41.5t-37.5 113.5t37.5 113.5t107.5 41.5t107.5 -41.5t37.5 -113.5z" />
    <glyph glyph-name="plus.tf" horiz-adv-x="640" 
d="M50 280v140h200v190h140v-190h200v-140h-200v-190h-140v190h-200z" />
    <glyph glyph-name="zero.tf" horiz-adv-x="640" 
d="M230 350q0 -116 21.5 -160.5t68.5 -44.5t68.5 44.5t21.5 160.5t-21.5 160.5t-68.5 44.5t-68.5 -44.5t-21.5 -160.5zM600 350q0 -190 -74.5 -277.5t-205.5 -87.5t-205.5 87.5t-74.5 277.5t74.5 277.5t205.5 87.5t205.5 -87.5t74.5 -277.5z" />
    <glyph glyph-name="one.tf" horiz-adv-x="640" 
d="M40 160h215v310l-170 -175v235l170 170h190v-540h175v-160h-580v160z" />
    <glyph glyph-name="two.tf" horiz-adv-x="640" 
d="M247 500h-193q8 93 77.5 154t182.5 61q118 0 186.5 -61.5t68.5 -148.5q0 -76 -30.5 -129.5t-97.5 -109.5l-127 -106h270v-160h-530v160l260 230q65 58 65 110q0 65 -65 65q-28 0 -46.5 -16.5t-20.5 -48.5z" />
    <glyph glyph-name="three.tf" horiz-adv-x="640" 
d="M256 300v145h55q32 0 48.5 18.5t16.5 46.5q0 60 -60 60t-67 -55h-193q8 83 73.5 141.5t181.5 58.5q119 0 187 -55.5t68 -134.5q0 -103 -85 -145q110 -37 110 -165q0 -98 -75 -164t-205 -66q-129 0 -198 63t-77 152h192q8 -70 83 -70q47 0 71 23t24 62t-23 62t-67 23h-60z
" />
    <glyph glyph-name="four.tf" horiz-adv-x="640" 
d="M6 270l305 430h210v-430h100v-160h-100v-110h-190v110h-325v160zM196 270h135v45q0 93 8 180h-6q-37 -73 -97 -164z" />
    <glyph glyph-name="five.tf" horiz-adv-x="640" 
d="M234 285h-183l27 415h475v-150h-300l-7 -100q43 40 122 40q106 0 168 -68.5t62 -176.5q0 -113 -75.5 -186.5t-209.5 -73.5q-110 0 -182.5 59.5t-87.5 155.5h195q4 -28 24.5 -46.5t55.5 -18.5q39 0 64.5 27.5t25.5 77.5q0 105 -85 105q-70 0 -89 -60z" />
    <glyph glyph-name="six.tf" horiz-adv-x="640" 
d="M333 715q100 0 164 -48t81 -132h-195q-2 17 -17.5 28.5t-37.5 11.5q-91 0 -95 -150q48 55 135 55q107 0 173.5 -68.5t66.5 -171.5q0 -110 -76.5 -182.5t-198.5 -72.5q-82 0 -141 29t-91.5 81t-47.5 115t-15 140q0 192 79 278.5t216 86.5zM333 120q38 0 64 32t26 83
q0 52 -24 81t-66 29q-40 0 -67.5 -28.5t-27.5 -81.5q0 -52 26.5 -83.5t68.5 -31.5z" />
    <glyph glyph-name="seven.tf" horiz-adv-x="640" 
d="M588 540l-293 -540h-202l292 540h-327v160h530v-160z" />
    <glyph glyph-name="eight.tf" horiz-adv-x="640" 
d="M320 -15q-129 0 -207 62t-78 158q0 124 115 170q-42 19 -66 55.5t-24 84.5q0 88 71 144t189 56t189 -56t71 -144q0 -48 -24 -84.5t-66 -55.5q115 -46 115 -170q0 -96 -78 -158t-207 -62zM220 215q0 -44 27 -67t73 -23t73 23t27 67q0 42 -26 66t-74 24q-46 0 -73 -23
t-27 -67zM240 505q0 -35 23.5 -52.5t56.5 -17.5t56.5 17.5t23.5 52.5q0 36 -22 53t-58 17t-58 -17t-22 -53z" />
    <glyph glyph-name="nine.tf" horiz-adv-x="640" 
d="M303 -15q-100 0 -164 48t-81 132h195q2 -17 17.5 -28.5t37.5 -11.5q40 0 69 34t31 116q-50 -55 -135 -55q-107 0 -173.5 70.5t-66.5 174.5q0 110 76 180t199 70q295 0 295 -365q0 -191 -81 -278t-219 -87zM308 580q-39 0 -64.5 -29.5t-25.5 -80.5q0 -53 24.5 -84
t65.5 -31q40 0 67.5 30.5t27.5 84.5q0 51 -26.5 80.5t-68.5 29.5z" />
    <glyph glyph-name="less.tf" horiz-adv-x="640" 
d="M55 420l500 210v-150l-325 -130l325 -130v-150l-500 210v140z" />
    <glyph glyph-name="equal.tf" horiz-adv-x="640" 
d="M70 400v140h500v-140h-500zM70 160v140h500v-140h-500z" />
    <glyph glyph-name="greater.tf" horiz-adv-x="640" 
d="M85 630l500 -210v-140l-500 -210v150l325 130l-325 130v150z" />
    <glyph glyph-name="asciicircum.tf" horiz-adv-x="640" 
d="M60 260l190 440h140l190 -440h-150l-110 270l-110 -270h-150z" />
    <glyph glyph-name="asciitilde.tf" horiz-adv-x="640" 
d="M174 270h-115q0 88 46 139t119 51q41 0 82.5 -21.5t74.5 -42.5t53 -21q40 0 40 55h115q0 -85 -46.5 -137.5t-118.5 -52.5q-41 0 -82.5 21.5t-74.5 42.5t-53 21q-40 0 -40 -55z" />
    <glyph glyph-name="cent.tf" horiz-adv-x="640" 
d="M251 -100v94q-96 22 -150.5 94.5t-54.5 171.5t54.5 171t150.5 95v94h140v-90q84 -12 137 -61.5t73 -123.5h-190q-15 50 -80 50q-55 0 -80 -39.5t-25 -95.5t25 -95.5t80 -39.5q67 0 80 50h190q-20 -75 -73 -124t-137 -61v-90h-140z" />
    <glyph glyph-name="sterling.tf" horiz-adv-x="640" 
d="M341 570q-75 0 -75 -80q0 -14 2 -26t8 -26t8 -18.5t12.5 -21.5t11.5 -18h228v-140h-185q-5 -55 -50 -85h305v-155h-565v155q132 0 135 85h-120v140h57q-27 51 -27 115q0 97 71 158.5t184 61.5t178 -57t77 -143h-184q-6 55 -71 55z" />
    <glyph glyph-name="currency.tf" horiz-adv-x="640" 
d="M490 -15l-67 67q-49 -22 -103 -22t-103 22l-67 -67l-105 105l63 63q-28 50 -28 107q0 56 28 107l-63 63l105 105l67 -67q49 22 103 22t103 -22l67 67l105 -105l-63 -63q28 -51 28 -107q0 -57 -28 -107l63 -63zM390 260q0 33 -18 56.5t-52 23.5t-52 -23.5t-18 -56.5
t18 -56.5t52 -23.5t52 23.5t18 56.5z" />
    <glyph glyph-name="yen.tf" horiz-adv-x="640" 
d="M27 300v140h112l-137 260h200l115 -260h5l115 260h200l-137 -260h112v-140h-185l-15 -30v-30h130v-140h-130v-100h-185v100h-130v140h130v30l-15 30h-185z" />
    <glyph glyph-name="section.tf" horiz-adv-x="640" 
d="M12 260q0 50 25.5 87t61.5 57q-47 49 -47 126q0 81 69 133t191 52q121 0 191.5 -56.5t78.5 -143.5h-182q-3 70 -88 70q-80 0 -80 -50q0 -29 29 -41t106 -23q127 -17 193.5 -67.5t66.5 -143.5q0 -50 -25.5 -87t-61.5 -57q47 -50 47 -126q0 -81 -69 -133t-191 -52
q-121 0 -191.5 56.5t-78.5 143.5h182q3 -70 88 -70q80 0 80 50q0 31 -27 42t-108 22q-127 17 -193.5 67t-66.5 144zM292 319q-47 8 -80 19q-25 -25 -25 -58q0 -10 2.5 -18t8.5 -14.5t12.5 -11.5t17.5 -9t19.5 -7t23 -6t24 -4.5t26.5 -4t26 -4.5q47 -8 79 -19q26 26 26 58
q0 10 -2.5 18t-8.5 14.5t-12.5 11.5t-17.5 9t-19.5 7t-23 6t-24 4.5t-26.5 4t-26 4.5z" />
    <glyph glyph-name="logicalnot.tf" horiz-adv-x="640" 
d="M441 210v140h-400v140h540v-280h-140z" />
    <glyph glyph-name="degree.tf" horiz-adv-x="640" 
d="M230 490q0 -42 24.5 -68.5t65.5 -26.5t65.5 26.5t24.5 68.5t-24.5 68.5t-65.5 26.5t-65.5 -26.5t-24.5 -68.5zM550 490q0 -95 -65 -160t-165 -65t-165 65t-65 160t65 160t165 65t165 -65t65 -160z" />
    <glyph glyph-name="plusminus.tf" horiz-adv-x="640" 
d="M70 370v140h180v100h140v-100h180v-140h-180v-100h-140v100h-180zM70 90v140h500v-140h-500z" />
    <glyph glyph-name="multiply.tf" horiz-adv-x="640" 
d="M418 350l177 -177l-98 -98l-177 177l-177 -177l-98 98l177 177l-177 177l98 98l177 -177l177 177l98 -98z" />
    <glyph glyph-name="divide.tf" horiz-adv-x="640" 
d="M50 280v140h540v-140h-540zM215 470v140h210v-140h-210zM215 90v140h210v-140h-210z" />
    <glyph glyph-name="florin.tf" horiz-adv-x="640" 
d="M390 380l-70 -395q-16 -91 -73.5 -128t-148.5 -37h-89v130h82q22 0 30 7.5t12 27.5l70 395h-104v140h128l3 17q29 163 224 163h114v-130h-109q-22 0 -30 -7.5t-12 -27.5l-3 -15h155v-140h-179z" />
    <glyph glyph-name="uni2007.tf" horiz-adv-x="640" 
 />
    <glyph glyph-name="perthousand.tf" horiz-adv-x="640" 
d="M393 25h-1q-37 -35 -97 -35q-70 0 -107.5 41.5t-37.5 113.5t37.5 113.5t107.5 41.5q59 0 97 -35h1q38 35 97 35q70 0 107.5 -41.5t37.5 -113.5t-37.5 -113.5t-107.5 -41.5q-60 0 -97 35zM300 555q0 -72 -37.5 -113.5t-107.5 -41.5t-107.5 41.5t-37.5 113.5t37.5 113.5
t107.5 41.5t107.5 -41.5t37.5 -113.5zM55 315l340 170v-100l-340 -170v100zM245 145q0 -85 50 -85t50 85t-50 85t-50 -85zM105 555q0 -85 50 -85t50 85t-50 85t-50 -85zM540 145q0 85 -50 85t-50 -85t50 -85t50 85z" />
    <glyph glyph-name="Euro.tf" horiz-adv-x="640" 
d="M367 175h-78q29 -50 87 -50q72 0 88 55h192q-22 -94 -98.5 -144.5t-181.5 -50.5q-216 0 -280 190h-105v140h81q-1 16 -1 35v5h-80v140h96q56 220 289 220q105 0 181.5 -50.5t98.5 -144.5h-192q-16 55 -88 55q-73 0 -101 -80h218l-55 -140h-182v-5q0 -19 1 -35h165z" />
    <glyph glyph-name="minus.tf" horiz-adv-x="640" 
d="M50 280v140h540v-140h-540z" />
    <glyph glyph-name="approxequal.tf" horiz-adv-x="640" 
d="M173 390h-115q0 88 46 139t119 51q41 0 82.5 -21t74.5 -42.5t53 -21.5q40 0 40 55h115q0 -85 -46.5 -137.5t-118.5 -52.5q-41 0 -82.5 21.5t-74.5 42.5t-53 21q-40 0 -40 -55zM173 150h-115q0 88 46 139t119 51q41 0 82.5 -21.5t74.5 -42.5t53 -21q40 0 40 55h115
q0 -85 -46.5 -137.5t-118.5 -52.5q-41 0 -82.5 21t-74.5 42.5t-53 21.5q-40 0 -40 -55z" />
    <glyph glyph-name="notequal.tf" horiz-adv-x="640" 
d="M70 400v140h273l37 70h150l-37 -70h77v-140h-149l-52 -100h201v-140h-274l-36 -70h-150l36 70h-76v140h149l52 100h-201z" />
    <glyph glyph-name="lessequal.tf" horiz-adv-x="640" 
d="M65 495l500 135v-145l-305 -65l305 -65v-265h-500v140h426l-426 115v150z" />
    <glyph glyph-name="greaterequal.tf" horiz-adv-x="640" 
d="M75 630l500 -135v-150l-426 -115h426v-140h-500v265l305 65l-305 65v145z" />
    <glyph glyph-name="x.ss20.tf" horiz-adv-x="640" 
d="M418 350l177 -177l-98 -98l-177 177l-177 -177l-98 98l177 177l-177 177l98 98l177 -177l177 177l98 -98z" />
    <glyph glyph-name="orn001.case" 
d="M755 330h-700v40h700v-40z" />
    <glyph glyph-name="orn002.case" 
d="M385 0v700h40v-700h-40z" />
    <glyph glyph-name="orn003.case" 
d="M755 330h-330v-330h-40v700h40v-330h330v-40z" />
    <glyph glyph-name="orn004.case" 
d="M425 700v-700h-40v330h-330v40h330v330h40z" />
    <glyph glyph-name="orn005.case" 
d="M755 330h-330v-330h-40v330h-330v40h700v-40z" />
    <glyph glyph-name="orn006.case" 
d="M755 330h-700v40h330v330h40v-330h330v-40z" />
    <glyph glyph-name="orn007.case" 
d="M755 330h-330v-330h-40v330h-330v40h330v330h40v-330h330v-40z" />
    <glyph glyph-name="orn008.case" 
d="M83 0l-28 28l672 672l28 -28z" />
    <glyph glyph-name="orn009.case" 
d="M727 0l-672 672l28 28l672 -672z" />
    <glyph glyph-name="orn010.case" 
d="M83 0l-28 28l322 322l-322 322l28 28l322 -322l322 322l28 -28l-322 -322l322 -322l-28 -28l-322 322z" />
    <glyph glyph-name="orn011.case" horiz-adv-x="700" 
d="M40 0h-40v700h40v-330h660v-40h-660v-330z" />
    <glyph glyph-name="orn012.case" horiz-adv-x="700" 
d="M700 0h-40v330h-660v40h660v330h40v-700z" />
    <glyph glyph-name="orn013.case" horiz-adv-x="40" 
d="M40 0h-40v700h40v-700z" />
    <glyph glyph-name="orn014.case" horiz-adv-x="20" 
d="M20 0h-40v700h40v-700z" />
    <glyph glyph-name="orn015.case" horiz-adv-x="20" 
d="M40 0h-40v700h40v-700z" />
    <glyph glyph-name="orn016.case" horiz-adv-x="56" 
d="M0 350l350 350l28 -28l-322 -322l322 -322l-28 -28z" />
    <glyph glyph-name="orn017.case" horiz-adv-x="56" 
d="M-294 700l350 -350l-350 -350l-28 28l322 322l-322 322z" />
    <glyph glyph-name="orn018.case" horiz-adv-x="175" 
d="M-175 350q0 73 51 124t124 51t124 -51t51 -124t-51 -124t-124 -51t-124 51t-51 124z" />
    <glyph glyph-name="orn019.case" horiz-adv-x="175" 
d="M0 350q0 73 51 124t124 51t124 -51t51 -124t-51 -124t-124 -51t-124 51t-51 124z" />
    <glyph glyph-name="orn020.case" horiz-adv-x="440" 
d="M440 350l260 -260l-700 260l700 260z" />
    <glyph glyph-name="orn021.case" horiz-adv-x="440" 
d="M-260 90l260 260l-260 260l700 -260z" />
    <glyph glyph-name="parenleft.case" horiz-adv-x="360" 
d="M218 350q0 -56 12.5 -105.5t57.5 -184.5l50 -150h-149l-51 109q-67 142 -88.5 203t-21.5 128t21.5 128t88.5 203l51 109h149l-50 -150q-45 -135 -57.5 -184.5t-12.5 -105.5z" />
    <glyph glyph-name="parenright.case" horiz-adv-x="360" 
d="M142 350q0 56 -12.5 105.5t-57.5 184.5l-50 150h149l51 -109q67 -142 88.5 -203t21.5 -128t-21.5 -128t-88.5 -203l-51 -109h-149l50 150q45 135 57.5 184.5t12.5 105.5z" />
    <glyph glyph-name="hyphen.case" horiz-adv-x="468" 
d="M54 280v140h360v-140h-360z" />
    <glyph glyph-name="at.case" horiz-adv-x="945" 
d="M613 53v-111q-66 -22 -140 -22q-180 0 -307.5 125t-127.5 305q0 184 126 307t314 123q190 0 315 -114t125 -296q0 -113 -54 -174t-131 -61q-87 0 -125 60q-56 -65 -155 -65q-87 0 -146 62t-59 158t59 158t146 62q65 0 105 -40v25h145v-255q0 -45 35 -45q24 0 39.5 29
t15.5 86q0 133 -89 216.5t-226 83.5q-135 0 -225 -92.5t-90 -227.5q0 -136 89 -228t226 -92q64 0 135 23zM563 350q0 49 -22 77t-63 28q-39 0 -62 -27t-23 -78t23 -78t62 -27q41 0 63 28t22 77z" />
    <glyph glyph-name="bracketleft.case" horiz-adv-x="412" 
d="M70 -90v880h315v-140h-135v-600h135v-140h-315z" />
    <glyph glyph-name="bracketright.case" horiz-adv-x="412" 
d="M342 790v-880h-315v140h135v600h-135v140h315z" />
    <glyph glyph-name="underscore.case" horiz-adv-x="654" 
d="M37 0v100h580v-100h-580z" />
    <glyph glyph-name="braceleft.case" horiz-adv-x="439" 
d="M196 350q122 -23 110 -150l-10 -105q-3 -28 7 -36.5t38 -8.5h65v-140h-105q-36 0 -69 9.5t-62 30t-44 58t-10 87.5l10 105q5 49 -14.5 64.5t-65.5 15.5h-25v140h25q46 0 65.5 15.5t14.5 64.5l-10 105q-5 50 10 87.5t44 58t62 30t69 9.5h105v-140h-65q-28 0 -38 -8.5
t-7 -36.5l10 -105q12 -127 -110 -150z" />
    <glyph glyph-name="bar.case" horiz-adv-x="320" 
d="M70 -90v880h180v-880h-180z" />
    <glyph glyph-name="braceright.case" horiz-adv-x="439" 
d="M243 350q-122 23 -110 150l10 105q3 28 -7 36.5t-38 8.5h-65v140h105q36 0 69 -9.5t62 -30t44 -58t10 -87.5l-10 -105q-5 -49 14.5 -64.5t65.5 -15.5h25v-140h-25q-46 0 -65.5 -15.5t-14.5 -64.5l10 -105q5 -50 -10 -87.5t-44 -58t-62 -30t-69 -9.5h-105v140h65
q28 0 38 8.5t7 36.5l-10 105q-12 127 110 150z" />
    <glyph glyph-name="exclamdown.case" horiz-adv-x="326" 
d="M268 700v-180h-210v180h210zM68 240l35 210h120l35 -210v-240h-190v240z" />
    <glyph glyph-name="cent.case" horiz-adv-x="618" 
d="M240 80v94q-96 22 -150.5 94.5t-54.5 171.5t54.5 171t150.5 95v94h140v-90q84 -12 137 -61.5t73 -123.5h-190q-15 50 -80 50q-55 0 -80 -39.5t-25 -95.5t25 -95.5t80 -39.5q67 0 80 50h190q-20 -75 -73 -124t-137 -61v-90h-140z" />
    <glyph glyph-name="brokenbar.case" horiz-adv-x="320" 
d="M70 -90v360h180v-360h-180zM70 430v360h180v-360h-180z" />
    <glyph glyph-name="guillemotleft.case" horiz-adv-x="755" 
d="M228 350l175 -170h-210l-170 170l170 170h210zM533 350l175 -170h-210l-170 170l170 170h210z" />
    <glyph glyph-name="uni00AD.case" horiz-adv-x="468" 
d="M54 280v140h360v-140h-360z" />
    <glyph glyph-name="periodcentered.case" horiz-adv-x="320" 
d="M55 260v180h210v-180h-210z" />
    <glyph glyph-name="guillemotright.case" horiz-adv-x="755" 
d="M47 180l175 170l-175 170h210l170 -170l-170 -170h-210zM352 180l175 170l-175 170h210l170 -170l-170 -170h-210z" />
    <glyph glyph-name="questiondown.case" horiz-adv-x="552" 
d="M402 700v-180h-210v180h210zM337 185h190q-4 -87 -72.5 -143.5t-172.5 -56.5q-114 0 -179.5 56t-65.5 144q0 48 19 83.5t46 55.5t54.5 37t46.5 38.5t19 50.5h150q0 -53 -15 -90.5t-36 -57t-42.5 -35t-36.5 -35.5t-15 -47q0 -50 55 -50q52 0 55 50z" />
    <glyph glyph-name="endash.case" horiz-adv-x="682" 
d="M51 280v140h580v-140h-580z" />
    <glyph glyph-name="emdash.case" horiz-adv-x="1202" 
d="M51 280v140h1100v-140h-1100z" />
    <glyph glyph-name="bullet.case" horiz-adv-x="518" 
d="M54 350q0 85 60 145t145 60t145 -60t60 -145t-60 -145t-145 -60t-145 60t-60 145z" />
    <glyph glyph-name="guilsinglleft.case" horiz-adv-x="450" 
d="M228 350l175 -170h-210l-170 170l170 170h210z" />
    <glyph glyph-name="guilsinglright.case" horiz-adv-x="450" 
d="M47 180l175 170l-175 170h210l170 -170l-170 -170h-210z" />
    <glyph glyph-name="arrowleft.case" horiz-adv-x="1015" 
d="M610 700l-285 -255h610v-190h-610l285 -255h-220l-350 350l350 350h220z" />
    <glyph glyph-name="arrowup.case" horiz-adv-x="860" 
d="M780 227l-255 285v-610h-190v610l-255 -285v220l350 350l350 -350v-220z" />
    <glyph glyph-name="arrowright.case" horiz-adv-x="1015" 
d="M690 445l-285 255h220l350 -350l-350 -350h-220l285 255h-610v190h610z" />
    <glyph glyph-name="arrowdown.case" horiz-adv-x="860" 
d="M525 187l255 285v-220l-350 -350l-350 350v220l255 -285v610h190v-610z" />
    <glyph glyph-name="uni2196.case" horiz-adv-x="820" 
d="M215 431l20 -381l-155 155v495h495l155 -155l-381 20l431 -431l-134 -134z" />
    <glyph glyph-name="uni2197.case" horiz-adv-x="820" 
d="M585 50l20 381l-431 -431l-134 134l431 431l-381 -20l155 155h495v-495z" />
    <glyph glyph-name="uni2198.case" horiz-adv-x="820" 
d="M605 269l-20 381l155 -155v-495h-495l-155 155l381 -20l-431 431l134 134z" />
    <glyph glyph-name="uni2199.case" horiz-adv-x="820" 
d="M235 650l-20 -381l431 431l134 -134l-431 -431l381 20l-155 -155h-495v495z" />
    <glyph glyph-name="uni21A5.case" 
d="M55 0v80h700v-80h-700zM360 550l-155 -160v110l200 200l200 -200v-110l-155 160v-410h-90v410z" />
    <glyph glyph-name="uni2295.case" 
d="M385 674q-122 -8 -209.5 -95t-94.5 -209h304v304zM425 674v-304h304q-7 122 -94.5 209t-209.5 95zM385 26v304h-304q7 -122 94.5 -209t209.5 -95zM40 350q0 151 107 258t258 107t258 -107t107 -258t-107 -258t-258 -107t-258 107t-107 258zM425 330v-304q122 8 209.5 95
t94.5 209h-304z" />
    <glyph glyph-name="uni2296.case" 
d="M405 25q129 0 222.5 88.5t101.5 216.5h-648q8 -128 101.5 -216.5t222.5 -88.5zM770 350q0 -151 -107 -258t-258 -107t-258 107t-107 258t107 258t258 107t258 -107t107 -258zM405 675q-129 0 -222.5 -88.5t-101.5 -216.5h648q-8 128 -101.5 216.5t-222.5 88.5z" />
    <glyph glyph-name="uni2297.case" 
d="M80 350q0 -123 82 -215l215 215l-215 215q-82 -92 -82 -215zM405 675q-123 0 -215 -82l215 -215l215 215q-92 82 -215 82zM433 350l215 -215q82 93 82 215t-82 215zM40 350q0 151 107 258t258 107t258 -107t107 -258t-107 -258t-258 -107t-258 107t-107 258zM405 25
q123 0 215 82l-215 215l-215 -215q92 -82 215 -82z" />
    <glyph glyph-name="uni2298.case" 
d="M40 350q0 151 107 258t258 107t258 -107t107 -258t-107 -258t-258 -107t-258 107t-107 258zM80 350q0 -123 82 -215l458 458q-92 82 -215 82q-134 0 -229.5 -95.5t-95.5 -229.5zM730 350q0 122 -82 215l-458 -458q92 -82 215 -82q134 0 229.5 95.5t95.5 229.5z" />
    <glyph glyph-name="uni22A0.case" 
d="M55 700h700v-700h-700v700zM95 68l282 282l-282 282v-564zM687 40l-282 282l-282 -282h564zM687 660h-564l282 -282zM715 632l-282 -282l282 -282v564z" />
    <glyph glyph-name="uni2300.case" 
d="M648 565l-458 -458q90 -82 215 -82q134 0 229.5 95.5t95.5 229.5q0 125 -82 215zM80 350q0 -125 82 -215l458 458q-90 82 -215 82q-134 0 -229.5 -95.5t-95.5 -229.5zM40 350q0 151 107 258t258 107q141 0 244 -93l78 78l28 -28l-78 -78q93 -103 93 -244
q0 -151 -107 -258t-258 -107q-141 0 -244 93l-78 -78l-28 28l78 78q-93 103 -93 244z" />
    <glyph glyph-name="uni23CF.case" 
d="M405 700l350 -460h-700zM55 0v80h700v-80h-700z" />
    <glyph glyph-name="uni23E9.case" 
d="M55 0v700l349 -350zM406 0v700l349 -350z" />
    <glyph glyph-name="uni23EA.case" 
d="M755 700v-700l-349 350zM404 700v-700l-349 350z" />
    <glyph glyph-name="uni23EB.case" 
d="M755 0h-700l350 349zM755 351h-700l350 349z" />
    <glyph glyph-name="uni23EC.case" 
d="M55 700h700l-350 -349zM55 349h700l-350 -349z" />
    <glyph glyph-name="uni23ED.case" 
d="M755 0h-80v700h80v-700zM55 0v700l308 -350zM365 0v700l308 -350z" />
    <glyph glyph-name="uni23EE.case" 
d="M135 0h-80v700h80v-700zM755 700v-700l-308 350zM445 700v-700l-308 350z" />
    <glyph glyph-name="uni23F8.case" 
d="M700 0h-215v700h215v-700zM325 0h-215v700h215v-700z" />
    <glyph glyph-name="uni23F9.case" 
d="M755 0h-700v700h700v-700z" />
    <glyph glyph-name="uni23FA.case" 
d="M55 350q0 145 102.5 247.5t247.5 102.5t247.5 -102.5t102.5 -247.5t-102.5 -247.5t-247.5 -102.5t-247.5 102.5t-102.5 247.5z" />
    <glyph glyph-name="uni25A0.case" 
d="M755 0h-700v700h700v-700z" />
    <glyph glyph-name="uni25A1.case" 
d="M755 0h-700v700h700v-700zM95 660v-620h620v620h-620z" />
    <glyph glyph-name="uni25B2.case" 
d="M755 0h-700l350 700z" />
    <glyph glyph-name="uni25B3.case" 
d="M755 0h-700l350 700zM119 40h572l-286 572z" />
    <glyph glyph-name="uni25B6.case" 
d="M55 0v700l700 -350z" />
    <glyph glyph-name="uni25B7.case" 
d="M55 0v700l700 -350zM95 636v-572l572 286z" />
    <glyph glyph-name="uni25BC.case" 
d="M55 700h700l-350 -700z" />
    <glyph glyph-name="uni25BD.case" 
d="M55 700h700l-350 -700zM691 660h-572l286 -572z" />
    <glyph glyph-name="uni25C0.case" 
d="M755 700v-700l-700 350z" />
    <glyph glyph-name="uni25C1.case" 
d="M755 700v-700l-700 350zM715 64v572l-572 -286z" />
    <glyph glyph-name="uni25C6.case" 
d="M405 -15l-365 365l365 365l365 -365z" />
    <glyph glyph-name="uni25C7.case" 
d="M405 -15l-365 365l365 365l365 -365zM96 350l309 -309l309 309l-309 309z" />
    <glyph glyph-name="uni25CB.case" 
d="M40 350q0 151 107 258t258 107t258 -107t107 -258t-107 -258t-258 -107t-258 107t-107 258zM80 350q0 -134 95.5 -229.5t229.5 -95.5t229.5 95.5t95.5 229.5t-95.5 229.5t-229.5 95.5t-229.5 -95.5t-95.5 -229.5z" />
    <glyph glyph-name="uni25CC.case" 
d="M40 350q0 8 6 14t14 6t14 -6t6 -14t-6 -14t-14 -6t-14 6t-6 14zM52 440q0 8 6 14t14 6t14 -6t6 -14t-6 -14t-14 -6t-14 6t-6 14zM87 524q0 8 6 14t14 6t14 -6t6 -14t-6 -14t-14 -6t-14 6t-6 14zM141 594q0 8 6 14t14 6t14 -6t6 -14t-6 -14t-14 -6t-14 6t-6 14zM213 649
q0 8 6 14t14 6t14 -6t6 -14t-6 -14t-14 -6t-14 6t-6 14zM295 683q0 8 6 14t14 6t14 -6t6 -14t-6 -14t-14 -6t-14 6t-6 14zM385 695q0 8 6 14t14 6t14 -6t6 -14t-6 -14t-14 -6t-14 6t-6 14zM770 350q0 -8 -6 -14t-14 -6t-14 6t-6 14t6 14t14 6t14 -6t6 -14zM758 440
q0 -8 -6 -14t-14 -6t-14 6t-6 14t6 14t14 6t14 -6t6 -14zM723 524q0 -8 -6 -14t-14 -6t-14 6t-6 14t6 14t14 6t14 -6t6 -14zM669 594q0 -8 -6 -14t-14 -6t-14 6t-6 14t6 14t14 6t14 -6t6 -14zM597 649q0 -8 -6 -14t-14 -6t-14 6t-6 14t6 14t14 6t14 -6t6 -14zM515 683
q0 -8 -6 -14t-14 -6t-14 6t-6 14t6 14t14 6t14 -6t6 -14zM52 260q0 8 6 14t14 6t14 -6t6 -14t-6 -14t-14 -6t-14 6t-6 14zM87 176q0 8 6 14t14 6t14 -6t6 -14t-6 -14t-14 -6t-14 6t-6 14zM141 106q0 8 6 14t14 6t14 -6t6 -14t-6 -14t-14 -6t-14 6t-6 14zM213 51q0 8 6 14
t14 6t14 -6t6 -14t-6 -14t-14 -6t-14 6t-6 14zM295 17q0 8 6 14t14 6t14 -6t6 -14t-6 -14t-14 -6t-14 6t-6 14zM385 5q0 8 6 14t14 6t14 -6t6 -14t-6 -14t-14 -6t-14 6t-6 14zM758 260q0 -8 -6 -14t-14 -6t-14 6t-6 14t6 14t14 6t14 -6t6 -14zM723 176q0 -8 -6 -14t-14 -6
t-14 6t-6 14t6 14t14 6t14 -6t6 -14zM669 106q0 -8 -6 -14t-14 -6t-14 6t-6 14t6 14t14 6t14 -6t6 -14zM597 51q0 -8 -6 -14t-14 -6t-14 6t-6 14t6 14t14 6t14 -6t6 -14zM515 17q0 -8 -6 -14t-14 -6t-14 6t-6 14t6 14t14 6t14 -6t6 -14z" />
    <glyph glyph-name="uni25CF.case" 
d="M40 350q0 151 107 258t258 107t258 -107t107 -258t-107 -258t-258 -107t-258 107t-107 258z" />
    <glyph glyph-name="uni25D0.case" 
d="M405 -15q-151 0 -258 107t-107 258t107 258t258 107t258 -107t107 -258t-107 -258t-258 -107zM405 675v-650q134 0 229.5 95.5t95.5 229.5t-95.5 229.5t-229.5 95.5z" />
    <glyph glyph-name="uni25D1.case" 
d="M405 -15q-151 0 -258 107t-107 258t107 258t258 107t258 -107t107 -258t-107 -258t-258 -107zM405 25v650q-134 0 -229.5 -95.5t-95.5 -229.5t95.5 -229.5t229.5 -95.5z" />
    <glyph glyph-name="uni25D2.case" 
d="M40 350q0 151 107 258t258 107t258 -107t107 -258t-107 -258t-258 -107t-258 107t-107 258zM80 350h650q0 134 -95.5 229.5t-229.5 95.5t-229.5 -95.5t-95.5 -229.5z" />
    <glyph glyph-name="uni25D3.case" 
d="M40 350q0 151 107 258t258 107t258 -107t107 -258t-107 -258t-258 -107t-258 107t-107 258zM730 350h-650q0 -134 95.5 -229.5t229.5 -95.5t229.5 95.5t95.5 229.5z" />
    <glyph glyph-name="uni25D4.case" 
d="M40 350q0 151 107 258t258 107t258 -107t107 -258t-107 -258t-258 -107t-258 107t-107 258zM405 350v325q-134 0 -229.5 -95.5t-95.5 -229.5t95.5 -229.5t229.5 -95.5t229.5 95.5t95.5 229.5h-325z" />
    <glyph glyph-name="uni25D5.case" 
d="M405 -15q-151 0 -258 107t-107 258t107 258t258 107t258 -107t107 -258t-107 -258t-258 -107zM80 350h325v325q-134 0 -229.5 -95.5t-95.5 -229.5z" />
    <glyph glyph-name="uni25E7.case" 
d="M755 700v-700h-700v700h700zM715 660h-310v-620h310v620z" />
    <glyph glyph-name="uni25E8.case" 
d="M55 0v700h700v-700h-700zM405 660h-310v-620h310v620z" />
    <glyph glyph-name="uni25E9.case" 
d="M755 0h-700v700h700v-700zM715 660l-620 -620h620v620z" />
    <glyph glyph-name="uni25EA.case" 
d="M755 0h-700v700h700v-700zM95 660v-620l620 620h-620z" />
    <glyph glyph-name="uni2630.case" 
d="M55 620v80h700v-80h-700zM55 0v80h700v-80h-700zM55 310v80h700v-80h-700z" />
    <glyph glyph-name="uni2631.case" 
d="M55 310v80h700v-80h-700zM55 0v80h700v-80h-700zM460 620v80h295v-80h-295zM55 620v80h295v-80h-295z" />
    <glyph glyph-name="uni2632.case" 
d="M55 620v80h700v-80h-700zM55 0v80h700v-80h-700zM460 310v80h295v-80h-295zM55 310v80h295v-80h-295z" />
    <glyph glyph-name="uni2633.case" 
d="M55 0v80h700v-80h-700zM55 620v80h295v-80h-295zM55 310v80h295v-80h-295zM460 310v80h295v-80h-295zM460 620v80h295v-80h-295z" />
    <glyph glyph-name="uni2634.case" 
d="M55 620v80h700v-80h-700zM55 310v80h700v-80h-700zM55 0v80h295v-80h-295zM460 0v80h295v-80h-295z" />
    <glyph glyph-name="uni2635.case" 
d="M55 310v80h700v-80h-700zM55 620v80h295v-80h-295zM55 0v80h295v-80h-295zM460 620v80h295v-80h-295zM460 0v80h295v-80h-295z" />
    <glyph glyph-name="uni2636.case" 
d="M55 620v80h700v-80h-700zM460 0v80h295v-80h-295zM55 0v80h295v-80h-295zM460 310v80h295v-80h-295zM55 310v80h295v-80h-295z" />
    <glyph glyph-name="uni2637.case" 
d="M55 620v80h295v-80h-295zM55 310v80h295v-80h-295zM460 620v80h295v-80h-295zM460 310v80h295v-80h-295zM55 0v80h295v-80h-295zM460 0v80h295v-80h-295z" />
    <glyph glyph-name="uni2690.case" 
d="M95 330v-330h-40v700h700v-370h-660zM95 660v-290h620v290h-620z" />
    <glyph glyph-name="uni2691.case" 
d="M95 330v-330h-40v700h700v-370h-660z" />
    <glyph glyph-name="uni2733.case" 
d="M172 611l213 -213v302h40v-302l213 213l28 -28l-213 -213h302v-40h-302l213 -213l-28 -28l-213 213v-302h-40v302l-213 -213l-28 28l213 213h-302v40h302l-213 213z" />
    <glyph glyph-name="uni2913.case" 
d="M55 0v80h700v-80h-700zM205 450l155 -160v410h90v-410l155 160v-110l-200 -200l-200 200v110z" />
    <glyph glyph-name="uni29B6.case" 
d="M730 350q0 129 -88.5 222.5t-216.5 101.5v-648q128 8 216.5 101.5t88.5 222.5zM405 715q151 0 258 -107t107 -258t-107 -258t-258 -107t-258 107t-107 258t107 258t258 107zM80 350q0 -129 88.5 -222.5t216.5 -101.5v648q-128 -8 -216.5 -101.5t-88.5 -222.5z" />
    <glyph glyph-name="uni29B8.case" 
d="M770 350q0 -151 -107 -258t-258 -107t-258 107t-107 258t107 258t258 107t258 -107t107 -258zM730 350q0 134 -95.5 229.5t-229.5 95.5q-123 0 -215 -82l458 -458q82 92 82 215zM80 350q0 -134 95.5 -229.5t229.5 -95.5q123 0 215 82l-458 458q-82 -93 -82 -215z" />
    <glyph glyph-name="uni29BF.case" 
d="M230 350q0 73 51 124t124 51t124 -51t51 -124t-51 -124t-124 -51t-124 51t-51 124zM40 350q0 151 107 258t258 107t258 -107t107 -258t-107 -258t-258 -107t-258 107t-107 258zM80 350q0 -134 95.5 -229.5t229.5 -95.5t229.5 95.5t95.5 229.5t-95.5 229.5t-229.5 95.5
t-229.5 -95.5t-95.5 -229.5z" />
    <glyph glyph-name="uni2B12.case" 
d="M755 0h-700v700h700v-700zM95 350v-310h620v310h-620z" />
    <glyph glyph-name="uni2B13.case" 
d="M55 700h700v-700h-700v700zM95 660v-310h620v310h-620z" />
    <glyph glyph-name="uni2B14.case" 
d="M755 0h-700v700h700v-700zM95 660v-620h620z" />
    <glyph glyph-name="uni2B15.case" 
d="M755 0h-700v700h700v-700zM95 660l620 -620v620h-620z" />
    <glyph glyph-name="uni2B16.case" 
d="M405 -15l-365 365l365 365l365 -365zM405 659v-618l309 309z" />
    <glyph glyph-name="uni2B17.case" 
d="M405 -15l-365 365l365 365l365 -365zM96 350l309 -309v618z" />
    <glyph glyph-name="uni2B18.case" 
d="M405 -15l-365 365l365 365l365 -365zM96 350l309 -309l309 309h-618z" />
    <glyph glyph-name="uni2B19.case" 
d="M405 -15l-365 365l365 365l365 -365zM96 350h618l-309 309z" />
    <glyph glyph-name="uni2B1A.case" 
d="M55 20q0 8 6 14t14 6t14 -6t6 -14t-6 -14t-14 -6t-14 6t-6 14zM75 95q-8 0 -14 6t-6 14t6 14t14 6t14 -6t6 -14t-6 -14t-14 -6zM75 189q-8 0 -14 6t-6 14t6 14t14 6t14 -6t6 -14t-6 -14t-14 -6zM75 283q-8 0 -14 6t-6 14t6 14t14 6t14 -6t6 -14t-6 -14t-14 -6zM75 378
q-8 0 -14 6t-6 14t6 14t14 6t14 -6t6 -14t-6 -14t-14 -6zM75 472q-8 0 -14 6t-6 14t6 14t14 6t14 -6t6 -14t-6 -14t-14 -6zM75 566q-8 0 -14 6t-6 14t6 14t14 6t14 -6t6 -14t-6 -14t-14 -6zM75 660q-8 0 -14 6t-6 14t6 14t14 6t14 -6t6 -14t-6 -14t-14 -6zM715 20q0 8 6 14
t14 6t14 -6t6 -14t-6 -14t-14 -6t-14 6t-6 14zM735 94q-8 0 -14 6t-6 14t6 14t14 6t14 -6t6 -14t-6 -14t-14 -6zM735 188q-8 0 -14 6t-6 14t6 14t14 6t14 -6t6 -14t-6 -14t-14 -6zM735 282q-8 0 -14 6t-6 14t6 14t14 6t14 -6t6 -14t-6 -14t-14 -6zM735 377q-8 0 -14 6t-6 14
t6 14t14 6t14 -6t6 -14t-6 -14t-14 -6zM735 471q-8 0 -14 6t-6 14t6 14t14 6t14 -6t6 -14t-6 -14t-14 -6zM735 565q-8 0 -14 6t-6 14t6 14t14 6t14 -6t6 -14t-6 -14t-14 -6zM735 660q-8 0 -14 6t-6 14t6 14t14 6t14 -6t6 -14t-6 -14t-14 -6zM660 20q0 -8 -6 -14t-14 -6
t-14 6t-6 14t6 14t14 6t14 -6t6 -14zM566 20q0 -8 -6 -14t-14 -6t-14 6t-6 14t6 14t14 6t14 -6t6 -14zM472 20q0 -8 -6 -14t-14 -6t-14 6t-6 14t6 14t14 6t14 -6t6 -14zM377 20q0 -8 -6 -14t-14 -6t-14 6t-6 14t6 14t14 6t14 -6t6 -14zM283 20q0 -8 -6 -14t-14 -6t-14 6
t-6 14t6 14t14 6t14 -6t6 -14zM189 20q0 -8 -6 -14t-14 -6t-14 6t-6 14t6 14t14 6t14 -6t6 -14zM661 680q0 -8 -6 -14t-14 -6t-14 6t-6 14t6 14t14 6t14 -6t6 -14zM567 680q0 -8 -6 -14t-14 -6t-14 6t-6 14t6 14t14 6t14 -6t6 -14zM473 680q0 -8 -6 -14t-14 -6t-14 6t-6 14
t6 14t14 6t14 -6t6 -14zM378 680q0 -8 -6 -14t-14 -6t-14 6t-6 14t6 14t14 6t14 -6t6 -14zM284 680q0 -8 -6 -14t-14 -6t-14 6t-6 14t6 14t14 6t14 -6t6 -14zM190 680q0 -8 -6 -14t-14 -6t-14 6t-6 14t6 14t14 6t14 -6t6 -14z" />
    <glyph glyph-name="cent.tf.case" horiz-adv-x="640" 
d="M252 80v94q-96 22 -150.5 94.5t-54.5 171.5t54.5 171t150.5 95v94h140v-90q84 -12 137 -61.5t73 -123.5h-190q-15 50 -80 50q-55 0 -80 -39.5t-25 -95.5t25 -95.5t80 -39.5q67 0 80 50h190q-20 -75 -73 -124t-137 -61v-90h-140z" />
    <glyph glyph-name="zero.zero" horiz-adv-x="656" 
d="M618 350q0 -189 -78.5 -277t-211.5 -88t-211.5 88t-78.5 277t78.5 277t211.5 88t211.5 -88t78.5 -277zM328 145q47 0 73 43t27 149l-163 -163q22 -29 63 -29zM328 555q-48 0 -73.5 -43t-26.5 -149l163 163q-22 29 -63 29z" />
    <glyph glyph-name="zero.tf.zero" horiz-adv-x="640" 
d="M600 350q0 -190 -74.5 -277.5t-205.5 -87.5t-205.5 87.5t-74.5 277.5t74.5 277.5t205.5 87.5t205.5 -87.5t74.5 -277.5zM320 145q45 0 66.5 40t23.5 142l-151 -151q20 -31 61 -31zM320 555q-45 0 -66.5 -40t-23.5 -142l151 151q-20 31 -61 31z" />
    <glyph glyph-name="f_f.ss01" horiz-adv-x="835" 
d="M495 0v380h-180v-380h-180v380h-125v140h125v20q0 82 48 121t132 39h98l52 -130h-120q-30 0 -30 -30v-20h180v20q0 82 48 121t132 39h98l52 -130h-120q-30 0 -30 -30v-20h150v-140h-150v-380h-180z" />
    <glyph glyph-name="f_f_i.ss01" horiz-adv-x="1089" 
d="M855 570v130h180v-130h-180zM675 520h360v-520h-180v380h-180v-380h-180v380h-180v-380h-180v380h-125v140h125v20q0 82 48 121t132 39h98l52 -130h-120q-30 0 -30 -30v-20h180v20q0 82 48 121t132 39h98l52 -130h-120q-30 0 -30 -30v-20z" />
    <glyph glyph-name="f_f_l.ss01" horiz-adv-x="1089" 
d="M675 520h180v180h180v-700h-180v380h-180v-380h-180v380h-180v-380h-180v380h-125v140h125v20q0 82 48 121t132 39h98l52 -130h-120q-30 0 -30 -30v-20h180v20q0 82 48 121t132 39h98l52 -130h-120q-30 0 -30 -30v-20z" />
    <glyph glyph-name="f_i.ss01" horiz-adv-x="729" 
d="M495 570v130h180v-130h-180zM495 0v380h-180v-380h-180v380h-125v140h125v20q0 82 48 121t132 39h98l52 -130h-120q-30 0 -30 -30v-20h360v-520h-180z" />
    <glyph glyph-name="f_l.ss01" horiz-adv-x="729" 
d="M495 0v380h-180v-380h-180v380h-125v140h125v20q0 82 48 121t132 39h98l52 -130h-120q-30 0 -30 -30v-20h180v180h180v-700h-180z" />
    <glyph glyph-name="t_t.ss01" horiz-adv-x="839" 
d="M495 160v220h-180v-220q0 -30 30 -30h120l-52 -130h-118q-81 0 -120.5 38t-39.5 122v220h-125v140h125v120h180v-120h180v120h180v-120h150v-140h-150v-220q0 -30 30 -30h120l-52 -130h-118q-81 0 -120.5 38t-39.5 122z" />
    <glyph glyph-name="five.ss01" horiz-adv-x="625" 
d="M35 200h195q4 -28 24.5 -46.5t55.5 -18.5q39 0 64.5 27.5t25.5 77.5q0 105 -85 105q-74 0 -90 -75l-178 73l23 357h475v-150h-300l-7 -100q43 40 122 40q106 0 168 -68.5t62 -176.5q0 -113 -75.5 -186.5t-209.5 -73.5q-110 0 -182.5 59.5t-87.5 155.5z" />
    <glyph glyph-name="at.ss01" horiz-adv-x="948" 
d="M912 280q0 -113 -54 -174t-131 -61q-87 0 -125 60q-56 -65 -155 -65q-87 0 -146 62t-59 158t59 158t146 62q65 0 105 -40v25h145v-255q0 -45 35 -45q24 0 39.5 29t15.5 86q0 133 -89 216.5t-226 83.5q-135 0 -225 -92t-90 -228t89 -228t226 -92q90 0 164 25l-47 -119
q-58 -16 -122 -16q-180 0 -307.5 125t-127.5 305q0 184 126 307t314 123q190 0 315 -114t125 -296zM557 260q0 49 -22 77t-63 28q-39 0 -62 -27t-23 -78t23 -78t62 -27q41 0 63 28t22 77z" />
    <glyph glyph-name="G.ss01" horiz-adv-x="772" 
d="M394 560q-85 0 -127.5 -58.5t-42.5 -151.5q0 -92 41.5 -151t123.5 -59q125 0 150 100h-175l63 160h297v-400h-150l-11 55q-27 -32 -75 -51t-104 -19q-159 0 -254.5 102.5t-95.5 262.5q0 161 97 263t263 102q126 0 207.5 -57.5t112.5 -157.5h-207q-25 60 -113 60z" />
    <glyph glyph-name="J.ss01" horiz-adv-x="545" 
d="M2 160h195q47 0 71 29t24 76v435h190v-435q0 -130 -79.5 -197.5t-205.5 -67.5h-131z" />
    <glyph glyph-name="f.ss01" horiz-adv-x="475" 
d="M10 380v140h125v20q0 82 48 121t132 39h98l52 -130h-120q-30 0 -30 -30v-20h150v-140h-150v-380h-180v380h-125z" />
    <glyph glyph-name="j.ss01" horiz-adv-x="292" 
d="M58 0v520h180v-520q0 -88 -58.5 -134t-161.5 -46h-45l-52 130h92q45 0 45 50zM58 570v130h180v-130h-180z" />
    <glyph glyph-name="r.ss01" horiz-adv-x="452" 
d="M457 380h-108q-57 0 -86 -25.5t-29 -89.5v-265h-180v520h180v-60q20 36 55 53t100 17h8z" />
    <glyph glyph-name="t.ss01" horiz-adv-x="479" 
d="M135 160v220h-125v140h125v120h180v-120h150v-140h-150v-220q0 -30 30 -30h120l-52 -130h-118q-81 0 -120.5 38t-39.5 122z" />
    <glyph glyph-name="y.ss01" horiz-adv-x="564" 
d="M193 520l50 -159q20 -63 36 -166h4q16 93 41 165l53 160h186l-209 -562q-27 -72 -71 -105t-139 -33h-70l-52 130h102q57 0 74 50l-195 520h190z" />
    <glyph glyph-name="braceleft.ss01" horiz-adv-x="442" 
d="M190 260q122 -23 110 -150l-10 -105q-3 -28 7 -36.5t38 -8.5h95l-57 -140h-78q-36 0 -69 9.5t-62 30t-44 58t-10 87.5l10 105q5 49 -14.5 64.5t-65.5 15.5h-25v140h25q46 0 65.5 15.5t14.5 64.5l-10 105q-5 50 10 87.5t44 58t62 30t69 9.5h78l57 -140h-95q-28 0 -38 -8.5
t-7 -36.5l10 -105q12 -127 -110 -150z" />
    <glyph glyph-name="braceright.ss01" horiz-adv-x="442" 
d="M252 260q-122 23 -110 150l10 105q3 28 -7 36.5t-38 8.5h-95l57 140h78q36 0 69 -9.5t62 -30t44 -58t10 -87.5l-10 -105q-5 -49 14.5 -64.5t65.5 -15.5h25v-140h-25q-46 0 -65.5 -15.5t-14.5 -64.5l10 -105q5 -50 -10 -87.5t-44 -58t-62 -30t-69 -9.5h-78l-57 140h95
q28 0 38 8.5t7 36.5l-10 105q-12 127 110 150z" />
    <glyph glyph-name="sterling.ss01" horiz-adv-x="629" 
d="M331 570q-75 0 -75 -80q0 -14 2 -26t8 -26t8 -18.5t12.5 -21.5t11.5 -18h228v-140h-185q-5 -55 -50 -85h305v-155h-504l-61 155q132 0 135 85h-120v140h57q-27 51 -27 115q0 97 71 158.5t184 61.5t178 -57t77 -143h-184q-6 55 -71 55z" />
    <glyph glyph-name="germandbls.ss01" horiz-adv-x="641" 
d="M474 395q66 -15 103 -62.5t37 -112.5q0 -101 -69.5 -160.5t-205.5 -59.5h-28l-52 130h60q60 0 87.5 23t27.5 72q0 90 -110 90h-35v135h30q34 0 49.5 20.5t15.5 44.5q0 70 -70 70q-41 0 -60.5 -22.5t-19.5 -77.5v-485h-180v485q0 107 68 168.5t192 61.5q118 0 184 -54.5
t66 -140.5q0 -43 -27 -78t-63 -47z" />
    <glyph glyph-name="yacute.ss01" horiz-adv-x="564" 
d="M193 520l50 -159q20 -63 36 -166h4q16 93 41 165l53 160h186l-209 -562q-27 -72 -71 -105t-139 -33h-70l-52 130h102q57 0 74 50l-195 520h190zM148 570l80 130h220l-130 -130h-170z" />
    <glyph glyph-name="ydieresis.ss01" horiz-adv-x="564" 
d="M193 520l50 -159q20 -63 36 -166h4q16 93 41 165l53 160h186l-209 -562q-27 -72 -71 -105t-139 -33h-70l-52 130h102q57 0 74 50l-195 520h190zM68 570v130h180v-130h-180zM318 570v130h180v-130h-180z" />
    <glyph glyph-name="Gcircumflex.ss01" horiz-adv-x="772" 
d="M394 560q-85 0 -127.5 -58.5t-42.5 -151.5q0 -92 41.5 -151t123.5 -59q125 0 150 100h-175l63 160h297v-400h-150l-11 55q-27 -32 -75 -51t-104 -19q-159 0 -254.5 102.5t-95.5 262.5q0 161 97 263t263 102q126 0 207.5 -57.5t112.5 -157.5h-207q-25 60 -113 60zM439 750
l-40 65l-40 -65h-190l130 130h200l130 -130h-190z" />
    <glyph glyph-name="Gbreve.ss01" horiz-adv-x="772" 
d="M394 560q-85 0 -127.5 -58.5t-42.5 -151.5q0 -92 41.5 -151t123.5 -59q125 0 150 100h-175l63 160h297v-400h-150l-11 55q-27 -32 -75 -51t-104 -19q-159 0 -254.5 102.5t-95.5 262.5q0 161 97 263t263 102q126 0 207.5 -57.5t112.5 -157.5h-207q-25 60 -113 60zM399 740
q-84 0 -135 50.5t-59 119.5h119q11 -50 75 -50q28 0 49 12.5t26 37.5h119q-8 -69 -59 -119.5t-135 -50.5z" />
    <glyph glyph-name="Gdotaccent.ss01" horiz-adv-x="772" 
d="M394 560q-85 0 -127.5 -58.5t-42.5 -151.5q0 -92 41.5 -151t123.5 -59q125 0 150 100h-175l63 160h297v-400h-150l-11 55q-27 -32 -75 -51t-104 -19q-159 0 -254.5 102.5t-95.5 262.5q0 161 97 263t263 102q126 0 207.5 -57.5t112.5 -157.5h-207q-25 60 -113 60zM309 750
v130h180v-130h-180z" />
    <glyph glyph-name="Gcommaaccent.ss01" horiz-adv-x="772" 
d="M394 560q-85 0 -127.5 -58.5t-42.5 -151.5q0 -92 41.5 -151t123.5 -59q125 0 150 100h-175l63 160h297v-400h-150l-11 55q-27 -32 -75 -51t-104 -19q-159 0 -254.5 102.5t-95.5 262.5q0 161 97 263t263 102q126 0 207.5 -57.5t112.5 -157.5h-207q-25 60 -113 60z
M309 -155v115h180v-115l-80 -115h-75l45 115h-70z" />
    <glyph glyph-name="IJ.ss01" horiz-adv-x="759" 
d="M300 0h105q47 0 71 29t24 76v595h190v-595q0 -130 -79.5 -197.5t-205.5 -67.5h-41zM260 0h-190v700h190v-700z" />
    <glyph glyph-name="ij.ss01" horiz-adv-x="568" 
d="M54 0v520h180v-520h-180zM54 570v130h180v-130h-180zM334 570v130h180v-130h-180zM334 0v520h180v-520q0 -88 -58.5 -134t-161.5 -46h-60l-52 130h107q45 0 45 50z" />
    <glyph glyph-name="Jcircumflex.ss01" horiz-adv-x="545" 
d="M2 160h195q47 0 71 29t24 76v435h190v-435q0 -130 -79.5 -197.5t-205.5 -67.5h-131zM427 750l-40 65l-40 -65h-190l130 130h200l130 -130h-190z" />
    <glyph glyph-name="jcircumflex.ss01" horiz-adv-x="292" 
d="M58 0v520h180v-520q0 -88 -58.5 -134t-161.5 -46h-45l-52 130h92q45 0 45 50zM188 570l-40 65l-40 -65h-190l130 130h200l130 -130h-190z" />
    <glyph glyph-name="Eng.ss01" 
d="M290 700l154 -227q69 -101 110 -188h4q-8 84 -8 200v215h190v-685q0 -113 -70 -166.5t-180 -53.5h-92l-63 160h155q52 0 59 45l-169 231q-72 99 -124 214h-4q8 -101 8 -230v-215h-190v700h220z" />
    <glyph glyph-name="eng.ss01" horiz-adv-x="658" 
d="M429 0v295q0 95 -85 95q-53 0 -81.5 -33.5t-28.5 -91.5v-265h-180v520h180v-50q49 65 150 65q104 0 164.5 -61t60.5 -169v-305q0 -88 -58.5 -134t-161.5 -46h-45l-52 130h92q45 0 45 50z" />
    <glyph glyph-name="racute.ss01" horiz-adv-x="452" 
d="M457 380h-108q-57 0 -86 -25.5t-29 -89.5v-265h-180v520h180v-60q20 36 55 53t100 17h8zM94 570l80 130h220l-130 -130h-170z" />
    <glyph glyph-name="rcommaaccent.ss01" horiz-adv-x="452" 
d="M457 380h-108q-57 0 -86 -25.5t-29 -89.5v-265h-180v520h180v-60q20 36 55 53t100 17h8zM54 -155v115h180v-115l-80 -115h-75l45 115h-70z" />
    <glyph glyph-name="rcaron.ss01" horiz-adv-x="452" 
d="M457 380h-108q-57 0 -86 -25.5t-29 -89.5v-265h-180v520h180v-60q20 36 55 53t100 17h8zM234 635l40 65h190l-130 -130h-200l-130 130h190z" />
    <glyph glyph-name="tcommaaccent.ss01" horiz-adv-x="479" 
d="M146 -130h90q4 -20 25 -20q25 0 25 25t-25 25q-10 0 -18 -8l-60 60l54 54q-102 23 -102 154v220h-125v140h125v120h180v-120h150v-140h-150v-220q0 -30 30 -30h120l-52 -130h-62l-44 -44q27 -2 48 -24t21 -57q0 -44 -33.5 -74.5t-81.5 -30.5q-46 0 -79.5 29t-35.5 71z
" />
    <glyph glyph-name="tcaron.ss01" horiz-adv-x="479" 
d="M135 160v220h-125v140h125v120h180v-120h150v-140h-150v-220q0 -30 30 -30h120l-52 -130h-118q-81 0 -120.5 38t-39.5 122zM360 580l30 230h175l-70 -230h-135z" />
    <glyph glyph-name="tbar.ss01" horiz-adv-x="489" 
d="M50 335h85v45h-125v140h125v120h180v-120h150v-140h-150v-45h110v-120h-110v-55q0 -30 30 -30h120l-52 -130h-118q-81 0 -120.5 38t-39.5 122v55h-85v120z" />
    <glyph glyph-name="ycircumflex.ss01" horiz-adv-x="564" 
d="M193 520l50 -159q20 -63 36 -166h4q16 93 41 165l53 160h186l-209 -562q-27 -72 -71 -105t-139 -33h-70l-52 130h102q57 0 74 50l-195 520h190zM323 570l-40 65l-40 -65h-190l130 130h200l130 -130h-190z" />
    <glyph glyph-name="longs.ss01" horiz-adv-x="371" 
d="M12 380v140h105v20q0 82 48 121t132 39h98l52 -130h-120q-30 0 -30 -30v-540h-180v380h-105z" />
    <glyph glyph-name="florin.ss01" horiz-adv-x="553" 
d="M346 380l-70 -395q-16 -91 -73.5 -128t-148.5 -37h-63l-51 130h107q22 0 30 7.5t12 27.5l70 395h-104v140h128l3 17q29 163 224 163h64l51 -130h-110q-22 0 -30 -7.5t-12 -27.5l-3 -15h155v-140h-179z" />
    <glyph glyph-name="uni021B.ss01" horiz-adv-x="479" 
d="M135 160v220h-125v140h125v120h180v-120h150v-140h-150v-220q0 -30 30 -30h120l-52 -130h-118q-81 0 -120.5 38t-39.5 122zM182 -155v115h180v-115l-80 -115h-75l45 115h-70z" />
    <glyph glyph-name="dotlessj.ss01" horiz-adv-x="292" 
d="M58 0v520h180v-520q0 -88 -58.5 -134t-161.5 -46h-45l-52 130h92q45 0 45 50z" />
    <glyph glyph-name="ygrave.ss01" horiz-adv-x="564" 
d="M193 520l50 -159q20 -63 36 -166h4q16 93 41 165l53 160h186l-209 -562q-27 -72 -71 -105t-139 -33h-70l-52 130h102q57 0 74 50l-195 520h190zM333 700l80 -130h-170l-130 130h220z" />
    <glyph glyph-name="uni2075.ss01" horiz-adv-x="370" 
d="M19 510h123q2 -18 14 -28.5t27 -10.5q46 0 46 59t-44 59q-16 0 -28 -12t-14 -34l-113 46l14 211h280v-95h-167l-4 -48q25 18 61 18q62 0 98.5 -41.5t36.5 -103.5q0 -66 -44.5 -108t-121.5 -42q-69 0 -113 37.5t-51 92.5z" />
    <glyph glyph-name="uni2085.ss01" horiz-adv-x="370" 
d="M19 20h123q2 -18 14 -28.5t27 -10.5q46 0 46 59t-44 59q-16 0 -28 -12t-14 -34l-113 46l14 211h280v-95h-167l-4 -48q25 18 61 18q62 0 98.5 -41.5t36.5 -103.5q0 -66 -44.5 -108t-121.5 -42q-69 0 -113 37.5t-51 92.5z" />
    <glyph glyph-name="uni2155.ss01" horiz-adv-x="834" 
d="M235 290h-120v275l-100 -105v140l100 100h120v-410zM117 0l390 700h132l-390 -700h-132zM483 120h123q2 -18 14 -28.5t27 -10.5q46 0 46 59t-44 59q-16 0 -28 -12t-14 -34l-113 46l14 211h280v-95h-167l-4 -48q25 18 61 18q62 0 98.5 -41.5t36.5 -103.5q0 -66 -44.5 -108
t-121.5 -42q-69 0 -113 37.5t-51 92.5z" />
    <glyph glyph-name="uni2156.ss01" horiz-adv-x="918" 
d="M144 585h-121q4 55 45 90t110 35q74 0 114.5 -39t40.5 -94q0 -42 -20.5 -71t-64.5 -66l-65 -55h160v-95h-320v95l145 125q45 38 45 67q0 38 -35 38q-32 0 -34 -30zM201 0l390 700h132l-390 -700h-132zM567 120h123q2 -18 14 -28.5t27 -10.5q46 0 46 59t-44 59
q-16 0 -28 -12t-14 -34l-113 46l14 211h280v-95h-167l-4 -48q25 18 61 18q62 0 98.5 -41.5t36.5 -103.5q0 -66 -44.5 -108t-121.5 -42q-69 0 -113 37.5t-51 92.5z" />
    <glyph glyph-name="uni2157.ss01" horiz-adv-x="905" 
d="M13 410h121q4 -35 44 -35q45 0 45 38q0 42 -45 42h-35v90h35q35 0 35 36q0 34 -35 34q-32 0 -34 -30h-121q4 56 47.5 90.5t107.5 34.5q65 0 110 -34t45 -86q0 -58 -55 -85q65 -24 65 -100q0 -55 -48 -90t-117 -35q-68 0 -114.5 37t-50.5 93zM188 0l390 700h132l-390 -700
h-132zM554 120h123q2 -18 14 -28.5t27 -10.5q46 0 46 59t-44 59q-16 0 -28 -12t-14 -34l-113 46l14 211h280v-95h-167l-4 -48q26 18 61 18q62 0 98.5 -41.5t36.5 -103.5q0 -66 -44.5 -108t-121.5 -42q-69 0 -113 37.5t-51 92.5z" />
    <glyph glyph-name="uni2158.ss01" horiz-adv-x="953" 
d="M13 450l185 250h140v-250h60v-95h-60v-65h-120v65h-205v95zM173 515l-45 -65h90v50q0 30 7 95h-4q-29 -54 -48 -80zM236 0l390 700h132l-390 -700h-132zM602 120h123q2 -18 14 -28.5t27 -10.5q46 0 46 59t-44 59q-16 0 -28 -12t-14 -34l-113 46l14 211h280v-95h-167
l-4 -48q26 18 61 18q62 0 98.5 -41.5t36.5 -103.5q0 -66 -44.5 -108t-121.5 -42q-69 0 -113 37.5t-51 92.5z" />
    <glyph glyph-name="uni215A.ss01" horiz-adv-x="916" 
d="M19 410h123q2 -18 14 -28.5t27 -10.5q46 0 46 59t-44 59q-16 0 -28 -12t-14 -34l-113 46l14 211h280v-95h-167l-4 -48q25 18 61 18q62 0 98.5 -41.5t36.5 -103.5q0 -66 -44.5 -108t-121.5 -42q-69 0 -113 37.5t-51 92.5zM193 0l390 700h132l-390 -700h-132zM729 420
q127 0 150 -105h-120q-6 21 -30 21q-55 0 -55 -78q31 24 80 24q68 0 106.5 -41t38.5 -101q0 -65 -46.5 -107.5t-123.5 -42.5q-180 0 -180 215q0 113 49 164t131 51zM729 74q24 0 37 17t13 44q0 66 -50 66t-50 -66q0 -29 14 -45t36 -16z" />
    <glyph glyph-name="fiveeighths.ss01" horiz-adv-x="928" 
d="M19 410h123q2 -18 14 -28.5t27 -10.5q46 0 46 59t-44 59q-16 0 -28 -12t-14 -34l-113 46l14 211h280v-95h-167l-4 -48q25 18 61 18q62 0 98.5 -41.5t36.5 -103.5q0 -66 -44.5 -108t-121.5 -42q-69 0 -113 37.5t-51 92.5zM193 0l390 700h132l-390 -700h-132zM690 293
q0 -18 12 -30t32 -12t32 12t12 30q0 19 -12 30.5t-32 11.5t-32 -11.5t-12 -30.5zM786 124q0 20 -13.5 35t-38.5 15t-38.5 -15t-13.5 -35t13.5 -34.5t38.5 -14.5t38.5 14.5t13.5 34.5zM841 219q65 -31 65 -101q0 -55 -47.5 -91.5t-124.5 -36.5t-124.5 36.5t-47.5 91.5
q0 70 65 101q-25 11 -40 34t-15 47q0 51 43 85.5t119 34.5t119 -34.5t43 -85.5q0 -24 -15 -47t-40 -34z" />
    <glyph glyph-name="uni2784.ss01" 
d="M40 350q0 151 107 258t258 107t258 -107t107 -258t-107 -258t-258 -107t-258 107t-107 258zM80 350q0 -134 95.5 -229.5t229.5 -95.5t229.5 95.5t95.5 229.5t-95.5 229.5t-229.5 95.5t-229.5 -95.5t-95.5 -229.5zM240 265h123q2 -18 14 -28.5t27 -10.5q46 0 46 59t-44 59
q-16 0 -28 -12t-14 -34l-113 46l14 211h280v-95h-167l-4 -48q26 18 61 18q62 0 98.5 -41.5t36.5 -103.5q0 -66 -44.5 -108t-121.5 -42q-69 0 -113 37.5t-51 92.5z" />
    <glyph glyph-name="uni278E.ss01" 
d="M40 350q0 151 107 258t258 107t258 -107t107 -258t-107 -258t-258 -107t-258 107t-107 258zM363 265h-123q7 -55 51 -92.5t113 -37.5q77 0 121.5 42t44.5 108q0 62 -36.5 103.5t-98.5 41.5q-35 0 -61 -18l4 48h167v95h-280l-14 -211l113 -46q2 22 14 34t28 12
q44 0 44 -59t-46 -59q-15 0 -27 10.5t-14 28.5z" />
    <glyph glyph-name="uniFB00.ss01" horiz-adv-x="835" 
d="M495 0v380h-180v-380h-180v380h-125v140h125v20q0 82 48 121t132 39h98l52 -130h-120q-30 0 -30 -30v-20h180v20q0 82 48 121t132 39h98l52 -130h-120q-30 0 -30 -30v-20h150v-140h-150v-380h-180z" />
    <glyph glyph-name="fi.ss01" horiz-adv-x="729" 
d="M495 570v130h180v-130h-180zM495 0v380h-180v-380h-180v380h-125v140h125v20q0 82 48 121t132 39h98l52 -130h-120q-30 0 -30 -30v-20h360v-520h-180z" />
    <glyph glyph-name="fl.ss01" horiz-adv-x="729" 
d="M495 0v380h-180v-380h-180v380h-125v140h125v20q0 82 48 121t132 39h98l52 -130h-120q-30 0 -30 -30v-20h180v180h180v-700h-180z" />
    <glyph glyph-name="uniFB03.ss01" horiz-adv-x="1089" 
d="M855 570v130h180v-130h-180zM675 520h360v-520h-180v380h-180v-380h-180v380h-180v-380h-180v380h-125v140h125v20q0 82 48 121t132 39h98l52 -130h-120q-30 0 -30 -30v-20h180v20q0 82 48 121t132 39h98l52 -130h-120q-30 0 -30 -30v-20z" />
    <glyph glyph-name="uniFB04.ss01" horiz-adv-x="1089" 
d="M675 520h180v180h180v-700h-180v380h-180v-380h-180v380h-180v-380h-180v380h-125v140h125v20q0 82 48 121t132 39h98l52 -130h-120q-30 0 -30 -30v-20h180v20q0 82 48 121t132 39h98l52 -130h-120q-30 0 -30 -30v-20z" />
    <glyph glyph-name="five.numr.ss01" horiz-adv-x="370" 
d="M19 410h123q2 -18 14 -28.5t27 -10.5q46 0 46 59t-44 59q-16 0 -28 -12t-14 -34l-113 46l14 211h280v-95h-167l-4 -48q25 18 61 18q62 0 98.5 -41.5t36.5 -103.5q0 -66 -44.5 -108t-121.5 -42q-69 0 -113 37.5t-51 92.5z" />
    <glyph glyph-name="five.dnom.ss01" horiz-adv-x="370" 
d="M19 120h123q2 -18 14 -28.5t27 -10.5q46 0 46 59t-44 59q-16 0 -28 -12t-14 -34l-113 46l14 211h280v-95h-167l-4 -48q25 18 61 18q62 0 98.5 -41.5t36.5 -103.5q0 -66 -44.5 -108t-121.5 -42q-69 0 -113 37.5t-51 92.5z" />
    <glyph glyph-name="five.tf.ss01" horiz-adv-x="640" 
d="M43 200h195q4 -28 24.5 -46.5t55.5 -18.5q39 0 64.5 27.5t25.5 77.5q0 105 -85 105q-74 0 -90 -75l-178 73l23 357h475v-150h-300l-7 -100q43 40 122 40q106 0 168 -68.5t62 -176.5q0 -113 -75.5 -186.5t-209.5 -73.5q-110 0 -182.5 59.5t-87.5 155.5z" />
    <glyph glyph-name="sterling.tf.ss01" horiz-adv-x="640" 
d="M336 570q-75 0 -75 -80q0 -14 2 -26t8 -26t8 -18.5t12.5 -21.5t11.5 -18h228v-140h-185q-5 -55 -50 -85h305v-155h-504l-61 155q132 0 135 85h-120v140h57q-27 51 -27 115q0 97 71 158.5t184 61.5t178 -57t77 -143h-184q-6 55 -71 55z" />
    <glyph glyph-name="florin.tf.ss01" horiz-adv-x="640" 
d="M390 380l-70 -395q-16 -91 -73.5 -128t-148.5 -37h-63l-51 130h107q22 0 30 7.5t12 27.5l70 395h-104v140h128l3 17q29 163 224 163h64l51 -130h-110q-22 0 -30 -7.5t-12 -27.5l-3 -15h155v-140h-179z" />
    <glyph glyph-name="at.case.ss01" horiz-adv-x="945" 
d="M918 370q0 -113 -54 -174t-131 -61q-87 0 -125 60q-56 -65 -155 -65q-87 0 -146 62t-59 158t59 158t146 62q65 0 105 -40v25h145v-255q0 -45 35 -45q24 0 39.5 29t15.5 86q0 133 -89 216.5t-226 83.5q-135 0 -225 -92.5t-90 -227.5q0 -136 89 -228t226 -92q90 0 164 25
l-47 -119q-58 -16 -122 -16q-180 0 -307.5 125t-127.5 305q0 184 126 307t314 123q190 0 315 -114t125 -296zM563 350q0 49 -22 77t-63 28q-39 0 -62 -27t-23 -78t23 -78t62 -27q41 0 63 28t22 77z" />
    <glyph glyph-name="braceleft.case.ss01" horiz-adv-x="450" 
d="M196 350q122 -23 110 -150l-10 -105q-3 -28 7 -36.5t38 -8.5h95l-57 -140h-78q-36 0 -69 9.5t-62 30t-44 58t-10 87.5l10 105q5 49 -14.5 64.5t-65.5 15.5h-25v140h25q46 0 65.5 15.5t14.5 64.5l-10 105q-5 50 10 87.5t44 58t62 30t69 9.5h78l57 -140h-95q-28 0 -38 -8.5
t-7 -36.5l10 -105q12 -127 -110 -150z" />
    <glyph glyph-name="braceright.case.ss01" horiz-adv-x="450" 
d="M254 350q-122 23 -110 150l10 105q3 28 -7 36.5t-38 8.5h-95l57 140h78q36 0 69 -9.5t62 -30t44 -58t10 -87.5l-10 -105q-5 -49 14.5 -64.5t65.5 -15.5h25v-140h-25q-46 0 -65.5 -15.5t-14.5 -64.5l10 -105q5 -50 -10 -87.5t-44 -58t-62 -30t-69 -9.5h-78l-57 140h95
q28 0 38 8.5t7 36.5l-10 105q-12 127 110 150z" />
    <glyph glyph-name="orn024.ss02" horiz-adv-x="753" 
d="M0 0l700 700h53l-700 -700h-53z" />
    <glyph glyph-name="orn025.ss02" horiz-adv-x="753" 
d="M53 700l700 -700h-53l-700 700h53z" />
    <glyph glyph-name="parenleft.ss02" horiz-adv-x="221" 
d="M71 260q0 -57 13.5 -105.5t62.5 -184.5l54 -150h-38l-50 130q-55 143 -70 194.5t-15 115.5t15 115.5t70 194.5l50 130h38l-54 -150q-49 -136 -62.5 -184.5t-13.5 -105.5z" />
    <glyph glyph-name="parenright.ss02" horiz-adv-x="221" 
d="M150 260q0 57 -13.5 105.5t-62.5 184.5l-54 150h38l50 -130q55 -143 70 -194.5t15 -115.5t-15 -115.5t-70 -194.5l-50 -130h-38l54 150q49 136 62.5 184.5t13.5 105.5z" />
    <glyph glyph-name="slash.ss02" horiz-adv-x="484" 
d="M16 0l405 700h45l-405 -700h-45z" />
    <glyph glyph-name="bracketleft.ss02" horiz-adv-x="224" 
d="M64 -180v880h155v-36h-115v-808h115v-36h-155z" />
    <glyph glyph-name="backslash.ss02" horiz-adv-x="484" 
d="M63 700l405 -700h-45l-405 700h45z" />
    <glyph glyph-name="bracketright.ss02" horiz-adv-x="224" 
d="M160 700v-880h-155v36h115v808h-115v36h155z" />
    </font>
</defs>
</svg>
