<svg xmlns="http://www.w3.org/2000/svg">
<defs>
<font id="TTInterphases-Bold" horiz-adv-x="1000" >
  <font-face 
    font-family="TT Interphases"
    font-weight="700"
    font-stretch="normal"
    units-per-em="1000"
    panose-1="2 0 8 3 6 0 0 2 0 4"
    ascent="760"
    descent="-240"
    x-height="530"
    cap-height="700"
    bbox="-540 -255 1438 1010"
    underline-thickness="50"
    underline-position="-200"
    unicode-range="U+000D-FB04"
  />
<missing-glyph horiz-adv-x="900" 
d="M100 284h45v-139h33v139h50v31h-128v126l19 -61h23l34 106l33 -106h23l54 170h-32l-34 -110l-35 110h-19l-35 -110l-31 103v157h700v-150h-110v-170h110v-91q-13 27 -50 27q-29 0 -44.5 -14.5t-15.5 -34.5q0 -22 13.5 -32t30 -15t30.5 -9.5t14 -16.5q0 -14 -9.5 -17.5
t-18.5 -3.5q-15 0 -21.5 7.5t-6.5 17.5h-33q0 -24 16.5 -39.5t44.5 -15.5q20 0 32.5 7.5t17.5 12.5v-163h-700v284zM328 143q38 0 60 25t22 61q0 37 -22.5 62t-59.5 25t-59.5 -25t-22.5 -62q0 -36 22 -61t60 -25zM328 174q-23 0 -37 16t-14 39q0 24 13.5 40t37.5 16
t37.5 -16t13.5 -40q0 -23 -14 -39t-37 -16zM549 315h-32v-106q0 -29 19.5 -47.5t48.5 -18.5t48 18.5t19 47.5v106h-32v-106q0 -15 -9 -25t-26 -10q-18 0 -27 11t-9 24v106zM344 380v62h24l35 -62h37l-40 67q36 16 36 50q0 21 -15.5 37t-41.5 16h-68v-170h33zM344 519h35
q10 0 17 -6t7 -17q0 -13 -8 -18t-16 -5h-35v46zM502 380v170h-33v-170h33zM800 262v-38q-11 10 -24 14.5t-24.5 8.5t-19.5 8t-8 12q0 9 7.5 14.5t18.5 5.5q10 0 18 -6.5t8 -18.5h24zM612 380v139h50v31h-132v-31h50v-139h32zM722 452h78v-41h-78v41zM722 519h78v-36h-78v36z
" />
    <glyph glyph-name="ff" unicode="ff" horiz-adv-x="725" 
d="M105 400h-85v130h85v45q0 75 41 115t124 40h100v-125h-75q-23 0 -36.5 -13.5t-13.5 -36.5v-25h195v45q0 75 41 115t124 40h100v-125h-75q-23 0 -36.5 -13.5t-13.5 -36.5v-25h125v-130h-125v-400h-140v400h-195v-400h-140v400z" />
    <glyph glyph-name="fi" unicode="fi" horiz-adv-x="640" 
d="M105 400h-85v130h85v45q0 75 41 115t124 40h100v-125h-75q-23 0 -36.5 -13.5t-13.5 -36.5v-25h335v-530h-140v400h-195v-400h-140v400zM510 585q-34 0 -57 23t-23 57t23 57t57 23t57 -23t23 -57t-23 -57t-57 -23z" />
    <glyph glyph-name="fl" unicode="fl" horiz-adv-x="645" 
d="M105 400h-85v130h85v45q0 75 41 115t124 40h310v-730h-140v605h-145q-23 0 -36.5 -13.5t-13.5 -36.5v-25h125v-130h-125v-400h-140v400z" />
    <glyph glyph-name="ffi" unicode="ffi" horiz-adv-x="975" 
d="M105 400h-85v130h85v45q0 75 41 115t124 40h100v-125h-75q-23 0 -36.5 -13.5t-13.5 -36.5v-25h195v45q0 75 41 115t124 40h100v-125h-75q-23 0 -36.5 -13.5t-13.5 -36.5v-25h335v-530h-140v400h-195v-400h-140v400h-195v-400h-140v400zM845 585q-34 0 -57 23t-23 57
t23 57t57 23t57 -23t23 -57t-23 -57t-57 -23z" />
    <glyph glyph-name="ffl" unicode="ffl" horiz-adv-x="980" 
d="M105 400h-85v130h85v45q0 75 41 115t124 40h100v-125h-75q-23 0 -36.5 -13.5t-13.5 -36.5v-25h195v45q0 75 41 115t124 40h310v-730h-140v605h-145q-23 0 -36.5 -13.5t-13.5 -36.5v-25h125v-130h-125v-400h-140v400h-195v-400h-140v400z" />
    <glyph glyph-name="f_f_j" unicode="ffj" horiz-adv-x="975" 
d="M645 -80h80q23 0 36.5 14.5t13.5 40.5v425h-195v-400h-140v400h-195v-400h-140v400h-85v130h85v45q0 75 41 115t124 40h100v-125h-75q-23 0 -36.5 -13.5t-13.5 -36.5v-25h195v45q0 75 41 115t124 40h100v-125h-75q-23 0 -36.5 -13.5t-13.5 -36.5v-25h335v-575
q0 -79 -39 -117t-126 -38h-105v120zM845 585q-34 0 -57 23t-23 57t23 57t57 23t57 -23t23 -57t-23 -57t-57 -23z" />
    <glyph glyph-name="f_j" unicode="fj" horiz-adv-x="640" 
d="M310 -80h80q23 0 36.5 14.5t13.5 40.5v425h-195v-400h-140v400h-85v130h85v45q0 75 41 115t124 40h100v-125h-75q-23 0 -36.5 -13.5t-13.5 -36.5v-25h335v-575q0 -79 -39 -117t-126 -38h-105v120zM510 585q-34 0 -57 23t-23 57t23 57t57 23t57 -23t23 -57t-23 -57
t-57 -23z" />
    <glyph glyph-name=".notdef" horiz-adv-x="900" 
d="M100 284h45v-139h33v139h50v31h-128v126l19 -61h23l34 106l33 -106h23l54 170h-32l-34 -110l-35 110h-19l-35 -110l-31 103v157h700v-150h-110v-170h110v-91q-13 27 -50 27q-29 0 -44.5 -14.5t-15.5 -34.5q0 -22 13.5 -32t30 -15t30.5 -9.5t14 -16.5q0 -14 -9.5 -17.5
t-18.5 -3.5q-15 0 -21.5 7.5t-6.5 17.5h-33q0 -24 16.5 -39.5t44.5 -15.5q20 0 32.5 7.5t17.5 12.5v-163h-700v284zM328 143q38 0 60 25t22 61q0 37 -22.5 62t-59.5 25t-59.5 -25t-22.5 -62q0 -36 22 -61t60 -25zM328 174q-23 0 -37 16t-14 39q0 24 13.5 40t37.5 16
t37.5 -16t13.5 -40q0 -23 -14 -39t-37 -16zM549 315h-32v-106q0 -29 19.5 -47.5t48.5 -18.5t48 18.5t19 47.5v106h-32v-106q0 -15 -9 -25t-26 -10q-18 0 -27 11t-9 24v106zM344 380v62h24l35 -62h37l-40 67q36 16 36 50q0 21 -15.5 37t-41.5 16h-68v-170h33zM344 519h35
q10 0 17 -6t7 -17q0 -13 -8 -18t-16 -5h-35v46zM502 380v170h-33v-170h33zM800 262v-38q-11 10 -24 14.5t-24.5 8.5t-19.5 8t-8 12q0 9 7.5 14.5t18.5 5.5q10 0 18 -6.5t8 -18.5h24zM612 380v139h50v31h-132v-31h50v-139h32zM722 452h78v-41h-78v41zM722 519h78v-36h-78v36z
" />
    <glyph glyph-name=".null" horiz-adv-x="0" 
 />
    <glyph glyph-name=".null" horiz-adv-x="0" 
 />
    <glyph glyph-name="nonmarkingreturn" unicode="&#xd;" horiz-adv-x="0" 
 />
    <glyph glyph-name="space" unicode=" " horiz-adv-x="230" 
 />
    <glyph glyph-name="exclam" unicode="!" horiz-adv-x="300" 
d="M150 -5q-34 0 -57 23t-23 57t23 57t57 23t57 -23t23 -57t-23 -57t-57 -23zM80 625v75h140v-75l-15 -395h-110z" />
    <glyph glyph-name="quotedbl" unicode="&#x22;" horiz-adv-x="405" 
d="M55 700h120v-230h-120v230zM230 700h120v-230h-120v230z" />
    <glyph glyph-name="numbersign" unicode="#" horiz-adv-x="675" 
d="M120 160h-105l25 120h105l30 140h-105l25 120h105l35 160h120l-35 -160h115l35 160h120l-35 -160h105l-25 -120h-105l-30 -140h105l-25 -120h-105l-35 -160h-120l35 160h-115l-35 -160h-120zM380 280l30 140h-115l-30 -140h115z" />
    <glyph glyph-name="dollar" unicode="$" horiz-adv-x="625" 
d="M245 -5q-92 14 -151 67.5t-69 147.5h150q8 -42 43 -66t92 -24q71 0 100.5 23.5t29.5 61.5q0 26 -17 41.5t-44 25t-62 16t-72 15t-72 21.5t-62 35.5t-44 57.5t-17 88q0 43 14.5 77t40.5 59t62 41t78 23v105h150v-109q86 -19 130.5 -72t54.5 -124h-150q-8 34 -37 54.5
t-78 20.5q-57 0 -83.5 -22.5t-26.5 -52.5q0 -27 17 -43.5t44 -27t62 -18t72 -16.5t72 -22t62 -35t44 -55t17 -83q0 -75 -51 -132t-149 -75v-108h-150v105z" />
    <glyph glyph-name="percent" unicode="%" horiz-adv-x="765" 
d="M545 700h110l-435 -700h-110zM570 -10q-36 0 -65.5 11.5t-50.5 33.5t-32.5 52t-11.5 68q0 37 11.5 67.5t32.5 52.5t50.5 33.5t65.5 11.5t65.5 -11.5t50.5 -33.5t32.5 -52.5t11.5 -67.5q0 -38 -11.5 -68t-32.5 -52t-50.5 -33.5t-65.5 -11.5zM570 75q30 0 50 21t20 59
t-20 59t-50 21t-50 -21t-20 -59t20 -59t50 -21zM195 380q-36 0 -65.5 11.5t-50.5 33.5t-32.5 52t-11.5 68q0 37 11.5 67.5t32.5 52.5t50.5 33.5t65.5 11.5t65.5 -11.5t50.5 -33.5t32.5 -52.5t11.5 -67.5q0 -38 -11.5 -68t-32.5 -52t-50.5 -33.5t-65.5 -11.5zM195 465
q30 0 50 21t20 59t-20 59t-50 21t-50 -21t-20 -59t20 -59t50 -21z" />
    <glyph glyph-name="ampersand" unicode="&#x26;" horiz-adv-x="660" 
d="M245 -10q-53 0 -93.5 14t-69 39.5t-43 60.5t-14.5 76q0 49 23 92t72 73l40 25l-30 30q-26 26 -43 60.5t-17 79.5q0 34 14.5 64.5t40.5 54t63 37.5t82 14q98 0 149 -47.5t51 -122.5q0 -42 -18 -81t-67 -69l-40 -25l115 -115l70 70h170l-155 -155l165 -165h-175l-75 75
q-17 -13 -38 -28t-47 -27.5t-58.5 -21t-71.5 -8.5zM255 115q34 0 63 13.5t52 36.5l-125 125l-30 -20q-45 -30 -45 -80q0 -34 21.5 -54.5t63.5 -20.5zM295 470q15 11 27.5 24t12.5 36q0 26 -17.5 43t-47.5 17t-47.5 -17.5t-17.5 -47.5q0 -19 10 -32t25 -28l20 -20z" />
    <glyph glyph-name="quotesingle" unicode="'" horiz-adv-x="230" 
d="M55 700h120v-230h-120v230z" />
    <glyph glyph-name="parenleft" unicode="(" horiz-adv-x="355" 
d="M190 -200q-60 87 -95 204.5t-35 260.5t35 260.5t95 204.5h140q-60 -91 -95 -208t-35 -257t35 -257t95 -208h-140v0z" />
    <glyph glyph-name="parenright" unicode=")" horiz-adv-x="355" 
d="M25 -200q60 91 95 208t35 257t-35 257t-95 208h140q60 -87 95 -204.5t35 -260.5t-35 -260.5t-95 -204.5h-140v0z" />
    <glyph glyph-name="asterisk" unicode="*" horiz-adv-x="470" 
d="M75 385l100 100l-140 30l35 105l125 -55l-15 135h110l-15 -135l125 55l35 -105l-140 -30l100 -100l-95 -65l-65 115l-65 -115z" />
    <glyph glyph-name="plus" unicode="+" horiz-adv-x="550" 
d="M220 255h-185v110h185v185h110v-185h185v-110h-185v-185h-110v185z" />
    <glyph glyph-name="comma" unicode="," horiz-adv-x="230" 
d="M55 100h125l-60 -210h-105z" />
    <glyph glyph-name="hyphen" unicode="-" horiz-adv-x="405" 
d="M40 345h325v-125h-325v125z" />
    <glyph glyph-name="period" unicode="." horiz-adv-x="230" 
d="M115 -5q-34 0 -57 23t-23 57t23 57t57 23t57 -23t23 -57t-23 -57t-57 -23z" />
    <glyph glyph-name="slash" unicode="/" horiz-adv-x="435" 
d="M290 730h145l-290 -930h-145z" />
    <glyph glyph-name="zero" unicode="0" horiz-adv-x="680" 
d="M340 -10q-68 0 -123 22.5t-94.5 67.5t-61 112.5t-21.5 157.5t21.5 157.5t61 112.5t94.5 67.5t123 22.5q67 0 122.5 -22.5t95 -67.5t61 -112.5t21.5 -157.5t-21.5 -157.5t-61 -112.5t-95 -67.5t-122.5 -22.5zM340 125q30 0 57 13.5t48 41t33 70t12 100.5t-12 100.5t-33 70
t-48 41t-57 13.5t-57 -13.5t-48 -41t-33 -70t-12 -100.5t12 -100.5t33 -70t48 -41t57 -13.5z" />
    <glyph glyph-name="one" unicode="1" horiz-adv-x="395" 
d="M175 485h-140v135h100q40 0 40 40v40h150v-700h-150v485z" />
    <glyph glyph-name="two" unicode="2" horiz-adv-x="595" 
d="M35 135l305 270q22 19 36 39t14 46q0 42 -23.5 63.5t-76.5 21.5q-42 0 -69.5 -21.5t-35.5 -63.5h-150q6 45 23 85t48 70t76.5 47.5t107.5 17.5q66 0 114 -16t79.5 -44t46.5 -66.5t15 -83.5q0 -30 -8 -55.5t-21 -48t-30 -41.5t-36 -35l-210 -185h315v-135h-520v135z" />
    <glyph glyph-name="three" unicode="3" horiz-adv-x="605" 
d="M305 -10q-54 0 -104 12t-88.5 38t-62 68t-25.5 102h150q8 -45 42 -65t83 -20q53 0 84 19t31 61t-31 63.5t-84 21.5h-60v125h60q53 0 79 23t26 57t-26 57t-79 23q-42 0 -74.5 -20t-40.5 -65h-150q6 54 27.5 95.5t57 69t82.5 41.5t103 14q54 0 100 -13.5t79.5 -39.5t52 -63
t18.5 -84q0 -60 -30.5 -98t-79.5 -57q53 -19 86.5 -60t33.5 -105q0 -49 -19.5 -86t-54 -62.5t-82.5 -38.5t-104 -13z" />
    <glyph glyph-name="four" unicode="4" horiz-adv-x="610" 
d="M355 135h-335v130l285 435h200v-435h90v-130h-90v-135h-150v135zM355 265v270h-5l-175 -270h180z" />
    <glyph glyph-name="five" unicode="5" horiz-adv-x="605" 
d="M305 -10q-51 0 -95.5 14t-80 41.5t-59 69t-30.5 95.5h150q8 -38 36.5 -61.5t73.5 -23.5q60 0 90 31t30 84q0 22 -7.5 43t-22.5 37t-37.5 25.5t-52.5 9.5q-42 0 -66 -16t-39 -39h-145l40 400h440v-130h-315l-15 -130h5q23 17 56 26t74 9q51 0 94 -17t74.5 -48.5t49 -76
t17.5 -98.5q0 -51 -17 -95.5t-50 -77.5t-82.5 -52.5t-115.5 -19.5z" />
    <glyph glyph-name="six" unicode="6" horiz-adv-x="610" 
d="M305 -10q-62 0 -112 18.5t-85 52t-54 79.5t-19 100q0 60 20.5 110.5t54.5 104.5l155 245h165l-150 -235h5q5 1 12 2q6 1 15 2t23 1q56 0 100.5 -18.5t75.5 -50.5t47.5 -74.5t16.5 -91.5q0 -53 -18.5 -97.5t-53 -77.5t-84.5 -51.5t-114 -18.5zM305 125q57 0 88.5 30.5
t31.5 79.5q0 26 -9.5 47.5t-26 36.5t-38.5 23t-46 8q-57 0 -88.5 -31t-31.5 -84q0 -49 31.5 -79.5t88.5 -30.5z" />
    <glyph glyph-name="seven" unicode="7" horiz-adv-x="540" 
d="M350 565h-325v135h485v-135l-250 -565h-160z" />
    <glyph glyph-name="eight" unicode="8" horiz-adv-x="620" 
d="M310 -10q-68 0 -118.5 16t-84 44t-50.5 66.5t-17 83.5q0 57 32.5 99t77.5 61q-17 9 -34 24t-30.5 34t-22 42.5t-8.5 49.5q0 47 18.5 84t52.5 63t81 39.5t103 13.5t103 -13.5t80.5 -39.5t52.5 -63t19 -84q0 -26 -8.5 -49.5t-22 -42.5t-30.5 -34t-34 -24q45 -19 77.5 -61
t32.5 -99q0 -45 -17 -83.5t-50.5 -66.5t-84.5 -44t-118 -16zM310 115q57 0 88.5 25t31.5 70t-31.5 70t-88.5 25t-88.5 -25t-31.5 -70t31.5 -70t88.5 -25zM310 415q53 0 79 23.5t26 61.5t-26 61.5t-79 23.5t-79 -23.5t-26 -61.5t26 -61.5t79 -23.5z" />
    <glyph glyph-name="nine" unicode="9" horiz-adv-x="610" 
d="M330 235h-5q-5 -2 -12 -3q-6 -1 -15.5 -1.5t-22.5 -0.5q-56 0 -100.5 18.5t-75.5 50.5t-47.5 74.5t-16.5 91.5q0 52 18.5 97t53 78t84.5 51.5t114 18.5q62 0 112 -18.5t85 -52t54 -79.5t19 -100q0 -60 -20.5 -110.5t-54.5 -104.5l-155 -245h-165zM305 350q57 0 88.5 31
t31.5 84q0 49 -31.5 79.5t-88.5 30.5t-88.5 -30.5t-31.5 -79.5q0 -26 9.5 -47.5t26 -36.5t38.5 -23t46 -8z" />
    <glyph glyph-name="colon" unicode=":" horiz-adv-x="230" 
d="M115 -5q-34 0 -57 23t-23 57t23 57t57 23t57 -23t23 -57t-23 -57t-57 -23zM115 380q-34 0 -57 23t-23 57t23 57t57 23t57 -23t23 -57t-23 -57t-57 -23z" />
    <glyph glyph-name="semicolon" unicode=";" horiz-adv-x="230" 
d="M55 100h125l-60 -210h-105zM115 380q-34 0 -57 23t-23 57t23 57t57 23t57 -23t23 -57t-23 -57t-57 -23z" />
    <glyph glyph-name="less" unicode="&#x3c;" horiz-adv-x="510" 
d="M35 255v110l440 215v-125l-305 -145l305 -145v-125z" />
    <glyph glyph-name="equal" unicode="=" horiz-adv-x="550" 
d="M35 250h480v-110h-480v110zM35 475h480v-110h-480v110z" />
    <glyph glyph-name="greater" unicode="&#x3e;" horiz-adv-x="510" 
d="M35 165l305 145l-305 145v125l440 -215v-110l-440 -215v125z" />
    <glyph glyph-name="question" unicode="?" horiz-adv-x="520" 
d="M255 -5q-34 0 -57 23t-23 57t23 57t57 23t57 -23t23 -57t-23 -57t-57 -23zM185 270q0 45 11.5 75t28.5 50t37.5 33.5t37.5 26.5t28.5 27.5t11.5 37.5q0 26 -20 45.5t-65 19.5q-42 0 -64 -25t-26 -55h-145q4 98 66.5 151.5t168.5 53.5q52 0 94.5 -12.5t72.5 -36t46.5 -57
t16.5 -74.5q0 -39 -12 -66t-30.5 -47t-40 -35.5t-40 -31.5t-30.5 -35t-12 -45v-40h-135v40z" />
    <glyph glyph-name="at" unicode="@" horiz-adv-x="930" 
d="M445 -105q-92 0 -166 28t-126 80.5t-80 127.5t-28 169q0 90 30 164.5t85 128t133.5 83t176.5 29.5q100 0 178.5 -32t132 -85t81.5 -122.5t28 -145.5q0 -62 -15 -106.5t-40 -73t-59 -42t-71 -13.5q-34 0 -57 10t-37 22q-17 14 -26 33h-5q-15 -26 -48.5 -45.5t-86.5 -19.5
q-45 0 -79.5 16t-58 44t-35.5 66.5t-12 83.5t12 83.5t35 66.5t56.5 44t76.5 16q30 0 51.5 -7.5t35.5 -15.5q17 -10 28 -22h5l10 40h85v-255q0 -30 13.5 -45t36.5 -15q34 0 54.5 27.5t20.5 102.5q0 52 -18 103t-56 91.5t-96.5 65.5t-139.5 25q-71 0 -129.5 -22.5t-99.5 -62
t-63.5 -94.5t-22.5 -121q0 -71 20 -127t57.5 -94.5t91 -58.5t121.5 -20h170v-105h-170zM460 180q42 0 68.5 29t26.5 86t-26.5 86t-68.5 29t-68.5 -29t-26.5 -86t26.5 -86t68.5 -29z" />
    <glyph glyph-name="A" unicode="A" horiz-adv-x="675" 
d="M245 700h185l250 -700h-155l-45 130h-285l-45 -130h-155zM431 265l-91 265h-5l-91 -265h187z" />
    <glyph glyph-name="B" unicode="B" horiz-adv-x="665" 
d="M70 700h330q106 0 160.5 -52t54.5 -143q0 -53 -26 -92t-64 -58q42 -19 71 -59.5t29 -100.5q0 -91 -54.5 -143t-160.5 -52h-340v700zM390 130q42 0 63.5 21t21.5 59t-21.5 59t-63.5 21h-170v-160h170zM380 410q42 0 63.5 21t21.5 59t-21.5 59t-63.5 21h-160v-160h160z" />
    <glyph glyph-name="C" unicode="C" horiz-adv-x="705" 
d="M370 -10q-75 0 -136 24t-104 70t-66.5 113t-23.5 153t23.5 153t66.5 113t104 70t136 24q66 0 116.5 -17t88 -47.5t62.5 -72.5t38 -93h-155q-9 21 -22 38t-30.5 30t-41.5 20t-56 7q-39 0 -72 -14t-57 -42t-37.5 -70.5t-13.5 -98.5t13.5 -98.5t37.5 -70.5t57 -42t72 -14
q32 0 56 7t41.5 20t30.5 30t22 38h155q-13 -51 -38 -93t-62.5 -72.5t-88 -47.5t-116.5 -17z" />
    <glyph glyph-name="D" unicode="D" horiz-adv-x="700" 
d="M70 700h270q73 0 132 -24t101 -69t64.5 -110t22.5 -147q0 -83 -22.5 -148t-64.5 -110t-101 -68.5t-132 -23.5h-270v700zM335 135q36 0 67.5 13t55.5 40t38 67.5t14 94.5t-14 94.5t-38 67.5t-55.5 40t-67.5 13h-115v-430h115z" />
    <glyph glyph-name="E" unicode="E" horiz-adv-x="600" 
d="M70 700h475v-135h-325v-150h305v-125h-305v-155h335v-135h-485v700z" />
    <glyph glyph-name="F" unicode="F" horiz-adv-x="580" 
d="M70 700h475v-135h-325v-165h300v-135h-300v-265h-150v700z" />
    <glyph glyph-name="G" unicode="G" horiz-adv-x="725" 
d="M370 -10q-75 0 -136 24t-104 70t-66.5 113t-23.5 153t23.5 153t66.5 113t104 70t136 24q66 0 116.5 -17t88 -47.5t62.5 -72.5t38 -93h-155q-9 21 -22 38t-30.5 30t-41.5 20t-56 7q-39 0 -72 -14t-57 -42t-37.5 -70.5t-13.5 -98.5t13.5 -98.5t37.5 -70.5t57 -42t72 -14
t67 11t46.5 29.5t29.5 42t17 47.5h-175v120h330v-55q0 -75 -21 -136t-61.5 -104t-99 -66.5t-133.5 -23.5z" />
    <glyph glyph-name="H" unicode="H" horiz-adv-x="720" 
d="M70 700h150v-280h280v280h150v-700h-150v285h-280v-285h-150v700z" />
    <glyph glyph-name="I" unicode="I" horiz-adv-x="290" 
d="M70 700h150v-700h-150v700z" />
    <glyph glyph-name="J" unicode="J" horiz-adv-x="570" 
d="M265 -10q-109 0 -170.5 58t-69.5 167h150q4 -45 28 -67.5t62 -22.5q42 0 66 27.5t24 87.5v460h150v-460q0 -121 -63.5 -185.5t-176.5 -64.5z" />
    <glyph glyph-name="K" unicode="K" horiz-adv-x="640" 
d="M70 700h150v-310l250 310h175l-280 -345l295 -355h-175l-265 320v-320h-150v700z" />
    <glyph glyph-name="L" unicode="L" horiz-adv-x="560" 
d="M70 700h150v-565h320v-135h-470v700z" />
    <glyph glyph-name="M" unicode="M" horiz-adv-x="915" 
d="M70 700h220l165 -485h5l165 485h220v-700h-150v495h-5l-170 -495h-125l-170 495h-5v-495h-150v700z" />
    <glyph glyph-name="N" unicode="N" horiz-adv-x="755" 
d="M70 700h195l265 -480h5v480h150v-700h-195l-265 480h-5v-480h-150v700z" />
    <glyph glyph-name="O" unicode="O" horiz-adv-x="740" 
d="M370 -10q-75 0 -136 24t-104 70t-66.5 113t-23.5 153t23.5 153t66.5 113t104 70t136 24t136 -24t104 -70t66.5 -113t23.5 -153t-23.5 -153t-66.5 -113t-104 -70t-136 -24zM370 125q39 0 72 14t57 42t37.5 70.5t13.5 98.5t-13.5 98.5t-37.5 70.5t-57 42t-72 14t-72 -14
t-57 -42t-37.5 -70.5t-13.5 -98.5t13.5 -98.5t37.5 -70.5t57 -42t72 -14z" />
    <glyph glyph-name="P" unicode="P" horiz-adv-x="645" 
d="M70 700h290q54 0 99.5 -18t77.5 -49.5t50 -76t18 -96.5q0 -53 -18 -97t-50 -75.5t-77.5 -49.5t-99.5 -18h-140v-220h-150v700zM345 355q53 0 81.5 28t28.5 77t-28.5 77t-81.5 28h-125v-210h125z" />
    <glyph glyph-name="Q" unicode="Q" horiz-adv-x="740" 
d="M446 -3q-18 -3 -37 -5t-39 -2q-75 0 -136 24t-104 70t-66.5 113t-23.5 153t23.5 153t66.5 113t104 70t136 24t136 -24t104 -70t66.5 -113t23.5 -153q0 -105 -34 -180.5t-95 -120.5l99 -149h-160zM295 225h160l35 -54q29 28 44.5 72.5t15.5 106.5q0 56 -13.5 98.5
t-37.5 70.5t-57 42t-72 14t-72 -14t-57 -42t-37.5 -70.5t-13.5 -98.5q0 -110 47.5 -166t123.5 -59z" />
    <glyph glyph-name="R" unicode="R" horiz-adv-x="655" 
d="M70 700h300q52 0 95.5 -16.5t74.5 -46.5t48 -72.5t17 -94.5q0 -66 -23 -108.5t-50 -67.5q-32 -29 -72 -44l170 -250h-170l-160 240h-80v-240h-150v700zM360 375q42 0 68.5 25t26.5 70t-26.5 70t-68.5 25h-140v-190h140z" />
    <glyph glyph-name="S" unicode="S" horiz-adv-x="625" 
d="M310 -10q-58 0 -108 14t-87.5 41.5t-60.5 69t-29 95.5h150q8 -42 43 -66t92 -24q71 0 100.5 23.5t29.5 61.5q0 26 -17 41.5t-44 25t-62 16t-72 15t-72 21.5t-62 35.5t-44 57.5t-17 88q0 51 20 89t55.5 64t83 39t101.5 13q64 0 112 -15.5t81 -43.5t52 -65.5t25 -80.5h-150
q-8 34 -37 54.5t-78 20.5q-57 0 -83.5 -22.5t-26.5 -52.5q0 -27 17 -43.5t44 -27t62 -18t72 -16.5t72 -22t62 -35t44 -55t17 -83q0 -45 -18.5 -84t-54.5 -68.5t-89.5 -46t-122.5 -16.5z" />
    <glyph glyph-name="T" unicode="T" horiz-adv-x="600" 
d="M225 565h-210v135h570v-135h-210v-565h-150v565z" />
    <glyph glyph-name="U" unicode="U" horiz-adv-x="720" 
d="M360 -10q-68 0 -122.5 21t-92.5 61t-59 97.5t-21 130.5v400h150v-400q0 -87 40.5 -131t104.5 -44t104.5 44t40.5 131v400h150v-400q0 -73 -21 -130.5t-59 -97.5t-93 -61t-122 -21z" />
    <glyph glyph-name="V" unicode="V" horiz-adv-x="665" 
d="M0 700h160l170 -530h5l170 530h160l-235 -700h-195z" />
    <glyph glyph-name="W" unicode="W" horiz-adv-x="950" 
d="M5 700h155l110 -485h5l120 485h160l120 -485h5l110 485h155l-185 -700h-165l-120 485l-120 -485h-165z" />
    <glyph glyph-name="X" unicode="X" horiz-adv-x="630" 
d="M220 360l-220 340h170l145 -240l145 240h170l-220 -340l230 -360h-170l-155 260l-155 -260h-170z" />
    <glyph glyph-name="Y" unicode="Y" horiz-adv-x="610" 
d="M230 240l-245 460h160l157 -305h5l158 305h160l-245 -460v-240h-150v240z" />
    <glyph glyph-name="Z" unicode="Z" horiz-adv-x="605" 
d="M35 110l340 460h-330v130h520v-110l-340 -460h345v-130h-535v110z" />
    <glyph glyph-name="bracketleft" unicode="[" horiz-adv-x="345" 
d="M70 730h250v-130h-110v-670h110v-130h-250v930z" />
    <glyph glyph-name="backslash" unicode="\" horiz-adv-x="435" 
d="M0 730h145l290 -930h-145z" />
    <glyph glyph-name="bracketright" unicode="]" horiz-adv-x="345" 
d="M25 -70h110v670h-110v130h250v-930h-250v130z" />
    <glyph glyph-name="asciicircum" unicode="^" horiz-adv-x="475" 
d="M180 700h115l150 -320h-115l-90 210h-5l-90 -210h-115z" />
    <glyph glyph-name="underscore" unicode="_" horiz-adv-x="445" 
d="M-20 -110h485v-125h-485v125z" />
    <glyph glyph-name="grave" unicode="`" horiz-adv-x="280" 
d="M30 760h130l90 -150h-105z" />
    <glyph glyph-name="a" unicode="a" horiz-adv-x="555" 
d="M215 -10q-43 0 -77.5 12.5t-58.5 34.5t-36.5 52t-12.5 66t13 66t39 52t64 34.5t89 12.5h125v25q0 38 -24 56.5t-66 18.5q-30 0 -51 -13t-29 -32h-140q7 32 24.5 61.5t45 52.5t66 37t89.5 14q106 0 165.5 -51t59.5 -149v-340h-120l-15 60h-5q-8 -11 -20 -23.5t-30 -23
t-41.5 -17t-53.5 -6.5zM250 105q49 0 79.5 27.5t30.5 72.5v15h-120q-38 0 -54 -16t-16 -39q0 -26 19 -43t61 -17z" />
    <glyph glyph-name="b" unicode="b" horiz-adv-x="620" 
d="M355 -10q-56 0 -92 22t-58 48h-5l-15 -60h-120v700h140v-225h5q7 9 19.5 20.5t30.5 21.5t41.5 16.5t53.5 6.5q51 0 93 -17.5t72.5 -52.5t47.5 -86.5t17 -118.5q0 -68 -17 -119t-47.5 -86t-72.5 -52.5t-93 -17.5zM325 115q24 0 46 8.5t38.5 27t26 47t9.5 67.5t-9.5 67.5
t-26 47t-38.5 27t-46 8.5t-46 -8.5t-38.5 -27t-26 -47t-9.5 -67.5t9.5 -67.5t26 -47t38.5 -27t46 -8.5z" />
    <glyph glyph-name="c" unicode="c" horiz-adv-x="570" 
d="M295 -10q-60 0 -108 18.5t-82 53.5t-52 86t-18 117t18 117t52 86t82 53.5t108 18.5q56 0 98 -15.5t71.5 -42t48 -61t27.5 -71.5h-140q-15 30 -39 47.5t-66 17.5q-53 0 -86.5 -37.5t-33.5 -112.5t33.5 -112.5t86.5 -37.5q42 0 66 17.5t39 47.5h140q-9 -38 -27.5 -72
t-48 -60.5t-71.5 -42t-98 -15.5z" />
    <glyph glyph-name="d" unicode="d" horiz-adv-x="620" 
d="M265 -10q-51 0 -93 17.5t-72.5 52.5t-47.5 86t-17 119q0 67 17 118.5t47.5 86.5t72.5 52.5t93 17.5q30 0 53.5 -6.5t41.5 -16.5t30 -21.5t20 -20.5h5v225h140v-700h-120l-15 60h-5q-11 -13 -25.5 -25.5t-32.5 -22.5t-41 -16t-51 -6zM295 115q24 0 46 8.5t38.5 27t26 47
t9.5 67.5t-9.5 67.5t-26 47t-38.5 27t-46 8.5t-46 -8.5t-38.5 -27t-26 -47t-9.5 -67.5t9.5 -67.5t26 -47t38.5 -27t46 -8.5z" />
    <glyph glyph-name="e" unicode="e" horiz-adv-x="585" 
d="M295 -10q-60 0 -108 18.5t-82 53.5t-52 86t-18 117t18 117t52 86t82 53.5t108 18.5q58 0 105 -19.5t80.5 -55t51.5 -84t18 -106.5q0 -11 -1 -21t-2 -18q-1 -9 -2 -16h-365q8 -45 35 -75t80 -30q41 0 60.5 13.5t34.5 36.5h150q-9 -34 -27.5 -65.5t-48 -56t-71.5 -39
t-98 -14.5zM405 325q-4 17 -12.5 33t-22 29t-32.5 20.5t-43 7.5q-49 0 -76.5 -26t-38.5 -64h225z" />
    <glyph glyph-name="f" unicode="f" horiz-adv-x="390" 
d="M105 400h-85v130h85v45q0 75 41 115t124 40h100v-125h-75q-23 0 -36.5 -13.5t-13.5 -36.5v-25h125v-130h-125v-400h-140v400z" />
    <glyph glyph-name="g" unicode="g" horiz-adv-x="605" 
d="M295 -200q-60 0 -103 14t-72.5 38.5t-47.5 57t-27 70.5h145q8 -26 35.5 -40.5t69.5 -14.5q53 0 81.5 25t28.5 70v75h-5q-8 -9 -20.5 -20.5t-30.5 -21.5t-40.5 -16.5t-48.5 -6.5q-51 0 -92.5 16.5t-71 49t-45.5 80t-16 109.5t16 109.5t45.5 80t71 49t92.5 16.5
q49 0 85.5 -22t59.5 -48h5l15 60h120v-510q0 -106 -61 -163t-189 -57zM290 155q53 0 84 35t31 95t-31 95t-84 35t-84 -35t-31 -95t31 -95t84 -35z" />
    <glyph glyph-name="h" unicode="h" horiz-adv-x="595" 
d="M65 700h140v-225h5q26 30 58 47.5t77 17.5q43 0 79 -14.5t61.5 -42.5t40 -67.5t14.5 -90.5v-325h-140v305q0 53 -25 81.5t-70 28.5t-72.5 -30.5t-27.5 -79.5v-305h-140v700z" />
    <glyph glyph-name="i" unicode="i" horiz-adv-x="260" 
d="M60 530h140v-530h-140v530zM130 585q-34 0 -57 23t-23 57t23 57t57 23t57 -23t23 -57t-23 -57t-57 -23z" />
    <glyph glyph-name="j" unicode="j" horiz-adv-x="260" 
d="M-70 -80h80q23 0 36.5 14.5t13.5 40.5v555h140v-575q0 -79 -39 -117t-126 -38h-105v120zM130 585q-34 0 -57 23t-23 57t23 57t57 23t57 -23t23 -57t-23 -57t-57 -23z" />
    <glyph glyph-name="k" unicode="k" horiz-adv-x="560" 
d="M65 700h140v-405l195 235h165l-215 -260l230 -270h-165l-210 245v-245h-140v700z" />
    <glyph glyph-name="l" unicode="l" horiz-adv-x="270" 
d="M65 700h140v-700h-140v700z" />
    <glyph glyph-name="m" unicode="m" horiz-adv-x="885" 
d="M60 530h120l15 -60h5q23 34 53 52t72 18q34 0 58.5 -9t42 -22t28 -28t16.5 -26h5q6 11 18 26t32 28t47 22t63 9q43 0 79 -14.5t61.5 -41.5t40 -66t14.5 -88v-330h-140v310q0 28 -7 48t-19 32.5t-28.5 18.5t-35.5 6q-34 0 -59.5 -26t-25.5 -79v-310h-140v310q0 28 -7 48
t-19 32.5t-28.5 18.5t-35.5 6q-34 0 -59.5 -28t-25.5 -77v-310h-140v530z" />
    <glyph glyph-name="n" unicode="n" horiz-adv-x="590" 
d="M60 530h120l15 -60h5q26 34 62 52t78 18q43 0 79 -14.5t61.5 -42.5t40 -67.5t14.5 -90.5v-325h-140v305q0 53 -25 81.5t-70 28.5t-72.5 -30.5t-27.5 -79.5v-305h-140v530z" />
    <glyph glyph-name="o" unicode="o" horiz-adv-x="590" 
d="M295 -10q-60 0 -108 18.5t-82 53.5t-52 86t-18 117t18 117t52 86t82 53.5t108 18.5t108 -18.5t82 -53.5t52 -86t18 -117t-18 -117t-52 -86t-82 -53.5t-108 -18.5zM295 115q24 0 46 8.5t38.5 27t26 47t9.5 67.5t-9.5 67.5t-26 47t-38.5 27t-46 8.5t-46 -8.5t-38.5 -27
t-26 -47t-9.5 -67.5t9.5 -67.5t26 -47t38.5 -27t46 -8.5z" />
    <glyph glyph-name="p" unicode="p" horiz-adv-x="615" 
d="M60 530h120l15 -60h5q22 26 58 48t92 22q51 0 93 -17.5t72.5 -52.5t47.5 -86.5t17 -118.5q0 -68 -17 -119t-47.5 -86t-72.5 -52.5t-93 -17.5q-30 0 -53.5 6.5t-41.5 16.5t-30.5 21.5t-19.5 20.5h-5v-255h-140v730zM320 115q24 0 46 8.5t38.5 27t26 47t9.5 67.5t-9.5 67.5
t-26 47t-38.5 27t-46 8.5t-46 -8.5t-38.5 -27t-26 -47t-9.5 -67.5t9.5 -67.5t26 -47t38.5 -27t46 -8.5z" />
    <glyph glyph-name="q" unicode="q" horiz-adv-x="615" 
d="M415 55h-5q-8 -9 -20 -20.5t-30 -21.5t-41.5 -16.5t-53.5 -6.5q-51 0 -93 17.5t-72.5 52.5t-47.5 86t-17 119q0 67 17 118.5t47.5 86.5t72.5 52.5t93 17.5q28 0 51 -6t41 -16t32.5 -22.5t25.5 -25.5h5l15 60h120v-730h-140v255zM295 115q24 0 46 8.5t38.5 27t26 47
t9.5 67.5t-9.5 67.5t-26 47t-38.5 27t-46 8.5t-46 -8.5t-38.5 -27t-26 -47t-9.5 -67.5t9.5 -67.5t26 -47t38.5 -27t46 -8.5z" />
    <glyph glyph-name="r" unicode="r" horiz-adv-x="405" 
d="M60 530h120l15 -60h5q23 34 55 47t70 13h65v-135h-55q-64 0 -99.5 -35t-35.5 -95v-265h-140v530z" />
    <glyph glyph-name="s" unicode="s" horiz-adv-x="515" 
d="M255 -10q-58 0 -100 14t-70 38t-43.5 55.5t-21.5 67.5h150q4 -19 25.5 -34.5t59.5 -15.5q52 0 71 12.5t19 27.5q0 20 -22.5 29t-56.5 16t-73.5 15t-73.5 26.5t-56.5 51t-22.5 87.5q0 34 14 63t41 50.5t67 34t93 12.5q56 0 97 -13t68.5 -35.5t43 -52.5t21.5 -64h-150
q-4 15 -21 27.5t-59 12.5q-34 0 -52 -10t-18 -25q0 -20 22.5 -29t56.5 -16t73.5 -15t73.5 -26.5t56.5 -51t22.5 -87.5q0 -32 -11.5 -61.5t-38.5 -52.5t-72.5 -37t-112.5 -14z" />
    <glyph glyph-name="t" unicode="t" horiz-adv-x="410" 
d="M270 0q-83 0 -124 40t-41 115v245h-85v130h85l20 140h120v-140h125v-130h-125v-220q0 -23 13.5 -36.5t36.5 -13.5h75v-130h-100v0z" />
    <glyph glyph-name="u" unicode="u" horiz-adv-x="595" 
d="M255 -10q-43 0 -79 14.5t-61.5 42.5t-40 67.5t-14.5 90.5v325h140v-305q0 -53 25 -81.5t70 -28.5t72.5 30.5t27.5 79.5v305h140v-530h-120l-15 60h-5q-26 -34 -62 -52t-78 -18z" />
    <glyph glyph-name="v" unicode="v" horiz-adv-x="545" 
d="M0 530h150l120 -385h5l120 385h150l-185 -530h-175z" />
    <glyph glyph-name="w" unicode="w" horiz-adv-x="805" 
d="M5 530h145l90 -355h5l90 355h145l90 -355h5l90 355h135l-145 -530h-155l-90 335h-5l-90 -335h-165z" />
    <glyph glyph-name="x" unicode="x" horiz-adv-x="500" 
d="M160 275l-160 255h155l95 -165l95 165h155l-160 -255l170 -275h-155l-105 180l-105 -180h-155z" />
    <glyph glyph-name="y" unicode="y" horiz-adv-x="560" 
d="M211 0l-216 530h155l130 -345h4l126 345h155l-290 -730h-145z" />
    <glyph glyph-name="z" unicode="z" horiz-adv-x="490" 
d="M30 105l245 300h-235v125h415v-105l-245 -300h250v-125h-430v105z" />
    <glyph glyph-name="braceleft" unicode="{" horiz-adv-x="365" 
d="M255 -200q-75 0 -115 40t-40 115v175q0 70 -70 70v130q70 0 70 70v175q0 75 40 115t115 40h85v-130h-45q-30 0 -42.5 -12.5t-12.5 -42.5v-140q0 -38 -7.5 -62t-20.5 -38.5t-29 -21t-33 -8.5v-20q17 -2 33 -8.5t29 -21t20.5 -39t7.5 -61.5v-140q0 -30 12.5 -42.5
t42.5 -12.5h45v-130h-85v0z" />
    <glyph glyph-name="bar" unicode="|" horiz-adv-x="380" 
d="M120 730h140v-930h-140v930z" />
    <glyph glyph-name="braceright" unicode="}" horiz-adv-x="365" 
d="M25 -70h45q30 0 42.5 12.5t12.5 42.5v140q0 37 7.5 61.5t20.5 39t29 21t33 8.5v20q-17 2 -33 8.5t-29 21t-20.5 38.5t-7.5 62v140q0 30 -12.5 42.5t-42.5 12.5h-45v130h85q75 0 115 -40t40 -115v-175q0 -70 70 -70v-130q-70 0 -70 -70v-175q0 -75 -40 -115t-115 -40h-85
v130z" />
    <glyph glyph-name="asciitilde" unicode="~" horiz-adv-x="615" 
d="M405 220q-39 0 -65.5 11.5t-46 26t-36 26t-37.5 11.5q-26 0 -43 -18t-17 -52h-115q0 91 45 138t120 47q39 0 65.5 -11.5t46 -26t36 -26t37.5 -11.5q26 0 43 18t17 52h115q0 -91 -45 -138t-120 -47z" />
    <glyph glyph-name="nonbreakingspace" unicode="&#xa0;" horiz-adv-x="230" 
 />
    <glyph glyph-name="exclamdown" unicode="&#xa1;" horiz-adv-x="290" 
d="M75 -125l15 425h110l15 -425v-75h-140v75zM145 380q-34 0 -57 23t-23 57t23 57t57 23t57 -23t23 -57t-23 -57t-57 -23z" />
    <glyph glyph-name="cent" unicode="&#xa2;" horiz-adv-x="570" 
d="M225 -3q-90 19 -140 87.5t-50 180.5t50 180.5t140 87.5v107h145v-109q37 -9 65.5 -27t49 -42t34 -52.5t21.5 -59.5h-140q-15 30 -39 47.5t-66 17.5q-53 0 -86.5 -37.5t-33.5 -112.5t33.5 -112.5t86.5 -37.5q42 0 66 17.5t39 47.5h140q-16 -62 -56 -112t-114 -69v-109
h-145v107z" />
    <glyph glyph-name="sterling" unicode="&#xa3;" horiz-adv-x="600" 
d="M30 135h25q55 0 55 64v76h-80v130h80v75q0 109 60.5 169.5t169.5 60.5q106 0 161.5 -56t63.5 -154h-155q-8 45 -24 60t-46 15q-38 0 -59 -23.5t-21 -75.5v-71h165v-130h-165v-75q0 -19 -4 -31t-9 -20q-5 -9 -12 -14h340v-135h-545v135z" />
    <glyph glyph-name="currency" unicode="&#xa4;" horiz-adv-x="600" 
d="M45 130l65 65q-17 26 -26 57.5t-9 67.5q0 35 9 67t26 58l-65 65l70 60l60 -60q26 17 57.5 26t67.5 9q35 0 67 -9t58 -26l60 60l70 -60l-65 -65q17 -26 26 -58t9 -67q0 -36 -9 -67.5t-26 -57.5l65 -65l-70 -60l-60 60q-26 -17 -58 -26t-67 -9q-36 0 -67.5 9t-57.5 26
l-60 -60zM300 190q57 0 93.5 36.5t36.5 93.5t-36.5 93.5t-93.5 36.5t-93.5 -36.5t-36.5 -93.5t36.5 -93.5t93.5 -36.5z" />
    <glyph glyph-name="yen" unicode="&#xa5;" horiz-adv-x="610" 
d="M230 100h-165v120h165v50h-165v120h89l-159 310h160l147 -305h5l148 305h160l-160 -310h90v-120h-165v-50h165v-120h-165v-100h-150v100z" />
    <glyph glyph-name="brokenbar" unicode="&#xa6;" horiz-adv-x="380" 
d="M120 180h140v-380h-140v380zM120 730h140v-380h-140v380z" />
    <glyph glyph-name="section" unicode="&#xa7;" horiz-adv-x="620" 
d="M310 -120q-102 0 -168.5 48t-81.5 142h145q11 -38 41.5 -54t68.5 -16q56 0 75.5 18.5t19.5 41.5q0 27 -26.5 39t-66.5 19t-87 14.5t-87 25t-66.5 50.5t-26.5 92q0 42 20 74t50 51q-23 19 -36.5 47.5t-13.5 62.5q0 36 15 67.5t45 55.5t75 38t105 14q106 0 170.5 -48.5
t79.5 -131.5h-145q-11 26 -39.5 43t-70.5 17q-49 0 -69.5 -17t-20.5 -43q0 -28 26.5 -40t66.5 -19t87 -14t87 -24.5t66.5 -50.5t26.5 -92q0 -45 -22.5 -75.5t-52.5 -49.5q23 -19 39 -47.5t16 -62.5q0 -36 -15 -67.5t-45.5 -55.5t-76.5 -38t-108 -14zM400 225
q15 11 22.5 25.5t7.5 29.5q0 28 -20 41t-50.5 19.5t-66.5 10.5t-68 14q-30 -23 -30 -55q0 -28 21 -41.5t51.5 -20t66.5 -10.5t66 -13z" />
    <glyph glyph-name="dieresis" unicode="&#xa8;" horiz-adv-x="400" 
d="M100 615q-30 0 -50 20t-20 50t20 50t50 20t50 -20t20 -50t-20 -50t-50 -20zM300 615q-30 0 -50 20t-20 50t20 50t50 20t50 -20t20 -50t-20 -50t-50 -20z" />
    <glyph glyph-name="copyright" unicode="&#xa9;" horiz-adv-x="820" 
d="M410 -10q-79 0 -145 26.5t-114 74.5t-74.5 114t-26.5 145t26.5 145t74.5 114t114 74.5t145 26.5t145 -26.5t114 -74.5t74.5 -114t26.5 -145t-26.5 -145t-74.5 -114t-114 -74.5t-145 -26.5zM410 80q58 0 106.5 19.5t84 55.5t55 85.5t19.5 109.5t-19.5 109.5t-55 85.5
t-84 55.5t-106.5 19.5t-106.5 -19.5t-84 -55.5t-55 -85.5t-19.5 -109.5t19.5 -109.5t55 -85.5t84 -55.5t106.5 -19.5zM410 160q-83 0 -131.5 49.5t-48.5 140.5t48.5 140.5t131.5 49.5q37 0 65.5 -11t49 -29.5t32.5 -42t18 -47.5h-90q-8 19 -26.5 34.5t-48.5 15.5
q-42 0 -66 -26.5t-24 -83.5t24 -83.5t66 -26.5q30 0 48.5 15.5t26.5 34.5h90q-6 -24 -18 -47.5t-32.5 -42t-49 -29.5t-65.5 -11z" />
    <glyph glyph-name="ordfeminine" unicode="&#xaa;" horiz-adv-x="365" 
d="M145 350q-34 0 -57 11t-37 27.5t-20 35.5t-6 36q0 49 30.5 79.5t94.5 30.5h90v10q0 23 -12.5 36.5t-42.5 13.5q-23 0 -32.5 -7.5t-17.5 -22.5h-95q4 45 40.5 77.5t104.5 32.5t106.5 -35t38.5 -95v-225h-80l-5 40h-5q-11 -15 -32.5 -30t-62.5 -15zM165 430q34 0 54.5 19.5
t20.5 45.5v10h-85q-19 0 -29.5 -10t-10.5 -25q0 -40 50 -40z" />
    <glyph glyph-name="guillemotleft" unicode="&#xab;" horiz-adv-x="695" 
d="M35 270l215 240h155l-215 -237v-6l215 -237h-155zM300 270l215 240h155l-215 -237v-6l215 -237h-155z" />
    <glyph glyph-name="logicalnot" unicode="&#xac;" horiz-adv-x="530" 
d="M380 265h-345v110h455v-225h-110v115z" />
    <glyph glyph-name="uni00AD" unicode="&#xad;" horiz-adv-x="405" 
d="M40 345h325v-125h-325v125z" />
    <glyph glyph-name="registered" unicode="&#xae;" horiz-adv-x="820" 
d="M410 -10q-79 0 -145 26.5t-114 74.5t-74.5 114t-26.5 145t26.5 145t74.5 114t114 74.5t145 26.5t145 -26.5t114 -74.5t74.5 -114t26.5 -145t-26.5 -145t-74.5 -114t-114 -74.5t-145 -26.5zM410 80q58 0 106.5 19.5t84 55.5t55 85.5t19.5 109.5t-19.5 109.5t-55 85.5
t-84 55.5t-106.5 19.5t-106.5 -19.5t-84 -55.5t-55 -85.5t-19.5 -109.5t19.5 -109.5t55 -85.5t84 -55.5t106.5 -19.5zM275 540h160q64 0 99.5 -34t35.5 -91q0 -42 -21.5 -73t-63.5 -42l90 -135h-100l-85 130h-25v-130h-90v375zM430 370q23 0 36.5 11t13.5 34t-13.5 34
t-36.5 11h-65v-90h65z" />
    <glyph glyph-name="macron" unicode="&#xaf;" horiz-adv-x="360" 
d="M30 725h300v-95h-300v95z" />
    <glyph glyph-name="degree" unicode="&#xb0;" horiz-adv-x="400" 
d="M200 415q-34 0 -62.5 11.5t-49 32t-32 49t-11.5 62.5t11.5 62.5t32 49t49 32t62.5 11.5t62.5 -11.5t49 -32t32 -49t11.5 -62.5t-11.5 -62.5t-32 -49t-49 -32t-62.5 -11.5zM200 500q30 0 47.5 18t17.5 52t-17.5 52t-47.5 18t-47.5 -18t-17.5 -52t17.5 -52t47.5 -18z" />
    <glyph glyph-name="plusminus" unicode="&#xb1;" horiz-adv-x="550" 
d="M35 115h480v-110h-480v110zM220 325h-185v110h185v175h110v-175h185v-110h-185v-175h-110v175z" />
    <glyph glyph-name="uni00B2" unicode="&#xb2;" horiz-adv-x="335" 
d="M25 480l145 135q20 19 30 35t10 35q0 15 -11 25t-34 10q-45 0 -45 -40h-95q2 26 11 49t26 40t43.5 26.5t64.5 9.5q64 0 99.5 -33.5t35.5 -86.5q0 -34 -15 -60t-45 -55l-95 -90h150v-80h-275v80z" />
    <glyph glyph-name="uni00B3" unicode="&#xb3;" horiz-adv-x="345" 
d="M170 395q-68 0 -107 31t-43 84h95q4 -15 16.5 -22.5t38.5 -7.5q23 0 36.5 11t13.5 34q0 19 -13.5 29.5t-36.5 10.5h-35v80h35q26 0 35.5 12.5t9.5 27.5t-12 25t-38 10t-36 -10.5t-14 -29.5h-95q4 57 38.5 91t106.5 34t108.5 -32.5t36.5 -77.5q0 -34 -18 -55.5t-37 -29.5
q60 -30 60 -90q0 -23 -8 -45t-25 -40t-45 -29t-67 -11z" />
    <glyph glyph-name="acute" unicode="&#xb4;" horiz-adv-x="280" 
d="M120 760h130l-115 -150h-105z" />
    <glyph glyph-name="uni00B5" unicode="&#xb5;" horiz-adv-x="595" 
d="M60 530h140v-305q0 -53 25 -81.5t70 -28.5t72.5 30.5t27.5 79.5v305h140v-530h-120l-15 60h-5q-19 -34 -50.5 -52t-69.5 -18q-21 0 -36 3.5t-25 8.5q-11 5 -19 13v-195h-135v710z" />
    <glyph glyph-name="paragraph" unicode="&#xb6;" horiz-adv-x="595" 
d="M205 310q-36 0 -67 13.5t-54 39t-36 61.5t-13 81t13 81t36 61.5t54 39t67 13.5h320v-810h-125v680h-70v-680h-125v420z" />
    <glyph glyph-name="periodcentered" unicode="&#xb7;" horiz-adv-x="230" 
d="M115 195q-34 0 -57 23t-23 57t23 57t57 23t57 -23t23 -57t-23 -57t-57 -23z" />
    <glyph glyph-name="cedilla" unicode="&#xb8;" horiz-adv-x="240" 
d="M30 -150h55q30 0 30 25t-29 25h-46v55l20 45h80l-15 -35q34 -4 59.5 -26t25.5 -64q0 -49 -28.5 -77t-81.5 -28h-70v80z" />
    <glyph glyph-name="uni00B9" unicode="&#xb9;" horiz-adv-x="270" 
d="M120 660h-90v85h65q25 0 25 25v30h90v-400h-90v260z" />
    <glyph glyph-name="ordmasculine" unicode="&#xba;" horiz-adv-x="390" 
d="M195 350q-75 0 -120 46.5t-45 133.5t45 133.5t120 46.5t120 -46.5t45 -133.5t-45 -133.5t-120 -46.5zM195 435q30 0 52.5 25t22.5 70t-22.5 70t-52.5 25t-52.5 -25t-22.5 -70t22.5 -70t52.5 -25z" />
    <glyph glyph-name="guillemotright" unicode="&#xbb;" horiz-adv-x="695" 
d="M240 267v6l-215 237h155l215 -240l-215 -240h-155zM505 267v6l-215 237h155l215 -240l-215 -240h-155z" />
    <glyph glyph-name="onequarter" unicode="&#xbc;" horiz-adv-x="775" 
d="M525 700h95l-435 -700h-95zM120 560h-90v85h65q25 0 25 25v30h90v-400h-90v260zM590 85h-180v80l160 235h110v-235h60v-80h-60v-85h-90v85zM590 165v120h-5l-80 -120h85z" />
    <glyph glyph-name="onehalf" unicode="&#xbd;" horiz-adv-x="780" 
d="M525 700h95l-435 -700h-95zM120 560h-90v85h65q25 0 25 25v30h90v-400h-90v260zM455 80l145 135q20 19 30 35t10 35q0 15 -11 25t-34 10q-45 0 -45 -40h-95q2 26 11 49t26 40t43.5 26.5t64.5 9.5q64 0 99.5 -33.5t35.5 -86.5q0 -34 -15 -60t-45 -55l-95 -90h150v-80h-275
v80z" />
    <glyph glyph-name="threequarters" unicode="&#xbe;" horiz-adv-x="850" 
d="M600 700h95l-435 -700h-95zM180 295q-68 0 -107 31t-43 84h95q4 -15 16.5 -22.5t38.5 -7.5q23 0 36.5 11t13.5 34q0 19 -13.5 29.5t-36.5 10.5h-35v80h35q26 0 35.5 12.5t9.5 27.5t-12 25t-38 10t-36 -10.5t-14 -29.5h-95q4 57 38.5 91t106.5 34t108.5 -32.5t36.5 -77.5
q0 -34 -18 -55.5t-37 -29.5q60 -30 60 -90q0 -23 -8 -45t-25 -40t-45 -29t-67 -11zM665 85h-180v80l160 235h110v-235h60v-80h-60v-85h-90v85zM665 165v120h-5l-80 -120h85z" />
    <glyph glyph-name="questiondown" unicode="&#xbf;" horiz-adv-x="520" 
d="M265 -210q-53 0 -95.5 12.5t-72.5 36t-46 57t-16 74.5q0 46 12 76t30.5 50.5t40 35t40 30.5t30.5 37.5t12 55.5v50h135v-50q0 -52 -11.5 -84.5t-28.5 -53.5t-37.5 -33.5t-37.5 -25.5t-28.5 -30.5t-11.5 -47.5q0 -26 20 -45.5t65 -19.5q42 0 64 25t26 55h145
q-4 -98 -66.5 -151.5t-168.5 -53.5zM265 380q-34 0 -57 23t-23 57t23 57t57 23t57 -23t23 -57t-23 -57t-57 -23z" />
    <glyph glyph-name="Agrave" unicode="&#xc0;" horiz-adv-x="675" 
d="M245 700h185l250 -700h-155l-45 130h-285l-45 -130h-155zM431 265l-91 265h-5l-91 -265h187zM170 915h130l90 -150h-105z" />
    <glyph glyph-name="Aacute" unicode="&#xc1;" horiz-adv-x="675" 
d="M245 700h185l250 -700h-155l-45 130h-285l-45 -130h-155zM431 265l-91 265h-5l-91 -265h187zM375 915h130l-115 -150h-105z" />
    <glyph glyph-name="Acircumflex" unicode="&#xc2;" horiz-adv-x="675" 
d="M245 700h185l250 -700h-155l-45 130h-285l-45 -130h-155zM431 265l-91 265h-5l-91 -265h187zM290 920h95l135 -155h-115l-65 80h-5l-65 -80h-115z" />
    <glyph glyph-name="Atilde" unicode="&#xc3;" horiz-adv-x="675" 
d="M245 700h185l250 -700h-155l-45 130h-285l-45 -130h-155zM431 265l-91 265h-5l-91 -265h187zM400 775q-19 0 -34 6t-28.5 13.5t-25 14t-22.5 6.5q-25 0 -25 -35h-95q0 60 29 92.5t71 32.5q19 0 34 -6.5t28.5 -14t25 -13.5t22.5 -6q25 0 25 35h95q0 -60 -29 -92.5
t-71 -32.5z" />
    <glyph glyph-name="Adieresis" unicode="&#xc4;" horiz-adv-x="675" 
d="M245 700h185l250 -700h-155l-45 130h-285l-45 -130h-155zM431 265l-91 265h-5l-91 -265h187zM240 770q-30 0 -50 20t-20 50t20 50t50 20t50 -20t20 -50t-20 -50t-50 -20zM440 770q-30 0 -50 20t-20 50t20 50t50 20t50 -20t20 -50t-20 -50t-50 -20z" />
    <glyph glyph-name="Aring" unicode="&#xc5;" horiz-adv-x="675" 
d="M245 700h185l250 -700h-155l-45 130h-285l-45 -130h-155zM431 265l-91 265h-5l-91 -265h187zM335 735q-49 0 -79.5 30.5t-30.5 79.5t30.5 79.5t79.5 30.5t79.5 -30.5t30.5 -79.5t-30.5 -79.5t-79.5 -30.5zM335 805q40 0 40 40t-40 40t-40 -40t40 -40z" />
    <glyph glyph-name="AE" unicode="&#xc6;" horiz-adv-x="960" 
d="M315 700h590v-135h-320v-149h300v-126h-300v-155h330v-135h-480v140h-235l-70 -140h-165zM435 270v290h-25l-145 -290h170z" />
    <glyph glyph-name="Ccedilla" unicode="&#xc7;" horiz-adv-x="705" 
d="M295 -150h55q30 0 30 25t-29 25h-46v55l16 38q-65 7 -116.5 34t-88.5 72.5t-56.5 108.5t-19.5 142q0 86 23.5 153t66.5 113t104 70t136 24q66 0 116.5 -17t88 -47.5t62.5 -72.5t38 -93h-155q-9 21 -22 38t-30.5 30t-41.5 20t-56 7q-39 0 -72 -14t-57 -42t-37.5 -70.5
t-13.5 -98.5t13.5 -98.5t37.5 -70.5t57 -42t72 -14q32 0 56 7t41.5 20t30.5 30t22 38h155q-12 -48 -35 -88t-56.5 -70t-79 -48.5t-103.5 -22.5l-11 -26q34 -4 59.5 -26t25.5 -64q0 -49 -28.5 -77t-81.5 -28h-70v80z" />
    <glyph glyph-name="Egrave" unicode="&#xc8;" horiz-adv-x="600" 
d="M70 700h475v-135h-325v-150h305v-125h-305v-155h335v-135h-485v700zM150 915h130l90 -150h-105z" />
    <glyph glyph-name="Eacute" unicode="&#xc9;" horiz-adv-x="600" 
d="M70 700h475v-135h-325v-150h305v-125h-305v-155h335v-135h-485v700zM355 915h130l-115 -150h-105z" />
    <glyph glyph-name="Ecircumflex" unicode="&#xca;" horiz-adv-x="600" 
d="M70 700h475v-135h-325v-150h305v-125h-305v-155h335v-135h-485v700zM270 920h95l135 -155h-115l-65 80h-5l-65 -80h-115z" />
    <glyph glyph-name="Edieresis" unicode="&#xcb;" horiz-adv-x="600" 
d="M70 700h475v-135h-325v-150h305v-125h-305v-155h335v-135h-485v700zM215 770q-30 0 -50 20t-20 50t20 50t50 20t50 -20t20 -50t-20 -50t-50 -20zM415 770q-30 0 -50 20t-20 50t20 50t50 20t50 -20t20 -50t-20 -50t-50 -20z" />
    <glyph glyph-name="Igrave" unicode="&#xcc;" horiz-adv-x="290" 
d="M70 700h150v-700h-150v700zM-20 915h130l90 -150h-105z" />
    <glyph glyph-name="Iacute" unicode="&#xcd;" horiz-adv-x="290" 
d="M70 700h150v-700h-150v700zM185 915h130l-115 -150h-105z" />
    <glyph glyph-name="Icircumflex" unicode="&#xce;" horiz-adv-x="290" 
d="M70 700h150v-700h-150v700zM100 920h95l135 -155h-115l-65 80h-5l-65 -80h-115z" />
    <glyph glyph-name="Idieresis" unicode="&#xcf;" horiz-adv-x="290" 
d="M70 700h150v-700h-150v700zM45 770q-30 0 -50 20t-20 50t20 50t50 20t50 -20t20 -50t-20 -50t-50 -20zM245 770q-30 0 -50 20t-20 50t20 50t50 20t50 -20t20 -50t-20 -50t-50 -20z" />
    <glyph glyph-name="Eth" unicode="&#xd0;" horiz-adv-x="715" 
d="M85 290h-75v125h75v285h270q73 0 132 -24t101 -69t64.5 -110t22.5 -147q0 -83 -22.5 -148t-64.5 -110t-101 -68.5t-132 -23.5h-270v290zM350 135q36 0 67.5 13t55.5 40t38 67.5t14 94.5t-14 94.5t-38 67.5t-55.5 40t-67.5 13h-115v-150h155v-125h-155v-155h115z" />
    <glyph glyph-name="Ntilde" unicode="&#xd1;" horiz-adv-x="755" 
d="M70 700h195l265 -480h5v480h150v-700h-195l-265 480h-5v-480h-150v700zM445 775q-19 0 -34 6t-28.5 13.5t-25 14t-22.5 6.5q-25 0 -25 -35h-95q0 60 29 92.5t71 32.5q19 0 34 -6.5t28.5 -14t25 -13.5t22.5 -6q25 0 25 35h95q0 -60 -29 -92.5t-71 -32.5z" />
    <glyph glyph-name="Ograve" unicode="&#xd2;" horiz-adv-x="740" 
d="M370 -10q-75 0 -136 24t-104 70t-66.5 113t-23.5 153t23.5 153t66.5 113t104 70t136 24t136 -24t104 -70t66.5 -113t23.5 -153t-23.5 -153t-66.5 -113t-104 -70t-136 -24zM370 125q39 0 72 14t57 42t37.5 70.5t13.5 98.5t-13.5 98.5t-37.5 70.5t-57 42t-72 14t-72 -14
t-57 -42t-37.5 -70.5t-13.5 -98.5t13.5 -98.5t37.5 -70.5t57 -42t72 -14zM205 915h130l90 -150h-105z" />
    <glyph glyph-name="Oacute" unicode="&#xd3;" horiz-adv-x="740" 
d="M370 -10q-75 0 -136 24t-104 70t-66.5 113t-23.5 153t23.5 153t66.5 113t104 70t136 24t136 -24t104 -70t66.5 -113t23.5 -153t-23.5 -153t-66.5 -113t-104 -70t-136 -24zM370 125q39 0 72 14t57 42t37.5 70.5t13.5 98.5t-13.5 98.5t-37.5 70.5t-57 42t-72 14t-72 -14
t-57 -42t-37.5 -70.5t-13.5 -98.5t13.5 -98.5t37.5 -70.5t57 -42t72 -14zM410 915h130l-115 -150h-105z" />
    <glyph glyph-name="Ocircumflex" unicode="&#xd4;" horiz-adv-x="740" 
d="M370 -10q-75 0 -136 24t-104 70t-66.5 113t-23.5 153t23.5 153t66.5 113t104 70t136 24t136 -24t104 -70t66.5 -113t23.5 -153t-23.5 -153t-66.5 -113t-104 -70t-136 -24zM370 125q39 0 72 14t57 42t37.5 70.5t13.5 98.5t-13.5 98.5t-37.5 70.5t-57 42t-72 14t-72 -14
t-57 -42t-37.5 -70.5t-13.5 -98.5t13.5 -98.5t37.5 -70.5t57 -42t72 -14zM325 920h95l135 -155h-115l-65 80h-5l-65 -80h-115z" />
    <glyph glyph-name="Otilde" unicode="&#xd5;" horiz-adv-x="740" 
d="M370 -10q-75 0 -136 24t-104 70t-66.5 113t-23.5 153t23.5 153t66.5 113t104 70t136 24t136 -24t104 -70t66.5 -113t23.5 -153t-23.5 -153t-66.5 -113t-104 -70t-136 -24zM370 125q39 0 72 14t57 42t37.5 70.5t13.5 98.5t-13.5 98.5t-37.5 70.5t-57 42t-72 14t-72 -14
t-57 -42t-37.5 -70.5t-13.5 -98.5t13.5 -98.5t37.5 -70.5t57 -42t72 -14zM435 775q-19 0 -34 6t-28.5 13.5t-25 14t-22.5 6.5q-25 0 -25 -35h-95q0 60 29 92.5t71 32.5q19 0 34 -6.5t28.5 -14t25 -13.5t22.5 -6q25 0 25 35h95q0 -60 -29 -92.5t-71 -32.5z" />
    <glyph glyph-name="Odieresis" unicode="&#xd6;" horiz-adv-x="740" 
d="M370 -10q-75 0 -136 24t-104 70t-66.5 113t-23.5 153t23.5 153t66.5 113t104 70t136 24t136 -24t104 -70t66.5 -113t23.5 -153t-23.5 -153t-66.5 -113t-104 -70t-136 -24zM370 125q39 0 72 14t57 42t37.5 70.5t13.5 98.5t-13.5 98.5t-37.5 70.5t-57 42t-72 14t-72 -14
t-57 -42t-37.5 -70.5t-13.5 -98.5t13.5 -98.5t37.5 -70.5t57 -42t72 -14zM270 770q-30 0 -50 20t-20 50t20 50t50 20t50 -20t20 -50t-20 -50t-50 -20zM470 770q-30 0 -50 20t-20 50t20 50t50 20t50 -20t20 -50t-20 -50t-50 -20z" />
    <glyph glyph-name="multiply" unicode="&#xd7;" horiz-adv-x="560" 
d="M45 165l160 160l-160 160l75 75l160 -160l160 160l75 -75l-160 -160l160 -160l-75 -75l-160 160l-160 -160z" />
    <glyph glyph-name="Oslash" unicode="&#xd8;" horiz-adv-x="740" 
d="M141 73q-48 46 -74.5 115.5t-26.5 161.5q0 86 23.5 153t66.5 113t104 70t136 24q67 0 125 -20l20 35h135l-55 -95q51 -46 78 -116t27 -164q0 -86 -23.5 -153t-66.5 -113t-104 -70t-136 -24q-35 0 -67.5 5.5t-61.5 15.5l-21 -36h-135zM424 567q-27 8 -54 8q-39 0 -72 -14
t-57 -42t-37.5 -70.5t-13.5 -98.5q0 -87 30 -139zM370 125q39 0 72 14t57 42t37.5 70.5t13.5 98.5q0 45 -8.5 80.5t-24.5 62.5l-206 -359q27 -9 59 -9z" />
    <glyph glyph-name="Ugrave" unicode="&#xd9;" horiz-adv-x="720" 
d="M360 -10q-68 0 -122.5 21t-92.5 61t-59 97.5t-21 130.5v400h150v-400q0 -87 40.5 -131t104.5 -44t104.5 44t40.5 131v400h150v-400q0 -73 -21 -130.5t-59 -97.5t-93 -61t-122 -21zM195 915h130l90 -150h-105z" />
    <glyph glyph-name="Uacute" unicode="&#xda;" horiz-adv-x="720" 
d="M360 -10q-68 0 -122.5 21t-92.5 61t-59 97.5t-21 130.5v400h150v-400q0 -87 40.5 -131t104.5 -44t104.5 44t40.5 131v400h150v-400q0 -73 -21 -130.5t-59 -97.5t-93 -61t-122 -21zM400 915h130l-115 -150h-105z" />
    <glyph glyph-name="Ucircumflex" unicode="&#xdb;" horiz-adv-x="720" 
d="M360 -10q-68 0 -122.5 21t-92.5 61t-59 97.5t-21 130.5v400h150v-400q0 -87 40.5 -131t104.5 -44t104.5 44t40.5 131v400h150v-400q0 -73 -21 -130.5t-59 -97.5t-93 -61t-122 -21zM310 920h95l135 -155h-115l-65 80h-5l-65 -80h-115z" />
    <glyph glyph-name="Udieresis" unicode="&#xdc;" horiz-adv-x="720" 
d="M360 -10q-68 0 -122.5 21t-92.5 61t-59 97.5t-21 130.5v400h150v-400q0 -87 40.5 -131t104.5 -44t104.5 44t40.5 131v400h150v-400q0 -73 -21 -130.5t-59 -97.5t-93 -61t-122 -21zM260 770q-30 0 -50 20t-20 50t20 50t50 20t50 -20t20 -50t-20 -50t-50 -20zM460 770
q-30 0 -50 20t-20 50t20 50t50 20t50 -20t20 -50t-20 -50t-50 -20z" />
    <glyph glyph-name="Yacute" unicode="&#xdd;" horiz-adv-x="610" 
d="M230 240l-245 460h160l157 -305h5l158 305h160l-245 -460v-240h-150v240zM345 915h130l-115 -150h-105z" />
    <glyph glyph-name="Thorn" unicode="&#xde;" horiz-adv-x="715" 
d="M70 700h150v-140h225q117 0 176 -56t59 -154t-59 -154t-176 -56h-225v-140h-150v700zM430 275q53 0 76.5 18.5t23.5 56.5t-23.5 56.5t-76.5 18.5h-210v-150h210z" />
    <glyph glyph-name="germandbls" unicode="&#xdf;" horiz-adv-x="585" 
d="M60 500q0 47 15 85.5t44.5 66.5t73.5 43t102 15q62 0 106.5 -17t73 -45t42 -62.5t13.5 -70.5q0 -53 -27.5 -92t-72.5 -58q28 -8 51 -24t39.5 -38.5t25.5 -50t9 -57.5q0 -94 -60 -144.5t-185 -50.5h-45v125h50q100 0 100 88q0 35 -23.5 58.5t-76.5 23.5h-50v120h25
q45 0 72.5 20t27.5 65q0 38 -25 61.5t-70 23.5t-70 -24t-25 -66v-495h-140v500z" />
    <glyph glyph-name="agrave" unicode="&#xe0;" horiz-adv-x="555" 
d="M215 -10q-43 0 -77.5 12.5t-58.5 34.5t-36.5 52t-12.5 66t13 66t39 52t64 34.5t89 12.5h125v25q0 38 -24 56.5t-66 18.5q-30 0 -51 -13t-29 -32h-140q7 32 24.5 61.5t45 52.5t66 37t89.5 14q106 0 165.5 -51t59.5 -149v-340h-120l-15 60h-5q-8 -11 -20 -23.5t-30 -23
t-41.5 -17t-53.5 -6.5zM250 105q49 0 79.5 27.5t30.5 72.5v15h-120q-38 0 -54 -16t-16 -39q0 -26 19 -43t61 -17zM120 760h130l90 -150h-105z" />
    <glyph glyph-name="aacute" unicode="&#xe1;" horiz-adv-x="555" 
d="M215 -10q-43 0 -77.5 12.5t-58.5 34.5t-36.5 52t-12.5 66t13 66t39 52t64 34.5t89 12.5h125v25q0 38 -24 56.5t-66 18.5q-30 0 -51 -13t-29 -32h-140q7 32 24.5 61.5t45 52.5t66 37t89.5 14q106 0 165.5 -51t59.5 -149v-340h-120l-15 60h-5q-8 -11 -20 -23.5t-30 -23
t-41.5 -17t-53.5 -6.5zM250 105q49 0 79.5 27.5t30.5 72.5v15h-120q-38 0 -54 -16t-16 -39q0 -26 19 -43t61 -17zM325 760h130l-115 -150h-105z" />
    <glyph glyph-name="acircumflex" unicode="&#xe2;" horiz-adv-x="555" 
d="M215 -10q-43 0 -77.5 12.5t-58.5 34.5t-36.5 52t-12.5 66t13 66t39 52t64 34.5t89 12.5h125v25q0 38 -24 56.5t-66 18.5q-30 0 -51 -13t-29 -32h-140q7 32 24.5 61.5t45 52.5t66 37t89.5 14q106 0 165.5 -51t59.5 -149v-340h-120l-15 60h-5q-8 -11 -20 -23.5t-30 -23
t-41.5 -17t-53.5 -6.5zM250 105q49 0 79.5 27.5t30.5 72.5v15h-120q-38 0 -54 -16t-16 -39q0 -26 19 -43t61 -17zM240 765h95l135 -155h-115l-65 80h-5l-65 -80h-115z" />
    <glyph glyph-name="atilde" unicode="&#xe3;" horiz-adv-x="555" 
d="M215 -10q-43 0 -77.5 12.5t-58.5 34.5t-36.5 52t-12.5 66t13 66t39 52t64 34.5t89 12.5h125v25q0 38 -24 56.5t-66 18.5q-30 0 -51 -13t-29 -32h-140q7 32 24.5 61.5t45 52.5t66 37t89.5 14q106 0 165.5 -51t59.5 -149v-340h-120l-15 60h-5q-8 -11 -20 -23.5t-30 -23
t-41.5 -17t-53.5 -6.5zM250 105q49 0 79.5 27.5t30.5 72.5v15h-120q-38 0 -54 -16t-16 -39q0 -26 19 -43t61 -17zM350 620q-19 0 -34 6t-28.5 13.5t-25 14t-22.5 6.5q-25 0 -25 -35h-95q0 60 29 92.5t71 32.5q19 0 34 -6.5t28.5 -14t25 -13.5t22.5 -6q25 0 25 35h95
q0 -60 -29 -92.5t-71 -32.5z" />
    <glyph glyph-name="adieresis" unicode="&#xe4;" horiz-adv-x="555" 
d="M215 -10q-43 0 -77.5 12.5t-58.5 34.5t-36.5 52t-12.5 66t13 66t39 52t64 34.5t89 12.5h125v25q0 38 -24 56.5t-66 18.5q-30 0 -51 -13t-29 -32h-140q7 32 24.5 61.5t45 52.5t66 37t89.5 14q106 0 165.5 -51t59.5 -149v-340h-120l-15 60h-5q-8 -11 -20 -23.5t-30 -23
t-41.5 -17t-53.5 -6.5zM250 105q49 0 79.5 27.5t30.5 72.5v15h-120q-38 0 -54 -16t-16 -39q0 -26 19 -43t61 -17zM185 615q-30 0 -50 20t-20 50t20 50t50 20t50 -20t20 -50t-20 -50t-50 -20zM385 615q-30 0 -50 20t-20 50t20 50t50 20t50 -20t20 -50t-20 -50t-50 -20z" />
    <glyph glyph-name="aring" unicode="&#xe5;" horiz-adv-x="555" 
d="M215 -10q-43 0 -77.5 12.5t-58.5 34.5t-36.5 52t-12.5 66t13 66t39 52t64 34.5t89 12.5h125v25q0 38 -24 56.5t-66 18.5q-30 0 -51 -13t-29 -32h-140q7 32 24.5 61.5t45 52.5t66 37t89.5 14q106 0 165.5 -51t59.5 -149v-340h-120l-15 60h-5q-8 -11 -20 -23.5t-30 -23
t-41.5 -17t-53.5 -6.5zM250 105q49 0 79.5 27.5t30.5 72.5v15h-120q-38 0 -54 -16t-16 -39q0 -26 19 -43t61 -17zM285 590q-49 0 -79.5 30.5t-30.5 79.5t30.5 79.5t79.5 30.5t79.5 -30.5t30.5 -79.5t-30.5 -79.5t-79.5 -30.5zM285 660q40 0 40 40t-40 40t-40 -40t40 -40z
" />
    <glyph glyph-name="ae" unicode="&#xe6;" horiz-adv-x="905" 
d="M220 -10q-47 0 -82.5 13t-59.5 35.5t-36 52.5t-12 64q0 72 53.5 116t151.5 44h125v30q0 34 -22.5 54.5t-67.5 20.5q-34 0 -53 -13t-27 -32h-140q7 32 24 61.5t44 52.5t63.5 37t83.5 14q68 0 110 -25.5t65 -59.5q30 38 73.5 61.5t111.5 23.5q54 0 99.5 -19.5t77.5 -55.5
t50 -85.5t18 -109.5q0 -11 -1 -21t-2 -18q-1 -9 -2 -16h-365q8 -42 35 -71t80 -29q41 0 61 13.5t35 36.5h150q-10 -37 -29.5 -69t-49.5 -55.5t-69 -37t-88 -13.5q-72 0 -120.5 27t-74.5 69q-15 -19 -33.5 -36.5t-43.5 -30.5t-57.5 -21t-75.5 -8zM250 105q53 0 81.5 29
t28.5 71v10h-120q-38 0 -54 -15.5t-16 -34.5q0 -26 19 -43t61 -17zM727 315q-8 45 -37 72.5t-75 27.5q-49 0 -78 -27.5t-37 -72.5h227z" />
    <glyph glyph-name="ccedilla" unicode="&#xe7;" horiz-adv-x="570" 
d="M225 -150h55q30 0 30 25t-29 25h-46v55l16 38q-101 12 -158.5 82t-57.5 190q0 66 18 117t52 86t82 53.5t108 18.5q56 0 98 -15.5t71.5 -42t48 -61t27.5 -71.5h-140q-15 30 -39 47.5t-66 17.5q-53 0 -86.5 -37.5t-33.5 -112.5t33.5 -112.5t86.5 -37.5q42 0 66 17.5
t39 47.5h140q-9 -35 -25 -66.5t-41.5 -57t-60.5 -42.5t-82 -22l-11 -27q34 -4 59.5 -26t25.5 -64q0 -49 -28.5 -77t-81.5 -28h-70v80z" />
    <glyph glyph-name="egrave" unicode="&#xe8;" horiz-adv-x="585" 
d="M295 -10q-60 0 -108 18.5t-82 53.5t-52 86t-18 117t18 117t52 86t82 53.5t108 18.5q58 0 105 -19.5t80.5 -55t51.5 -84t18 -106.5q0 -11 -1 -21t-2 -18q-1 -9 -2 -16h-365q8 -45 35 -75t80 -30q41 0 60.5 13.5t34.5 36.5h150q-9 -34 -27.5 -65.5t-48 -56t-71.5 -39
t-98 -14.5zM405 325q-4 17 -12.5 33t-22 29t-32.5 20.5t-43 7.5q-49 0 -76.5 -26t-38.5 -64h225zM130 760h130l90 -150h-105z" />
    <glyph glyph-name="eacute" unicode="&#xe9;" horiz-adv-x="585" 
d="M295 -10q-60 0 -108 18.5t-82 53.5t-52 86t-18 117t18 117t52 86t82 53.5t108 18.5q58 0 105 -19.5t80.5 -55t51.5 -84t18 -106.5q0 -11 -1 -21t-2 -18q-1 -9 -2 -16h-365q8 -45 35 -75t80 -30q41 0 60.5 13.5t34.5 36.5h150q-9 -34 -27.5 -65.5t-48 -56t-71.5 -39
t-98 -14.5zM405 325q-4 17 -12.5 33t-22 29t-32.5 20.5t-43 7.5q-49 0 -76.5 -26t-38.5 -64h225zM335 760h130l-115 -150h-105z" />
    <glyph glyph-name="ecircumflex" unicode="&#xea;" horiz-adv-x="585" 
d="M295 -10q-60 0 -108 18.5t-82 53.5t-52 86t-18 117t18 117t52 86t82 53.5t108 18.5q58 0 105 -19.5t80.5 -55t51.5 -84t18 -106.5q0 -11 -1 -21t-2 -18q-1 -9 -2 -16h-365q8 -45 35 -75t80 -30q41 0 60.5 13.5t34.5 36.5h150q-9 -34 -27.5 -65.5t-48 -56t-71.5 -39
t-98 -14.5zM405 325q-4 17 -12.5 33t-22 29t-32.5 20.5t-43 7.5q-49 0 -76.5 -26t-38.5 -64h225zM250 765h95l135 -155h-115l-65 80h-5l-65 -80h-115z" />
    <glyph glyph-name="edieresis" unicode="&#xeb;" horiz-adv-x="585" 
d="M295 -10q-60 0 -108 18.5t-82 53.5t-52 86t-18 117t18 117t52 86t82 53.5t108 18.5q58 0 105 -19.5t80.5 -55t51.5 -84t18 -106.5q0 -11 -1 -21t-2 -18q-1 -9 -2 -16h-365q8 -45 35 -75t80 -30q41 0 60.5 13.5t34.5 36.5h150q-9 -34 -27.5 -65.5t-48 -56t-71.5 -39
t-98 -14.5zM405 325q-4 17 -12.5 33t-22 29t-32.5 20.5t-43 7.5q-49 0 -76.5 -26t-38.5 -64h225zM195 615q-30 0 -50 20t-20 50t20 50t50 20t50 -20t20 -50t-20 -50t-50 -20zM395 615q-30 0 -50 20t-20 50t20 50t50 20t50 -20t20 -50t-20 -50t-50 -20z" />
    <glyph glyph-name="igrave" unicode="&#xec;" horiz-adv-x="260" 
d="M60 530h140v-530h-140v530zM-35 760h130l90 -150h-105z" />
    <glyph glyph-name="iacute" unicode="&#xed;" horiz-adv-x="260" 
d="M60 530h140v-530h-140v530zM170 760h130l-115 -150h-105z" />
    <glyph glyph-name="icircumflex" unicode="&#xee;" horiz-adv-x="260" 
d="M60 530h140v-530h-140v530zM85 765h95l135 -155h-115l-65 80h-5l-65 -80h-115z" />
    <glyph glyph-name="idieresis" unicode="&#xef;" horiz-adv-x="260" 
d="M60 530h140v-530h-140v530zM30 615q-30 0 -50 20t-20 50t20 50t50 20t50 -20t20 -50t-20 -50t-50 -20zM230 615q-30 0 -50 20t-20 50t20 50t50 20t50 -20t20 -50t-20 -50t-50 -20z" />
    <glyph glyph-name="eth" unicode="&#xf0;" horiz-adv-x="590" 
d="M285 -10q-58 0 -104.5 18t-78.5 51.5t-49.5 80.5t-17.5 105q0 56 15.5 101.5t45 77.5t72.5 49t97 17q42 0 71 -12t44 -23h5q-11 30 -34 58.5t-46 51.5l-125 -55l-40 75l100 45q-21 17 -42.5 31.5t-40.5 26.5t-34.5 20t-22.5 12h165q15 -8 33 -18t41 -25l96 38l35 -75
l-56 -28q65 -73 100.5 -155.5t35.5 -191.5q0 -66 -18 -117t-52.5 -86t-83.5 -53.5t-111 -18.5zM290 115q53 0 84 34t31 91t-31 91t-84 34t-84 -34t-31 -91t31 -91t84 -34z" />
    <glyph glyph-name="ntilde" unicode="&#xf1;" horiz-adv-x="590" 
d="M60 530h120l15 -60h5q26 34 62 52t78 18q43 0 79 -14.5t61.5 -42.5t40 -67.5t14.5 -90.5v-325h-140v305q0 53 -25 81.5t-70 28.5t-72.5 -30.5t-27.5 -79.5v-305h-140v530zM360 620q-19 0 -34 6t-28.5 13.5t-25 14t-22.5 6.5q-25 0 -25 -35h-95q0 60 29 92.5t71 32.5
q19 0 34 -6.5t28.5 -14t25 -13.5t22.5 -6q25 0 25 35h95q0 -60 -29 -92.5t-71 -32.5z" />
    <glyph glyph-name="ograve" unicode="&#xf2;" horiz-adv-x="590" 
d="M295 -10q-60 0 -108 18.5t-82 53.5t-52 86t-18 117t18 117t52 86t82 53.5t108 18.5t108 -18.5t82 -53.5t52 -86t18 -117t-18 -117t-52 -86t-82 -53.5t-108 -18.5zM295 115q24 0 46 8.5t38.5 27t26 47t9.5 67.5t-9.5 67.5t-26 47t-38.5 27t-46 8.5t-46 -8.5t-38.5 -27
t-26 -47t-9.5 -67.5t9.5 -67.5t26 -47t38.5 -27t46 -8.5zM130 760h130l90 -150h-105z" />
    <glyph glyph-name="oacute" unicode="&#xf3;" horiz-adv-x="590" 
d="M295 -10q-60 0 -108 18.5t-82 53.5t-52 86t-18 117t18 117t52 86t82 53.5t108 18.5t108 -18.5t82 -53.5t52 -86t18 -117t-18 -117t-52 -86t-82 -53.5t-108 -18.5zM295 115q24 0 46 8.5t38.5 27t26 47t9.5 67.5t-9.5 67.5t-26 47t-38.5 27t-46 8.5t-46 -8.5t-38.5 -27
t-26 -47t-9.5 -67.5t9.5 -67.5t26 -47t38.5 -27t46 -8.5zM335 760h130l-115 -150h-105z" />
    <glyph glyph-name="ocircumflex" unicode="&#xf4;" horiz-adv-x="590" 
d="M295 -10q-60 0 -108 18.5t-82 53.5t-52 86t-18 117t18 117t52 86t82 53.5t108 18.5t108 -18.5t82 -53.5t52 -86t18 -117t-18 -117t-52 -86t-82 -53.5t-108 -18.5zM295 115q24 0 46 8.5t38.5 27t26 47t9.5 67.5t-9.5 67.5t-26 47t-38.5 27t-46 8.5t-46 -8.5t-38.5 -27
t-26 -47t-9.5 -67.5t9.5 -67.5t26 -47t38.5 -27t46 -8.5zM250 765h95l135 -155h-115l-65 80h-5l-65 -80h-115z" />
    <glyph glyph-name="otilde" unicode="&#xf5;" horiz-adv-x="590" 
d="M295 -10q-60 0 -108 18.5t-82 53.5t-52 86t-18 117t18 117t52 86t82 53.5t108 18.5t108 -18.5t82 -53.5t52 -86t18 -117t-18 -117t-52 -86t-82 -53.5t-108 -18.5zM295 115q24 0 46 8.5t38.5 27t26 47t9.5 67.5t-9.5 67.5t-26 47t-38.5 27t-46 8.5t-46 -8.5t-38.5 -27
t-26 -47t-9.5 -67.5t9.5 -67.5t26 -47t38.5 -27t46 -8.5zM360 620q-19 0 -34 6t-28.5 13.5t-25 14t-22.5 6.5q-25 0 -25 -35h-95q0 60 29 92.5t71 32.5q19 0 34 -6.5t28.5 -14t25 -13.5t22.5 -6q25 0 25 35h95q0 -60 -29 -92.5t-71 -32.5z" />
    <glyph glyph-name="odieresis" unicode="&#xf6;" horiz-adv-x="590" 
d="M295 -10q-60 0 -108 18.5t-82 53.5t-52 86t-18 117t18 117t52 86t82 53.5t108 18.5t108 -18.5t82 -53.5t52 -86t18 -117t-18 -117t-52 -86t-82 -53.5t-108 -18.5zM295 115q24 0 46 8.5t38.5 27t26 47t9.5 67.5t-9.5 67.5t-26 47t-38.5 27t-46 8.5t-46 -8.5t-38.5 -27
t-26 -47t-9.5 -67.5t9.5 -67.5t26 -47t38.5 -27t46 -8.5zM195 615q-30 0 -50 20t-20 50t20 50t50 20t50 -20t20 -50t-20 -50t-50 -20zM395 615q-30 0 -50 20t-20 50t20 50t50 20t50 -20t20 -50t-20 -50t-50 -20z" />
    <glyph glyph-name="divide" unicode="&#xf7;" horiz-adv-x="530" 
d="M265 40q-30 0 -50 20.5t-20 54.5t20 54.5t50 20.5t50 -20.5t20 -54.5t-20 -54.5t-50 -20.5zM35 365h460v-110h-460v110zM265 430q-30 0 -50 20.5t-20 54.5t20 54.5t50 20.5t50 -20.5t20 -54.5t-20 -54.5t-50 -20.5z" />
    <glyph glyph-name="oslash" unicode="&#xf8;" horiz-adv-x="590" 
d="M106 61q-35 35 -53 86.5t-18 117.5t18 117t52 86t82 53.5t108 18.5q55 0 103 -17l17 27h120l-51 -81q34 -35 52.5 -86.5t18.5 -117.5t-18 -117t-52 -86t-82 -53.5t-108 -18.5q-29 0 -54.5 4t-48.5 12l-17 -26h-120zM327 411q-13 4 -32 4q-24 0 -46 -8.5t-38.5 -27
t-26 -47t-9.5 -67.5q0 -45 12 -76zM295 115q24 0 46 8.5t38.5 27t26 47t9.5 67.5q0 44 -12 76l-140 -222q13 -4 32 -4z" />
    <glyph glyph-name="ugrave" unicode="&#xf9;" horiz-adv-x="595" 
d="M255 -10q-43 0 -79 14.5t-61.5 42.5t-40 67.5t-14.5 90.5v325h140v-305q0 -53 25 -81.5t70 -28.5t72.5 30.5t27.5 79.5v305h140v-530h-120l-15 60h-5q-26 -34 -62 -52t-78 -18zM135 760h130l90 -150h-105z" />
    <glyph glyph-name="uacute" unicode="&#xfa;" horiz-adv-x="595" 
d="M255 -10q-43 0 -79 14.5t-61.5 42.5t-40 67.5t-14.5 90.5v325h140v-305q0 -53 25 -81.5t70 -28.5t72.5 30.5t27.5 79.5v305h140v-530h-120l-15 60h-5q-26 -34 -62 -52t-78 -18zM340 760h130l-115 -150h-105z" />
    <glyph glyph-name="ucircumflex" unicode="&#xfb;" horiz-adv-x="595" 
d="M255 -10q-43 0 -79 14.5t-61.5 42.5t-40 67.5t-14.5 90.5v325h140v-305q0 -53 25 -81.5t70 -28.5t72.5 30.5t27.5 79.5v305h140v-530h-120l-15 60h-5q-26 -34 -62 -52t-78 -18zM250 765h95l135 -155h-115l-65 80h-5l-65 -80h-115z" />
    <glyph glyph-name="udieresis" unicode="&#xfc;" horiz-adv-x="595" 
d="M255 -10q-43 0 -79 14.5t-61.5 42.5t-40 67.5t-14.5 90.5v325h140v-305q0 -53 25 -81.5t70 -28.5t72.5 30.5t27.5 79.5v305h140v-530h-120l-15 60h-5q-26 -34 -62 -52t-78 -18zM200 615q-30 0 -50 20t-20 50t20 50t50 20t50 -20t20 -50t-20 -50t-50 -20zM400 615
q-30 0 -50 20t-20 50t20 50t50 20t50 -20t20 -50t-20 -50t-50 -20z" />
    <glyph glyph-name="yacute" unicode="&#xfd;" horiz-adv-x="560" 
d="M211 0l-216 530h155l130 -345h4l126 345h155l-290 -730h-145zM320 760h130l-115 -150h-105z" />
    <glyph glyph-name="thorn" unicode="&#xfe;" horiz-adv-x="620" 
d="M65 700h140v-225h5q7 9 19.5 20.5t30.5 21.5t41.5 16.5t53.5 6.5q51 0 93 -17.5t72.5 -52.5t47.5 -86.5t17 -118.5q0 -68 -17 -119t-47.5 -86t-72.5 -52.5t-93 -17.5q-30 0 -53.5 6.5t-41.5 16.5t-30.5 21.5t-19.5 20.5h-5v-255h-140v900zM325 115q24 0 46 8.5t38.5 27
t26 47t9.5 67.5t-9.5 67.5t-26 47t-38.5 27t-46 8.5t-46 -8.5t-38.5 -27t-26 -47t-9.5 -67.5t9.5 -67.5t26 -47t38.5 -27t46 -8.5z" />
    <glyph glyph-name="ydieresis" unicode="&#xff;" horiz-adv-x="560" 
d="M211 0l-216 530h155l130 -345h4l126 345h155l-290 -730h-145zM180 615q-30 0 -50 20t-20 50t20 50t50 20t50 -20t20 -50t-20 -50t-50 -20zM380 615q-30 0 -50 20t-20 50t20 50t50 20t50 -20t20 -50t-20 -50t-50 -20z" />
    <glyph glyph-name="Amacron" unicode="&#x100;" horiz-adv-x="675" 
d="M245 700h185l250 -700h-155l-45 130h-285l-45 -130h-155zM431 265l-91 265h-5l-91 -265h187zM185 885h300v-95h-300v95z" />
    <glyph glyph-name="amacron" unicode="&#x101;" horiz-adv-x="555" 
d="M215 -10q-43 0 -77.5 12.5t-58.5 34.5t-36.5 52t-12.5 66t13 66t39 52t64 34.5t89 12.5h125v25q0 38 -24 56.5t-66 18.5q-30 0 -51 -13t-29 -32h-140q7 32 24.5 61.5t45 52.5t66 37t89.5 14q106 0 165.5 -51t59.5 -149v-340h-120l-15 60h-5q-8 -11 -20 -23.5t-30 -23
t-41.5 -17t-53.5 -6.5zM250 105q49 0 79.5 27.5t30.5 72.5v15h-120q-38 0 -54 -16t-16 -39q0 -26 19 -43t61 -17zM135 725h300v-95h-300v95z" />
    <glyph glyph-name="Abreve" unicode="&#x102;" horiz-adv-x="675" 
d="M245 700h185l250 -700h-155l-45 130h-285l-45 -130h-155zM431 265l-91 265h-5l-91 -265h187zM335 765q-32 0 -61 8.5t-52 27t-38 47t-19 67.5h100q4 -30 22 -45t48 -15q62 0 70 60h100q-4 -39 -19 -67.5t-38 -47t-52 -27t-61 -8.5z" />
    <glyph glyph-name="abreve" unicode="&#x103;" horiz-adv-x="555" 
d="M215 -10q-43 0 -77.5 12.5t-58.5 34.5t-36.5 52t-12.5 66t13 66t39 52t64 34.5t89 12.5h125v25q0 38 -24 56.5t-66 18.5q-30 0 -51 -13t-29 -32h-140q7 32 24.5 61.5t45 52.5t66 37t89.5 14q106 0 165.5 -51t59.5 -149v-340h-120l-15 60h-5q-8 -11 -20 -23.5t-30 -23
t-41.5 -17t-53.5 -6.5zM250 105q49 0 79.5 27.5t30.5 72.5v15h-120q-38 0 -54 -16t-16 -39q0 -26 19 -43t61 -17zM285 610q-32 0 -61 8.5t-52 27t-38 47t-19 67.5h100q4 -30 22 -45t48 -15q62 0 70 60h100q-4 -39 -19 -67.5t-38 -47t-52 -27t-61 -8.5z" />
    <glyph glyph-name="Aogonek" unicode="&#x104;" horiz-adv-x="675" 
d="M585 -210q-72 0 -103.5 28t-31.5 77q0 22 7 39.5t17.5 30t24 21t26.5 14.5l-45 130h-285l-45 -130h-155l250 700h185l250 -700h-70q-34 -19 -47 -39t-13 -46q0 -19 12.5 -29.5t42.5 -10.5h25v-85h-45zM431 265l-91 265h-5l-91 -265h187z" />
    <glyph glyph-name="aogonek" unicode="&#x105;" horiz-adv-x="555" 
d="M475 -210q-72 0 -103.5 28t-31.5 77q0 22 7 39.5t17.5 30t24 21t26.5 14.5h-35l-15 60h-5q-8 -11 -20 -23.5t-30 -23t-41.5 -17t-53.5 -6.5q-43 0 -77.5 12.5t-58.5 34.5t-36.5 52t-12.5 66t13 66t39 52t64 34.5t89 12.5h125v25q0 38 -24 56.5t-66 18.5q-30 0 -51 -13
t-29 -32h-140q7 32 24.5 61.5t45 52.5t66 37t89.5 14q106 0 165.5 -51t59.5 -149v-340q-34 -19 -47 -39t-13 -46q0 -19 12.5 -29.5t42.5 -10.5h25v-85h-45zM250 105q49 0 79.5 27.5t30.5 72.5v15h-120q-38 0 -54 -16t-16 -39q0 -26 19 -43t61 -17z" />
    <glyph glyph-name="Cacute" unicode="&#x106;" horiz-adv-x="705" 
d="M370 -10q-75 0 -136 24t-104 70t-66.5 113t-23.5 153t23.5 153t66.5 113t104 70t136 24q66 0 116.5 -17t88 -47.5t62.5 -72.5t38 -93h-155q-9 21 -22 38t-30.5 30t-41.5 20t-56 7q-39 0 -72 -14t-57 -42t-37.5 -70.5t-13.5 -98.5t13.5 -98.5t37.5 -70.5t57 -42t72 -14
q32 0 56 7t41.5 20t30.5 30t22 38h155q-13 -51 -38 -93t-62.5 -72.5t-88 -47.5t-116.5 -17zM410 915h130l-115 -150h-105z" />
    <glyph glyph-name="cacute" unicode="&#x107;" horiz-adv-x="570" 
d="M295 -10q-60 0 -108 18.5t-82 53.5t-52 86t-18 117t18 117t52 86t82 53.5t108 18.5q56 0 98 -15.5t71.5 -42t48 -61t27.5 -71.5h-140q-15 30 -39 47.5t-66 17.5q-53 0 -86.5 -37.5t-33.5 -112.5t33.5 -112.5t86.5 -37.5q42 0 66 17.5t39 47.5h140q-9 -38 -27.5 -72
t-48 -60.5t-71.5 -42t-98 -15.5zM335 760h130l-115 -150h-105z" />
    <glyph glyph-name="Ccircumflex" unicode="&#x108;" horiz-adv-x="705" 
d="M370 -10q-75 0 -136 24t-104 70t-66.5 113t-23.5 153t23.5 153t66.5 113t104 70t136 24q66 0 116.5 -17t88 -47.5t62.5 -72.5t38 -93h-155q-9 21 -22 38t-30.5 30t-41.5 20t-56 7q-39 0 -72 -14t-57 -42t-37.5 -70.5t-13.5 -98.5t13.5 -98.5t37.5 -70.5t57 -42t72 -14
q32 0 56 7t41.5 20t30.5 30t22 38h155q-13 -51 -38 -93t-62.5 -72.5t-88 -47.5t-116.5 -17zM325 920h95l135 -155h-115l-65 80h-5l-65 -80h-115z" />
    <glyph glyph-name="ccircumflex" unicode="&#x109;" horiz-adv-x="570" 
d="M295 -10q-60 0 -108 18.5t-82 53.5t-52 86t-18 117t18 117t52 86t82 53.5t108 18.5q56 0 98 -15.5t71.5 -42t48 -61t27.5 -71.5h-140q-15 30 -39 47.5t-66 17.5q-53 0 -86.5 -37.5t-33.5 -112.5t33.5 -112.5t86.5 -37.5q42 0 66 17.5t39 47.5h140q-9 -38 -27.5 -72
t-48 -60.5t-71.5 -42t-98 -15.5zM250 765h95l135 -155h-115l-65 80h-5l-65 -80h-115z" />
    <glyph glyph-name="Cdotaccent" unicode="&#x10a;" horiz-adv-x="705" 
d="M370 -10q-75 0 -136 24t-104 70t-66.5 113t-23.5 153t23.5 153t66.5 113t104 70t136 24q66 0 116.5 -17t88 -47.5t62.5 -72.5t38 -93h-155q-9 21 -22 38t-30.5 30t-41.5 20t-56 7q-39 0 -72 -14t-57 -42t-37.5 -70.5t-13.5 -98.5t13.5 -98.5t37.5 -70.5t57 -42t72 -14
q32 0 56 7t41.5 20t30.5 30t22 38h155q-13 -51 -38 -93t-62.5 -72.5t-88 -47.5t-116.5 -17zM370 770q-30 0 -50 20t-20 50t20 50t50 20t50 -20t20 -50t-20 -50t-50 -20z" />
    <glyph glyph-name="cdotaccent" unicode="&#x10b;" horiz-adv-x="570" 
d="M295 -10q-60 0 -108 18.5t-82 53.5t-52 86t-18 117t18 117t52 86t82 53.5t108 18.5q56 0 98 -15.5t71.5 -42t48 -61t27.5 -71.5h-140q-15 30 -39 47.5t-66 17.5q-53 0 -86.5 -37.5t-33.5 -112.5t33.5 -112.5t86.5 -37.5q42 0 66 17.5t39 47.5h140q-9 -38 -27.5 -72
t-48 -60.5t-71.5 -42t-98 -15.5zM295 615q-30 0 -50 20t-20 50t20 50t50 20t50 -20t20 -50t-20 -50t-50 -20z" />
    <glyph glyph-name="Ccaron" unicode="&#x10c;" horiz-adv-x="705" 
d="M370 -10q-75 0 -136 24t-104 70t-66.5 113t-23.5 153t23.5 153t66.5 113t104 70t136 24q66 0 116.5 -17t88 -47.5t62.5 -72.5t38 -93h-155q-9 21 -22 38t-30.5 30t-41.5 20t-56 7q-39 0 -72 -14t-57 -42t-37.5 -70.5t-13.5 -98.5t13.5 -98.5t37.5 -70.5t57 -42t72 -14
q32 0 56 7t41.5 20t30.5 30t22 38h155q-13 -51 -38 -93t-62.5 -72.5t-88 -47.5t-116.5 -17zM190 920h115l65 -80h5l65 80h115l-135 -155h-95z" />
    <glyph glyph-name="ccaron" unicode="&#x10d;" horiz-adv-x="570" 
d="M295 -10q-60 0 -108 18.5t-82 53.5t-52 86t-18 117t18 117t52 86t82 53.5t108 18.5q56 0 98 -15.5t71.5 -42t48 -61t27.5 -71.5h-140q-15 30 -39 47.5t-66 17.5q-53 0 -86.5 -37.5t-33.5 -112.5t33.5 -112.5t86.5 -37.5q42 0 66 17.5t39 47.5h140q-9 -38 -27.5 -72
t-48 -60.5t-71.5 -42t-98 -15.5zM115 760h115l65 -80h5l65 80h115l-135 -155h-95z" />
    <glyph glyph-name="Dcaron" unicode="&#x10e;" horiz-adv-x="700" 
d="M70 700h270q73 0 132 -24t101 -69t64.5 -110t22.5 -147q0 -83 -22.5 -148t-64.5 -110t-101 -68.5t-132 -23.5h-270v700zM335 135q36 0 67.5 13t55.5 40t38 67.5t14 94.5t-14 94.5t-38 67.5t-55.5 40t-67.5 13h-115v-430h115zM165 920h115l65 -80h5l65 80h115l-135 -155
h-95z" />
    <glyph glyph-name="dcaron" unicode="&#x10f;" horiz-adv-x="720" 
d="M265 -10q-51 0 -93 17.5t-72.5 52.5t-47.5 86t-17 119q0 67 17 118.5t47.5 86.5t72.5 52.5t93 17.5q30 0 53.5 -6.5t41.5 -16.5t30 -21.5t20 -20.5h5v225h140v-700h-120l-15 60h-5q-11 -13 -25.5 -25.5t-32.5 -22.5t-41 -16t-51 -6zM295 115q24 0 46 8.5t38.5 27t26 47
t9.5 67.5t-9.5 67.5t-26 47t-38.5 27t-46 8.5t-46 -8.5t-38.5 -27t-26 -47t-9.5 -67.5t9.5 -67.5t26 -47t38.5 -27t46 -8.5z" />
    <glyph glyph-name="Dcroat" unicode="&#x110;" horiz-adv-x="715" 
d="M85 290h-75v125h75v285h270q73 0 132 -24t101 -69t64.5 -110t22.5 -147q0 -83 -22.5 -148t-64.5 -110t-101 -68.5t-132 -23.5h-270v290zM350 135q36 0 67.5 13t55.5 40t38 67.5t14 94.5t-14 94.5t-38 67.5t-55.5 40t-67.5 13h-115v-150h155v-125h-155v-155h115z" />
    <glyph glyph-name="dcroat" unicode="&#x111;" horiz-adv-x="615" 
d="M260 -10q-51 0 -92.5 16.5t-71 48.5t-45.5 78.5t-16 106.5t16 106.5t45.5 78.5t71 48.5t92.5 16.5q28 0 51.5 -7.5t41 -17.5t29.5 -21.5t18 -18.5h5v100h-125v110h125v65h140v-65h75v-110h-75v-525h-120l-15 60h-5q-26 -30 -61 -50t-84 -20zM290 115q53 0 84 34t31 91
t-31 91t-84 34t-84 -34t-31 -91t31 -91t84 -34z" />
    <glyph glyph-name="Emacron" unicode="&#x112;" horiz-adv-x="600" 
d="M70 700h475v-135h-325v-150h305v-125h-305v-155h335v-135h-485v700zM165 885h300v-95h-300v95z" />
    <glyph glyph-name="emacron" unicode="&#x113;" horiz-adv-x="585" 
d="M295 -10q-60 0 -108 18.5t-82 53.5t-52 86t-18 117t18 117t52 86t82 53.5t108 18.5q58 0 105 -19.5t80.5 -55t51.5 -84t18 -106.5q0 -11 -1 -21t-2 -18q-1 -9 -2 -16h-365q8 -45 35 -75t80 -30q41 0 60.5 13.5t34.5 36.5h150q-9 -34 -27.5 -65.5t-48 -56t-71.5 -39
t-98 -14.5zM405 325q-4 17 -12.5 33t-22 29t-32.5 20.5t-43 7.5q-49 0 -76.5 -26t-38.5 -64h225zM145 725h300v-95h-300v95z" />
    <glyph glyph-name="Ebreve" unicode="&#x114;" horiz-adv-x="600" 
d="M70 700h475v-135h-325v-150h305v-125h-305v-155h335v-135h-485v700zM315 765q-32 0 -61 8.5t-52 27t-38 47t-19 67.5h100q4 -30 22 -45t48 -15q62 0 70 60h100q-4 -39 -19 -67.5t-38 -47t-52 -27t-61 -8.5z" />
    <glyph glyph-name="ebreve" unicode="&#x115;" horiz-adv-x="585" 
d="M295 -10q-60 0 -108 18.5t-82 53.5t-52 86t-18 117t18 117t52 86t82 53.5t108 18.5q58 0 105 -19.5t80.5 -55t51.5 -84t18 -106.5q0 -11 -1 -21t-2 -18q-1 -9 -2 -16h-365q8 -45 35 -75t80 -30q41 0 60.5 13.5t34.5 36.5h150q-9 -34 -27.5 -65.5t-48 -56t-71.5 -39
t-98 -14.5zM405 325q-4 17 -12.5 33t-22 29t-32.5 20.5t-43 7.5q-49 0 -76.5 -26t-38.5 -64h225zM295 610q-32 0 -61 8.5t-52 27t-38 47t-19 67.5h100q4 -30 22 -45t48 -15q62 0 70 60h100q-4 -39 -19 -67.5t-38 -47t-52 -27t-61 -8.5z" />
    <glyph glyph-name="Edotaccent" unicode="&#x116;" horiz-adv-x="600" 
d="M70 700h475v-135h-325v-150h305v-125h-305v-155h335v-135h-485v700zM315 770q-30 0 -50 20t-20 50t20 50t50 20t50 -20t20 -50t-20 -50t-50 -20z" />
    <glyph glyph-name="edotaccent" unicode="&#x117;" horiz-adv-x="585" 
d="M295 -10q-60 0 -108 18.5t-82 53.5t-52 86t-18 117t18 117t52 86t82 53.5t108 18.5q58 0 105 -19.5t80.5 -55t51.5 -84t18 -106.5q0 -11 -1 -21t-2 -18q-1 -9 -2 -16h-365q8 -45 35 -75t80 -30q41 0 60.5 13.5t34.5 36.5h150q-9 -34 -27.5 -65.5t-48 -56t-71.5 -39
t-98 -14.5zM405 325q-4 17 -12.5 33t-22 29t-32.5 20.5t-43 7.5q-49 0 -76.5 -26t-38.5 -64h225zM295 615q-30 0 -50 20t-20 50t20 50t50 20t50 -20t20 -50t-20 -50t-50 -20z" />
    <glyph glyph-name="Eogonek" unicode="&#x118;" horiz-adv-x="600" 
d="M530 -210q-72 0 -103.5 28t-31.5 77q0 22 7 39.5t17.5 30t24 21t26.5 14.5h-400v700h475v-135h-325v-150h305v-125h-305v-155h335v-135q-34 -19 -47 -39t-13 -46q0 -19 12.5 -29.5t42.5 -10.5h25v-85h-45v0z" />
    <glyph glyph-name="eogonek" unicode="&#x119;" horiz-adv-x="585" 
d="M335 -210q-72 0 -103.5 28t-31.5 77q0 38 17 61t40 36q-104 11 -163 81.5t-59 191.5q0 66 18 117t52 86t82 53.5t108 18.5q58 0 105 -19.5t80.5 -55t51.5 -84t18 -106.5q0 -11 -1 -21t-2 -18q-1 -9 -2 -16h-365q8 -45 35 -75t80 -30q41 0 60.5 13.5t34.5 36.5h150
q-8 -30 -23 -57.5t-38.5 -50.5t-55.5 -39.5t-75 -23.5q-26 -17 -37 -35.5t-11 -43.5q0 -19 12.5 -29.5t42.5 -10.5h25v-85h-45zM405 325q-4 17 -12.5 33t-22 29t-32.5 20.5t-43 7.5q-49 0 -76.5 -26t-38.5 -64h225z" />
    <glyph glyph-name="Ecaron" unicode="&#x11a;" horiz-adv-x="600" 
d="M70 700h475v-135h-325v-150h305v-125h-305v-155h335v-135h-485v700zM135 920h115l65 -80h5l65 80h115l-135 -155h-95z" />
    <glyph glyph-name="ecaron" unicode="&#x11b;" horiz-adv-x="585" 
d="M295 -10q-60 0 -108 18.5t-82 53.5t-52 86t-18 117t18 117t52 86t82 53.5t108 18.5q58 0 105 -19.5t80.5 -55t51.5 -84t18 -106.5q0 -11 -1 -21t-2 -18q-1 -9 -2 -16h-365q8 -45 35 -75t80 -30q41 0 60.5 13.5t34.5 36.5h150q-9 -34 -27.5 -65.5t-48 -56t-71.5 -39
t-98 -14.5zM405 325q-4 17 -12.5 33t-22 29t-32.5 20.5t-43 7.5q-49 0 -76.5 -26t-38.5 -64h225zM115 760h115l65 -80h5l65 80h115l-135 -155h-95z" />
    <glyph glyph-name="Gcircumflex" unicode="&#x11c;" horiz-adv-x="725" 
d="M370 -10q-75 0 -136 24t-104 70t-66.5 113t-23.5 153t23.5 153t66.5 113t104 70t136 24q66 0 116.5 -17t88 -47.5t62.5 -72.5t38 -93h-155q-9 21 -22 38t-30.5 30t-41.5 20t-56 7q-39 0 -72 -14t-57 -42t-37.5 -70.5t-13.5 -98.5t13.5 -98.5t37.5 -70.5t57 -42t72 -14
t67 11t46.5 29.5t29.5 42t17 47.5h-175v120h330v-55q0 -75 -21 -136t-61.5 -104t-99 -66.5t-133.5 -23.5zM325 920h95l135 -155h-115l-65 80h-5l-65 -80h-115z" />
    <glyph glyph-name="gcircumflex" unicode="&#x11d;" horiz-adv-x="605" 
d="M295 -200q-60 0 -103 14t-72.5 38.5t-47.5 57t-27 70.5h145q8 -26 35.5 -40.5t69.5 -14.5q53 0 81.5 25t28.5 70v75h-5q-8 -9 -20.5 -20.5t-30.5 -21.5t-40.5 -16.5t-48.5 -6.5q-51 0 -92.5 16.5t-71 49t-45.5 80t-16 109.5t16 109.5t45.5 80t71 49t92.5 16.5
q49 0 85.5 -22t59.5 -48h5l15 60h120v-510q0 -106 -61 -163t-189 -57zM290 155q53 0 84 35t31 95t-31 95t-84 35t-84 -35t-31 -95t31 -95t84 -35zM260 765h95l135 -155h-115l-65 80h-5l-65 -80h-115z" />
    <glyph glyph-name="Gbreve" unicode="&#x11e;" horiz-adv-x="725" 
d="M370 -10q-75 0 -136 24t-104 70t-66.5 113t-23.5 153t23.5 153t66.5 113t104 70t136 24q66 0 116.5 -17t88 -47.5t62.5 -72.5t38 -93h-155q-9 21 -22 38t-30.5 30t-41.5 20t-56 7q-39 0 -72 -14t-57 -42t-37.5 -70.5t-13.5 -98.5t13.5 -98.5t37.5 -70.5t57 -42t72 -14
t67 11t46.5 29.5t29.5 42t17 47.5h-175v120h330v-55q0 -75 -21 -136t-61.5 -104t-99 -66.5t-133.5 -23.5zM370 765q-32 0 -61 8.5t-52 27t-38 47t-19 67.5h100q4 -30 22 -45t48 -15q62 0 70 60h100q-4 -39 -19 -67.5t-38 -47t-52 -27t-61 -8.5z" />
    <glyph glyph-name="gbreve" unicode="&#x11f;" horiz-adv-x="605" 
d="M295 -200q-60 0 -103 14t-72.5 38.5t-47.5 57t-27 70.5h145q8 -26 35.5 -40.5t69.5 -14.5q53 0 81.5 25t28.5 70v75h-5q-8 -9 -20.5 -20.5t-30.5 -21.5t-40.5 -16.5t-48.5 -6.5q-51 0 -92.5 16.5t-71 49t-45.5 80t-16 109.5t16 109.5t45.5 80t71 49t92.5 16.5
q49 0 85.5 -22t59.5 -48h5l15 60h120v-510q0 -106 -61 -163t-189 -57zM290 155q53 0 84 35t31 95t-31 95t-84 35t-84 -35t-31 -95t31 -95t84 -35zM305 610q-32 0 -61 8.5t-52 27t-38 47t-19 67.5h100q4 -30 22 -45t48 -15q62 0 70 60h100q-4 -39 -19 -67.5t-38 -47t-52 -27
t-61 -8.5z" />
    <glyph glyph-name="Gdotaccent" unicode="&#x120;" horiz-adv-x="725" 
d="M370 -10q-75 0 -136 24t-104 70t-66.5 113t-23.5 153t23.5 153t66.5 113t104 70t136 24q66 0 116.5 -17t88 -47.5t62.5 -72.5t38 -93h-155q-9 21 -22 38t-30.5 30t-41.5 20t-56 7q-39 0 -72 -14t-57 -42t-37.5 -70.5t-13.5 -98.5t13.5 -98.5t37.5 -70.5t57 -42t72 -14
t67 11t46.5 29.5t29.5 42t17 47.5h-175v120h330v-55q0 -75 -21 -136t-61.5 -104t-99 -66.5t-133.5 -23.5zM370 770q-30 0 -50 20t-20 50t20 50t50 20t50 -20t20 -50t-20 -50t-50 -20z" />
    <glyph glyph-name="gdotaccent" unicode="&#x121;" horiz-adv-x="605" 
d="M295 -200q-60 0 -103 14t-72.5 38.5t-47.5 57t-27 70.5h145q8 -26 35.5 -40.5t69.5 -14.5q53 0 81.5 25t28.5 70v75h-5q-8 -9 -20.5 -20.5t-30.5 -21.5t-40.5 -16.5t-48.5 -6.5q-51 0 -92.5 16.5t-71 49t-45.5 80t-16 109.5t16 109.5t45.5 80t71 49t92.5 16.5
q49 0 85.5 -22t59.5 -48h5l15 60h120v-510q0 -106 -61 -163t-189 -57zM290 155q53 0 84 35t31 95t-31 95t-84 35t-84 -35t-31 -95t31 -95t84 -35zM305 615q-30 0 -50 20t-20 50t20 50t50 20t50 -20t20 -50t-20 -50t-50 -20z" />
    <glyph glyph-name="Gcommaaccent" unicode="&#x122;" horiz-adv-x="725" 
d="M370 -10q-75 0 -136 24t-104 70t-66.5 113t-23.5 153t23.5 153t66.5 113t104 70t136 24q66 0 116.5 -17t88 -47.5t62.5 -72.5t38 -93h-155q-9 21 -22 38t-30.5 30t-41.5 20t-56 7q-39 0 -72 -14t-57 -42t-37.5 -70.5t-13.5 -98.5t13.5 -98.5t37.5 -70.5t57 -42t72 -14
t67 11t46.5 29.5t29.5 42t17 47.5h-175v120h330v-55q0 -75 -21 -136t-61.5 -104t-99 -66.5t-133.5 -23.5zM320 -85h115l-75 -170h-85z" />
    <glyph glyph-name="gcommaaccent" unicode="&#x123;" horiz-adv-x="605" 
d="M320 780h85l-45 -170h-115zM295 -200q-60 0 -103 14t-72.5 38.5t-47.5 57t-27 70.5h145q8 -26 35.5 -40.5t69.5 -14.5q53 0 81.5 25t28.5 70v75h-5q-8 -9 -20.5 -20.5t-30.5 -21.5t-40.5 -16.5t-48.5 -6.5q-51 0 -92.5 16.5t-71 49t-45.5 80t-16 109.5t16 109.5t45.5 80
t71 49t92.5 16.5q49 0 85.5 -22t59.5 -48h5l15 60h120v-510q0 -106 -61 -163t-189 -57zM290 155q53 0 84 35t31 95t-31 95t-84 35t-84 -35t-31 -95t31 -95t84 -35z" />
    <glyph glyph-name="Hcircumflex" unicode="&#x124;" horiz-adv-x="720" 
d="M70 700h150v-280h280v280h150v-700h-150v285h-280v-285h-150v700zM315 920h95l135 -155h-115l-65 80h-5l-65 -80h-115z" />
    <glyph glyph-name="hcircumflex" unicode="&#x125;" horiz-adv-x="595" 
d="M65 700h140v-225h5q26 30 58 47.5t77 17.5q43 0 79 -14.5t61.5 -42.5t40 -67.5t14.5 -90.5v-325h-140v305q0 53 -25 81.5t-70 28.5t-72.5 -30.5t-27.5 -79.5v-305h-140v700zM255 935h95l135 -155h-115l-65 80h-5l-65 -80h-115z" />
    <glyph glyph-name="Hbar" unicode="&#x126;" horiz-adv-x="730" 
d="M75 505h-65v115h65v80h150v-80h280v80h150v-80h65v-115h-65v-505h-150v285h-280v-285h-150v505zM505 420v85h-280v-85h280z" />
    <glyph glyph-name="hbar" unicode="&#x127;" horiz-adv-x="600" 
d="M70 525h-75v110h75v65h140v-65h125v-110h-125v-120h5q26 30 58 47.5t77 17.5q43 0 79 -14.5t61.5 -42.5t40 -67.5t14.5 -90.5v-255h-140v235q0 53 -25 81.5t-70 28.5t-72.5 -30.5t-27.5 -79.5v-235h-140v525z" />
    <glyph glyph-name="Imacron" unicode="&#x12a;" horiz-adv-x="290" 
d="M70 700h150v-700h-150v700zM-5 885h300v-95h-300v95z" />
    <glyph glyph-name="imacron" unicode="&#x12b;" horiz-adv-x="260" 
d="M60 530h140v-530h-140v530zM-20 725h300v-95h-300v95z" />
    <glyph glyph-name="Ibreve" unicode="&#x12c;" horiz-adv-x="290" 
d="M70 700h150v-700h-150v700zM145 765q-32 0 -61 8.5t-52 27t-38 47t-19 67.5h100q4 -30 22 -45t48 -15q62 0 70 60h100q-4 -39 -19 -67.5t-38 -47t-52 -27t-61 -8.5z" />
    <glyph glyph-name="ibreve" unicode="&#x12d;" horiz-adv-x="260" 
d="M60 530h140v-530h-140v530zM130 610q-32 0 -61 8.5t-52 27t-38 47t-19 67.5h100q4 -30 22 -45t48 -15q62 0 70 60h100q-4 -39 -19 -67.5t-38 -47t-52 -27t-61 -8.5z" />
    <glyph glyph-name="Iogonek" unicode="&#x12e;" horiz-adv-x="290" 
d="M130 -210q-72 0 -103.5 28t-31.5 77q0 22 7 39.5t17.5 30t24 21t26.5 14.5v700h150v-700h-65q-34 -19 -47 -39t-13 -46q0 -19 12.5 -29.5t42.5 -10.5h25v-85h-45v0z" />
    <glyph glyph-name="iogonek" unicode="&#x12f;" horiz-adv-x="260" 
d="M120 -210q-72 0 -103.5 28t-31.5 77q0 22 7 39.5t17.5 30t24 21t26.5 14.5v530h140v-530h-55q-34 -19 -47 -39t-13 -46q0 -19 12.5 -29.5t42.5 -10.5h25v-85h-45zM130 585q-34 0 -57 23t-23 57t23 57t57 23t57 -23t23 -57t-23 -57t-57 -23z" />
    <glyph glyph-name="Idotaccent" unicode="&#x130;" horiz-adv-x="290" 
d="M70 700h150v-700h-150v700zM145 770q-30 0 -50 20t-20 50t20 50t50 20t50 -20t20 -50t-20 -50t-50 -20z" />
    <glyph glyph-name="dotlessi" unicode="&#x131;" horiz-adv-x="260" 
d="M60 530h140v-530h-140v530z" />
    <glyph glyph-name="uni0132" unicode="&#x132;" horiz-adv-x="825" 
d="M70 700h150v-700h-150v700zM520 -10q-109 0 -170.5 58t-69.5 167h150q4 -45 28 -67.5t62 -22.5q42 0 66 27.5t24 87.5v460h150v-460q0 -121 -63.5 -185.5t-176.5 -64.5z" />
    <glyph glyph-name="uni0133" unicode="&#x133;" horiz-adv-x="525" 
d="M60 530h140v-530h-140v530zM130 585q-34 0 -57 23t-23 57t23 57t57 23t57 -23t23 -57t-23 -57t-57 -23zM195 -80h80q23 0 36.5 14.5t13.5 40.5v555h140v-575q0 -79 -39 -117t-126 -38h-105v120zM395 585q-34 0 -57 23t-23 57t23 57t57 23t57 -23t23 -57t-23 -57t-57 -23z
" />
    <glyph glyph-name="Jcircumflex" unicode="&#x134;" horiz-adv-x="570" 
d="M265 -10q-109 0 -170.5 58t-69.5 167h150q4 -45 28 -67.5t62 -22.5q42 0 66 27.5t24 87.5v460h150v-460q0 -121 -63.5 -185.5t-176.5 -64.5zM380 920h95l135 -155h-115l-65 80h-5l-65 -80h-115z" />
    <glyph glyph-name="jcircumflex" unicode="&#x135;" horiz-adv-x="260" 
d="M-70 -80h80q23 0 36.5 14.5t13.5 40.5v555h140v-575q0 -79 -39 -117t-126 -38h-105v120zM90 765h95l135 -155h-115l-65 80h-5l-65 -80h-115z" />
    <glyph glyph-name="Kcommaaccent" unicode="&#x136;" horiz-adv-x="640" 
d="M70 700h150v-310l250 310h175l-280 -345l295 -355h-175l-265 320v-320h-150v700zM290 -85h115l-75 -170h-85z" />
    <glyph glyph-name="kcommaaccent" unicode="&#x137;" horiz-adv-x="560" 
d="M65 700h140v-405l195 235h165l-215 -260l230 -270h-165l-210 245v-245h-140v700zM250 -85h115l-75 -170h-85z" />
    <glyph glyph-name="Lacute" unicode="&#x139;" horiz-adv-x="560" 
d="M70 700h150v-565h320v-135h-470v700zM185 915h130l-115 -150h-105z" />
    <glyph glyph-name="lacute" unicode="&#x13a;" horiz-adv-x="270" 
d="M65 700h140v-700h-140v700zM170 915h130l-115 -150h-105z" />
    <glyph glyph-name="Lcommaaccent" unicode="&#x13b;" horiz-adv-x="560" 
d="M70 700h150v-565h320v-135h-470v700zM250 -85h115l-75 -170h-85z" />
    <glyph glyph-name="lcommaaccent" unicode="&#x13c;" horiz-adv-x="270" 
d="M65 700h140v-700h-140v700zM75 -85h115l-75 -170h-85z" />
    <glyph glyph-name="Lcaron" unicode="&#x13d;" horiz-adv-x="560" 
d="M70 700h150v-565h320v-135h-470v700z" />
    <glyph glyph-name="lcaron" unicode="&#x13e;" horiz-adv-x="370" 
d="M65 700h140v-700h-140v700z" />
    <glyph glyph-name="Ldot" unicode="&#x13f;" horiz-adv-x="560" 
d="M420 325q-34 0 -57 23t-23 57t23 57t57 23t57 -23t23 -57t-23 -57t-57 -23zM70 700h150v-565h320v-135h-470v700z" />
    <glyph glyph-name="ldot" unicode="&#x140;" horiz-adv-x="410" 
d="M340 280q-34 0 -57 23t-23 57t23 57t57 23t57 -23t23 -57t-23 -57t-57 -23zM65 700h140v-700h-140v700z" />
    <glyph glyph-name="Lslash" unicode="&#x141;" horiz-adv-x="580" 
d="M90 260l-85 -30v140l85 30v300h150v-245l155 55v-140l-155 -55v-180h320v-135h-470v260z" />
    <glyph glyph-name="lslash" unicode="&#x142;" horiz-adv-x="315" 
d="M85 258l-75 -33v130l75 33v312h140v-251l80 36v-130l-80 -36v-319h-140v258z" />
    <glyph glyph-name="Nacute" unicode="&#x143;" horiz-adv-x="755" 
d="M70 700h195l265 -480h5v480h150v-700h-195l-265 480h-5v-480h-150v700zM420 915h130l-115 -150h-105z" />
    <glyph glyph-name="nacute" unicode="&#x144;" horiz-adv-x="590" 
d="M60 530h120l15 -60h5q26 34 62 52t78 18q43 0 79 -14.5t61.5 -42.5t40 -67.5t14.5 -90.5v-325h-140v305q0 53 -25 81.5t-70 28.5t-72.5 -30.5t-27.5 -79.5v-305h-140v530zM335 760h130l-115 -150h-105z" />
    <glyph glyph-name="Ncommaaccent" unicode="&#x145;" horiz-adv-x="755" 
d="M70 700h195l265 -480h5v480h150v-700h-195l-265 480h-5v-480h-150v700zM325 -85h115l-75 -170h-85z" />
    <glyph glyph-name="ncommaaccent" unicode="&#x146;" horiz-adv-x="590" 
d="M60 530h120l15 -60h5q26 34 62 52t78 18q43 0 79 -14.5t61.5 -42.5t40 -67.5t14.5 -90.5v-325h-140v305q0 53 -25 81.5t-70 28.5t-72.5 -30.5t-27.5 -79.5v-305h-140v530zM240 -85h115l-75 -170h-85z" />
    <glyph glyph-name="Ncaron" unicode="&#x147;" horiz-adv-x="755" 
d="M70 700h195l265 -480h5v480h150v-700h-195l-265 480h-5v-480h-150v700zM200 920h115l65 -80h5l65 80h115l-135 -155h-95z" />
    <glyph glyph-name="ncaron" unicode="&#x148;" horiz-adv-x="590" 
d="M60 530h120l15 -60h5q26 34 62 52t78 18q43 0 79 -14.5t61.5 -42.5t40 -67.5t14.5 -90.5v-325h-140v305q0 53 -25 81.5t-70 28.5t-72.5 -30.5t-27.5 -79.5v-305h-140v530zM115 760h115l65 -80h5l65 80h115l-135 -155h-95z" />
    <glyph glyph-name="napostrophe" unicode="&#x149;" horiz-adv-x="660" 
d="M130 530h120l15 -60h5q26 34 62 52t78 18q43 0 79 -14.5t61.5 -42.5t40 -67.5t14.5 -90.5v-325h-140v305q0 53 -25 81.5t-70 28.5t-72.5 -30.5t-27.5 -79.5v-305h-140v530z" />
    <glyph glyph-name="Eng" unicode="&#x14a;" horiz-adv-x="755" 
d="M390 -100h45q49 0 74.5 25t25.5 70v5h-45l-265 480h-5v-480h-150v700h195l265 -480h5v480h150v-685q0 -132 -59 -193.5t-176 -61.5h-60v140z" />
    <glyph glyph-name="eng" unicode="&#x14b;" horiz-adv-x="590" 
d="M265 -80h80q23 0 36.5 14.5t13.5 40.5v330q0 53 -25 81.5t-70 28.5t-72.5 -30.5t-27.5 -79.5v-305h-140v530h120l15 -60h5q26 34 62 52t78 18q43 0 79 -14.5t61.5 -42.5t40 -67.5t14.5 -90.5v-370q0 -79 -39 -117t-126 -38h-105v120z" />
    <glyph glyph-name="Omacron" unicode="&#x14c;" horiz-adv-x="740" 
d="M370 -10q-75 0 -136 24t-104 70t-66.5 113t-23.5 153t23.5 153t66.5 113t104 70t136 24t136 -24t104 -70t66.5 -113t23.5 -153t-23.5 -153t-66.5 -113t-104 -70t-136 -24zM370 125q39 0 72 14t57 42t37.5 70.5t13.5 98.5t-13.5 98.5t-37.5 70.5t-57 42t-72 14t-72 -14
t-57 -42t-37.5 -70.5t-13.5 -98.5t13.5 -98.5t37.5 -70.5t57 -42t72 -14zM220 885h300v-95h-300v95z" />
    <glyph glyph-name="omacron" unicode="&#x14d;" horiz-adv-x="590" 
d="M295 -10q-60 0 -108 18.5t-82 53.5t-52 86t-18 117t18 117t52 86t82 53.5t108 18.5t108 -18.5t82 -53.5t52 -86t18 -117t-18 -117t-52 -86t-82 -53.5t-108 -18.5zM295 115q24 0 46 8.5t38.5 27t26 47t9.5 67.5t-9.5 67.5t-26 47t-38.5 27t-46 8.5t-46 -8.5t-38.5 -27
t-26 -47t-9.5 -67.5t9.5 -67.5t26 -47t38.5 -27t46 -8.5zM145 725h300v-95h-300v95z" />
    <glyph glyph-name="Obreve" unicode="&#x14e;" horiz-adv-x="740" 
d="M370 -10q-75 0 -136 24t-104 70t-66.5 113t-23.5 153t23.5 153t66.5 113t104 70t136 24t136 -24t104 -70t66.5 -113t23.5 -153t-23.5 -153t-66.5 -113t-104 -70t-136 -24zM370 125q39 0 72 14t57 42t37.5 70.5t13.5 98.5t-13.5 98.5t-37.5 70.5t-57 42t-72 14t-72 -14
t-57 -42t-37.5 -70.5t-13.5 -98.5t13.5 -98.5t37.5 -70.5t57 -42t72 -14zM370 765q-32 0 -61 8.5t-52 27t-38 47t-19 67.5h100q4 -30 22 -45t48 -15q62 0 70 60h100q-4 -39 -19 -67.5t-38 -47t-52 -27t-61 -8.5z" />
    <glyph glyph-name="obreve" unicode="&#x14f;" horiz-adv-x="590" 
d="M295 -10q-60 0 -108 18.5t-82 53.5t-52 86t-18 117t18 117t52 86t82 53.5t108 18.5t108 -18.5t82 -53.5t52 -86t18 -117t-18 -117t-52 -86t-82 -53.5t-108 -18.5zM295 115q24 0 46 8.5t38.5 27t26 47t9.5 67.5t-9.5 67.5t-26 47t-38.5 27t-46 8.5t-46 -8.5t-38.5 -27
t-26 -47t-9.5 -67.5t9.5 -67.5t26 -47t38.5 -27t46 -8.5zM295 610q-32 0 -61 8.5t-52 27t-38 47t-19 67.5h100q4 -30 22 -45t48 -15q62 0 70 60h100q-4 -39 -19 -67.5t-38 -47t-52 -27t-61 -8.5z" />
    <glyph glyph-name="Ohungarumlaut" unicode="&#x150;" horiz-adv-x="740" 
d="M370 -10q-75 0 -136 24t-104 70t-66.5 113t-23.5 153t23.5 153t66.5 113t104 70t136 24t136 -24t104 -70t66.5 -113t23.5 -153t-23.5 -153t-66.5 -113t-104 -70t-136 -24zM370 125q39 0 72 14t57 42t37.5 70.5t13.5 98.5t-13.5 98.5t-37.5 70.5t-57 42t-72 14t-72 -14
t-57 -42t-37.5 -70.5t-13.5 -98.5t13.5 -98.5t37.5 -70.5t57 -42t72 -14zM320 915h130l-120 -150h-100zM500 915h130l-120 -150h-100z" />
    <glyph glyph-name="ohungarumlaut" unicode="&#x151;" horiz-adv-x="590" 
d="M295 -10q-60 0 -108 18.5t-82 53.5t-52 86t-18 117t18 117t52 86t82 53.5t108 18.5t108 -18.5t82 -53.5t52 -86t18 -117t-18 -117t-52 -86t-82 -53.5t-108 -18.5zM295 115q24 0 46 8.5t38.5 27t26 47t9.5 67.5t-9.5 67.5t-26 47t-38.5 27t-46 8.5t-46 -8.5t-38.5 -27
t-26 -47t-9.5 -67.5t9.5 -67.5t26 -47t38.5 -27t46 -8.5zM245 760h130l-120 -150h-100zM425 760h130l-120 -150h-100z" />
    <glyph glyph-name="OE" unicode="&#x152;" horiz-adv-x="1050" 
d="M350 -10q-66 0 -122.5 24.5t-98 71t-65.5 113.5t-24 151t24 151t65.5 113.5t98 71t122.5 24.5q37 0 67 -6.5t52.5 -17t37.5 -23t23 -23.5v60h475v-135h-325v-150h300v-125h-300v-155h325v-135h-475v60q-8 -11 -23 -23.5t-37.5 -23t-52.5 -17t-67 -6.5zM360 125
q34 0 64.5 15t54 43.5t37.5 70.5t14 96t-14 96t-37.5 70.5t-54 43.5t-64.5 15t-64.5 -15t-54 -43.5t-37.5 -70.5t-14 -96t14 -96t37.5 -70.5t54 -43.5t64.5 -15z" />
    <glyph glyph-name="oe" unicode="&#x153;" horiz-adv-x="940" 
d="M280 -10q-54 0 -99.5 18.5t-77.5 53.5t-50 86t-18 117t18 117t50 86t77.5 53.5t99.5 18.5q36 0 63.5 -8t49 -21t38 -30t29.5 -36q30 45 78.5 70t116.5 25q54 0 100 -19t79.5 -53.5t52 -83.5t18.5 -109q0 -11 -1 -21t-2 -18q-1 -9 -2 -16h-365q8 -45 35 -75t80 -30
q41 0 60.5 13.5t34.5 36.5h151q-10 -38 -30 -70t-50 -55t-70 -36.5t-91 -13.5q-68 0 -116.5 25t-78.5 70q-30 -45 -73 -70t-107 -25zM285 115q49 0 79.5 37.5t30.5 112.5t-30.5 112.5t-79.5 37.5t-79.5 -37.5t-30.5 -112.5t30.5 -112.5t79.5 -37.5zM762 315q-8 45 -37 72.5
t-75 27.5q-49 0 -78 -27.5t-37 -72.5h227z" />
    <glyph glyph-name="Racute" unicode="&#x154;" horiz-adv-x="655" 
d="M70 700h300q52 0 95.5 -16.5t74.5 -46.5t48 -72.5t17 -94.5q0 -66 -23 -108.5t-50 -67.5q-32 -29 -72 -44l170 -250h-170l-160 240h-80v-240h-150v700zM360 375q42 0 68.5 25t26.5 70t-26.5 70t-68.5 25h-140v-190h140zM365 915h130l-115 -150h-105z" />
    <glyph glyph-name="racute" unicode="&#x155;" horiz-adv-x="405" 
d="M60 530h120l15 -60h5q23 34 55 47t70 13h65v-135h-55q-64 0 -99.5 -35t-35.5 -95v-265h-140v530zM265 760h130l-115 -150h-105z" />
    <glyph glyph-name="Rcommaaccent" unicode="&#x156;" horiz-adv-x="655" 
d="M70 700h300q52 0 95.5 -16.5t74.5 -46.5t48 -72.5t17 -94.5q0 -66 -23 -108.5t-50 -67.5q-32 -29 -72 -44l170 -250h-170l-160 240h-80v-240h-150v700zM360 375q42 0 68.5 25t26.5 70t-26.5 70t-68.5 25h-140v-190h140zM275 -85h115l-75 -170h-85z" />
    <glyph glyph-name="rcommaaccent" unicode="&#x157;" horiz-adv-x="405" 
d="M60 530h120l15 -60h5q23 34 55 47t70 13h65v-135h-55q-64 0 -99.5 -35t-35.5 -95v-265h-140v530zM70 -85h115l-75 -170h-85z" />
    <glyph glyph-name="Rcaron" unicode="&#x158;" horiz-adv-x="655" 
d="M70 700h300q52 0 95.5 -16.5t74.5 -46.5t48 -72.5t17 -94.5q0 -66 -23 -108.5t-50 -67.5q-32 -29 -72 -44l170 -250h-170l-160 240h-80v-240h-150v700zM360 375q42 0 68.5 25t26.5 70t-26.5 70t-68.5 25h-140v-190h140zM145 920h115l65 -80h5l65 80h115l-135 -155h-95z
" />
    <glyph glyph-name="rcaron" unicode="&#x159;" horiz-adv-x="405" 
d="M60 530h120l15 -60h5q23 34 55 47t70 13h65v-135h-55q-64 0 -99.5 -35t-35.5 -95v-265h-140v530zM45 760h115l65 -80h5l65 80h115l-135 -155h-95z" />
    <glyph glyph-name="Sacute" unicode="&#x15a;" horiz-adv-x="625" 
d="M310 -10q-58 0 -108 14t-87.5 41.5t-60.5 69t-29 95.5h150q8 -42 43 -66t92 -24q71 0 100.5 23.5t29.5 61.5q0 26 -17 41.5t-44 25t-62 16t-72 15t-72 21.5t-62 35.5t-44 57.5t-17 88q0 51 20 89t55.5 64t83 39t101.5 13q64 0 112 -15.5t81 -43.5t52 -65.5t25 -80.5h-150
q-8 34 -37 54.5t-78 20.5q-57 0 -83.5 -22.5t-26.5 -52.5q0 -27 17 -43.5t44 -27t62 -18t72 -16.5t72 -22t62 -35t44 -55t17 -83q0 -45 -18.5 -84t-54.5 -68.5t-89.5 -46t-122.5 -16.5zM355 915h130l-115 -150h-105z" />
    <glyph glyph-name="sacute" unicode="&#x15b;" horiz-adv-x="515" 
d="M255 -10q-58 0 -100 14t-70 38t-43.5 55.5t-21.5 67.5h150q4 -19 25.5 -34.5t59.5 -15.5q52 0 71 12.5t19 27.5q0 20 -22.5 29t-56.5 16t-73.5 15t-73.5 26.5t-56.5 51t-22.5 87.5q0 34 14 63t41 50.5t67 34t93 12.5q56 0 97 -13t68.5 -35.5t43 -52.5t21.5 -64h-150
q-4 15 -21 27.5t-59 12.5q-34 0 -52 -10t-18 -25q0 -20 22.5 -29t56.5 -16t73.5 -15t73.5 -26.5t56.5 -51t22.5 -87.5q0 -32 -11.5 -61.5t-38.5 -52.5t-72.5 -37t-112.5 -14zM295 760h130l-115 -150h-105z" />
    <glyph glyph-name="Scircumflex" unicode="&#x15c;" horiz-adv-x="625" 
d="M310 -10q-58 0 -108 14t-87.5 41.5t-60.5 69t-29 95.5h150q8 -42 43 -66t92 -24q71 0 100.5 23.5t29.5 61.5q0 26 -17 41.5t-44 25t-62 16t-72 15t-72 21.5t-62 35.5t-44 57.5t-17 88q0 51 20 89t55.5 64t83 39t101.5 13q64 0 112 -15.5t81 -43.5t52 -65.5t25 -80.5h-150
q-8 34 -37 54.5t-78 20.5q-57 0 -83.5 -22.5t-26.5 -52.5q0 -27 17 -43.5t44 -27t62 -18t72 -16.5t72 -22t62 -35t44 -55t17 -83q0 -45 -18.5 -84t-54.5 -68.5t-89.5 -46t-122.5 -16.5zM270 920h95l135 -155h-115l-65 80h-5l-65 -80h-115z" />
    <glyph glyph-name="scircumflex" unicode="&#x15d;" horiz-adv-x="515" 
d="M255 -10q-58 0 -100 14t-70 38t-43.5 55.5t-21.5 67.5h150q4 -19 25.5 -34.5t59.5 -15.5q52 0 71 12.5t19 27.5q0 20 -22.5 29t-56.5 16t-73.5 15t-73.5 26.5t-56.5 51t-22.5 87.5q0 34 14 63t41 50.5t67 34t93 12.5q56 0 97 -13t68.5 -35.5t43 -52.5t21.5 -64h-150
q-4 15 -21 27.5t-59 12.5q-34 0 -52 -10t-18 -25q0 -20 22.5 -29t56.5 -16t73.5 -15t73.5 -26.5t56.5 -51t22.5 -87.5q0 -32 -11.5 -61.5t-38.5 -52.5t-72.5 -37t-112.5 -14zM210 765h95l135 -155h-115l-65 80h-5l-65 -80h-115z" />
    <glyph glyph-name="Scedilla" unicode="&#x15e;" horiz-adv-x="625" 
d="M235 -150h55q30 0 30 25t-29 25h-46v55l16 38q-98 11 -162 65t-74 152h150q8 -42 43 -66t92 -24q71 0 100.5 23.5t29.5 61.5q0 26 -17 41.5t-44 25t-62 16t-72 15t-72 21.5t-62 35.5t-44 57.5t-17 88q0 51 20 89t55.5 64t83 39t101.5 13q64 0 112 -15.5t81 -43.5
t52 -65.5t25 -80.5h-150q-8 34 -37 54.5t-78 20.5q-57 0 -83.5 -22.5t-26.5 -52.5q0 -27 17 -43.5t44 -27t62 -18t72 -16.5t72 -22t62 -35t44 -55t17 -83q0 -42 -16.5 -79.5t-48.5 -66t-79.5 -46.5t-109.5 -22l-11 -26q34 -4 59.5 -26t25.5 -64q0 -49 -28.5 -77t-81.5 -28
h-70v80z" />
    <glyph glyph-name="scedilla" unicode="&#x15f;" horiz-adv-x="515" 
d="M190 -150h55q30 0 30 25t-29 25h-46v55l16 37q-48 4 -82.5 19.5t-58 39t-37 52.5t-18.5 62h150q4 -19 25.5 -34.5t59.5 -15.5q52 0 71 12.5t19 27.5q0 20 -22.5 29t-56.5 16t-73.5 15t-73.5 26.5t-56.5 51t-22.5 87.5q0 34 14 63t41 50.5t67 34t93 12.5q56 0 97 -13
t68.5 -35.5t43 -52.5t21.5 -64h-150q-4 15 -21 27.5t-59 12.5q-34 0 -52 -10t-18 -25q0 -20 22.5 -29t56.5 -16t73.5 -15t73.5 -26.5t56.5 -51t22.5 -87.5q0 -29 -9.5 -56.5t-32 -50t-60 -37.5t-92.5 -19l-11 -27q34 -4 59.5 -26t25.5 -64q0 -49 -28.5 -77t-81.5 -28h-70v80
z" />
    <glyph glyph-name="Scaron" unicode="&#x160;" horiz-adv-x="625" 
d="M310 -10q-58 0 -108 14t-87.5 41.5t-60.5 69t-29 95.5h150q8 -42 43 -66t92 -24q71 0 100.5 23.5t29.5 61.5q0 26 -17 41.5t-44 25t-62 16t-72 15t-72 21.5t-62 35.5t-44 57.5t-17 88q0 51 20 89t55.5 64t83 39t101.5 13q64 0 112 -15.5t81 -43.5t52 -65.5t25 -80.5h-150
q-8 34 -37 54.5t-78 20.5q-57 0 -83.5 -22.5t-26.5 -52.5q0 -27 17 -43.5t44 -27t62 -18t72 -16.5t72 -22t62 -35t44 -55t17 -83q0 -45 -18.5 -84t-54.5 -68.5t-89.5 -46t-122.5 -16.5zM135 920h115l65 -80h5l65 80h115l-135 -155h-95z" />
    <glyph glyph-name="scaron" unicode="&#x161;" horiz-adv-x="515" 
d="M255 -10q-58 0 -100 14t-70 38t-43.5 55.5t-21.5 67.5h150q4 -19 25.5 -34.5t59.5 -15.5q52 0 71 12.5t19 27.5q0 20 -22.5 29t-56.5 16t-73.5 15t-73.5 26.5t-56.5 51t-22.5 87.5q0 34 14 63t41 50.5t67 34t93 12.5q56 0 97 -13t68.5 -35.5t43 -52.5t21.5 -64h-150
q-4 15 -21 27.5t-59 12.5q-34 0 -52 -10t-18 -25q0 -20 22.5 -29t56.5 -16t73.5 -15t73.5 -26.5t56.5 -51t22.5 -87.5q0 -32 -11.5 -61.5t-38.5 -52.5t-72.5 -37t-112.5 -14zM75 760h115l65 -80h5l65 80h115l-135 -155h-95z" />
    <glyph glyph-name="uni0162" unicode="&#x162;" horiz-adv-x="600" 
d="M265 -150h55q30 0 30 25t-29 25h-46v55l20 45h-70v565h-210v135h570v-135h-210v-565l-15 -35q34 -4 59.5 -26t25.5 -64q0 -49 -28.5 -77t-81.5 -28h-70v80z" />
    <glyph glyph-name="uni0163" unicode="&#x163;" horiz-adv-x="410" 
d="M150 -150h55q30 0 30 25t-29 25h-46v55l26 59q-81 34 -81 141v245h-85v130h85l20 140h120v-140h125v-130h-125v-220q0 -23 13.5 -36.5t36.5 -13.5h75v-130h-100h-10l-15 -35q34 -4 59.5 -26t25.5 -64q0 -49 -28.5 -77t-81.5 -28h-70v80z" />
    <glyph glyph-name="Tcaron" unicode="&#x164;" horiz-adv-x="600" 
d="M225 565h-210v135h570v-135h-210v-565h-150v565zM120 920h115l65 -80h5l65 80h115l-135 -155h-95z" />
    <glyph glyph-name="tcaron" unicode="&#x165;" horiz-adv-x="505" 
d="M270 0q-83 0 -124 40t-41 115v245h-85v130h85l20 140h120v-140h125v-130h-125v-220q0 -23 13.5 -36.5t36.5 -13.5h75v-130h-100v0z" />
    <glyph glyph-name="Tbar" unicode="&#x166;" horiz-adv-x="610" 
d="M230 330h-155v130h155v105h-210v135h570v-135h-210v-105h155v-130h-155v-330h-150v330z" />
    <glyph glyph-name="tbar" unicode="&#x167;" horiz-adv-x="410" 
d="M270 0q-83 0 -124 40t-41 115v80h-85v120h85v55h-85v120h85l20 140h120v-140h125v-120h-125v-55h125v-120h-125v-55q0 -23 13.5 -36.5t36.5 -13.5h75v-130h-100v0z" />
    <glyph glyph-name="Umacron" unicode="&#x16a;" horiz-adv-x="720" 
d="M360 -10q-68 0 -122.5 21t-92.5 61t-59 97.5t-21 130.5v400h150v-400q0 -87 40.5 -131t104.5 -44t104.5 44t40.5 131v400h150v-400q0 -73 -21 -130.5t-59 -97.5t-93 -61t-122 -21zM210 885h300v-95h-300v95z" />
    <glyph glyph-name="umacron" unicode="&#x16b;" horiz-adv-x="595" 
d="M255 -10q-43 0 -79 14.5t-61.5 42.5t-40 67.5t-14.5 90.5v325h140v-305q0 -53 25 -81.5t70 -28.5t72.5 30.5t27.5 79.5v305h140v-530h-120l-15 60h-5q-26 -34 -62 -52t-78 -18zM150 725h300v-95h-300v95z" />
    <glyph glyph-name="Ubreve" unicode="&#x16c;" horiz-adv-x="720" 
d="M360 -10q-68 0 -122.5 21t-92.5 61t-59 97.5t-21 130.5v400h150v-400q0 -87 40.5 -131t104.5 -44t104.5 44t40.5 131v400h150v-400q0 -73 -21 -130.5t-59 -97.5t-93 -61t-122 -21zM360 765q-32 0 -61 8.5t-52 27t-38 47t-19 67.5h100q4 -30 22 -45t48 -15q62 0 70 60h100
q-4 -39 -19 -67.5t-38 -47t-52 -27t-61 -8.5z" />
    <glyph glyph-name="ubreve" unicode="&#x16d;" horiz-adv-x="595" 
d="M255 -10q-43 0 -79 14.5t-61.5 42.5t-40 67.5t-14.5 90.5v325h140v-305q0 -53 25 -81.5t70 -28.5t72.5 30.5t27.5 79.5v305h140v-530h-120l-15 60h-5q-26 -34 -62 -52t-78 -18zM300 610q-32 0 -61 8.5t-52 27t-38 47t-19 67.5h100q4 -30 22 -45t48 -15q62 0 70 60h100
q-4 -39 -19 -67.5t-38 -47t-52 -27t-61 -8.5z" />
    <glyph glyph-name="Uring" unicode="&#x16e;" horiz-adv-x="720" 
d="M360 -10q-68 0 -122.5 21t-92.5 61t-59 97.5t-21 130.5v400h150v-400q0 -87 40.5 -131t104.5 -44t104.5 44t40.5 131v400h150v-400q0 -73 -21 -130.5t-59 -97.5t-93 -61t-122 -21zM360 740q-49 0 -79.5 30.5t-30.5 79.5t30.5 79.5t79.5 30.5t79.5 -30.5t30.5 -79.5
t-30.5 -79.5t-79.5 -30.5zM360 810q40 0 40 40t-40 40t-40 -40t40 -40z" />
    <glyph glyph-name="uring" unicode="&#x16f;" horiz-adv-x="595" 
d="M255 -10q-43 0 -79 14.5t-61.5 42.5t-40 67.5t-14.5 90.5v325h140v-305q0 -53 25 -81.5t70 -28.5t72.5 30.5t27.5 79.5v305h140v-530h-120l-15 60h-5q-26 -34 -62 -52t-78 -18zM300 590q-49 0 -79.5 30.5t-30.5 79.5t30.5 79.5t79.5 30.5t79.5 -30.5t30.5 -79.5
t-30.5 -79.5t-79.5 -30.5zM300 660q40 0 40 40t-40 40t-40 -40t40 -40z" />
    <glyph glyph-name="Uhungarumlaut" unicode="&#x170;" horiz-adv-x="720" 
d="M360 -10q-68 0 -122.5 21t-92.5 61t-59 97.5t-21 130.5v400h150v-400q0 -87 40.5 -131t104.5 -44t104.5 44t40.5 131v400h150v-400q0 -73 -21 -130.5t-59 -97.5t-93 -61t-122 -21zM310 915h130l-120 -150h-100zM490 915h130l-120 -150h-100z" />
    <glyph glyph-name="uhungarumlaut" unicode="&#x171;" horiz-adv-x="595" 
d="M255 -10q-43 0 -79 14.5t-61.5 42.5t-40 67.5t-14.5 90.5v325h140v-305q0 -53 25 -81.5t70 -28.5t72.5 30.5t27.5 79.5v305h140v-530h-120l-15 60h-5q-26 -34 -62 -52t-78 -18zM250 760h130l-120 -150h-100zM430 760h130l-120 -150h-100z" />
    <glyph glyph-name="Uogonek" unicode="&#x172;" horiz-adv-x="720" 
d="M405 -210q-72 0 -103.5 28t-31.5 77q0 38 17.5 61t40.5 36q-61 4 -109.5 27t-82.5 62.5t-52.5 94.5t-18.5 124v400h150v-400q0 -87 40.5 -131t104.5 -44t104.5 44t40.5 131v400h150v-400q0 -129 -62.5 -208.5t-171.5 -96.5q-29 -17 -40 -36t-11 -44q0 -19 12.5 -29.5
t42.5 -10.5h25v-85h-45v0z" />
    <glyph glyph-name="uogonek" unicode="&#x173;" horiz-adv-x="595" 
d="M510 -210q-72 0 -103.5 28t-31.5 77q0 22 7 39.5t17.5 30t24 21t26.5 14.5h-35l-15 60h-5q-26 -34 -62 -52t-78 -18q-43 0 -79 14.5t-61.5 42.5t-40 67.5t-14.5 90.5v325h140v-305q0 -53 25 -81.5t70 -28.5t72.5 30.5t27.5 79.5v305h140v-530q-34 -19 -47 -39t-13 -46
q0 -19 12.5 -29.5t42.5 -10.5h25v-85h-45v0z" />
    <glyph glyph-name="Wcircumflex" unicode="&#x174;" horiz-adv-x="950" 
d="M5 700h155l110 -485h5l120 485h160l120 -485h5l110 485h155l-185 -700h-165l-120 485l-120 -485h-165zM430 920h95l135 -155h-115l-65 80h-5l-65 -80h-115z" />
    <glyph glyph-name="wcircumflex" unicode="&#x175;" horiz-adv-x="805" 
d="M5 530h145l90 -355h5l90 355h145l90 -355h5l90 355h135l-145 -530h-155l-90 335h-5l-90 -335h-165zM360 765h95l135 -155h-115l-65 80h-5l-65 -80h-115z" />
    <glyph glyph-name="Ycircumflex" unicode="&#x176;" horiz-adv-x="610" 
d="M230 240l-245 460h160l157 -305h5l158 305h160l-245 -460v-240h-150v240zM260 920h95l135 -155h-115l-65 80h-5l-65 -80h-115z" />
    <glyph glyph-name="ycircumflex" unicode="&#x177;" horiz-adv-x="560" 
d="M211 0l-216 530h155l130 -345h4l126 345h155l-290 -730h-145zM235 765h95l135 -155h-115l-65 80h-5l-65 -80h-115z" />
    <glyph glyph-name="Ydieresis" unicode="&#x178;" horiz-adv-x="610" 
d="M230 240l-245 460h160l157 -305h5l158 305h160l-245 -460v-240h-150v240zM205 770q-30 0 -50 20t-20 50t20 50t50 20t50 -20t20 -50t-20 -50t-50 -20zM405 770q-30 0 -50 20t-20 50t20 50t50 20t50 -20t20 -50t-20 -50t-50 -20z" />
    <glyph glyph-name="Zacute" unicode="&#x179;" horiz-adv-x="605" 
d="M35 110l340 460h-330v130h520v-110l-340 -460h345v-130h-535v110zM340 915h130l-115 -150h-105z" />
    <glyph glyph-name="zacute" unicode="&#x17a;" horiz-adv-x="490" 
d="M30 105l245 300h-235v125h415v-105l-245 -300h250v-125h-430v105zM285 760h130l-115 -150h-105z" />
    <glyph glyph-name="Zdotaccent" unicode="&#x17b;" horiz-adv-x="605" 
d="M35 110l340 460h-330v130h520v-110l-340 -460h345v-130h-535v110zM305 770q-30 0 -50 20t-20 50t20 50t50 20t50 -20t20 -50t-20 -50t-50 -20z" />
    <glyph glyph-name="zdotaccent" unicode="&#x17c;" horiz-adv-x="490" 
d="M30 105l245 300h-235v125h415v-105l-245 -300h250v-125h-430v105zM245 615q-30 0 -50 20t-20 50t20 50t50 20t50 -20t20 -50t-20 -50t-50 -20z" />
    <glyph glyph-name="Zcaron" unicode="&#x17d;" horiz-adv-x="605" 
d="M35 110l340 460h-330v130h520v-110l-340 -460h345v-130h-535v110zM125 920h115l65 -80h5l65 80h115l-135 -155h-95z" />
    <glyph glyph-name="zcaron" unicode="&#x17e;" horiz-adv-x="490" 
d="M30 105l245 300h-235v125h415v-105l-245 -300h250v-125h-430v105zM65 760h115l65 -80h5l65 80h115l-135 -155h-95z" />
    <glyph glyph-name="uni018F" unicode="&#x18f;" horiz-adv-x="730" 
d="M360 -10q-71 0 -130 23.5t-101 70.5t-65.5 117t-23.5 164v35h496q-10 81 -55.5 128t-120.5 47q-60 0 -93 -23t-52 -57h-155q11 43 34 82t59.5 68.5t87.5 47t119 17.5q75 0 136 -24t104 -70t66.5 -113t23.5 -153t-23.5 -153t-66.5 -113t-104 -70t-136 -24zM360 125
q37 0 67 12.5t52 34t36 50.5t20 63h-345q11 -83 54.5 -121.5t115.5 -38.5z" />
    <glyph glyph-name="florin" unicode="&#x192;" horiz-adv-x="460" 
d="M-35 -45h50q34 0 48 11t19 34l70 330h-92l25 130h95l25 115q8 36 21.5 63t36 45t55 27.5t77.5 9.5h90l-30 -135h-50q-34 0 -48 -11t-19 -34l-18 -80h115l-25 -130h-116l-79 -365q-15 -71 -57.5 -108t-132.5 -37h-90z" />
    <glyph glyph-name="Gacute" unicode="&#x1f4;" horiz-adv-x="725" 
d="M370 -10q-75 0 -136 24t-104 70t-66.5 113t-23.5 153t23.5 153t66.5 113t104 70t136 24q66 0 116.5 -17t88 -47.5t62.5 -72.5t38 -93h-155q-9 21 -22 38t-30.5 30t-41.5 20t-56 7q-39 0 -72 -14t-57 -42t-37.5 -70.5t-13.5 -98.5t13.5 -98.5t37.5 -70.5t57 -42t72 -14
t67 11t46.5 29.5t29.5 42t17 47.5h-175v120h330v-55q0 -75 -21 -136t-61.5 -104t-99 -66.5t-133.5 -23.5zM410 915h130l-115 -150h-105z" />
    <glyph glyph-name="gacute" unicode="&#x1f5;" horiz-adv-x="605" 
d="M295 -200q-60 0 -103 14t-72.5 38.5t-47.5 57t-27 70.5h145q8 -26 35.5 -40.5t69.5 -14.5q53 0 81.5 25t28.5 70v75h-5q-8 -9 -20.5 -20.5t-30.5 -21.5t-40.5 -16.5t-48.5 -6.5q-51 0 -92.5 16.5t-71 49t-45.5 80t-16 109.5t16 109.5t45.5 80t71 49t92.5 16.5
q49 0 85.5 -22t59.5 -48h5l15 60h120v-510q0 -106 -61 -163t-189 -57zM290 155q53 0 84 35t31 95t-31 95t-84 35t-84 -35t-31 -95t31 -95t84 -35zM345 760h130l-115 -150h-105z" />
    <glyph glyph-name="Aringacute" unicode="&#x1fa;" horiz-adv-x="675" 
d="M335 730q-49 0 -79.5 30.5t-30.5 79.5q0 45 25.5 74.5t67.5 34.5l22 61h105l-52 -75q24 -14 38 -38.5t14 -56.5q0 -49 -30.5 -79.5t-79.5 -30.5zM335 800q40 0 40 40t-40 40t-40 -40t40 -40zM245 700h185l250 -700h-155l-45 130h-285l-45 -130h-155zM431 265l-91 265h-5
l-91 -265h187z" />
    <glyph glyph-name="aringacute" unicode="&#x1fb;" horiz-adv-x="555" 
d="M285 580q-49 0 -79.5 30.5t-30.5 79.5q0 45 25.5 74.5t67.5 34.5l22 61h105l-52 -75q24 -14 38 -38.5t14 -56.5q0 -49 -30.5 -79.5t-79.5 -30.5zM285 650q40 0 40 40t-40 40t-40 -40t40 -40zM215 -10q-43 0 -77.5 12.5t-58.5 34.5t-36.5 52t-12.5 66t13 66t39 52t64 34.5
t89 12.5h125v25q0 38 -24 56.5t-66 18.5q-30 0 -51 -13t-29 -32h-140q7 32 24.5 61.5t45 52.5t66 37t89.5 14q106 0 165.5 -51t59.5 -149v-340h-120l-15 60h-5q-8 -11 -20 -23.5t-30 -23t-41.5 -17t-53.5 -6.5zM250 105q49 0 79.5 27.5t30.5 72.5v15h-120q-38 0 -54 -16
t-16 -39q0 -26 19 -43t61 -17z" />
    <glyph glyph-name="AEacute" unicode="&#x1fc;" horiz-adv-x="960" 
d="M315 700h590v-135h-320v-149h300v-126h-300v-155h330v-135h-480v140h-235l-70 -140h-165zM435 270v290h-25l-145 -290h170zM555 915h130l-115 -150h-105z" />
    <glyph glyph-name="aeacute" unicode="&#x1fd;" horiz-adv-x="905" 
d="M220 -10q-47 0 -82.5 13t-59.5 35.5t-36 52.5t-12 64q0 72 53.5 116t151.5 44h125v30q0 34 -22.5 54.5t-67.5 20.5q-34 0 -53 -13t-27 -32h-140q7 32 24 61.5t44 52.5t63.5 37t83.5 14q68 0 110 -25.5t65 -59.5q30 38 73.5 61.5t111.5 23.5q54 0 99.5 -19.5t77.5 -55.5
t50 -85.5t18 -109.5q0 -11 -1 -21t-2 -18q-1 -9 -2 -16h-365q8 -42 35 -71t80 -29q41 0 61 13.5t35 36.5h150q-10 -37 -29.5 -69t-49.5 -55.5t-69 -37t-88 -13.5q-72 0 -120.5 27t-74.5 69q-15 -19 -33.5 -36.5t-43.5 -30.5t-57.5 -21t-75.5 -8zM250 105q53 0 81.5 29
t28.5 71v10h-120q-38 0 -54 -15.5t-16 -34.5q0 -26 19 -43t61 -17zM727 315q-8 45 -37 72.5t-75 27.5q-49 0 -78 -27.5t-37 -72.5h227zM495 760h130l-115 -150h-105z" />
    <glyph glyph-name="Oslashacute" unicode="&#x1fe;" horiz-adv-x="740" 
d="M141 73q-48 46 -74.5 115.5t-26.5 161.5q0 86 23.5 153t66.5 113t104 70t136 24q67 0 125 -20l20 35h135l-55 -95q51 -46 78 -116t27 -164q0 -86 -23.5 -153t-66.5 -113t-104 -70t-136 -24q-35 0 -67.5 5.5t-61.5 15.5l-21 -36h-135zM424 567q-27 8 -54 8q-39 0 -72 -14
t-57 -42t-37.5 -70.5t-13.5 -98.5q0 -87 30 -139zM370 125q39 0 72 14t57 42t37.5 70.5t13.5 98.5q0 45 -8.5 80.5t-24.5 62.5l-206 -359q27 -9 59 -9zM410 915h130l-115 -150h-105z" />
    <glyph glyph-name="oslashacute" unicode="&#x1ff;" horiz-adv-x="590" 
d="M106 61q-35 35 -53 86.5t-18 117.5t18 117t52 86t82 53.5t108 18.5q55 0 103 -17l17 27h120l-51 -81q34 -35 52.5 -86.5t18.5 -117.5t-18 -117t-52 -86t-82 -53.5t-108 -18.5q-29 0 -54.5 4t-48.5 12l-17 -26h-120zM327 411q-13 4 -32 4q-24 0 -46 -8.5t-38.5 -27
t-26 -47t-9.5 -67.5q0 -45 12 -76zM295 115q24 0 46 8.5t38.5 27t26 47t9.5 67.5q0 44 -12 76l-140 -222q13 -4 32 -4zM335 760h130l-115 -150h-105z" />
    <glyph glyph-name="Scommaaccent" unicode="&#x218;" horiz-adv-x="625" 
d="M310 -10q-58 0 -108 14t-87.5 41.5t-60.5 69t-29 95.5h150q8 -42 43 -66t92 -24q71 0 100.5 23.5t29.5 61.5q0 26 -17 41.5t-44 25t-62 16t-72 15t-72 21.5t-62 35.5t-44 57.5t-17 88q0 51 20 89t55.5 64t83 39t101.5 13q64 0 112 -15.5t81 -43.5t52 -65.5t25 -80.5h-150
q-8 34 -37 54.5t-78 20.5q-57 0 -83.5 -22.5t-26.5 -52.5q0 -27 17 -43.5t44 -27t62 -18t72 -16.5t72 -22t62 -35t44 -55t17 -83q0 -45 -18.5 -84t-54.5 -68.5t-89.5 -46t-122.5 -16.5zM260 -85h115l-75 -170h-85z" />
    <glyph glyph-name="scommaaccent" unicode="&#x219;" horiz-adv-x="515" 
d="M255 -10q-58 0 -100 14t-70 38t-43.5 55.5t-21.5 67.5h150q4 -19 25.5 -34.5t59.5 -15.5q52 0 71 12.5t19 27.5q0 20 -22.5 29t-56.5 16t-73.5 15t-73.5 26.5t-56.5 51t-22.5 87.5q0 34 14 63t41 50.5t67 34t93 12.5q56 0 97 -13t68.5 -35.5t43 -52.5t21.5 -64h-150
q-4 15 -21 27.5t-59 12.5q-34 0 -52 -10t-18 -25q0 -20 22.5 -29t56.5 -16t73.5 -15t73.5 -26.5t56.5 -51t22.5 -87.5q0 -32 -11.5 -61.5t-38.5 -52.5t-72.5 -37t-112.5 -14zM200 -85h115l-75 -170h-85z" />
    <glyph glyph-name="uni021A" unicode="&#x21a;" horiz-adv-x="600" 
d="M225 565h-210v135h570v-135h-210v-565h-150v565zM245 -85h115l-75 -170h-85z" />
    <glyph glyph-name="uni021B" unicode="&#x21b;" horiz-adv-x="410" 
d="M270 0q-83 0 -124 40t-41 115v245h-85v130h85l20 140h120v-140h125v-130h-125v-220q0 -23 13.5 -36.5t36.5 -13.5h75v-130h-100v0zM180 -85h115l-75 -170h-85z" />
    <glyph glyph-name="uni0232" unicode="&#x232;" horiz-adv-x="610" 
d="M230 240l-245 460h160l157 -305h5l158 305h160l-245 -460v-240h-150v240zM155 885h300v-95h-300v95z" />
    <glyph glyph-name="uni0233" unicode="&#x233;" horiz-adv-x="560" 
d="M211 0l-216 530h155l130 -345h4l126 345h155l-290 -730h-145zM130 725h300v-95h-300v95z" />
    <glyph glyph-name="uni0244" unicode="&#x244;" horiz-adv-x="740" 
d="M370 -10q-68 0 -122.5 21t-92.5 61t-59 97.5t-21 130.5v120h-65v115h65v165h150v-165h290v165h150v-165h65v-115h-65v-120q0 -73 -21 -130.5t-59 -97.5t-93 -61t-122 -21zM370 125q64 0 104.5 44t40.5 131v120h-290v-120q0 -87 40.5 -131t104.5 -44z" />
    <glyph glyph-name="uni0259" unicode="&#x259;" horiz-adv-x="585" 
d="M290 -10q-58 0 -105 19.5t-80.5 55t-51.5 84t-18 106.5q0 11 0.5 21t1.5 18q1 9 3 16h365q-8 45 -35 75t-80 30q-41 0 -60.5 -14t-34.5 -36h-150q9 34 27.5 65.5t48 56t71.5 39t98 14.5q60 0 108 -18.5t82 -53.5t52 -86t18 -117t-18 -117t-52 -86t-82 -53.5t-108 -18.5z
M290 115q49 0 76.5 26t38.5 64h-225q4 -17 12.5 -33t22 -29t32.5 -20.5t43 -7.5z" />
    <glyph glyph-name="uni0289" unicode="&#x289;" horiz-adv-x="635" 
d="M275 -10q-43 0 -79 14.5t-61.5 42.5t-40 67.5t-14.5 90.5v135h-60v110h60v80h140v-80h195v80h140v-80h60v-110h-60v-340h-120l-15 60h-5q-26 -34 -62 -52t-78 -18zM315 115q45 0 72.5 30.5t27.5 79.5v115h-195v-115q0 -53 25 -81.5t70 -28.5z" />
    <glyph glyph-name="uni02BC" unicode="&#x2bc;" horiz-adv-x="220" 
d="M75 700h115l-75 -170h-85z" />
    <glyph glyph-name="circumflex" unicode="&#x2c6;" horiz-adv-x="425" 
d="M165 765h95l135 -155h-115l-65 80h-5l-65 -80h-115z" />
    <glyph glyph-name="caron" unicode="&#x2c7;" horiz-adv-x="425" 
d="M30 760h115l65 -80h5l65 80h115l-135 -155h-95z" />
    <glyph glyph-name="breve" unicode="&#x2d8;" horiz-adv-x="400" 
d="M200 610q-32 0 -61 8.5t-52 27t-38 47t-19 67.5h100q4 -30 22 -45t48 -15q62 0 70 60h100q-4 -39 -19 -67.5t-38 -47t-52 -27t-61 -8.5z" />
    <glyph glyph-name="dotaccent" unicode="&#x2d9;" horiz-adv-x="200" 
d="M100 615q-30 0 -50 20t-20 50t20 50t50 20t50 -20t20 -50t-20 -50t-50 -20z" />
    <glyph glyph-name="ring" unicode="&#x2da;" horiz-adv-x="280" 
d="M140 590q-49 0 -79.5 30.5t-30.5 79.5t30.5 79.5t79.5 30.5t79.5 -30.5t30.5 -79.5t-30.5 -79.5t-79.5 -30.5zM140 660q40 0 40 40t-40 40t-40 -40t40 -40z" />
    <glyph glyph-name="ogonek" unicode="&#x2db;" horiz-adv-x="240" 
d="M165 -210q-72 0 -103.5 28t-31.5 77q0 22 7 39.5t17.5 30t24 21t26.5 14.5v10h85v-10q-34 -19 -47 -39t-13 -46q0 -19 12.5 -29.5t42.5 -10.5h25v-85h-45v0z" />
    <glyph glyph-name="tilde" unicode="&#x2dc;" horiz-adv-x="390" 
d="M260 615q-19 0 -34 6t-28.5 13.5t-25 14t-22.5 6.5q-25 0 -25 -35h-95q0 60 29 92.5t71 32.5q19 0 34 -6.5t28.5 -14t25 -13.5t22.5 -6q25 0 25 35h95q0 -60 -29 -92.5t-71 -32.5z" />
    <glyph glyph-name="hungarumlaut" unicode="&#x2dd;" horiz-adv-x="460" 
d="M120 760h130l-120 -150h-100zM300 760h130l-120 -150h-100z" />
    <glyph glyph-name="acutecomb" unicode="&#x301;" horiz-adv-x="0" 
d="M-320 915h130l-115 -150h-105z" />
    <glyph glyph-name="uni0302" unicode="&#x302;" horiz-adv-x="0" 
d="M-405 920h95l135 -155h-115l-65 80h-5l-65 -80h-115z" />
    <glyph glyph-name="uni0304" unicode="&#x304;" horiz-adv-x="0" 
d="M-510 885h300v-95h-300v95z" />
    <glyph glyph-name="uni0306" unicode="&#x306;" horiz-adv-x="0" 
d="M-360 770q-32 0 -61 8.5t-52 27t-38 47t-19 67.5h100q4 -30 22 -45t48 -15q62 0 70 60h100q-4 -39 -19 -67.5t-38 -47t-52 -27t-61 -8.5z" />
    <glyph glyph-name="uni0307" unicode="&#x307;" horiz-adv-x="0" 
d="M-360 775q-30 0 -50 20t-20 50t20 50t50 20t50 -20t20 -50t-20 -50t-50 -20z" />
    <glyph glyph-name="uni0308" unicode="&#x308;" horiz-adv-x="0" 
d="M-460 775q-30 0 -50 20t-20 50t20 50t50 20t50 -20t20 -50t-20 -50t-50 -20zM-260 775q-30 0 -50 20t-20 50t20 50t50 20t50 -20t20 -50t-20 -50t-50 -20z" />
    <glyph glyph-name="uni030A" unicode="&#x30a;" horiz-adv-x="0" 
d="M-360 750q-49 0 -79.5 30.5t-30.5 79.5t30.5 79.5t79.5 30.5t79.5 -30.5t30.5 -79.5t-30.5 -79.5t-79.5 -30.5zM-360 820q40 0 40 40t-40 40t-40 -40t40 -40z" />
    <glyph glyph-name="uni030C" unicode="&#x30c;" horiz-adv-x="0" 
d="M-540 915h115l65 -80h5l65 80h115l-135 -155h-95z" />
    <glyph glyph-name="uni0326" unicode="&#x326;" horiz-adv-x="220" 
d="M75 -85h115l-75 -170h-85z" />
    <glyph glyph-name="uni0400" unicode="&#x400;" horiz-adv-x="600" 
d="M70 700h475v-135h-325v-150h305v-125h-305v-155h335v-135h-485v700zM150 915h130l90 -150h-105z" />
    <glyph glyph-name="uni0401" unicode="&#x401;" horiz-adv-x="600" 
d="M70 700h475v-135h-325v-150h305v-125h-305v-155h335v-135h-485v700zM215 770q-30 0 -50 20t-20 50t20 50t50 20t50 -20t20 -50t-20 -50t-50 -20zM415 770q-30 0 -50 20t-20 50t20 50t50 20t50 -20t20 -50t-20 -50t-50 -20z" />
    <glyph glyph-name="uni0402" unicode="&#x402;" horiz-adv-x="725" 
d="M165 565h-170v135h485v-135h-165v-135q23 11 59.5 18t70.5 7q58 0 103.5 -16.5t77 -46.5t48 -72.5t16.5 -94.5q0 -51 -16.5 -92.5t-48 -71t-77 -45.5t-103.5 -16h-60v135h40q53 0 84 20.5t31 69.5q0 53 -31 76.5t-84 23.5q-38 0 -66.5 -8.5t-43.5 -16.5v-300h-150v565z
" />
    <glyph glyph-name="uni0403" unicode="&#x403;" horiz-adv-x="530" 
d="M70 700h435v-135h-285v-565h-150v700zM325 915h130l-115 -150h-105z" />
    <glyph glyph-name="uni0404" unicode="&#x404;" horiz-adv-x="705" 
d="M370 -10q-75 0 -136 24t-104 70t-66.5 113t-23.5 153t23.5 153t66.5 113t104 70t136 24q66 0 116.5 -17t88 -47.5t62.5 -72.5t38 -93h-155q-9 21 -22 38t-30.5 30t-41.5 20t-56 7q-68 0 -115 -41t-60 -124h235v-120h-235q13 -83 60 -124t115 -41q32 0 56 7t41.5 20
t30.5 30t22 38h155q-13 -51 -38 -93t-62.5 -72.5t-88 -47.5t-116.5 -17z" />
    <glyph glyph-name="uni0405" unicode="&#x405;" horiz-adv-x="625" 
d="M310 -10q-58 0 -108 14t-87.5 41.5t-60.5 69t-29 95.5h150q8 -42 43 -66t92 -24q71 0 100.5 23.5t29.5 61.5q0 26 -17 41.5t-44 25t-62 16t-72 15t-72 21.5t-62 35.5t-44 57.5t-17 88q0 51 20 89t55.5 64t83 39t101.5 13q64 0 112 -15.5t81 -43.5t52 -65.5t25 -80.5h-150
q-8 34 -37 54.5t-78 20.5q-57 0 -83.5 -22.5t-26.5 -52.5q0 -27 17 -43.5t44 -27t62 -18t72 -16.5t72 -22t62 -35t44 -55t17 -83q0 -45 -18.5 -84t-54.5 -68.5t-89.5 -46t-122.5 -16.5z" />
    <glyph glyph-name="uni0406" unicode="&#x406;" horiz-adv-x="290" 
d="M70 700h150v-700h-150v700z" />
    <glyph glyph-name="uni0407" unicode="&#x407;" horiz-adv-x="290" 
d="M70 700h150v-700h-150v700zM45 770q-30 0 -50 20t-20 50t20 50t50 20t50 -20t20 -50t-20 -50t-50 -20zM245 770q-30 0 -50 20t-20 50t20 50t50 20t50 -20t20 -50t-20 -50t-50 -20z" />
    <glyph glyph-name="uni0408" unicode="&#x408;" horiz-adv-x="570" 
d="M265 -10q-109 0 -170.5 58t-69.5 167h150q4 -45 28 -67.5t62 -22.5q42 0 66 27.5t24 87.5v460h150v-460q0 -121 -63.5 -185.5t-176.5 -64.5z" />
    <glyph glyph-name="uni0409" unicode="&#x409;" horiz-adv-x="1010" 
d="M10 135h10q28 0 48 11t32.5 41.5t18.5 86.5t6 146v280h480v-230h130q56 0 101.5 -17.5t77.5 -49t49 -74.5t17 -94t-17 -94t-49 -74.5t-77.5 -49t-101.5 -17.5h-280v565h-180v-160q0 -109 -10 -188t-38 -130.5t-76.5 -76.5t-125.5 -25h-15v150zM720 135q53 0 81.5 27.5
t28.5 72.5t-28.5 72.5t-81.5 27.5h-115v-200h115z" />
    <glyph glyph-name="uni040A" unicode="&#x40a;" horiz-adv-x="1035" 
d="M70 700h150v-255h260v255h150v-255h140q54 0 97.5 -16t74 -45.5t47 -71t16.5 -92.5q0 -49 -16.5 -89.5t-47 -69.5t-74 -45t-97.5 -16h-290v310h-260v-310h-150v700zM760 135q45 0 70 21.5t25 63.5t-25 66t-70 24h-130v-175h130z" />
    <glyph glyph-name="uni040B" unicode="&#x40b;" horiz-adv-x="735" 
d="M165 565h-170v135h485v-135h-165v-135q23 11 59.5 18t70.5 7q230 0 230 -245v-210h-150v210q0 64 -25.5 89.5t-74.5 25.5q-38 0 -66.5 -8.5t-43.5 -16.5v-300h-150v565z" />
    <glyph glyph-name="uni040C" unicode="&#x40c;" horiz-adv-x="640" 
d="M70 700h150v-310l250 310h175l-280 -345l295 -355h-175l-265 320v-320h-150v700zM380 915h130l-115 -150h-105z" />
    <glyph glyph-name="uni040D" unicode="&#x40d;" horiz-adv-x="755" 
d="M70 700h150v-485h5l270 485h190v-700h-150v485h-5l-270 -485h-190v700zM215 915h130l90 -150h-105z" />
    <glyph glyph-name="uni040E" unicode="&#x40e;" horiz-adv-x="590" 
d="M225 185l-240 515h160l155 -335h5l140 335h155l-300 -700h-155zM295 765q-32 0 -61 8.5t-52 27t-38 47t-19 67.5h100q4 -30 22 -45t48 -15q62 0 70 60h100q-4 -39 -19 -67.5t-38 -47t-52 -27t-61 -8.5z" />
    <glyph glyph-name="uni040F" unicode="&#x40f;" horiz-adv-x="710" 
d="M285 0h-215v700h150v-565h270v565h150v-700h-215v-145h-140v145z" />
    <glyph glyph-name="uni0410" unicode="&#x410;" horiz-adv-x="675" 
d="M245 700h185l250 -700h-155l-45 130h-285l-45 -130h-155zM431 265l-91 265h-5l-91 -265h187z" />
    <glyph glyph-name="uni0411" unicode="&#x411;" horiz-adv-x="640" 
d="M70 700h485v-135h-335v-115h150q54 0 97.5 -16t74 -45.5t47 -71t16.5 -92.5t-16.5 -92.5t-47 -71t-74 -45.5t-97.5 -16h-300v700zM350 135q53 0 79 24t26 66t-26 66t-79 24h-130v-180h130z" />
    <glyph glyph-name="uni0412" unicode="&#x412;" horiz-adv-x="665" 
d="M70 700h330q106 0 160.5 -52t54.5 -143q0 -53 -26 -92t-64 -58q42 -19 71 -59.5t29 -100.5q0 -91 -54.5 -143t-160.5 -52h-340v700zM390 130q42 0 63.5 21t21.5 59t-21.5 59t-63.5 21h-170v-160h170zM380 410q42 0 63.5 21t21.5 59t-21.5 59t-63.5 21h-160v-160h160z" />
    <glyph glyph-name="uni0413" unicode="&#x413;" horiz-adv-x="530" 
d="M70 700h435v-135h-285v-565h-150v700z" />
    <glyph glyph-name="uni0414" unicode="&#x414;" horiz-adv-x="725" 
d="M5 135h65q34 57 44.5 132t10.5 173v260h490v-565h85v-280h-140v145h-415v-145h-140v280zM465 135v430h-190v-125q0 -106 -13 -181t-47 -124h250z" />
    <glyph glyph-name="uni0415" unicode="&#x415;" horiz-adv-x="600" 
d="M70 700h475v-135h-325v-150h305v-125h-305v-155h335v-135h-485v700z" />
    <glyph glyph-name="uni0416" unicode="&#x416;" horiz-adv-x="910" 
d="M240 355l-245 345h170l215 -310v310h150v-310l215 310h170l-245 -345l260 -355h-170l-230 320v-320h-150v320l-230 -320h-170z" />
    <glyph glyph-name="uni0417" unicode="&#x417;" horiz-adv-x="630" 
d="M310 -10q-132 0 -204.5 57t-80.5 163h150q4 -26 17 -42.5t31.5 -26t41 -13t45.5 -3.5q68 0 99 21t31 59t-29 59t-101 21h-70v130h70q64 0 92 21t28 59t-31.5 59t-88.5 21q-45 0 -81 -20t-44 -65h-150q11 106 79 163t196 57q67 0 118 -15t84.5 -42t50.5 -63.5t17 -79.5
q0 -60 -30 -100t-75 -55q49 -19 82 -58t33 -107q0 -41 -17 -77.5t-51.5 -63.5t-87.5 -43t-124 -16z" />
    <glyph glyph-name="uni0418" unicode="&#x418;" horiz-adv-x="755" 
d="M70 700h150v-485h5l270 485h190v-700h-150v485h-5l-270 -485h-190v700z" />
    <glyph glyph-name="uni0419" unicode="&#x419;" horiz-adv-x="755" 
d="M70 700h150v-485h5l270 485h190v-700h-150v485h-5l-270 -485h-190v700zM380 765q-32 0 -61 8.5t-52 27t-38 47t-19 67.5h100q4 -30 22 -45t48 -15q62 0 70 60h100q-4 -39 -19 -67.5t-38 -47t-52 -27t-61 -8.5z" />
    <glyph glyph-name="uni041A" unicode="&#x41a;" horiz-adv-x="640" 
d="M70 700h150v-310l250 310h175l-280 -345l295 -355h-175l-265 320v-320h-150v700z" />
    <glyph glyph-name="uni041B" unicode="&#x41b;" horiz-adv-x="690" 
d="M10 135h10q28 0 48 11t32.5 41.5t18.5 86.5t6 146v280h495v-700h-150v565h-195v-160q0 -109 -10 -188t-38 -130.5t-76.5 -76.5t-125.5 -25h-15v150z" />
    <glyph glyph-name="uni041C" unicode="&#x41c;" horiz-adv-x="915" 
d="M70 700h220l165 -485h5l165 485h220v-700h-150v495h-5l-170 -495h-125l-170 495h-5v-495h-150v700z" />
    <glyph glyph-name="uni041D" unicode="&#x41d;" horiz-adv-x="720" 
d="M70 700h150v-280h280v280h150v-700h-150v285h-280v-285h-150v700z" />
    <glyph glyph-name="uni041E" unicode="&#x41e;" horiz-adv-x="740" 
d="M370 -10q-75 0 -136 24t-104 70t-66.5 113t-23.5 153t23.5 153t66.5 113t104 70t136 24t136 -24t104 -70t66.5 -113t23.5 -153t-23.5 -153t-66.5 -113t-104 -70t-136 -24zM370 125q39 0 72 14t57 42t37.5 70.5t13.5 98.5t-13.5 98.5t-37.5 70.5t-57 42t-72 14t-72 -14
t-57 -42t-37.5 -70.5t-13.5 -98.5t13.5 -98.5t37.5 -70.5t57 -42t72 -14z" />
    <glyph glyph-name="uni041F" unicode="&#x41f;" horiz-adv-x="710" 
d="M70 700h570v-700h-150v565h-270v-565h-150v700z" />
    <glyph glyph-name="uni0420" unicode="&#x420;" horiz-adv-x="645" 
d="M70 700h290q54 0 99.5 -18t77.5 -49.5t50 -76t18 -96.5q0 -53 -18 -97t-50 -75.5t-77.5 -49.5t-99.5 -18h-140v-220h-150v700zM345 355q53 0 81.5 28t28.5 77t-28.5 77t-81.5 28h-125v-210h125z" />
    <glyph glyph-name="uni0421" unicode="&#x421;" horiz-adv-x="705" 
d="M370 -10q-75 0 -136 24t-104 70t-66.5 113t-23.5 153t23.5 153t66.5 113t104 70t136 24q66 0 116.5 -17t88 -47.5t62.5 -72.5t38 -93h-155q-9 21 -22 38t-30.5 30t-41.5 20t-56 7q-39 0 -72 -14t-57 -42t-37.5 -70.5t-13.5 -98.5t13.5 -98.5t37.5 -70.5t57 -42t72 -14
q32 0 56 7t41.5 20t30.5 30t22 38h155q-13 -51 -38 -93t-62.5 -72.5t-88 -47.5t-116.5 -17z" />
    <glyph glyph-name="uni0422" unicode="&#x422;" horiz-adv-x="600" 
d="M225 565h-210v135h570v-135h-210v-565h-150v565z" />
    <glyph glyph-name="uni0423" unicode="&#x423;" horiz-adv-x="590" 
d="M225 185l-240 515h160l155 -335h5l140 335h155l-300 -700h-155z" />
    <glyph glyph-name="uni0424" unicode="&#x424;" horiz-adv-x="850" 
d="M350 70q-75 0 -134.5 21.5t-100.5 59.5t-63 90t-22 114t22 114t63 90t100.5 59.5t134.5 21.5v70h150v-70q75 0 134.5 -21.5t100.5 -59.5t63 -90t22 -114t-22 -114t-63 -90t-100.5 -59.5t-134.5 -21.5v-80h-150v80zM350 510q-83 0 -126.5 -41.5t-43.5 -113.5t43.5 -113.5
t126.5 -41.5v310zM500 200q83 0 126.5 41.5t43.5 113.5t-43.5 113.5t-126.5 41.5v-310z" />
    <glyph glyph-name="uni0425" unicode="&#x425;" horiz-adv-x="630" 
d="M220 360l-220 340h170l145 -240l145 240h170l-220 -340l230 -360h-170l-155 260l-155 -260h-170z" />
    <glyph glyph-name="uni0426" unicode="&#x426;" horiz-adv-x="750" 
d="M585 0h-515v700h150v-565h270v565h150v-565h85v-280h-140v145z" />
    <glyph glyph-name="uni0427" unicode="&#x427;" horiz-adv-x="690" 
d="M470 230q-26 -11 -63.5 -20.5t-86.5 -9.5q-128 0 -194 67.5t-66 192.5v240h150v-235q0 -64 35 -97t95 -33q53 0 84 11t46 19v335h150v-700h-150v230z" />
    <glyph glyph-name="uni0428" unicode="&#x428;" horiz-adv-x="980" 
d="M70 700h150v-565h195v565h150v-565h195v565h150v-700h-840v700z" />
    <glyph glyph-name="uni0429" unicode="&#x429;" horiz-adv-x="1020" 
d="M855 0h-785v700h150v-565h195v565h150v-565h195v565h150v-565h85v-280h-140v145z" />
    <glyph glyph-name="uni042A" unicode="&#x42a;" horiz-adv-x="725" 
d="M160 565h-160v135h310v-230h140q56 0 101.5 -17.5t77.5 -49t49 -74.5t17 -94t-17 -94t-49 -74.5t-77.5 -49t-101.5 -17.5h-290v565zM435 135q53 0 81.5 27.5t28.5 72.5t-28.5 72.5t-81.5 27.5h-125v-200h125z" />
    <glyph glyph-name="uni042B" unicode="&#x42b;" horiz-adv-x="880" 
d="M70 700h150v-230h130q56 0 101.5 -17.5t77.5 -49t49 -74.5t17 -94t-17 -94t-49 -74.5t-77.5 -49t-101.5 -17.5h-280v700zM335 135q53 0 81.5 27.5t28.5 72.5t-28.5 72.5t-81.5 27.5h-115v-200h115zM660 700h150v-700h-150v700z" />
    <glyph glyph-name="uni042C" unicode="&#x42c;" horiz-adv-x="635" 
d="M70 700h150v-230h140q56 0 101.5 -17.5t77.5 -49t49 -74.5t17 -94t-17 -94t-49 -74.5t-77.5 -49t-101.5 -17.5h-290v700zM345 135q53 0 81.5 27.5t28.5 72.5t-28.5 72.5t-81.5 27.5h-125v-200h125z" />
    <glyph glyph-name="uni042D" unicode="&#x42d;" horiz-adv-x="700" 
d="M330 -10q-66 0 -117 17t-88.5 47.5t-62 72.5t-37.5 93h155q9 -21 22 -38t30.5 -30t41.5 -20t56 -7q68 0 115 41t60 124h-235v120h235q-13 83 -60 124t-115 41q-32 0 -56 -7t-41.5 -20t-30.5 -30t-22 -38h-155q13 51 37.5 93t62 72.5t88.5 47.5t117 17q75 0 136 -24
t104 -70t66.5 -113t23.5 -153t-23.5 -153t-66.5 -113t-104 -70t-136 -24z" />
    <glyph glyph-name="uni042E" unicode="&#x42e;" horiz-adv-x="980" 
d="M625 -10q-63 0 -116 19.5t-93.5 57t-67 92.5t-34.5 126h-94v-285h-150v700h150v-280h94q9 70 35.5 124t67 91t93.5 56t115 19q69 0 127 -24t100 -70t65 -113t23 -153t-23 -153t-65 -113t-100 -70t-127 -24zM625 125q36 0 66 13.5t52 41t34.5 70t12.5 100.5t-12.5 100.5
t-34.5 70t-52 41t-66 13.5t-66 -13.5t-52 -41t-34.5 -70t-12.5 -100.5t12.5 -100.5t34.5 -70t52 -41t66 -13.5z" />
    <glyph glyph-name="uni042F" unicode="&#x42f;" horiz-adv-x="655" 
d="M200 250q-42 13 -75 42q-14 12 -27.5 28.5t-24 38.5t-17 49.5t-6.5 61.5q0 52 17 94.5t48 72.5t74 46.5t96 16.5h300v-700h-150v240h-70l-165 -240h-175zM435 375v190h-140q-42 0 -68.5 -25t-26.5 -70t26.5 -70t68.5 -25h140z" />
    <glyph glyph-name="uni0430" unicode="&#x430;" horiz-adv-x="555" 
d="M215 -10q-43 0 -77.5 12.5t-58.5 34.5t-36.5 52t-12.5 66t13 66t39 52t64 34.5t89 12.5h125v25q0 38 -24 56.5t-66 18.5q-30 0 -51 -13t-29 -32h-140q7 32 24.5 61.5t45 52.5t66 37t89.5 14q106 0 165.5 -51t59.5 -149v-340h-120l-15 60h-5q-8 -11 -20 -23.5t-30 -23
t-41.5 -17t-53.5 -6.5zM250 105q49 0 79.5 27.5t30.5 72.5v15h-120q-38 0 -54 -16t-16 -39q0 -26 19 -43t61 -17z" />
    <glyph glyph-name="uni0431" unicode="&#x431;" horiz-adv-x="595" 
d="M300 -10q-120 0 -190 75.5t-70 229.5q0 204 70 307t210 103q72 0 121 10t79 25v-135q-26 -15 -71.5 -22.5t-113.5 -7.5q-39 0 -68 -10t-48.5 -28t-31 -44t-17.5 -58h5q19 26 57 43t98 17q51 0 93 -17.5t72.5 -49.5t47.5 -78.5t17 -104.5t-18 -105t-52 -80.5t-82 -51.5
t-108 -18zM300 115q57 0 88.5 35t31.5 95t-31.5 95t-88.5 35t-88.5 -35t-31.5 -95t31.5 -95t88.5 -35z" />
    <glyph glyph-name="uni0432" unicode="&#x432;" horiz-adv-x="540" 
d="M60 530h275q79 0 122 -38.5t43 -106.5q0 -45 -20 -72.5t-50 -42.5q34 -15 57 -44t23 -71q0 -75 -44 -115t-131 -40h-275v530zM310 115q30 0 45 14.5t15 37.5q0 25 -15 39t-45 14h-110v-105h110zM305 325q55 0 55 45t-55 45h-105v-90h105z" />
    <glyph glyph-name="uni0433" unicode="&#x433;" horiz-adv-x="435" 
d="M60 530h355v-130h-215v-400h-140v530z" />
    <glyph glyph-name="uni0434" unicode="&#x434;" horiz-adv-x="600" 
d="M5 130h50q9 15 16.5 31t13 37t8 49.5t2.5 67.5v215h420v-400h65v-250h-135v120h-305v-120h-135v250zM375 130v270h-140v-85q0 -38 -4 -66.5t-11 -50.5t-15 -38.5t-15 -29.5h185z" />
    <glyph glyph-name="uni0435" unicode="&#x435;" horiz-adv-x="585" 
d="M295 -10q-60 0 -108 18.5t-82 53.5t-52 86t-18 117t18 117t52 86t82 53.5t108 18.5q58 0 105 -19.5t80.5 -55t51.5 -84t18 -106.5q0 -11 -1 -21t-2 -18q-1 -9 -2 -16h-365q8 -45 35 -75t80 -30q41 0 60.5 13.5t34.5 36.5h150q-9 -34 -27.5 -65.5t-48 -56t-71.5 -39
t-98 -14.5zM405 325q-4 17 -12.5 33t-22 29t-32.5 20.5t-43 7.5q-49 0 -76.5 -26t-38.5 -64h225z" />
    <glyph glyph-name="uni0436" unicode="&#x436;" horiz-adv-x="800" 
d="M190 270l-195 260h170l165 -225v225h140v-225l165 225h170l-195 -260l210 -270h-170l-180 235v-235h-140v235l-180 -235h-170z" />
    <glyph glyph-name="uni0437" unicode="&#x437;" horiz-adv-x="520" 
d="M260 -10q-56 0 -98 12t-71 34.5t-46.5 55t-24.5 73.5h150q8 -26 28 -38t62 -12t63.5 13.5t21.5 36.5q0 19 -17.5 32t-62.5 13h-55v115h50q75 0 75 45q0 19 -16.5 32t-58.5 13q-34 0 -55 -13.5t-25 -36.5h-145q8 79 62 127t163 48t164.5 -43.5t55.5 -111.5
q0 -45 -23 -72.5t-57 -42.5q42 -19 66 -49.5t24 -75.5q0 -68 -57 -111.5t-173 -43.5z" />
    <glyph glyph-name="uni0438" unicode="&#x438;" horiz-adv-x="610" 
d="M60 530h140v-320h5l190 320h155v-530h-140v325h-5l-190 -325h-155v530z" />
    <glyph glyph-name="uni0439" unicode="&#x439;" horiz-adv-x="610" 
d="M60 530h140v-320h5l190 320h155v-530h-140v325h-5l-190 -325h-155v530zM305 605q-30 0 -57.5 8.5t-49 27t-35.5 47t-18 67.5h100q7 -60 60 -60q52 0 60 60h100q-4 -39 -18 -67.5t-35.5 -47t-49 -27t-57.5 -8.5z" />
    <glyph glyph-name="uni043A" unicode="&#x43a;" horiz-adv-x="555" 
d="M60 530h140v-235l195 235h165l-215 -260l230 -270h-165l-210 245v-245h-140v530z" />
    <glyph glyph-name="uni043B" unicode="&#x43b;" horiz-adv-x="580" 
d="M10 130h15q24 0 39 10t23 33t10.5 60.5t2.5 91.5v205h420v-530h-140v400h-140v-95q0 -68 -7.5 -125.5t-28.5 -99.5t-59 -66t-100 -24h-35v140z" />
    <glyph glyph-name="uni043C" unicode="&#x43c;" horiz-adv-x="745" 
d="M60 530h195l115 -315h5l115 315h195v-530h-140v330h-5l-120 -330h-95l-120 330h-5v-330h-140v530z" />
    <glyph glyph-name="uni043D" unicode="&#x43d;" horiz-adv-x="590" 
d="M60 530h140v-200h190v200h140v-530h-140v200h-190v-200h-140v530z" />
    <glyph glyph-name="uni043E" unicode="&#x43e;" horiz-adv-x="590" 
d="M295 -10q-60 0 -108 18.5t-82 53.5t-52 86t-18 117t18 117t52 86t82 53.5t108 18.5t108 -18.5t82 -53.5t52 -86t18 -117t-18 -117t-52 -86t-82 -53.5t-108 -18.5zM295 115q24 0 46 8.5t38.5 27t26 47t9.5 67.5t-9.5 67.5t-26 47t-38.5 27t-46 8.5t-46 -8.5t-38.5 -27
t-26 -47t-9.5 -67.5t9.5 -67.5t26 -47t38.5 -27t46 -8.5z" />
    <glyph glyph-name="uni043F" unicode="&#x43f;" horiz-adv-x="590" 
d="M60 530h470v-530h-140v400h-190v-400h-140v530z" />
    <glyph glyph-name="uni0440" unicode="&#x440;" horiz-adv-x="615" 
d="M60 530h120l15 -60h5q22 26 58 48t92 22q51 0 93 -17.5t72.5 -52.5t47.5 -86.5t17 -118.5q0 -68 -17 -119t-47.5 -86t-72.5 -52.5t-93 -17.5q-30 0 -53.5 6.5t-41.5 16.5t-30.5 21.5t-19.5 20.5h-5v-255h-140v730zM320 115q24 0 46 8.5t38.5 27t26 47t9.5 67.5t-9.5 67.5
t-26 47t-38.5 27t-46 8.5t-46 -8.5t-38.5 -27t-26 -47t-9.5 -67.5t9.5 -67.5t26 -47t38.5 -27t46 -8.5z" />
    <glyph glyph-name="uni0441" unicode="&#x441;" horiz-adv-x="570" 
d="M295 -10q-60 0 -108 18.5t-82 53.5t-52 86t-18 117t18 117t52 86t82 53.5t108 18.5q56 0 98 -15.5t71.5 -42t48 -61t27.5 -71.5h-140q-15 30 -39 47.5t-66 17.5q-53 0 -86.5 -37.5t-33.5 -112.5t33.5 -112.5t86.5 -37.5q42 0 66 17.5t39 47.5h140q-9 -38 -27.5 -72
t-48 -60.5t-71.5 -42t-98 -15.5z" />
    <glyph glyph-name="uni0442" unicode="&#x442;" horiz-adv-x="490" 
d="M175 400h-165v130h470v-130h-165v-400h-140v400z" />
    <glyph glyph-name="uni0443" unicode="&#x443;" horiz-adv-x="560" 
d="M211 0l-216 530h155l130 -345h4l126 345h155l-290 -730h-145z" />
    <glyph glyph-name="uni0444" unicode="&#x444;" horiz-adv-x="750" 
d="M305 0q-62 0 -112.5 19t-86.5 53.5t-56 83.5t-20 109t20 109t56 83.5t86.5 53.5t112.5 19v190h140v-190q62 0 112.5 -19t86.5 -53.5t56 -83.5t20 -109t-20 -109t-56 -83.5t-86.5 -53.5t-112.5 -19v-200h-140v200zM305 405q-64 0 -99.5 -38t-35.5 -102t35.5 -102t99.5 -38
v280zM445 125q64 0 99.5 38t35.5 102t-35.5 102t-99.5 38v-280z" />
    <glyph glyph-name="uni0445" unicode="&#x445;" horiz-adv-x="500" 
d="M160 275l-160 255h155l95 -165l95 165h155l-160 -255l170 -275h-155l-105 180l-105 -180h-155z" />
    <glyph glyph-name="uni0446" unicode="&#x446;" horiz-adv-x="610" 
d="M455 0h-395v530h140v-400h185v400h140v-400h65v-250h-135v120z" />
    <glyph glyph-name="uni0447" unicode="&#x447;" horiz-adv-x="570" 
d="M370 165q-19 -8 -47.5 -14t-62.5 -6q-106 0 -158 53.5t-52 151.5v180h140v-180q0 -38 23 -59t72 -21q30 0 48 4.5t37 15.5v240h140v-530h-140v165z" />
    <glyph glyph-name="uni0448" unicode="&#x448;" horiz-adv-x="810" 
d="M60 530h140v-400h135v400h140v-400h135v400h140v-530h-690v530z" />
    <glyph glyph-name="uni0449" unicode="&#x449;" horiz-adv-x="835" 
d="M680 0h-620v530h140v-400h135v400h140v-400h135v400h140v-400h65v-250h-135v120z" />
    <glyph glyph-name="uni044A" unicode="&#x44a;" horiz-adv-x="585" 
d="M125 400h-125v130h265v-165h110q41 0 75 -13.5t58.5 -37.5t38 -57t13.5 -72q0 -41 -13.5 -75t-38 -58.5t-58.5 -38t-75 -13.5h-250v400zM355 125q30 0 47.5 15t17.5 45q0 26 -17.5 40.5t-47.5 14.5h-90v-115h90z" />
    <glyph glyph-name="uni044B" unicode="&#x44b;" horiz-adv-x="735" 
d="M60 530h140v-165h100q41 0 75 -13.5t58.5 -37.5t38 -57t13.5 -72q0 -41 -13.5 -75t-38 -58.5t-58.5 -38t-75 -13.5h-240v530zM280 125q30 0 47.5 15t17.5 45q0 26 -17.5 40.5t-47.5 14.5h-80v-115h80zM535 530h140v-530h-140v530z" />
    <glyph glyph-name="uni044C" unicode="&#x44c;" horiz-adv-x="520" 
d="M60 530h140v-165h110q41 0 75 -13.5t58.5 -37.5t38 -57t13.5 -72q0 -41 -13.5 -75t-38 -58.5t-58.5 -38t-75 -13.5h-250v530zM290 125q30 0 47.5 15t17.5 45q0 26 -17.5 40.5t-47.5 14.5h-90v-115h90z" />
    <glyph glyph-name="uni044D" unicode="&#x44d;" horiz-adv-x="565" 
d="M270 -10q-56 0 -98 15.5t-71.5 42t-48 60.5t-27.5 72h140q15 -30 39 -47.5t66 -17.5t71 22.5t42 67.5h-158v120h158q-13 45 -42 67.5t-71 22.5t-66 -17.5t-39 -47.5h-140q9 37 27.5 71.5t48 61t71.5 42t98 15.5q60 0 108 -18.5t82 -53.5t52 -86t18 -117t-18 -117t-52 -86
t-82 -53.5t-108 -18.5z" />
    <glyph glyph-name="uni044E" unicode="&#x44e;" horiz-adv-x="795" 
d="M510 -10q-104 0 -166.5 56.5t-78.5 153.5h-65v-200h-140v530h140v-200h65q16 97 78.5 153.5t166.5 56.5q60 0 106.5 -20t78.5 -56t48.5 -86.5t16.5 -112.5t-16.5 -112.5t-48.5 -86.5t-78.5 -56t-106.5 -20zM510 115q45 0 77.5 35.5t32.5 114.5t-32.5 114.5t-77.5 35.5
t-77.5 -35.5t-32.5 -114.5t32.5 -114.5t77.5 -35.5z" />
    <glyph glyph-name="uni044F" unicode="&#x44f;" horiz-adv-x="545" 
d="M142 190q-47 20 -74.5 61.5t-27.5 98.5q0 41 13.5 74.5t38 57t58.5 36t75 12.5h260v-530h-140v175h-55l-110 -175h-160zM345 300v105h-105q-34 0 -47 -14.5t-13 -40.5q0 -23 13 -36.5t47 -13.5h105z" />
    <glyph glyph-name="uni0450" unicode="&#x450;" horiz-adv-x="585" 
d="M295 -10q-60 0 -108 18.5t-82 53.5t-52 86t-18 117t18 117t52 86t82 53.5t108 18.5q58 0 105 -19.5t80.5 -55t51.5 -84t18 -106.5q0 -11 -1 -21t-2 -18q-1 -9 -2 -16h-365q8 -45 35 -75t80 -30q41 0 60.5 13.5t34.5 36.5h150q-9 -34 -27.5 -65.5t-48 -56t-71.5 -39
t-98 -14.5zM405 325q-4 17 -12.5 33t-22 29t-32.5 20.5t-43 7.5q-49 0 -76.5 -26t-38.5 -64h225zM130 760h130l90 -150h-105z" />
    <glyph glyph-name="uni0451" unicode="&#x451;" horiz-adv-x="585" 
d="M295 -10q-60 0 -108 18.5t-82 53.5t-52 86t-18 117t18 117t52 86t82 53.5t108 18.5q58 0 105 -19.5t80.5 -55t51.5 -84t18 -106.5q0 -11 -1 -21t-2 -18q-1 -9 -2 -16h-365q8 -45 35 -75t80 -30q41 0 60.5 13.5t34.5 36.5h150q-9 -34 -27.5 -65.5t-48 -56t-71.5 -39
t-98 -14.5zM405 325q-4 17 -12.5 33t-22 29t-32.5 20.5t-43 7.5q-49 0 -76.5 -26t-38.5 -64h225zM195 615q-30 0 -50 20t-20 50t20 50t50 20t50 -20t20 -50t-20 -50t-50 -20zM395 615q-30 0 -50 20t-20 50t20 50t50 20t50 -20t20 -50t-20 -50t-50 -20z" />
    <glyph glyph-name="uni0452" unicode="&#x452;" horiz-adv-x="600" 
d="M275 -80h80q23 0 36.5 14.5t13.5 40.5v260q0 53 -25 81.5t-70 28.5t-72.5 -30.5t-27.5 -79.5v-235h-140v525h-75v110h75v65h140v-65h125v-110h-125v-120h5q26 30 58 47.5t77 17.5q43 0 79 -14.5t61.5 -42.5t40 -67.5t14.5 -90.5v-300q0 -79 -39 -117t-126 -38h-105v120z
" />
    <glyph glyph-name="uni0453" unicode="&#x453;" horiz-adv-x="435" 
d="M60 530h355v-130h-215v-400h-140v530zM280 760h130l-115 -150h-105z" />
    <glyph glyph-name="uni0454" unicode="&#x454;" horiz-adv-x="570" 
d="M295 -10q-60 0 -108 18.5t-82 53.5t-52 86t-18 117t18 117t52 86t82 53.5t108 18.5q56 0 98 -15.5t71.5 -42t48 -61t27.5 -71.5h-140q-15 30 -39 47.5t-66 17.5t-71 -22.5t-42 -67.5h158v-120h-158q13 -45 42 -67.5t71 -22.5t66 17.5t39 47.5h140q-9 -38 -27.5 -72
t-48 -60.5t-71.5 -42t-98 -15.5z" />
    <glyph glyph-name="uni0455" unicode="&#x455;" horiz-adv-x="515" 
d="M255 -10q-58 0 -100 14t-70 38t-43.5 55.5t-21.5 67.5h150q4 -19 25.5 -34.5t59.5 -15.5q52 0 71 12.5t19 27.5q0 20 -22.5 29t-56.5 16t-73.5 15t-73.5 26.5t-56.5 51t-22.5 87.5q0 34 14 63t41 50.5t67 34t93 12.5q56 0 97 -13t68.5 -35.5t43 -52.5t21.5 -64h-150
q-4 15 -21 27.5t-59 12.5q-34 0 -52 -10t-18 -25q0 -20 22.5 -29t56.5 -16t73.5 -15t73.5 -26.5t56.5 -51t22.5 -87.5q0 -32 -11.5 -61.5t-38.5 -52.5t-72.5 -37t-112.5 -14z" />
    <glyph glyph-name="uni0456" unicode="&#x456;" horiz-adv-x="260" 
d="M60 530h140v-530h-140v530zM130 585q-34 0 -57 23t-23 57t23 57t57 23t57 -23t23 -57t-23 -57t-57 -23z" />
    <glyph glyph-name="uni0457" unicode="&#x457;" horiz-adv-x="260" 
d="M60 530h140v-530h-140v530zM30 615q-30 0 -50 20t-20 50t20 50t50 20t50 -20t20 -50t-20 -50t-50 -20zM230 615q-30 0 -50 20t-20 50t20 50t50 20t50 -20t20 -50t-20 -50t-50 -20z" />
    <glyph glyph-name="uni0458" unicode="&#x458;" horiz-adv-x="260" 
d="M-70 -80h80q23 0 36.5 14.5t13.5 40.5v555h140v-575q0 -79 -39 -117t-126 -38h-105v120zM130 585q-34 0 -57 23t-23 57t23 57t57 23t57 -23t23 -57t-23 -57t-57 -23z" />
    <glyph glyph-name="uni0459" unicode="&#x459;" horiz-adv-x="830" 
d="M10 130h15q24 0 39 10t23 33t10.5 60.5t2.5 91.5v205h410v-165h110q41 0 75 -13.5t58.5 -37.5t38 -57t13.5 -72q0 -41 -13.5 -75t-38 -58.5t-58.5 -38t-75 -13.5h-250v400h-130v-95q0 -68 -7.5 -125.5t-28.5 -99.5t-59 -66t-100 -24h-35v140zM600 125q30 0 47.5 15
t17.5 45q0 28 -17.5 41.5t-47.5 13.5h-90v-115h90z" />
    <glyph glyph-name="uni045A" unicode="&#x45a;" horiz-adv-x="835" 
d="M60 530h140v-185h175v185h140v-185h120q41 0 73.5 -12.5t55 -35t34.5 -54t12 -68.5q0 -79 -46 -127t-129 -48h-260v215h-175v-215h-140v530zM615 125q23 0 39 12t16 38q0 23 -16 34t-39 11h-100v-95h100z" />
    <glyph glyph-name="uni045B" unicode="&#x45b;" horiz-adv-x="600" 
d="M70 525h-75v110h75v65h140v-65h125v-110h-125v-120h5q26 30 58 47.5t77 17.5q43 0 79 -14.5t61.5 -42.5t40 -67.5t14.5 -90.5v-255h-140v235q0 53 -25 81.5t-70 28.5t-72.5 -30.5t-27.5 -79.5v-235h-140v525z" />
    <glyph glyph-name="uni045C" unicode="&#x45c;" horiz-adv-x="555" 
d="M60 530h140v-235l195 235h165l-215 -260l230 -270h-165l-210 245v-245h-140v530zM335 760h130l-115 -150h-105z" />
    <glyph glyph-name="uni045D" unicode="&#x45d;" horiz-adv-x="610" 
d="M60 530h140v-320h5l190 320h155v-530h-140v325h-5l-190 -325h-155v530zM140 760h130l90 -150h-105z" />
    <glyph glyph-name="uni045E" unicode="&#x45e;" horiz-adv-x="560" 
d="M211 0l-216 530h155l130 -345h4l126 345h155l-290 -730h-145zM280 605q-30 0 -57.5 8.5t-49 27t-35.5 47t-18 67.5h100q7 -60 60 -60q52 0 60 60h100q-4 -39 -18 -67.5t-35.5 -47t-49 -27t-57.5 -8.5z" />
    <glyph glyph-name="uni045F" unicode="&#x45f;" horiz-adv-x="595" 
d="M230 0h-170v530h140v-400h195v400h140v-530h-170v-120h-135v120z" />
    <glyph glyph-name="uni0490" unicode="&#x490;" horiz-adv-x="530" 
d="M70 700h290v140h145v-275h-285v-565h-150v700z" />
    <glyph glyph-name="uni0491" unicode="&#x491;" horiz-adv-x="435" 
d="M60 530h225v120h130v-250h-215v-400h-140v530z" />
    <glyph glyph-name="uni0492" unicode="&#x492;" horiz-adv-x="585" 
d="M100 265h-85v135h85v300h460v-135h-310v-165h185v-135h-185v-265h-150v265z" />
    <glyph glyph-name="uni0493" unicode="&#x493;" horiz-adv-x="450" 
d="M75 180h-70v120h70v230h355v-130h-215v-100h145v-120h-145v-180h-140v180z" />
    <glyph glyph-name="uni0494" unicode="&#x494;" horiz-adv-x="645" 
d="M330 -10q64 0 102 35t38 110q0 22 -8.5 45t-25.5 42t-42 30.5t-59 11.5q-28 0 -49.5 -5.5t-36 -12.5t-22 -12l-7.5 -5v-229h-150v700h455v-135h-305v-195q15 8 36 15q18 5 44 10t60 5q64 0 112.5 -19t81.5 -53.5t49.5 -83.5t16.5 -109q0 -135 -77.5 -207.5t-212.5 -72.5
v135z" />
    <glyph glyph-name="uni0495" unicode="&#x495;" horiz-adv-x="530" 
d="M280 -70q45 0 67.5 27.5t22.5 87.5t-23 95t-72 35q-19 0 -33 -5t-23 -10q-11 -7 -19 -15v-145h-140v530h365v-130h-225v-125q11 7 25 12q12 5 29.5 9t40.5 4q47 0 86.5 -15t68 -46.5t44.5 -79.5t16 -114q0 -121 -60.5 -183t-169.5 -62v130z" />
    <glyph glyph-name="uni0496" unicode="&#x496;" horiz-adv-x="920" 
d="M800 0h-40l-230 320v-320h-150v320l-230 -320h-170l260 355l-245 345h170l215 -310v310h150v-310l215 310h170l-245 -345l161 -220h109v-280h-140v145z" />
    <glyph glyph-name="uni0497" unicode="&#x497;" horiz-adv-x="800" 
d="M680 0h-30l-180 235v-235h-140v235l-180 -235h-170l210 270l-195 260h170l165 -225v225h140v-225l165 225h170l-195 -260l109 -140h96v-250h-135v120z" />
    <glyph glyph-name="uni049A" unicode="&#x49a;" horiz-adv-x="645" 
d="M525 0h-40l-265 320v-320h-150v700h150v-310l250 310h175l-280 -345l183 -220h117v-280h-140v145z" />
    <glyph glyph-name="uni049B" unicode="&#x49b;" horiz-adv-x="555" 
d="M435 0h-25l-210 245v-245h-140v530h140v-235l195 235h165l-215 -260l119 -140h106v-250h-135v120z" />
    <glyph glyph-name="uni049C" unicode="&#x49c;" horiz-adv-x="665" 
d="M70 700h150v-285h30v95h80v-95h20l155 285h165l-200 -345l210 -355h-160l-170 290h-20v-95h-80v95h-30v-290h-150v700z" />
    <glyph glyph-name="uni049D" unicode="&#x49d;" horiz-adv-x="575" 
d="M60 530h140v-200h20v65h70v-65h15l110 200h155l-150 -260q40 -68 82 -135t83 -135h-155l-125 210h-15v-65h-70v65h-20v-210h-140v530z" />
    <glyph glyph-name="uni04A2" unicode="&#x4a2;" horiz-adv-x="760" 
d="M595 0h-95v285h-280v-285h-150v700h150v-280h280v280h150v-565h85v-280h-140v145z" />
    <glyph glyph-name="uni04A3" unicode="&#x4a3;" horiz-adv-x="615" 
d="M460 0h-70v200h-190v-200h-140v530h140v-200h190v200h140v-400h65v-250h-135v120z" />
    <glyph glyph-name="uni04AA" unicode="&#x4aa;" horiz-adv-x="705" 
d="M295 -3q-118 21 -186.5 111.5t-68.5 241.5q0 86 23.5 153t66.5 113t104 70t136 24q66 0 116.5 -17t88 -47.5t62.5 -72.5t38 -93h-155q-9 21 -22 38t-30.5 30t-41.5 20t-56 7q-39 0 -72 -14t-57 -42t-37.5 -70.5t-13.5 -98.5t13.5 -98.5t37.5 -70.5t57 -42t72 -14
q32 0 56 7t41.5 20t30.5 30t22 38h155q-11 -44 -31 -81t-49 -66.5t-67.5 -49t-87.5 -27.5v-141h-145v142z" />
    <glyph glyph-name="uni04AB" unicode="&#x4ab;" horiz-adv-x="570" 
d="M230 -4q-92 18 -143.5 87t-51.5 182q0 66 18 117t52 86t82 53.5t108 18.5q56 0 98 -15.5t71.5 -42t48 -61t27.5 -71.5h-140q-15 30 -39 47.5t-66 17.5q-53 0 -86.5 -37.5t-33.5 -112.5t33.5 -112.5t86.5 -37.5q42 0 66 17.5t39 47.5h140q-8 -31 -22 -60t-35 -53.5
t-50.5 -42t-67.5 -26.5v-118h-135v116z" />
    <glyph glyph-name="uni04AE" unicode="&#x4ae;" horiz-adv-x="610" 
d="M230 240l-245 460h160l157 -305h5l158 305h160l-245 -460v-240h-150v240z" />
    <glyph glyph-name="uni04AF" unicode="&#x4af;" horiz-adv-x="545" 
d="M205 0h-20l-190 530h150l125 -375h5l125 375h150l-190 -530h-20v-200h-135v200z" />
    <glyph glyph-name="uni04B0" unicode="&#x4b0;" horiz-adv-x="610" 
d="M230 230h-160v130h96l-181 340h160l157 -305h5l158 305h160l-181 -340h96v-130h-160v-230h-150v230z" />
    <glyph glyph-name="uni04B1" unicode="&#x4b1;" horiz-adv-x="545" 
d="M205 0h-120v120h60l-150 410h150l125 -375h5l125 375h150l-150 -410h60v-120h-120v-200h-135v200z" />
    <glyph glyph-name="uni04B2" unicode="&#x4b2;" horiz-adv-x="640" 
d="M505 0h-35l-155 260l-155 -260h-170l230 360l-220 340h170l145 -240l145 240h170l-220 -340l143 -225h92v-280h-140v145z" />
    <glyph glyph-name="uni04B3" unicode="&#x4b3;" horiz-adv-x="515" 
d="M385 0h-30l-105 180l-105 -180h-155l170 275l-160 255h155l95 -165l95 165h155l-160 -255l89 -145h91v-250h-135v120z" />
    <glyph glyph-name="uni04B6" unicode="&#x4b6;" horiz-adv-x="730" 
d="M565 0h-95v230q-26 -11 -63.5 -20.5t-86.5 -9.5q-128 0 -194 67.5t-66 192.5v240h150v-235q0 -64 35 -97t95 -33q53 0 84 11t46 19v335h150v-565h85v-280h-140v145z" />
    <glyph glyph-name="uni04B7" unicode="&#x4b7;" horiz-adv-x="595" 
d="M440 0h-70v165q-19 -8 -47.5 -14t-62.5 -6q-106 0 -158 53.5t-52 151.5v180h140v-180q0 -38 23 -59t72 -21q30 0 48 4.5t37 15.5v240h140v-400h65v-250h-135v120z" />
    <glyph glyph-name="uni04B8" unicode="&#x4b8;" horiz-adv-x="690" 
d="M470 230q-16 -7 -36 -13t-44 -11v-91h-95v85q-116 7 -175.5 74.5t-59.5 185.5v240h150v-235q0 -51 22.5 -82t62.5 -42v119h95v-122q30 5 49.5 13t30.5 14v335h150v-700h-150v230z" />
    <glyph glyph-name="uni04B9" unicode="&#x4b9;" horiz-adv-x="570" 
d="M370 165q-10 -4 -23 -8t-27 -7v-65h-75v60q-98 4 -146.5 57t-48.5 148v180h140v-180q0 -61 55 -75v60h75v-63q14 2 25.5 6t24.5 12v240h140v-530h-140v165z" />
    <glyph glyph-name="uni04BA" unicode="&#x4ba;" horiz-adv-x="690" 
d="M70 700h150v-230q26 11 63.5 20.5t86.5 9.5q128 0 194 -67.5t66 -192.5v-240h-150v235q0 64 -35 97t-95 33q-53 0 -84 -11t-46 -19v-335h-150v700z" />
    <glyph glyph-name="uni04BB" unicode="&#x4bb;" horiz-adv-x="595" 
d="M65 700h140v-225h5q26 30 58 47.5t77 17.5q43 0 79 -14.5t61.5 -42.5t40 -67.5t14.5 -90.5v-325h-140v305q0 53 -25 81.5t-70 28.5t-72.5 -30.5t-27.5 -79.5v-305h-140v700z" />
    <glyph glyph-name="uni04C1" unicode="&#x4c1;" horiz-adv-x="910" 
d="M240 355l-245 345h170l215 -310v310h150v-310l215 310h170l-245 -345l260 -355h-170l-230 320v-320h-150v320l-230 -320h-170zM455 765q-32 0 -61 8.5t-52 27t-38 47t-19 67.5h100q4 -30 22 -45t48 -15q62 0 70 60h100q-4 -39 -19 -67.5t-38 -47t-52 -27t-61 -8.5z" />
    <glyph glyph-name="uni04C2" unicode="&#x4c2;" horiz-adv-x="800" 
d="M190 270l-195 260h170l165 -225v225h140v-225l165 225h170l-195 -260l210 -270h-170l-180 235v-235h-140v235l-180 -235h-170zM400 605q-30 0 -57.5 8.5t-49 27t-35.5 47t-18 67.5h100q7 -60 60 -60q52 0 60 60h100q-4 -39 -18 -67.5t-35.5 -47t-49 -27t-57.5 -8.5z" />
    <glyph glyph-name="uni04D2" unicode="&#x4d2;" horiz-adv-x="675" 
d="M245 700h185l250 -700h-155l-45 130h-285l-45 -130h-155zM431 265l-91 265h-5l-91 -265h187zM240 770q-30 0 -50 20t-20 50t20 50t50 20t50 -20t20 -50t-20 -50t-50 -20zM440 770q-30 0 -50 20t-20 50t20 50t50 20t50 -20t20 -50t-20 -50t-50 -20z" />
    <glyph glyph-name="uni04D3" unicode="&#x4d3;" horiz-adv-x="555" 
d="M215 -10q-43 0 -77.5 12.5t-58.5 34.5t-36.5 52t-12.5 66t13 66t39 52t64 34.5t89 12.5h125v25q0 38 -24 56.5t-66 18.5q-30 0 -51 -13t-29 -32h-140q7 32 24.5 61.5t45 52.5t66 37t89.5 14q106 0 165.5 -51t59.5 -149v-340h-120l-15 60h-5q-8 -11 -20 -23.5t-30 -23
t-41.5 -17t-53.5 -6.5zM250 105q49 0 79.5 27.5t30.5 72.5v15h-120q-38 0 -54 -16t-16 -39q0 -26 19 -43t61 -17zM185 615q-30 0 -50 20t-20 50t20 50t50 20t50 -20t20 -50t-20 -50t-50 -20zM385 615q-30 0 -50 20t-20 50t20 50t50 20t50 -20t20 -50t-20 -50t-50 -20z" />
    <glyph glyph-name="uni04D8" unicode="&#x4d8;" horiz-adv-x="730" 
d="M360 -10q-71 0 -130 23.5t-101 70.5t-65.5 117t-23.5 164v35h496q-10 81 -55.5 128t-120.5 47q-60 0 -93 -23t-52 -57h-155q11 43 34 82t59.5 68.5t87.5 47t119 17.5q75 0 136 -24t104 -70t66.5 -113t23.5 -153t-23.5 -153t-66.5 -113t-104 -70t-136 -24zM360 125
q37 0 67 12.5t52 34t36 50.5t20 63h-345q11 -83 54.5 -121.5t115.5 -38.5z" />
    <glyph glyph-name="uni04D9" unicode="&#x4d9;" horiz-adv-x="585" 
d="M290 -10q-58 0 -105 19.5t-80.5 55t-51.5 84t-18 106.5q0 11 0.5 21t1.5 18q1 9 3 16h365q-8 45 -35 75t-80 30q-41 0 -60.5 -14t-34.5 -36h-150q9 34 27.5 65.5t48 56t71.5 39t98 14.5q60 0 108 -18.5t82 -53.5t52 -86t18 -117t-18 -117t-52 -86t-82 -53.5t-108 -18.5z
M290 115q49 0 76.5 26t38.5 64h-225q4 -17 12.5 -33t22 -29t32.5 -20.5t43 -7.5z" />
    <glyph glyph-name="uni04E0" unicode="&#x4e0;" horiz-adv-x="625" 
d="M305 -10q-132 0 -204.5 57t-80.5 163h150q4 -24 17 -40.5t31.5 -26.5t41 -14t45.5 -4q67 0 98.5 28.5t31.5 66.5q0 42 -27.5 66t-102.5 24h-125v120l172 135h-302v135h515v-120l-190 -150h5q47 0 85 -15.5t64.5 -43.5t41 -67.5t14.5 -88.5q0 -41 -15 -81.5t-48 -72.5
t-86.5 -51.5t-130.5 -19.5z" />
    <glyph glyph-name="uni04E1" unicode="&#x4e1;" horiz-adv-x="535" 
d="M265 -200q-62 0 -109.5 16.5t-80 46t-49 68.5t-16.5 84h140q4 -42 34.5 -66t75.5 -24q49 0 77 26.5t28 83.5q0 105 -120 105h-115v110l180 150h-265v130h445v-130l-180 -150q97 -11 146 -70.5t49 -149.5q0 -105 -62 -167.5t-178 -62.5z" />
    <glyph glyph-name="uni04E2" unicode="&#x4e2;" horiz-adv-x="755" 
d="M70 700h150v-485h5l270 485h190v-700h-150v485h-5l-270 -485h-190v700zM230 885h300v-95h-300v95z" />
    <glyph glyph-name="uni04E3" unicode="&#x4e3;" horiz-adv-x="610" 
d="M60 530h140v-320h5l190 320h155v-530h-140v325h-5l-190 -325h-155v530zM155 725h300v-95h-300v95z" />
    <glyph glyph-name="uni04E6" unicode="&#x4e6;" horiz-adv-x="740" 
d="M370 -10q-75 0 -136 24t-104 70t-66.5 113t-23.5 153t23.5 153t66.5 113t104 70t136 24t136 -24t104 -70t66.5 -113t23.5 -153t-23.5 -153t-66.5 -113t-104 -70t-136 -24zM370 125q39 0 72 14t57 42t37.5 70.5t13.5 98.5t-13.5 98.5t-37.5 70.5t-57 42t-72 14t-72 -14
t-57 -42t-37.5 -70.5t-13.5 -98.5t13.5 -98.5t37.5 -70.5t57 -42t72 -14zM270 770q-30 0 -50 20t-20 50t20 50t50 20t50 -20t20 -50t-20 -50t-50 -20zM470 770q-30 0 -50 20t-20 50t20 50t50 20t50 -20t20 -50t-20 -50t-50 -20z" />
    <glyph glyph-name="uni04E7" unicode="&#x4e7;" horiz-adv-x="590" 
d="M295 -10q-60 0 -108 18.5t-82 53.5t-52 86t-18 117t18 117t52 86t82 53.5t108 18.5t108 -18.5t82 -53.5t52 -86t18 -117t-18 -117t-52 -86t-82 -53.5t-108 -18.5zM295 115q24 0 46 8.5t38.5 27t26 47t9.5 67.5t-9.5 67.5t-26 47t-38.5 27t-46 8.5t-46 -8.5t-38.5 -27
t-26 -47t-9.5 -67.5t9.5 -67.5t26 -47t38.5 -27t46 -8.5zM195 615q-30 0 -50 20t-20 50t20 50t50 20t50 -20t20 -50t-20 -50t-50 -20zM395 615q-30 0 -50 20t-20 50t20 50t50 20t50 -20t20 -50t-20 -50t-50 -20z" />
    <glyph glyph-name="uni04E8" unicode="&#x4e8;" horiz-adv-x="740" 
d="M370 -10q-75 0 -136 24t-104 70t-66.5 113t-23.5 153t23.5 153t66.5 113t104 70t136 24t136 -24t104 -70t66.5 -113t23.5 -153t-23.5 -153t-66.5 -113t-104 -70t-136 -24zM370 125q68 0 115 41t60 124h-351q14 -83 61 -124t115 -41zM546 405q-13 85 -60 127.5t-116 42.5
t-116.5 -42.5t-59.5 -127.5h352z" />
    <glyph glyph-name="uni04E9" unicode="&#x4e9;" horiz-adv-x="590" 
d="M295 -10q-60 0 -108 18.5t-82 53.5t-52 86t-18 117t18 117t52 86t82 53.5t108 18.5t108 -18.5t82 -53.5t52 -86t18 -117t-18 -117t-52 -86t-82 -53.5t-108 -18.5zM295 115q42 0 72 23t42 72h-228q12 -49 42 -72t72 -23zM409 320q-12 49 -42 72t-72 23t-72 -23t-42 -72
h228z" />
    <glyph glyph-name="uni04EE" unicode="&#x4ee;" horiz-adv-x="590" 
d="M225 185l-240 515h160l155 -335h5l140 335h155l-300 -700h-155zM145 885h300v-95h-300v95z" />
    <glyph glyph-name="uni04EF" unicode="&#x4ef;" horiz-adv-x="560" 
d="M211 0l-216 530h155l130 -345h4l126 345h155l-290 -730h-145zM130 725h300v-95h-300v95z" />
    <glyph glyph-name="uni04F0" unicode="&#x4f0;" horiz-adv-x="590" 
d="M225 185l-240 515h160l155 -335h5l140 335h155l-300 -700h-155zM195 770q-30 0 -50 20t-20 50t20 50t50 20t50 -20t20 -50t-20 -50t-50 -20zM395 770q-30 0 -50 20t-20 50t20 50t50 20t50 -20t20 -50t-20 -50t-50 -20z" />
    <glyph glyph-name="uni04F1" unicode="&#x4f1;" horiz-adv-x="560" 
d="M211 0l-216 530h155l130 -345h4l126 345h155l-290 -730h-145zM180 615q-30 0 -50 20t-20 50t20 50t50 20t50 -20t20 -50t-20 -50t-50 -20zM380 615q-30 0 -50 20t-20 50t20 50t50 20t50 -20t20 -50t-20 -50t-50 -20z" />
    <glyph glyph-name="Wgrave" unicode="&#x1e80;" horiz-adv-x="950" 
d="M5 700h155l110 -485h5l120 485h160l120 -485h5l110 485h155l-185 -700h-165l-120 485l-120 -485h-165zM310 915h130l90 -150h-105z" />
    <glyph glyph-name="wgrave" unicode="&#x1e81;" horiz-adv-x="805" 
d="M5 530h145l90 -355h5l90 355h145l90 -355h5l90 355h135l-145 -530h-155l-90 335h-5l-90 -335h-165zM240 760h130l90 -150h-105z" />
    <glyph glyph-name="Wacute" unicode="&#x1e82;" horiz-adv-x="950" 
d="M5 700h155l110 -485h5l120 485h160l120 -485h5l110 485h155l-185 -700h-165l-120 485l-120 -485h-165zM515 915h130l-115 -150h-105z" />
    <glyph glyph-name="wacute" unicode="&#x1e83;" horiz-adv-x="805" 
d="M5 530h145l90 -355h5l90 355h145l90 -355h5l90 355h135l-145 -530h-155l-90 335h-5l-90 -335h-165zM450 760h130l-115 -150h-105z" />
    <glyph glyph-name="Wdieresis" unicode="&#x1e84;" horiz-adv-x="950" 
d="M5 700h155l110 -485h5l120 485h160l120 -485h5l110 485h155l-185 -700h-165l-120 485l-120 -485h-165zM375 770q-30 0 -50 20t-20 50t20 50t50 20t50 -20t20 -50t-20 -50t-50 -20zM575 770q-30 0 -50 20t-20 50t20 50t50 20t50 -20t20 -50t-20 -50t-50 -20z" />
    <glyph glyph-name="wdieresis" unicode="&#x1e85;" horiz-adv-x="805" 
d="M5 530h145l90 -355h5l90 355h145l90 -355h5l90 355h135l-145 -530h-155l-90 335h-5l-90 -335h-165zM305 615q-30 0 -50 20t-20 50t20 50t50 20t50 -20t20 -50t-20 -50t-50 -20zM505 615q-30 0 -50 20t-20 50t20 50t50 20t50 -20t20 -50t-20 -50t-50 -20z" />
    <glyph glyph-name="uni1E9E" unicode="&#x1e9e;" horiz-adv-x="690" 
d="M65 480q0 106 56 163t154 57h350v-130l-135 -140v-5q32 -6 61.5 -21.5t52.5 -41.5t37 -61.5t14 -80.5q0 -105 -62.5 -162.5t-167.5 -57.5h-105v135h80q57 0 81 24t24 66q0 38 -25 64t-85 26h-65v115l130 135h-155q-42 0 -66 -22.5t-24 -67.5v-475h-150v480z" />
    <glyph glyph-name="Ygrave" unicode="&#x1ef2;" horiz-adv-x="610" 
d="M230 240l-245 460h160l157 -305h5l158 305h160l-245 -460v-240h-150v240zM140 915h130l90 -150h-105z" />
    <glyph glyph-name="ygrave" unicode="&#x1ef3;" horiz-adv-x="560" 
d="M211 0l-216 530h155l130 -345h4l126 345h155l-290 -730h-145zM115 760h130l90 -150h-105z" />
    <glyph glyph-name="endash" unicode="&#x2013;" horiz-adv-x="585" 
d="M30 345h525v-125h-525v125z" />
    <glyph glyph-name="emdash" unicode="&#x2014;" horiz-adv-x="835" 
d="M30 345h775v-125h-775v125z" />
    <glyph glyph-name="quoteleft" unicode="&#x2018;" horiz-adv-x="215" 
d="M90 700h105l-40 -210h-125z" />
    <glyph glyph-name="quoteright" unicode="&#x2019;" horiz-adv-x="215" 
d="M70 700h125l-60 -210h-105z" />
    <glyph glyph-name="quotesinglbase" unicode="&#x201a;" horiz-adv-x="210" 
d="M55 100h125l-60 -210h-105z" />
    <glyph glyph-name="quotedblleft" unicode="&#x201c;" horiz-adv-x="400" 
d="M90 700h105l-40 -210h-125zM275 700h105l-40 -210h-125z" />
    <glyph glyph-name="quotedblright" unicode="&#x201d;" horiz-adv-x="400" 
d="M70 700h125l-60 -210h-105zM255 700h125l-60 -210h-105z" />
    <glyph glyph-name="quotedblbase" unicode="&#x201e;" horiz-adv-x="395" 
d="M55 100h125l-60 -210h-105zM240 100h125l-60 -210h-105z" />
    <glyph glyph-name="dagger" unicode="&#x2020;" horiz-adv-x="490" 
d="M175 415h-120v135h120v150h140v-150h120v-135h-120v-415h-140v415z" />
    <glyph glyph-name="daggerdbl" unicode="&#x2021;" horiz-adv-x="490" 
d="M175 150h-120v135h120v130h-120v135h120v150h140v-150h120v-135h-120v-130h120v-135h-120v-150h-140v150z" />
    <glyph glyph-name="bullet" unicode="&#x2022;" horiz-adv-x="470" 
d="M235 175q-24 0 -45 9.5t-36.5 25.5t-24.5 36.5t-9 43.5q0 22 9 43t24.5 37t36.5 25.5t45 9.5t45 -9.5t36.5 -25.5t24.5 -37t9 -43q0 -23 -9 -43.5t-24.5 -36.5t-36.5 -25.5t-45 -9.5z" />
    <glyph glyph-name="ellipsis" unicode="&#x2026;" horiz-adv-x="760" 
d="M115 -5q-34 0 -57 23t-23 57t23 57t57 23t57 -23t23 -57t-23 -57t-57 -23zM380 -5q-34 0 -57 23t-23 57t23 57t57 23t57 -23t23 -57t-23 -57t-57 -23zM645 -5q-34 0 -57 23t-23 57t23 57t57 23t57 -23t23 -57t-23 -57t-57 -23z" />
    <glyph glyph-name="perthousand" unicode="&#x2030;" horiz-adv-x="1135" 
d="M545 700h110l-435 -700h-110zM570 -10q-36 0 -65.5 11.5t-50.5 33.5t-32.5 52t-11.5 68q0 37 11.5 67.5t32.5 52.5t50.5 33.5t65.5 11.5t65.5 -11.5t50.5 -33.5t32.5 -52.5t11.5 -67.5q0 -38 -11.5 -68t-32.5 -52t-50.5 -33.5t-65.5 -11.5zM570 75q30 0 50 21t20 59
t-20 59t-50 21t-50 -21t-20 -59t20 -59t50 -21zM940 -10q-36 0 -65.5 11.5t-50.5 33.5t-32.5 52t-11.5 68q0 37 11.5 67.5t32.5 52.5t50.5 33.5t65.5 11.5t65.5 -11.5t50.5 -33.5t32.5 -52.5t11.5 -67.5q0 -38 -11.5 -68t-32.5 -52t-50.5 -33.5t-65.5 -11.5zM940 75
q30 0 50 21t20 59t-20 59t-50 21t-50 -21t-20 -59t20 -59t50 -21zM195 380q-36 0 -65.5 11.5t-50.5 33.5t-32.5 52t-11.5 68q0 37 11.5 67.5t32.5 52.5t50.5 33.5t65.5 11.5t65.5 -11.5t50.5 -33.5t32.5 -52.5t11.5 -67.5q0 -38 -11.5 -68t-32.5 -52t-50.5 -33.5
t-65.5 -11.5zM195 465q30 0 50 21t20 59t-20 59t-50 21t-50 -21t-20 -59t20 -59t50 -21z" />
    <glyph glyph-name="guilsinglleft" unicode="&#x2039;" horiz-adv-x="430" 
d="M35 270l215 240h155l-215 -237v-6l215 -237h-155z" />
    <glyph glyph-name="guilsinglright" unicode="&#x203a;" horiz-adv-x="430" 
d="M240 267v6l-215 237h155l215 -240l-215 -240h-155z" />
    <glyph glyph-name="fraction" unicode="&#x2044;" horiz-adv-x="160" 
d="M250 700h95l-435 -700h-95z" />
    <glyph glyph-name="uni2070" unicode="&#x2070;" horiz-adv-x="390" 
d="M195 395q-36 0 -66 13t-52 39t-34.5 64t-12.5 89t12.5 89t34.5 64t52 39t66 13t66 -13t52 -39t34.5 -64t12.5 -89t-12.5 -89t-34.5 -64t-52 -39t-66 -13zM195 480q30 0 52.5 28t22.5 92t-22.5 92t-52.5 28t-52.5 -28t-22.5 -92t22.5 -92t52.5 -28z" />
    <glyph glyph-name="uni2074" unicode="&#x2074;" horiz-adv-x="345" 
d="M185 485h-180v80l160 235h110v-235h60v-80h-60v-85h-90v85zM185 565v120h-5l-80 -120h85z" />
    <glyph glyph-name="uni2075" unicode="&#x2075;" horiz-adv-x="350" 
d="M175 395q-32 0 -59.5 9t-48 25t-33 38t-14.5 48h95q4 -15 19 -25t41 -10q60 0 60 55q0 30 -17.5 45t-47.5 15q-23 0 -34.5 -8.5t-15.5 -16.5h-90l25 230h250v-80h-178l-7 -65h5q7 3 17 7q8 3 20.5 5.5t27.5 2.5q60 0 97.5 -35.5t37.5 -98.5q0 -61 -39 -101t-111 -40z" />
    <glyph glyph-name="uni2076" unicode="&#x2076;" horiz-adv-x="350" 
d="M175 395q-39 0 -68.5 12t-48.5 33t-28.5 48t-9.5 57q0 38 11.5 66t28.5 54l90 135h100l-85 -125h15q34 0 61.5 -10.5t47 -29.5t30.5 -44.5t11 -55.5t-11 -55.5t-31 -44.5t-48.5 -29.5t-64.5 -10.5zM175 480q30 0 47.5 17t17.5 43t-17.5 43t-47.5 17t-47.5 -17t-17.5 -43
t17.5 -43t47.5 -17z" />
    <glyph glyph-name="uni2077" unicode="&#x2077;" horiz-adv-x="305" 
d="M195 720h-170v80h265v-80l-140 -320h-95z" />
    <glyph glyph-name="uni2078" unicode="&#x2078;" horiz-adv-x="360" 
d="M180 395q-66 0 -108 31.5t-42 88.5q0 26 13 52t47 43q-23 11 -36.5 35t-13.5 50q0 45 36 77.5t104 32.5t104 -32.5t36 -77.5q0 -26 -13.5 -50t-36.5 -35q34 -17 47 -43t13 -52q0 -57 -42 -88.5t-108 -31.5zM180 475q30 0 45 15.5t15 34.5t-15 34.5t-45 15.5t-45 -15.5
t-15 -34.5t15 -34.5t45 -15.5zM180 645q26 0 38 12.5t12 27.5t-12 27.5t-38 12.5t-38 -12.5t-12 -27.5t12 -27.5t38 -12.5z" />
    <glyph glyph-name="uni2079" unicode="&#x2079;" horiz-adv-x="350" 
d="M185 525h-15q-34 0 -61.5 10.5t-47 29.5t-30.5 44.5t-11 55.5t11 55.5t31 44.5t48.5 29.5t64.5 10.5q39 0 68.5 -12t48.5 -33t28.5 -48t9.5 -57q0 -38 -11.5 -66t-28.5 -54l-90 -135h-100zM175 600q30 0 47.5 17t17.5 43t-17.5 43t-47.5 17t-47.5 -17t-17.5 -43t17.5 -43
t47.5 -17z" />
    <glyph glyph-name="uni2080" unicode="&#x2080;" horiz-adv-x="390" 
d="M195 -105q-36 0 -66 13t-52 39t-34.5 64t-12.5 89t12.5 89t34.5 64t52 39t66 13t66 -13t52 -39t34.5 -64t12.5 -89t-12.5 -89t-34.5 -64t-52 -39t-66 -13zM195 -20q30 0 52.5 28t22.5 92t-22.5 92t-52.5 28t-52.5 -28t-22.5 -92t22.5 -92t52.5 -28z" />
    <glyph glyph-name="uni2081" unicode="&#x2081;" horiz-adv-x="270" 
d="M120 160h-90v85h65q25 0 25 25v30h90v-400h-90v260z" />
    <glyph glyph-name="uni2082" unicode="&#x2082;" horiz-adv-x="335" 
d="M25 -20l145 135q20 19 30 35t10 35q0 15 -11 25t-34 10q-45 0 -45 -40h-95q2 26 11 49t26 40t43.5 26.5t64.5 9.5q64 0 99.5 -33.5t35.5 -86.5q0 -34 -15 -60t-45 -55l-95 -90h150v-80h-275v80z" />
    <glyph glyph-name="uni2083" unicode="&#x2083;" horiz-adv-x="345" 
d="M170 -105q-68 0 -107 31t-43 84h95q4 -15 16.5 -22.5t38.5 -7.5q23 0 36.5 11t13.5 34q0 19 -13.5 29.5t-36.5 10.5h-35v80h35q26 0 35.5 12.5t9.5 27.5t-12 25t-38 10t-36 -10.5t-14 -29.5h-95q4 57 38.5 91t106.5 34t108.5 -32.5t36.5 -77.5q0 -34 -18 -55.5t-37 -29.5
q60 -30 60 -90q0 -23 -8 -45t-25 -40t-45 -29t-67 -11z" />
    <glyph glyph-name="uni2084" unicode="&#x2084;" horiz-adv-x="345" 
d="M185 -15h-180v80l160 235h110v-235h60v-80h-60v-85h-90v85zM185 65v120h-5l-80 -120h85z" />
    <glyph glyph-name="uni2085" unicode="&#x2085;" horiz-adv-x="350" 
d="M175 -105q-32 0 -59.5 9t-48 25t-33 38t-14.5 48h95q4 -15 19 -25t41 -10q60 0 60 55q0 30 -17.5 45t-47.5 15q-23 0 -34.5 -8.5t-15.5 -16.5h-90l25 230h250v-80h-178l-7 -65h5q7 3 17 7q8 3 20.5 5.5t27.5 2.5q60 0 97.5 -35.5t37.5 -98.5q0 -61 -39 -101t-111 -40z
" />
    <glyph glyph-name="uni2086" unicode="&#x2086;" horiz-adv-x="350" 
d="M175 -105q-39 0 -68.5 12t-48.5 33t-28.5 48t-9.5 57q0 38 11.5 66t28.5 54l90 135h100l-85 -125h15q34 0 61.5 -10.5t47 -29.5t30.5 -44.5t11 -55.5t-11 -55.5t-31 -44.5t-48.5 -29.5t-64.5 -10.5zM175 -20q30 0 47.5 17t17.5 43t-17.5 43t-47.5 17t-47.5 -17t-17.5 -43
t17.5 -43t47.5 -17z" />
    <glyph glyph-name="uni2087" unicode="&#x2087;" horiz-adv-x="305" 
d="M195 220h-170v80h265v-80l-140 -320h-95z" />
    <glyph glyph-name="uni2088" unicode="&#x2088;" horiz-adv-x="360" 
d="M180 -105q-66 0 -108 31.5t-42 88.5q0 26 13 52t47 43q-23 11 -36.5 35t-13.5 50q0 45 36 77.5t104 32.5t104 -32.5t36 -77.5q0 -26 -13.5 -50t-36.5 -35q34 -17 47 -43t13 -52q0 -57 -42 -88.5t-108 -31.5zM180 -25q30 0 45 15.5t15 34.5t-15 34.5t-45 15.5t-45 -15.5
t-15 -34.5t15 -34.5t45 -15.5zM180 145q26 0 38 12.5t12 27.5t-12 27.5t-38 12.5t-38 -12.5t-12 -27.5t12 -27.5t38 -12.5z" />
    <glyph glyph-name="uni2089" unicode="&#x2089;" horiz-adv-x="350" 
d="M185 25h-15q-34 0 -61.5 10.5t-47 29.5t-30.5 44.5t-11 55.5t11 55.5t31 44.5t48.5 29.5t64.5 10.5q39 0 68.5 -12t48.5 -33t28.5 -48t9.5 -57q0 -38 -11.5 -66t-28.5 -54l-90 -135h-100zM175 100q30 0 47.5 17t17.5 43t-17.5 43t-47.5 17t-47.5 -17t-17.5 -43t17.5 -43
t47.5 -17z" />
    <glyph glyph-name="uni20A9" unicode="&#x20a9;" horiz-adv-x="985" 
d="M163 195h-143v115h119l-17 80h-102v115h77l-42 195h150l31 -195h133l41 195h165l41 -195h133l31 195h150l-42 -195h77v-115h-102l-17 -80h119v-115h-143l-42 -195h-170l-41 195h-153l-41 -195h-170zM295 155l8 40h-19l6 -40h5zM328 310l17 80h-91l12 -80h62zM545 310
l-17 80h-71l-17 -80h105zM695 155l6 40h-19l8 -40h5zM504 505l-9 40h-5l-9 -40h23zM719 310l12 80h-91l17 -80h62z" />
    <glyph glyph-name="Euro" unicode="&#x20ac;" horiz-adv-x="750" 
d="M425 -10q-121 0 -203 61t-113 174h-94v95h80v60h-80v95h94q31 113 113 174t203 61q60 0 108.5 -15t85.5 -43t62.5 -66.5t38.5 -85.5h-155q-19 30 -51.5 52.5t-88.5 22.5q-122 0 -160 -100h230v-95h-250v-60h250v-95h-230q38 -100 160 -100q56 0 88.5 22.5t51.5 52.5h155
q-13 -47 -38.5 -85.5t-62.5 -66.5t-85.5 -43t-108.5 -15z" />
    <glyph glyph-name="uni20B4" unicode="&#x20b4;" horiz-adv-x="655" 
d="M330 -10q-56 0 -102 13t-79 35.5t-51 52.5t-18 64q0 19 4.5 40t15.5 40h-55v90h565v-90h-355q-7 -8 -13.5 -22t-6.5 -33q0 -26 25 -43t70 -17t70 14.5t40 40.5h150q-15 -83 -81 -134t-179 -51zM45 465h355q7 8 13.5 22t6.5 33q0 26 -25 43t-70 17t-70 -14.5t-40 -40.5
h-150q15 83 81 134t179 51q56 0 102 -13t79 -35.5t51 -52.5t18 -64q0 -19 -4.5 -40t-15.5 -40h55v-90h-565v90z" />
    <glyph glyph-name="uni20B8" unicode="&#x20b8;" horiz-adv-x="630" 
d="M240 375h-210v135h570v-135h-210v-375h-150v375zM30 700h570v-135h-570v135z" />
    <glyph glyph-name="uni20B9" unicode="&#x20b9;" horiz-adv-x="595" 
d="M195 225h-160v120h205q49 0 75.5 17.5t34.5 47.5h-315v105h315q-8 30 -34.5 47.5t-75.5 17.5h-205v120h535v-120h-100q6 -6 11 -16q5 -8 10 -20t9 -29h70v-105h-70q-6 -39 -20.5 -68t-35 -49t-44 -33t-45.5 -20l175 -240h-170z" />
    <glyph glyph-name="uni20BA" unicode="&#x20ba;" horiz-adv-x="610" 
d="M115 230l-90 -35v115l90 35v60l-90 -35v115l90 35v180h150v-125l150 55v-115l-150 -55v-60l150 55v-115l-150 -55v-150q47 0 79.5 4.5t53 18t30.5 36.5t12 61h150q-2 -71 -23 -120t-62.5 -79t-105 -43t-149.5 -13h-135v230z" />
    <glyph glyph-name="uni20BD" unicode="&#x20bd;" horiz-adv-x="650" 
d="M90 95h-75v120h75v55h-75v125h75v305h300q52 0 94 -15.5t71 -43.5t44.5 -67.5t15.5 -88.5t-15.5 -88.5t-44.5 -67.5t-71 -43.5t-94 -15.5h-150v-55h195v-120h-195v-95h-150v95zM370 395q45 0 70 21.5t25 63.5t-25 63.5t-70 21.5h-130v-170h130z" />
    <glyph glyph-name="uni20BF" unicode="&#x20bf;" horiz-adv-x="665" 
d="M160 0h-90v700h90v110h120v-110h65v110h120v-116q74 -16 112 -65t38 -124q0 -53 -26 -92t-64 -58q42 -19 71 -59.5t29 -100.5q0 -78 -41 -127.5t-119 -63.5v-114h-120v110h-65v-110h-120v110zM390 130q42 0 63.5 21t21.5 59t-21.5 59t-63.5 21h-170v-160h170zM380 410
q42 0 63.5 21t21.5 59t-21.5 59t-63.5 21h-160v-160h160z" />
    <glyph glyph-name="uni2113" unicode="&#x2113;" horiz-adv-x="425" 
d="M250 -10q-75 0 -115 35.5t-40 114.5v75q-12 -4 -26 -8q-12 -3 -28.5 -5t-35.5 -2v90q19 0 35.5 3t28.5 7q14 4 26 10v255q0 72 40.5 108.5t104.5 36.5q32 0 59.5 -9.5t47.5 -30.5t31.5 -53t11.5 -77q0 -56 -16 -103t-43 -84.5t-63.5 -65.5t-77.5 -47v-100q0 -30 20.5 -45
t54.5 -15q13 0 25 2t21 5q11 4 19 8v-95q-9 -3 -21 -5q-23 -5 -59 -5zM190 345q49 30 77 80.5t28 114.5q0 80 -55 80q-23 0 -36.5 -15.5t-13.5 -49.5v-210z" />
    <glyph glyph-name="uni2116" unicode="&#x2116;" horiz-adv-x="1140" 
d="M70 700h195l265 -480h5v480h150v-700h-195l-265 480h-5v-480h-150v700zM770 110h320v-110h-320v110zM930 170q-38 0 -69 12.5t-53.5 35t-35 53.5t-12.5 69q0 37 12.5 68.5t35 54t53.5 35t69 12.5q37 0 68.5 -12.5t54 -35t35 -54t12.5 -68.5q0 -38 -12.5 -69t-35 -53.5
t-54 -35t-68.5 -12.5zM930 270q26 0 43 18t17 52t-17 52t-43 18t-43 -18t-17 -52t17 -52t43 -18z" />
    <glyph glyph-name="uni2117" unicode="&#x2117;" horiz-adv-x="820" 
d="M410 -10q-79 0 -145 26.5t-114 74.5t-74.5 114t-26.5 145t26.5 145t74.5 114t114 74.5t145 26.5t145 -26.5t114 -74.5t74.5 -114t26.5 -145t-26.5 -145t-74.5 -114t-114 -74.5t-145 -26.5zM410 80q58 0 106.5 19.5t84 55.5t55 85.5t19.5 109.5t-19.5 109.5t-55 85.5
t-84 55.5t-106.5 19.5t-106.5 -19.5t-84 -55.5t-55 -85.5t-19.5 -109.5t19.5 -109.5t55 -85.5t84 -55.5t106.5 -19.5zM275 540h160q34 0 59 -9.5t42 -26.5t25.5 -40t8.5 -49q0 -57 -33.5 -93.5t-101.5 -36.5h-70v-120h-90v375zM430 365q23 0 36.5 12t13.5 38q0 23 -13.5 34
t-36.5 11h-65v-95h65z" />
    <glyph glyph-name="trademark" unicode="&#x2122;" horiz-adv-x="740" 
d="M110 615h-95v85h275v-85h-95v-225h-85v225zM320 700h125l55 -180h5l55 180h125v-310h-85v180h-5l-55 -180h-75l-55 180h-5v-180h-85v310z" />
    <glyph glyph-name="uni2126" unicode="&#x2126;" horiz-adv-x="820" 
d="M90 90h110q-39 26 -70 66q-26 35 -48 88t-22 131q0 75 24.5 136.5t70 106t110 68.5t145.5 24t145.5 -24t110 -68.5t70 -106t24.5 -136.5q0 -78 -22 -131t-48 -88q-31 -40 -70 -66h110v-90h-255v90q52 23 92 62q17 16 34 37.5t30 48t21 58t8 69.5q0 56 -18.5 103t-52 80.5
t-79.5 52.5t-100 19t-100 -19t-79.5 -52.5t-52 -80.5t-18.5 -103q0 -38 8 -69.5t21 -58t29.5 -48t33.5 -37.5q40 -39 93 -62v-90h-255v90z" />
    <glyph glyph-name="estimated" unicode="&#x212e;" horiz-adv-x="850" 
d="M440 -20q-83 0 -152.5 28t-120 77t-79 114.5t-28.5 140.5t28.5 140.5t78 114.5t117 77t146.5 28t146.5 -28t117 -77t78 -114.5t28.5 -140.5v-5h-575q-15 0 -15 -15v-195q0 -6 0.5 -13.5t4.5 -16.5t12 -18.5t23 -19.5q4 -2 17.5 -10.5t37.5 -17.5t57.5 -16.5t77.5 -7.5
q66 0 115 20.5t83 46.5q39 30 67 68h55q-33 -45 -81 -80q-41 -30 -100.5 -55t-138.5 -25zM635 360q15 0 15 15v185q0 11 -5 28.5t-35 37.5q-6 4 -21.5 12t-39 16t-53.5 14.5t-66 6.5t-66 -6.5t-53.5 -14.5t-39 -16t-21.5 -12q-30 -20 -35 -37.5t-5 -28.5v-185q0 -15 15 -15
h410z" />
    <glyph glyph-name="uni2150" unicode="&#x2150;" horiz-adv-x="785" 
d="M525 700h95l-435 -700h-95zM120 560h-90v85h65q25 0 25 25v30h90v-400h-90v260zM645 320h-170v80h265v-80l-140 -320h-95z" />
    <glyph glyph-name="uni2151" unicode="&#x2151;" horiz-adv-x="790" 
d="M525 700h95l-435 -700h-95zM120 560h-90v85h65q25 0 25 25v30h90v-400h-90v260zM610 125h-15q-34 0 -61.5 10.5t-47 29.5t-30.5 44.5t-11 55.5t11 55.5t31 44.5t48.5 29.5t64.5 10.5q39 0 68.5 -12t48.5 -33t28.5 -48t9.5 -57q0 -38 -11.5 -66t-28.5 -54l-90 -135h-100z
M600 200q30 0 47.5 17t17.5 43t-17.5 43t-47.5 17t-47.5 -17t-17.5 -43t17.5 -43t47.5 -17z" />
    <glyph glyph-name="uni2152" unicode="&#x2152;" horiz-adv-x="1060" 
d="M525 700h95l-435 -700h-95zM120 560h-90v85h65q25 0 25 25v30h90v-400h-90v260zM555 260h-90v85h65q25 0 25 25v30h90v-400h-90v260zM850 -5q-36 0 -66 13t-52 39t-34.5 64t-12.5 89t12.5 89t34.5 64t52 39t66 13t66 -13t52 -39t34.5 -64t12.5 -89t-12.5 -89t-34.5 -64
t-52 -39t-66 -13zM850 80q30 0 52.5 28t22.5 92t-22.5 92t-52.5 28t-52.5 -28t-22.5 -92t22.5 -92t52.5 -28z" />
    <glyph glyph-name="onethird" unicode="&#x2153;" horiz-adv-x="795" 
d="M525 700h95l-435 -700h-95zM120 560h-90v85h65q25 0 25 25v30h90v-400h-90v260zM605 -5q-68 0 -107 31t-43 84h95q4 -15 16.5 -22.5t38.5 -7.5q23 0 36.5 11t13.5 34q0 19 -13.5 29.5t-36.5 10.5h-35v80h35q26 0 35.5 12.5t9.5 27.5t-12 25t-38 10t-36 -10.5t-14 -29.5
h-95q4 57 38.5 91t106.5 34t108.5 -32.5t36.5 -77.5q0 -34 -18 -55.5t-37 -29.5q60 -30 60 -90q0 -23 -8 -45t-25 -40t-45 -29t-67 -11z" />
    <glyph glyph-name="twothirds" unicode="&#x2154;" horiz-adv-x="865" 
d="M600 700h95l-435 -700h-95zM35 380l145 135q20 19 30 35t10 35q0 15 -11 25t-34 10q-45 0 -45 -40h-95q2 26 11 49t26 40t43.5 26.5t64.5 9.5q64 0 99.5 -33.5t35.5 -86.5q0 -34 -15 -60t-45 -55l-95 -90h150v-80h-275v80zM675 -5q-68 0 -107 31t-43 84h95
q4 -15 16.5 -22.5t38.5 -7.5q23 0 36.5 11t13.5 34q0 19 -13.5 29.5t-36.5 10.5h-35v80h35q26 0 35.5 12.5t9.5 27.5t-12 25t-38 10t-36 -10.5t-14 -29.5h-95q4 57 38.5 91t106.5 34t108.5 -32.5t36.5 -77.5q0 -34 -18 -55.5t-37 -29.5q60 -30 60 -90q0 -23 -8 -45t-25 -40
t-45 -29t-67 -11z" />
    <glyph glyph-name="uni2155" unicode="&#x2155;" horiz-adv-x="805" 
d="M525 700h95l-435 -700h-95zM120 560h-90v85h65q25 0 25 25v30h90v-400h-90v260zM610 -5q-32 0 -59.5 9t-48 25t-33 38t-14.5 48h95q4 -15 19 -25t41 -10q60 0 60 55q0 30 -17.5 45t-47.5 15q-23 0 -34.5 -8.5t-15.5 -16.5h-90l25 230h250v-80h-178l-7 -65h5q7 3 17 7
q8 3 20.5 5.5t27.5 2.5q60 0 97.5 -35.5t37.5 -98.5q0 -61 -39 -101t-111 -40z" />
    <glyph glyph-name="uni2156" unicode="&#x2156;" horiz-adv-x="885" 
d="M600 700h95l-435 -700h-95zM35 380l145 135q20 19 30 35t10 35q0 15 -11 25t-34 10q-45 0 -45 -40h-95q2 26 11 49t26 40t43.5 26.5t64.5 9.5q64 0 99.5 -33.5t35.5 -86.5q0 -34 -15 -60t-45 -55l-95 -90h150v-80h-275v80zM690 -5q-32 0 -59.5 9t-48 25t-33 38t-14.5 48
h95q4 -15 19 -25t41 -10q60 0 60 55q0 30 -17.5 45t-47.5 15q-23 0 -34.5 -8.5t-15.5 -16.5h-90l25 230h250v-80h-178l-7 -65h5q7 3 17 7q8 3 20.5 5.5t27.5 2.5q60 0 97.5 -35.5t37.5 -98.5q0 -61 -39 -101t-111 -40z" />
    <glyph glyph-name="uni2157" unicode="&#x2157;" horiz-adv-x="880" 
d="M600 700h95l-435 -700h-95zM180 295q-68 0 -107 31t-43 84h95q4 -15 16.5 -22.5t38.5 -7.5q23 0 36.5 11t13.5 34q0 19 -13.5 29.5t-36.5 10.5h-35v80h35q26 0 35.5 12.5t9.5 27.5t-12 25t-38 10t-36 -10.5t-14 -29.5h-95q4 57 38.5 91t106.5 34t108.5 -32.5t36.5 -77.5
q0 -34 -18 -55.5t-37 -29.5q60 -30 60 -90q0 -23 -8 -45t-25 -40t-45 -29t-67 -11zM685 -5q-32 0 -59.5 9t-48 25t-33 38t-14.5 48h95q4 -15 19 -25t41 -10q60 0 60 55q0 30 -17.5 45t-47.5 15q-23 0 -34.5 -8.5t-15.5 -16.5h-90l25 230h250v-80h-178l-7 -65h5q7 3 17 7
q8 3 20.5 5.5t27.5 2.5q60 0 97.5 -35.5t37.5 -98.5q0 -61 -39 -101t-111 -40z" />
    <glyph glyph-name="uni2158" unicode="&#x2158;" horiz-adv-x="900" 
d="M620 700h95l-435 -700h-95zM200 385h-180v80l160 235h110v-235h60v-80h-60v-85h-90v85zM200 465v120h-5l-80 -120h85zM705 -5q-32 0 -59.5 9t-48 25t-33 38t-14.5 48h95q4 -15 19 -25t41 -10q60 0 60 55q0 30 -17.5 45t-47.5 15q-23 0 -34.5 -8.5t-15.5 -16.5h-90l25 230
h250v-80h-178l-7 -65h5q7 3 17 7q8 3 20.5 5.5t27.5 2.5q60 0 97.5 -35.5t37.5 -98.5q0 -61 -39 -101t-111 -40z" />
    <glyph glyph-name="uni2159" unicode="&#x2159;" horiz-adv-x="775" 
d="M525 700h95l-435 -700h-95zM120 560h-90v85h65q25 0 25 25v30h90v-400h-90v260zM585 -5q-39 0 -68.5 12t-48.5 33t-28.5 48t-9.5 57q0 38 11.5 66t28.5 54l90 135h100l-85 -125h15q34 0 61.5 -10.5t47 -29.5t30.5 -44.5t11 -55.5t-11 -55.5t-31 -44.5t-48.5 -29.5
t-64.5 -10.5zM585 80q30 0 47.5 17t17.5 43t-17.5 43t-47.5 17t-47.5 -17t-17.5 -43t17.5 -43t47.5 -17z" />
    <glyph glyph-name="uni215A" unicode="&#x215a;" horiz-adv-x="870" 
d="M620 700h95l-435 -700h-95zM190 295q-32 0 -59.5 9t-48 25t-33 38t-14.5 48h95q4 -15 19 -25t41 -10q60 0 60 55q0 30 -17.5 45t-47.5 15q-23 0 -34.5 -8.5t-15.5 -16.5h-90l25 230h250v-80h-178l-7 -65h5q7 3 17 7q8 3 20.5 5.5t27.5 2.5q60 0 97.5 -35.5t37.5 -98.5
q0 -61 -39 -101t-111 -40zM680 -5q-39 0 -68.5 12t-48.5 33t-28.5 48t-9.5 57q0 38 11.5 66t28.5 54l90 135h100l-85 -125h15q34 0 61.5 -10.5t47 -29.5t30.5 -44.5t11 -55.5t-11 -55.5t-31 -44.5t-48.5 -29.5t-64.5 -10.5zM680 80q30 0 47.5 17t17.5 43t-17.5 43t-47.5 17
t-47.5 -17t-17.5 -43t17.5 -43t47.5 -17z" />
    <glyph glyph-name="oneeighth" unicode="&#x215b;" horiz-adv-x="800" 
d="M525 700h95l-435 -700h-95zM120 560h-90v85h65q25 0 25 25v30h90v-400h-90v260zM605 -5q-66 0 -108 31.5t-42 88.5q0 26 13 52t47 43q-23 11 -36.5 35t-13.5 50q0 45 36 77.5t104 32.5t104 -32.5t36 -77.5q0 -26 -13.5 -50t-36.5 -35q34 -17 47 -43t13 -52
q0 -57 -42 -88.5t-108 -31.5zM605 75q30 0 45 15.5t15 34.5t-15 34.5t-45 15.5t-45 -15.5t-15 -34.5t15 -34.5t45 -15.5zM605 245q26 0 38 12.5t12 27.5t-12 27.5t-38 12.5t-38 -12.5t-12 -27.5t12 -27.5t38 -12.5z" />
    <glyph glyph-name="threeeighths" unicode="&#x215c;" horiz-adv-x="875" 
d="M600 700h95l-435 -700h-95zM180 295q-68 0 -107 31t-43 84h95q4 -15 16.5 -22.5t38.5 -7.5q23 0 36.5 11t13.5 34q0 19 -13.5 29.5t-36.5 10.5h-35v80h35q26 0 35.5 12.5t9.5 27.5t-12 25t-38 10t-36 -10.5t-14 -29.5h-95q4 57 38.5 91t106.5 34t108.5 -32.5t36.5 -77.5
q0 -34 -18 -55.5t-37 -29.5q60 -30 60 -90q0 -23 -8 -45t-25 -40t-45 -29t-67 -11zM680 -5q-66 0 -108 31.5t-42 88.5q0 26 13 52t47 43q-23 11 -36.5 35t-13.5 50q0 45 36 77.5t104 32.5t104 -32.5t36 -77.5q0 -26 -13.5 -50t-36.5 -35q34 -17 47 -43t13 -52
q0 -57 -42 -88.5t-108 -31.5zM680 75q30 0 45 15.5t15 34.5t-15 34.5t-45 15.5t-45 -15.5t-15 -34.5t15 -34.5t45 -15.5zM680 245q26 0 38 12.5t12 27.5t-12 27.5t-38 12.5t-38 -12.5t-12 -27.5t12 -27.5t38 -12.5z" />
    <glyph glyph-name="fiveeighths" unicode="&#x215d;" horiz-adv-x="895" 
d="M620 700h95l-435 -700h-95zM190 295q-32 0 -59.5 9t-48 25t-33 38t-14.5 48h95q4 -15 19 -25t41 -10q60 0 60 55q0 30 -17.5 45t-47.5 15q-23 0 -34.5 -8.5t-15.5 -16.5h-90l25 230h250v-80h-178l-7 -65h5q7 3 17 7q8 3 20.5 5.5t27.5 2.5q60 0 97.5 -35.5t37.5 -98.5
q0 -61 -39 -101t-111 -40zM700 -5q-66 0 -108 31.5t-42 88.5q0 26 13 52t47 43q-23 11 -36.5 35t-13.5 50q0 45 36 77.5t104 32.5t104 -32.5t36 -77.5q0 -26 -13.5 -50t-36.5 -35q34 -17 47 -43t13 -52q0 -57 -42 -88.5t-108 -31.5zM700 75q30 0 45 15.5t15 34.5t-15 34.5
t-45 15.5t-45 -15.5t-15 -34.5t15 -34.5t45 -15.5zM700 245q26 0 38 12.5t12 27.5t-12 27.5t-38 12.5t-38 -12.5t-12 -27.5t12 -27.5t38 -12.5z" />
    <glyph glyph-name="seveneighths" unicode="&#x215e;" horiz-adv-x="795" 
d="M525 700h95l-435 -700h-95zM210 620h-170v80h265v-80l-140 -320h-95zM600 -5q-66 0 -108 31.5t-42 88.5q0 26 13 52t47 43q-23 11 -36.5 35t-13.5 50q0 45 36 77.5t104 32.5t104 -32.5t36 -77.5q0 -26 -13.5 -50t-36.5 -35q34 -17 47 -43t13 -52q0 -57 -42 -88.5
t-108 -31.5zM600 75q30 0 45 15.5t15 34.5t-15 34.5t-45 15.5t-45 -15.5t-15 -34.5t15 -34.5t45 -15.5zM600 245q26 0 38 12.5t12 27.5t-12 27.5t-38 12.5t-38 -12.5t-12 -27.5t12 -27.5t38 -12.5z" />
    <glyph glyph-name="uni215F" unicode="&#x215f;" horiz-adv-x="435" 
d="M525 700h95l-435 -700h-95zM120 560h-90v85h65q25 0 25 25v30h90v-400h-90v260z" />
    <glyph glyph-name="uni2190" unicode="&#x2190;" 
d="M150 345v5l215 215l70 -70l-100 -100h515v-95h-515l100 -100l-70 -70z" />
    <glyph glyph-name="uni2191" unicode="&#x2191;" 
d="M450 515l-100 -100l-70 70l215 215h5l215 -215l-70 -70l-100 100v-515h-95v515z" />
    <glyph glyph-name="uni2192" unicode="&#x2192;" 
d="M565 200l100 100h-515v95h515l-100 100l70 70l215 -215v-5l-215 -215z" />
    <glyph glyph-name="uni2193" unicode="&#x2193;" 
d="M280 215l70 70l100 -100v515h95v-515l100 100l70 -70l-215 -215h-5z" />
    <glyph glyph-name="uni2194" unicode="&#x2194;" 
d="M130 345v5l215 215l70 -70l-100 -100h370l-100 100l70 70l215 -215v-5l-215 -215l-70 70l100 100h-370l100 -100l-70 -70z" />
    <glyph glyph-name="uni2195" unicode="&#x2195;" 
d="M280 195l70 70l100 -100v370l-100 -100l-70 70l215 215h5l215 -215l-70 -70l-100 100v-370l100 100l70 -70l-215 -215h-5z" />
    <glyph glyph-name="uni2196" unicode="&#x2196;" 
d="M295 490v-150h-95v300l10 10h300v-95h-150l435 -435l-65 -65z" />
    <glyph glyph-name="uni2197" unicode="&#x2197;" 
d="M205 120l435 435h-150v95h300l10 -10v-300h-95v150l-435 -435z" />
    <glyph glyph-name="uni2198" unicode="&#x2198;" 
d="M490 145h150l-435 435l65 65l435 -435v150h95v-300l-10 -10h-300v95z" />
    <glyph glyph-name="uni2199" unicode="&#x2199;" 
d="M200 60v300h95v-150l435 435l65 -65l-435 -435h150v-95h-300z" />
    <glyph glyph-name="uni21C5" unicode="&#x21c5;" 
d="M285 515l-100 -100l-70 70l215 215h5l215 -215l-70 -70l-100 100v-515h-95v515zM450 215l70 70l100 -100v515h95v-515l100 100l70 -70l-215 -215h-5z" />
    <glyph glyph-name="uni21F5" unicode="&#x21f5;" 
d="M115 215l70 70l100 -100v515h95v-515l100 100l70 -70l-215 -215h-5zM620 515l-100 -100l-70 70l215 215h5l215 -215l-70 -70l-100 100v-515h-95v515z" />
    <glyph glyph-name="partialdiff" unicode="&#x2202;" horiz-adv-x="580" 
d="M275 -10q-51 0 -93 15.5t-72.5 45.5t-47.5 74t-17 100q0 52 16 94.5t44.5 72.5t68 46.5t86.5 16.5q97 0 165 -60h5q0 51 -11.5 92.5t-32.5 71t-50.5 45.5t-65.5 16q-38 0 -61 -16t-34 -39h-101q6 26 20.5 52t38.5 46.5t58 33.5t79 13q121 0 188 -89.5t67 -270.5
q0 -84 -14 -151t-44 -113.5t-77.5 -71t-114.5 -24.5zM275 80q32 0 59.5 12.5t47.5 37t31.5 62t11.5 88.5q-14 24 -34 42q-18 16 -45.5 29.5t-65.5 13.5q-60 0 -100 -36t-40 -104t37.5 -106.5t97.5 -38.5z" />
    <glyph glyph-name="emptyset" unicode="&#x2205;" horiz-adv-x="820" 
d="M410 -10q-113 0 -196 51l-39 -46h-125l91 108q-42 47 -64 109.5t-22 137.5q0 81 26 147t73 113.5t112 73.5t144 26q57 0 105.5 -13.5t90.5 -38.5l39 47h125l-91 -109q41 -47 63.5 -109t22.5 -137q0 -81 -26 -147t-73 -113.5t-112 -73.5t-144 -26zM543 583q-59 37 -133 37
q-54 0 -101 -19.5t-81 -55.5t-53.5 -85.5t-19.5 -109.5q0 -50 13.5 -92.5t37.5 -76.5zM410 80q54 0 101 19.5t81 55.5t53.5 85.5t19.5 109.5q0 50 -13.5 92t-38.5 76l-337 -402q29 -17 62.5 -26.5t71.5 -9.5z" />
    <glyph glyph-name="uni2206" unicode="&#x2206;" horiz-adv-x="650" 
d="M260 700h130l250 -700h-630zM505 90l-180 505l-180 -505h360z" />
    <glyph glyph-name="product" unicode="&#x220f;" horiz-adv-x="710" 
d="M90 700h530v-810h-105v715h-320v-715h-105v810z" />
    <glyph glyph-name="summation" unicode="&#x2211;" horiz-adv-x="590" 
d="M60 -20l220 335l-220 295v90h480v-95h-360l220 -290l-220 -330h360v-95h-480v90z" />
    <glyph glyph-name="minus" unicode="&#x2212;" horiz-adv-x="550" 
d="M35 365h480v-110h-480v110z" />
    <glyph glyph-name="radical" unicode="&#x221a;" horiz-adv-x="650" 
d="M130 135h-115v95h190l81 -235h11l223 730h105l-255 -835h-155z" />
    <glyph glyph-name="infinity" unicode="&#x221e;" horiz-adv-x="790" 
d="M220 185q-79 0 -124.5 45t-45.5 120t45.5 120t124.5 45q28 0 53.5 -8.5t47.5 -22.5t40.5 -32t33.5 -37q15 19 33.5 37t40.5 32t47.5 22.5t53.5 8.5q79 0 124.5 -45t45.5 -120t-45.5 -120t-124.5 -45q-28 0 -53.5 8.5t-47.5 22.5t-40.5 32t-33.5 37q-15 -19 -33.5 -37
t-40.5 -32t-47.5 -22.5t-53.5 -8.5zM220 265q38 0 70 25.5t55 59.5q-23 34 -55 59.5t-70 25.5t-61.5 -23.5t-23.5 -61.5t23.5 -61.5t61.5 -23.5zM570 265q38 0 61.5 23.5t23.5 61.5t-23.5 61.5t-61.5 23.5t-70 -25.5t-55 -59.5q23 -34 55 -59.5t70 -25.5z" />
    <glyph glyph-name="integral" unicode="&#x222b;" horiz-adv-x="390" 
d="M40 -20h15q28 0 45.5 6t27.5 20t13.5 37t3.5 57v500q0 58 9 98t31 65t57 36t88 11h20v-90h-15q-28 0 -45.5 -6t-27.5 -20t-13.5 -37t-3.5 -57v-500q0 -58 -9 -98t-31 -65t-57.5 -36t-87.5 -11h-20v90z" />
    <glyph glyph-name="approxequal" unicode="&#x2248;" horiz-adv-x="605" 
d="M50 110q0 36 10 67.5t30 55.5t48.5 38t66.5 14q30 0 55 -8.5t46 -19t39 -19t35 -8.5q23 0 36.5 14.5t13.5 40.5h125q0 -36 -10 -67.5t-30 -55.5t-49 -38t-66 -14q-30 0 -55 8.5t-46 19t-39 19t-35 8.5q-23 0 -36.5 -14.5t-13.5 -40.5h-125zM50 320q0 36 10 67.5t30 55.5
t48.5 38t66.5 14q30 0 55 -8.5t46 -19t39 -19t35 -8.5q23 0 36.5 14.5t13.5 40.5h125q0 -36 -10 -67.5t-30 -55.5t-49 -38t-66 -14q-30 0 -55 8.5t-46 19t-39 19t-35 8.5q-23 0 -36.5 -14.5t-13.5 -40.5h-125z" />
    <glyph glyph-name="notequal" unicode="&#x2260;" horiz-adv-x="550" 
d="M147 140h-112v110h160l50 115h-210v110h258l32 75h110l-32 -75h112v-110h-160l-50 -115h210v-110h-258l-32 -75h-110z" />
    <glyph glyph-name="lessequal" unicode="&#x2264;" horiz-adv-x="510" 
d="M35 100h440v-100h-440v100zM35 310v100l440 185v-120l-305 -115l305 -115v-120z" />
    <glyph glyph-name="greaterequal" unicode="&#x2265;" horiz-adv-x="510" 
d="M35 100h440v-100h-440v100zM35 245l305 115l-305 115v120l440 -185v-100l-440 -185v120z" />
    <glyph glyph-name="uni2318" unicode="&#x2318;" horiz-adv-x="815" 
d="M200 0q-68 0 -109 40.5t-41 104.5t42.5 104.5t117.5 40.5h60v120h-60q-75 0 -117.5 40.5t-42.5 104.5t41 104.5t109 40.5q72 0 111 -40t39 -115v-60h115v60q0 75 39 115t111 40q68 0 109 -40.5t41 -104.5t-42.5 -104.5t-117.5 -40.5h-60v-120h60q75 0 117.5 -40.5
t42.5 -104.5t-41 -104.5t-109 -40.5q-72 0 -111 40t-39 115v60h-115v-60q0 -75 -39 -115t-111 -40zM200 85q30 0 50 20t20 50v60h-60q-30 0 -50 -19.5t-20 -45.5q0 -30 17 -47.5t43 -17.5zM465 290v120h-115v-120h115zM270 485v60q0 30 -20 50t-50 20q-26 0 -43 -17.5
t-17 -47.5q0 -26 20 -45.5t50 -19.5h60zM615 85q26 0 43 17.5t17 47.5q0 26 -20 45.5t-50 19.5h-60v-60q0 -30 20 -50t50 -20zM605 485q30 0 50 19.5t20 45.5q0 30 -17 47.5t-43 17.5q-30 0 -50 -20t-20 -50v-60h60z" />
    <glyph glyph-name="uni2460" unicode="&#x2460;" 
d="M470 410h-90v85h65q25 0 25 25v30h90v-400h-90v260zM500 -80q-90 0 -168.5 33.5t-136.5 91.5t-91.5 136.5t-33.5 168.5t33.5 168.5t91.5 136.5t136.5 91.5t168.5 33.5t168.5 -33.5t136.5 -91.5t91.5 -136.5t33.5 -168.5t-33.5 -168.5t-91.5 -136.5t-136.5 -91.5
t-168.5 -33.5zM500 -5q75 0 140 27.5t112.5 75t75 112.5t27.5 140t-27.5 140t-75 112.5t-112.5 75t-140 27.5t-140 -27.5t-112.5 -75t-75 -112.5t-27.5 -140t27.5 -140t75 -112.5t112.5 -75t140 -27.5z" />
    <glyph glyph-name="uni2461" unicode="&#x2461;" 
d="M365 230l145 135q20 19 30 35t10 35q0 15 -11 25t-34 10q-45 0 -45 -40h-95q2 26 11 49t26 40t43.5 26.5t64.5 9.5q64 0 99.5 -33.5t35.5 -86.5q0 -34 -15 -60t-45 -55l-95 -90h150v-80h-275v80zM500 -80q-90 0 -168.5 33.5t-136.5 91.5t-91.5 136.5t-33.5 168.5
t33.5 168.5t91.5 136.5t136.5 91.5t168.5 33.5t168.5 -33.5t136.5 -91.5t91.5 -136.5t33.5 -168.5t-33.5 -168.5t-91.5 -136.5t-136.5 -91.5t-168.5 -33.5zM500 -5q75 0 140 27.5t112.5 75t75 112.5t27.5 140t-27.5 140t-75 112.5t-112.5 75t-140 27.5t-140 -27.5
t-112.5 -75t-75 -112.5t-27.5 -140t27.5 -140t75 -112.5t112.5 -75t140 -27.5z" />
    <glyph glyph-name="uni2462" unicode="&#x2462;" 
d="M510 145q-68 0 -107 31t-43 84h95q4 -15 16.5 -22.5t38.5 -7.5q23 0 36.5 11t13.5 34q0 19 -13.5 29.5t-36.5 10.5h-35v80h35q26 0 35.5 12.5t9.5 27.5t-12 25t-38 10t-36 -10.5t-14 -29.5h-95q4 57 38.5 91t106.5 34t108.5 -32.5t36.5 -77.5q0 -34 -18 -55.5t-37 -29.5
q60 -30 60 -90q0 -23 -8 -45t-25 -40t-45 -29t-67 -11zM500 -80q-90 0 -168.5 33.5t-136.5 91.5t-91.5 136.5t-33.5 168.5t33.5 168.5t91.5 136.5t136.5 91.5t168.5 33.5t168.5 -33.5t136.5 -91.5t91.5 -136.5t33.5 -168.5t-33.5 -168.5t-91.5 -136.5t-136.5 -91.5
t-168.5 -33.5zM500 -5q75 0 140 27.5t112.5 75t75 112.5t27.5 140t-27.5 140t-75 112.5t-112.5 75t-140 27.5t-140 -27.5t-112.5 -75t-75 -112.5t-27.5 -140t27.5 -140t75 -112.5t112.5 -75t140 -27.5z" />
    <glyph glyph-name="uni2463" unicode="&#x2463;" 
d="M500 235h-180v80l160 235h110v-235h60v-80h-60v-85h-90v85zM500 315v120h-5l-80 -120h85zM500 -80q-90 0 -168.5 33.5t-136.5 91.5t-91.5 136.5t-33.5 168.5t33.5 168.5t91.5 136.5t136.5 91.5t168.5 33.5t168.5 -33.5t136.5 -91.5t91.5 -136.5t33.5 -168.5t-33.5 -168.5
t-91.5 -136.5t-136.5 -91.5t-168.5 -33.5zM500 -5q75 0 140 27.5t112.5 75t75 112.5t27.5 140t-27.5 140t-75 112.5t-112.5 75t-140 27.5t-140 -27.5t-112.5 -75t-75 -112.5t-27.5 -140t27.5 -140t75 -112.5t112.5 -75t140 -27.5z" />
    <glyph glyph-name="uni2464" unicode="&#x2464;" 
d="M505 145q-32 0 -59.5 9t-48 25t-33 38t-14.5 48h95q4 -15 19 -25t41 -10q60 0 60 55q0 30 -17.5 45t-47.5 15q-23 0 -34.5 -8.5t-15.5 -16.5h-90l25 230h250v-80h-178l-7 -65h5q7 3 17 7q8 3 20.5 5.5t27.5 2.5q60 0 97.5 -35.5t37.5 -98.5q0 -61 -39 -101t-111 -40z
M500 -80q-90 0 -168.5 33.5t-136.5 91.5t-91.5 136.5t-33.5 168.5t33.5 168.5t91.5 136.5t136.5 91.5t168.5 33.5t168.5 -33.5t136.5 -91.5t91.5 -136.5t33.5 -168.5t-33.5 -168.5t-91.5 -136.5t-136.5 -91.5t-168.5 -33.5zM500 -5q75 0 140 27.5t112.5 75t75 112.5
t27.5 140t-27.5 140t-75 112.5t-112.5 75t-140 27.5t-140 -27.5t-112.5 -75t-75 -112.5t-27.5 -140t27.5 -140t75 -112.5t112.5 -75t140 -27.5z" />
    <glyph glyph-name="uni2465" unicode="&#x2465;" 
d="M500 145q-39 0 -68.5 12t-48.5 33t-28.5 48t-9.5 57q0 38 11.5 66t28.5 54l90 135h100l-85 -125h15q34 0 61.5 -10.5t47 -29.5t30.5 -44.5t11 -55.5t-11 -55.5t-31 -44.5t-48.5 -29.5t-64.5 -10.5zM500 230q30 0 47.5 17t17.5 43t-17.5 43t-47.5 17t-47.5 -17t-17.5 -43
t17.5 -43t47.5 -17zM500 -80q-90 0 -168.5 33.5t-136.5 91.5t-91.5 136.5t-33.5 168.5t33.5 168.5t91.5 136.5t136.5 91.5t168.5 33.5t168.5 -33.5t136.5 -91.5t91.5 -136.5t33.5 -168.5t-33.5 -168.5t-91.5 -136.5t-136.5 -91.5t-168.5 -33.5zM500 -5q75 0 140 27.5
t112.5 75t75 112.5t27.5 140t-27.5 140t-75 112.5t-112.5 75t-140 27.5t-140 -27.5t-112.5 -75t-75 -112.5t-27.5 -140t27.5 -140t75 -112.5t112.5 -75t140 -27.5z" />
    <glyph glyph-name="uni2466" unicode="&#x2466;" 
d="M545 470h-170v80h265v-80l-140 -320h-95zM500 -80q-90 0 -168.5 33.5t-136.5 91.5t-91.5 136.5t-33.5 168.5t33.5 168.5t91.5 136.5t136.5 91.5t168.5 33.5t168.5 -33.5t136.5 -91.5t91.5 -136.5t33.5 -168.5t-33.5 -168.5t-91.5 -136.5t-136.5 -91.5t-168.5 -33.5z
M500 -5q75 0 140 27.5t112.5 75t75 112.5t27.5 140t-27.5 140t-75 112.5t-112.5 75t-140 27.5t-140 -27.5t-112.5 -75t-75 -112.5t-27.5 -140t27.5 -140t75 -112.5t112.5 -75t140 -27.5z" />
    <glyph glyph-name="uni2467" unicode="&#x2467;" 
d="M499 145q-66 0 -108 31.5t-42 88.5q0 26 13 52t47 43q-23 11 -36.5 35t-13.5 50q0 45 36 77.5t104 32.5t104 -32.5t36 -77.5q0 -26 -13.5 -50t-36.5 -35q34 -17 47 -43t13 -52q0 -57 -42 -88.5t-108 -31.5zM499 225q30 0 45 15.5t15 34.5t-15 34.5t-45 15.5t-45 -15.5
t-15 -34.5t15 -34.5t45 -15.5zM499 395q26 0 38 12.5t12 27.5t-12 27.5t-38 12.5t-38 -12.5t-12 -27.5t12 -27.5t38 -12.5zM500 -80q-90 0 -168.5 33.5t-136.5 91.5t-91.5 136.5t-33.5 168.5t33.5 168.5t91.5 136.5t136.5 91.5t168.5 33.5t168.5 -33.5t136.5 -91.5
t91.5 -136.5t33.5 -168.5t-33.5 -168.5t-91.5 -136.5t-136.5 -91.5t-168.5 -33.5zM500 -5q75 0 140 27.5t112.5 75t75 112.5t27.5 140t-27.5 140t-75 112.5t-112.5 75t-140 27.5t-140 -27.5t-112.5 -75t-75 -112.5t-27.5 -140t27.5 -140t75 -112.5t112.5 -75t140 -27.5z" />
    <glyph glyph-name="uni2468" unicode="&#x2468;" 
d="M510 275h-15q-34 0 -61.5 10.5t-47 29.5t-30.5 44.5t-11 55.5t11 55.5t31 44.5t48.5 29.5t64.5 10.5q39 0 68.5 -12t48.5 -33t28.5 -48t9.5 -57q0 -38 -11.5 -66t-28.5 -54l-90 -135h-100zM500 350q30 0 47.5 17t17.5 43t-17.5 43t-47.5 17t-47.5 -17t-17.5 -43t17.5 -43
t47.5 -17zM500 -80q-90 0 -168.5 33.5t-136.5 91.5t-91.5 136.5t-33.5 168.5t33.5 168.5t91.5 136.5t136.5 91.5t168.5 33.5t168.5 -33.5t136.5 -91.5t91.5 -136.5t33.5 -168.5t-33.5 -168.5t-91.5 -136.5t-136.5 -91.5t-168.5 -33.5zM500 -5q75 0 140 27.5t112.5 75
t75 112.5t27.5 140t-27.5 140t-75 112.5t-112.5 75t-140 27.5t-140 -27.5t-112.5 -75t-75 -112.5t-27.5 -140t27.5 -140t75 -112.5t112.5 -75t140 -27.5z" />
    <glyph glyph-name="uni2469" unicode="&#x2469;" 
d="M310 410h-90v85h65q25 0 25 25v30h90v-400h-90v260zM610 145q-36 0 -66 13t-52 39t-34.5 64t-12.5 89t12.5 89t34.5 64t52 39t66 13t66 -13t52 -39t34.5 -64t12.5 -89t-12.5 -89t-34.5 -64t-52 -39t-66 -13zM610 230q30 0 52.5 28t22.5 92t-22.5 92t-52.5 28t-52.5 -28
t-22.5 -92t22.5 -92t52.5 -28zM500 -80q-90 0 -168.5 33.5t-136.5 91.5t-91.5 136.5t-33.5 168.5t33.5 168.5t91.5 136.5t136.5 91.5t168.5 33.5t168.5 -33.5t136.5 -91.5t91.5 -136.5t33.5 -168.5t-33.5 -168.5t-91.5 -136.5t-136.5 -91.5t-168.5 -33.5zM500 -5
q75 0 140 27.5t112.5 75t75 112.5t27.5 140t-27.5 140t-75 112.5t-112.5 75t-140 27.5t-140 -27.5t-112.5 -75t-75 -112.5t-27.5 -140t27.5 -140t75 -112.5t112.5 -75t140 -27.5z" />
    <glyph glyph-name="uni246A" unicode="&#x246a;" 
d="M590 410h-90v85h65q25 0 25 25v30h90v-400h-90v260zM355 410h-90v85h65q25 0 25 25v30h90v-400h-90v260zM500 -80q-90 0 -168.5 33.5t-136.5 91.5t-91.5 136.5t-33.5 168.5t33.5 168.5t91.5 136.5t136.5 91.5t168.5 33.5t168.5 -33.5t136.5 -91.5t91.5 -136.5
t33.5 -168.5t-33.5 -168.5t-91.5 -136.5t-136.5 -91.5t-168.5 -33.5zM500 -5q75 0 140 27.5t112.5 75t75 112.5t27.5 140t-27.5 140t-75 112.5t-112.5 75t-140 27.5t-140 -27.5t-112.5 -75t-75 -112.5t-27.5 -140t27.5 -140t75 -112.5t112.5 -75t140 -27.5z" />
    <glyph glyph-name="uni246B" unicode="&#x246b;" 
d="M320 410h-90v85h65q25 0 25 25v30h90v-400h-90v260zM465 230l145 135q20 19 30 35t10 35q0 15 -11 25t-34 10q-45 0 -45 -40h-95q2 26 11 49t26 40t43.5 26.5t64.5 9.5q64 0 99.5 -33.5t35.5 -86.5q0 -34 -15 -60t-45 -55l-95 -90h150v-80h-275v80zM500 -80
q-90 0 -168.5 33.5t-136.5 91.5t-91.5 136.5t-33.5 168.5t33.5 168.5t91.5 136.5t136.5 91.5t168.5 33.5t168.5 -33.5t136.5 -91.5t91.5 -136.5t33.5 -168.5t-33.5 -168.5t-91.5 -136.5t-136.5 -91.5t-168.5 -33.5zM500 -5q75 0 140 27.5t112.5 75t75 112.5t27.5 140
t-27.5 140t-75 112.5t-112.5 75t-140 27.5t-140 -27.5t-112.5 -75t-75 -112.5t-27.5 -140t27.5 -140t75 -112.5t112.5 -75t140 -27.5z" />
    <glyph glyph-name="uni246C" unicode="&#x246c;" 
d="M315 410h-90v85h65q25 0 25 25v30h90v-400h-90v260zM605 145q-68 0 -107 31t-43 84h95q4 -15 16.5 -22.5t38.5 -7.5q23 0 36.5 11t13.5 34q0 19 -13.5 29.5t-36.5 10.5h-35v80h35q26 0 35.5 12.5t9.5 27.5t-12 25t-38 10t-36 -10.5t-14 -29.5h-95q4 57 38.5 91t106.5 34
t108.5 -32.5t36.5 -77.5q0 -34 -18 -55.5t-37 -29.5q60 -30 60 -90q0 -23 -8 -45t-25 -40t-45 -29t-67 -11zM500 -80q-90 0 -168.5 33.5t-136.5 91.5t-91.5 136.5t-33.5 168.5t33.5 168.5t91.5 136.5t136.5 91.5t168.5 33.5t168.5 -33.5t136.5 -91.5t91.5 -136.5
t33.5 -168.5t-33.5 -168.5t-91.5 -136.5t-136.5 -91.5t-168.5 -33.5zM500 -5q75 0 140 27.5t112.5 75t75 112.5t27.5 140t-27.5 140t-75 112.5t-112.5 75t-140 27.5t-140 -27.5t-112.5 -75t-75 -112.5t-27.5 -140t27.5 -140t75 -112.5t112.5 -75t140 -27.5z" />
    <glyph glyph-name="uni246D" unicode="&#x246d;" 
d="M315 410h-90v85h65q25 0 25 25v30h90v-400h-90v260zM620 235h-180v80l160 235h110v-235h60v-80h-60v-85h-90v85zM620 315v120h-5l-80 -120h85zM500 -80q-90 0 -168.5 33.5t-136.5 91.5t-91.5 136.5t-33.5 168.5t33.5 168.5t91.5 136.5t136.5 91.5t168.5 33.5t168.5 -33.5
t136.5 -91.5t91.5 -136.5t33.5 -168.5t-33.5 -168.5t-91.5 -136.5t-136.5 -91.5t-168.5 -33.5zM500 -5q75 0 140 27.5t112.5 75t75 112.5t27.5 140t-27.5 140t-75 112.5t-112.5 75t-140 27.5t-140 -27.5t-112.5 -75t-75 -112.5t-27.5 -140t27.5 -140t75 -112.5t112.5 -75
t140 -27.5z" />
    <glyph glyph-name="uni246E" unicode="&#x246e;" 
d="M315 410h-90v85h65q25 0 25 25v30h90v-400h-90v260zM605 145q-32 0 -59.5 9t-48 25t-33 38t-14.5 48h95q4 -15 19 -25t41 -10q60 0 60 55q0 30 -17.5 45t-47.5 15q-23 0 -34.5 -8.5t-15.5 -16.5h-90l25 230h250v-80h-178l-7 -65h5q7 3 17 7q8 3 20.5 5.5t27.5 2.5
q60 0 97.5 -35.5t37.5 -98.5q0 -61 -39 -101t-111 -40zM500 -80q-90 0 -168.5 33.5t-136.5 91.5t-91.5 136.5t-33.5 168.5t33.5 168.5t91.5 136.5t136.5 91.5t168.5 33.5t168.5 -33.5t136.5 -91.5t91.5 -136.5t33.5 -168.5t-33.5 -168.5t-91.5 -136.5t-136.5 -91.5
t-168.5 -33.5zM500 -5q75 0 140 27.5t112.5 75t75 112.5t27.5 140t-27.5 140t-75 112.5t-112.5 75t-140 27.5t-140 -27.5t-112.5 -75t-75 -112.5t-27.5 -140t27.5 -140t75 -112.5t112.5 -75t140 -27.5z" />
    <glyph glyph-name="uni246F" unicode="&#x246f;" 
d="M315 410h-90v85h65q25 0 25 25v30h90v-400h-90v260zM605 145q-39 0 -68.5 12t-48.5 33t-28.5 48t-9.5 57q0 38 11.5 66t28.5 54l90 135h100l-85 -125h15q34 0 61.5 -10.5t47 -29.5t30.5 -44.5t11 -55.5t-11 -55.5t-31 -44.5t-48.5 -29.5t-64.5 -10.5zM605 230
q30 0 47.5 17t17.5 43t-17.5 43t-47.5 17t-47.5 -17t-17.5 -43t17.5 -43t47.5 -17zM500 -80q-90 0 -168.5 33.5t-136.5 91.5t-91.5 136.5t-33.5 168.5t33.5 168.5t91.5 136.5t136.5 91.5t168.5 33.5t168.5 -33.5t136.5 -91.5t91.5 -136.5t33.5 -168.5t-33.5 -168.5
t-91.5 -136.5t-136.5 -91.5t-168.5 -33.5zM500 -5q75 0 140 27.5t112.5 75t75 112.5t27.5 140t-27.5 140t-75 112.5t-112.5 75t-140 27.5t-140 -27.5t-112.5 -75t-75 -112.5t-27.5 -140t27.5 -140t75 -112.5t112.5 -75t140 -27.5z" />
    <glyph glyph-name="uni2470" unicode="&#x2470;" 
d="M325 410h-90v85h65q25 0 25 25v30h90v-400h-90v260zM645 470h-170v80h265v-80l-140 -320h-95zM500 -80q-90 0 -168.5 33.5t-136.5 91.5t-91.5 136.5t-33.5 168.5t33.5 168.5t91.5 136.5t136.5 91.5t168.5 33.5t168.5 -33.5t136.5 -91.5t91.5 -136.5t33.5 -168.5
t-33.5 -168.5t-91.5 -136.5t-136.5 -91.5t-168.5 -33.5zM500 -5q75 0 140 27.5t112.5 75t75 112.5t27.5 140t-27.5 140t-75 112.5t-112.5 75t-140 27.5t-140 -27.5t-112.5 -75t-75 -112.5t-27.5 -140t27.5 -140t75 -112.5t112.5 -75t140 -27.5z" />
    <glyph glyph-name="uni2471" unicode="&#x2471;" 
d="M320 410h-90v85h65q25 0 25 25v30h90v-400h-90v260zM605 145q-66 0 -108 31.5t-42 88.5q0 26 13 52t47 43q-23 11 -36.5 35t-13.5 50q0 45 36 77.5t104 32.5t104 -32.5t36 -77.5q0 -26 -13.5 -50t-36.5 -35q34 -17 47 -43t13 -52q0 -57 -42 -88.5t-108 -31.5zM605 225
q30 0 45 15.5t15 34.5t-15 34.5t-45 15.5t-45 -15.5t-15 -34.5t15 -34.5t45 -15.5zM605 395q26 0 38 12.5t12 27.5t-12 27.5t-38 12.5t-38 -12.5t-12 -27.5t12 -27.5t38 -12.5zM500 -80q-90 0 -168.5 33.5t-136.5 91.5t-91.5 136.5t-33.5 168.5t33.5 168.5t91.5 136.5
t136.5 91.5t168.5 33.5t168.5 -33.5t136.5 -91.5t91.5 -136.5t33.5 -168.5t-33.5 -168.5t-91.5 -136.5t-136.5 -91.5t-168.5 -33.5zM500 -5q75 0 140 27.5t112.5 75t75 112.5t27.5 140t-27.5 140t-75 112.5t-112.5 75t-140 27.5t-140 -27.5t-112.5 -75t-75 -112.5
t-27.5 -140t27.5 -140t75 -112.5t112.5 -75t140 -27.5z" />
    <glyph glyph-name="uni2472" unicode="&#x2472;" 
d="M320 410h-90v85h65q25 0 25 25v30h90v-400h-90v260zM615 275h-15q-34 0 -61.5 10.5t-47 29.5t-30.5 44.5t-11 55.5t11 55.5t31 44.5t48.5 29.5t64.5 10.5q39 0 68.5 -12t48.5 -33t28.5 -48t9.5 -57q0 -38 -11.5 -66t-28.5 -54l-90 -135h-100zM605 350q30 0 47.5 17
t17.5 43t-17.5 43t-47.5 17t-47.5 -17t-17.5 -43t17.5 -43t47.5 -17zM500 -80q-90 0 -168.5 33.5t-136.5 91.5t-91.5 136.5t-33.5 168.5t33.5 168.5t91.5 136.5t136.5 91.5t168.5 33.5t168.5 -33.5t136.5 -91.5t91.5 -136.5t33.5 -168.5t-33.5 -168.5t-91.5 -136.5
t-136.5 -91.5t-168.5 -33.5zM500 -5q75 0 140 27.5t112.5 75t75 112.5t27.5 140t-27.5 140t-75 112.5t-112.5 75t-140 27.5t-140 -27.5t-112.5 -75t-75 -112.5t-27.5 -140t27.5 -140t75 -112.5t112.5 -75t140 -27.5z" />
    <glyph glyph-name="uni2473" unicode="&#x2473;" 
d="M500 -80q-90 0 -168.5 33.5t-136.5 91.5t-91.5 136.5t-33.5 168.5t33.5 168.5t91.5 136.5t136.5 91.5t168.5 33.5t168.5 -33.5t136.5 -91.5t91.5 -136.5t33.5 -168.5t-33.5 -168.5t-91.5 -136.5t-136.5 -91.5t-168.5 -33.5zM500 -5q75 0 140 27.5t112.5 75t75 112.5
t27.5 140t-27.5 140t-75 112.5t-112.5 75t-140 27.5t-140 -27.5t-112.5 -75t-75 -112.5t-27.5 -140q0 -57 15.5 -107t44.5 -92v79l145 135q20 19 30 35t10 35q0 15 -11 25t-34 10q-45 0 -45 -40h-95q2 26 11 49t26 40t43.5 26.5t64.5 9.5q64 0 99.5 -33.5t35.5 -86.5
q0 -34 -15 -60t-45 -55l-95 -90h150v-80h-275q48 -71 124.5 -113t170.5 -42zM655 145q-36 0 -66 13t-52 39t-34.5 64t-12.5 89t12.5 89t34.5 64t52 39t66 13t66 -13t52 -39t34.5 -64t12.5 -89t-12.5 -89t-34.5 -64t-52 -39t-66 -13zM655 230q30 0 52.5 28t22.5 92t-22.5 92
t-52.5 28t-52.5 -28t-22.5 -92t22.5 -92t52.5 -28z" />
    <glyph glyph-name="uni24EA" unicode="&#x24ea;" 
d="M500 145q-36 0 -66 13t-52 39t-34.5 64t-12.5 89t12.5 89t34.5 64t52 39t66 13t66 -13t52 -39t34.5 -64t12.5 -89t-12.5 -89t-34.5 -64t-52 -39t-66 -13zM500 230q30 0 52.5 28t22.5 92t-22.5 92t-52.5 28t-52.5 -28t-22.5 -92t22.5 -92t52.5 -28zM500 -80
q-90 0 -168.5 33.5t-136.5 91.5t-91.5 136.5t-33.5 168.5t33.5 168.5t91.5 136.5t136.5 91.5t168.5 33.5t168.5 -33.5t136.5 -91.5t91.5 -136.5t33.5 -168.5t-33.5 -168.5t-91.5 -136.5t-136.5 -91.5t-168.5 -33.5zM500 -5q75 0 140 27.5t112.5 75t75 112.5t27.5 140
t-27.5 140t-75 112.5t-112.5 75t-140 27.5t-140 -27.5t-112.5 -75t-75 -112.5t-27.5 -140t27.5 -140t75 -112.5t112.5 -75t140 -27.5z" />
    <glyph glyph-name="uni24EB" unicode="&#x24eb;" 
d="M500 -80q-90 0 -168.5 33.5t-136.5 91.5t-91.5 136.5t-33.5 168.5t33.5 168.5t91.5 136.5t136.5 91.5t168.5 33.5t168.5 -33.5t136.5 -91.5t91.5 -136.5t33.5 -168.5t-33.5 -168.5t-91.5 -136.5t-136.5 -91.5t-168.5 -33.5zM445 150v400h-90v-30q0 -25 -25 -25h-65v-85
h90v-260h90zM680 150v400h-90v-30q0 -25 -25 -25h-65v-85h90v-260h90z" />
    <glyph glyph-name="uni24EC" unicode="&#x24ec;" 
d="M500 -80q-90 0 -168.5 33.5t-136.5 91.5t-91.5 136.5t-33.5 168.5t33.5 168.5t91.5 136.5t136.5 91.5t168.5 33.5t168.5 -33.5t136.5 -91.5t91.5 -136.5t33.5 -168.5t-33.5 -168.5t-91.5 -136.5t-136.5 -91.5t-168.5 -33.5zM410 150v400h-90v-30q0 -25 -25 -25h-65v-85
h90v-260h90zM740 150v80h-150l95 90q30 29 45 55t15 60q0 53 -35.5 86.5t-99.5 33.5q-38 0 -64.5 -9.5t-43.5 -26.5t-26 -40t-11 -49h95q0 40 45 40q23 0 34 -10t11 -25q0 -19 -10 -35t-30 -35l-145 -135v-80h275z" />
    <glyph glyph-name="uni24ED" unicode="&#x24ed;" 
d="M500 -80q-90 0 -168.5 33.5t-136.5 91.5t-91.5 136.5t-33.5 168.5t33.5 168.5t91.5 136.5t136.5 91.5t168.5 33.5t168.5 -33.5t136.5 -91.5t91.5 -136.5t33.5 -168.5t-33.5 -168.5t-91.5 -136.5t-136.5 -91.5t-168.5 -33.5zM405 150v400h-90v-30q0 -25 -25 -25h-65v-85
h90v-260h90zM605 145q39 0 67 11t45 29t25 40t8 45q0 60 -60 90q19 8 37 29.5t18 55.5q0 45 -36.5 77.5t-108.5 32.5t-106.5 -34t-38.5 -91h95q4 19 14 29.5t36 10.5t38 -10t12 -25t-9.5 -27.5t-35.5 -12.5h-35v-80h35q23 0 36.5 -10.5t13.5 -29.5q0 -23 -13.5 -34
t-36.5 -11q-26 0 -38.5 7.5t-16.5 22.5h-95q4 -53 43 -84t107 -31z" />
    <glyph glyph-name="uni24EE" unicode="&#x24ee;" 
d="M500 -80q-90 0 -168.5 33.5t-136.5 91.5t-91.5 136.5t-33.5 168.5t33.5 168.5t91.5 136.5t136.5 91.5t168.5 33.5t168.5 -33.5t136.5 -91.5t91.5 -136.5t33.5 -168.5t-33.5 -168.5t-91.5 -136.5t-136.5 -91.5t-168.5 -33.5zM405 150v400h-90v-30q0 -25 -25 -25h-65v-85
h90v-260h90zM710 150v85h60v80h-60v235h-110l-160 -235v-80h180v-85h90zM615 435h5v-120h-85z" />
    <glyph glyph-name="uni24EF" unicode="&#x24ef;" 
d="M500 -80q-90 0 -168.5 33.5t-136.5 91.5t-91.5 136.5t-33.5 168.5t33.5 168.5t91.5 136.5t136.5 91.5t168.5 33.5t168.5 -33.5t136.5 -91.5t91.5 -136.5t33.5 -168.5t-33.5 -168.5t-91.5 -136.5t-136.5 -91.5t-168.5 -33.5zM405 150v400h-90v-30q0 -25 -25 -25h-65v-85
h90v-260h90zM605 145q72 0 111 40t39 101q0 63 -37.5 98.5t-97.5 35.5q-15 0 -27.5 -2.5t-20.5 -5.5q-10 -4 -17 -7h-5l7 65h178v80h-250l-25 -230h90q4 8 15.5 16.5t34.5 8.5q30 0 47.5 -15t17.5 -45q0 -55 -60 -55q-26 0 -41 10t-19 25h-95q2 -26 14.5 -48t33 -38t48 -25
t59.5 -9z" />
    <glyph glyph-name="uni24F0" unicode="&#x24f0;" 
d="M500 -80q-90 0 -168.5 33.5t-136.5 91.5t-91.5 136.5t-33.5 168.5t33.5 168.5t91.5 136.5t136.5 91.5t168.5 33.5t168.5 -33.5t136.5 -91.5t91.5 -136.5t33.5 -168.5t-33.5 -168.5t-91.5 -136.5t-136.5 -91.5t-168.5 -33.5zM405 150v400h-90v-30q0 -25 -25 -25h-65v-85
h90v-260h90zM605 145q36 0 64.5 10.5t48.5 29.5t31 44.5t11 55.5t-11 55.5t-30.5 44.5t-47 29.5t-61.5 10.5h-15l85 125h-100l-90 -135q-17 -26 -28.5 -54t-11.5 -66q0 -30 9.5 -57t28.5 -48t48.5 -33t68.5 -12zM605 230q-30 0 -47.5 17t-17.5 43t17.5 43t47.5 17t47.5 -17
t17.5 -43t-17.5 -43t-47.5 -17z" />
    <glyph glyph-name="uni24F1" unicode="&#x24f1;" 
d="M500 -80q-90 0 -168.5 33.5t-136.5 91.5t-91.5 136.5t-33.5 168.5t33.5 168.5t91.5 136.5t136.5 91.5t168.5 33.5t168.5 -33.5t136.5 -91.5t91.5 -136.5t33.5 -168.5t-33.5 -168.5t-91.5 -136.5t-136.5 -91.5t-168.5 -33.5zM415 150v400h-90v-30q0 -25 -25 -25h-65v-85
h90v-260h90zM600 150l140 320v80h-265v-80h170l-140 -320h95z" />
    <glyph glyph-name="uni24F2" unicode="&#x24f2;" 
d="M500 -80q-90 0 -168.5 33.5t-136.5 91.5t-91.5 136.5t-33.5 168.5t33.5 168.5t91.5 136.5t136.5 91.5t168.5 33.5t168.5 -33.5t136.5 -91.5t91.5 -136.5t33.5 -168.5t-33.5 -168.5t-91.5 -136.5t-136.5 -91.5t-168.5 -33.5zM410 150v400h-90v-30q0 -25 -25 -25h-65v-85
h90v-260h90zM605 145q66 0 108 31.5t42 88.5q0 26 -13 52t-47 43q23 11 36.5 35t13.5 50q0 45 -36 77.5t-104 32.5t-104 -32.5t-36 -77.5q0 -26 13.5 -50t36.5 -35q-34 -17 -47 -43t-13 -52q0 -57 42 -88.5t108 -31.5zM605 225q-30 0 -45 15.5t-15 34.5t15 34.5t45 15.5
t45 -15.5t15 -34.5t-15 -34.5t-45 -15.5zM605 395q-26 0 -38 12.5t-12 27.5t12 27.5t38 12.5t38 -12.5t12 -27.5t-12 -27.5t-38 -12.5z" />
    <glyph glyph-name="uni24F3" unicode="&#x24f3;" 
d="M500 -80q-90 0 -168.5 33.5t-136.5 91.5t-91.5 136.5t-33.5 168.5t33.5 168.5t91.5 136.5t136.5 91.5t168.5 33.5t168.5 -33.5t136.5 -91.5t91.5 -136.5t33.5 -168.5t-33.5 -168.5t-91.5 -136.5t-136.5 -91.5t-168.5 -33.5zM410 150v400h-90v-30q0 -25 -25 -25h-65v-85
h90v-260h90zM630 150l90 135q17 26 28.5 54t11.5 66q0 30 -9.5 57t-28.5 48t-48.5 33t-68.5 12q-36 0 -64.5 -10.5t-48.5 -29.5t-31 -44.5t-11 -55.5t11 -55.5t30.5 -44.5t47 -29.5t61.5 -10.5h15l-85 -125h100zM605 350q-30 0 -47.5 17t-17.5 43t17.5 43t47.5 17t47.5 -17
t17.5 -43t-17.5 -43t-47.5 -17z" />
    <glyph glyph-name="uni24F4" unicode="&#x24f4;" 
d="M500 -80q-90 0 -168.5 33.5t-136.5 91.5t-91.5 136.5t-33.5 168.5t33.5 168.5t91.5 136.5t136.5 91.5t168.5 33.5t168.5 -33.5t136.5 -91.5t91.5 -136.5t33.5 -168.5t-33.5 -168.5t-91.5 -136.5t-136.5 -91.5t-168.5 -33.5zM480 150v80h-150l95 90q30 29 45 55t15 60
q0 53 -35.5 86.5t-99.5 33.5q-38 0 -64.5 -9.5t-43.5 -26.5t-26 -40t-11 -49h95q0 40 45 40q23 0 34 -10t11 -25q0 -19 -10 -35t-30 -35l-145 -135v-80h275zM655 145q36 0 66 13t52 39t34.5 64t12.5 89t-12.5 89t-34.5 64t-52 39t-66 13t-66 -13t-52 -39t-34.5 -64
t-12.5 -89t12.5 -89t34.5 -64t52 -39t66 -13zM655 230q-30 0 -52.5 28t-22.5 92t22.5 92t52.5 28t52.5 -28t22.5 -92t-22.5 -92t-52.5 -28z" />
    <glyph glyph-name="uni24FF" unicode="&#x24ff;" 
d="M500 -80q-90 0 -168.5 33.5t-136.5 91.5t-91.5 136.5t-33.5 168.5t33.5 168.5t91.5 136.5t136.5 91.5t168.5 33.5t168.5 -33.5t136.5 -91.5t91.5 -136.5t33.5 -168.5t-33.5 -168.5t-91.5 -136.5t-136.5 -91.5t-168.5 -33.5zM500 145q36 0 66 13t52 39t34.5 64t12.5 89
t-12.5 89t-34.5 64t-52 39t-66 13t-66 -13t-52 -39t-34.5 -64t-12.5 -89t12.5 -89t34.5 -64t52 -39t66 -13zM500 230q-30 0 -52.5 28t-22.5 92t22.5 92t52.5 28t52.5 -28t22.5 -92t-22.5 -92t-52.5 -28z" />
    <glyph glyph-name="lozenge" unicode="&#x25ca;" horiz-adv-x="600" 
d="M35 350l225 350h80l225 -350l-225 -350h-80zM460 350l-160 250l-160 -250l160 -250z" />
    <glyph glyph-name="uni2776" unicode="&#x2776;" 
d="M500 -80q-90 0 -168.5 33.5t-136.5 91.5t-91.5 136.5t-33.5 168.5t33.5 168.5t91.5 136.5t136.5 91.5t168.5 33.5t168.5 -33.5t136.5 -91.5t91.5 -136.5t33.5 -168.5t-33.5 -168.5t-91.5 -136.5t-136.5 -91.5t-168.5 -33.5zM560 150v400h-90v-30q0 -25 -25 -25h-65v-85
h90v-260h90z" />
    <glyph glyph-name="uni2777" unicode="&#x2777;" 
d="M500 -80q-90 0 -168.5 33.5t-136.5 91.5t-91.5 136.5t-33.5 168.5t33.5 168.5t91.5 136.5t136.5 91.5t168.5 33.5t168.5 -33.5t136.5 -91.5t91.5 -136.5t33.5 -168.5t-33.5 -168.5t-91.5 -136.5t-136.5 -91.5t-168.5 -33.5zM640 150v80h-150l95 90q30 29 45 55t15 60
q0 53 -35.5 86.5t-99.5 33.5q-38 0 -64.5 -9.5t-43.5 -26.5t-26 -40t-11 -49h95q0 40 45 40q23 0 34 -10t11 -25q0 -19 -10 -35t-30 -35l-145 -135v-80h275z" />
    <glyph glyph-name="uni2778" unicode="&#x2778;" 
d="M500 -80q-90 0 -168.5 33.5t-136.5 91.5t-91.5 136.5t-33.5 168.5t33.5 168.5t91.5 136.5t136.5 91.5t168.5 33.5t168.5 -33.5t136.5 -91.5t91.5 -136.5t33.5 -168.5t-33.5 -168.5t-91.5 -136.5t-136.5 -91.5t-168.5 -33.5zM510 145q39 0 67 11t45 29t25 40t8 45
q0 60 -60 90q19 8 37 29.5t18 55.5q0 45 -36.5 77.5t-108.5 32.5t-106.5 -34t-38.5 -91h95q4 19 14 29.5t36 10.5t38 -10t12 -25t-9.5 -27.5t-35.5 -12.5h-35v-80h35q23 0 36.5 -10.5t13.5 -29.5q0 -23 -13.5 -34t-36.5 -11q-26 0 -38.5 7.5t-16.5 22.5h-95q4 -53 43 -84
t107 -31z" />
    <glyph glyph-name="uni2779" unicode="&#x2779;" 
d="M500 -80q-90 0 -168.5 33.5t-136.5 91.5t-91.5 136.5t-33.5 168.5t33.5 168.5t91.5 136.5t136.5 91.5t168.5 33.5t168.5 -33.5t136.5 -91.5t91.5 -136.5t33.5 -168.5t-33.5 -168.5t-91.5 -136.5t-136.5 -91.5t-168.5 -33.5zM590 150v85h60v80h-60v235h-110l-160 -235v-80
h180v-85h90zM495 435h5v-120h-85z" />
    <glyph glyph-name="uni277A" unicode="&#x277a;" 
d="M500 -80q-90 0 -168.5 33.5t-136.5 91.5t-91.5 136.5t-33.5 168.5t33.5 168.5t91.5 136.5t136.5 91.5t168.5 33.5t168.5 -33.5t136.5 -91.5t91.5 -136.5t33.5 -168.5t-33.5 -168.5t-91.5 -136.5t-136.5 -91.5t-168.5 -33.5zM505 145q72 0 111 40t39 101q0 63 -37.5 98.5
t-97.5 35.5q-15 0 -27.5 -2.5t-20.5 -5.5q-10 -4 -17 -7h-5l7 65h178v80h-250l-25 -230h90q4 8 15.5 16.5t34.5 8.5q30 0 47.5 -15t17.5 -45q0 -55 -60 -55q-26 0 -41 10t-19 25h-95q2 -26 14.5 -48t33 -38t48 -25t59.5 -9z" />
    <glyph glyph-name="uni277B" unicode="&#x277b;" 
d="M500 -80q-90 0 -168.5 33.5t-136.5 91.5t-91.5 136.5t-33.5 168.5t33.5 168.5t91.5 136.5t136.5 91.5t168.5 33.5t168.5 -33.5t136.5 -91.5t91.5 -136.5t33.5 -168.5t-33.5 -168.5t-91.5 -136.5t-136.5 -91.5t-168.5 -33.5zM500 145q36 0 64.5 10.5t48.5 29.5t31 44.5
t11 55.5t-11 55.5t-30.5 44.5t-47 29.5t-61.5 10.5h-15l85 125h-100l-90 -135q-17 -26 -28.5 -54t-11.5 -66q0 -30 9.5 -57t28.5 -48t48.5 -33t68.5 -12zM500 230q-30 0 -47.5 17t-17.5 43t17.5 43t47.5 17t47.5 -17t17.5 -43t-17.5 -43t-47.5 -17z" />
    <glyph glyph-name="uni277C" unicode="&#x277c;" 
d="M500 -80q-90 0 -168.5 33.5t-136.5 91.5t-91.5 136.5t-33.5 168.5t33.5 168.5t91.5 136.5t136.5 91.5t168.5 33.5t168.5 -33.5t136.5 -91.5t91.5 -136.5t33.5 -168.5t-33.5 -168.5t-91.5 -136.5t-136.5 -91.5t-168.5 -33.5zM500 150l140 320v80h-265v-80h170l-140 -320
h95z" />
    <glyph glyph-name="uni277D" unicode="&#x277d;" 
d="M500 -80q-90 0 -168.5 33.5t-136.5 91.5t-91.5 136.5t-33.5 168.5t33.5 168.5t91.5 136.5t136.5 91.5t168.5 33.5t168.5 -33.5t136.5 -91.5t91.5 -136.5t33.5 -168.5t-33.5 -168.5t-91.5 -136.5t-136.5 -91.5t-168.5 -33.5zM499 145q66 0 108 31.5t42 88.5q0 26 -13 52
t-47 43q23 11 36.5 35t13.5 50q0 45 -36 77.5t-104 32.5t-104 -32.5t-36 -77.5q0 -26 13.5 -50t36.5 -35q-34 -17 -47 -43t-13 -52q0 -57 42 -88.5t108 -31.5zM499 225q-30 0 -45 15.5t-15 34.5t15 34.5t45 15.5t45 -15.5t15 -34.5t-15 -34.5t-45 -15.5zM499 395
q-26 0 -38 12.5t-12 27.5t12 27.5t38 12.5t38 -12.5t12 -27.5t-12 -27.5t-38 -12.5z" />
    <glyph glyph-name="uni277E" unicode="&#x277e;" 
d="M500 -80q-90 0 -168.5 33.5t-136.5 91.5t-91.5 136.5t-33.5 168.5t33.5 168.5t91.5 136.5t136.5 91.5t168.5 33.5t168.5 -33.5t136.5 -91.5t91.5 -136.5t33.5 -168.5t-33.5 -168.5t-91.5 -136.5t-136.5 -91.5t-168.5 -33.5zM525 150l90 135q17 26 28.5 54t11.5 66
q0 30 -9.5 57t-28.5 48t-48.5 33t-68.5 12q-36 0 -64.5 -10.5t-48.5 -29.5t-31 -44.5t-11 -55.5t11 -55.5t30.5 -44.5t47 -29.5t61.5 -10.5h15l-85 -125h100zM500 350q-30 0 -47.5 17t-17.5 43t17.5 43t47.5 17t47.5 -17t17.5 -43t-17.5 -43t-47.5 -17z" />
    <glyph glyph-name="uni277F" unicode="&#x277f;" 
d="M500 -80q-90 0 -168.5 33.5t-136.5 91.5t-91.5 136.5t-33.5 168.5t33.5 168.5t91.5 136.5t136.5 91.5t168.5 33.5t168.5 -33.5t136.5 -91.5t91.5 -136.5t33.5 -168.5t-33.5 -168.5t-91.5 -136.5t-136.5 -91.5t-168.5 -33.5zM400 150v400h-90v-30q0 -25 -25 -25h-65v-85
h90v-260h90zM610 145q36 0 66 13t52 39t34.5 64t12.5 89t-12.5 89t-34.5 64t-52 39t-66 13t-66 -13t-52 -39t-34.5 -64t-12.5 -89t12.5 -89t34.5 -64t52 -39t66 -13zM610 230q-30 0 -52.5 28t-22.5 92t22.5 92t52.5 28t52.5 -28t22.5 -92t-22.5 -92t-52.5 -28z" />
    <glyph glyph-name="uni2921" unicode="&#x2921;" 
d="M520 115h150l-405 405v-150h-95v300l10 10h300v-95h-150l405 -405v150h95v-300l-10 -10h-300v95z" />
    <glyph glyph-name="uni2922" unicode="&#x2922;" 
d="M170 30v300h95v-150l405 405h-150v95h300l10 -10v-300h-95v150l-405 -405h150v-95h-300z" />
    <glyph glyph-name="back_left.icon" unicode="&#xe000;" 
d="M285 215v5l215 215l70 -70l-100 -100h220q23 0 36.5 13.5t13.5 36.5v240q0 23 -13.5 36.5t-36.5 13.5h-535v95h535q68 0 106.5 -38.5t38.5 -106.5v-240q0 -68 -38.5 -106.5t-106.5 -38.5h-220l100 -100l-70 -70z" />
    <glyph glyph-name="back_right.icon" unicode="&#xe001;" 
d="M305 0q-68 0 -106.5 38.5t-38.5 106.5v240q0 68 38.5 106.5t106.5 38.5h220l-100 100l70 70l215 -215v-5l-215 -215l-70 70l100 100h-220q-23 0 -36.5 -13.5t-13.5 -36.5v-240q0 -23 13.5 -36.5t36.5 -13.5h535v-95h-535v0z" />
    <glyph glyph-name="angle_left.icon" unicode="&#xe002;" 
d="M305 353v4l293 253l67 -75l-207 -178v-4l207 -177l-67 -76z" />
    <glyph glyph-name="angle_up.icon" unicode="&#xe003;" 
d="M245 265l253 293h4l253 -293l-75 -65l-178 205h-4l-178 -205z" />
    <glyph glyph-name="angle_right.icon" unicode="&#xe004;" 
d="M335 176l207 177v4l-207 178l67 75l293 -253v-4l-293 -253z" />
    <glyph glyph-name="angle_down.icon" unicode="&#xe005;" 
d="M245 450l75 65l178 -205h4l178 205l75 -65l-253 -293h-4z" />
    <glyph glyph-name="angle_double_left.icon" unicode="&#xe006;" 
d="M170 353v4l293 253l67 -75l-207 -178v-4l207 -177l-67 -76zM422 353v4l293 253l67 -75l-207 -178v-4l207 -177l-67 -76z" />
    <glyph glyph-name="angle_double_up.icon" unicode="&#xe007;" 
d="M245 133l253 293h4l253 -293l-75 -65l-178 205h-4l-178 -205zM245 385l253 293h4l253 -293l-75 -65l-178 205h-4l-178 -205z" />
    </font>
</defs>
</svg>
