<svg xmlns="http://www.w3.org/2000/svg">
<defs>
<font id="TTInterphases-DemiBoldItalic" horiz-adv-x="1000" >
  <font-face 
    font-family="TT Interphases DemiBold"
    font-weight="600"
    font-style="italic"
    font-stretch="normal"
    units-per-em="1000"
    panose-1="2 0 5 3 2 0 0 9 0 4"
    ascent="760"
    descent="-240"
    x-height="530"
    cap-height="700"
    bbox="-391 -250 1498 1000"
    underline-thickness="50"
    underline-position="-200"
    slope="-11"
    unicode-range="U+000D-FB04"
  />
<missing-glyph horiz-adv-x="900" 
d="M100 284h45v-139h33v139h50v31h-128v126l19 -61h23l34 106l33 -106h23l54 170h-32l-34 -110l-35 110h-19l-35 -110l-31 103v157h700v-150h-110v-170h110v-91q-13 27 -50 27q-29 0 -44.5 -14.5t-15.5 -34.5q0 -22 13.5 -32t30 -15t30.5 -9.5t14 -16.5q0 -14 -9.5 -17.5
t-18.5 -3.5q-15 0 -21.5 7.5t-6.5 17.5h-33q0 -24 16.5 -39.5t44.5 -15.5q20 0 32.5 7.5t17.5 12.5v-163h-700v284zM328 143q38 0 60 25t22 61q0 37 -22.5 62t-59.5 25t-59.5 -25t-22.5 -62q0 -36 22 -61t60 -25zM328 174q-23 0 -37 16t-14 39q0 24 13.5 40t37.5 16
t37.5 -16t13.5 -40q0 -23 -14 -39t-37 -16zM549 315h-32v-106q0 -29 19.5 -47.5t48.5 -18.5t48 18.5t19 47.5v106h-32v-106q0 -15 -9 -25t-26 -10q-18 0 -27 11t-9 24v106zM344 380v62h24l35 -62h37l-40 67q36 16 36 50q0 21 -15.5 37t-41.5 16h-68v-170h33zM344 519h35
q10 0 17 -6t7 -17q0 -13 -8 -18t-16 -5h-35v46zM502 380v170h-33v-170h33zM800 262v-38q-11 10 -24 14.5t-24.5 8.5t-19.5 8t-8 12q0 9 7.5 14.5t18.5 5.5q10 0 18 -6.5t8 -18.5h24zM612 380v139h50v31h-132v-31h50v-139h32zM722 452h78v-41h-78v41zM722 519h78v-36h-78v36z
" />
    <glyph glyph-name="ff" unicode="ff" horiz-adv-x="685" 
d="M182 425h-85l21 105h85l11 60q11 61 52 95.5t104 34.5h114l-20 -105h-82q-23 0 -38 -14t-19 -35l-7 -36h205l11 60q11 61 52 95.5t104 34.5h114l-20 -105h-82q-23 0 -38 -14t-19 -35l-7 -36h130l-21 -105h-130l-82 -425h-115l82 425h-205l-82 -425h-115z" />
    <glyph glyph-name="fi" unicode="fi" horiz-adv-x="600" 
d="M182 425h-85l21 105h85l11 60q11 61 52 95.5t104 34.5h114l-20 -105h-82q-23 0 -38 -14t-19 -35l-7 -36h320l-103 -530h-115l82 425h-205l-82 -425h-115zM598 590q-30 0 -48 18t-18 46q0 32 22.5 54t56.5 22q30 0 48.5 -18t18.5 -46q0 -32 -23 -54t-57 -22z" />
    <glyph glyph-name="fl" unicode="fl" horiz-adv-x="605" 
d="M182 425h-85l21 105h85l11 60q11 61 52 95.5t104 34.5h304l-139 -720h-115l119 615h-157q-23 0 -38 -14t-19 -35l-7 -36h130l-21 -105h-130l-82 -425h-115z" />
    <glyph glyph-name="ffi" unicode="ffi" horiz-adv-x="920" 
d="M182 425h-85l21 105h85l11 60q11 61 52 95.5t104 34.5h114l-20 -105h-82q-23 0 -38 -14t-19 -35l-7 -36h205l11 60q11 61 52 95.5t104 34.5h114l-20 -105h-82q-23 0 -38 -14t-19 -35l-7 -36h320l-103 -530h-115l82 425h-205l-82 -425h-115l82 425h-205l-82 -425h-115z
M918 590q-30 0 -48 18t-18 46q0 32 22.5 54t56.5 22q30 0 48.5 -18t18.5 -46q0 -32 -23 -54t-57 -22z" />
    <glyph glyph-name="ffl" unicode="ffl" horiz-adv-x="925" 
d="M182 425h-85l21 105h85l11 60q11 61 52 95.5t104 34.5h114l-20 -105h-82q-23 0 -38 -14t-19 -35l-7 -36h205l11 60q11 61 52 95.5t104 34.5h304l-139 -720h-115l119 615h-157q-23 0 -38 -14t-19 -35l-7 -36h130l-21 -105h-130l-82 -425h-115l82 425h-205l-82 -425h-115z
" />
    <glyph glyph-name="f_f_j" unicode="ffj" horiz-adv-x="920" 
d="M586 -100h85q20 0 37 13.5t22 37.5l92 474h-205l-82 -425h-115l82 425h-205l-82 -425h-115l82 425h-85l21 105h85l11 60q11 61 52 95.5t104 34.5h114l-20 -105h-82q-23 0 -38 -14t-19 -35l-7 -36h205l11 60q11 61 52 95.5t104 34.5h114l-20 -105h-82q-23 0 -38 -14
t-19 -35l-7 -36h320l-116 -600q-13 -65 -52.5 -97.5t-102.5 -32.5h-120zM918 590q-30 0 -48 18t-18 46q0 32 22.5 54t56.5 22q30 0 48.5 -18t18.5 -46q0 -32 -23 -54t-57 -22z" />
    <glyph glyph-name="f_j" unicode="fj" horiz-adv-x="600" 
d="M266 -100h85q20 0 37 13.5t22 37.5l92 474h-205l-82 -425h-115l82 425h-85l21 105h85l11 60q11 61 52 95.5t104 34.5h114l-20 -105h-82q-23 0 -38 -14t-19 -35l-7 -36h320l-116 -600q-13 -65 -52.5 -97.5t-102.5 -32.5h-120zM598 590q-30 0 -48 18t-18 46q0 32 22.5 54
t56.5 22q30 0 48.5 -18t18.5 -46q0 -32 -23 -54t-57 -22z" />
    <glyph glyph-name=".notdef" horiz-adv-x="900" 
d="M100 284h45v-139h33v139h50v31h-128v126l19 -61h23l34 106l33 -106h23l54 170h-32l-34 -110l-35 110h-19l-35 -110l-31 103v157h700v-150h-110v-170h110v-91q-13 27 -50 27q-29 0 -44.5 -14.5t-15.5 -34.5q0 -22 13.5 -32t30 -15t30.5 -9.5t14 -16.5q0 -14 -9.5 -17.5
t-18.5 -3.5q-15 0 -21.5 7.5t-6.5 17.5h-33q0 -24 16.5 -39.5t44.5 -15.5q20 0 32.5 7.5t17.5 12.5v-163h-700v284zM328 143q38 0 60 25t22 61q0 37 -22.5 62t-59.5 25t-59.5 -25t-22.5 -62q0 -36 22 -61t60 -25zM328 174q-23 0 -37 16t-14 39q0 24 13.5 40t37.5 16
t37.5 -16t13.5 -40q0 -23 -14 -39t-37 -16zM549 315h-32v-106q0 -29 19.5 -47.5t48.5 -18.5t48 18.5t19 47.5v106h-32v-106q0 -15 -9 -25t-26 -10q-18 0 -27 11t-9 24v106zM344 380v62h24l35 -62h37l-40 67q36 16 36 50q0 21 -15.5 37t-41.5 16h-68v-170h33zM344 519h35
q10 0 17 -6t7 -17q0 -13 -8 -18t-16 -5h-35v46zM502 380v170h-33v-170h33zM800 262v-38q-11 10 -24 14.5t-24.5 8.5t-19.5 8t-8 12q0 9 7.5 14.5t18.5 5.5q10 0 18 -6.5t8 -18.5h24zM612 380v139h50v31h-132v-31h50v-139h32zM722 452h78v-41h-78v41zM722 519h78v-36h-78v36z
" />
    <glyph glyph-name=".null" horiz-adv-x="0" 
 />
    <glyph glyph-name=".null" horiz-adv-x="0" 
 />
    <glyph glyph-name="nonmarkingreturn" unicode="&#xd;" horiz-adv-x="0" 
 />
    <glyph glyph-name="space" unicode=" " horiz-adv-x="220" 
 />
    <glyph glyph-name="exclam" unicode="!" horiz-adv-x="290" 
d="M146 -5q-29 0 -46.5 18t-17.5 46q0 32 22.5 54t54.5 22q29 0 46.5 -18t17.5 -46q0 -32 -22.5 -54t-54.5 -22zM204 640l12 60h120l-12 -60l-97 -420h-90z" />
    <glyph glyph-name="quotedbl" unicode="&#x22;" horiz-adv-x="390" 
d="M196 700h105l-44 -225h-105zM361 700h105l-44 -225h-105z" />
    <glyph glyph-name="numbersign" unicode="#" horiz-adv-x="665" 
d="M161 175h-107l39 100h109l61 150h-111l40 100h112l72 175h105l-72 -175h125l72 175h105l-72 -175h108l-40 -100h-109l-61 -150h111l-39 -100h-113l-71 -175h-105l71 175h-125l-71 -175h-105zM432 275l61 150h-125l-61 -150h125z" />
    <glyph glyph-name="dollar" unicode="$" horiz-adv-x="615" 
d="M244 1q-70 18 -118 66t-56 133h124q8 -48 49 -74.5t108 -26.5q66 0 99.5 28.5t33.5 73.5q0 34 -25 53t-62 32t-81 25.5t-81 34t-62 57.5t-25 97q0 50 17.5 88.5t49 64.5t74 40.5t93.5 16.5l20 100h125l-23 -113q73 -20 110.5 -67t42.5 -110h-125q-9 35 -43 57.5t-95 22.5
q-60 0 -90 -27.5t-30 -66.5q0 -26 14.5 -43.5t38.5 -30t55 -22t62.5 -20.5t62.5 -25t55 -35.5t38.5 -53t14.5 -76.5q0 -41 -17 -78t-48.5 -65t-77.5 -45.5t-104 -20.5l-20 -101h-125z" />
    <glyph glyph-name="percent" unicode="%" horiz-adv-x="760" 
d="M676 700h110l-566 -700h-110zM584 -10q-69 0 -109 40t-40 104q0 42 13.5 76.5t37 59t55.5 37.5t69 13q69 0 109 -40t40 -104q0 -42 -13.5 -76.5t-37 -59t-55.5 -37.5t-69 -13zM589 70q35 0 60 26t25 74q0 32 -18.5 51t-50.5 19q-35 0 -60 -26t-25 -74q0 -32 18.5 -51
t50.5 -19zM286 380q-69 0 -109 40t-40 104q0 42 13.5 76.5t37 59t55.5 37.5t69 13q69 0 109 -40t40 -104q0 -42 -13.5 -76.5t-37 -59t-55.5 -37.5t-69 -13zM291 460q35 0 60 26t25 74q0 32 -18.5 51t-50.5 19q-35 0 -60 -26t-25 -74q0 -32 18.5 -51t50.5 -19z" />
    <glyph glyph-name="ampersand" unicode="&#x26;" horiz-adv-x="635" 
d="M259 -10q-38 0 -74 10.5t-64.5 32.5t-46 54.5t-17.5 76.5q0 32 10.5 58t28.5 47.5t43 40.5t54 37l45 27l-27 32q-17 22 -28.5 53.5t-11.5 63.5q0 36 14 70t39.5 60t62.5 41.5t84 15.5q45 0 79.5 -12.5t57.5 -34.5t35 -51t12 -62q0 -52 -28 -89.5t-92 -72.5l-44 -28
l106 -130l95 80h158l-185 -160l120 -150h-138l-66 80q-17 -15 -39 -31t-49.5 -29t-60.5 -21.5t-73 -8.5zM275 95q45 0 79 21t61 44l-116 139l-40 -24q-37 -23 -56.5 -45t-19.5 -54q0 -37 27 -59t65 -22zM375 461q10 6 21 13.5t21 16.5t16.5 21t6.5 28q0 26 -18 45.5
t-52 19.5q-37 0 -61 -22.5t-24 -57.5q0 -34 25 -65l22 -27z" />
    <glyph glyph-name="quotesingle" unicode="'" horiz-adv-x="225" 
d="M196 700h105l-44 -225h-105z" />
    <glyph glyph-name="parenleft" unicode="(" horiz-adv-x="335" 
d="M165 -200q-28 60 -42.5 140t-14.5 165q0 94 18 183.5t49.5 169.5t75.5 149t95 123h121q-51 -59 -95.5 -128t-77.5 -147.5t-52 -166t-19 -183.5q0 -91 12 -166.5t40 -138.5h-110v0z" />
    <glyph glyph-name="parenright" unicode=")" horiz-adv-x="335" 
d="M-30 -200q51 58 95.5 127.5t77.5 148t52 166t19 183.5q0 91 -12 166.5t-40 138.5h110q28 -60 42.5 -140t14.5 -165q0 -95 -18 -184t-49.5 -169t-75.5 -149t-95 -123h-121v0z" />
    <glyph glyph-name="asterisk" unicode="*" horiz-adv-x="470" 
d="M160 380l100 105l-145 35l30 90l135 -50l-15 140h100l-15 -140l135 50l30 -90l-145 -35l100 -105l-85 -55l-70 121l-70 -121z" />
    <glyph glyph-name="plus" unicode="+" horiz-adv-x="555" 
d="M290 260h-190v95h190v190h95v-190h190v-95h-190v-190h-95v190z" />
    <glyph glyph-name="comma" unicode="," horiz-adv-x="220" 
d="M79 100h110l-100 -205h-89z" />
    <glyph glyph-name="hyphen" unicode="-" horiz-adv-x="395" 
d="M105 335h315l-21 -105h-315z" />
    <glyph glyph-name="period" unicode="." horiz-adv-x="220" 
d="M116 -5q-29 0 -46.5 18t-17.5 46q0 32 22.5 54t54.5 22q29 0 46.5 -18t17.5 -46q0 -32 -22.5 -54t-54.5 -22z" />
    <glyph glyph-name="slash" unicode="/" horiz-adv-x="410" 
d="M426 730h129l-470 -930h-128z" />
    <glyph glyph-name="zero" unicode="0" horiz-adv-x="670" 
d="M362 -10q-59 0 -107.5 18.5t-83.5 53.5t-54 86t-19 117q0 90 23.5 171t67.5 142t107 96.5t142 35.5q59 0 107.5 -18.5t83.5 -53.5t54 -86t19 -117q0 -90 -23.5 -171t-67.5 -142t-107 -96.5t-142 -35.5zM367 105q47 0 85.5 25.5t66.5 69t43 101.5t15 124q0 43 -11.5 75
t-31 53t-46 31.5t-55.5 10.5q-47 0 -85.5 -25.5t-66.5 -69t-43 -101.5t-15 -124q0 -43 11.5 -75t31 -53t46 -31.5t55.5 -10.5z" />
    <glyph glyph-name="one" unicode="1" horiz-adv-x="370" 
d="M268 505h-140l21 110h100q40 0 48 41l9 44h125l-136 -700h-125z" />
    <glyph glyph-name="two" unicode="2" horiz-adv-x="585" 
d="M62 111l352 279q34 27 59.5 55.5t25.5 66.5q0 37 -26 62.5t-86 25.5q-47 0 -80.5 -29.5t-44.5 -70.5h-125q9 42 29.5 80.5t53 67t75.5 45.5t97 17q60 0 104.5 -15t74 -40.5t44.5 -59.5t15 -73q0 -37 -13 -67t-33.5 -55.5t-45 -47t-48.5 -40.5l-250 -202h321l-21 -110
h-500z" />
    <glyph glyph-name="three" unicode="3" horiz-adv-x="590" 
d="M325 -10q-49 0 -95 11.5t-81 37t-56.5 65.5t-21.5 96h125q4 -48 41.5 -74t94.5 -26t92 29t35 77q0 38 -31 66t-84 28h-51l20 105h76q57 0 87.5 29t30.5 73q0 18 -6.5 34.5t-20.5 29.5t-35.5 21t-51.5 8q-42 0 -80 -25.5t-52 -74.5h-126q25 103 93.5 156.5t167.5 53.5
q55 0 99.5 -14t75 -39t47 -59.5t16.5 -74.5q0 -70 -37.5 -116t-99.5 -63q40 -20 62.5 -56t22.5 -86q0 -48 -19.5 -87t-53.5 -67t-81.5 -43t-102.5 -15z" />
    <glyph glyph-name="four" unicode="4" horiz-adv-x="590" 
d="M383 145h-335l21 110l377 445h170l-87 -445h90l-21 -110h-90l-28 -145h-125zM404 255l58 300h-5l-254 -300h201z" />
    <glyph glyph-name="five" unicode="5" horiz-adv-x="595" 
d="M333 -10q-50 0 -92 14t-74 41t-52.5 66t-26.5 89h123q7 -45 40.5 -72.5t85.5 -27.5q67 0 105 43t38 109q0 24 -7.5 45t-22.5 37.5t-38 26t-55 9.5q-36 0 -68.5 -16.5t-54.5 -48.5h-120l117 395h420l-22 -110h-315l-43 -148h5q42 28 109 28q49 0 90 -14.5t69.5 -42.5
t44.5 -68.5t16 -91.5q0 -56 -20.5 -104t-56.5 -83t-86 -55.5t-109 -20.5z" />
    <glyph glyph-name="six" unicode="6" horiz-adv-x="600" 
d="M336 -10q-48 0 -93 14t-80.5 42t-56.5 69.5t-21 95.5q0 70 30.5 132t85.5 125l194 232h147l-214 -250h5q13 5 24.5 7t28.5 2q52 0 93.5 -17t69.5 -45.5t43 -66.5t15 -81q0 -57 -20.5 -104.5t-56.5 -82t-86 -53.5t-108 -19zM340 100q30 0 56 10t45 29t30 46t11 60
q0 52 -34.5 84t-94.5 32q-30 0 -56.5 -10.5t-45.5 -29t-30 -45t-11 -59.5q0 -26 10 -47.5t27.5 -37t41 -24t51.5 -8.5z" />
    <glyph glyph-name="seven" unicode="7" horiz-adv-x="530" 
d="M472 590h-328l22 110h470l-22 -110l-374 -590h-142z" />
    <glyph glyph-name="eight" unicode="8" horiz-adv-x="610" 
d="M340 -10q-47 0 -92.5 10.5t-82 34t-59 61t-22.5 90.5q0 34 12 63.5t32 53.5t47 41t56 26q-31 20 -51.5 55t-20.5 83q0 45 20 82.5t54.5 64t80 41t96.5 14.5q55 0 99.5 -14t75.5 -39.5t47.5 -60t16.5 -75.5q0 -34 -11.5 -61.5t-30 -49t-42 -36.5t-47.5 -24
q36 -18 60.5 -58.5t24.5 -91.5q0 -45 -19.5 -83t-54 -66.5t-83 -44.5t-106.5 -16zM345 100q61 0 98.5 30t37.5 83q0 43 -35 70t-101 27q-61 0 -98 -29.5t-37 -82.5q0 -25 11.5 -43.5t30 -30.5t43 -18t50.5 -6zM405 410q57 0 87.5 29t30.5 72q0 38 -30.5 63.5t-93.5 25.5
q-56 0 -86.5 -28.5t-30.5 -73.5q0 -23 10.5 -39.5t27.5 -27.5t39 -16t46 -5z" />
    <glyph glyph-name="nine" unicode="9" horiz-adv-x="600" 
d="M398 250h-5q-13 -5 -24.5 -7t-28.5 -2q-53 0 -94 17t-69 45.5t-43 66.5t-15 81q0 57 20.5 104.5t56.5 82t85.5 53.5t108.5 19q48 0 93 -14t80.5 -42t56.5 -69.5t21 -95.5q0 -70 -30.5 -132t-85.5 -125l-194 -232h-147zM373 339q30 0 56.5 10.5t45.5 29t30 45t11 59.5
q0 26 -10 47.5t-27.5 37t-41 24t-51.5 8.5q-30 0 -56 -10t-45 -29t-30 -46t-11 -60q0 -52 34.5 -84t94.5 -32z" />
    <glyph glyph-name="colon" unicode=":" horiz-adv-x="220" 
d="M116 -5q-29 0 -46.5 18t-17.5 46q0 32 22.5 54t54.5 22q29 0 46.5 -18t17.5 -46q0 -32 -22.5 -54t-54.5 -22zM194 395q-29 0 -46.5 18t-17.5 46q0 32 22.5 54t54.5 22q29 0 46.5 -18t17.5 -46q0 -32 -22.5 -54t-54.5 -22z" />
    <glyph glyph-name="semicolon" unicode=";" horiz-adv-x="220" 
d="M79 100h110l-100 -205h-89zM194 395q-29 0 -46.5 18t-17.5 46q0 32 22.5 54t54.5 22q29 0 46.5 -18t17.5 -46q0 -32 -22.5 -54t-54.5 -22z" />
    <glyph glyph-name="less" unicode="&#x3c;" horiz-adv-x="525" 
d="M100 260v100l435 215v-110l-320 -155l320 -155v-110z" />
    <glyph glyph-name="equal" unicode="=" horiz-adv-x="550" 
d="M95 245h480v-95h-480v95zM95 460h480v-95h-480v95z" />
    <glyph glyph-name="greater" unicode="&#x3e;" horiz-adv-x="525" 
d="M115 155l320 155l-320 155v110l435 -215v-100l-435 -215v110z" />
    <glyph glyph-name="question" unicode="?" horiz-adv-x="515" 
d="M246 -5q-29 0 -46.5 18t-17.5 46q0 32 22.5 54t54.5 22q29 0 46.5 -18t17.5 -46q0 -32 -22.5 -54t-54.5 -22zM231 267q9 46 27.5 75.5t41.5 48.5t47 32t44 27t32.5 32.5t12.5 48.5q0 29 -21 51.5t-69 22.5q-38 0 -70.5 -25t-42.5 -70h-122q7 41 27 77.5t50.5 63.5t70 43
t86.5 16q50 0 90.5 -12.5t68.5 -35t43 -53.5t15 -68q0 -45 -14.5 -76t-37 -53t-49 -38.5t-50.5 -33t-42.5 -36t-24.5 -48.5l-7 -36h-115z" />
    <glyph glyph-name="at" unicode="@" horiz-adv-x="925" 
d="M445 -100q-79 0 -142.5 25.5t-108.5 71.5t-69 110t-24 140q0 99 33.5 182.5t93 143.5t141 93.5t178.5 33.5q95 0 169.5 -26.5t126 -73.5t78.5 -111t27 -139q0 -64 -15.5 -114t-43 -84.5t-64.5 -53t-80 -18.5q-36 0 -58 10.5t-35 24.5q-15 15 -22 35h-5
q-9 -13 -24.5 -25.5t-34.5 -22.5t-40.5 -16t-43.5 -6q-82 0 -125.5 48.5t-43.5 131.5q0 52 16.5 97t44 78t64.5 51.5t79 18.5q31 0 53.5 -6t38.5 -15t26 -20t16 -21h4l22 57h75l-49 -256l-2 -8q-1 -3 -1 -7v-7q0 -24 13 -38t37 -14q43 0 71.5 43.5t28.5 126.5
q0 56 -19.5 105.5t-58 86t-96 57.5t-133.5 21t-139.5 -26.5t-109.5 -74t-71.5 -112.5t-25.5 -141q0 -56 17.5 -104.5t50.5 -84.5t79.5 -56.5t103.5 -20.5h160l-18 -90h-145zM503 165q52 0 86.5 41.5t34.5 111.5q0 48 -25 74t-70 26q-53 0 -86.5 -39.5t-33.5 -111.5
q0 -43 24 -72.5t70 -29.5z" />
    <glyph glyph-name="A" unicode="A" horiz-adv-x="655" 
d="M396 700h155l119 -700h-125l-25 150h-297l-83 -150h-135zM502 260l-49 300h-5l-165 -300h219z" />
    <glyph glyph-name="B" unicode="B" horiz-adv-x="660" 
d="M211 700h318q43 0 76 -13.5t55.5 -36.5t33.5 -54t11 -67q0 -35 -9.5 -64.5t-26 -53t-39 -40.5t-47.5 -26q31 -20 51.5 -54t20.5 -81q0 -48 -16 -86.5t-44.5 -66t-68.5 -42.5t-88 -15h-363zM428 110q47 0 74.5 28.5t27.5 79.5q0 34 -20.5 58t-60.5 24h-191l-37 -190h207z
M470 400q47 0 76 28t29 79q0 35 -20.5 59t-59.5 24h-181l-37 -190h193z" />
    <glyph glyph-name="C" unicode="C" horiz-adv-x="705" 
d="M407 -10q-67 0 -122.5 18.5t-95 55t-61.5 91t-22 125.5q0 96 27 175t75 136t113.5 88t142.5 31q65 0 114.5 -15.5t85 -44t57 -68t30.5 -87.5h-128q-17 48 -55 76.5t-107 28.5q-45 0 -87 -21t-73.5 -61t-50.5 -97.5t-19 -130.5q0 -91 48.5 -140.5t130.5 -49.5
q60 0 100 26.5t71 78.5h132q-20 -45 -49.5 -84.5t-68 -68.5t-86 -45.5t-102.5 -16.5z" />
    <glyph glyph-name="D" unicode="D" horiz-adv-x="695" 
d="M211 700h260q60 0 107 -21.5t79.5 -60t49.5 -92t17 -116.5q0 -98 -27 -174t-73.5 -128.5t-110.5 -80t-137 -27.5h-301zM373 110q45 0 85.5 18.5t72 55t50 90.5t18.5 125q0 43 -11.5 78.5t-32 60.5t-49 38.5t-62.5 13.5h-130l-93 -480h152z" />
    <glyph glyph-name="E" unicode="E" horiz-adv-x="595" 
d="M211 700h460l-22 -110h-335l-36 -185h315l-20 -105h-315l-37 -190h345l-21 -110h-470z" />
    <glyph glyph-name="F" unicode="F" horiz-adv-x="580" 
d="M211 700h460l-22 -110h-335l-39 -200h310l-21 -110h-310l-54 -280h-125z" />
    <glyph glyph-name="G" unicode="G" horiz-adv-x="720" 
d="M407 -10q-67 0 -122.5 18.5t-95 55t-61.5 91t-22 125.5q0 96 27 175t75 136t113.5 88t142.5 31q65 0 114.5 -15.5t85 -44t57 -68t30.5 -87.5h-128q-17 48 -55 76.5t-107 28.5q-45 0 -87 -21t-73.5 -61t-50.5 -97.5t-19 -130.5q0 -91 48.5 -140.5t130.5 -49.5
q39 0 71 12.5t56.5 34.5t42 52t27.5 66h-196l20 105h320l-15 -80q-12 -70 -41 -125.5t-72 -94.5t-97.5 -59.5t-118.5 -20.5z" />
    <glyph glyph-name="H" unicode="H" horiz-adv-x="715" 
d="M211 700h125l-57 -290h315l57 290h125l-136 -700h-125l58 300h-315l-58 -300h-125z" />
    <glyph glyph-name="I" unicode="I" horiz-adv-x="275" 
d="M211 700h125l-136 -700h-125z" />
    <glyph glyph-name="J" unicode="J" horiz-adv-x="565" 
d="M283 -10q-103 0 -161.5 54.5t-60.5 160.5h124q1 -51 29 -78t72 -27t77 31.5t46 98.5l92 470h125l-94 -482q-22 -111 -87.5 -169.5t-161.5 -58.5z" />
    <glyph glyph-name="K" unicode="K" horiz-adv-x="600" 
d="M211 700h125l-63 -320l338 320h152l-369 -352l236 -348h-140l-226 330l-64 -330h-125z" />
    <glyph glyph-name="L" unicode="L" horiz-adv-x="530" 
d="M211 700h125l-115 -590h335l-21 -110h-460z" />
    <glyph glyph-name="M" unicode="M" horiz-adv-x="895" 
d="M211 700h180l83 -520h5l287 520h190l-136 -700h-125l103 535h-5l-293 -535h-105l-87 535h-5l-103 -535h-125z" />
    <glyph glyph-name="N" unicode="N" horiz-adv-x="745" 
d="M211 700h165l195 -537h5l105 537h125l-136 -700h-165l-195 537h-5l-105 -537h-125z" />
    <glyph glyph-name="O" unicode="O" horiz-adv-x="740" 
d="M410 -10q-72 0 -128.5 20t-95.5 57.5t-59.5 91t-20.5 121.5q0 86 24.5 164t70.5 137t112.5 94t151.5 35q72 0 128.5 -20t95.5 -57.5t59.5 -91.5t20.5 -121q0 -86 -24.5 -164t-70.5 -137t-112.5 -94t-151.5 -35zM414 100q47 0 88.5 21.5t73 61.5t50 97.5t18.5 129.5
q0 91 -47.5 140.5t-135.5 49.5q-47 0 -88.5 -21.5t-73 -61.5t-50 -97.5t-18.5 -129.5q0 -91 47.5 -140.5t135.5 -49.5z" />
    <glyph glyph-name="P" unicode="P" horiz-adv-x="645" 
d="M211 700h278q45 0 82 -17t63 -45.5t40 -66t14 -79.5q0 -56 -20 -102.5t-55 -79.5t-82 -51.5t-100 -18.5h-185l-46 -240h-125zM433 350q60 0 95.5 37t35.5 100q0 44 -27 73.5t-78 29.5h-145l-46 -240h165z" />
    <glyph glyph-name="Q" unicode="Q" horiz-adv-x="740" 
d="M463 -6q-13 -2 -26 -3t-27 -1q-72 0 -128.5 20t-95.5 57.5t-59.5 91t-20.5 121.5q0 86 24.5 164t70.5 137t112.5 94t151.5 35q72 0 128.5 -20t95.5 -57.5t59.5 -91.5t20.5 -121q0 -62 -13 -120.5t-37.5 -108.5t-60.5 -90.5t-82 -67.5l62 -133h-131zM355 225h131l41 -89
q52 37 84.5 107t32.5 167q0 91 -47.5 140.5t-135.5 49.5q-47 0 -88.5 -21.5t-73 -61.5t-50 -97.5t-18.5 -129.5q0 -91 47.5 -140.5t134.5 -49.5z" />
    <glyph glyph-name="R" unicode="R" horiz-adv-x="650" 
d="M211 700h284q44 0 80 -15.5t61.5 -42t39.5 -62.5t14 -77q0 -67 -23 -112t-56 -73t-69 -41t-62 -17l132 -260h-134l-130 260h-98l-50 -260h-125zM445 370q52 0 86 32.5t34 91.5q0 42 -25 69t-70 27h-156l-43 -220h174z" />
    <glyph glyph-name="S" unicode="S" horiz-adv-x="615" 
d="M348 -10q-56 0 -104.5 12t-85 37.5t-60 65t-28.5 95.5h124q8 -48 49 -74.5t108 -26.5q66 0 99.5 28.5t33.5 73.5q0 34 -25 53t-62 32t-81 25.5t-81 34.5t-62 58t-25 96q0 50 18 89t51 66t79 41t101 14q63 0 110.5 -14t79.5 -39.5t49.5 -60.5t20.5 -76h-125
q-9 35 -43 57.5t-95 22.5q-60 0 -90 -27.5t-30 -66.5q0 -36 25.5 -55.5t63.5 -33.5t82.5 -27t82 -35t62.5 -58.5t25 -96.5q0 -42 -18 -80t-52 -67t-83.5 -46t-113.5 -17z" />
    <glyph glyph-name="T" unicode="T" horiz-adv-x="585" 
d="M334 590h-215l22 110h555l-22 -110h-215l-114 -590h-125z" />
    <glyph glyph-name="U" unicode="U" horiz-adv-x="710" 
d="M391 -10q-58 0 -107 17t-84.5 49.5t-55.5 80.5t-20 110q0 34 3 49.5t5 27.5l74 376h125l-76 -388q-2 -11 -4 -22.5t-2 -31.5q0 -75 39 -116.5t105 -41.5q64 0 112.5 46t65.5 135l80 419h125l-82 -431q-13 -68 -40.5 -120t-66.5 -87.5t-89 -53.5t-107 -18z" />
    <glyph glyph-name="V" unicode="V" horiz-adv-x="655" 
d="M131 700h127l76 -560h5l294 560h143l-376 -700h-165z" />
    <glyph glyph-name="W" unicode="W" horiz-adv-x="935" 
d="M141 700h125l17 -530h5l233 530h145l27 -530h5l223 530h135l-316 -700h-150l-23 525h-5l-227 -525h-150z" />
    <glyph glyph-name="X" unicode="X" horiz-adv-x="600" 
d="M289 360l-158 340h131l115 -255l215 255h149l-292 -340l166 -360h-131l-122 275l-228 -275h-149z" />
    <glyph glyph-name="Y" unicode="Y" horiz-adv-x="585" 
d="M263 250l-157 450h120l111 -325h5l239 325h140l-333 -450l-48 -250h-125z" />
    <glyph glyph-name="Z" unicode="Z" horiz-adv-x="590" 
d="M53 95l450 495h-344l22 110h505l-19 -95l-449 -495h358l-21 -110h-520z" />
    <glyph glyph-name="bracketleft" unicode="[" horiz-adv-x="330" 
d="M216 730h230l-21 -110h-115l-138 -710h115l-21 -110h-230z" />
    <glyph glyph-name="backslash" unicode="\" horiz-adv-x="410" 
d="M146 730h115l110 -930h-115z" />
    <glyph glyph-name="bracketright" unicode="]" horiz-adv-x="330" 
d="M7 -90h115l138 710h-115l21 110h230l-180 -930h-229z" />
    <glyph glyph-name="asciicircum" unicode="^" horiz-adv-x="475" 
d="M255 700h105l150 -320h-100l-100 225h-5l-100 -225h-100z" />
    <glyph glyph-name="underscore" unicode="_" horiz-adv-x="420" 
d="M-22 -115h459l-20 -105h-459z" />
    <glyph glyph-name="grave" unicode="`" horiz-adv-x="265" 
d="M175 750h115l62 -145h-90z" />
    <glyph glyph-name="a" unicode="a" horiz-adv-x="550" 
d="M233 -10q-32 0 -62.5 10t-53.5 29t-37 47t-14 65q0 36 14 68.5t40 57t64 39t85 14.5h166l3 15q2 10 2 20q0 38 -25.5 61.5t-73.5 23.5q-39 0 -63 -18.5t-35 -41.5h-121q12 34 33.5 63t50.5 50.5t65 34t75 12.5q55 0 94.5 -13.5t65 -37.5t37.5 -57t12 -71q0 -11 -1.5 -23
t-3.5 -18l-62 -320h-100l2 55h-5q-9 -11 -22 -22.5t-31.5 -21t-43 -15.5t-55.5 -6zM274 90q56 0 90.5 28.5t44.5 74.5l8 37h-149q-45 0 -66 -21t-21 -52t23.5 -49t69.5 -18z" />
    <glyph glyph-name="b" unicode="b" horiz-adv-x="610" 
d="M365 -10q-57 0 -100 21t-66 59h-5l-29 -70h-95l136 700h115l-43 -220h5q8 9 21 19.5t31 19.5t40 15t48 6q44 0 81.5 -14t64.5 -41.5t42 -67.5t15 -92q0 -78 -21 -140.5t-56.5 -105.5t-83 -66t-100.5 -23zM354 95q30 0 58.5 13.5t50 40.5t35 66t13.5 90q0 67 -34 98.5
t-86 31.5q-30 0 -58.5 -13.5t-50 -40.5t-35 -66t-13.5 -90q0 -67 34 -98.5t86 -31.5z" />
    <glyph glyph-name="c" unicode="c" horiz-adv-x="560" 
d="M319 -10q-110 0 -171 61t-61 171q0 69 21.5 127.5t58.5 100.5t87.5 66t109.5 24q52 0 91.5 -14t68 -38t45 -56t22.5 -67h-117q-14 32 -40.5 51t-74.5 19q-30 0 -58.5 -14t-50.5 -40.5t-35 -64.5t-13 -87q0 -65 32.5 -99.5t92.5 -34.5q43 0 71.5 19t50.5 51h114
q-11 -34 -34 -65.5t-55 -56t-71.5 -39t-83.5 -14.5z" />
    <glyph glyph-name="d" unicode="d" horiz-adv-x="610" 
d="M290 -10q-44 0 -81.5 14t-64.5 41.5t-42 67.5t-15 92q0 78 21 140.5t56.5 105.5t83 66t100.5 23q54 0 96.5 -20.5t65.5 -54.5h5l46 235h115l-136 -700h-95l-2 60h-5q-8 -11 -22 -23.5t-32.5 -23t-42 -17t-51.5 -6.5zM322 95q30 0 58.5 13.5t50 40.5t35 66t13.5 90
q0 67 -34 98.5t-86 31.5q-30 0 -58.5 -13.5t-50 -40.5t-35 -66t-13.5 -90q0 -67 34 -98.5t86 -31.5z" />
    <glyph glyph-name="e" unicode="e" horiz-adv-x="580" 
d="M317 -10q-51 0 -93.5 15t-73 44t-47 72t-16.5 99q0 73 22.5 132t60.5 101t88 64.5t106 22.5q61 0 104.5 -18t72 -49.5t42 -73.5t13.5 -89q0 -24 -3.5 -45t-8.5 -35h-381q-2 -59 30.5 -97.5t95.5 -38.5q31 0 64 16t50 45h123q-14 -35 -37 -65t-54 -52t-70.5 -35t-87.5 -13
zM480 320q-2 23 -10 44t-23 36.5t-37 25t-51 9.5q-46 0 -84.5 -30.5t-56.5 -84.5h262z" />
    <glyph glyph-name="f" unicode="f" horiz-adv-x="365" 
d="M182 425h-85l21 105h85l11 60q11 61 52 95.5t104 34.5h114l-20 -105h-82q-23 0 -38 -14t-19 -35l-7 -36h130l-21 -105h-130l-82 -425h-115z" />
    <glyph glyph-name="g" unicode="g" horiz-adv-x="600" 
d="M290 -200q-42 0 -82 8t-72.5 27.5t-55.5 52.5t-32 82h117q10 -32 43 -48.5t82 -16.5q54 0 87.5 24t42.5 72l17 89h-5q-22 -26 -59.5 -43t-82.5 -17t-82.5 14.5t-63.5 41t-40.5 64.5t-14.5 85q0 71 20 127.5t54.5 96t80.5 60.5t97 21q63 0 104.5 -22.5t63.5 -57.5h5l29 70
h95l-105 -537q-20 -100 -84.5 -146.5t-158.5 -46.5zM324 135q29 0 56.5 12t48.5 35t33.5 56t12.5 74q0 25 -8 47.5t-23 39.5t-37 26.5t-50 9.5q-29 0 -56.5 -12t-48.5 -35t-33.5 -56t-12.5 -74q0 -26 8 -48t23 -39t37 -26.5t50 -9.5z" />
    <glyph glyph-name="h" unicode="h" horiz-adv-x="585" 
d="M206 700h115l-44 -225h5q23 27 58.5 46t75.5 19t72.5 -13t55 -37t34.5 -57.5t12 -73.5q0 -19 -1.5 -30.5t-3.5 -19.5l-60 -309h-115l60 310q1 5 2 12t1 16q0 48 -26.5 72.5t-73.5 24.5q-48 0 -82 -30.5t-43 -77.5l-63 -327h-115z" />
    <glyph glyph-name="i" unicode="i" horiz-adv-x="245" 
d="M168 530h115l-103 -530h-115zM243 590q-30 0 -48 18t-18 46q0 32 22.5 54t56.5 22q30 0 48.5 -18t18.5 -46q0 -32 -23 -54t-57 -22z" />
    <glyph glyph-name="j" unicode="j" horiz-adv-x="245" 
d="M-89 -100h85q20 0 37 13.5t22 37.5l113 579h115l-116 -600q-13 -65 -52.5 -97.5t-102.5 -32.5h-120zM243 590q-30 0 -48 18t-18 46q0 32 22.5 54t56.5 22q30 0 48.5 -18t18.5 -46q0 -32 -23 -54t-57 -22z" />
    <glyph glyph-name="k" unicode="k" horiz-adv-x="525" 
d="M206 700h115l-80 -410l262 240h149l-295 -268l192 -262h-134l-182 250l-48 -250h-115z" />
    <glyph glyph-name="l" unicode="l" horiz-adv-x="255" 
d="M206 700h115l-136 -700h-115z" />
    <glyph glyph-name="m" unicode="m" horiz-adv-x="880" 
d="M168 530h95l2 -60h5q30 38 63.5 54t69.5 16q33 0 57 -8.5t40.5 -22t26.5 -29t15 -30.5h5q21 38 64 64t99 26q79 0 127.5 -45t48.5 -130q0 -24 -1.5 -33.5t-3.5 -17.5l-61 -314h-115l59 305q1 5 2.5 11.5t1.5 17.5q0 48 -27 74.5t-65 26.5q-39 0 -70.5 -28.5t-42.5 -82.5
l-63 -324h-115l59 305q1 5 2.5 11.5t1.5 18.5q0 48 -25.5 74t-66.5 26q-39 0 -70.5 -28t-42.5 -82l-63 -325h-115z" />
    <glyph glyph-name="n" unicode="n" horiz-adv-x="580" 
d="M168 530h95l2 -60h5q26 32 63.5 51t77.5 19t72.5 -13t55 -37t34.5 -57.5t12 -73.5q0 -19 -1.5 -30.5t-3.5 -19.5l-60 -309h-115l60 310q1 5 2 12t1 16q0 48 -26.5 72.5t-73.5 24.5q-48 0 -82 -30.5t-43 -77.5l-63 -327h-115z" />
    <glyph glyph-name="o" unicode="o" horiz-adv-x="580" 
d="M319 -10q-109 0 -170.5 60t-61.5 165q0 73 21.5 133t59 102.5t88 66t108.5 23.5q109 0 170.5 -60t61.5 -165q0 -73 -21.5 -133t-59 -102.5t-88 -66t-108.5 -23.5zM323 95q29 0 57.5 13t50.5 39t35.5 65.5t13.5 92.5q0 64 -34 97t-86 33q-29 0 -57.5 -13t-50.5 -39
t-35.5 -65.5t-13.5 -92.5q0 -64 34 -97t86 -33z" />
    <glyph glyph-name="p" unicode="p" horiz-adv-x="605" 
d="M168 530h95l2 -60h5q8 11 22 23.5t32.5 23t42 17t51.5 6.5q44 0 81.5 -14t64.5 -41.5t42 -67.5t15 -92q0 -78 -21 -140.5t-56.5 -105.5t-83 -66t-100.5 -23q-54 0 -96.5 20.5t-65.5 54.5h-5l-52 -265h-115zM349 95q30 0 58.5 13.5t50 40.5t35 66t13.5 90q0 67 -34 98.5
t-86 31.5q-30 0 -58.5 -13.5t-50 -40.5t-35 -66t-13.5 -90q0 -67 34 -98.5t86 -31.5z" />
    <glyph glyph-name="q" unicode="q" horiz-adv-x="605" 
d="M435 50h-5q-8 -9 -21 -19.5t-31 -19.5t-40 -15t-48 -6q-44 0 -81.5 14t-64.5 41.5t-42 67.5t-15 92q0 78 21 140.5t56.5 105.5t83 66t100.5 23q57 0 100 -21t66 -59h5l29 70h95l-142 -730h-115zM322 95q30 0 58.5 13.5t50 40.5t35 66t13.5 90q0 67 -34 98.5t-86 31.5
q-30 0 -58.5 -13.5t-50 -40.5t-35 -66t-13.5 -90q0 -67 34 -98.5t86 -31.5z" />
    <glyph glyph-name="r" unicode="r" horiz-adv-x="395" 
d="M168 530h95l2 -60h5q26 28 57.5 44t66.5 16h84l-22 -110h-73q-56 0 -94.5 -31t-49.5 -86l-59 -303h-115z" />
    <glyph glyph-name="s" unicode="s" horiz-adv-x="500" 
d="M283 -10q-42 0 -80.5 9t-69.5 28.5t-52 51t-27 76.5h123q7 -28 35 -44t79 -16q48 0 66 16t18 38q0 23 -19.5 36t-48.5 22t-63.5 18.5t-63.5 26t-48.5 44t-19.5 73.5q0 35 13 66t38.5 54.5t63 37t85.5 13.5q52 0 91 -12t65.5 -33t41 -49.5t19.5 -60.5h-125q-6 18 -28.5 34
t-72.5 16q-35 0 -53 -14t-18 -37t19.5 -36t48.5 -22.5t63.5 -19t63.5 -26t48.5 -44t19.5 -72.5q0 -36 -13 -68t-39.5 -55.5t-66 -37t-93.5 -13.5z" />
    <glyph glyph-name="t" unicode="t" horiz-adv-x="385" 
d="M257 0q-30 0 -54 10t-40.5 27.5t-25.5 41t-9 50.5q0 15 1 21.5t2 11.5l51 263h-85l21 105h85l42 140h100l-27 -140h130l-21 -105h-130l-49 -260q-1 -2 -1 -5v-8q0 -14 10.5 -30.5t35.5 -16.5h72l-20 -105h-88v0z" />
    <glyph glyph-name="u" unicode="u" horiz-adv-x="585" 
d="M277 -10q-41 0 -73 13t-54.5 37t-34.5 57.5t-12 73.5q0 19 1.5 30.5t3.5 19.5l60 309h115l-60 -310q-1 -5 -2 -12t-1 -16q0 -48 26.5 -72.5t73.5 -24.5q48 0 82 30.5t43 77.5l63 327h115l-103 -530h-95l-2 60h-5q-26 -32 -63.5 -51t-77.5 -19z" />
    <glyph glyph-name="v" unicode="v" horiz-adv-x="535" 
d="M93 530h119l61 -405h5l219 405h131l-298 -530h-145z" />
    <glyph glyph-name="w" unicode="w" horiz-adv-x="785" 
d="M103 530h115l27 -385h5l173 385h125l27 -385h5l173 385h125l-248 -530h-140l-31 365h-5l-169 -365h-140z" />
    <glyph glyph-name="x" unicode="x" horiz-adv-x="485" 
d="M218 275l-115 255h121l76 -175l144 175h139l-215 -255l122 -275h-121l-83 195l-157 -195h-139z" />
    <glyph glyph-name="y" unicode="y" horiz-adv-x="545" 
d="M200 0l-112 530h125l72 -375h5l218 375h130l-432 -730h-125z" />
    <glyph glyph-name="z" unicode="z" horiz-adv-x="475" 
d="M47 90l323 335h-248l21 105h400l-18 -90l-323 -335h263l-20 -105h-415z" />
    <glyph glyph-name="braceleft" unicode="{" horiz-adv-x="345" 
d="M215 -200q-57 0 -90 34.5t-33 85.5q0 5 0.5 11t1.5 11q1 6 2 13l35 181q1 3 1.5 7t0.5 11q0 53 -58 56l22 110h10q60 0 72 64l42 219q11 59 50.5 93t95.5 34h94l-21 -110h-61q-21 0 -32.5 -12t-16.5 -38l-37 -189q-7 -34 -16 -55.5t-21.5 -34t-29.5 -17t-39 -4.5l-4 -20
q33 -6 49.5 -23.5t16.5 -56.5q0 -14 -2 -24t-4 -23l-29 -154l-2 -6q-1 -4 -1 -13q0 -40 44 -40h47l-21 -110h-66v0z" />
    <glyph glyph-name="bar" unicode="|" horiz-adv-x="355" 
d="M185 730h115v-930h-115v930z" />
    <glyph glyph-name="braceright" unicode="}" horiz-adv-x="345" 
d="M7 -90h61q21 0 32.5 12t16.5 38l37 189q7 34 16 55.5t21.5 34t29.5 17t39 4.5l4 20q-33 6 -49.5 23.5t-16.5 56.5q0 14 2 24t4 23l29 154q0 2 1 6q2 6 2 13q0 40 -44 40h-47l21 110h66q57 0 90 -34.5t33 -85.5q0 -5 -0.5 -11t-1.5 -11q-1 -6 -2 -13l-35 -181
q-1 -3 -1.5 -7t-0.5 -11q0 -53 58 -56l-22 -110h-10q-60 0 -72 -64l-42 -219q-11 -59 -50.5 -93t-95.5 -34h-94z" />
    <glyph glyph-name="asciitilde" unicode="~" horiz-adv-x="595" 
d="M455 225q-39 0 -65.5 12.5t-46 27.5t-36 27.5t-37.5 12.5q-30 0 -47.5 -18.5t-17.5 -56.5h-100q0 83 41.5 126.5t113.5 43.5q39 0 65.5 -12.5t46 -27.5t36 -27.5t37.5 -12.5q30 0 47.5 18.5t17.5 56.5h100q0 -83 -41.5 -126.5t-113.5 -43.5z" />
    <glyph glyph-name="nonbreakingspace" unicode="&#xa0;" horiz-adv-x="220" 
 />
    <glyph glyph-name="exclamdown" unicode="&#xa1;" horiz-adv-x="280" 
d="M52 -140l104 455h90l-74 -455l-11 -60h-120zM224 400q-29 0 -46.5 18t-17.5 46q0 32 22.5 54t54.5 22q29 0 46.5 -18t17.5 -46q0 -32 -22.5 -54t-54.5 -22z" />
    <glyph glyph-name="cent" unicode="&#xa2;" horiz-adv-x="560" 
d="M235 1q-71 20 -109.5 76.5t-38.5 144.5q0 65 19 121t53 97.5t80 67.5t100 31l20 101h120l-22 -115q60 -20 93 -63.5t41 -96.5h-117q-14 32 -40.5 51t-74.5 19q-30 0 -58.5 -14t-50.5 -40.5t-35 -64.5t-13 -87q0 -65 32.5 -99.5t92.5 -34.5q43 0 71.5 19t50.5 51h114
q-10 -30 -29.5 -59t-47 -52t-61.5 -39.5t-72 -21.5l-20 -103h-120z" />
    <glyph glyph-name="sterling" unicode="&#xa3;" horiz-adv-x="590" 
d="M56 110h31q47 0 61 65l22 110h-80l21 110h80l22 111q19 97 80.5 150.5t150.5 53.5q101 0 155 -55t54 -145h-130q-1 38 -19 64t-62 26q-37 0 -66.5 -27t-40.5 -84l-19 -94h170l-21 -110h-170l-24 -122q-3 -14 -7.5 -24.5t-9.5 -16.5q-5 -8 -11 -12h343l-21 -110h-530z" />
    <glyph glyph-name="currency" unicode="&#xa4;" horiz-adv-x="590" 
d="M115 135l62 63q-17 26 -27 57t-10 65t10 65t27 57l-62 63l60 55l59 -60q27 19 59 29.5t67 10.5t67 -10.5t59 -29.5l59 60l60 -55l-62 -63q17 -26 27 -57t10 -65t-10 -65t-27 -57l62 -63l-60 -55l-59 60q-27 -19 -59 -29.5t-67 -10.5t-67 10.5t-59 29.5l-59 -60zM360 185
q28 0 52.5 10.5t43 29t29 43t10.5 52.5t-10.5 52.5t-29 43t-43 29t-52.5 10.5t-52.5 -10.5t-43 -29t-29 -43t-10.5 -52.5t10.5 -52.5t29 -43t43 -29t52.5 -10.5z" />
    <glyph glyph-name="yen" unicode="&#xa5;" horiz-adv-x="575" 
d="M236 110h-165l20 105h165l11 55h-165l20 105h100l-106 325h127l96 -325h5l224 325h143l-234 -325h100l-20 -105h-165l-11 -55h165l-20 -105h-165l-21 -110h-125z" />
    <glyph glyph-name="brokenbar" unicode="&#xa6;" horiz-adv-x="355" 
d="M185 175h115v-375h-115v375zM185 730h115v-375h-115v375z" />
    <glyph glyph-name="section" unicode="&#xa7;" horiz-adv-x="615" 
d="M330 -120q-109 0 -173 50t-73 135h121q5 -38 43.5 -59t91.5 -21q52 0 74 21t22 50q0 26 -24 41.5t-59.5 26t-77.5 21t-77.5 28t-59.5 46t-24 74.5q0 29 8.5 53.5t22 43.5t31 33.5t35.5 24.5q-15 17 -23.5 37t-8.5 46q0 36 15 68.5t44 57t71.5 39t96.5 14.5
q109 0 170.5 -47.5t72.5 -127.5h-121q-11 31 -44.5 50.5t-87.5 19.5q-52 0 -74 -21t-22 -50q0 -26 24 -41.5t59.5 -26t77.5 -21t77.5 -28t59.5 -46t24 -74.5q0 -29 -8.5 -53.5t-22 -43.5t-31 -33.5t-35.5 -24.5q15 -17 23.5 -37t8.5 -46q0 -36 -15 -68.5t-44 -57t-71.5 -39
t-96.5 -14.5zM444 200q26 17 41 36.5t15 42.5q0 28 -21 43t-52.5 25t-68 18.5t-66.5 24.5q-26 -17 -41 -36.5t-15 -42.5q0 -29 21 -44t52.5 -24.5t68 -18t66.5 -24.5z" />
    <glyph glyph-name="dieresis" unicode="&#xa8;" horiz-adv-x="380" 
d="M221 615q-28 0 -43.5 17.5t-15.5 41.5q0 29 20 50t52 21q28 0 43.5 -17.5t15.5 -41.5q0 -29 -20 -50t-52 -21zM411 615q-28 0 -43.5 17.5t-15.5 41.5q0 29 20 50t52 21q28 0 43.5 -17.5t15.5 -41.5q0 -29 -20 -50t-52 -21z" />
    <glyph glyph-name="copyright" unicode="&#xa9;" horiz-adv-x="830" 
d="M485 -10q-79 0 -145 26.5t-114 74.5t-74.5 114t-26.5 145t26.5 145t74.5 114t114 74.5t145 26.5t145 -26.5t114 -74.5t74.5 -114t26.5 -145t-26.5 -145t-74.5 -114t-114 -74.5t-145 -26.5zM485 70q60 0 110.5 20.5t87 57.5t57 88.5t20.5 113.5t-20.5 113.5t-57 88.5
t-87 57.5t-110.5 20.5t-110.5 -20.5t-87 -57.5t-57 -88.5t-20.5 -113.5t20.5 -113.5t57 -88.5t87 -57.5t110.5 -20.5zM486 160q-84 0 -132.5 49.5t-48.5 140.5t48.5 140.5t132.5 49.5q35 0 62.5 -10.5t47.5 -27.5t33 -40t21 -47h-85q-8 23 -27 36.5t-53 13.5q-45 0 -70 -29
t-25 -86t25 -86t70 -29q34 0 53 13.5t27 36.5h85q-8 -24 -21 -47t-33 -40t-47.5 -27.5t-62.5 -10.5z" />
    <glyph glyph-name="ordfeminine" unicode="&#xaa;" horiz-adv-x="365" 
d="M220 350q-28 0 -49 9.5t-34.5 24.5t-20 32.5t-6.5 33.5q0 57 35.5 88.5t99.5 31.5h105l1 5q1 5 1 7v4q0 47 -57 49q-20 1 -34 -6t-24 -24h-89q6 21 18 40.5t30.5 33.5t44 22.5t59.5 8.5q59 0 98 -31t39 -89q0 -7 -1 -14.5t-3 -15.5l-39 -205h-75l3 40h-5q-15 -19 -39 -32
t-58 -13zM255 425q34 0 54.5 20t26.5 50l2 10h-103q-19 0 -30 -10t-11 -30q0 -40 61 -40z" />
    <glyph glyph-name="guillemotleft" unicode="&#xab;" horiz-adv-x="655" 
d="M87 270l262 240h146l-272 -248l-2 -6l161 -226h-127zM332 270l262 240h146l-272 -248l-2 -6l161 -226h-127z" />
    <glyph glyph-name="logicalnot" unicode="&#xac;" horiz-adv-x="520" 
d="M445 275h-350v95h445v-215h-95v120z" />
    <glyph glyph-name="uni00AD" unicode="&#xad;" horiz-adv-x="395" 
d="M105 335h315l-21 -105h-315z" />
    <glyph glyph-name="registered" unicode="&#xae;" horiz-adv-x="830" 
d="M485 -10q-79 0 -145 26.5t-114 74.5t-74.5 114t-26.5 145t26.5 145t74.5 114t114 74.5t145 26.5t145 -26.5t114 -74.5t74.5 -114t26.5 -145t-26.5 -145t-74.5 -114t-114 -74.5t-145 -26.5zM485 70q60 0 110.5 20.5t87 57.5t57 88.5t20.5 113.5t-20.5 113.5t-57 88.5
t-87 57.5t-110.5 20.5t-110.5 -20.5t-87 -57.5t-57 -88.5t-20.5 -113.5t20.5 -113.5t57 -88.5t87 -57.5t110.5 -20.5zM350 540h160q64 0 99.5 -34t35.5 -91q0 -44 -24 -74t-66 -41l95 -135h-95l-90 130h-30v-130h-85v375zM506 365q26 0 42.5 12t16.5 38t-17 38t-43 12h-70
v-100h71z" />
    <glyph glyph-name="macron" unicode="&#xaf;" horiz-adv-x="355" 
d="M168 715h295l-16 -85h-295z" />
    <glyph glyph-name="degree" unicode="&#xb0;" horiz-adv-x="390" 
d="M275 420q-34 0 -61.5 11.5t-47 31.5t-30.5 47.5t-11 59.5t11 59.5t30.5 47.5t47 31.5t61.5 11.5t61.5 -11.5t47 -31.5t30.5 -47.5t11 -59.5t-11 -59.5t-30.5 -47.5t-47 -31.5t-61.5 -11.5zM275 495q34 0 52 20.5t18 54.5t-18 54.5t-52 20.5t-52 -20.5t-18 -54.5t18 -54.5
t52 -20.5z" />
    <glyph glyph-name="plusminus" unicode="&#xb1;" horiz-adv-x="555" 
d="M100 100h475v-95h-475v95zM290 315h-190v95h190v190h95v-190h190v-95h-190v-180h-95v180z" />
    <glyph glyph-name="uni00B2" unicode="&#xb2;" horiz-adv-x="335" 
d="M122 475l171 139q24 20 39 36.5t15 36.5q0 14 -11 26t-39 12q-22 0 -35 -12.5t-16 -32.5h-91q6 24 17 47t29 40t43.5 27.5t59.5 10.5q66 0 100 -31.5t34 -78.5q0 -42 -21.5 -69.5t-59.5 -58.5l-115 -92h150l-15 -75h-270z" />
    <glyph glyph-name="uni00B3" unicode="&#xb3;" horiz-adv-x="340" 
d="M259 395q-29 0 -54 6t-44 19.5t-30.5 34.5t-14.5 50h88q3 -14 16 -22t39 -8q27 0 43 15t16 39q0 14 -10 27.5t-33 13.5h-40l15 75h47q26 0 36 13.5t10 30.5q0 16 -12 25.5t-40 9.5q-20 0 -34.5 -12t-19.5 -32h-91q5 26 17.5 49t31.5 40t44 26.5t55 9.5q33 0 59 -8.5
t44 -23t27.5 -34t9.5 -40.5t-7 -38t-17.5 -29t-23 -19.5t-23.5 -10.5q22 -15 32.5 -36.5t10.5 -44.5q0 -24 -10 -46.5t-29 -40t-46.5 -28.5t-61.5 -11z" />
    <glyph glyph-name="acute" unicode="&#xb4;" horiz-adv-x="265" 
d="M265 750h115l-143 -145h-90z" />
    <glyph glyph-name="uni00B5" unicode="&#xb5;" horiz-adv-x="585" 
d="M168 530h115l-60 -310q-1 -5 -2 -12t-1 -16q0 -48 26.5 -72.5t73.5 -24.5q48 0 82 30.5t43 77.5l63 327h115l-103 -530h-95l-2 60h-5q-26 -32 -63.5 -51t-77.5 -19q-29 0 -54 9t-39 26l-39 -205h-115z" />
    <glyph glyph-name="paragraph" unicode="&#xb6;" horiz-adv-x="570" 
d="M275 320q-38 0 -68 13.5t-52 38.5t-33.5 60t-11.5 78t11.5 78t33.5 60t52 38.5t68 13.5h290v-810h-110v700h-70v-700h-110v430z" />
    <glyph glyph-name="periodcentered" unicode="&#xb7;" horiz-adv-x="220" 
d="M155 200q-28 0 -46 18t-18 46q0 32 22.5 54t54.5 22q28 0 46 -18t18 -46q0 -32 -22.5 -54t-54.5 -22z" />
    <glyph glyph-name="cedilla" unicode="&#xb8;" horiz-adv-x="230" 
d="M1 -150h59q12 0 21.5 8t9.5 23q0 24 -25 24h-45l11 55l26 40h80l-22 -35q28 -6 44 -27t16 -52q0 -48 -32 -77t-79 -29h-77z" />
    <glyph glyph-name="uni00B9" unicode="&#xb9;" horiz-adv-x="265" 
d="M234 665h-90l15 80h65q25 0 30 25l6 30h85l-78 -400h-85z" />
    <glyph glyph-name="ordmasculine" unicode="&#xba;" horiz-adv-x="390" 
d="M277 350q-68 0 -107.5 39t-39.5 106q0 52 15 92t39.5 67.5t56.5 41.5t67 14q68 0 107.5 -39t39.5 -106q0 -52 -15 -92t-39.5 -67.5t-57 -41.5t-66.5 -14zM282 430q16 0 32 9t28.5 25t20 38.5t7.5 49.5q0 35 -17.5 56.5t-49.5 21.5q-17 0 -32.5 -9t-28 -25t-20 -38.5
t-7.5 -49.5q0 -35 17.5 -56.5t49.5 -21.5z" />
    <glyph glyph-name="guillemotright" unicode="&#xbb;" horiz-adv-x="655" 
d="M286 278l2 6l-161 226h127l168 -240l-262 -240h-146zM531 278l2 6l-161 226h127l168 -240l-262 -240h-146z" />
    <glyph glyph-name="onequarter" unicode="&#xbc;" horiz-adv-x="765" 
d="M656 700h98l-571 -700h-98zM225 565h-90l15 80h65q25 0 30 25l6 30h85l-78 -400h-85zM601 85h-180l14 75l207 240h105l-47 -240h60l-14 -75h-60l-17 -85h-85zM615 160l26 130h-5l-112 -130h91z" />
    <glyph glyph-name="onehalf" unicode="&#xbd;" horiz-adv-x="775" 
d="M656 700h98l-571 -700h-98zM225 565h-90l15 80h65q25 0 30 25l6 30h85l-78 -400h-85zM464 75l171 139q24 20 39 36.5t15 36.5q0 14 -11 26t-39 12q-22 0 -35 -12.5t-16 -32.5h-91q6 24 17 47t29 40t43.5 27.5t59.5 10.5q66 0 100 -31.5t34 -78.5q0 -42 -21.5 -69.5
t-59.5 -58.5l-115 -92h150l-15 -75h-270z" />
    <glyph glyph-name="threequarters" unicode="&#xbe;" horiz-adv-x="845" 
d="M736 700h98l-571 -700h-98zM255 295q-29 0 -54 6t-44 19.5t-30.5 34.5t-14.5 50h88q3 -14 16 -22t39 -8q27 0 43 15t16 39q0 14 -10 27.5t-33 13.5h-40l15 75h47q26 0 36 13.5t10 30.5q0 16 -12 25.5t-40 9.5q-20 0 -34.5 -12t-19.5 -32h-91q5 26 17.5 49t31.5 40
t44 26.5t55 9.5q33 0 59 -8.5t44 -23t27.5 -34t9.5 -40.5t-7 -38t-17.5 -29t-23 -19.5t-23.5 -10.5q22 -15 32.5 -36.5t10.5 -44.5q0 -24 -10 -46.5t-29 -40t-46.5 -28.5t-61.5 -11zM681 85h-180l14 75l207 240h105l-47 -240h60l-14 -75h-60l-17 -85h-85zM695 160l26 130h-5
l-112 -130h91z" />
    <glyph glyph-name="questiondown" unicode="&#xbf;" horiz-adv-x="515" 
d="M268 -210q-50 0 -90.5 12.5t-68.5 35t-43 53.5t-15 68q0 50 14.5 83.5t37 56t49 38.5t50.5 32t42.5 35.5t24.5 49.5l12 61h115l-14 -72q-9 -47 -28 -76t-41.5 -48t-46.5 -31.5t-44 -27t-32.5 -35.5t-12.5 -56q0 -29 21 -51.5t69 -22.5q38 0 70.5 25t42.5 70h122
q-7 -41 -27 -77.5t-51 -63.5t-70.5 -43t-85.5 -16zM360 400q-29 0 -46.5 18t-17.5 46q0 32 22.5 54t54.5 22q29 0 46.5 -18t17.5 -46q0 -32 -22.5 -54t-54.5 -22z" />
    <glyph glyph-name="Agrave" unicode="&#xc0;" horiz-adv-x="655" 
d="M396 700h155l119 -700h-125l-25 150h-297l-83 -150h-135zM502 260l-49 300h-5l-165 -300h219zM340 910h115l62 -145h-90z" />
    <glyph glyph-name="Aacute" unicode="&#xc1;" horiz-adv-x="655" 
d="M396 700h155l119 -700h-125l-25 150h-297l-83 -150h-135zM502 260l-49 300h-5l-165 -300h219zM558 910h115l-143 -145h-90z" />
    <glyph glyph-name="Acircumflex" unicode="&#xc2;" horiz-adv-x="655" 
d="M396 700h155l119 -700h-125l-25 150h-297l-83 -150h-135zM502 260l-49 300h-5l-165 -300h219zM464 915h75l106 -150h-95l-54 85h-5l-86 -85h-105z" />
    <glyph glyph-name="Atilde" unicode="&#xc3;" horiz-adv-x="655" 
d="M396 700h155l119 -700h-125l-25 150h-297l-83 -150h-135zM502 260l-49 300h-5l-165 -300h219zM560 780q-21 0 -37.5 7t-30 15.5t-25.5 15.5t-23 7q-15 0 -26 -10.5t-13 -29.5h-85q3 28 13 50.5t25 38t34 23.5t40 8t37 -7t29.5 -15.5t25.5 -15.5t23 -7q31 0 34 40h85
q-5 -57 -34.5 -88.5t-71.5 -31.5z" />
    <glyph glyph-name="Adieresis" unicode="&#xc4;" horiz-adv-x="655" 
d="M396 700h155l119 -700h-125l-25 150h-297l-83 -150h-135zM502 260l-49 300h-5l-165 -300h219zM389 775q-28 0 -43.5 17.5t-15.5 41.5q0 29 20 50t52 21q28 0 43.5 -17.5t15.5 -41.5q0 -29 -20 -50t-52 -21zM579 775q-28 0 -43.5 17.5t-15.5 41.5q0 29 20 50t52 21
q28 0 43.5 -17.5t15.5 -41.5q0 -29 -20 -50t-52 -21z" />
    <glyph glyph-name="Aring" unicode="&#xc5;" horiz-adv-x="655" 
d="M396 700h155l119 -700h-125l-25 150h-297l-83 -150h-135zM502 260l-49 300h-5l-165 -300h219zM481 740q-42 0 -69 24t-27 69q0 53 33.5 85t82.5 32q42 0 68.5 -24t26.5 -69q0 -26 -9 -47.5t-24.5 -37t-36.5 -24t-45 -8.5zM487 805q20 0 32 12t12 33q0 17 -10 26t-27 9
q-20 0 -32 -12t-12 -33q0 -17 10.5 -26t26.5 -9z" />
    <glyph glyph-name="AE" unicode="&#xc6;" horiz-adv-x="950" 
d="M451 700h575l-22 -110h-335l-36 -185h315l-20 -105h-315l-37 -190h345l-21 -110h-470l28 148h-244l-104 -148h-140zM480 259l62 321h-35l-217 -321h190z" />
    <glyph glyph-name="Ccedilla" unicode="&#xc7;" horiz-adv-x="705" 
d="M281 -150h59q12 0 21.5 8t9.5 23q0 24 -25 24h-45l11 55l23 36q-52 9 -94 31.5t-72 58.5t-46.5 84.5t-16.5 109.5q0 96 27 175t75 136t113.5 88t142.5 31q65 0 114.5 -15.5t85 -44t57 -68t30.5 -87.5h-128q-17 48 -55 76.5t-107 28.5q-45 0 -87 -21t-73.5 -61
t-50.5 -97.5t-19 -130.5q0 -91 48.5 -140.5t130.5 -49.5q60 0 100 26.5t71 78.5h132q-20 -45 -49 -84t-67 -68t-85 -45.5t-101 -17.5l-15 -25q28 -6 44 -27t16 -52q0 -48 -32 -77t-79 -29h-77z" />
    <glyph glyph-name="Egrave" unicode="&#xc8;" horiz-adv-x="595" 
d="M211 700h460l-22 -110h-335l-36 -185h315l-20 -105h-315l-37 -190h345l-21 -110h-470zM325 910h115l62 -145h-90z" />
    <glyph glyph-name="Eacute" unicode="&#xc9;" horiz-adv-x="595" 
d="M211 700h460l-22 -110h-335l-36 -185h315l-20 -105h-315l-37 -190h345l-21 -110h-470zM523 910h115l-143 -145h-90z" />
    <glyph glyph-name="Ecircumflex" unicode="&#xca;" horiz-adv-x="595" 
d="M211 700h460l-22 -110h-335l-36 -185h315l-20 -105h-315l-37 -190h345l-21 -110h-470zM439 915h75l106 -150h-95l-54 85h-5l-86 -85h-105z" />
    <glyph glyph-name="Edieresis" unicode="&#xcb;" horiz-adv-x="595" 
d="M211 700h460l-22 -110h-335l-36 -185h315l-20 -105h-315l-37 -190h345l-21 -110h-470zM354 775q-28 0 -43.5 17.5t-15.5 41.5q0 29 20 50t52 21q28 0 43.5 -17.5t15.5 -41.5q0 -29 -20 -50t-52 -21zM544 775q-28 0 -43.5 17.5t-15.5 41.5q0 29 20 50t52 21
q28 0 43.5 -17.5t15.5 -41.5q0 -29 -20 -50t-52 -21z" />
    <glyph glyph-name="Igrave" unicode="&#xcc;" horiz-adv-x="275" 
d="M211 700h125l-136 -700h-125zM145 910h115l62 -145h-90z" />
    <glyph glyph-name="Iacute" unicode="&#xcd;" horiz-adv-x="275" 
d="M211 700h125l-136 -700h-125zM358 910h115l-143 -145h-90z" />
    <glyph glyph-name="Icircumflex" unicode="&#xce;" horiz-adv-x="275" 
d="M211 700h125l-136 -700h-125zM274 915h75l106 -150h-95l-54 85h-5l-86 -85h-105z" />
    <glyph glyph-name="Idieresis" unicode="&#xcf;" horiz-adv-x="275" 
d="M211 700h125l-136 -700h-125zM194 775q-28 0 -43.5 17.5t-15.5 41.5q0 29 20 50t52 21q28 0 43.5 -17.5t15.5 -41.5q0 -29 -20 -50t-52 -21zM384 775q-28 0 -43.5 17.5t-15.5 41.5q0 29 20 50t52 21q28 0 43.5 -17.5t15.5 -41.5q0 -29 -20 -50t-52 -21z" />
    <glyph glyph-name="Eth" unicode="&#xd0;" horiz-adv-x="705" 
d="M143 300h-75l20 105h76l57 295h260q60 0 107 -21.5t79.5 -60t49.5 -92t17 -116.5q0 -98 -27 -174t-73.5 -128.5t-110.5 -80t-137 -27.5h-301zM383 110q45 0 85.5 18.5t72 55t50 90.5t18.5 125q0 43 -11.5 78.5t-32 60.5t-49 38.5t-62.5 13.5h-130l-36 -185h165l-20 -105
h-165l-37 -190h152z" />
    <glyph glyph-name="Ntilde" unicode="&#xd1;" horiz-adv-x="745" 
d="M211 700h165l195 -537h5l105 537h125l-136 -700h-165l-195 537h-5l-105 -537h-125zM595 780q-21 0 -37.5 7t-30 15.5t-25.5 15.5t-23 7q-15 0 -26 -10.5t-13 -29.5h-85q3 28 13 50.5t25 38t34 23.5t40 8t37 -7t29.5 -15.5t25.5 -15.5t23 -7q31 0 34 40h85
q-5 -57 -34.5 -88.5t-71.5 -31.5z" />
    <glyph glyph-name="Ograve" unicode="&#xd2;" horiz-adv-x="740" 
d="M410 -10q-72 0 -128.5 20t-95.5 57.5t-59.5 91t-20.5 121.5q0 86 24.5 164t70.5 137t112.5 94t151.5 35q72 0 128.5 -20t95.5 -57.5t59.5 -91.5t20.5 -121q0 -86 -24.5 -164t-70.5 -137t-112.5 -94t-151.5 -35zM414 100q47 0 88.5 21.5t73 61.5t50 97.5t18.5 129.5
q0 91 -47.5 140.5t-135.5 49.5q-47 0 -88.5 -21.5t-73 -61.5t-50 -97.5t-18.5 -129.5q0 -91 47.5 -140.5t135.5 -49.5zM360 910h115l62 -145h-90z" />
    <glyph glyph-name="Oacute" unicode="&#xd3;" horiz-adv-x="740" 
d="M410 -10q-72 0 -128.5 20t-95.5 57.5t-59.5 91t-20.5 121.5q0 86 24.5 164t70.5 137t112.5 94t151.5 35q72 0 128.5 -20t95.5 -57.5t59.5 -91.5t20.5 -121q0 -86 -24.5 -164t-70.5 -137t-112.5 -94t-151.5 -35zM414 100q47 0 88.5 21.5t73 61.5t50 97.5t18.5 129.5
q0 91 -47.5 140.5t-135.5 49.5q-47 0 -88.5 -21.5t-73 -61.5t-50 -97.5t-18.5 -129.5q0 -91 47.5 -140.5t135.5 -49.5zM563 910h115l-143 -145h-90z" />
    <glyph glyph-name="Ocircumflex" unicode="&#xd4;" horiz-adv-x="740" 
d="M410 -10q-72 0 -128.5 20t-95.5 57.5t-59.5 91t-20.5 121.5q0 86 24.5 164t70.5 137t112.5 94t151.5 35q72 0 128.5 -20t95.5 -57.5t59.5 -91.5t20.5 -121q0 -86 -24.5 -164t-70.5 -137t-112.5 -94t-151.5 -35zM414 100q47 0 88.5 21.5t73 61.5t50 97.5t18.5 129.5
q0 91 -47.5 140.5t-135.5 49.5q-47 0 -88.5 -21.5t-73 -61.5t-50 -97.5t-18.5 -129.5q0 -91 47.5 -140.5t135.5 -49.5zM484 915h75l106 -150h-95l-54 85h-5l-86 -85h-105z" />
    <glyph glyph-name="Otilde" unicode="&#xd5;" horiz-adv-x="740" 
d="M410 -10q-72 0 -128.5 20t-95.5 57.5t-59.5 91t-20.5 121.5q0 86 24.5 164t70.5 137t112.5 94t151.5 35q72 0 128.5 -20t95.5 -57.5t59.5 -91.5t20.5 -121q0 -86 -24.5 -164t-70.5 -137t-112.5 -94t-151.5 -35zM414 100q47 0 88.5 21.5t73 61.5t50 97.5t18.5 129.5
q0 91 -47.5 140.5t-135.5 49.5q-47 0 -88.5 -21.5t-73 -61.5t-50 -97.5t-18.5 -129.5q0 -91 47.5 -140.5t135.5 -49.5zM575 780q-21 0 -37.5 7t-30 15.5t-25.5 15.5t-23 7q-15 0 -26 -10.5t-13 -29.5h-85q3 28 13 50.5t25 38t34 23.5t40 8t37 -7t29.5 -15.5t25.5 -15.5
t23 -7q31 0 34 40h85q-5 -57 -34.5 -88.5t-71.5 -31.5z" />
    <glyph glyph-name="Odieresis" unicode="&#xd6;" horiz-adv-x="740" 
d="M410 -10q-72 0 -128.5 20t-95.5 57.5t-59.5 91t-20.5 121.5q0 86 24.5 164t70.5 137t112.5 94t151.5 35q72 0 128.5 -20t95.5 -57.5t59.5 -91.5t20.5 -121q0 -86 -24.5 -164t-70.5 -137t-112.5 -94t-151.5 -35zM414 100q47 0 88.5 21.5t73 61.5t50 97.5t18.5 129.5
q0 91 -47.5 140.5t-135.5 49.5q-47 0 -88.5 -21.5t-73 -61.5t-50 -97.5t-18.5 -129.5q0 -91 47.5 -140.5t135.5 -49.5zM404 775q-28 0 -43.5 17.5t-15.5 41.5q0 29 20 50t52 21q28 0 43.5 -17.5t15.5 -41.5q0 -29 -20 -50t-52 -21zM594 775q-28 0 -43.5 17.5t-15.5 41.5
q0 29 20 50t52 21q28 0 43.5 -17.5t15.5 -41.5q0 -29 -20 -50t-52 -21z" />
    <glyph glyph-name="multiply" unicode="&#xd7;" horiz-adv-x="550" 
d="M115 160l165 165l-165 165l65 65l165 -165l165 165l65 -65l-165 -165l165 -165l-65 -65l-165 165l-165 -165z" />
    <glyph glyph-name="Oslash" unicode="&#xd8;" horiz-adv-x="740" 
d="M172 83q-66 75 -66 197q0 86 24.5 164t70.5 137t112.5 94t151.5 35q46 0 86 -8.5t73 -24.5l36 48h125l-82 -108q66 -75 66 -197q0 -86 -24.5 -164t-70.5 -137t-112.5 -94t-151.5 -35q-46 0 -86 8.5t-73 24.5l-36 -48h-125zM551 582q-38 18 -90 18q-47 0 -88.5 -21.5
t-73 -61.5t-50 -97.5t-18.5 -129.5q0 -59 21 -101zM414 100q47 0 88.5 21.5t73 61.5t50 97.5t18.5 129.5q0 59 -21 101l-299 -393q37 -18 90 -18z" />
    <glyph glyph-name="Ugrave" unicode="&#xd9;" horiz-adv-x="710" 
d="M391 -10q-58 0 -107 17t-84.5 49.5t-55.5 80.5t-20 110q0 34 3 49.5t5 27.5l74 376h125l-76 -388q-2 -11 -4 -22.5t-2 -31.5q0 -75 39 -116.5t105 -41.5q64 0 112.5 46t65.5 135l80 419h125l-82 -431q-13 -68 -40.5 -120t-66.5 -87.5t-89 -53.5t-107 -18zM360 910h115
l62 -145h-90z" />
    <glyph glyph-name="Uacute" unicode="&#xda;" horiz-adv-x="710" 
d="M391 -10q-58 0 -107 17t-84.5 49.5t-55.5 80.5t-20 110q0 34 3 49.5t5 27.5l74 376h125l-76 -388q-2 -11 -4 -22.5t-2 -31.5q0 -75 39 -116.5t105 -41.5q64 0 112.5 46t65.5 135l80 419h125l-82 -431q-13 -68 -40.5 -120t-66.5 -87.5t-89 -53.5t-107 -18zM558 910h115
l-143 -145h-90z" />
    <glyph glyph-name="Ucircumflex" unicode="&#xdb;" horiz-adv-x="710" 
d="M391 -10q-58 0 -107 17t-84.5 49.5t-55.5 80.5t-20 110q0 34 3 49.5t5 27.5l74 376h125l-76 -388q-2 -11 -4 -22.5t-2 -31.5q0 -75 39 -116.5t105 -41.5q64 0 112.5 46t65.5 135l80 419h125l-82 -431q-13 -68 -40.5 -120t-66.5 -87.5t-89 -53.5t-107 -18zM479 915h75
l106 -150h-95l-54 85h-5l-86 -85h-105z" />
    <glyph glyph-name="Udieresis" unicode="&#xdc;" horiz-adv-x="710" 
d="M391 -10q-58 0 -107 17t-84.5 49.5t-55.5 80.5t-20 110q0 34 3 49.5t5 27.5l74 376h125l-76 -388q-2 -11 -4 -22.5t-2 -31.5q0 -75 39 -116.5t105 -41.5q64 0 112.5 46t65.5 135l80 419h125l-82 -431q-13 -68 -40.5 -120t-66.5 -87.5t-89 -53.5t-107 -18zM399 775
q-28 0 -43.5 17.5t-15.5 41.5q0 29 20 50t52 21q28 0 43.5 -17.5t15.5 -41.5q0 -29 -20 -50t-52 -21zM589 775q-28 0 -43.5 17.5t-15.5 41.5q0 29 20 50t52 21q28 0 43.5 -17.5t15.5 -41.5q0 -29 -20 -50t-52 -21z" />
    <glyph glyph-name="Yacute" unicode="&#xdd;" horiz-adv-x="585" 
d="M263 250l-157 450h120l111 -325h5l239 325h140l-333 -450l-48 -250h-125zM478 910h115l-143 -145h-90z" />
    <glyph glyph-name="Thorn" unicode="&#xde;" horiz-adv-x="710" 
d="M211 700h125l-30 -150h245q46 0 81 -14t58 -38t34.5 -56t11.5 -68q0 -50 -15.5 -91t-44.5 -70.5t-71 -46t-95 -16.5h-281l-29 -150h-125zM504 260q51 0 78 28t27 73q0 33 -22 56t-67 23h-235l-35 -180h254z" />
    <glyph glyph-name="germandbls" unicode="&#xdf;" horiz-adv-x="575" 
d="M166 527q16 85 75.5 134t154.5 49q59 0 100.5 -16t68 -42t39 -58.5t12.5 -64.5q0 -34 -10.5 -62t-28.5 -49.5t-42 -37t-51 -23.5q45 -17 70 -57t25 -94q0 -48 -16.5 -86t-46.5 -65t-73 -41t-95 -14h-93l20 105h71q56 0 88 29t32 82q0 37 -25.5 63t-76.5 26h-50l19 100h48
q52 0 84.5 29t32.5 83q0 40 -27.5 64t-78.5 24q-47 0 -76 -25.5t-37 -66.5l-99 -513h-115z" />
    <glyph glyph-name="agrave" unicode="&#xe0;" horiz-adv-x="550" 
d="M233 -10q-32 0 -62.5 10t-53.5 29t-37 47t-14 65q0 36 14 68.5t40 57t64 39t85 14.5h166l3 15q2 10 2 20q0 38 -25.5 61.5t-73.5 23.5q-39 0 -63 -18.5t-35 -41.5h-121q12 34 33.5 63t50.5 50.5t65 34t75 12.5q55 0 94.5 -13.5t65 -37.5t37.5 -57t12 -71q0 -11 -1.5 -23
t-3.5 -18l-62 -320h-100l2 55h-5q-9 -11 -22 -22.5t-31.5 -21t-43 -15.5t-55.5 -6zM274 90q56 0 90.5 28.5t44.5 74.5l8 37h-149q-45 0 -66 -21t-21 -52t23.5 -49t69.5 -18zM255 750h115l62 -145h-90z" />
    <glyph glyph-name="aacute" unicode="&#xe1;" horiz-adv-x="550" 
d="M233 -10q-32 0 -62.5 10t-53.5 29t-37 47t-14 65q0 36 14 68.5t40 57t64 39t85 14.5h166l3 15q2 10 2 20q0 38 -25.5 61.5t-73.5 23.5q-39 0 -63 -18.5t-35 -41.5h-121q12 34 33.5 63t50.5 50.5t65 34t75 12.5q55 0 94.5 -13.5t65 -37.5t37.5 -57t12 -71q0 -11 -1.5 -23
t-3.5 -18l-62 -320h-100l2 55h-5q-9 -11 -22 -22.5t-31.5 -21t-43 -15.5t-55.5 -6zM274 90q56 0 90.5 28.5t44.5 74.5l8 37h-149q-45 0 -66 -21t-21 -52t23.5 -49t69.5 -18zM458 750h115l-143 -145h-90z" />
    <glyph glyph-name="acircumflex" unicode="&#xe2;" horiz-adv-x="550" 
d="M233 -10q-32 0 -62.5 10t-53.5 29t-37 47t-14 65q0 36 14 68.5t40 57t64 39t85 14.5h166l3 15q2 10 2 20q0 38 -25.5 61.5t-73.5 23.5q-39 0 -63 -18.5t-35 -41.5h-121q12 34 33.5 63t50.5 50.5t65 34t75 12.5q55 0 94.5 -13.5t65 -37.5t37.5 -57t12 -71q0 -11 -1.5 -23
t-3.5 -18l-62 -320h-100l2 55h-5q-9 -11 -22 -22.5t-31.5 -21t-43 -15.5t-55.5 -6zM274 90q56 0 90.5 28.5t44.5 74.5l8 37h-149q-45 0 -66 -21t-21 -52t23.5 -49t69.5 -18zM379 755h75l106 -150h-95l-54 85h-5l-86 -85h-105z" />
    <glyph glyph-name="atilde" unicode="&#xe3;" horiz-adv-x="550" 
d="M233 -10q-32 0 -62.5 10t-53.5 29t-37 47t-14 65q0 36 14 68.5t40 57t64 39t85 14.5h166l3 15q2 10 2 20q0 38 -25.5 61.5t-73.5 23.5q-39 0 -63 -18.5t-35 -41.5h-121q12 34 33.5 63t50.5 50.5t65 34t75 12.5q55 0 94.5 -13.5t65 -37.5t37.5 -57t12 -71q0 -11 -1.5 -23
t-3.5 -18l-62 -320h-100l2 55h-5q-9 -11 -22 -22.5t-31.5 -21t-43 -15.5t-55.5 -6zM274 90q56 0 90.5 28.5t44.5 74.5l8 37h-149q-45 0 -66 -21t-21 -52t23.5 -49t69.5 -18zM470 620q-21 0 -37.5 7t-30 15.5t-25.5 15.5t-23 7q-15 0 -26 -10.5t-13 -29.5h-85q3 28 13 50.5
t25 38t34 23.5t40 8t37 -7t29.5 -15.5t25.5 -15.5t23 -7q31 0 34 40h85q-5 -57 -34.5 -88.5t-71.5 -31.5z" />
    <glyph glyph-name="adieresis" unicode="&#xe4;" horiz-adv-x="550" 
d="M233 -10q-32 0 -62.5 10t-53.5 29t-37 47t-14 65q0 36 14 68.5t40 57t64 39t85 14.5h166l3 15q2 10 2 20q0 38 -25.5 61.5t-73.5 23.5q-39 0 -63 -18.5t-35 -41.5h-121q12 34 33.5 63t50.5 50.5t65 34t75 12.5q55 0 94.5 -13.5t65 -37.5t37.5 -57t12 -71q0 -11 -1.5 -23
t-3.5 -18l-62 -320h-100l2 55h-5q-9 -11 -22 -22.5t-31.5 -21t-43 -15.5t-55.5 -6zM274 90q56 0 90.5 28.5t44.5 74.5l8 37h-149q-45 0 -66 -21t-21 -52t23.5 -49t69.5 -18zM294 615q-28 0 -43.5 17.5t-15.5 41.5q0 29 20 50t52 21q28 0 43.5 -17.5t15.5 -41.5
q0 -29 -20 -50t-52 -21zM484 615q-28 0 -43.5 17.5t-15.5 41.5q0 29 20 50t52 21q28 0 43.5 -17.5t15.5 -41.5q0 -29 -20 -50t-52 -21z" />
    <glyph glyph-name="aring" unicode="&#xe5;" horiz-adv-x="550" 
d="M233 -10q-32 0 -62.5 10t-53.5 29t-37 47t-14 65q0 36 14 68.5t40 57t64 39t85 14.5h166l3 15q2 10 2 20q0 38 -25.5 61.5t-73.5 23.5q-39 0 -63 -18.5t-35 -41.5h-121q12 34 33.5 63t50.5 50.5t65 34t75 12.5q55 0 94.5 -13.5t65 -37.5t37.5 -57t12 -71q0 -11 -1.5 -23
t-3.5 -18l-62 -320h-100l2 55h-5q-9 -11 -22 -22.5t-31.5 -21t-43 -15.5t-55.5 -6zM274 90q56 0 90.5 28.5t44.5 74.5l8 37h-149q-45 0 -66 -21t-21 -52t23.5 -49t69.5 -18zM391 585q-42 0 -69 24t-27 69q0 53 33.5 85t82.5 32q42 0 68.5 -24t26.5 -69q0 -26 -9 -47.5
t-24.5 -37t-36.5 -24t-45 -8.5zM397 650q20 0 32 12t12 33q0 17 -10 26t-27 9q-20 0 -32 -12t-12 -33q0 -17 10.5 -26t26.5 -9z" />
    <glyph glyph-name="ae" unicode="&#xe6;" horiz-adv-x="907" 
d="M250 -10q-39 0 -73 10t-58.5 29t-38.5 47t-14 65q0 33 14 64.5t40 56t64 39t85 14.5h165l4 20q2 10 2 20q0 38 -25.5 61.5t-73.5 23.5q-39 0 -63 -18.5t-35 -41.5h-121q12 34 33.5 63t50.5 50.5t65 34t75 12.5q66 0 109.5 -26t61.5 -62q13 18 33.5 34t44 28t49 19t49.5 7
q59 0 102.5 -18t72 -49.5t42 -73.5t13.5 -89q0 -24 -4 -47.5t-9 -37.5h-375q0 -57 31 -94t93 -37q30 0 62 16t49 45h123q-14 -35 -36.5 -65t-53 -52t-69.5 -35t-86 -13q-63 0 -111.5 26t-74.5 75q-8 -11 -24 -28.5t-41.5 -33.5t-61.5 -27.5t-85 -11.5zM274 90
q56 0 90.5 28.5t44.5 74.5l7 32h-149q-44 0 -65 -21.5t-21 -46.5q0 -31 23.5 -49t69.5 -18zM807 315q-2 53 -32 86.5t-87 33.5q-23 0 -44.5 -8t-40.5 -23.5t-33 -38t-21 -50.5h258z" />
    <glyph glyph-name="ccedilla" unicode="&#xe7;" horiz-adv-x="560" 
d="M211 -150h59q12 0 21.5 8t9.5 23q0 24 -25 24h-45l11 55l22 35q-85 14 -131 72.5t-46 154.5q0 69 21.5 127.5t58.5 100.5t87.5 66t109.5 24q52 0 91.5 -14t68 -38t45 -56t22.5 -67h-117q-14 32 -40.5 51t-74.5 19q-30 0 -58.5 -14t-50.5 -40.5t-35 -64.5t-13 -87
q0 -65 32.5 -99.5t92.5 -34.5q43 0 71.5 19t50.5 51h114q-10 -32 -31 -61.5t-49.5 -53.5t-64.5 -39.5t-76 -19.5l-16 -26q28 -6 44 -27t16 -52q0 -48 -32 -77t-79 -29h-77z" />
    <glyph glyph-name="egrave" unicode="&#xe8;" horiz-adv-x="580" 
d="M317 -10q-51 0 -93.5 15t-73 44t-47 72t-16.5 99q0 73 22.5 132t60.5 101t88 64.5t106 22.5q61 0 104.5 -18t72 -49.5t42 -73.5t13.5 -89q0 -24 -3.5 -45t-8.5 -35h-381q-2 -59 30.5 -97.5t95.5 -38.5q31 0 64 16t50 45h123q-14 -35 -37 -65t-54 -52t-70.5 -35t-87.5 -13
zM480 320q-2 23 -10 44t-23 36.5t-37 25t-51 9.5q-46 0 -84.5 -30.5t-56.5 -84.5h262zM255 750h115l62 -145h-90z" />
    <glyph glyph-name="eacute" unicode="&#xe9;" horiz-adv-x="580" 
d="M317 -10q-51 0 -93.5 15t-73 44t-47 72t-16.5 99q0 73 22.5 132t60.5 101t88 64.5t106 22.5q61 0 104.5 -18t72 -49.5t42 -73.5t13.5 -89q0 -24 -3.5 -45t-8.5 -35h-381q-2 -59 30.5 -97.5t95.5 -38.5q31 0 64 16t50 45h123q-14 -35 -37 -65t-54 -52t-70.5 -35t-87.5 -13
zM480 320q-2 23 -10 44t-23 36.5t-37 25t-51 9.5q-46 0 -84.5 -30.5t-56.5 -84.5h262zM463 750h115l-143 -145h-90z" />
    <glyph glyph-name="ecircumflex" unicode="&#xea;" horiz-adv-x="580" 
d="M317 -10q-51 0 -93.5 15t-73 44t-47 72t-16.5 99q0 73 22.5 132t60.5 101t88 64.5t106 22.5q61 0 104.5 -18t72 -49.5t42 -73.5t13.5 -89q0 -24 -3.5 -45t-8.5 -35h-381q-2 -59 30.5 -97.5t95.5 -38.5q31 0 64 16t50 45h123q-14 -35 -37 -65t-54 -52t-70.5 -35t-87.5 -13
zM480 320q-2 23 -10 44t-23 36.5t-37 25t-51 9.5q-46 0 -84.5 -30.5t-56.5 -84.5h262zM384 755h75l106 -150h-95l-54 85h-5l-86 -85h-105z" />
    <glyph glyph-name="edieresis" unicode="&#xeb;" horiz-adv-x="580" 
d="M317 -10q-51 0 -93.5 15t-73 44t-47 72t-16.5 99q0 73 22.5 132t60.5 101t88 64.5t106 22.5q61 0 104.5 -18t72 -49.5t42 -73.5t13.5 -89q0 -24 -3.5 -45t-8.5 -35h-381q-2 -59 30.5 -97.5t95.5 -38.5q31 0 64 16t50 45h123q-14 -35 -37 -65t-54 -52t-70.5 -35t-87.5 -13
zM480 320q-2 23 -10 44t-23 36.5t-37 25t-51 9.5q-46 0 -84.5 -30.5t-56.5 -84.5h262zM304 615q-28 0 -43.5 17.5t-15.5 41.5q0 29 20 50t52 21q28 0 43.5 -17.5t15.5 -41.5q0 -29 -20 -50t-52 -21zM494 615q-28 0 -43.5 17.5t-15.5 41.5q0 29 20 50t52 21q28 0 43.5 -17.5
t15.5 -41.5q0 -29 -20 -50t-52 -21z" />
    <glyph glyph-name="igrave" unicode="&#xec;" horiz-adv-x="245" 
d="M168 530h115l-103 -530h-115zM95 750h115l62 -145h-90z" />
    <glyph glyph-name="iacute" unicode="&#xed;" horiz-adv-x="245" 
d="M168 530h115l-103 -530h-115zM313 750h115l-143 -145h-90z" />
    <glyph glyph-name="icircumflex" unicode="&#xee;" horiz-adv-x="245" 
d="M168 530h115l-103 -530h-115zM224 755h75l106 -150h-95l-54 85h-5l-86 -85h-105z" />
    <glyph glyph-name="idieresis" unicode="&#xef;" horiz-adv-x="245" 
d="M168 530h115l-103 -530h-115zM149 615q-28 0 -43.5 17.5t-15.5 41.5q0 29 20 50t52 21q28 0 43.5 -17.5t15.5 -41.5q0 -29 -20 -50t-52 -21zM339 615q-28 0 -43.5 17.5t-15.5 41.5q0 29 20 50t52 21q28 0 43.5 -17.5t15.5 -41.5q0 -29 -20 -50t-52 -21z" />
    <glyph glyph-name="eth" unicode="&#xf0;" horiz-adv-x="580" 
d="M310 -10q-48 0 -89.5 12.5t-72.5 38t-49 64t-18 90.5q0 66 19 120.5t53 93t79 60t98 21.5q51 0 89 -17.5t54 -37.5h5q-5 31 -24 68.5t-39 66.5l-136 -60l-29 67l119 54q-17 19 -36.5 35t-35.5 28q-19 14 -37 26h134q14 -8 28 -20t36 -33l103 40l28 -67l-82 -34
q22 -29 38 -63.5t26.5 -71t15.5 -73t5 -68.5q0 -71 -18 -133t-53.5 -108t-88.5 -72.5t-122 -26.5zM316 95q31 0 57.5 11.5t46 33t31 52t11.5 69.5q0 54 -31 89t-89 35q-31 0 -57.5 -11.5t-46 -33t-31 -52t-11.5 -69.5q0 -54 31 -89t89 -35z" />
    <glyph glyph-name="ntilde" unicode="&#xf1;" horiz-adv-x="580" 
d="M168 530h95l2 -60h5q26 32 63.5 51t77.5 19t72.5 -13t55 -37t34.5 -57.5t12 -73.5q0 -19 -1.5 -30.5t-3.5 -19.5l-60 -309h-115l60 310q1 5 2 12t1 16q0 48 -26.5 72.5t-73.5 24.5q-48 0 -82 -30.5t-43 -77.5l-63 -327h-115zM480 620q-21 0 -37.5 7t-30 15.5t-25.5 15.5
t-23 7q-15 0 -26 -10.5t-13 -29.5h-85q3 28 13 50.5t25 38t34 23.5t40 8t37 -7t29.5 -15.5t25.5 -15.5t23 -7q31 0 34 40h85q-5 -57 -34.5 -88.5t-71.5 -31.5z" />
    <glyph glyph-name="ograve" unicode="&#xf2;" horiz-adv-x="580" 
d="M319 -10q-109 0 -170.5 60t-61.5 165q0 73 21.5 133t59 102.5t88 66t108.5 23.5q109 0 170.5 -60t61.5 -165q0 -73 -21.5 -133t-59 -102.5t-88 -66t-108.5 -23.5zM323 95q29 0 57.5 13t50.5 39t35.5 65.5t13.5 92.5q0 64 -34 97t-86 33q-29 0 -57.5 -13t-50.5 -39
t-35.5 -65.5t-13.5 -92.5q0 -64 34 -97t86 -33zM255 750h115l62 -145h-90z" />
    <glyph glyph-name="oacute" unicode="&#xf3;" horiz-adv-x="580" 
d="M319 -10q-109 0 -170.5 60t-61.5 165q0 73 21.5 133t59 102.5t88 66t108.5 23.5q109 0 170.5 -60t61.5 -165q0 -73 -21.5 -133t-59 -102.5t-88 -66t-108.5 -23.5zM323 95q29 0 57.5 13t50.5 39t35.5 65.5t13.5 92.5q0 64 -34 97t-86 33q-29 0 -57.5 -13t-50.5 -39
t-35.5 -65.5t-13.5 -92.5q0 -64 34 -97t86 -33zM463 750h115l-143 -145h-90z" />
    <glyph glyph-name="ocircumflex" unicode="&#xf4;" horiz-adv-x="580" 
d="M319 -10q-109 0 -170.5 60t-61.5 165q0 73 21.5 133t59 102.5t88 66t108.5 23.5q109 0 170.5 -60t61.5 -165q0 -73 -21.5 -133t-59 -102.5t-88 -66t-108.5 -23.5zM323 95q29 0 57.5 13t50.5 39t35.5 65.5t13.5 92.5q0 64 -34 97t-86 33q-29 0 -57.5 -13t-50.5 -39
t-35.5 -65.5t-13.5 -92.5q0 -64 34 -97t86 -33zM384 755h75l106 -150h-95l-54 85h-5l-86 -85h-105z" />
    <glyph glyph-name="otilde" unicode="&#xf5;" horiz-adv-x="580" 
d="M319 -10q-109 0 -170.5 60t-61.5 165q0 73 21.5 133t59 102.5t88 66t108.5 23.5q109 0 170.5 -60t61.5 -165q0 -73 -21.5 -133t-59 -102.5t-88 -66t-108.5 -23.5zM323 95q29 0 57.5 13t50.5 39t35.5 65.5t13.5 92.5q0 64 -34 97t-86 33q-29 0 -57.5 -13t-50.5 -39
t-35.5 -65.5t-13.5 -92.5q0 -64 34 -97t86 -33zM470 620q-21 0 -37.5 7t-30 15.5t-25.5 15.5t-23 7q-15 0 -26 -10.5t-13 -29.5h-85q3 28 13 50.5t25 38t34 23.5t40 8t37 -7t29.5 -15.5t25.5 -15.5t23 -7q31 0 34 40h85q-5 -57 -34.5 -88.5t-71.5 -31.5z" />
    <glyph glyph-name="odieresis" unicode="&#xf6;" horiz-adv-x="580" 
d="M319 -10q-109 0 -170.5 60t-61.5 165q0 73 21.5 133t59 102.5t88 66t108.5 23.5q109 0 170.5 -60t61.5 -165q0 -73 -21.5 -133t-59 -102.5t-88 -66t-108.5 -23.5zM323 95q29 0 57.5 13t50.5 39t35.5 65.5t13.5 92.5q0 64 -34 97t-86 33q-29 0 -57.5 -13t-50.5 -39
t-35.5 -65.5t-13.5 -92.5q0 -64 34 -97t86 -33zM304 615q-28 0 -43.5 17.5t-15.5 41.5q0 29 20 50t52 21q28 0 43.5 -17.5t15.5 -41.5q0 -29 -20 -50t-52 -21zM494 615q-28 0 -43.5 17.5t-15.5 41.5q0 29 20 50t52 21q28 0 43.5 -17.5t15.5 -41.5q0 -29 -20 -50t-52 -21z
" />
    <glyph glyph-name="divide" unicode="&#xf7;" horiz-adv-x="540" 
d="M330 45q-26 0 -43 17.5t-17 47.5t17 47.5t43 17.5t43 -17.5t17 -47.5t-17 -47.5t-43 -17.5zM100 355h460v-95h-460v95zM330 440q-26 0 -43 17.5t-17 47.5t17 47.5t43 17.5t43 -17.5t17 -47.5t-17 -47.5t-43 -17.5z" />
    <glyph glyph-name="oslash" unicode="&#xf8;" horiz-adv-x="580" 
d="M128 74q-41 56 -41 141q0 73 21.5 133t59 102.5t88 66t108.5 23.5q35 0 66 -7t57 -20l30 37h115l-77 -95q41 -55 41 -140q0 -73 -21.5 -133t-59 -102.5t-88 -66t-108.5 -23.5q-36 0 -66.5 7t-56.5 20l-30 -37h-115zM414 424q-25 11 -54 11t-57.5 -13t-50.5 -39
t-35.5 -65.5t-13.5 -92.5q0 -29 7 -50zM323 95q29 0 57.5 13t50.5 39t35.5 65.5t13.5 92.5q0 26 -8 50l-203 -249q22 -11 54 -11z" />
    <glyph glyph-name="ugrave" unicode="&#xf9;" horiz-adv-x="585" 
d="M277 -10q-41 0 -73 13t-54.5 37t-34.5 57.5t-12 73.5q0 19 1.5 30.5t3.5 19.5l60 309h115l-60 -310q-1 -5 -2 -12t-1 -16q0 -48 26.5 -72.5t73.5 -24.5q48 0 82 30.5t43 77.5l63 327h115l-103 -530h-95l-2 60h-5q-26 -32 -63.5 -51t-77.5 -19zM265 750h115l62 -145h-90z
" />
    <glyph glyph-name="uacute" unicode="&#xfa;" horiz-adv-x="585" 
d="M277 -10q-41 0 -73 13t-54.5 37t-34.5 57.5t-12 73.5q0 19 1.5 30.5t3.5 19.5l60 309h115l-60 -310q-1 -5 -2 -12t-1 -16q0 -48 26.5 -72.5t73.5 -24.5q48 0 82 30.5t43 77.5l63 327h115l-103 -530h-95l-2 60h-5q-26 -32 -63.5 -51t-77.5 -19zM468 750h115l-143 -145h-90
z" />
    <glyph glyph-name="ucircumflex" unicode="&#xfb;" horiz-adv-x="585" 
d="M277 -10q-41 0 -73 13t-54.5 37t-34.5 57.5t-12 73.5q0 19 1.5 30.5t3.5 19.5l60 309h115l-60 -310q-1 -5 -2 -12t-1 -16q0 -48 26.5 -72.5t73.5 -24.5q48 0 82 30.5t43 77.5l63 327h115l-103 -530h-95l-2 60h-5q-26 -32 -63.5 -51t-77.5 -19zM389 755h75l106 -150h-95
l-54 85h-5l-86 -85h-105z" />
    <glyph glyph-name="udieresis" unicode="&#xfc;" horiz-adv-x="585" 
d="M277 -10q-41 0 -73 13t-54.5 37t-34.5 57.5t-12 73.5q0 19 1.5 30.5t3.5 19.5l60 309h115l-60 -310q-1 -5 -2 -12t-1 -16q0 -48 26.5 -72.5t73.5 -24.5q48 0 82 30.5t43 77.5l63 327h115l-103 -530h-95l-2 60h-5q-26 -32 -63.5 -51t-77.5 -19zM309 615q-28 0 -43.5 17.5
t-15.5 41.5q0 29 20 50t52 21q28 0 43.5 -17.5t15.5 -41.5q0 -29 -20 -50t-52 -21zM499 615q-28 0 -43.5 17.5t-15.5 41.5q0 29 20 50t52 21q28 0 43.5 -17.5t15.5 -41.5q0 -29 -20 -50t-52 -21z" />
    <glyph glyph-name="yacute" unicode="&#xfd;" horiz-adv-x="545" 
d="M200 0l-112 530h125l72 -375h5l218 375h130l-432 -730h-125zM428 750h115l-143 -145h-90z" />
    <glyph glyph-name="thorn" unicode="&#xfe;" horiz-adv-x="610" 
d="M206 700h115l-43 -220h5q8 9 21 19.5t31 19.5t40 15t48 6q44 0 81.5 -14t64.5 -41.5t42 -67.5t15 -92q0 -78 -21 -140.5t-56.5 -105.5t-83 -66t-100.5 -23q-54 0 -96.5 20t-65.5 55h-5l-52 -265h-115zM354 95q30 0 58.5 13.5t50 40.5t35 66t13.5 90q0 67 -34 98.5
t-86 31.5q-30 0 -58.5 -13.5t-50 -40.5t-35 -66t-13.5 -90q0 -67 34 -98.5t86 -31.5z" />
    <glyph glyph-name="ydieresis" unicode="&#xff;" horiz-adv-x="545" 
d="M200 0l-112 530h125l72 -375h5l218 375h130l-432 -730h-125zM269 615q-28 0 -43.5 17.5t-15.5 41.5q0 29 20 50t52 21q28 0 43.5 -17.5t15.5 -41.5q0 -29 -20 -50t-52 -21zM459 615q-28 0 -43.5 17.5t-15.5 41.5q0 29 20 50t52 21q28 0 43.5 -17.5t15.5 -41.5
q0 -29 -20 -50t-52 -21z" />
    <glyph glyph-name="Amacron" unicode="&#x100;" horiz-adv-x="655" 
d="M396 700h155l119 -700h-125l-25 150h-297l-83 -150h-135zM502 260l-49 300h-5l-165 -300h219zM356 880h295l-16 -85h-295z" />
    <glyph glyph-name="amacron" unicode="&#x101;" horiz-adv-x="550" 
d="M233 -10q-32 0 -62.5 10t-53.5 29t-37 47t-14 65q0 36 14 68.5t40 57t64 39t85 14.5h166l3 15q2 10 2 20q0 38 -25.5 61.5t-73.5 23.5q-39 0 -63 -18.5t-35 -41.5h-121q12 34 33.5 63t50.5 50.5t65 34t75 12.5q55 0 94.5 -13.5t65 -37.5t37.5 -57t12 -71q0 -11 -1.5 -23
t-3.5 -18l-62 -320h-100l2 55h-5q-9 -11 -22 -22.5t-31.5 -21t-43 -15.5t-55.5 -6zM274 90q56 0 90.5 28.5t44.5 74.5l8 37h-149q-45 0 -66 -21t-21 -52t23.5 -49t69.5 -18zM261 715h295l-16 -85h-295z" />
    <glyph glyph-name="Abreve" unicode="&#x102;" horiz-adv-x="655" 
d="M396 700h155l119 -700h-125l-25 150h-297l-83 -150h-135zM502 260l-49 300h-5l-165 -300h219zM494 765q-32 0 -60 8.5t-49 26.5t-33 45t-12 65h90q1 -34 20 -49.5t49 -15.5t52 15.5t29 49.5h90q-15 -75 -63.5 -110t-112.5 -35z" />
    <glyph glyph-name="abreve" unicode="&#x103;" horiz-adv-x="550" 
d="M233 -10q-32 0 -62.5 10t-53.5 29t-37 47t-14 65q0 36 14 68.5t40 57t64 39t85 14.5h166l3 15q2 10 2 20q0 38 -25.5 61.5t-73.5 23.5q-39 0 -63 -18.5t-35 -41.5h-121q12 34 33.5 63t50.5 50.5t65 34t75 12.5q55 0 94.5 -13.5t65 -37.5t37.5 -57t12 -71q0 -11 -1.5 -23
t-3.5 -18l-62 -320h-100l2 55h-5q-9 -11 -22 -22.5t-31.5 -21t-43 -15.5t-55.5 -6zM274 90q56 0 90.5 28.5t44.5 74.5l8 37h-149q-45 0 -66 -21t-21 -52t23.5 -49t69.5 -18zM394 605q-32 0 -60 8.5t-49 26.5t-33 45t-12 65h90q1 -34 20 -49.5t49 -15.5t52 15.5t29 49.5h90
q-15 -75 -63.5 -110t-112.5 -35z" />
    <glyph glyph-name="Aogonek" unicode="&#x104;" horiz-adv-x="655" 
d="M555 -205q-55 0 -81 27t-26 64q0 28 9 47.5t23.5 32.5t31.5 21t33 13l-25 150h-297l-83 -150h-135l391 700h155l119 -700h-45q-40 -18 -64.5 -40.5t-24.5 -55.5q0 -15 11 -24.5t37 -9.5h25l-14 -75h-40zM502 260l-49 300h-5l-165 -300h219z" />
    <glyph glyph-name="aogonek" unicode="&#x105;" horiz-adv-x="550" 
d="M418 -205q-55 0 -81 27t-26 64q0 28 9 47.5t23.5 32.5t31.5 21t33 13h-20l2 55h-5q-9 -11 -22 -22.5t-31.5 -21t-43 -15.5t-55.5 -6q-32 0 -62.5 10t-53.5 29t-37 47t-14 65q0 36 14 68.5t40 57t64 39t85 14.5h166l3 15q2 10 2 20q0 38 -25.5 61.5t-73.5 23.5
q-39 0 -63 -18.5t-35 -41.5h-121q12 34 33.5 63t50.5 50.5t65 34t75 12.5q55 0 94.5 -13.5t65 -37.5t37.5 -57t12 -71q0 -11 -1.5 -23t-3.5 -18l-62 -320q-40 -18 -64.5 -40.5t-24.5 -55.5q0 -15 11 -24.5t37 -9.5h25l-14 -75h-40zM274 90q56 0 90.5 28.5t44.5 74.5l8 37
h-149q-45 0 -66 -21t-21 -52t23.5 -49t69.5 -18z" />
    <glyph glyph-name="Cacute" unicode="&#x106;" horiz-adv-x="705" 
d="M407 -10q-67 0 -122.5 18.5t-95 55t-61.5 91t-22 125.5q0 96 27 175t75 136t113.5 88t142.5 31q65 0 114.5 -15.5t85 -44t57 -68t30.5 -87.5h-128q-17 48 -55 76.5t-107 28.5q-45 0 -87 -21t-73.5 -61t-50.5 -97.5t-19 -130.5q0 -91 48.5 -140.5t130.5 -49.5
q60 0 100 26.5t71 78.5h132q-20 -45 -49.5 -84.5t-68 -68.5t-86 -45.5t-102.5 -16.5zM563 910h115l-143 -145h-90z" />
    <glyph glyph-name="cacute" unicode="&#x107;" horiz-adv-x="560" 
d="M319 -10q-110 0 -171 61t-61 171q0 69 21.5 127.5t58.5 100.5t87.5 66t109.5 24q52 0 91.5 -14t68 -38t45 -56t22.5 -67h-117q-14 32 -40.5 51t-74.5 19q-30 0 -58.5 -14t-50.5 -40.5t-35 -64.5t-13 -87q0 -65 32.5 -99.5t92.5 -34.5q43 0 71.5 19t50.5 51h114
q-11 -34 -34 -65.5t-55 -56t-71.5 -39t-83.5 -14.5zM463 750h115l-143 -145h-90z" />
    <glyph glyph-name="Ccircumflex" unicode="&#x108;" horiz-adv-x="705" 
d="M407 -10q-67 0 -122.5 18.5t-95 55t-61.5 91t-22 125.5q0 96 27 175t75 136t113.5 88t142.5 31q65 0 114.5 -15.5t85 -44t57 -68t30.5 -87.5h-128q-17 48 -55 76.5t-107 28.5q-45 0 -87 -21t-73.5 -61t-50.5 -97.5t-19 -130.5q0 -91 48.5 -140.5t130.5 -49.5
q60 0 100 26.5t71 78.5h132q-20 -45 -49.5 -84.5t-68 -68.5t-86 -45.5t-102.5 -16.5zM484 915h75l106 -150h-95l-54 85h-5l-86 -85h-105z" />
    <glyph glyph-name="ccircumflex" unicode="&#x109;" horiz-adv-x="560" 
d="M319 -10q-110 0 -171 61t-61 171q0 69 21.5 127.5t58.5 100.5t87.5 66t109.5 24q52 0 91.5 -14t68 -38t45 -56t22.5 -67h-117q-14 32 -40.5 51t-74.5 19q-30 0 -58.5 -14t-50.5 -40.5t-35 -64.5t-13 -87q0 -65 32.5 -99.5t92.5 -34.5q43 0 71.5 19t50.5 51h114
q-11 -34 -34 -65.5t-55 -56t-71.5 -39t-83.5 -14.5zM384 755h75l106 -150h-95l-54 85h-5l-86 -85h-105z" />
    <glyph glyph-name="Cdotaccent" unicode="&#x10a;" horiz-adv-x="705" 
d="M407 -10q-67 0 -122.5 18.5t-95 55t-61.5 91t-22 125.5q0 96 27 175t75 136t113.5 88t142.5 31q65 0 114.5 -15.5t85 -44t57 -68t30.5 -87.5h-128q-17 48 -55 76.5t-107 28.5q-45 0 -87 -21t-73.5 -61t-50.5 -97.5t-19 -130.5q0 -91 48.5 -140.5t130.5 -49.5
q60 0 100 26.5t71 78.5h132q-20 -45 -49.5 -84.5t-68 -68.5t-86 -45.5t-102.5 -16.5zM499 775q-28 0 -43.5 17.5t-15.5 41.5q0 29 20 50t52 21q28 0 43.5 -17.5t15.5 -41.5q0 -29 -20 -50t-52 -21z" />
    <glyph glyph-name="cdotaccent" unicode="&#x10b;" horiz-adv-x="560" 
d="M319 -10q-110 0 -171 61t-61 171q0 69 21.5 127.5t58.5 100.5t87.5 66t109.5 24q52 0 91.5 -14t68 -38t45 -56t22.5 -67h-117q-14 32 -40.5 51t-74.5 19q-30 0 -58.5 -14t-50.5 -40.5t-35 -64.5t-13 -87q0 -65 32.5 -99.5t92.5 -34.5q43 0 71.5 19t50.5 51h114
q-11 -34 -34 -65.5t-55 -56t-71.5 -39t-83.5 -14.5zM394 615q-28 0 -43.5 17.5t-15.5 41.5q0 29 20 50t52 21q28 0 43.5 -17.5t15.5 -41.5q0 -29 -20 -50t-52 -21z" />
    <glyph glyph-name="Ccaron" unicode="&#x10c;" horiz-adv-x="705" 
d="M407 -10q-67 0 -122.5 18.5t-95 55t-61.5 91t-22 125.5q0 96 27 175t75 136t113.5 88t142.5 31q65 0 114.5 -15.5t85 -44t57 -68t30.5 -87.5h-128q-17 48 -55 76.5t-107 28.5q-45 0 -87 -21t-73.5 -61t-50.5 -97.5t-19 -130.5q0 -91 48.5 -140.5t130.5 -49.5
q60 0 100 26.5t71 78.5h132q-20 -45 -49.5 -84.5t-68 -68.5t-86 -45.5t-102.5 -16.5zM350 915h95l54 -85h5l86 85h105l-164 -150h-75z" />
    <glyph glyph-name="ccaron" unicode="&#x10d;" horiz-adv-x="560" 
d="M319 -10q-110 0 -171 61t-61 171q0 69 21.5 127.5t58.5 100.5t87.5 66t109.5 24q52 0 91.5 -14t68 -38t45 -56t22.5 -67h-117q-14 32 -40.5 51t-74.5 19q-30 0 -58.5 -14t-50.5 -40.5t-35 -64.5t-13 -87q0 -65 32.5 -99.5t92.5 -34.5q43 0 71.5 19t50.5 51h114
q-11 -34 -34 -65.5t-55 -56t-71.5 -39t-83.5 -14.5zM245 750h95l54 -85h5l86 85h105l-164 -150h-75z" />
    <glyph glyph-name="Dcaron" unicode="&#x10e;" horiz-adv-x="695" 
d="M211 700h260q60 0 107 -21.5t79.5 -60t49.5 -92t17 -116.5q0 -98 -27 -174t-73.5 -128.5t-110.5 -80t-137 -27.5h-301zM373 110q45 0 85.5 18.5t72 55t50 90.5t18.5 125q0 43 -11.5 78.5t-32 60.5t-49 38.5t-62.5 13.5h-130l-93 -480h152zM335 915h95l54 -85h5l86 85h105
l-164 -150h-75z" />
    <glyph glyph-name="dcaron" unicode="&#x10f;" horiz-adv-x="700" 
d="M290 -10q-44 0 -81.5 14t-64.5 41.5t-42 67.5t-15 92q0 78 21 140.5t56.5 105.5t83 66t100.5 23q54 0 96.5 -20.5t65.5 -54.5h5l46 235h115l-136 -700h-95l-2 60h-5q-8 -11 -22 -23.5t-32.5 -23t-42 -17t-51.5 -6.5zM322 95q30 0 58.5 13.5t50 40.5t35 66t13.5 90
q0 67 -34 98.5t-86 31.5q-30 0 -58.5 -13.5t-50 -40.5t-35 -66t-13.5 -90q0 -67 34 -98.5t86 -31.5zM770 700h100l-103 -165h-75z" />
    <glyph glyph-name="Dcroat" unicode="&#x110;" horiz-adv-x="705" 
d="M143 300h-75l20 105h76l57 295h260q60 0 107 -21.5t79.5 -60t49.5 -92t17 -116.5q0 -98 -27 -174t-73.5 -128.5t-110.5 -80t-137 -27.5h-301zM383 110q45 0 85.5 18.5t72 55t50 90.5t18.5 125q0 43 -11.5 78.5t-32 60.5t-49 38.5t-62.5 13.5h-130l-36 -185h165l-20 -105
h-165l-37 -190h152z" />
    <glyph glyph-name="dcroat" unicode="&#x111;" horiz-adv-x="610" 
d="M280 -10q-41 0 -77 13t-63 38.5t-43 62.5t-16 86q0 71 20 127t54 94.5t79 58.5t96 20q32 0 57.5 -7t45 -17.5t34 -24t23.5 -26.5h5l23 120h-135l19 95h135l14 70h115l-14 -70h80l-19 -95h-80l-103 -535h-95l-2 60h-5q-21 -27 -61.5 -48.5t-86.5 -21.5zM316 95
q31 0 57.5 11.5t46 33t31 52t11.5 69.5q0 54 -31 89t-89 35q-31 0 -57.5 -11.5t-46 -33t-31 -52t-11.5 -69.5q0 -54 31 -89t89 -35z" />
    <glyph glyph-name="Emacron" unicode="&#x112;" horiz-adv-x="595" 
d="M211 700h460l-22 -110h-335l-36 -185h315l-20 -105h-315l-37 -190h345l-21 -110h-470zM321 880h295l-16 -85h-295z" />
    <glyph glyph-name="emacron" unicode="&#x113;" horiz-adv-x="580" 
d="M317 -10q-51 0 -93.5 15t-73 44t-47 72t-16.5 99q0 73 22.5 132t60.5 101t88 64.5t106 22.5q61 0 104.5 -18t72 -49.5t42 -73.5t13.5 -89q0 -24 -3.5 -45t-8.5 -35h-381q-2 -59 30.5 -97.5t95.5 -38.5q31 0 64 16t50 45h123q-14 -35 -37 -65t-54 -52t-70.5 -35t-87.5 -13
zM480 320q-2 23 -10 44t-23 36.5t-37 25t-51 9.5q-46 0 -84.5 -30.5t-56.5 -84.5h262zM266 715h295l-16 -85h-295z" />
    <glyph glyph-name="Ebreve" unicode="&#x114;" horiz-adv-x="595" 
d="M211 700h460l-22 -110h-335l-36 -185h315l-20 -105h-315l-37 -190h345l-21 -110h-470zM459 765q-32 0 -60 8.5t-49 26.5t-33 45t-12 65h90q1 -34 20 -49.5t49 -15.5t52 15.5t29 49.5h90q-15 -75 -63.5 -110t-112.5 -35z" />
    <glyph glyph-name="ebreve" unicode="&#x115;" horiz-adv-x="580" 
d="M317 -10q-51 0 -93.5 15t-73 44t-47 72t-16.5 99q0 73 22.5 132t60.5 101t88 64.5t106 22.5q61 0 104.5 -18t72 -49.5t42 -73.5t13.5 -89q0 -24 -3.5 -45t-8.5 -35h-381q-2 -59 30.5 -97.5t95.5 -38.5q31 0 64 16t50 45h123q-14 -35 -37 -65t-54 -52t-70.5 -35t-87.5 -13
zM480 320q-2 23 -10 44t-23 36.5t-37 25t-51 9.5q-46 0 -84.5 -30.5t-56.5 -84.5h262zM399 605q-32 0 -60 8.5t-49 26.5t-33 45t-12 65h90q1 -34 20 -49.5t49 -15.5t52 15.5t29 49.5h90q-15 -75 -63.5 -110t-112.5 -35z" />
    <glyph glyph-name="Edotaccent" unicode="&#x116;" horiz-adv-x="595" 
d="M211 700h460l-22 -110h-335l-36 -185h315l-20 -105h-315l-37 -190h345l-21 -110h-470zM449 775q-28 0 -43.5 17.5t-15.5 41.5q0 29 20 50t52 21q28 0 43.5 -17.5t15.5 -41.5q0 -29 -20 -50t-52 -21z" />
    <glyph glyph-name="edotaccent" unicode="&#x117;" horiz-adv-x="580" 
d="M317 -10q-51 0 -93.5 15t-73 44t-47 72t-16.5 99q0 73 22.5 132t60.5 101t88 64.5t106 22.5q61 0 104.5 -18t72 -49.5t42 -73.5t13.5 -89q0 -24 -3.5 -45t-8.5 -35h-381q-2 -59 30.5 -97.5t95.5 -38.5q31 0 64 16t50 45h123q-14 -35 -37 -65t-54 -52t-70.5 -35t-87.5 -13
zM480 320q-2 23 -10 44t-23 36.5t-37 25t-51 9.5q-46 0 -84.5 -30.5t-56.5 -84.5h262zM394 615q-28 0 -43.5 17.5t-15.5 41.5q0 29 20 50t52 21q28 0 43.5 -17.5t15.5 -41.5q0 -29 -20 -50t-52 -21z" />
    <glyph glyph-name="Eogonek" unicode="&#x118;" horiz-adv-x="595" 
d="M475 -205q-55 0 -81 27t-26 64q0 28 9 47.5t23.5 32.5t31.5 21t33 13h-390l136 700h460l-22 -110h-335l-36 -185h315l-20 -105h-315l-37 -190h345l-21 -110q-40 -18 -64.5 -40.5t-24.5 -55.5q0 -15 11 -24.5t37 -9.5h25l-14 -75h-40v0z" />
    <glyph glyph-name="eogonek" unicode="&#x119;" horiz-adv-x="580" 
d="M305 -205q-55 0 -81 27t-26 64q0 24 6.5 41.5t17.5 30t25 21t28 14.5q-86 11 -137 69t-51 158q0 73 22.5 132t60.5 101t88 64.5t106 22.5q61 0 104.5 -18t72 -49.5t42 -73.5t13.5 -89q0 -24 -3.5 -45t-8.5 -35h-381q-2 -59 30.5 -97.5t95.5 -38.5q31 0 64 16t50 45h123
q-26 -62 -77.5 -106.5t-129.5 -55.5q-33 -17 -53 -38t-20 -51q0 -15 11 -24.5t37 -9.5h25l-14 -75h-40zM480 320q-2 23 -10 44t-23 36.5t-37 25t-51 9.5q-46 0 -84.5 -30.5t-56.5 -84.5h262z" />
    <glyph glyph-name="Ecaron" unicode="&#x11a;" horiz-adv-x="595" 
d="M211 700h460l-22 -110h-335l-36 -185h315l-20 -105h-315l-37 -190h345l-21 -110h-470zM305 915h95l54 -85h5l86 85h105l-164 -150h-75z" />
    <glyph glyph-name="ecaron" unicode="&#x11b;" horiz-adv-x="580" 
d="M317 -10q-51 0 -93.5 15t-73 44t-47 72t-16.5 99q0 73 22.5 132t60.5 101t88 64.5t106 22.5q61 0 104.5 -18t72 -49.5t42 -73.5t13.5 -89q0 -24 -3.5 -45t-8.5 -35h-381q-2 -59 30.5 -97.5t95.5 -38.5q31 0 64 16t50 45h123q-14 -35 -37 -65t-54 -52t-70.5 -35t-87.5 -13
zM480 320q-2 23 -10 44t-23 36.5t-37 25t-51 9.5q-46 0 -84.5 -30.5t-56.5 -84.5h262zM245 750h95l54 -85h5l86 85h105l-164 -150h-75z" />
    <glyph glyph-name="Gcircumflex" unicode="&#x11c;" horiz-adv-x="720" 
d="M407 -10q-67 0 -122.5 18.5t-95 55t-61.5 91t-22 125.5q0 96 27 175t75 136t113.5 88t142.5 31q65 0 114.5 -15.5t85 -44t57 -68t30.5 -87.5h-128q-17 48 -55 76.5t-107 28.5q-45 0 -87 -21t-73.5 -61t-50.5 -97.5t-19 -130.5q0 -91 48.5 -140.5t130.5 -49.5
q39 0 71 12.5t56.5 34.5t42 52t27.5 66h-196l20 105h320l-15 -80q-12 -70 -41 -125.5t-72 -94.5t-97.5 -59.5t-118.5 -20.5zM484 915h75l106 -150h-95l-54 85h-5l-86 -85h-105z" />
    <glyph glyph-name="gcircumflex" unicode="&#x11d;" horiz-adv-x="600" 
d="M290 -200q-42 0 -82 8t-72.5 27.5t-55.5 52.5t-32 82h117q10 -32 43 -48.5t82 -16.5q54 0 87.5 24t42.5 72l17 89h-5q-22 -26 -59.5 -43t-82.5 -17t-82.5 14.5t-63.5 41t-40.5 64.5t-14.5 85q0 71 20 127.5t54.5 96t80.5 60.5t97 21q63 0 104.5 -22.5t63.5 -57.5h5l29 70
h95l-105 -537q-20 -100 -84.5 -146.5t-158.5 -46.5zM324 135q29 0 56.5 12t48.5 35t33.5 56t12.5 74q0 25 -8 47.5t-23 39.5t-37 26.5t-50 9.5q-29 0 -56.5 -12t-48.5 -35t-33.5 -56t-12.5 -74q0 -26 8 -48t23 -39t37 -26.5t50 -9.5zM399 755h75l106 -150h-95l-54 85h-5
l-86 -85h-105z" />
    <glyph glyph-name="Gbreve" unicode="&#x11e;" horiz-adv-x="720" 
d="M407 -10q-67 0 -122.5 18.5t-95 55t-61.5 91t-22 125.5q0 96 27 175t75 136t113.5 88t142.5 31q65 0 114.5 -15.5t85 -44t57 -68t30.5 -87.5h-128q-17 48 -55 76.5t-107 28.5q-45 0 -87 -21t-73.5 -61t-50.5 -97.5t-19 -130.5q0 -91 48.5 -140.5t130.5 -49.5
q39 0 71 12.5t56.5 34.5t42 52t27.5 66h-196l20 105h320l-15 -80q-12 -70 -41 -125.5t-72 -94.5t-97.5 -59.5t-118.5 -20.5zM499 765q-32 0 -60 8.5t-49 26.5t-33 45t-12 65h90q1 -34 20 -49.5t49 -15.5t52 15.5t29 49.5h90q-15 -75 -63.5 -110t-112.5 -35z" />
    <glyph glyph-name="gbreve" unicode="&#x11f;" horiz-adv-x="600" 
d="M290 -200q-42 0 -82 8t-72.5 27.5t-55.5 52.5t-32 82h117q10 -32 43 -48.5t82 -16.5q54 0 87.5 24t42.5 72l17 89h-5q-22 -26 -59.5 -43t-82.5 -17t-82.5 14.5t-63.5 41t-40.5 64.5t-14.5 85q0 71 20 127.5t54.5 96t80.5 60.5t97 21q63 0 104.5 -22.5t63.5 -57.5h5l29 70
h95l-105 -537q-20 -100 -84.5 -146.5t-158.5 -46.5zM324 135q29 0 56.5 12t48.5 35t33.5 56t12.5 74q0 25 -8 47.5t-23 39.5t-37 26.5t-50 9.5q-29 0 -56.5 -12t-48.5 -35t-33.5 -56t-12.5 -74q0 -26 8 -48t23 -39t37 -26.5t50 -9.5zM409 605q-32 0 -60 8.5t-49 26.5t-33 45
t-12 65h90q1 -34 20 -49.5t49 -15.5t52 15.5t29 49.5h90q-15 -75 -63.5 -110t-112.5 -35z" />
    <glyph glyph-name="Gdotaccent" unicode="&#x120;" horiz-adv-x="720" 
d="M407 -10q-67 0 -122.5 18.5t-95 55t-61.5 91t-22 125.5q0 96 27 175t75 136t113.5 88t142.5 31q65 0 114.5 -15.5t85 -44t57 -68t30.5 -87.5h-128q-17 48 -55 76.5t-107 28.5q-45 0 -87 -21t-73.5 -61t-50.5 -97.5t-19 -130.5q0 -91 48.5 -140.5t130.5 -49.5
q39 0 71 12.5t56.5 34.5t42 52t27.5 66h-196l20 105h320l-15 -80q-12 -70 -41 -125.5t-72 -94.5t-97.5 -59.5t-118.5 -20.5zM499 775q-28 0 -43.5 17.5t-15.5 41.5q0 29 20 50t52 21q28 0 43.5 -17.5t15.5 -41.5q0 -29 -20 -50t-52 -21z" />
    <glyph glyph-name="gdotaccent" unicode="&#x121;" horiz-adv-x="600" 
d="M290 -200q-42 0 -82 8t-72.5 27.5t-55.5 52.5t-32 82h117q10 -32 43 -48.5t82 -16.5q54 0 87.5 24t42.5 72l17 89h-5q-22 -26 -59.5 -43t-82.5 -17t-82.5 14.5t-63.5 41t-40.5 64.5t-14.5 85q0 71 20 127.5t54.5 96t80.5 60.5t97 21q63 0 104.5 -22.5t63.5 -57.5h5l29 70
h95l-105 -537q-20 -100 -84.5 -146.5t-158.5 -46.5zM324 135q29 0 56.5 12t48.5 35t33.5 56t12.5 74q0 25 -8 47.5t-23 39.5t-37 26.5t-50 9.5q-29 0 -56.5 -12t-48.5 -35t-33.5 -56t-12.5 -74q0 -26 8 -48t23 -39t37 -26.5t50 -9.5zM404 615q-28 0 -43.5 17.5t-15.5 41.5
q0 29 20 50t52 21q28 0 43.5 -17.5t15.5 -41.5q0 -29 -20 -50t-52 -21z" />
    <glyph glyph-name="Gcommaaccent" unicode="&#x122;" horiz-adv-x="720" 
d="M407 -10q-67 0 -122.5 18.5t-95 55t-61.5 91t-22 125.5q0 96 27 175t75 136t113.5 88t142.5 31q65 0 114.5 -15.5t85 -44t57 -68t30.5 -87.5h-128q-17 48 -55 76.5t-107 28.5q-45 0 -87 -21t-73.5 -61t-50.5 -97.5t-19 -130.5q0 -91 48.5 -140.5t130.5 -49.5
q39 0 71 12.5t56.5 34.5t42 52t27.5 66h-196l20 105h320l-15 -80q-12 -70 -41 -125.5t-72 -94.5t-97.5 -59.5t-118.5 -20.5zM336 -85h105l-107 -165h-74z" />
    <glyph glyph-name="gcommaaccent" unicode="&#x123;" horiz-adv-x="600" 
d="M452 770h75l-77 -165h-105zM290 -200q-42 0 -82 8t-72.5 27.5t-55.5 52.5t-32 82h117q10 -32 43 -48.5t82 -16.5q54 0 87.5 24t42.5 72l17 89h-5q-22 -26 -59.5 -43t-82.5 -17t-82.5 14.5t-63.5 41t-40.5 64.5t-14.5 85q0 71 20 127.5t54.5 96t80.5 60.5t97 21
q63 0 104.5 -22.5t63.5 -57.5h5l29 70h95l-105 -537q-20 -100 -84.5 -146.5t-158.5 -46.5zM324 135q29 0 56.5 12t48.5 35t33.5 56t12.5 74q0 25 -8 47.5t-23 39.5t-37 26.5t-50 9.5q-29 0 -56.5 -12t-48.5 -35t-33.5 -56t-12.5 -74q0 -26 8 -48t23 -39t37 -26.5t50 -9.5z
" />
    <glyph glyph-name="Hcircumflex" unicode="&#x124;" horiz-adv-x="715" 
d="M211 700h125l-57 -290h315l57 290h125l-136 -700h-125l58 300h-315l-58 -300h-125zM489 915h75l106 -150h-95l-54 85h-5l-86 -85h-105z" />
    <glyph glyph-name="hcircumflex" unicode="&#x125;" horiz-adv-x="585" 
d="M206 700h115l-44 -225h5q23 27 58.5 46t75.5 19t72.5 -13t55 -37t34.5 -57.5t12 -73.5q0 -19 -1.5 -30.5t-3.5 -19.5l-60 -309h-115l60 310q1 5 2 12t1 16q0 48 -26.5 72.5t-73.5 24.5q-48 0 -82 -30.5t-43 -77.5l-63 -327h-115zM429 925h75l106 -150h-95l-54 85h-5
l-86 -85h-105z" />
    <glyph glyph-name="Hbar" unicode="&#x126;" horiz-adv-x="725" 
d="M179 510h-70l19 100h70l18 90h125l-18 -90h315l18 90h125l-18 -90h70l-19 -100h-70l-99 -510h-125l58 300h-315l-58 -300h-125zM599 410l20 100h-315l-20 -100h315z" />
    <glyph glyph-name="hbar" unicode="&#x127;" horiz-adv-x="590" 
d="M179 535h-76l19 95h75l14 70h115l-14 -70h135l-19 -95h-135l-25 -130h5q23 27 58.5 46t75.5 19t72.5 -13t55 -37t34.5 -57.5t12 -73.5q0 -19 -1.5 -30.5t-3.5 -19.5l-46 -239h-115l46 240q1 5 2 12t1 16q0 48 -26.5 72.5t-73.5 24.5q-48 0 -82 -30.5t-43 -77.5l-49 -257
h-115z" />
    <glyph glyph-name="Imacron" unicode="&#x12a;" horiz-adv-x="275" 
d="M211 700h125l-136 -700h-125zM161 880h295l-16 -85h-295z" />
    <glyph glyph-name="imacron" unicode="&#x12b;" horiz-adv-x="245" 
d="M168 530h115l-103 -530h-115zM111 715h295l-16 -85h-295z" />
    <glyph glyph-name="Ibreve" unicode="&#x12c;" horiz-adv-x="275" 
d="M211 700h125l-136 -700h-125zM289 765q-32 0 -60 8.5t-49 26.5t-33 45t-12 65h90q1 -34 20 -49.5t49 -15.5t52 15.5t29 49.5h90q-15 -75 -63.5 -110t-112.5 -35z" />
    <glyph glyph-name="ibreve" unicode="&#x12d;" horiz-adv-x="245" 
d="M168 530h115l-103 -530h-115zM239 605q-32 0 -60 8.5t-49 26.5t-33 45t-12 65h90q1 -34 20 -49.5t49 -15.5t52 15.5t29 49.5h90q-15 -75 -63.5 -110t-112.5 -35z" />
    <glyph glyph-name="Iogonek" unicode="&#x12e;" horiz-adv-x="275" 
d="M85 -205q-55 0 -81 27t-26 64q0 28 9 47.5t23.5 32.5t31.5 21t33 13l136 700h125l-136 -700h-45q-40 -18 -64.5 -40.5t-24.5 -55.5q0 -15 11 -24.5t37 -9.5h25l-14 -75h-40v0z" />
    <glyph glyph-name="iogonek" unicode="&#x12f;" horiz-adv-x="245" 
d="M75 -205q-55 0 -81 27t-26 64q0 28 9 47.5t23.5 32.5t31.5 21t33 13l103 530h115l-103 -530h-35q-40 -18 -64.5 -40.5t-24.5 -55.5q0 -15 11 -24.5t37 -9.5h25l-14 -75h-40zM243 590q-30 0 -48 18t-18 46q0 32 22.5 54t56.5 22q30 0 48.5 -18t18.5 -46q0 -32 -23 -54
t-57 -22z" />
    <glyph glyph-name="Idotaccent" unicode="&#x130;" horiz-adv-x="275" 
d="M211 700h125l-136 -700h-125zM289 775q-28 0 -43.5 17.5t-15.5 41.5q0 29 20 50t52 21q28 0 43.5 -17.5t15.5 -41.5q0 -29 -20 -50t-52 -21z" />
    <glyph glyph-name="dotlessi" unicode="&#x131;" horiz-adv-x="245" 
d="M168 530h115l-103 -530h-115z" />
    <glyph glyph-name="uni0132" unicode="&#x132;" horiz-adv-x="795" 
d="M211 700h125l-136 -700h-125zM513 -10q-103 0 -161.5 54.5t-60.5 160.5h124q1 -51 29 -78t72 -27t77 31.5t46 98.5l92 470h125l-94 -482q-22 -111 -87.5 -169.5t-161.5 -58.5z" />
    <glyph glyph-name="uni0133" unicode="&#x133;" horiz-adv-x="495" 
d="M168 530h115l-103 -530h-115zM243 590q-30 0 -48 18t-18 46q0 32 22.5 54t56.5 22q30 0 48.5 -18t18.5 -46q0 -32 -23 -54t-57 -22zM161 -100h85q20 0 37 13.5t22 37.5l113 579h115l-116 -600q-13 -65 -52.5 -97.5t-102.5 -32.5h-120zM493 590q-30 0 -48 18t-18 46
q0 32 22.5 54t56.5 22q30 0 48.5 -18t18.5 -46q0 -32 -23 -54t-57 -22z" />
    <glyph glyph-name="Jcircumflex" unicode="&#x134;" horiz-adv-x="565" 
d="M283 -10q-103 0 -161.5 54.5t-60.5 160.5h124q1 -51 29 -78t72 -27t77 31.5t46 98.5l92 470h125l-94 -482q-22 -111 -87.5 -169.5t-161.5 -58.5zM559 915h75l106 -150h-95l-54 85h-5l-86 -85h-105z" />
    <glyph glyph-name="jcircumflex" unicode="&#x135;" horiz-adv-x="245" 
d="M-89 -100h85q20 0 37 13.5t22 37.5l113 579h115l-116 -600q-13 -65 -52.5 -97.5t-102.5 -32.5h-120zM224 755h75l106 -150h-95l-54 85h-5l-86 -85h-105z" />
    <glyph glyph-name="Kcommaaccent" unicode="&#x136;" horiz-adv-x="600" 
d="M211 700h125l-63 -320l338 320h152l-369 -352l236 -348h-140l-226 330l-64 -330h-125zM281 -85h105l-107 -165h-74z" />
    <glyph glyph-name="kcommaaccent" unicode="&#x137;" horiz-adv-x="525" 
d="M206 700h115l-80 -410l262 240h149l-295 -268l192 -262h-134l-182 250l-48 -250h-115zM236 -85h105l-107 -165h-74z" />
    <glyph glyph-name="Lacute" unicode="&#x139;" horiz-adv-x="530" 
d="M211 700h125l-115 -590h335l-21 -110h-460zM358 910h115l-143 -145h-90z" />
    <glyph glyph-name="lacute" unicode="&#x13a;" horiz-adv-x="255" 
d="M206 700h115l-136 -700h-115zM348 910h115l-143 -145h-90z" />
    <glyph glyph-name="Lcommaaccent" unicode="&#x13b;" horiz-adv-x="530" 
d="M211 700h125l-115 -590h335l-21 -110h-460zM251 -85h105l-107 -165h-74z" />
    <glyph glyph-name="lcommaaccent" unicode="&#x13c;" horiz-adv-x="255" 
d="M206 700h115l-136 -700h-115zM56 -85h105l-107 -165h-74z" />
    <glyph glyph-name="Lcaron" unicode="&#x13d;" horiz-adv-x="530" 
d="M211 700h125l-115 -590h335l-21 -110h-460zM450 700h100l-103 -165h-75z" />
    <glyph glyph-name="lcaron" unicode="&#x13e;" horiz-adv-x="345" 
d="M206 700h115l-136 -700h-115zM415 700h100l-103 -165h-75z" />
    <glyph glyph-name="Ldot" unicode="&#x13f;" horiz-adv-x="530" 
d="M473 325q-28 0 -46 18t-18 46q0 32 22.5 54t54.5 22q28 0 46 -18t18 -46q0 -32 -22.5 -54t-54.5 -22zM211 700h125l-115 -590h335l-21 -110h-460z" />
    <glyph glyph-name="ldot" unicode="&#x140;" horiz-adv-x="385" 
d="M383 290q-28 0 -46 18t-18 46q0 32 22.5 54t54.5 22q28 0 46 -18t18 -46q0 -32 -22.5 -54t-54.5 -22zM206 700h115l-136 -700h-115z" />
    <glyph glyph-name="Lslash" unicode="&#x141;" horiz-adv-x="545" 
d="M143 275l-91 -30l23 120l91 30l60 305h125l-51 -260l166 55l-24 -120l-165 -55l-41 -210h335l-21 -110h-460z" />
    <glyph glyph-name="lslash" unicode="&#x142;" horiz-adv-x="295" 
d="M142 272l-81 -32l23 115l81 32l61 313h115l-51 -262l81 32l-22 -115l-82 -33l-62 -322h-115z" />
    <glyph glyph-name="Nacute" unicode="&#x143;" horiz-adv-x="745" 
d="M211 700h165l195 -537h5l105 537h125l-136 -700h-165l-195 537h-5l-105 -537h-125zM588 910h115l-143 -145h-90z" />
    <glyph glyph-name="nacute" unicode="&#x144;" horiz-adv-x="580" 
d="M168 530h95l2 -60h5q26 32 63.5 51t77.5 19t72.5 -13t55 -37t34.5 -57.5t12 -73.5q0 -19 -1.5 -30.5t-3.5 -19.5l-60 -309h-115l60 310q1 5 2 12t1 16q0 48 -26.5 72.5t-73.5 24.5q-48 0 -82 -30.5t-43 -77.5l-63 -327h-115zM473 750h115l-143 -145h-90z" />
    <glyph glyph-name="Ncommaaccent" unicode="&#x145;" horiz-adv-x="745" 
d="M211 700h165l195 -537h5l105 537h125l-136 -700h-165l-195 537h-5l-105 -537h-125zM326 -85h105l-107 -165h-74z" />
    <glyph glyph-name="ncommaaccent" unicode="&#x146;" horiz-adv-x="580" 
d="M168 530h95l2 -60h5q26 32 63.5 51t77.5 19t72.5 -13t55 -37t34.5 -57.5t12 -73.5q0 -19 -1.5 -30.5t-3.5 -19.5l-60 -309h-115l60 310q1 5 2 12t1 16q0 48 -26.5 72.5t-73.5 24.5q-48 0 -82 -30.5t-43 -77.5l-63 -327h-115zM236 -85h105l-107 -165h-74z" />
    <glyph glyph-name="Ncaron" unicode="&#x147;" horiz-adv-x="745" 
d="M211 700h165l195 -537h5l105 537h125l-136 -700h-165l-195 537h-5l-105 -537h-125zM370 915h95l54 -85h5l86 85h105l-164 -150h-75z" />
    <glyph glyph-name="ncaron" unicode="&#x148;" horiz-adv-x="580" 
d="M168 530h95l2 -60h5q26 32 63.5 51t77.5 19t72.5 -13t55 -37t34.5 -57.5t12 -73.5q0 -19 -1.5 -30.5t-3.5 -19.5l-60 -309h-115l60 310q1 5 2 12t1 16q0 48 -26.5 72.5t-73.5 24.5q-48 0 -82 -30.5t-43 -77.5l-63 -327h-115zM255 750h95l54 -85h5l86 85h105l-164 -150
h-75z" />
    <glyph glyph-name="napostrophe" unicode="&#x149;" horiz-adv-x="630" 
d="M218 530h95l2 -60h5q26 32 63.5 51t77.5 19t72.5 -13t55 -37t34.5 -57.5t12 -73.5q0 -19 -1.5 -30.5t-3.5 -19.5l-60 -309h-115l60 310q1 5 2 12t1 16q0 48 -26.5 72.5t-73.5 24.5q-48 0 -82 -30.5t-43 -77.5l-63 -327h-115zM188 720h100l-103 -165h-75z" />
    <glyph glyph-name="Eng" unicode="&#x14a;" horiz-adv-x="745" 
d="M373 -110h63q85 0 106 96l3 14h-40l-195 537h-5l-105 -537h-125l136 700h165l195 -537h5l105 537h125l-139 -711q-22 -112 -79.5 -163t-148.5 -51h-88z" />
    <glyph glyph-name="eng" unicode="&#x14b;" horiz-adv-x="580" 
d="M250 -100h87q20 0 36.5 13.5t21.5 37.5l70 359q1 5 2 12t1 16q0 48 -26.5 72.5t-73.5 24.5q-48 0 -82 -30.5t-43 -77.5l-63 -327h-115l103 530h95l2 -60h5q26 32 63.5 51t77.5 19t72.5 -13t55 -37t34.5 -57.5t12 -73.5q0 -19 -1.5 -30.5t-3.5 -19.5l-74 -379
q-12 -65 -52 -97.5t-103 -32.5h-120z" />
    <glyph glyph-name="Omacron" unicode="&#x14c;" horiz-adv-x="740" 
d="M410 -10q-72 0 -128.5 20t-95.5 57.5t-59.5 91t-20.5 121.5q0 86 24.5 164t70.5 137t112.5 94t151.5 35q72 0 128.5 -20t95.5 -57.5t59.5 -91.5t20.5 -121q0 -86 -24.5 -164t-70.5 -137t-112.5 -94t-151.5 -35zM414 100q47 0 88.5 21.5t73 61.5t50 97.5t18.5 129.5
q0 91 -47.5 140.5t-135.5 49.5q-47 0 -88.5 -21.5t-73 -61.5t-50 -97.5t-18.5 -129.5q0 -91 47.5 -140.5t135.5 -49.5zM371 880h295l-16 -85h-295z" />
    <glyph glyph-name="omacron" unicode="&#x14d;" horiz-adv-x="580" 
d="M319 -10q-109 0 -170.5 60t-61.5 165q0 73 21.5 133t59 102.5t88 66t108.5 23.5q109 0 170.5 -60t61.5 -165q0 -73 -21.5 -133t-59 -102.5t-88 -66t-108.5 -23.5zM323 95q29 0 57.5 13t50.5 39t35.5 65.5t13.5 92.5q0 64 -34 97t-86 33q-29 0 -57.5 -13t-50.5 -39
t-35.5 -65.5t-13.5 -92.5q0 -64 34 -97t86 -33zM266 715h295l-16 -85h-295z" />
    <glyph glyph-name="Obreve" unicode="&#x14e;" horiz-adv-x="740" 
d="M410 -10q-72 0 -128.5 20t-95.5 57.5t-59.5 91t-20.5 121.5q0 86 24.5 164t70.5 137t112.5 94t151.5 35q72 0 128.5 -20t95.5 -57.5t59.5 -91.5t20.5 -121q0 -86 -24.5 -164t-70.5 -137t-112.5 -94t-151.5 -35zM414 100q47 0 88.5 21.5t73 61.5t50 97.5t18.5 129.5
q0 91 -47.5 140.5t-135.5 49.5q-47 0 -88.5 -21.5t-73 -61.5t-50 -97.5t-18.5 -129.5q0 -91 47.5 -140.5t135.5 -49.5zM499 765q-32 0 -60 8.5t-49 26.5t-33 45t-12 65h90q1 -34 20 -49.5t49 -15.5t52 15.5t29 49.5h90q-15 -75 -63.5 -110t-112.5 -35z" />
    <glyph glyph-name="obreve" unicode="&#x14f;" horiz-adv-x="580" 
d="M319 -10q-109 0 -170.5 60t-61.5 165q0 73 21.5 133t59 102.5t88 66t108.5 23.5q109 0 170.5 -60t61.5 -165q0 -73 -21.5 -133t-59 -102.5t-88 -66t-108.5 -23.5zM323 95q29 0 57.5 13t50.5 39t35.5 65.5t13.5 92.5q0 64 -34 97t-86 33q-29 0 -57.5 -13t-50.5 -39
t-35.5 -65.5t-13.5 -92.5q0 -64 34 -97t86 -33zM399 605q-32 0 -60 8.5t-49 26.5t-33 45t-12 65h90q1 -34 20 -49.5t49 -15.5t52 15.5t29 49.5h90q-15 -75 -63.5 -110t-112.5 -35z" />
    <glyph glyph-name="Ohungarumlaut" unicode="&#x150;" horiz-adv-x="740" 
d="M410 -10q-72 0 -128.5 20t-95.5 57.5t-59.5 91t-20.5 121.5q0 86 24.5 164t70.5 137t112.5 94t151.5 35q72 0 128.5 -20t95.5 -57.5t59.5 -91.5t20.5 -121q0 -86 -24.5 -164t-70.5 -137t-112.5 -94t-151.5 -35zM414 100q47 0 88.5 21.5t73 61.5t50 97.5t18.5 129.5
q0 91 -47.5 140.5t-135.5 49.5q-47 0 -88.5 -21.5t-73 -61.5t-50 -97.5t-18.5 -129.5q0 -91 47.5 -140.5t135.5 -49.5zM483 910h115l-143 -145h-90zM653 910h115l-143 -145h-90z" />
    <glyph glyph-name="ohungarumlaut" unicode="&#x151;" horiz-adv-x="580" 
d="M319 -10q-109 0 -170.5 60t-61.5 165q0 73 21.5 133t59 102.5t88 66t108.5 23.5q109 0 170.5 -60t61.5 -165q0 -73 -21.5 -133t-59 -102.5t-88 -66t-108.5 -23.5zM323 95q29 0 57.5 13t50.5 39t35.5 65.5t13.5 92.5q0 64 -34 97t-86 33q-29 0 -57.5 -13t-50.5 -39
t-35.5 -65.5t-13.5 -92.5q0 -64 34 -97t86 -33zM378 750h115l-143 -145h-90zM548 750h115l-143 -145h-90z" />
    <glyph glyph-name="OE" unicode="&#x152;" horiz-adv-x="1065" 
d="M386 -10q-58 0 -109 18.5t-89 55t-60 91t-22 125.5q0 99 28.5 179t77 135.5t113 85.5t135.5 30q75 0 127.5 -26.5t81.5 -68.5l17 85h455l-22 -110h-330l-36 -185h310l-20 -105h-310l-37 -190h340l-21 -110h-465l10 53q-35 -31 -76.5 -47t-97.5 -16zM397 100
q40 0 80.5 19.5t73 58t52.5 96t20 134.5q0 49 -13 85t-35.5 60t-53 35.5t-64.5 11.5q-41 0 -81 -19.5t-72.5 -58t-52.5 -96.5t-20 -134q0 -49 13 -85t35.5 -60t53 -35.5t64.5 -11.5z" />
    <glyph glyph-name="oe" unicode="&#x153;" horiz-adv-x="945" 
d="M316 -10q-53 0 -95 15.5t-72 45t-46 71t-16 93.5q0 73 21.5 133t58.5 102.5t87 66t106 23.5q64 0 111 -26.5t71 -66.5q36 45 86 69t107 24q58 0 100.5 -18t70.5 -49.5t41.5 -73.5t13.5 -89q0 -24 -4 -47.5t-9 -37.5h-375v-4q0 -56 33.5 -91.5t93.5 -35.5q30 0 60.5 16
t47.5 45h123q-14 -35 -36.5 -65t-53 -52t-69 -35t-83.5 -13q-60 0 -108.5 23.5t-75.5 70.5q-33 -47 -83 -70.5t-106 -23.5zM319 95q28 0 55 13t48.5 39t34.5 65.5t13 92.5q0 64 -33 97t-84 33q-27 0 -54 -13t-48.5 -39t-34.5 -65.5t-13 -92.5q0 -64 33 -97t83 -33zM845 320
q-4 49 -33.5 82t-86.5 33q-45 0 -82.5 -31t-54.5 -84h257z" />
    <glyph glyph-name="Racute" unicode="&#x154;" horiz-adv-x="650" 
d="M211 700h284q44 0 80 -15.5t61.5 -42t39.5 -62.5t14 -77q0 -67 -23 -112t-56 -73t-69 -41t-62 -17l132 -260h-134l-130 260h-98l-50 -260h-125zM445 370q52 0 86 32.5t34 91.5q0 42 -25 69t-70 27h-156l-43 -220h174zM528 910h115l-143 -145h-90z" />
    <glyph glyph-name="racute" unicode="&#x155;" horiz-adv-x="395" 
d="M168 530h95l2 -60h5q26 28 57.5 44t66.5 16h84l-22 -110h-73q-56 0 -94.5 -31t-49.5 -86l-59 -303h-115zM408 750h115l-143 -145h-90z" />
    <glyph glyph-name="Rcommaaccent" unicode="&#x156;" horiz-adv-x="650" 
d="M211 700h284q44 0 80 -15.5t61.5 -42t39.5 -62.5t14 -77q0 -67 -23 -112t-56 -73t-69 -41t-62 -17l132 -260h-134l-130 260h-98l-50 -260h-125zM445 370q52 0 86 32.5t34 91.5q0 42 -25 69t-70 27h-156l-43 -220h174zM281 -85h105l-107 -165h-74z" />
    <glyph glyph-name="rcommaaccent" unicode="&#x157;" horiz-adv-x="395" 
d="M168 530h95l2 -60h5q26 28 57.5 44t66.5 16h84l-22 -110h-73q-56 0 -94.5 -31t-49.5 -86l-59 -303h-115zM51 -85h105l-107 -165h-74z" />
    <glyph glyph-name="Rcaron" unicode="&#x158;" horiz-adv-x="650" 
d="M211 700h284q44 0 80 -15.5t61.5 -42t39.5 -62.5t14 -77q0 -67 -23 -112t-56 -73t-69 -41t-62 -17l132 -260h-134l-130 260h-98l-50 -260h-125zM445 370q52 0 86 32.5t34 91.5q0 42 -25 69t-70 27h-156l-43 -220h174zM315 915h95l54 -85h5l86 85h105l-164 -150h-75z" />
    <glyph glyph-name="rcaron" unicode="&#x159;" horiz-adv-x="395" 
d="M168 530h95l2 -60h5q26 28 57.5 44t66.5 16h84l-22 -110h-73q-56 0 -94.5 -31t-49.5 -86l-59 -303h-115zM190 750h95l54 -85h5l86 85h105l-164 -150h-75z" />
    <glyph glyph-name="Sacute" unicode="&#x15a;" horiz-adv-x="615" 
d="M348 -10q-56 0 -104.5 12t-85 37.5t-60 65t-28.5 95.5h124q8 -48 49 -74.5t108 -26.5q66 0 99.5 28.5t33.5 73.5q0 34 -25 53t-62 32t-81 25.5t-81 34.5t-62 58t-25 96q0 50 18 89t51 66t79 41t101 14q63 0 110.5 -14t79.5 -39.5t49.5 -60.5t20.5 -76h-125
q-9 35 -43 57.5t-95 22.5q-60 0 -90 -27.5t-30 -66.5q0 -36 25.5 -55.5t63.5 -33.5t82.5 -27t82 -35t62.5 -58.5t25 -96.5q0 -42 -18 -80t-52 -67t-83.5 -46t-113.5 -17zM498 910h115l-143 -145h-90z" />
    <glyph glyph-name="sacute" unicode="&#x15b;" horiz-adv-x="500" 
d="M283 -10q-42 0 -80.5 9t-69.5 28.5t-52 51t-27 76.5h123q7 -28 35 -44t79 -16q48 0 66 16t18 38q0 23 -19.5 36t-48.5 22t-63.5 18.5t-63.5 26t-48.5 44t-19.5 73.5q0 35 13 66t38.5 54.5t63 37t85.5 13.5q52 0 91 -12t65.5 -33t41 -49.5t19.5 -60.5h-125q-6 18 -28.5 34
t-72.5 16q-35 0 -53 -14t-18 -37t19.5 -36t48.5 -22.5t63.5 -19t63.5 -26t48.5 -44t19.5 -72.5q0 -36 -13 -68t-39.5 -55.5t-66 -37t-93.5 -13.5zM413 750h115l-143 -145h-90z" />
    <glyph glyph-name="Scircumflex" unicode="&#x15c;" horiz-adv-x="615" 
d="M348 -10q-56 0 -104.5 12t-85 37.5t-60 65t-28.5 95.5h124q8 -48 49 -74.5t108 -26.5q66 0 99.5 28.5t33.5 73.5q0 34 -25 53t-62 32t-81 25.5t-81 34.5t-62 58t-25 96q0 50 18 89t51 66t79 41t101 14q63 0 110.5 -14t79.5 -39.5t49.5 -60.5t20.5 -76h-125
q-9 35 -43 57.5t-95 22.5q-60 0 -90 -27.5t-30 -66.5q0 -36 25.5 -55.5t63.5 -33.5t82.5 -27t82 -35t62.5 -58.5t25 -96.5q0 -42 -18 -80t-52 -67t-83.5 -46t-113.5 -17zM424 915h75l106 -150h-95l-54 85h-5l-86 -85h-105z" />
    <glyph glyph-name="scircumflex" unicode="&#x15d;" horiz-adv-x="500" 
d="M283 -10q-42 0 -80.5 9t-69.5 28.5t-52 51t-27 76.5h123q7 -28 35 -44t79 -16q48 0 66 16t18 38q0 23 -19.5 36t-48.5 22t-63.5 18.5t-63.5 26t-48.5 44t-19.5 73.5q0 35 13 66t38.5 54.5t63 37t85.5 13.5q52 0 91 -12t65.5 -33t41 -49.5t19.5 -60.5h-125q-6 18 -28.5 34
t-72.5 16q-35 0 -53 -14t-18 -37t19.5 -36t48.5 -22.5t63.5 -19t63.5 -26t48.5 -44t19.5 -72.5q0 -36 -13 -68t-39.5 -55.5t-66 -37t-93.5 -13.5zM344 755h75l106 -150h-95l-54 85h-5l-86 -85h-105z" />
    <glyph glyph-name="Scedilla" unicode="&#x15e;" horiz-adv-x="615" 
d="M216 -150h59q12 0 21.5 8t9.5 23q0 24 -25 24h-45l11 55l23 36q-41 7 -76 22.5t-61 40.5t-42.5 60t-20.5 81h124q8 -48 49 -74.5t108 -26.5q66 0 99.5 28.5t33.5 73.5q0 34 -25 53t-62 32t-81 25.5t-81 34.5t-62 58t-25 96q0 50 18 89t51 66t79 41t101 14q63 0 110.5 -14
t79.5 -39.5t49.5 -60.5t20.5 -76h-125q-9 35 -43 57.5t-95 22.5q-60 0 -90 -27.5t-30 -66.5q0 -36 25.5 -55.5t63.5 -33.5t82.5 -27t82 -35t62.5 -58.5t25 -96.5q0 -42 -18 -80t-52 -67t-83.5 -46t-113.5 -17h-2l-15 -25q28 -6 44 -27t16 -52q0 -48 -32 -77t-79 -29h-77z
" />
    <glyph glyph-name="scedilla" unicode="&#x15f;" horiz-adv-x="500" 
d="M166 -150h59q12 0 21.5 8t9.5 23q0 24 -25 24h-45l11 55l23 35q-32 5 -60 17t-50 31.5t-36.5 47t-19.5 64.5h123q7 -28 35 -44t79 -16q45 0 64 16t19 38q0 23 -19.5 36t-48.5 22t-63 18.5t-63 26t-48.5 44t-19.5 73.5q0 35 13 66t38.5 54.5t63 37t85.5 13.5q52 0 91 -12
t65.5 -33t41 -49.5t19.5 -60.5h-125q-6 18 -28.5 34t-72.5 16q-35 0 -52 -14t-17 -37t19.5 -36t48.5 -22.5t62.5 -19t62.5 -26t48.5 -44t19.5 -72.5q0 -35 -12 -66t-37 -54.5t-62 -37.5t-87 -16l-16 -25q28 -6 44 -27t16 -52q0 -48 -32 -77t-79 -29h-77z" />
    <glyph glyph-name="Scaron" unicode="&#x160;" horiz-adv-x="615" 
d="M348 -10q-56 0 -104.5 12t-85 37.5t-60 65t-28.5 95.5h124q8 -48 49 -74.5t108 -26.5q66 0 99.5 28.5t33.5 73.5q0 34 -25 53t-62 32t-81 25.5t-81 34.5t-62 58t-25 96q0 50 18 89t51 66t79 41t101 14q63 0 110.5 -14t79.5 -39.5t49.5 -60.5t20.5 -76h-125
q-9 35 -43 57.5t-95 22.5q-60 0 -90 -27.5t-30 -66.5q0 -36 25.5 -55.5t63.5 -33.5t82.5 -27t82 -35t62.5 -58.5t25 -96.5q0 -42 -18 -80t-52 -67t-83.5 -46t-113.5 -17zM290 915h95l54 -85h5l86 85h105l-164 -150h-75z" />
    <glyph glyph-name="scaron" unicode="&#x161;" horiz-adv-x="500" 
d="M283 -10q-42 0 -80.5 9t-69.5 28.5t-52 51t-27 76.5h123q7 -28 35 -44t79 -16q48 0 66 16t18 38q0 23 -19.5 36t-48.5 22t-63.5 18.5t-63.5 26t-48.5 44t-19.5 73.5q0 35 13 66t38.5 54.5t63 37t85.5 13.5q52 0 91 -12t65.5 -33t41 -49.5t19.5 -60.5h-125q-6 18 -28.5 34
t-72.5 16q-35 0 -53 -14t-18 -37t19.5 -36t48.5 -22.5t63.5 -19t63.5 -26t48.5 -44t19.5 -72.5q0 -36 -13 -68t-39.5 -55.5t-66 -37t-93.5 -13.5zM200 750h95l54 -85h5l86 85h105l-164 -150h-75z" />
    <glyph glyph-name="uni0162" unicode="&#x162;" horiz-adv-x="585" 
d="M210 -150h55q30 0 36 27q5 28 -25 28h-45l10 50l29 45h-50l114 590h-215l22 110h555l-22 -110h-215l-114 -590l-22 -35q33 -4 52 -25.5t11 -59.5q-8 -45 -41.5 -72.5t-82.5 -27.5h-65z" />
    <glyph glyph-name="uni0163" unicode="&#x163;" horiz-adv-x="385" 
d="M126 -150h59q12 0 21.5 8t9.5 23q0 24 -25 24h-45l11 55l36 55q-32 16 -48.5 46t-16.5 68q0 15 1 21.5t2 11.5l51 263h-85l21 105h85l42 140h100l-27 -140h130l-21 -105h-130l-49 -260q-1 -2 -1 -5v-8q0 -14 10.5 -30.5t35.5 -16.5h72l-20 -105h-82l-22 -35q28 -6 44 -27
t16 -52q0 -48 -32 -77t-79 -29h-77z" />
    <glyph glyph-name="Tcaron" unicode="&#x164;" horiz-adv-x="585" 
d="M334 590h-215l22 110h555l-22 -110h-215l-114 -590h-125zM280 915h95l54 -85h5l86 85h105l-164 -150h-75z" />
    <glyph glyph-name="tcaron" unicode="&#x165;" horiz-adv-x="450" 
d="M257 0q-30 0 -54 10t-40.5 27.5t-25.5 41t-9 50.5q0 15 1 21.5t2 11.5l51 263h-85l21 105h85l42 140h100l-27 -140h130l-21 -105h-130l-49 -260q-1 -2 -1 -5v-8q0 -14 10.5 -30.5t35.5 -16.5h72l-20 -105h-88v0zM520 700h100l-103 -165h-75z" />
    <glyph glyph-name="Tbar" unicode="&#x166;" horiz-adv-x="585" 
d="M289 360h-160l22 110h160l23 120h-215l22 110h555l-22 -110h-215l-23 -120h160l-22 -110h-160l-69 -360h-125z" />
    <glyph glyph-name="tbar" unicode="&#x167;" horiz-adv-x="385" 
d="M257 0q-30 0 -54 10t-40.5 27.5t-25.5 41t-9 50.5q0 15 1 21.5t2 11.5l18 93h-85l20 100h84l14 70h-85l21 105h85l42 140h100l-27 -140h130l-21 -105h-130l-13 -70h130l-20 -100h-129l-17 -90q-1 -2 -1 -5v-8q0 -14 10.5 -30.5t35.5 -16.5h72l-20 -105h-88v0z" />
    <glyph glyph-name="Umacron" unicode="&#x16a;" horiz-adv-x="710" 
d="M391 -10q-58 0 -107 17t-84.5 49.5t-55.5 80.5t-20 110q0 34 3 49.5t5 27.5l74 376h125l-76 -388q-2 -11 -4 -22.5t-2 -31.5q0 -75 39 -116.5t105 -41.5q64 0 112.5 46t65.5 135l80 419h125l-82 -431q-13 -68 -40.5 -120t-66.5 -87.5t-89 -53.5t-107 -18zM366 880h295
l-16 -85h-295z" />
    <glyph glyph-name="umacron" unicode="&#x16b;" horiz-adv-x="585" 
d="M277 -10q-41 0 -73 13t-54.5 37t-34.5 57.5t-12 73.5q0 19 1.5 30.5t3.5 19.5l60 309h115l-60 -310q-1 -5 -2 -12t-1 -16q0 -48 26.5 -72.5t73.5 -24.5q48 0 82 30.5t43 77.5l63 327h115l-103 -530h-95l-2 60h-5q-26 -32 -63.5 -51t-77.5 -19zM271 715h295l-16 -85h-295z
" />
    <glyph glyph-name="Ubreve" unicode="&#x16c;" horiz-adv-x="710" 
d="M391 -10q-58 0 -107 17t-84.5 49.5t-55.5 80.5t-20 110q0 34 3 49.5t5 27.5l74 376h125l-76 -388q-2 -11 -4 -22.5t-2 -31.5q0 -75 39 -116.5t105 -41.5q64 0 112.5 46t65.5 135l80 419h125l-82 -431q-13 -68 -40.5 -120t-66.5 -87.5t-89 -53.5t-107 -18zM499 765
q-32 0 -60 8.5t-49 26.5t-33 45t-12 65h90q1 -34 20 -49.5t49 -15.5t52 15.5t29 49.5h90q-15 -75 -63.5 -110t-112.5 -35z" />
    <glyph glyph-name="ubreve" unicode="&#x16d;" horiz-adv-x="585" 
d="M277 -10q-41 0 -73 13t-54.5 37t-34.5 57.5t-12 73.5q0 19 1.5 30.5t3.5 19.5l60 309h115l-60 -310q-1 -5 -2 -12t-1 -16q0 -48 26.5 -72.5t73.5 -24.5q48 0 82 30.5t43 77.5l63 327h115l-103 -530h-95l-2 60h-5q-26 -32 -63.5 -51t-77.5 -19zM404 605q-32 0 -60 8.5
t-49 26.5t-33 45t-12 65h90q1 -34 20 -49.5t49 -15.5t52 15.5t29 49.5h90q-15 -75 -63.5 -110t-112.5 -35z" />
    <glyph glyph-name="Uring" unicode="&#x16e;" horiz-adv-x="710" 
d="M391 -10q-58 0 -107 17t-84.5 49.5t-55.5 80.5t-20 110q0 34 3 49.5t5 27.5l74 376h125l-76 -388q-2 -11 -4 -22.5t-2 -31.5q0 -75 39 -116.5t105 -41.5q64 0 112.5 46t65.5 135l80 419h125l-82 -431q-13 -68 -40.5 -120t-66.5 -87.5t-89 -53.5t-107 -18zM491 745
q-42 0 -69 24t-27 69q0 53 33.5 85t82.5 32q42 0 68.5 -24t26.5 -69q0 -26 -9 -47.5t-24.5 -37t-36.5 -24t-45 -8.5zM497 810q20 0 32 12t12 33q0 17 -10 26t-27 9q-20 0 -32 -12t-12 -33q0 -17 10.5 -26t26.5 -9z" />
    <glyph glyph-name="uring" unicode="&#x16f;" horiz-adv-x="585" 
d="M277 -10q-41 0 -73 13t-54.5 37t-34.5 57.5t-12 73.5q0 19 1.5 30.5t3.5 19.5l60 309h115l-60 -310q-1 -5 -2 -12t-1 -16q0 -48 26.5 -72.5t73.5 -24.5q48 0 82 30.5t43 77.5l63 327h115l-103 -530h-95l-2 60h-5q-26 -32 -63.5 -51t-77.5 -19zM401 585q-42 0 -69 24
t-27 69q0 53 33.5 85t82.5 32q42 0 68.5 -24t26.5 -69q0 -26 -9 -47.5t-24.5 -37t-36.5 -24t-45 -8.5zM407 650q20 0 32 12t12 33q0 17 -10 26t-27 9q-20 0 -32 -12t-12 -33q0 -17 10.5 -26t26.5 -9z" />
    <glyph glyph-name="Uhungarumlaut" unicode="&#x170;" horiz-adv-x="710" 
d="M391 -10q-58 0 -107 17t-84.5 49.5t-55.5 80.5t-20 110q0 34 3 49.5t5 27.5l74 376h125l-76 -388q-2 -11 -4 -22.5t-2 -31.5q0 -75 39 -116.5t105 -41.5q64 0 112.5 46t65.5 135l80 419h125l-82 -431q-13 -68 -40.5 -120t-66.5 -87.5t-89 -53.5t-107 -18zM473 910h115
l-143 -145h-90zM643 910h115l-143 -145h-90z" />
    <glyph glyph-name="uhungarumlaut" unicode="&#x171;" horiz-adv-x="585" 
d="M277 -10q-41 0 -73 13t-54.5 37t-34.5 57.5t-12 73.5q0 19 1.5 30.5t3.5 19.5l60 309h115l-60 -310q-1 -5 -2 -12t-1 -16q0 -48 26.5 -72.5t73.5 -24.5q48 0 82 30.5t43 77.5l63 327h115l-103 -530h-95l-2 60h-5q-26 -32 -63.5 -51t-77.5 -19zM383 750h115l-143 -145h-90
zM553 750h115l-143 -145h-90z" />
    <glyph glyph-name="Uogonek" unicode="&#x172;" horiz-adv-x="710" 
d="M365 -205q-55 0 -81 27t-26 64q0 24 7 42t18 30.5t25.5 21t28.5 14.5q-47 7 -86.5 27t-67.5 52t-43.5 76t-15.5 98q0 34 3 49.5t5 27.5l74 376h125l-76 -388q-2 -11 -4 -22.5t-2 -31.5q0 -75 39 -116.5t105 -41.5q64 0 112.5 46t65.5 135l80 419h125l-82 -431
q-24 -129 -98.5 -200t-180.5 -78q-32 -17 -50.5 -37.5t-18.5 -49.5q0 -15 11 -24.5t37 -9.5h25l-14 -75h-40v0z" />
    <glyph glyph-name="uogonek" unicode="&#x173;" horiz-adv-x="585" 
d="M450 -205q-55 0 -81 27t-26 64q0 28 9 47.5t23.5 32.5t31.5 21t33 13h-15l-2 60h-5q-26 -32 -63.5 -51t-77.5 -19q-41 0 -73 13t-54.5 37t-34.5 57.5t-12 73.5q0 19 1.5 30.5t3.5 19.5l60 309h115l-60 -310q-1 -5 -2 -12t-1 -16q0 -48 26.5 -72.5t73.5 -24.5
q48 0 82 30.5t43 77.5l63 327h115l-103 -530q-40 -18 -64.5 -40.5t-24.5 -55.5q0 -15 11 -24.5t37 -9.5h25l-14 -75h-40v0z" />
    <glyph glyph-name="Wcircumflex" unicode="&#x174;" horiz-adv-x="935" 
d="M141 700h125l17 -530h5l233 530h145l27 -530h5l223 530h135l-316 -700h-150l-23 525h-5l-227 -525h-150zM589 915h75l106 -150h-95l-54 85h-5l-86 -85h-105z" />
    <glyph glyph-name="wcircumflex" unicode="&#x175;" horiz-adv-x="785" 
d="M103 530h115l27 -385h5l173 385h125l27 -385h5l173 385h125l-248 -530h-140l-31 365h-5l-169 -365h-140zM484 755h75l106 -150h-95l-54 85h-5l-86 -85h-105z" />
    <glyph glyph-name="Ycircumflex" unicode="&#x176;" horiz-adv-x="585" 
d="M263 250l-157 450h120l111 -325h5l239 325h140l-333 -450l-48 -250h-125zM399 915h75l106 -150h-95l-54 85h-5l-86 -85h-105z" />
    <glyph glyph-name="ycircumflex" unicode="&#x177;" horiz-adv-x="545" 
d="M200 0l-112 530h125l72 -375h5l218 375h130l-432 -730h-125zM349 755h75l106 -150h-95l-54 85h-5l-86 -85h-105z" />
    <glyph glyph-name="Ydieresis" unicode="&#x178;" horiz-adv-x="585" 
d="M263 250l-157 450h120l111 -325h5l239 325h140l-333 -450l-48 -250h-125zM319 775q-28 0 -43.5 17.5t-15.5 41.5q0 29 20 50t52 21q28 0 43.5 -17.5t15.5 -41.5q0 -29 -20 -50t-52 -21zM509 775q-28 0 -43.5 17.5t-15.5 41.5q0 29 20 50t52 21q28 0 43.5 -17.5
t15.5 -41.5q0 -29 -20 -50t-52 -21z" />
    <glyph glyph-name="Zacute" unicode="&#x179;" horiz-adv-x="590" 
d="M53 95l450 495h-344l22 110h505l-19 -95l-449 -495h358l-21 -110h-520zM498 910h115l-143 -145h-90z" />
    <glyph glyph-name="zacute" unicode="&#x17a;" horiz-adv-x="475" 
d="M47 90l323 335h-248l21 105h400l-18 -90l-323 -335h263l-20 -105h-415zM413 750h115l-143 -145h-90z" />
    <glyph glyph-name="Zdotaccent" unicode="&#x17b;" horiz-adv-x="590" 
d="M53 95l450 495h-344l22 110h505l-19 -95l-449 -495h358l-21 -110h-520zM434 775q-28 0 -43.5 17.5t-15.5 41.5q0 29 20 50t52 21q28 0 43.5 -17.5t15.5 -41.5q0 -29 -20 -50t-52 -21z" />
    <glyph glyph-name="zdotaccent" unicode="&#x17c;" horiz-adv-x="475" 
d="M47 90l323 335h-248l21 105h400l-18 -90l-323 -335h263l-20 -105h-415zM349 615q-28 0 -43.5 17.5t-15.5 41.5q0 29 20 50t52 21q28 0 43.5 -17.5t15.5 -41.5q0 -29 -20 -50t-52 -21z" />
    <glyph glyph-name="Zcaron" unicode="&#x17d;" horiz-adv-x="590" 
d="M53 95l450 495h-344l22 110h505l-19 -95l-449 -495h358l-21 -110h-520zM290 915h95l54 -85h5l86 85h105l-164 -150h-75z" />
    <glyph glyph-name="zcaron" unicode="&#x17e;" horiz-adv-x="475" 
d="M47 90l323 335h-248l21 105h400l-18 -90l-323 -335h263l-20 -105h-415zM205 750h95l54 -85h5l86 85h105l-164 -150h-75z" />
    <glyph glyph-name="uni018F" unicode="&#x18f;" horiz-adv-x="730" 
d="M400 -10q-64 0 -117.5 18.5t-92.5 55t-60.5 91t-21.5 125.5q0 20 2.5 50t8.5 60h515v20q0 94 -49.5 142t-132.5 48q-52 0 -97 -26t-69 -74h-131q19 47 48 86t68 66.5t86.5 42.5t102.5 15q70 0 125.5 -20t94 -57.5t59 -91.5t20.5 -121q0 -94 -26.5 -173t-74 -136
t-113.5 -89t-145 -32zM403 100q41 0 76 15t62.5 41t47 60.5t30.5 73.5h-390v-10q0 -39 10.5 -72t32 -57t54.5 -37.5t77 -13.5z" />
    <glyph glyph-name="florin" unicode="&#x192;" horiz-adv-x="430" 
d="M-15 -70h54q31 0 46.5 13.5t22.5 36.5l112 360h-97l36 110h96l42 135q19 64 58.5 94.5t114.5 30.5h90l-37 -110h-55q-29 0 -43.5 -13t-20.5 -32l-33 -105h113l-36 -110h-111l-122 -390q-11 -34 -25.5 -58.5t-35.5 -40.5t-49.5 -23.5t-66.5 -7.5h-89z" />
    <glyph glyph-name="Gacute" unicode="&#x1f4;" horiz-adv-x="720" 
d="M407 -10q-67 0 -122.5 18.5t-95 55t-61.5 91t-22 125.5q0 96 27 175t75 136t113.5 88t142.5 31q65 0 114.5 -15.5t85 -44t57 -68t30.5 -87.5h-128q-17 48 -55 76.5t-107 28.5q-45 0 -87 -21t-73.5 -61t-50.5 -97.5t-19 -130.5q0 -91 48.5 -140.5t130.5 -49.5
q39 0 71 12.5t56.5 34.5t42 52t27.5 66h-196l20 105h320l-15 -80q-12 -70 -41 -125.5t-72 -94.5t-97.5 -59.5t-118.5 -20.5zM563 910h115l-143 -145h-90z" />
    <glyph glyph-name="gacute" unicode="&#x1f5;" horiz-adv-x="600" 
d="M290 -200q-42 0 -82 8t-72.5 27.5t-55.5 52.5t-32 82h117q10 -32 43 -48.5t82 -16.5q54 0 87.5 24t42.5 72l17 89h-5q-22 -26 -59.5 -43t-82.5 -17t-82.5 14.5t-63.5 41t-40.5 64.5t-14.5 85q0 71 20 127.5t54.5 96t80.5 60.5t97 21q63 0 104.5 -22.5t63.5 -57.5h5l29 70
h95l-105 -537q-20 -100 -84.5 -146.5t-158.5 -46.5zM324 135q29 0 56.5 12t48.5 35t33.5 56t12.5 74q0 25 -8 47.5t-23 39.5t-37 26.5t-50 9.5q-29 0 -56.5 -12t-48.5 -35t-33.5 -56t-12.5 -74q0 -26 8 -48t23 -39t37 -26.5t50 -9.5zM473 750h115l-143 -145h-90z" />
    <glyph glyph-name="Aringacute" unicode="&#x1fa;" horiz-adv-x="655" 
d="M481 735q-42 0 -69 25t-27 70q0 52 32.5 83t80.5 32l34 55h95l-67 -73q17 -12 26.5 -31.5t9.5 -45.5q0 -53 -33.5 -84t-81.5 -31zM487 800q20 0 32 12t12 33q0 35 -37 35q-20 0 -32 -12t-12 -33q0 -35 37 -35zM396 700h155l119 -700h-125l-25 150h-297l-83 -150h-135z
M502 260l-49 300h-5l-165 -300h219z" />
    <glyph glyph-name="aringacute" unicode="&#x1fb;" horiz-adv-x="550" 
d="M391 575q-42 0 -69 25t-27 70q0 52 32 82.5t80 32.5l36 60h95l-67 -78q35 -25 35 -77q0 -53 -33.5 -84t-81.5 -31zM397 640q20 0 32 12t12 33q0 35 -37 35q-20 0 -32 -12t-12 -33q0 -35 37 -35zM233 -10q-32 0 -62.5 10t-53.5 29t-37 47t-14 65q0 36 14 68.5t40 57t64 39
t85 14.5h166l3 15q2 10 2 20q0 38 -25.5 61.5t-73.5 23.5q-39 0 -63 -18.5t-35 -41.5h-121q12 34 33.5 63t50.5 50.5t65 34t75 12.5q55 0 94.5 -13.5t65 -37.5t37.5 -57t12 -71q0 -11 -1.5 -23t-3.5 -18l-62 -320h-100l2 55h-5q-9 -11 -22 -22.5t-31.5 -21t-43 -15.5
t-55.5 -6zM274 90q56 0 90.5 28.5t44.5 74.5l8 37h-149q-45 0 -66 -21t-21 -52t23.5 -49t69.5 -18z" />
    <glyph glyph-name="AEacute" unicode="&#x1fc;" horiz-adv-x="950" 
d="M451 700h575l-22 -110h-335l-36 -185h315l-20 -105h-315l-37 -190h345l-21 -110h-470l28 148h-244l-104 -148h-140zM480 259l62 321h-35l-217 -321h190zM718 910h115l-143 -145h-90z" />
    <glyph glyph-name="aeacute" unicode="&#x1fd;" horiz-adv-x="907" 
d="M250 -10q-39 0 -73 10t-58.5 29t-38.5 47t-14 65q0 33 14 64.5t40 56t64 39t85 14.5h165l4 20q2 10 2 20q0 38 -25.5 61.5t-73.5 23.5q-39 0 -63 -18.5t-35 -41.5h-121q12 34 33.5 63t50.5 50.5t65 34t75 12.5q66 0 109.5 -26t61.5 -62q13 18 33.5 34t44 28t49 19t49.5 7
q59 0 102.5 -18t72 -49.5t42 -73.5t13.5 -89q0 -24 -4 -47.5t-9 -37.5h-375q0 -57 31 -94t93 -37q30 0 62 16t49 45h123q-14 -35 -36.5 -65t-53 -52t-69.5 -35t-86 -13q-63 0 -111.5 26t-74.5 75q-8 -11 -24 -28.5t-41.5 -33.5t-61.5 -27.5t-85 -11.5zM274 90
q56 0 90.5 28.5t44.5 74.5l7 32h-149q-44 0 -65 -21.5t-21 -46.5q0 -31 23.5 -49t69.5 -18zM807 315q-2 53 -32 86.5t-87 33.5q-23 0 -44.5 -8t-40.5 -23.5t-33 -38t-21 -50.5h258zM608 750h115l-143 -145h-90z" />
    <glyph glyph-name="Oslashacute" unicode="&#x1fe;" horiz-adv-x="740" 
d="M172 83q-66 75 -66 197q0 86 24.5 164t70.5 137t112.5 94t151.5 35q46 0 86 -8.5t73 -24.5l36 48h125l-82 -108q66 -75 66 -197q0 -86 -24.5 -164t-70.5 -137t-112.5 -94t-151.5 -35q-46 0 -86 8.5t-73 24.5l-36 -48h-125zM551 582q-38 18 -90 18q-47 0 -88.5 -21.5
t-73 -61.5t-50 -97.5t-18.5 -129.5q0 -59 21 -101zM414 100q47 0 88.5 21.5t73 61.5t50 97.5t18.5 129.5q0 59 -21 101l-299 -393q37 -18 90 -18zM563 910h115l-143 -145h-90z" />
    <glyph glyph-name="oslashacute" unicode="&#x1ff;" horiz-adv-x="580" 
d="M128 74q-41 56 -41 141q0 73 21.5 133t59 102.5t88 66t108.5 23.5q35 0 66 -7t57 -20l30 37h115l-77 -95q41 -55 41 -140q0 -73 -21.5 -133t-59 -102.5t-88 -66t-108.5 -23.5q-36 0 -66.5 7t-56.5 20l-30 -37h-115zM414 424q-25 11 -54 11t-57.5 -13t-50.5 -39
t-35.5 -65.5t-13.5 -92.5q0 -29 7 -50zM323 95q29 0 57.5 13t50.5 39t35.5 65.5t13.5 92.5q0 26 -8 50l-203 -249q22 -11 54 -11zM463 750h115l-143 -145h-90z" />
    <glyph glyph-name="Scommaaccent" unicode="&#x218;" horiz-adv-x="615" 
d="M348 -10q-56 0 -104.5 12t-85 37.5t-60 65t-28.5 95.5h124q8 -48 49 -74.5t108 -26.5q66 0 99.5 28.5t33.5 73.5q0 34 -25 53t-62 32t-81 25.5t-81 34.5t-62 58t-25 96q0 50 18 89t51 66t79 41t101 14q63 0 110.5 -14t79.5 -39.5t49.5 -60.5t20.5 -76h-125
q-9 35 -43 57.5t-95 22.5q-60 0 -90 -27.5t-30 -66.5q0 -36 25.5 -55.5t63.5 -33.5t82.5 -27t82 -35t62.5 -58.5t25 -96.5q0 -42 -18 -80t-52 -67t-83.5 -46t-113.5 -17zM266 -85h105l-107 -165h-74z" />
    <glyph glyph-name="scommaaccent" unicode="&#x219;" horiz-adv-x="500" 
d="M283 -10q-42 0 -80.5 9t-69.5 28.5t-52 51t-27 76.5h123q7 -28 35 -44t79 -16q48 0 66 16t18 38q0 23 -19.5 36t-48.5 22t-63.5 18.5t-63.5 26t-48.5 44t-19.5 73.5q0 35 13 66t38.5 54.5t63 37t85.5 13.5q52 0 91 -12t65.5 -33t41 -49.5t19.5 -60.5h-125q-6 18 -28.5 34
t-72.5 16q-35 0 -53 -14t-18 -37t19.5 -36t48.5 -22.5t63.5 -19t63.5 -26t48.5 -44t19.5 -72.5q0 -36 -13 -68t-39.5 -55.5t-66 -37t-93.5 -13.5zM211 -85h105l-107 -165h-74z" />
    <glyph glyph-name="uni021A" unicode="&#x21a;" horiz-adv-x="585" 
d="M334 590h-215l22 110h555l-22 -110h-215l-114 -590h-125zM211 -85h105l-107 -165h-74z" />
    <glyph glyph-name="uni021B" unicode="&#x21b;" horiz-adv-x="385" 
d="M257 0q-30 0 -54 10t-40.5 27.5t-25.5 41t-9 50.5q0 15 1 21.5t2 11.5l51 263h-85l21 105h85l42 140h100l-27 -140h130l-21 -105h-130l-49 -260q-1 -2 -1 -5v-8q0 -14 10.5 -30.5t35.5 -16.5h72l-20 -105h-88v0zM156 -85h105l-107 -165h-74z" />
    <glyph glyph-name="uni0232" unicode="&#x232;" horiz-adv-x="585" 
d="M263 250l-157 450h120l111 -325h5l239 325h140l-333 -450l-48 -250h-125zM281 880h295l-16 -85h-295z" />
    <glyph glyph-name="uni0233" unicode="&#x233;" horiz-adv-x="545" 
d="M200 0l-112 530h125l72 -375h5l218 375h130l-432 -730h-125zM236 715h295l-16 -85h-295z" />
    <glyph glyph-name="uni0244" unicode="&#x244;" horiz-adv-x="730" 
d="M401 -10q-58 0 -107 17t-84.5 49.5t-55.5 80.5t-20 110q0 34 3 49.5t5 27.5l20 101h-70l20 100h69l35 175h125l-35 -175h321l34 175h125l-34 -175h70l-20 -100h-69l-29 -156q-13 -68 -40.5 -120t-66.5 -87.5t-89 -53.5t-107 -18zM403 100q64 0 112.5 46t65.5 135l27 144
h-321l-22 -113q-2 -11 -4 -22.5t-2 -31.5q0 -75 39 -116.5t105 -41.5z" />
    <glyph glyph-name="uni0259" unicode="&#x259;" horiz-adv-x="580" 
d="M319 -10q-61 0 -104.5 18t-72 49.5t-42 73.5t-13.5 89q0 24 3.5 45t8.5 35h381q2 59 -30.5 97.5t-95.5 38.5q-31 0 -64 -16t-50 -45h-123q14 34 37 64.5t54 52.5t70.5 35t87.5 13q51 0 93.5 -15t73 -44t47 -72t16.5 -99q0 -73 -22.5 -132t-60.5 -101t-88 -64.5
t-106 -22.5zM324 95q46 0 84.5 30.5t56.5 84.5h-262q1 -23 9.5 -44t23.5 -37t37 -25t51 -9z" />
    <glyph glyph-name="uni0289" unicode="&#x289;" horiz-adv-x="625" 
d="M297 -10q-41 0 -73 13t-54.5 37t-34.5 57.5t-12 73.5q0 19 1.5 30.5t3.5 19.5l25 129h-65l18 95h65l17 85h115l-17 -85h225l17 85h115l-17 -85h65l-18 -95h-65l-68 -350h-95l-2 60h-5q-26 -32 -63.5 -51t-77.5 -19zM340 95q48 0 82 30.5t43 77.5l28 147h-225l-25 -130
q-1 -5 -2 -12t-1 -16q0 -48 26.5 -72.5t73.5 -24.5z" />
    <glyph glyph-name="uni02BC" unicode="&#x2bc;" horiz-adv-x="205" 
d="M211 700h100l-103 -165h-75z" />
    <glyph glyph-name="circumflex" unicode="&#x2c6;" horiz-adv-x="405" 
d="M311 755h75l106 -150h-95l-54 85h-5l-86 -85h-105z" />
    <glyph glyph-name="caron" unicode="&#x2c7;" horiz-adv-x="405" 
d="M175 750h95l54 -85h5l86 85h105l-164 -150h-75z" />
    <glyph glyph-name="breve" unicode="&#x2d8;" horiz-adv-x="390" 
d="M329 605q-32 0 -60 8.5t-49 26.5t-33 45t-12 65h90q1 -34 20 -49.5t49 -15.5t52 15.5t29 49.5h90q-15 -75 -63.5 -110t-112.5 -35z" />
    <glyph glyph-name="dotaccent" unicode="&#x2d9;" horiz-adv-x="190" 
d="M221 615q-28 0 -43.5 17.5t-15.5 41.5q0 29 20 50t52 21q28 0 43.5 -17.5t15.5 -41.5q0 -29 -20 -50t-52 -21z" />
    <glyph glyph-name="ring" unicode="&#x2da;" horiz-adv-x="270" 
d="M259 585q-42 0 -69 24t-27 69q0 53 33.5 85t82.5 32q42 0 68.5 -24t26.5 -69q0 -26 -9 -47.5t-24.5 -37t-36.5 -24t-45 -8.5zM265 650q20 0 32 12t12 33q0 17 -10 26t-27 9q-20 0 -32 -12t-12 -33q0 -17 10.5 -26t26.5 -9z" />
    <glyph glyph-name="ogonek" unicode="&#x2db;" horiz-adv-x="225" 
d="M115 -205q-55 0 -81 27t-26 64q0 28 9 47.5t23.5 32.5t31.5 21t33 13l1 10h80l-1 -10q-40 -18 -64.5 -40.5t-24.5 -55.5q0 -15 11 -24.5t37 -9.5h25l-14 -75h-40v0z" />
    <glyph glyph-name="tilde" unicode="&#x2dc;" horiz-adv-x="385" 
d="M390 615q-21 0 -37.5 7t-30 15.5t-25.5 15.5t-23 7q-15 0 -26 -10.5t-13 -29.5h-85q3 28 13 50.5t25 38t34 23.5t40 8t37 -7t29.5 -15.5t25.5 -15.5t23 -7q31 0 34 40h85q-5 -57 -34.5 -88.5t-71.5 -31.5z" />
    <glyph glyph-name="hungarumlaut" unicode="&#x2dd;" horiz-adv-x="435" 
d="M265 750h115l-143 -145h-90zM435 750h115l-143 -145h-90z" />
    <glyph glyph-name="acutecomb" unicode="&#x301;" horiz-adv-x="0" 
d="M-148 910h115l-143 -145h-90z" />
    <glyph glyph-name="uni0302" unicode="&#x302;" horiz-adv-x="0" 
d="M-227 915h75l106 -150h-95l-54 85h-5l-86 -85h-105z" />
    <glyph glyph-name="uni0304" unicode="&#x304;" horiz-adv-x="0" 
d="M-344 880h295l-16 -85h-295z" />
    <glyph glyph-name="uni0306" unicode="&#x306;" horiz-adv-x="0" 
d="M-208 770q-32 0 -60 8.5t-49 26.5t-33 45t-12 65h90q1 -34 20 -49.5t49 -15.5t52 15.5t29 49.5h90q-15 -75 -63.5 -110t-112.5 -35z" />
    <glyph glyph-name="uni0307" unicode="&#x307;" horiz-adv-x="0" 
d="M-209 780q-28 0 -43.5 17.5t-15.5 41.5q0 29 20 50t52 21q28 0 43.5 -17.5t15.5 -41.5q0 -29 -20 -50t-52 -21z" />
    <glyph glyph-name="uni0308" unicode="&#x308;" horiz-adv-x="0" 
d="M-311 780q-28 0 -43.5 17.5t-15.5 41.5q0 29 20 50t52 21q28 0 43.5 -17.5t15.5 -41.5q0 -29 -20 -50t-52 -21zM-121 780q-28 0 -43.5 17.5t-15.5 41.5q0 29 20 50t52 21q28 0 43.5 -17.5t15.5 -41.5q0 -29 -20 -50t-52 -21z" />
    <glyph glyph-name="uni030A" unicode="&#x30a;" horiz-adv-x="0" 
d="M-211 750q-42 0 -69 24t-27 69q0 53 33.5 85t82.5 32q42 0 68.5 -24t26.5 -69q0 -26 -9 -47.5t-24.5 -37t-36.5 -24t-45 -8.5zM-205 815q20 0 32 12t12 33q0 17 -10 26t-27 9q-20 0 -32 -12t-12 -33q0 -17 10.5 -26t26.5 -9z" />
    <glyph glyph-name="uni030C" unicode="&#x30c;" horiz-adv-x="0" 
d="M-363 910h95l54 -85h5l86 85h105l-164 -150h-75z" />
    <glyph glyph-name="uni0326" unicode="&#x326;" horiz-adv-x="210" 
d="M58 -85h105l-107 -165h-74z" />
    <glyph glyph-name="uni0400" unicode="&#x400;" horiz-adv-x="595" 
d="M211 700h460l-22 -110h-335l-36 -185h315l-20 -105h-315l-37 -190h345l-21 -110h-470zM325 910h115l62 -145h-90z" />
    <glyph glyph-name="uni0401" unicode="&#x401;" horiz-adv-x="595" 
d="M211 700h460l-22 -110h-335l-36 -185h315l-20 -105h-315l-37 -190h345l-21 -110h-470zM354 775q-28 0 -43.5 17.5t-15.5 41.5q0 29 20 50t52 21q28 0 43.5 -17.5t15.5 -41.5q0 -29 -20 -50t-52 -21zM544 775q-28 0 -43.5 17.5t-15.5 41.5q0 29 20 50t52 21
q28 0 43.5 -17.5t15.5 -41.5q0 -29 -20 -50t-52 -21z" />
    <glyph glyph-name="uni0402" unicode="&#x402;" horiz-adv-x="705" 
d="M279 590h-175l22 110h470l-22 -110h-170l-30 -154q21 7 48 10.5t54 3.5q113 0 176.5 -54t63.5 -145q0 -56 -18 -102t-51 -79t-79.5 -51.5t-103.5 -18.5h-94l21 110h66q60 0 97 35t37 98q0 53 -38 75t-103 22q-32 0 -56.5 -4.5t-40.5 -9.5l-63 -326h-125z" />
    <glyph glyph-name="uni0403" unicode="&#x403;" horiz-adv-x="525" 
d="M211 700h420l-22 -110h-295l-114 -590h-125zM498 910h115l-143 -145h-90z" />
    <glyph glyph-name="uni0404" unicode="&#x404;" horiz-adv-x="705" 
d="M407 -10q-67 0 -122.5 18.5t-95 55t-61.5 91t-22 125.5q0 96 27 175t75 136t113.5 88t142.5 31q65 0 114.5 -15.5t85 -44t57 -68t30.5 -87.5h-128q-17 48 -55 76.5t-107 28.5q-36 0 -70 -13.5t-62.5 -39t-50.5 -62.5t-34 -85h263l-19 -100h-257v-10q0 -91 48.5 -140.5
t130.5 -49.5q60 0 100 26.5t71 78.5h132q-20 -45 -49.5 -84.5t-68 -68.5t-86 -45.5t-102.5 -16.5z" />
    <glyph glyph-name="uni0405" unicode="&#x405;" horiz-adv-x="615" 
d="M348 -10q-56 0 -104.5 12t-85 37.5t-60 65t-28.5 95.5h124q8 -48 49 -74.5t108 -26.5q66 0 99.5 28.5t33.5 73.5q0 34 -25 53t-62 32t-81 25.5t-81 34.5t-62 58t-25 96q0 50 18 89t51 66t79 41t101 14q63 0 110.5 -14t79.5 -39.5t49.5 -60.5t20.5 -76h-125
q-9 35 -43 57.5t-95 22.5q-60 0 -90 -27.5t-30 -66.5q0 -36 25.5 -55.5t63.5 -33.5t82.5 -27t82 -35t62.5 -58.5t25 -96.5q0 -42 -18 -80t-52 -67t-83.5 -46t-113.5 -17z" />
    <glyph glyph-name="uni0406" unicode="&#x406;" horiz-adv-x="275" 
d="M211 700h125l-136 -700h-125z" />
    <glyph glyph-name="uni0407" unicode="&#x407;" horiz-adv-x="275" 
d="M211 700h125l-136 -700h-125zM194 775q-28 0 -43.5 17.5t-15.5 41.5q0 29 20 50t52 21q28 0 43.5 -17.5t15.5 -41.5q0 -29 -20 -50t-52 -21zM384 775q-28 0 -43.5 17.5t-15.5 41.5q0 29 20 50t52 21q28 0 43.5 -17.5t15.5 -41.5q0 -29 -20 -50t-52 -21z" />
    <glyph glyph-name="uni0408" unicode="&#x408;" horiz-adv-x="565" 
d="M283 -10q-103 0 -161.5 54.5t-60.5 160.5h124q1 -51 29 -78t72 -27t77 31.5t46 98.5l92 470h125l-94 -482q-22 -111 -87.5 -169.5t-161.5 -58.5z" />
    <glyph glyph-name="uni0409" unicode="&#x409;" 
d="M31 113h24q26 0 47 13.5t39 47t34.5 90t33.5 142.5l57 294h460l-49 -250h133q51 0 90 -17t65.5 -45t40.5 -65t14 -77q0 -54 -19 -99t-53 -77.5t-80.5 -51t-101.5 -18.5h-301l114 590h-210l-39 -207q-19 -100 -41.5 -174t-55 -122.5t-76.5 -72.5t-105 -24h-44zM762 110
q29 0 53.5 9.5t42 26.5t27.5 40t10 50q0 20 -7.5 38.5t-21 33t-33 23.5t-43.5 9h-134l-45 -230h151z" />
    <glyph glyph-name="uni040A" unicode="&#x40a;" horiz-adv-x="1025" 
d="M211 700h125l-53 -270h295l53 270h125l-53 -270h142q45 0 82 -13.5t63 -38.5t40.5 -60t14.5 -78q0 -54 -17.5 -98t-49 -75.5t-75 -49t-95.5 -17.5h-313l62 320h-295l-62 -320h-125zM807 110q49 0 81 32.5t32 87.5q0 38 -23 64t-65 26h-150l-41 -210h166z" />
    <glyph glyph-name="uni040B" unicode="&#x40b;" horiz-adv-x="710" 
d="M279 590h-175l22 110h470l-22 -110h-170l-30 -154q22 6 49.5 10t55.5 4q109 0 165 -51.5t56 -145.5q0 -21 -3 -35.5t-6 -30.5l-36 -187h-125l39 199q2 7 3.5 16t1.5 27q0 55 -31.5 76.5t-91.5 21.5q-32 0 -57 -4.5t-41 -9.5l-63 -326h-125z" />
    <glyph glyph-name="uni040C" unicode="&#x40c;" horiz-adv-x="600" 
d="M211 700h125l-63 -320l338 320h152l-369 -352l236 -348h-140l-226 330l-64 -330h-125zM543 910h115l-143 -145h-90z" />
    <glyph glyph-name="uni040D" unicode="&#x40d;" horiz-adv-x="745" 
d="M211 700h125l-99 -512h5l399 512h165l-136 -700h-125l99 512h-5l-399 -512h-165zM380 910h115l62 -145h-90z" />
    <glyph glyph-name="uni040E" unicode="&#x40e;" horiz-adv-x="580" 
d="M245 193l-134 507h127l95 -360h5l230 360h138l-446 -700h-138zM419 765q-32 0 -60 8.5t-49 26.5t-33 45t-12 65h90q1 -34 20 -49.5t49 -15.5t52 15.5t29 49.5h90q-15 -75 -63.5 -110t-112.5 -35z" />
    <glyph glyph-name="uni040F" unicode="&#x40f;" horiz-adv-x="705" 
d="M295 0h-220l136 700h125l-115 -590h305l115 590h125l-136 -700h-220l-29 -145h-115z" />
    <glyph glyph-name="uni0410" unicode="&#x410;" horiz-adv-x="655" 
d="M396 700h155l119 -700h-125l-25 150h-297l-83 -150h-135zM502 260l-49 300h-5l-165 -300h219z" />
    <glyph glyph-name="uni0411" unicode="&#x411;" horiz-adv-x="635" 
d="M211 700h470l-22 -110h-345l-29 -150h150q45 0 82.5 -14.5t64.5 -40t42 -61.5t15 -79q0 -54 -19 -99t-52 -77.5t-77.5 -50.5t-95.5 -18h-320zM391 110q59 0 91 34t32 86q0 43 -27.5 71.5t-76.5 28.5h-146l-43 -220h170z" />
    <glyph glyph-name="uni0412" unicode="&#x412;" horiz-adv-x="660" 
d="M211 700h318q43 0 76 -13.5t55.5 -36.5t33.5 -54t11 -67q0 -35 -9.5 -64.5t-26 -53t-39 -40.5t-47.5 -26q31 -20 51.5 -54t20.5 -81q0 -48 -16 -86.5t-44.5 -66t-68.5 -42.5t-88 -15h-363zM428 110q47 0 74.5 28.5t27.5 79.5q0 34 -20.5 58t-60.5 24h-191l-37 -190h207z
M470 400q47 0 76 28t29 79q0 35 -20.5 59t-59.5 24h-181l-37 -190h193z" />
    <glyph glyph-name="uni0413" unicode="&#x413;" horiz-adv-x="525" 
d="M211 700h420l-22 -110h-295l-114 -590h-125z" />
    <glyph glyph-name="uni0414" unicode="&#x414;" horiz-adv-x="710" 
d="M26 110h60q49 60 75.5 137.5t46.5 182.5l53 270h475l-115 -590h85l-50 -255h-115l29 145h-450l-29 -145h-114zM496 110l93 480h-225l-31 -160q-21 -109 -49 -186t-73 -134h285z" />
    <glyph glyph-name="uni0415" unicode="&#x415;" horiz-adv-x="595" 
d="M211 700h460l-22 -110h-335l-36 -185h315l-20 -105h-315l-37 -190h345l-21 -110h-470z" />
    <glyph glyph-name="uni0416" unicode="&#x416;" horiz-adv-x="860" 
d="M314 369l-186 331h133l177 -320l63 320h125l-63 -320l303 320h146l-333 -352l202 -348h-136l-191 330l-64 -330h-125l64 330l-319 -330h-153z" />
    <glyph glyph-name="uni0417" unicode="&#x417;" horiz-adv-x="615" 
d="M346 -10q-55 0 -105 11.5t-88 37t-60.5 65.5t-22.5 96h126q2 -27 15.5 -46t34.5 -31t48 -17.5t56 -5.5q67 0 100.5 28.5t33.5 76.5q0 38 -30.5 66.5t-93.5 28.5h-67l20 105h93q65 0 95 28.5t30 70.5q0 41 -34.5 69t-100.5 28q-50 0 -86 -26.5t-50 -74.5h-126q12 47 34 86
t55 66.5t76.5 43t97.5 15.5q67 0 116 -15t81.5 -41t48.5 -60.5t16 -73.5q0 -37 -11 -66.5t-30 -52t-44 -37t-52 -20.5q85 -44 85 -144q0 -42 -16.5 -80t-49.5 -67t-82 -46.5t-113 -17.5z" />
    <glyph glyph-name="uni0418" unicode="&#x418;" horiz-adv-x="745" 
d="M211 700h125l-99 -512h5l399 512h165l-136 -700h-125l99 512h-5l-399 -512h-165z" />
    <glyph glyph-name="uni0419" unicode="&#x419;" horiz-adv-x="745" 
d="M211 700h125l-99 -512h5l399 512h165l-136 -700h-125l99 512h-5l-399 -512h-165zM519 765q-32 0 -60 8.5t-49 26.5t-33 45t-12 65h90q1 -34 20 -49.5t49 -15.5t52 15.5t29 49.5h90q-15 -75 -63.5 -110t-112.5 -35z" />
    <glyph glyph-name="uni041A" unicode="&#x41a;" horiz-adv-x="600" 
d="M211 700h125l-63 -320l338 320h152l-369 -352l236 -348h-140l-226 330l-64 -330h-125z" />
    <glyph glyph-name="uni041B" unicode="&#x41b;" horiz-adv-x="685" 
d="M31 113h24q26 0 47 13.5t39 47t34.5 90t33.5 142.5l57 294h480l-136 -700h-125l114 590h-230l-39 -207q-19 -100 -41.5 -174t-55 -122.5t-76.5 -72.5t-105 -24h-44z" />
    <glyph glyph-name="uni041C" unicode="&#x41c;" horiz-adv-x="895" 
d="M211 700h180l83 -520h5l287 520h190l-136 -700h-125l103 535h-5l-293 -535h-105l-87 535h-5l-103 -535h-125z" />
    <glyph glyph-name="uni041D" unicode="&#x41d;" horiz-adv-x="715" 
d="M211 700h125l-57 -290h315l57 290h125l-136 -700h-125l58 300h-315l-58 -300h-125z" />
    <glyph glyph-name="uni041E" unicode="&#x41e;" horiz-adv-x="740" 
d="M410 -10q-72 0 -128.5 20t-95.5 57.5t-59.5 91t-20.5 121.5q0 86 24.5 164t70.5 137t112.5 94t151.5 35q72 0 128.5 -20t95.5 -57.5t59.5 -91.5t20.5 -121q0 -86 -24.5 -164t-70.5 -137t-112.5 -94t-151.5 -35zM414 100q47 0 88.5 21.5t73 61.5t50 97.5t18.5 129.5
q0 91 -47.5 140.5t-135.5 49.5q-47 0 -88.5 -21.5t-73 -61.5t-50 -97.5t-18.5 -129.5q0 -91 47.5 -140.5t135.5 -49.5z" />
    <glyph glyph-name="uni041F" unicode="&#x41f;" horiz-adv-x="705" 
d="M211 700h555l-136 -700h-125l114 590h-305l-114 -590h-125z" />
    <glyph glyph-name="uni0420" unicode="&#x420;" horiz-adv-x="645" 
d="M211 700h278q45 0 82 -17t63 -45.5t40 -66t14 -79.5q0 -56 -20 -102.5t-55 -79.5t-82 -51.5t-100 -18.5h-185l-46 -240h-125zM433 350q60 0 95.5 37t35.5 100q0 44 -27 73.5t-78 29.5h-145l-46 -240h165z" />
    <glyph glyph-name="uni0421" unicode="&#x421;" horiz-adv-x="705" 
d="M407 -10q-67 0 -122.5 18.5t-95 55t-61.5 91t-22 125.5q0 96 27 175t75 136t113.5 88t142.5 31q65 0 114.5 -15.5t85 -44t57 -68t30.5 -87.5h-128q-17 48 -55 76.5t-107 28.5q-45 0 -87 -21t-73.5 -61t-50.5 -97.5t-19 -130.5q0 -91 48.5 -140.5t130.5 -49.5
q60 0 100 26.5t71 78.5h132q-20 -45 -49.5 -84.5t-68 -68.5t-86 -45.5t-102.5 -16.5z" />
    <glyph glyph-name="uni0422" unicode="&#x422;" horiz-adv-x="585" 
d="M334 590h-215l22 110h555l-22 -110h-215l-114 -590h-125z" />
    <glyph glyph-name="uni0423" unicode="&#x423;" horiz-adv-x="580" 
d="M245 193l-134 507h127l95 -360h5l230 360h138l-446 -700h-138z" />
    <glyph glyph-name="uni0424" unicode="&#x424;" horiz-adv-x="835" 
d="M368 70q-65 6 -114 28t-83 56t-51 78.5t-17 96.5q0 67 24.5 124.5t69 98.5t106.5 64.5t137 23.5h39l14 70h125l-14 -70q64 -6 113.5 -28t83.5 -56t51 -78.5t17 -96.5q0 -68 -24.5 -125t-69 -98t-106.5 -64.5t-137 -23.5h-39l-15 -80h-125zM458 530h-28q-51 0 -88.5 -15.5
t-63 -42.5t-38 -62.5t-12.5 -75.5q0 -63 39 -104.5t122 -49.5zM542 180q51 0 88.5 15.5t63 42.5t38 62.5t12.5 75.5q0 63 -39 104.5t-122 49.5l-69 -350h28z" />
    <glyph glyph-name="uni0425" unicode="&#x425;" horiz-adv-x="600" 
d="M289 360l-158 340h131l115 -255l215 255h149l-292 -340l166 -360h-131l-122 275l-228 -275h-149z" />
    <glyph glyph-name="uni0426" unicode="&#x426;" horiz-adv-x="740" 
d="M600 0h-525l136 700h125l-115 -590h305l115 590h125l-115 -590h85l-50 -255h-115z" />
    <glyph glyph-name="uni0427" unicode="&#x427;" horiz-adv-x="670" 
d="M515 235q-14 -6 -32 -10q-16 -4 -38 -7t-50 -3q-125 0 -188.5 56.5t-63.5 154.5q0 20 1.5 34t4.5 28l42 212h125l-42 -215q-1 -5 -2.5 -13.5t-1.5 -25.5q0 -63 41 -92t116 -29q35 0 61.5 5.5t48.5 12.5l69 357h125l-136 -700h-125z" />
    <glyph glyph-name="uni0428" unicode="&#x428;" horiz-adv-x="965" 
d="M211 700h125l-115 -590h220l115 590h125l-115 -590h220l115 590h125l-136 -700h-815z" />
    <glyph glyph-name="uni0429" unicode="&#x429;" 
d="M860 0h-785l136 700h125l-115 -590h220l115 590h125l-115 -590h220l115 590h125l-115 -590h85l-50 -255h-115z" />
    <glyph glyph-name="uni042A" unicode="&#x42a;" horiz-adv-x="705" 
d="M274 590h-160l22 110h285l-49 -250h143q47 0 85.5 -15.5t66.5 -42.5t43 -64.5t15 -81.5q0 -54 -19 -99t-53 -77.5t-80.5 -51t-101.5 -18.5h-311zM467 110q29 0 53.5 9.5t42 26.5t27.5 40t10 50q0 20 -7.5 38.5t-21 33t-33 23.5t-43.5 9h-144l-45 -230h161z" />
    <glyph glyph-name="uni042B" unicode="&#x42b;" horiz-adv-x="860" 
d="M211 700h125l-49 -250h133q47 0 85.5 -15.5t66.5 -42.5t43 -64.5t15 -81.5q0 -54 -19 -99t-53 -77.5t-80.5 -51t-101.5 -18.5h-301zM372 110q29 0 53.5 9.5t42 26.5t27.5 40t10 50q0 20 -7.5 38.5t-21 33t-33 23.5t-43.5 9h-134l-45 -230h151zM796 700h125l-136 -700
h-125z" />
    <glyph glyph-name="uni042C" unicode="&#x42c;" horiz-adv-x="620" 
d="M211 700h125l-49 -250h143q47 0 85.5 -15.5t66.5 -42.5t43 -64.5t15 -81.5q0 -54 -19 -99t-53 -77.5t-80.5 -51t-101.5 -18.5h-311zM382 110q29 0 53.5 9.5t42 26.5t27.5 40t10 50q0 20 -7.5 38.5t-21 33t-33 23.5t-43.5 9h-144l-45 -230h161z" />
    <glyph glyph-name="uni042D" unicode="&#x42d;" horiz-adv-x="700" 
d="M371 -10q-65 0 -115 15.5t-85 44t-56.5 68t-30.5 87.5h128q17 -48 55 -76.5t107 -28.5q36 0 70 13t62.5 38.5t50.5 63t34 85.5h-263l19 100h257v10q0 91 -48.5 140.5t-130.5 49.5q-60 0 -100 -26.5t-71 -78.5h-132q19 45 49 84.5t68.5 68.5t86 45.5t102.5 16.5
q67 0 122 -18.5t95 -55t62 -91t22 -125.5q0 -96 -27.5 -175t-75.5 -136t-113.5 -88t-141.5 -31z" />
    <glyph glyph-name="uni042E" unicode="&#x42e;" horiz-adv-x="965" 
d="M645 -10q-63 0 -115 20t-89 58t-57 92.5t-20 124.5v10h-107l-57 -295h-125l136 700h125l-58 -295h97q15 74 47.5 131t77.5 95.5t99.5 58.5t114.5 20q63 0 115 -20t89 -58t57 -92.5t20 -124.5q0 -102 -28 -181.5t-76 -133.5t-111.5 -82t-134.5 -28zM651 100q42 0 81 19
t70 57.5t49.5 96.5t18.5 135q0 96 -45 144t-117 48q-42 0 -81 -19t-70 -57.5t-49.5 -96.5t-18.5 -135q0 -96 45 -144t117 -48z" />
    <glyph glyph-name="uni042F" unicode="&#x42f;" horiz-adv-x="645" 
d="M280 270q-13 3 -36.5 14.5t-46 33.5t-39.5 56.5t-17 82.5q0 54 19 98.5t52 77t79 50t100 17.5h315l-136 -700h-125l50 260h-72l-240 -260h-153zM516 370l43 220h-173q-52 0 -86 -32.5t-34 -92.5q0 -42 27.5 -68.5t76.5 -26.5h146z" />
    <glyph glyph-name="uni0430" unicode="&#x430;" horiz-adv-x="550" 
d="M233 -10q-32 0 -62.5 10t-53.5 29t-37 47t-14 65q0 36 14 68.5t40 57t64 39t85 14.5h166l3 15q2 10 2 20q0 38 -25.5 61.5t-73.5 23.5q-39 0 -63 -18.5t-35 -41.5h-121q12 34 33.5 63t50.5 50.5t65 34t75 12.5q55 0 94.5 -13.5t65 -37.5t37.5 -57t12 -71q0 -11 -1.5 -23
t-3.5 -18l-62 -320h-100l2 55h-5q-9 -11 -22 -22.5t-31.5 -21t-43 -15.5t-55.5 -6zM274 90q56 0 90.5 28.5t44.5 74.5l8 37h-149q-45 0 -66 -21t-21 -52t23.5 -49t69.5 -18z" />
    <glyph glyph-name="uni0431" unicode="&#x431;" horiz-adv-x="585" 
d="M326 -10q-109 0 -171 57.5t-62 177.5q0 19 3.5 46t8.5 49q40 194 118 287.5t198 93.5q74 0 125.5 7.5t98.5 24.5l-21 -110q-23 -8 -43.5 -13t-43 -8.5t-49.5 -5t-61 -1.5q-74 0 -119.5 -40.5t-69.5 -111.5h5q24 23 57.5 37.5t79.5 14.5q96 0 155 -55t59 -160
q0 -66 -20.5 -119.5t-56.5 -91.5t-85 -58.5t-106 -20.5zM324 95q34 0 62.5 13.5t49 36.5t32 55t11.5 70q0 57 -30.5 91t-90.5 34q-34 0 -62.5 -13.5t-49 -36.5t-32 -55.5t-11.5 -69.5q0 -57 30.5 -91t90.5 -34z" />
    <glyph glyph-name="uni0432" unicode="&#x432;" horiz-adv-x="530" 
d="M168 530h252q30 0 55.5 -9.5t43.5 -26.5t28.5 -39.5t10.5 -49.5q0 -30 -7.5 -52t-20.5 -39t-29.5 -28.5t-35.5 -20.5q26 -14 44 -40t18 -60q0 -79 -48 -122t-129 -43h-285zM340 100q34 0 53 17.5t19 47.5q0 55 -67 55h-123l-23 -120h141zM380 320q30 0 46.5 17t16.5 43
q0 23 -16.5 36.5t-46.5 13.5h-117l-21 -110h138z" />
    <glyph glyph-name="uni0433" unicode="&#x433;" horiz-adv-x="435" 
d="M168 530h345l-21 -105h-230l-82 -425h-115z" />
    <glyph glyph-name="uni0434" unicode="&#x434;" horiz-adv-x="580" 
d="M25 105h51q15 19 27 39.5t22.5 45t19 55.5t16.5 70l42 215h395l-83 -425h65l-44 -225h-110l24 120h-335l-24 -120h-109zM400 105l62 320h-165l-21 -110q-16 -79 -38 -127.5t-48 -82.5h210z" />
    <glyph glyph-name="uni0435" unicode="&#x435;" horiz-adv-x="580" 
d="M317 -10q-51 0 -93.5 15t-73 44t-47 72t-16.5 99q0 73 22.5 132t60.5 101t88 64.5t106 22.5q61 0 104.5 -18t72 -49.5t42 -73.5t13.5 -89q0 -24 -3.5 -45t-8.5 -35h-381q-2 -59 30.5 -97.5t95.5 -38.5q31 0 64 16t50 45h123q-14 -35 -37 -65t-54 -52t-70.5 -35t-87.5 -13
zM480 320q-2 23 -10 44t-23 36.5t-37 25t-51 9.5q-46 0 -84.5 -30.5t-56.5 -84.5h262z" />
    <glyph glyph-name="uni0436" unicode="&#x436;" horiz-adv-x="745" 
d="M243 282l-148 248h133l139 -235l46 235h115l-46 -235l231 235h150l-267 -270l163 -260h-134l-153 245l-47 -245h-115l47 245l-247 -245h-152z" />
    <glyph glyph-name="uni0437" unicode="&#x437;" horiz-adv-x="505" 
d="M284 -10q-41 0 -80 8t-70 27t-51.5 51t-24.5 79h120q5 -29 32.5 -44.5t73.5 -15.5q49 0 72.5 17t23.5 45q0 21 -19.5 39.5t-65.5 18.5h-54l20 100h70q33 0 57 13.5t24 48.5q0 10 -4.5 20.5t-15 19t-28.5 13.5t-46 5q-34 0 -57.5 -15t-33.5 -45h-121q9 37 27 67t45.5 52
t65 34t86.5 12q51 0 89 -12.5t64 -33.5t39 -48.5t13 -57.5q0 -29 -9.5 -50.5t-24.5 -37t-34 -25.5t-38 -15q31 -19 49.5 -46t18.5 -69q0 -32 -13.5 -60t-40.5 -49t-67 -33.5t-92 -12.5z" />
    <glyph glyph-name="uni0438" unicode="&#x438;" horiz-adv-x="600" 
d="M168 530h115l-69 -354h5l284 354h135l-103 -530h-115l68 354h-5l-283 -354h-135z" />
    <glyph glyph-name="uni0439" unicode="&#x439;" horiz-adv-x="600" 
d="M168 530h115l-69 -354h5l284 354h135l-103 -530h-115l68 354h-5l-283 -354h-135zM414 605q-30 0 -56.5 8t-46 25t-30.5 45t-11 67h90q1 -34 17 -49.5t42 -15.5t45 15.5t26 49.5h90q-15 -79 -60.5 -112t-105.5 -33z" />
    <glyph glyph-name="uni043A" unicode="&#x43a;" horiz-adv-x="520" 
d="M168 530h115l-47 -240l262 240h149l-295 -268l192 -262h-134l-182 250l-48 -250h-115z" />
    <glyph glyph-name="uni043B" unicode="&#x43b;" horiz-adv-x="565" 
d="M30 105h25q20 0 36 11.5t29 36t24 64t22 96.5l42 217h395l-103 -530h-115l82 425h-165l-25 -133q-14 -73 -32.5 -129t-45.5 -94.5t-63.5 -58.5t-85.5 -20h-42z" />
    <glyph glyph-name="uni043C" unicode="&#x43c;" horiz-adv-x="725" 
d="M168 530h158l60 -360h5l200 360h172l-103 -530h-115l70 365h-5l-205 -365h-85l-65 365h-5l-70 -365h-115z" />
    <glyph glyph-name="uni043D" unicode="&#x43d;" horiz-adv-x="580" 
d="M168 530h115l-41 -210h220l41 210h115l-103 -530h-115l40 210h-220l-40 -210h-115z" />
    <glyph glyph-name="uni043E" unicode="&#x43e;" horiz-adv-x="580" 
d="M319 -10q-109 0 -170.5 60t-61.5 165q0 73 21.5 133t59 102.5t88 66t108.5 23.5q109 0 170.5 -60t61.5 -165q0 -73 -21.5 -133t-59 -102.5t-88 -66t-108.5 -23.5zM323 95q29 0 57.5 13t50.5 39t35.5 65.5t13.5 92.5q0 64 -34 97t-86 33q-29 0 -57.5 -13t-50.5 -39
t-35.5 -65.5t-13.5 -92.5q0 -64 34 -97t86 -33z" />
    <glyph glyph-name="uni043F" unicode="&#x43f;" horiz-adv-x="580" 
d="M168 530h450l-103 -530h-115l82 425h-220l-82 -425h-115z" />
    <glyph glyph-name="uni0440" unicode="&#x440;" horiz-adv-x="605" 
d="M168 530h95l2 -60h5q8 11 22 23.5t32.5 23t42 17t51.5 6.5q44 0 81.5 -14t64.5 -41.5t42 -67.5t15 -92q0 -78 -21 -140.5t-56.5 -105.5t-83 -66t-100.5 -23q-54 0 -96.5 20.5t-65.5 54.5h-5l-52 -265h-115zM349 95q30 0 58.5 13.5t50 40.5t35 66t13.5 90q0 67 -34 98.5
t-86 31.5q-30 0 -58.5 -13.5t-50 -40.5t-35 -66t-13.5 -90q0 -67 34 -98.5t86 -31.5z" />
    <glyph glyph-name="uni0441" unicode="&#x441;" horiz-adv-x="560" 
d="M319 -10q-110 0 -171 61t-61 171q0 69 21.5 127.5t58.5 100.5t87.5 66t109.5 24q52 0 91.5 -14t68 -38t45 -56t22.5 -67h-117q-14 32 -40.5 51t-74.5 19q-30 0 -58.5 -14t-50.5 -40.5t-35 -64.5t-13 -87q0 -65 32.5 -99.5t92.5 -34.5q43 0 71.5 19t50.5 51h114
q-11 -34 -34 -65.5t-55 -56t-71.5 -39t-83.5 -14.5z" />
    <glyph glyph-name="uni0442" unicode="&#x442;" horiz-adv-x="470" 
d="M252 425h-170l21 105h455l-21 -105h-170l-82 -425h-115z" />
    <glyph glyph-name="uni0443" unicode="&#x443;" horiz-adv-x="545" 
d="M200 0l-112 530h125l72 -375h5l218 375h130l-432 -730h-125z" />
    <glyph glyph-name="uni0444" unicode="&#x444;" horiz-adv-x="725" 
d="M304 0q-53 6 -93.5 25t-68.5 49t-42.5 69.5t-14.5 86.5q0 62 20.5 116.5t59.5 95.5t94.5 64.5t124.5 23.5h23l37 190h115l-37 -190q52 -6 93 -25t69 -49t42.5 -69.5t14.5 -86.5q0 -62 -20.5 -116.5t-59.5 -95.5t-94.5 -64.5t-124.5 -23.5h-23l-39 -200h-115zM387 425h-10
q-41 0 -74 -14t-56 -38.5t-35.5 -58.5t-12.5 -74q0 -56 30.5 -93.5t95.5 -41.5zM449 105q41 0 74 14t56 38.5t35.5 58.5t12.5 74q0 56 -30.5 93.5t-95.5 41.5l-62 -320h10z" />
    <glyph glyph-name="uni0445" unicode="&#x445;" horiz-adv-x="485" 
d="M218 275l-115 255h121l76 -175l144 175h139l-215 -255l122 -275h-121l-83 195l-157 -195h-139z" />
    <glyph glyph-name="uni0446" unicode="&#x446;" horiz-adv-x="595" 
d="M465 0h-400l103 530h115l-83 -425h215l83 425h115l-83 -425h65l-44 -225h-110z" />
    <glyph glyph-name="uni0447" unicode="&#x447;" horiz-adv-x="545" 
d="M397 166q-13 -3 -27 -6q-12 -2 -27.5 -3.5t-32.5 -1.5q-51 0 -88 12.5t-61.5 34.5t-36.5 52t-12 66q0 15 1.5 28.5t3.5 20.5l31 161h115l-31 -163q-3 -14 -3 -27q0 -39 29 -59.5t92 -20.5q35 0 67 11l51 259h115l-103 -530h-115z" />
    <glyph glyph-name="uni0448" unicode="&#x448;" horiz-adv-x="795" 
d="M168 530h115l-83 -425h160l83 425h115l-83 -425h160l83 425h115l-103 -530h-665z" />
    <glyph glyph-name="uni0449" unicode="&#x449;" horiz-adv-x="815" 
d="M685 0h-620l103 530h115l-83 -425h160l83 425h115l-83 -425h160l83 425h115l-83 -425h65l-44 -225h-110z" />
    <glyph glyph-name="uni044A" unicode="&#x44a;" horiz-adv-x="560" 
d="M207 425h-125l21 105h240l-35 -180h112q34 0 62.5 -11.5t49 -31.5t32 -47.5t11.5 -59.5q0 -45 -15.5 -82t-42.5 -63t-62.5 -40.5t-74.5 -14.5h-255zM381 105q33 0 56 20.5t23 58.5q0 26 -18 43.5t-48 17.5h-107l-27 -140h121z" />
    <glyph glyph-name="uni044B" unicode="&#x44b;" horiz-adv-x="710" 
d="M168 530h115l-35 -180h102q34 0 62.5 -11.5t49 -31.5t32 -47.5t11.5 -59.5q0 -45 -15.5 -82t-42.5 -63t-62.5 -40.5t-74.5 -14.5h-245zM311 105q33 0 56 20.5t23 58.5q0 26 -18 43.5t-48 17.5h-97l-27 -140h111zM633 530h115l-103 -530h-115z" />
    <glyph glyph-name="uni044C" unicode="&#x44c;" horiz-adv-x="500" 
d="M168 530h115l-35 -180h112q34 0 62.5 -11.5t49 -31.5t32 -47.5t11.5 -59.5q0 -45 -15.5 -82t-42.5 -63t-62.5 -40.5t-74.5 -14.5h-255zM321 105q33 0 56 20.5t23 58.5q0 26 -18 43.5t-48 17.5h-107l-27 -140h121z" />
    <glyph glyph-name="uni044D" unicode="&#x44d;" horiz-adv-x="555" 
d="M294 -10q-52 0 -91.5 14t-68 38t-45 56t-22.5 67h117q14 -32 40.5 -51t74.5 -19q46 0 86 31t59 89h-182l20 100h174q-4 58 -36 89t-89 31q-43 0 -71.5 -19t-50.5 -51h-114q11 34 34 65.5t55 56t71.5 39t83.5 14.5q110 0 171 -61t61 -171q0 -69 -21.5 -127.5t-58.5 -100.5
t-88 -66t-109 -24z" />
    <glyph glyph-name="uni044E" unicode="&#x44e;" horiz-adv-x="775" 
d="M519 -10q-52 0 -93.5 17t-71 46.5t-45 69.5t-15.5 87h-74l-40 -210h-115l103 530h115l-42 -215h65q13 51 37 92.5t57.5 71t75 45.5t90.5 16q53 0 94.5 -17t70.5 -46.5t44.5 -70.5t15.5 -89q0 -73 -21.5 -133.5t-58 -103.5t-86 -66.5t-106.5 -23.5zM523 95q30 0 58 14
t49 40.5t33.5 65.5t12.5 89q0 28 -8 52t-23 41.5t-36 27.5t-47 10q-30 0 -58 -14t-49 -40.5t-33.5 -65.5t-12.5 -89q0 -28 8 -52t23 -41.5t36 -27.5t47 -10z" />
    <glyph glyph-name="uni044F" unicode="&#x44f;" horiz-adv-x="530" 
d="M195 195q-39 14 -63.5 53t-24.5 90q0 42 15 77t41.5 60.5t61.5 40t75 14.5h268l-103 -530h-115l34 180h-64l-158 -180h-137zM405 285l27 140h-131q-38 0 -58.5 -23t-20.5 -56q0 -25 15.5 -43t47.5 -18h120z" />
    <glyph glyph-name="uni0450" unicode="&#x450;" horiz-adv-x="580" 
d="M317 -10q-51 0 -93.5 15t-73 44t-47 72t-16.5 99q0 73 22.5 132t60.5 101t88 64.5t106 22.5q61 0 104.5 -18t72 -49.5t42 -73.5t13.5 -89q0 -24 -3.5 -45t-8.5 -35h-381q-2 -59 30.5 -97.5t95.5 -38.5q31 0 64 16t50 45h123q-14 -35 -37 -65t-54 -52t-70.5 -35t-87.5 -13
zM480 320q-2 23 -10 44t-23 36.5t-37 25t-51 9.5q-46 0 -84.5 -30.5t-56.5 -84.5h262zM255 750h115l62 -145h-90z" />
    <glyph glyph-name="uni0451" unicode="&#x451;" horiz-adv-x="580" 
d="M317 -10q-51 0 -93.5 15t-73 44t-47 72t-16.5 99q0 73 22.5 132t60.5 101t88 64.5t106 22.5q61 0 104.5 -18t72 -49.5t42 -73.5t13.5 -89q0 -24 -3.5 -45t-8.5 -35h-381q-2 -59 30.5 -97.5t95.5 -38.5q31 0 64 16t50 45h123q-14 -35 -37 -65t-54 -52t-70.5 -35t-87.5 -13
zM480 320q-2 23 -10 44t-23 36.5t-37 25t-51 9.5q-46 0 -84.5 -30.5t-56.5 -84.5h262zM304 615q-28 0 -43.5 17.5t-15.5 41.5q0 29 20 50t52 21q28 0 43.5 -17.5t15.5 -41.5q0 -29 -20 -50t-52 -21zM494 615q-28 0 -43.5 17.5t-15.5 41.5q0 29 20 50t52 21q28 0 43.5 -17.5
t15.5 -41.5q0 -29 -20 -50t-52 -21z" />
    <glyph glyph-name="uni0452" unicode="&#x452;" horiz-adv-x="590" 
d="M260 -100h80q26 0 44 16.5t23 44.5l54 279q1 5 2 12t1 16q0 48 -26.5 72.5t-73.5 24.5q-48 0 -82 -30.5t-43 -77.5l-49 -257h-115l104 535h-76l19 95h75l14 70h115l-14 -70h135l-19 -95h-135l-25 -130h5q23 27 58.5 46t75.5 19t72.5 -13t55 -37t34.5 -57.5t12 -73.5
q0 -19 -1.5 -30.5t-3.5 -19.5l-59 -304q-13 -65 -53 -100t-107 -35h-116z" />
    <glyph glyph-name="uni0453" unicode="&#x453;" horiz-adv-x="435" 
d="M168 530h345l-21 -105h-230l-82 -425h-115zM423 750h115l-143 -145h-90z" />
    <glyph glyph-name="uni0454" unicode="&#x454;" horiz-adv-x="560" 
d="M319 -10q-110 0 -171 61t-61 171q0 69 21.5 127.5t58.5 100.5t87.5 66t109.5 24q52 0 91.5 -14t68 -38t45 -56t22.5 -67h-117q-14 32 -40.5 51t-74.5 19q-46 0 -86 -31t-59 -89h182l-20 -100h-174q4 -58 36 -89t89 -31q43 0 71.5 19t50.5 51h114q-11 -34 -34 -65.5
t-55 -56t-71.5 -39t-83.5 -14.5z" />
    <glyph glyph-name="uni0455" unicode="&#x455;" horiz-adv-x="500" 
d="M283 -10q-42 0 -80.5 9t-69.5 28.5t-52 51t-27 76.5h123q7 -28 35 -44t79 -16q48 0 66 16t18 38q0 23 -19.5 36t-48.5 22t-63.5 18.5t-63.5 26t-48.5 44t-19.5 73.5q0 35 13 66t38.5 54.5t63 37t85.5 13.5q52 0 91 -12t65.5 -33t41 -49.5t19.5 -60.5h-125q-6 18 -28.5 34
t-72.5 16q-35 0 -53 -14t-18 -37t19.5 -36t48.5 -22.5t63.5 -19t63.5 -26t48.5 -44t19.5 -72.5q0 -36 -13 -68t-39.5 -55.5t-66 -37t-93.5 -13.5z" />
    <glyph glyph-name="uni0456" unicode="&#x456;" horiz-adv-x="245" 
d="M168 530h115l-103 -530h-115zM243 590q-30 0 -48 18t-18 46q0 32 22.5 54t56.5 22q30 0 48.5 -18t18.5 -46q0 -32 -23 -54t-57 -22z" />
    <glyph glyph-name="uni0457" unicode="&#x457;" horiz-adv-x="245" 
d="M168 530h115l-103 -530h-115zM149 615q-28 0 -43.5 17.5t-15.5 41.5q0 29 20 50t52 21q28 0 43.5 -17.5t15.5 -41.5q0 -29 -20 -50t-52 -21zM339 615q-28 0 -43.5 17.5t-15.5 41.5q0 29 20 50t52 21q28 0 43.5 -17.5t15.5 -41.5q0 -29 -20 -50t-52 -21z" />
    <glyph glyph-name="uni0458" unicode="&#x458;" horiz-adv-x="245" 
d="M-89 -100h85q20 0 37 13.5t22 37.5l113 579h115l-116 -600q-13 -65 -52.5 -97.5t-102.5 -32.5h-120zM243 590q-30 0 -48 18t-18 46q0 32 22.5 54t56.5 22q30 0 48.5 -18t18.5 -46q0 -32 -23 -54t-57 -22z" />
    <glyph glyph-name="uni0459" unicode="&#x459;" horiz-adv-x="810" 
d="M30 105h25q20 0 36 11.5t29 36t24 64t22 96.5l42 217h385l-35 -180h112q34 0 62.5 -11.5t49 -31.5t32 -47.5t11.5 -59.5q0 -45 -15.5 -82t-42.5 -63t-62.5 -40.5t-74.5 -14.5h-255l82 425h-155l-25 -133q-14 -73 -32.5 -129t-45.5 -94.5t-63.5 -58.5t-85.5 -20h-42z
M631 105q33 0 56 20.5t23 58.5q0 26 -18 43.5t-48 17.5h-107l-27 -140h121z" />
    <glyph glyph-name="uni045A" unicode="&#x45a;" horiz-adv-x="820" 
d="M168 530h115l-39 -200h210l39 200h115l-39 -200h116q32 0 59.5 -10.5t47.5 -30t31.5 -46t11.5 -58.5q0 -41 -13.5 -75t-37.5 -58.5t-57 -38t-72 -13.5h-265l43 225h-210l-43 -225h-115zM650 105q31 0 50.5 17.5t19.5 51.5q0 23 -16 37t-45 14h-111l-23 -120h125z" />
    <glyph glyph-name="uni045B" unicode="&#x45b;" horiz-adv-x="590" 
d="M179 535h-76l19 95h75l14 70h115l-14 -70h135l-19 -95h-135l-25 -130h5q23 27 58.5 46t75.5 19t72.5 -13t55 -37t34.5 -57.5t12 -73.5q0 -19 -1.5 -30.5t-3.5 -19.5l-46 -239h-115l46 240q1 5 2 12t1 16q0 48 -26.5 72.5t-73.5 24.5q-48 0 -82 -30.5t-43 -77.5l-49 -257
h-115z" />
    <glyph glyph-name="uni045C" unicode="&#x45c;" horiz-adv-x="520" 
d="M168 530h115l-47 -240l262 240h149l-295 -268l192 -262h-134l-182 250l-48 -250h-115zM463 750h115l-143 -145h-90z" />
    <glyph glyph-name="uni045D" unicode="&#x45d;" horiz-adv-x="600" 
d="M168 530h115l-69 -354h5l284 354h135l-103 -530h-115l68 354h-5l-283 -354h-135zM280 750h115l62 -145h-90z" />
    <glyph glyph-name="uni045E" unicode="&#x45e;" horiz-adv-x="545" 
d="M200 0l-112 530h125l72 -375h5l218 375h130l-432 -730h-125zM369 605q-30 0 -56.5 8t-46 25t-30.5 45t-11 67h90q1 -34 17 -49.5t42 -15.5t45 15.5t26 49.5h90q-15 -79 -60.5 -112t-105.5 -33z" />
    <glyph glyph-name="uni045F" unicode="&#x45f;" horiz-adv-x="580" 
d="M235 0h-170l103 530h115l-83 -425h220l83 425h115l-103 -530h-170l-24 -120h-110z" />
    <glyph glyph-name="uni0490" unicode="&#x490;" horiz-adv-x="525" 
d="M211 700h300l27 140h120l-49 -250h-295l-114 -590h-125z" />
    <glyph glyph-name="uni0491" unicode="&#x491;" horiz-adv-x="435" 
d="M168 530h235l23 120h110l-44 -225h-230l-82 -425h-115z" />
    <glyph glyph-name="uni0492" unicode="&#x492;" horiz-adv-x="585" 
d="M159 280h-90l21 110h90l61 310h450l-22 -110h-325l-39 -200h190l-21 -110h-190l-54 -280h-125z" />
    <glyph glyph-name="uni0493" unicode="&#x493;" horiz-adv-x="445" 
d="M117 195h-75l20 100h75l46 235h340l-21 -105h-225l-25 -130h155l-20 -100h-155l-37 -195h-115z" />
    <glyph glyph-name="uni0494" unicode="&#x494;" horiz-adv-x="625" 
d="M320 -25h20q34 0 65 11.5t54.5 34t37 55.5t13.5 75q0 63 -38.5 99t-111.5 36q-26 0 -46.5 -4.5t-34.5 -9.5q-17 -6 -30 -14l-49 -258h-125l136 700h446l-22 -110h-321l-43 -218q14 6 32 11q15 5 37 8.5t48 3.5q60 0 106 -16t77.5 -45t47.5 -69.5t16 -89.5
q0 -73 -22.5 -130.5t-62 -97.5t-94.5 -61t-121 -21h-37z" />
    <glyph glyph-name="uni0495" unicode="&#x495;" horiz-adv-x="510" 
d="M256 -95h14q53 0 87.5 45.5t34.5 131.5q0 49 -24 76t-76 27q-18 0 -32.5 -3.5t-25.5 -7.5q-12 -5 -23 -11l-31 -163h-115l103 530h345l-21 -105h-230l-29 -151q9 4 20 8q10 3 24.5 5.5t33.5 2.5q44 0 80.5 -13t62.5 -38.5t40.5 -63t14.5 -86.5q0 -69 -18.5 -123
t-51.5 -90.5t-77.5 -56t-96.5 -19.5h-29z" />
    <glyph glyph-name="uni0496" unicode="&#x496;" horiz-adv-x="870" 
d="M780 0h-35l-191 330l-64 -330h-125l64 330l-319 -330h-153l357 369l-186 331h133l177 -320l63 320h125l-63 -320l303 320h146l-333 -352l138 -238h99l-50 -255h-115z" />
    <glyph glyph-name="uni0497" unicode="&#x497;" horiz-adv-x="750" 
d="M655 0h-30l-153 245l-47 -245h-115l47 245l-247 -245h-152l285 282l-148 248h133l139 -235l46 235h115l-46 -235l231 235h150l-267 -270l97 -155h92l-44 -225h-110z" />
    <glyph glyph-name="uni049A" unicode="&#x49a;" horiz-adv-x="605" 
d="M525 0h-35l-226 330l-64 -330h-125l136 700h125l-63 -320l338 320h152l-369 -352l161 -238h106l-50 -255h-115z" />
    <glyph glyph-name="uni049B" unicode="&#x49b;" horiz-adv-x="525" 
d="M440 0h-30l-182 250l-48 -250h-115l103 530h115l-47 -240l262 240h149l-295 -268l115 -157h103l-44 -225h-110z" />
    <glyph glyph-name="uni049C" unicode="&#x49c;" horiz-adv-x="645" 
d="M211 700h125l-58 -295h35l21 105h75l-21 -105h20l238 295h145l-287 -352l153 -348h-132l-132 300h-25l-21 -105h-75l21 105h-35l-58 -300h-125z" />
    <glyph glyph-name="uni049D" unicode="&#x49d;" horiz-adv-x="550" 
d="M168 530h115l-41 -210h25l14 75h70l-14 -75h15l166 210h136l-212 -267l115 -263h-132l-93 220h-15l-14 -75h-70l14 75h-25l-42 -220h-115z" />
    <glyph glyph-name="uni04A2" unicode="&#x4a2;" horiz-adv-x="750" 
d="M610 0h-95l58 300h-315l-58 -300h-125l136 700h125l-57 -290h315l57 290h125l-115 -590h85l-50 -255h-115z" />
    <glyph glyph-name="uni04A3" unicode="&#x4a3;" horiz-adv-x="600" 
d="M470 0h-70l40 210h-220l-40 -210h-115l103 530h115l-41 -210h220l41 210h115l-83 -425h65l-44 -225h-110z" />
    <glyph glyph-name="uni04AA" unicode="&#x4aa;" horiz-adv-x="705" 
d="M328 -3q-102 20 -162 91t-60 192q0 96 27 175t75 136t113.5 88t142.5 31q65 0 114.5 -15.5t85 -44t57 -68t30.5 -87.5h-128q-17 48 -55 76.5t-107 28.5q-45 0 -87 -21t-73.5 -61t-50.5 -97.5t-19 -130.5q0 -91 48.5 -140.5t130.5 -49.5q60 0 100 26.5t71 78.5h132
q-18 -42 -44.5 -78.5t-60.5 -64.5t-76 -46.5t-90 -23.5l-26 -137h-115z" />
    <glyph glyph-name="uni04AB" unicode="&#x4ab;" horiz-adv-x="560" 
d="M258 -4q-82 16 -126.5 74t-44.5 152q0 69 21.5 127.5t58.5 100.5t87.5 66t109.5 24q52 0 91.5 -14t68 -38t45 -56t22.5 -67h-117q-14 32 -40.5 51t-74.5 19q-30 0 -58.5 -14t-50.5 -40.5t-35 -64.5t-13 -87q0 -65 32.5 -99.5t92.5 -34.5q43 0 71.5 19t50.5 51h114
q-9 -29 -27.5 -56.5t-43.5 -50t-56.5 -39t-66.5 -23.5l-23 -116h-110z" />
    <glyph glyph-name="uni04AE" unicode="&#x4ae;" horiz-adv-x="585" 
d="M263 250l-157 450h120l111 -325h5l239 325h140l-333 -450l-48 -250h-125z" />
    <glyph glyph-name="uni04AF" unicode="&#x4af;" horiz-adv-x="535" 
d="M200 0h-15l-92 530h119l61 -405h5l219 405h131l-298 -530h-15l-39 -200h-115z" />
    <glyph glyph-name="uni04B0" unicode="&#x4b0;" horiz-adv-x="585" 
d="M261 240h-155l22 110h100l-122 350h120l111 -325h5l239 325h140l-258 -350h100l-22 -110h-155l-46 -240h-125z" />
    <glyph glyph-name="uni04B1" unicode="&#x4b1;" horiz-adv-x="535" 
d="M200 0h-120l20 105h66l-73 425h119l61 -405h5l219 405h131l-240 -425h67l-20 -105h-120l-39 -200h-115z" />
    <glyph glyph-name="uni04B2" unicode="&#x4b2;" horiz-adv-x="610" 
d="M505 0h-21l-122 275l-228 -275h-149l304 360l-158 340h131l115 -255l215 255h149l-292 -340l115 -250h77l-50 -255h-115z" />
    <glyph glyph-name="uni04B3" unicode="&#x4b3;" horiz-adv-x="500" 
d="M390 0h-21l-83 195l-157 -195h-139l228 275l-115 255h121l76 -175l144 175h139l-215 -255l75 -170h77l-44 -225h-110z" />
    <glyph glyph-name="uni04B6" unicode="&#x4b6;" horiz-adv-x="705" 
d="M565 0h-95l45 235q-14 -6 -32 -10q-16 -4 -38 -7t-50 -3q-125 0 -188.5 56.5t-63.5 154.5q0 20 1.5 34t4.5 28l42 212h125l-42 -215q-1 -5 -2.5 -13.5t-1.5 -25.5q0 -63 41 -92t116 -29q35 0 61.5 5.5t48.5 12.5l69 357h125l-115 -590h85l-50 -255h-115z" />
    <glyph glyph-name="uni04B7" unicode="&#x4b7;" horiz-adv-x="565" 
d="M435 0h-70l32 166q-13 -3 -27 -6q-12 -2 -27.5 -3.5t-32.5 -1.5q-51 0 -88 12.5t-61.5 34.5t-36.5 52t-12 66q0 15 1.5 28.5t3.5 20.5l31 161h115l-31 -163q-3 -14 -3 -27q0 -39 29 -59.5t92 -20.5q35 0 67 11l51 259h115l-83 -425h65l-44 -225h-110z" />
    <glyph glyph-name="uni04B8" unicode="&#x4b8;" horiz-adv-x="670" 
d="M515 235q-11 -5 -26 -9q-27 -8 -73 -11l-18 -95h-90l19 100q-91 14 -137.5 68t-46.5 138q0 20 1.5 34t4.5 28l42 212h125l-42 -215q-1 -5 -2.5 -13.5t-1.5 -25.5q0 -45 20.5 -71.5t59.5 -39.5l23 120h90l-25 -130q28 1 53.5 6t45.5 12l69 357h125l-136 -700h-125z" />
    <glyph glyph-name="uni04B9" unicode="&#x4b9;" horiz-adv-x="545" 
d="M397 166q-9 -2 -20 -4q-9 -2 -21 -4t-26 -3l-13 -65h-70l13 68q-76 12 -112 55.5t-36 106.5q0 15 1.5 28.5t3.5 20.5l31 161h115l-31 -163q-3 -14 -3 -27q0 -53 53 -71l12 61h70l-14 -70q35 0 67 11l51 259h115l-103 -530h-115z" />
    <glyph glyph-name="uni04BA" unicode="&#x4ba;" horiz-adv-x="670" 
d="M211 700h125l-45 -235q14 6 32 10q16 4 37.5 7t50.5 3q125 0 188.5 -56.5t63.5 -154.5q0 -20 -1.5 -34t-4.5 -28l-42 -212h-125l42 215q1 5 2.5 13.5t1.5 25.5q0 63 -41 92t-116 29q-35 0 -61.5 -5.5t-48.5 -12.5l-69 -357h-125z" />
    <glyph glyph-name="uni04BB" unicode="&#x4bb;" horiz-adv-x="585" 
d="M206 700h115l-44 -225h5q23 27 58.5 46t75.5 19t72.5 -13t55 -37t34.5 -57.5t12 -73.5q0 -19 -1.5 -30.5t-3.5 -19.5l-60 -309h-115l60 310q1 5 2 12t1 16q0 48 -26.5 72.5t-73.5 24.5q-48 0 -82 -30.5t-43 -77.5l-63 -327h-115z" />
    <glyph glyph-name="uni04C1" unicode="&#x4c1;" horiz-adv-x="860" 
d="M314 369l-186 331h133l177 -320l63 320h125l-63 -320l303 320h146l-333 -352l202 -348h-136l-191 330l-64 -330h-125l64 330l-319 -330h-153zM579 765q-32 0 -60 8.5t-49 26.5t-33 45t-12 65h90q1 -34 20 -49.5t49 -15.5t52 15.5t29 49.5h90q-15 -75 -63.5 -110
t-112.5 -35z" />
    <glyph glyph-name="uni04C2" unicode="&#x4c2;" horiz-adv-x="745" 
d="M243 282l-148 248h133l139 -235l46 235h115l-46 -235l231 235h150l-267 -270l163 -260h-134l-153 245l-47 -245h-115l47 245l-247 -245h-152zM484 605q-30 0 -56.5 8t-46 25t-30.5 45t-11 67h90q1 -34 17 -49.5t42 -15.5t45 15.5t26 49.5h90q-15 -79 -60.5 -112
t-105.5 -33z" />
    <glyph glyph-name="uni04D2" unicode="&#x4d2;" horiz-adv-x="655" 
d="M396 700h155l119 -700h-125l-25 150h-297l-83 -150h-135zM502 260l-49 300h-5l-165 -300h219zM389 775q-28 0 -43.5 17.5t-15.5 41.5q0 29 20 50t52 21q28 0 43.5 -17.5t15.5 -41.5q0 -29 -20 -50t-52 -21zM579 775q-28 0 -43.5 17.5t-15.5 41.5q0 29 20 50t52 21
q28 0 43.5 -17.5t15.5 -41.5q0 -29 -20 -50t-52 -21z" />
    <glyph glyph-name="uni04D3" unicode="&#x4d3;" horiz-adv-x="550" 
d="M233 -10q-32 0 -62.5 10t-53.5 29t-37 47t-14 65q0 36 14 68.5t40 57t64 39t85 14.5h166l3 15q2 10 2 20q0 38 -25.5 61.5t-73.5 23.5q-39 0 -63 -18.5t-35 -41.5h-121q12 34 33.5 63t50.5 50.5t65 34t75 12.5q55 0 94.5 -13.5t65 -37.5t37.5 -57t12 -71q0 -11 -1.5 -23
t-3.5 -18l-62 -320h-100l2 55h-5q-9 -11 -22 -22.5t-31.5 -21t-43 -15.5t-55.5 -6zM274 90q56 0 90.5 28.5t44.5 74.5l8 37h-149q-45 0 -66 -21t-21 -52t23.5 -49t69.5 -18zM294 615q-28 0 -43.5 17.5t-15.5 41.5q0 29 20 50t52 21q28 0 43.5 -17.5t15.5 -41.5
q0 -29 -20 -50t-52 -21zM484 615q-28 0 -43.5 17.5t-15.5 41.5q0 29 20 50t52 21q28 0 43.5 -17.5t15.5 -41.5q0 -29 -20 -50t-52 -21z" />
    <glyph glyph-name="uni04D8" unicode="&#x4d8;" horiz-adv-x="730" 
d="M400 -10q-64 0 -117.5 18.5t-92.5 55t-60.5 91t-21.5 125.5q0 20 2.5 50t8.5 60h515v20q0 94 -49.5 142t-132.5 48q-52 0 -97 -26t-69 -74h-131q19 47 48 86t68 66.5t86.5 42.5t102.5 15q70 0 125.5 -20t94 -57.5t59 -91.5t20.5 -121q0 -94 -26.5 -173t-74 -136
t-113.5 -89t-145 -32zM403 100q41 0 76 15t62.5 41t47 60.5t30.5 73.5h-390v-10q0 -39 10.5 -72t32 -57t54.5 -37.5t77 -13.5z" />
    <glyph glyph-name="uni04D9" unicode="&#x4d9;" horiz-adv-x="580" 
d="M319 -10q-61 0 -104.5 18t-72 49.5t-42 73.5t-13.5 89q0 24 3.5 45t8.5 35h381q2 59 -30.5 97.5t-95.5 38.5q-31 0 -64 -16t-50 -45h-123q14 34 37 64.5t54 52.5t70.5 35t87.5 13q51 0 93.5 -15t73 -44t47 -72t16.5 -99q0 -73 -22.5 -132t-60.5 -101t-88 -64.5
t-106 -22.5zM324 95q46 0 84.5 30.5t56.5 84.5h-262q1 -23 9.5 -44t23.5 -37t37 -25t51 -9z" />
    <glyph glyph-name="uni04E0" unicode="&#x4e0;" horiz-adv-x="615" 
d="M336 -10q-53 0 -100.5 11.5t-84.5 37t-60.5 65t-26.5 96.5h123q3 -24 16 -42.5t33 -31.5t46 -19.5t53 -6.5q36 0 63 10t45 27t27 40t9 49q0 19 -7 37t-22.5 32t-39.5 22t-58 8h-129l19 100l234 165h-317l22 110h500l-21 -105l-241 -170q91 -11 138 -59t46 -134
q0 -46 -16 -89.5t-49 -77.5t-83 -54.5t-119 -20.5z" />
    <glyph glyph-name="uni04E1" unicode="&#x4e1;" horiz-adv-x="515" 
d="M236 -200q-45 0 -86 12.5t-72 37.5t-49.5 63.5t-18.5 91.5h115q1 -45 32 -72.5t83 -27.5q28 0 52.5 10t42.5 29t28.5 46t10.5 61q0 45 -28.5 74.5t-85.5 29.5h-105l17 90l216 180h-266l21 105h425l-21 -105l-212 -175q83 -19 118 -67t35 -125q0 -57 -18 -104.5t-51 -81.5
t-79.5 -53t-103.5 -19z" />
    <glyph glyph-name="uni04E2" unicode="&#x4e2;" horiz-adv-x="745" 
d="M211 700h125l-99 -512h5l399 512h165l-136 -700h-125l99 512h-5l-399 -512h-165zM391 880h295l-16 -85h-295z" />
    <glyph glyph-name="uni04E3" unicode="&#x4e3;" horiz-adv-x="600" 
d="M168 530h115l-69 -354h5l284 354h135l-103 -530h-115l68 354h-5l-283 -354h-135zM286 715h295l-16 -85h-295z" />
    <glyph glyph-name="uni04E6" unicode="&#x4e6;" horiz-adv-x="740" 
d="M410 -10q-72 0 -128.5 20t-95.5 57.5t-59.5 91t-20.5 121.5q0 86 24.5 164t70.5 137t112.5 94t151.5 35q72 0 128.5 -20t95.5 -57.5t59.5 -91.5t20.5 -121q0 -86 -24.5 -164t-70.5 -137t-112.5 -94t-151.5 -35zM414 100q47 0 88.5 21.5t73 61.5t50 97.5t18.5 129.5
q0 91 -47.5 140.5t-135.5 49.5q-47 0 -88.5 -21.5t-73 -61.5t-50 -97.5t-18.5 -129.5q0 -91 47.5 -140.5t135.5 -49.5zM404 775q-28 0 -43.5 17.5t-15.5 41.5q0 29 20 50t52 21q28 0 43.5 -17.5t15.5 -41.5q0 -29 -20 -50t-52 -21zM594 775q-28 0 -43.5 17.5t-15.5 41.5
q0 29 20 50t52 21q28 0 43.5 -17.5t15.5 -41.5q0 -29 -20 -50t-52 -21z" />
    <glyph glyph-name="uni04E7" unicode="&#x4e7;" horiz-adv-x="580" 
d="M319 -10q-109 0 -170.5 60t-61.5 165q0 73 21.5 133t59 102.5t88 66t108.5 23.5q109 0 170.5 -60t61.5 -165q0 -73 -21.5 -133t-59 -102.5t-88 -66t-108.5 -23.5zM323 95q29 0 57.5 13t50.5 39t35.5 65.5t13.5 92.5q0 64 -34 97t-86 33q-29 0 -57.5 -13t-50.5 -39
t-35.5 -65.5t-13.5 -92.5q0 -64 34 -97t86 -33zM304 615q-28 0 -43.5 17.5t-15.5 41.5q0 29 20 50t52 21q28 0 43.5 -17.5t15.5 -41.5q0 -29 -20 -50t-52 -21zM494 615q-28 0 -43.5 17.5t-15.5 41.5q0 29 20 50t52 21q28 0 43.5 -17.5t15.5 -41.5q0 -29 -20 -50t-52 -21z
" />
    <glyph glyph-name="uni04E8" unicode="&#x4e8;" horiz-adv-x="740" 
d="M410 -10q-72 0 -128.5 20t-95.5 57.5t-59.5 91t-20.5 121.5q0 86 24.5 164t70.5 137t112.5 94t151.5 35q72 0 128.5 -20t95.5 -57.5t59.5 -91.5t20.5 -121q0 -86 -24.5 -164t-70.5 -137t-112.5 -94t-151.5 -35zM414 100q37 0 71 13.5t62.5 39t50 63t33.5 84.5h-400v-10
q0 -91 47.5 -140.5t135.5 -49.5zM644 400v10q0 91 -47.5 140.5t-135.5 49.5q-37 0 -71.5 -13.5t-63 -39t-49.5 -63t-33 -84.5h400z" />
    <glyph glyph-name="uni04E9" unicode="&#x4e9;" horiz-adv-x="580" 
d="M319 -10q-109 0 -170.5 60t-61.5 165q0 73 21.5 133t59 102.5t88 66t108.5 23.5q109 0 170.5 -60t61.5 -165q0 -73 -21.5 -133t-59 -102.5t-88 -66t-108.5 -23.5zM323 95q45 0 85 29.5t59 90.5h-264q3 -60 36 -90t84 -30zM479 315q-3 59 -36 89.5t-83 30.5q-45 0 -85 -30
t-60 -90h264z" />
    <glyph glyph-name="uni04EE" unicode="&#x4ee;" horiz-adv-x="580" 
d="M245 193l-134 507h127l95 -360h5l230 360h138l-446 -700h-138zM286 880h295l-16 -85h-295z" />
    <glyph glyph-name="uni04EF" unicode="&#x4ef;" horiz-adv-x="545" 
d="M200 0l-112 530h125l72 -375h5l218 375h130l-432 -730h-125zM236 715h295l-16 -85h-295z" />
    <glyph glyph-name="uni04F0" unicode="&#x4f0;" horiz-adv-x="580" 
d="M245 193l-134 507h127l95 -360h5l230 360h138l-446 -700h-138zM319 775q-28 0 -43.5 17.5t-15.5 41.5q0 29 20 50t52 21q28 0 43.5 -17.5t15.5 -41.5q0 -29 -20 -50t-52 -21zM509 775q-28 0 -43.5 17.5t-15.5 41.5q0 29 20 50t52 21q28 0 43.5 -17.5t15.5 -41.5
q0 -29 -20 -50t-52 -21z" />
    <glyph glyph-name="uni04F1" unicode="&#x4f1;" horiz-adv-x="545" 
d="M200 0l-112 530h125l72 -375h5l218 375h130l-432 -730h-125zM269 615q-28 0 -43.5 17.5t-15.5 41.5q0 29 20 50t52 21q28 0 43.5 -17.5t15.5 -41.5q0 -29 -20 -50t-52 -21zM459 615q-28 0 -43.5 17.5t-15.5 41.5q0 29 20 50t52 21q28 0 43.5 -17.5t15.5 -41.5
q0 -29 -20 -50t-52 -21z" />
    <glyph glyph-name="Wgrave" unicode="&#x1e80;" horiz-adv-x="935" 
d="M141 700h125l17 -530h5l233 530h145l27 -530h5l223 530h135l-316 -700h-150l-23 525h-5l-227 -525h-150zM460 910h115l62 -145h-90z" />
    <glyph glyph-name="wgrave" unicode="&#x1e81;" horiz-adv-x="785" 
d="M103 530h115l27 -385h5l173 385h125l27 -385h5l173 385h125l-248 -530h-140l-31 365h-5l-169 -365h-140zM350 750h115l62 -145h-90z" />
    <glyph glyph-name="Wacute" unicode="&#x1e82;" horiz-adv-x="935" 
d="M141 700h125l17 -530h5l233 530h145l27 -530h5l223 530h135l-316 -700h-150l-23 525h-5l-227 -525h-150zM678 910h115l-143 -145h-90z" />
    <glyph glyph-name="wacute" unicode="&#x1e83;" horiz-adv-x="785" 
d="M103 530h115l27 -385h5l173 385h125l27 -385h5l173 385h125l-248 -530h-140l-31 365h-5l-169 -365h-140zM568 750h115l-143 -145h-90z" />
    <glyph glyph-name="Wdieresis" unicode="&#x1e84;" horiz-adv-x="935" 
d="M141 700h125l17 -530h5l233 530h145l27 -530h5l223 530h135l-316 -700h-150l-23 525h-5l-227 -525h-150zM509 775q-28 0 -43.5 17.5t-15.5 41.5q0 29 20 50t52 21q28 0 43.5 -17.5t15.5 -41.5q0 -29 -20 -50t-52 -21zM699 775q-28 0 -43.5 17.5t-15.5 41.5q0 29 20 50
t52 21q28 0 43.5 -17.5t15.5 -41.5q0 -29 -20 -50t-52 -21z" />
    <glyph glyph-name="wdieresis" unicode="&#x1e85;" horiz-adv-x="785" 
d="M103 530h115l27 -385h5l173 385h125l27 -385h5l173 385h125l-248 -530h-140l-31 365h-5l-169 -365h-140zM399 615q-28 0 -43.5 17.5t-15.5 41.5q0 29 20 50t52 21q28 0 43.5 -17.5t15.5 -41.5q0 -29 -20 -50t-52 -21zM589 615q-28 0 -43.5 17.5t-15.5 41.5q0 29 20 50
t52 21q28 0 43.5 -17.5t15.5 -41.5q0 -29 -20 -50t-52 -21z" />
    <glyph glyph-name="uni1E9E" unicode="&#x1e9e;" horiz-adv-x="685" 
d="M168 506q18 94 77 144t145 50h361l-21 -105l-181 -170l-1 -5q66 -14 103.5 -62.5t37.5 -120.5q0 -53 -17.5 -97t-49 -75t-76 -48t-97.5 -17h-139l21 110h112q59 0 89.5 33t30.5 87q0 38 -22 64t-77 26h-82l20 105l173 165h-177q-40 0 -69.5 -26.5t-38.5 -74.5l-95 -489
h-125z" />
    <glyph glyph-name="Ygrave" unicode="&#x1ef2;" horiz-adv-x="585" 
d="M263 250l-157 450h120l111 -325h5l239 325h140l-333 -450l-48 -250h-125zM275 910h115l62 -145h-90z" />
    <glyph glyph-name="ygrave" unicode="&#x1ef3;" horiz-adv-x="545" 
d="M200 0l-112 530h125l72 -375h5l218 375h130l-432 -730h-125zM230 750h115l62 -145h-90z" />
    <glyph glyph-name="endash" unicode="&#x2013;" horiz-adv-x="560" 
d="M95 335h500l-21 -105h-500z" />
    <glyph glyph-name="emdash" unicode="&#x2014;" horiz-adv-x="805" 
d="M95 335h745l-21 -105h-745z" />
    <glyph glyph-name="quoteleft" unicode="&#x2018;" horiz-adv-x="210" 
d="M236 700h90l-80 -205h-110z" />
    <glyph glyph-name="quoteright" unicode="&#x2019;" horiz-adv-x="210" 
d="M216 700h110l-100 -205h-90z" />
    <glyph glyph-name="quotesinglbase" unicode="&#x201a;" horiz-adv-x="210" 
d="M79 100h110l-100 -205h-89z" />
    <glyph glyph-name="quotedblleft" unicode="&#x201c;" horiz-adv-x="380" 
d="M236 700h90l-80 -205h-110zM406 700h90l-80 -205h-110z" />
    <glyph glyph-name="quotedblright" unicode="&#x201d;" horiz-adv-x="380" 
d="M216 700h110l-100 -205h-90zM386 700h110l-100 -205h-90z" />
    <glyph glyph-name="quotedblbase" unicode="&#x201e;" horiz-adv-x="380" 
d="M79 100h110l-100 -205h-89zM249 100h110l-100 -205h-90z" />
    <glyph glyph-name="dagger" unicode="&#x2020;" horiz-adv-x="480" 
d="M263 430h-125l21 110h125l32 160h120l-32 -160h125l-21 -110h-125l-83 -430h-120z" />
    <glyph glyph-name="daggerdbl" unicode="&#x2021;" horiz-adv-x="480" 
d="M211 160h-125l21 110h125l31 160h-125l21 110h125l32 160h120l-32 -160h125l-21 -110h-125l-31 -160h125l-21 -110h-125l-31 -160h-120z" />
    <glyph glyph-name="bullet" unicode="&#x2022;" horiz-adv-x="450" 
d="M269 180q-21 0 -38.5 8t-30 21.5t-19.5 31t-7 36.5q0 22 9 42t25 36t37 25.5t45 9.5q21 0 38.5 -8t30 -21.5t19.5 -31t7 -36.5q0 -22 -9 -42.5t-25 -36t-37 -25t-45 -9.5z" />
    <glyph glyph-name="ellipsis" unicode="&#x2026;" horiz-adv-x="730" 
d="M116 -5q-29 0 -46.5 18t-17.5 46q0 32 22.5 54t54.5 22q29 0 46.5 -18t17.5 -46q0 -32 -22.5 -54t-54.5 -22zM371 -5q-29 0 -46.5 18t-17.5 46q0 32 22.5 54t54.5 22q29 0 46.5 -18t17.5 -46q0 -32 -22.5 -54t-54.5 -22zM626 -5q-28 0 -46 18t-18 46q0 32 22.5 54
t54.5 22q29 0 46.5 -18t17.5 -46q0 -32 -22.5 -54t-54.5 -22z" />
    <glyph glyph-name="perthousand" unicode="&#x2030;" horiz-adv-x="1130" 
d="M676 700h110l-566 -700h-110zM584 -10q-69 0 -109 40t-40 104q0 42 13.5 76.5t37 59t55.5 37.5t69 13q69 0 109 -40t40 -104q0 -42 -13.5 -76.5t-37 -59t-55.5 -37.5t-69 -13zM589 70q35 0 60 26t25 74q0 32 -18.5 51t-50.5 19q-35 0 -60 -26t-25 -74q0 -32 18.5 -51
t50.5 -19zM954 -10q-69 0 -109 40t-40 104q0 42 13.5 76.5t37 59t55.5 37.5t69 13q69 0 109 -40t40 -104q0 -42 -13.5 -76.5t-37 -59t-55.5 -37.5t-69 -13zM959 70q35 0 60 26t25 74q0 32 -18.5 51t-50.5 19q-35 0 -60 -26t-25 -74q0 -32 18.5 -51t50.5 -19zM286 380
q-69 0 -109 40t-40 104q0 42 13.5 76.5t37 59t55.5 37.5t69 13q69 0 109 -40t40 -104q0 -42 -13.5 -76.5t-37 -59t-55.5 -37.5t-69 -13zM291 460q35 0 60 26t25 74q0 32 -18.5 51t-50.5 19q-35 0 -60 -26t-25 -74q0 -32 18.5 -51t50.5 -19z" />
    <glyph glyph-name="guilsinglleft" unicode="&#x2039;" horiz-adv-x="410" 
d="M87 270l262 240h146l-272 -248l-2 -6l161 -226h-127z" />
    <glyph glyph-name="guilsinglright" unicode="&#x203a;" horiz-adv-x="410" 
d="M286 278l2 6l-161 226h127l168 -240l-262 -240h-146z" />
    <glyph glyph-name="fraction" unicode="&#x2044;" horiz-adv-x="145" 
d="M381 700h98l-571 -700h-98z" />
    <glyph glyph-name="uni2070" unicode="&#x2070;" horiz-adv-x="390" 
d="M283 395q-66 0 -104.5 40t-37.5 113q0 63 16 111t42.5 80.5t60 49t68.5 16.5q66 0 104.5 -40t37.5 -113q0 -63 -16 -111t-42.5 -80.5t-60 -49t-68.5 -16.5zM287 475q15 0 32 10.5t31.5 31t24 51.5t9.5 73t-17 63t-43 21q-15 0 -32 -10.5t-31.5 -31t-24 -51.5t-9.5 -73
t17 -63t43 -21z" />
    <glyph glyph-name="uni2074" unicode="&#x2074;" horiz-adv-x="345" 
d="M279 485h-180l14 75l207 240h105l-47 -240h60l-14 -75h-60l-17 -85h-85zM293 560l26 130h-5l-112 -130h91z" />
    <glyph glyph-name="uni2075" unicode="&#x2075;" horiz-adv-x="345" 
d="M263 395q-26 0 -51 6.5t-45 21t-33 36t-16 51.5h89q3 -14 18 -24.5t43 -10.5q31 0 49.5 19t18.5 49q0 29 -18 43t-42 14q-40 0 -55 -25h-85l69 225h245l-15 -75h-175l-21 -65h5q6 2 14 4q7 2 16 3.5t21 1.5q59 0 92.5 -31.5t33.5 -85.5q0 -34 -12 -62.5t-33 -49.5
t-50 -33t-63 -12z" />
    <glyph glyph-name="uni2076" unicode="&#x2076;" horiz-adv-x="350" 
d="M260 395q-29 0 -54.5 9t-44.5 26.5t-30.5 42t-11.5 55.5q0 43 19 80.5t42 62.5l112 129h93l-112 -129q3 0 7 1q3 0 8 0.5t10 0.5q28 0 50.5 -9.5t38.5 -26.5t24.5 -39.5t8.5 -47.5q0 -34 -12.5 -62.5t-34.5 -49t-51 -32t-62 -11.5zM267 475q35 0 51.5 23t16.5 52
q0 22 -14.5 38.5t-46.5 16.5q-36 0 -53 -23t-17 -51q0 -26 17 -41t46 -15z" />
    <glyph glyph-name="uni2077" unicode="&#x2077;" horiz-adv-x="300" 
d="M334 725h-164l15 75h260l-15 -75l-203 -325h-96z" />
    <glyph glyph-name="uni2078" unicode="&#x2078;" horiz-adv-x="360" 
d="M273 395q-28 0 -53.5 6.5t-45.5 20.5t-32 34.5t-12 49.5q0 14 4 30t13.5 31t24.5 27.5t37 20.5q-18 11 -26 32.5t-8 43.5q0 23 9.5 43.5t27.5 36.5t43 25t57 9t57 -8.5t41.5 -23t25 -33.5t8.5 -40q0 -32 -17 -57t-49 -38q24 -13 33.5 -36.5t9.5 -45.5q0 -30 -11.5 -54
t-31 -40.5t-47 -25t-58.5 -8.5zM276 470q27 0 44.5 17t17.5 40q0 17 -14.5 32.5t-45.5 15.5t-46 -17.5t-15 -37.5q0 -24 17.5 -37t41.5 -13zM309 645q25 0 37 14t12 31t-12 28.5t-39 11.5q-23 0 -36 -14t-13 -33q0 -20 16 -29t35 -9z" />
    <glyph glyph-name="uni2079" unicode="&#x2079;" horiz-adv-x="350" 
d="M294 529q-3 -1 -7 -1q-5 -1 -18 -1q-28 0 -50.5 9.5t-38.5 26.5t-24.5 39t-8.5 48q0 34 12.5 62.5t34.5 49t51 32t62 11.5q28 0 54 -9t45 -26.5t30.5 -42t11.5 -55.5q0 -43 -19 -80.5t-42 -62.5l-112 -129h-93zM293 595q36 0 53 23t17 51q0 26 -17 41t-46 15
q-35 0 -51.5 -23t-16.5 -52q0 -22 14.5 -38.5t46.5 -16.5z" />
    <glyph glyph-name="uni2080" unicode="&#x2080;" horiz-adv-x="390" 
d="M196 -105q-66 0 -104.5 40t-37.5 113q0 63 16 111t42.5 80.5t60 49t68.5 16.5q66 0 104.5 -40t37.5 -113q0 -63 -16 -111t-42.5 -80.5t-60 -49t-68.5 -16.5zM200 -25q15 0 32 10.5t31.5 31t24 51.5t9.5 73t-17 63t-43 21q-15 0 -32 -10.5t-31.5 -31t-24 -51.5t-9.5 -73
t17 -63t43 -21z" />
    <glyph glyph-name="uni2081" unicode="&#x2081;" horiz-adv-x="265" 
d="M157 165h-90l15 80h65q25 0 30 25l6 30h85l-78 -400h-85z" />
    <glyph glyph-name="uni2082" unicode="&#x2082;" horiz-adv-x="335" 
d="M30 -25l171 139q24 20 39 36.5t15 36.5q0 14 -11 26t-39 12q-22 0 -35 -12.5t-16 -32.5h-91q6 24 17 47t29 40t43.5 27.5t59.5 10.5q66 0 100 -31.5t34 -78.5q0 -42 -21.5 -69.5t-59.5 -58.5l-115 -92h150l-15 -75h-270z" />
    <glyph glyph-name="uni2083" unicode="&#x2083;" horiz-adv-x="340" 
d="M172 -105q-29 0 -54 6t-44 19.5t-30.5 34.5t-14.5 50h88q3 -14 16 -22t39 -8q27 0 43 15t16 39q0 14 -10 27.5t-33 13.5h-40l15 75h47q26 0 36 13.5t10 30.5q0 16 -12 25.5t-40 9.5q-20 0 -34.5 -12t-19.5 -32h-91q5 26 17.5 49t31.5 40t44 26.5t55 9.5q33 0 59 -8.5
t44 -23t27.5 -34t9.5 -40.5t-7 -38t-17.5 -29t-23 -19.5t-23.5 -10.5q22 -15 32.5 -36.5t10.5 -44.5q0 -24 -10 -46.5t-29 -40t-46.5 -28.5t-61.5 -11z" />
    <glyph glyph-name="uni2084" unicode="&#x2084;" horiz-adv-x="345" 
d="M192 -15h-180l14 75l207 240h105l-47 -240h60l-14 -75h-60l-17 -85h-85zM206 60l26 130h-5l-112 -130h91z" />
    <glyph glyph-name="uni2085" unicode="&#x2085;" horiz-adv-x="345" 
d="M176 -105q-26 0 -51 6.5t-45 21t-33 36t-16 51.5h89q3 -14 18 -24.5t43 -10.5q31 0 49.5 19t18.5 49q0 29 -18 43t-42 14q-40 0 -55 -25h-85l69 225h245l-15 -75h-175l-21 -65h5q6 2 14 4q7 2 16 3.5t21 1.5q59 0 92.5 -31.5t33.5 -85.5q0 -34 -12 -62.5t-33 -49.5
t-50 -33t-63 -12z" />
    <glyph glyph-name="uni2086" unicode="&#x2086;" horiz-adv-x="350" 
d="M173 -105q-29 0 -54.5 9t-44.5 26.5t-30.5 42t-11.5 55.5q0 43 19 80.5t42 62.5l112 129h93l-112 -129q3 0 7 1q3 0 8 0.5t10 0.5q28 0 50.5 -9.5t38.5 -26.5t24.5 -39.5t8.5 -47.5q0 -34 -12.5 -62.5t-34.5 -49t-51 -32t-62 -11.5zM180 -25q35 0 51.5 23t16.5 52
q0 22 -14.5 38.5t-46.5 16.5q-36 0 -53 -23t-17 -51q0 -26 17 -41t46 -15z" />
    <glyph glyph-name="uni2087" unicode="&#x2087;" horiz-adv-x="300" 
d="M237 225h-164l15 75h260l-15 -75l-203 -325h-96z" />
    <glyph glyph-name="uni2088" unicode="&#x2088;" horiz-adv-x="360" 
d="M181 -105q-28 0 -53.5 6.5t-45.5 20.5t-32 34.5t-12 49.5q0 14 4 30t13.5 31t24.5 27.5t37 20.5q-18 11 -26 32.5t-8 43.5q0 23 9.5 43.5t27.5 36.5t43 25t57 9t57 -8.5t41.5 -23t25 -33.5t8.5 -40q0 -32 -17 -57t-49 -38q24 -13 33.5 -36.5t9.5 -45.5q0 -30 -11.5 -54
t-31 -40.5t-47 -25t-58.5 -8.5zM184 -30q27 0 44.5 17t17.5 40q0 17 -14.5 32.5t-45.5 15.5t-46 -17.5t-15 -37.5q0 -24 17.5 -37t41.5 -13zM217 145q25 0 37 14t12 31t-12 28.5t-39 11.5q-23 0 -36 -14t-13 -33q0 -20 16 -29t35 -9z" />
    <glyph glyph-name="uni2089" unicode="&#x2089;" horiz-adv-x="350" 
d="M212 29q-3 -1 -7 -1q-5 -1 -18 -1q-28 0 -50.5 9.5t-38.5 26.5t-24.5 39t-8.5 48q0 34 12.5 62.5t34.5 49t51 32t62 11.5q28 0 54 -9t45 -26.5t30.5 -42t11.5 -55.5q0 -43 -19 -80.5t-42 -62.5l-112 -129h-93zM211 95q36 0 53 23t17 51q0 26 -17 41t-46 15
q-35 0 -51.5 -23t-16.5 -52q0 -22 14.5 -38.5t46.5 -16.5z" />
    <glyph glyph-name="uni20A9" unicode="&#x20a9;" horiz-adv-x="975" 
d="M196 210h-141l20 100h119l-2 85h-101l20 100h79l-4 205h127l-5 -205h145l85 205h155l5 -205h145l75 205h133l-84 -205h79l-20 -100h-100l-34 -85h118l-20 -100h-139l-86 -210h-154l-6 210h-165l-85 -210h-155zM302 130l33 80h-35l-2 -80h4zM377 310l35 85h-108l-1 -85h74
zM602 310l-2 85h-83l-34 -85h119zM711 130l29 80h-36l2 -80h5zM597 495l-2 75h-5l-31 -75h38zM776 310l31 85h-107l2 -85h74z" />
    <glyph glyph-name="Euro" unicode="&#x20ac;" horiz-adv-x="750" 
d="M464 -10q-59 0 -109 14.5t-88.5 44t-64 73.5t-34.5 103h-110l18 90h87l7 70h-81l18 90h87q21 55 54 99t75 74t92.5 46t105.5 16q62 0 109.5 -14t82.5 -39.5t57 -61.5t33 -80h-131q-19 39 -55.5 62t-98.5 23q-61 0 -111.5 -32t-80.5 -93h266l-18 -90h-278l-7 -70h272
l-18 -90h-246q17 -62 60.5 -93.5t109.5 -31.5q54 0 91.5 21.5t66.5 63.5h136q-21 -42 -50.5 -77.5t-67 -61.5t-82.5 -41t-97 -15z" />
    <glyph glyph-name="uni20B4" unicode="&#x20b4;" horiz-adv-x="650" 
d="M355 -10q-56 0 -100.5 14t-75 37.5t-46.5 54t-16 64.5q0 17 7 36.5t19 38.5h-48l17 85h550l-17 -85h-374q-11 -11 -20 -26.5t-9 -29.5q0 -37 32.5 -58t80.5 -21q45 0 81.5 14t56.5 51h123q-13 -39 -35.5 -71t-55 -55t-75.5 -36t-95 -13zM140 465h374q11 11 20 26.5
t9 29.5q0 37 -32.5 58t-80.5 21q-45 0 -81.5 -14t-56.5 -51h-123q13 39 35.5 71t55 55t75 36t95.5 13q56 0 100.5 -14t75 -37.5t46.5 -54t16 -64.5q0 -17 -7 -36.5t-19 -38.5h48l-17 -85h-550z" />
    <glyph glyph-name="uni20B8" unicode="&#x20b8;" horiz-adv-x="615" 
d="M313 410h-215l22 110h555l-22 -110h-215l-79 -410h-125zM155 700h555l-22 -110h-555z" />
    <glyph glyph-name="uni20B9" unicode="&#x20b9;" horiz-adv-x="590" 
d="M240 240h-164l21 105h224q49 0 82.5 21t45.5 59h-337l19 95h330q-4 38 -33.5 56.5t-78.5 18.5h-204l21 105h525l-21 -105h-116q7 -7 13 -18q5 -9 10.5 -23t8.5 -34h70l-19 -95h-63q-10 -39 -30 -70t-46 -53t-57.5 -35t-65.5 -17l135 -250h-140z" />
    <glyph glyph-name="uni20BA" unicode="&#x20ba;" horiz-adv-x="595" 
d="M162 243l-97 -33l20 100l96 33l14 70l-97 -33l20 100l96 33l37 187h125l-28 -141l161 56l-19 -100l-161 -56l-14 -70l161 56l-19 -100l-161 -56l-35 -179h49q45 0 76.5 7t53 23.5t35.5 43.5t23 66h120q-14 -66 -36 -113t-58.5 -77.5t-90.5 -45t-133 -14.5h-185z" />
    <glyph glyph-name="uni20BD" unicode="&#x20bd;" horiz-adv-x="655" 
d="M121 110h-80l20 105h80l12 60h-80l20 105h80l63 320h274q47 0 83.5 -15.5t61 -42t37.5 -61.5t13 -73q0 -51 -17 -94t-48 -74t-74.5 -48t-95.5 -17h-192l-12 -60h205l-20 -105h-205l-21 -110h-125zM462 380q51 0 84.5 31.5t33.5 85.5q0 40 -27.5 66.5t-72.5 26.5h-141
l-41 -210h164z" />
    <glyph glyph-name="uni20BF" unicode="&#x20bf;" horiz-adv-x="660" 
d="M165 0h-90l136 700h90l21 110h105l-21 -110h75l21 110h105l-22 -117q60 -15 90 -60t30 -104q0 -35 -9.5 -64.5t-26 -53t-39 -40.5t-47.5 -26q31 -20 51.5 -54t20.5 -81q0 -46 -15 -84t-42 -65.5t-65 -43t-84 -17.5l-21 -110h-105l22 110h-75l-22 -110h-105zM428 110
q47 0 74.5 28.5t27.5 79.5q0 34 -20.5 58t-60.5 24h-191l-37 -190h207zM470 400q47 0 76 28t29 79q0 35 -20.5 59t-59.5 24h-181l-37 -190h193z" />
    <glyph glyph-name="uni2113" unicode="&#x2113;" horiz-adv-x="420" 
d="M320 -10q-150 0 -150 145v85q-12 -4 -26 -8q-12 -3 -28.5 -5t-35.5 -2v85q19 0 35.5 3t28.5 7q14 4 26 10v259q0 69 38 105t102 36t104.5 -41t40.5 -124q0 -56 -15.5 -103t-42.5 -84.5t-62.5 -65.5t-74.5 -47v-110q0 -60 70 -60q13 0 25 2t21 5q11 4 19 8v-90
q-10 -3 -21 -5q-22 -5 -54 -5zM260 345q49 30 77 81t28 119q0 80 -55 80q-23 0 -36.5 -15t-13.5 -49v-216z" />
    <glyph glyph-name="uni2116" unicode="&#x2116;" horiz-adv-x="1125" 
d="M211 700h165l195 -537h5l105 537h125l-136 -700h-165l-195 537h-5l-105 -537h-125zM779 100h310l-19 -100h-310zM965 160q-69 0 -111 40.5t-42 106.5q0 41 14 75t38.5 58t57 37t69.5 13q69 0 111 -40.5t42 -106.5q0 -41 -14 -75t-38.5 -58t-57 -37t-69.5 -13zM969 245
q32 0 56 24t24 67q0 31 -17 50t-44 19q-32 0 -56.5 -24t-24.5 -67q0 -31 17 -50t45 -19z" />
    <glyph glyph-name="uni2117" unicode="&#x2117;" horiz-adv-x="830" 
d="M485 -10q-79 0 -145 26.5t-114 74.5t-74.5 114t-26.5 145t26.5 145t74.5 114t114 74.5t145 26.5t145 -26.5t114 -74.5t74.5 -114t26.5 -145t-26.5 -145t-74.5 -114t-114 -74.5t-145 -26.5zM485 70q60 0 110.5 20.5t87 57.5t57 88.5t20.5 113.5t-20.5 113.5t-57 88.5
t-87 57.5t-110.5 20.5t-110.5 -20.5t-87 -57.5t-57 -88.5t-20.5 -113.5t20.5 -113.5t57 -88.5t87 -57.5t110.5 -20.5zM350 540h160q34 0 59 -9.5t42 -26.5t25.5 -40t8.5 -49q0 -57 -33.5 -93.5t-101.5 -36.5h-75v-120h-85v375zM500 360q60 0 60 55q0 23 -15 36.5t-45 13.5
h-65v-105h65z" />
    <glyph glyph-name="trademark" unicode="&#x2122;" horiz-adv-x="735" 
d="M200 625h-95v75h270v-75h-95v-235h-80v235zM410 700h115l60 -205h5l60 205h115v-310h-80v190h-5l-55 -190h-75l-55 190h-5v-190h-80v310z" />
    <glyph glyph-name="uni2126" unicode="&#x2126;" horiz-adv-x="820" 
d="M160 85h115q-41 24 -73 64q-27 34 -49.5 88t-22.5 133q0 75 23.5 137.5t68.5 107.5t110 70t148 25q82 0 147 -25t110 -70t69 -107.5t24 -137.5q0 -79 -23 -133t-50 -88q-32 -40 -72 -64h115v-85h-255v85q53 24 95 64q18 17 35 38.5t30.5 48.5t21.5 59t8 70q0 56 -18 104
t-51.5 82.5t-80.5 54t-105 19.5t-105 -19.5t-80.5 -54t-51.5 -82.5t-18 -104q0 -38 8 -70t21.5 -59t30.5 -48.5t35 -38.5q41 -40 95 -64v-85h-255v85z" />
    <glyph glyph-name="estimated" unicode="&#x212e;" horiz-adv-x="850" 
d="M505 -20q-83 0 -152.5 28t-120 77t-79 114.5t-28.5 140.5t28.5 140.5t78 114.5t117 77t146.5 28t146.5 -28t117 -77t78 -114.5t28.5 -140.5v-5h-575q-15 0 -15 -15v-195q0 -11 5 -30t35 -38q4 -2 17.5 -10.5t37.5 -17.5t57.5 -16.5t77.5 -7.5q66 0 115 20.5t83 46.5
q39 30 67 68h55q-33 -45 -81 -80q-41 -30 -100.5 -55t-138.5 -25zM700 360q15 0 15 15v185q0 10 -5 28.5t-35 37.5q-6 4 -21.5 12t-39 16t-54 14.5t-65.5 6.5q-36 0 -66.5 -6.5t-54 -14.5t-38.5 -16.5t-21 -11.5q-30 -19 -35 -37t-5 -29v-185q0 -15 15 -15h410z" />
    <glyph glyph-name="uni2150" unicode="&#x2150;" horiz-adv-x="780" 
d="M656 700h98l-571 -700h-98zM225 565h-90l15 80h65q25 0 30 25l6 30h85l-78 -400h-85zM701 325h-164l15 75h260l-15 -75l-203 -325h-96z" />
    <glyph glyph-name="uni2151" unicode="&#x2151;" horiz-adv-x="790" 
d="M656 700h98l-571 -700h-98zM225 565h-90l15 80h65q25 0 30 25l6 30h85l-78 -400h-85zM646 129q-3 -1 -7 -1q-5 -1 -18 -1q-28 0 -50.5 9.5t-38.5 26.5t-24.5 39t-8.5 48q0 34 12.5 62.5t34.5 49t51 32t62 11.5q28 0 54 -9t45 -26.5t30.5 -42t11.5 -55.5q0 -43 -19 -80.5
t-42 -62.5l-112 -129h-93zM645 195q36 0 53 23t17 51q0 26 -17 41t-46 15q-35 0 -51.5 -23t-16.5 -52q0 -22 14.5 -38.5t46.5 -16.5z" />
    <glyph glyph-name="uni2152" unicode="&#x2152;" horiz-adv-x="1045" 
d="M657 700h98l-571 -700h-98zM225 565h-90l15 80h65q25 0 30 25l6 30h85l-78 -400h-85zM597 265h-90l15 80h65q25 0 30 25l6 30h85l-78 -400h-85zM850 -5q-66 0 -104.5 40t-37.5 113q0 63 16 111t42.5 80.5t60 49t68.5 16.5q66 0 104.5 -40t37.5 -113q0 -63 -16 -111
t-42.5 -80.5t-60 -49t-68.5 -16.5zM854 75q15 0 32 10.5t31.5 31t24 51.5t9.5 73t-17 63t-43 21q-15 0 -32 -10.5t-31.5 -31t-24 -51.5t-9.5 -73t17 -63t43 -21z" />
    <glyph glyph-name="onethird" unicode="&#x2153;" horiz-adv-x="785" 
d="M656 700h98l-571 -700h-98zM225 565h-90l15 80h65q25 0 30 25l6 30h85l-78 -400h-85zM611 -5q-29 0 -54 6t-44 19.5t-30.5 34.5t-14.5 50h88q3 -14 16 -22t39 -8q27 0 43 15t16 39q0 14 -10 27.5t-33 13.5h-40l15 75h47q26 0 36 13.5t10 30.5q0 16 -12 25.5t-40 9.5
q-20 0 -34.5 -12t-19.5 -32h-91q5 26 17.5 49t31.5 40t44 26.5t55 9.5q33 0 59 -8.5t44 -23t27.5 -34t9.5 -40.5t-7 -38t-17.5 -29t-23 -19.5t-23.5 -10.5q22 -15 32.5 -36.5t10.5 -44.5q0 -24 -10 -46.5t-29 -40t-46.5 -28.5t-61.5 -11z" />
    <glyph glyph-name="twothirds" unicode="&#x2154;" horiz-adv-x="865" 
d="M736 700h98l-571 -700h-98zM113 375l171 139q24 20 39 36.5t15 36.5q0 14 -11 26t-39 12q-22 0 -35 -12.5t-16 -32.5h-91q6 24 17 47t29 40t43.5 27.5t59.5 10.5q66 0 100 -31.5t34 -78.5q0 -42 -21.5 -69.5t-59.5 -58.5l-115 -92h150l-15 -75h-270zM691 -5q-29 0 -54 6
t-44 19.5t-30.5 34.5t-14.5 50h88q3 -14 16 -22t39 -8q27 0 43 15t16 39q0 14 -10 27.5t-33 13.5h-40l15 75h47q26 0 36 13.5t10 30.5q0 16 -12 25.5t-40 9.5q-20 0 -34.5 -12t-19.5 -32h-91q5 26 17.5 49t31.5 40t44 26.5t55 9.5q33 0 59 -8.5t44 -23t27.5 -34t9.5 -40.5
t-7 -38t-17.5 -29t-23 -19.5t-23.5 -10.5q22 -15 32.5 -36.5t10.5 -44.5q0 -24 -10 -46.5t-29 -40t-46.5 -28.5t-61.5 -11z" />
    <glyph glyph-name="uni2155" unicode="&#x2155;" horiz-adv-x="800" 
d="M656 700h98l-571 -700h-98zM225 565h-90l15 80h65q25 0 30 25l6 30h85l-78 -400h-85zM625 -5q-26 0 -51 6.5t-45 21t-33 36t-16 51.5h89q3 -14 18 -24.5t43 -10.5q31 0 49.5 19t18.5 49q0 29 -18 43t-42 14q-40 0 -55 -25h-85l69 225h245l-15 -75h-175l-21 -65h5
q6 2 14 4q7 2 16 3.5t21 1.5q59 0 92.5 -31.5t33.5 -85.5q0 -34 -12 -62.5t-33 -49.5t-50 -33t-63 -12z" />
    <glyph glyph-name="uni2156" unicode="&#x2156;" horiz-adv-x="880" 
d="M736 700h98l-571 -700h-98zM113 375l171 139q24 20 39 36.5t15 36.5q0 14 -11 26t-39 12q-22 0 -35 -12.5t-16 -32.5h-91q6 24 17 47t29 40t43.5 27.5t59.5 10.5q66 0 100 -31.5t34 -78.5q0 -42 -21.5 -69.5t-59.5 -58.5l-115 -92h150l-15 -75h-270zM705 -5
q-26 0 -51 6.5t-45 21t-33 36t-16 51.5h89q3 -14 18 -24.5t43 -10.5q31 0 49.5 19t18.5 49q0 29 -18 43t-42 14q-40 0 -55 -25h-85l69 225h245l-15 -75h-175l-21 -65h5q6 2 14 4q7 2 16 3.5t21 1.5q59 0 92.5 -31.5t33.5 -85.5q0 -34 -12 -62.5t-33 -49.5t-50 -33t-63 -12z
" />
    <glyph glyph-name="uni2157" unicode="&#x2157;" horiz-adv-x="875" 
d="M736 700h98l-571 -700h-98zM255 295q-29 0 -54 6t-44 19.5t-30.5 34.5t-14.5 50h88q3 -14 16 -22t39 -8q27 0 43 15t16 39q0 14 -10 27.5t-33 13.5h-40l15 75h47q26 0 36 13.5t10 30.5q0 16 -12 25.5t-40 9.5q-20 0 -34.5 -12t-19.5 -32h-91q5 26 17.5 49t31.5 40
t44 26.5t55 9.5q33 0 59 -8.5t44 -23t27.5 -34t9.5 -40.5t-7 -38t-17.5 -29t-23 -19.5t-23.5 -10.5q22 -15 32.5 -36.5t10.5 -44.5q0 -24 -10 -46.5t-29 -40t-46.5 -28.5t-61.5 -11zM700 -5q-26 0 -51 6.5t-45 21t-33 36t-16 51.5h89q3 -14 18 -24.5t43 -10.5q31 0 49.5 19
t18.5 49q0 29 -18 43t-42 14q-40 0 -55 -25h-85l69 225h245l-15 -75h-175l-21 -65h5q6 2 14 4q7 2 16 3.5t21 1.5q59 0 92.5 -31.5t33.5 -85.5q0 -34 -12 -62.5t-33 -49.5t-50 -33t-63 -12z" />
    <glyph glyph-name="uni2158" unicode="&#x2158;" horiz-adv-x="895" 
d="M751 700h98l-571 -700h-98zM275 385h-180l14 75l207 240h105l-47 -240h60l-14 -75h-60l-17 -85h-85zM289 460l26 130h-5l-112 -130h91zM720 -5q-26 0 -51 6.5t-45 21t-33 36t-16 51.5h89q3 -14 18 -24.5t43 -10.5q31 0 49.5 19t18.5 49q0 29 -18 43t-42 14q-40 0 -55 -25
h-85l69 225h245l-15 -75h-175l-21 -65h5q6 2 14 4q7 2 16 3.5t21 1.5q59 0 92.5 -31.5t33.5 -85.5q0 -34 -12 -62.5t-33 -49.5t-50 -33t-63 -12z" />
    <glyph glyph-name="uni2159" unicode="&#x2159;" horiz-adv-x="775" 
d="M656 700h98l-571 -700h-98zM225 565h-90l15 80h65q25 0 30 25l6 30h85l-78 -400h-85zM602 -5q-29 0 -54.5 9t-44.5 26.5t-30.5 42t-11.5 55.5q0 43 19 80.5t42 62.5l112 129h93l-112 -129q3 0 7 1q3 0 8 0.5t10 0.5q28 0 50.5 -9.5t38.5 -26.5t24.5 -39.5t8.5 -47.5
q0 -34 -12.5 -62.5t-34.5 -49t-51 -32t-62 -11.5zM609 75q35 0 51.5 23t16.5 52q0 22 -14.5 38.5t-46.5 16.5q-36 0 -53 -23t-17 -51q0 -26 17 -41t46 -15z" />
    <glyph glyph-name="uni215A" unicode="&#x215a;" horiz-adv-x="875" 
d="M756 700h98l-571 -700h-98zM268 295q-26 0 -51 6.5t-45 21t-33 36t-16 51.5h89q3 -14 18 -24.5t43 -10.5q31 0 49.5 19t18.5 49q0 29 -18 43t-42 14q-40 0 -55 -25h-85l69 225h245l-15 -75h-175l-21 -65h5q6 2 14 4q7 2 16 3.5t21 1.5q59 0 92.5 -31.5t33.5 -85.5
q0 -34 -12 -62.5t-33 -49.5t-50 -33t-63 -12zM702 -5q-29 0 -54.5 9t-44.5 26.5t-30.5 42t-11.5 55.5q0 43 19 80.5t42 62.5l112 129h93l-112 -129q3 0 7 1q3 0 8 0.5t10 0.5q28 0 50.5 -9.5t38.5 -26.5t24.5 -39.5t8.5 -47.5q0 -34 -12.5 -62.5t-34.5 -49t-51 -32
t-62 -11.5zM709 75q35 0 51.5 23t16.5 52q0 22 -14.5 38.5t-46.5 16.5q-36 0 -53 -23t-17 -51q0 -26 17 -41t46 -15z" />
    <glyph glyph-name="oneeighth" unicode="&#x215b;" horiz-adv-x="795" 
d="M656 700h98l-571 -700h-98zM225 565h-90l15 80h65q25 0 30 25l6 30h85l-78 -400h-85zM625 -5q-28 0 -53.5 6.5t-45.5 20.5t-32 34.5t-12 49.5q0 14 4 30t13.5 31t24.5 27.5t37 20.5q-18 11 -26 32.5t-8 43.5q0 23 9.5 43.5t27.5 36.5t43 25t57 9t57 -8.5t41.5 -23
t25 -33.5t8.5 -40q0 -32 -17 -57t-49 -38q24 -13 33.5 -36.5t9.5 -45.5q0 -30 -11.5 -54t-31 -40.5t-47 -25t-58.5 -8.5zM628 70q27 0 44.5 17t17.5 40q0 17 -14.5 32.5t-45.5 15.5t-46 -17.5t-15 -37.5q0 -24 17.5 -37t41.5 -13zM661 245q25 0 37 14t12 31t-12 28.5
t-39 11.5q-23 0 -36 -14t-13 -33q0 -20 16 -29t35 -9z" />
    <glyph glyph-name="threeeighths" unicode="&#x215c;" horiz-adv-x="875" 
d="M736 700h98l-571 -700h-98zM255 295q-29 0 -54 6t-44 19.5t-30.5 34.5t-14.5 50h88q3 -14 16 -22t39 -8q27 0 43 15t16 39q0 14 -10 27.5t-33 13.5h-40l15 75h47q26 0 36 13.5t10 30.5q0 16 -12 25.5t-40 9.5q-20 0 -34.5 -12t-19.5 -32h-91q5 26 17.5 49t31.5 40
t44 26.5t55 9.5q33 0 59 -8.5t44 -23t27.5 -34t9.5 -40.5t-7 -38t-17.5 -29t-23 -19.5t-23.5 -10.5q22 -15 32.5 -36.5t10.5 -44.5q0 -24 -10 -46.5t-29 -40t-46.5 -28.5t-61.5 -11zM705 -5q-28 0 -53.5 6.5t-45.5 20.5t-32 34.5t-12 49.5q0 14 4 30t13.5 31t24.5 27.5
t37 20.5q-18 11 -26 32.5t-8 43.5q0 23 9.5 43.5t27.5 36.5t43 25t57 9t57 -8.5t41.5 -23t25 -33.5t8.5 -40q0 -32 -17 -57t-49 -38q24 -13 33.5 -36.5t9.5 -45.5q0 -30 -11.5 -54t-31 -40.5t-47 -25t-58.5 -8.5zM708 70q27 0 44.5 17t17.5 40q0 17 -14.5 32.5t-45.5 15.5
t-46 -17.5t-15 -37.5q0 -24 17.5 -37t41.5 -13zM741 245q25 0 37 14t12 31t-12 28.5t-39 11.5q-23 0 -36 -14t-13 -33q0 -20 16 -29t35 -9z" />
    <glyph glyph-name="fiveeighths" unicode="&#x215d;" horiz-adv-x="895" 
d="M756 700h98l-571 -700h-98zM268 295q-26 0 -51 6.5t-45 21t-33 36t-16 51.5h89q3 -14 18 -24.5t43 -10.5q31 0 49.5 19t18.5 49q0 29 -18 43t-42 14q-40 0 -55 -25h-85l69 225h245l-15 -75h-175l-21 -65h5q6 2 14 4q7 2 16 3.5t21 1.5q59 0 92.5 -31.5t33.5 -85.5
q0 -34 -12 -62.5t-33 -49.5t-50 -33t-63 -12zM725 -5q-28 0 -53.5 6.5t-45.5 20.5t-32 34.5t-12 49.5q0 14 4 30t13.5 31t24.5 27.5t37 20.5q-18 11 -26 32.5t-8 43.5q0 23 9.5 43.5t27.5 36.5t43 25t57 9t57 -8.5t41.5 -23t25 -33.5t8.5 -40q0 -32 -17 -57t-49 -38
q24 -13 33.5 -36.5t9.5 -45.5q0 -30 -11.5 -54t-31 -40.5t-47 -25t-58.5 -8.5zM728 70q27 0 44.5 17t17.5 40q0 17 -14.5 32.5t-45.5 15.5t-46 -17.5t-15 -37.5q0 -24 17.5 -37t41.5 -13zM761 245q25 0 37 14t12 31t-12 28.5t-39 11.5q-23 0 -36 -14t-13 -33q0 -20 16 -29
t35 -9z" />
    <glyph glyph-name="seveneighths" unicode="&#x215e;" horiz-adv-x="800" 
d="M661 700h98l-571 -700h-98zM325 625h-164l15 75h260l-15 -75l-203 -325h-96zM630 -5q-28 0 -53.5 6.5t-45.5 20.5t-32 34.5t-12 49.5q0 14 4 30t13.5 31t24.5 27.5t37 20.5q-18 11 -26 32.5t-8 43.5q0 23 9.5 43.5t27.5 36.5t43 25t57 9t57 -8.5t41.5 -23t25 -33.5
t8.5 -40q0 -32 -17 -57t-49 -38q24 -13 33.5 -36.5t9.5 -45.5q0 -30 -11.5 -54t-31 -40.5t-47 -25t-58.5 -8.5zM633 70q27 0 44.5 17t17.5 40q0 17 -14.5 32.5t-45.5 15.5t-46 -17.5t-15 -37.5q0 -24 17.5 -37t41.5 -13zM666 245q25 0 37 14t12 31t-12 28.5t-39 11.5
q-23 0 -36 -14t-13 -33q0 -20 16 -29t35 -9z" />
    <glyph glyph-name="uni215F" unicode="&#x215f;" horiz-adv-x="420" 
d="M656 700h98l-571 -700h-98zM225 565h-90l15 80h65q25 0 30 25l6 30h85l-78 -400h-85z" />
    <glyph glyph-name="uni2190" unicode="&#x2190;" 
d="M220 345v5l215 215l55 -55l-120 -120h550v-85h-550l120 -120l-55 -55z" />
    <glyph glyph-name="uni2191" unicode="&#x2191;" 
d="M525 550l-120 -120l-55 55l215 215h5l215 -215l-55 -55l-120 120v-550h-85v550z" />
    <glyph glyph-name="uni2192" unicode="&#x2192;" 
d="M650 185l120 120h-550v85h550l-120 120l55 55l215 -215v-5l-215 -215z" />
    <glyph glyph-name="uni2193" unicode="&#x2193;" 
d="M350 215l55 55l120 -120v550h85v-550l120 120l55 -55l-215 -215h-5z" />
    <glyph glyph-name="uni2194" unicode="&#x2194;" 
d="M200 345v5l215 215l55 -55l-120 -120h440l-120 120l55 55l215 -215v-5l-215 -215l-55 55l120 120h-440l120 -120l-55 -55z" />
    <glyph glyph-name="uni2195" unicode="&#x2195;" 
d="M350 195l55 55l120 -120v440l-120 -120l-55 55l215 215h5l215 -215l-55 -55l-120 120v-440l120 120l55 -55l-215 -215h-5z" />
    <glyph glyph-name="uni2196" unicode="&#x2196;" 
d="M355 510v-170h-85v300l10 10h300v-85h-170l460 -460l-55 -55z" />
    <glyph glyph-name="uni2197" unicode="&#x2197;" 
d="M270 105l460 460h-170v85h300l10 -10v-300h-85v170l-460 -460z" />
    <glyph glyph-name="uni2198" unicode="&#x2198;" 
d="M560 135h170l-460 460l55 55l460 -460v170h85v-300l-10 -10h-300v85z" />
    <glyph glyph-name="uni2199" unicode="&#x2199;" 
d="M270 60v300h85v-170l460 460l55 -55l-460 -460h170v-85h-300z" />
    <glyph glyph-name="uni21C5" unicode="&#x21c5;" 
d="M360 550l-120 -120l-55 55l215 215h5l215 -215l-55 -55l-120 120v-550h-85v550zM520 215l55 55l120 -120v550h85v-550l120 120l55 -55l-215 -215h-5z" />
    <glyph glyph-name="uni21F5" unicode="&#x21f5;" 
d="M185 215l55 55l120 -120v550h85v-550l120 120l55 -55l-215 -215h-5zM695 550l-120 -120l-55 55l215 215h5l215 -215l-55 -55l-120 120v-550h-85v550z" />
    <glyph glyph-name="partialdiff" unicode="&#x2202;" horiz-adv-x="575" 
d="M335 -10q-49 0 -91 15.5t-73 45.5t-48.5 74t-17.5 100q0 52 16 94.5t44.5 72.5t68 46.5t86.5 16.5q49 0 90 -15.5t75 -49.5h5q0 52 -11 95.5t-32 74.5t-52 48t-70 17q-38 0 -58.5 -13.5t-31.5 -36.5h-95q6 24 20 48.5t37 43.5t56 31t75 12q122 0 187 -89.5t65 -270.5
q0 -177 -58.5 -268.5t-186.5 -91.5zM335 75q68 0 109 50.5t41 159.5q-15 24 -36 42q-18 16 -46.5 29.5t-67.5 13.5q-64 0 -102 -38.5t-38 -106.5q0 -72 38 -111t102 -39z" />
    <glyph glyph-name="emptyset" unicode="&#x2205;" horiz-adv-x="820" 
d="M480 -10q-116 0 -200 52l-40 -47h-115l87 104q-42 48 -64.5 111t-22.5 140q0 81 25 147t71.5 113.5t112 73.5t146.5 26q58 0 108 -13.5t92 -39.5l40 48h115l-88 -105q42 -47 65 -110t23 -140q0 -81 -25 -147t-71.5 -113.5t-112 -73.5t-146.5 -26zM620 586
q-29 19 -64.5 29t-75.5 10q-58 0 -106 -20.5t-82 -57t-53 -87t-19 -110.5q0 -52 14 -97t40 -80zM480 75q58 0 106 20.5t82 57t53 87t19 110.5q0 52 -14.5 96.5t-40.5 79.5l-346 -413q30 -18 65 -28t76 -10z" />
    <glyph glyph-name="uni2206" unicode="&#x2206;" horiz-adv-x="650" 
d="M305 700h120l250 -700h-620zM550 85l-185 515l-185 -515h370z" />
    <glyph glyph-name="product" unicode="&#x220f;" horiz-adv-x="710" 
d="M160 700h520v-810h-95v725h-330v-725h-95v810z" />
    <glyph glyph-name="summation" unicode="&#x2211;" horiz-adv-x="585" 
d="M141 -25l225 340l-225 300v85h475v-85h-365l225 -300l-225 -340h365v-85h-475v85z" />
    <glyph glyph-name="minus" unicode="&#x2212;" horiz-adv-x="555" 
d="M100 355h475v-95h-475v95z" />
    <glyph glyph-name="radical" unicode="&#x221a;" horiz-adv-x="635" 
d="M200 140h-120v85h190l80 -235h10l225 735h95l-255 -835h-140z" />
    <glyph glyph-name="infinity" unicode="&#x221e;" horiz-adv-x="790" 
d="M290 185q-75 0 -120 45t-45 120t45 120t120 45q28 0 53.5 -9.5t47.5 -24.5t40.5 -33.5t33.5 -37.5q15 19 33.5 37.5t40.5 33.5t47.5 24.5t53.5 9.5q75 0 120 -45t45 -120t-45 -120t-120 -45q-28 0 -53.5 9.5t-47.5 24.5t-40.5 33.5t-33.5 37.5q-15 -19 -33.5 -37.5
t-40.5 -33.5t-47.5 -24.5t-53.5 -9.5zM290 260q21 0 40.5 7.5t36.5 20.5t32 29t26 33q-11 17 -26 33t-32 29t-36.5 20.5t-40.5 7.5q-38 0 -61.5 -26t-23.5 -64t23.5 -64t61.5 -26zM640 260q38 0 61.5 26t23.5 64t-23.5 64t-61.5 26q-21 0 -40.5 -7.5t-36.5 -20.5t-32 -29
t-26 -33q11 -17 26 -33t32 -29t36.5 -20.5t40.5 -7.5z" />
    <glyph glyph-name="integral" unicode="&#x222b;" horiz-adv-x="380" 
d="M105 -25h15q28 0 45.5 6t27.5 19.5t13.5 35.5t3.5 54v520q0 54 10 92t31 62t54 35t80 11h20v-85h-15q-28 0 -45.5 -6t-27.5 -19.5t-13.5 -35.5t-3.5 -54v-520q0 -54 -10 -92t-31 -62t-54 -35t-80 -11h-20v85z" />
    <glyph glyph-name="approxequal" unicode="&#x2248;" horiz-adv-x="595" 
d="M115 120q0 34 9.5 63t27.5 50.5t45 34t63 12.5q32 0 57.5 -9.5t47.5 -20.5t40 -20.5t35 -9.5q23 0 39 17t16 43h105q0 -34 -9.5 -63t-27.5 -50.5t-45 -34t-63 -12.5q-32 0 -57.5 9.5t-47.5 20.5t-40 20.5t-35 9.5q-23 0 -39 -17t-16 -43h-105zM115 325q0 34 9.5 63
t27.5 50.5t45 34t63 12.5q32 0 57.5 -9.5t47.5 -20.5t40 -20.5t35 -9.5q23 0 39 17t16 43h105q0 -34 -9.5 -63t-27.5 -50.5t-45 -34t-63 -12.5q-32 0 -57.5 9.5t-47.5 20.5t-40 20.5t-35 9.5q-23 0 -39 -17t-16 -43h-105z" />
    <glyph glyph-name="notequal" unicode="&#x2260;" horiz-adv-x="550" 
d="M220 150h-125v95h166l53 120h-219v95h260l35 80h95l-35 -80h125v-95h-166l-53 -120h219v-95h-260l-35 -80h-95z" />
    <glyph glyph-name="lessequal" unicode="&#x2264;" horiz-adv-x="525" 
d="M100 90h435v-90h-435v90zM100 305v90l435 185v-105l-320 -125l320 -125v-105z" />
    <glyph glyph-name="greaterequal" unicode="&#x2265;" horiz-adv-x="525" 
d="M115 90h435v-90h-435v90zM115 225l320 125l-320 125v105l435 -185v-90l-435 -185v105z" />
    <glyph glyph-name="uni2318" unicode="&#x2318;" horiz-adv-x="815" 
d="M275 0q-68 0 -109 40.5t-41 104.5q0 65 41.5 102.5t113.5 37.5h65v130h-65q-72 0 -113.5 37.5t-41.5 102.5q0 64 41 104.5t109 40.5q66 0 105.5 -37.5t39.5 -112.5v-65h125v65q0 75 39.5 112.5t105.5 37.5q68 0 109 -40.5t41 -104.5q0 -65 -41.5 -102.5t-113.5 -37.5h-65
v-130h65q72 0 113.5 -37.5t41.5 -102.5q0 -64 -41 -104.5t-109 -40.5q-66 0 -105.5 37.5t-39.5 112.5v65h-125v-65q0 -75 -39.5 -112.5t-105.5 -37.5zM275 75q30 0 50 20.5t20 54.5v65h-64q-35 0 -55.5 -20t-20.5 -50t20 -50t50 -20zM545 285v130h-125v-130h125zM345 485v65
q0 34 -20 54.5t-50 20.5t-50 -20t-20 -50t20.5 -50t55.5 -20h64zM690 75q30 0 50 20t20 50t-20.5 50t-55.5 20h-64v-65q0 -34 20 -54.5t50 -20.5zM684 485q35 0 55.5 20t20.5 50t-20 50t-50 20t-50 -20.5t-20 -54.5v-65h64z" />
    <glyph glyph-name="uni2460" unicode="&#x2460;" 
d="M545 415h-90v80h65q25 0 25 25v30h85v-400h-85v265zM570 -75q-90 0 -167.5 33.5t-135 91t-90 135t-32.5 165.5t32.5 165.5t90 135t135 91t167.5 33.5t167.5 -33.5t135 -91t90 -135t32.5 -165.5t-32.5 -165.5t-90 -135t-135 -91t-167.5 -33.5zM570 -5q75 0 140 27.5
t112.5 75t75 112.5t27.5 140t-27.5 140t-75 112.5t-112.5 75t-140 27.5t-140 -27.5t-112.5 -75t-75 -112.5t-27.5 -140t27.5 -140t75 -112.5t112.5 -75t140 -27.5z" />
    <glyph glyph-name="uni2461" unicode="&#x2461;" 
d="M440 225l145 140q20 20 30 36t10 34q0 15 -12 27.5t-38 12.5t-38 -13t-12 -32h-90q2 26 11.5 49t27.5 40t44 26.5t62 9.5q64 0 99.5 -33.5t35.5 -86.5q0 -33 -13.5 -58.5t-41.5 -51.5l-105 -100h155v-75h-270v75zM570 -75q-90 0 -167.5 33.5t-135 91t-90 135t-32.5 165.5
t32.5 165.5t90 135t135 91t167.5 33.5t167.5 -33.5t135 -91t90 -135t32.5 -165.5t-32.5 -165.5t-90 -135t-135 -91t-167.5 -33.5zM570 -5q75 0 140 27.5t112.5 75t75 112.5t27.5 140t-27.5 140t-75 112.5t-112.5 75t-140 27.5t-140 -27.5t-112.5 -75t-75 -112.5t-27.5 -140
t27.5 -140t75 -112.5t112.5 -75t140 -27.5z" />
    <glyph glyph-name="uni2462" unicode="&#x2462;" 
d="M575 145q-60 0 -98.5 28.5t-46.5 81.5h90q4 -15 16.5 -22.5t38.5 -7.5t40.5 13.5t14.5 36.5q0 19 -12 32t-38 13h-40v75h40q26 0 35.5 12.5t9.5 27.5q0 40 -50 40q-26 0 -38.5 -13t-16.5 -32h-90q2 26 11.5 49t27.5 40t44 26.5t62 9.5q32 0 58 -9t44 -24t28 -35t10 -42
q0 -34 -18 -55.5t-37 -29.5q30 -15 45 -39.5t15 -50.5q0 -24 -8.5 -47t-26.5 -40t-45.5 -27.5t-64.5 -10.5zM570 -75q-90 0 -167.5 33.5t-135 91t-90 135t-32.5 165.5t32.5 165.5t90 135t135 91t167.5 33.5t167.5 -33.5t135 -91t90 -135t32.5 -165.5t-32.5 -165.5t-90 -135
t-135 -91t-167.5 -33.5zM570 -5q75 0 140 27.5t112.5 75t75 112.5t27.5 140t-27.5 140t-75 112.5t-112.5 75t-140 27.5t-140 -27.5t-112.5 -75t-75 -112.5t-27.5 -140t27.5 -140t75 -112.5t112.5 -75t140 -27.5z" />
    <glyph glyph-name="uni2463" unicode="&#x2463;" 
d="M575 235h-180v75l160 240h105v-240h60v-75h-60v-85h-85v85zM575 310v135h-5l-90 -135h95zM570 -75q-90 0 -167.5 33.5t-135 91t-90 135t-32.5 165.5t32.5 165.5t90 135t135 91t167.5 33.5t167.5 -33.5t135 -91t90 -135t32.5 -165.5t-32.5 -165.5t-90 -135t-135 -91
t-167.5 -33.5zM570 -5q75 0 140 27.5t112.5 75t75 112.5t27.5 140t-27.5 140t-75 112.5t-112.5 75t-140 27.5t-140 -27.5t-112.5 -75t-75 -112.5t-27.5 -140t27.5 -140t75 -112.5t112.5 -75t140 -27.5z" />
    <glyph glyph-name="uni2464" unicode="&#x2464;" 
d="M575 145q-30 0 -56 9t-45.5 24.5t-32 36.5t-16.5 45h90q4 -15 19 -25t41 -10q30 0 47.5 17t17.5 43q0 34 -20 49.5t-50 15.5q-19 0 -30.5 -7t-19.5 -18h-85l25 225h245v-75h-175l-10 -70h5q7 3 17 7q8 3 20.5 5.5t27.5 2.5q60 0 97.5 -35.5t37.5 -98.5q0 -30 -11 -56
t-30.5 -45t-47 -29.5t-61.5 -10.5zM570 -75q-90 0 -167.5 33.5t-135 91t-90 135t-32.5 165.5t32.5 165.5t90 135t135 91t167.5 33.5t167.5 -33.5t135 -91t90 -135t32.5 -165.5t-32.5 -165.5t-90 -135t-135 -91t-167.5 -33.5zM570 -5q75 0 140 27.5t112.5 75t75 112.5
t27.5 140t-27.5 140t-75 112.5t-112.5 75t-140 27.5t-140 -27.5t-112.5 -75t-75 -112.5t-27.5 -140t27.5 -140t75 -112.5t112.5 -75t140 -27.5z" />
    <glyph glyph-name="uni2465" unicode="&#x2465;" 
d="M570 145q-36 0 -63.5 11.5t-47 31t-29.5 46t-10 56.5q0 37 10 67t25 53l95 140h90l-88 -130q4 1 9 2t10.5 2t13.5 1q30 0 55 -10.5t42.5 -29.5t27.5 -44.5t10 -55.5t-11.5 -55.5t-31.5 -44.5t-47.5 -29.5t-59.5 -10.5zM570 225q34 0 49.5 19.5t15.5 45.5t-15.5 45.5
t-49.5 19.5t-49.5 -19.5t-15.5 -45.5t15 -45.5t50 -19.5zM570 -75q-90 0 -167.5 33.5t-135 91t-90 135t-32.5 165.5t32.5 165.5t90 135t135 91t167.5 33.5t167.5 -33.5t135 -91t90 -135t32.5 -165.5t-32.5 -165.5t-90 -135t-135 -91t-167.5 -33.5zM570 -5q75 0 140 27.5
t112.5 75t75 112.5t27.5 140t-27.5 140t-75 112.5t-112.5 75t-140 27.5t-140 -27.5t-112.5 -75t-75 -112.5t-27.5 -140t27.5 -140t75 -112.5t112.5 -75t140 -27.5z" />
    <glyph glyph-name="uni2466" unicode="&#x2466;" 
d="M615 475h-170v75h260v-75l-140 -325h-90zM570 -75q-90 0 -167.5 33.5t-135 91t-90 135t-32.5 165.5t32.5 165.5t90 135t135 91t167.5 33.5t167.5 -33.5t135 -91t90 -135t32.5 -165.5t-32.5 -165.5t-90 -135t-135 -91t-167.5 -33.5zM570 -5q75 0 140 27.5t112.5 75
t75 112.5t27.5 140t-27.5 140t-75 112.5t-112.5 75t-140 27.5t-140 -27.5t-112.5 -75t-75 -112.5t-27.5 -140t27.5 -140t75 -112.5t112.5 -75t140 -27.5z" />
    <glyph glyph-name="uni2467" unicode="&#x2467;" 
d="M570 145q-64 0 -104.5 31.5t-40.5 88.5q0 26 13 53t47 42q-23 11 -36.5 35t-13.5 50q0 45 35.5 77.5t99.5 32.5t99.5 -32.5t35.5 -77.5q0 -26 -13.5 -50t-36.5 -35q34 -15 47 -42t13 -53q0 -57 -40.5 -88.5t-104.5 -31.5zM570 220q30 0 45 16t15 39q0 19 -15 34.5
t-45 15.5t-45 -15.5t-15 -34.5q0 -23 15 -39t45 -16zM570 395q26 0 38 12.5t12 27.5q0 19 -12 32t-38 13t-38 -13t-12 -32q0 -15 12 -27.5t38 -12.5zM570 -75q-90 0 -167.5 33.5t-135 91t-90 135t-32.5 165.5t32.5 165.5t90 135t135 91t167.5 33.5t167.5 -33.5t135 -91
t90 -135t32.5 -165.5t-32.5 -165.5t-90 -135t-135 -91t-167.5 -33.5zM570 -5q75 0 140 27.5t112.5 75t75 112.5t27.5 140t-27.5 140t-75 112.5t-112.5 75t-140 27.5t-140 -27.5t-112.5 -75t-75 -112.5t-27.5 -140t27.5 -140t75 -112.5t112.5 -75t140 -27.5z" />
    <glyph glyph-name="uni2468" unicode="&#x2468;" 
d="M588 280q-4 -2 -9 -3t-10.5 -1.5t-13.5 -0.5q-30 0 -55 10.5t-42.5 29.5t-27.5 44.5t-10 55.5t11.5 55.5t31.5 44.5t47.5 29.5t59.5 10.5q36 0 63.5 -11.5t47 -31t29.5 -46t10 -56.5q0 -37 -10 -67t-25 -53l-95 -140h-90zM570 345q34 0 49.5 19.5t15.5 45.5t-15 45.5
t-50 19.5q-34 0 -49.5 -19.5t-15.5 -45.5t15.5 -45.5t49.5 -19.5zM570 -75q-90 0 -167.5 33.5t-135 91t-90 135t-32.5 165.5t32.5 165.5t90 135t135 91t167.5 33.5t167.5 -33.5t135 -91t90 -135t32.5 -165.5t-32.5 -165.5t-90 -135t-135 -91t-167.5 -33.5zM570 -5
q75 0 140 27.5t112.5 75t75 112.5t27.5 140t-27.5 140t-75 112.5t-112.5 75t-140 27.5t-140 -27.5t-112.5 -75t-75 -112.5t-27.5 -140t27.5 -140t75 -112.5t112.5 -75t140 -27.5z" />
    <glyph glyph-name="uni2469" unicode="&#x2469;" 
d="M384 415h-90v80h65q25 0 25 25v30h85v-400h-85v265zM680 145q-72 0 -116 51.5t-44 153.5t44 153.5t116 51.5t116 -51.5t44 -153.5t-44 -153.5t-116 -51.5zM680 225q30 0 52.5 30.5t22.5 94.5t-22.5 94.5t-52.5 30.5t-52.5 -30.5t-22.5 -94.5t22.5 -94.5t52.5 -30.5z
M570 -75q-90 0 -167.5 33.5t-135 91t-90 135t-32.5 165.5t32.5 165.5t90 135t135 91t167.5 33.5t167.5 -33.5t135 -91t90 -135t32.5 -165.5t-32.5 -165.5t-90 -135t-135 -91t-167.5 -33.5zM570 -5q75 0 140 27.5t112.5 75t75 112.5t27.5 140t-27.5 140t-75 112.5t-112.5 75
t-140 27.5t-140 -27.5t-112.5 -75t-75 -112.5t-27.5 -140t27.5 -140t75 -112.5t112.5 -75t140 -27.5z" />
    <glyph glyph-name="uni246A" unicode="&#x246a;" 
d="M430 415h-90v80h65q25 0 25 25v30h85v-400h-85v265zM665 415h-90v80h65q25 0 25 25v30h85v-400h-85v265zM570 -75q-90 0 -167.5 33.5t-135 91t-90 135t-32.5 165.5t32.5 165.5t90 135t135 91t167.5 33.5t167.5 -33.5t135 -91t90 -135t32.5 -165.5t-32.5 -165.5t-90 -135
t-135 -91t-167.5 -33.5zM570 -5q75 0 140 27.5t112.5 75t75 112.5t27.5 140t-27.5 140t-75 112.5t-112.5 75t-140 27.5t-140 -27.5t-112.5 -75t-75 -112.5t-27.5 -140t27.5 -140t75 -112.5t112.5 -75t140 -27.5z" />
    <glyph glyph-name="uni246B" unicode="&#x246b;" 
d="M394 415h-90v80h65q25 0 25 25v30h85v-400h-85v265zM540 225l145 140q20 20 30 36t10 34q0 15 -12 27.5t-38 12.5t-38 -13t-12 -32h-90q2 26 11.5 49t27.5 40t44 26.5t62 9.5q64 0 99.5 -33.5t35.5 -86.5q0 -33 -13.5 -58.5t-41.5 -51.5l-105 -100h155v-75h-270v75z
M570 -75q-90 0 -167.5 33.5t-135 91t-90 135t-32.5 165.5t32.5 165.5t90 135t135 91t167.5 33.5t167.5 -33.5t135 -91t90 -135t32.5 -165.5t-32.5 -165.5t-90 -135t-135 -91t-167.5 -33.5zM570 -5q75 0 140 27.5t112.5 75t75 112.5t27.5 140t-27.5 140t-75 112.5t-112.5 75
t-140 27.5t-140 -27.5t-112.5 -75t-75 -112.5t-27.5 -140t27.5 -140t75 -112.5t112.5 -75t140 -27.5z" />
    <glyph glyph-name="uni246C" unicode="&#x246c;" 
d="M390 415h-90v80h65q25 0 25 25v30h85v-400h-85v265zM670 145q-60 0 -98.5 28.5t-46.5 81.5h90q4 -15 16.5 -22.5t38.5 -7.5t40.5 13.5t14.5 36.5q0 19 -12 32t-38 13h-40v75h40q26 0 35.5 12.5t9.5 27.5q0 40 -50 40q-26 0 -38.5 -13t-16.5 -32h-90q2 26 11.5 49t27.5 40
t44 26.5t62 9.5q32 0 58 -9t44 -24t28 -35t10 -42q0 -34 -18 -55.5t-37 -29.5q30 -15 45 -39.5t15 -50.5q0 -24 -8.5 -47t-26.5 -40t-45.5 -27.5t-64.5 -10.5zM570 -75q-90 0 -167.5 33.5t-135 91t-90 135t-32.5 165.5t32.5 165.5t90 135t135 91t167.5 33.5t167.5 -33.5
t135 -91t90 -135t32.5 -165.5t-32.5 -165.5t-90 -135t-135 -91t-167.5 -33.5zM570 -5q75 0 140 27.5t112.5 75t75 112.5t27.5 140t-27.5 140t-75 112.5t-112.5 75t-140 27.5t-140 -27.5t-112.5 -75t-75 -112.5t-27.5 -140t27.5 -140t75 -112.5t112.5 -75t140 -27.5z" />
    <glyph glyph-name="uni246D" unicode="&#x246d;" 
d="M390 415h-90v80h65q25 0 25 25v30h85v-400h-85v265zM695 235h-180v75l160 240h105v-240h60v-75h-60v-85h-85v85zM695 310v135h-5l-90 -135h95zM570 -75q-90 0 -167.5 33.5t-135 91t-90 135t-32.5 165.5t32.5 165.5t90 135t135 91t167.5 33.5t167.5 -33.5t135 -91t90 -135
t32.5 -165.5t-32.5 -165.5t-90 -135t-135 -91t-167.5 -33.5zM570 -5q75 0 140 27.5t112.5 75t75 112.5t27.5 140t-27.5 140t-75 112.5t-112.5 75t-140 27.5t-140 -27.5t-112.5 -75t-75 -112.5t-27.5 -140t27.5 -140t75 -112.5t112.5 -75t140 -27.5z" />
    <glyph glyph-name="uni246E" unicode="&#x246e;" 
d="M395 415h-90v80h65q25 0 25 25v30h85v-400h-85v265zM680 145q-30 0 -56 9t-45.5 24.5t-32 36.5t-16.5 45h90q4 -15 19 -25t41 -10q30 0 47.5 17t17.5 43q0 34 -20 49.5t-50 15.5q-19 0 -30.5 -7t-19.5 -18h-85l25 225h245v-75h-175l-10 -70h5q7 3 17 7q8 3 20.5 5.5
t27.5 2.5q60 0 97.5 -35.5t37.5 -98.5q0 -30 -11 -56t-30.5 -45t-47 -29.5t-61.5 -10.5zM570 -75q-90 0 -167.5 33.5t-135 91t-90 135t-32.5 165.5t32.5 165.5t90 135t135 91t167.5 33.5t167.5 -33.5t135 -91t90 -135t32.5 -165.5t-32.5 -165.5t-90 -135t-135 -91
t-167.5 -33.5zM570 -5q75 0 140 27.5t112.5 75t75 112.5t27.5 140t-27.5 140t-75 112.5t-112.5 75t-140 27.5t-140 -27.5t-112.5 -75t-75 -112.5t-27.5 -140t27.5 -140t75 -112.5t112.5 -75t140 -27.5z" />
    <glyph glyph-name="uni246F" unicode="&#x246f;" 
d="M385 415h-90v80h65q25 0 25 25v30h85v-400h-85v265zM675 145q-36 0 -63.5 11.5t-47 31t-29.5 46t-10 56.5q0 37 10 67t25 53l95 140h90l-88 -130q4 1 9 2t10.5 2t13.5 1q30 0 55 -10.5t42.5 -29.5t27.5 -44.5t10 -55.5t-11.5 -55.5t-31.5 -44.5t-47.5 -29.5t-59.5 -10.5z
M675 225q34 0 49.5 19.5t15.5 45.5t-15.5 45.5t-49.5 19.5t-49.5 -19.5t-15.5 -45.5t15 -45.5t50 -19.5zM570 -75q-90 0 -167.5 33.5t-135 91t-90 135t-32.5 165.5t32.5 165.5t90 135t135 91t167.5 33.5t167.5 -33.5t135 -91t90 -135t32.5 -165.5t-32.5 -165.5t-90 -135
t-135 -91t-167.5 -33.5zM570 -5q75 0 140 27.5t112.5 75t75 112.5t27.5 140t-27.5 140t-75 112.5t-112.5 75t-140 27.5t-140 -27.5t-112.5 -75t-75 -112.5t-27.5 -140t27.5 -140t75 -112.5t112.5 -75t140 -27.5z" />
    <glyph glyph-name="uni2470" unicode="&#x2470;" 
d="M400 415h-90v80h65q25 0 25 25v30h85v-400h-85v265zM715 475h-170v75h260v-75l-140 -325h-90zM570 -75q-90 0 -167.5 33.5t-135 91t-90 135t-32.5 165.5t32.5 165.5t90 135t135 91t167.5 33.5t167.5 -33.5t135 -91t90 -135t32.5 -165.5t-32.5 -165.5t-90 -135t-135 -91
t-167.5 -33.5zM570 -5q75 0 140 27.5t112.5 75t75 112.5t27.5 140t-27.5 140t-75 112.5t-112.5 75t-140 27.5t-140 -27.5t-112.5 -75t-75 -112.5t-27.5 -140t27.5 -140t75 -112.5t112.5 -75t140 -27.5z" />
    <glyph glyph-name="uni2471" unicode="&#x2471;" 
d="M395 415h-90v80h65q25 0 25 25v30h85v-400h-85v265zM675 145q-64 0 -104.5 31.5t-40.5 88.5q0 26 13 53t47 42q-23 11 -36.5 35t-13.5 50q0 45 35.5 77.5t99.5 32.5t99.5 -32.5t35.5 -77.5q0 -26 -13.5 -50t-36.5 -35q34 -15 47 -42t13 -53q0 -57 -40.5 -88.5
t-104.5 -31.5zM675 220q30 0 45 16t15 39q0 19 -15 34.5t-45 15.5t-45 -15.5t-15 -34.5q0 -23 15 -39t45 -16zM675 395q26 0 38 12.5t12 27.5q0 19 -12 32t-38 13t-38 -13t-12 -32q0 -15 12 -27.5t38 -12.5zM570 -75q-90 0 -167.5 33.5t-135 91t-90 135t-32.5 165.5
t32.5 165.5t90 135t135 91t167.5 33.5t167.5 -33.5t135 -91t90 -135t32.5 -165.5t-32.5 -165.5t-90 -135t-135 -91t-167.5 -33.5zM570 -5q75 0 140 27.5t112.5 75t75 112.5t27.5 140t-27.5 140t-75 112.5t-112.5 75t-140 27.5t-140 -27.5t-112.5 -75t-75 -112.5t-27.5 -140
t27.5 -140t75 -112.5t112.5 -75t140 -27.5z" />
    </font>
</defs>
</svg>
