<svg xmlns="http://www.w3.org/2000/svg">
<defs>
<font id="TTInterphases-Thin" horiz-adv-x="1000" >
  <font-face 
    font-family="TT Interphases Thin"
    font-weight="100"
    font-stretch="normal"
    units-per-em="1000"
    panose-1="2 0 5 3 2 0 0 2 0 4"
    ascent="760"
    descent="-240"
    x-height="510"
    cap-height="700"
    bbox="-495 -245 1438 985"
    underline-thickness="50"
    underline-position="-200"
    unicode-range="U+000D-FB04"
  />
<missing-glyph horiz-adv-x="900" 
d="M100 284h45v-139h33v139h50v31h-128v126l19 -61h23l34 106l33 -106h23l54 170h-32l-34 -110l-35 110h-19l-35 -110l-31 103v157h700v-150h-110v-170h110v-91q-13 27 -50 27q-29 0 -44.5 -14.5t-15.5 -34.5q0 -22 13.5 -32t30 -15t30.5 -9.5t14 -16.5q0 -14 -9.5 -17.5
t-18.5 -3.5q-15 0 -21.5 7.5t-6.5 17.5h-33q0 -24 16.5 -39.5t44.5 -15.5q20 0 32.5 7.5t17.5 12.5v-163h-700v284zM328 143q38 0 60 25t22 61q0 37 -22.5 62t-59.5 25t-59.5 -25t-22.5 -62q0 -36 22 -61t60 -25zM328 174q-23 0 -37 16t-14 39q0 24 13.5 40t37.5 16
t37.5 -16t13.5 -40q0 -23 -14 -39t-37 -16zM549 315h-32v-106q0 -29 19.5 -47.5t48.5 -18.5t48 18.5t19 47.5v106h-32v-106q0 -15 -9 -25t-26 -10q-18 0 -27 11t-9 24v106zM344 380v62h24l35 -62h37l-40 67q36 16 36 50q0 21 -15.5 37t-41.5 16h-68v-170h33zM344 519h35
q10 0 17 -6t7 -17q0 -13 -8 -18t-16 -5h-35v46zM502 380v170h-33v-170h33zM800 262v-38q-11 10 -24 14.5t-24.5 8.5t-19.5 8t-8 12q0 9 7.5 14.5t18.5 5.5q10 0 18 -6.5t8 -18.5h24zM612 380v139h50v31h-132v-31h50v-139h32zM722 452h78v-41h-78v41zM722 519h78v-36h-78v36z
" />
    <glyph glyph-name="ff" unicode="ff" horiz-adv-x="575" 
d="M120 485h-90v25h90v95q0 45 25 70t70 25h70v-25h-70q-30 0 -50 -18t-20 -52v-95h245v95q0 45 25 70t70 25h70v-25h-70q-30 0 -50 -18t-20 -52v-95h140v-25h-140v-485h-25v485h-245v-485h-25v485z" />
    <glyph glyph-name="fi" unicode="fi" horiz-adv-x="500" 
d="M120 485h-90v25h90v95q0 45 25 70t70 25h70v-25h-70q-30 0 -50 -18t-20 -52v-95h270v-510h-25v485h-245v-485h-25v485zM405 625q-25 0 -25 25t25 25t25 -25t-25 -25z" />
    <glyph glyph-name="fl" unicode="fl" horiz-adv-x="505" 
d="M120 485h-90v25h90v95q0 45 25 70t70 25h200v-700h-25v675h-175q-30 0 -50 -18t-20 -52v-95h140v-25h-140v-485h-25v485z" />
    <glyph glyph-name="ffi" unicode="ffi" horiz-adv-x="770" 
d="M120 485h-90v25h90v95q0 45 25 70t70 25h70v-25h-70q-30 0 -50 -18t-20 -52v-95h245v95q0 45 25 70t70 25h70v-25h-70q-30 0 -50 -18t-20 -52v-95h270v-510h-25v485h-245v-485h-25v485h-245v-485h-25v485zM675 625q-25 0 -25 25t25 25t25 -25t-25 -25z" />
    <glyph glyph-name="ffl" unicode="ffl" horiz-adv-x="775" 
d="M120 485h-90v25h90v95q0 45 25 70t70 25h70v-25h-70q-30 0 -50 -18t-20 -52v-95h245v95q0 45 25 70t70 25h200v-700h-25v675h-175q-30 0 -50 -18t-20 -52v-95h140v-25h-140v-485h-25v485h-245v-485h-25v485z" />
    <glyph glyph-name="f_f_j" unicode="ffj" horiz-adv-x="770" 
d="M520 -175h70q30 0 50 18t20 52v590h-245v-485h-25v485h-245v-485h-25v485h-90v25h90v95q0 45 25 70t70 25h70v-25h-70q-30 0 -50 -18t-20 -52v-95h245v95q0 45 25 70t70 25h70v-25h-70q-30 0 -50 -18t-20 -52v-95h270v-615q0 -45 -25 -70t-70 -25h-70v25zM675 625
q-25 0 -25 25t25 25t25 -25t-25 -25z" />
    <glyph glyph-name="f_j" unicode="fj" horiz-adv-x="500" 
d="M250 -175h70q30 0 50 18t20 52v590h-245v-485h-25v485h-90v25h90v95q0 45 25 70t70 25h70v-25h-70q-30 0 -50 -18t-20 -52v-95h270v-615q0 -45 -25 -70t-70 -25h-70v25zM405 625q-25 0 -25 25t25 25t25 -25t-25 -25z" />
    <glyph glyph-name=".notdef" horiz-adv-x="900" 
d="M100 284h45v-139h33v139h50v31h-128v126l19 -61h23l34 106l33 -106h23l54 170h-32l-34 -110l-35 110h-19l-35 -110l-31 103v157h700v-150h-110v-170h110v-91q-13 27 -50 27q-29 0 -44.5 -14.5t-15.5 -34.5q0 -22 13.5 -32t30 -15t30.5 -9.5t14 -16.5q0 -14 -9.5 -17.5
t-18.5 -3.5q-15 0 -21.5 7.5t-6.5 17.5h-33q0 -24 16.5 -39.5t44.5 -15.5q20 0 32.5 7.5t17.5 12.5v-163h-700v284zM328 143q38 0 60 25t22 61q0 37 -22.5 62t-59.5 25t-59.5 -25t-22.5 -62q0 -36 22 -61t60 -25zM328 174q-23 0 -37 16t-14 39q0 24 13.5 40t37.5 16
t37.5 -16t13.5 -40q0 -23 -14 -39t-37 -16zM549 315h-32v-106q0 -29 19.5 -47.5t48.5 -18.5t48 18.5t19 47.5v106h-32v-106q0 -15 -9 -25t-26 -10q-18 0 -27 11t-9 24v106zM344 380v62h24l35 -62h37l-40 67q36 16 36 50q0 21 -15.5 37t-41.5 16h-68v-170h33zM344 519h35
q10 0 17 -6t7 -17q0 -13 -8 -18t-16 -5h-35v46zM502 380v170h-33v-170h33zM800 262v-38q-11 10 -24 14.5t-24.5 8.5t-19.5 8t-8 12q0 9 7.5 14.5t18.5 5.5q10 0 18 -6.5t8 -18.5h24zM612 380v139h50v31h-132v-31h50v-139h32zM722 452h78v-41h-78v41zM722 519h78v-36h-78v36z
" />
    <glyph glyph-name=".null" horiz-adv-x="0" 
 />
    <glyph glyph-name=".null" horiz-adv-x="0" 
 />
    <glyph glyph-name="nonmarkingreturn" unicode="&#xd;" horiz-adv-x="0" 
 />
    <glyph glyph-name="space" unicode=" " horiz-adv-x="200" 
 />
    <glyph glyph-name="exclam" unicode="!" horiz-adv-x="245" 
d="M123 -5q-14 0 -21 8.5t-7 19.5q0 10 7 18.5t21 8.5q13 0 20 -8.5t7 -18.5q0 -11 -7 -19.5t-20 -8.5zM108 640v60h30v-60l-5 -440h-20z" />
    <glyph glyph-name="quotedbl" unicode="&#x22;" horiz-adv-x="295" 
d="M70 700h25v-200h-25v200zM200 700h25v-200h-25v200z" />
    <glyph glyph-name="numbersign" unicode="#" horiz-adv-x="595" 
d="M155 210h-125l5 25h126l49 230h-125l5 25h125l45 210h25l-45 -210h175l45 210h25l-45 -210h125l-5 -25h-126l-49 -230h125l-5 -25h-125l-45 -210h-25l45 210h-175l-45 -210h-25zM360 235l49 230h-174l-49 -230h174z" />
    <glyph glyph-name="dollar" unicode="$" horiz-adv-x="590" 
d="M285 -10q-49 4 -89 20t-70 41.5t-49.5 58t-26.5 70.5h25q11 -45 36 -76.5t56.5 -51t67.5 -28.5t70 -9q49 0 88 13t66 35.5t41.5 52.5t14.5 64q0 44 -19 72t-50.5 46t-71.5 29t-81.5 20.5t-81.5 21.5t-71.5 32t-50.5 50.5t-19 78.5q0 37 13 69.5t39.5 57t67 38.5t95.5 15
v100h25v-100q86 -5 141.5 -48.5t73.5 -121.5h-25q-8 21 -21 46t-37 47t-61 37t-91 15q-91 0 -143 -40t-52 -115q0 -43 19 -70t50.5 -44.5t71.5 -27.5t81.5 -19.5t81.5 -21.5t71.5 -32.5t50.5 -52.5t19 -82q0 -33 -13.5 -67t-41.5 -61t-71.5 -44t-103.5 -18v-100h-25v100z
" />
    <glyph glyph-name="percent" unicode="%" horiz-adv-x="715" 
d="M560 700h30l-435 -700h-30zM520 -10q-34 0 -60 11.5t-44 31.5t-27 47.5t-9 59.5t9 59.5t27 47.5t44 31.5t60 11.5t60 -11.5t44 -31.5t27 -47.5t9 -59.5t-9 -59.5t-27 -47.5t-44 -31.5t-60 -11.5zM520 15q60 0 87.5 36t27.5 89t-27.5 89t-87.5 36t-87.5 -36t-27.5 -89
t27.5 -89t87.5 -36zM195 410q-34 0 -60 11.5t-44 31.5t-27 47.5t-9 59.5t9 59.5t27 47.5t44 31.5t60 11.5t60 -11.5t44 -31.5t27 -47.5t9 -59.5t-9 -59.5t-27 -47.5t-44 -31.5t-60 -11.5zM195 435q60 0 87.5 36t27.5 89t-27.5 89t-87.5 36t-87.5 -36t-27.5 -89t27.5 -89
t87.5 -36z" />
    <glyph glyph-name="ampersand" unicode="&#x26;" horiz-adv-x="615" 
d="M235 -10q-39 0 -73 11.5t-59 33.5t-39 52t-14 68q0 32 6.5 55.5t19.5 43t33 37t46 36.5l58 42l-53 52q-29 28 -49.5 59t-20.5 80q0 32 11.5 59.5t33.5 47.5t52 31.5t68 11.5q72 0 116 -41t44 -109q0 -49 -29 -84.5t-86 -75.5l-50 -35l220 -220l110 115h35l-128 -132
l128 -128h-35l-110 110q-24 -23 -48 -44.5t-51 -38t-60 -27t-76 -10.5zM235 15q36 0 64 7.5t53.5 22t49.5 35.5t51 49l-222 222l-65 -46q-29 -20 -47 -37.5t-27.5 -35t-13 -36.5t-3.5 -41q0 -28 11 -53.5t31.5 -44.5t50 -30.5t67.5 -11.5zM296 428q16 12 33 25.5t30.5 29.5
t22 35t8.5 42q0 53 -35.5 89t-99.5 36q-28 0 -53.5 -7.5t-44.5 -23t-30.5 -39t-11.5 -55.5q0 -23 5 -40t14 -31.5t22 -28.5t29 -30l47 -46z" />
    <glyph glyph-name="quotesingle" unicode="'" horiz-adv-x="165" 
d="M70 700h25v-200h-25v200z" />
    <glyph glyph-name="parenleft" unicode="(" horiz-adv-x="290" 
d="M225 -200q-26 37 -50.5 86t-43.5 107.5t-30 126.5t-11 145t11 145t30 126.5t43.5 107t50.5 86.5h25q-72 -109 -103.5 -223t-31.5 -242t31.5 -242t103.5 -223h-25v0z" />
    <glyph glyph-name="parenright" unicode=")" horiz-adv-x="290" 
d="M40 -200q72 109 103.5 223t31.5 242t-31.5 242t-103.5 223h25q26 -38 50.5 -86.5t43 -107t30 -126.5t11.5 -145t-11.5 -145t-30 -126.5t-43 -107.5t-50.5 -86h-25v0z" />
    <glyph glyph-name="asterisk" unicode="*" horiz-adv-x="465" 
d="M110 390l106 130l-1 3l-155 47l10 25l150 -55l3 3l-3 157h25l-3 -157l3 -3l150 55l10 -25l-155 -47l-1 -3l106 -130l-20 -15l-101 135h-3l-101 -135z" />
    <glyph glyph-name="plus" unicode="+" horiz-adv-x="535" 
d="M255 285h-205v25h205v210h25v-210h205v-25h-205v-210h-25v210z" />
    <glyph glyph-name="comma" unicode="," horiz-adv-x="195" 
d="M85 100h35l-65 -200h-15z" />
    <glyph glyph-name="hyphen" unicode="-" horiz-adv-x="370" 
d="M40 300h290v-25h-290v25z" />
    <glyph glyph-name="period" unicode="." horiz-adv-x="195" 
d="M98 -5q-14 0 -21 8.5t-7 19.5q0 10 7 18.5t21 8.5q13 0 20 -8.5t7 -18.5q0 -11 -7 -19.5t-20 -8.5z" />
    <glyph glyph-name="slash" unicode="/" horiz-adv-x="315" 
d="M290 730h25l-290 -930h-25z" />
    <glyph glyph-name="zero" unicode="0" horiz-adv-x="650" 
d="M325 -10q-58 0 -106.5 23t-84 68.5t-55 113t-19.5 155.5t19.5 155.5t55 113t84 68.5t106.5 23t106.5 -23t84 -68.5t55 -113t19.5 -155.5t-19.5 -155.5t-55 -113t-84 -68.5t-106.5 -23zM325 15q52 0 96.5 20.5t76 62.5t49.5 105t18 147t-18 147t-49.5 105t-76 62.5
t-96.5 20.5q-53 0 -97 -20.5t-75.5 -62.5t-49.5 -105t-18 -147t18 -147t49.5 -105t75.5 -62.5t97 -20.5z" />
    <glyph glyph-name="one" unicode="1" horiz-adv-x="305" 
d="M180 575h-135v25h95q40 0 40 40v60h25v-700h-25v575z" />
    <glyph glyph-name="two" unicode="2" horiz-adv-x="545" 
d="M60 25l320 335q17 18 31 34t23.5 34t15 39t5.5 48q0 37 -12.5 68.5t-36 54t-57 35t-74.5 12.5q-51 0 -85 -16.5t-56 -42t-33 -55.5t-16 -56h-25q15 91 69.5 143t145.5 52q47 0 85 -14.5t64.5 -40t41 -61.5t14.5 -79q0 -30 -7 -54t-18 -44t-26 -37.5t-31 -34.5l-306 -320
h398v-25h-430v25z" />
    <glyph glyph-name="three" unicode="3" horiz-adv-x="565" 
d="M280 -10q-41 0 -81 13t-72 37.5t-54 61t-28 83.5h25q4 -26 17.5 -56t39 -55.5t63 -42t90.5 -16.5q39 0 74.5 12t62.5 34.5t42.5 55t15.5 73.5q0 26 -9 53t-28.5 48.5t-51 35t-76.5 13.5h-80v25h80q39 0 68.5 13.5t48.5 35t28.5 48.5t9.5 53q0 24 -8.5 54t-29.5 55.5
t-57 43t-90 17.5q-51 0 -86.5 -16t-58.5 -41t-36 -55t-19 -58h-25q15 91 74.5 143t150.5 52q47 0 85.5 -15t66.5 -41.5t43 -62t15 -76.5q0 -60 -31 -101t-83 -61q55 -14 89.5 -58.5t34.5 -104.5q0 -41 -15.5 -77.5t-44 -63.5t-69 -43t-91.5 -16z" />
    <glyph glyph-name="four" unicode="4" horiz-adv-x="520" 
d="M375 185h-350v25l335 490h40v-490h90v-25h-90v-185h-25v185zM375 210v461h-5l-315 -461h320z" />
    <glyph glyph-name="five" unicode="5" horiz-adv-x="570" 
d="M290 -10q-41 0 -79.5 13t-69.5 37.5t-52.5 61t-28.5 83.5h25q7 -41 26 -73t46.5 -53.5t61 -32.5t71.5 -11q52 0 91 19.5t64 49.5t37.5 66t12.5 70q0 43 -14.5 81.5t-40.5 67t-63 45t-82 16.5q-26 0 -52.5 -6t-51 -19.5t-45.5 -35.5t-36 -54h-35l35 385h365v-25h-345
l-30 -322h5q15 27 36.5 46.5t47 31.5t53 18t53.5 6q45 0 86 -17t71.5 -48t49 -74.5t18.5 -95.5q0 -49 -17.5 -91t-48.5 -73t-73 -48.5t-91 -17.5z" />
    <glyph glyph-name="six" unicode="6" horiz-adv-x="570" 
d="M285 -10q-43 0 -84.5 15t-73.5 44.5t-52 73.5t-20 102q0 56 23.5 108t61.5 112q19 30 46 73t53 84q30 48 61 98h28l-190 -300h5q30 26 66 38t81 12q47 0 88 -17.5t71.5 -48.5t48 -73t17.5 -91q0 -51 -18.5 -93t-50 -72.5t-73 -47.5t-88.5 -17zM285 15q52 0 91 18.5t64 48
t37.5 66t12.5 72.5t-12.5 72.5t-37.5 66t-64 48t-91 18.5q-53 0 -91.5 -18.5t-63.5 -48t-37.5 -66t-12.5 -72.5t12.5 -72.5t37.5 -66t63.5 -48t91.5 -18.5z" />
    <glyph glyph-name="seven" unicode="7" horiz-adv-x="500" 
d="M432 675h-397v25h425v-25l-295 -675h-28z" />
    <glyph glyph-name="eight" unicode="8" horiz-adv-x="570" 
d="M285 -10q-51 0 -91.5 15.5t-69 42.5t-44 62.5t-15.5 74.5q0 57 35 105t110 72q-24 7 -47.5 20.5t-42 34t-29.5 47.5t-11 61q0 39 14.5 73t41 59t64.5 39t85 14t85 -14t64.5 -39t41 -59t14.5 -73q0 -34 -11 -61t-29.5 -47.5t-42 -34t-47.5 -20.5q75 -24 110 -72t35 -105
q0 -39 -15.5 -74.5t-44 -62.5t-69 -42.5t-91.5 -15.5zM285 15q39 0 74.5 12t62.5 34.5t42.5 54t15.5 69.5q0 36 -15.5 66t-42.5 52t-62.5 34.5t-74.5 12.5t-74.5 -12.5t-62.5 -34.5t-42.5 -52t-15.5 -66q0 -38 15.5 -69.5t42.5 -54t62.5 -34.5t74.5 -12zM285 375
q51 0 85.5 14.5t55.5 37t30 50t9 53.5t-9 53.5t-30 50t-55.5 37t-85.5 14.5t-85.5 -14.5t-55.5 -37t-30 -50t-9 -53.5t9 -53.5t30 -50t55.5 -37t85.5 -14.5z" />
    <glyph glyph-name="nine" unicode="9" horiz-adv-x="570" 
d="M432 300h-5q-30 -26 -66 -38t-81 -12q-47 0 -88 17.5t-71.5 48.5t-48 73t-17.5 91q0 51 18.5 93t50 72.5t73 47.5t88.5 17q43 0 84.5 -15t73.5 -44.5t52 -73.5t20 -102q0 -56 -24 -108t-61 -112q-19 -30 -46 -73.5t-53 -84.5q-30 -48 -61 -97h-28zM285 275q52 0 91 18.5
t64 48t37.5 66t12.5 72.5t-12.5 72.5t-37.5 66t-64 48t-91 18.5q-53 0 -91.5 -18.5t-63.5 -48t-37.5 -66t-12.5 -72.5t12.5 -72.5t37.5 -66t63.5 -48t91.5 -18.5z" />
    <glyph glyph-name="colon" unicode=":" horiz-adv-x="195" 
d="M98 -5q-14 0 -21 8.5t-7 19.5q0 10 7 18.5t21 8.5q13 0 20 -8.5t7 -18.5q0 -11 -7 -19.5t-20 -8.5zM98 455q-14 0 -21 8.5t-7 19.5q0 10 7 18.5t21 8.5q13 0 20 -8.5t7 -18.5q0 -11 -7 -19.5t-20 -8.5z" />
    <glyph glyph-name="semicolon" unicode=";" horiz-adv-x="195" 
d="M85 100h35l-65 -200h-15zM98 455q-14 0 -21 8.5t-7 19.5q0 10 7 18.5t21 8.5q13 0 20 -8.5t7 -18.5q0 -11 -7 -19.5t-20 -8.5z" />
    <glyph glyph-name="less" unicode="&#x3c;" horiz-adv-x="540" 
d="M65 275v40l410 195v-30l-390 -185l390 -185v-30z" />
    <glyph glyph-name="equal" unicode="=" horiz-adv-x="535" 
d="M50 225h435v-25h-435v25zM50 395h435v-25h-435v25z" />
    <glyph glyph-name="greater" unicode="&#x3e;" horiz-adv-x="540" 
d="M65 110l390 185l-390 185v30l410 -195v-40l-410 -195v30z" />
    <glyph glyph-name="question" unicode="?" horiz-adv-x="480" 
d="M238 -5q-14 0 -21 8.5t-7 19.5q0 10 7 18.5t21 8.5q13 0 20 -8.5t7 -18.5q0 -11 -7 -19.5t-20 -8.5zM225 240q0 34 2.5 56t11.5 39.5t26 33t45 36.5q49 35 67 64.5t18 70.5q0 34 -12.5 60.5t-34 45.5t-50.5 29t-63 10q-72 0 -118 -38.5t-57 -121.5h-25q4 36 17.5 69
t37.5 59t60 41.5t85 15.5q47 0 81.5 -14.5t57.5 -38t34.5 -53t11.5 -59.5q0 -23 -3.5 -42.5t-13.5 -38t-27.5 -37t-45.5 -37.5q-24 -17 -39.5 -30t-24.5 -28.5t-12.5 -36.5t-3.5 -55v-40h-25v40z" />
    <glyph glyph-name="at" unicode="@" horiz-adv-x="910" 
d="M450 -90q-90 0 -161.5 28t-121 79t-76 123t-26.5 160q0 90 28.5 162t80 123t123.5 78t158 27q90 0 163 -28t124.5 -78.5t79.5 -121.5t28 -157q0 -116 -40.5 -170.5t-104.5 -54.5q-36 0 -56.5 13t-31.5 29q-12 18 -17 43h-5q-23 -38 -59.5 -61.5t-85.5 -23.5q-39 0 -72 14
t-57 40.5t-37.5 65.5t-13.5 90t13.5 90t37.5 65.5t57 40.5t72 14q49 0 85.5 -23.5t59.5 -61.5h5l10 80h15v-300q0 -45 21 -67.5t59 -22.5q26 0 48 11t38 35t25 62t9 92q0 69 -20.5 134t-65 115.5t-115 80.5t-169.5 30q-83 0 -150 -24.5t-115 -71.5t-74 -115t-26 -154
q0 -96 28 -165t77 -113.5t114.5 -65.5t140.5 -21h145v-25h-145zM450 105q68 0 109 49t41 136t-41 136t-109 49q-34 0 -62.5 -11.5t-49 -34.5t-32 -57.5t-11.5 -81.5t11.5 -81.5t32 -57.5t49 -34.5t62.5 -11.5z" />
    <glyph glyph-name="A" unicode="A" horiz-adv-x="595" 
d="M280 700h35l265 -700h-25l-75 200h-365l-75 -200h-25zM470 225l-170 450h-5l-170 -450h345z" />
    <glyph glyph-name="B" unicode="B" horiz-adv-x="640" 
d="M100 700h275q87 0 138.5 -48.5t51.5 -131.5q0 -60 -29 -103t-86 -62q64 -19 94.5 -64t30.5 -106q0 -87 -51.5 -136t-138.5 -49h-285v700zM380 25q45 0 77 13t53 35t30.5 51t9.5 61q0 30 -9.5 58t-30.5 49.5t-53 34.5t-77 13h-255v-315h255zM370 365q83 0 126.5 43.5
t43.5 111.5t-43.5 111.5t-126.5 43.5h-245v-310h245z" />
    <glyph glyph-name="C" unicode="C" horiz-adv-x="680" 
d="M360 -10q-66 0 -121 24t-94.5 70t-62 113t-22.5 153t22.5 153t62 113t94.5 70t121 24q98 0 167 -50.5t103 -144.5h-25q-34 83 -96 126.5t-149 43.5q-60 0 -110.5 -22t-87 -65t-57 -105t-20.5 -143t20.5 -143t57 -105t87 -65t110.5 -22q87 0 149 43.5t96 126.5h25
q-34 -94 -103 -144.5t-167 -50.5z" />
    <glyph glyph-name="D" unicode="D" horiz-adv-x="680" 
d="M100 700h220q66 0 121 -24t94.5 -69t62 -110t22.5 -147q0 -83 -22.5 -148t-62 -110t-94.5 -68.5t-121 -23.5h-220v700zM320 25q60 0 110.5 22t87 63.5t57 102t20.5 137.5t-20.5 137.5t-57 102t-87 63.5t-110.5 22h-195v-650h195z" />
    <glyph glyph-name="E" unicode="E" horiz-adv-x="600" 
d="M100 700h420v-25h-395v-310h375v-25h-375v-315h405v-25h-430v700z" />
    <glyph glyph-name="F" unicode="F" horiz-adv-x="575" 
d="M100 700h415v-25h-390v-320h365v-25h-365v-330h-25v700z" />
    <glyph glyph-name="G" unicode="G" horiz-adv-x="705" 
d="M360 -10q-66 0 -121 24t-94.5 70t-62 113t-22.5 153t22.5 153t62 113t94.5 70t121 24q98 0 167 -50.5t103 -144.5h-25q-34 83 -96 126.5t-149 43.5q-60 0 -110.5 -22t-87 -65t-57 -105t-20.5 -143t20.5 -143t57 -105t87 -65t110.5 -22q56 0 104 20t82.5 58t54 93
t19.5 124h-260v25h285v-20q0 -77 -21.5 -137.5t-59.5 -102t-90 -63.5t-114 -22z" />
    <glyph glyph-name="H" unicode="H" horiz-adv-x="705" 
d="M100 700h25v-335h455v335h25v-700h-25v340h-455v-340h-25v700z" />
    <glyph glyph-name="I" unicode="I" horiz-adv-x="225" 
d="M100 700h25v-700h-25v700z" />
    <glyph glyph-name="J" unicode="J" horiz-adv-x="525" 
d="M225 -10q-41 0 -76 12.5t-62 36t-44 57t-23 74.5h25q11 -72 59.5 -113.5t120.5 -41.5q39 0 72 13.5t57 39t37.5 61.5t13.5 81v490h25v-490q0 -51 -15 -91.5t-42 -69t-65 -44t-83 -15.5z" />
    <glyph glyph-name="K" unicode="K" horiz-adv-x="545" 
d="M100 700h25v-335l360 335h35l-370 -345l385 -355h-35l-375 345v-345h-25v700z" />
    <glyph glyph-name="L" unicode="L" horiz-adv-x="530" 
d="M100 700h25v-675h395v-25h-420v700z" />
    <glyph glyph-name="M" unicode="M" horiz-adv-x="835" 
d="M100 700h35l280 -662h5l280 662h35v-700h-25v653h-5l-275 -653h-25l-275 653h-5v-653h-25v700z" />
    <glyph glyph-name="N" unicode="N" horiz-adv-x="725" 
d="M100 700h30l465 -658h5v658h25v-700h-30l-465 658h-5v-658h-25v700z" />
    <glyph glyph-name="O" unicode="O" horiz-adv-x="720" 
d="M360 -10q-66 0 -121 24t-94.5 70t-62 113t-22.5 153t22.5 153t62 113t94.5 70t121 24t121 -24t94.5 -70t62 -113t22.5 -153t-22.5 -153t-62 -113t-94.5 -70t-121 -24zM360 15q60 0 110.5 22t87 65t57 105t20.5 143t-20.5 143t-57 105t-87 65t-110.5 22t-110.5 -22
t-87 -65t-57 -105t-20.5 -143t20.5 -143t57 -105t87 -65t110.5 -22z" />
    <glyph glyph-name="P" unicode="P" horiz-adv-x="615" 
d="M100 700h240q106 0 160.5 -56t54.5 -154t-54.5 -154t-160.5 -56h-215v-280h-25v700zM335 305q94 0 144.5 47t50.5 138t-50.5 138t-144.5 47h-210v-370h210z" />
    <glyph glyph-name="Q" unicode="Q" horiz-adv-x="720" 
d="M486 16q-27 -12 -57.5 -19t-68.5 -7q-66 0 -121 24t-94.5 70t-62 113t-22.5 153t22.5 153t62 113t94.5 70t121 24t121 -24t94.5 -70t62 -113t22.5 -153q0 -117 -39.5 -198t-112.5 -124l87 -128h-30zM360 15q26 0 55 4.5t57 18.5l-127 187h30l119 -176q65 38 103 113
t38 188q0 81 -20.5 143t-57 105t-87 65t-110.5 22t-110.5 -22t-87 -65t-57 -105t-20.5 -143t20.5 -143t57 -105t87 -65t110.5 -22z" />
    <glyph glyph-name="R" unicode="R" horiz-adv-x="615" 
d="M100 700h240q106 0 160.5 -53t54.5 -147t-54.5 -147t-160.5 -53h-20l215 -300h-30l-215 300h-165v-300h-25v700zM335 325q94 0 144.5 44t50.5 131t-50.5 131t-144.5 44h-210v-350h210z" />
    <glyph glyph-name="S" unicode="S" horiz-adv-x="590" 
d="M305 -10q-53 0 -96.5 15t-76 40.5t-54 60.5t-28.5 74h25q11 -45 36 -76.5t56.5 -51t67.5 -28.5t70 -9q49 0 88 13t66 35.5t41.5 52.5t14.5 64q0 44 -19 72t-50.5 46t-71.5 29t-81.5 20.5t-81.5 21.5t-71.5 32t-50.5 50.5t-19 78.5q0 37 13.5 70t40.5 57.5t68.5 38.5
t97.5 14q94 0 155 -43.5t80 -126.5h-25q-8 21 -21 46t-37 47t-61 37t-91 15q-91 0 -143 -40t-52 -115q0 -43 19 -70t50.5 -44.5t71.5 -27.5t81.5 -19.5t81.5 -21.5t71.5 -32.5t50.5 -52.5t19 -82q0 -34 -13.5 -68t-42 -61t-73 -44t-106.5 -17z" />
    <glyph glyph-name="T" unicode="T" horiz-adv-x="585" 
d="M280 675h-250v25h525v-25h-250v-675h-25v675z" />
    <glyph glyph-name="U" unicode="U" horiz-adv-x="700" 
d="M350 -10q-56 0 -103 19t-81 55t-52.5 88t-18.5 118v430h25v-430q0 -60 17 -107.5t47.5 -80t72.5 -50t93 -17.5t93 17.5t72.5 50t47.5 80t17 107.5v430h25v-430q0 -66 -19 -118t-52.5 -88t-80.5 -55t-103 -19z" />
    <glyph glyph-name="V" unicode="V" horiz-adv-x="595" 
d="M20 700h27l248 -674h5l248 674h27l-258 -700h-39z" />
    <glyph glyph-name="W" unicode="W" horiz-adv-x="885" 
d="M25 700h27l183 -665h5l186 665h33l186 -665h5l183 665h27l-193 -700h-39l-183 655h-5l-183 -655h-39z" />
    <glyph glyph-name="X" unicode="X" horiz-adv-x="560" 
d="M265 360l-225 340h28l212 -320l212 320h28l-225 -340l235 -360h-28l-222 340l-222 -340h-28z" />
    <glyph glyph-name="Y" unicode="Y" horiz-adv-x="555" 
d="M265 270l-250 430h28l232 -400h5l232 400h28l-250 -430v-270h-25v270z" />
    <glyph glyph-name="Z" unicode="Z" horiz-adv-x="550" 
d="M40 20l432 655h-422v25h455v-20l-432 -655h437v-25h-470v20z" />
    <glyph glyph-name="bracketleft" unicode="[" horiz-adv-x="290" 
d="M100 730h150v-25h-125v-880h125v-25h-150v930z" />
    <glyph glyph-name="backslash" unicode="\" horiz-adv-x="315" 
d="M0 730h25l290 -930h-25z" />
    <glyph glyph-name="bracketright" unicode="]" horiz-adv-x="290" 
d="M40 -175h125v880h-125v25h150v-930h-150v25z" />
    <glyph glyph-name="asciicircum" unicode="^" horiz-adv-x="445" 
d="M205 700h35l150 -320h-30l-135 290h-5l-135 -290h-30z" />
    <glyph glyph-name="underscore" unicode="_" horiz-adv-x="340" 
d="M-20 -140h380v-25h-380v25z" />
    <glyph glyph-name="grave" unicode="`" horiz-adv-x="190" 
d="M30 730h40l90 -140h-20z" />
    <glyph glyph-name="a" unicode="a" horiz-adv-x="515" 
d="M225 -10q-83 0 -129 41t-46 109q0 64 43.5 104.5t126.5 40.5h190v50q0 83 -43 121.5t-122 38.5q-34 0 -59 -8t-43 -23.5t-31 -38t-22 -50.5h-25q15 68 61.5 106.5t118.5 38.5q94 0 142 -50.5t48 -134.5v-335h-20l-5 95h-5q-9 -21 -25 -40t-38.5 -33.5t-51.5 -23t-65 -8.5
zM225 15q39 0 73 13t59 37t39 59.5t14 80.5v55h-190q-38 0 -65 -9.5t-45 -26t-26.5 -38.5t-8.5 -46q0 -30 11.5 -53.5t31.5 -39t47.5 -24t59.5 -8.5z" />
    <glyph glyph-name="b" unicode="b" horiz-adv-x="590" 
d="M310 -10q-28 0 -55.5 7t-52.5 22t-46 38.5t-36 57.5h-5l-5 -115h-20v700h25v-305h5q15 34 36 57.5t46 38.5t52.5 22t55.5 7q51 0 92.5 -18t71 -52.5t45.5 -83.5t16 -111t-16 -111t-45.5 -83.5t-71 -52.5t-92.5 -18zM310 15q52 0 90 20t62.5 53t36 76.5t11.5 90.5
t-11.5 90.5t-36 76.5t-62.5 53t-90 20q-49 0 -85.5 -19t-61 -52t-36.5 -76.5t-12 -92.5t12 -92.5t36.5 -76.5t61 -52t85.5 -19z" />
    <glyph glyph-name="c" unicode="c" horiz-adv-x="540" 
d="M285 -10q-51 0 -93 18t-72.5 52.5t-47.5 83.5t-17 111t17 111t47.5 83.5t72.5 52.5t93 18q72 0 126 -36.5t84 -108.5h-28q-24 53 -69 86.5t-113 33.5q-53 0 -91.5 -20t-63.5 -53t-37.5 -76.5t-12.5 -90.5t12.5 -90.5t37.5 -76.5t63.5 -53t91.5 -20q68 0 113 33.5t69 86.5
h28q-30 -72 -84 -108.5t-126 -36.5z" />
    <glyph glyph-name="d" unicode="d" horiz-adv-x="590" 
d="M280 -10q-51 0 -92.5 18t-71 52.5t-45.5 83.5t-16 111t16 111t45.5 83.5t71 52.5t92.5 18q28 0 55.5 -7t52.5 -22t46 -38.5t36 -57.5h5v305h25v-700h-20l-5 115h-5q-15 -34 -36 -57.5t-46 -38.5t-52.5 -22t-55.5 -7zM280 15q49 0 85.5 19t61 52t36.5 76.5t12 92.5
t-12 92.5t-36.5 76.5t-61 52t-85.5 19q-53 0 -90.5 -20t-62 -53t-36 -76.5t-11.5 -90.5t11.5 -90.5t36 -76.5t62 -53t90.5 -20z" />
    <glyph glyph-name="e" unicode="e" horiz-adv-x="555" 
d="M285 -10q-51 0 -93 18t-72.5 52.5t-47.5 83.5t-17 111t17 111t47 83.5t71 52.5t90 18q45 0 86 -16.5t71.5 -47.5t49 -75.5t18.5 -100.5v-30h-425q0 -46 13 -88.5t38.5 -75t63.5 -52t90 -19.5q68 0 113 33.5t69 86.5h28q-30 -72 -84 -108.5t-126 -36.5zM480 275
q0 48 -14.5 88.5t-40.5 69.5t-63 45.5t-82 16.5q-48 0 -84.5 -18t-61 -48.5t-38 -70.5t-16.5 -83h400z" />
    <glyph glyph-name="f" unicode="f" horiz-adv-x="305" 
d="M120 485h-90v25h90v95q0 45 25 70t70 25h70v-25h-70q-30 0 -50 -18t-20 -52v-95h140v-25h-140v-485h-25v485z" />
    <glyph glyph-name="g" unicode="g" horiz-adv-x="585" 
d="M290 -200q-87 0 -146 38t-84 117h27q23 -60 73.5 -95t129.5 -35q43 0 77.5 12.5t58.5 35t36.5 53.5t12.5 69v155h-5q-34 -64 -83.5 -92t-106.5 -28q-51 0 -92.5 18.5t-71 51.5t-45.5 77.5t-16 97.5q0 52 16 97t45.5 78t71 51.5t92.5 18.5q57 0 106.5 -28t83.5 -92h5
l5 110h20v-515q0 -43 -14 -79t-40.5 -61.5t-65.5 -40t-90 -14.5zM280 55q47 0 83.5 18t61 48.5t37.5 70.5t13 83t-13 83t-37.5 70.5t-61 48.5t-83.5 18t-84 -17.5t-63 -47.5t-39.5 -70t-13.5 -85t13.5 -85t39.5 -70t63 -47.5t84 -17.5z" />
    <glyph glyph-name="h" unicode="h" horiz-adv-x="560" 
d="M90 700h25v-285h5q23 49 66.5 77t103.5 28q43 0 78 -14.5t60 -41t38.5 -64.5t13.5 -85v-315h-25v315q0 37 -11 70t-32 57.5t-52 38.5t-70 14q-38 0 -70 -14t-55 -38.5t-36.5 -57.5t-13.5 -70v-315h-25v700z" />
    <glyph glyph-name="i" unicode="i" horiz-adv-x="195" 
d="M85 510h25v-510h-25v510zM100 625q-25 0 -25 25t25 25t25 -25t-25 -25z" />
    <glyph glyph-name="j" unicode="j" horiz-adv-x="195" 
d="M-55 -175h70q30 0 50 18t20 52v615h25v-615q0 -45 -25 -70t-70 -25h-70v25zM100 625q-25 0 -25 25t25 25t25 -25t-25 -25z" />
    <glyph glyph-name="k" unicode="k" horiz-adv-x="445" 
d="M90 700h25v-430l280 240h35l-290 -250l305 -260h-35l-295 250v-250h-25v700z" />
    <glyph glyph-name="l" unicode="l" horiz-adv-x="205" 
d="M90 700h25v-700h-25v700z" />
    <glyph glyph-name="m" unicode="m" horiz-adv-x="870" 
d="M85 510h20l5 -95h5q23 57 66.5 81t88.5 24q59 0 102.5 -32t62.5 -93h5q13 37 33 61.5t43 38.5t47 19.5t47 5.5q37 0 70 -14.5t57.5 -41t38.5 -64.5t14 -85v-315h-25v315q0 37 -11.5 70t-32 57.5t-49 38.5t-62.5 14q-36 0 -65.5 -14t-50.5 -38.5t-32.5 -57.5t-11.5 -70
v-315h-25v315q0 37 -11.5 70t-32 57.5t-49 38.5t-62.5 14q-36 0 -65.5 -14t-50.5 -38.5t-32.5 -57.5t-11.5 -70v-315h-25v510z" />
    <glyph glyph-name="n" unicode="n" horiz-adv-x="555" 
d="M85 510h20l5 -95h5q23 49 66.5 77t103.5 28q43 0 78 -14.5t60 -41t38.5 -64.5t13.5 -85v-315h-25v315q0 37 -11 70t-32 57.5t-52 38.5t-70 14q-38 0 -70 -14t-55 -38.5t-36.5 -57.5t-13.5 -70v-315h-25v510z" />
    <glyph glyph-name="o" unicode="o" horiz-adv-x="570" 
d="M285 -10q-51 0 -93 18t-72.5 52.5t-47.5 83.5t-17 111t17 111t47.5 83.5t72.5 52.5t93 18t93 -18t72.5 -52.5t47.5 -83.5t17 -111t-17 -111t-47.5 -83.5t-72.5 -52.5t-93 -18zM285 15q52 0 91 20t64 53t37.5 76.5t12.5 90.5t-12.5 90.5t-37.5 76.5t-64 53t-91 20
q-53 0 -91.5 -20t-63.5 -53t-37.5 -76.5t-12.5 -90.5t12.5 -90.5t37.5 -76.5t63.5 -53t91.5 -20z" />
    <glyph glyph-name="p" unicode="p" horiz-adv-x="585" 
d="M85 510h20l5 -115h5q15 34 36 57.5t46 38.5t52.5 22t55.5 7q51 0 92.5 -18t71 -52.5t45.5 -83.5t16 -111t-16 -111t-45.5 -83.5t-71 -52.5t-92.5 -18q-28 0 -55.5 7t-52.5 22t-46 38.5t-36 57.5h-5v-315h-25v710zM305 15q52 0 90 20t62.5 53t36 76.5t11.5 90.5
t-11.5 90.5t-36 76.5t-62.5 53t-90 20q-49 0 -85.5 -19t-61 -52t-36.5 -76.5t-12 -92.5t12 -92.5t36.5 -76.5t61 -52t85.5 -19z" />
    <glyph glyph-name="q" unicode="q" horiz-adv-x="585" 
d="M475 115h-5q-15 -34 -36 -57.5t-46 -38.5t-52.5 -22t-55.5 -7q-51 0 -92.5 18t-71 52.5t-45.5 83.5t-16 111t16 111t45.5 83.5t71 52.5t92.5 18q28 0 55.5 -7t52.5 -22t46 -38.5t36 -57.5h5l5 115h20v-710h-25v315zM280 15q49 0 85.5 19t61 52t36.5 76.5t12 92.5
t-12 92.5t-36.5 76.5t-61 52t-85.5 19q-53 0 -90.5 -20t-62 -53t-36 -76.5t-11.5 -90.5t11.5 -90.5t36 -76.5t62 -53t90.5 -20z" />
    <glyph glyph-name="r" unicode="r" horiz-adv-x="340" 
d="M85 510h20l5 -95h5q44 95 155 95h50v-25h-50q-39 0 -69 -14t-50.5 -37.5t-30.5 -54t-10 -64.5v-315h-25v510z" />
    <glyph glyph-name="s" unicode="s" horiz-adv-x="470" 
d="M240 -10q-79 0 -129.5 40.5t-65.5 104.5h25q6 -19 17.5 -40t32 -39t50 -29.5t70.5 -11.5q72 0 116 29t44 86q0 44 -25 65.5t-63 32.5t-82 17.5t-82 19.5t-63 39t-25 76q0 28 11 53.5t33 44.5t55 30.5t76 11.5q68 0 116.5 -33t63.5 -97h-25q-6 13 -15.5 31t-26.5 34.5
t-44.5 28t-68.5 11.5q-75 0 -112.5 -33t-37.5 -82q0 -32 14.5 -51.5t38.5 -31t54.5 -18.5t62.5 -13t62.5 -14t54.5 -22.5t38.5 -38.5t14.5 -61q0 -60 -45.5 -100t-139.5 -40z" />
    <glyph glyph-name="t" unicode="t" horiz-adv-x="330" 
d="M215 0q-45 0 -70 25t-25 70v390h-90v25h90l5 140h20v-140h140v-25h-140v-390q0 -34 20 -52t50 -18h70v-25h-70v0z" />
    <glyph glyph-name="u" unicode="u" horiz-adv-x="560" 
d="M275 -10q-43 0 -78 14.5t-60 41t-38.5 64.5t-13.5 85v315h25v-315q0 -38 11 -70.5t32 -57t52 -38.5t70 -14q37 0 69.5 14t55.5 38.5t36.5 57t13.5 70.5v315h25v-510h-20l-5 95h-5q-23 -49 -66.5 -77t-103.5 -28z" />
    <glyph glyph-name="v" unicode="v" horiz-adv-x="465" 
d="M10 510h27l193 -485h5l193 485h27l-205 -510h-35z" />
    <glyph glyph-name="w" unicode="w" horiz-adv-x="675" 
d="M15 510h26l137 -475h5l142 475h25l142 -475h5l137 475h26l-150 -510h-31l-139 465h-5l-139 -465h-31z" />
    <glyph glyph-name="x" unicode="x" horiz-adv-x="430" 
d="M201 265l-171 245h30l155 -226l155 226h30l-171 -245l181 -265h-30l-165 246l-165 -246h-30z" />
    <glyph glyph-name="y" unicode="y" horiz-adv-x="470" 
d="M228 0l-218 510h26l202 -470h6l189 470h27l-286 -710h-27z" />
    <glyph glyph-name="z" unicode="z" horiz-adv-x="435" 
d="M30 20l337 465h-327v25h360v-20l-337 -465h342v-25h-375v20z" />
    <glyph glyph-name="braceleft" unicode="{" horiz-adv-x="290" 
d="M215 -200q-42 0 -66 26t-24 79v265q0 75 -65 75v40q65 0 65 75v265q0 53 24 79t66 26h35v-25h-30q-70 0 -70 -80v-265q0 -83 -65 -90v-10q65 -7 65 -90v-265q0 -80 70 -80h30v-25h-35v0z" />
    <glyph glyph-name="bar" unicode="|" horiz-adv-x="265" 
d="M120 730h25v-930h-25v930z" />
    <glyph glyph-name="braceright" unicode="}" horiz-adv-x="290" 
d="M40 -175h30q70 0 70 80v265q0 83 65 90v10q-65 7 -65 90v265q0 80 -70 80h-30v25h35q42 0 66 -26t24 -79v-265q0 -75 65 -75v-40q-65 0 -65 -75v-265q0 -53 -24 -79t-66 -26h-35v25z" />
    <glyph glyph-name="asciitilde" unicode="~" horiz-adv-x="550" 
d="M65 235q0 24 6.5 46t19.5 38.5t33 26t46 9.5q37 0 62 -15t46.5 -32.5t44.5 -32.5t57 -15q38 0 59 26.5t21 68.5h25q0 -24 -6.5 -46t-19.5 -38.5t-33 -26t-46 -9.5q-38 0 -62.5 15t-46 32.5t-44.5 32.5t-57 15q-38 0 -59 -26.5t-21 -68.5h-25v0z" />
    <glyph glyph-name="nonbreakingspace" unicode="&#xa0;" horiz-adv-x="200" 
 />
    <glyph glyph-name="exclamdown" unicode="&#xa1;" horiz-adv-x="235" 
d="M103 -140l5 450h20l5 -450v-60h-30v60zM118 460q-14 0 -21 8.5t-7 18.5q0 11 7 19.5t21 8.5q13 0 20 -8.5t7 -19.5q0 -10 -7 -18.5t-20 -8.5z" />
    <glyph glyph-name="cent" unicode="&#xa2;" horiz-adv-x="540" 
d="M275 -10q-49 2 -89.5 21t-69.5 53t-45 82.5t-16 108.5t16 108.5t45 82.5t69.5 53t89.5 21v100h25v-100q68 -5 117 -41t78 -104h-28q-24 53 -69 86.5t-113 33.5q-53 0 -91.5 -20t-63.5 -53t-37.5 -76.5t-12.5 -90.5t12.5 -90.5t37.5 -76.5t63.5 -53t91.5 -20
q68 0 113 33.5t69 86.5h28q-29 -68 -78 -104t-117 -41v-100h-25v100z" />
    <glyph glyph-name="sterling" unicode="&#xa3;" horiz-adv-x="565" 
d="M55 25h25q26 0 40.5 16t14.5 54v230h-80v25h80v150q0 49 13.5 88t38 66t58.5 41.5t75 14.5q37 0 68.5 -12.5t55 -36t38 -57t18.5 -74.5h-25q-2 22 -11 49.5t-27 50.5t-47 39t-70 16q-72 0 -116 -49t-44 -136v-150h195v-25h-195v-230q0 -21 -4 -34.5t-9 -21.5
q-5 -10 -12 -14h390v-25h-470v25z" />
    <glyph glyph-name="currency" unicode="&#xa4;" horiz-adv-x="550" 
d="M70 125l58 61q-25 26 -39 61.5t-14 77.5t14 77.5t39 61.5l-58 61l15 15l60 -60q54 45 130 45t130 -45l60 60l15 -15l-58 -61q25 -26 39 -61.5t14 -77.5t-14 -77.5t-39 -61.5l58 -61l-15 -15l-60 60q-54 -45 -130 -45t-130 45l-60 -60zM275 150q39 0 71.5 14t55.5 38
t35.5 55.5t12.5 67.5t-12.5 67.5t-35.5 55.5t-55.5 38t-71.5 14t-71.5 -14t-55.5 -38t-35.5 -55.5t-12.5 -67.5t12.5 -67.5t35.5 -55.5t55.5 -38t71.5 -14z" />
    <glyph glyph-name="yen" unicode="&#xa5;" horiz-adv-x="545" 
d="M260 150h-200v25h200v105h-200v25h183l-223 395h28l222 -395h5l222 395h28l-223 -395h183v-25h-200v-105h200v-25h-200v-150h-25v150z" />
    <glyph glyph-name="brokenbar" unicode="&#xa6;" horiz-adv-x="265" 
d="M120 170h25v-370h-25v370zM120 730h25v-370h-25v370z" />
    <glyph glyph-name="section" unicode="&#xa7;" horiz-adv-x="610" 
d="M320 -120q-98 0 -157 45t-78 120h25q7 -21 20.5 -45.5t37.5 -45.5t61 -35t91 -14q83 0 129 34t46 91q0 38 -18.5 61t-48 36t-68 19.5t-78 12t-78 13.5t-68 24t-48 43t-18.5 71q0 26 8.5 47t21 37.5t27.5 29t29 21.5q-10 6 -21.5 15.5t-21.5 23.5t-16.5 33t-6.5 43
q0 68 51 109t149 41t157 -45t78 -120h-25q-8 21 -21 45.5t-37 45.5t-61 35t-91 14q-83 0 -129 -34t-46 -91q0 -38 18.5 -61t48 -36t68 -19.5t78 -12t78 -13.5t68 -24t48 -43t18.5 -71q0 -26 -8.5 -47t-21 -37.5t-28 -29t-28.5 -21.5q10 -6 21.5 -15.5t21.5 -23.5t16.5 -33
t6.5 -43q0 -68 -51 -109t-149 -41zM425 155q17 9 33 22t29 29t20.5 34.5t7.5 39.5q0 36 -16.5 58.5t-43.5 36t-62 20.5t-71.5 12t-72 11t-64.5 17q-17 -9 -33 -22t-29 -29t-20.5 -34.5t-7.5 -39.5q0 -36 16.5 -58.5t43.5 -36t62 -20.5t71.5 -12t72 -11t64.5 -17z" />
    <glyph glyph-name="dieresis" unicode="&#xa8;" horiz-adv-x="270" 
d="M55 635q-25 0 -25 25t25 25t25 -25t-25 -25zM215 635q-25 0 -25 25t25 25t25 -25t-25 -25z" />
    <glyph glyph-name="copyright" unicode="&#xa9;" horiz-adv-x="860" 
d="M430 -10q-79 0 -145 26.5t-114 74.5t-74.5 114t-26.5 145t26.5 145t74.5 114t114 74.5t145 26.5t145 -26.5t114 -74.5t74.5 -114t26.5 -145t-26.5 -145t-74.5 -114t-114 -74.5t-145 -26.5zM430 15q69 0 130 23t106.5 66t72 105t26.5 141t-26.5 141t-72 105t-106.5 66
t-130 23t-130 -23t-106.5 -66t-72 -105t-26.5 -141t26.5 -141t72 -105t106.5 -66t130 -23zM435 160q-36 0 -66 13t-52 37t-34.5 59.5t-12.5 80.5t12.5 80.5t34.5 59.5t52 37t66 13q57 0 96 -30.5t56 -79.5h-27q-15 38 -45.5 61.5t-79.5 23.5q-60 0 -100 -41t-40 -124
t40 -124t100 -41q49 0 79.5 23.5t45.5 61.5h27q-17 -49 -56 -79.5t-96 -30.5z" />
    <glyph glyph-name="ordfeminine" unicode="&#xaa;" horiz-adv-x="365" 
d="M165 350q-60 0 -95 31t-35 84q0 17 6.5 33t19.5 29t33 20.5t46 7.5h150v25q0 21 -7.5 40t-21.5 33.5t-34.5 23t-46.5 8.5t-44.5 -7t-30.5 -17.5t-19 -24t-11 -26.5h-25q4 21 14.5 39t27 31.5t38 21.5t45.5 8q64 0 102 -35t38 -95v-225h-15l-5 75h-5q-6 -13 -17 -27
t-27 -26t-36.5 -19.5t-44.5 -7.5zM165 375q26 0 49 10.5t40 28.5t26.5 41.5t9.5 49.5v25h-150q-34 0 -57 -18t-23 -52t26 -59.5t79 -25.5z" />
    <glyph glyph-name="guillemotleft" unicode="&#xab;" horiz-adv-x="510" 
d="M60 265l200 225h30l-199 -224v-2l199 -224h-30zM230 265l200 225h30l-199 -224v-2l199 -224h-30z" />
    <glyph glyph-name="logicalnot" unicode="&#xac;" horiz-adv-x="490" 
d="M410 325h-360v25h385v-175h-25v150z" />
    <glyph glyph-name="uni00AD" unicode="&#xad;" horiz-adv-x="370" 
d="M40 300h290v-25h-290v25z" />
    <glyph glyph-name="registered" unicode="&#xae;" horiz-adv-x="860" 
d="M430 -10q-79 0 -145 26.5t-114 74.5t-74.5 114t-26.5 145t26.5 145t74.5 114t114 74.5t145 26.5t145 -26.5t114 -74.5t74.5 -114t26.5 -145t-26.5 -145t-74.5 -114t-114 -74.5t-145 -26.5zM430 15q69 0 130 23t106.5 66t72 105t26.5 141t-26.5 141t-72 105t-106.5 66
t-130 23t-130 -23t-106.5 -66t-72 -105t-26.5 -141t26.5 -141t72 -105t106.5 -66t130 -23zM320 540h140q53 0 86.5 -28.5t33.5 -81.5q0 -28 -9.5 -49t-25.5 -34.5t-37 -20t-43 -6.5l115 -155h-30l-115 155h-90v-155h-25v375zM455 345q100 0 100 85t-100 85h-110v-170h110z
" />
    <glyph glyph-name="macron" unicode="&#xaf;" horiz-adv-x="320" 
d="M30 670h260v-25h-260v25z" />
    <glyph glyph-name="degree" unicode="&#xb0;" horiz-adv-x="370" 
d="M185 455q-53 0 -89 34.5t-36 93.5q0 29 9.5 52.5t26.5 40t40 25.5t49 9t49 -9t40 -25.5t26.5 -40t9.5 -52.5q0 -59 -36 -93.5t-89 -34.5zM185 480q42 0 71 26t29 77t-29 76.5t-71 25.5t-71 -25.5t-29 -76.5t29 -77t71 -26z" />
    <glyph glyph-name="plusminus" unicode="&#xb1;" horiz-adv-x="535" 
d="M50 25h435v-25h-435v25zM255 300h-205v25h205v195h25v-195h205v-25h-205v-195h-25v195z" />
    <glyph glyph-name="uni00B2" unicode="&#xb2;" horiz-adv-x="335" 
d="M40 425l182 169q21 20 32 40t11 46q0 49 -26.5 74.5t-68.5 25.5q-49 0 -73 -25t-32 -70h-25q8 53 39 86.5t91 33.5t90 -36t30 -89q0 -34 -14 -57t-31 -39l-170 -159h210v-25h-245v25z" />
    <glyph glyph-name="uni00B3" unicode="&#xb3;" horiz-adv-x="335" 
d="M165 395q-53 0 -90 28t-45 77h25q2 -13 9.5 -27t21 -26t33.5 -19.5t46 -7.5q53 0 76.5 26t23.5 64t-24 61.5t-66 23.5h-55v25h65q30 0 52.5 18t22.5 52q0 45 -29 67.5t-71 22.5t-69.5 -23t-35.5 -72h-25q2 24 12 46t27 38.5t40 26t51 9.5q32 0 55.5 -9.5t39 -25t23 -35
t7.5 -40.5q0 -38 -19.5 -60t-45.5 -28q38 -13 54 -40t16 -57q0 -49 -32.5 -82t-92.5 -33z" />
    <glyph glyph-name="acute" unicode="&#xb4;" horiz-adv-x="190" 
d="M120 730h40l-110 -140h-20z" />
    <glyph glyph-name="uni00B5" unicode="&#xb5;" horiz-adv-x="560" 
d="M85 510h25v-315q0 -38 11 -70.5t32 -57t52 -38.5t70 -14q37 0 69.5 14t55.5 38.5t36.5 57t13.5 70.5v315h25v-510h-20l-5 95h-5q-23 -49 -66.5 -77t-103.5 -28q-48 0 -78.5 14t-48.5 31q-21 19 -33 45h-5v-260h-25v690z" />
    <glyph glyph-name="paragraph" unicode="&#xb6;" horiz-adv-x="490" 
d="M220 350q-39 0 -69 13.5t-50.5 36.5t-30.5 55t-10 70q0 37 10 69.5t30.5 55.5t50.5 36.5t69 13.5h170v-810h-25v785h-120v-785h-25v460z" />
    <glyph glyph-name="periodcentered" unicode="&#xb7;" horiz-adv-x="200" 
d="M98 250q-14 0 -21 8.5t-7 19.5q0 10 7 18.5t21 8.5q13 0 20 -8.5t7 -18.5q0 -11 -7 -19.5t-20 -8.5z" />
    <glyph glyph-name="cedilla" unicode="&#xb8;" horiz-adv-x="200" 
d="M30 -175h50q30 0 47.5 16t17.5 39t-17.5 39t-47.5 16h-40v15l25 50h25l-20 -40h10q42 0 66 -21t24 -59t-24 -59t-66 -21h-50v25z" />
    <glyph glyph-name="uni00B9" unicode="&#xb9;" horiz-adv-x="215" 
d="M120 705h-90v25h65q25 0 25 25v45h25v-400h-25v305z" />
    <glyph glyph-name="ordmasculine" unicode="&#xba;" horiz-adv-x="380" 
d="M190 350q-30 0 -57 11t-48 33.5t-33 56.5t-12 79t12 78.5t33 56t48 34t57 11.5t57 -11.5t48 -34t33 -56t12 -78.5t-12 -79t-33 -56.5t-48 -33.5t-57 -11zM190 375q57 0 91 41.5t34 113.5t-34 113.5t-91 41.5t-91 -41.5t-34 -113.5t34 -113.5t91 -41.5z" />
    <glyph glyph-name="guillemotright" unicode="&#xbb;" horiz-adv-x="510" 
d="M249 264v2l-199 224h30l200 -225l-200 -225h-30zM419 264v2l-199 224h30l200 -225l-200 -225h-30z" />
    <glyph glyph-name="onequarter" unicode="&#xbc;" horiz-adv-x="725" 
d="M540 700h30l-435 -700h-30zM170 605h-90v25h65q25 0 25 25v45h25v-400h-25v305zM575 90h-215v25l200 285h40v-285h55v-25h-55v-90h-25v90zM575 115v258h-5l-180 -258h185z" />
    <glyph glyph-name="onehalf" unicode="&#xbd;" horiz-adv-x="760" 
d="M540 700h30l-435 -700h-30zM170 605h-90v25h65q25 0 25 25v45h25v-400h-25v305zM430 25l182 169q21 20 32 40t11 46q0 49 -26.5 74.5t-68.5 25.5q-49 0 -73 -25t-32 -70h-25q8 53 39 86.5t91 33.5t90 -36t30 -89q0 -34 -14 -57t-31 -39l-170 -159h210v-25h-245v25z" />
    <glyph glyph-name="threequarters" unicode="&#xbe;" horiz-adv-x="815" 
d="M630 700h30l-435 -700h-30zM210 295q-53 0 -90 28t-45 77h25q2 -13 9.5 -27t21 -26t33.5 -19.5t46 -7.5q53 0 76.5 26t23.5 64t-24 61.5t-66 23.5h-55v25h65q30 0 52.5 18t22.5 52q0 45 -29 67.5t-71 22.5t-69.5 -23t-35.5 -72h-25q2 24 12 46t27 38.5t40 26t51 9.5
q32 0 55.5 -9.5t39 -25t23 -35t7.5 -40.5q0 -38 -19.5 -60t-45.5 -28q38 -13 54 -40t16 -57q0 -49 -32.5 -82t-92.5 -33zM665 90h-215v25l200 285h40v-285h55v-25h-55v-90h-25v90zM665 115v258h-5l-180 -258h185z" />
    <glyph glyph-name="questiondown" unicode="&#xbf;" horiz-adv-x="480" 
d="M245 -210q-47 0 -81.5 14.5t-57.5 38t-34.5 53t-11.5 59.5q0 24 3.5 45t13.5 40t27.5 37t45.5 38q24 17 39.5 30t24.5 29t12.5 38t3.5 58v40h25v-40q0 -36 -2.5 -59t-11.5 -41t-26 -33.5t-45 -36.5q-24 -18 -40.5 -33.5t-26.5 -31.5t-14 -34.5t-4 -40.5q0 -34 12.5 -61
t34 -45.5t50.5 -28.5t63 -10q72 0 118 38.5t57 121.5h25q-4 -36 -17.5 -69t-37.5 -59t-60 -41.5t-85 -15.5zM242 460q-13 0 -20 8.5t-7 18.5q0 11 7 19.5t20 8.5q14 0 21 -8.5t7 -19.5q0 -10 -7 -18.5t-21 -8.5z" />
    <glyph glyph-name="Agrave" unicode="&#xc0;" horiz-adv-x="595" 
d="M280 700h35l265 -700h-25l-75 200h-365l-75 -200h-25zM470 225l-170 450h-5l-170 -450h345zM175 910h40l90 -140h-20z" />
    <glyph glyph-name="Aacute" unicode="&#xc1;" horiz-adv-x="595" 
d="M280 700h35l265 -700h-25l-75 200h-365l-75 -200h-25zM470 225l-170 450h-5l-170 -450h345zM380 910h40l-110 -140h-20z" />
    <glyph glyph-name="Acircumflex" unicode="&#xc2;" horiz-adv-x="595" 
d="M280 700h35l265 -700h-25l-75 200h-365l-75 -200h-25zM470 225l-170 450h-5l-170 -450h345zM285 915h25l130 -145h-30l-110 122h-5l-110 -122h-30z" />
    <glyph glyph-name="Atilde" unicode="&#xc3;" horiz-adv-x="595" 
d="M280 700h35l265 -700h-25l-75 200h-365l-75 -200h-25zM470 225l-170 450h-5l-170 -450h345zM370 785q-23 0 -41 10t-34.5 22.5t-32 22.5t-32.5 10q-40 0 -40 -60h-25q0 45 17.5 65t47.5 20q22 0 40.5 -10t35 -22.5t32 -22.5t32.5 -10q40 0 40 60h25q0 -45 -17.5 -65
t-47.5 -20z" />
    <glyph glyph-name="Adieresis" unicode="&#xc4;" horiz-adv-x="595" 
d="M280 700h35l265 -700h-25l-75 200h-365l-75 -200h-25zM470 225l-170 450h-5l-170 -450h345zM220 815q-25 0 -25 25t25 25t25 -25t-25 -25zM380 815q-25 0 -25 25t25 25t25 -25t-25 -25z" />
    <glyph glyph-name="Aring" unicode="&#xc5;" horiz-adv-x="595" 
d="M280 700h35l265 -700h-25l-75 200h-365l-75 -200h-25zM470 225l-170 450h-5l-170 -450h345zM297 750q-35 0 -61 24t-26 63q0 40 26 64t61 24q36 0 62 -24t26 -64t-26.5 -63.5t-61.5 -23.5zM297 775q28 0 45.5 16.5t17.5 45.5t-17 46t-46 17q-28 0 -45 -17t-17 -46
q0 -28 17 -45t45 -17z" />
    <glyph glyph-name="AE" unicode="&#xc6;" horiz-adv-x="920" 
d="M340 700h500v-25h-395v-310h375v-25h-375v-315h405v-25h-430v190h-308l-94 -190h-28zM420 215v460h-65l-230 -460h295z" />
    <glyph glyph-name="Ccedilla" unicode="&#xc7;" horiz-adv-x="680" 
d="M300 -175h50q30 0 47.5 16t17.5 39t-17.5 39t-47.5 16h-40v15l20 42q-60 5 -109.5 31t-85 71.5t-55.5 110t-20 145.5q0 86 22.5 153t62 113t94.5 70t121 24q98 0 167 -50.5t103 -144.5h-25q-34 83 -96 126.5t-149 43.5q-60 0 -110.5 -22t-87 -65t-57 -105t-20.5 -143
t20.5 -143t57 -105t87 -65t110.5 -22q87 0 149 43.5t96 126.5h25q-34 -94 -103 -144.5t-167 -50.5h-5l-15 -30h10q42 0 66 -21t24 -59t-24 -59t-66 -21h-50v25z" />
    <glyph glyph-name="Egrave" unicode="&#xc8;" horiz-adv-x="600" 
d="M100 700h420v-25h-395v-310h375v-25h-375v-315h405v-25h-430v700zM195 910h40l90 -140h-20z" />
    <glyph glyph-name="Eacute" unicode="&#xc9;" horiz-adv-x="600" 
d="M100 700h420v-25h-395v-310h375v-25h-375v-315h405v-25h-430v700zM395 910h40l-110 -140h-20z" />
    <glyph glyph-name="Ecircumflex" unicode="&#xca;" horiz-adv-x="600" 
d="M100 700h420v-25h-395v-310h375v-25h-375v-315h405v-25h-430v700zM305 915h25l130 -145h-30l-110 122h-5l-110 -122h-30z" />
    <glyph glyph-name="Edieresis" unicode="&#xcb;" horiz-adv-x="600" 
d="M100 700h420v-25h-395v-310h375v-25h-375v-315h405v-25h-430v700zM235 815q-25 0 -25 25t25 25t25 -25t-25 -25zM395 815q-25 0 -25 25t25 25t25 -25t-25 -25z" />
    <glyph glyph-name="Igrave" unicode="&#xcc;" horiz-adv-x="225" 
d="M100 700h25v-700h-25v700zM-10 910h40l90 -140h-20z" />
    <glyph glyph-name="Iacute" unicode="&#xcd;" horiz-adv-x="225" 
d="M100 700h25v-700h-25v700zM195 910h40l-110 -140h-20z" />
    <glyph glyph-name="Icircumflex" unicode="&#xce;" horiz-adv-x="225" 
d="M100 700h25v-700h-25v700zM100 915h25l130 -145h-30l-110 122h-5l-110 -122h-30z" />
    <glyph glyph-name="Idieresis" unicode="&#xcf;" horiz-adv-x="225" 
d="M100 700h25v-700h-25v700zM35 815q-25 0 -25 25t25 25t25 -25t-25 -25zM195 815q-25 0 -25 25t25 25t25 -25t-25 -25z" />
    <glyph glyph-name="Eth" unicode="&#xd0;" horiz-adv-x="685" 
d="M105 340h-75v25h75v335h220q66 0 121 -24t94.5 -69t62 -110t22.5 -147q0 -83 -22.5 -148t-62 -110t-94.5 -68.5t-121 -23.5h-220v340zM325 25q60 0 110.5 22t87 63.5t57 102t20.5 137.5t-20.5 137.5t-57 102t-87 63.5t-110.5 22h-195v-310h205v-25h-205v-315h195z" />
    <glyph glyph-name="Ntilde" unicode="&#xd1;" horiz-adv-x="725" 
d="M100 700h30l465 -658h5v658h25v-700h-30l-465 658h-5v-658h-25v700zM435 795q-23 0 -41 10t-34.5 22.5t-32 22.5t-32.5 10q-40 0 -40 -60h-25q0 45 17.5 65t47.5 20q22 0 40.5 -10t35 -22.5t32 -22.5t32.5 -10q40 0 40 60h25q0 -45 -17.5 -65t-47.5 -20z" />
    <glyph glyph-name="Ograve" unicode="&#xd2;" horiz-adv-x="720" 
d="M360 -10q-66 0 -121 24t-94.5 70t-62 113t-22.5 153t22.5 153t62 113t94.5 70t121 24t121 -24t94.5 -70t62 -113t22.5 -153t-22.5 -153t-62 -113t-94.5 -70t-121 -24zM360 15q60 0 110.5 22t87 65t57 105t20.5 143t-20.5 143t-57 105t-87 65t-110.5 22t-110.5 -22
t-87 -65t-57 -105t-20.5 -143t20.5 -143t57 -105t87 -65t110.5 -22zM240 910h40l90 -140h-20z" />
    <glyph glyph-name="Oacute" unicode="&#xd3;" horiz-adv-x="720" 
d="M360 -10q-66 0 -121 24t-94.5 70t-62 113t-22.5 153t22.5 153t62 113t94.5 70t121 24t121 -24t94.5 -70t62 -113t22.5 -153t-22.5 -153t-62 -113t-94.5 -70t-121 -24zM360 15q60 0 110.5 22t87 65t57 105t20.5 143t-20.5 143t-57 105t-87 65t-110.5 22t-110.5 -22
t-87 -65t-57 -105t-20.5 -143t20.5 -143t57 -105t87 -65t110.5 -22zM440 910h40l-110 -140h-20z" />
    <glyph glyph-name="Ocircumflex" unicode="&#xd4;" horiz-adv-x="720" 
d="M360 -10q-66 0 -121 24t-94.5 70t-62 113t-22.5 153t22.5 153t62 113t94.5 70t121 24t121 -24t94.5 -70t62 -113t22.5 -153t-22.5 -153t-62 -113t-94.5 -70t-121 -24zM360 15q60 0 110.5 22t87 65t57 105t20.5 143t-20.5 143t-57 105t-87 65t-110.5 22t-110.5 -22
t-87 -65t-57 -105t-20.5 -143t20.5 -143t57 -105t87 -65t110.5 -22zM350 915h25l130 -145h-30l-110 122h-5l-110 -122h-30z" />
    <glyph glyph-name="Otilde" unicode="&#xd5;" horiz-adv-x="720" 
d="M360 -10q-66 0 -121 24t-94.5 70t-62 113t-22.5 153t22.5 153t62 113t94.5 70t121 24t121 -24t94.5 -70t62 -113t22.5 -153t-22.5 -153t-62 -113t-94.5 -70t-121 -24zM360 15q60 0 110.5 22t87 65t57 105t20.5 143t-20.5 143t-57 105t-87 65t-110.5 22t-110.5 -22
t-87 -65t-57 -105t-20.5 -143t20.5 -143t57 -105t87 -65t110.5 -22zM430 795q-23 0 -41 10t-34.5 22.5t-32 22.5t-32.5 10q-40 0 -40 -60h-25q0 45 17.5 65t47.5 20q22 0 40.5 -10t35 -22.5t32 -22.5t32.5 -10q40 0 40 60h25q0 -45 -17.5 -65t-47.5 -20z" />
    <glyph glyph-name="Odieresis" unicode="&#xd6;" horiz-adv-x="720" 
d="M360 -10q-66 0 -121 24t-94.5 70t-62 113t-22.5 153t22.5 153t62 113t94.5 70t121 24t121 -24t94.5 -70t62 -113t22.5 -153t-22.5 -153t-62 -113t-94.5 -70t-121 -24zM360 15q60 0 110.5 22t87 65t57 105t20.5 143t-20.5 143t-57 105t-87 65t-110.5 22t-110.5 -22
t-87 -65t-57 -105t-20.5 -143t20.5 -143t57 -105t87 -65t110.5 -22zM280 815q-25 0 -25 25t25 25t25 -25t-25 -25zM440 815q-25 0 -25 25t25 25t25 -25t-25 -25z" />
    <glyph glyph-name="multiply" unicode="&#xd7;" horiz-adv-x="514" 
d="M70 143l169 170l-169 169l17 18l170 -170l170 170l17 -18l-169 -169l169 -170l-17 -18l-170 170l-170 -170z" />
    <glyph glyph-name="Oslash" unicode="&#xd8;" horiz-adv-x="720" 
d="M172 56q-53 45 -82.5 119t-29.5 175q0 86 22.5 153t62 113t94.5 70t121 24q95 0 169 -51l39 66h27l-47 -81q53 -45 82.5 -119t29.5 -175q0 -86 -22.5 -153t-62 -113t-94.5 -70t-121 -24q-96 0 -169 51l-39 -66h-27zM516 637q-32 23 -71.5 35.5t-84.5 12.5
q-60 0 -110.5 -22t-87 -65t-57 -105t-20.5 -143q0 -94 27 -162t74 -110zM360 15q60 0 110.5 22t87 65t57 105t20.5 143q0 94 -27 162t-74 110l-330 -559q32 -23 71.5 -35.5t84.5 -12.5z" />
    <glyph glyph-name="Ugrave" unicode="&#xd9;" horiz-adv-x="700" 
d="M350 -10q-56 0 -103 19t-81 55t-52.5 88t-18.5 118v430h25v-430q0 -60 17 -107.5t47.5 -80t72.5 -50t93 -17.5t93 17.5t72.5 50t47.5 80t17 107.5v430h25v-430q0 -66 -19 -118t-52.5 -88t-80.5 -55t-103 -19zM230 910h40l90 -140h-20z" />
    <glyph glyph-name="Uacute" unicode="&#xda;" horiz-adv-x="700" 
d="M350 -10q-56 0 -103 19t-81 55t-52.5 88t-18.5 118v430h25v-430q0 -60 17 -107.5t47.5 -80t72.5 -50t93 -17.5t93 17.5t72.5 50t47.5 80t17 107.5v430h25v-430q0 -66 -19 -118t-52.5 -88t-80.5 -55t-103 -19zM430 910h40l-110 -140h-20z" />
    <glyph glyph-name="Ucircumflex" unicode="&#xdb;" horiz-adv-x="700" 
d="M350 -10q-56 0 -103 19t-81 55t-52.5 88t-18.5 118v430h25v-430q0 -60 17 -107.5t47.5 -80t72.5 -50t93 -17.5t93 17.5t72.5 50t47.5 80t17 107.5v430h25v-430q0 -66 -19 -118t-52.5 -88t-80.5 -55t-103 -19zM340 915h25l130 -145h-30l-110 122h-5l-110 -122h-30z" />
    <glyph glyph-name="Udieresis" unicode="&#xdc;" horiz-adv-x="700" 
d="M350 -10q-56 0 -103 19t-81 55t-52.5 88t-18.5 118v430h25v-430q0 -60 17 -107.5t47.5 -80t72.5 -50t93 -17.5t93 17.5t72.5 50t47.5 80t17 107.5v430h25v-430q0 -66 -19 -118t-52.5 -88t-80.5 -55t-103 -19zM270 815q-25 0 -25 25t25 25t25 -25t-25 -25zM430 815
q-25 0 -25 25t25 25t25 -25t-25 -25z" />
    <glyph glyph-name="Yacute" unicode="&#xdd;" horiz-adv-x="555" 
d="M265 270l-250 430h28l232 -400h5l232 400h28l-250 -430v-270h-25v270zM355 910h40l-110 -140h-20z" />
    <glyph glyph-name="Thorn" unicode="&#xde;" horiz-adv-x="675" 
d="M100 700h25v-185h320q37 0 70 -10.5t57.5 -31t38.5 -51.5t14 -72t-14 -72t-38.5 -51.5t-57.5 -31t-70 -10.5h-320v-185h-25v700zM445 210q41 0 70.5 12t48 31.5t27.5 45t9 51.5t-9 51.5t-27.5 45t-48 31.5t-70.5 12h-320v-280h320z" />
    <glyph glyph-name="germandbls" unicode="&#xdf;" horiz-adv-x="555" 
d="M85 505q0 49 14.5 87t40.5 64t63 40t82 14q49 0 85.5 -15.5t61 -41t36.5 -57.5t12 -66t-10.5 -62t-27.5 -49.5t-40 -36.5t-47 -22q32 -6 59.5 -20t47.5 -36t31.5 -52t11.5 -67q0 -87 -56 -136t-154 -49h-50v25h50q94 0 139.5 44t45.5 116q0 79 -49 119.5t-136 40.5h-50
v25h40q37 0 68.5 11.5t54 32.5t35 50.5t12.5 65.5q0 34 -12.5 62.5t-35 49t-54 32t-68.5 11.5q-45 0 -78 -14t-54.5 -38.5t-32 -57.5t-10.5 -70v-505h-25v505z" />
    <glyph glyph-name="agrave" unicode="&#xe0;" horiz-adv-x="515" 
d="M225 -10q-83 0 -129 41t-46 109q0 64 43.5 104.5t126.5 40.5h190v50q0 83 -43 121.5t-122 38.5q-34 0 -59 -8t-43 -23.5t-31 -38t-22 -50.5h-25q15 68 61.5 106.5t118.5 38.5q94 0 142 -50.5t48 -134.5v-335h-20l-5 95h-5q-9 -21 -25 -40t-38.5 -33.5t-51.5 -23t-65 -8.5
zM225 15q39 0 73 13t59 37t39 59.5t14 80.5v55h-190q-38 0 -65 -9.5t-45 -26t-26.5 -38.5t-8.5 -46q0 -30 11.5 -53.5t31.5 -39t47.5 -24t59.5 -8.5zM140 730h40l90 -140h-20z" />
    <glyph glyph-name="aacute" unicode="&#xe1;" horiz-adv-x="515" 
d="M225 -10q-83 0 -129 41t-46 109q0 64 43.5 104.5t126.5 40.5h190v50q0 83 -43 121.5t-122 38.5q-34 0 -59 -8t-43 -23.5t-31 -38t-22 -50.5h-25q15 68 61.5 106.5t118.5 38.5q94 0 142 -50.5t48 -134.5v-335h-20l-5 95h-5q-9 -21 -25 -40t-38.5 -33.5t-51.5 -23t-65 -8.5
zM225 15q39 0 73 13t59 37t39 59.5t14 80.5v55h-190q-38 0 -65 -9.5t-45 -26t-26.5 -38.5t-8.5 -46q0 -30 11.5 -53.5t31.5 -39t47.5 -24t59.5 -8.5zM340 730h40l-110 -140h-20z" />
    <glyph glyph-name="acircumflex" unicode="&#xe2;" horiz-adv-x="515" 
d="M225 -10q-83 0 -129 41t-46 109q0 64 43.5 104.5t126.5 40.5h190v50q0 83 -43 121.5t-122 38.5q-34 0 -59 -8t-43 -23.5t-31 -38t-22 -50.5h-25q15 68 61.5 106.5t118.5 38.5q94 0 142 -50.5t48 -134.5v-335h-20l-5 95h-5q-9 -21 -25 -40t-38.5 -33.5t-51.5 -23t-65 -8.5
zM225 15q39 0 73 13t59 37t39 59.5t14 80.5v55h-190q-38 0 -65 -9.5t-45 -26t-26.5 -38.5t-8.5 -46q0 -30 11.5 -53.5t31.5 -39t47.5 -24t59.5 -8.5zM250 735h25l130 -145h-30l-110 122h-5l-110 -122h-30z" />
    <glyph glyph-name="atilde" unicode="&#xe3;" horiz-adv-x="515" 
d="M225 -10q-83 0 -129 41t-46 109q0 64 43.5 104.5t126.5 40.5h190v50q0 83 -43 121.5t-122 38.5q-34 0 -59 -8t-43 -23.5t-31 -38t-22 -50.5h-25q15 68 61.5 106.5t118.5 38.5q94 0 142 -50.5t48 -134.5v-335h-20l-5 95h-5q-9 -21 -25 -40t-38.5 -33.5t-51.5 -23t-65 -8.5
zM225 15q39 0 73 13t59 37t39 59.5t14 80.5v55h-190q-38 0 -65 -9.5t-45 -26t-26.5 -38.5t-8.5 -46q0 -30 11.5 -53.5t31.5 -39t47.5 -24t59.5 -8.5zM330 615q-23 0 -41 10t-34.5 22.5t-32 22.5t-32.5 10q-40 0 -40 -60h-25q0 45 17.5 65t47.5 20q22 0 40.5 -10t35 -22.5
t32 -22.5t32.5 -10q40 0 40 60h25q0 -45 -17.5 -65t-47.5 -20z" />
    <glyph glyph-name="adieresis" unicode="&#xe4;" horiz-adv-x="515" 
d="M225 -10q-83 0 -129 41t-46 109q0 64 43.5 104.5t126.5 40.5h190v50q0 83 -43 121.5t-122 38.5q-34 0 -59 -8t-43 -23.5t-31 -38t-22 -50.5h-25q15 68 61.5 106.5t118.5 38.5q94 0 142 -50.5t48 -134.5v-335h-20l-5 95h-5q-9 -21 -25 -40t-38.5 -33.5t-51.5 -23t-65 -8.5
zM225 15q39 0 73 13t59 37t39 59.5t14 80.5v55h-190q-38 0 -65 -9.5t-45 -26t-26.5 -38.5t-8.5 -46q0 -30 11.5 -53.5t31.5 -39t47.5 -24t59.5 -8.5zM180 635q-25 0 -25 25t25 25t25 -25t-25 -25zM340 635q-25 0 -25 25t25 25t25 -25t-25 -25z" />
    <glyph glyph-name="aring" unicode="&#xe5;" horiz-adv-x="515" 
d="M225 -10q-83 0 -129 41t-46 109q0 64 43.5 104.5t126.5 40.5h190v50q0 83 -43 121.5t-122 38.5q-34 0 -59 -8t-43 -23.5t-31 -38t-22 -50.5h-25q15 68 61.5 106.5t118.5 38.5q94 0 142 -50.5t48 -134.5v-335h-20l-5 95h-5q-9 -21 -25 -40t-38.5 -33.5t-51.5 -23t-65 -8.5
zM225 15q39 0 73 13t59 37t39 59.5t14 80.5v55h-190q-38 0 -65 -9.5t-45 -26t-26.5 -38.5t-8.5 -46q0 -30 11.5 -53.5t31.5 -39t47.5 -24t59.5 -8.5zM262 580q-35 0 -61 24t-26 63q0 40 26 64t61 24q36 0 62 -24t26 -64t-26.5 -63.5t-61.5 -23.5zM262 605q28 0 45.5 16.5
t17.5 45.5t-17 46t-46 17q-28 0 -45 -17t-17 -46q0 -28 17 -45t45 -17z" />
    <glyph glyph-name="ae" unicode="&#xe6;" horiz-adv-x="900" 
d="M225 -10q-83 0 -129 40.5t-46 104.5t41 102t124 38h195v60q0 83 -43 121.5t-122 38.5q-34 0 -59 -8t-43 -23.5t-31 -38t-22 -50.5h-25q15 68 61.5 106.5t118.5 38.5q87 0 132 -40.5t53 -104.5q13 36 34 63t47 45t56.5 27.5t62.5 9.5q43 0 83 -16.5t70.5 -47.5t48.5 -75.5
t18 -100.5v-30h-415v-5q0 -41 12.5 -82t37 -74t62 -53.5t88.5 -20.5q64 0 108.5 33.5t68.5 86.5h28q-30 -72 -83.5 -108.5t-121.5 -36.5q-39 0 -72 11.5t-59 31.5t-45 47.5t-31 59.5q-21 -68 -74.5 -109t-128.5 -41zM225 15q39 0 73 13t59 37t39 59.5t14 80.5v45h-195
q-75 0 -107.5 -33t-32.5 -82q0 -28 11.5 -50.5t31.5 -38t47.5 -23.5t59.5 -8zM825 275q0 48 -14.5 88.5t-40 69.5t-61.5 45.5t-79 16.5q-45 0 -80 -18t-60 -48.5t-38.5 -70.5t-16.5 -83h390z" />
    <glyph glyph-name="ccedilla" unicode="&#xe7;" horiz-adv-x="540" 
d="M220 -175h50q30 0 47.5 16t17.5 39t-17.5 39t-47.5 16h-40v15l21 42q-44 6 -80 26.5t-62 54t-40 79.5t-14 103q0 62 17 111t47.5 83.5t72.5 52.5t93 18q72 0 126 -36.5t84 -108.5h-28q-24 53 -69 86.5t-113 33.5q-53 0 -91.5 -20t-63.5 -53t-37.5 -76.5t-12.5 -90.5
t12.5 -90.5t37.5 -76.5t63.5 -53t91.5 -20q68 0 113 33.5t69 86.5h28q-30 -72 -84 -108.5t-126 -36.5h-10l-15 -30h10q42 0 66 -21t24 -59t-24 -59t-66 -21h-50v25z" />
    <glyph glyph-name="egrave" unicode="&#xe8;" horiz-adv-x="555" 
d="M285 -10q-51 0 -93 18t-72.5 52.5t-47.5 83.5t-17 111t17 111t47 83.5t71 52.5t90 18q45 0 86 -16.5t71.5 -47.5t49 -75.5t18.5 -100.5v-30h-425q0 -46 13 -88.5t38.5 -75t63.5 -52t90 -19.5q68 0 113 33.5t69 86.5h28q-30 -72 -84 -108.5t-126 -36.5zM480 275
q0 48 -14.5 88.5t-40.5 69.5t-63 45.5t-82 16.5q-48 0 -84.5 -18t-61 -48.5t-38 -70.5t-16.5 -83h400zM160 730h40l90 -140h-20z" />
    <glyph glyph-name="eacute" unicode="&#xe9;" horiz-adv-x="555" 
d="M285 -10q-51 0 -93 18t-72.5 52.5t-47.5 83.5t-17 111t17 111t47 83.5t71 52.5t90 18q45 0 86 -16.5t71.5 -47.5t49 -75.5t18.5 -100.5v-30h-425q0 -46 13 -88.5t38.5 -75t63.5 -52t90 -19.5q68 0 113 33.5t69 86.5h28q-30 -72 -84 -108.5t-126 -36.5zM480 275
q0 48 -14.5 88.5t-40.5 69.5t-63 45.5t-82 16.5q-48 0 -84.5 -18t-61 -48.5t-38 -70.5t-16.5 -83h400zM360 730h40l-110 -140h-20z" />
    <glyph glyph-name="ecircumflex" unicode="&#xea;" horiz-adv-x="555" 
d="M285 -10q-51 0 -93 18t-72.5 52.5t-47.5 83.5t-17 111t17 111t47 83.5t71 52.5t90 18q45 0 86 -16.5t71.5 -47.5t49 -75.5t18.5 -100.5v-30h-425q0 -46 13 -88.5t38.5 -75t63.5 -52t90 -19.5q68 0 113 33.5t69 86.5h28q-30 -72 -84 -108.5t-126 -36.5zM480 275
q0 48 -14.5 88.5t-40.5 69.5t-63 45.5t-82 16.5q-48 0 -84.5 -18t-61 -48.5t-38 -70.5t-16.5 -83h400zM270 735h25l130 -145h-30l-110 122h-5l-110 -122h-30z" />
    <glyph glyph-name="edieresis" unicode="&#xeb;" horiz-adv-x="555" 
d="M285 -10q-51 0 -93 18t-72.5 52.5t-47.5 83.5t-17 111t17 111t47 83.5t71 52.5t90 18q45 0 86 -16.5t71.5 -47.5t49 -75.5t18.5 -100.5v-30h-425q0 -46 13 -88.5t38.5 -75t63.5 -52t90 -19.5q68 0 113 33.5t69 86.5h28q-30 -72 -84 -108.5t-126 -36.5zM480 275
q0 48 -14.5 88.5t-40.5 69.5t-63 45.5t-82 16.5q-48 0 -84.5 -18t-61 -48.5t-38 -70.5t-16.5 -83h400zM200 635q-25 0 -25 25t25 25t25 -25t-25 -25zM360 635q-25 0 -25 25t25 25t25 -25t-25 -25z" />
    <glyph glyph-name="igrave" unicode="&#xec;" horiz-adv-x="195" 
d="M85 510h25v-510h-25v510zM-25 730h40l90 -140h-20z" />
    <glyph glyph-name="iacute" unicode="&#xed;" horiz-adv-x="195" 
d="M85 510h25v-510h-25v510zM180 730h40l-110 -140h-20z" />
    <glyph glyph-name="icircumflex" unicode="&#xee;" horiz-adv-x="195" 
d="M85 510h25v-510h-25v510zM85 735h25l130 -145h-30l-110 122h-5l-110 -122h-30z" />
    <glyph glyph-name="idieresis" unicode="&#xef;" horiz-adv-x="195" 
d="M85 510h25v-510h-25v510zM20 635q-25 0 -25 25t25 25t25 -25t-25 -25zM180 635q-25 0 -25 25t25 25t25 -25t-25 -25z" />
    <glyph glyph-name="eth" unicode="&#xf0;" horiz-adv-x="550" 
d="M270 -10q-45 0 -84 15.5t-68.5 46t-46 75.5t-16.5 103t17 103t46.5 75.5t69.5 46t87 15.5q32 0 58 -8t47 -21t37 -30t28 -36h5q-14 37 -28.5 68t-32 58.5t-39 53t-48.5 52.5l-137 -62l-10 20l130 58q-24 20 -54.5 41t-60.5 36h40q17 -9 42 -25.5t54 -41.5l104 47l10 -20
l-96 -44q33 -32 63 -71t53 -85.5t36.5 -101t13.5 -118.5q0 -60 -16 -106.5t-45 -78.5t-69.5 -48.5t-89.5 -16.5zM275 15q41 0 76 15.5t60.5 43.5t39.5 67.5t14 88.5t-14 88.5t-39.5 67.5t-60.5 43.5t-76 15.5q-49 0 -85.5 -17.5t-61 -47t-36.5 -68.5t-12 -82t12 -82
t36.5 -68.5t61 -47t85.5 -17.5z" />
    <glyph glyph-name="ntilde" unicode="&#xf1;" horiz-adv-x="555" 
d="M85 510h20l5 -95h5q23 49 66.5 77t103.5 28q43 0 78 -14.5t60 -41t38.5 -64.5t13.5 -85v-315h-25v315q0 37 -11 70t-32 57.5t-52 38.5t-70 14q-38 0 -70 -14t-55 -38.5t-36.5 -57.5t-13.5 -70v-315h-25v510zM350 615q-23 0 -41 10t-34.5 22.5t-32 22.5t-32.5 10
q-40 0 -40 -60h-25q0 45 17.5 65t47.5 20q22 0 40.5 -10t35 -22.5t32 -22.5t32.5 -10q40 0 40 60h25q0 -45 -17.5 -65t-47.5 -20z" />
    <glyph glyph-name="ograve" unicode="&#xf2;" horiz-adv-x="570" 
d="M285 -10q-51 0 -93 18t-72.5 52.5t-47.5 83.5t-17 111t17 111t47.5 83.5t72.5 52.5t93 18t93 -18t72.5 -52.5t47.5 -83.5t17 -111t-17 -111t-47.5 -83.5t-72.5 -52.5t-93 -18zM285 15q52 0 91 20t64 53t37.5 76.5t12.5 90.5t-12.5 90.5t-37.5 76.5t-64 53t-91 20
q-53 0 -91.5 -20t-63.5 -53t-37.5 -76.5t-12.5 -90.5t12.5 -90.5t37.5 -76.5t63.5 -53t91.5 -20zM165 730h40l90 -140h-20z" />
    <glyph glyph-name="oacute" unicode="&#xf3;" horiz-adv-x="570" 
d="M285 -10q-51 0 -93 18t-72.5 52.5t-47.5 83.5t-17 111t17 111t47.5 83.5t72.5 52.5t93 18t93 -18t72.5 -52.5t47.5 -83.5t17 -111t-17 -111t-47.5 -83.5t-72.5 -52.5t-93 -18zM285 15q52 0 91 20t64 53t37.5 76.5t12.5 90.5t-12.5 90.5t-37.5 76.5t-64 53t-91 20
q-53 0 -91.5 -20t-63.5 -53t-37.5 -76.5t-12.5 -90.5t12.5 -90.5t37.5 -76.5t63.5 -53t91.5 -20zM365 730h40l-110 -140h-20z" />
    <glyph glyph-name="ocircumflex" unicode="&#xf4;" horiz-adv-x="570" 
d="M285 -10q-51 0 -93 18t-72.5 52.5t-47.5 83.5t-17 111t17 111t47.5 83.5t72.5 52.5t93 18t93 -18t72.5 -52.5t47.5 -83.5t17 -111t-17 -111t-47.5 -83.5t-72.5 -52.5t-93 -18zM285 15q52 0 91 20t64 53t37.5 76.5t12.5 90.5t-12.5 90.5t-37.5 76.5t-64 53t-91 20
q-53 0 -91.5 -20t-63.5 -53t-37.5 -76.5t-12.5 -90.5t12.5 -90.5t37.5 -76.5t63.5 -53t91.5 -20zM275 735h25l130 -145h-30l-110 122h-5l-110 -122h-30z" />
    <glyph glyph-name="otilde" unicode="&#xf5;" horiz-adv-x="570" 
d="M285 -10q-51 0 -93 18t-72.5 52.5t-47.5 83.5t-17 111t17 111t47.5 83.5t72.5 52.5t93 18t93 -18t72.5 -52.5t47.5 -83.5t17 -111t-17 -111t-47.5 -83.5t-72.5 -52.5t-93 -18zM285 15q52 0 91 20t64 53t37.5 76.5t12.5 90.5t-12.5 90.5t-37.5 76.5t-64 53t-91 20
q-53 0 -91.5 -20t-63.5 -53t-37.5 -76.5t-12.5 -90.5t12.5 -90.5t37.5 -76.5t63.5 -53t91.5 -20zM355 615q-23 0 -41 10t-34.5 22.5t-32 22.5t-32.5 10q-40 0 -40 -60h-25q0 45 17.5 65t47.5 20q22 0 40.5 -10t35 -22.5t32 -22.5t32.5 -10q40 0 40 60h25q0 -45 -17.5 -65
t-47.5 -20z" />
    <glyph glyph-name="odieresis" unicode="&#xf6;" horiz-adv-x="570" 
d="M285 -10q-51 0 -93 18t-72.5 52.5t-47.5 83.5t-17 111t17 111t47.5 83.5t72.5 52.5t93 18t93 -18t72.5 -52.5t47.5 -83.5t17 -111t-17 -111t-47.5 -83.5t-72.5 -52.5t-93 -18zM285 15q52 0 91 20t64 53t37.5 76.5t12.5 90.5t-12.5 90.5t-37.5 76.5t-64 53t-91 20
q-53 0 -91.5 -20t-63.5 -53t-37.5 -76.5t-12.5 -90.5t12.5 -90.5t37.5 -76.5t63.5 -53t91.5 -20zM205 635q-25 0 -25 25t25 25t25 -25t-25 -25zM365 635q-25 0 -25 25t25 25t25 -25t-25 -25z" />
    <glyph glyph-name="divide" unicode="&#xf7;" horiz-adv-x="535" 
d="M267 85q-12 0 -19.5 8t-7.5 19q0 12 7.5 20t19.5 8q13 0 20.5 -8t7.5 -20q0 -11 -7.5 -19t-20.5 -8zM50 310h435v-25h-435v25zM267 455q-12 0 -19.5 8t-7.5 20q0 11 7.5 19t19.5 8q13 0 20.5 -8t7.5 -19q0 -12 -7.5 -20t-20.5 -8z" />
    <glyph glyph-name="oslash" unicode="&#xf8;" horiz-adv-x="570" 
d="M136 44q-38 34 -59.5 87.5t-21.5 123.5q0 62 17 111t47.5 83.5t72.5 52.5t93 18q74 0 131 -40l32 50h27l-41 -64q38 -34 59.5 -87.5t21.5 -123.5q0 -62 -17 -111t-47.5 -83.5t-72.5 -52.5t-93 -18q-74 0 -131 40l-32 -50h-27zM402 459q-23 17 -52.5 26.5t-64.5 9.5
q-53 0 -91.5 -20t-63.5 -53t-37.5 -76.5t-12.5 -90.5q0 -56 17.5 -105.5t52.5 -83.5zM285 15q52 0 91 20t64 53t37.5 76.5t12.5 90.5q0 56 -17.5 105.5t-52.5 83.5l-252 -393q23 -17 52.5 -26.5t64.5 -9.5z" />
    <glyph glyph-name="ugrave" unicode="&#xf9;" horiz-adv-x="560" 
d="M275 -10q-43 0 -78 14.5t-60 41t-38.5 64.5t-13.5 85v315h25v-315q0 -38 11 -70.5t32 -57t52 -38.5t70 -14q37 0 69.5 14t55.5 38.5t36.5 57t13.5 70.5v315h25v-510h-20l-5 95h-5q-23 -49 -66.5 -77t-103.5 -28zM160 730h40l90 -140h-20z" />
    <glyph glyph-name="uacute" unicode="&#xfa;" horiz-adv-x="560" 
d="M275 -10q-43 0 -78 14.5t-60 41t-38.5 64.5t-13.5 85v315h25v-315q0 -38 11 -70.5t32 -57t52 -38.5t70 -14q37 0 69.5 14t55.5 38.5t36.5 57t13.5 70.5v315h25v-510h-20l-5 95h-5q-23 -49 -66.5 -77t-103.5 -28zM360 730h40l-110 -140h-20z" />
    <glyph glyph-name="ucircumflex" unicode="&#xfb;" horiz-adv-x="560" 
d="M275 -10q-43 0 -78 14.5t-60 41t-38.5 64.5t-13.5 85v315h25v-315q0 -38 11 -70.5t32 -57t52 -38.5t70 -14q37 0 69.5 14t55.5 38.5t36.5 57t13.5 70.5v315h25v-510h-20l-5 95h-5q-23 -49 -66.5 -77t-103.5 -28zM270 735h25l130 -145h-30l-110 122h-5l-110 -122h-30z" />
    <glyph glyph-name="udieresis" unicode="&#xfc;" horiz-adv-x="560" 
d="M275 -10q-43 0 -78 14.5t-60 41t-38.5 64.5t-13.5 85v315h25v-315q0 -38 11 -70.5t32 -57t52 -38.5t70 -14q37 0 69.5 14t55.5 38.5t36.5 57t13.5 70.5v315h25v-510h-20l-5 95h-5q-23 -49 -66.5 -77t-103.5 -28zM200 635q-25 0 -25 25t25 25t25 -25t-25 -25zM360 635
q-25 0 -25 25t25 25t25 -25t-25 -25z" />
    <glyph glyph-name="yacute" unicode="&#xfd;" horiz-adv-x="470" 
d="M228 0l-218 510h26l202 -470h6l189 470h27l-286 -710h-27zM320 730h40l-110 -140h-20z" />
    <glyph glyph-name="thorn" unicode="&#xfe;" horiz-adv-x="585" 
d="M90 700h25v-305h5q15 34 36 57.5t46 38.5t52.5 22t55.5 7q51 0 92.5 -18t71 -52.5t45.5 -83.5t16 -111t-16 -111t-45.5 -83.5t-71 -52.5t-92.5 -18q-28 0 -55.5 7t-52.5 22t-46 38.5t-36 57.5h-5v-315h-25v900zM310 15q52 0 90 20t62.5 53t36 76.5t11.5 90.5t-11.5 90.5
t-36 76.5t-62.5 53t-90 20q-49 0 -85.5 -19t-61 -52t-36.5 -76.5t-12 -92.5t12 -92.5t36.5 -76.5t61 -52t85.5 -19z" />
    <glyph glyph-name="ydieresis" unicode="&#xff;" horiz-adv-x="470" 
d="M228 0l-218 510h26l202 -470h6l189 470h27l-286 -710h-27zM160 635q-25 0 -25 25t25 25t25 -25t-25 -25zM320 635q-25 0 -25 25t25 25t25 -25t-25 -25z" />
    <glyph glyph-name="Amacron" unicode="&#x100;" horiz-adv-x="595" 
d="M280 700h35l265 -700h-25l-75 200h-365l-75 -200h-25zM470 225l-170 450h-5l-170 -450h345zM170 850h260v-25h-260v25z" />
    <glyph glyph-name="amacron" unicode="&#x101;" horiz-adv-x="515" 
d="M225 -10q-83 0 -129 41t-46 109q0 64 43.5 104.5t126.5 40.5h190v50q0 83 -43 121.5t-122 38.5q-34 0 -59 -8t-43 -23.5t-31 -38t-22 -50.5h-25q15 68 61.5 106.5t118.5 38.5q94 0 142 -50.5t48 -134.5v-335h-20l-5 95h-5q-9 -21 -25 -40t-38.5 -33.5t-51.5 -23t-65 -8.5
zM225 15q39 0 73 13t59 37t39 59.5t14 80.5v55h-190q-38 0 -65 -9.5t-45 -26t-26.5 -38.5t-8.5 -46q0 -30 11.5 -53.5t31.5 -39t47.5 -24t59.5 -8.5zM130 670h260v-25h-260v25z" />
    <glyph glyph-name="Abreve" unicode="&#x102;" horiz-adv-x="595" 
d="M280 700h35l265 -700h-25l-75 200h-365l-75 -200h-25zM470 225l-170 450h-5l-170 -450h345zM300 785q-53 0 -87 28.5t-38 81.5h25q4 -38 29.5 -61.5t70.5 -23.5t70.5 23.5t29.5 61.5h25q-4 -53 -38 -81.5t-87 -28.5z" />
    <glyph glyph-name="abreve" unicode="&#x103;" horiz-adv-x="515" 
d="M225 -10q-83 0 -129 41t-46 109q0 64 43.5 104.5t126.5 40.5h190v50q0 83 -43 121.5t-122 38.5q-34 0 -59 -8t-43 -23.5t-31 -38t-22 -50.5h-25q15 68 61.5 106.5t118.5 38.5q94 0 142 -50.5t48 -134.5v-335h-20l-5 95h-5q-9 -21 -25 -40t-38.5 -33.5t-51.5 -23t-65 -8.5
zM225 15q39 0 73 13t59 37t39 59.5t14 80.5v55h-190q-38 0 -65 -9.5t-45 -26t-26.5 -38.5t-8.5 -46q0 -30 11.5 -53.5t31.5 -39t47.5 -24t59.5 -8.5zM260 605q-53 0 -87 28.5t-38 81.5h25q4 -38 29.5 -61.5t70.5 -23.5t70.5 23.5t29.5 61.5h25q-4 -53 -38 -81.5t-87 -28.5z
" />
    <glyph glyph-name="Aogonek" unicode="&#x104;" horiz-adv-x="595" 
d="M555 -180q-45 0 -67.5 20.5t-22.5 54.5q0 24 8.5 41.5t21.5 29.5t29 20t31 14l-75 200h-365l-75 -200h-25l265 700h35l265 -700q-21 -11 -36.5 -21t-26.5 -21t-16.5 -25t-5.5 -33q0 -30 17 -42.5t43 -12.5h40v-25h-40zM470 225l-170 450h-5l-170 -450h345z" />
    <glyph glyph-name="aogonek" unicode="&#x105;" horiz-adv-x="515" 
d="M410 -180q-45 0 -67.5 20.5t-22.5 54.5q0 24 9 42t23.5 31t31 20.5t31.5 11.5l-5 95h-5q-9 -21 -25 -40t-38.5 -33.5t-51.5 -23t-65 -8.5q-83 0 -129 41t-46 109q0 64 43.5 104.5t126.5 40.5h190v50q0 83 -43 121.5t-122 38.5q-34 0 -59 -8t-43 -23.5t-31 -38t-22 -50.5
h-25q15 68 61.5 106.5t118.5 38.5q94 0 142 -50.5t48 -134.5v-335q-21 -11 -36.5 -21t-26.5 -21t-16.5 -25t-5.5 -33q0 -30 17 -42.5t43 -12.5h40v-25h-40zM225 15q39 0 73 13t59 37t39 59.5t14 80.5v55h-190q-38 0 -65 -9.5t-45 -26t-26.5 -38.5t-8.5 -46q0 -30 11.5 -53.5
t31.5 -39t47.5 -24t59.5 -8.5z" />
    <glyph glyph-name="Cacute" unicode="&#x106;" horiz-adv-x="680" 
d="M360 -10q-66 0 -121 24t-94.5 70t-62 113t-22.5 153t22.5 153t62 113t94.5 70t121 24q98 0 167 -50.5t103 -144.5h-25q-34 83 -96 126.5t-149 43.5q-60 0 -110.5 -22t-87 -65t-57 -105t-20.5 -143t20.5 -143t57 -105t87 -65t110.5 -22q87 0 149 43.5t96 126.5h25
q-34 -94 -103 -144.5t-167 -50.5zM435 910h40l-110 -140h-20z" />
    <glyph glyph-name="cacute" unicode="&#x107;" horiz-adv-x="540" 
d="M285 -10q-51 0 -93 18t-72.5 52.5t-47.5 83.5t-17 111t17 111t47.5 83.5t72.5 52.5t93 18q72 0 126 -36.5t84 -108.5h-28q-24 53 -69 86.5t-113 33.5q-53 0 -91.5 -20t-63.5 -53t-37.5 -76.5t-12.5 -90.5t12.5 -90.5t37.5 -76.5t63.5 -53t91.5 -20q68 0 113 33.5t69 86.5
h28q-30 -72 -84 -108.5t-126 -36.5zM360 730h40l-110 -140h-20z" />
    <glyph glyph-name="Ccircumflex" unicode="&#x108;" horiz-adv-x="680" 
d="M360 -10q-66 0 -121 24t-94.5 70t-62 113t-22.5 153t22.5 153t62 113t94.5 70t121 24q98 0 167 -50.5t103 -144.5h-25q-34 83 -96 126.5t-149 43.5q-60 0 -110.5 -22t-87 -65t-57 -105t-20.5 -143t20.5 -143t57 -105t87 -65t110.5 -22q87 0 149 43.5t96 126.5h25
q-34 -94 -103 -144.5t-167 -50.5zM345 915h25l130 -145h-30l-110 122h-5l-110 -122h-30z" />
    <glyph glyph-name="ccircumflex" unicode="&#x109;" horiz-adv-x="540" 
d="M285 -10q-51 0 -93 18t-72.5 52.5t-47.5 83.5t-17 111t17 111t47.5 83.5t72.5 52.5t93 18q72 0 126 -36.5t84 -108.5h-28q-24 53 -69 86.5t-113 33.5q-53 0 -91.5 -20t-63.5 -53t-37.5 -76.5t-12.5 -90.5t12.5 -90.5t37.5 -76.5t63.5 -53t91.5 -20q68 0 113 33.5t69 86.5
h28q-30 -72 -84 -108.5t-126 -36.5zM270 735h25l130 -145h-30l-110 122h-5l-110 -122h-30z" />
    <glyph glyph-name="Cdotaccent" unicode="&#x10a;" horiz-adv-x="680" 
d="M360 -10q-66 0 -121 24t-94.5 70t-62 113t-22.5 153t22.5 153t62 113t94.5 70t121 24q98 0 167 -50.5t103 -144.5h-25q-34 83 -96 126.5t-149 43.5q-60 0 -110.5 -22t-87 -65t-57 -105t-20.5 -143t20.5 -143t57 -105t87 -65t110.5 -22q87 0 149 43.5t96 126.5h25
q-34 -94 -103 -144.5t-167 -50.5zM355 815q-25 0 -25 25t25 25t25 -25t-25 -25z" />
    <glyph glyph-name="cdotaccent" unicode="&#x10b;" horiz-adv-x="540" 
d="M285 -10q-51 0 -93 18t-72.5 52.5t-47.5 83.5t-17 111t17 111t47.5 83.5t72.5 52.5t93 18q72 0 126 -36.5t84 -108.5h-28q-24 53 -69 86.5t-113 33.5q-53 0 -91.5 -20t-63.5 -53t-37.5 -76.5t-12.5 -90.5t12.5 -90.5t37.5 -76.5t63.5 -53t91.5 -20q68 0 113 33.5t69 86.5
h28q-30 -72 -84 -108.5t-126 -36.5zM280 635q-25 0 -25 25t25 25t25 -25t-25 -25z" />
    <glyph glyph-name="Ccaron" unicode="&#x10c;" horiz-adv-x="680" 
d="M360 -10q-66 0 -121 24t-94.5 70t-62 113t-22.5 153t22.5 153t62 113t94.5 70t121 24q98 0 167 -50.5t103 -144.5h-25q-34 83 -96 126.5t-149 43.5q-60 0 -110.5 -22t-87 -65t-57 -105t-20.5 -143t20.5 -143t57 -105t87 -65t110.5 -22q87 0 149 43.5t96 126.5h25
q-34 -94 -103 -144.5t-167 -50.5zM215 915h30l110 -122h5l110 122h30l-130 -145h-25z" />
    <glyph glyph-name="ccaron" unicode="&#x10d;" horiz-adv-x="540" 
d="M285 -10q-51 0 -93 18t-72.5 52.5t-47.5 83.5t-17 111t17 111t47.5 83.5t72.5 52.5t93 18q72 0 126 -36.5t84 -108.5h-28q-24 53 -69 86.5t-113 33.5q-53 0 -91.5 -20t-63.5 -53t-37.5 -76.5t-12.5 -90.5t12.5 -90.5t37.5 -76.5t63.5 -53t91.5 -20q68 0 113 33.5t69 86.5
h28q-30 -72 -84 -108.5t-126 -36.5zM140 730h30l110 -122h5l110 122h30l-130 -145h-25z" />
    <glyph glyph-name="Dcaron" unicode="&#x10e;" horiz-adv-x="680" 
d="M100 700h220q66 0 121 -24t94.5 -69t62 -110t22.5 -147q0 -83 -22.5 -148t-62 -110t-94.5 -68.5t-121 -23.5h-220v700zM320 25q60 0 110.5 22t87 63.5t57 102t20.5 137.5t-20.5 137.5t-57 102t-87 63.5t-110.5 22h-195v-650h195zM195 915h30l110 -122h5l110 122h30
l-130 -145h-25z" />
    <glyph glyph-name="dcaron" unicode="&#x10f;" horiz-adv-x="630" 
d="M280 -10q-51 0 -92.5 18t-71 52.5t-45.5 83.5t-16 111t16 111t45.5 83.5t71 52.5t92.5 18q28 0 55.5 -7t52.5 -22t46 -38.5t36 -57.5h5v305h25v-700h-20l-5 115h-5q-15 -34 -36 -57.5t-46 -38.5t-52.5 -22t-55.5 -7zM280 15q49 0 85.5 19t61 52t36.5 76.5t12 92.5
t-12 92.5t-36.5 76.5t-61 52t-85.5 19q-53 0 -90.5 -20t-62 -53t-36 -76.5t-11.5 -90.5t11.5 -90.5t36 -76.5t62 -53t90.5 -20z" />
    <glyph glyph-name="Dcroat" unicode="&#x110;" horiz-adv-x="685" 
d="M105 340h-75v25h75v335h220q66 0 121 -24t94.5 -69t62 -110t22.5 -147q0 -83 -22.5 -148t-62 -110t-94.5 -68.5t-121 -23.5h-220v340zM325 25q60 0 110.5 22t87 63.5t57 102t20.5 137.5t-20.5 137.5t-57 102t-87 63.5t-110.5 22h-195v-310h205v-25h-205v-315h195z" />
    <glyph glyph-name="dcroat" unicode="&#x111;" horiz-adv-x="575" 
d="M275 -10q-47 0 -87 15.5t-69.5 46t-46.5 75.5t-17 103t17 103t46.5 75.5t69.5 46t87 15.5q64 0 113 -31.5t72 -88.5h5v225h-170v25h170v90h25v-90h75v-25h-75v-575h-20l-5 115h-5q-11 -34 -31 -57.5t-44.5 -38.5t-53 -22t-56.5 -7zM275 15q41 0 76 15.5t60.5 43.5
t39.5 67.5t14 88.5t-14 88.5t-39.5 67.5t-60.5 43.5t-76 15.5q-49 0 -85.5 -17.5t-61 -47t-36.5 -68.5t-12 -82t12 -82t36.5 -68.5t61 -47t85.5 -17.5z" />
    <glyph glyph-name="Emacron" unicode="&#x112;" horiz-adv-x="600" 
d="M100 700h420v-25h-395v-310h375v-25h-375v-315h405v-25h-430v700zM185 850h260v-25h-260v25z" />
    <glyph glyph-name="emacron" unicode="&#x113;" horiz-adv-x="555" 
d="M285 -10q-51 0 -93 18t-72.5 52.5t-47.5 83.5t-17 111t17 111t47 83.5t71 52.5t90 18q45 0 86 -16.5t71.5 -47.5t49 -75.5t18.5 -100.5v-30h-425q0 -46 13 -88.5t38.5 -75t63.5 -52t90 -19.5q68 0 113 33.5t69 86.5h28q-30 -72 -84 -108.5t-126 -36.5zM480 275
q0 48 -14.5 88.5t-40.5 69.5t-63 45.5t-82 16.5q-48 0 -84.5 -18t-61 -48.5t-38 -70.5t-16.5 -83h400zM150 670h260v-25h-260v25z" />
    <glyph glyph-name="Ebreve" unicode="&#x114;" horiz-adv-x="600" 
d="M100 700h420v-25h-395v-310h375v-25h-375v-315h405v-25h-430v700zM315 785q-53 0 -87 28.5t-38 81.5h25q4 -38 29.5 -61.5t70.5 -23.5t70.5 23.5t29.5 61.5h25q-4 -53 -38 -81.5t-87 -28.5z" />
    <glyph glyph-name="ebreve" unicode="&#x115;" horiz-adv-x="555" 
d="M285 -10q-51 0 -93 18t-72.5 52.5t-47.5 83.5t-17 111t17 111t47 83.5t71 52.5t90 18q45 0 86 -16.5t71.5 -47.5t49 -75.5t18.5 -100.5v-30h-425q0 -46 13 -88.5t38.5 -75t63.5 -52t90 -19.5q68 0 113 33.5t69 86.5h28q-30 -72 -84 -108.5t-126 -36.5zM480 275
q0 48 -14.5 88.5t-40.5 69.5t-63 45.5t-82 16.5q-48 0 -84.5 -18t-61 -48.5t-38 -70.5t-16.5 -83h400zM280 605q-53 0 -87 28.5t-38 81.5h25q4 -38 29.5 -61.5t70.5 -23.5t70.5 23.5t29.5 61.5h25q-4 -53 -38 -81.5t-87 -28.5z" />
    <glyph glyph-name="Edotaccent" unicode="&#x116;" horiz-adv-x="600" 
d="M100 700h420v-25h-395v-310h375v-25h-375v-315h405v-25h-430v700zM315 815q-25 0 -25 25t25 25t25 -25t-25 -25z" />
    <glyph glyph-name="edotaccent" unicode="&#x117;" horiz-adv-x="555" 
d="M285 -10q-51 0 -93 18t-72.5 52.5t-47.5 83.5t-17 111t17 111t47 83.5t71 52.5t90 18q45 0 86 -16.5t71.5 -47.5t49 -75.5t18.5 -100.5v-30h-425q0 -46 13 -88.5t38.5 -75t63.5 -52t90 -19.5q68 0 113 33.5t69 86.5h28q-30 -72 -84 -108.5t-126 -36.5zM480 275
q0 48 -14.5 88.5t-40.5 69.5t-63 45.5t-82 16.5q-48 0 -84.5 -18t-61 -48.5t-38 -70.5t-16.5 -83h400zM280 635q-25 0 -25 25t25 25t25 -25t-25 -25z" />
    <glyph glyph-name="Eogonek" unicode="&#x118;" horiz-adv-x="600" 
d="M505 -180q-45 0 -67.5 20.5t-22.5 54.5q0 24 8.5 41.5t21.5 29.5t29 20t31 14h-405v700h420v-25h-395v-310h375v-25h-375v-315h405v-25q-21 -11 -36.5 -21t-26.5 -21t-16.5 -25t-5.5 -33q0 -30 17 -42.5t43 -12.5h40v-25h-40v0z" />
    <glyph glyph-name="eogonek" unicode="&#x119;" horiz-adv-x="555" 
d="M305 -180q-45 0 -67.5 20.5t-22.5 54.5q0 40 20 61.5t46 33.5q-50 1 -91.5 19.5t-71.5 52.5t-46.5 82.5t-16.5 110.5t17 111t47 83.5t71 52.5t90 18q45 0 86 -16.5t71.5 -47.5t49 -75.5t18.5 -100.5v-30h-425q0 -46 13 -88.5t38.5 -75t63.5 -52t90 -19.5q68 0 113 33.5
t69 86.5h28q-27 -64 -73.5 -100t-107.5 -43q-34 -19 -51.5 -38.5t-17.5 -53.5q0 -30 17 -42.5t43 -12.5h40v-25h-40zM480 275q0 48 -14.5 88.5t-40.5 69.5t-63 45.5t-82 16.5q-48 0 -84.5 -18t-61 -48.5t-38 -70.5t-16.5 -83h400z" />
    <glyph glyph-name="Ecaron" unicode="&#x11a;" horiz-adv-x="600" 
d="M100 700h420v-25h-395v-310h375v-25h-375v-315h405v-25h-430v700zM175 915h30l110 -122h5l110 122h30l-130 -145h-25z" />
    <glyph glyph-name="ecaron" unicode="&#x11b;" horiz-adv-x="555" 
d="M285 -10q-51 0 -93 18t-72.5 52.5t-47.5 83.5t-17 111t17 111t47 83.5t71 52.5t90 18q45 0 86 -16.5t71.5 -47.5t49 -75.5t18.5 -100.5v-30h-425q0 -46 13 -88.5t38.5 -75t63.5 -52t90 -19.5q68 0 113 33.5t69 86.5h28q-30 -72 -84 -108.5t-126 -36.5zM480 275
q0 48 -14.5 88.5t-40.5 69.5t-63 45.5t-82 16.5q-48 0 -84.5 -18t-61 -48.5t-38 -70.5t-16.5 -83h400zM140 730h30l110 -122h5l110 122h30l-130 -145h-25z" />
    <glyph glyph-name="Gcircumflex" unicode="&#x11c;" horiz-adv-x="705" 
d="M360 -10q-66 0 -121 24t-94.5 70t-62 113t-22.5 153t22.5 153t62 113t94.5 70t121 24q98 0 167 -50.5t103 -144.5h-25q-34 83 -96 126.5t-149 43.5q-60 0 -110.5 -22t-87 -65t-57 -105t-20.5 -143t20.5 -143t57 -105t87 -65t110.5 -22q56 0 104 20t82.5 58t54 93
t19.5 124h-260v25h285v-20q0 -77 -21.5 -137.5t-59.5 -102t-90 -63.5t-114 -22zM345 915h25l130 -145h-30l-110 122h-5l-110 -122h-30z" />
    <glyph glyph-name="gcircumflex" unicode="&#x11d;" horiz-adv-x="585" 
d="M290 -200q-87 0 -146 38t-84 117h27q23 -60 73.5 -95t129.5 -35q43 0 77.5 12.5t58.5 35t36.5 53.5t12.5 69v155h-5q-34 -64 -83.5 -92t-106.5 -28q-51 0 -92.5 18.5t-71 51.5t-45.5 77.5t-16 97.5q0 52 16 97t45.5 78t71 51.5t92.5 18.5q57 0 106.5 -28t83.5 -92h5
l5 110h20v-515q0 -43 -14 -79t-40.5 -61.5t-65.5 -40t-90 -14.5zM280 55q47 0 83.5 18t61 48.5t37.5 70.5t13 83t-13 83t-37.5 70.5t-61 48.5t-83.5 18t-84 -17.5t-63 -47.5t-39.5 -70t-13.5 -85t13.5 -85t39.5 -70t63 -47.5t84 -17.5zM280 735h25l130 -145h-30l-110 122h-5
l-110 -122h-30z" />
    <glyph glyph-name="Gbreve" unicode="&#x11e;" horiz-adv-x="705" 
d="M360 -10q-66 0 -121 24t-94.5 70t-62 113t-22.5 153t22.5 153t62 113t94.5 70t121 24q98 0 167 -50.5t103 -144.5h-25q-34 83 -96 126.5t-149 43.5q-60 0 -110.5 -22t-87 -65t-57 -105t-20.5 -143t20.5 -143t57 -105t87 -65t110.5 -22q56 0 104 20t82.5 58t54 93
t19.5 124h-260v25h285v-20q0 -77 -21.5 -137.5t-59.5 -102t-90 -63.5t-114 -22zM355 785q-53 0 -87 28.5t-38 81.5h25q4 -38 29.5 -61.5t70.5 -23.5t70.5 23.5t29.5 61.5h25q-4 -53 -38 -81.5t-87 -28.5z" />
    <glyph glyph-name="gbreve" unicode="&#x11f;" horiz-adv-x="585" 
d="M290 -200q-87 0 -146 38t-84 117h27q23 -60 73.5 -95t129.5 -35q43 0 77.5 12.5t58.5 35t36.5 53.5t12.5 69v155h-5q-34 -64 -83.5 -92t-106.5 -28q-51 0 -92.5 18.5t-71 51.5t-45.5 77.5t-16 97.5q0 52 16 97t45.5 78t71 51.5t92.5 18.5q57 0 106.5 -28t83.5 -92h5
l5 110h20v-515q0 -43 -14 -79t-40.5 -61.5t-65.5 -40t-90 -14.5zM280 55q47 0 83.5 18t61 48.5t37.5 70.5t13 83t-13 83t-37.5 70.5t-61 48.5t-83.5 18t-84 -17.5t-63 -47.5t-39.5 -70t-13.5 -85t13.5 -85t39.5 -70t63 -47.5t84 -17.5zM290 605q-53 0 -87 28.5t-38 81.5h25
q4 -38 29.5 -61.5t70.5 -23.5t70.5 23.5t29.5 61.5h25q-4 -53 -38 -81.5t-87 -28.5z" />
    <glyph glyph-name="Gdotaccent" unicode="&#x120;" horiz-adv-x="705" 
d="M360 -10q-66 0 -121 24t-94.5 70t-62 113t-22.5 153t22.5 153t62 113t94.5 70t121 24q98 0 167 -50.5t103 -144.5h-25q-34 83 -96 126.5t-149 43.5q-60 0 -110.5 -22t-87 -65t-57 -105t-20.5 -143t20.5 -143t57 -105t87 -65t110.5 -22q56 0 104 20t82.5 58t54 93
t19.5 124h-260v25h285v-20q0 -77 -21.5 -137.5t-59.5 -102t-90 -63.5t-114 -22zM355 815q-25 0 -25 25t25 25t25 -25t-25 -25z" />
    <glyph glyph-name="gdotaccent" unicode="&#x121;" horiz-adv-x="585" 
d="M290 -200q-87 0 -146 38t-84 117h27q23 -60 73.5 -95t129.5 -35q43 0 77.5 12.5t58.5 35t36.5 53.5t12.5 69v155h-5q-34 -64 -83.5 -92t-106.5 -28q-51 0 -92.5 18.5t-71 51.5t-45.5 77.5t-16 97.5q0 52 16 97t45.5 78t71 51.5t92.5 18.5q57 0 106.5 -28t83.5 -92h5
l5 110h20v-515q0 -43 -14 -79t-40.5 -61.5t-65.5 -40t-90 -14.5zM280 55q47 0 83.5 18t61 48.5t37.5 70.5t13 83t-13 83t-37.5 70.5t-61 48.5t-83.5 18t-84 -17.5t-63 -47.5t-39.5 -70t-13.5 -85t13.5 -85t39.5 -70t63 -47.5t84 -17.5zM290 635q-25 0 -25 25t25 25t25 -25
t-25 -25z" />
    <glyph glyph-name="Gcommaaccent" unicode="&#x122;" horiz-adv-x="705" 
d="M360 -10q-66 0 -121 24t-94.5 70t-62 113t-22.5 153t22.5 153t62 113t94.5 70t121 24q98 0 167 -50.5t103 -144.5h-25q-34 83 -96 126.5t-149 43.5q-60 0 -110.5 -22t-87 -65t-57 -105t-20.5 -143t20.5 -143t57 -105t87 -65t110.5 -22q56 0 104 20t82.5 58t54 93
t19.5 124h-260v25h285v-20q0 -77 -21.5 -137.5t-59.5 -102t-90 -63.5t-114 -22zM335 -85h35l-65 -160h-15z" />
    <glyph glyph-name="gcommaaccent" unicode="&#x123;" horiz-adv-x="585" 
d="M340 750h15l-45 -160h-35zM290 -200q-87 0 -146 38t-84 117h27q23 -60 73.5 -95t129.5 -35q43 0 77.5 12.5t58.5 35t36.5 53.5t12.5 69v155h-5q-34 -64 -83.5 -92t-106.5 -28q-51 0 -92.5 18.5t-71 51.5t-45.5 77.5t-16 97.5q0 52 16 97t45.5 78t71 51.5t92.5 18.5
q57 0 106.5 -28t83.5 -92h5l5 110h20v-515q0 -43 -14 -79t-40.5 -61.5t-65.5 -40t-90 -14.5zM280 55q47 0 83.5 18t61 48.5t37.5 70.5t13 83t-13 83t-37.5 70.5t-61 48.5t-83.5 18t-84 -17.5t-63 -47.5t-39.5 -70t-13.5 -85t13.5 -85t39.5 -70t63 -47.5t84 -17.5z" />
    <glyph glyph-name="Hcircumflex" unicode="&#x124;" horiz-adv-x="705" 
d="M100 700h25v-335h455v335h25v-700h-25v340h-455v-340h-25v700zM340 915h25l130 -145h-30l-110 122h-5l-110 -122h-30z" />
    <glyph glyph-name="hcircumflex" unicode="&#x125;" horiz-adv-x="565" 
d="M90 700h25v-285h5q23 49 66.5 77t103.5 28q43 0 78 -14.5t60 -41t38.5 -64.5t13.5 -85v-315h-25v315q0 37 -11 70t-32 57.5t-52 38.5t-70 14q-38 0 -70 -14t-55 -38.5t-36.5 -57.5t-13.5 -70v-315h-25v700zM275 915h25l130 -145h-30l-110 122h-5l-110 -122h-30z" />
    <glyph glyph-name="Hbar" unicode="&#x126;" horiz-adv-x="715" 
d="M105 550h-75v25h75v125h25v-125h455v125h25v-125h75v-25h-75v-550h-25v340h-455v-340h-25v550zM585 365v185h-455v-185h455z" />
    <glyph glyph-name="hbar" unicode="&#x127;" horiz-adv-x="555" 
d="M85 575h-75v25h75v100h25v-100h170v-25h-170v-230h5q23 49 66.5 77t103.5 28q43 0 78 -14.5t60 -41t38.5 -64.5t13.5 -85v-245h-25v245q0 37 -11 70t-32 57.5t-52 38.5t-70 14q-38 0 -70 -14t-55 -38.5t-36.5 -57.5t-13.5 -70v-245h-25v575z" />
    <glyph glyph-name="Imacron" unicode="&#x12a;" horiz-adv-x="225" 
d="M100 700h25v-700h-25v700zM-15 850h260v-25h-260v25z" />
    <glyph glyph-name="imacron" unicode="&#x12b;" horiz-adv-x="195" 
d="M85 510h25v-510h-25v510zM-30 670h260v-25h-260v25z" />
    <glyph glyph-name="Ibreve" unicode="&#x12c;" horiz-adv-x="225" 
d="M100 700h25v-700h-25v700zM115 785q-53 0 -87 28.5t-38 81.5h25q4 -38 29.5 -61.5t70.5 -23.5t70.5 23.5t29.5 61.5h25q-4 -53 -38 -81.5t-87 -28.5z" />
    <glyph glyph-name="ibreve" unicode="&#x12d;" horiz-adv-x="195" 
d="M85 510h25v-510h-25v510zM100 605q-53 0 -87 28.5t-38 81.5h25q4 -38 29.5 -61.5t70.5 -23.5t70.5 23.5t29.5 61.5h25q-4 -53 -38 -81.5t-87 -28.5z" />
    <glyph glyph-name="Iogonek" unicode="&#x12e;" horiz-adv-x="225" 
d="M100 -180q-45 0 -67.5 20.5t-22.5 54.5q0 24 8.5 41.5t21.5 29.5t29 20t31 14v700h25v-700q-21 -11 -36.5 -21t-26.5 -21t-16.5 -25t-5.5 -33q0 -30 17 -42.5t43 -12.5h40v-25h-40v0z" />
    <glyph glyph-name="iogonek" unicode="&#x12f;" horiz-adv-x="195" 
d="M85 -180q-45 0 -67.5 20.5t-22.5 54.5q0 24 8.5 41.5t21.5 29.5t29 20t31 14v510h25v-510q-21 -11 -36.5 -21t-26.5 -21t-16.5 -25t-5.5 -33q0 -30 17 -42.5t43 -12.5h40v-25h-40zM100 625q-25 0 -25 25t25 25t25 -25t-25 -25z" />
    <glyph glyph-name="Idotaccent" unicode="&#x130;" horiz-adv-x="225" 
d="M100 700h25v-700h-25v700zM115 815q-25 0 -25 25t25 25t25 -25t-25 -25z" />
    <glyph glyph-name="dotlessi" unicode="&#x131;" horiz-adv-x="195" 
d="M85 510h25v-510h-25v510z" />
    <glyph glyph-name="uni0132" unicode="&#x132;" horiz-adv-x="735" 
d="M100 700h25v-700h-25v700zM435 -10q-41 0 -76 12.5t-62 36t-44 57t-23 74.5h25q11 -72 59.5 -113.5t120.5 -41.5q39 0 72 13.5t57 39t37.5 61.5t13.5 81v490h25v-490q0 -51 -15 -91.5t-42 -69t-65 -44t-83 -15.5z" />
    <glyph glyph-name="uni0133" unicode="&#x133;" horiz-adv-x="395" 
d="M85 510h25v-510h-25v510zM100 625q-25 0 -25 25t25 25t25 -25t-25 -25zM145 -175h70q30 0 50 18t20 52v615h25v-615q0 -45 -25 -70t-70 -25h-70v25zM300 625q-25 0 -25 25t25 25t25 -25t-25 -25z" />
    <glyph glyph-name="Jcircumflex" unicode="&#x134;" horiz-adv-x="525" 
d="M225 -10q-41 0 -76 12.5t-62 36t-44 57t-23 74.5h25q11 -72 59.5 -113.5t120.5 -41.5q39 0 72 13.5t57 39t37.5 61.5t13.5 81v490h25v-490q0 -51 -15 -91.5t-42 -69t-65 -44t-83 -15.5zM405 915h25l130 -145h-30l-110 122h-5l-110 -122h-30z" />
    <glyph glyph-name="jcircumflex" unicode="&#x135;" horiz-adv-x="195" 
d="M-55 -175h70q30 0 50 18t20 52v615h25v-615q0 -45 -25 -70t-70 -25h-70v25zM85 735h25l130 -145h-30l-110 122h-5l-110 -122h-30z" />
    <glyph glyph-name="Kcommaaccent" unicode="&#x136;" horiz-adv-x="545" 
d="M100 700h25v-335l360 335h35l-370 -345l385 -355h-35l-375 345v-345h-25v700zM280 -85h35l-65 -160h-15z" />
    <glyph glyph-name="kcommaaccent" unicode="&#x137;" horiz-adv-x="445" 
d="M90 700h25v-430l280 240h35l-290 -250l305 -260h-35l-295 250v-250h-25v700zM240 -85h35l-65 -160h-15z" />
    <glyph glyph-name="Lacute" unicode="&#x139;" horiz-adv-x="530" 
d="M100 700h25v-675h395v-25h-420v700zM195 910h40l-110 -140h-20z" />
    <glyph glyph-name="lacute" unicode="&#x13a;" horiz-adv-x="205" 
d="M90 700h25v-700h-25v700zM185 910h40l-110 -140h-20z" />
    <glyph glyph-name="Lcommaaccent" unicode="&#x13b;" horiz-adv-x="530" 
d="M100 700h25v-675h395v-25h-420v700zM290 -85h35l-65 -160h-15z" />
    <glyph glyph-name="lcommaaccent" unicode="&#x13c;" horiz-adv-x="205" 
d="M90 700h25v-700h-25v700zM85 -85h35l-65 -160h-15z" />
    <glyph glyph-name="Lcaron" unicode="&#x13d;" horiz-adv-x="530" 
d="M100 700h25v-675h395v-25h-420v700z" />
    <glyph glyph-name="lcaron" unicode="&#x13e;" horiz-adv-x="245" 
d="M90 700h25v-700h-25v700z" />
    <glyph glyph-name="Ldot" unicode="&#x13f;" horiz-adv-x="530" 
d="M378 350q-14 0 -21 8.5t-7 19.5q0 10 7 18.5t21 8.5q13 0 20 -8.5t7 -18.5q0 -11 -7 -19.5t-20 -8.5zM100 700h25v-675h395v-25h-420v700z" />
    <glyph glyph-name="ldot" unicode="&#x140;" horiz-adv-x="295" 
d="M248 330q-14 0 -21 8.5t-7 19.5q0 10 7 18.5t21 8.5q13 0 20 -8.5t7 -18.5q0 -11 -7 -19.5t-20 -8.5zM90 700h25v-700h-25v700z" />
    <glyph glyph-name="Lslash" unicode="&#x141;" horiz-adv-x="540" 
d="M110 335l-80 -30v25l80 30v340h25v-331l200 76v-25l-200 -76v-319h395v-25h-420v335z" />
    <glyph glyph-name="lslash" unicode="&#x142;" horiz-adv-x="225" 
d="M100 346l-75 -36v25l75 36v329h25v-317l75 37v-25l-75 -37v-358h-25v346z" />
    <glyph glyph-name="Nacute" unicode="&#x143;" horiz-adv-x="725" 
d="M100 700h30l465 -658h5v658h25v-700h-30l-465 658h-5v-658h-25v700zM440 910h40l-110 -140h-20z" />
    <glyph glyph-name="nacute" unicode="&#x144;" horiz-adv-x="555" 
d="M85 510h20l5 -95h5q23 49 66.5 77t103.5 28q43 0 78 -14.5t60 -41t38.5 -64.5t13.5 -85v-315h-25v315q0 37 -11 70t-32 57.5t-52 38.5t-70 14q-38 0 -70 -14t-55 -38.5t-36.5 -57.5t-13.5 -70v-315h-25v510zM360 730h40l-110 -140h-20z" />
    <glyph glyph-name="Ncommaaccent" unicode="&#x145;" horiz-adv-x="725" 
d="M100 700h30l465 -658h5v658h25v-700h-30l-465 658h-5v-658h-25v700zM345 -85h35l-65 -160h-15z" />
    <glyph glyph-name="ncommaaccent" unicode="&#x146;" horiz-adv-x="555" 
d="M85 510h20l5 -95h5q23 49 66.5 77t103.5 28q43 0 78 -14.5t60 -41t38.5 -64.5t13.5 -85v-315h-25v315q0 37 -11 70t-32 57.5t-52 38.5t-70 14q-38 0 -70 -14t-55 -38.5t-36.5 -57.5t-13.5 -70v-315h-25v510zM265 -85h35l-65 -160h-15z" />
    <glyph glyph-name="Ncaron" unicode="&#x147;" horiz-adv-x="725" 
d="M100 700h30l465 -658h5v658h25v-700h-30l-465 658h-5v-658h-25v700zM220 915h30l110 -122h5l110 122h30l-130 -145h-25z" />
    <glyph glyph-name="ncaron" unicode="&#x148;" horiz-adv-x="555" 
d="M85 510h20l5 -95h5q23 49 66.5 77t103.5 28q43 0 78 -14.5t60 -41t38.5 -64.5t13.5 -85v-315h-25v315q0 37 -11 70t-32 57.5t-52 38.5t-70 14q-38 0 -70 -14t-55 -38.5t-36.5 -57.5t-13.5 -70v-315h-25v510zM140 730h30l110 -122h5l110 122h30l-130 -145h-25z" />
    <glyph glyph-name="napostrophe" unicode="&#x149;" horiz-adv-x="555" 
d="M85 510h20l5 -95h5q23 49 66.5 77t103.5 28q43 0 78 -14.5t60 -41t38.5 -64.5t13.5 -85v-315h-25v315q0 37 -11 70t-32 57.5t-52 38.5t-70 14q-38 0 -70 -14t-55 -38.5t-36.5 -57.5t-13.5 -70v-315h-25v510zM65 720h35l-65 -160h-15z" />
    <glyph glyph-name="Eng" unicode="&#x14a;" horiz-adv-x="725" 
d="M425 -175h45q57 0 93.5 39t36.5 111v25h-5l-465 658h-5v-658h-25v700h30l465 -658h5v658h25v-720q0 -45 -11.5 -79t-32 -56.5t-49 -33.5t-62.5 -11h-45v25z" />
    <glyph glyph-name="eng" unicode="&#x14b;" horiz-adv-x="555" 
d="M330 -175h50q30 0 50 18t20 52v420q0 37 -11 70t-32 57.5t-52 38.5t-70 14q-38 0 -70 -14t-55 -38.5t-36.5 -57.5t-13.5 -70v-315h-25v510h20l5 -95h5q23 49 66.5 77t103.5 28q43 0 78 -14.5t60 -41t38.5 -64.5t13.5 -85v-420q0 -45 -25 -70t-70 -25h-50v25z" />
    <glyph glyph-name="Omacron" unicode="&#x14c;" horiz-adv-x="720" 
d="M360 -10q-66 0 -121 24t-94.5 70t-62 113t-22.5 153t22.5 153t62 113t94.5 70t121 24t121 -24t94.5 -70t62 -113t22.5 -153t-22.5 -153t-62 -113t-94.5 -70t-121 -24zM360 15q60 0 110.5 22t87 65t57 105t20.5 143t-20.5 143t-57 105t-87 65t-110.5 22t-110.5 -22
t-87 -65t-57 -105t-20.5 -143t20.5 -143t57 -105t87 -65t110.5 -22zM230 850h260v-25h-260v25z" />
    <glyph glyph-name="omacron" unicode="&#x14d;" horiz-adv-x="570" 
d="M285 -10q-51 0 -93 18t-72.5 52.5t-47.5 83.5t-17 111t17 111t47.5 83.5t72.5 52.5t93 18t93 -18t72.5 -52.5t47.5 -83.5t17 -111t-17 -111t-47.5 -83.5t-72.5 -52.5t-93 -18zM285 15q52 0 91 20t64 53t37.5 76.5t12.5 90.5t-12.5 90.5t-37.5 76.5t-64 53t-91 20
q-53 0 -91.5 -20t-63.5 -53t-37.5 -76.5t-12.5 -90.5t12.5 -90.5t37.5 -76.5t63.5 -53t91.5 -20zM155 670h260v-25h-260v25z" />
    <glyph glyph-name="Obreve" unicode="&#x14e;" horiz-adv-x="720" 
d="M360 -10q-66 0 -121 24t-94.5 70t-62 113t-22.5 153t22.5 153t62 113t94.5 70t121 24t121 -24t94.5 -70t62 -113t22.5 -153t-22.5 -153t-62 -113t-94.5 -70t-121 -24zM360 15q60 0 110.5 22t87 65t57 105t20.5 143t-20.5 143t-57 105t-87 65t-110.5 22t-110.5 -22
t-87 -65t-57 -105t-20.5 -143t20.5 -143t57 -105t87 -65t110.5 -22zM360 785q-53 0 -87 28.5t-38 81.5h25q4 -38 29.5 -61.5t70.5 -23.5t70.5 23.5t29.5 61.5h25q-4 -53 -38 -81.5t-87 -28.5z" />
    <glyph glyph-name="obreve" unicode="&#x14f;" horiz-adv-x="570" 
d="M285 -10q-51 0 -93 18t-72.5 52.5t-47.5 83.5t-17 111t17 111t47.5 83.5t72.5 52.5t93 18t93 -18t72.5 -52.5t47.5 -83.5t17 -111t-17 -111t-47.5 -83.5t-72.5 -52.5t-93 -18zM285 15q52 0 91 20t64 53t37.5 76.5t12.5 90.5t-12.5 90.5t-37.5 76.5t-64 53t-91 20
q-53 0 -91.5 -20t-63.5 -53t-37.5 -76.5t-12.5 -90.5t12.5 -90.5t37.5 -76.5t63.5 -53t91.5 -20zM285 605q-53 0 -87 28.5t-38 81.5h25q4 -38 29.5 -61.5t70.5 -23.5t70.5 23.5t29.5 61.5h25q-4 -53 -38 -81.5t-87 -28.5z" />
    <glyph glyph-name="Ohungarumlaut" unicode="&#x150;" horiz-adv-x="720" 
d="M360 -10q-66 0 -121 24t-94.5 70t-62 113t-22.5 153t22.5 153t62 113t94.5 70t121 24t121 -24t94.5 -70t62 -113t22.5 -153t-22.5 -153t-62 -113t-94.5 -70t-121 -24zM360 15q60 0 110.5 22t87 65t57 105t20.5 143t-20.5 143t-57 105t-87 65t-110.5 22t-110.5 -22
t-87 -65t-57 -105t-20.5 -143t20.5 -143t57 -105t87 -65t110.5 -22zM370 910h40l-110 -140h-20zM510 910h40l-110 -140h-20z" />
    <glyph glyph-name="ohungarumlaut" unicode="&#x151;" horiz-adv-x="570" 
d="M285 -10q-51 0 -93 18t-72.5 52.5t-47.5 83.5t-17 111t17 111t47.5 83.5t72.5 52.5t93 18t93 -18t72.5 -52.5t47.5 -83.5t17 -111t-17 -111t-47.5 -83.5t-72.5 -52.5t-93 -18zM285 15q52 0 91 20t64 53t37.5 76.5t12.5 90.5t-12.5 90.5t-37.5 76.5t-64 53t-91 20
q-53 0 -91.5 -20t-63.5 -53t-37.5 -76.5t-12.5 -90.5t12.5 -90.5t37.5 -76.5t63.5 -53t91.5 -20zM295 730h40l-110 -140h-20zM435 730h40l-110 -140h-20z" />
    <glyph glyph-name="OE" unicode="&#x152;" horiz-adv-x="1110" 
d="M350 -10q-62 0 -115 24t-92 70t-61 113t-22 153t22 153t61 113t92 70t115 24q43 0 83.5 -12.5t75 -37t62 -62t44.5 -88.5v190h415v-25h-390v-310h370v-25h-370v-315h400v-25h-425v190q-17 -51 -44.5 -88.5t-62 -62t-75 -37t-83.5 -12.5zM350 15q56 0 104.5 22t84 65
t56 105t20.5 143t-20.5 143t-56 105t-84 65t-104.5 22t-104.5 -22t-84 -65t-56 -105t-20.5 -143t20.5 -143t56 -105t84 -65t104.5 -22z" />
    <glyph glyph-name="oe" unicode="&#x153;" horiz-adv-x="960" 
d="M275 -10q-51 0 -91.5 18t-69 52.5t-44 83.5t-15.5 111t15.5 111t44 83.5t69 52.5t91.5 18q43 0 77.5 -13t61 -36t43.5 -53.5t26 -65.5q10 40 31 71.5t49 53t60.5 32.5t66.5 11q45 0 85 -17t70 -48.5t47.5 -76t17.5 -98.5v-30h-415v-5q0 -51 15 -93t42 -72.5t63.5 -47.5
t79.5 -17q34 0 61 9.5t49 26t38.5 38.5t28.5 46h28q-30 -68 -81.5 -106.5t-123.5 -38.5q-39 0 -73.5 12.5t-62 34.5t-47.5 52t-30 65q-20 -78 -74 -121t-133 -43zM275 15q52 0 89.5 20t60.5 53t34 76.5t11 90.5t-11 90.5t-34 76.5t-60.5 53t-89.5 20q-53 0 -90 -20t-60 -53
t-34 -76.5t-11 -90.5t11 -90.5t34 -76.5t60 -53t90 -20zM885 275q0 48 -14.5 88.5t-40 69.5t-61.5 45.5t-79 16.5q-45 0 -80 -18t-60 -48.5t-38.5 -70.5t-16.5 -83h390z" />
    <glyph glyph-name="Racute" unicode="&#x154;" horiz-adv-x="615" 
d="M100 700h240q106 0 160.5 -53t54.5 -147t-54.5 -147t-160.5 -53h-20l215 -300h-30l-215 300h-165v-300h-25v700zM335 325q94 0 144.5 44t50.5 131t-50.5 131t-144.5 44h-210v-350h210zM395 910h40l-110 -140h-20z" />
    <glyph glyph-name="racute" unicode="&#x155;" horiz-adv-x="340" 
d="M85 510h20l5 -95h5q44 95 155 95h50v-25h-50q-39 0 -69 -14t-50.5 -37.5t-30.5 -54t-10 -64.5v-315h-25v510zM285 730h40l-110 -140h-20z" />
    <glyph glyph-name="Rcommaaccent" unicode="&#x156;" horiz-adv-x="615" 
d="M100 700h240q106 0 160.5 -53t54.5 -147t-54.5 -147t-160.5 -53h-20l215 -300h-30l-215 300h-165v-300h-25v700zM335 325q94 0 144.5 44t50.5 131t-50.5 131t-144.5 44h-210v-350h210zM300 -85h35l-65 -160h-15z" />
    <glyph glyph-name="rcommaaccent" unicode="&#x157;" horiz-adv-x="340" 
d="M85 510h20l5 -95h5q44 95 155 95h50v-25h-50q-39 0 -69 -14t-50.5 -37.5t-30.5 -54t-10 -64.5v-315h-25v510zM80 -85h35l-65 -160h-15z" />
    <glyph glyph-name="Rcaron" unicode="&#x158;" horiz-adv-x="615" 
d="M100 700h240q106 0 160.5 -53t54.5 -147t-54.5 -147t-160.5 -53h-20l215 -300h-30l-215 300h-165v-300h-25v700zM335 325q94 0 144.5 44t50.5 131t-50.5 131t-144.5 44h-210v-350h210zM175 915h30l110 -122h5l110 122h30l-130 -145h-25z" />
    <glyph glyph-name="rcaron" unicode="&#x159;" horiz-adv-x="340" 
d="M85 510h20l5 -95h5q44 95 155 95h50v-25h-50q-39 0 -69 -14t-50.5 -37.5t-30.5 -54t-10 -64.5v-315h-25v510zM65 730h30l110 -122h5l110 122h30l-130 -145h-25z" />
    <glyph glyph-name="Sacute" unicode="&#x15a;" horiz-adv-x="590" 
d="M305 -10q-53 0 -96.5 15t-76 40.5t-54 60.5t-28.5 74h25q11 -45 36 -76.5t56.5 -51t67.5 -28.5t70 -9q49 0 88 13t66 35.5t41.5 52.5t14.5 64q0 44 -19 72t-50.5 46t-71.5 29t-81.5 20.5t-81.5 21.5t-71.5 32t-50.5 50.5t-19 78.5q0 37 13.5 70t40.5 57.5t68.5 38.5
t97.5 14q94 0 155 -43.5t80 -126.5h-25q-8 21 -21 46t-37 47t-61 37t-91 15q-91 0 -143 -40t-52 -115q0 -43 19 -70t50.5 -44.5t71.5 -27.5t81.5 -19.5t81.5 -21.5t71.5 -32.5t50.5 -52.5t19 -82q0 -34 -13.5 -68t-42 -61t-73 -44t-106.5 -17zM375 910h40l-110 -140h-20z
" />
    <glyph glyph-name="sacute" unicode="&#x15b;" horiz-adv-x="470" 
d="M240 -10q-79 0 -129.5 40.5t-65.5 104.5h25q6 -19 17.5 -40t32 -39t50 -29.5t70.5 -11.5q72 0 116 29t44 86q0 44 -25 65.5t-63 32.5t-82 17.5t-82 19.5t-63 39t-25 76q0 28 11 53.5t33 44.5t55 30.5t76 11.5q68 0 116.5 -33t63.5 -97h-25q-6 13 -15.5 31t-26.5 34.5
t-44.5 28t-68.5 11.5q-75 0 -112.5 -33t-37.5 -82q0 -32 14.5 -51.5t38.5 -31t54.5 -18.5t62.5 -13t62.5 -14t54.5 -22.5t38.5 -38.5t14.5 -61q0 -60 -45.5 -100t-139.5 -40zM315 730h40l-110 -140h-20z" />
    <glyph glyph-name="Scircumflex" unicode="&#x15c;" horiz-adv-x="590" 
d="M305 -10q-53 0 -96.5 15t-76 40.5t-54 60.5t-28.5 74h25q11 -45 36 -76.5t56.5 -51t67.5 -28.5t70 -9q49 0 88 13t66 35.5t41.5 52.5t14.5 64q0 44 -19 72t-50.5 46t-71.5 29t-81.5 20.5t-81.5 21.5t-71.5 32t-50.5 50.5t-19 78.5q0 37 13.5 70t40.5 57.5t68.5 38.5
t97.5 14q94 0 155 -43.5t80 -126.5h-25q-8 21 -21 46t-37 47t-61 37t-91 15q-91 0 -143 -40t-52 -115q0 -43 19 -70t50.5 -44.5t71.5 -27.5t81.5 -19.5t81.5 -21.5t71.5 -32.5t50.5 -52.5t19 -82q0 -34 -13.5 -68t-42 -61t-73 -44t-106.5 -17zM285 915h25l130 -145h-30
l-110 122h-5l-110 -122h-30z" />
    <glyph glyph-name="scircumflex" unicode="&#x15d;" horiz-adv-x="470" 
d="M240 -10q-79 0 -129.5 40.5t-65.5 104.5h25q6 -19 17.5 -40t32 -39t50 -29.5t70.5 -11.5q72 0 116 29t44 86q0 44 -25 65.5t-63 32.5t-82 17.5t-82 19.5t-63 39t-25 76q0 28 11 53.5t33 44.5t55 30.5t76 11.5q68 0 116.5 -33t63.5 -97h-25q-6 13 -15.5 31t-26.5 34.5
t-44.5 28t-68.5 11.5q-75 0 -112.5 -33t-37.5 -82q0 -32 14.5 -51.5t38.5 -31t54.5 -18.5t62.5 -13t62.5 -14t54.5 -22.5t38.5 -38.5t14.5 -61q0 -60 -45.5 -100t-139.5 -40zM225 735h25l130 -145h-30l-110 122h-5l-110 -122h-30z" />
    <glyph glyph-name="Scedilla" unicode="&#x15e;" horiz-adv-x="590" 
d="M235 -175h50q30 0 47.5 16t17.5 39t-17.5 39t-47.5 16h-40v15l21 43q-45 5 -81.5 21.5t-64.5 41.5t-45.5 56.5t-24.5 67.5h25q11 -45 36 -76.5t56.5 -51t67.5 -28.5t70 -9q49 0 88 13t66 35.5t41.5 52.5t14.5 64q0 44 -19 72t-50.5 46t-71.5 29t-81.5 20.5t-81.5 21.5
t-71.5 32t-50.5 50.5t-19 78.5q0 37 13.5 70t40.5 57.5t68.5 38.5t97.5 14q94 0 155 -43.5t80 -126.5h-25q-8 21 -21 46t-37 47t-61 37t-91 15q-91 0 -143 -40t-52 -115q0 -43 19 -70t50.5 -44.5t71.5 -27.5t81.5 -19.5t81.5 -21.5t71.5 -32.5t50.5 -52.5t19 -82
q0 -34 -13.5 -68t-42 -61t-73 -44t-106.5 -17h-15l-15 -30h10q42 0 66 -21t24 -59t-24 -59t-66 -21h-50v25z" />
    <glyph glyph-name="scedilla" unicode="&#x15f;" horiz-adv-x="470" 
d="M185 -175h50q30 0 47.5 16t17.5 39t-17.5 39t-47.5 16h-40v15l20 41q-69 7 -112.5 46t-57.5 98h25q6 -19 17.5 -40t32 -39t50 -29.5t70.5 -11.5q72 0 116 29t44 86q0 44 -25 65.5t-63 32.5t-82 17.5t-82 19.5t-63 39t-25 76q0 28 11 53.5t33 44.5t55 30.5t76 11.5
q68 0 116.5 -33t63.5 -97h-25q-6 13 -15.5 31t-26.5 34.5t-44.5 28t-68.5 11.5q-75 0 -112.5 -33t-37.5 -82q0 -32 14.5 -51.5t38.5 -31t54.5 -18.5t62.5 -13t62.5 -14t54.5 -22.5t38.5 -38.5t14.5 -61q0 -60 -45.5 -100t-139.5 -40l-15 -30h10q42 0 66 -21t24 -59t-24 -59
t-66 -21h-50v25z" />
    <glyph glyph-name="Scaron" unicode="&#x160;" horiz-adv-x="590" 
d="M305 -10q-53 0 -96.5 15t-76 40.5t-54 60.5t-28.5 74h25q11 -45 36 -76.5t56.5 -51t67.5 -28.5t70 -9q49 0 88 13t66 35.5t41.5 52.5t14.5 64q0 44 -19 72t-50.5 46t-71.5 29t-81.5 20.5t-81.5 21.5t-71.5 32t-50.5 50.5t-19 78.5q0 37 13.5 70t40.5 57.5t68.5 38.5
t97.5 14q94 0 155 -43.5t80 -126.5h-25q-8 21 -21 46t-37 47t-61 37t-91 15q-91 0 -143 -40t-52 -115q0 -43 19 -70t50.5 -44.5t71.5 -27.5t81.5 -19.5t81.5 -21.5t71.5 -32.5t50.5 -52.5t19 -82q0 -34 -13.5 -68t-42 -61t-73 -44t-106.5 -17zM155 915h30l110 -122h5
l110 122h30l-130 -145h-25z" />
    <glyph glyph-name="scaron" unicode="&#x161;" horiz-adv-x="470" 
d="M240 -10q-79 0 -129.5 40.5t-65.5 104.5h25q6 -19 17.5 -40t32 -39t50 -29.5t70.5 -11.5q72 0 116 29t44 86q0 44 -25 65.5t-63 32.5t-82 17.5t-82 19.5t-63 39t-25 76q0 28 11 53.5t33 44.5t55 30.5t76 11.5q68 0 116.5 -33t63.5 -97h-25q-6 13 -15.5 31t-26.5 34.5
t-44.5 28t-68.5 11.5q-75 0 -112.5 -33t-37.5 -82q0 -32 14.5 -51.5t38.5 -31t54.5 -18.5t62.5 -13t62.5 -14t54.5 -22.5t38.5 -38.5t14.5 -61q0 -60 -45.5 -100t-139.5 -40zM95 730h30l110 -122h5l110 122h30l-130 -145h-25z" />
    <glyph glyph-name="uni0162" unicode="&#x162;" horiz-adv-x="585" 
d="M245 -175h50q30 0 47.5 16t17.5 39t-17.5 39t-47.5 16h-40v15l25 50v675h-250v25h525v-25h-250v-675l-20 -40h10q42 0 66 -21t24 -59t-24 -59t-66 -21h-50v25z" />
    <glyph glyph-name="uni0163" unicode="&#x163;" horiz-adv-x="330" 
d="M135 -175h50q30 0 47.5 16t17.5 39t-17.5 39t-47.5 16h-40v15l28 57q-53 20 -53 88v390h-90v25h90l5 140h20v-140h140v-25h-140v-390q0 -34 20 -52t50 -18h70v-25h-70h-10t-10 1l-20 -41h10q42 0 66 -21t24 -59t-24 -59t-66 -21h-50v25z" />
    <glyph glyph-name="Tcaron" unicode="&#x164;" horiz-adv-x="585" 
d="M280 675h-250v25h525v-25h-250v-675h-25v675zM150 915h30l110 -122h5l110 122h30l-130 -145h-25z" />
    <glyph glyph-name="tcaron" unicode="&#x165;" horiz-adv-x="345" 
d="M215 0q-45 0 -70 25t-25 70v390h-90v25h90l5 140h20v-140h140v-25h-140v-390q0 -34 20 -52t50 -18h70v-25h-70v0z" />
    <glyph glyph-name="Tbar" unicode="&#x166;" horiz-adv-x="585" 
d="M280 465h-190v25h190v185h-250v25h525v-25h-250v-185h190v-25h-190v-465h-25v465z" />
    <glyph glyph-name="tbar" unicode="&#x167;" horiz-adv-x="335" 
d="M220 0q-45 0 -70 25t-25 70v220h-90v25h90v145h-90v25h90l5 140h20v-140h140v-25h-140v-145h140v-25h-140v-220q0 -34 20 -52t50 -18h70v-25h-70v0z" />
    <glyph glyph-name="Umacron" unicode="&#x16a;" horiz-adv-x="700" 
d="M350 -10q-56 0 -103 19t-81 55t-52.5 88t-18.5 118v430h25v-430q0 -60 17 -107.5t47.5 -80t72.5 -50t93 -17.5t93 17.5t72.5 50t47.5 80t17 107.5v430h25v-430q0 -66 -19 -118t-52.5 -88t-80.5 -55t-103 -19zM220 850h260v-25h-260v25z" />
    <glyph glyph-name="umacron" unicode="&#x16b;" horiz-adv-x="560" 
d="M275 -10q-43 0 -78 14.5t-60 41t-38.5 64.5t-13.5 85v315h25v-315q0 -38 11 -70.5t32 -57t52 -38.5t70 -14q37 0 69.5 14t55.5 38.5t36.5 57t13.5 70.5v315h25v-510h-20l-5 95h-5q-23 -49 -66.5 -77t-103.5 -28zM150 670h260v-25h-260v25z" />
    <glyph glyph-name="Ubreve" unicode="&#x16c;" horiz-adv-x="700" 
d="M350 -10q-56 0 -103 19t-81 55t-52.5 88t-18.5 118v430h25v-430q0 -60 17 -107.5t47.5 -80t72.5 -50t93 -17.5t93 17.5t72.5 50t47.5 80t17 107.5v430h25v-430q0 -66 -19 -118t-52.5 -88t-80.5 -55t-103 -19zM350 785q-53 0 -87 28.5t-38 81.5h25q4 -38 29.5 -61.5
t70.5 -23.5t70.5 23.5t29.5 61.5h25q-4 -53 -38 -81.5t-87 -28.5z" />
    <glyph glyph-name="ubreve" unicode="&#x16d;" horiz-adv-x="560" 
d="M275 -10q-43 0 -78 14.5t-60 41t-38.5 64.5t-13.5 85v315h25v-315q0 -38 11 -70.5t32 -57t52 -38.5t70 -14q37 0 69.5 14t55.5 38.5t36.5 57t13.5 70.5v315h25v-510h-20l-5 95h-5q-23 -49 -66.5 -77t-103.5 -28zM280 605q-53 0 -87 28.5t-38 81.5h25q4 -38 29.5 -61.5
t70.5 -23.5t70.5 23.5t29.5 61.5h25q-4 -53 -38 -81.5t-87 -28.5z" />
    <glyph glyph-name="Uring" unicode="&#x16e;" horiz-adv-x="700" 
d="M350 -10q-56 0 -103 19t-81 55t-52.5 88t-18.5 118v430h25v-430q0 -60 17 -107.5t47.5 -80t72.5 -50t93 -17.5t93 17.5t72.5 50t47.5 80t17 107.5v430h25v-430q0 -66 -19 -118t-52.5 -88t-80.5 -55t-103 -19zM352 760q-35 0 -61 24t-26 63q0 40 26 64t61 24q36 0 62 -24
t26 -64t-26.5 -63.5t-61.5 -23.5zM352 785q28 0 45.5 16.5t17.5 45.5t-17 46t-46 17q-28 0 -45 -17t-17 -46q0 -28 17 -45t45 -17z" />
    <glyph glyph-name="uring" unicode="&#x16f;" horiz-adv-x="560" 
d="M275 -10q-43 0 -78 14.5t-60 41t-38.5 64.5t-13.5 85v315h25v-315q0 -38 11 -70.5t32 -57t52 -38.5t70 -14q37 0 69.5 14t55.5 38.5t36.5 57t13.5 70.5v315h25v-510h-20l-5 95h-5q-23 -49 -66.5 -77t-103.5 -28zM282 580q-35 0 -61 24t-26 63q0 40 26 64t61 24
q36 0 62 -24t26 -64t-26.5 -63.5t-61.5 -23.5zM282 605q28 0 45.5 16.5t17.5 45.5t-17 46t-46 17q-28 0 -45 -17t-17 -46q0 -28 17 -45t45 -17z" />
    <glyph glyph-name="Uhungarumlaut" unicode="&#x170;" horiz-adv-x="700" 
d="M350 -10q-56 0 -103 19t-81 55t-52.5 88t-18.5 118v430h25v-430q0 -60 17 -107.5t47.5 -80t72.5 -50t93 -17.5t93 17.5t72.5 50t47.5 80t17 107.5v430h25v-430q0 -66 -19 -118t-52.5 -88t-80.5 -55t-103 -19zM360 910h40l-110 -140h-20zM500 910h40l-110 -140h-20z" />
    <glyph glyph-name="uhungarumlaut" unicode="&#x171;" horiz-adv-x="560" 
d="M275 -10q-43 0 -78 14.5t-60 41t-38.5 64.5t-13.5 85v315h25v-315q0 -38 11 -70.5t32 -57t52 -38.5t70 -14q37 0 69.5 14t55.5 38.5t36.5 57t13.5 70.5v315h25v-510h-20l-5 95h-5q-23 -49 -66.5 -77t-103.5 -28zM290 730h40l-110 -140h-20zM430 730h40l-110 -140h-20z
" />
    <glyph glyph-name="Uogonek" unicode="&#x172;" horiz-adv-x="700" 
d="M380 -180q-45 0 -67.5 20.5t-22.5 54.5q0 40 20 61.5t46 33.5h-6q-56 0 -103 19t-81 55t-52.5 88t-18.5 118v430h25v-430q0 -60 17 -107.5t47.5 -80t72.5 -50t93 -17.5t93 17.5t72.5 50t47.5 80t17 107.5v430h25v-430q0 -60 -15.5 -108t-43.5 -83.5t-67.5 -57
t-87.5 -28.5q-35 -19 -53 -38.5t-18 -54.5q0 -30 17 -42.5t43 -12.5h40v-25h-40v0z" />
    <glyph glyph-name="uogonek" unicode="&#x173;" horiz-adv-x="560" 
d="M450 -180q-45 0 -67.5 20.5t-22.5 54.5q0 24 9 42t23.5 31t31 20.5t31.5 11.5l-5 95h-5q-23 -49 -66.5 -77t-103.5 -28q-43 0 -78 14.5t-60 41t-38.5 64.5t-13.5 85v315h25v-315q0 -38 11 -70.5t32 -57t52 -38.5t70 -14q37 0 69.5 14t55.5 38.5t36.5 57t13.5 70.5v315h25
v-510q-21 -11 -36.5 -21t-26.5 -21t-16.5 -25t-5.5 -33q0 -30 17 -42.5t43 -12.5h40v-25h-40v0z" />
    <glyph glyph-name="Wcircumflex" unicode="&#x174;" horiz-adv-x="885" 
d="M25 700h27l183 -665h5l186 665h33l186 -665h5l183 665h27l-193 -700h-39l-183 655h-5l-183 -655h-39zM430 915h25l130 -145h-30l-110 122h-5l-110 -122h-30z" />
    <glyph glyph-name="wcircumflex" unicode="&#x175;" horiz-adv-x="675" 
d="M15 510h26l137 -475h5l142 475h25l142 -475h5l137 475h26l-150 -510h-31l-139 465h-5l-139 -465h-31zM325 735h25l130 -145h-30l-110 122h-5l-110 -122h-30z" />
    <glyph glyph-name="Ycircumflex" unicode="&#x176;" horiz-adv-x="555" 
d="M265 270l-250 430h28l232 -400h5l232 400h28l-250 -430v-270h-25v270zM265 915h25l130 -145h-30l-110 122h-5l-110 -122h-30z" />
    <glyph glyph-name="ycircumflex" unicode="&#x177;" horiz-adv-x="470" 
d="M228 0l-218 510h26l202 -470h6l189 470h27l-286 -710h-27zM230 735h25l130 -145h-30l-110 122h-5l-110 -122h-30z" />
    <glyph glyph-name="Ydieresis" unicode="&#x178;" horiz-adv-x="555" 
d="M265 270l-250 430h28l232 -400h5l232 400h28l-250 -430v-270h-25v270zM200 815q-25 0 -25 25t25 25t25 -25t-25 -25zM360 815q-25 0 -25 25t25 25t25 -25t-25 -25z" />
    <glyph glyph-name="Zacute" unicode="&#x179;" horiz-adv-x="550" 
d="M40 20l432 655h-422v25h455v-20l-432 -655h437v-25h-470v20zM355 910h40l-110 -140h-20z" />
    <glyph glyph-name="zacute" unicode="&#x17a;" horiz-adv-x="435" 
d="M30 20l337 465h-327v25h360v-20l-337 -465h342v-25h-375v20zM300 730h40l-110 -140h-20z" />
    <glyph glyph-name="Zdotaccent" unicode="&#x17b;" horiz-adv-x="550" 
d="M40 20l432 655h-422v25h455v-20l-432 -655h437v-25h-470v20zM275 815q-25 0 -25 25t25 25t25 -25t-25 -25z" />
    <glyph glyph-name="zdotaccent" unicode="&#x17c;" horiz-adv-x="435" 
d="M30 20l337 465h-327v25h360v-20l-337 -465h342v-25h-375v20zM220 635q-25 0 -25 25t25 25t25 -25t-25 -25z" />
    <glyph glyph-name="Zcaron" unicode="&#x17d;" horiz-adv-x="550" 
d="M40 20l432 655h-422v25h455v-20l-432 -655h437v-25h-470v20zM135 915h30l110 -122h5l110 122h30l-130 -145h-25z" />
    <glyph glyph-name="zcaron" unicode="&#x17e;" horiz-adv-x="435" 
d="M30 20l337 465h-327v25h360v-20l-337 -465h342v-25h-375v20zM80 730h30l110 -122h5l110 122h30l-130 -145h-25z" />
    <glyph glyph-name="uni018F" unicode="&#x18f;" horiz-adv-x="720" 
d="M360 -10q-68 0 -123 24.5t-94.5 70.5t-61 111.5t-21.5 148.5v15h575q-2 90 -27 152t-64 100.5t-87 55.5t-97 17q-36 0 -72 -9t-69 -29t-60 -52.5t-44 -79.5h-30q38 98 109.5 146.5t165.5 48.5q64 0 118.5 -23t95 -68.5t63.5 -113t23 -155.5t-23 -155.5t-63.5 -113
t-95 -68.5t-118.5 -23zM360 15q60 0 110 22t86 63t56.5 100.5t22.5 134.5h-550q2 -75 22.5 -134.5t56.5 -100.5t86 -63t110 -22z" />
    <glyph glyph-name="florin" unicode="&#x192;" horiz-adv-x="405" 
d="M-55 -155h75q41 0 58 20.5t25 55.5l102 474h-100l5 25h100l39 179q12 56 36.5 78.5t77.5 22.5h57l-5 -25h-57q-41 0 -58.5 -21t-24.5 -55l-39 -179h110l-5 -25h-110l-102 -474q-12 -56 -36.5 -78.5t-77.5 -22.5h-75z" />
    <glyph glyph-name="Gacute" unicode="&#x1f4;" horiz-adv-x="705" 
d="M360 -10q-66 0 -121 24t-94.5 70t-62 113t-22.5 153t22.5 153t62 113t94.5 70t121 24q98 0 167 -50.5t103 -144.5h-25q-34 83 -96 126.5t-149 43.5q-60 0 -110.5 -22t-87 -65t-57 -105t-20.5 -143t20.5 -143t57 -105t87 -65t110.5 -22q56 0 104 20t82.5 58t54 93
t19.5 124h-260v25h285v-20q0 -77 -21.5 -137.5t-59.5 -102t-90 -63.5t-114 -22zM435 910h40l-110 -140h-20z" />
    <glyph glyph-name="gacute" unicode="&#x1f5;" horiz-adv-x="585" 
d="M290 -200q-87 0 -146 38t-84 117h27q23 -60 73.5 -95t129.5 -35q43 0 77.5 12.5t58.5 35t36.5 53.5t12.5 69v155h-5q-34 -64 -83.5 -92t-106.5 -28q-51 0 -92.5 18.5t-71 51.5t-45.5 77.5t-16 97.5q0 52 16 97t45.5 78t71 51.5t92.5 18.5q57 0 106.5 -28t83.5 -92h5
l5 110h20v-515q0 -43 -14 -79t-40.5 -61.5t-65.5 -40t-90 -14.5zM280 55q47 0 83.5 18t61 48.5t37.5 70.5t13 83t-13 83t-37.5 70.5t-61 48.5t-83.5 18t-84 -17.5t-63 -47.5t-39.5 -70t-13.5 -85t13.5 -85t39.5 -70t63 -47.5t84 -17.5zM370 730h40l-110 -140h-20z" />
    <glyph glyph-name="Aringacute" unicode="&#x1fa;" horiz-adv-x="595" 
d="M297 745q-35 0 -61 24t-26 63q0 40 26 64t61 24h6l27 65h40l-45 -69q26 -8 43 -30t17 -54q0 -40 -26.5 -63.5t-61.5 -23.5zM297 770q28 0 45.5 16.5t17.5 45.5t-17 46t-46 17q-28 0 -45 -17t-17 -46q0 -28 17 -45t45 -17zM280 700h35l265 -700h-25l-75 200h-365l-75 -200
h-25zM470 225l-170 450h-5l-170 -450h345z" />
    <glyph glyph-name="aringacute" unicode="&#x1fb;" horiz-adv-x="515" 
d="M262 575q-35 0 -61 24t-26 63q0 40 26 64t61 24h6l27 65h40l-45 -69q26 -8 43 -30t17 -54q0 -40 -26.5 -63.5t-61.5 -23.5zM262 600q28 0 45.5 16.5t17.5 45.5t-17 46t-46 17q-28 0 -45 -17t-17 -46q0 -28 17 -45t45 -17zM225 -10q-83 0 -129 41t-46 109q0 64 43.5 104.5
t126.5 40.5h190v50q0 83 -43 121.5t-122 38.5q-34 0 -59 -8t-43 -23.5t-31 -38t-22 -50.5h-25q15 68 61.5 106.5t118.5 38.5q94 0 142 -50.5t48 -134.5v-335h-20l-5 95h-5q-9 -21 -25 -40t-38.5 -33.5t-51.5 -23t-65 -8.5zM225 15q39 0 73 13t59 37t39 59.5t14 80.5v55h-190
q-38 0 -65 -9.5t-45 -26t-26.5 -38.5t-8.5 -46q0 -30 11.5 -53.5t31.5 -39t47.5 -24t59.5 -8.5z" />
    <glyph glyph-name="AEacute" unicode="&#x1fc;" horiz-adv-x="920" 
d="M340 700h500v-25h-395v-310h375v-25h-375v-315h405v-25h-430v190h-308l-94 -190h-28zM420 215v460h-65l-230 -460h295zM520 910h40l-110 -140h-20z" />
    <glyph glyph-name="aeacute" unicode="&#x1fd;" horiz-adv-x="900" 
d="M225 -10q-83 0 -129 40.5t-46 104.5t41 102t124 38h195v60q0 83 -43 121.5t-122 38.5q-34 0 -59 -8t-43 -23.5t-31 -38t-22 -50.5h-25q15 68 61.5 106.5t118.5 38.5q87 0 132 -40.5t53 -104.5q13 36 34 63t47 45t56.5 27.5t62.5 9.5q43 0 83 -16.5t70.5 -47.5t48.5 -75.5
t18 -100.5v-30h-415v-5q0 -41 12.5 -82t37 -74t62 -53.5t88.5 -20.5q64 0 108.5 33.5t68.5 86.5h28q-30 -72 -83.5 -108.5t-121.5 -36.5q-39 0 -72 11.5t-59 31.5t-45 47.5t-31 59.5q-21 -68 -74.5 -109t-128.5 -41zM225 15q39 0 73 13t59 37t39 59.5t14 80.5v45h-195
q-75 0 -107.5 -33t-32.5 -82q0 -28 11.5 -50.5t31.5 -38t47.5 -23.5t59.5 -8zM825 275q0 48 -14.5 88.5t-40 69.5t-61.5 45.5t-79 16.5q-45 0 -80 -18t-60 -48.5t-38.5 -70.5t-16.5 -83h390zM520 730h40l-110 -140h-20z" />
    <glyph glyph-name="Oslashacute" unicode="&#x1fe;" horiz-adv-x="720" 
d="M172 56q-53 45 -82.5 119t-29.5 175q0 86 22.5 153t62 113t94.5 70t121 24q95 0 169 -51l39 66h27l-47 -81q53 -45 82.5 -119t29.5 -175q0 -86 -22.5 -153t-62 -113t-94.5 -70t-121 -24q-96 0 -169 51l-39 -66h-27zM516 637q-32 23 -71.5 35.5t-84.5 12.5
q-60 0 -110.5 -22t-87 -65t-57 -105t-20.5 -143q0 -94 27 -162t74 -110zM360 15q60 0 110.5 22t87 65t57 105t20.5 143q0 94 -27 162t-74 110l-330 -559q32 -23 71.5 -35.5t84.5 -12.5zM440 910h40l-110 -140h-20z" />
    <glyph glyph-name="oslashacute" unicode="&#x1ff;" horiz-adv-x="570" 
d="M136 44q-38 34 -59.5 87.5t-21.5 123.5q0 62 17 111t47.5 83.5t72.5 52.5t93 18q74 0 131 -40l32 50h27l-41 -64q38 -34 59.5 -87.5t21.5 -123.5q0 -62 -17 -111t-47.5 -83.5t-72.5 -52.5t-93 -18q-74 0 -131 40l-32 -50h-27zM402 459q-23 17 -52.5 26.5t-64.5 9.5
q-53 0 -91.5 -20t-63.5 -53t-37.5 -76.5t-12.5 -90.5q0 -56 17.5 -105.5t52.5 -83.5zM285 15q52 0 91 20t64 53t37.5 76.5t12.5 90.5q0 56 -17.5 105.5t-52.5 83.5l-252 -393q23 -17 52.5 -26.5t64.5 -9.5zM365 730h40l-110 -140h-20z" />
    <glyph glyph-name="Scommaaccent" unicode="&#x218;" horiz-adv-x="590" 
d="M305 -10q-53 0 -96.5 15t-76 40.5t-54 60.5t-28.5 74h25q11 -45 36 -76.5t56.5 -51t67.5 -28.5t70 -9q49 0 88 13t66 35.5t41.5 52.5t14.5 64q0 44 -19 72t-50.5 46t-71.5 29t-81.5 20.5t-81.5 21.5t-71.5 32t-50.5 50.5t-19 78.5q0 37 13.5 70t40.5 57.5t68.5 38.5
t97.5 14q94 0 155 -43.5t80 -126.5h-25q-8 21 -21 46t-37 47t-61 37t-91 15q-91 0 -143 -40t-52 -115q0 -43 19 -70t50.5 -44.5t71.5 -27.5t81.5 -19.5t81.5 -21.5t71.5 -32.5t50.5 -52.5t19 -82q0 -34 -13.5 -68t-42 -61t-73 -44t-106.5 -17zM280 -85h35l-65 -160h-15z" />
    <glyph glyph-name="scommaaccent" unicode="&#x219;" horiz-adv-x="470" 
d="M240 -10q-79 0 -129.5 40.5t-65.5 104.5h25q6 -19 17.5 -40t32 -39t50 -29.5t70.5 -11.5q72 0 116 29t44 86q0 44 -25 65.5t-63 32.5t-82 17.5t-82 19.5t-63 39t-25 76q0 28 11 53.5t33 44.5t55 30.5t76 11.5q68 0 116.5 -33t63.5 -97h-25q-6 13 -15.5 31t-26.5 34.5
t-44.5 28t-68.5 11.5q-75 0 -112.5 -33t-37.5 -82q0 -32 14.5 -51.5t38.5 -31t54.5 -18.5t62.5 -13t62.5 -14t54.5 -22.5t38.5 -38.5t14.5 -61q0 -60 -45.5 -100t-139.5 -40zM220 -85h35l-65 -160h-15z" />
    <glyph glyph-name="uni021A" unicode="&#x21a;" horiz-adv-x="585" 
d="M280 675h-250v25h525v-25h-250v-675h-25v675zM275 -85h35l-65 -160h-15z" />
    <glyph glyph-name="uni021B" unicode="&#x21b;" horiz-adv-x="330" 
d="M215 0q-45 0 -70 25t-25 70v390h-90v25h90l5 140h20v-140h140v-25h-140v-390q0 -34 20 -52t50 -18h70v-25h-70v0zM180 -85h35l-65 -160h-15z" />
    <glyph glyph-name="uni0232" unicode="&#x232;" horiz-adv-x="555" 
d="M265 270l-250 430h28l232 -400h5l232 400h28l-250 -430v-270h-25v270zM145 850h260v-25h-260v25z" />
    <glyph glyph-name="uni0233" unicode="&#x233;" horiz-adv-x="470" 
d="M228 0l-218 510h26l202 -470h6l189 470h27l-286 -710h-27zM110 670h260v-25h-260v25z" />
    <glyph glyph-name="uni0244" unicode="&#x244;" horiz-adv-x="720" 
d="M360 -10q-56 0 -103 19t-81 55t-52.5 88t-18.5 118v195h-75v25h75v210h25v-210h460v210h25v-210h75v-25h-75v-195q0 -66 -19 -118t-52.5 -88t-80.5 -55t-103 -19zM360 15q51 0 93 17.5t72.5 50t47.5 80t17 107.5v195h-460v-195q0 -60 17 -107.5t47.5 -80t72.5 -50
t93 -17.5z" />
    <glyph glyph-name="uni0259" unicode="&#x259;" horiz-adv-x="560" 
d="M280 -10q-45 0 -86 16.5t-71.5 47.5t-49 75.5t-18.5 100.5v30h425q0 46 -13 88.5t-38.5 75t-63.5 52t-90 19.5q-68 0 -113 -33.5t-69 -86.5h-28q30 72 84 108.5t126 36.5q51 0 93 -18t72.5 -52.5t47.5 -83.5t17 -111t-17 -111t-47 -83.5t-71 -52.5t-90 -18zM280 15
q48 0 84.5 18t61 48.5t38 70t16.5 83.5h-400q0 -48 14.5 -88.5t40.5 -69.5t63 -45.5t82 -16.5z" />
    <glyph glyph-name="uni0289" unicode="&#x289;" horiz-adv-x="580" 
d="M285 -10q-43 0 -78 14.5t-60 41t-38.5 64.5t-13.5 85v195h-70v25h70v95h25v-95h340v95h25v-95h70v-25h-70v-390h-20l-5 95h-5q-23 -49 -66.5 -77t-103.5 -28zM285 15q37 0 69.5 14t55.5 38.5t36.5 57t13.5 70.5v195h-340v-195q0 -38 11 -70.5t32 -57t52 -38.5t70 -14z
" />
    <glyph glyph-name="uni02BC" unicode="&#x2bc;" horiz-adv-x="140" 
d="M75 690h35l-65 -160h-15z" />
    <glyph glyph-name="circumflex" unicode="&#x2c6;" horiz-adv-x="345" 
d="M160 735h25l130 -145h-30l-110 122h-5l-110 -122h-30z" />
    <glyph glyph-name="caron" unicode="&#x2c7;" horiz-adv-x="345" 
d="M30 730h30l110 -122h5l110 122h30l-130 -145h-25z" />
    <glyph glyph-name="breve" unicode="&#x2d8;" horiz-adv-x="310" 
d="M155 605q-53 0 -87 28.5t-38 81.5h25q4 -38 29.5 -61.5t70.5 -23.5t70.5 23.5t29.5 61.5h25q-4 -53 -38 -81.5t-87 -28.5z" />
    <glyph glyph-name="dotaccent" unicode="&#x2d9;" horiz-adv-x="110" 
d="M55 635q-25 0 -25 25t25 25t25 -25t-25 -25z" />
    <glyph glyph-name="ring" unicode="&#x2da;" horiz-adv-x="235" 
d="M117 580q-35 0 -61 24t-26 63q0 40 26 64t61 24q36 0 62 -24t26 -64t-26.5 -63.5t-61.5 -23.5zM117 605q28 0 45.5 16.5t17.5 45.5t-17 46t-46 17q-28 0 -45 -17t-17 -46q0 -28 17 -45t45 -17z" />
    <glyph glyph-name="ogonek" unicode="&#x2db;" horiz-adv-x="190" 
d="M120 -180q-45 0 -67.5 20.5t-22.5 54.5q0 24 8.5 41.5t21.5 29.5t29 20t31 14v10h25v-10q-21 -11 -36.5 -21t-26.5 -21t-16.5 -25t-5.5 -33q0 -30 17 -42.5t43 -12.5h40v-25h-40v0z" />
    <glyph glyph-name="tilde" unicode="&#x2dc;" horiz-adv-x="330" 
d="M235 615q-23 0 -41 10t-34.5 22.5t-32 22.5t-32.5 10q-40 0 -40 -60h-25q0 45 17.5 65t47.5 20q22 0 40.5 -10t35 -22.5t32 -22.5t32.5 -10q40 0 40 60h25q0 -45 -17.5 -65t-47.5 -20z" />
    <glyph glyph-name="hungarumlaut" unicode="&#x2dd;" horiz-adv-x="330" 
d="M120 730h40l-110 -140h-20zM260 730h40l-110 -140h-20z" />
    <glyph glyph-name="acutecomb" unicode="&#x301;" horiz-adv-x="0" 
d="M-270 910h40l-110 -140h-20z" />
    <glyph glyph-name="uni0302" unicode="&#x302;" horiz-adv-x="0" 
d="M-365 915h25l130 -145h-30l-110 122h-5l-110 -122h-30z" />
    <glyph glyph-name="uni0304" unicode="&#x304;" horiz-adv-x="0" 
d="M-480 850h260v-25h-260v25z" />
    <glyph glyph-name="uni0306" unicode="&#x306;" horiz-adv-x="0" 
d="M-350 790q-53 0 -87 28.5t-38 81.5h25q4 -38 29.5 -61.5t70.5 -23.5t70.5 23.5t29.5 61.5h25q-4 -53 -38 -81.5t-87 -28.5z" />
    <glyph glyph-name="uni0307" unicode="&#x307;" horiz-adv-x="0" 
d="M-350 815q-25 0 -25 25t25 25t25 -25t-25 -25z" />
    <glyph glyph-name="uni0308" unicode="&#x308;" horiz-adv-x="0" 
d="M-435 815q-25 0 -25 25t25 25t25 -25t-25 -25zM-275 815q-25 0 -25 25t25 25t25 -25t-25 -25z" />
    <glyph glyph-name="uni030A" unicode="&#x30a;" horiz-adv-x="0" 
d="M-348 750q-35 0 -61 24t-26 63q0 40 26 64t61 24q36 0 62 -24t26 -64t-26.5 -63.5t-61.5 -23.5zM-348 775q28 0 45.5 16.5t17.5 45.5t-17 46t-46 17q-28 0 -45 -17t-17 -46q0 -28 17 -45t45 -17z" />
    <glyph glyph-name="uni030C" unicode="&#x30c;" horiz-adv-x="0" 
d="M-495 910h30l110 -122h5l110 122h30l-130 -145h-25z" />
    <glyph glyph-name="uni0326" unicode="&#x326;" horiz-adv-x="140" 
d="M75 -85h35l-65 -160h-15z" />
    <glyph glyph-name="uni0400" unicode="&#x400;" horiz-adv-x="600" 
d="M100 700h420v-25h-395v-310h375v-25h-375v-315h405v-25h-430v700zM195 910h40l90 -140h-20z" />
    <glyph glyph-name="uni0401" unicode="&#x401;" horiz-adv-x="600" 
d="M100 700h420v-25h-395v-310h375v-25h-375v-315h405v-25h-430v700zM235 815q-25 0 -25 25t25 25t25 -25t-25 -25zM395 815q-25 0 -25 25t25 25t25 -25t-25 -25z" />
    <glyph glyph-name="uni0402" unicode="&#x402;" horiz-adv-x="705" 
d="M205 675h-195v25h410v-25h-190v-300q11 6 28.5 13.5t39.5 14.5t48 12t54 5q113 0 171.5 -53.5t58.5 -151.5q0 -109 -59.5 -162t-165.5 -53h-40v25h40q94 0 147 46t53 144q0 94 -56 137t-154 43q-32 0 -58 -5.5t-47 -13.5t-36 -16t-24 -13v-347h-25v675z" />
    <glyph glyph-name="uni0403" unicode="&#x403;" horiz-adv-x="500" 
d="M100 700h380v-25h-355v-675h-25v700zM370 910h40l-110 -140h-20z" />
    <glyph glyph-name="uni0404" unicode="&#x404;" horiz-adv-x="680" 
d="M360 -10q-66 0 -121 24t-94.5 70t-62 113t-22.5 153t22.5 153t62 113t94.5 70t121 24q98 0 167 -50.5t103 -144.5h-25q-34 83 -96 126.5t-149 43.5q-58 0 -107.5 -21t-86 -62t-58 -100.5t-23.5 -136.5h325v-25h-325q2 -81 23.5 -141.5t58 -101.5t86 -61.5t107.5 -20.5
q87 0 149 43.5t96 126.5h25q-34 -94 -103 -144.5t-167 -50.5z" />
    <glyph glyph-name="uni0405" unicode="&#x405;" horiz-adv-x="590" 
d="M305 -10q-53 0 -96.5 15t-76 40.5t-54 60.5t-28.5 74h25q11 -45 36 -76.5t56.5 -51t67.5 -28.5t70 -9q49 0 88 13t66 35.5t41.5 52.5t14.5 64q0 44 -19 72t-50.5 46t-71.5 29t-81.5 20.5t-81.5 21.5t-71.5 32t-50.5 50.5t-19 78.5q0 37 13.5 70t40.5 57.5t68.5 38.5
t97.5 14q94 0 155 -43.5t80 -126.5h-25q-8 21 -21 46t-37 47t-61 37t-91 15q-91 0 -143 -40t-52 -115q0 -43 19 -70t50.5 -44.5t71.5 -27.5t81.5 -19.5t81.5 -21.5t71.5 -32.5t50.5 -52.5t19 -82q0 -34 -13.5 -68t-42 -61t-73 -44t-106.5 -17z" />
    <glyph glyph-name="uni0406" unicode="&#x406;" horiz-adv-x="225" 
d="M100 700h25v-700h-25v700z" />
    <glyph glyph-name="uni0407" unicode="&#x407;" horiz-adv-x="225" 
d="M100 700h25v-700h-25v700zM35 815q-25 0 -25 25t25 25t25 -25t-25 -25zM195 815q-25 0 -25 25t25 25t25 -25t-25 -25z" />
    <glyph glyph-name="uni0408" unicode="&#x408;" horiz-adv-x="525" 
d="M225 -10q-41 0 -76 12.5t-62 36t-44 57t-23 74.5h25q11 -72 59.5 -113.5t120.5 -41.5q39 0 72 13.5t57 39t37.5 61.5t13.5 81v490h25v-490q0 -51 -15 -91.5t-42 -69t-65 -44t-83 -15.5z" />
    <glyph glyph-name="uni0409" unicode="&#x409;" horiz-adv-x="1025" 
d="M10 20h10q32 0 58 12.5t44 45.5t28 91.5t10 150.5v380h400v-290h195q106 0 160.5 -55.5t54.5 -149.5t-54.5 -149.5t-160.5 -55.5h-220v675h-350v-355q0 -99 -11 -162.5t-32 -99.5t-52 -49.5t-70 -13.5h-10v25zM750 25q94 0 144.5 46.5t50.5 133.5t-50.5 133.5
t-144.5 46.5h-190v-360h190z" />
    <glyph glyph-name="uni040A" unicode="&#x40a;" horiz-adv-x="1045" 
d="M100 700h25v-315h430v315h25v-315h205q98 0 151.5 -52t53.5 -140q0 -89 -53.5 -141t-151.5 -52h-230v360h-430v-360h-25v700zM780 25q91 0 138 45t47 123q0 77 -47 122t-138 45h-200v-335h200z" />
    <glyph glyph-name="uni040B" unicode="&#x40b;" horiz-adv-x="700" 
d="M205 675h-195v25h410v-25h-190v-300q11 6 28.5 13.5t39.5 14.5t48 12t54 5q106 0 160.5 -51.5t54.5 -153.5v-215h-25v215q0 49 -13.5 83t-39 55.5t-61.5 31.5t-81 10q-32 0 -58 -5.5t-47 -13.5t-36 -16t-24 -13v-347h-25v675z" />
    <glyph glyph-name="uni040C" unicode="&#x40c;" horiz-adv-x="545" 
d="M100 700h25v-335l360 335h35l-370 -345l385 -355h-35l-375 345v-345h-25v700zM375 910h40l-110 -140h-20z" />
    <glyph glyph-name="uni040D" unicode="&#x40d;" horiz-adv-x="725" 
d="M100 700h25v-659h5l465 659h30v-700h-25v659h-5l-465 -659h-30v700zM245 910h40l90 -140h-20z" />
    <glyph glyph-name="uni040E" unicode="&#x40e;" horiz-adv-x="530" 
d="M261 215l-246 485h27l228 -450h7l206 450h27l-320 -700h-27zM270 785q-53 0 -87 28.5t-38 81.5h25q4 -38 29.5 -61.5t70.5 -23.5t70.5 23.5t29.5 61.5h25q-4 -53 -38 -81.5t-87 -28.5z" />
    <glyph glyph-name="uni040F" unicode="&#x40f;" horiz-adv-x="700" 
d="M340 0h-240v700h25v-675h450v675h25v-700h-235v-145h-25v145z" />
    <glyph glyph-name="uni0410" unicode="&#x410;" horiz-adv-x="595" 
d="M280 700h35l265 -700h-25l-75 200h-365l-75 -200h-25zM470 225l-170 450h-5l-170 -450h345z" />
    <glyph glyph-name="uni0411" unicode="&#x411;" horiz-adv-x="610" 
d="M100 700h420v-25h-395v-275h215q105 0 160 -55t55 -145t-55 -145t-160 -55h-240v700zM335 25q94 0 144.5 46t50.5 129t-50.5 129t-144.5 46h-210v-350h210z" />
    <glyph glyph-name="uni0412" unicode="&#x412;" horiz-adv-x="640" 
d="M100 700h275q87 0 138.5 -48.5t51.5 -131.5q0 -60 -29 -103t-86 -62q64 -19 94.5 -64t30.5 -106q0 -87 -51.5 -136t-138.5 -49h-285v700zM380 25q45 0 77 13t53 35t30.5 51t9.5 61q0 30 -9.5 58t-30.5 49.5t-53 34.5t-77 13h-255v-315h255zM370 365q83 0 126.5 43.5
t43.5 111.5t-43.5 111.5t-126.5 43.5h-245v-310h245z" />
    <glyph glyph-name="uni0413" unicode="&#x413;" horiz-adv-x="500" 
d="M100 700h380v-25h-355v-675h-25v700z" />
    <glyph glyph-name="uni0414" unicode="&#x414;" horiz-adv-x="670" 
d="M10 25h45q17 13 31.5 35t25.5 56.5t17 84.5t6 119v380h410v-675h85v-170h-25v145h-570v-145h-25v170zM520 25v650h-360v-355q0 -68 -5.5 -116t-14.5 -82t-22 -57t-28 -40h430z" />
    <glyph glyph-name="uni0415" unicode="&#x415;" horiz-adv-x="600" 
d="M100 700h420v-25h-395v-310h375v-25h-375v-315h405v-25h-430v700z" />
    <glyph glyph-name="uni0416" unicode="&#x416;" horiz-adv-x="805" 
d="M365 355l-340 345h35l330 -335v335h25v-335l330 335h35l-340 -345l355 -355h-35l-345 345v-345h-25v345l-345 -345h-35z" />
    <glyph glyph-name="uni0417" unicode="&#x417;" horiz-adv-x="590" 
d="M290 -10q-45 0 -87 13t-75 37.5t-55 61t-28 83.5h25q4 -26 17.5 -56t40 -55.5t66.5 -42t96 -16.5q45 0 83.5 12t66.5 34.5t44 55t16 73.5q0 26 -9 53t-28.5 48.5t-51 35t-76.5 13.5h-95v25h95q39 0 68.5 13.5t48.5 35t28.5 48.5t9.5 53q0 24 -9.5 54t-33 55.5t-63 43
t-99.5 17.5q-53 0 -89 -16t-60 -41t-37 -55t-19 -58h-25q15 91 75.5 143t154.5 52q52 0 94.5 -15t72.5 -41.5t46.5 -62t16.5 -76.5q0 -60 -31 -101t-83 -61q55 -14 89.5 -58.5t34.5 -104.5q0 -41 -15.5 -77.5t-45.5 -63.5t-74 -43t-100 -16z" />
    <glyph glyph-name="uni0418" unicode="&#x418;" horiz-adv-x="725" 
d="M100 700h25v-659h5l465 659h30v-700h-25v659h-5l-465 -659h-30v700z" />
    <glyph glyph-name="uni0419" unicode="&#x419;" horiz-adv-x="725" 
d="M100 700h25v-659h5l465 659h30v-700h-25v659h-5l-465 -659h-30v700zM360 785q-53 0 -87 28.5t-38 81.5h25q4 -38 29.5 -61.5t70.5 -23.5t70.5 23.5t29.5 61.5h25q-4 -53 -38 -81.5t-87 -28.5z" />
    <glyph glyph-name="uni041A" unicode="&#x41a;" horiz-adv-x="545" 
d="M100 700h25v-335l360 335h35l-370 -345l385 -355h-35l-375 345v-345h-25v700z" />
    <glyph glyph-name="uni041B" unicode="&#x41b;" horiz-adv-x="680" 
d="M10 20h10q32 0 58 12.5t44 45.5t28 91.5t10 150.5v380h420v-700h-25v675h-370v-355q0 -99 -11 -162.5t-32 -99.5t-52 -49.5t-70 -13.5h-10v25z" />
    <glyph glyph-name="uni041C" unicode="&#x41c;" horiz-adv-x="835" 
d="M100 700h35l280 -662h5l280 662h35v-700h-25v653h-5l-275 -653h-25l-275 653h-5v-653h-25v700z" />
    <glyph glyph-name="uni041D" unicode="&#x41d;" horiz-adv-x="705" 
d="M100 700h25v-335h455v335h25v-700h-25v340h-455v-340h-25v700z" />
    <glyph glyph-name="uni041E" unicode="&#x41e;" horiz-adv-x="720" 
d="M360 -10q-66 0 -121 24t-94.5 70t-62 113t-22.5 153t22.5 153t62 113t94.5 70t121 24t121 -24t94.5 -70t62 -113t22.5 -153t-22.5 -153t-62 -113t-94.5 -70t-121 -24zM360 15q60 0 110.5 22t87 65t57 105t20.5 143t-20.5 143t-57 105t-87 65t-110.5 22t-110.5 -22
t-87 -65t-57 -105t-20.5 -143t20.5 -143t57 -105t87 -65t110.5 -22z" />
    <glyph glyph-name="uni041F" unicode="&#x41f;" horiz-adv-x="705" 
d="M100 700h505v-700h-25v675h-455v-675h-25v700z" />
    <glyph glyph-name="uni0420" unicode="&#x420;" horiz-adv-x="615" 
d="M100 700h240q106 0 160.5 -56t54.5 -154t-54.5 -154t-160.5 -56h-215v-280h-25v700zM335 305q94 0 144.5 47t50.5 138t-50.5 138t-144.5 47h-210v-370h210z" />
    <glyph glyph-name="uni0421" unicode="&#x421;" horiz-adv-x="680" 
d="M360 -10q-66 0 -121 24t-94.5 70t-62 113t-22.5 153t22.5 153t62 113t94.5 70t121 24q98 0 167 -50.5t103 -144.5h-25q-34 83 -96 126.5t-149 43.5q-60 0 -110.5 -22t-87 -65t-57 -105t-20.5 -143t20.5 -143t57 -105t87 -65t110.5 -22q87 0 149 43.5t96 126.5h25
q-34 -94 -103 -144.5t-167 -50.5z" />
    <glyph glyph-name="uni0422" unicode="&#x422;" horiz-adv-x="585" 
d="M280 675h-250v25h525v-25h-250v-675h-25v675z" />
    <glyph glyph-name="uni0423" unicode="&#x423;" horiz-adv-x="530" 
d="M261 215l-246 485h27l228 -450h7l206 450h27l-320 -700h-27z" />
    <glyph glyph-name="uni0424" unicode="&#x424;" horiz-adv-x="775" 
d="M375 70q-75 0 -135 19t-102.5 56t-65 89.5t-22.5 120.5q0 67 22.5 120t65 90t102.5 56t135 19v70h25v-70q75 0 135 -19t102.5 -56t65 -90t22.5 -120q0 -68 -22.5 -120.5t-65 -89.5t-102.5 -56t-135 -19v-80h-25v80zM375 615q-143 0 -221.5 -67.5t-78.5 -192.5
t78.5 -192.5t221.5 -67.5v520zM400 95q143 0 221.5 67.5t78.5 192.5t-78.5 192.5t-221.5 67.5v-520z" />
    <glyph glyph-name="uni0425" unicode="&#x425;" horiz-adv-x="560" 
d="M265 360l-225 340h28l212 -320l212 320h28l-225 -340l235 -360h-28l-222 340l-222 -340h-28z" />
    <glyph glyph-name="uni0426" unicode="&#x426;" horiz-adv-x="725" 
d="M660 0h-560v700h25v-675h450v675h25v-675h85v-170h-25v145z" />
    <glyph glyph-name="uni0427" unicode="&#x427;" horiz-adv-x="650" 
d="M525 301q-32 -20 -82 -38t-118 -18q-113 0 -176.5 60.5t-63.5 169.5v225h25v-225q0 -94 54.5 -149.5t160.5 -55.5q37 0 67.5 6t55 15t43.5 19.5t34 19.5v370h25v-700h-25v301z" />
    <glyph glyph-name="uni0428" unicode="&#x428;" horiz-adv-x="935" 
d="M100 700h25v-675h330v675h25v-675h330v675h25v-700h-735v700z" />
    <glyph glyph-name="uni0429" unicode="&#x429;" horiz-adv-x="960" 
d="M895 0h-795v700h25v-675h330v675h25v-675h330v675h25v-675h85v-170h-25v145z" />
    <glyph glyph-name="uni042A" unicode="&#x42a;" horiz-adv-x="680" 
d="M170 675h-170v25h195v-290h215q106 0 160.5 -55.5t54.5 -149.5t-54.5 -149.5t-160.5 -55.5h-240v675zM405 25q94 0 144.5 46.5t50.5 133.5t-50.5 133.5t-144.5 46.5h-210v-360h210z" />
    <glyph glyph-name="uni042B" unicode="&#x42b;" horiz-adv-x="790" 
d="M100 700h25v-290h205q106 0 160.5 -55.5t54.5 -149.5t-54.5 -149.5t-160.5 -55.5h-230v700zM325 25q94 0 144.5 46.5t50.5 133.5t-50.5 133.5t-144.5 46.5h-200v-360h200zM665 700h25v-700h-25v700z" />
    <glyph glyph-name="uni042C" unicode="&#x42c;" horiz-adv-x="610" 
d="M100 700h25v-290h215q106 0 160.5 -55.5t54.5 -149.5t-54.5 -149.5t-160.5 -55.5h-240v700zM335 25q94 0 144.5 46.5t50.5 133.5t-50.5 133.5t-144.5 46.5h-210v-360h210z" />
    <glyph glyph-name="uni042D" unicode="&#x42d;" horiz-adv-x="675" 
d="M315 -10q-98 0 -167 50.5t-103 144.5h25q34 -83 96 -126.5t149 -43.5q58 0 107.5 20.5t86 61.5t58 101.5t23.5 141.5h-325v25h325q-2 77 -23.5 136.5t-58 100.5t-86 62t-107.5 21q-87 0 -149 -43.5t-96 -126.5h-25q34 94 103 144.5t167 50.5q66 0 121 -24t94.5 -70
t62 -113t22.5 -153t-22.5 -153t-62 -113t-94.5 -70t-121 -24z" />
    <glyph glyph-name="uni042E" unicode="&#x42e;" horiz-adv-x="905" 
d="M560 -10q-60 0 -111.5 22.5t-89.5 66.5t-60 109.5t-24 151.5h-150v-340h-25v700h25v-335h150q2 82 24 146.5t60 108.5t89.5 67t111.5 23q62 0 114 -24t90 -70t59.5 -113t21.5 -153t-21.5 -153t-59.5 -113t-90 -70t-114 -24zM560 15q56 0 104 22t82.5 65t54 105t19.5 143
t-19.5 143t-54 105t-82.5 65t-104 22t-104 -22t-82.5 -65t-54 -105t-19.5 -143t19.5 -143t54 -105t82.5 -65t104 -22z" />
    <glyph glyph-name="uni042F" unicode="&#x42f;" horiz-adv-x="615" 
d="M295 300h-20q-106 0 -160.5 53t-54.5 147t54.5 147t160.5 53h240v-700h-25v300h-163l-235 -300h-32zM490 325v350h-210q-94 0 -144.5 -44t-50.5 -131t50.5 -131t144.5 -44h210z" />
    <glyph glyph-name="uni0430" unicode="&#x430;" horiz-adv-x="515" 
d="M225 -10q-83 0 -129 41t-46 109q0 64 43.5 104.5t126.5 40.5h190v50q0 83 -43 121.5t-122 38.5q-34 0 -59 -8t-43 -23.5t-31 -38t-22 -50.5h-25q15 68 61.5 106.5t118.5 38.5q94 0 142 -50.5t48 -134.5v-335h-20l-5 95h-5q-9 -21 -25 -40t-38.5 -33.5t-51.5 -23t-65 -8.5
zM225 15q39 0 73 13t59 37t39 59.5t14 80.5v55h-190q-38 0 -65 -9.5t-45 -26t-26.5 -38.5t-8.5 -46q0 -30 11.5 -53.5t31.5 -39t47.5 -24t59.5 -8.5z" />
    <glyph glyph-name="uni0431" unicode="&#x431;" horiz-adv-x="565" 
d="M285 -10q-106 0 -165.5 74t-59.5 206q0 111 14.5 188.5t45 127t77.5 72t113 22.5q53 0 96.5 10t73.5 25v-25q-26 -15 -74.5 -25t-105.5 -10q-53 0 -91 -18t-63.5 -56t-40 -96.5t-20.5 -139.5h5q9 26 26.5 50.5t42 43t55 30t66.5 11.5q49 0 91 -16.5t73 -48t48.5 -77
t17.5 -103.5q0 -56 -17 -101.5t-47 -77.5t-71 -49t-90 -17zM285 15q47 0 84 17.5t63 47.5t39.5 70t13.5 85t-13.5 85t-39.5 70t-63 47.5t-84 17.5t-83.5 -18t-61 -48.5t-37.5 -70.5t-13 -83t13 -83t37.5 -70.5t61 -48.5t83.5 -18z" />
    <glyph glyph-name="uni0432" unicode="&#x432;" horiz-adv-x="510" 
d="M85 510h205q79 0 117 -36.5t38 -93.5q0 -38 -22.5 -71t-67.5 -46q49 -14 74.5 -46t25.5 -77q0 -60 -41 -100t-124 -40h-205v510zM290 25q68 0 104 31t36 84t-36 81.5t-104 28.5h-180v-225h180zM290 275q68 0 99 30t31 75q0 49 -33 77t-97 28h-180v-210h180z" />
    <glyph glyph-name="uni0433" unicode="&#x433;" horiz-adv-x="425" 
d="M85 510h320v-25h-295v-485h-25v510z" />
    <glyph glyph-name="uni0434" unicode="&#x434;" horiz-adv-x="535" 
d="M10 25h40q18 15 32 46q12 26 22.5 71.5t10.5 117.5v250h325v-485h65v-145h-25v120h-445v-120h-25v145zM415 25v460h-275v-225q0 -70 -9.5 -115t-20.5 -72q-13 -32 -30 -48h335z" />
    <glyph glyph-name="uni0435" unicode="&#x435;" horiz-adv-x="555" 
d="M285 -10q-51 0 -93 18t-72.5 52.5t-47.5 83.5t-17 111t17 111t47 83.5t71 52.5t90 18q45 0 86 -16.5t71.5 -47.5t49 -75.5t18.5 -100.5v-30h-425q0 -46 13 -88.5t38.5 -75t63.5 -52t90 -19.5q68 0 113 33.5t69 86.5h28q-30 -72 -84 -108.5t-126 -36.5zM480 275
q0 48 -14.5 88.5t-40.5 69.5t-63 45.5t-82 16.5q-48 0 -84.5 -18t-61 -48.5t-38 -70.5t-16.5 -83h400z" />
    <glyph glyph-name="uni0436" unicode="&#x436;" horiz-adv-x="625" 
d="M275 260l-260 250h35l250 -240v240h25v-240l250 240h35l-260 -250l275 -260h-35l-265 250v-250h-25v250l-265 -250h-35z" />
    <glyph glyph-name="uni0437" unicode="&#x437;" horiz-adv-x="470" 
d="M235 -10q-43 0 -77 11.5t-58 31t-39 46t-21 56.5h25q11 -53 54.5 -86.5t115.5 -33.5q75 0 115 31.5t40 88.5q0 21 -7.5 41.5t-23 37t-39 26.5t-55.5 10h-95v25h95q28 0 49.5 8.5t36 22.5t22 32t7.5 37q0 24 -8.5 46t-26.5 38.5t-45.5 26t-64.5 9.5q-68 0 -106.5 -30
t-53.5 -90h-25q11 68 58.5 106.5t126.5 38.5t124.5 -40.5t45.5 -104.5q0 -22 -7.5 -41t-20.5 -33t-29 -24t-33 -14q49 -14 74.5 -50t25.5 -78q0 -64 -46.5 -104.5t-133.5 -40.5z" />
    <glyph glyph-name="uni0438" unicode="&#x438;" horiz-adv-x="570" 
d="M85 510h25v-477h5l335 477h35v-510h-25v477h-5l-335 -477h-35v510z" />
    <glyph glyph-name="uni0439" unicode="&#x439;" horiz-adv-x="570" 
d="M85 510h25v-477h5l335 477h35v-510h-25v477h-5l-335 -477h-35v510zM285 610q-49 0 -80 28t-35 77h25q4 -42 30 -61t60 -19t60 19t30 61h25q-4 -49 -35 -77t-80 -28z" />
    <glyph glyph-name="uni043A" unicode="&#x43a;" horiz-adv-x="440" 
d="M85 510h25v-240l280 240h35l-290 -250l305 -260h-35l-295 250v-250h-25v510z" />
    <glyph glyph-name="uni043B" unicode="&#x43b;" horiz-adv-x="545" 
d="M10 20h10q22 0 42 11t35 41t24 82.5t9 135.5v220h330v-510h-25v485h-280v-195q0 -88 -10 -145t-27.5 -90.5t-42.5 -46.5t-55 -13h-10v25z" />
    <glyph glyph-name="uni043C" unicode="&#x43c;" horiz-adv-x="685" 
d="M85 510h35l220 -475h5l220 475h35v-510h-25v465h-5l-215 -465h-25l-215 465h-5v-465h-25v510z" />
    <glyph glyph-name="uni043D" unicode="&#x43d;" horiz-adv-x="560" 
d="M85 510h25v-240h340v240h25v-510h-25v245h-340v-245h-25v510z" />
    <glyph glyph-name="uni043E" unicode="&#x43e;" horiz-adv-x="570" 
d="M285 -10q-51 0 -93 18t-72.5 52.5t-47.5 83.5t-17 111t17 111t47.5 83.5t72.5 52.5t93 18t93 -18t72.5 -52.5t47.5 -83.5t17 -111t-17 -111t-47.5 -83.5t-72.5 -52.5t-93 -18zM285 15q52 0 91 20t64 53t37.5 76.5t12.5 90.5t-12.5 90.5t-37.5 76.5t-64 53t-91 20
q-53 0 -91.5 -20t-63.5 -53t-37.5 -76.5t-12.5 -90.5t12.5 -90.5t37.5 -76.5t63.5 -53t91.5 -20z" />
    <glyph glyph-name="uni043F" unicode="&#x43f;" horiz-adv-x="555" 
d="M85 510h385v-510h-25v485h-335v-485h-25v510z" />
    <glyph glyph-name="uni0440" unicode="&#x440;" horiz-adv-x="585" 
d="M85 510h20l5 -115h5q15 34 36 57.5t46 38.5t52.5 22t55.5 7q51 0 92.5 -18t71 -52.5t45.5 -83.5t16 -111t-16 -111t-45.5 -83.5t-71 -52.5t-92.5 -18q-28 0 -55.5 7t-52.5 22t-46 38.5t-36 57.5h-5v-315h-25v710zM305 15q52 0 90 20t62.5 53t36 76.5t11.5 90.5
t-11.5 90.5t-36 76.5t-62.5 53t-90 20q-49 0 -85.5 -19t-61 -52t-36.5 -76.5t-12 -92.5t12 -92.5t36.5 -76.5t61 -52t85.5 -19z" />
    <glyph glyph-name="uni0441" unicode="&#x441;" horiz-adv-x="540" 
d="M285 -10q-51 0 -93 18t-72.5 52.5t-47.5 83.5t-17 111t17 111t47.5 83.5t72.5 52.5t93 18q72 0 126 -36.5t84 -108.5h-28q-24 53 -69 86.5t-113 33.5q-53 0 -91.5 -20t-63.5 -53t-37.5 -76.5t-12.5 -90.5t12.5 -90.5t37.5 -76.5t63.5 -53t91.5 -20q68 0 113 33.5t69 86.5
h28q-30 -72 -84 -108.5t-126 -36.5z" />
    <glyph glyph-name="uni0442" unicode="&#x442;" horiz-adv-x="445" 
d="M210 485h-190v25h405v-25h-190v-485h-25v485z" />
    <glyph glyph-name="uni0443" unicode="&#x443;" horiz-adv-x="470" 
d="M228 0l-218 510h26l202 -470h6l189 470h27l-286 -710h-27z" />
    <glyph glyph-name="uni0444" unicode="&#x444;" horiz-adv-x="675" 
d="M325 0q-64 0 -115 18t-86.5 51.5t-54.5 80.5t-19 105t19 105t54.5 80.5t86.5 51.5t115 18v210h25v-210q64 0 115 -18t86.5 -51.5t54.5 -80.5t19 -105t-19 -105t-54.5 -80.5t-86.5 -51.5t-115 -18v-200h-25v200zM325 485q-58 0 -104.5 -16.5t-78.5 -46.5t-49.5 -72.5
t-17.5 -94.5q0 -53 17.5 -95.5t49.5 -72.5t78.5 -46t104.5 -16v460zM350 25q58 0 104.5 16t78.5 46t49.5 72.5t17.5 95.5q0 52 -17.5 94.5t-49.5 72.5t-78.5 46.5t-104.5 16.5v-460z" />
    <glyph glyph-name="uni0445" unicode="&#x445;" horiz-adv-x="430" 
d="M201 265l-171 245h30l155 -226l155 226h30l-171 -245l181 -265h-30l-165 246l-165 -246h-30z" />
    <glyph glyph-name="uni0446" unicode="&#x446;" horiz-adv-x="560" 
d="M505 0h-420v510h25v-485h330v485h25v-485h65v-145h-25v120z" />
    <glyph glyph-name="uni0447" unicode="&#x447;" horiz-adv-x="525" 
d="M415 221q-15 -11 -56.5 -26t-98.5 -15q-94 0 -142 43.5t-48 126.5v160h25v-160q0 -75 43 -110t122 -35q49 0 90.5 14t64.5 31v260h25v-510h-25v221z" />
    <glyph glyph-name="uni0448" unicode="&#x448;" horiz-adv-x="795" 
d="M85 510h25v-485h275v485h25v-485h275v485h25v-510h-625v510z" />
    <glyph glyph-name="uni0449" unicode="&#x449;" horiz-adv-x="805" 
d="M750 0h-665v510h25v-485h275v485h25v-485h275v485h25v-485h65v-145h-25v120z" />
    <glyph glyph-name="uni044A" unicode="&#x44a;" horiz-adv-x="550" 
d="M145 485h-135v25h160v-200h170q41 0 72 -11.5t51.5 -32t31 -49t10.5 -62.5t-10.5 -62.5t-31 -49t-51.5 -32t-72 -11.5h-195v485zM335 25q72 0 108.5 35t36.5 95t-36.5 95t-108.5 35h-165v-260h165z" />
    <glyph glyph-name="uni044B" unicode="&#x44b;" horiz-adv-x="635" 
d="M85 510h25v-200h160q41 0 72 -11.5t51.5 -32t31 -49t10.5 -62.5t-10.5 -62.5t-31 -49t-51.5 -32t-72 -11.5h-185v510zM265 25q72 0 108.5 35t36.5 95t-36.5 95t-108.5 35h-155v-260h155zM525 510h25v-510h-25v510z" />
    <glyph glyph-name="uni044C" unicode="&#x44c;" horiz-adv-x="490" 
d="M85 510h25v-200h170q41 0 72 -11.5t51.5 -32t31 -49t10.5 -62.5t-10.5 -62.5t-31 -49t-51.5 -32t-72 -11.5h-195v510zM275 25q72 0 108.5 35t36.5 95t-36.5 95t-108.5 35h-165v-260h165z" />
    <glyph glyph-name="uni044D" unicode="&#x44d;" horiz-adv-x="535" 
d="M250 -10q-72 0 -126 36.5t-84 108.5h28q24 -53 69 -86.5t113 -33.5q51 0 89 19t63 50.5t38 73.5t15 87h-240v25h239q-2 45 -15 85.5t-38.5 71.5t-63 49.5t-87.5 18.5q-68 0 -113 -33.5t-69 -86.5h-28q30 72 84 108.5t126 36.5q51 0 93 -18t72.5 -52.5t47.5 -83.5t17 -111
t-17 -111t-47.5 -83.5t-72.5 -52.5t-93 -18z" />
    <glyph glyph-name="uni044E" unicode="&#x44e;" horiz-adv-x="705" 
d="M430 -10q-45 0 -83.5 17t-67 49.5t-45.5 80t-19 108.5h-105v-245h-25v510h25v-240h105q2 58 19 104.5t45.5 78.5t67 49.5t83.5 17.5q49 0 89.5 -18t69.5 -52.5t45 -83.5t16 -111t-16 -111t-45 -83.5t-69.5 -52.5t-89.5 -18zM430 15q51 0 87.5 20t60.5 53t35.5 76.5
t11.5 90.5t-11.5 90.5t-35.5 76.5t-60.5 53t-87.5 20q-47 0 -82.5 -19t-59.5 -52t-36 -76.5t-12 -92.5t12 -92.5t36 -76.5t59.5 -52t82.5 -19z" />
    <glyph glyph-name="uni044F" unicode="&#x44f;" horiz-adv-x="495" 
d="M220 215q-79 0 -124.5 37t-45.5 112q0 64 41 105t124 41h195v-510h-25v215h-135l-170 -215h-30zM385 240v245h-170q-72 0 -106 -32t-34 -89q0 -60 34 -92t106 -32h170z" />
    <glyph glyph-name="uni0450" unicode="&#x450;" horiz-adv-x="555" 
d="M285 -10q-51 0 -93 18t-72.5 52.5t-47.5 83.5t-17 111t17 111t47 83.5t71 52.5t90 18q45 0 86 -16.5t71.5 -47.5t49 -75.5t18.5 -100.5v-30h-425q0 -46 13 -88.5t38.5 -75t63.5 -52t90 -19.5q68 0 113 33.5t69 86.5h28q-30 -72 -84 -108.5t-126 -36.5zM480 275
q0 48 -14.5 88.5t-40.5 69.5t-63 45.5t-82 16.5q-48 0 -84.5 -18t-61 -48.5t-38 -70.5t-16.5 -83h400zM160 730h40l90 -140h-20z" />
    <glyph glyph-name="uni0451" unicode="&#x451;" horiz-adv-x="555" 
d="M285 -10q-51 0 -93 18t-72.5 52.5t-47.5 83.5t-17 111t17 111t47 83.5t71 52.5t90 18q45 0 86 -16.5t71.5 -47.5t49 -75.5t18.5 -100.5v-30h-425q0 -46 13 -88.5t38.5 -75t63.5 -52t90 -19.5q68 0 113 33.5t69 86.5h28q-30 -72 -84 -108.5t-126 -36.5zM480 275
q0 48 -14.5 88.5t-40.5 69.5t-63 45.5t-82 16.5q-48 0 -84.5 -18t-61 -48.5t-38 -70.5t-16.5 -83h400zM200 635q-25 0 -25 25t25 25t25 -25t-25 -25zM360 635q-25 0 -25 25t25 25t25 -25t-25 -25z" />
    <glyph glyph-name="uni0452" unicode="&#x452;" horiz-adv-x="555" 
d="M300 -175h60q42 0 66 24t24 66v330q0 37 -11 70t-32 57.5t-52 38.5t-70 14q-38 0 -70 -14t-55 -38.5t-36.5 -57.5t-13.5 -70v-245h-25v575h-75v25h75v100h25v-100h170v-25h-170v-230h5q23 49 66.5 77t103.5 28q43 0 78 -14.5t60 -41t38.5 -64.5t13.5 -85v-330
q0 -53 -31 -84t-84 -31h-60v25z" />
    <glyph glyph-name="uni0453" unicode="&#x453;" horiz-adv-x="425" 
d="M85 510h320v-25h-295v-485h-25v510zM325 730h40l-110 -140h-20z" />
    <glyph glyph-name="uni0454" unicode="&#x454;" horiz-adv-x="540" 
d="M285 -10q-51 0 -93 18t-72.5 52.5t-47.5 83.5t-17 111t17 111t47.5 83.5t72.5 52.5t93 18q72 0 126 -36.5t84 -108.5h-28q-24 53 -69 86.5t-113 33.5q-50 0 -87.5 -18.5t-63 -49.5t-38.5 -71.5t-15 -85.5h239v-25h-240q1 -45 14.5 -87t38.5 -73.5t63 -50.5t89 -19
q68 0 113 33.5t69 86.5h28q-30 -72 -84 -108.5t-126 -36.5z" />
    <glyph glyph-name="uni0455" unicode="&#x455;" horiz-adv-x="470" 
d="M240 -10q-79 0 -129.5 40.5t-65.5 104.5h25q6 -19 17.5 -40t32 -39t50 -29.5t70.5 -11.5q72 0 116 29t44 86q0 44 -25 65.5t-63 32.5t-82 17.5t-82 19.5t-63 39t-25 76q0 28 11 53.5t33 44.5t55 30.5t76 11.5q68 0 116.5 -33t63.5 -97h-25q-6 13 -15.5 31t-26.5 34.5
t-44.5 28t-68.5 11.5q-75 0 -112.5 -33t-37.5 -82q0 -32 14.5 -51.5t38.5 -31t54.5 -18.5t62.5 -13t62.5 -14t54.5 -22.5t38.5 -38.5t14.5 -61q0 -60 -45.5 -100t-139.5 -40z" />
    <glyph glyph-name="uni0456" unicode="&#x456;" horiz-adv-x="195" 
d="M85 510h25v-510h-25v510zM100 625q-25 0 -25 25t25 25t25 -25t-25 -25z" />
    <glyph glyph-name="uni0457" unicode="&#x457;" horiz-adv-x="195" 
d="M85 510h25v-510h-25v510zM20 635q-25 0 -25 25t25 25t25 -25t-25 -25zM180 635q-25 0 -25 25t25 25t25 -25t-25 -25z" />
    <glyph glyph-name="uni0458" unicode="&#x458;" horiz-adv-x="195" 
d="M-55 -175h70q30 0 50 18t20 52v615h25v-615q0 -45 -25 -70t-70 -25h-70v25zM100 625q-25 0 -25 25t25 25t25 -25t-25 -25z" />
    <glyph glyph-name="uni0459" unicode="&#x459;" horiz-adv-x="810" 
d="M10 20h10q22 0 42 11t35 41t24 82.5t9 135.5v220h315v-200h155q41 0 72 -11.5t51.5 -32t31 -49t10.5 -62.5t-10.5 -62.5t-31 -49t-51.5 -32t-72 -11.5h-180v485h-265v-195q0 -88 -10 -145t-27.5 -90.5t-42.5 -46.5t-55 -13h-10v25zM595 25q72 0 108.5 35t36.5 95
t-36.5 95t-108.5 35h-150v-260h150z" />
    <glyph glyph-name="uni045A" unicode="&#x45a;" horiz-adv-x="825" 
d="M85 510h25v-220h325v220h25v-220h165q72 0 113.5 -40.5t41.5 -104.5t-41.5 -104.5t-113.5 -40.5h-190v265h-325v-265h-25v510zM620 25q64 0 99.5 31.5t35.5 88.5t-35.5 88.5t-99.5 31.5h-160v-240h160z" />
    <glyph glyph-name="uni045B" unicode="&#x45b;" horiz-adv-x="555" 
d="M85 575h-75v25h75v100h25v-100h170v-25h-170v-230h5q23 49 66.5 77t103.5 28q43 0 78 -14.5t60 -41t38.5 -64.5t13.5 -85v-245h-25v245q0 37 -11 70t-32 57.5t-52 38.5t-70 14q-38 0 -70 -14t-55 -38.5t-36.5 -57.5t-13.5 -70v-245h-25v575z" />
    <glyph glyph-name="uni045C" unicode="&#x45c;" horiz-adv-x="440" 
d="M85 510h25v-240l280 240h35l-290 -250l305 -260h-35l-295 250v-250h-25v510zM330 730h40l-110 -140h-20z" />
    <glyph glyph-name="uni045D" unicode="&#x45d;" horiz-adv-x="570" 
d="M85 510h25v-477h5l335 477h35v-510h-25v477h-5l-335 -477h-35v510zM170 730h40l90 -140h-20z" />
    <glyph glyph-name="uni045E" unicode="&#x45e;" horiz-adv-x="470" 
d="M228 0l-218 510h26l202 -470h6l189 470h27l-286 -710h-27zM240 610q-49 0 -80 28t-35 77h25q4 -42 30 -61t60 -19t60 19t30 61h25q-4 -49 -35 -77t-80 -28z" />
    <glyph glyph-name="uni045F" unicode="&#x45f;" horiz-adv-x="555" 
d="M265 0h-180v510h25v-485h335v485h25v-510h-180v-120h-25v120z" />
    <glyph glyph-name="uni0490" unicode="&#x490;" horiz-adv-x="500" 
d="M100 700h355v140h25v-165h-355v-675h-25v700z" />
    <glyph glyph-name="uni0491" unicode="&#x491;" horiz-adv-x="425" 
d="M85 510h295v120h25v-145h-295v-485h-25v510z" />
    <glyph glyph-name="uni0492" unicode="&#x492;" horiz-adv-x="560" 
d="M130 330h-100v25h100v345h410v-25h-385v-320h240v-25h-240v-330h-25v330z" />
    <glyph glyph-name="uni0493" unicode="&#x493;" horiz-adv-x="430" 
d="M110 245h-85v25h85v240h300v-25h-275v-215h205v-25h-205v-245h-25v245z" />
    <glyph glyph-name="uni0494" unicode="&#x494;" horiz-adv-x="605" 
d="M320 -95q106 0 163 58t57 167q0 52 -17 93t-46.5 69.5t-69.5 43t-87 14.5q-48 0 -83.5 -11t-60.5 -24q-29 -16 -51 -35v-280h-25v700h410v-25h-385v-365l13 10.5t37.5 22.5t61 22t83.5 10q52 0 97 -16.5t78 -48t51.5 -77t18.5 -103.5q0 -121 -64 -185.5t-181 -64.5v25z
" />
    <glyph glyph-name="uni0495" unicode="&#x495;" horiz-adv-x="485" 
d="M265 -175q32 0 61 14.5t51 41.5t35 66t13 88q0 105 -47.5 157.5t-122.5 52.5q-32 0 -58 -8.5t-46 -19.5q-23 -12 -41 -27v-190h-25v510h300v-25h-275v-265q18 14 41 25q20 9 47.5 17t61.5 8q42 0 76.5 -15t60 -44.5t39.5 -73.5t14 -102q0 -56 -15 -100t-40 -74t-59 -45.5
t-71 -15.5v25z" />
    <glyph glyph-name="uni0496" unicode="&#x496;" horiz-adv-x="820" 
d="M795 0h-35l-345 345v-345h-25v345l-345 -345h-35l355 355l-340 345h35l330 -335v335h25v-335l330 335h35l-340 -345l330 -330h50v-170h-25v145z" />
    <glyph glyph-name="uni0497" unicode="&#x497;" horiz-adv-x="635" 
d="M620 0h-30l-265 250v-250h-25v250l-265 -250h-35l275 260l-260 250h35l250 -240v240h25v-240l250 240h35l-260 -250l248 -235h47v-145h-25v120z" />
    <glyph glyph-name="uni049A" unicode="&#x49a;" horiz-adv-x="560" 
d="M535 0h-35l-375 345v-345h-25v700h25v-335l360 335h35l-370 -345l358 -330h52v-170h-25v145z" />
    <glyph glyph-name="uni049B" unicode="&#x49b;" horiz-adv-x="450" 
d="M435 0h-30l-295 250v-250h-25v510h25v-240l280 240h35l-290 -250l275 -235h50v-145h-25v120z" />
    <glyph glyph-name="uni049C" unicode="&#x49c;" horiz-adv-x="600" 
d="M100 700h25v-335h100v145h25v-145h68l225 335h32l-235 -345l250 -355h-32l-240 340h-68v-145h-25v145h-100v-340h-25v700z" />
    <glyph glyph-name="uni049D" unicode="&#x49d;" horiz-adv-x="485" 
d="M85 510h25v-240h80v120h25v-120h57l163 240h30l-170 -250l180 -260h-30l-170 245h-60v-105h-25v105h-80v-245h-25v510z" />
    <glyph glyph-name="uni04A2" unicode="&#x4a2;" horiz-adv-x="730" 
d="M665 0h-85v340h-455v-340h-25v700h25v-335h455v335h25v-675h85v-170h-25v145z" />
    <glyph glyph-name="uni04A3" unicode="&#x4a3;" horiz-adv-x="570" 
d="M515 0h-65v245h-340v-245h-25v510h25v-240h340v240h25v-485h65v-145h-25v120z" />
    <glyph glyph-name="uni04AA" unicode="&#x4aa;" horiz-adv-x="680" 
d="M350 -10q-64 2 -117 26.5t-91.5 70.5t-60 112t-21.5 151q0 86 22.5 153t62 113t94.5 70t121 24q98 0 167 -50.5t103 -144.5h-25q-34 83 -96 126.5t-149 43.5q-60 0 -110.5 -22t-87 -65t-57 -105t-20.5 -143t20.5 -143t57 -105t87 -65t110.5 -22q87 0 149 43.5t96 126.5
h25q-32 -91 -97.5 -140.5t-157.5 -53.5v-131h-25v130z" />
    <glyph glyph-name="uni04AB" unicode="&#x4ab;" horiz-adv-x="540" 
d="M275 -10q-49 2 -89.5 21t-69.5 53t-45 82.5t-16 108.5q0 62 17 111t47.5 83.5t72.5 52.5t93 18q72 0 126 -36.5t84 -108.5h-28q-24 53 -69 86.5t-113 33.5q-53 0 -91.5 -20t-63.5 -53t-37.5 -76.5t-12.5 -90.5t12.5 -90.5t37.5 -76.5t63.5 -53t91.5 -20q68 0 113 33.5
t69 86.5h28q-29 -68 -79 -104t-116 -40v-111h-25v110z" />
    <glyph glyph-name="uni04AE" unicode="&#x4ae;" horiz-adv-x="555" 
d="M265 270l-250 430h28l232 -400h5l232 400h28l-250 -430v-270h-25v270z" />
    <glyph glyph-name="uni04AF" unicode="&#x4af;" horiz-adv-x="465" 
d="M220 0h-10l-200 510h27l193 -490h5l193 490h27l-200 -510h-10v-200h-25v200z" />
    <glyph glyph-name="uni04B0" unicode="&#x4b0;" horiz-adv-x="555" 
d="M265 270h-160v25h145l-235 405h28l232 -400h5l232 400h28l-236 -405h146v-25h-160v-270h-25v270z" />
    <glyph glyph-name="uni04B1" unicode="&#x4b1;" horiz-adv-x="465" 
d="M220 0h-120v25h100l-190 485h27l193 -490h5l193 490h27l-190 -485h100v-25h-120v-200h-25v200z" />
    <glyph glyph-name="uni04B2" unicode="&#x4b2;" horiz-adv-x="560" 
d="M535 0h-33l-222 340l-222 -340h-28l235 360l-225 340h28l212 -320l212 320h28l-225 -340l218 -335h47v-170h-25v145z" />
    <glyph glyph-name="uni04B3" unicode="&#x4b3;" horiz-adv-x="425" 
d="M410 0h-30l-165 246l-165 -246h-30l181 265l-171 245h30l155 -226l155 226h30l-171 -245l164 -240h42v-145h-25v120z" />
    <glyph glyph-name="uni04B6" unicode="&#x4b6;" horiz-adv-x="675" 
d="M610 0h-85v301q-32 -20 -82 -38t-118 -18q-113 0 -176.5 60.5t-63.5 169.5v225h25v-225q0 -94 54.5 -149.5t160.5 -55.5q37 0 67.5 6t55 15t43.5 19.5t34 19.5v370h25v-675h85v-170h-25v145z" />
    <glyph glyph-name="uni04B7" unicode="&#x4b7;" horiz-adv-x="535" 
d="M480 0h-65v221q-15 -11 -56.5 -26t-98.5 -15q-94 0 -142 43.5t-48 126.5v160h25v-160q0 -75 43 -110t122 -35q49 0 90.5 14t64.5 31v260h25v-485h65v-145h-25v120z" />
    <glyph glyph-name="uni04B8" unicode="&#x4b8;" horiz-adv-x="650" 
d="M525 301q-31 -20 -80 -37.5t-115 -18.5v-110h-25v110q-104 6 -162 65.5t-58 164.5v225h25v-225q0 -90 49.5 -144.5t145.5 -60.5v180h25v-180q36 0 65.5 6t53.5 15t42.5 19.5t33.5 19.5v370h25v-700h-25v301z" />
    <glyph glyph-name="uni04B9" unicode="&#x4b9;" horiz-adv-x="525" 
d="M415 221q-14 -11 -53 -25t-92 -16v-85h-25v85q-88 4 -131.5 47t-43.5 123v160h25v-160q0 -72 39 -107t111 -38v120h25v-120q46 2 84.5 15t60.5 30v260h25v-510h-25v221z" />
    <glyph glyph-name="uni04BA" unicode="&#x4ba;" horiz-adv-x="645" 
d="M100 700h25v-301q32 20 82 38t118 18q113 0 176.5 -60.5t63.5 -169.5v-225h-25v225q0 94 -54.5 149.5t-160.5 55.5q-38 0 -68 -6t-54.5 -15t-43.5 -19.5t-34 -19.5v-370h-25v700z" />
    <glyph glyph-name="uni04BB" unicode="&#x4bb;" horiz-adv-x="560" 
d="M90 700h25v-285h5q23 49 66.5 77t103.5 28q43 0 78 -14.5t60 -41t38.5 -64.5t13.5 -85v-315h-25v315q0 37 -11 70t-32 57.5t-52 38.5t-70 14q-38 0 -70 -14t-55 -38.5t-36.5 -57.5t-13.5 -70v-315h-25v700z" />
    <glyph glyph-name="uni04C1" unicode="&#x4c1;" horiz-adv-x="805" 
d="M365 355l-340 345h35l330 -335v335h25v-335l330 335h35l-340 -345l355 -355h-35l-345 345v-345h-25v345l-345 -345h-35zM405 785q-53 0 -87 28.5t-38 81.5h25q4 -38 29.5 -61.5t70.5 -23.5t70.5 23.5t29.5 61.5h25q-4 -53 -38 -81.5t-87 -28.5z" />
    <glyph glyph-name="uni04C2" unicode="&#x4c2;" horiz-adv-x="625" 
d="M275 260l-260 250h35l250 -240v240h25v-240l250 240h35l-260 -250l275 -260h-35l-265 250v-250h-25v250l-265 -250h-35zM315 610q-49 0 -80 28t-35 77h25q4 -42 30 -61t60 -19t60 19t30 61h25q-4 -49 -35 -77t-80 -28z" />
    <glyph glyph-name="uni04D2" unicode="&#x4d2;" horiz-adv-x="595" 
d="M280 700h35l265 -700h-25l-75 200h-365l-75 -200h-25zM470 225l-170 450h-5l-170 -450h345zM220 815q-25 0 -25 25t25 25t25 -25t-25 -25zM380 815q-25 0 -25 25t25 25t25 -25t-25 -25z" />
    <glyph glyph-name="uni04D3" unicode="&#x4d3;" horiz-adv-x="515" 
d="M225 -10q-83 0 -129 41t-46 109q0 64 43.5 104.5t126.5 40.5h190v50q0 83 -43 121.5t-122 38.5q-34 0 -59 -8t-43 -23.5t-31 -38t-22 -50.5h-25q15 68 61.5 106.5t118.5 38.5q94 0 142 -50.5t48 -134.5v-335h-20l-5 95h-5q-9 -21 -25 -40t-38.5 -33.5t-51.5 -23t-65 -8.5
zM225 15q39 0 73 13t59 37t39 59.5t14 80.5v55h-190q-38 0 -65 -9.5t-45 -26t-26.5 -38.5t-8.5 -46q0 -30 11.5 -53.5t31.5 -39t47.5 -24t59.5 -8.5zM180 635q-25 0 -25 25t25 25t25 -25t-25 -25zM340 635q-25 0 -25 25t25 25t25 -25t-25 -25z" />
    <glyph glyph-name="uni04D8" unicode="&#x4d8;" horiz-adv-x="720" 
d="M360 -10q-68 0 -123 24.5t-94.5 70.5t-61 111.5t-21.5 148.5v15h575q-2 90 -27 152t-64 100.5t-87 55.5t-97 17q-36 0 -72 -9t-69 -29t-60 -52.5t-44 -79.5h-30q38 98 109.5 146.5t165.5 48.5q64 0 118.5 -23t95 -68.5t63.5 -113t23 -155.5t-23 -155.5t-63.5 -113
t-95 -68.5t-118.5 -23zM360 15q60 0 110 22t86 63t56.5 100.5t22.5 134.5h-550q2 -75 22.5 -134.5t56.5 -100.5t86 -63t110 -22z" />
    <glyph glyph-name="uni04D9" unicode="&#x4d9;" horiz-adv-x="560" 
d="M280 -10q-45 0 -86 16.5t-71.5 47.5t-49 75.5t-18.5 100.5v30h425q0 46 -13 88.5t-38.5 75t-63.5 52t-90 19.5q-68 0 -113 -33.5t-69 -86.5h-28q30 72 84 108.5t126 36.5q51 0 93 -18t72.5 -52.5t47.5 -83.5t17 -111t-17 -111t-47 -83.5t-71 -52.5t-90 -18zM280 15
q48 0 84.5 18t61 48.5t38 70t16.5 83.5h-400q0 -48 14.5 -88.5t40.5 -69.5t63 -45.5t82 -16.5z" />
    <glyph glyph-name="uni04E0" unicode="&#x4e0;" horiz-adv-x="585" 
d="M290 -10q-45 0 -87 13t-75 37.5t-55 61t-28 83.5h25q4 -26 17.5 -56t40 -55.5t66.5 -42t96 -16.5q49 0 88 14t66 39t41.5 59t14.5 73t-14.5 73t-41.5 59t-66 39t-88 14h-125v25l307 265h-407v25h445v-25l-305 -260v-5h85q54 0 97.5 -16t74 -44t47 -66.5t16.5 -83.5
t-16.5 -83.5t-47 -66.5t-74 -44t-97.5 -16z" />
    <glyph glyph-name="uni04E1" unicode="&#x4e1;" horiz-adv-x="480" 
d="M245 -200q-49 0 -88 15.5t-66 42.5t-41.5 62.5t-14.5 74.5h25q0 -34 12.5 -64.5t36.5 -54t58.5 -37.5t77.5 -14q37 0 68.5 13.5t54 38.5t35 60t12.5 78t-12.5 77.5t-35 58.5t-54 36.5t-68.5 12.5h-110v25l255 260h-335v25h370v-25l-255 -260h75q43 0 79 -14.5t61.5 -41.5
t40 -66t14.5 -87q0 -49 -14.5 -88.5t-40 -68t-61.5 -44t-79 -15.5z" />
    <glyph glyph-name="uni04E2" unicode="&#x4e2;" horiz-adv-x="725" 
d="M100 700h25v-659h5l465 659h30v-700h-25v659h-5l-465 -659h-30v700zM235 850h260v-25h-260v25z" />
    <glyph glyph-name="uni04E3" unicode="&#x4e3;" horiz-adv-x="570" 
d="M85 510h25v-477h5l335 477h35v-510h-25v477h-5l-335 -477h-35v510zM155 670h260v-25h-260v25z" />
    <glyph glyph-name="uni04E6" unicode="&#x4e6;" horiz-adv-x="720" 
d="M360 -10q-66 0 -121 24t-94.5 70t-62 113t-22.5 153t22.5 153t62 113t94.5 70t121 24t121 -24t94.5 -70t62 -113t22.5 -153t-22.5 -153t-62 -113t-94.5 -70t-121 -24zM360 15q60 0 110.5 22t87 65t57 105t20.5 143t-20.5 143t-57 105t-87 65t-110.5 22t-110.5 -22
t-87 -65t-57 -105t-20.5 -143t20.5 -143t57 -105t87 -65t110.5 -22zM280 815q-25 0 -25 25t25 25t25 -25t-25 -25zM440 815q-25 0 -25 25t25 25t25 -25t-25 -25z" />
    <glyph glyph-name="uni04E7" unicode="&#x4e7;" horiz-adv-x="570" 
d="M285 -10q-51 0 -93 18t-72.5 52.5t-47.5 83.5t-17 111t17 111t47.5 83.5t72.5 52.5t93 18t93 -18t72.5 -52.5t47.5 -83.5t17 -111t-17 -111t-47.5 -83.5t-72.5 -52.5t-93 -18zM285 15q52 0 91 20t64 53t37.5 76.5t12.5 90.5t-12.5 90.5t-37.5 76.5t-64 53t-91 20
q-53 0 -91.5 -20t-63.5 -53t-37.5 -76.5t-12.5 -90.5t12.5 -90.5t37.5 -76.5t63.5 -53t91.5 -20zM205 635q-25 0 -25 25t25 25t25 -25t-25 -25zM365 635q-25 0 -25 25t25 25t25 -25t-25 -25z" />
    <glyph glyph-name="uni04E8" unicode="&#x4e8;" horiz-adv-x="720" 
d="M360 -10q-66 0 -121 24t-94.5 70t-62 113t-22.5 153t22.5 153t62 113t94.5 70t121 24t121 -24t94.5 -70t62 -113t22.5 -153t-22.5 -153t-62 -113t-94.5 -70t-121 -24zM360 15q59 0 108.5 21.5t86 62.5t57.5 102t23 139h-550q1 -78 22 -139t57.5 -102t86.5 -62.5
t109 -21.5zM635 365q-2 77 -23 136.5t-57.5 100.5t-86.5 62t-108 21q-59 0 -108.5 -21t-86 -62t-57.5 -100.5t-23 -136.5h550z" />
    <glyph glyph-name="uni04E9" unicode="&#x4e9;" horiz-adv-x="570" 
d="M285 -10q-51 0 -93 18t-72.5 52.5t-47.5 83.5t-17 111t17 111t47.5 83.5t72.5 52.5t93 18t93 -18t72.5 -52.5t47.5 -83.5t17 -111t-17 -111t-47.5 -83.5t-72.5 -52.5t-93 -18zM285 15q51 0 89 19t63 50.5t38 73.5t15 87h-410q1 -45 14 -87t38.5 -73.5t63.5 -50.5t89 -19z
M489 270q-2 45 -15 85.5t-38.5 71.5t-63 49.5t-87.5 18.5q-51 0 -88.5 -18.5t-63 -49.5t-38.5 -71.5t-15 -85.5h409z" />
    <glyph glyph-name="uni04EE" unicode="&#x4ee;" horiz-adv-x="530" 
d="M261 215l-246 485h27l228 -450h7l206 450h27l-320 -700h-27zM135 850h260v-25h-260v25z" />
    <glyph glyph-name="uni04EF" unicode="&#x4ef;" horiz-adv-x="470" 
d="M228 0l-218 510h26l202 -470h6l189 470h27l-286 -710h-27zM105 670h260v-25h-260v25z" />
    <glyph glyph-name="uni04F0" unicode="&#x4f0;" horiz-adv-x="530" 
d="M261 215l-246 485h27l228 -450h7l206 450h27l-320 -700h-27zM185 815q-25 0 -25 25t25 25t25 -25t-25 -25zM345 815q-25 0 -25 25t25 25t25 -25t-25 -25z" />
    <glyph glyph-name="uni04F1" unicode="&#x4f1;" horiz-adv-x="470" 
d="M228 0l-218 510h26l202 -470h6l189 470h27l-286 -710h-27zM155 635q-25 0 -25 25t25 25t25 -25t-25 -25zM315 635q-25 0 -25 25t25 25t25 -25t-25 -25z" />
    <glyph glyph-name="Wgrave" unicode="&#x1e80;" horiz-adv-x="885" 
d="M25 700h27l183 -665h5l186 665h33l186 -665h5l183 665h27l-193 -700h-39l-183 655h-5l-183 -655h-39zM320 910h40l90 -140h-20z" />
    <glyph glyph-name="wgrave" unicode="&#x1e81;" horiz-adv-x="675" 
d="M15 510h26l137 -475h5l142 475h25l142 -475h5l137 475h26l-150 -510h-31l-139 465h-5l-139 -465h-31zM215 730h40l90 -140h-20z" />
    <glyph glyph-name="Wacute" unicode="&#x1e82;" horiz-adv-x="885" 
d="M25 700h27l183 -665h5l186 665h33l186 -665h5l183 665h27l-193 -700h-39l-183 655h-5l-183 -655h-39zM525 910h40l-110 -140h-20z" />
    <glyph glyph-name="wacute" unicode="&#x1e83;" horiz-adv-x="675" 
d="M15 510h26l137 -475h5l142 475h25l142 -475h5l137 475h26l-150 -510h-31l-139 465h-5l-139 -465h-31zM420 730h40l-110 -140h-20z" />
    <glyph glyph-name="Wdieresis" unicode="&#x1e84;" horiz-adv-x="885" 
d="M25 700h27l183 -665h5l186 665h33l186 -665h5l183 665h27l-193 -700h-39l-183 655h-5l-183 -655h-39zM365 815q-25 0 -25 25t25 25t25 -25t-25 -25zM525 815q-25 0 -25 25t25 25t25 -25t-25 -25z" />
    <glyph glyph-name="wdieresis" unicode="&#x1e85;" horiz-adv-x="675" 
d="M15 510h26l137 -475h5l142 475h25l142 -475h5l137 475h26l-150 -510h-31l-139 465h-5l-139 -465h-31zM260 635q-25 0 -25 25t25 25t25 -25t-25 -25zM420 635q-25 0 -25 25t25 25t25 -25t-25 -25z" />
    <glyph glyph-name="uni1E9E" unicode="&#x1e9e;" horiz-adv-x="665" 
d="M95 505q0 94 48 144.5t142 50.5h290v-20l-237 -280v-5h57q51 0 90 -15.5t65.5 -42.5t40.5 -62.5t14 -74.5q0 -43 -14 -79.5t-40.5 -63.5t-65.5 -42t-90 -15h-95v25h95q47 0 81.5 14.5t57.5 39t34.5 56t11.5 65.5q0 36 -13.5 67t-38 54t-58.5 36t-75 13h-85v35l229 270
h-254q-87 0 -126 -45.5t-39 -124.5v-505h-25v505z" />
    <glyph glyph-name="Ygrave" unicode="&#x1ef2;" horiz-adv-x="555" 
d="M265 270l-250 430h28l232 -400h5l232 400h28l-250 -430v-270h-25v270zM160 910h40l90 -140h-20z" />
    <glyph glyph-name="ygrave" unicode="&#x1ef3;" horiz-adv-x="470" 
d="M228 0l-218 510h26l202 -470h6l189 470h27l-286 -710h-27zM120 730h40l90 -140h-20z" />
    <glyph glyph-name="endash" unicode="&#x2013;" horiz-adv-x="480" 
d="M30 300h420v-25h-420v25z" />
    <glyph glyph-name="emdash" unicode="&#x2014;" horiz-adv-x="695" 
d="M30 300h635v-25h-635v25z" />
    <glyph glyph-name="quoteleft" unicode="&#x2018;" horiz-adv-x="205" 
d="M135 700h15l-45 -200h-35z" />
    <glyph glyph-name="quoteright" unicode="&#x2019;" horiz-adv-x="205" 
d="M115 700h35l-65 -200h-15z" />
    <glyph glyph-name="quotesinglbase" unicode="&#x201a;" horiz-adv-x="195" 
d="M85 100h35l-65 -200h-15z" />
    <glyph glyph-name="quotedblleft" unicode="&#x201c;" horiz-adv-x="329" 
d="M135 700h15l-45 -200h-35zM259 700h15l-45 -200h-35z" />
    <glyph glyph-name="quotedblright" unicode="&#x201d;" horiz-adv-x="329" 
d="M115 700h35l-65 -200h-15zM239 700h35l-65 -200h-15z" />
    <glyph glyph-name="quotedblbase" unicode="&#x201e;" horiz-adv-x="319" 
d="M85 100h35l-65 -200h-15zM209 100h35l-65 -200h-15z" />
    <glyph glyph-name="dagger" unicode="&#x2020;" horiz-adv-x="445" 
d="M210 495h-145v25h145v180h25v-180h145v-25h-145v-495h-25v495z" />
    <glyph glyph-name="daggerdbl" unicode="&#x2021;" horiz-adv-x="445" 
d="M210 180h-145v25h145v290h-145v25h145v180h25v-180h145v-25h-145v-290h145v-25h-145v-180h-25v180z" />
    <glyph glyph-name="bullet" unicode="&#x2022;" horiz-adv-x="340" 
d="M170 215q-23 0 -36.5 14.5t-13.5 35.5t13.5 35.5t36.5 14.5t36.5 -14.5t13.5 -35.5t-13.5 -35.5t-36.5 -14.5z" />
    <glyph glyph-name="ellipsis" unicode="&#x2026;" horiz-adv-x="615" 
d="M98 -5q-14 0 -21 8.5t-7 19.5q0 10 7 18.5t21 8.5q13 0 20 -8.5t7 -18.5q0 -11 -7 -19.5t-20 -8.5zM308 -5q-14 0 -21 8.5t-7 19.5q0 10 7 18.5t21 8.5q13 0 20 -8.5t7 -18.5q0 -11 -7 -19.5t-20 -8.5zM518 -5q-14 0 -21 8.5t-7 19.5q0 10 7 18.5t21 8.5q13 0 20 -8.5
t7 -18.5q0 -11 -7 -19.5t-20 -8.5z" />
    <glyph glyph-name="perthousand" unicode="&#x2030;" horiz-adv-x="1075" 
d="M560 700h30l-435 -700h-30zM520 -10q-34 0 -60 11.5t-44 31.5t-27 47.5t-9 59.5t9 59.5t27 47.5t44 31.5t60 11.5t60 -11.5t44 -31.5t27 -47.5t9 -59.5t-9 -59.5t-27 -47.5t-44 -31.5t-60 -11.5zM520 15q60 0 87.5 36t27.5 89t-27.5 89t-87.5 36t-87.5 -36t-27.5 -89
t27.5 -89t87.5 -36zM880 -10q-34 0 -60 11.5t-44 31.5t-27 47.5t-9 59.5t9 59.5t27 47.5t44 31.5t60 11.5t60 -11.5t44 -31.5t27 -47.5t9 -59.5t-9 -59.5t-27 -47.5t-44 -31.5t-60 -11.5zM880 15q60 0 87.5 36t27.5 89t-27.5 89t-87.5 36t-87.5 -36t-27.5 -89t27.5 -89
t87.5 -36zM195 410q-34 0 -60 11.5t-44 31.5t-27 47.5t-9 59.5t9 59.5t27 47.5t44 31.5t60 11.5t60 -11.5t44 -31.5t27 -47.5t9 -59.5t-9 -59.5t-27 -47.5t-44 -31.5t-60 -11.5zM195 435q60 0 87.5 36t27.5 89t-27.5 89t-87.5 36t-87.5 -36t-27.5 -89t27.5 -89t87.5 -36z
" />
    <glyph glyph-name="guilsinglleft" unicode="&#x2039;" horiz-adv-x="340" 
d="M60 265l200 225h30l-199 -224v-2l199 -224h-30z" />
    <glyph glyph-name="guilsinglright" unicode="&#x203a;" horiz-adv-x="340" 
d="M249 264v2l-199 224h30l200 -225l-200 -225h-30z" />
    <glyph glyph-name="fraction" unicode="&#x2044;" horiz-adv-x="145" 
d="M275 700h30l-435 -700h-30z" />
    <glyph glyph-name="uni2070" unicode="&#x2070;" horiz-adv-x="375" 
d="M188 395q-70 0 -106.5 53.5t-36.5 151.5t36.5 151.5t106.5 53.5t106 -53.5t36 -151.5t-36 -151.5t-106 -53.5zM188 420q24 0 45 10t37 31.5t25.5 55.5t9.5 83t-9.5 83t-25.5 55.5t-37 31.5t-45 10t-45 -10t-37.5 -31.5t-26 -55.5t-9.5 -83t9.5 -83t26 -55.5t37.5 -31.5
t45 -10z" />
    <glyph glyph-name="uni2074" unicode="&#x2074;" horiz-adv-x="335" 
d="M235 490h-215v25l200 285h40v-285h55v-25h-55v-90h-25v90zM235 515v258h-5l-180 -258h185z" />
    <glyph glyph-name="uni2075" unicode="&#x2075;" horiz-adv-x="335" 
d="M165 395q-53 0 -87.5 30.5t-42.5 79.5h25q4 -15 11 -30t19 -27.5t30.5 -20t44.5 -7.5q49 0 79.5 29t30.5 86q0 53 -30 81.5t-75 28.5q-65 0 -95 -60h-30l25 215h210v-25h-190l-18 -150h5q10 15 32.5 30t60.5 15q28 0 52 -10t41 -27.5t27 -42.5t10 -55q0 -64 -37.5 -102
t-97.5 -38z" />
    <glyph glyph-name="uni2076" unicode="&#x2076;" horiz-adv-x="335" 
d="M165 395q-24 0 -47.5 8.5t-42 25.5t-29.5 42t-11 59q0 41 12 71.5t33 63.5l85 135h30l-110 -170h5q8 9 19 17q10 7 25 12.5t36 5.5q28 0 52 -10t41 -27.5t27 -42.5t10 -55q0 -60 -37.5 -97.5t-97.5 -37.5zM165 420q49 0 79.5 28.5t30.5 81.5t-30 81.5t-75 28.5
q-49 0 -79.5 -28.5t-30.5 -81.5t30 -81.5t75 -28.5z" />
    <glyph glyph-name="uni2077" unicode="&#x2077;" horiz-adv-x="305" 
d="M252 775h-222v25h250v-20l-170 -380h-25z" />
    <glyph glyph-name="uni2078" unicode="&#x2078;" horiz-adv-x="350" 
d="M175 395q-26 0 -49.5 7t-41.5 22t-28.5 36.5t-10.5 49.5q0 30 18 59.5t52 40.5q-60 30 -60 90q0 22 9 41.5t25 33.5t38 22t48 8t48 -8t38 -22t25 -33.5t9 -41.5q0 -60 -60 -90q34 -11 52 -40.5t18 -59.5q0 -28 -10.5 -49.5t-28.5 -36.5t-41.5 -22t-49.5 -7zM175 420
q56 0 80.5 26t24.5 62q0 42 -28 64.5t-77 22.5t-77 -22.5t-28 -64.5q0 -36 24.5 -62t80.5 -26zM175 620q42 0 68.5 21.5t26.5 61.5q0 35 -26.5 56t-68.5 21t-68.5 -21t-26.5 -56q0 -40 26.5 -61.5t68.5 -21.5z" />
    <glyph glyph-name="uni2079" unicode="&#x2079;" horiz-adv-x="335" 
d="M250 570h-5q-8 -10 -19 -18q-10 -7 -25.5 -12t-35.5 -5q-28 0 -52 10t-41 27.5t-27 42.5t-10 55q0 60 37.5 97.5t97.5 37.5q24 0 47.5 -8.5t42 -25.5t29.5 -42t11 -59q0 -41 -12 -71.5t-33 -63.5l-85 -135h-30zM165 560q49 0 79.5 28.5t30.5 81.5t-30 81.5t-75 28.5
q-49 0 -79.5 -28.5t-30.5 -81.5t30 -81.5t75 -28.5z" />
    <glyph glyph-name="uni2080" unicode="&#x2080;" horiz-adv-x="375" 
d="M188 -105q-70 0 -106.5 53.5t-36.5 151.5t36.5 151.5t106.5 53.5t106 -53.5t36 -151.5t-36 -151.5t-106 -53.5zM188 -80q24 0 45 10t37 31.5t25.5 55.5t9.5 83t-9.5 83t-25.5 55.5t-37 31.5t-45 10t-45 -10t-37.5 -31.5t-26 -55.5t-9.5 -83t9.5 -83t26 -55.5t37.5 -31.5
t45 -10z" />
    <glyph glyph-name="uni2081" unicode="&#x2081;" horiz-adv-x="215" 
d="M120 205h-90v25h65q25 0 25 25v45h25v-400h-25v305z" />
    <glyph glyph-name="uni2082" unicode="&#x2082;" horiz-adv-x="335" 
d="M40 -75l182 169q21 20 32 40t11 46q0 49 -26.5 74.5t-68.5 25.5q-49 0 -73 -25t-32 -70h-25q8 53 39 86.5t91 33.5t90 -36t30 -89q0 -34 -14 -57t-31 -39l-170 -159h210v-25h-245v25z" />
    <glyph glyph-name="uni2083" unicode="&#x2083;" horiz-adv-x="335" 
d="M165 -105q-53 0 -90 28t-45 77h25q2 -13 9.5 -27t21 -26t33.5 -19.5t46 -7.5q53 0 76.5 26t23.5 64t-24 61.5t-66 23.5h-55v25h65q30 0 52.5 18t22.5 52q0 45 -29 67.5t-71 22.5t-69.5 -23t-35.5 -72h-25q2 24 12 46t27 38.5t40 26t51 9.5q32 0 55.5 -9.5t39 -25t23 -35
t7.5 -40.5q0 -38 -19.5 -60t-45.5 -28q38 -13 54 -40t16 -57q0 -49 -32.5 -82t-92.5 -33z" />
    <glyph glyph-name="uni2084" unicode="&#x2084;" horiz-adv-x="335" 
d="M235 -10h-215v25l200 285h40v-285h55v-25h-55v-90h-25v90zM235 15v258h-5l-180 -258h185z" />
    <glyph glyph-name="uni2085" unicode="&#x2085;" horiz-adv-x="335" 
d="M165 -105q-53 0 -87.5 30.5t-42.5 79.5h25q4 -15 11 -30t19 -27.5t30.5 -20t44.5 -7.5q49 0 79.5 29t30.5 86q0 53 -30 81.5t-75 28.5q-65 0 -95 -60h-30l25 215h210v-25h-190l-18 -150h5q10 15 32.5 30t60.5 15q28 0 52 -10t41 -27.5t27 -42.5t10 -55q0 -64 -37.5 -102
t-97.5 -38z" />
    <glyph glyph-name="uni2086" unicode="&#x2086;" horiz-adv-x="335" 
d="M165 -105q-24 0 -47.5 8.5t-42 25.5t-29.5 42t-11 59q0 41 12 71.5t33 63.5l85 135h30l-110 -170h5q8 9 19 17q10 7 25 12.5t36 5.5q28 0 52 -10t41 -27.5t27 -42.5t10 -55q0 -60 -37.5 -97.5t-97.5 -37.5zM165 -80q49 0 79.5 28.5t30.5 81.5t-30 81.5t-75 28.5
q-49 0 -79.5 -28.5t-30.5 -81.5t30 -81.5t75 -28.5z" />
    <glyph glyph-name="uni2087" unicode="&#x2087;" horiz-adv-x="305" 
d="M252 275h-222v25h250v-20l-170 -380h-25z" />
    <glyph glyph-name="uni2088" unicode="&#x2088;" horiz-adv-x="350" 
d="M175 -105q-26 0 -49.5 7t-41.5 22t-28.5 36.5t-10.5 49.5q0 30 18 59.5t52 40.5q-60 30 -60 90q0 22 9 41.5t25 33.5t38 22t48 8t48 -8t38 -22t25 -33.5t9 -41.5q0 -60 -60 -90q34 -11 52 -40.5t18 -59.5q0 -28 -10.5 -49.5t-28.5 -36.5t-41.5 -22t-49.5 -7zM175 -80
q56 0 80.5 26t24.5 62q0 42 -28 64.5t-77 22.5t-77 -22.5t-28 -64.5q0 -36 24.5 -62t80.5 -26zM175 120q42 0 68.5 21.5t26.5 61.5q0 35 -26.5 56t-68.5 21t-68.5 -21t-26.5 -56q0 -40 26.5 -61.5t68.5 -21.5z" />
    <glyph glyph-name="uni2089" unicode="&#x2089;" horiz-adv-x="335" 
d="M250 70h-5q-8 -10 -19 -18q-10 -7 -25.5 -12t-35.5 -5q-28 0 -52 10t-41 27.5t-27 42.5t-10 55q0 60 37.5 97.5t97.5 37.5q24 0 47.5 -8.5t42 -25.5t29.5 -42t11 -59q0 -41 -12 -71.5t-33 -63.5l-85 -135h-30zM165 60q49 0 79.5 28.5t30.5 81.5t-30 81.5t-75 28.5
q-49 0 -79.5 -28.5t-30.5 -81.5t30 -81.5t75 -28.5z" />
    <glyph glyph-name="uni20A9" unicode="&#x20a9;" horiz-adv-x="885" 
d="M165 260h-150v25h144l-37 150h-107v25h100l-60 240h27l60 -240h223l61 240h33l61 -240h223l60 240h27l-60 -240h100v-25h-107l-37 -150h144v-25h-150l-65 -260h-45l-65 260h-205l-65 -260h-45zM255 30l59 230h-121l57 -230h5zM321 285l38 150h-210l37 -150h135zM538 285
l-38 150h-115l-38 -150h191zM635 30l57 230h-121l59 -230h5zM494 460l-49 195h-5l-49 -195h103zM699 285l37 150h-210l38 -150h135z" />
    <glyph glyph-name="Euro" unicode="&#x20ac;" horiz-adv-x="725" 
d="M410 -10q-55 0 -103 18t-85.5 52.5t-63.5 84.5t-36 115h-92v25h88q-2 16 -3 32t-1 33t1 33t3 32h-88v25h92q10 65 36 115t63.5 84.5t85.5 52.5t103 18q43 0 83.5 -10t75 -31t62 -54t44.5 -80h-25q-17 41 -42.5 69.5t-57 46.5t-67.5 26t-73 8q-50 0 -93 -16t-77.5 -47
t-58.5 -77t-34 -105h348v-25h-352q-2 -16 -3 -32t-1 -33t1 -33t3 -32h352v-25h-348q10 -59 34 -105t58.5 -77t77.5 -47t93 -16q37 0 73 8t67.5 26t57 46.5t42.5 69.5h25q-17 -47 -44.5 -80t-62 -54t-75 -31t-83.5 -10z" />
    <glyph glyph-name="uni20B4" unicode="&#x20b4;" horiz-adv-x="665" 
d="M340 -10q-53 0 -94.5 14t-70.5 37t-44.5 52.5t-15.5 61.5q0 45 14.5 72.5t25.5 42.5h-80v25h515v-25h-400q-8 -6 -16.5 -16t-16 -24.5t-12.5 -32t-5 -37.5q0 -34 16 -61t43 -45.5t63.5 -28.5t77.5 -10q79 0 132 37.5t68 97.5h25q-7 -34 -26 -63t-48.5 -50.5t-67.5 -34
t-83 -12.5zM75 430h400q7 6 16 16t16.5 24.5t12.5 32t5 37.5q0 34 -16 60.5t-43 45.5t-63.5 29t-77.5 10q-79 0 -132 -37.5t-68 -97.5h-25q7 34 26 63t48.5 50.5t67.5 34t83 12.5q52 0 94 -14t71 -37t44.5 -52.5t15.5 -61.5q0 -45 -14.5 -72.5t-25.5 -42.5h80v-25h-515v25z
" />
    <glyph glyph-name="uni20B8" unicode="&#x20b8;" horiz-adv-x="585" 
d="M280 540h-250v25h525v-25h-250v-540h-25v540zM30 700h525v-25h-525v25z" />
    <glyph glyph-name="uni20B9" unicode="&#x20b9;" horiz-adv-x="590" 
d="M215 295h-160v25h210q94 0 142.5 43t52.5 122h-405v25h405q-3 75 -50 120t-145 45h-210v25h495v-25h-170q45 -19 73 -58t32 -107h65v-25h-65q-4 -87 -58.5 -138.5t-156.5 -51.5h-25l225 -295h-30z" />
    <glyph glyph-name="uni20BA" unicode="&#x20ba;" horiz-adv-x="570" 
d="M135 310l-85 -30v25l85 30v130l-85 -30v25l85 30v210h25v-200l180 65v-25l-180 -65v-130l180 65v-25l-180 -65v-295q101 0 167.5 13t106 40t55.5 67.5t16 94.5h25q0 -60 -17.5 -105t-60.5 -75t-114 -45t-178 -15h-25v310z" />
    <glyph glyph-name="uni20BD" unicode="&#x20bd;" horiz-adv-x="630" 
d="M125 180h-95v25h95v105h-95v25h95v365h235q106 0 158 -52t52 -143t-52 -143t-158 -52h-210v-105h250v-25h-250v-180h-25v180zM355 335q94 0 142 43.5t48 126.5t-48 126.5t-142 43.5h-205v-340h205z" />
    <glyph glyph-name="uni20BF" unicode="&#x20bf;" horiz-adv-x="640" 
d="M220 0h-120v700h120v110h25v-110h120v110h25v-110q79 -4 127 -52.5t48 -127.5q0 -60 -28.5 -103t-81.5 -62q60 -20 90 -64.5t30 -105.5q0 -87 -49 -134t-136 -51v-110h-25v110h-120v-110h-25v110zM380 25q45 0 77 13t53 35t30.5 51t9.5 61q0 30 -9.5 58t-30.5 49.5
t-53 34.5t-77 13h-255v-315h255zM370 365q83 0 126.5 43.5t43.5 111.5t-43.5 111.5t-126.5 43.5h-245v-310h245z" />
    <glyph glyph-name="uni2113" unicode="&#x2113;" horiz-adv-x="370" 
d="M220 -10q-57 0 -83.5 35t-26.5 95v133q-13 -7 -28 -12q-13 -5 -29 -9t-33 -6v24q23 4 39.5 9t27.5 10q13 5 23 11v300q0 67 28 98.5t77 31.5q45 0 75 -34t30 -106q0 -102 -47 -182t-138 -125v-143q0 -56 25.5 -80.5t59.5 -24.5q25 0 43 5q10 2 17 5v-25q-7 -3 -17 -5
q-18 -5 -43 -5zM135 290q43 22 73.5 54t49.5 68.5t28 75.5t9 77q0 64 -23.5 92t-56.5 28q-38 0 -59 -26t-21 -79v-290z" />
    <glyph glyph-name="uni2116" unicode="&#x2116;" horiz-adv-x="1085" 
d="M100 700h30l465 -658h5v658h25v-700h-30l-465 658h-5v-658h-25v700zM745 25h270v-25h-270v25zM880 140q-30 0 -56.5 11t-46 31.5t-31 50t-11.5 67.5q0 37 11.5 67t31 50.5t46 31.5t56.5 11t56.5 -11t46 -31.5t31 -50.5t11.5 -67q0 -38 -11.5 -67.5t-31 -50t-46 -31.5
t-56.5 -11zM880 165q53 0 86.5 35.5t33.5 99.5t-33.5 99.5t-86.5 35.5t-86.5 -35.5t-33.5 -99.5t33.5 -99.5t86.5 -35.5z" />
    <glyph glyph-name="uni2117" unicode="&#x2117;" horiz-adv-x="860" 
d="M430 -10q-79 0 -145 26.5t-114 74.5t-74.5 114t-26.5 145t26.5 145t74.5 114t114 74.5t145 26.5t145 -26.5t114 -74.5t74.5 -114t26.5 -145t-26.5 -145t-74.5 -114t-114 -74.5t-145 -26.5zM430 15q69 0 130 23t106.5 66t72 105t26.5 141t-26.5 141t-72 105t-106.5 66
t-130 23t-130 -23t-106.5 -66t-72 -105t-26.5 -141t26.5 -141t72 -105t106.5 -66t130 -23zM320 540h140q53 0 86.5 -29t33.5 -86t-33.5 -86t-86.5 -29h-115v-145h-25v375zM455 335q100 0 100 90t-100 90h-110v-180h110z" />
    <glyph glyph-name="trademark" unicode="&#x2122;" horiz-adv-x="680" 
d="M125 675h-105v25h235v-25h-105v-285h-25v285zM305 700h40l105 -286h5l105 286h40v-310h-25v275h-5l-100 -275h-35l-100 275h-5v-275h-25v310z" />
    <glyph glyph-name="uni2126" unicode="&#x2126;" horiz-adv-x="790" 
d="M90 25h185l-15.5 7.5t-39.5 24t-52 43t-52 64t-40 87.5t-16 114q0 79 24 142.5t68.5 108.5t106 69.5t136.5 24.5t136.5 -24.5t106 -69.5t68.5 -108.5t24 -142.5q0 -64 -16 -114t-40 -87.5t-52 -64t-52 -43t-39.5 -24l-15.5 -7.5h185v-25h-240v25q68 25 122 70
q23 19 45 44.5t39.5 58.5t28 73t10.5 89q0 82 -24.5 143.5t-66.5 101.5t-98.5 60t-120.5 20t-120.5 -20t-98.5 -60t-66.5 -101.5t-24.5 -143.5q0 -49 10.5 -89t27.5 -73t39 -58.5t45 -44.5q54 -45 123 -70v-25h-240v25z" />
    <glyph glyph-name="estimated" unicode="&#x212e;" horiz-adv-x="850" 
d="M440 -20q-83 0 -152.5 28t-120 77t-79 114.5t-28.5 140.5t28.5 140.5t78 114.5t117 77t146.5 28t146.5 -28t117 -77t78 -114.5t28.5 -140.5v-5h-576q-14 0 -14 -15v-197q0 -5 0.5 -12t4 -16t12 -18.5t23.5 -19.5q4 -2 17.5 -10.5t37.5 -17.5t57.5 -16.5t77.5 -7.5
q66 0 115 20.5t83 46.5q39 30 67 68h55q-33 -45 -81 -80q-41 -30 -100.5 -55t-138.5 -25zM636 360q14 0 14 15v185q0 5 -0.5 12t-4 16t-12 18.5t-23.5 19.5q-6 3 -21.5 11.5t-39 16.5t-53.5 14.5t-66 6.5t-66 -6.5t-53.5 -14.5t-39 -16.5t-21.5 -11.5q-15 -10 -23.5 -19.5
t-12 -18.5t-4 -16t-0.5 -12v-185q0 -15 14 -15h412z" />
    <glyph glyph-name="uni2150" unicode="&#x2150;" horiz-adv-x="765" 
d="M540 700h30l-435 -700h-30zM170 605h-90v25h65q25 0 25 25v45h25v-400h-25v305zM667 375h-222v25h250v-20l-170 -380h-25z" />
    <glyph glyph-name="uni2151" unicode="&#x2151;" horiz-adv-x="775" 
d="M540 700h30l-435 -700h-30zM170 605h-90v25h65q25 0 25 25v45h25v-400h-25v305zM645 170h-5q-8 -10 -19 -18q-10 -7 -25.5 -12t-35.5 -5q-28 0 -52 10t-41 27.5t-27 42.5t-10 55q0 60 37.5 97.5t97.5 37.5q24 0 47.5 -8.5t42 -25.5t29.5 -42t11 -59q0 -41 -12 -71.5
t-33 -63.5l-85 -135h-30zM560 160q49 0 79.5 28.5t30.5 81.5t-30 81.5t-75 28.5q-49 0 -79.5 -28.5t-30.5 -81.5t30 -81.5t75 -28.5z" />
    <glyph glyph-name="uni2152" unicode="&#x2152;" horiz-adv-x="990" 
d="M540 700h30l-435 -700h-30zM170 605h-90v25h65q25 0 25 25v45h25v-400h-25v305zM520 305h-90v25h65q25 0 25 25v45h25v-400h-25v305zM768 -5q-70 0 -106.5 53.5t-36.5 151.5t36.5 151.5t106.5 53.5t106 -53.5t36 -151.5t-36 -151.5t-106 -53.5zM768 20q24 0 45 10
t37 31.5t25.5 55.5t9.5 83t-9.5 83t-25.5 55.5t-37 31.5t-45 10t-45 -10t-37.5 -31.5t-26 -55.5t-9.5 -83t9.5 -83t26 -55.5t37.5 -31.5t45 -10z" />
    <glyph glyph-name="onethird" unicode="&#x2153;" horiz-adv-x="770" 
d="M540 700h30l-435 -700h-30zM170 605h-90v25h65q25 0 25 25v45h25v-400h-25v305zM565 -5q-53 0 -90 28t-45 77h25q2 -13 9.5 -27t21 -26t33.5 -19.5t46 -7.5q53 0 76.5 26t23.5 64t-24 61.5t-66 23.5h-55v25h65q30 0 52.5 18t22.5 52q0 45 -29 67.5t-71 22.5t-69.5 -23
t-35.5 -72h-25q2 24 12 46t27 38.5t40 26t51 9.5q32 0 55.5 -9.5t39 -25t23 -35t7.5 -40.5q0 -38 -19.5 -60t-45.5 -28q38 -13 54 -40t16 -57q0 -49 -32.5 -82t-92.5 -33z" />
    <glyph glyph-name="twothirds" unicode="&#x2154;" horiz-adv-x="865" 
d="M635 700h30l-435 -700h-30zM80 325l182 169q21 20 32 40t11 46q0 49 -26.5 74.5t-68.5 25.5q-49 0 -73 -25t-32 -70h-25q8 53 39 86.5t91 33.5t90 -36t30 -89q0 -34 -14 -57t-31 -39l-170 -159h210v-25h-245v25zM660 -5q-53 0 -90 28t-45 77h25q2 -13 9.5 -27t21 -26
t33.5 -19.5t46 -7.5q53 0 76.5 26t23.5 64t-24 61.5t-66 23.5h-55v25h65q30 0 52.5 18t22.5 52q0 45 -29 67.5t-71 22.5t-69.5 -23t-35.5 -72h-25q2 24 12 46t27 38.5t40 26t51 9.5q32 0 55.5 -9.5t39 -25t23 -35t7.5 -40.5q0 -38 -19.5 -60t-45.5 -28q38 -13 54 -40t16 -57
q0 -49 -32.5 -82t-92.5 -33z" />
    <glyph glyph-name="uni2155" unicode="&#x2155;" horiz-adv-x="785" 
d="M540 700h30l-435 -700h-30zM170 605h-90v25h65q25 0 25 25v45h25v-400h-25v305zM570 -5q-53 0 -87.5 30.5t-42.5 79.5h25q4 -15 11 -30t19 -27.5t30.5 -20t44.5 -7.5q49 0 79.5 29t30.5 86q0 53 -30 81.5t-75 28.5q-65 0 -95 -60h-30l25 215h210v-25h-190l-18 -150h5
q10 15 32.5 30t60.5 15q28 0 52 -10t41 -27.5t27 -42.5t10 -55q0 -64 -37.5 -102t-97.5 -38z" />
    <glyph glyph-name="uni2156" unicode="&#x2156;" horiz-adv-x="880" 
d="M635 700h30l-435 -700h-30zM80 325l182 169q21 20 32 40t11 46q0 49 -26.5 74.5t-68.5 25.5q-49 0 -73 -25t-32 -70h-25q8 53 39 86.5t91 33.5t90 -36t30 -89q0 -34 -14 -57t-31 -39l-170 -159h210v-25h-245v25zM665 -5q-53 0 -87.5 30.5t-42.5 79.5h25q4 -15 11 -30
t19 -27.5t30.5 -20t44.5 -7.5q49 0 79.5 29t30.5 86q0 53 -30 81.5t-75 28.5q-65 0 -95 -60h-30l25 215h210v-25h-190l-18 -150h5q10 15 32.5 30t60.5 15q28 0 52 -10t41 -27.5t27 -42.5t10 -55q0 -64 -37.5 -102t-97.5 -38z" />
    <glyph glyph-name="uni2157" unicode="&#x2157;" horiz-adv-x="875" 
d="M630 700h30l-435 -700h-30zM210 295q-53 0 -90 28t-45 77h25q2 -13 9.5 -27t21 -26t33.5 -19.5t46 -7.5q53 0 76.5 26t23.5 64t-24 61.5t-66 23.5h-55v25h65q30 0 52.5 18t22.5 52q0 45 -29 67.5t-71 22.5t-69.5 -23t-35.5 -72h-25q2 24 12 46t27 38.5t40 26t51 9.5
q32 0 55.5 -9.5t39 -25t23 -35t7.5 -40.5q0 -38 -19.5 -60t-45.5 -28q38 -13 54 -40t16 -57q0 -49 -32.5 -82t-92.5 -33zM660 -5q-53 0 -87.5 30.5t-42.5 79.5h25q4 -15 11 -30t19 -27.5t30.5 -20t44.5 -7.5q49 0 79.5 29t30.5 86q0 53 -30 81.5t-75 28.5q-65 0 -95 -60h-30
l25 215h210v-25h-190l-18 -150h5q10 15 32.5 30t60.5 15q28 0 52 -10t41 -27.5t27 -42.5t10 -55q0 -64 -37.5 -102t-97.5 -38z" />
    <glyph glyph-name="uni2158" unicode="&#x2158;" horiz-adv-x="865" 
d="M620 700h30l-435 -700h-30zM270 390h-215v25l200 285h40v-285h55v-25h-55v-90h-25v90zM270 415v258h-5l-180 -258h185zM650 -5q-53 0 -87.5 30.5t-42.5 79.5h25q4 -15 11 -30t19 -27.5t30.5 -20t44.5 -7.5q49 0 79.5 29t30.5 86q0 53 -30 81.5t-75 28.5q-65 0 -95 -60
h-30l25 215h210v-25h-190l-18 -150h5q10 15 32.5 30t60.5 15q28 0 52 -10t41 -27.5t27 -42.5t10 -55q0 -64 -37.5 -102t-97.5 -38z" />
    <glyph glyph-name="uni2159" unicode="&#x2159;" horiz-adv-x="750" 
d="M540 700h30l-435 -700h-30zM170 605h-90v25h65q25 0 25 25v45h25v-400h-25v305zM535 -5q-24 0 -47.5 8.5t-42 25.5t-29.5 42t-11 59q0 41 12 71.5t33 63.5l85 135h30l-110 -170h5q8 9 19 17q10 7 25 12.5t36 5.5q28 0 52 -10t41 -27.5t27 -42.5t10 -55q0 -60 -37.5 -97.5
t-97.5 -37.5zM535 20q49 0 79.5 28.5t30.5 81.5t-30 81.5t-75 28.5q-49 0 -79.5 -28.5t-30.5 -81.5t30 -81.5t75 -28.5z" />
    <glyph glyph-name="uni215A" unicode="&#x215a;" horiz-adv-x="835" 
d="M625 700h30l-435 -700h-30zM205 295q-53 0 -87.5 30.5t-42.5 79.5h25q4 -15 11 -30t19 -27.5t30.5 -20t44.5 -7.5q49 0 79.5 29t30.5 86q0 53 -30 81.5t-75 28.5q-65 0 -95 -60h-30l25 215h210v-25h-190l-18 -150h5q10 15 32.5 30t60.5 15q28 0 52 -10t41 -27.5t27 -42.5
t10 -55q0 -64 -37.5 -102t-97.5 -38zM620 -5q-24 0 -47.5 8.5t-42 25.5t-29.5 42t-11 59q0 41 12 71.5t33 63.5l85 135h30l-110 -170h5q8 9 19 17q10 7 25 12.5t36 5.5q28 0 52 -10t41 -27.5t27 -42.5t10 -55q0 -60 -37.5 -97.5t-97.5 -37.5zM620 20q49 0 79.5 28.5
t30.5 81.5t-30 81.5t-75 28.5q-49 0 -79.5 -28.5t-30.5 -81.5t30 -81.5t75 -28.5z" />
    <glyph glyph-name="oneeighth" unicode="&#x215b;" horiz-adv-x="775" 
d="M540 700h30l-435 -700h-30zM170 605h-90v25h65q25 0 25 25v45h25v-400h-25v305zM565 -5q-26 0 -49.5 7t-41.5 22t-28.5 36.5t-10.5 49.5q0 30 18 59.5t52 40.5q-60 30 -60 90q0 22 9 41.5t25 33.5t38 22t48 8t48 -8t38 -22t25 -33.5t9 -41.5q0 -60 -60 -90
q34 -11 52 -40.5t18 -59.5q0 -28 -10.5 -49.5t-28.5 -36.5t-41.5 -22t-49.5 -7zM565 20q56 0 80.5 26t24.5 62q0 42 -28 64.5t-77 22.5t-77 -22.5t-28 -64.5q0 -36 24.5 -62t80.5 -26zM565 220q42 0 68.5 21.5t26.5 61.5q0 35 -26.5 56t-68.5 21t-68.5 -21t-26.5 -56
q0 -40 26.5 -61.5t68.5 -21.5z" />
    <glyph glyph-name="threeeighths" unicode="&#x215c;" horiz-adv-x="865" 
d="M630 700h30l-435 -700h-30zM210 295q-53 0 -90 28t-45 77h25q2 -13 9.5 -27t21 -26t33.5 -19.5t46 -7.5q53 0 76.5 26t23.5 64t-24 61.5t-66 23.5h-55v25h65q30 0 52.5 18t22.5 52q0 45 -29 67.5t-71 22.5t-69.5 -23t-35.5 -72h-25q2 24 12 46t27 38.5t40 26t51 9.5
q32 0 55.5 -9.5t39 -25t23 -35t7.5 -40.5q0 -38 -19.5 -60t-45.5 -28q38 -13 54 -40t16 -57q0 -49 -32.5 -82t-92.5 -33zM655 -5q-26 0 -49.5 7t-41.5 22t-28.5 36.5t-10.5 49.5q0 30 18 59.5t52 40.5q-60 30 -60 90q0 22 9 41.5t25 33.5t38 22t48 8t48 -8t38 -22t25 -33.5
t9 -41.5q0 -60 -60 -90q34 -11 52 -40.5t18 -59.5q0 -28 -10.5 -49.5t-28.5 -36.5t-41.5 -22t-49.5 -7zM655 20q56 0 80.5 26t24.5 62q0 42 -28 64.5t-77 22.5t-77 -22.5t-28 -64.5q0 -36 24.5 -62t80.5 -26zM655 220q42 0 68.5 21.5t26.5 61.5q0 35 -26.5 56t-68.5 21
t-68.5 -21t-26.5 -56q0 -40 26.5 -61.5t68.5 -21.5z" />
    <glyph glyph-name="fiveeighths" unicode="&#x215d;" horiz-adv-x="860" 
d="M625 700h30l-435 -700h-30zM205 295q-53 0 -87.5 30.5t-42.5 79.5h25q4 -15 11 -30t19 -27.5t30.5 -20t44.5 -7.5q49 0 79.5 29t30.5 86q0 53 -30 81.5t-75 28.5q-65 0 -95 -60h-30l25 215h210v-25h-190l-18 -150h5q10 15 32.5 30t60.5 15q28 0 52 -10t41 -27.5t27 -42.5
t10 -55q0 -64 -37.5 -102t-97.5 -38zM650 -5q-26 0 -49.5 7t-41.5 22t-28.5 36.5t-10.5 49.5q0 30 18 59.5t52 40.5q-60 30 -60 90q0 22 9 41.5t25 33.5t38 22t48 8t48 -8t38 -22t25 -33.5t9 -41.5q0 -60 -60 -90q34 -11 52 -40.5t18 -59.5q0 -28 -10.5 -49.5t-28.5 -36.5
t-41.5 -22t-49.5 -7zM650 20q56 0 80.5 26t24.5 62q0 42 -28 64.5t-77 22.5t-77 -22.5t-28 -64.5q0 -36 24.5 -62t80.5 -26zM650 220q42 0 68.5 21.5t26.5 61.5q0 35 -26.5 56t-68.5 21t-68.5 -21t-26.5 -56q0 -40 26.5 -61.5t68.5 -21.5z" />
    <glyph glyph-name="seveneighths" unicode="&#x215e;" horiz-adv-x="785" 
d="M550 700h30l-435 -700h-30zM292 675h-222v25h250v-20l-170 -380h-25zM575 -5q-26 0 -49.5 7t-41.5 22t-28.5 36.5t-10.5 49.5q0 30 18 59.5t52 40.5q-60 30 -60 90q0 22 9 41.5t25 33.5t38 22t48 8t48 -8t38 -22t25 -33.5t9 -41.5q0 -60 -60 -90q34 -11 52 -40.5
t18 -59.5q0 -28 -10.5 -49.5t-28.5 -36.5t-41.5 -22t-49.5 -7zM575 20q56 0 80.5 26t24.5 62q0 42 -28 64.5t-77 22.5t-77 -22.5t-28 -64.5q0 -36 24.5 -62t80.5 -26zM575 220q42 0 68.5 21.5t26.5 61.5q0 35 -26.5 56t-68.5 21t-68.5 -21t-26.5 -56q0 -40 26.5 -61.5
t68.5 -21.5z" />
    <glyph glyph-name="uni215F" unicode="&#x215f;" horiz-adv-x="410" 
d="M540 700h30l-435 -700h-30zM170 605h-90v25h65q25 0 25 25v45h25v-400h-25v305z" />
    <glyph glyph-name="uni2190" unicode="&#x2190;" 
d="M150 345v5l215 215l15 -15l-190 -190h660v-25h-660l190 -190l-15 -15z" />
    <glyph glyph-name="uni2191" unicode="&#x2191;" 
d="M485 660l-190 -190l-15 15l215 215h5l215 -215l-15 -15l-190 190v-660h-25v660z" />
    <glyph glyph-name="uni2192" unicode="&#x2192;" 
d="M620 145l190 190h-660v25h660l-190 190l15 15l215 -215v-5l-215 -215z" />
    <glyph glyph-name="uni2193" unicode="&#x2193;" 
d="M280 215l15 15l190 -190v660h25v-660l190 190l15 -15l-215 -215h-5z" />
    <glyph glyph-name="uni2194" unicode="&#x2194;" 
d="M150 345v5l215 215l15 -15l-190 -190h620l-190 190l15 15l215 -215v-5l-215 -215l-15 15l190 190h-620l190 -190l-15 -15z" />
    <glyph glyph-name="uni2195" unicode="&#x2195;" 
d="M280 215l15 15l190 -190v620l-190 -190l-15 15l215 215h5l215 -215l-15 -15l-190 190v-620l190 190l15 -15l-215 -215h-5z" />
    <glyph glyph-name="uni2196" unicode="&#x2196;" 
d="M225 610v-270h-25v300l10 10h300v-25h-270l560 -560l-15 -15z" />
    <glyph glyph-name="uni2197" unicode="&#x2197;" 
d="M200 65l560 560h-270v25h300l10 -10v-300h-25v270l-560 -560z" />
    <glyph glyph-name="uni2198" unicode="&#x2198;" 
d="M490 75h270l-560 560l15 15l560 -560v270h25v-300l-10 -10h-300v25z" />
    <glyph glyph-name="uni2199" unicode="&#x2199;" 
d="M200 60v300h25v-270l560 560l15 -15l-560 -560h270v-25h-300z" />
    <glyph glyph-name="uni21C5" unicode="&#x21c5;" 
d="M320 660l-190 -190l-15 15l215 215h5l215 -215l-15 -15l-190 190v-660h-25v660zM450 215l15 15l190 -190v660h25v-660l190 190l15 -15l-215 -215h-5z" />
    <glyph glyph-name="uni21F5" unicode="&#x21f5;" 
d="M115 215l15 15l190 -190v660h25v-660l190 190l15 -15l-215 -215h-5zM655 660l-190 -190l-15 15l215 215h5l215 -215l-15 -15l-190 190v-660h-25v660z" />
    <glyph glyph-name="partialdiff" unicode="&#x2202;" horiz-adv-x="565" 
d="M270 -10q-41 0 -79 15t-67 44t-46.5 72t-17.5 99q0 52 15 94.5t42 72.5t63.5 46.5t79.5 16.5t75 -10t56 -25.5t41.5 -34t32.5 -35.5h5q0 79 -14.5 142t-40.5 107t-63 67.5t-82 23.5q-32 0 -56 -8t-41 -21.5t-29 -31.5t-19 -39h-30q19 57 61 91t114 34q49 0 90 -22.5
t71 -67.5t47 -112.5t17 -157.5q0 -94 -16 -162t-45.5 -112t-71 -65t-92.5 -21zM270 15q51 0 87.5 23.5t60.5 62.5t35.5 89.5t11.5 104.5q-21 36 -49 65q-25 24 -61 44.5t-85 20.5t-84 -16t-57.5 -43.5t-33 -65t-10.5 -80.5q0 -47 14 -85t39 -64.5t59 -41t73 -14.5z" />
    <glyph glyph-name="emptyset" unicode="&#x2205;" horiz-adv-x="809" 
d="M404 -10q-66 0 -123 19t-102 57l-60 -71h-30l73 86q-48 46 -75 113.5t-27 155.5q0 86 26.5 153t73 113t109.5 70t136 24q66 0 123 -19t102 -57l60 71h30l-73 -86q48 -46 75 -113.5t27 -155.5q0 -86 -26.5 -153t-73 -113t-109.5 -70t-136 -24zM613 614q-41 34 -93.5 52.5
t-114.5 18.5q-71 0 -130 -24t-101 -68.5t-65.5 -106t-23.5 -136.5q0 -78 25 -141t70 -108zM404 15q71 0 130 24t101 68.5t65.5 106t23.5 136.5q0 78 -25 141t-70 108l-433 -513q41 -34 93.5 -52.5t114.5 -18.5z" />
    <glyph glyph-name="uni2206" unicode="&#x2206;" horiz-adv-x="630" 
d="M300 700h30l255 -700h-540zM550 25l-235 650l-235 -650h470z" />
    <glyph glyph-name="product" unicode="&#x220f;" horiz-adv-x="705" 
d="M115 700h475v-810h-25v785h-425v-785h-25v810z" />
    <glyph glyph-name="summation" unicode="&#x2211;" horiz-adv-x="560" 
d="M60 -85l265 400l-265 360v25h450v-25h-420l265 -360l-265 -400h420v-25h-450v25z" />
    <glyph glyph-name="minus" unicode="&#x2212;" horiz-adv-x="535" 
d="M50 310h435v-25h-435v25z" />
    <glyph glyph-name="radical" unicode="&#x221a;" horiz-adv-x="570" 
d="M145 180h-130v25h150l95 -290h10l252 810h28l-260 -835h-50z" />
    <glyph glyph-name="infinity" unicode="&#x221e;" horiz-adv-x="760" 
d="M195 205q-60 0 -97.5 38.5t-37.5 106.5t37.5 106.5t97.5 38.5q32 0 56.5 -10.5t45.5 -27.5t40.5 -40t42.5 -47q22 24 42 47t41 40t45.5 27.5t56.5 10.5q60 0 97.5 -38.5t37.5 -106.5t-37.5 -106.5t-97.5 -38.5q-32 0 -56.5 10.5t-45.5 27.5t-41 40t-42 47
q-23 -24 -42.5 -47t-40.5 -40t-45.5 -27.5t-56.5 -10.5zM195 230q26 0 47.5 9.5t41 26t39 38.5t42.5 46q-23 24 -42.5 46t-39 38.5t-41 26t-47.5 9.5q-53 0 -81.5 -33.5t-28.5 -86.5t28.5 -86.5t81.5 -33.5zM565 230q53 0 81.5 33.5t28.5 86.5t-28.5 86.5t-81.5 33.5
q-26 0 -47.5 -9.5t-41 -26t-39.5 -38.5t-42 -46q22 -24 42 -46t39.5 -38.5t41 -26t47.5 -9.5z" />
    <glyph glyph-name="integral" unicode="&#x222b;" horiz-adv-x="370" 
d="M35 -85h40q49 0 74.5 28.5t25.5 96.5v620q0 43 8.5 72t25.5 46t42 24.5t59 7.5h25v-25h-35q-49 0 -74.5 -28.5t-25.5 -96.5v-620q0 -43 -8.5 -72t-25.5 -46t-42 -24.5t-59 -7.5h-30v25z" />
    <glyph glyph-name="approxequal" unicode="&#x2248;" horiz-adv-x="555" 
d="M70 155q4 53 32.5 81.5t77.5 28.5q32 0 56 -13.5t45.5 -29t43.5 -29t50 -13.5q77 0 85 85h25q-4 -53 -32.5 -81.5t-77.5 -28.5q-32 0 -56 13.5t-45.5 29t-43.5 29t-50 13.5q-77 0 -85 -85h-25zM70 330q4 53 32.5 81.5t77.5 28.5q32 0 56 -13.5t45.5 -29t43.5 -29
t50 -13.5q77 0 85 85h25q-4 -53 -32.5 -81.5t-77.5 -28.5q-32 0 -56 13.5t-45.5 29t-43.5 29t-50 13.5q-77 0 -85 -85h-25z" />
    <glyph glyph-name="notequal" unicode="&#x2260;" horiz-adv-x="535" 
d="M209 200h-159v25h171l64 145h-235v25h246l57 130h30l-57 -130h159v-25h-170l-64 -145h234v-25h-246l-57 -130h-30z" />
    <glyph glyph-name="lessequal" unicode="&#x2264;" horiz-adv-x="540" 
d="M65 35h410v-25h-410v25zM65 285v40l410 180v-30l-390 -170l390 -170v-30z" />
    <glyph glyph-name="greaterequal" unicode="&#x2265;" horiz-adv-x="540" 
d="M65 35h410v-25h-410v25zM65 135l390 170l-390 170v30l410 -180v-40l-410 -180v30z" />
    <glyph glyph-name="uni2318" unicode="&#x2318;" horiz-adv-x="780" 
d="M180 0q-57 0 -93.5 36.5t-36.5 93.5q0 68 39 104t111 36h85v160h-85q-72 0 -111 36t-39 104q0 57 36.5 93.5t93.5 36.5q60 0 95 -36t35 -104v-105h160v105q0 68 35 104t95 36q57 0 93.5 -36.5t36.5 -93.5q0 -68 -39 -104t-111 -36h-85v-160h85q72 0 111 -36t39 -104
q0 -57 -36.5 -93.5t-93.5 -36.5q-60 0 -95 36t-35 104v105h-160v-105q0 -68 -35 -104t-95 -36zM185 25q45 0 72.5 30.5t27.5 79.5v110h-95q-53 0 -84 -30.5t-31 -79.5q0 -53 30.5 -81.5t79.5 -28.5zM470 270v160h-160v-160h160zM285 455v110q0 49 -27.5 79.5t-72.5 30.5
q-49 0 -79.5 -28.5t-30.5 -81.5q0 -49 31 -79.5t84 -30.5h95zM595 25q49 0 79.5 28.5t30.5 81.5q0 49 -31 79.5t-84 30.5h-95v-110q0 -49 27.5 -79.5t72.5 -30.5zM590 455q53 0 84 30.5t31 79.5q0 53 -30.5 81.5t-79.5 28.5q-45 0 -72.5 -30.5t-27.5 -79.5v-110h95z" />
    <glyph glyph-name="uni2460" unicode="&#x2460;" 
d="M495 455h-90v25h65q25 0 25 25v45h25v-400h-25v305zM500 -70q-88 0 -164.5 32.5t-133.5 89.5t-89.5 133.5t-32.5 164.5t32.5 164.5t89.5 133.5t133.5 89.5t164.5 32.5t164.5 -32.5t133.5 -89.5t89.5 -133.5t32.5 -164.5t-32.5 -164.5t-89.5 -133.5t-133.5 -89.5
t-164.5 -32.5zM500 -45q82 0 154.5 31t125.5 84t84 125t31 155q0 82 -31 154.5t-84 125.5t-125.5 84t-154.5 31q-83 0 -155 -31t-125 -84t-84 -125.5t-31 -154.5q0 -83 31 -155t84 -125t125 -84t155 -31z" />
    <glyph glyph-name="uni2461" unicode="&#x2461;" 
d="M375 175l182 169q21 20 32 40t11 46q0 49 -26.5 74.5t-68.5 25.5q-49 0 -73 -25t-32 -70h-25q8 53 39 86.5t91 33.5t90 -36t30 -89q0 -34 -14 -57t-31 -39l-170 -159h210v-25h-245v25zM500 -70q-88 0 -164.5 32.5t-133.5 89.5t-89.5 133.5t-32.5 164.5t32.5 164.5
t89.5 133.5t133.5 89.5t164.5 32.5t164.5 -32.5t133.5 -89.5t89.5 -133.5t32.5 -164.5t-32.5 -164.5t-89.5 -133.5t-133.5 -89.5t-164.5 -32.5zM500 -45q82 0 154.5 31t125.5 84t84 125t31 155q0 82 -31 154.5t-84 125.5t-125.5 84t-154.5 31q-83 0 -155 -31t-125 -84
t-84 -125.5t-31 -154.5q0 -83 31 -155t84 -125t125 -84t155 -31z" />
    <glyph glyph-name="uni2462" unicode="&#x2462;" 
d="M510 145q-53 0 -90 28t-45 77h25q2 -13 9.5 -27t21 -26t33.5 -19.5t46 -7.5q53 0 76.5 26t23.5 64t-24 61.5t-66 23.5h-55v25h65q30 0 52.5 18t22.5 52q0 45 -29 67.5t-71 22.5t-69.5 -23t-35.5 -72h-25q2 24 12 46t27 38.5t40 26t51 9.5q32 0 55.5 -9.5t39 -25t23 -35
t7.5 -40.5q0 -38 -19.5 -60t-45.5 -28q38 -13 54 -40t16 -57q0 -49 -32.5 -82t-92.5 -33zM500 -70q-88 0 -164.5 32.5t-133.5 89.5t-89.5 133.5t-32.5 164.5t32.5 164.5t89.5 133.5t133.5 89.5t164.5 32.5t164.5 -32.5t133.5 -89.5t89.5 -133.5t32.5 -164.5t-32.5 -164.5
t-89.5 -133.5t-133.5 -89.5t-164.5 -32.5zM500 -45q82 0 154.5 31t125.5 84t84 125t31 155q0 82 -31 154.5t-84 125.5t-125.5 84t-154.5 31q-83 0 -155 -31t-125 -84t-84 -125.5t-31 -154.5q0 -83 31 -155t84 -125t125 -84t155 -31z" />
    <glyph glyph-name="uni2463" unicode="&#x2463;" 
d="M550 240h-215v25l200 285h40v-285h55v-25h-55v-90h-25v90zM550 265v258h-5l-180 -258h185zM500 -70q-88 0 -164.5 32.5t-133.5 89.5t-89.5 133.5t-32.5 164.5t32.5 164.5t89.5 133.5t133.5 89.5t164.5 32.5t164.5 -32.5t133.5 -89.5t89.5 -133.5t32.5 -164.5
t-32.5 -164.5t-89.5 -133.5t-133.5 -89.5t-164.5 -32.5zM500 -45q82 0 154.5 31t125.5 84t84 125t31 155q0 82 -31 154.5t-84 125.5t-125.5 84t-154.5 31q-83 0 -155 -31t-125 -84t-84 -125.5t-31 -154.5q0 -83 31 -155t84 -125t125 -84t155 -31z" />
    <glyph glyph-name="uni2464" unicode="&#x2464;" 
d="M500 145q-53 0 -87.5 30.5t-42.5 79.5h25q4 -15 11 -30t19 -27.5t30.5 -20t44.5 -7.5q49 0 79.5 29t30.5 86q0 53 -30 81.5t-75 28.5q-65 0 -95 -60h-30l25 215h210v-25h-190l-18 -150h5q10 15 32.5 30t60.5 15q28 0 52 -10t41 -27.5t27 -42.5t10 -55q0 -64 -37.5 -102
t-97.5 -38zM500 -70q-88 0 -164.5 32.5t-133.5 89.5t-89.5 133.5t-32.5 164.5t32.5 164.5t89.5 133.5t133.5 89.5t164.5 32.5t164.5 -32.5t133.5 -89.5t89.5 -133.5t32.5 -164.5t-32.5 -164.5t-89.5 -133.5t-133.5 -89.5t-164.5 -32.5zM500 -45q82 0 154.5 31t125.5 84
t84 125t31 155q0 82 -31 154.5t-84 125.5t-125.5 84t-154.5 31q-83 0 -155 -31t-125 -84t-84 -125.5t-31 -154.5q0 -83 31 -155t84 -125t125 -84t155 -31z" />
    <glyph glyph-name="uni2465" unicode="&#x2465;" 
d="M498 145q-24 0 -47.5 8.5t-42 25.5t-29.5 42t-11 59q0 41 12 71.5t33 63.5l85 135h30l-110 -170h5q8 9 19 17q10 7 25 12.5t36 5.5q28 0 52 -10t41 -27.5t27 -42.5t10 -55q0 -60 -37.5 -97.5t-97.5 -37.5zM498 170q49 0 79.5 28.5t30.5 81.5t-30 81.5t-75 28.5
q-49 0 -79.5 -28.5t-30.5 -81.5t30 -81.5t75 -28.5zM500 -70q-88 0 -164.5 32.5t-133.5 89.5t-89.5 133.5t-32.5 164.5t32.5 164.5t89.5 133.5t133.5 89.5t164.5 32.5t164.5 -32.5t133.5 -89.5t89.5 -133.5t32.5 -164.5t-32.5 -164.5t-89.5 -133.5t-133.5 -89.5
t-164.5 -32.5zM500 -45q82 0 154.5 31t125.5 84t84 125t31 155q0 82 -31 154.5t-84 125.5t-125.5 84t-154.5 31q-83 0 -155 -31t-125 -84t-84 -125.5t-31 -154.5q0 -83 31 -155t84 -125t125 -84t155 -31z" />
    <glyph glyph-name="uni2466" unicode="&#x2466;" 
d="M602 525h-222v25h250v-20l-170 -380h-25zM500 -70q-88 0 -164.5 32.5t-133.5 89.5t-89.5 133.5t-32.5 164.5t32.5 164.5t89.5 133.5t133.5 89.5t164.5 32.5t164.5 -32.5t133.5 -89.5t89.5 -133.5t32.5 -164.5t-32.5 -164.5t-89.5 -133.5t-133.5 -89.5t-164.5 -32.5z
M500 -45q82 0 154.5 31t125.5 84t84 125t31 155q0 82 -31 154.5t-84 125.5t-125.5 84t-154.5 31q-83 0 -155 -31t-125 -84t-84 -125.5t-31 -154.5q0 -83 31 -155t84 -125t125 -84t155 -31z" />
    <glyph glyph-name="uni2467" unicode="&#x2467;" 
d="M500 145q-26 0 -49.5 7t-41.5 22t-28.5 36.5t-10.5 49.5q0 30 18 59.5t52 40.5q-60 30 -60 90q0 22 9 41.5t25 33.5t38 22t48 8t48 -8t38 -22t25 -33.5t9 -41.5q0 -60 -60 -90q34 -11 52 -40.5t18 -59.5q0 -28 -10.5 -49.5t-28.5 -36.5t-41.5 -22t-49.5 -7zM500 170
q56 0 80.5 26t24.5 62q0 42 -28 64.5t-77 22.5t-77 -22.5t-28 -64.5q0 -36 24.5 -62t80.5 -26zM500 370q42 0 68.5 21.5t26.5 61.5q0 35 -26.5 56t-68.5 21t-68.5 -21t-26.5 -56q0 -40 26.5 -61.5t68.5 -21.5zM500 -70q-88 0 -164.5 32.5t-133.5 89.5t-89.5 133.5
t-32.5 164.5t32.5 164.5t89.5 133.5t133.5 89.5t164.5 32.5t164.5 -32.5t133.5 -89.5t89.5 -133.5t32.5 -164.5t-32.5 -164.5t-89.5 -133.5t-133.5 -89.5t-164.5 -32.5zM500 -45q82 0 154.5 31t125.5 84t84 125t31 155q0 82 -31 154.5t-84 125.5t-125.5 84t-154.5 31
q-83 0 -155 -31t-125 -84t-84 -125.5t-31 -154.5q0 -83 31 -155t84 -125t125 -84t155 -31z" />
    <glyph glyph-name="uni2468" unicode="&#x2468;" 
d="M580 320h-5q-8 -10 -19 -18q-10 -7 -25.5 -12t-35.5 -5q-28 0 -52 10t-41 27.5t-27 42.5t-10 55q0 60 37.5 97.5t97.5 37.5q24 0 47.5 -8.5t42 -25.5t29.5 -42t11 -59q0 -41 -12 -71.5t-33 -63.5l-85 -135h-30zM495 310q49 0 79.5 28.5t30.5 81.5t-30 81.5t-75 28.5
q-49 0 -79.5 -28.5t-30.5 -81.5t30 -81.5t75 -28.5zM500 -70q-88 0 -164.5 32.5t-133.5 89.5t-89.5 133.5t-32.5 164.5t32.5 164.5t89.5 133.5t133.5 89.5t164.5 32.5t164.5 -32.5t133.5 -89.5t89.5 -133.5t32.5 -164.5t-32.5 -164.5t-89.5 -133.5t-133.5 -89.5
t-164.5 -32.5zM500 -45q82 0 154.5 31t125.5 84t84 125t31 155q0 82 -31 154.5t-84 125.5t-125.5 84t-154.5 31q-83 0 -155 -31t-125 -84t-84 -125.5t-31 -154.5q0 -83 31 -155t84 -125t125 -84t155 -31z" />
    <glyph glyph-name="uni2469" unicode="&#x2469;" 
d="M340 455h-90v25h65q25 0 25 25v45h25v-400h-25v305zM593 144q-70 0 -106.5 53.5t-36.5 151.5t36.5 151.5t106.5 53.5t106 -53.5t36 -151.5t-36 -151.5t-106 -53.5zM593 169q24 0 45 10t37 31.5t25.5 55.5t9.5 83t-9.5 83t-25.5 55.5t-37 31.5t-45 10t-45 -10t-37.5 -31.5
t-26 -55.5t-9.5 -83t9.5 -83t26 -55.5t37.5 -31.5t45 -10zM500 -70q-88 0 -164.5 32.5t-133.5 89.5t-89.5 133.5t-32.5 164.5t32.5 164.5t89.5 133.5t133.5 89.5t164.5 32.5t164.5 -32.5t133.5 -89.5t89.5 -133.5t32.5 -164.5t-32.5 -164.5t-89.5 -133.5t-133.5 -89.5
t-164.5 -32.5zM500 -45q82 0 154.5 31t125.5 84t84 125t31 155q0 82 -31 154.5t-84 125.5t-125.5 84t-154.5 31q-83 0 -155 -31t-125 -84t-84 -125.5t-31 -154.5q0 -83 31 -155t84 -125t125 -84t155 -31z" />
    <glyph glyph-name="uni246A" unicode="&#x246a;" 
d="M390 455h-90v25h65q25 0 25 25v45h25v-400h-25v305zM615 455h-90v25h65q25 0 25 25v45h25v-400h-25v305zM500 -70q-88 0 -164.5 32.5t-133.5 89.5t-89.5 133.5t-32.5 164.5t32.5 164.5t89.5 133.5t133.5 89.5t164.5 32.5t164.5 -32.5t133.5 -89.5t89.5 -133.5
t32.5 -164.5t-32.5 -164.5t-89.5 -133.5t-133.5 -89.5t-164.5 -32.5zM500 -45q82 0 154.5 31t125.5 84t84 125t31 155q0 82 -31 154.5t-84 125.5t-125.5 84t-154.5 31q-83 0 -155 -31t-125 -84t-84 -125.5t-31 -154.5q0 -83 31 -155t84 -125t125 -84t155 -31z" />
    <glyph glyph-name="uni246B" unicode="&#x246b;" 
d="M345 455h-90v25h65q25 0 25 25v45h25v-400h-25v305zM470 175l182 169q21 20 32 40t11 46q0 49 -26.5 74.5t-68.5 25.5q-49 0 -73 -25t-32 -70h-25q8 53 39 86.5t91 33.5t90 -36t30 -89q0 -34 -14 -57t-31 -39l-170 -159h210v-25h-245v25zM500 -70q-88 0 -164.5 32.5
t-133.5 89.5t-89.5 133.5t-32.5 164.5t32.5 164.5t89.5 133.5t133.5 89.5t164.5 32.5t164.5 -32.5t133.5 -89.5t89.5 -133.5t32.5 -164.5t-32.5 -164.5t-89.5 -133.5t-133.5 -89.5t-164.5 -32.5zM500 -45q82 0 154.5 31t125.5 84t84 125t31 155q0 82 -31 154.5t-84 125.5
t-125.5 84t-154.5 31q-83 0 -155 -31t-125 -84t-84 -125.5t-31 -154.5q0 -83 31 -155t84 -125t125 -84t155 -31z" />
    <glyph glyph-name="uni246C" unicode="&#x246c;" 
d="M340 455h-90v25h65q25 0 25 25v45h25v-400h-25v305zM590 145q-53 0 -90 28t-45 77h25q2 -13 9.5 -27t21 -26t33.5 -19.5t46 -7.5q53 0 76.5 26t23.5 64t-24 61.5t-66 23.5h-55v25h65q30 0 52.5 18t22.5 52q0 45 -29 67.5t-71 22.5t-69.5 -23t-35.5 -72h-25q2 24 12 46
t27 38.5t40 26t51 9.5q32 0 55.5 -9.5t39 -25t23 -35t7.5 -40.5q0 -38 -19.5 -60t-45.5 -28q38 -13 54 -40t16 -57q0 -49 -32.5 -82t-92.5 -33zM500 -70q-88 0 -164.5 32.5t-133.5 89.5t-89.5 133.5t-32.5 164.5t32.5 164.5t89.5 133.5t133.5 89.5t164.5 32.5t164.5 -32.5
t133.5 -89.5t89.5 -133.5t32.5 -164.5t-32.5 -164.5t-89.5 -133.5t-133.5 -89.5t-164.5 -32.5zM500 -45q82 0 154.5 31t125.5 84t84 125t31 155q0 82 -31 154.5t-84 125.5t-125.5 84t-154.5 31q-83 0 -155 -31t-125 -84t-84 -125.5t-31 -154.5q0 -83 31 -155t84 -125
t125 -84t155 -31z" />
    <glyph glyph-name="uni246D" unicode="&#x246d;" 
d="M340 455h-90v25h65q25 0 25 25v45h25v-400h-25v305zM655 240h-215v25l200 285h40v-285h55v-25h-55v-90h-25v90zM655 265v258h-5l-180 -258h185zM500 -70q-88 0 -164.5 32.5t-133.5 89.5t-89.5 133.5t-32.5 164.5t32.5 164.5t89.5 133.5t133.5 89.5t164.5 32.5
t164.5 -32.5t133.5 -89.5t89.5 -133.5t32.5 -164.5t-32.5 -164.5t-89.5 -133.5t-133.5 -89.5t-164.5 -32.5zM500 -45q82 0 154.5 31t125.5 84t84 125t31 155q0 82 -31 154.5t-84 125.5t-125.5 84t-154.5 31q-83 0 -155 -31t-125 -84t-84 -125.5t-31 -154.5q0 -83 31 -155
t84 -125t125 -84t155 -31z" />
    <glyph glyph-name="uni246E" unicode="&#x246e;" 
d="M340 455h-90v25h65q25 0 25 25v45h25v-400h-25v305zM580 145q-53 0 -87.5 30.5t-42.5 79.5h25q4 -15 11 -30t19 -27.5t30.5 -20t44.5 -7.5q49 0 79.5 29t30.5 86q0 53 -30 81.5t-75 28.5q-65 0 -95 -60h-30l25 215h210v-25h-190l-18 -150h5q10 15 32.5 30t60.5 15
q28 0 52 -10t41 -27.5t27 -42.5t10 -55q0 -64 -37.5 -102t-97.5 -38zM500 -70q-88 0 -164.5 32.5t-133.5 89.5t-89.5 133.5t-32.5 164.5t32.5 164.5t89.5 133.5t133.5 89.5t164.5 32.5t164.5 -32.5t133.5 -89.5t89.5 -133.5t32.5 -164.5t-32.5 -164.5t-89.5 -133.5
t-133.5 -89.5t-164.5 -32.5zM500 -45q82 0 154.5 31t125.5 84t84 125t31 155q0 82 -31 154.5t-84 125.5t-125.5 84t-154.5 31q-83 0 -155 -31t-125 -84t-84 -125.5t-31 -154.5q0 -83 31 -155t84 -125t125 -84t155 -31z" />
    <glyph glyph-name="uni246F" unicode="&#x246f;" 
d="M340 455h-90v25h65q25 0 25 25v45h25v-400h-25v305zM585 145q-24 0 -47.5 8.5t-42 25.5t-29.5 42t-11 59q0 41 12 71.5t33 63.5l85 135h30l-110 -170h5q8 9 19 17q10 7 25 12.5t36 5.5q28 0 52 -10t41 -27.5t27 -42.5t10 -55q0 -60 -37.5 -97.5t-97.5 -37.5zM585 170
q49 0 79.5 28.5t30.5 81.5t-30 81.5t-75 28.5q-49 0 -79.5 -28.5t-30.5 -81.5t30 -81.5t75 -28.5zM500 -70q-88 0 -164.5 32.5t-133.5 89.5t-89.5 133.5t-32.5 164.5t32.5 164.5t89.5 133.5t133.5 89.5t164.5 32.5t164.5 -32.5t133.5 -89.5t89.5 -133.5t32.5 -164.5
t-32.5 -164.5t-89.5 -133.5t-133.5 -89.5t-164.5 -32.5zM500 -45q82 0 154.5 31t125.5 84t84 125t31 155q0 82 -31 154.5t-84 125.5t-125.5 84t-154.5 31q-83 0 -155 -31t-125 -84t-84 -125.5t-31 -154.5q0 -83 31 -155t84 -125t125 -84t155 -31z" />
    <glyph glyph-name="uni2470" unicode="&#x2470;" 
d="M370 455h-90v25h65q25 0 25 25v45h25v-400h-25v305zM697 525h-222v25h250v-20l-170 -380h-25zM500 -70q-88 0 -164.5 32.5t-133.5 89.5t-89.5 133.5t-32.5 164.5t32.5 164.5t89.5 133.5t133.5 89.5t164.5 32.5t164.5 -32.5t133.5 -89.5t89.5 -133.5t32.5 -164.5
t-32.5 -164.5t-89.5 -133.5t-133.5 -89.5t-164.5 -32.5zM500 -45q82 0 154.5 31t125.5 84t84 125t31 155q0 82 -31 154.5t-84 125.5t-125.5 84t-154.5 31q-83 0 -155 -31t-125 -84t-84 -125.5t-31 -154.5q0 -83 31 -155t84 -125t125 -84t155 -31z" />
    <glyph glyph-name="uni2471" unicode="&#x2471;" 
d="M345 455h-90v25h65q25 0 25 25v45h25v-400h-25v305zM595 145q-26 0 -49.5 7t-41.5 22t-28.5 36.5t-10.5 49.5q0 30 18 59.5t52 40.5q-60 30 -60 90q0 22 9 41.5t25 33.5t38 22t48 8t48 -8t38 -22t25 -33.5t9 -41.5q0 -60 -60 -90q34 -11 52 -40.5t18 -59.5
q0 -28 -10.5 -49.5t-28.5 -36.5t-41.5 -22t-49.5 -7zM595 170q56 0 80.5 26t24.5 62q0 42 -28 64.5t-77 22.5t-77 -22.5t-28 -64.5q0 -36 24.5 -62t80.5 -26zM595 370q42 0 68.5 21.5t26.5 61.5q0 35 -26.5 56t-68.5 21t-68.5 -21t-26.5 -56q0 -40 26.5 -61.5t68.5 -21.5z
M500 -70q-88 0 -164.5 32.5t-133.5 89.5t-89.5 133.5t-32.5 164.5t32.5 164.5t89.5 133.5t133.5 89.5t164.5 32.5t164.5 -32.5t133.5 -89.5t89.5 -133.5t32.5 -164.5t-32.5 -164.5t-89.5 -133.5t-133.5 -89.5t-164.5 -32.5zM500 -45q82 0 154.5 31t125.5 84t84 125t31 155
q0 82 -31 154.5t-84 125.5t-125.5 84t-154.5 31q-83 0 -155 -31t-125 -84t-84 -125.5t-31 -154.5q0 -83 31 -155t84 -125t125 -84t155 -31z" />
    <glyph glyph-name="uni2472" unicode="&#x2472;" 
d="M345 455h-90v25h65q25 0 25 25v45h25v-400h-25v305zM675 320h-5q-8 -10 -19 -18q-10 -7 -25.5 -12t-35.5 -5q-28 0 -52 10t-41 27.5t-27 42.5t-10 55q0 60 37.5 97.5t97.5 37.5q24 0 47.5 -8.5t42 -25.5t29.5 -42t11 -59q0 -41 -12 -71.5t-33 -63.5l-85 -135h-30z
M590 310q49 0 79.5 28.5t30.5 81.5t-30 81.5t-75 28.5q-49 0 -79.5 -28.5t-30.5 -81.5t30 -81.5t75 -28.5zM500 -70q-88 0 -164.5 32.5t-133.5 89.5t-89.5 133.5t-32.5 164.5t32.5 164.5t89.5 133.5t133.5 89.5t164.5 32.5t164.5 -32.5t133.5 -89.5t89.5 -133.5t32.5 -164.5
t-32.5 -164.5t-89.5 -133.5t-133.5 -89.5t-164.5 -32.5zM500 -45q82 0 154.5 31t125.5 84t84 125t31 155q0 82 -31 154.5t-84 125.5t-125.5 84t-154.5 31q-83 0 -155 -31t-125 -84t-84 -125.5t-31 -154.5q0 -83 31 -155t84 -125t125 -84t155 -31z" />
    <glyph glyph-name="uni2473" unicode="&#x2473;" 
d="M220 175l182 169q21 20 32 40t11 46q0 49 -26.5 74.5t-68.5 25.5q-49 0 -73 -25t-32 -70h-25q8 53 39 86.5t91 33.5t90 -36t30 -89q0 -34 -14 -57t-31 -39l-170 -159h210v-25h-245v25zM653 144q-70 0 -106.5 53.5t-36.5 151.5t36.5 151.5t106.5 53.5t106 -53.5t36 -151.5
t-36 -151.5t-106 -53.5zM653 169q24 0 45 10t37 31.5t25.5 55.5t9.5 83t-9.5 83t-25.5 55.5t-37 31.5t-45 10t-45 -10t-37.5 -31.5t-26 -55.5t-9.5 -83t9.5 -83t26 -55.5t37.5 -31.5t45 -10zM500 -70q-88 0 -164.5 32.5t-133.5 89.5t-89.5 133.5t-32.5 164.5t32.5 164.5
t89.5 133.5t133.5 89.5t164.5 32.5t164.5 -32.5t133.5 -89.5t89.5 -133.5t32.5 -164.5t-32.5 -164.5t-89.5 -133.5t-133.5 -89.5t-164.5 -32.5zM500 -45q82 0 154.5 31t125.5 84t84 125t31 155q0 82 -31 154.5t-84 125.5t-125.5 84t-154.5 31q-83 0 -155 -31t-125 -84
t-84 -125.5t-31 -154.5q0 -83 31 -155t84 -125t125 -84t155 -31z" />
    <glyph glyph-name="uni24EA" unicode="&#x24ea;" 
d="M498 145q-70 0 -106.5 53.5t-36.5 151.5t36.5 151.5t106.5 53.5t106 -53.5t36 -151.5t-36 -151.5t-106 -53.5zM498 170q24 0 45 10t37 31.5t25.5 55.5t9.5 83t-9.5 83t-25.5 55.5t-37 31.5t-45 10t-45 -10t-37.5 -31.5t-26 -55.5t-9.5 -83t9.5 -83t26 -55.5t37.5 -31.5
t45 -10zM500 -70q-88 0 -164.5 32.5t-133.5 89.5t-89.5 133.5t-32.5 164.5t32.5 164.5t89.5 133.5t133.5 89.5t164.5 32.5t164.5 -32.5t133.5 -89.5t89.5 -133.5t32.5 -164.5t-32.5 -164.5t-89.5 -133.5t-133.5 -89.5t-164.5 -32.5zM500 -45q82 0 154.5 31t125.5 84t84 125
t31 155q0 82 -31 154.5t-84 125.5t-125.5 84t-154.5 31q-83 0 -155 -31t-125 -84t-84 -125.5t-31 -154.5q0 -83 31 -155t84 -125t125 -84t155 -31z" />
    <glyph glyph-name="uni24EB" unicode="&#x24eb;" 
d="M500 -70q-88 0 -164.5 32.5t-133.5 89.5t-89.5 133.5t-32.5 164.5t32.5 164.5t89.5 133.5t133.5 89.5t164.5 32.5t164.5 -32.5t133.5 -89.5t89.5 -133.5t32.5 -164.5t-32.5 -164.5t-89.5 -133.5t-133.5 -89.5t-164.5 -32.5zM415 150v400h-25v-45q0 -25 -25 -25h-65v-25
h90v-305h25zM640 150v400h-25v-45q0 -25 -25 -25h-65v-25h90v-305h25z" />
    <glyph glyph-name="uni24EC" unicode="&#x24ec;" 
d="M500 -70q-88 0 -164.5 32.5t-133.5 89.5t-89.5 133.5t-32.5 164.5t32.5 164.5t89.5 133.5t133.5 89.5t164.5 32.5t164.5 -32.5t133.5 -89.5t89.5 -133.5t32.5 -164.5t-32.5 -164.5t-89.5 -133.5t-133.5 -89.5t-164.5 -32.5zM370 150v400h-25v-45q0 -25 -25 -25h-65v-25
h90v-305h25zM715 150v25h-210l170 159q17 16 31 39t14 57q0 53 -30 89t-90 36t-91 -33.5t-39 -86.5h25q8 45 32 70t73 25q42 0 68.5 -25.5t26.5 -74.5q0 -26 -11 -46t-32 -40l-182 -169v-25h245z" />
    <glyph glyph-name="uni24ED" unicode="&#x24ed;" 
d="M500 -70q-88 0 -164.5 32.5t-133.5 89.5t-89.5 133.5t-32.5 164.5t32.5 164.5t89.5 133.5t133.5 89.5t164.5 32.5t164.5 -32.5t133.5 -89.5t89.5 -133.5t32.5 -164.5t-32.5 -164.5t-89.5 -133.5t-133.5 -89.5t-164.5 -32.5zM365 150v400h-25v-45q0 -25 -25 -25h-65v-25
h90v-305h25zM590 145q60 0 92.5 33t32.5 82q0 30 -16 57t-54 40q26 6 45.5 28t19.5 60q0 21 -7.5 40.5t-23 35t-39 25t-55.5 9.5q-28 0 -51 -9.5t-40 -26t-27 -38.5t-12 -46h25q8 49 35.5 72t69.5 23t71 -22.5t29 -67.5q0 -34 -22.5 -52t-52.5 -18h-65v-25h55q42 0 66 -23.5
t24 -61.5t-23.5 -64t-76.5 -26q-26 0 -46 7.5t-33.5 19.5t-21 26t-9.5 27h-25q8 -49 45 -77t90 -28z" />
    <glyph glyph-name="uni24EE" unicode="&#x24ee;" 
d="M500 -70q-88 0 -164.5 32.5t-133.5 89.5t-89.5 133.5t-32.5 164.5t32.5 164.5t89.5 133.5t133.5 89.5t164.5 32.5t164.5 -32.5t133.5 -89.5t89.5 -133.5t32.5 -164.5t-32.5 -164.5t-89.5 -133.5t-133.5 -89.5t-164.5 -32.5zM365 150v400h-25v-45q0 -25 -25 -25h-65v-25
h90v-305h25zM680 150v90h55v25h-55v285h-40l-200 -285v-25h215v-90h25zM650 523h5v-258h-185z" />
    <glyph glyph-name="uni24EF" unicode="&#x24ef;" 
d="M500 -70q-88 0 -164.5 32.5t-133.5 89.5t-89.5 133.5t-32.5 164.5t32.5 164.5t89.5 133.5t133.5 89.5t164.5 32.5t164.5 -32.5t133.5 -89.5t89.5 -133.5t32.5 -164.5t-32.5 -164.5t-89.5 -133.5t-133.5 -89.5t-164.5 -32.5zM365 150v400h-25v-45q0 -25 -25 -25h-65v-25
h90v-305h25zM580 145q60 0 97.5 38t37.5 102q0 30 -10 55t-27 42.5t-41 27.5t-52 10q-38 0 -60.5 -15t-32.5 -30h-5l18 150h190v25h-210l-25 -215h30q30 60 95 60q45 0 75 -28.5t30 -81.5q0 -57 -30.5 -86t-79.5 -29q-26 0 -44.5 7.5t-30.5 20t-19 27.5t-11 30h-25
q8 -49 42.5 -79.5t87.5 -30.5z" />
    <glyph glyph-name="uni24F0" unicode="&#x24f0;" 
d="M500 -70q-88 0 -164.5 32.5t-133.5 89.5t-89.5 133.5t-32.5 164.5t32.5 164.5t89.5 133.5t133.5 89.5t164.5 32.5t164.5 -32.5t133.5 -89.5t89.5 -133.5t32.5 -164.5t-32.5 -164.5t-89.5 -133.5t-133.5 -89.5t-164.5 -32.5zM365 150v400h-25v-45q0 -25 -25 -25h-65v-25
h90v-305h25zM585 145q60 0 97.5 37.5t37.5 97.5q0 30 -10 55t-27 42.5t-41 27.5t-52 10q-21 0 -36 -5.5t-25 -12.5q-11 -8 -19 -17h-5l110 170h-30l-85 -135q-21 -33 -33 -63.5t-12 -71.5q0 -34 11 -59t29.5 -42t42 -25.5t47.5 -8.5zM585 170q-45 0 -75 28.5t-30 81.5
t30.5 81.5t79.5 28.5q45 0 75 -28.5t30 -81.5t-30.5 -81.5t-79.5 -28.5z" />
    <glyph glyph-name="uni24F1" unicode="&#x24f1;" 
d="M500 -70q-88 0 -164.5 32.5t-133.5 89.5t-89.5 133.5t-32.5 164.5t32.5 164.5t89.5 133.5t133.5 89.5t164.5 32.5t164.5 -32.5t133.5 -89.5t89.5 -133.5t32.5 -164.5t-32.5 -164.5t-89.5 -133.5t-133.5 -89.5t-164.5 -32.5zM395 150v400h-25v-45q0 -25 -25 -25h-65v-25
h90v-305h25zM555 150l170 380v20h-250v-25h222l-167 -375h25z" />
    <glyph glyph-name="uni24F2" unicode="&#x24f2;" 
d="M500 -70q-88 0 -164.5 32.5t-133.5 89.5t-89.5 133.5t-32.5 164.5t32.5 164.5t89.5 133.5t133.5 89.5t164.5 32.5t164.5 -32.5t133.5 -89.5t89.5 -133.5t32.5 -164.5t-32.5 -164.5t-89.5 -133.5t-133.5 -89.5t-164.5 -32.5zM370 150v400h-25v-45q0 -25 -25 -25h-65v-25
h90v-305h25zM595 145q26 0 49.5 7t41.5 22t28.5 36.5t10.5 49.5q0 30 -18 59.5t-52 40.5q60 30 60 90q0 22 -9 41.5t-25 33.5t-38 22t-48 8t-48 -8t-38 -22t-25 -33.5t-9 -41.5q0 -60 60 -90q-34 -11 -52 -40.5t-18 -59.5q0 -28 10.5 -49.5t28.5 -36.5t41.5 -22t49.5 -7z
M595 170q-56 0 -80.5 26t-24.5 62q0 42 28 64.5t77 22.5t77 -22.5t28 -64.5q0 -36 -24.5 -62t-80.5 -26zM595 370q-42 0 -68.5 21.5t-26.5 61.5q0 35 26.5 56t68.5 21t68.5 -21t26.5 -56q0 -40 -26.5 -61.5t-68.5 -21.5z" />
    <glyph glyph-name="uni24F3" unicode="&#x24f3;" 
d="M500 -70q-88 0 -164.5 32.5t-133.5 89.5t-89.5 133.5t-32.5 164.5t32.5 164.5t89.5 133.5t133.5 89.5t164.5 32.5t164.5 -32.5t133.5 -89.5t89.5 -133.5t32.5 -164.5t-32.5 -164.5t-89.5 -133.5t-133.5 -89.5t-164.5 -32.5zM370 150v400h-25v-45q0 -25 -25 -25h-65v-25
h90v-305h25zM595 150l85 135q21 33 33 63.5t12 71.5q0 34 -11 59t-29.5 42t-42 25.5t-47.5 8.5q-60 0 -97.5 -37.5t-37.5 -97.5q0 -30 10 -55t27 -42.5t41 -27.5t52 -10q20 0 35.5 5t25.5 12q11 8 19 18h5l-110 -170h30zM590 310q-45 0 -75 28.5t-30 81.5t30.5 81.5
t79.5 28.5q45 0 75 -28.5t30 -81.5t-30.5 -81.5t-79.5 -28.5z" />
    <glyph glyph-name="uni24F4" unicode="&#x24f4;" 
d="M500 -70q-88 0 -164.5 32.5t-133.5 89.5t-89.5 133.5t-32.5 164.5t32.5 164.5t89.5 133.5t133.5 89.5t164.5 32.5t164.5 -32.5t133.5 -89.5t89.5 -133.5t32.5 -164.5t-32.5 -164.5t-89.5 -133.5t-133.5 -89.5t-164.5 -32.5zM465 150v25h-210l170 159q17 16 31 39t14 57
q0 53 -30 89t-90 36t-91 -33.5t-39 -86.5h25q8 45 32 70t73 25q42 0 68.5 -25.5t26.5 -74.5q0 -26 -11 -46t-32 -40l-182 -169v-25h245zM653 144q70 0 106 53.5t36 151.5t-36 151.5t-106 53.5t-106.5 -53.5t-36.5 -151.5t36.5 -151.5t106.5 -53.5zM653 169q-24 0 -45 10
t-37.5 31.5t-26 55.5t-9.5 83t9.5 83t26 55.5t37.5 31.5t45 10t45 -10t37 -31.5t25.5 -55.5t9.5 -83t-9.5 -83t-25.5 -55.5t-37 -31.5t-45 -10z" />
    <glyph glyph-name="uni24FF" unicode="&#x24ff;" 
d="M500 -70q-88 0 -164.5 32.5t-133.5 89.5t-89.5 133.5t-32.5 164.5t32.5 164.5t89.5 133.5t133.5 89.5t164.5 32.5t164.5 -32.5t133.5 -89.5t89.5 -133.5t32.5 -164.5t-32.5 -164.5t-89.5 -133.5t-133.5 -89.5t-164.5 -32.5zM498 145q70 0 106 53.5t36 151.5t-36 151.5
t-106 53.5t-106.5 -53.5t-36.5 -151.5t36.5 -151.5t106.5 -53.5zM498 170q-24 0 -45 10t-37.5 31.5t-26 55.5t-9.5 83t9.5 83t26 55.5t37.5 31.5t45 10t45 -10t37 -31.5t25.5 -55.5t9.5 -83t-9.5 -83t-25.5 -55.5t-37 -31.5t-45 -10z" />
    <glyph glyph-name="lozenge" unicode="&#x25ca;" horiz-adv-x="570" 
d="M50 350l225 350h20l225 -350l-225 -350h-20zM490 350l-205 322l-205 -322l205 -321z" />
    <glyph glyph-name="uni2776" unicode="&#x2776;" 
d="M500 -70q-88 0 -164.5 32.5t-133.5 89.5t-89.5 133.5t-32.5 164.5t32.5 164.5t89.5 133.5t133.5 89.5t164.5 32.5t164.5 -32.5t133.5 -89.5t89.5 -133.5t32.5 -164.5t-32.5 -164.5t-89.5 -133.5t-133.5 -89.5t-164.5 -32.5zM520 150v400h-25v-45q0 -25 -25 -25h-65v-25
h90v-305h25z" />
    <glyph glyph-name="uni2777" unicode="&#x2777;" 
d="M500 -70q-88 0 -164.5 32.5t-133.5 89.5t-89.5 133.5t-32.5 164.5t32.5 164.5t89.5 133.5t133.5 89.5t164.5 32.5t164.5 -32.5t133.5 -89.5t89.5 -133.5t32.5 -164.5t-32.5 -164.5t-89.5 -133.5t-133.5 -89.5t-164.5 -32.5zM620 150v25h-210l170 159q17 16 31 39t14 57
q0 53 -30 89t-90 36t-91 -33.5t-39 -86.5h25q8 45 32 70t73 25q42 0 68.5 -25.5t26.5 -74.5q0 -26 -11 -46t-32 -40l-182 -169v-25h245z" />
    <glyph glyph-name="uni2778" unicode="&#x2778;" 
d="M500 -70q-88 0 -164.5 32.5t-133.5 89.5t-89.5 133.5t-32.5 164.5t32.5 164.5t89.5 133.5t133.5 89.5t164.5 32.5t164.5 -32.5t133.5 -89.5t89.5 -133.5t32.5 -164.5t-32.5 -164.5t-89.5 -133.5t-133.5 -89.5t-164.5 -32.5zM510 145q60 0 92.5 33t32.5 82q0 30 -16 57
t-54 40q26 6 45.5 28t19.5 60q0 21 -7.5 40.5t-23 35t-39 25t-55.5 9.5q-28 0 -51 -9.5t-40 -26t-27 -38.5t-12 -46h25q8 49 35.5 72t69.5 23t71 -22.5t29 -67.5q0 -34 -22.5 -52t-52.5 -18h-65v-25h55q42 0 66 -23.5t24 -61.5t-23.5 -64t-76.5 -26q-26 0 -46 7.5
t-33.5 19.5t-21 26t-9.5 27h-25q8 -49 45 -77t90 -28z" />
    <glyph glyph-name="uni2779" unicode="&#x2779;" 
d="M500 -70q-88 0 -164.5 32.5t-133.5 89.5t-89.5 133.5t-32.5 164.5t32.5 164.5t89.5 133.5t133.5 89.5t164.5 32.5t164.5 -32.5t133.5 -89.5t89.5 -133.5t32.5 -164.5t-32.5 -164.5t-89.5 -133.5t-133.5 -89.5t-164.5 -32.5zM575 150v90h55v25h-55v285h-40l-200 -285v-25
h215v-90h25zM545 523h5v-258h-185z" />
    </font>
</defs>
</svg>
