<svg xmlns="http://www.w3.org/2000/svg">
<defs>
<font id="TTInterphases-ThinItalic" horiz-adv-x="1000" >
  <font-face 
    font-family="TT Interphases Thin"
    font-weight="100"
    font-style="italic"
    font-stretch="normal"
    units-per-em="1000"
    panose-1="2 0 5 3 2 0 0 9 0 4"
    ascent="760"
    descent="-240"
    x-height="510"
    cap-height="700"
    bbox="-350 -245 1508 985"
    underline-thickness="50"
    underline-position="-200"
    slope="-11"
    unicode-range="U+000D-FB04"
  />
<missing-glyph horiz-adv-x="900" 
d="M100 284h45v-139h33v139h50v31h-128v126l19 -61h23l34 106l33 -106h23l54 170h-32l-34 -110l-35 110h-19l-35 -110l-31 103v157h700v-150h-110v-170h110v-91q-13 27 -50 27q-29 0 -44.5 -14.5t-15.5 -34.5q0 -22 13.5 -32t30 -15t30.5 -9.5t14 -16.5q0 -14 -9.5 -17.5
t-18.5 -3.5q-15 0 -21.5 7.5t-6.5 17.5h-33q0 -24 16.5 -39.5t44.5 -15.5q20 0 32.5 7.5t17.5 12.5v-163h-700v284zM328 143q38 0 60 25t22 61q0 37 -22.5 62t-59.5 25t-59.5 -25t-22.5 -62q0 -36 22 -61t60 -25zM328 174q-23 0 -37 16t-14 39q0 24 13.5 40t37.5 16
t37.5 -16t13.5 -40q0 -23 -14 -39t-37 -16zM549 315h-32v-106q0 -29 19.5 -47.5t48.5 -18.5t48 18.5t19 47.5v106h-32v-106q0 -15 -9 -25t-26 -10q-18 0 -27 11t-9 24v106zM344 380v62h24l35 -62h37l-40 67q36 16 36 50q0 21 -15.5 37t-41.5 16h-68v-170h33zM344 519h35
q10 0 17 -6t7 -17q0 -13 -8 -18t-16 -5h-35v46zM502 380v170h-33v-170h33zM800 262v-38q-11 10 -24 14.5t-24.5 8.5t-19.5 8t-8 12q0 9 7.5 14.5t18.5 5.5q10 0 18 -6.5t8 -18.5h24zM612 380v139h50v31h-132v-31h50v-139h32zM722 452h78v-41h-78v41zM722 519h78v-36h-78v36z
" />
    <glyph glyph-name="ff" unicode="ff" horiz-adv-x="565" 
d="M204 485h-90l5 25h90l19 99q8 43 32.5 67t69.5 24h81l-5 -25h-76q-30 0 -50 -15.5t-27 -49.5l-19 -100h245l19 99q8 43 32.5 67t69.5 24h81l-5 -25h-76q-30 0 -50 -15.5t-27 -49.5l-19 -100h140l-5 -25h-140l-94 -485h-25l94 485h-245l-94 -485h-25z" />
    <glyph glyph-name="fi" unicode="fi" horiz-adv-x="490" 
d="M204 485h-90l5 25h90l19 99q8 43 32.5 67t69.5 24h81l-5 -25h-76q-30 0 -50 -15.5t-27 -49.5l-19 -100h270l-99 -510h-25l94 485h-245l-94 -485h-25zM520 625q-25 0 -25 23q0 13 8.5 20t17.5 7q25 0 25 -23q0 -13 -8.5 -20t-17.5 -7z" />
    <glyph glyph-name="fl" unicode="fl" horiz-adv-x="495" 
d="M204 485h-90l5 25h90l19 99q8 43 32.5 67t69.5 24h211l-136 -700h-25l131 675h-181q-30 0 -50 -15.5t-27 -49.5l-19 -100h140l-5 -25h-140l-94 -485h-25z" />
    <glyph glyph-name="ffi" unicode="ffi" horiz-adv-x="760" 
d="M204 485h-90l5 25h90l19 99q8 43 32.5 67t69.5 24h81l-5 -25h-76q-30 0 -50 -15.5t-27 -49.5l-19 -100h245l19 99q8 43 32.5 67t69.5 24h81l-5 -25h-76q-30 0 -50 -15.5t-27 -49.5l-19 -100h270l-99 -510h-25l94 485h-245l-94 -485h-25l94 485h-245l-94 -485h-25z
M790 625q-25 0 -25 23q0 13 8.5 20t17.5 7q25 0 25 -23q0 -13 -8.5 -20t-17.5 -7z" />
    <glyph glyph-name="ffl" unicode="ffl" horiz-adv-x="765" 
d="M204 485h-90l5 25h90l19 99q8 43 32.5 67t69.5 24h81l-5 -25h-76q-30 0 -50 -15.5t-27 -49.5l-19 -100h245l19 99q8 43 32.5 67t69.5 24h211l-136 -700h-25l131 675h-181q-30 0 -50 -15.5t-27 -49.5l-19 -100h140l-5 -25h-140l-94 -485h-25l94 485h-245l-94 -485h-25z
" />
    <glyph glyph-name="f_f_j" unicode="ffj" horiz-adv-x="760" 
d="M476 -175h79q29 0 48 16.5t25 48.5l116 595h-245l-94 -485h-25l94 485h-245l-94 -485h-25l94 485h-90l5 25h90l19 99q8 43 32.5 67t69.5 24h81l-5 -25h-76q-30 0 -50 -15.5t-27 -49.5l-19 -100h245l19 99q8 43 32.5 67t69.5 24h81l-5 -25h-76q-30 0 -50 -15.5t-27 -49.5
l-19 -100h270l-121 -620q-9 -45 -34.5 -67.5t-63.5 -22.5h-83zM790 625q-25 0 -25 23q0 13 8.5 20t17.5 7q25 0 25 -23q0 -13 -8.5 -20t-17.5 -7z" />
    <glyph glyph-name="f_j" unicode="fj" horiz-adv-x="490" 
d="M206 -175h79q29 0 48 16.5t25 48.5l116 595h-245l-94 -485h-25l94 485h-90l5 25h90l19 99q8 43 32.5 67t69.5 24h81l-5 -25h-76q-30 0 -50 -15.5t-27 -49.5l-19 -100h270l-121 -620q-9 -45 -34.5 -67.5t-63.5 -22.5h-83zM520 625q-25 0 -25 23q0 13 8.5 20t17.5 7
q25 0 25 -23q0 -13 -8.5 -20t-17.5 -7z" />
    <glyph glyph-name=".notdef" horiz-adv-x="900" 
d="M100 284h45v-139h33v139h50v31h-128v126l19 -61h23l34 106l33 -106h23l54 170h-32l-34 -110l-35 110h-19l-35 -110l-31 103v157h700v-150h-110v-170h110v-91q-13 27 -50 27q-29 0 -44.5 -14.5t-15.5 -34.5q0 -22 13.5 -32t30 -15t30.5 -9.5t14 -16.5q0 -14 -9.5 -17.5
t-18.5 -3.5q-15 0 -21.5 7.5t-6.5 17.5h-33q0 -24 16.5 -39.5t44.5 -15.5q20 0 32.5 7.5t17.5 12.5v-163h-700v284zM328 143q38 0 60 25t22 61q0 37 -22.5 62t-59.5 25t-59.5 -25t-22.5 -62q0 -36 22 -61t60 -25zM328 174q-23 0 -37 16t-14 39q0 24 13.5 40t37.5 16
t37.5 -16t13.5 -40q0 -23 -14 -39t-37 -16zM549 315h-32v-106q0 -29 19.5 -47.5t48.5 -18.5t48 18.5t19 47.5v106h-32v-106q0 -15 -9 -25t-26 -10q-18 0 -27 11t-9 24v106zM344 380v62h24l35 -62h37l-40 67q36 16 36 50q0 21 -15.5 37t-41.5 16h-68v-170h33zM344 519h35
q10 0 17 -6t7 -17q0 -13 -8 -18t-16 -5h-35v46zM502 380v170h-33v-170h33zM800 262v-38q-11 10 -24 14.5t-24.5 8.5t-19.5 8t-8 12q0 9 7.5 14.5t18.5 5.5q10 0 18 -6.5t8 -18.5h24zM612 380v139h50v31h-132v-31h50v-139h32zM722 452h78v-41h-78v41zM722 519h78v-36h-78v36z
" />
    <glyph glyph-name=".null" horiz-adv-x="0" 
 />
    <glyph glyph-name=".null" horiz-adv-x="0" 
 />
    <glyph glyph-name="nonmarkingreturn" unicode="&#xd;" horiz-adv-x="0" 
 />
    <glyph glyph-name="space" unicode=" " horiz-adv-x="200" 
 />
    <glyph glyph-name="exclam" unicode="!" horiz-adv-x="245" 
d="M127 -5q-14 0 -20 8t-6 17q0 11 8 20.5t22 9.5t20 -8t6 -17q0 -11 -8 -20.5t-22 -9.5zM229 640l12 60h30l-12 -60l-91 -440h-20z" />
    <glyph glyph-name="quotedbl" unicode="&#x22;" horiz-adv-x="295" 
d="M201 700h25l-39 -200h-25zM331 700h25l-39 -200h-25z" />
    <glyph glyph-name="numbersign" unicode="#" horiz-adv-x="595" 
d="M195 210h-125l10 25h126l94 230h-125l10 25h125l86 210h25l-86 -210h175l86 210h25l-86 -210h125l-10 -25h-126l-94 -230h125l-10 -25h-125l-85 -210h-25l85 210h-175l-85 -210h-25zM405 235l94 230h-174l-94 -230h174z" />
    <glyph glyph-name="dollar" unicode="$" horiz-adv-x="590" 
d="M279 -6q-79 13 -131.5 60.5t-63.5 125.5h26q8 -45 30.5 -76.5t53.5 -51t67.5 -28.5t72.5 -9q48 0 87 14.5t66.5 39t43 56t15.5 65.5q0 41 -16.5 67t-43 43t-60.5 28t-70 20t-70 20.5t-60.5 29.5t-43 46t-16.5 71q0 40 14.5 76t43 62t69 41.5t93.5 15.5h13.5t18.5 -1
l20 101h25l-20 -104q72 -11 118 -52.5t57 -113.5h-27q-6 28 -19.5 54t-38.5 46.5t-61.5 32.5t-88.5 12q-38 0 -73 -10.5t-61.5 -31t-42 -51.5t-15.5 -73q0 -52 28 -79.5t70.5 -44t91.5 -28t91.5 -30.5t70.5 -51.5t28 -91.5q0 -34 -14 -70t-43.5 -66t-74 -49t-105.5 -19
h-13.5t-17.5 1l-19 -101h-25z" />
    <glyph glyph-name="percent" unicode="%" horiz-adv-x="715" 
d="M696 700h32l-571 -700h-32zM542 -10q-64 0 -96 36t-32 89q0 36 11 68t31.5 56t48.5 37.5t62 13.5q64 0 96 -36t32 -89q0 -36 -11.5 -68t-31.5 -56t-48 -37.5t-62 -13.5zM545 15q30 0 53 12t39 32t24.5 47t8.5 56q0 43 -25 73t-81 30q-30 0 -53 -12t-39 -32.5t-24.5 -47
t-8.5 -55.5q0 -43 25 -73t81 -30zM286 410q-64 0 -96 36t-32 89q0 36 11 68t31.5 56t48.5 37.5t62 13.5q64 0 96 -36t32 -89q0 -36 -11.5 -68t-31.5 -56t-48 -37.5t-62 -13.5zM289 435q30 0 53 12t39 32t24.5 47t8.5 56q0 43 -25 73t-81 30q-30 0 -53 -12t-39 -32.5
t-24.5 -47t-8.5 -55.5q0 -43 25 -73t81 -30z" />
    <glyph glyph-name="ampersand" unicode="&#x26;" horiz-adv-x="615" 
d="M270 -10q-42 0 -74.5 11.5t-54 31.5t-32.5 46t-11 56q0 28 5.5 52t19 45.5t36.5 42.5t59 42l89 54l-36 44q-19 23 -36.5 53.5t-17.5 74.5q0 36 12.5 67t36 53t57 34.5t74.5 12.5q36 0 63.5 -11.5t47 -30t29.5 -42t10 -48.5q0 -22 -5 -42t-19 -39.5t-38 -39.5t-61 -42
l-82 -50l177 -219l132 114h34l-152 -131l104 -129h-31l-91 113q-32 -27 -59.5 -49.5t-56 -39t-60 -25.5t-69.5 -9zM274 15q55 0 107.5 27.5t119.5 88.5l-180 222l-102 -63q-30 -18 -48.5 -37t-29 -38t-14.5 -39t-4 -40q0 -53 41 -87t110 -34zM421 441q19 12 37.5 25t32.5 29
t22.5 35t8.5 42q0 21 -7.5 41.5t-23.5 36t-39.5 25.5t-56.5 10q-31 0 -59 -8.5t-49 -26t-33 -43.5t-12 -62q0 -38 13 -63.5t35 -51.5l38 -46z" />
    <glyph glyph-name="quotesingle" unicode="'" horiz-adv-x="165" 
d="M201 700h25l-39 -200h-25z" />
    <glyph glyph-name="parenleft" unicode="(" horiz-adv-x="290" 
d="M191 -200q-25 52 -42.5 127t-17.5 172q0 103 21.5 198t56.5 176t79 146.5t88 110.5h27q-119 -133 -183 -293t-64 -340q0 -81 13.5 -151.5t45.5 -145.5h-24v0z" />
    <glyph glyph-name="parenright" unicode=")" horiz-adv-x="290" 
d="M-14 -200q119 133 183 293t64 340q0 81 -13.5 151.5t-45.5 145.5h24q25 -52 42.5 -127t17.5 -172q0 -104 -21.5 -198.5t-56.5 -175.5t-79 -146.5t-88 -110.5h-27v0z" />
    <glyph glyph-name="asterisk" unicode="*" horiz-adv-x="465" 
d="M195 390l106 130l-1 3l-155 47l10 25l150 -55l3 3l-3 157h25l-3 -157l3 -3l150 55l10 -25l-155 -47l-1 -3l106 -130l-20 -15l-101 135h-3l-101 -135z" />
    <glyph glyph-name="plus" unicode="+" horiz-adv-x="535" 
d="M315 285h-205v25h205v210h25v-210h205v-25h-205v-210h-25v210z" />
    <glyph glyph-name="comma" unicode="," horiz-adv-x="195" 
d="M104 100h35l-104 -200h-15z" />
    <glyph glyph-name="hyphen" unicode="-" horiz-adv-x="370" 
d="M98 300h290l-5 -25h-290z" />
    <glyph glyph-name="period" unicode="." horiz-adv-x="195" 
d="M99 -5q-14 0 -20 8t-6 17q0 11 8 20.5t22 9.5t20 -8t6 -17q0 -11 -8 -20.5t-22 -9.5z" />
    <glyph glyph-name="slash" unicode="/" horiz-adv-x="315" 
d="M431 730h28l-469 -930h-28z" />
    <glyph glyph-name="zero" unicode="0" horiz-adv-x="650" 
d="M348 -10q-49 0 -91.5 15.5t-73.5 49t-48.5 85.5t-17.5 125t19.5 151.5t59.5 144t99 107.5t139 42q49 0 91.5 -15.5t73.5 -49t48.5 -85.5t17.5 -125t-19.5 -151.5t-59.5 -144t-99.5 -107.5t-138.5 -42zM352 15q48 0 88 18.5t72 50.5t56 73.5t40 88.5t24 95.5t8 93.5
q0 69 -16.5 117t-45 77.5t-67 42.5t-81.5 13q-48 0 -88 -18.5t-72 -50.5t-56 -73.5t-40 -88.5t-24 -95.5t-8 -93.5q0 -69 16.5 -117t45 -77.5t67 -42.5t81.5 -13z" />
    <glyph glyph-name="one" unicode="1" horiz-adv-x="305" 
d="M291 575h-135l5 25h95q40 0 48 40l12 60h25l-136 -700h-25z" />
    <glyph glyph-name="two" unicode="2" horiz-adv-x="545" 
d="M59 25l391 340q20 18 39 34.5t33.5 37t23.5 45.5t9 59q0 33 -13 60t-36 45.5t-54 28.5t-67 10q-49 0 -83.5 -16.5t-58.5 -42t-39 -55.5t-24 -56h-25q30 94 89 144.5t146 50.5q43 0 78 -13t60 -35.5t38.5 -52.5t13.5 -64q0 -36 -8.5 -63t-23.5 -49.5t-35 -42.5t-44 -40
l-375 -325h395l-4 -25h-430z" />
    <glyph glyph-name="three" unicode="3" horiz-adv-x="565" 
d="M314 -10q-42 0 -81.5 13t-71 37.5t-50.5 61t-20 83.5h25q3 -32 15.5 -62.5t37 -54.5t60.5 -38.5t85 -14.5q37 0 74 12t66.5 36t47.5 59.5t18 82.5q0 26 -9.5 50.5t-28.5 43t-46 30t-63 11.5h-69l4 25h97q42 0 73.5 16t52 40.5t31 53.5t10.5 55q0 24 -8 51.5t-28.5 50.5
t-55 38t-87.5 15q-47 0 -82 -16t-60.5 -41t-42 -55t-25.5 -58h-25q13 47 36.5 83.5t55 61t69 37.5t79.5 13q46 0 83 -14t63 -38t39.5 -55.5t13.5 -67.5t-11 -66.5t-30.5 -54.5t-46.5 -41t-58 -26q45 -17 69.5 -55t24.5 -87q0 -50 -18.5 -90t-50.5 -67.5t-74 -42.5t-88 -15z
" />
    <glyph glyph-name="four" unicode="4" horiz-adv-x="520" 
d="M410 185h-350l5 25l431 490h40l-96 -490h90l-5 -25h-90l-35 -185h-25zM415 210l90 459h-5l-403 -459h318z" />
    <glyph glyph-name="five" unicode="5" horiz-adv-x="570" 
d="M315 -10q-42 0 -80 13t-67 37.5t-47 61t-20 83.5h25q5 -79 57.5 -124.5t135.5 -45.5q57 0 99 23.5t69.5 58.5t41 75t13.5 74q0 38 -12 71.5t-35.5 58.5t-58 39.5t-79.5 14.5q-53 0 -103.5 -29t-81.5 -86h-34l110 385h365l-5 -25h-344l-90 -312h5q36 50 85.5 71t97.5 21
q43 0 80.5 -15t65 -42.5t43.5 -66t16 -84.5q0 -55 -20.5 -102t-55.5 -81.5t-80.5 -54t-95.5 -19.5z" />
    <glyph glyph-name="six" unicode="6" horiz-adv-x="570" 
d="M314 -10q-41 0 -79 13.5t-67 39t-47 63.5t-18 88q0 37 9 70t26 64.5t41 63t54 66.5q24 28 58.5 69.5t66.5 79.5q37 45 77 93h30l-240 -287h5q56 37 124 37q46 0 85 -15t67.5 -42.5t44 -65t15.5 -82.5q0 -57 -21 -104t-56 -80.5t-80.5 -52t-94.5 -18.5zM320 15
q54 0 95.5 21.5t69.5 54.5t42 73t14 77q0 33 -10.5 66t-34 59t-59.5 42.5t-87 16.5q-55 0 -96.5 -21.5t-69.5 -54.5t-42 -73t-14 -77q0 -33 10.5 -66t34 -59t60 -42.5t87.5 -16.5z" />
    <glyph glyph-name="seven" unicode="7" horiz-adv-x="500" 
d="M548 675h-395l5 25h425l-5 -25l-426 -675h-30z" />
    <glyph glyph-name="eight" unicode="8" horiz-adv-x="570" 
d="M311 -10q-51 0 -90 14.5t-66 39.5t-41 58t-14 69q0 33 11 65t33.5 58.5t56.5 46.5t79 29q-39 16 -69.5 52.5t-30.5 92.5q0 43 16.5 79t45.5 61.5t68.5 40t84.5 14.5q47 0 83.5 -13t62 -35.5t38.5 -53t13 -65.5q0 -42 -15 -75t-38.5 -56.5t-52.5 -37.5t-57 -18
q58 -26 84.5 -67.5t26.5 -88.5q0 -45 -17 -83.5t-48 -66.5t-73 -44t-91 -16zM311 15q38 0 74.5 12.5t65.5 36t46.5 56.5t17.5 74q0 33 -14.5 61.5t-39.5 49.5t-59 33t-73 12q-38 0 -74.5 -12.5t-65.5 -36t-46.5 -56.5t-17.5 -74q0 -33 14.5 -61.5t39.5 -49.5t59 -33t73 -12z
M384 375q50 0 85 17t56.5 42.5t31.5 55t10 55.5q0 25 -9 50t-30 45t-55 32.5t-85 12.5q-50 0 -85 -17t-57 -42.5t-31.5 -55t-9.5 -55.5q0 -25 9 -50t30 -45t55 -32.5t85 -12.5z" />
    <glyph glyph-name="nine" unicode="9" horiz-adv-x="570" 
d="M477 287h-5q-56 -37 -122 -37q-47 0 -85.5 15t-67 42.5t-44 65t-15.5 82.5q0 57 21 104t56 80.5t80.5 52t94.5 18.5q40 0 78.5 -13.5t67.5 -39t47 -64t18 -87.5q0 -37 -9 -70t-26 -64.5t-41 -63.5t-54 -66q-25 -29 -59 -70t-66 -79q-37 -45 -77 -93h-32zM354 275
q55 0 96.5 21.5t69.5 54.5t42 73t14 77q0 33 -10.5 66t-34 59t-60 42.5t-87.5 16.5q-54 0 -95.5 -21.5t-69.5 -54.5t-42 -73t-14 -77q0 -33 10.5 -66t34 -59t59.5 -42.5t87 -16.5z" />
    <glyph glyph-name="colon" unicode=":" horiz-adv-x="195" 
d="M99 -5q-14 0 -20 8t-6 17q0 11 8 20.5t22 9.5t20 -8t6 -17q0 -11 -8 -20.5t-22 -9.5zM188 455q-14 0 -20 8t-6 17q0 11 8 20.5t22 9.5t20 -8t6 -17q0 -11 -8 -20.5t-22 -9.5z" />
    <glyph glyph-name="semicolon" unicode=";" horiz-adv-x="195" 
d="M104 100h35l-104 -200h-15zM188 455q-14 0 -20 8t-6 17q0 11 8 20.5t22 9.5t20 -8t6 -17q0 -11 -8 -20.5t-22 -9.5z" />
    <glyph glyph-name="less" unicode="&#x3c;" horiz-adv-x="540" 
d="M110 275v40l410 195v-30l-390 -185l390 -185v-30z" />
    <glyph glyph-name="equal" unicode="=" horiz-adv-x="535" 
d="M108 225h435v-25h-435v25zM108 395h435v-25h-435v25z" />
    <glyph glyph-name="greater" unicode="&#x3e;" horiz-adv-x="540" 
d="M126 110l390 185l-390 185v30l410 -195v-40l-410 -195v30z" />
    <glyph glyph-name="question" unicode="?" horiz-adv-x="480" 
d="M244 -5q-14 0 -20 8t-6 17q0 11 8 20.5t22 9.5t20 -8t6 -17q0 -11 -8 -20.5t-22 -9.5zM266 244q6 33 13 54.5t19 37.5t31.5 30t51.5 32q31 17 52.5 33.5t35 35t19.5 40t6 48.5q0 30 -12 54t-33 41t-49.5 26t-62.5 9q-39 0 -69.5 -13t-53.5 -35t-38.5 -51t-23.5 -61h-25
q9 39 27.5 72.5t45 58.5t62 39.5t79.5 14.5q47 0 80.5 -13.5t55.5 -35t32 -48.5t10 -55q0 -56 -26.5 -97.5t-95.5 -79.5q-27 -15 -45 -26t-29.5 -25.5t-19 -35.5t-13.5 -55l-8 -39h-25z" />
    <glyph glyph-name="at" unicode="@" horiz-adv-x="910" 
d="M479 -90q-77 0 -142.5 20.5t-113 62t-74.5 103.5t-27 145q0 105 33 188t90 141t133.5 89t162.5 31t154.5 -25t116 -69t73 -104t25.5 -131q0 -72 -15.5 -124.5t-40.5 -87.5t-57.5 -52t-66.5 -17q-26 0 -43.5 8.5t-28.5 20.5t-15.5 26t-4.5 26h-5q-24 -35 -63 -58t-86 -23
q-73 0 -116.5 44.5t-43.5 122.5q0 61 17.5 108t46 79.5t65.5 49t76 16.5q57 0 91.5 -27.5t51.5 -72.5h5l30 95h15l-57 -287q-3 -15 -3 -28q0 -38 19.5 -56.5t50.5 -18.5q37 0 65.5 21.5t48 57t29.5 81.5t10 94q0 54 -18 108.5t-59 98.5t-107 71.5t-163 27.5
q-83 0 -154.5 -29t-124 -84.5t-82.5 -135t-30 -180.5q0 -74 24.5 -130t68 -94t103.5 -57.5t131 -19.5h109l-5 -25h-99zM486 105q34 0 65 15.5t55 44.5t38.5 70.5t14.5 93.5q0 69 -37 107.5t-100 38.5q-34 0 -65 -15.5t-55 -44.5t-38.5 -70.5t-14.5 -93.5q0 -69 37 -107.5
t100 -38.5z" />
    <glyph glyph-name="A" unicode="A" horiz-adv-x="595" 
d="M431 700h35l129 -700h-23l-37 200h-365l-113 -200h-27zM530 225l-82 450h-5l-258 -450h345z" />
    <glyph glyph-name="B" unicode="B" horiz-adv-x="640" 
d="M236 700h264q36 0 67 -11t54 -31t36 -49.5t13 -65.5q0 -76 -40 -128t-108 -68q48 -20 71 -56t23 -83q0 -48 -15.5 -86.5t-42.5 -65.5t-65 -41.5t-83 -14.5h-310zM410 25q45 0 79 15t56.5 40t34 57.5t11.5 67.5q0 28 -10.5 52.5t-30 43t-49 29t-66.5 10.5h-244l-62 -315
h281zM469 365q39 0 71.5 13t56 36.5t36 55t12.5 69.5q0 27 -10 52t-30 43.5t-49 29.5t-66 11h-234l-61 -310h274z" />
    <glyph glyph-name="C" unicode="C" horiz-adv-x="690" 
d="M392 -10q-62 0 -111.5 19t-84.5 56t-54 89.5t-19 120.5q0 96 26.5 175.5t72.5 137.5t108.5 90t134.5 32q104 0 169.5 -52t87.5 -143h-24q-23 75 -80 122.5t-154 47.5q-64 0 -121.5 -29.5t-100.5 -83.5t-68.5 -129.5t-25.5 -167.5q0 -62 17.5 -110.5t49.5 -81.5
t77.5 -50.5t101.5 -17.5q76 0 145.5 41.5t113.5 128.5h28q-20 -41 -48 -77t-64 -62t-80 -41t-97 -15z" />
    <glyph glyph-name="D" unicode="D" horiz-adv-x="680" 
d="M236 700h199q58 0 106.5 -19t83 -54.5t53.5 -86.5t19 -115q0 -84 -24.5 -161t-69 -135.5t-106.5 -93.5t-137 -35h-260zM355 25q69 0 127.5 32.5t100.5 87t65.5 127t23.5 153.5q0 58 -18 104.5t-50.5 78.5t-77 49.5t-96.5 17.5h-174l-126 -650h225z" />
    <glyph glyph-name="E" unicode="E" horiz-adv-x="600" 
d="M236 700h420l-5 -25h-395l-61 -310h375l-4 -25h-375l-62 -315h405l-4 -25h-430z" />
    <glyph glyph-name="F" unicode="F" horiz-adv-x="580" 
d="M236 700h415l-5 -25h-390l-62 -320h365l-5 -25h-365l-64 -330h-25z" />
    <glyph glyph-name="G" unicode="G" horiz-adv-x="700" 
d="M392 -10q-62 0 -111.5 19t-84.5 56t-54 89.5t-19 120.5q0 96 26.5 175.5t72.5 137.5t108.5 90t134.5 32q104 0 169.5 -52t87.5 -143h-24q-23 75 -80 122.5t-154 47.5q-64 0 -121.5 -29.5t-100.5 -83.5t-68.5 -129.5t-25.5 -167.5q0 -62 17.5 -110.5t49.5 -81.5
t77.5 -50.5t101.5 -17.5q52 0 100 19.5t87 57t66 92.5t36 126h-260l5 25h285l-10 -50q-15 -74 -44 -129t-69.5 -92t-90.5 -55.5t-107 -18.5z" />
    <glyph glyph-name="H" unicode="H" horiz-adv-x="705" 
d="M236 700h25l-66 -335h455l66 335h25l-136 -700h-25l66 340h-455l-66 -340h-25z" />
    <glyph glyph-name="I" unicode="I" horiz-adv-x="225" 
d="M236 700h25l-136 -700h-25z" />
    <glyph glyph-name="J" unicode="J" horiz-adv-x="525" 
d="M242 -10q-50 0 -86.5 15.5t-60.5 41t-35.5 57.5t-11.5 66h26q4 -75 51 -115t118 -40q72 0 124.5 46.5t69.5 129.5l99 509h25l-99 -508q-10 -50 -31 -87.5t-50 -63t-64.5 -38.5t-74.5 -13z" />
    <glyph glyph-name="K" unicode="K" horiz-adv-x="530" 
d="M236 700h25l-66 -335l426 335h37l-439 -347l314 -353h-33l-308 345l-67 -345h-25z" />
    <glyph glyph-name="L" unicode="L" horiz-adv-x="500" 
d="M236 700h25l-132 -675h395l-4 -25h-420z" />
    <glyph glyph-name="M" unicode="M" horiz-adv-x="835" 
d="M236 700h33l151 -662h5l409 662h37l-136 -700h-25l126 653h-5l-401 -653h-25l-149 653h-5l-126 -653h-25z" />
    <glyph glyph-name="N" unicode="N" horiz-adv-x="725" 
d="M236 700h30l337 -662h5l128 662h25l-136 -700h-30l-337 662h-5l-128 -662h-25z" />
    <glyph glyph-name="O" unicode="O" horiz-adv-x="720" 
d="M393 -10q-62 0 -112 19t-85 56t-54 89.5t-19 120.5q0 81 22 159t65.5 139.5t107.5 99t148 37.5q61 0 111 -19t85 -56t54 -90t19 -120q0 -81 -22 -159t-65.5 -139.5t-107.5 -99t-147 -37.5zM395 15q71 0 129 33t99.5 89.5t64 130.5t22.5 157q0 58 -16.5 106t-48 82
t-77.5 53t-105 19q-71 0 -129.5 -33t-99.5 -89.5t-63.5 -131t-22.5 -156.5q0 -58 16.5 -106t48 -82t77.5 -53t105 -19z" />
    <glyph glyph-name="P" unicode="P" horiz-adv-x="620" 
d="M236 700h219q90 0 145 -44.5t55 -130.5q0 -58 -17 -103.5t-47 -77t-71 -48t-90 -16.5h-251l-54 -280h-25zM425 305q43 0 80.5 13.5t65 40.5t43.5 68.5t16 97.5q0 37 -14 65.5t-37.5 47t-54 28t-64.5 9.5h-204l-72 -370h241z" />
    <glyph glyph-name="Q" unicode="Q" horiz-adv-x="720" 
d="M504 11q-25 -10 -53 -15.5t-58 -5.5q-62 0 -112 19t-85 56t-54 89.5t-19 120.5q0 81 22 159t65.5 139.5t107.5 99t148 37.5q61 0 111 -19t85 -56t54 -90t19 -120q0 -62 -13.5 -123.5t-39.5 -115t-64.5 -96.5t-88.5 -68l59 -122h-30zM395 15q26 0 51 5t48 14l-93 191h30
l87 -180q45 23 80.5 62t60 88.5t38 108t13.5 121.5q0 58 -16.5 106t-48 82t-77.5 53t-105 19q-71 0 -129.5 -33t-99.5 -89.5t-63.5 -131t-22.5 -156.5q0 -58 16.5 -106t48 -82t77.5 -53t105 -19z" />
    <glyph glyph-name="R" unicode="R" horiz-adv-x="620" 
d="M236 700h222q41 0 77 -10.5t62.5 -31.5t42 -52.5t15.5 -74.5q0 -53 -15.5 -95.5t-44.5 -72.5t-71 -46.5t-94 -16.5h-52l157 -300h-27l-157 300h-168l-58 -300h-25zM428 325q90 0 146 51.5t56 151.5q0 69 -47.5 108t-122.5 39h-204l-68 -350h240z" />
    <glyph glyph-name="S" unicode="S" horiz-adv-x="590" 
d="M334 -10q-50 0 -93 13t-75.5 37t-54 59.5t-27.5 80.5h26q8 -45 30.5 -76.5t53.5 -51t67.5 -28.5t72.5 -9q48 0 87 14.5t66.5 39t43 56t15.5 65.5q0 41 -16.5 67t-43 43t-60.5 28t-70 20t-70 20.5t-60.5 29.5t-43 46t-16.5 71q0 40 14.5 76t43 62t69 41.5t93.5 15.5
q94 0 156.5 -41.5t75.5 -128.5h-27q-6 28 -19.5 54t-38.5 46.5t-61.5 32.5t-88.5 12q-38 0 -73 -10.5t-61.5 -31t-42 -51.5t-15.5 -73q0 -52 28 -79.5t70.5 -44t91.5 -28t91.5 -30.5t70.5 -51.5t28 -91.5q0 -34 -14 -70t-43.5 -66t-74 -49t-105.5 -19z" />
    <glyph glyph-name="T" unicode="T" horiz-adv-x="580" 
d="M396 675h-250l5 25h525l-5 -25h-250l-131 -675h-25z" />
    <glyph glyph-name="U" unicode="U" horiz-adv-x="700" 
d="M376 -10q-54 0 -97.5 16t-74 46t-47.5 73t-17 96q0 17 2 35.5t6 38.5l79 405h25l-79 -408q-7 -34 -7 -68q0 -97 56 -153t154 -56q45 0 85.5 15.5t73 45t55.5 72.5t34 99l88 453h25l-88 -453q-12 -62 -38 -110t-62 -80.5t-80 -49.5t-93 -17z" />
    <glyph glyph-name="V" unicode="V" horiz-adv-x="595" 
d="M146 700h26l117 -674h5l379 674h28l-394 -700h-39z" />
    <glyph glyph-name="W" unicode="W" horiz-adv-x="885" 
d="M156 700h26l53 -665h5l316 665h33l56 -665h5l313 665h28l-329 -700h-39l-56 655h-5l-310 -655h-39z" />
    <glyph glyph-name="X" unicode="X" horiz-adv-x="545" 
d="M324 360l-158 340h26l149 -320l275 320h30l-292 -340l166 -360h-26l-156 340l-288 -340h-30z" />
    <glyph glyph-name="Y" unicode="Y" horiz-adv-x="555" 
d="M302 270l-166 430h26l154 -400h5l310 400h30l-334 -430l-52 -270h-25z" />
    <glyph glyph-name="Z" unicode="Z" horiz-adv-x="550" 
d="M38 20l557 655h-419l5 25h455l-4 -20l-557 -655h434l-4 -25h-470z" />
    <glyph glyph-name="bracketleft" unicode="[" horiz-adv-x="290" 
d="M241 730h150l-4 -25h-125l-172 -880h125l-4 -25h-150z" />
    <glyph glyph-name="backslash" unicode="\" horiz-adv-x="315" 
d="M151 730h25l110 -930h-25z" />
    <glyph glyph-name="bracketright" unicode="]" horiz-adv-x="290" 
d="M5 -175h125l172 880h-125l4 25h150l-180 -930h-150z" />
    <glyph glyph-name="asciicircum" unicode="^" horiz-adv-x="445" 
d="M278 700h35l150 -320h-30l-135 290h-5l-135 -290h-30z" />
    <glyph glyph-name="underscore" unicode="_" horiz-adv-x="340" 
d="M-27 -140h379l-5 -25h-379z" />
    <glyph glyph-name="grave" unicode="`" horiz-adv-x="190" 
d="M171 730h37l63 -140h-17z" />
    <glyph glyph-name="a" unicode="a" horiz-adv-x="520" 
d="M247 -10q-79 0 -122 36.5t-43 98.5q0 36 12.5 65.5t35 50.5t54 32.5t69.5 11.5h219l6 30q2 12 3.5 25.5t1.5 24.5q0 63 -40.5 96.5t-116.5 33.5q-33 0 -58 -9.5t-44 -26t-33.5 -38.5t-26.5 -46h-23q20 64 69.5 104.5t118.5 40.5q45 0 79 -12t56 -33t33 -50t11 -62
q0 -11 -1.5 -23t-3.5 -24l-61 -316h-20l12 90h-5q-27 -45 -74.5 -72.5t-107.5 -27.5zM247 15q39 0 74 14t62 38t45.5 56t25.5 67l14 70h-215q-37 0 -64.5 -11t-45.5 -29.5t-27 -42t-9 -47.5q0 -53 38 -84t102 -31z" />
    <glyph glyph-name="b" unicode="b" horiz-adv-x="590" 
d="M335 -10q-69 0 -120 37t-67 109h-5l-33 -136h-20l136 700h25l-57 -291h5q37 60 89 85.5t101 25.5t86.5 -16t63 -44.5t38.5 -67.5t13 -85q0 -74 -21 -133t-56.5 -100t-81.5 -62.5t-96 -21.5zM338 15q54 0 96.5 25t71.5 66t44 93t15 106q0 40 -10.5 74.5t-32 60t-54.5 40.5
t-78 15q-54 0 -96.5 -25t-71.5 -66t-44 -93t-15 -106q0 -40 10.5 -74.5t32 -60t54.5 -40.5t78 -15z" />
    <glyph glyph-name="c" unicode="c" horiz-adv-x="545" 
d="M310 -10q-48 0 -86.5 15t-65.5 43t-41.5 68t-14.5 89q0 74 22 132.5t58 99t82.5 62t96.5 21.5q34 0 65.5 -8.5t58 -26.5t46 -45.5t29.5 -64.5h-26q-8 24 -22 46t-35 38.5t-50 26t-67 9.5q-55 0 -98.5 -24.5t-73.5 -65t-45.5 -91.5t-15.5 -104q0 -39 10.5 -74t33 -62
t57 -43t82.5 -16q66 0 114 32.5t80 87.5h28q-15 -30 -37 -56.5t-50.5 -46t-62.5 -31t-72 -11.5z" />
    <glyph glyph-name="d" unicode="d" horiz-adv-x="590" 
d="M303 -10q-49 0 -86.5 16t-63 44.5t-38.5 67.5t-13 85q0 74 21 133t56 100t81.5 62.5t96.5 21.5q34 0 65.5 -10t56.5 -29t42.5 -47t23.5 -64h5l64 330h25l-136 -700h-20l15 98h-5q-38 -59 -89.5 -83.5t-100.5 -24.5zM302 15q54 0 96.5 25t71.5 66t44 93t15 106
q0 40 -10.5 74.5t-32 60t-54.5 40.5t-78 15q-54 0 -96.5 -25t-71.5 -66t-44 -93t-15 -106q0 -40 10.5 -74.5t32 -60t54.5 -40.5t78 -15z" />
    <glyph glyph-name="e" unicode="e" horiz-adv-x="555" 
d="M310 -10q-96 0 -152 57.5t-56 156.5q0 74 22 133t58 99.5t82 62t94 21.5q45 0 82.5 -14.5t64.5 -41t42 -64.5t15 -85q0 -8 -1.5 -29t-5.5 -36h-426q-1 -8 -1.5 -16.5t-0.5 -23.5q0 -39 10.5 -74.5t33 -62.5t58 -42.5t84.5 -15.5q63 0 111 33t80 87h28q-36 -71 -96.5 -108
t-125.5 -37zM534 275q3 18 3 35q0 40 -12 74t-35 58.5t-57 38.5t-77 14q-44 0 -81 -17.5t-65.5 -47.5t-48 -70t-28.5 -85h401z" />
    <glyph glyph-name="f" unicode="f" horiz-adv-x="295" 
d="M204 485h-90l5 25h90l19 99q8 43 32.5 67t69.5 24h81l-5 -25h-76q-30 0 -50 -15.5t-27 -49.5l-19 -100h140l-5 -25h-140l-94 -485h-25z" />
    <glyph glyph-name="g" unicode="g" horiz-adv-x="585" 
d="M281 -200q-39 0 -75 8t-65.5 26.5t-50.5 48t-30 72.5h27q19 -71 72 -100.5t125 -29.5q76 0 125.5 41.5t63.5 111.5l30 155h-5q-42 -55 -90 -79t-98 -24q-48 0 -85.5 16t-64 44t-40 66.5t-13.5 82.5q0 60 20 111.5t54 89t79.5 59t96.5 21.5q64 0 115 -33t74 -106h5l31 129
h20l-104 -535q-16 -80 -70.5 -127.5t-146.5 -47.5zM311 55q47 0 87.5 20.5t70.5 55t47 81t17 97.5q0 38 -11.5 71.5t-34 59t-56 40.5t-78.5 15q-47 0 -87.5 -20.5t-70.5 -55t-47 -81t-17 -97.5q0 -38 11.5 -71.5t34 -59t56 -40.5t78.5 -15z" />
    <glyph glyph-name="h" unicode="h" horiz-adv-x="560" 
d="M226 700h25l-54 -280h5q24 42 69 71t98 29q79 0 126.5 -46t47.5 -124q0 -27 -6 -55l-57 -295h-25l58 299q2 12 3.5 23.5t1.5 22.5q0 32 -10 59.5t-29 47.5t-46.5 31.5t-63.5 11.5q-34 0 -65.5 -13.5t-57 -37.5t-44 -56t-25.5 -68l-62 -320h-25z" />
    <glyph glyph-name="i" unicode="i" horiz-adv-x="195" 
d="M184 510h25l-99 -510h-25zM225 625q-25 0 -25 23q0 13 8.5 20t17.5 7q25 0 25 -23q0 -13 -8.5 -20t-17.5 -7z" />
    <glyph glyph-name="j" unicode="j" horiz-adv-x="195" 
d="M-89 -175h79q29 0 48 16.5t25 48.5l121 620h25l-121 -620q-9 -45 -34.5 -67.5t-63.5 -22.5h-83zM225 625q-25 0 -25 23q0 13 8.5 20t17.5 7q25 0 25 -23q0 -13 -8.5 -20t-17.5 -7z" />
    <glyph glyph-name="k" unicode="k" horiz-adv-x="435" 
d="M226 700h25l-84 -430l327 240h38l-342 -252l253 -258h-33l-247 250l-48 -250h-25z" />
    <glyph glyph-name="l" unicode="l" horiz-adv-x="205" 
d="M226 700h25l-136 -700h-25z" />
    <glyph glyph-name="m" unicode="m" horiz-adv-x="870" 
d="M184 510h20l-12 -85h5q29 53 71 74t87 21q26 0 50.5 -8.5t45 -24t35 -38.5t20.5 -52h5q30 66 78 94.5t99 28.5q77 0 121 -47.5t44 -124.5q0 -11 -1.5 -23.5t-3.5 -26.5l-58 -298h-25l58 300q2 11 3.5 24t1.5 21q0 68 -39 109t-101 41q-31 0 -59.5 -11.5t-51.5 -33
t-39.5 -52t-23.5 -67.5l-64 -331h-25l58 300q5 23 5 45q0 30 -9 57t-26.5 47.5t-44 33t-60.5 12.5q-29 0 -57.5 -12.5t-52 -35t-41 -54t-24.5 -68.5l-63 -325h-25z" />
    <glyph glyph-name="n" unicode="n" horiz-adv-x="555" 
d="M184 510h20l-12 -90h5q24 42 69 71t98 29q79 0 126.5 -46t47.5 -124q0 -27 -6 -55l-57 -295h-25l58 299q2 12 3.5 23.5t1.5 22.5q0 32 -10 59.5t-29 47.5t-46.5 31.5t-63.5 11.5q-34 0 -65.5 -13.5t-57 -37.5t-44 -56t-25.5 -68l-62 -320h-25z" />
    <glyph glyph-name="o" unicode="o" horiz-adv-x="570" 
d="M311 -10q-48 0 -86.5 15t-66 43t-42 68t-14.5 89q0 74 22 132.5t58 99t82.5 62t96.5 21.5q48 0 86.5 -15t66 -43t42 -68t14.5 -89q0 -74 -22 -132.5t-58 -99t-82.5 -62t-96.5 -21.5zM312 15q55 0 98.5 24.5t73.5 65t45.5 91t15.5 103.5q0 39 -10.5 74.5t-33 62.5
t-57.5 43t-84 16q-55 0 -98.5 -24.5t-73.5 -65t-45.5 -91.5t-15.5 -103q0 -39 10.5 -74.5t33 -62.5t57.5 -43t84 -16z" />
    <glyph glyph-name="p" unicode="p" horiz-adv-x="585" 
d="M184 510h20l-15 -98h5q38 59 89.5 83.5t100.5 24.5t86.5 -16t63 -44.5t38.5 -67.5t13 -85q0 -74 -21 -133t-56.5 -100t-81.5 -62.5t-96 -21.5q-34 0 -65.5 10t-56.5 29t-42.5 47t-23.5 64h-5l-66 -340h-25zM333 15q54 0 96.5 25t71.5 66t44 93t15 106q0 40 -10.5 74.5
t-32 60t-54.5 40.5t-78 15q-54 0 -96.5 -25t-71.5 -66t-44 -93t-15 -106q0 -40 10.5 -74.5t32 -60t54.5 -40.5t78 -15z" />
    <glyph glyph-name="q" unicode="q" horiz-adv-x="585" 
d="M497 100h-5q-37 -60 -88.5 -85t-100.5 -25t-86.5 16t-63 44.5t-38.5 67.5t-13 85q0 74 21 133t56 100t81.5 62.5t96.5 21.5q69 0 120 -37t67 -109h5l33 136h20l-138 -710h-25zM302 15q54 0 96.5 25t71.5 66t44 93t15 106q0 40 -10.5 74.5t-32 60t-54.5 40.5t-78 15
q-54 0 -96.5 -25t-71.5 -66t-44 -93t-15 -106q0 -40 10.5 -74.5t32 -60t54.5 -40.5t78 -15z" />
    <glyph glyph-name="r" unicode="r" horiz-adv-x="345" 
d="M184 510h20l-13 -90h5q22 42 61 66t88 24h74l-5 -25h-64q-36 0 -65.5 -13t-52.5 -35.5t-38.5 -52.5t-21.5 -64l-62 -320h-25z" />
    <glyph glyph-name="s" unicode="s" horiz-adv-x="470" 
d="M268 -10q-38 0 -71.5 9t-59.5 27t-43 45t-23 64h26q4 -24 16 -46t32 -38.5t50.5 -26t72.5 -9.5q32 0 60 7t48.5 22t32.5 37.5t12 52.5q0 39 -21.5 60t-54 33t-70.5 19.5t-70.5 21t-54 36.5t-21.5 67q0 67 46.5 108t127.5 41q79 0 125 -35t54 -95h-25q-3 15 -11.5 33.5
t-26.5 34t-46.5 26.5t-71.5 11q-69 0 -108 -32.5t-39 -85.5q0 -39 21.5 -59.5t54 -32t70.5 -19t70.5 -21t54 -38t21.5 -69.5q0 -65 -46.5 -106.5t-131.5 -41.5z" />
    <glyph glyph-name="t" unicode="t" horiz-adv-x="320" 
d="M215 0q-42 0 -65 21.5t-23 57.5q0 11 3 25l74 381h-90l5 25h90l32 140h20l-27 -140h140l-5 -25h-140l-75 -383q-1 -5 -1.5 -9t-0.5 -9q0 -26 15 -42.5t53 -16.5h59l-4 -25h-60v0z" />
    <glyph glyph-name="u" unicode="u" horiz-adv-x="554" 
d="M295 -10q-79 0 -126.5 46t-47.5 124q0 26 6 55l57 295h25l-58 -299q-2 -12 -3.5 -23.5t-1.5 -22.5q0 -32 10 -59.5t29 -47.5t46.5 -31.5t63.5 -11.5q34 0 65.5 13.5t57 37.5t44 56t25.5 68l62 320h25l-99 -510h-20l12 90h-5q-24 -42 -69 -71t-98 -29z" />
    <glyph glyph-name="v" unicode="v" horiz-adv-x="465" 
d="M99 510h26l98 -485h5l288 485h28l-304 -510h-35z" />
    <glyph glyph-name="w" unicode="w" horiz-adv-x="675" 
d="M109 510h25l44 -475h5l235 475h25l49 -475h5l230 475h27l-249 -510h-31l-49 465h-5l-229 -465h-31z" />
    <glyph glyph-name="x" unicode="x" horiz-adv-x="420" 
d="M247 265l-123 245h27l111 -226l199 226h33l-219 -245l130 -265h-27l-118 246l-212 -246h-33z" />
    <glyph glyph-name="y" unicode="y" horiz-adv-x="470" 
d="M219 2l-119 508h25l110 -470h6l281 470h28l-424 -710h-28z" />
    <glyph glyph-name="z" unicode="z" horiz-adv-x="435" 
d="M28 20l425 465h-324l5 25h360l-4 -20l-425 -465h339l-4 -25h-375z" />
    <glyph glyph-name="braceleft" unicode="{" horiz-adv-x="290" 
d="M183 -200q-40 0 -60.5 22t-20.5 58q0 8 1 16.5t3 17.5l49 251q3 13 3 27q0 25 -14 39t-39 14l8 40q36 0 53 15.5t25 53.5l54 276q10 49 33 74.5t65 25.5h46l-4 -25h-42q-26 0 -45.5 -16.5t-27.5 -58.5l-54 -278q-8 -42 -27 -63t-54 -21l-2 -10q50 -11 50 -65
q0 -14 -3 -30l-50 -253q-3 -15 -3 -27q0 -27 16 -42.5t50 -15.5h20l-4 -25h-26v0z" />
    <glyph glyph-name="bar" unicode="|" horiz-adv-x="265" 
d="M191 730h25v-930h-25v930z" />
    <glyph glyph-name="braceright" unicode="}" horiz-adv-x="290" 
d="M10 -175h42q26 0 45.5 16.5t27.5 58.5l54 278q8 42 27 63t54 21l2 10q-50 11 -50 65q0 13 3 30l50 253q3 15 3 27q0 27 -16 42.5t-50 15.5h-20l4 25h26q40 0 60.5 -22t20.5 -58q0 -8 -1 -16.5t-3 -17.5l-49 -251q-3 -14 -3 -27q0 -25 14 -39t39 -14l-8 -40
q-36 0 -53 -15.5t-25 -53.5l-54 -276q-10 -49 -33 -74.5t-65 -25.5h-46z" />
    <glyph glyph-name="asciitilde" unicode="~" horiz-adv-x="550" 
d="M125 235q0 24 6.5 46t19.5 38.5t33 26t46 9.5q37 0 62 -15t46.5 -32.5t44.5 -32.5t57 -15q38 0 59 26.5t21 68.5h25q0 -24 -6.5 -46t-19.5 -38.5t-33 -26t-46 -9.5q-38 0 -62.5 15t-46 32.5t-44.5 32.5t-57 15q-38 0 -59 -26.5t-21 -68.5h-25v0z" />
    <glyph glyph-name="nonbreakingspace" unicode="&#xa0;" horiz-adv-x="200" 
 />
    <glyph glyph-name="exclamdown" unicode="&#xa1;" horiz-adv-x="235" 
d="M81 -140l93 450h20l-83 -450l-12 -60h-30zM211 460q-14 0 -20 8t-6 17q0 11 8 20.5t22 9.5t20 -8t6 -17q0 -11 -8 -20.5t-22 -9.5z" />
    <glyph glyph-name="cent" unicode="&#xa2;" horiz-adv-x="545" 
d="M276 -8q-81 11 -127.5 67t-46.5 146q0 74 22 132.5t58 99t82.5 62t96.5 21.5q2 0 6 -0.5t8 -0.5h8l19 101h25l-20 -104q54 -10 95 -44.5t58 -96.5h-26q-8 24 -22 46t-35 38.5t-50 26t-67 9.5q-55 0 -98.5 -24.5t-73.5 -65t-45.5 -91.5t-15.5 -104q0 -39 10.5 -74t33 -62
t57 -43t82.5 -16q66 0 114 32.5t80 87.5h28q-15 -30 -37 -56.5t-50.5 -46t-62.5 -31t-72 -11.5h-10l-20 -100h-25z" />
    <glyph glyph-name="sterling" unicode="&#xa3;" horiz-adv-x="565" 
d="M64 25h31q26 0 40.5 16t22.5 54l45 230h-80l5 25h80l32 166q9 45 27.5 81t44.5 61t59 38.5t70 13.5q74 0 120.5 -43t46.5 -137h-25q0 26 -6.5 53.5t-23 50t-43.5 37t-69 14.5q-64 0 -112 -44t-64 -125l-32 -166h195l-5 -25h-195l-46 -235q-4 -19 -9.5 -31t-10.5 -20
q-6 -9 -12 -14h384l-4 -25h-470z" />
    <glyph glyph-name="currency" unicode="&#xa4;" horiz-adv-x="550" 
d="M140 125l58 61q-25 26 -39 61.5t-14 77.5t14 77.5t39 61.5l-58 61l15 15l60 -60q54 45 130 45t130 -45l60 60l15 -15l-58 -61q25 -26 39 -61.5t14 -77.5t-14 -77.5t-39 -61.5l58 -61l-15 -15l-60 60q-54 -45 -130 -45t-130 45l-60 -60zM345 150q39 0 71.5 14t55.5 38
t35.5 55.5t12.5 67.5t-12.5 67.5t-35.5 55.5t-55.5 38t-71.5 14t-71.5 -14t-55.5 -38t-35.5 -55.5t-12.5 -67.5t12.5 -67.5t35.5 -55.5t55.5 -38t71.5 -14z" />
    <glyph glyph-name="yen" unicode="&#xa5;" horiz-adv-x="545" 
d="M279 150h-200l5 25h200l20 105h-200l5 25h183l-146 395h26l145 -395h5l299 395h30l-300 -395h183l-5 -25h-200l-20 -105h200l-5 -25h-200l-29 -150h-25z" />
    <glyph glyph-name="brokenbar" unicode="&#xa6;" horiz-adv-x="265" 
d="M191 170h25v-370h-25v370zM191 730h25v-370h-25v370z" />
    <glyph glyph-name="section" unicode="&#xa7;" horiz-adv-x="610" 
d="M338 -120q-56 0 -97.5 14t-70 37t-44.5 52.5t-20 61.5h26q6 -24 18.5 -49t36 -45.5t60.5 -33t92 -12.5q76 0 122.5 35.5t46.5 97.5q0 48 -27.5 72t-69 37t-89.5 20t-89.5 20.5t-69 40t-27.5 77.5q0 32 11 56t28 41.5t37 29.5t38 21q-15 11 -31 33.5t-16 64.5
q0 36 14 65.5t40 50.5t61.5 32t79.5 11q56 0 97.5 -14t70 -37t44 -52.5t20.5 -61.5h-26q-6 24 -18.5 49t-36 45.5t-60.5 33t-92 12.5q-76 0 -122.5 -35.5t-46.5 -97.5q0 -48 27.5 -72t69 -37t89.5 -20t89.5 -20.5t69 -40t27.5 -77.5q0 -32 -11 -56t-28 -41.5t-37 -29.5
t-38 -21q15 -11 31 -33.5t16 -64.5q0 -36 -14 -65.5t-40 -50.5t-62 -32t-79 -11zM464 153q21 9 41 20.5t35.5 27t25 36t9.5 48.5q0 32 -15.5 52.5t-41 33t-58 19.5t-66 13t-65.5 13.5t-57 20.5q-21 -9 -41 -20.5t-35.5 -27t-25 -36t-9.5 -48.5q0 -33 15.5 -53t41 -32.5
t58 -19.5t66 -13t65.5 -13.5t57 -20.5z" />
    <glyph glyph-name="dieresis" unicode="&#xa8;" horiz-adv-x="270" 
d="M178 635q-11 0 -17 6.5t-6 16.5q0 12 8 19.5t19 7.5t17 -6.5t6 -16.5q0 -12 -8 -19.5t-19 -7.5zM338 635q-11 0 -17 6.5t-6 16.5q0 12 8 19.5t19 7.5t17 -6.5t6 -16.5q0 -12 -8 -19.5t-19 -7.5z" />
    <glyph glyph-name="copyright" unicode="&#xa9;" horiz-adv-x="860" 
d="M497 -10q-79 0 -145 26.5t-114 74.5t-74.5 114t-26.5 145t26.5 145t74.5 114t114 74.5t145 26.5t145 -26.5t114 -74.5t74.5 -114t26.5 -145t-26.5 -145t-74.5 -114t-114 -74.5t-145 -26.5zM497 15q69 0 130 23t106.5 66t72 105t26.5 141t-26.5 141t-72 105t-106.5 66
t-130 23t-130 -23t-106.5 -66t-72 -105t-26.5 -141t26.5 -141t72 -105t106.5 -66t130 -23zM502 160q-36 0 -66 13t-52 37t-34.5 59.5t-12.5 80.5t12.5 80.5t34.5 59.5t52 37t66 13q57 0 96 -30.5t56 -79.5h-27q-15 38 -45.5 61.5t-79.5 23.5q-60 0 -100 -41t-40 -124
t40 -124t100 -41q49 0 79.5 23.5t45.5 61.5h27q-17 -49 -56 -79.5t-96 -30.5z" />
    <glyph glyph-name="ordfeminine" unicode="&#xaa;" horiz-adv-x="365" 
d="M248 350q-32 0 -55 8.5t-38 22.5t-22 32t-7 37t6.5 37.5t20 33.5t34 24.5t48.5 9.5h165l3 14q1 5 1.5 11t0.5 11q0 19 -6.5 36t-20 30t-33 20.5t-46.5 7.5q-42 0 -68.5 -22.5t-37.5 -52.5h-25q6 22 19.5 40.5t31.5 32t39.5 20.5t43.5 7q60 0 94.5 -32t34.5 -80
q0 -8 -1 -16.5t-3 -16.5l-40 -210h-15l8 69h-5q-6 -13 -18.5 -26t-29 -23.5t-37 -17.5t-42.5 -7zM248 375q57 0 94 36t48 89l6 30h-164q-32 0 -56.5 -20t-24.5 -58q0 -14 6 -27.5t18 -24.5t30.5 -18t42.5 -7z" />
    <glyph glyph-name="guillemotleft" unicode="&#xab;" horiz-adv-x="510" 
d="M106 265l244 225h33l-246 -227v-2l153 -221h-28zM276 265l244 225h33l-246 -227v-2l153 -221h-28z" />
    <glyph glyph-name="logicalnot" unicode="&#xac;" horiz-adv-x="490" 
d="M468 325h-360v25h385v-175h-25v150z" />
    <glyph glyph-name="uni00AD" unicode="&#xad;" horiz-adv-x="370" 
d="M98 300h290l-5 -25h-290z" />
    <glyph glyph-name="registered" unicode="&#xae;" horiz-adv-x="860" 
d="M497 -10q-79 0 -145 26.5t-114 74.5t-74.5 114t-26.5 145t26.5 145t74.5 114t114 74.5t145 26.5t145 -26.5t114 -74.5t74.5 -114t26.5 -145t-26.5 -145t-74.5 -114t-114 -74.5t-145 -26.5zM497 15q69 0 130 23t106.5 66t72 105t26.5 141t-26.5 141t-72 105t-106.5 66
t-130 23t-130 -23t-106.5 -66t-72 -105t-26.5 -141t26.5 -141t72 -105t106.5 -66t130 -23zM387 540h140q53 0 86.5 -28.5t33.5 -81.5q0 -28 -9.5 -49t-25.5 -34.5t-37 -20t-43 -6.5l115 -155h-30l-115 155h-90v-155h-25v375zM522 345q100 0 100 85t-100 85h-110v-170h110z
" />
    <glyph glyph-name="macron" unicode="&#xaf;" horiz-adv-x="320" 
d="M160 670h260l-5 -25h-260z" />
    <glyph glyph-name="degree" unicode="&#xb0;" horiz-adv-x="370" 
d="M273 455q-53 0 -89 34.5t-36 93.5q0 29 9.5 52.5t26.5 40t40 25.5t49 9t49 -9t40 -25.5t26.5 -40t9.5 -52.5q0 -59 -36 -93.5t-89 -34.5zM273 480q42 0 71 26t29 77t-29 76.5t-71 25.5t-71 -25.5t-29 -76.5t29 -77t71 -26z" />
    <glyph glyph-name="plusminus" unicode="&#xb1;" horiz-adv-x="535" 
d="M100 25h435v-25h-435v25zM305 300h-205v25h205v195h25v-195h205v-25h-205v-195h-25v195z" />
    <glyph glyph-name="uni00B2" unicode="&#xb2;" horiz-adv-x="335" 
d="M117 425l215 169q33 26 47.5 49t14.5 57q0 37 -25.5 58.5t-63.5 21.5q-45 0 -72 -26t-40 -69h-25q4 22 15 44t28 38.5t40.5 27t53.5 10.5q25 0 46.5 -8t36.5 -21.5t23.5 -32t8.5 -38.5q0 -24 -5 -42t-13.5 -32t-20.5 -25.5t-25 -21.5l-201 -159h207l-5 -25h-245z" />
    <glyph glyph-name="uni00B3" unicode="&#xb3;" horiz-adv-x="335" 
d="M257 395q-54 0 -89 28t-39 77h25q4 -30 29 -55t77 -25q49 0 76.5 29t27.5 70q0 30 -21.5 53t-63.5 23h-45l5 25h75q30 0 55 20t25 62q0 38 -28.5 58t-68.5 20q-44 0 -72.5 -26.5t-38.5 -68.5h-25q14 57 51.5 88.5t88.5 31.5q29 0 51 -8.5t37 -23t22.5 -32.5t7.5 -36
q0 -23 -7.5 -41.5t-19.5 -31t-27 -20t-30 -9.5q29 -13 41.5 -35t12.5 -48q0 -24 -9 -47t-26 -40t-41.5 -27.5t-55.5 -10.5z" />
    <glyph glyph-name="acute" unicode="&#xb4;" horiz-adv-x="190" 
d="M261 730h40l-137 -140h-20z" />
    <glyph glyph-name="uni00B5" unicode="&#xb5;" horiz-adv-x="555" 
d="M184 510h25l-58 -299q-2 -12 -3.5 -23.5t-1.5 -22.5q0 -32 10 -59.5t29 -47.5t46.5 -31.5t63.5 -11.5q34 0 65.5 13.5t57 37.5t44 56t25.5 68l62 320h25l-99 -510h-20l12 90h-5q-24 -42 -69 -71t-98 -29q-68 0 -109 31t-56 84l-55 -285h-25z" />
    <glyph glyph-name="paragraph" unicode="&#xb6;" horiz-adv-x="490" 
d="M290 350q-39 0 -69 13.5t-50.5 36.5t-30.5 55t-10 70q0 37 10 69.5t30.5 55.5t50.5 36.5t69 13.5h170v-810h-25v785h-120v-785h-25v460z" />
    <glyph glyph-name="periodcentered" unicode="&#xb7;" horiz-adv-x="200" 
d="M147 250q-14 0 -20 8t-6 17q0 11 8 20.5t22 9.5t20 -8t6 -17q0 -11 -8 -20.5t-22 -9.5z" />
    <glyph glyph-name="cedilla" unicode="&#xb8;" horiz-adv-x="200" 
d="M-4 -175h59q30 0 49 17.5t19 42.5q0 21 -16 35.5t-42 14.5h-38l3 15l35 50h25l-28 -40q40 0 63 -19t23 -51q0 -42 -26.5 -66t-71.5 -24h-58z" />
    <glyph glyph-name="uni00B9" unicode="&#xb9;" horiz-adv-x="220" 
d="M257 705h-90l4 25h65q25 0 30 25l9 45h25l-78 -400h-25z" />
    <glyph glyph-name="ordmasculine" unicode="&#xba;" horiz-adv-x="380" 
d="M268 350q-28 0 -52.5 9t-42.5 27t-28.5 44.5t-10.5 61.5q0 55 15.5 96t40 68t55.5 40.5t61 13.5q28 0 52.5 -9t42.5 -27t28.5 -44.5t10.5 -61.5q0 -55 -15.5 -96t-40 -68t-55.5 -40.5t-61 -13.5zM270 375q28 0 54.5 13t46.5 37.5t32 60t12 79.5q0 55 -29 87.5t-82 32.5
q-29 0 -55 -13t-46 -37.5t-32 -60t-12 -79.5q0 -55 29 -87.5t82 -32.5z" />
    <glyph glyph-name="guillemotright" unicode="&#xbb;" horiz-adv-x="510" 
d="M308 267v2l-153 221h28l156 -225l-244 -225h-33zM478 267v2l-153 221h28l156 -225l-244 -225h-33z" />
    <glyph glyph-name="onequarter" unicode="&#xbc;" horiz-adv-x="705" 
d="M651 700h32l-571 -700h-32zM282 605h-90l4 25h65q25 0 30 25l9 45h25l-78 -400h-25zM575 90h-215l5 25l255 285h40l-55 -285h55l-5 -25h-55l-18 -90h-25zM580 115l50 256h-4l-229 -256h183z" />
    <glyph glyph-name="onehalf" unicode="&#xbd;" horiz-adv-x="750" 
d="M651 700h32l-571 -700h-32zM282 605h-90l4 25h65q25 0 30 25l9 45h25l-78 -400h-25zM427 25l215 169q33 26 47.5 49t14.5 57q0 37 -25.5 58.5t-63.5 21.5q-45 0 -72 -26t-40 -69h-25q4 22 15 44t28 38.5t40.5 27t53.5 10.5q25 0 46.5 -8t36.5 -21.5t23.5 -32t8.5 -38.5
q0 -24 -5 -42t-13.5 -32t-20.5 -25.5t-25 -21.5l-201 -159h207l-5 -25h-245z" />
    <glyph glyph-name="threequarters" unicode="&#xbe;" horiz-adv-x="815" 
d="M761 700h32l-571 -700h-32zM277 295q-54 0 -89 28t-39 77h25q4 -30 29 -55t77 -25q49 0 76.5 29t27.5 70q0 30 -21.5 53t-63.5 23h-45l5 25h75q30 0 55 20t25 62q0 38 -28.5 58t-68.5 20q-44 0 -72.5 -26.5t-38.5 -68.5h-25q14 57 51.5 88.5t88.5 31.5q29 0 51 -8.5
t37 -23t22.5 -32.5t7.5 -36q0 -23 -7.5 -41.5t-19.5 -31t-27 -20t-30 -9.5q29 -13 41.5 -35t12.5 -48q0 -24 -9 -47t-26 -40t-41.5 -27.5t-55.5 -10.5zM685 90h-215l5 25l255 285h40l-55 -285h55l-5 -25h-55l-18 -90h-25zM690 115l50 256h-4l-229 -256h183z" />
    <glyph glyph-name="questiondown" unicode="&#xbf;" horiz-adv-x="480" 
d="M243 -210q-47 0 -80.5 13.5t-55.5 35t-32 48.5t-10 55q0 59 26.5 102t96.5 80q28 15 46 27t29.5 27.5t18.5 37t14 55.5l8 39h25l-9 -44q-7 -34 -13.5 -56t-18.5 -39t-31.5 -31.5t-52.5 -32.5q-30 -17 -52 -34t-35.5 -36t-20 -41.5t-6.5 -50.5q0 -30 12 -54t33 -41
t49.5 -26t62.5 -9q39 0 69.5 13t53.5 35t38.5 51t23.5 61h25q-9 -39 -27.5 -72.5t-45 -58.5t-62 -39.5t-79.5 -14.5zM338 460q-14 0 -20 8t-6 17q0 11 8 20.5t22 9.5t20 -8t6 -17q0 -11 -8 -20.5t-22 -9.5z" />
    <glyph glyph-name="Agrave" unicode="&#xc0;" horiz-adv-x="595" 
d="M431 700h35l129 -700h-23l-37 200h-365l-113 -200h-27zM530 225l-82 450h-5l-258 -450h345zM355 910h37l63 -140h-17z" />
    <glyph glyph-name="Aacute" unicode="&#xc1;" horiz-adv-x="595" 
d="M431 700h35l129 -700h-23l-37 200h-365l-113 -200h-27zM530 225l-82 450h-5l-258 -450h345zM572 910h40l-137 -140h-20z" />
    <glyph glyph-name="Acircumflex" unicode="&#xc2;" horiz-adv-x="595" 
d="M431 700h35l129 -700h-23l-37 200h-365l-113 -200h-27zM530 225l-82 450h-5l-258 -450h345zM473 915h25l102 -145h-27l-86 122h-5l-134 -122h-33z" />
    <glyph glyph-name="Atilde" unicode="&#xc3;" horiz-adv-x="595" 
d="M431 700h35l129 -700h-23l-37 200h-365l-113 -200h-27zM530 225l-82 450h-5l-258 -450h345zM537 785q-23 0 -40.5 10t-33 22.5t-31 22.5t-33.5 10t-31 -14t-18 -46h-25q4 45 25.5 65t47.5 20q22 0 40 -10t33.5 -22.5t31 -22.5t33.5 -10t31 14t18 46h25q-4 -45 -25.5 -65
t-47.5 -20z" />
    <glyph glyph-name="Adieresis" unicode="&#xc4;" horiz-adv-x="595" 
d="M431 700h35l129 -700h-23l-37 200h-365l-113 -200h-27zM530 225l-82 450h-5l-258 -450h345zM388 815q-11 0 -17 6.5t-6 16.5q0 12 8 19.5t19 7.5t17 -6.5t6 -16.5q0 -12 -8 -19.5t-19 -7.5zM548 815q-11 0 -17 6.5t-6 16.5q0 12 8 19.5t19 7.5t17 -6.5t6 -16.5
q0 -12 -8 -19.5t-19 -7.5z" />
    <glyph glyph-name="Aring" unicode="&#xc5;" horiz-adv-x="595" 
d="M431 700h35l129 -700h-23l-37 200h-365l-113 -200h-27zM530 225l-82 450h-5l-258 -450h345zM460 750q-34 0 -57 22t-23 56q0 22 8.5 40t22.5 31t31.5 19.5t35.5 6.5q34 0 57 -22t23 -56q0 -23 -8.5 -40.5t-22.5 -30.5t-31.5 -19.5t-35.5 -6.5zM464 775q27 0 47.5 18.5
t20.5 52.5q0 23 -15 38.5t-43 15.5q-27 0 -47.5 -18.5t-20.5 -52.5q0 -23 15 -38.5t43 -15.5z" />
    <glyph glyph-name="AE" unicode="&#xc6;" horiz-adv-x="930" 
d="M486 700h500l-5 -25h-395l-61 -310h375l-4 -25h-375l-62 -315h405l-4 -25h-430l36 190h-306l-130 -190h-30zM471 215l90 460h-63l-320 -460h293z" />
    <glyph glyph-name="Ccedilla" unicode="&#xc7;" horiz-adv-x="690" 
d="M281 -175h59q30 0 49 17.5t19 42.5q0 21 -16 35.5t-42 14.5h-38l3 15l30 43q-103 14 -162.5 87t-59.5 195q0 96 26.5 175.5t72.5 137.5t108.5 90t134.5 32q104 0 169.5 -52t87.5 -143h-24q-23 75 -80 122.5t-154 47.5q-64 0 -121.5 -29.5t-100.5 -83.5t-68.5 -129.5
t-25.5 -167.5q0 -62 17.5 -110.5t49.5 -81.5t77.5 -50.5t101.5 -17.5q76 0 145.5 41.5t113.5 128.5h28q-20 -41 -48 -77t-64 -62t-80 -41t-97 -15h-24l-21 -30q40 0 63 -19t23 -51q0 -42 -26.5 -66t-71.5 -24h-58z" />
    <glyph glyph-name="Egrave" unicode="&#xc8;" horiz-adv-x="600" 
d="M236 700h420l-5 -25h-395l-61 -310h375l-4 -25h-375l-62 -315h405l-4 -25h-430zM360 910h37l63 -140h-17z" />
    <glyph glyph-name="Eacute" unicode="&#xc9;" horiz-adv-x="600" 
d="M236 700h420l-5 -25h-395l-61 -310h375l-4 -25h-375l-62 -315h405l-4 -25h-430zM557 910h40l-137 -140h-20z" />
    <glyph glyph-name="Ecircumflex" unicode="&#xca;" horiz-adv-x="600" 
d="M236 700h420l-5 -25h-395l-61 -310h375l-4 -25h-375l-62 -315h405l-4 -25h-430zM468 915h25l102 -145h-27l-86 122h-5l-134 -122h-33z" />
    <glyph glyph-name="Edieresis" unicode="&#xcb;" horiz-adv-x="600" 
d="M236 700h420l-5 -25h-395l-61 -310h375l-4 -25h-375l-62 -315h405l-4 -25h-430zM388 815q-11 0 -17 6.5t-6 16.5q0 12 8 19.5t19 7.5t17 -6.5t6 -16.5q0 -12 -8 -19.5t-19 -7.5zM548 815q-11 0 -17 6.5t-6 16.5q0 12 8 19.5t19 7.5t17 -6.5t6 -16.5q0 -12 -8 -19.5
t-19 -7.5z" />
    <glyph glyph-name="Igrave" unicode="&#xcc;" horiz-adv-x="225" 
d="M236 700h25l-136 -700h-25zM160 910h37l63 -140h-17z" />
    <glyph glyph-name="Iacute" unicode="&#xcd;" horiz-adv-x="225" 
d="M236 700h25l-136 -700h-25zM372 910h40l-137 -140h-20z" />
    <glyph glyph-name="Icircumflex" unicode="&#xce;" horiz-adv-x="225" 
d="M236 700h25l-136 -700h-25zM278 915h25l102 -145h-27l-86 122h-5l-134 -122h-33z" />
    <glyph glyph-name="Idieresis" unicode="&#xcf;" horiz-adv-x="225" 
d="M236 700h25l-136 -700h-25zM188 815q-11 0 -17 6.5t-6 16.5q0 12 8 19.5t19 7.5t17 -6.5t6 -16.5q0 -12 -8 -19.5t-19 -7.5zM348 815q-11 0 -17 6.5t-6 16.5q0 12 8 19.5t19 7.5t17 -6.5t6 -16.5q0 -12 -8 -19.5t-19 -7.5z" />
    <glyph glyph-name="Eth" unicode="&#xd0;" horiz-adv-x="685" 
d="M171 340h-75l4 25h76l65 335h199q58 0 106.5 -19t83 -54.5t53.5 -86.5t19 -115q0 -84 -24.5 -161t-69 -135.5t-106.5 -93.5t-137 -35h-260zM360 25q69 0 127.5 32.5t100.5 87t65.5 127t23.5 153.5q0 58 -18 104.5t-50.5 78.5t-77 49.5t-96.5 17.5h-174l-60 -310h204
l-4 -25h-205l-61 -315h225z" />
    <glyph glyph-name="Ntilde" unicode="&#xd1;" horiz-adv-x="725" 
d="M236 700h30l337 -662h5l128 662h25l-136 -700h-30l-337 662h-5l-128 -662h-25zM587 795q-23 0 -40.5 10t-33 22.5t-31 22.5t-33.5 10t-31 -14t-18 -46h-25q4 45 25.5 65t47.5 20q22 0 40 -10t33.5 -22.5t31 -22.5t33.5 -10t31 14t18 46h25q-4 -45 -25.5 -65t-47.5 -20z
" />
    <glyph glyph-name="Ograve" unicode="&#xd2;" horiz-adv-x="720" 
d="M393 -10q-62 0 -112 19t-85 56t-54 89.5t-19 120.5q0 81 22 159t65.5 139.5t107.5 99t148 37.5q61 0 111 -19t85 -56t54 -90t19 -120q0 -81 -22 -159t-65.5 -139.5t-107.5 -99t-147 -37.5zM395 15q71 0 129 33t99.5 89.5t64 130.5t22.5 157q0 58 -16.5 106t-48 82
t-77.5 53t-105 19q-71 0 -129.5 -33t-99.5 -89.5t-63.5 -131t-22.5 -156.5q0 -58 16.5 -106t48 -82t77.5 -53t105 -19zM395 910h37l63 -140h-17z" />
    <glyph glyph-name="Oacute" unicode="&#xd3;" horiz-adv-x="720" 
d="M393 -10q-62 0 -112 19t-85 56t-54 89.5t-19 120.5q0 81 22 159t65.5 139.5t107.5 99t148 37.5q61 0 111 -19t85 -56t54 -90t19 -120q0 -81 -22 -159t-65.5 -139.5t-107.5 -99t-147 -37.5zM395 15q71 0 129 33t99.5 89.5t64 130.5t22.5 157q0 58 -16.5 106t-48 82
t-77.5 53t-105 19q-71 0 -129.5 -33t-99.5 -89.5t-63.5 -131t-22.5 -156.5q0 -58 16.5 -106t48 -82t77.5 -53t105 -19zM602 910h40l-137 -140h-20z" />
    <glyph glyph-name="Ocircumflex" unicode="&#xd4;" horiz-adv-x="720" 
d="M393 -10q-62 0 -112 19t-85 56t-54 89.5t-19 120.5q0 81 22 159t65.5 139.5t107.5 99t148 37.5q61 0 111 -19t85 -56t54 -90t19 -120q0 -81 -22 -159t-65.5 -139.5t-107.5 -99t-147 -37.5zM395 15q71 0 129 33t99.5 89.5t64 130.5t22.5 157q0 58 -16.5 106t-48 82
t-77.5 53t-105 19q-71 0 -129.5 -33t-99.5 -89.5t-63.5 -131t-22.5 -156.5q0 -58 16.5 -106t48 -82t77.5 -53t105 -19zM508 915h25l102 -145h-27l-86 122h-5l-134 -122h-33z" />
    <glyph glyph-name="Otilde" unicode="&#xd5;" horiz-adv-x="720" 
d="M393 -10q-62 0 -112 19t-85 56t-54 89.5t-19 120.5q0 81 22 159t65.5 139.5t107.5 99t148 37.5q61 0 111 -19t85 -56t54 -90t19 -120q0 -81 -22 -159t-65.5 -139.5t-107.5 -99t-147 -37.5zM395 15q71 0 129 33t99.5 89.5t64 130.5t22.5 157q0 58 -16.5 106t-48 82
t-77.5 53t-105 19q-71 0 -129.5 -33t-99.5 -89.5t-63.5 -131t-22.5 -156.5q0 -58 16.5 -106t48 -82t77.5 -53t105 -19zM577 795q-23 0 -40.5 10t-33 22.5t-31 22.5t-33.5 10t-31 -14t-18 -46h-25q4 45 25.5 65t47.5 20q22 0 40 -10t33.5 -22.5t31 -22.5t33.5 -10t31 14
t18 46h25q-4 -45 -25.5 -65t-47.5 -20z" />
    <glyph glyph-name="Odieresis" unicode="&#xd6;" horiz-adv-x="720" 
d="M393 -10q-62 0 -112 19t-85 56t-54 89.5t-19 120.5q0 81 22 159t65.5 139.5t107.5 99t148 37.5q61 0 111 -19t85 -56t54 -90t19 -120q0 -81 -22 -159t-65.5 -139.5t-107.5 -99t-147 -37.5zM395 15q71 0 129 33t99.5 89.5t64 130.5t22.5 157q0 58 -16.5 106t-48 82
t-77.5 53t-105 19q-71 0 -129.5 -33t-99.5 -89.5t-63.5 -131t-22.5 -156.5q0 -58 16.5 -106t48 -82t77.5 -53t105 -19zM423 815q-11 0 -17 6.5t-6 16.5q0 12 8 19.5t19 7.5t17 -6.5t6 -16.5q0 -12 -8 -19.5t-19 -7.5zM583 815q-11 0 -17 6.5t-6 16.5q0 12 8 19.5t19 7.5
t17 -6.5t6 -16.5q0 -12 -8 -19.5t-19 -7.5z" />
    <glyph glyph-name="multiply" unicode="&#xd7;" horiz-adv-x="514" 
d="M135 143l169 170l-169 169l17 18l170 -170l170 170l17 -18l-169 -169l169 -170l-17 -18l-170 170l-170 -170z" />
    <glyph glyph-name="Oslash" unicode="&#xd8;" horiz-adv-x="720" 
d="M196 64q-35 37 -54 89.5t-19 121.5q0 81 22 159t65.5 139.5t107.5 99t148 37.5q54 0 99.5 -15t79.5 -44l56 74h29l-68 -89q35 -37 54 -90t19 -121q0 -81 -22 -159t-65.5 -139.5t-107.5 -99t-147 -37.5q-110 0 -180 59l-56 -74h-29zM628 630q-31 26 -72.5 40.5t-92.5 14.5
q-71 0 -129.5 -33t-99.5 -89.5t-63.5 -131t-22.5 -156.5q0 -119 65 -189zM395 15q71 0 129 33t99.5 89.5t64 130.5t22.5 157q0 59 -16.5 107t-48.5 82l-415 -544q31 -26 72 -40.5t93 -14.5z" />
    <glyph glyph-name="Ugrave" unicode="&#xd9;" horiz-adv-x="700" 
d="M376 -10q-54 0 -97.5 16t-74 46t-47.5 73t-17 96q0 17 2 35.5t6 38.5l79 405h25l-79 -408q-7 -34 -7 -68q0 -97 56 -153t154 -56q45 0 85.5 15.5t73 45t55.5 72.5t34 99l88 453h25l-88 -453q-12 -62 -38 -110t-62 -80.5t-80 -49.5t-93 -17zM405 910h37l63 -140h-17z" />
    <glyph glyph-name="Uacute" unicode="&#xda;" horiz-adv-x="700" 
d="M376 -10q-54 0 -97.5 16t-74 46t-47.5 73t-17 96q0 17 2 35.5t6 38.5l79 405h25l-79 -408q-7 -34 -7 -68q0 -97 56 -153t154 -56q45 0 85.5 15.5t73 45t55.5 72.5t34 99l88 453h25l-88 -453q-12 -62 -38 -110t-62 -80.5t-80 -49.5t-93 -17zM582 910h40l-137 -140h-20z
" />
    <glyph glyph-name="Ucircumflex" unicode="&#xdb;" horiz-adv-x="700" 
d="M376 -10q-54 0 -97.5 16t-74 46t-47.5 73t-17 96q0 17 2 35.5t6 38.5l79 405h25l-79 -408q-7 -34 -7 -68q0 -97 56 -153t154 -56q45 0 85.5 15.5t73 45t55.5 72.5t34 99l88 453h25l-88 -453q-12 -62 -38 -110t-62 -80.5t-80 -49.5t-93 -17zM503 915h25l102 -145h-27
l-86 122h-5l-134 -122h-33z" />
    <glyph glyph-name="Udieresis" unicode="&#xdc;" horiz-adv-x="700" 
d="M376 -10q-54 0 -97.5 16t-74 46t-47.5 73t-17 96q0 17 2 35.5t6 38.5l79 405h25l-79 -408q-7 -34 -7 -68q0 -97 56 -153t154 -56q45 0 85.5 15.5t73 45t55.5 72.5t34 99l88 453h25l-88 -453q-12 -62 -38 -110t-62 -80.5t-80 -49.5t-93 -17zM418 815q-11 0 -17 6.5
t-6 16.5q0 12 8 19.5t19 7.5t17 -6.5t6 -16.5q0 -12 -8 -19.5t-19 -7.5zM578 815q-11 0 -17 6.5t-6 16.5q0 12 8 19.5t19 7.5t17 -6.5t6 -16.5q0 -12 -8 -19.5t-19 -7.5z" />
    <glyph glyph-name="Yacute" unicode="&#xdd;" horiz-adv-x="555" 
d="M302 270l-166 430h26l154 -400h5l310 400h30l-334 -430l-52 -270h-25zM507 910h40l-137 -140h-20z" />
    <glyph glyph-name="Thorn" unicode="&#xde;" horiz-adv-x="680" 
d="M236 700h25l-36 -185h305q33 0 62.5 -9.5t52.5 -27.5t36.5 -45t13.5 -63q0 -47 -16.5 -82t-43.5 -58t-61 -34t-69 -11h-345l-35 -185h-25zM510 210q41 0 71.5 14.5t50 37t29 50t9.5 53.5q0 57 -37.5 91t-107.5 34h-305l-55 -280h345z" />
    <glyph glyph-name="germandbls" unicode="&#xdf;" horiz-adv-x="555" 
d="M186 524q18 92 74.5 139t135.5 47q49 0 84.5 -14t58.5 -36.5t34 -52.5t11 -61q0 -42 -14.5 -75t-37 -57.5t-51 -39.5t-56.5 -20q52 -12 85.5 -50.5t33.5 -98.5q0 -49 -16.5 -87t-45.5 -64.5t-68 -40t-84 -13.5h-85l4 25h83q44 0 78.5 13t58.5 37t37 57.5t13 74.5
q0 35 -14 61t-37.5 43t-55 25.5t-67.5 8.5h-33l4 25h64q36 0 68.5 12.5t57 35.5t39 55.5t14.5 72.5q0 30 -12 55.5t-33.5 44t-52.5 29t-68 10.5q-39 0 -69.5 -12.5t-53.5 -34t-37.5 -51.5t-21.5 -65l-101 -522h-25z" />
    <glyph glyph-name="agrave" unicode="&#xe0;" horiz-adv-x="520" 
d="M247 -10q-79 0 -122 36.5t-43 98.5q0 36 12.5 65.5t35 50.5t54 32.5t69.5 11.5h219l6 30q2 12 3.5 25.5t1.5 24.5q0 63 -40.5 96.5t-116.5 33.5q-33 0 -58 -9.5t-44 -26t-33.5 -38.5t-26.5 -46h-23q20 64 69.5 104.5t118.5 40.5q45 0 79 -12t56 -33t33 -50t11 -62
q0 -11 -1.5 -23t-3.5 -24l-61 -316h-20l12 90h-5q-27 -45 -74.5 -72.5t-107.5 -27.5zM247 15q39 0 74 14t62 38t45.5 56t25.5 67l14 70h-215q-37 0 -64.5 -11t-45.5 -29.5t-27 -42t-9 -47.5q0 -53 38 -84t102 -31zM275 730h37l63 -140h-17z" />
    <glyph glyph-name="aacute" unicode="&#xe1;" horiz-adv-x="520" 
d="M247 -10q-79 0 -122 36.5t-43 98.5q0 36 12.5 65.5t35 50.5t54 32.5t69.5 11.5h219l6 30q2 12 3.5 25.5t1.5 24.5q0 63 -40.5 96.5t-116.5 33.5q-33 0 -58 -9.5t-44 -26t-33.5 -38.5t-26.5 -46h-23q20 64 69.5 104.5t118.5 40.5q45 0 79 -12t56 -33t33 -50t11 -62
q0 -11 -1.5 -23t-3.5 -24l-61 -316h-20l12 90h-5q-27 -45 -74.5 -72.5t-107.5 -27.5zM247 15q39 0 74 14t62 38t45.5 56t25.5 67l14 70h-215q-37 0 -64.5 -11t-45.5 -29.5t-27 -42t-9 -47.5q0 -53 38 -84t102 -31zM472 730h40l-137 -140h-20z" />
    <glyph glyph-name="acircumflex" unicode="&#xe2;" horiz-adv-x="520" 
d="M247 -10q-79 0 -122 36.5t-43 98.5q0 36 12.5 65.5t35 50.5t54 32.5t69.5 11.5h219l6 30q2 12 3.5 25.5t1.5 24.5q0 63 -40.5 96.5t-116.5 33.5q-33 0 -58 -9.5t-44 -26t-33.5 -38.5t-26.5 -46h-23q20 64 69.5 104.5t118.5 40.5q45 0 79 -12t56 -33t33 -50t11 -62
q0 -11 -1.5 -23t-3.5 -24l-61 -316h-20l12 90h-5q-27 -45 -74.5 -72.5t-107.5 -27.5zM247 15q39 0 74 14t62 38t45.5 56t25.5 67l14 70h-215q-37 0 -64.5 -11t-45.5 -29.5t-27 -42t-9 -47.5q0 -53 38 -84t102 -31zM383 735h25l102 -145h-27l-86 122h-5l-134 -122h-33z" />
    <glyph glyph-name="atilde" unicode="&#xe3;" horiz-adv-x="520" 
d="M247 -10q-79 0 -122 36.5t-43 98.5q0 36 12.5 65.5t35 50.5t54 32.5t69.5 11.5h219l6 30q2 12 3.5 25.5t1.5 24.5q0 63 -40.5 96.5t-116.5 33.5q-33 0 -58 -9.5t-44 -26t-33.5 -38.5t-26.5 -46h-23q20 64 69.5 104.5t118.5 40.5q45 0 79 -12t56 -33t33 -50t11 -62
q0 -11 -1.5 -23t-3.5 -24l-61 -316h-20l12 90h-5q-27 -45 -74.5 -72.5t-107.5 -27.5zM247 15q39 0 74 14t62 38t45.5 56t25.5 67l14 70h-215q-37 0 -64.5 -11t-45.5 -29.5t-27 -42t-9 -47.5q0 -53 38 -84t102 -31zM452 615q-23 0 -40.5 10t-33 22.5t-31 22.5t-33.5 10
t-31 -14t-18 -46h-25q4 45 25.5 65t47.5 20q22 0 40 -10t33.5 -22.5t31 -22.5t33.5 -10t31 14t18 46h25q-4 -45 -25.5 -65t-47.5 -20z" />
    <glyph glyph-name="adieresis" unicode="&#xe4;" horiz-adv-x="520" 
d="M247 -10q-79 0 -122 36.5t-43 98.5q0 36 12.5 65.5t35 50.5t54 32.5t69.5 11.5h219l6 30q2 12 3.5 25.5t1.5 24.5q0 63 -40.5 96.5t-116.5 33.5q-33 0 -58 -9.5t-44 -26t-33.5 -38.5t-26.5 -46h-23q20 64 69.5 104.5t118.5 40.5q45 0 79 -12t56 -33t33 -50t11 -62
q0 -11 -1.5 -23t-3.5 -24l-61 -316h-20l12 90h-5q-27 -45 -74.5 -72.5t-107.5 -27.5zM247 15q39 0 74 14t62 38t45.5 56t25.5 67l14 70h-215q-37 0 -64.5 -11t-45.5 -29.5t-27 -42t-9 -47.5q0 -53 38 -84t102 -31zM298 635q-11 0 -17 6.5t-6 16.5q0 12 8 19.5t19 7.5
t17 -6.5t6 -16.5q0 -12 -8 -19.5t-19 -7.5zM458 635q-11 0 -17 6.5t-6 16.5q0 12 8 19.5t19 7.5t17 -6.5t6 -16.5q0 -12 -8 -19.5t-19 -7.5z" />
    <glyph glyph-name="aring" unicode="&#xe5;" horiz-adv-x="520" 
d="M247 -10q-79 0 -122 36.5t-43 98.5q0 36 12.5 65.5t35 50.5t54 32.5t69.5 11.5h219l6 30q2 12 3.5 25.5t1.5 24.5q0 63 -40.5 96.5t-116.5 33.5q-33 0 -58 -9.5t-44 -26t-33.5 -38.5t-26.5 -46h-23q20 64 69.5 104.5t118.5 40.5q45 0 79 -12t56 -33t33 -50t11 -62
q0 -11 -1.5 -23t-3.5 -24l-61 -316h-20l12 90h-5q-27 -45 -74.5 -72.5t-107.5 -27.5zM247 15q39 0 74 14t62 38t45.5 56t25.5 67l14 70h-215q-37 0 -64.5 -11t-45.5 -29.5t-27 -42t-9 -47.5q0 -53 38 -84t102 -31zM375 580q-34 0 -57 22t-23 56q0 22 8.5 40t22.5 31
t31.5 19.5t35.5 6.5q34 0 57 -22t23 -56q0 -23 -8.5 -40.5t-22.5 -30.5t-31.5 -19.5t-35.5 -6.5zM379 605q27 0 47.5 18.5t20.5 52.5q0 23 -15 38.5t-43 15.5q-27 0 -47.5 -18.5t-20.5 -52.5q0 -23 15 -38.5t43 -15.5z" />
    <glyph glyph-name="ae" unicode="&#xe6;" horiz-adv-x="907" 
d="M252 -10q-75 0 -122.5 35.5t-47.5 99.5q0 36 12.5 63.5t34.5 47t52 29.5t66 10h223l8 40q2 12 3.5 25.5t1.5 24.5q0 63 -40.5 96.5t-116.5 33.5q-33 0 -58 -9.5t-44 -26t-33.5 -38.5t-26.5 -46h-23q20 64 69.5 104.5t118.5 40.5q83 0 126.5 -38t50.5 -96q35 65 90.5 99.5
t118.5 34.5q41 0 77 -14.5t63 -41t43 -64.5t16 -85q0 -8 -1.5 -29t-5.5 -36h-416q-1 -8 -1.5 -16.5t-0.5 -23.5q0 -39 11 -74.5t33.5 -62.5t56.5 -42.5t80 -15.5q57 0 104.5 33t79.5 87h30q-35 -68 -93 -106.5t-124 -38.5q-43 0 -77 12.5t-59 34.5t-40.5 51.5t-22.5 62.5
q-12 -42 -34.5 -72t-51.5 -50t-62.5 -29.5t-67.5 -9.5zM257 15q72 0 125 45t71 130l13 60h-219q-35 0 -61.5 -10.5t-44 -27t-26 -38.5t-8.5 -44q0 -54 41 -84.5t109 -30.5zM886 275q3 18 3 35q0 40 -12 74t-35 58.5t-55.5 38.5t-73.5 14q-44 0 -80 -17.5t-64 -47.5
t-46.5 -70t-27.5 -85h391z" />
    <glyph glyph-name="ccedilla" unicode="&#xe7;" horiz-adv-x="545" 
d="M200 -175h59q30 0 49 17.5t19 42.5q0 21 -16 35.5t-42 14.5h-38l3 15l31 44q-76 13 -119.5 68.5t-43.5 142.5q0 74 22 132.5t58 99t82.5 62t96.5 21.5q34 0 65.5 -8.5t58 -26.5t46 -45.5t29.5 -64.5h-26q-8 24 -22 46t-35 38.5t-50 26t-67 9.5q-55 0 -98.5 -24.5
t-73.5 -65t-45.5 -91.5t-15.5 -104q0 -39 10.5 -74t33 -62t57 -43t82.5 -16q66 0 114 32.5t80 87.5h28q-15 -30 -37 -56.5t-50.5 -46t-62.5 -31t-72 -11.5h-23l-21 -30q40 0 63 -19t23 -51q0 -42 -26.5 -66t-71.5 -24h-58z" />
    <glyph glyph-name="egrave" unicode="&#xe8;" horiz-adv-x="555" 
d="M310 -10q-96 0 -152 57.5t-56 156.5q0 74 22 133t58 99.5t82 62t94 21.5q45 0 82.5 -14.5t64.5 -41t42 -64.5t15 -85q0 -8 -1.5 -29t-5.5 -36h-426q-1 -8 -1.5 -16.5t-0.5 -23.5q0 -39 10.5 -74.5t33 -62.5t58 -42.5t84.5 -15.5q63 0 111 33t80 87h28q-36 -71 -96.5 -108
t-125.5 -37zM534 275q3 18 3 35q0 40 -12 74t-35 58.5t-57 38.5t-77 14q-44 0 -81 -17.5t-65.5 -47.5t-48 -70t-28.5 -85h401zM285 730h37l63 -140h-17z" />
    <glyph glyph-name="eacute" unicode="&#xe9;" horiz-adv-x="555" 
d="M310 -10q-96 0 -152 57.5t-56 156.5q0 74 22 133t58 99.5t82 62t94 21.5q45 0 82.5 -14.5t64.5 -41t42 -64.5t15 -85q0 -8 -1.5 -29t-5.5 -36h-426q-1 -8 -1.5 -16.5t-0.5 -23.5q0 -39 10.5 -74.5t33 -62.5t58 -42.5t84.5 -15.5q63 0 111 33t80 87h28q-36 -71 -96.5 -108
t-125.5 -37zM534 275q3 18 3 35q0 40 -12 74t-35 58.5t-57 38.5t-77 14q-44 0 -81 -17.5t-65.5 -47.5t-48 -70t-28.5 -85h401zM492 730h40l-137 -140h-20z" />
    <glyph glyph-name="ecircumflex" unicode="&#xea;" horiz-adv-x="555" 
d="M310 -10q-96 0 -152 57.5t-56 156.5q0 74 22 133t58 99.5t82 62t94 21.5q45 0 82.5 -14.5t64.5 -41t42 -64.5t15 -85q0 -8 -1.5 -29t-5.5 -36h-426q-1 -8 -1.5 -16.5t-0.5 -23.5q0 -39 10.5 -74.5t33 -62.5t58 -42.5t84.5 -15.5q63 0 111 33t80 87h28q-36 -71 -96.5 -108
t-125.5 -37zM534 275q3 18 3 35q0 40 -12 74t-35 58.5t-57 38.5t-77 14q-44 0 -81 -17.5t-65.5 -47.5t-48 -70t-28.5 -85h401zM403 735h25l102 -145h-27l-86 122h-5l-134 -122h-33z" />
    <glyph glyph-name="edieresis" unicode="&#xeb;" horiz-adv-x="555" 
d="M310 -10q-96 0 -152 57.5t-56 156.5q0 74 22 133t58 99.5t82 62t94 21.5q45 0 82.5 -14.5t64.5 -41t42 -64.5t15 -85q0 -8 -1.5 -29t-5.5 -36h-426q-1 -8 -1.5 -16.5t-0.5 -23.5q0 -39 10.5 -74.5t33 -62.5t58 -42.5t84.5 -15.5q63 0 111 33t80 87h28q-36 -71 -96.5 -108
t-125.5 -37zM534 275q3 18 3 35q0 40 -12 74t-35 58.5t-57 38.5t-77 14q-44 0 -81 -17.5t-65.5 -47.5t-48 -70t-28.5 -85h401zM313 635q-11 0 -17 6.5t-6 16.5q0 12 8 19.5t19 7.5t17 -6.5t6 -16.5q0 -12 -8 -19.5t-19 -7.5zM473 635q-11 0 -17 6.5t-6 16.5q0 12 8 19.5
t19 7.5t17 -6.5t6 -16.5q0 -12 -8 -19.5t-19 -7.5z" />
    <glyph glyph-name="igrave" unicode="&#xec;" horiz-adv-x="195" 
d="M184 510h25l-99 -510h-25zM110 730h37l63 -140h-17z" />
    <glyph glyph-name="iacute" unicode="&#xed;" horiz-adv-x="195" 
d="M184 510h25l-99 -510h-25zM317 730h40l-137 -140h-20z" />
    <glyph glyph-name="icircumflex" unicode="&#xee;" horiz-adv-x="195" 
d="M184 510h25l-99 -510h-25zM223 735h25l102 -145h-27l-86 122h-5l-134 -122h-33z" />
    <glyph glyph-name="idieresis" unicode="&#xef;" horiz-adv-x="195" 
d="M184 510h25l-99 -510h-25zM138 635q-11 0 -17 6.5t-6 16.5q0 12 8 19.5t19 7.5t17 -6.5t6 -16.5q0 -12 -8 -19.5t-19 -7.5zM298 635q-11 0 -17 6.5t-6 16.5q0 12 8 19.5t19 7.5t17 -6.5t6 -16.5q0 -12 -8 -19.5t-19 -7.5z" />
    <glyph glyph-name="eth" unicode="&#xf0;" horiz-adv-x="550" 
d="M297 -10q-43 0 -79 13t-62.5 38t-41.5 61.5t-15 84.5q0 69 20.5 121.5t54 88.5t77 54.5t89.5 18.5q37 0 66.5 -9.5t51 -25.5t36 -36t23.5 -42h5q-9 81 -34.5 140.5t-66.5 110.5l-151 -63l-6 20l144 59q-20 22 -38 39t-44 37h33q15 -11 31.5 -26t38.5 -41l113 47l6 -20
l-105 -44q43 -57 72.5 -130t29.5 -169q0 -80 -20 -141t-54 -102t-79 -62.5t-95 -21.5zM297 15q42 0 80.5 18t68 51t47.5 79.5t18 103.5q0 40 -12.5 73t-35 56t-54.5 36t-71 13q-42 0 -80.5 -18t-68 -51t-47.5 -79.5t-18 -103.5q0 -40 12.5 -73t35 -56t54.5 -36t71 -13z" />
    <glyph glyph-name="ntilde" unicode="&#xf1;" horiz-adv-x="555" 
d="M184 510h20l-12 -90h5q24 42 69 71t98 29q79 0 126.5 -46t47.5 -124q0 -27 -6 -55l-57 -295h-25l58 299q2 12 3.5 23.5t1.5 22.5q0 32 -10 59.5t-29 47.5t-46.5 31.5t-63.5 11.5q-34 0 -65.5 -13.5t-57 -37.5t-44 -56t-25.5 -68l-62 -320h-25zM472 615q-23 0 -40.5 10
t-33 22.5t-31 22.5t-33.5 10t-31 -14t-18 -46h-25q4 45 25.5 65t47.5 20q22 0 40 -10t33.5 -22.5t31 -22.5t33.5 -10t31 14t18 46h25q-4 -45 -25.5 -65t-47.5 -20z" />
    <glyph glyph-name="ograve" unicode="&#xf2;" horiz-adv-x="570" 
d="M311 -10q-48 0 -86.5 15t-66 43t-42 68t-14.5 89q0 74 22 132.5t58 99t82.5 62t96.5 21.5q48 0 86.5 -15t66 -43t42 -68t14.5 -89q0 -74 -22 -132.5t-58 -99t-82.5 -62t-96.5 -21.5zM312 15q55 0 98.5 24.5t73.5 65t45.5 91t15.5 103.5q0 39 -10.5 74.5t-33 62.5
t-57.5 43t-84 16q-55 0 -98.5 -24.5t-73.5 -65t-45.5 -91.5t-15.5 -103q0 -39 10.5 -74.5t33 -62.5t57.5 -43t84 -16zM285 730h37l63 -140h-17z" />
    <glyph glyph-name="oacute" unicode="&#xf3;" horiz-adv-x="570" 
d="M311 -10q-48 0 -86.5 15t-66 43t-42 68t-14.5 89q0 74 22 132.5t58 99t82.5 62t96.5 21.5q48 0 86.5 -15t66 -43t42 -68t14.5 -89q0 -74 -22 -132.5t-58 -99t-82.5 -62t-96.5 -21.5zM312 15q55 0 98.5 24.5t73.5 65t45.5 91t15.5 103.5q0 39 -10.5 74.5t-33 62.5
t-57.5 43t-84 16q-55 0 -98.5 -24.5t-73.5 -65t-45.5 -91.5t-15.5 -103q0 -39 10.5 -74.5t33 -62.5t57.5 -43t84 -16zM492 730h40l-137 -140h-20z" />
    <glyph glyph-name="ocircumflex" unicode="&#xf4;" horiz-adv-x="570" 
d="M311 -10q-48 0 -86.5 15t-66 43t-42 68t-14.5 89q0 74 22 132.5t58 99t82.5 62t96.5 21.5q48 0 86.5 -15t66 -43t42 -68t14.5 -89q0 -74 -22 -132.5t-58 -99t-82.5 -62t-96.5 -21.5zM312 15q55 0 98.5 24.5t73.5 65t45.5 91t15.5 103.5q0 39 -10.5 74.5t-33 62.5
t-57.5 43t-84 16q-55 0 -98.5 -24.5t-73.5 -65t-45.5 -91.5t-15.5 -103q0 -39 10.5 -74.5t33 -62.5t57.5 -43t84 -16zM403 735h25l102 -145h-27l-86 122h-5l-134 -122h-33z" />
    <glyph glyph-name="otilde" unicode="&#xf5;" horiz-adv-x="570" 
d="M311 -10q-48 0 -86.5 15t-66 43t-42 68t-14.5 89q0 74 22 132.5t58 99t82.5 62t96.5 21.5q48 0 86.5 -15t66 -43t42 -68t14.5 -89q0 -74 -22 -132.5t-58 -99t-82.5 -62t-96.5 -21.5zM312 15q55 0 98.5 24.5t73.5 65t45.5 91t15.5 103.5q0 39 -10.5 74.5t-33 62.5
t-57.5 43t-84 16q-55 0 -98.5 -24.5t-73.5 -65t-45.5 -91.5t-15.5 -103q0 -39 10.5 -74.5t33 -62.5t57.5 -43t84 -16zM467 615q-23 0 -40.5 10t-33 22.5t-31 22.5t-33.5 10t-31 -14t-18 -46h-25q4 45 25.5 65t47.5 20q22 0 40 -10t33.5 -22.5t31 -22.5t33.5 -10t31 14t18 46
h25q-4 -45 -25.5 -65t-47.5 -20z" />
    <glyph glyph-name="odieresis" unicode="&#xf6;" horiz-adv-x="570" 
d="M311 -10q-48 0 -86.5 15t-66 43t-42 68t-14.5 89q0 74 22 132.5t58 99t82.5 62t96.5 21.5q48 0 86.5 -15t66 -43t42 -68t14.5 -89q0 -74 -22 -132.5t-58 -99t-82.5 -62t-96.5 -21.5zM312 15q55 0 98.5 24.5t73.5 65t45.5 91t15.5 103.5q0 39 -10.5 74.5t-33 62.5
t-57.5 43t-84 16q-55 0 -98.5 -24.5t-73.5 -65t-45.5 -91.5t-15.5 -103q0 -39 10.5 -74.5t33 -62.5t57.5 -43t84 -16zM313 635q-11 0 -17 6.5t-6 16.5q0 12 8 19.5t19 7.5t17 -6.5t6 -16.5q0 -12 -8 -19.5t-19 -7.5zM473 635q-11 0 -17 6.5t-6 16.5q0 12 8 19.5t19 7.5
t17 -6.5t6 -16.5q0 -12 -8 -19.5t-19 -7.5z" />
    <glyph glyph-name="divide" unicode="&#xf7;" horiz-adv-x="535" 
d="M327 85q-12 0 -19.5 8t-7.5 19q0 12 7.5 20t19.5 8q13 0 20.5 -8t7.5 -20q0 -11 -7.5 -19t-20.5 -8zM110 310h435v-25h-435v25zM327 455q-12 0 -19.5 8t-7.5 20q0 11 7.5 19t19.5 8q13 0 20.5 -8t7.5 -19q0 -12 -7.5 -20t-20.5 -8z" />
    <glyph glyph-name="oslash" unicode="&#xf8;" horiz-adv-x="570" 
d="M153 54q-51 57 -51 151q0 74 22 132.5t58 99t82.5 62t96.5 21.5q88 0 142 -48l48 58h30l-62 -74q51 -57 51 -151q0 -74 -22 -132.5t-58 -99t-82.5 -62t-96.5 -21.5q-86 0 -142 48l-48 -58h-30zM486 452q-23 20 -53.5 31.5t-72.5 11.5q-55 0 -98.5 -24.5t-73.5 -65
t-45.5 -91.5t-15.5 -103q0 -39 10.5 -74t32.5 -62zM312 15q55 0 98.5 24.5t73.5 65t45.5 91t15.5 103.5q0 38 -10.5 73.5t-32.5 62.5l-316 -377q22 -20 53 -31.5t73 -11.5z" />
    <glyph glyph-name="ugrave" unicode="&#xf9;" horiz-adv-x="554" 
d="M295 -10q-79 0 -126.5 46t-47.5 124q0 26 6 55l57 295h25l-58 -299q-2 -12 -3.5 -23.5t-1.5 -22.5q0 -32 10 -59.5t29 -47.5t46.5 -31.5t63.5 -11.5q34 0 65.5 13.5t57 37.5t44 56t25.5 68l62 320h25l-99 -510h-20l12 90h-5q-24 -42 -69 -71t-98 -29zM300 730h37l63 -140
h-17z" />
    <glyph glyph-name="uacute" unicode="&#xfa;" horiz-adv-x="554" 
d="M295 -10q-79 0 -126.5 46t-47.5 124q0 26 6 55l57 295h25l-58 -299q-2 -12 -3.5 -23.5t-1.5 -22.5q0 -32 10 -59.5t29 -47.5t46.5 -31.5t63.5 -11.5q34 0 65.5 13.5t57 37.5t44 56t25.5 68l62 320h25l-99 -510h-20l12 90h-5q-24 -42 -69 -71t-98 -29zM487 730h40
l-137 -140h-20z" />
    <glyph glyph-name="ucircumflex" unicode="&#xfb;" horiz-adv-x="554" 
d="M295 -10q-79 0 -126.5 46t-47.5 124q0 26 6 55l57 295h25l-58 -299q-2 -12 -3.5 -23.5t-1.5 -22.5q0 -32 10 -59.5t29 -47.5t46.5 -31.5t63.5 -11.5q34 0 65.5 13.5t57 37.5t44 56t25.5 68l62 320h25l-99 -510h-20l12 90h-5q-24 -42 -69 -71t-98 -29zM403 735h25
l102 -145h-27l-86 122h-5l-134 -122h-33z" />
    <glyph glyph-name="udieresis" unicode="&#xfc;" horiz-adv-x="554" 
d="M295 -10q-79 0 -126.5 46t-47.5 124q0 26 6 55l57 295h25l-58 -299q-2 -12 -3.5 -23.5t-1.5 -22.5q0 -32 10 -59.5t29 -47.5t46.5 -31.5t63.5 -11.5q34 0 65.5 13.5t57 37.5t44 56t25.5 68l62 320h25l-99 -510h-20l12 90h-5q-24 -42 -69 -71t-98 -29zM318 635
q-11 0 -17 6.5t-6 16.5q0 12 8 19.5t19 7.5t17 -6.5t6 -16.5q0 -12 -8 -19.5t-19 -7.5zM478 635q-11 0 -17 6.5t-6 16.5q0 12 8 19.5t19 7.5t17 -6.5t6 -16.5q0 -12 -8 -19.5t-19 -7.5z" />
    <glyph glyph-name="yacute" unicode="&#xfd;" horiz-adv-x="470" 
d="M219 2l-119 508h25l110 -470h6l281 470h28l-424 -710h-28zM437 730h40l-137 -140h-20z" />
    <glyph glyph-name="thorn" unicode="&#xfe;" horiz-adv-x="585" 
d="M226 700h25l-57 -288h5q38 59 89.5 83.5t100.5 24.5t86.5 -16t63 -44.5t38.5 -67.5t13 -85q0 -74 -21 -133t-56.5 -100t-81.5 -62.5t-96 -21.5q-34 0 -65.5 10t-56.5 29t-42.5 47t-23.5 64h-5l-66 -340h-25zM338 15q54 0 96.5 25t71.5 66t44 93t15 106q0 40 -10.5 74.5
t-32 60t-54.5 40.5t-78 15q-54 0 -96.5 -25t-71.5 -66t-44 -93t-15 -106q0 -40 10.5 -74.5t32 -60t54.5 -40.5t78 -15z" />
    <glyph glyph-name="ydieresis" unicode="&#xff;" horiz-adv-x="470" 
d="M219 2l-119 508h25l110 -470h6l281 470h28l-424 -710h-28zM258 635q-11 0 -17 6.5t-6 16.5q0 12 8 19.5t19 7.5t17 -6.5t6 -16.5q0 -12 -8 -19.5t-19 -7.5zM418 635q-11 0 -17 6.5t-6 16.5q0 12 8 19.5t19 7.5t17 -6.5t6 -16.5q0 -12 -8 -19.5t-19 -7.5z" />
    <glyph glyph-name="Amacron" unicode="&#x100;" horiz-adv-x="595" 
d="M431 700h35l129 -700h-23l-37 200h-365l-113 -200h-27zM530 225l-82 450h-5l-258 -450h345zM340 850h260l-5 -25h-260z" />
    <glyph glyph-name="amacron" unicode="&#x101;" horiz-adv-x="520" 
d="M247 -10q-79 0 -122 36.5t-43 98.5q0 36 12.5 65.5t35 50.5t54 32.5t69.5 11.5h219l6 30q2 12 3.5 25.5t1.5 24.5q0 63 -40.5 96.5t-116.5 33.5q-33 0 -58 -9.5t-44 -26t-33.5 -38.5t-26.5 -46h-23q20 64 69.5 104.5t118.5 40.5q45 0 79 -12t56 -33t33 -50t11 -62
q0 -11 -1.5 -23t-3.5 -24l-61 -316h-20l12 90h-5q-27 -45 -74.5 -72.5t-107.5 -27.5zM247 15q39 0 74 14t62 38t45.5 56t25.5 67l14 70h-215q-37 0 -64.5 -11t-45.5 -29.5t-27 -42t-9 -47.5q0 -53 38 -84t102 -31zM255 670h260l-5 -25h-260z" />
    <glyph glyph-name="Abreve" unicode="&#x102;" horiz-adv-x="595" 
d="M431 700h35l129 -700h-23l-37 200h-365l-113 -200h-27zM530 225l-82 450h-5l-258 -450h345zM468 785q-50 0 -84 27t-34 83h24q0 -36 24.5 -60.5t72.5 -24.5q39 0 66.5 21.5t37.5 63.5h25q-14 -57 -49 -83.5t-83 -26.5z" />
    <glyph glyph-name="abreve" unicode="&#x103;" horiz-adv-x="520" 
d="M247 -10q-79 0 -122 36.5t-43 98.5q0 36 12.5 65.5t35 50.5t54 32.5t69.5 11.5h219l6 30q2 12 3.5 25.5t1.5 24.5q0 63 -40.5 96.5t-116.5 33.5q-33 0 -58 -9.5t-44 -26t-33.5 -38.5t-26.5 -46h-23q20 64 69.5 104.5t118.5 40.5q45 0 79 -12t56 -33t33 -50t11 -62
q0 -11 -1.5 -23t-3.5 -24l-61 -316h-20l12 90h-5q-27 -45 -74.5 -72.5t-107.5 -27.5zM247 15q39 0 74 14t62 38t45.5 56t25.5 67l14 70h-215q-37 0 -64.5 -11t-45.5 -29.5t-27 -42t-9 -47.5q0 -53 38 -84t102 -31zM378 605q-50 0 -84 27t-34 83h24q0 -36 24.5 -60.5
t72.5 -24.5q39 0 66.5 21.5t37.5 63.5h25q-14 -57 -49 -83.5t-83 -26.5z" />
    <glyph glyph-name="Aogonek" unicode="&#x104;" horiz-adv-x="595" 
d="M540 -180q-39 0 -61 17.5t-22 47.5q0 28 10 47.5t26.5 33t37 21.5t41.5 13l-37 200h-365l-113 -200h-27l401 700h35l129 -700q-24 -11 -43.5 -21.5t-34 -22.5t-22.5 -28t-8 -38t16 -33.5t42 -11.5h34l-4 -25h-35zM530 225l-82 450h-5l-258 -450h345z" />
    <glyph glyph-name="aogonek" unicode="&#x105;" horiz-adv-x="520" 
d="M387 -180q-39 0 -61 17.5t-22 47.5q0 28 10 47.5t26.5 33t37.5 22t44 14.5l12 88h-5q-27 -45 -74.5 -72.5t-107.5 -27.5q-79 0 -122 36.5t-43 98.5q0 36 12.5 65.5t35 50.5t54 32.5t69.5 11.5h219l6 30q2 12 3.5 25.5t1.5 24.5q0 63 -40.5 96.5t-116.5 33.5
q-33 0 -58 -9.5t-44 -26t-33.5 -38.5t-26.5 -46h-23q20 64 69.5 104.5t118.5 40.5q45 0 79 -12t56 -33t33 -50t11 -62q0 -11 -1.5 -23t-3.5 -24l-61 -316q-24 -11 -43.5 -21.5t-34 -22.5t-22.5 -28t-8 -38t16 -33.5t42 -11.5h34l-4 -25h-35zM247 15q39 0 74 14t62 38
t45.5 56t25.5 67l14 70h-215q-37 0 -64.5 -11t-45.5 -29.5t-27 -42t-9 -47.5q0 -53 38 -84t102 -31z" />
    <glyph glyph-name="Cacute" unicode="&#x106;" horiz-adv-x="690" 
d="M392 -10q-62 0 -111.5 19t-84.5 56t-54 89.5t-19 120.5q0 96 26.5 175.5t72.5 137.5t108.5 90t134.5 32q104 0 169.5 -52t87.5 -143h-24q-23 75 -80 122.5t-154 47.5q-64 0 -121.5 -29.5t-100.5 -83.5t-68.5 -129.5t-25.5 -167.5q0 -62 17.5 -110.5t49.5 -81.5
t77.5 -50.5t101.5 -17.5q76 0 145.5 41.5t113.5 128.5h28q-20 -41 -48 -77t-64 -62t-80 -41t-97 -15zM602 910h40l-137 -140h-20z" />
    <glyph glyph-name="cacute" unicode="&#x107;" horiz-adv-x="545" 
d="M310 -10q-48 0 -86.5 15t-65.5 43t-41.5 68t-14.5 89q0 74 22 132.5t58 99t82.5 62t96.5 21.5q34 0 65.5 -8.5t58 -26.5t46 -45.5t29.5 -64.5h-26q-8 24 -22 46t-35 38.5t-50 26t-67 9.5q-55 0 -98.5 -24.5t-73.5 -65t-45.5 -91.5t-15.5 -104q0 -39 10.5 -74t33 -62
t57 -43t82.5 -16q66 0 114 32.5t80 87.5h28q-15 -30 -37 -56.5t-50.5 -46t-62.5 -31t-72 -11.5zM492 730h40l-137 -140h-20z" />
    <glyph glyph-name="Ccircumflex" unicode="&#x108;" horiz-adv-x="690" 
d="M392 -10q-62 0 -111.5 19t-84.5 56t-54 89.5t-19 120.5q0 96 26.5 175.5t72.5 137.5t108.5 90t134.5 32q104 0 169.5 -52t87.5 -143h-24q-23 75 -80 122.5t-154 47.5q-64 0 -121.5 -29.5t-100.5 -83.5t-68.5 -129.5t-25.5 -167.5q0 -62 17.5 -110.5t49.5 -81.5
t77.5 -50.5t101.5 -17.5q76 0 145.5 41.5t113.5 128.5h28q-20 -41 -48 -77t-64 -62t-80 -41t-97 -15zM508 915h25l102 -145h-27l-86 122h-5l-134 -122h-33z" />
    <glyph glyph-name="ccircumflex" unicode="&#x109;" horiz-adv-x="545" 
d="M310 -10q-48 0 -86.5 15t-65.5 43t-41.5 68t-14.5 89q0 74 22 132.5t58 99t82.5 62t96.5 21.5q34 0 65.5 -8.5t58 -26.5t46 -45.5t29.5 -64.5h-26q-8 24 -22 46t-35 38.5t-50 26t-67 9.5q-55 0 -98.5 -24.5t-73.5 -65t-45.5 -91.5t-15.5 -104q0 -39 10.5 -74t33 -62
t57 -43t82.5 -16q66 0 114 32.5t80 87.5h28q-15 -30 -37 -56.5t-50.5 -46t-62.5 -31t-72 -11.5zM403 735h25l102 -145h-27l-86 122h-5l-134 -122h-33z" />
    <glyph glyph-name="Cdotaccent" unicode="&#x10a;" horiz-adv-x="690" 
d="M392 -10q-62 0 -111.5 19t-84.5 56t-54 89.5t-19 120.5q0 96 26.5 175.5t72.5 137.5t108.5 90t134.5 32q104 0 169.5 -52t87.5 -143h-24q-23 75 -80 122.5t-154 47.5q-64 0 -121.5 -29.5t-100.5 -83.5t-68.5 -129.5t-25.5 -167.5q0 -62 17.5 -110.5t49.5 -81.5
t77.5 -50.5t101.5 -17.5q76 0 145.5 41.5t113.5 128.5h28q-20 -41 -48 -77t-64 -62t-80 -41t-97 -15zM503 815q-11 0 -17 6.5t-6 16.5q0 12 8 19.5t19 7.5t17 -6.5t6 -16.5q0 -12 -8 -19.5t-19 -7.5z" />
    <glyph glyph-name="cdotaccent" unicode="&#x10b;" horiz-adv-x="545" 
d="M310 -10q-48 0 -86.5 15t-65.5 43t-41.5 68t-14.5 89q0 74 22 132.5t58 99t82.5 62t96.5 21.5q34 0 65.5 -8.5t58 -26.5t46 -45.5t29.5 -64.5h-26q-8 24 -22 46t-35 38.5t-50 26t-67 9.5q-55 0 -98.5 -24.5t-73.5 -65t-45.5 -91.5t-15.5 -104q0 -39 10.5 -74t33 -62
t57 -43t82.5 -16q66 0 114 32.5t80 87.5h28q-15 -30 -37 -56.5t-50.5 -46t-62.5 -31t-72 -11.5zM388 635q-11 0 -17 6.5t-6 16.5q0 12 8 19.5t19 7.5t17 -6.5t6 -16.5q0 -12 -8 -19.5t-19 -7.5z" />
    <glyph glyph-name="Ccaron" unicode="&#x10c;" horiz-adv-x="690" 
d="M392 -10q-62 0 -111.5 19t-84.5 56t-54 89.5t-19 120.5q0 96 26.5 175.5t72.5 137.5t108.5 90t134.5 32q104 0 169.5 -52t87.5 -143h-24q-23 75 -80 122.5t-154 47.5q-64 0 -121.5 -29.5t-100.5 -83.5t-68.5 -129.5t-25.5 -167.5q0 -62 17.5 -110.5t49.5 -81.5
t77.5 -50.5t101.5 -17.5q76 0 145.5 41.5t113.5 128.5h28q-20 -41 -48 -77t-64 -62t-80 -41t-97 -15zM375 915h27l87 -122h5l133 122h33l-158 -145h-25z" />
    <glyph glyph-name="ccaron" unicode="&#x10d;" horiz-adv-x="545" 
d="M310 -10q-48 0 -86.5 15t-65.5 43t-41.5 68t-14.5 89q0 74 22 132.5t58 99t82.5 62t96.5 21.5q34 0 65.5 -8.5t58 -26.5t46 -45.5t29.5 -64.5h-26q-8 24 -22 46t-35 38.5t-50 26t-67 9.5q-55 0 -98.5 -24.5t-73.5 -65t-45.5 -91.5t-15.5 -104q0 -39 10.5 -74t33 -62
t57 -43t82.5 -16q66 0 114 32.5t80 87.5h28q-15 -30 -37 -56.5t-50.5 -46t-62.5 -31t-72 -11.5zM270 730h27l87 -122h5l133 122h33l-158 -145h-25z" />
    <glyph glyph-name="Dcaron" unicode="&#x10e;" horiz-adv-x="680" 
d="M236 700h199q58 0 106.5 -19t83 -54.5t53.5 -86.5t19 -115q0 -84 -24.5 -161t-69 -135.5t-106.5 -93.5t-137 -35h-260zM355 25q69 0 127.5 32.5t100.5 87t65.5 127t23.5 153.5q0 58 -18 104.5t-50.5 78.5t-77 49.5t-96.5 17.5h-174l-126 -650h225zM360 915h27l87 -122h5
l133 122h33l-158 -145h-25z" />
    <glyph glyph-name="dcaron" unicode="&#x10f;" horiz-adv-x="633" 
d="M303 -10q-49 0 -86.5 16t-63 44.5t-38.5 67.5t-13 85q0 74 21 133t56 100t81.5 62.5t96.5 21.5q34 0 65.5 -10t56.5 -29t42.5 -47t23.5 -64h5l64 330h25l-136 -700h-20l15 98h-5q-38 -59 -89.5 -83.5t-100.5 -24.5zM302 15q54 0 96.5 25t71.5 66t44 93t15 106
q0 40 -10.5 74.5t-32 60t-54.5 40.5t-78 15q-54 0 -96.5 -25t-71.5 -66t-44 -93t-15 -106q0 -40 10.5 -74.5t32 -60t54.5 -40.5t78 -15zM765 700h35l-96 -160h-15z" />
    <glyph glyph-name="Dcroat" unicode="&#x110;" horiz-adv-x="685" 
d="M171 340h-75l4 25h76l65 335h199q58 0 106.5 -19t83 -54.5t53.5 -86.5t19 -115q0 -84 -24.5 -161t-69 -135.5t-106.5 -93.5t-137 -35h-260zM360 25q69 0 127.5 32.5t100.5 87t65.5 127t23.5 153.5q0 58 -18 104.5t-50.5 78.5t-77 49.5t-96.5 17.5h-174l-60 -310h204
l-4 -25h-205l-61 -315h225z" />
    <glyph glyph-name="dcroat" unicode="&#x111;" horiz-adv-x="575" 
d="M295 -10q-41 0 -77 13t-62.5 38t-41.5 61.5t-15 84.5q0 65 19 117.5t52 89t77 56.5t93 20q72 0 119 -35.5t65 -99.5h5l47 240h-170l5 25h170l18 90h25l-18 -90h75l-5 -25h-75l-111 -575h-20l15 98h-5q-11 -20 -29.5 -39.5t-42.5 -34.5t-52.5 -24.5t-60.5 -9.5zM297 15
q42 0 80.5 18t68 51t47.5 79.5t18 103.5q0 40 -12.5 73t-35 56t-54.5 36t-71 13q-42 0 -80.5 -18t-68 -51t-47.5 -79.5t-18 -103.5q0 -40 12.5 -73t35 -56t54.5 -36t71 -13z" />
    <glyph glyph-name="Emacron" unicode="&#x112;" horiz-adv-x="600" 
d="M236 700h420l-5 -25h-395l-61 -310h375l-4 -25h-375l-62 -315h405l-4 -25h-430zM335 850h260l-5 -25h-260z" />
    <glyph glyph-name="emacron" unicode="&#x113;" horiz-adv-x="555" 
d="M310 -10q-96 0 -152 57.5t-56 156.5q0 74 22 133t58 99.5t82 62t94 21.5q45 0 82.5 -14.5t64.5 -41t42 -64.5t15 -85q0 -8 -1.5 -29t-5.5 -36h-426q-1 -8 -1.5 -16.5t-0.5 -23.5q0 -39 10.5 -74.5t33 -62.5t58 -42.5t84.5 -15.5q63 0 111 33t80 87h28q-36 -71 -96.5 -108
t-125.5 -37zM534 275q3 18 3 35q0 40 -12 74t-35 58.5t-57 38.5t-77 14q-44 0 -81 -17.5t-65.5 -47.5t-48 -70t-28.5 -85h401zM265 670h260l-5 -25h-260z" />
    <glyph glyph-name="Ebreve" unicode="&#x114;" horiz-adv-x="600" 
d="M236 700h420l-5 -25h-395l-61 -310h375l-4 -25h-375l-62 -315h405l-4 -25h-430zM463 785q-50 0 -84 27t-34 83h24q0 -36 24.5 -60.5t72.5 -24.5q39 0 66.5 21.5t37.5 63.5h25q-14 -57 -49 -83.5t-83 -26.5z" />
    <glyph glyph-name="ebreve" unicode="&#x115;" horiz-adv-x="555" 
d="M310 -10q-96 0 -152 57.5t-56 156.5q0 74 22 133t58 99.5t82 62t94 21.5q45 0 82.5 -14.5t64.5 -41t42 -64.5t15 -85q0 -8 -1.5 -29t-5.5 -36h-426q-1 -8 -1.5 -16.5t-0.5 -23.5q0 -39 10.5 -74.5t33 -62.5t58 -42.5t84.5 -15.5q63 0 111 33t80 87h28q-36 -71 -96.5 -108
t-125.5 -37zM534 275q3 18 3 35q0 40 -12 74t-35 58.5t-57 38.5t-77 14q-44 0 -81 -17.5t-65.5 -47.5t-48 -70t-28.5 -85h401zM393 605q-50 0 -84 27t-34 83h24q0 -36 24.5 -60.5t72.5 -24.5q39 0 66.5 21.5t37.5 63.5h25q-14 -57 -49 -83.5t-83 -26.5z" />
    <glyph glyph-name="Edotaccent" unicode="&#x116;" horiz-adv-x="600" 
d="M236 700h420l-5 -25h-395l-61 -310h375l-4 -25h-375l-62 -315h405l-4 -25h-430zM458 815q-11 0 -17 6.5t-6 16.5q0 12 8 19.5t19 7.5t17 -6.5t6 -16.5q0 -12 -8 -19.5t-19 -7.5z" />
    <glyph glyph-name="edotaccent" unicode="&#x117;" horiz-adv-x="555" 
d="M310 -10q-96 0 -152 57.5t-56 156.5q0 74 22 133t58 99.5t82 62t94 21.5q45 0 82.5 -14.5t64.5 -41t42 -64.5t15 -85q0 -8 -1.5 -29t-5.5 -36h-426q-1 -8 -1.5 -16.5t-0.5 -23.5q0 -39 10.5 -74.5t33 -62.5t58 -42.5t84.5 -15.5q63 0 111 33t80 87h28q-36 -71 -96.5 -108
t-125.5 -37zM534 275q3 18 3 35q0 40 -12 74t-35 58.5t-57 38.5t-77 14q-44 0 -81 -17.5t-65.5 -47.5t-48 -70t-28.5 -85h401zM388 635q-11 0 -17 6.5t-6 16.5q0 12 8 19.5t19 7.5t17 -6.5t6 -16.5q0 -12 -8 -19.5t-19 -7.5z" />
    <glyph glyph-name="Eogonek" unicode="&#x118;" horiz-adv-x="600" 
d="M475 -180q-39 0 -61 17.5t-22 47.5q0 28 10 47.5t26 32.5t36 21t41 14h-405l136 700h420l-5 -25h-395l-61 -310h375l-4 -25h-375l-62 -315h405l-4 -25q-24 -11 -43.5 -21.5t-34 -22.5t-22.5 -28t-8 -38t16 -33.5t42 -11.5h34l-4 -25h-35v0z" />
    <glyph glyph-name="eogonek" unicode="&#x119;" horiz-adv-x="555" 
d="M282 -180q-39 0 -61 17.5t-22 47.5q0 47 26 70.5t60 35.5q-85 8 -134 64.5t-49 148.5q0 74 22 133t58 99.5t82 62t94 21.5q45 0 82.5 -14.5t64.5 -41t42 -64.5t15 -85q0 -8 -1.5 -29t-5.5 -36h-426q-1 -8 -1.5 -16.5t-0.5 -23.5q0 -39 10.5 -74.5t33 -62.5t58 -42.5
t84.5 -15.5q63 0 111 33t80 87h28q-35 -70 -93.5 -106.5t-122.5 -38.5q-39 -19 -63 -40t-24 -60q0 -22 16 -33.5t42 -11.5h34l-4 -25h-35zM534 275q3 18 3 35q0 40 -12 74t-35 58.5t-57 38.5t-77 14q-44 0 -81 -17.5t-65.5 -47.5t-48 -70t-28.5 -85h401z" />
    <glyph glyph-name="Ecaron" unicode="&#x11a;" horiz-adv-x="600" 
d="M236 700h420l-5 -25h-395l-61 -310h375l-4 -25h-375l-62 -315h405l-4 -25h-430zM340 915h27l87 -122h5l133 122h33l-158 -145h-25z" />
    <glyph glyph-name="ecaron" unicode="&#x11b;" horiz-adv-x="555" 
d="M310 -10q-96 0 -152 57.5t-56 156.5q0 74 22 133t58 99.5t82 62t94 21.5q45 0 82.5 -14.5t64.5 -41t42 -64.5t15 -85q0 -8 -1.5 -29t-5.5 -36h-426q-1 -8 -1.5 -16.5t-0.5 -23.5q0 -39 10.5 -74.5t33 -62.5t58 -42.5t84.5 -15.5q63 0 111 33t80 87h28q-36 -71 -96.5 -108
t-125.5 -37zM534 275q3 18 3 35q0 40 -12 74t-35 58.5t-57 38.5t-77 14q-44 0 -81 -17.5t-65.5 -47.5t-48 -70t-28.5 -85h401zM270 730h27l87 -122h5l133 122h33l-158 -145h-25z" />
    <glyph glyph-name="Gcircumflex" unicode="&#x11c;" horiz-adv-x="700" 
d="M392 -10q-62 0 -111.5 19t-84.5 56t-54 89.5t-19 120.5q0 96 26.5 175.5t72.5 137.5t108.5 90t134.5 32q104 0 169.5 -52t87.5 -143h-24q-23 75 -80 122.5t-154 47.5q-64 0 -121.5 -29.5t-100.5 -83.5t-68.5 -129.5t-25.5 -167.5q0 -62 17.5 -110.5t49.5 -81.5
t77.5 -50.5t101.5 -17.5q52 0 100 19.5t87 57t66 92.5t36 126h-260l5 25h285l-10 -50q-15 -74 -44 -129t-69.5 -92t-90.5 -55.5t-107 -18.5zM508 915h25l102 -145h-27l-86 122h-5l-134 -122h-33z" />
    <glyph glyph-name="gcircumflex" unicode="&#x11d;" horiz-adv-x="585" 
d="M281 -200q-39 0 -75 8t-65.5 26.5t-50.5 48t-30 72.5h27q19 -71 72 -100.5t125 -29.5q76 0 125.5 41.5t63.5 111.5l30 155h-5q-42 -55 -90 -79t-98 -24q-48 0 -85.5 16t-64 44t-40 66.5t-13.5 82.5q0 60 20 111.5t54 89t79.5 59t96.5 21.5q64 0 115 -33t74 -106h5l31 129
h20l-104 -535q-16 -80 -70.5 -127.5t-146.5 -47.5zM311 55q47 0 87.5 20.5t70.5 55t47 81t17 97.5q0 38 -11.5 71.5t-34 59t-56 40.5t-78.5 15q-47 0 -87.5 -20.5t-70.5 -55t-47 -81t-17 -97.5q0 -38 11.5 -71.5t34 -59t56 -40.5t78.5 -15zM408 735h25l102 -145h-27l-86 122
h-5l-134 -122h-33z" />
    <glyph glyph-name="Gbreve" unicode="&#x11e;" horiz-adv-x="700" 
d="M392 -10q-62 0 -111.5 19t-84.5 56t-54 89.5t-19 120.5q0 96 26.5 175.5t72.5 137.5t108.5 90t134.5 32q104 0 169.5 -52t87.5 -143h-24q-23 75 -80 122.5t-154 47.5q-64 0 -121.5 -29.5t-100.5 -83.5t-68.5 -129.5t-25.5 -167.5q0 -62 17.5 -110.5t49.5 -81.5
t77.5 -50.5t101.5 -17.5q52 0 100 19.5t87 57t66 92.5t36 126h-260l5 25h285l-10 -50q-15 -74 -44 -129t-69.5 -92t-90.5 -55.5t-107 -18.5zM503 785q-50 0 -84 27t-34 83h24q0 -36 24.5 -60.5t72.5 -24.5q39 0 66.5 21.5t37.5 63.5h25q-14 -57 -49 -83.5t-83 -26.5z" />
    <glyph glyph-name="gbreve" unicode="&#x11f;" horiz-adv-x="585" 
d="M281 -200q-39 0 -75 8t-65.5 26.5t-50.5 48t-30 72.5h27q19 -71 72 -100.5t125 -29.5q76 0 125.5 41.5t63.5 111.5l30 155h-5q-42 -55 -90 -79t-98 -24q-48 0 -85.5 16t-64 44t-40 66.5t-13.5 82.5q0 60 20 111.5t54 89t79.5 59t96.5 21.5q64 0 115 -33t74 -106h5l31 129
h20l-104 -535q-16 -80 -70.5 -127.5t-146.5 -47.5zM311 55q47 0 87.5 20.5t70.5 55t47 81t17 97.5q0 38 -11.5 71.5t-34 59t-56 40.5t-78.5 15q-47 0 -87.5 -20.5t-70.5 -55t-47 -81t-17 -97.5q0 -38 11.5 -71.5t34 -59t56 -40.5t78.5 -15zM398 605q-50 0 -84 27t-34 83h24
q0 -36 24.5 -60.5t72.5 -24.5q39 0 66.5 21.5t37.5 63.5h25q-14 -57 -49 -83.5t-83 -26.5z" />
    <glyph glyph-name="Gdotaccent" unicode="&#x120;" horiz-adv-x="700" 
d="M392 -10q-62 0 -111.5 19t-84.5 56t-54 89.5t-19 120.5q0 96 26.5 175.5t72.5 137.5t108.5 90t134.5 32q104 0 169.5 -52t87.5 -143h-24q-23 75 -80 122.5t-154 47.5q-64 0 -121.5 -29.5t-100.5 -83.5t-68.5 -129.5t-25.5 -167.5q0 -62 17.5 -110.5t49.5 -81.5
t77.5 -50.5t101.5 -17.5q52 0 100 19.5t87 57t66 92.5t36 126h-260l5 25h285l-10 -50q-15 -74 -44 -129t-69.5 -92t-90.5 -55.5t-107 -18.5zM503 815q-11 0 -17 6.5t-6 16.5q0 12 8 19.5t19 7.5t17 -6.5t6 -16.5q0 -12 -8 -19.5t-19 -7.5z" />
    <glyph glyph-name="gdotaccent" unicode="&#x121;" horiz-adv-x="585" 
d="M281 -200q-39 0 -75 8t-65.5 26.5t-50.5 48t-30 72.5h27q19 -71 72 -100.5t125 -29.5q76 0 125.5 41.5t63.5 111.5l30 155h-5q-42 -55 -90 -79t-98 -24q-48 0 -85.5 16t-64 44t-40 66.5t-13.5 82.5q0 60 20 111.5t54 89t79.5 59t96.5 21.5q64 0 115 -33t74 -106h5l31 129
h20l-104 -535q-16 -80 -70.5 -127.5t-146.5 -47.5zM311 55q47 0 87.5 20.5t70.5 55t47 81t17 97.5q0 38 -11.5 71.5t-34 59t-56 40.5t-78.5 15q-47 0 -87.5 -20.5t-70.5 -55t-47 -81t-17 -97.5q0 -38 11.5 -71.5t34 -59t56 -40.5t78.5 -15zM398 635q-11 0 -17 6.5t-6 16.5
q0 12 8 19.5t19 7.5t17 -6.5t6 -16.5q0 -12 -8 -19.5t-19 -7.5z" />
    <glyph glyph-name="Gcommaaccent" unicode="&#x122;" horiz-adv-x="700" 
d="M392 -10q-62 0 -111.5 19t-84.5 56t-54 89.5t-19 120.5q0 96 26.5 175.5t72.5 137.5t108.5 90t134.5 32q104 0 169.5 -52t87.5 -143h-24q-23 75 -80 122.5t-154 47.5q-64 0 -121.5 -29.5t-100.5 -83.5t-68.5 -129.5t-25.5 -167.5q0 -62 17.5 -110.5t49.5 -81.5
t77.5 -50.5t101.5 -17.5q52 0 100 19.5t87 57t66 92.5t36 126h-260l5 25h285l-10 -50q-15 -74 -44 -129t-69.5 -92t-90.5 -55.5t-107 -18.5zM360 -85h35l-95 -160h-15z" />
    <glyph glyph-name="gcommaaccent" unicode="&#x123;" horiz-adv-x="585" 
d="M465 750h15l-76 -160h-35zM281 -200q-39 0 -75 8t-65.5 26.5t-50.5 48t-30 72.5h27q19 -71 72 -100.5t125 -29.5q76 0 125.5 41.5t63.5 111.5l30 155h-5q-42 -55 -90 -79t-98 -24q-48 0 -85.5 16t-64 44t-40 66.5t-13.5 82.5q0 60 20 111.5t54 89t79.5 59t96.5 21.5
q64 0 115 -33t74 -106h5l31 129h20l-104 -535q-16 -80 -70.5 -127.5t-146.5 -47.5zM311 55q47 0 87.5 20.5t70.5 55t47 81t17 97.5q0 38 -11.5 71.5t-34 59t-56 40.5t-78.5 15q-47 0 -87.5 -20.5t-70.5 -55t-47 -81t-17 -97.5q0 -38 11.5 -71.5t34 -59t56 -40.5t78.5 -15z
" />
    <glyph glyph-name="Hcircumflex" unicode="&#x124;" horiz-adv-x="705" 
d="M236 700h25l-66 -335h455l66 335h25l-136 -700h-25l66 340h-455l-66 -340h-25zM508 915h25l102 -145h-27l-86 122h-5l-134 -122h-33z" />
    <glyph glyph-name="hcircumflex" unicode="&#x125;" horiz-adv-x="561" 
d="M226 700h25l-54 -280h5q24 42 69 71t98 29q79 0 126.5 -46t47.5 -124q0 -27 -6 -55l-57 -295h-25l58 299q2 12 3.5 23.5t1.5 22.5q0 32 -10 59.5t-29 47.5t-46.5 31.5t-63.5 11.5q-34 0 -65.5 -13.5t-57 -37.5t-44 -56t-25.5 -68l-62 -320h-25zM428 915h25l102 -145h-27
l-86 122h-5l-134 -122h-33z" />
    <glyph glyph-name="Hbar" unicode="&#x126;" horiz-adv-x="715" 
d="M211 550h-75l5 25h75l25 125h25l-25 -125h455l25 125h25l-25 -125h75l-5 -25h-75l-106 -550h-25l66 340h-455l-66 -340h-25zM655 365l36 185h-455l-36 -185h455z" />
    <glyph glyph-name="hbar" unicode="&#x127;" horiz-adv-x="550" 
d="M196 575h-75l5 25h75l20 100h25l-20 -100h170l-5 -25h-170l-43 -225h5q24 42 69 71t98 29q79 0 126.5 -46t47.5 -124q0 -27 -6 -55l-43 -225h-25l44 229q2 12 3.5 23.5t1.5 22.5q0 32 -10 59.5t-29 47.5t-46.5 31.5t-63.5 11.5q-34 0 -65.5 -13.5t-57 -37.5t-44 -56
t-25.5 -68l-48 -250h-25z" />
    <glyph glyph-name="Imacron" unicode="&#x12a;" horiz-adv-x="225" 
d="M236 700h25l-136 -700h-25zM145 850h260l-5 -25h-260z" />
    <glyph glyph-name="imacron" unicode="&#x12b;" horiz-adv-x="195" 
d="M184 510h25l-99 -510h-25zM95 670h260l-5 -25h-260z" />
    <glyph glyph-name="Ibreve" unicode="&#x12c;" horiz-adv-x="225" 
d="M236 700h25l-136 -700h-25zM268 785q-50 0 -84 27t-34 83h24q0 -36 24.5 -60.5t72.5 -24.5q39 0 66.5 21.5t37.5 63.5h25q-14 -57 -49 -83.5t-83 -26.5z" />
    <glyph glyph-name="ibreve" unicode="&#x12d;" horiz-adv-x="195" 
d="M184 510h25l-99 -510h-25zM218 605q-50 0 -84 27t-34 83h24q0 -36 24.5 -60.5t72.5 -24.5q39 0 66.5 21.5t37.5 63.5h25q-14 -57 -49 -83.5t-83 -26.5z" />
    <glyph glyph-name="Iogonek" unicode="&#x12e;" horiz-adv-x="225" 
d="M70 -180q-39 0 -61 17.5t-22 47.5q0 28 10 47.5t26 32.5t36 21t41 14l136 700h25l-136 -700q-24 -11 -43.5 -21.5t-34 -22.5t-22.5 -28t-8 -38t16 -33.5t42 -11.5h34l-4 -25h-35v0z" />
    <glyph glyph-name="iogonek" unicode="&#x12f;" horiz-adv-x="195" 
d="M55 -180q-39 0 -61 17.5t-22 47.5q0 28 10 47.5t26 32.5t36 21t41 14l99 510h25l-99 -510q-24 -11 -43.5 -21.5t-34 -22.5t-22.5 -28t-8 -38t16 -33.5t42 -11.5h34l-4 -25h-35zM225 625q-25 0 -25 23q0 13 8.5 20t17.5 7q25 0 25 -23q0 -13 -8.5 -20t-17.5 -7z" />
    <glyph glyph-name="Idotaccent" unicode="&#x130;" horiz-adv-x="225" 
d="M236 700h25l-136 -700h-25zM268 815q-11 0 -17 6.5t-6 16.5q0 12 8 19.5t19 7.5t17 -6.5t6 -16.5q0 -12 -8 -19.5t-19 -7.5z" />
    <glyph glyph-name="dotlessi" unicode="&#x131;" horiz-adv-x="195" 
d="M184 510h25l-99 -510h-25z" />
    <glyph glyph-name="uni0132" unicode="&#x132;" horiz-adv-x="735" 
d="M236 700h25l-136 -700h-25zM452 -10q-50 0 -86.5 15.5t-60.5 41t-35.5 57.5t-11.5 66h26q4 -75 51 -115t118 -40q72 0 124.5 46.5t69.5 129.5l99 509h25l-99 -508q-10 -50 -31 -87.5t-50 -63t-64.5 -38.5t-74.5 -13z" />
    <glyph glyph-name="uni0133" unicode="&#x133;" horiz-adv-x="395" 
d="M184 510h25l-99 -510h-25zM225 625q-25 0 -25 23q0 13 8.5 20t17.5 7q25 0 25 -23q0 -13 -8.5 -20t-17.5 -7zM111 -175h79q29 0 48 16.5t25 48.5l121 620h25l-121 -620q-9 -45 -34.5 -67.5t-63.5 -22.5h-83zM425 625q-25 0 -25 23q0 13 8.5 20t17.5 7q25 0 25 -23
q0 -13 -8.5 -20t-17.5 -7z" />
    <glyph glyph-name="Jcircumflex" unicode="&#x134;" horiz-adv-x="525" 
d="M242 -10q-50 0 -86.5 15.5t-60.5 41t-35.5 57.5t-11.5 66h26q4 -75 51 -115t118 -40q72 0 124.5 46.5t69.5 129.5l99 509h25l-99 -508q-10 -50 -31 -87.5t-50 -63t-64.5 -38.5t-74.5 -13zM573 915h25l102 -145h-27l-86 122h-5l-134 -122h-33z" />
    <glyph glyph-name="jcircumflex" unicode="&#x135;" horiz-adv-x="195" 
d="M-89 -175h79q29 0 48 16.5t25 48.5l121 620h25l-121 -620q-9 -45 -34.5 -67.5t-63.5 -22.5h-83zM223 735h25l102 -145h-27l-86 122h-5l-134 -122h-33z" />
    <glyph glyph-name="Kcommaaccent" unicode="&#x136;" horiz-adv-x="530" 
d="M236 700h25l-66 -335l426 335h37l-439 -347l314 -353h-33l-308 345l-67 -345h-25zM280 -85h35l-95 -160h-15z" />
    <glyph glyph-name="kcommaaccent" unicode="&#x137;" horiz-adv-x="435" 
d="M226 700h25l-84 -430l327 240h38l-342 -252l253 -258h-33l-247 250l-48 -250h-25zM230 -85h35l-95 -160h-15z" />
    <glyph glyph-name="Lacute" unicode="&#x139;" horiz-adv-x="500" 
d="M236 700h25l-132 -675h395l-4 -25h-420zM372 910h40l-137 -140h-20z" />
    <glyph glyph-name="lacute" unicode="&#x13a;" horiz-adv-x="205" 
d="M226 700h25l-136 -700h-25zM362 910h40l-137 -140h-20z" />
    <glyph glyph-name="Lcommaaccent" unicode="&#x13b;" horiz-adv-x="500" 
d="M236 700h25l-132 -675h395l-4 -25h-420zM280 -85h35l-95 -160h-15z" />
    <glyph glyph-name="lcommaaccent" unicode="&#x13c;" horiz-adv-x="205" 
d="M226 700h25l-136 -700h-25zM70 -85h35l-95 -160h-15z" />
    <glyph glyph-name="Lcaron" unicode="&#x13d;" horiz-adv-x="500" 
d="M236 700h25l-132 -675h395l-4 -25h-420zM425 700h35l-96 -160h-15z" />
    <glyph glyph-name="lcaron" unicode="&#x13e;" horiz-adv-x="245" 
d="M226 700h25l-136 -700h-25zM375 700h35l-96 -160h-15z" />
    <glyph glyph-name="Ldot" unicode="&#x13f;" horiz-adv-x="500" 
d="M435 350q-14 0 -20 8t-6 17q0 11 8 20.5t22 9.5t20 -8t6 -17q0 -11 -8 -20.5t-22 -9.5zM236 700h25l-132 -675h395l-4 -25h-420z" />
    <glyph glyph-name="ldot" unicode="&#x140;" horiz-adv-x="295" 
d="M315 330q-14 0 -20 8t-6 17q0 11 8 20.5t22 9.5t20 -8t6 -17q0 -11 -8 -20.5t-22 -9.5zM226 700h25l-136 -700h-25z" />
    <glyph glyph-name="Lslash" unicode="&#x141;" horiz-adv-x="510" 
d="M175 335l-86 -30l5 25l85 30l67 340h25l-65 -331l215 76l-5 -25l-215 -76l-62 -319h395l-4 -25h-420z" />
    <glyph glyph-name="lslash" unicode="&#x142;" horiz-adv-x="225" 
d="M167 346l-82 -36l5 25l82 36l64 329h25l-62 -317l82 37l-5 -25l-82 -37l-69 -358h-25z" />
    <glyph glyph-name="Nacute" unicode="&#x143;" horiz-adv-x="725" 
d="M236 700h30l337 -662h5l128 662h25l-136 -700h-30l-337 662h-5l-128 -662h-25zM617 910h40l-137 -140h-20z" />
    <glyph glyph-name="nacute" unicode="&#x144;" horiz-adv-x="555" 
d="M184 510h20l-12 -90h5q24 42 69 71t98 29q79 0 126.5 -46t47.5 -124q0 -27 -6 -55l-57 -295h-25l58 299q2 12 3.5 23.5t1.5 22.5q0 32 -10 59.5t-29 47.5t-46.5 31.5t-63.5 11.5q-34 0 -65.5 -13.5t-57 -37.5t-44 -56t-25.5 -68l-62 -320h-25zM492 730h40l-137 -140h-20z
" />
    <glyph glyph-name="Ncommaaccent" unicode="&#x145;" horiz-adv-x="725" 
d="M236 700h30l337 -662h5l128 662h25l-136 -700h-30l-337 662h-5l-128 -662h-25zM350 -85h35l-95 -160h-15z" />
    <glyph glyph-name="ncommaaccent" unicode="&#x146;" horiz-adv-x="555" 
d="M184 510h20l-12 -90h5q24 42 69 71t98 29q79 0 126.5 -46t47.5 -124q0 -27 -6 -55l-57 -295h-25l58 299q2 12 3.5 23.5t1.5 22.5q0 32 -10 59.5t-29 47.5t-46.5 31.5t-63.5 11.5q-34 0 -65.5 -13.5t-57 -37.5t-44 -56t-25.5 -68l-62 -320h-25zM260 -85h35l-95 -160h-15z
" />
    <glyph glyph-name="Ncaron" unicode="&#x147;" horiz-adv-x="725" 
d="M236 700h30l337 -662h5l128 662h25l-136 -700h-30l-337 662h-5l-128 -662h-25zM395 915h27l87 -122h5l133 122h33l-158 -145h-25z" />
    <glyph glyph-name="ncaron" unicode="&#x148;" horiz-adv-x="555" 
d="M184 510h20l-12 -90h5q24 42 69 71t98 29q79 0 126.5 -46t47.5 -124q0 -27 -6 -55l-57 -295h-25l58 299q2 12 3.5 23.5t1.5 22.5q0 32 -10 59.5t-29 47.5t-46.5 31.5t-63.5 11.5q-34 0 -65.5 -13.5t-57 -37.5t-44 -56t-25.5 -68l-62 -320h-25zM270 730h27l87 -122h5
l133 122h33l-158 -145h-25z" />
    <glyph glyph-name="napostrophe" unicode="&#x149;" horiz-adv-x="555" 
d="M184 510h20l-12 -90h5q24 42 69 71t98 29q79 0 126.5 -46t47.5 -124q0 -27 -6 -55l-57 -295h-25l58 299q2 12 3.5 23.5t1.5 22.5q0 32 -10 59.5t-29 47.5t-46.5 31.5t-63.5 11.5q-34 0 -65.5 -13.5t-57 -37.5t-44 -56t-25.5 -68l-62 -320h-25zM201 720h35l-96 -160h-15z
" />
    <glyph glyph-name="Eng" unicode="&#x14a;" horiz-adv-x="725" 
d="M390 -175h60q49 0 89 34.5t54 105.5l7 35h-5l-337 662h-5l-128 -662h-25l136 700h30l337 -662h5l128 662h25l-142 -730q-17 -90 -63.5 -130t-110.5 -40h-59z" />
    <glyph glyph-name="eng" unicode="&#x14b;" horiz-adv-x="555" 
d="M295 -175h60q29 0 48 16.5t25 48.5l80 409q2 12 3.5 23.5t1.5 22.5q0 32 -10 59.5t-29 47.5t-46.5 31.5t-63.5 11.5q-34 0 -65.5 -13.5t-57 -37.5t-44 -56t-25.5 -68l-62 -320h-25l99 510h20l-12 -90h5q24 42 69 71t98 29q79 0 126.5 -46t47.5 -124q0 -27 -6 -55
l-79 -405q-9 -45 -34.5 -67.5t-63.5 -22.5h-64z" />
    <glyph glyph-name="Omacron" unicode="&#x14c;" horiz-adv-x="720" 
d="M393 -10q-62 0 -112 19t-85 56t-54 89.5t-19 120.5q0 81 22 159t65.5 139.5t107.5 99t148 37.5q61 0 111 -19t85 -56t54 -90t19 -120q0 -81 -22 -159t-65.5 -139.5t-107.5 -99t-147 -37.5zM395 15q71 0 129 33t99.5 89.5t64 130.5t22.5 157q0 58 -16.5 106t-48 82
t-77.5 53t-105 19q-71 0 -129.5 -33t-99.5 -89.5t-63.5 -131t-22.5 -156.5q0 -58 16.5 -106t48 -82t77.5 -53t105 -19zM380 850h260l-5 -25h-260z" />
    <glyph glyph-name="omacron" unicode="&#x14d;" horiz-adv-x="570" 
d="M311 -10q-48 0 -86.5 15t-66 43t-42 68t-14.5 89q0 74 22 132.5t58 99t82.5 62t96.5 21.5q48 0 86.5 -15t66 -43t42 -68t14.5 -89q0 -74 -22 -132.5t-58 -99t-82.5 -62t-96.5 -21.5zM312 15q55 0 98.5 24.5t73.5 65t45.5 91t15.5 103.5q0 39 -10.5 74.5t-33 62.5
t-57.5 43t-84 16q-55 0 -98.5 -24.5t-73.5 -65t-45.5 -91.5t-15.5 -103q0 -39 10.5 -74.5t33 -62.5t57.5 -43t84 -16zM265 670h260l-5 -25h-260z" />
    <glyph glyph-name="Obreve" unicode="&#x14e;" horiz-adv-x="720" 
d="M393 -10q-62 0 -112 19t-85 56t-54 89.5t-19 120.5q0 81 22 159t65.5 139.5t107.5 99t148 37.5q61 0 111 -19t85 -56t54 -90t19 -120q0 -81 -22 -159t-65.5 -139.5t-107.5 -99t-147 -37.5zM395 15q71 0 129 33t99.5 89.5t64 130.5t22.5 157q0 58 -16.5 106t-48 82
t-77.5 53t-105 19q-71 0 -129.5 -33t-99.5 -89.5t-63.5 -131t-22.5 -156.5q0 -58 16.5 -106t48 -82t77.5 -53t105 -19zM503 785q-50 0 -84 27t-34 83h24q0 -36 24.5 -60.5t72.5 -24.5q39 0 66.5 21.5t37.5 63.5h25q-14 -57 -49 -83.5t-83 -26.5z" />
    <glyph glyph-name="obreve" unicode="&#x14f;" horiz-adv-x="570" 
d="M311 -10q-48 0 -86.5 15t-66 43t-42 68t-14.5 89q0 74 22 132.5t58 99t82.5 62t96.5 21.5q48 0 86.5 -15t66 -43t42 -68t14.5 -89q0 -74 -22 -132.5t-58 -99t-82.5 -62t-96.5 -21.5zM312 15q55 0 98.5 24.5t73.5 65t45.5 91t15.5 103.5q0 39 -10.5 74.5t-33 62.5
t-57.5 43t-84 16q-55 0 -98.5 -24.5t-73.5 -65t-45.5 -91.5t-15.5 -103q0 -39 10.5 -74.5t33 -62.5t57.5 -43t84 -16zM393 605q-50 0 -84 27t-34 83h24q0 -36 24.5 -60.5t72.5 -24.5q39 0 66.5 21.5t37.5 63.5h25q-14 -57 -49 -83.5t-83 -26.5z" />
    <glyph glyph-name="Ohungarumlaut" unicode="&#x150;" horiz-adv-x="720" 
d="M393 -10q-62 0 -112 19t-85 56t-54 89.5t-19 120.5q0 81 22 159t65.5 139.5t107.5 99t148 37.5q61 0 111 -19t85 -56t54 -90t19 -120q0 -81 -22 -159t-65.5 -139.5t-107.5 -99t-147 -37.5zM395 15q71 0 129 33t99.5 89.5t64 130.5t22.5 157q0 58 -16.5 106t-48 82
t-77.5 53t-105 19q-71 0 -129.5 -33t-99.5 -89.5t-63.5 -131t-22.5 -156.5q0 -58 16.5 -106t48 -82t77.5 -53t105 -19zM527 910h40l-137 -140h-20zM667 910h40l-137 -140h-20z" />
    <glyph glyph-name="ohungarumlaut" unicode="&#x151;" horiz-adv-x="570" 
d="M311 -10q-48 0 -86.5 15t-66 43t-42 68t-14.5 89q0 74 22 132.5t58 99t82.5 62t96.5 21.5q48 0 86.5 -15t66 -43t42 -68t14.5 -89q0 -74 -22 -132.5t-58 -99t-82.5 -62t-96.5 -21.5zM312 15q55 0 98.5 24.5t73.5 65t45.5 91t15.5 103.5q0 39 -10.5 74.5t-33 62.5
t-57.5 43t-84 16q-55 0 -98.5 -24.5t-73.5 -65t-45.5 -91.5t-15.5 -103q0 -39 10.5 -74.5t33 -62.5t57.5 -43t84 -16zM422 730h40l-137 -140h-20zM562 730h40l-137 -140h-20z" />
    <glyph glyph-name="OE" unicode="&#x152;" horiz-adv-x="1110" 
d="M380 -10q-62 0 -110 21.5t-80.5 59.5t-49.5 90t-17 114q0 84 23.5 162.5t67 139t106 97t141.5 36.5q54 0 97 -17t75.5 -47t52.5 -71t27 -90l41 215h415l-5 -25h-390l-61 -310h370l-4 -25h-370l-62 -315h400l-4 -25h-425l31 161q-25 -45 -56 -77t-66.5 -53t-72.5 -31
t-74 -10zM381 15q60 0 115.5 29t99 82t69.5 128t26 168q0 62 -17 111t-47.5 82.5t-73.5 51.5t-95 18q-60 0 -115.5 -29t-99 -82t-69.5 -128t-26 -168q0 -62 17 -111t47.5 -82.5t73.5 -51.5t95 -18z" />
    <glyph glyph-name="oe" unicode="&#x153;" horiz-adv-x="960" 
d="M301 -10q-97 0 -148 58t-51 157q0 74 20 132.5t54.5 99t79.5 62t95 21.5q83 0 132.5 -43.5t62.5 -119.5q35 75 93 119t132 44q41 0 77 -14.5t63 -41t43 -64.5t16 -85q0 -8 -1.5 -29t-5.5 -36h-416q-1 -8 -1.5 -16.5t-0.5 -23.5q0 -39 11 -74.5t33.5 -62.5t56.5 -42.5
t80 -15.5q57 0 104.5 33t79.5 87h30q-35 -68 -93 -106.5t-124 -38.5q-41 0 -75.5 12.5t-60 34.5t-42 53t-21.5 67q-32 -81 -91.5 -124t-131.5 -43zM302 15q55 0 97 24.5t70 65t42 91t14 103.5q0 39 -9 74.5t-29.5 62.5t-54 43t-82.5 16q-55 0 -97 -24.5t-70 -65t-42 -91.5
t-14 -103q0 -39 9 -74.5t29.5 -62.5t54 -43t82.5 -16zM942 275q3 18 3 35q0 40 -12 74t-35 58.5t-55.5 38.5t-73.5 14q-44 0 -80 -17.5t-64 -47.5t-46.5 -70t-27.5 -85h391z" />
    <glyph glyph-name="Racute" unicode="&#x154;" horiz-adv-x="620" 
d="M236 700h222q41 0 77 -10.5t62.5 -31.5t42 -52.5t15.5 -74.5q0 -53 -15.5 -95.5t-44.5 -72.5t-71 -46.5t-94 -16.5h-52l157 -300h-27l-157 300h-168l-58 -300h-25zM428 325q90 0 146 51.5t56 151.5q0 69 -47.5 108t-122.5 39h-204l-68 -350h240zM557 910h40l-137 -140
h-20z" />
    <glyph glyph-name="racute" unicode="&#x155;" horiz-adv-x="345" 
d="M184 510h20l-13 -90h5q22 42 61 66t88 24h74l-5 -25h-64q-36 0 -65.5 -13t-52.5 -35.5t-38.5 -52.5t-21.5 -64l-62 -320h-25zM417 730h40l-137 -140h-20z" />
    <glyph glyph-name="Rcommaaccent" unicode="&#x156;" horiz-adv-x="620" 
d="M236 700h222q41 0 77 -10.5t62.5 -31.5t42 -52.5t15.5 -74.5q0 -53 -15.5 -95.5t-44.5 -72.5t-71 -46.5t-94 -16.5h-52l157 -300h-27l-157 300h-168l-58 -300h-25zM428 325q90 0 146 51.5t56 151.5q0 69 -47.5 108t-122.5 39h-204l-68 -350h240zM290 -85h35l-95 -160h-15
z" />
    <glyph glyph-name="rcommaaccent" unicode="&#x157;" horiz-adv-x="345" 
d="M184 510h20l-13 -90h5q22 42 61 66t88 24h74l-5 -25h-64q-36 0 -65.5 -13t-52.5 -35.5t-38.5 -52.5t-21.5 -64l-62 -320h-25zM65 -85h35l-95 -160h-15z" />
    <glyph glyph-name="Rcaron" unicode="&#x158;" horiz-adv-x="620" 
d="M236 700h222q41 0 77 -10.5t62.5 -31.5t42 -52.5t15.5 -74.5q0 -53 -15.5 -95.5t-44.5 -72.5t-71 -46.5t-94 -16.5h-52l157 -300h-27l-157 300h-168l-58 -300h-25zM428 325q90 0 146 51.5t56 151.5q0 69 -47.5 108t-122.5 39h-204l-68 -350h240zM335 915h27l87 -122h5
l133 122h33l-158 -145h-25z" />
    <glyph glyph-name="rcaron" unicode="&#x159;" horiz-adv-x="345" 
d="M184 510h20l-13 -90h5q22 42 61 66t88 24h74l-5 -25h-64q-36 0 -65.5 -13t-52.5 -35.5t-38.5 -52.5t-21.5 -64l-62 -320h-25zM200 730h27l87 -122h5l133 122h33l-158 -145h-25z" />
    <glyph glyph-name="Sacute" unicode="&#x15a;" horiz-adv-x="590" 
d="M334 -10q-50 0 -93 13t-75.5 37t-54 59.5t-27.5 80.5h26q8 -45 30.5 -76.5t53.5 -51t67.5 -28.5t72.5 -9q48 0 87 14.5t66.5 39t43 56t15.5 65.5q0 41 -16.5 67t-43 43t-60.5 28t-70 20t-70 20.5t-60.5 29.5t-43 46t-16.5 71q0 40 14.5 76t43 62t69 41.5t93.5 15.5
q94 0 156.5 -41.5t75.5 -128.5h-27q-6 28 -19.5 54t-38.5 46.5t-61.5 32.5t-88.5 12q-38 0 -73 -10.5t-61.5 -31t-42 -51.5t-15.5 -73q0 -52 28 -79.5t70.5 -44t91.5 -28t91.5 -30.5t70.5 -51.5t28 -91.5q0 -34 -14 -70t-43.5 -66t-74 -49t-105.5 -19zM527 910h40l-137 -140
h-20z" />
    <glyph glyph-name="sacute" unicode="&#x15b;" horiz-adv-x="470" 
d="M268 -10q-38 0 -71.5 9t-59.5 27t-43 45t-23 64h26q4 -24 16 -46t32 -38.5t50.5 -26t72.5 -9.5q32 0 60 7t48.5 22t32.5 37.5t12 52.5q0 39 -21.5 60t-54 33t-70.5 19.5t-70.5 21t-54 36.5t-21.5 67q0 67 46.5 108t127.5 41q79 0 125 -35t54 -95h-25q-3 15 -11.5 33.5
t-26.5 34t-46.5 26.5t-71.5 11q-69 0 -108 -32.5t-39 -85.5q0 -39 21.5 -59.5t54 -32t70.5 -19t70.5 -21t54 -38t21.5 -69.5q0 -65 -46.5 -106.5t-131.5 -41.5zM432 730h40l-137 -140h-20z" />
    <glyph glyph-name="Scircumflex" unicode="&#x15c;" horiz-adv-x="590" 
d="M334 -10q-50 0 -93 13t-75.5 37t-54 59.5t-27.5 80.5h26q8 -45 30.5 -76.5t53.5 -51t67.5 -28.5t72.5 -9q48 0 87 14.5t66.5 39t43 56t15.5 65.5q0 41 -16.5 67t-43 43t-60.5 28t-70 20t-70 20.5t-60.5 29.5t-43 46t-16.5 71q0 40 14.5 76t43 62t69 41.5t93.5 15.5
q94 0 156.5 -41.5t75.5 -128.5h-27q-6 28 -19.5 54t-38.5 46.5t-61.5 32.5t-88.5 12q-38 0 -73 -10.5t-61.5 -31t-42 -51.5t-15.5 -73q0 -52 28 -79.5t70.5 -44t91.5 -28t91.5 -30.5t70.5 -51.5t28 -91.5q0 -34 -14 -70t-43.5 -66t-74 -49t-105.5 -19zM443 915h25l102 -145
h-27l-86 122h-5l-134 -122h-33z" />
    <glyph glyph-name="scircumflex" unicode="&#x15d;" horiz-adv-x="470" 
d="M268 -10q-38 0 -71.5 9t-59.5 27t-43 45t-23 64h26q4 -24 16 -46t32 -38.5t50.5 -26t72.5 -9.5q32 0 60 7t48.5 22t32.5 37.5t12 52.5q0 39 -21.5 60t-54 33t-70.5 19.5t-70.5 21t-54 36.5t-21.5 67q0 67 46.5 108t127.5 41q79 0 125 -35t54 -95h-25q-3 15 -11.5 33.5
t-26.5 34t-46.5 26.5t-71.5 11q-69 0 -108 -32.5t-39 -85.5q0 -39 21.5 -59.5t54 -32t70.5 -19t70.5 -21t54 -38t21.5 -69.5q0 -65 -46.5 -106.5t-131.5 -41.5zM348 735h25l102 -145h-27l-86 122h-5l-134 -122h-33z" />
    <glyph glyph-name="Scedilla" unicode="&#x15e;" horiz-adv-x="590" 
d="M219 -175h59q30 0 49 17.5t19 42.5q0 21 -16 35.5t-42 14.5h-38l3 15l30 44q-80 11 -134 59.5t-65 126.5h26q8 -45 30.5 -76.5t53.5 -51t67.5 -28.5t72.5 -9q48 0 87 14.5t66.5 39t43 56t15.5 65.5q0 41 -16.5 67t-43 43t-60.5 28t-70 20t-70 20.5t-60.5 29.5t-43 46
t-16.5 71q0 40 14.5 76t43 62t69 41.5t93.5 15.5q94 0 156.5 -41.5t75.5 -128.5h-27q-6 28 -19.5 54t-38.5 46.5t-61.5 32.5t-88.5 12q-38 0 -73 -10.5t-61.5 -31t-42 -51.5t-15.5 -73q0 -52 28 -79.5t70.5 -44t91.5 -28t91.5 -30.5t70.5 -51.5t28 -91.5q0 -34 -14 -70
t-43.5 -66t-74 -49t-105.5 -19h-28l-21 -30q40 0 63 -19t23 -51q0 -42 -26.5 -66t-71.5 -24h-58z" />
    <glyph glyph-name="scedilla" unicode="&#x15f;" horiz-adv-x="470" 
d="M159 -175h59q30 0 49 17.5t19 42.5q0 21 -16 35.5t-42 14.5h-38l3 15l30 43q-60 9 -101.5 44t-50.5 98h26q4 -24 16 -46t32 -38.5t50.5 -26t72.5 -9.5q32 0 60 7t48.5 22t32.5 37.5t12 52.5q0 39 -21.5 60t-54 33t-70.5 19.5t-70.5 21t-54 36.5t-21.5 67q0 67 46.5 108
t127.5 41q79 0 125 -35t54 -95h-25q-3 15 -11.5 33.5t-26.5 34t-46.5 26.5t-71.5 11q-69 0 -108 -32.5t-39 -85.5q0 -39 21.5 -59.5t54 -32t70.5 -19t70.5 -21t54 -38t21.5 -69.5q0 -65 -46.5 -106.5t-131.5 -41.5h-22l-21 -30q40 0 63 -19t23 -51q0 -42 -26.5 -66
t-71.5 -24h-58z" />
    <glyph glyph-name="Scaron" unicode="&#x160;" horiz-adv-x="590" 
d="M334 -10q-50 0 -93 13t-75.5 37t-54 59.5t-27.5 80.5h26q8 -45 30.5 -76.5t53.5 -51t67.5 -28.5t72.5 -9q48 0 87 14.5t66.5 39t43 56t15.5 65.5q0 41 -16.5 67t-43 43t-60.5 28t-70 20t-70 20.5t-60.5 29.5t-43 46t-16.5 71q0 40 14.5 76t43 62t69 41.5t93.5 15.5
q94 0 156.5 -41.5t75.5 -128.5h-27q-6 28 -19.5 54t-38.5 46.5t-61.5 32.5t-88.5 12q-38 0 -73 -10.5t-61.5 -31t-42 -51.5t-15.5 -73q0 -52 28 -79.5t70.5 -44t91.5 -28t91.5 -30.5t70.5 -51.5t28 -91.5q0 -34 -14 -70t-43.5 -66t-74 -49t-105.5 -19zM310 915h27l87 -122h5
l133 122h33l-158 -145h-25z" />
    <glyph glyph-name="scaron" unicode="&#x161;" horiz-adv-x="470" 
d="M268 -10q-38 0 -71.5 9t-59.5 27t-43 45t-23 64h26q4 -24 16 -46t32 -38.5t50.5 -26t72.5 -9.5q32 0 60 7t48.5 22t32.5 37.5t12 52.5q0 39 -21.5 60t-54 33t-70.5 19.5t-70.5 21t-54 36.5t-21.5 67q0 67 46.5 108t127.5 41q79 0 125 -35t54 -95h-25q-3 15 -11.5 33.5
t-26.5 34t-46.5 26.5t-71.5 11q-69 0 -108 -32.5t-39 -85.5q0 -39 21.5 -59.5t54 -32t70.5 -19t70.5 -21t54 -38t21.5 -69.5q0 -65 -46.5 -106.5t-131.5 -41.5zM215 730h27l87 -122h5l133 122h33l-158 -145h-25z" />
    <glyph glyph-name="uni0162" unicode="&#x162;" horiz-adv-x="580" 
d="M196 -175h59q30 0 49 17.5t19 42.5q0 21 -16 35.5t-42 14.5h-38l3 15l35 50l131 675h-250l5 25h525l-5 -25h-250l-131 -675l-28 -40q40 0 63 -19t23 -51q0 -42 -26.5 -66t-71.5 -24h-58z" />
    <glyph glyph-name="uni0163" unicode="&#x163;" horiz-adv-x="320" 
d="M98 -175h59q30 0 49 17.5t19 42.5q0 21 -16 35.5t-42 14.5h-38l3 15l41 58q-22 8 -34 26.5t-12 44.5q0 11 3 25l74 381h-90l5 25h90l32 140h20l-27 -140h140l-5 -25h-140l-75 -383q-1 -5 -1.5 -9t-0.5 -9q0 -26 15 -42.5t53 -16.5h59l-4 -25h-60q-11 0 -15 1q-4 0 -6 1
l-30 -42q40 0 63 -19t23 -51q0 -42 -26.5 -66t-71.5 -24h-58z" />
    <glyph glyph-name="Tcaron" unicode="&#x164;" horiz-adv-x="580" 
d="M396 675h-250l5 25h525l-5 -25h-250l-131 -675h-25zM305 915h27l87 -122h5l133 122h33l-158 -145h-25z" />
    <glyph glyph-name="tcaron" unicode="&#x165;" horiz-adv-x="335" 
d="M215 0q-42 0 -65 21.5t-23 57.5q0 11 3 25l74 381h-90l5 25h90l32 140h20l-27 -140h140l-5 -25h-140l-75 -383q-1 -5 -1.5 -9t-0.5 -9q0 -26 15 -42.5t53 -16.5h59l-4 -25h-60v0zM465 690h35l-96 -160h-15z" />
    <glyph glyph-name="Tbar" unicode="&#x166;" horiz-adv-x="580" 
d="M355 465h-190l5 25h190l36 185h-250l5 25h525l-5 -25h-250l-36 -185h190l-5 -25h-190l-90 -465h-25z" />
    <glyph glyph-name="tbar" unicode="&#x167;" horiz-adv-x="320" 
d="M215 0q-42 0 -65 21.5t-23 57.5q0 11 3 25l41 211h-90l5 25h90l28 145h-90l5 25h90l32 140h20l-27 -140h140l-5 -25h-140l-28 -145h140l-5 -25h-140l-42 -213q-1 -5 -1.5 -9t-0.5 -9q0 -26 15 -42.5t53 -16.5h59l-4 -25h-60v0z" />
    <glyph glyph-name="Umacron" unicode="&#x16a;" horiz-adv-x="700" 
d="M376 -10q-54 0 -97.5 16t-74 46t-47.5 73t-17 96q0 17 2 35.5t6 38.5l79 405h25l-79 -408q-7 -34 -7 -68q0 -97 56 -153t154 -56q45 0 85.5 15.5t73 45t55.5 72.5t34 99l88 453h25l-88 -453q-12 -62 -38 -110t-62 -80.5t-80 -49.5t-93 -17zM375 850h260l-5 -25h-260z" />
    <glyph glyph-name="umacron" unicode="&#x16b;" horiz-adv-x="554" 
d="M295 -10q-79 0 -126.5 46t-47.5 124q0 26 6 55l57 295h25l-58 -299q-2 -12 -3.5 -23.5t-1.5 -22.5q0 -32 10 -59.5t29 -47.5t46.5 -31.5t63.5 -11.5q34 0 65.5 13.5t57 37.5t44 56t25.5 68l62 320h25l-99 -510h-20l12 90h-5q-24 -42 -69 -71t-98 -29zM275 670h260l-5 -25
h-260z" />
    <glyph glyph-name="Ubreve" unicode="&#x16c;" horiz-adv-x="700" 
d="M376 -10q-54 0 -97.5 16t-74 46t-47.5 73t-17 96q0 17 2 35.5t6 38.5l79 405h25l-79 -408q-7 -34 -7 -68q0 -97 56 -153t154 -56q45 0 85.5 15.5t73 45t55.5 72.5t34 99l88 453h25l-88 -453q-12 -62 -38 -110t-62 -80.5t-80 -49.5t-93 -17zM498 785q-50 0 -84 27t-34 83
h24q0 -36 24.5 -60.5t72.5 -24.5q39 0 66.5 21.5t37.5 63.5h25q-14 -57 -49 -83.5t-83 -26.5z" />
    <glyph glyph-name="ubreve" unicode="&#x16d;" horiz-adv-x="554" 
d="M295 -10q-79 0 -126.5 46t-47.5 124q0 26 6 55l57 295h25l-58 -299q-2 -12 -3.5 -23.5t-1.5 -22.5q0 -32 10 -59.5t29 -47.5t46.5 -31.5t63.5 -11.5q34 0 65.5 13.5t57 37.5t44 56t25.5 68l62 320h25l-99 -510h-20l12 90h-5q-24 -42 -69 -71t-98 -29zM398 605
q-50 0 -84 27t-34 83h24q0 -36 24.5 -60.5t72.5 -24.5q39 0 66.5 21.5t37.5 63.5h25q-14 -57 -49 -83.5t-83 -26.5z" />
    <glyph glyph-name="Uring" unicode="&#x16e;" horiz-adv-x="700" 
d="M376 -10q-54 0 -97.5 16t-74 46t-47.5 73t-17 96q0 17 2 35.5t6 38.5l79 405h25l-79 -408q-7 -34 -7 -68q0 -97 56 -153t154 -56q45 0 85.5 15.5t73 45t55.5 72.5t34 99l88 453h25l-88 -453q-12 -62 -38 -110t-62 -80.5t-80 -49.5t-93 -17zM485 760q-34 0 -57 22t-23 56
q0 22 8.5 40t22.5 31t31.5 19.5t35.5 6.5q34 0 57 -22t23 -56q0 -23 -8.5 -40.5t-22.5 -30.5t-31.5 -19.5t-35.5 -6.5zM489 785q27 0 47.5 18.5t20.5 52.5q0 23 -15 38.5t-43 15.5q-27 0 -47.5 -18.5t-20.5 -52.5q0 -23 15 -38.5t43 -15.5z" />
    <glyph glyph-name="uring" unicode="&#x16f;" horiz-adv-x="554" 
d="M295 -10q-79 0 -126.5 46t-47.5 124q0 26 6 55l57 295h25l-58 -299q-2 -12 -3.5 -23.5t-1.5 -22.5q0 -32 10 -59.5t29 -47.5t46.5 -31.5t63.5 -11.5q34 0 65.5 13.5t57 37.5t44 56t25.5 68l62 320h25l-99 -510h-20l12 90h-5q-24 -42 -69 -71t-98 -29zM390 580
q-34 0 -57 22t-23 56q0 22 8.5 40t22.5 31t31.5 19.5t35.5 6.5q34 0 57 -22t23 -56q0 -23 -8.5 -40.5t-22.5 -30.5t-31.5 -19.5t-35.5 -6.5zM394 605q27 0 47.5 18.5t20.5 52.5q0 23 -15 38.5t-43 15.5q-27 0 -47.5 -18.5t-20.5 -52.5q0 -23 15 -38.5t43 -15.5z" />
    <glyph glyph-name="Uhungarumlaut" unicode="&#x170;" horiz-adv-x="700" 
d="M376 -10q-54 0 -97.5 16t-74 46t-47.5 73t-17 96q0 17 2 35.5t6 38.5l79 405h25l-79 -408q-7 -34 -7 -68q0 -97 56 -153t154 -56q45 0 85.5 15.5t73 45t55.5 72.5t34 99l88 453h25l-88 -453q-12 -62 -38 -110t-62 -80.5t-80 -49.5t-93 -17zM512 910h40l-137 -140h-20z
M652 910h40l-137 -140h-20z" />
    <glyph glyph-name="uhungarumlaut" unicode="&#x171;" horiz-adv-x="554" 
d="M295 -10q-79 0 -126.5 46t-47.5 124q0 26 6 55l57 295h25l-58 -299q-2 -12 -3.5 -23.5t-1.5 -22.5q0 -32 10 -59.5t29 -47.5t46.5 -31.5t63.5 -11.5q34 0 65.5 13.5t57 37.5t44 56t25.5 68l62 320h25l-99 -510h-20l12 90h-5q-24 -42 -69 -71t-98 -29zM417 730h40
l-137 -140h-20zM557 730h40l-137 -140h-20z" />
    <glyph glyph-name="Uogonek" unicode="&#x172;" horiz-adv-x="700" 
d="M351 -180q-39 0 -61 17.5t-22 47.5q0 46 25.5 70t58.5 36q-97 7 -154.5 68t-57.5 162q0 17 2 35.5t6 38.5l79 405h25l-79 -408q-7 -34 -7 -68q0 -97 56 -153t154 -56q45 0 85.5 15.5t73 45t55.5 72.5t34 99l88 453h25l-88 -453q-12 -60 -37 -107.5t-59.5 -80t-77.5 -50.5
t-90 -19q-39 -19 -63 -40t-24 -60q0 -22 16 -33.5t42 -11.5h34l-4 -25h-35v0z" />
    <glyph glyph-name="uogonek" unicode="&#x173;" horiz-adv-x="554" 
d="M420 -180q-39 0 -61 17.5t-22 47.5q0 28 10 47.5t26.5 33t37.5 22t44 14.5l12 88h-5q-24 -42 -69 -71t-98 -29q-79 0 -126.5 46t-47.5 124q0 26 6 55l57 295h25l-58 -299q-2 -12 -3.5 -23.5t-1.5 -22.5q0 -32 10 -59.5t29 -47.5t46.5 -31.5t63.5 -11.5q34 0 65.5 13.5
t57 37.5t44 56t25.5 68l62 320h25l-99 -510q-24 -11 -43.5 -21.5t-34 -22.5t-22.5 -28t-8 -38t16 -33.5t42 -11.5h34l-4 -25h-35v0z" />
    <glyph glyph-name="Wcircumflex" unicode="&#x174;" horiz-adv-x="885" 
d="M156 700h26l53 -665h5l316 665h33l56 -665h5l313 665h28l-329 -700h-39l-56 655h-5l-310 -655h-39zM593 915h25l102 -145h-27l-86 122h-5l-134 -122h-33z" />
    <glyph glyph-name="wcircumflex" unicode="&#x175;" horiz-adv-x="675" 
d="M109 510h25l44 -475h5l235 475h25l49 -475h5l230 475h27l-249 -510h-31l-49 465h-5l-229 -465h-31zM458 735h25l102 -145h-27l-86 122h-5l-134 -122h-33z" />
    <glyph glyph-name="Ycircumflex" unicode="&#x176;" horiz-adv-x="555" 
d="M302 270l-166 430h26l154 -400h5l310 400h30l-334 -430l-52 -270h-25zM418 915h25l102 -145h-27l-86 122h-5l-134 -122h-33z" />
    <glyph glyph-name="ycircumflex" unicode="&#x177;" horiz-adv-x="470" 
d="M219 2l-119 508h25l110 -470h6l281 470h28l-424 -710h-28zM343 735h25l102 -145h-27l-86 122h-5l-134 -122h-33z" />
    <glyph glyph-name="Ydieresis" unicode="&#x178;" horiz-adv-x="555" 
d="M302 270l-166 430h26l154 -400h5l310 400h30l-334 -430l-52 -270h-25zM328 815q-11 0 -17 6.5t-6 16.5q0 12 8 19.5t19 7.5t17 -6.5t6 -16.5q0 -12 -8 -19.5t-19 -7.5zM488 815q-11 0 -17 6.5t-6 16.5q0 12 8 19.5t19 7.5t17 -6.5t6 -16.5q0 -12 -8 -19.5t-19 -7.5z" />
    <glyph glyph-name="Zacute" unicode="&#x179;" horiz-adv-x="550" 
d="M38 20l557 655h-419l5 25h455l-4 -20l-557 -655h434l-4 -25h-470zM507 910h40l-137 -140h-20z" />
    <glyph glyph-name="zacute" unicode="&#x17a;" horiz-adv-x="435" 
d="M28 20l425 465h-324l5 25h360l-4 -20l-425 -465h339l-4 -25h-375zM417 730h40l-137 -140h-20z" />
    <glyph glyph-name="Zdotaccent" unicode="&#x17b;" horiz-adv-x="550" 
d="M38 20l557 655h-419l5 25h455l-4 -20l-557 -655h434l-4 -25h-470zM418 815q-11 0 -17 6.5t-6 16.5q0 12 8 19.5t19 7.5t17 -6.5t6 -16.5q0 -12 -8 -19.5t-19 -7.5z" />
    <glyph glyph-name="zdotaccent" unicode="&#x17c;" horiz-adv-x="435" 
d="M28 20l425 465h-324l5 25h360l-4 -20l-425 -465h339l-4 -25h-375zM328 635q-11 0 -17 6.5t-6 16.5q0 12 8 19.5t19 7.5t17 -6.5t6 -16.5q0 -12 -8 -19.5t-19 -7.5z" />
    <glyph glyph-name="Zcaron" unicode="&#x17d;" horiz-adv-x="550" 
d="M38 20l557 655h-419l5 25h455l-4 -20l-557 -655h434l-4 -25h-470zM295 915h27l87 -122h5l133 122h33l-158 -145h-25z" />
    <glyph glyph-name="zcaron" unicode="&#x17e;" horiz-adv-x="435" 
d="M28 20l425 465h-324l5 25h360l-4 -20l-425 -465h339l-4 -25h-375zM205 730h27l87 -122h5l133 122h33l-158 -145h-25z" />
    <glyph glyph-name="uni018F" unicode="&#x18f;" horiz-adv-x="720" 
d="M394 -10q-71 0 -122 22.5t-84 61.5t-48.5 91t-15.5 110q0 13 1 27t2 26t2 20.5t1 11.5h577q2 16 3 32t1 33q0 58 -16.5 106t-48 82t-77.5 53t-104 19q-76 0 -145 -41.5t-114 -128.5h-29q15 30 38.5 64t59 63.5t83 48.5t109.5 19q61 0 111 -19t85 -56t54 -90t19 -120
q0 -81 -22 -159t-65.5 -139.5t-107.5 -99t-147 -37.5zM395 15q68 0 121.5 28t92.5 73.5t62.5 103t32.5 115.5h-551q-2 -11 -3 -28.5t-1 -31.5q0 -56 16 -104t47.5 -82.5t77 -54t105.5 -19.5z" />
    <glyph glyph-name="florin" unicode="&#x192;" horiz-adv-x="405" 
d="M-47 -155h81q38 0 55 20.5t28 55.5l143 474h-100l7 25h100l55 179q8 28 18 47t23 31t31 17.5t42 5.5h66l-7 -25h-64q-38 0 -55 -20.5t-28 -55.5l-55 -179h110l-7 -25h-110l-143 -474q-9 -28 -18.5 -47t-22.5 -31t-30.5 -17.5t-42.5 -5.5h-83z" />
    <glyph glyph-name="Gacute" unicode="&#x1f4;" horiz-adv-x="700" 
d="M392 -10q-62 0 -111.5 19t-84.5 56t-54 89.5t-19 120.5q0 96 26.5 175.5t72.5 137.5t108.5 90t134.5 32q104 0 169.5 -52t87.5 -143h-24q-23 75 -80 122.5t-154 47.5q-64 0 -121.5 -29.5t-100.5 -83.5t-68.5 -129.5t-25.5 -167.5q0 -62 17.5 -110.5t49.5 -81.5
t77.5 -50.5t101.5 -17.5q52 0 100 19.5t87 57t66 92.5t36 126h-260l5 25h285l-10 -50q-15 -74 -44 -129t-69.5 -92t-90.5 -55.5t-107 -18.5zM602 910h40l-137 -140h-20z" />
    <glyph glyph-name="gacute" unicode="&#x1f5;" horiz-adv-x="585" 
d="M281 -200q-39 0 -75 8t-65.5 26.5t-50.5 48t-30 72.5h27q19 -71 72 -100.5t125 -29.5q76 0 125.5 41.5t63.5 111.5l30 155h-5q-42 -55 -90 -79t-98 -24q-48 0 -85.5 16t-64 44t-40 66.5t-13.5 82.5q0 60 20 111.5t54 89t79.5 59t96.5 21.5q64 0 115 -33t74 -106h5l31 129
h20l-104 -535q-16 -80 -70.5 -127.5t-146.5 -47.5zM311 55q47 0 87.5 20.5t70.5 55t47 81t17 97.5q0 38 -11.5 71.5t-34 59t-56 40.5t-78.5 15q-47 0 -87.5 -20.5t-70.5 -55t-47 -81t-17 -97.5q0 -38 11.5 -71.5t34 -59t56 -40.5t78.5 -15zM497 730h40l-137 -140h-20z" />
    <glyph glyph-name="Aringacute" unicode="&#x1fa;" horiz-adv-x="595" 
d="M460 744q-34 0 -57 22t-23 56q0 22 8.5 40t22.5 31t31.5 19.5t35.5 6.5h11l40 66h40l-60 -72q22 -9 35.5 -27.5t13.5 -44.5q0 -23 -8.5 -40.5t-22.5 -30.5t-31.5 -19.5t-35.5 -6.5zM464 769q27 0 47.5 18.5t20.5 52.5q0 23 -15 38.5t-43 15.5q-27 0 -47.5 -18.5
t-20.5 -52.5q0 -23 15 -38.5t43 -15.5zM431 700h35l129 -700h-23l-37 200h-365l-113 -200h-27zM530 225l-82 450h-5l-258 -450h345z" />
    <glyph glyph-name="aringacute" unicode="&#x1fb;" horiz-adv-x="520" 
d="M375 575q-34 0 -57 22t-23 56q0 22 8.5 40t22.5 31t31.5 19.5t35.5 6.5h11l40 65h40l-60 -71q22 -9 35.5 -27.5t13.5 -44.5q0 -23 -8.5 -40.5t-22.5 -30.5t-31.5 -19.5t-35.5 -6.5zM379 600q27 0 47.5 18.5t20.5 52.5q0 23 -15 38.5t-43 15.5q-27 0 -47.5 -18.5
t-20.5 -52.5q0 -23 15 -38.5t43 -15.5zM247 -10q-79 0 -122 36.5t-43 98.5q0 36 12.5 65.5t35 50.5t54 32.5t69.5 11.5h219l6 30q2 12 3.5 25.5t1.5 24.5q0 63 -40.5 96.5t-116.5 33.5q-33 0 -58 -9.5t-44 -26t-33.5 -38.5t-26.5 -46h-23q20 64 69.5 104.5t118.5 40.5
q45 0 79 -12t56 -33t33 -50t11 -62q0 -11 -1.5 -23t-3.5 -24l-61 -316h-20l12 90h-5q-27 -45 -74.5 -72.5t-107.5 -27.5zM247 15q39 0 74 14t62 38t45.5 56t25.5 67l14 70h-215q-37 0 -64.5 -11t-45.5 -29.5t-27 -42t-9 -47.5q0 -53 38 -84t102 -31z" />
    <glyph glyph-name="AEacute" unicode="&#x1fc;" horiz-adv-x="930" 
d="M486 700h500l-5 -25h-395l-61 -310h375l-4 -25h-375l-62 -315h405l-4 -25h-430l36 190h-306l-130 -190h-30zM471 215l90 460h-63l-320 -460h293zM712 910h40l-137 -140h-20z" />
    <glyph glyph-name="aeacute" unicode="&#x1fd;" horiz-adv-x="907" 
d="M252 -10q-75 0 -122.5 35.5t-47.5 99.5q0 36 12.5 63.5t34.5 47t52 29.5t66 10h223l8 40q2 12 3.5 25.5t1.5 24.5q0 63 -40.5 96.5t-116.5 33.5q-33 0 -58 -9.5t-44 -26t-33.5 -38.5t-26.5 -46h-23q20 64 69.5 104.5t118.5 40.5q83 0 126.5 -38t50.5 -96q35 65 90.5 99.5
t118.5 34.5q41 0 77 -14.5t63 -41t43 -64.5t16 -85q0 -8 -1.5 -29t-5.5 -36h-416q-1 -8 -1.5 -16.5t-0.5 -23.5q0 -39 11 -74.5t33.5 -62.5t56.5 -42.5t80 -15.5q57 0 104.5 33t79.5 87h30q-35 -68 -93 -106.5t-124 -38.5q-43 0 -77 12.5t-59 34.5t-40.5 51.5t-22.5 62.5
q-12 -42 -34.5 -72t-51.5 -50t-62.5 -29.5t-67.5 -9.5zM257 15q72 0 125 45t71 130l13 60h-219q-35 0 -61.5 -10.5t-44 -27t-26 -38.5t-8.5 -44q0 -54 41 -84.5t109 -30.5zM886 275q3 18 3 35q0 40 -12 74t-35 58.5t-55.5 38.5t-73.5 14q-44 0 -80 -17.5t-64 -47.5
t-46.5 -70t-27.5 -85h391zM637 730h40l-137 -140h-20z" />
    <glyph glyph-name="Oslashacute" unicode="&#x1fe;" horiz-adv-x="720" 
d="M196 64q-35 37 -54 89.5t-19 121.5q0 81 22 159t65.5 139.5t107.5 99t148 37.5q54 0 99.5 -15t79.5 -44l56 74h29l-68 -89q35 -37 54 -90t19 -121q0 -81 -22 -159t-65.5 -139.5t-107.5 -99t-147 -37.5q-110 0 -180 59l-56 -74h-29zM628 630q-31 26 -72.5 40.5t-92.5 14.5
q-71 0 -129.5 -33t-99.5 -89.5t-63.5 -131t-22.5 -156.5q0 -119 65 -189zM395 15q71 0 129 33t99.5 89.5t64 130.5t22.5 157q0 59 -16.5 107t-48.5 82l-415 -544q31 -26 72 -40.5t93 -14.5zM602 910h40l-137 -140h-20z" />
    <glyph glyph-name="oslashacute" unicode="&#x1ff;" horiz-adv-x="570" 
d="M153 54q-51 57 -51 151q0 74 22 132.5t58 99t82.5 62t96.5 21.5q88 0 142 -48l48 58h30l-62 -74q51 -57 51 -151q0 -74 -22 -132.5t-58 -99t-82.5 -62t-96.5 -21.5q-86 0 -142 48l-48 -58h-30zM486 452q-23 20 -53.5 31.5t-72.5 11.5q-55 0 -98.5 -24.5t-73.5 -65
t-45.5 -91.5t-15.5 -103q0 -39 10.5 -74t32.5 -62zM312 15q55 0 98.5 24.5t73.5 65t45.5 91t15.5 103.5q0 38 -10.5 73.5t-32.5 62.5l-316 -377q22 -20 53 -31.5t73 -11.5zM492 730h40l-137 -140h-20z" />
    <glyph glyph-name="Scommaaccent" unicode="&#x218;" horiz-adv-x="590" 
d="M334 -10q-50 0 -93 13t-75.5 37t-54 59.5t-27.5 80.5h26q8 -45 30.5 -76.5t53.5 -51t67.5 -28.5t72.5 -9q48 0 87 14.5t66.5 39t43 56t15.5 65.5q0 41 -16.5 67t-43 43t-60.5 28t-70 20t-70 20.5t-60.5 29.5t-43 46t-16.5 71q0 40 14.5 76t43 62t69 41.5t93.5 15.5
q94 0 156.5 -41.5t75.5 -128.5h-27q-6 28 -19.5 54t-38.5 46.5t-61.5 32.5t-88.5 12q-38 0 -73 -10.5t-61.5 -31t-42 -51.5t-15.5 -73q0 -52 28 -79.5t70.5 -44t91.5 -28t91.5 -30.5t70.5 -51.5t28 -91.5q0 -34 -14 -70t-43.5 -66t-74 -49t-105.5 -19zM285 -85h35l-95 -160
h-15z" />
    <glyph glyph-name="scommaaccent" unicode="&#x219;" horiz-adv-x="470" 
d="M268 -10q-38 0 -71.5 9t-59.5 27t-43 45t-23 64h26q4 -24 16 -46t32 -38.5t50.5 -26t72.5 -9.5q32 0 60 7t48.5 22t32.5 37.5t12 52.5q0 39 -21.5 60t-54 33t-70.5 19.5t-70.5 21t-54 36.5t-21.5 67q0 67 46.5 108t127.5 41q79 0 125 -35t54 -95h-25q-3 15 -11.5 33.5
t-26.5 34t-46.5 26.5t-71.5 11q-69 0 -108 -32.5t-39 -85.5q0 -39 21.5 -59.5t54 -32t70.5 -19t70.5 -21t54 -38t21.5 -69.5q0 -65 -46.5 -106.5t-131.5 -41.5zM230 -85h35l-95 -160h-15z" />
    <glyph glyph-name="uni021A" unicode="&#x21a;" horiz-adv-x="580" 
d="M396 675h-250l5 25h525l-5 -25h-250l-131 -675h-25zM245 -85h35l-95 -160h-15z" />
    <glyph glyph-name="uni021B" unicode="&#x21b;" horiz-adv-x="320" 
d="M215 0q-42 0 -65 21.5t-23 57.5q0 11 3 25l74 381h-90l5 25h90l32 140h20l-27 -140h140l-5 -25h-140l-75 -383q-1 -5 -1.5 -9t-0.5 -9q0 -26 15 -42.5t53 -16.5h59l-4 -25h-60v0zM165 -85h35l-95 -160h-15z" />
    <glyph glyph-name="uni0232" unicode="&#x232;" horiz-adv-x="555" 
d="M302 270l-166 430h26l154 -400h5l310 400h30l-334 -430l-52 -270h-25zM285 850h260l-5 -25h-260z" />
    <glyph glyph-name="uni0233" unicode="&#x233;" horiz-adv-x="470" 
d="M219 2l-119 508h25l110 -470h6l281 470h28l-424 -710h-28zM210 670h260l-5 -25h-260z" />
    <glyph glyph-name="uni0244" unicode="&#x244;" horiz-adv-x="720" 
d="M390 -10q-54 0 -97.5 16t-74 46t-47.5 73t-17 96q0 17 2 35.5t6 38.5l33 170h-75l5 25h75l41 210h25l-41 -210h460l41 210h25l-41 -210h75l-5 -25h-75l-42 -218q-12 -62 -38 -110t-62 -80.5t-80 -49.5t-93 -17zM390 15q45 0 85.5 15.5t73 45t55.5 72.5t34 99l42 218h-460
l-33 -173q-7 -34 -7 -68q0 -97 56 -153t154 -56z" />
    <glyph glyph-name="uni0259" unicode="&#x259;" horiz-adv-x="560" 
d="M304 -10q-45 0 -82.5 14.5t-64.5 41t-42 64.5t-15 85q0 8 1.5 29t5.5 36h426q1 8 1.5 16.5t0.5 23.5q0 39 -10.5 74.5t-33 62.5t-58 42.5t-84.5 15.5q-63 0 -111 -33t-80 -87h-28q36 71 96.5 108t125.5 37q96 0 152 -57.5t56 -156.5q0 -74 -22 -133t-58 -99.5t-82 -62
t-94 -21.5zM306 15q44 0 81 17.5t65.5 47.5t48 70t28.5 85h-401q-3 -18 -3 -35q0 -40 12 -74t35 -58.5t56.5 -38.5t77.5 -14z" />
    <glyph glyph-name="uni0289" unicode="&#x289;" horiz-adv-x="575" 
d="M299 -10q-79 0 -126.5 46t-47.5 124q0 26 6 55l34 175h-70l5 25h70l18 95h25l-18 -95h340l18 95h25l-18 -95h70l-5 -25h-70l-76 -390h-20l12 90h-5q-24 -42 -69 -71t-98 -29zM299 15q34 0 65.5 13.5t57 37.5t44 56t25.5 68l39 200h-340l-35 -179q-2 -12 -3.5 -23.5
t-1.5 -22.5q0 -32 10 -59.5t29 -47.5t46.5 -31.5t63.5 -11.5z" />
    <glyph glyph-name="uni02BC" unicode="&#x2bc;" horiz-adv-x="140" 
d="M209 690h35l-96 -160h-15z" />
    <glyph glyph-name="circumflex" unicode="&#x2c6;" horiz-adv-x="345" 
d="M302 735h25l102 -145h-27l-86 122h-5l-134 -122h-33z" />
    <glyph glyph-name="caron" unicode="&#x2c7;" horiz-adv-x="345" 
d="M171 730h27l87 -122h5l133 122h33l-158 -145h-25z" />
    <glyph glyph-name="breve" unicode="&#x2d8;" horiz-adv-x="310" 
d="M278 605q-50 0 -84 27t-34 83h24q0 -36 24.5 -60.5t72.5 -24.5q39 0 66.5 21.5t37.5 63.5h25q-14 -57 -49 -83.5t-83 -26.5z" />
    <glyph glyph-name="dotaccent" unicode="&#x2d9;" horiz-adv-x="110" 
d="M178 635q-11 0 -17 6.5t-6 16.5q0 12 8 19.5t19 7.5t17 -6.5t6 -16.5q0 -12 -8 -19.5t-19 -7.5z" />
    <glyph glyph-name="ring" unicode="&#x2da;" horiz-adv-x="235" 
d="M229 580q-34 0 -57 22t-23 56q0 22 8.5 40t22.5 31t31.5 19.5t35.5 6.5q34 0 57 -22t23 -56q0 -23 -8.5 -40.5t-22.5 -30.5t-31.5 -19.5t-35.5 -6.5zM233 605q27 0 47.5 18.5t20.5 52.5q0 23 -15 38.5t-43 15.5q-27 0 -47.5 -18.5t-20.5 -52.5q0 -23 15 -38.5t43 -15.5z
" />
    <glyph glyph-name="ogonek" unicode="&#x2db;" horiz-adv-x="190" 
d="M83 -180q-39 0 -61 17.5t-22 47.5q0 28 10 47.5t26 32.5t36 21t41 14l1 10h25l-1 -10q-24 -11 -43.5 -21.5t-34 -22.5t-22.5 -28t-8 -38t16 -33.5t42 -11.5h34l-4 -25h-35v0z" />
    <glyph glyph-name="tilde" unicode="&#x2dc;" horiz-adv-x="330" 
d="M362 615q-23 0 -40.5 10t-33 22.5t-31 22.5t-33.5 10t-31 -14t-18 -46h-25q4 45 25.5 65t47.5 20q22 0 40 -10t33.5 -22.5t31 -22.5t33.5 -10t31 14t18 46h25q-4 -45 -25.5 -65t-47.5 -20z" />
    <glyph glyph-name="hungarumlaut" unicode="&#x2dd;" horiz-adv-x="330" 
d="M261 730h40l-137 -140h-20zM401 730h40l-137 -140h-20z" />
    <glyph glyph-name="acutecomb" unicode="&#x301;" horiz-adv-x="0" 
d="M-104 910h40l-137 -140h-20z" />
    <glyph glyph-name="uni0302" unicode="&#x302;" horiz-adv-x="0" 
d="M-192 915h25l102 -145h-27l-86 122h-5l-134 -122h-33z" />
    <glyph glyph-name="uni0304" unicode="&#x304;" horiz-adv-x="0" 
d="M-325 850h260l-5 -25h-260z" />
    <glyph glyph-name="uni0306" unicode="&#x306;" horiz-adv-x="0" 
d="M-197 790q-50 0 -84 27t-34 83h24q0 -36 24.5 -60.5t72.5 -24.5q39 0 66.5 21.5t37.5 63.5h25q-14 -57 -49 -83.5t-83 -26.5z" />
    <glyph glyph-name="uni0307" unicode="&#x307;" horiz-adv-x="0" 
d="M-202 815q-11 0 -17 6.5t-6 16.5q0 12 8 19.5t19 7.5t17 -6.5t6 -16.5q0 -12 -8 -19.5t-19 -7.5z" />
    <glyph glyph-name="uni0308" unicode="&#x308;" horiz-adv-x="0" 
d="M-282 815q-11 0 -17 6.5t-6 16.5q0 12 8 19.5t19 7.5t17 -6.5t6 -16.5q0 -12 -8 -19.5t-19 -7.5zM-122 815q-11 0 -17 6.5t-6 16.5q0 12 8 19.5t19 7.5t17 -6.5t6 -16.5q0 -12 -8 -19.5t-19 -7.5z" />
    <glyph glyph-name="uni030A" unicode="&#x30a;" horiz-adv-x="0" 
d="M-207 750q-34 0 -57 22t-23 56q0 22 8.5 40t22.5 31t31.5 19.5t35.5 6.5q34 0 57 -22t23 -56q0 -23 -8.5 -40.5t-22.5 -30.5t-31.5 -19.5t-35.5 -6.5zM-203 775q27 0 47.5 18.5t20.5 52.5q0 23 -15 38.5t-43 15.5q-27 0 -47.5 -18.5t-20.5 -52.5q0 -23 15 -38.5t43 -15.5
z" />
    <glyph glyph-name="uni030C" unicode="&#x30c;" horiz-adv-x="0" 
d="M-325 910h27l87 -122h5l133 122h33l-158 -145h-25z" />
    <glyph glyph-name="uni0326" unicode="&#x326;" horiz-adv-x="140" 
d="M58 -85h35l-95 -160h-15z" />
    <glyph glyph-name="uni0400" unicode="&#x400;" horiz-adv-x="600" 
d="M236 700h420l-5 -25h-395l-61 -310h375l-4 -25h-375l-62 -315h405l-4 -25h-430zM360 910h37l63 -140h-17z" />
    <glyph glyph-name="uni0401" unicode="&#x401;" horiz-adv-x="600" 
d="M236 700h420l-5 -25h-395l-61 -310h375l-4 -25h-375l-62 -315h405l-4 -25h-430zM388 815q-11 0 -17 6.5t-6 16.5q0 12 8 19.5t19 7.5t17 -6.5t6 -16.5q0 -12 -8 -19.5t-19 -7.5zM548 815q-11 0 -17 6.5t-6 16.5q0 12 8 19.5t19 7.5t17 -6.5t6 -16.5q0 -12 -8 -19.5
t-19 -7.5z" />
    <glyph glyph-name="uni0402" unicode="&#x402;" horiz-adv-x="685" 
d="M326 675h-195l5 25h410l-5 -25h-190l-56 -285q23 8 62.5 19t86.5 11q55 0 96 -13t69 -36.5t42 -55.5t14 -70q0 -63 -19 -109t-51 -76t-74.5 -45t-90.5 -15h-75l4 25h71q43 0 81.5 13t67 40t45 67.5t16.5 95.5q0 75 -55.5 115t-149.5 40q-53 0 -89.5 -13t-55.5 -20
l-70 -363h-25z" />
    <glyph glyph-name="uni0403" unicode="&#x403;" horiz-adv-x="505" 
d="M236 700h380l-5 -25h-355l-131 -675h-25zM541 910h40l-137 -140h-20z" />
    <glyph glyph-name="uni0404" unicode="&#x404;" horiz-adv-x="690" 
d="M392 -10q-62 0 -111.5 19t-84.5 56t-54 89.5t-19 120.5q0 96 26.5 175.5t72.5 137.5t108.5 90t134.5 32q104 0 169.5 -52t87.5 -143h-24q-23 75 -80 122.5t-154 47.5q-56 0 -107 -22.5t-92 -64.5t-70 -101t-40 -132h323l-4 -25h-322q-2 -15 -3 -32.5t-1 -32.5
q0 -62 17.5 -110.5t49.5 -81.5t77.5 -50.5t101.5 -17.5q76 0 145.5 41.5t113.5 128.5h28q-20 -41 -48 -77t-64 -62t-80 -41t-97 -15z" />
    <glyph glyph-name="uni0405" unicode="&#x405;" horiz-adv-x="590" 
d="M334 -10q-50 0 -93 13t-75.5 37t-54 59.5t-27.5 80.5h26q8 -45 30.5 -76.5t53.5 -51t67.5 -28.5t72.5 -9q48 0 87 14.5t66.5 39t43 56t15.5 65.5q0 41 -16.5 67t-43 43t-60.5 28t-70 20t-70 20.5t-60.5 29.5t-43 46t-16.5 71q0 40 14.5 76t43 62t69 41.5t93.5 15.5
q94 0 156.5 -41.5t75.5 -128.5h-27q-6 28 -19.5 54t-38.5 46.5t-61.5 32.5t-88.5 12q-38 0 -73 -10.5t-61.5 -31t-42 -51.5t-15.5 -73q0 -52 28 -79.5t70.5 -44t91.5 -28t91.5 -30.5t70.5 -51.5t28 -91.5q0 -34 -14 -70t-43.5 -66t-74 -49t-105.5 -19z" />
    <glyph glyph-name="uni0406" unicode="&#x406;" horiz-adv-x="225" 
d="M236 700h25l-136 -700h-25z" />
    <glyph glyph-name="uni0407" unicode="&#x407;" horiz-adv-x="225" 
d="M236 700h25l-136 -700h-25zM188 815q-11 0 -17 6.5t-6 16.5q0 12 8 19.5t19 7.5t17 -6.5t6 -16.5q0 -12 -8 -19.5t-19 -7.5zM348 815q-11 0 -17 6.5t-6 16.5q0 12 8 19.5t19 7.5t17 -6.5t6 -16.5q0 -12 -8 -19.5t-19 -7.5z" />
    <glyph glyph-name="uni0408" unicode="&#x408;" horiz-adv-x="525" 
d="M242 -10q-50 0 -86.5 15.5t-60.5 41t-35.5 57.5t-11.5 66h26q4 -75 51 -115t118 -40q72 0 124.5 46.5t69.5 129.5l99 509h25l-99 -508q-10 -50 -31 -87.5t-50 -63t-64.5 -38.5t-74.5 -13z" />
    <glyph glyph-name="uni0409" unicode="&#x409;" horiz-adv-x="1020" 
d="M13 20h17q28 0 54.5 11t50.5 42.5t45.5 88t39.5 148.5l76 390h400l-57 -290h176q94 0 145.5 -47.5t51.5 -125.5q0 -51 -16 -94.5t-45 -75t-71.5 -49.5t-94.5 -18h-250l131 675h-350l-71 -365q-20 -99 -42.5 -161t-49 -96t-57 -46t-66.5 -12h-21zM785 25q43 0 80 14
t64 40.5t42.5 65t15.5 88.5q0 73 -49.5 112.5t-132.5 39.5h-171l-70 -360h221z" />
    <glyph glyph-name="uni040A" unicode="&#x40a;" horiz-adv-x="1040" 
d="M236 700h25l-62 -315h430l62 315h25l-62 -315h188q41 0 76 -11t60.5 -32t39.5 -52t14 -70q0 -49 -15.5 -89.5t-43.5 -69.5t-67.5 -45t-88.5 -16h-262l69 360h-430l-69 -360h-25zM812 25q45 0 81 13.5t61.5 39t39 61t13.5 79.5q0 66 -47 104t-123 38h-188l-65 -335h228z
" />
    <glyph glyph-name="uni040B" unicode="&#x40b;" horiz-adv-x="680" 
d="M326 675h-195l5 25h410l-5 -25h-190l-56 -285q23 8 61.5 19t84.5 11q103 0 155 -45.5t52 -123.5q0 -26 -6 -56l-37 -195h-25l38 199q2 14 3.5 25.5t1.5 22.5q0 75 -51 112t-140 37q-47 0 -85 -12.5t-57 -20.5l-70 -363h-25z" />
    <glyph glyph-name="uni040C" unicode="&#x40c;" horiz-adv-x="530" 
d="M236 700h25l-66 -335l426 335h37l-439 -347l314 -353h-33l-308 345l-67 -345h-25zM547 910h40l-137 -140h-20z" />
    <glyph glyph-name="uni040D" unicode="&#x40d;" horiz-adv-x="725" 
d="M236 700h25l-127 -655h5l592 655h30l-136 -700h-25l127 655h-5l-592 -655h-30zM416 910h37l63 -140h-17z" />
    <glyph glyph-name="uni040E" unicode="&#x40e;" horiz-adv-x="530" 
d="M291 217l-150 483h25l140 -450h7l294 450h29l-456 -700h-29zM398 785q-50 0 -84 27t-34 83h24q0 -36 24.5 -60.5t72.5 -24.5q39 0 66.5 21.5t37.5 63.5h25q-14 -57 -49 -83.5t-83 -26.5z" />
    <glyph glyph-name="uni040F" unicode="&#x40f;" horiz-adv-x="700" 
d="M340 0h-240l136 700h25l-132 -675h450l132 675h25l-136 -700h-235l-29 -145h-25z" />
    <glyph glyph-name="uni0410" unicode="&#x410;" horiz-adv-x="595" 
d="M431 700h35l129 -700h-23l-37 200h-365l-113 -200h-27zM530 225l-82 450h-5l-258 -450h345z" />
    <glyph glyph-name="uni0411" unicode="&#x411;" horiz-adv-x="610" 
d="M236 700h420l-5 -25h-395l-54 -275h197q47 0 83.5 -12.5t62 -35.5t39 -54.5t13.5 -70.5q0 -51 -16.5 -93t-46 -72t-71 -46t-90.5 -16h-273zM373 25q43 0 80 13.5t63 39.5t41 63t15 84q0 72 -50 111t-133 39h-192l-68 -350h244z" />
    <glyph glyph-name="uni0412" unicode="&#x412;" horiz-adv-x="640" 
d="M236 700h264q36 0 67 -11t54 -31t36 -49.5t13 -65.5q0 -76 -40 -128t-108 -68q48 -20 71 -56t23 -83q0 -48 -15.5 -86.5t-42.5 -65.5t-65 -41.5t-83 -14.5h-310zM410 25q45 0 79 15t56.5 40t34 57.5t11.5 67.5q0 28 -10.5 52.5t-30 43t-49 29t-66.5 10.5h-244l-62 -315
h281zM469 365q39 0 71.5 13t56 36.5t36 55t12.5 69.5q0 27 -10 52t-30 43.5t-49 29.5t-66 11h-234l-61 -310h274z" />
    <glyph glyph-name="uni0413" unicode="&#x413;" horiz-adv-x="505" 
d="M236 700h380l-5 -25h-355l-131 -675h-25z" />
    <glyph glyph-name="uni0414" unicode="&#x414;" horiz-adv-x="670" 
d="M14 25h45q19 13 38 35t37 56.5t33.5 84.5t29.5 119l74 380h410l-132 -675h85l-33 -170h-25l29 145h-570l-29 -145h-24zM524 25l127 650h-360l-69 -355q-13 -68 -27.5 -116t-30 -82t-32.5 -57t-35 -40h427z" />
    <glyph glyph-name="uni0415" unicode="&#x415;" horiz-adv-x="600" 
d="M236 700h420l-5 -25h-395l-61 -310h375l-4 -25h-375l-62 -315h405l-4 -25h-430z" />
    <glyph glyph-name="uni0416" unicode="&#x416;" horiz-adv-x="780" 
d="M422 358l-271 342h33l264 -335l66 335h25l-66 -335l396 335h38l-410 -348l283 -352h-32l-278 345l-67 -345h-25l67 345l-412 -345h-38z" />
    <glyph glyph-name="uni0417" unicode="&#x417;" horiz-adv-x="590" 
d="M329 -10q-46 0 -88 12.5t-74.5 37.5t-53 61.5t-22.5 83.5h25q2 -28 14.5 -58t37.5 -55t65 -41t97 -16q42 0 80.5 12.5t68.5 36t48 58.5t18 80q0 31 -11 56.5t-31 43.5t-47 28t-59 10h-84l4 25h113q40 0 71.5 16t52.5 40t32 52t11 52t-9 52t-32 52t-61.5 40t-98.5 16
q-44 0 -79.5 -14.5t-62 -38.5t-44 -54.5t-26.5 -62.5h-25q10 41 31 76.5t52 62t71 41.5t88 15q51 0 92 -14t69.5 -38.5t44 -57.5t15.5 -70q0 -35 -11.5 -65t-31.5 -53.5t-47 -40t-57 -24.5q45 -17 70 -54.5t25 -86.5q0 -47 -18.5 -87t-50.5 -68.5t-76 -44.5t-96 -16z" />
    <glyph glyph-name="uni0418" unicode="&#x418;" horiz-adv-x="725" 
d="M236 700h25l-127 -655h5l592 655h30l-136 -700h-25l127 655h-5l-592 -655h-30z" />
    <glyph glyph-name="uni0419" unicode="&#x419;" horiz-adv-x="725" 
d="M236 700h25l-127 -655h5l592 655h30l-136 -700h-25l127 655h-5l-592 -655h-30zM513 785q-50 0 -84 27t-34 83h24q0 -36 24.5 -60.5t72.5 -24.5q39 0 66.5 21.5t37.5 63.5h25q-14 -57 -49 -83.5t-83 -26.5z" />
    <glyph glyph-name="uni041A" unicode="&#x41a;" horiz-adv-x="530" 
d="M236 700h25l-66 -335l426 335h37l-439 -347l314 -353h-33l-308 345l-67 -345h-25z" />
    <glyph glyph-name="uni041B" unicode="&#x41b;" horiz-adv-x="680" 
d="M13 20h17q28 0 54.5 11t50.5 42.5t45.5 88t39.5 148.5l76 390h420l-136 -700h-25l131 675h-370l-71 -365q-20 -99 -42.5 -161t-49 -96t-57 -46t-66.5 -12h-21z" />
    <glyph glyph-name="uni041C" unicode="&#x41c;" horiz-adv-x="835" 
d="M236 700h33l151 -662h5l409 662h37l-136 -700h-25l126 653h-5l-401 -653h-25l-149 653h-5l-126 -653h-25z" />
    <glyph glyph-name="uni041D" unicode="&#x41d;" horiz-adv-x="705" 
d="M236 700h25l-66 -335h455l66 335h25l-136 -700h-25l66 340h-455l-66 -340h-25z" />
    <glyph glyph-name="uni041E" unicode="&#x41e;" horiz-adv-x="720" 
d="M393 -10q-62 0 -112 19t-85 56t-54 89.5t-19 120.5q0 81 22 159t65.5 139.5t107.5 99t148 37.5q61 0 111 -19t85 -56t54 -90t19 -120q0 -81 -22 -159t-65.5 -139.5t-107.5 -99t-147 -37.5zM395 15q71 0 129 33t99.5 89.5t64 130.5t22.5 157q0 58 -16.5 106t-48 82
t-77.5 53t-105 19q-71 0 -129.5 -33t-99.5 -89.5t-63.5 -131t-22.5 -156.5q0 -58 16.5 -106t48 -82t77.5 -53t105 -19z" />
    <glyph glyph-name="uni041F" unicode="&#x41f;" horiz-adv-x="705" 
d="M236 700h505l-136 -700h-25l131 675h-455l-131 -675h-25z" />
    <glyph glyph-name="uni0420" unicode="&#x420;" horiz-adv-x="620" 
d="M236 700h219q90 0 145 -44.5t55 -130.5q0 -58 -17 -103.5t-47 -77t-71 -48t-90 -16.5h-251l-54 -280h-25zM425 305q43 0 80.5 13.5t65 40.5t43.5 68.5t16 97.5q0 37 -14 65.5t-37.5 47t-54 28t-64.5 9.5h-204l-72 -370h241z" />
    <glyph glyph-name="uni0421" unicode="&#x421;" horiz-adv-x="690" 
d="M392 -10q-62 0 -111.5 19t-84.5 56t-54 89.5t-19 120.5q0 96 26.5 175.5t72.5 137.5t108.5 90t134.5 32q104 0 169.5 -52t87.5 -143h-24q-23 75 -80 122.5t-154 47.5q-64 0 -121.5 -29.5t-100.5 -83.5t-68.5 -129.5t-25.5 -167.5q0 -62 17.5 -110.5t49.5 -81.5
t77.5 -50.5t101.5 -17.5q76 0 145.5 41.5t113.5 128.5h28q-20 -41 -48 -77t-64 -62t-80 -41t-97 -15z" />
    <glyph glyph-name="uni0422" unicode="&#x422;" horiz-adv-x="580" 
d="M396 675h-250l5 25h525l-5 -25h-250l-131 -675h-25z" />
    <glyph glyph-name="uni0423" unicode="&#x423;" horiz-adv-x="530" 
d="M291 217l-150 483h25l140 -450h7l294 450h29l-456 -700h-29z" />
    <glyph glyph-name="uni0424" unicode="&#x424;" horiz-adv-x="775" 
d="M392 70q-130 13 -201.5 80t-71.5 174q0 75 25.5 134t70 99.5t105 61.5t129.5 21h54l14 70h25l-14 -70q130 -13 201.5 -80t71.5 -174q0 -75 -25.5 -134t-70 -99.5t-105 -61.5t-129.5 -21h-54l-15 -80h-25zM498 615h-54q-66 0 -121 -19.5t-94.5 -56.5t-62 -91t-22.5 -123
q0 -97 65 -158.5t188 -71.5zM476 95q66 0 121 19.5t94.5 56.5t62 91t22.5 123q0 97 -65 158.5t-188 71.5l-101 -520h54z" />
    <glyph glyph-name="uni0425" unicode="&#x425;" horiz-adv-x="545" 
d="M324 360l-158 340h26l149 -320l275 320h30l-292 -340l166 -360h-26l-156 340l-288 -340h-30z" />
    <glyph glyph-name="uni0426" unicode="&#x426;" horiz-adv-x="725" 
d="M660 0h-560l136 700h25l-132 -675h450l132 675h25l-132 -675h85l-33 -170h-25z" />
    <glyph glyph-name="uni0427" unicode="&#x427;" horiz-adv-x="640" 
d="M569 282q-29 -14 -70 -25.5t-94 -11.5q-117 0 -178 52.5t-61 143.5q0 26 6 58l39 201h25l-40 -204q-3 -14 -4 -26.5t-1 -25.5q0 -82 56 -128t158 -46q60 0 101 13.5t70 27.5l75 389h25l-136 -700h-25z" />
    <glyph glyph-name="uni0428" unicode="&#x428;" horiz-adv-x="935" 
d="M236 700h25l-132 -675h330l132 675h25l-132 -675h330l132 675h25l-136 -700h-735z" />
    <glyph glyph-name="uni0429" unicode="&#x429;" horiz-adv-x="960" 
d="M895 0h-795l136 700h25l-132 -675h330l132 675h25l-132 -675h330l132 675h25l-132 -675h85l-33 -170h-25z" />
    <glyph glyph-name="uni042A" unicode="&#x42a;" horiz-adv-x="665" 
d="M291 675h-170l5 25h195l-57 -290h196q94 0 145.5 -47.5t51.5 -125.5q0 -51 -16 -94.5t-45 -75t-71.5 -49.5t-94.5 -18h-270zM430 25q43 0 80 14t64 40.5t42.5 65t15.5 88.5q0 73 -49.5 112.5t-132.5 39.5h-191l-70 -360h241z" />
    <glyph glyph-name="uni042B" unicode="&#x42b;" horiz-adv-x="790" 
d="M236 700h25l-57 -290h186q94 0 145.5 -47.5t51.5 -125.5q0 -51 -16 -94.5t-45 -75t-71.5 -49.5t-94.5 -18h-260zM360 25q43 0 80 14t64 40.5t42.5 65t15.5 88.5q0 73 -49.5 112.5t-132.5 39.5h-181l-70 -360h231zM801 700h25l-136 -700h-25z" />
    <glyph glyph-name="uni042C" unicode="&#x42c;" horiz-adv-x="605" 
d="M236 700h25l-57 -290h196q94 0 145.5 -47.5t51.5 -125.5q0 -51 -16 -94.5t-45 -75t-71.5 -49.5t-94.5 -18h-270zM370 25q43 0 80 14t64 40.5t42.5 65t15.5 88.5q0 73 -49.5 112.5t-132.5 39.5h-191l-70 -360h241z" />
    <glyph glyph-name="uni042D" unicode="&#x42d;" horiz-adv-x="680" 
d="M352 -10q-104 0 -169.5 52t-87.5 143h24q23 -75 80 -122.5t154 -47.5q57 0 109 23.5t93 66.5t69 103t39 132h-324l4 25h323q2 19 2.5 34t0.5 26q0 62 -17.5 110.5t-49.5 81.5t-77.5 50.5t-101.5 17.5q-76 0 -145.5 -41.5t-113.5 -128.5h-28q20 41 47.5 76.5t63.5 62
t80.5 41.5t97.5 15q61 0 111 -19t85 -56t54 -90t19 -120q0 -96 -26.5 -175.5t-72.5 -137.5t-108.5 -90t-134.5 -32z" />
    <glyph glyph-name="uni042E" unicode="&#x42e;" horiz-adv-x="905" 
d="M587 -10q-57 0 -103 19t-79 54.5t-51 86.5t-18 115q0 19 1 35.5t3 39.5h-149l-66 -340h-25l136 700h25l-66 -335h149q12 72 39.5 134.5t69.5 109.5t96.5 74t119.5 27q57 0 103 -19t79 -54.5t51 -86.5t18 -115q0 -88 -23.5 -168.5t-67 -142t-105 -98t-137.5 -36.5zM590 15
q69 0 125.5 35t96.5 93.5t61.5 134t21.5 157.5q0 58 -16.5 104.5t-46.5 78.5t-72.5 49.5t-93.5 17.5q-69 0 -125.5 -35t-96.5 -93.5t-61.5 -134t-21.5 -157.5q0 -58 16.5 -104.5t46.5 -78.5t72.5 -49.5t93.5 -17.5z" />
    <glyph glyph-name="uni042F" unicode="&#x42f;" horiz-adv-x="610" 
d="M348 300h-3q-94 0 -146.5 45.5t-52.5 123.5q0 54 16.5 97t45.5 73t70 45.5t91 15.5h277l-136 -700h-25l58 300h-161l-293 -300h-34zM548 325l68 350h-247q-42 0 -78.5 -13t-63 -38.5t-41.5 -63.5t-15 -87q0 -41 14.5 -69t39.5 -45.5t57 -25.5t68 -8h198z" />
    <glyph glyph-name="uni0430" unicode="&#x430;" horiz-adv-x="520" 
d="M247 -10q-79 0 -122 36.5t-43 98.5q0 36 12.5 65.5t35 50.5t54 32.5t69.5 11.5h219l6 30q2 12 3.5 25.5t1.5 24.5q0 63 -40.5 96.5t-116.5 33.5q-33 0 -58 -9.5t-44 -26t-33.5 -38.5t-26.5 -46h-23q20 64 69.5 104.5t118.5 40.5q45 0 79 -12t56 -33t33 -50t11 -62
q0 -11 -1.5 -23t-3.5 -24l-61 -316h-20l12 90h-5q-27 -45 -74.5 -72.5t-107.5 -27.5zM247 15q39 0 74 14t62 38t45.5 56t25.5 67l14 70h-215q-37 0 -64.5 -11t-45.5 -29.5t-27 -42t-9 -47.5q0 -53 38 -84t102 -31z" />
    <glyph glyph-name="uni0431" unicode="&#x431;" horiz-adv-x="565" 
d="M316 -10q-97 0 -149.5 56.5t-52.5 157.5q0 40 9 87q19 103 45.5 176.5t62.5 120.5t84 69.5t112 22.5q75 0 120.5 10t77.5 25l-4 -27q-29 -15 -79 -25t-125 -10q-53 0 -91.5 -17.5t-67.5 -53t-51.5 -88.5t-42.5 -124h5q12 22 32 42t45 35t54 24t61 9q51 0 89.5 -16
t64 -43.5t38.5 -65.5t13 -81q0 -65 -21 -117.5t-55.5 -89.5t-79.5 -57t-94 -20zM319 15q48 0 88.5 20.5t70.5 55t46.5 80t16.5 96.5q0 39 -11.5 73t-34 59.5t-56.5 40.5t-78 15q-48 0 -88.5 -20.5t-70.5 -55t-46.5 -80t-16.5 -96.5q0 -39 11.5 -73t34 -59.5t56.5 -40.5
t78 -15z" />
    <glyph glyph-name="uni0432" unicode="&#x432;" horiz-adv-x="510" 
d="M184 510h191q64 0 104.5 -29t40.5 -86q0 -23 -7 -45t-21 -41t-35.5 -32.5t-50.5 -18.5q78 -31 78 -104q0 -33 -11.5 -61t-33.5 -49t-53 -32.5t-70 -11.5h-231zM320 25q63 0 101 34t38 92q0 45 -35 72t-99 27h-167l-44 -225h206zM365 275q60 0 95 33t35 84q0 25 -9.5 43
t-26 29t-38.5 16t-46 5h-171l-41 -210h202z" />
    <glyph glyph-name="uni0433" unicode="&#x433;" horiz-adv-x="430" 
d="M184 510h320l-5 -25h-295l-94 -485h-25z" />
    <glyph glyph-name="uni0434" unicode="&#x434;" horiz-adv-x="535" 
d="M14 25h40q22 15 42 46q17 26 36 71.5t33 117.5l49 250h325l-95 -485h65l-28 -145h-25l24 120h-445l-24 -120h-24zM419 25l90 460h-275l-45 -230q-14 -70 -31 -114t-33 -70q-18 -30 -37 -46h331z" />
    <glyph glyph-name="uni0435" unicode="&#x435;" horiz-adv-x="555" 
d="M310 -10q-96 0 -152 57.5t-56 156.5q0 74 22 133t58 99.5t82 62t94 21.5q45 0 82.5 -14.5t64.5 -41t42 -64.5t15 -85q0 -8 -1.5 -29t-5.5 -36h-426q-1 -8 -1.5 -16.5t-0.5 -23.5q0 -39 10.5 -74.5t33 -62.5t58 -42.5t84.5 -15.5q63 0 111 33t80 87h28q-36 -71 -96.5 -108
t-125.5 -37zM534 275q3 18 3 35q0 40 -12 74t-35 58.5t-57 38.5t-77 14q-44 0 -81 -17.5t-65.5 -47.5t-48 -70t-28.5 -85h401z" />
    <glyph glyph-name="uni0436" unicode="&#x436;" horiz-adv-x="600" 
d="M314 263l-208 247h32l203 -240l47 240h25l-47 -240l297 240h37l-311 -252l223 -258h-33l-217 250l-48 -250h-25l48 250l-313 -250h-39z" />
    <glyph glyph-name="uni0437" unicode="&#x437;" horiz-adv-x="470" 
d="M266 -10q-87 0 -137 39.5t-58 105.5h25q8 -57 53.5 -88.5t117.5 -31.5q66 0 108.5 33t42.5 94q0 48 -30 78t-87 30h-82l5 25h107q30 0 53 9.5t39 25.5t24 35.5t8 40.5q0 22 -8.5 42t-26.5 35t-46.5 23.5t-67.5 8.5q-64 0 -102 -31.5t-59 -88.5h-24q7 30 23 56.5t40 46
t55.5 31t70.5 11.5q42 0 73.5 -10.5t53 -28.5t32.5 -41.5t11 -49.5q0 -28 -10 -51t-26 -40t-36.5 -27t-41.5 -13q39 -16 58 -47t19 -66t-13 -63.5t-36 -49t-56 -32t-72 -11.5z" />
    <glyph glyph-name="uni0438" unicode="&#x438;" horiz-adv-x="570" 
d="M184 510h25l-92 -473h5l427 473h35l-99 -510h-25l92 473h-5l-427 -473h-35z" />
    <glyph glyph-name="uni0439" unicode="&#x439;" horiz-adv-x="570" 
d="M184 510h25l-92 -473h5l427 473h35l-99 -510h-25l92 473h-5l-427 -473h-35zM403 610q-48 0 -78 26t-30 79h24q0 -42 25 -61t60 -19q32 0 59 19t37 61h26q-11 -46 -43 -75.5t-80 -29.5z" />
    <glyph glyph-name="uni043A" unicode="&#x43a;" horiz-adv-x="430" 
d="M184 510h25l-47 -240l327 240h38l-342 -252l253 -258h-33l-247 250l-48 -250h-25z" />
    <glyph glyph-name="uni043B" unicode="&#x43b;" horiz-adv-x="545" 
d="M13 20h17q22 0 43.5 11t41 41t37.5 82.5t34 135.5l43 220h330l-99 -510h-25l94 485h-280l-38 -195q-17 -88 -36.5 -145t-41.5 -90.5t-47.5 -46.5t-55.5 -13h-21z" />
    <glyph glyph-name="uni043C" unicode="&#x43c;" horiz-adv-x="685" 
d="M184 510h34l127 -475h5l313 475h36l-99 -510h-25l90 465h-5l-305 -465h-25l-125 465h-5l-90 -465h-25z" />
    <glyph glyph-name="uni043D" unicode="&#x43d;" horiz-adv-x="560" 
d="M184 510h25l-47 -240h340l47 240h25l-99 -510h-25l47 245h-340l-47 -245h-25z" />
    <glyph glyph-name="uni043E" unicode="&#x43e;" horiz-adv-x="570" 
d="M311 -10q-48 0 -86.5 15t-66 43t-42 68t-14.5 89q0 74 22 132.5t58 99t82.5 62t96.5 21.5q48 0 86.5 -15t66 -43t42 -68t14.5 -89q0 -74 -22 -132.5t-58 -99t-82.5 -62t-96.5 -21.5zM312 15q55 0 98.5 24.5t73.5 65t45.5 91t15.5 103.5q0 39 -10.5 74.5t-33 62.5
t-57.5 43t-84 16q-55 0 -98.5 -24.5t-73.5 -65t-45.5 -91.5t-15.5 -103q0 -39 10.5 -74.5t33 -62.5t57.5 -43t84 -16z" />
    <glyph glyph-name="uni043F" unicode="&#x43f;" horiz-adv-x="555" 
d="M184 510h385l-99 -510h-25l94 485h-335l-94 -485h-25z" />
    <glyph glyph-name="uni0440" unicode="&#x440;" horiz-adv-x="585" 
d="M184 510h20l-15 -98h5q38 59 89.5 83.5t100.5 24.5t86.5 -16t63 -44.5t38.5 -67.5t13 -85q0 -74 -21 -133t-56.5 -100t-81.5 -62.5t-96 -21.5q-34 0 -65.5 10t-56.5 29t-42.5 47t-23.5 64h-5l-66 -340h-25zM333 15q54 0 96.5 25t71.5 66t44 93t15 106q0 40 -10.5 74.5
t-32 60t-54.5 40.5t-78 15q-54 0 -96.5 -25t-71.5 -66t-44 -93t-15 -106q0 -40 10.5 -74.5t32 -60t54.5 -40.5t78 -15z" />
    <glyph glyph-name="uni0441" unicode="&#x441;" horiz-adv-x="545" 
d="M310 -10q-48 0 -86.5 15t-65.5 43t-41.5 68t-14.5 89q0 74 22 132.5t58 99t82.5 62t96.5 21.5q34 0 65.5 -8.5t58 -26.5t46 -45.5t29.5 -64.5h-26q-8 24 -22 46t-35 38.5t-50 26t-67 9.5q-55 0 -98.5 -24.5t-73.5 -65t-45.5 -91.5t-15.5 -104q0 -39 10.5 -74t33 -62
t57 -43t82.5 -16q66 0 114 32.5t80 87.5h28q-15 -30 -37 -56.5t-50.5 -46t-62.5 -31t-72 -11.5z" />
    <glyph glyph-name="uni0442" unicode="&#x442;" horiz-adv-x="440" 
d="M294 485h-190l5 25h405l-5 -25h-190l-94 -485h-25z" />
    <glyph glyph-name="uni0443" unicode="&#x443;" horiz-adv-x="470" 
d="M219 2l-119 508h25l110 -470h6l281 470h28l-424 -710h-28z" />
    <glyph glyph-name="uni0444" unicode="&#x444;" horiz-adv-x="675" 
d="M328 0q-110 11 -169.5 69.5t-59.5 151.5q0 66 22 119.5t60.5 91t91.5 58t115 20.5h38l41 210h25l-41 -210q110 -11 169.5 -69.5t59.5 -151.5q0 -66 -22 -119.5t-60.5 -91t-91.5 -58t-115 -20.5h-38l-39 -200h-25zM421 485h-36q-56 0 -104 -18.5t-83 -52t-54.5 -81.5
t-19.5 -108q0 -84 54.5 -137t154.5 -63zM394 25q56 0 104 18.5t83 52t54.5 81.5t19.5 108q0 84 -54.5 137t-154.5 63l-88 -460h36z" />
    <glyph glyph-name="uni0445" unicode="&#x445;" horiz-adv-x="420" 
d="M247 265l-123 245h27l111 -226l199 226h33l-219 -245l130 -265h-27l-118 246l-212 -246h-33z" />
    <glyph glyph-name="uni0446" unicode="&#x446;" horiz-adv-x="560" 
d="M505 0h-420l99 510h25l-95 -485h330l95 485h25l-95 -485h65l-28 -145h-25z" />
    <glyph glyph-name="uni0447" unicode="&#x447;" horiz-adv-x="509" 
d="M445 208q-14 -8 -49 -18t-81 -10q-94 0 -141 39.5t-47 104.5q0 11 1.5 22.5t3.5 23.5l27 140h25l-28 -143q-2 -11 -3 -21t-1 -19q0 -62 44 -92t119 -30q42 0 78 9.5t58 22.5l53 273h25l-99 -510h-25z" />
    <glyph glyph-name="uni0448" unicode="&#x448;" horiz-adv-x="795" 
d="M184 510h25l-95 -485h275l95 485h25l-95 -485h275l95 485h25l-99 -510h-625z" />
    <glyph glyph-name="uni0449" unicode="&#x449;" horiz-adv-x="805" 
d="M750 0h-665l99 510h25l-95 -485h275l95 485h25l-95 -485h275l95 485h25l-95 -485h65l-28 -145h-25z" />
    <glyph glyph-name="uni044A" unicode="&#x44a;" horiz-adv-x="535" 
d="M229 485h-135l5 25h160l-39 -200h155q72 0 113.5 -35.5t41.5 -99.5q0 -38 -12 -70t-34.5 -55.5t-54 -36.5t-70.5 -13h-224zM357 25q66 0 107 39.5t41 108.5q0 47 -33.5 79.5t-101.5 32.5h-155l-50 -260h192z" />
    <glyph glyph-name="uni044B" unicode="&#x44b;" horiz-adv-x="635" 
d="M184 510h25l-39 -200h145q72 0 113.5 -35.5t41.5 -99.5q0 -38 -12 -70t-34.5 -55.5t-54 -36.5t-70.5 -13h-214zM297 25q66 0 107 39.5t41 108.5q0 47 -33.5 79.5t-101.5 32.5h-145l-50 -260h182zM624 510h25l-99 -510h-25z" />
    <glyph glyph-name="uni044C" unicode="&#x44c;" horiz-adv-x="480" 
d="M179 510h25l-39 -200h155q72 0 113.5 -35.5t41.5 -99.5q0 -38 -12 -70t-34.5 -55.5t-54 -36.5t-70.5 -13h-224zM302 25q66 0 107 39.5t41 108.5q0 47 -33.5 79.5t-101.5 32.5h-155l-50 -260h192z" />
    <glyph glyph-name="uni044D" unicode="&#x44d;" horiz-adv-x="540" 
d="M281 -10q-34 0 -65.5 8.5t-58 26.5t-46 45t-29.5 65h26q8 -24 22 -46t35 -38.5t50 -26t67 -9.5q47 0 86 18.5t68.5 50t48.5 73.5t26 88h-238l5 25h236q1 8 1 14.5v15.5q0 39 -10.5 74t-33 62t-57 43t-82.5 16q-66 0 -114 -32.5t-80 -87.5h-28q15 30 37 56.5t50.5 46
t62.5 31t72 11.5q48 0 86.5 -15t65.5 -43t41.5 -68t14.5 -89q0 -74 -22 -132.5t-58 -99t-82.5 -62t-96.5 -21.5z" />
    <glyph glyph-name="uni044E" unicode="&#x44e;" horiz-adv-x="705" 
d="M451 -10q-45 0 -80.5 15t-61 42.5t-39 66.5t-13.5 86q0 11 0.5 22.5t1.5 22.5h-102l-47 -245h-25l99 510h25l-47 -240h100q9 59 33 105.5t57.5 78.5t74 49t84.5 17q45 0 80.5 -15t61 -42.5t39 -66.5t13.5 -86q0 -75 -21 -134.5t-56.5 -100.5t-81.5 -63t-95 -22zM455 15
q53 0 95 25.5t71 66.5t44 92.5t15 104.5q0 38 -10 72.5t-31 61t-53.5 42t-78.5 15.5q-53 0 -95 -25.5t-71 -66.5t-44 -92.5t-15 -104.5q0 -38 10 -72.5t31 -61t53.5 -42t78.5 -15.5z" />
    <glyph glyph-name="uni044F" unicode="&#x44f;" horiz-adv-x="500" 
d="M266 215q-69 5 -108 37.5t-39 91.5q0 36 11.5 66t33.5 52.5t53.5 35t70.5 12.5h226l-99 -510h-25l41 215h-131l-211 -215h-34zM436 240l48 245h-201q-66 0 -102.5 -37.5t-36.5 -103.5q0 -28 10.5 -47.5t29 -32t43.5 -18.5t53 -6h156z" />
    <glyph glyph-name="uni0450" unicode="&#x450;" horiz-adv-x="555" 
d="M310 -10q-96 0 -152 57.5t-56 156.5q0 74 22 133t58 99.5t82 62t94 21.5q45 0 82.5 -14.5t64.5 -41t42 -64.5t15 -85q0 -8 -1.5 -29t-5.5 -36h-426q-1 -8 -1.5 -16.5t-0.5 -23.5q0 -39 10.5 -74.5t33 -62.5t58 -42.5t84.5 -15.5q63 0 111 33t80 87h28q-36 -71 -96.5 -108
t-125.5 -37zM534 275q3 18 3 35q0 40 -12 74t-35 58.5t-57 38.5t-77 14q-44 0 -81 -17.5t-65.5 -47.5t-48 -70t-28.5 -85h401zM285 730h37l63 -140h-17z" />
    <glyph glyph-name="uni0451" unicode="&#x451;" horiz-adv-x="555" 
d="M310 -10q-96 0 -152 57.5t-56 156.5q0 74 22 133t58 99.5t82 62t94 21.5q45 0 82.5 -14.5t64.5 -41t42 -64.5t15 -85q0 -8 -1.5 -29t-5.5 -36h-426q-1 -8 -1.5 -16.5t-0.5 -23.5q0 -39 10.5 -74.5t33 -62.5t58 -42.5t84.5 -15.5q63 0 111 33t80 87h28q-36 -71 -96.5 -108
t-125.5 -37zM534 275q3 18 3 35q0 40 -12 74t-35 58.5t-57 38.5t-77 14q-44 0 -81 -17.5t-65.5 -47.5t-48 -70t-28.5 -85h401zM313 635q-11 0 -17 6.5t-6 16.5q0 12 8 19.5t19 7.5t17 -6.5t6 -16.5q0 -12 -8 -19.5t-19 -7.5zM473 635q-11 0 -17 6.5t-6 16.5q0 12 8 19.5
t19 7.5t17 -6.5t6 -16.5q0 -12 -8 -19.5t-19 -7.5z" />
    <glyph glyph-name="uni0452" unicode="&#x452;" horiz-adv-x="550" 
d="M265 -175h75q35 0 59.5 23t32.5 61l62 320q2 12 3.5 23.5t1.5 22.5q0 32 -10 59.5t-29 47.5t-46.5 31.5t-63.5 11.5q-34 0 -65.5 -13.5t-57 -37.5t-44 -56t-25.5 -68l-48 -250h-25l111 575h-75l5 25h75l20 100h25l-20 -100h170l-5 -25h-170l-43 -225h5q24 42 69 71t98 29
q79 0 126.5 -46t47.5 -124q0 -27 -6 -55l-62 -321q-9 -48 -41 -76t-80 -28h-74z" />
    <glyph glyph-name="uni0453" unicode="&#x453;" horiz-adv-x="430" 
d="M184 510h320l-5 -25h-295l-94 -485h-25zM457 730h40l-137 -140h-20z" />
    <glyph glyph-name="uni0454" unicode="&#x454;" horiz-adv-x="545" 
d="M310 -10q-48 0 -86.5 15t-65.5 43t-41.5 68t-14.5 89q0 74 22 132.5t58 99t82.5 62t96.5 21.5q34 0 65.5 -8.5t58 -26.5t46 -45.5t29.5 -64.5h-26q-8 24 -22 46t-35 38.5t-50 26t-67 9.5q-47 0 -86 -18.5t-68 -49.5t-48 -71.5t-26 -85.5h237l-5 -25h-235q-1 -6 -1.5 -16
t-0.5 -19q0 -39 10.5 -74t33 -62t57 -43t82.5 -16q66 0 114 32.5t80 87.5h28q-15 -30 -37 -56.5t-50.5 -46t-62.5 -31t-72 -11.5z" />
    <glyph glyph-name="uni0455" unicode="&#x455;" horiz-adv-x="470" 
d="M268 -10q-38 0 -71.5 9t-59.5 27t-43 45t-23 64h26q4 -24 16 -46t32 -38.5t50.5 -26t72.5 -9.5q32 0 60 7t48.5 22t32.5 37.5t12 52.5q0 39 -21.5 60t-54 33t-70.5 19.5t-70.5 21t-54 36.5t-21.5 67q0 67 46.5 108t127.5 41q79 0 125 -35t54 -95h-25q-3 15 -11.5 33.5
t-26.5 34t-46.5 26.5t-71.5 11q-69 0 -108 -32.5t-39 -85.5q0 -39 21.5 -59.5t54 -32t70.5 -19t70.5 -21t54 -38t21.5 -69.5q0 -65 -46.5 -106.5t-131.5 -41.5z" />
    <glyph glyph-name="uni0456" unicode="&#x456;" horiz-adv-x="195" 
d="M184 510h25l-99 -510h-25zM225 625q-25 0 -25 23q0 13 8.5 20t17.5 7q25 0 25 -23q0 -13 -8.5 -20t-17.5 -7z" />
    <glyph glyph-name="uni0457" unicode="&#x457;" horiz-adv-x="195" 
d="M184 510h25l-99 -510h-25zM138 635q-11 0 -17 6.5t-6 16.5q0 12 8 19.5t19 7.5t17 -6.5t6 -16.5q0 -12 -8 -19.5t-19 -7.5zM298 635q-11 0 -17 6.5t-6 16.5q0 12 8 19.5t19 7.5t17 -6.5t6 -16.5q0 -12 -8 -19.5t-19 -7.5z" />
    <glyph glyph-name="uni0458" unicode="&#x458;" horiz-adv-x="195" 
d="M-89 -175h79q29 0 48 16.5t25 48.5l121 620h25l-121 -620q-9 -45 -34.5 -67.5t-63.5 -22.5h-83zM225 625q-25 0 -25 23q0 13 8.5 20t17.5 7q25 0 25 -23q0 -13 -8.5 -20t-17.5 -7z" />
    <glyph glyph-name="uni0459" unicode="&#x459;" horiz-adv-x="805" 
d="M13 20h17q22 0 43.5 11t41 41t37.5 82.5t34 135.5l43 220h315l-39 -200h140q72 0 113.5 -35.5t41.5 -99.5q0 -38 -12 -70t-34.5 -55.5t-54 -36.5t-70.5 -13h-209l94 485h-265l-38 -195q-17 -88 -36.5 -145t-41.5 -90.5t-47.5 -46.5t-55.5 -13h-21zM627 25q66 0 107 39.5
t41 108.5q0 47 -33.5 79.5t-101.5 32.5h-140l-50 -260h177z" />
    <glyph glyph-name="uni045A" unicode="&#x45a;" horiz-adv-x="820" 
d="M184 510h25l-43 -220h325l43 220h25l-43 -220h159q64 0 102 -35.5t38 -91.5q0 -36 -12.5 -65.5t-34.5 -51.5t-52 -34t-64 -12h-217l51 265h-325l-51 -265h-25zM651 25q60 0 99.5 36t39.5 101q0 44 -33 73.5t-93 29.5h-153l-47 -240h187z" />
    <glyph glyph-name="uni045B" unicode="&#x45b;" horiz-adv-x="550" 
d="M196 575h-75l5 25h75l20 100h25l-20 -100h170l-5 -25h-170l-43 -225h5q24 42 69 71t98 29q79 0 126.5 -46t47.5 -124q0 -27 -6 -55l-43 -225h-25l44 229q2 12 3.5 23.5t1.5 22.5q0 32 -10 59.5t-29 47.5t-46.5 31.5t-63.5 11.5q-34 0 -65.5 -13.5t-57 -37.5t-44 -56
t-25.5 -68l-48 -250h-25z" />
    <glyph glyph-name="uni045C" unicode="&#x45c;" horiz-adv-x="430" 
d="M184 510h25l-47 -240l327 240h38l-342 -252l253 -258h-33l-247 250l-48 -250h-25zM457 730h40l-137 -140h-20z" />
    <glyph glyph-name="uni045D" unicode="&#x45d;" horiz-adv-x="570" 
d="M184 510h25l-92 -473h5l427 473h35l-99 -510h-25l92 473h-5l-427 -473h-35zM300 730h37l63 -140h-17z" />
    <glyph glyph-name="uni045E" unicode="&#x45e;" horiz-adv-x="470" 
d="M219 2l-119 508h25l110 -470h6l281 470h28l-424 -710h-28zM343 610q-48 0 -78 26t-30 79h24q0 -42 25 -61t60 -19q32 0 59 19t37 61h26q-11 -46 -43 -75.5t-80 -29.5z" />
    <glyph glyph-name="uni045F" unicode="&#x45f;" horiz-adv-x="555" 
d="M265 0h-180l99 510h25l-95 -485h335l95 485h25l-99 -510h-180l-24 -120h-25z" />
    <glyph glyph-name="uni0490" unicode="&#x490;" horiz-adv-x="505" 
d="M236 700h355l27 140h25l-32 -165h-355l-131 -675h-25z" />
    <glyph glyph-name="uni0491" unicode="&#x491;" horiz-adv-x="430" 
d="M184 510h295l23 120h25l-28 -145h-295l-94 -485h-25z" />
    <glyph glyph-name="uni0492" unicode="&#x492;" horiz-adv-x="565" 
d="M194 330h-100l5 25h100l67 345h410l-5 -25h-385l-62 -320h240l-5 -25h-240l-64 -330h-25z" />
    <glyph glyph-name="uni0493" unicode="&#x493;" horiz-adv-x="435" 
d="M157 245h-85l5 25h85l47 240h300l-5 -25h-275l-42 -215h205l-5 -25h-205l-47 -245h-25z" />
    <glyph glyph-name="uni0494" unicode="&#x494;" horiz-adv-x="600" 
d="M301 -95h34q48 0 90.5 17t74.5 49.5t50.5 80t18.5 109.5q0 45 -15.5 80t-43.5 59.5t-67 37t-85 12.5q-41 0 -73 -8.5t-55 -18.5q-26 -11 -47 -26l-58 -297h-25l136 700h410l-5 -25h-385l-68 -349q2 2 15.5 10t36 16.5t53 15.5t67.5 7q52 0 95 -14.5t74 -41.5t48 -66.5
t17 -88.5q0 -69 -21 -122t-56.5 -89t-83 -54.5t-99.5 -18.5h-38z" />
    <glyph glyph-name="uni0495" unicode="&#x495;" horiz-adv-x="475" 
d="M230 -175h15q34 0 68.5 18t62 51.5t44.5 81.5t17 109q0 78 -42 119.5t-111 41.5q-24 0 -45.5 -5t-38.5 -11.5t-30.5 -14t-20.5 -11.5l-39 -204h-25l99 510h300l-5 -25h-275l-49 -251q17 10 38 18q18 7 42 12.5t53 5.5q80 0 127 -45.5t47 -134.5q0 -70 -19.5 -124
t-50.5 -91t-70 -56t-78 -19h-18z" />
    <glyph glyph-name="uni0496" unicode="&#x496;" horiz-adv-x="795" 
d="M783 0h-35l-278 345l-67 -345h-25l67 345l-412 -345h-38l427 358l-271 342h33l264 -335l66 335h25l-66 -335l396 335h38l-410 -348l263 -327h52l-33 -170h-25z" />
    <glyph glyph-name="uni0497" unicode="&#x497;" horiz-adv-x="610" 
d="M609 0h-30l-217 250l-48 -250h-25l48 250l-313 -250h-39l329 263l-208 247h32l203 -240l47 240h25l-47 -240l297 240h37l-311 -252l202 -233h47l-28 -145h-25z" />
    <glyph glyph-name="uni049A" unicode="&#x49a;" horiz-adv-x="540" 
d="M535 0h-35l-308 345l-67 -345h-25l136 700h25l-66 -335l426 335l35 -2l-437 -345l292 -328h53l-33 -170h-25z" />
    <glyph glyph-name="uni049B" unicode="&#x49b;" horiz-adv-x="435" 
d="M435 0h-30l-247 250l-48 -250h-25l99 510h25l-47 -240l327 240h38l-342 -252l229 -233h50l-28 -145h-25z" />
    <glyph glyph-name="uni049C" unicode="&#x49c;" horiz-adv-x="585" 
d="M236 700h25l-66 -335h100l29 145h25l-29 -145h68l291 335h35l-305 -349l179 -351h-30l-174 340h-68l-29 -145h-25l29 145h-100l-66 -340h-25z" />
    <glyph glyph-name="uni049D" unicode="&#x49d;" horiz-adv-x="475" 
d="M184 510h25l-47 -240h80l23 120h25l-23 -120h57l210 240h32l-221 -253l128 -257h-28l-123 245h-60l-20 -105h-25l20 105h-80l-47 -245h-25z" />
    <glyph glyph-name="uni04A2" unicode="&#x4a2;" horiz-adv-x="730" 
d="M665 0h-85l66 340h-455l-66 -340h-25l136 700h25l-66 -335h455l66 335h25l-132 -675h85l-33 -170h-25z" />
    <glyph glyph-name="uni04A3" unicode="&#x4a3;" horiz-adv-x="570" 
d="M515 0h-65l47 245h-340l-47 -245h-25l99 510h25l-47 -240h340l47 240h25l-95 -485h65l-28 -145h-25z" />
    <glyph glyph-name="uni04AA" unicode="&#x4aa;" horiz-adv-x="690" 
d="M356 -8q-108 11 -170.5 84t-62.5 199q0 96 26.5 175.5t72.5 137.5t108.5 90t134.5 32q104 0 169.5 -52t87.5 -143h-24q-23 75 -80 122.5t-154 47.5q-64 0 -121.5 -29.5t-100.5 -83.5t-68.5 -129.5t-25.5 -167.5q0 -62 17.5 -110.5t49.5 -81.5t77.5 -50.5t101.5 -17.5
q76 0 145.5 41.5t113.5 128.5h28q-20 -41 -48 -77t-64 -62t-80 -41t-97 -15h-11l-26 -130h-25z" />
    <glyph glyph-name="uni04AB" unicode="&#x4ab;" horiz-adv-x="545" 
d="M275 -7q-81 10 -127 66t-46 146q0 74 22 132.5t58 99t82.5 62t96.5 21.5q34 0 65.5 -8.5t58 -26.5t46 -45.5t29.5 -64.5h-26q-8 24 -22 46t-35 38.5t-50 26t-67 9.5q-55 0 -98.5 -24.5t-73.5 -65t-45.5 -91.5t-15.5 -104q0 -39 10.5 -74t33 -62t57 -43t82.5 -16
q66 0 114 32.5t80 87.5h28q-15 -30 -37 -56.5t-50.5 -46t-62.5 -31t-72 -11.5h-10l-22 -110h-25z" />
    <glyph glyph-name="uni04AE" unicode="&#x4ae;" horiz-adv-x="555" 
d="M302 270l-166 430h26l154 -400h5l310 400h30l-334 -430l-52 -270h-25z" />
    <glyph glyph-name="uni04AF" unicode="&#x4af;" horiz-adv-x="465" 
d="M210 0h-10l-101 510h26l97 -490h5l289 490h28l-299 -510h-10l-39 -200h-25z" />
    <glyph glyph-name="uni04B0" unicode="&#x4b0;" horiz-adv-x="555" 
d="M302 270h-160l5 25h145l-156 405h26l154 -400h5l310 400h30l-315 -405h146l-5 -25h-160l-52 -270h-25z" />
    <glyph glyph-name="uni04B1" unicode="&#x4b1;" horiz-adv-x="465" 
d="M210 0h-120l4 25h100l-95 485h26l97 -490h5l289 490h28l-285 -485h100l-4 -25h-120l-39 -200h-25z" />
    <glyph glyph-name="uni04B2" unicode="&#x4b2;" horiz-adv-x="545" 
d="M525 0h-31l-156 340l-288 -340h-30l304 360l-158 340h26l149 -320l275 320h30l-292 -340l155 -335h45l-33 -170h-25z" />
    <glyph glyph-name="uni04B3" unicode="&#x4b3;" horiz-adv-x="420" 
d="M405 0h-27l-118 246l-212 -246h-33l232 265l-123 245h27l111 -226l199 226h33l-219 -245l118 -240h41l-28 -145h-25z" />
    <glyph glyph-name="uni04B6" unicode="&#x4b6;" horiz-adv-x="665" 
d="M600 0h-85l54 282q-29 -14 -70 -25.5t-94 -11.5q-117 0 -178 52.5t-61 143.5q0 26 6 58l39 201h25l-40 -204q-3 -14 -4 -26.5t-1 -25.5q0 -82 56 -128t158 -46q60 0 101 13.5t70 27.5l75 389h25l-131 -675h84l-33 -170h-25z" />
    <glyph glyph-name="uni04B7" unicode="&#x4b7;" horiz-adv-x="525" 
d="M470 0h-65l40 208q-14 -8 -49 -18t-81 -10q-94 0 -141 39.5t-47 104.5q0 11 1.5 22.5t3.5 23.5l27 140h25l-28 -143q-2 -11 -3 -21t-1 -19q0 -62 44 -92t119 -30q42 0 78 9.5t58 22.5l53 273h25l-94 -485h64l-28 -145h-25z" />
    <glyph glyph-name="uni04B8" unicode="&#x4b8;" horiz-adv-x="640" 
d="M569 282q-29 -14 -70 -25.5t-94 -11.5h-16t-22 1l-21 -111h-25l22 114q-88 14 -132.5 64t-44.5 128q0 26 6 58l39 201h25l-40 -204q-3 -14 -4 -26.5t-1 -25.5q0 -70 41 -114t116 -56l34 176h25l-35 -179q8 -1 16.5 -1h16.5q60 0 101 13.5t70 27.5l75 389h25l-136 -700
h-25z" />
    <glyph glyph-name="uni04B9" unicode="&#x4b9;" horiz-adv-x="509" 
d="M445 208q-14 -8 -49 -18t-81 -10h-21l-16 -85h-25l17 88q-72 10 -107.5 47t-35.5 94q0 11 1.5 22.5t3.5 23.5l27 140h25l-28 -143q-2 -11 -3 -21t-1 -19q0 -52 32.5 -82.5t90.5 -37.5l23 118h25l-24 -120h16q42 0 78 9.5t58 22.5l53 273h25l-99 -510h-25z" />
    <glyph glyph-name="uni04BA" unicode="&#x4ba;" horiz-adv-x="635" 
d="M236 700h25l-54 -282q29 14 70 25.5t94 11.5q117 0 178 -52.5t61 -143.5q0 -27 -6 -58l-39 -201h-25l40 204q3 14 4 26.5t1 25.5q0 82 -56 128t-158 46q-60 0 -101 -13.5t-70 -27.5l-75 -389h-25z" />
    <glyph glyph-name="uni04BB" unicode="&#x4bb;" horiz-adv-x="560" 
d="M226 700h25l-54 -280h5q24 42 69 71t98 29q79 0 126.5 -46t47.5 -124q0 -27 -6 -55l-57 -295h-25l58 299q2 12 3.5 23.5t1.5 22.5q0 32 -10 59.5t-29 47.5t-46.5 31.5t-63.5 11.5q-34 0 -65.5 -13.5t-57 -37.5t-44 -56t-25.5 -68l-62 -320h-25z" />
    <glyph glyph-name="uni04C1" unicode="&#x4c1;" horiz-adv-x="780" 
d="M422 358l-271 342h33l264 -335l66 335h25l-66 -335l396 335h38l-410 -348l283 -352h-32l-278 345l-67 -345h-25l67 345l-412 -345h-38zM543 785q-50 0 -84 27t-34 83h24q0 -36 24.5 -60.5t72.5 -24.5q39 0 66.5 21.5t37.5 63.5h25q-14 -57 -49 -83.5t-83 -26.5z" />
    <glyph glyph-name="uni04C2" unicode="&#x4c2;" horiz-adv-x="600" 
d="M314 263l-208 247h32l203 -240l47 240h25l-47 -240l297 240h37l-311 -252l223 -258h-33l-217 250l-48 -250h-25l48 250l-313 -250h-39zM423 610q-48 0 -78 26t-30 79h24q0 -42 25 -61t60 -19q32 0 59 19t37 61h26q-11 -46 -43 -75.5t-80 -29.5z" />
    <glyph glyph-name="uni04D2" unicode="&#x4d2;" horiz-adv-x="595" 
d="M431 700h35l129 -700h-23l-37 200h-365l-113 -200h-27zM530 225l-82 450h-5l-258 -450h345zM388 815q-11 0 -17 6.5t-6 16.5q0 12 8 19.5t19 7.5t17 -6.5t6 -16.5q0 -12 -8 -19.5t-19 -7.5zM548 815q-11 0 -17 6.5t-6 16.5q0 12 8 19.5t19 7.5t17 -6.5t6 -16.5
q0 -12 -8 -19.5t-19 -7.5z" />
    <glyph glyph-name="uni04D3" unicode="&#x4d3;" horiz-adv-x="520" 
d="M247 -10q-79 0 -122 36.5t-43 98.5q0 36 12.5 65.5t35 50.5t54 32.5t69.5 11.5h219l6 30q2 12 3.5 25.5t1.5 24.5q0 63 -40.5 96.5t-116.5 33.5q-33 0 -58 -9.5t-44 -26t-33.5 -38.5t-26.5 -46h-23q20 64 69.5 104.5t118.5 40.5q45 0 79 -12t56 -33t33 -50t11 -62
q0 -11 -1.5 -23t-3.5 -24l-61 -316h-20l12 90h-5q-27 -45 -74.5 -72.5t-107.5 -27.5zM247 15q39 0 74 14t62 38t45.5 56t25.5 67l14 70h-215q-37 0 -64.5 -11t-45.5 -29.5t-27 -42t-9 -47.5q0 -53 38 -84t102 -31zM298 635q-11 0 -17 6.5t-6 16.5q0 12 8 19.5t19 7.5
t17 -6.5t6 -16.5q0 -12 -8 -19.5t-19 -7.5zM458 635q-11 0 -17 6.5t-6 16.5q0 12 8 19.5t19 7.5t17 -6.5t6 -16.5q0 -12 -8 -19.5t-19 -7.5z" />
    <glyph glyph-name="uni04D8" unicode="&#x4d8;" horiz-adv-x="720" 
d="M394 -10q-71 0 -122 22.5t-84 61.5t-48.5 91t-15.5 110q0 13 1 27t2 26t2 20.5t1 11.5h577q2 16 3 32t1 33q0 58 -16.5 106t-48 82t-77.5 53t-104 19q-76 0 -145 -41.5t-114 -128.5h-29q15 30 38.5 64t59 63.5t83 48.5t109.5 19q61 0 111 -19t85 -56t54 -90t19 -120
q0 -81 -22 -159t-65.5 -139.5t-107.5 -99t-147 -37.5zM395 15q68 0 121.5 28t92.5 73.5t62.5 103t32.5 115.5h-551q-2 -11 -3 -28.5t-1 -31.5q0 -56 16 -104t47.5 -82.5t77 -54t105.5 -19.5z" />
    <glyph glyph-name="uni04D9" unicode="&#x4d9;" horiz-adv-x="560" 
d="M304 -10q-45 0 -82.5 14.5t-64.5 41t-42 64.5t-15 85q0 8 1.5 29t5.5 36h426q1 8 1.5 16.5t0.5 23.5q0 39 -10.5 74.5t-33 62.5t-58 42.5t-84.5 15.5q-63 0 -111 -33t-80 -87h-28q36 71 96.5 108t125.5 37q96 0 152 -57.5t56 -156.5q0 -74 -22 -133t-58 -99.5t-82 -62
t-94 -21.5zM306 15q44 0 81 17.5t65.5 47.5t48 70t28.5 85h-401q-3 -18 -3 -35q0 -40 12 -74t35 -58.5t56.5 -38.5t77.5 -14z" />
    <glyph glyph-name="uni04E0" unicode="&#x4e0;" horiz-adv-x="585" 
d="M324 -10q-46 0 -88 12.5t-74.5 37.5t-53 61.5t-22.5 83.5h25q2 -28 14.5 -58t37.5 -55t65 -41t97 -16q46 0 85.5 13.5t68 39t45 61.5t16.5 81q0 41 -15 73.5t-41.5 55t-62.5 34.5t-79 12h-105l5 25l355 265h-403l5 25h445l-5 -25l-352 -260l-1 -5h61q45 0 85 -13
t69.5 -38t46.5 -61.5t17 -83.5t-16.5 -87.5t-47.5 -71t-75.5 -48t-101.5 -17.5z" />
    <glyph glyph-name="uni04E1" unicode="&#x4e1;" horiz-adv-x="480" 
d="M223 -200q-40 0 -74.5 12.5t-60 35.5t-40.5 55.5t-15 72.5v19h25v-14q0 -34 13 -62.5t36 -49.5t53.5 -32.5t66.5 -11.5q39 0 74 16t61.5 45.5t41.5 71t15 92.5q0 32 -9.5 59.5t-29 47.5t-48 31.5t-65.5 11.5h-97l5 25l303 260h-332l5 25h370l-5 -25l-303 -260h54
q79 0 128 -45.5t49 -124.5q0 -58 -17.5 -105t-47.5 -80.5t-70.5 -51.5t-85.5 -18z" />
    <glyph glyph-name="uni04E2" unicode="&#x4e2;" horiz-adv-x="725" 
d="M236 700h25l-127 -655h5l592 655h30l-136 -700h-25l127 655h-5l-592 -655h-30zM390 850h260l-5 -25h-260z" />
    <glyph glyph-name="uni04E3" unicode="&#x4e3;" horiz-adv-x="570" 
d="M184 510h25l-92 -473h5l427 473h35l-99 -510h-25l92 473h-5l-427 -473h-35zM275 670h260l-5 -25h-260z" />
    <glyph glyph-name="uni04E6" unicode="&#x4e6;" horiz-adv-x="720" 
d="M393 -10q-62 0 -112 19t-85 56t-54 89.5t-19 120.5q0 81 22 159t65.5 139.5t107.5 99t148 37.5q61 0 111 -19t85 -56t54 -90t19 -120q0 -81 -22 -159t-65.5 -139.5t-107.5 -99t-147 -37.5zM395 15q71 0 129 33t99.5 89.5t64 130.5t22.5 157q0 58 -16.5 106t-48 82
t-77.5 53t-105 19q-71 0 -129.5 -33t-99.5 -89.5t-63.5 -131t-22.5 -156.5q0 -58 16.5 -106t48 -82t77.5 -53t105 -19zM423 815q-11 0 -17 6.5t-6 16.5q0 12 8 19.5t19 7.5t17 -6.5t6 -16.5q0 -12 -8 -19.5t-19 -7.5zM583 815q-11 0 -17 6.5t-6 16.5q0 12 8 19.5t19 7.5
t17 -6.5t6 -16.5q0 -12 -8 -19.5t-19 -7.5z" />
    <glyph glyph-name="uni04E7" unicode="&#x4e7;" horiz-adv-x="570" 
d="M311 -10q-48 0 -86.5 15t-66 43t-42 68t-14.5 89q0 74 22 132.5t58 99t82.5 62t96.5 21.5q48 0 86.5 -15t66 -43t42 -68t14.5 -89q0 -74 -22 -132.5t-58 -99t-82.5 -62t-96.5 -21.5zM312 15q55 0 98.5 24.5t73.5 65t45.5 91t15.5 103.5q0 39 -10.5 74.5t-33 62.5
t-57.5 43t-84 16q-55 0 -98.5 -24.5t-73.5 -65t-45.5 -91.5t-15.5 -103q0 -39 10.5 -74.5t33 -62.5t57.5 -43t84 -16zM313 635q-11 0 -17 6.5t-6 16.5q0 12 8 19.5t19 7.5t17 -6.5t6 -16.5q0 -12 -8 -19.5t-19 -7.5zM473 635q-11 0 -17 6.5t-6 16.5q0 12 8 19.5t19 7.5
t17 -6.5t6 -16.5q0 -12 -8 -19.5t-19 -7.5z" />
    <glyph glyph-name="uni04E8" unicode="&#x4e8;" horiz-adv-x="720" 
d="M393 -10q-62 0 -112 19t-85 56t-54 89.5t-19 120.5q0 81 22 159t65.5 139.5t107.5 99t148 37.5q61 0 111 -19t85 -56t54 -90t19 -120q0 -81 -22 -159t-65.5 -139.5t-107.5 -99t-147 -37.5zM395 15q62 0 114 25t92 69t66 103.5t37 127.5h-553q-3 -32 -3 -65
q0 -58 16.5 -106t48 -82t77.5 -53t105 -19zM707 365q3 28 3 60q0 58 -16.5 106t-48 82t-77.5 53t-105 19q-62 0 -113.5 -25t-91 -68t-66 -101.5t-37.5 -125.5h552z" />
    <glyph glyph-name="uni04E9" unicode="&#x4e9;" horiz-adv-x="570" 
d="M311 -10q-48 0 -86.5 15t-66 43t-42 68t-14.5 89q0 74 22 132.5t58 99t82.5 62t96.5 21.5q48 0 86.5 -15t66 -43t42 -68t14.5 -89q0 -74 -22 -132.5t-58 -99t-82.5 -62t-96.5 -21.5zM312 15q48 0 87 19t68.5 50.5t48 73.5t25.5 87h-412q-2 -9 -2 -17.5v-16.5
q0 -39 10.5 -74.5t33 -62.5t57.5 -43t84 -16zM544 270q1 8 1 15v14q0 39 -10.5 74.5t-33 62.5t-57.5 43t-84 16q-48 0 -86.5 -18.5t-67.5 -49.5t-48 -71.5t-26 -85.5h412z" />
    <glyph glyph-name="uni04EE" unicode="&#x4ee;" horiz-adv-x="530" 
d="M291 217l-150 483h25l140 -450h7l294 450h29l-456 -700h-29zM270 850h260l-5 -25h-260z" />
    <glyph glyph-name="uni04EF" unicode="&#x4ef;" horiz-adv-x="470" 
d="M219 2l-119 508h25l110 -470h6l281 470h28l-424 -710h-28zM210 670h260l-5 -25h-260z" />
    <glyph glyph-name="uni04F0" unicode="&#x4f0;" horiz-adv-x="530" 
d="M291 217l-150 483h25l140 -450h7l294 450h29l-456 -700h-29zM313 815q-11 0 -17 6.5t-6 16.5q0 12 8 19.5t19 7.5t17 -6.5t6 -16.5q0 -12 -8 -19.5t-19 -7.5zM473 815q-11 0 -17 6.5t-6 16.5q0 12 8 19.5t19 7.5t17 -6.5t6 -16.5q0 -12 -8 -19.5t-19 -7.5z" />
    <glyph glyph-name="uni04F1" unicode="&#x4f1;" horiz-adv-x="470" 
d="M219 2l-119 508h25l110 -470h6l281 470h28l-424 -710h-28zM258 635q-11 0 -17 6.5t-6 16.5q0 12 8 19.5t19 7.5t17 -6.5t6 -16.5q0 -12 -8 -19.5t-19 -7.5zM418 635q-11 0 -17 6.5t-6 16.5q0 12 8 19.5t19 7.5t17 -6.5t6 -16.5q0 -12 -8 -19.5t-19 -7.5z" />
    <glyph glyph-name="Wgrave" unicode="&#x1e80;" horiz-adv-x="885" 
d="M156 700h26l53 -665h5l316 665h33l56 -665h5l313 665h28l-329 -700h-39l-56 655h-5l-310 -655h-39zM475 910h37l63 -140h-17z" />
    <glyph glyph-name="wgrave" unicode="&#x1e81;" horiz-adv-x="675" 
d="M109 510h25l44 -475h5l235 475h25l49 -475h5l230 475h27l-249 -510h-31l-49 465h-5l-229 -465h-31zM340 730h37l63 -140h-17z" />
    <glyph glyph-name="Wacute" unicode="&#x1e82;" horiz-adv-x="885" 
d="M156 700h26l53 -665h5l316 665h33l56 -665h5l313 665h28l-329 -700h-39l-56 655h-5l-310 -655h-39zM697 910h40l-137 -140h-20z" />
    <glyph glyph-name="wacute" unicode="&#x1e83;" horiz-adv-x="675" 
d="M109 510h25l44 -475h5l235 475h25l49 -475h5l230 475h27l-249 -510h-31l-49 465h-5l-229 -465h-31zM552 730h40l-137 -140h-20z" />
    <glyph glyph-name="Wdieresis" unicode="&#x1e84;" horiz-adv-x="885" 
d="M156 700h26l53 -665h5l316 665h33l56 -665h5l313 665h28l-329 -700h-39l-56 655h-5l-310 -655h-39zM508 815q-11 0 -17 6.5t-6 16.5q0 12 8 19.5t19 7.5t17 -6.5t6 -16.5q0 -12 -8 -19.5t-19 -7.5zM668 815q-11 0 -17 6.5t-6 16.5q0 12 8 19.5t19 7.5t17 -6.5t6 -16.5
q0 -12 -8 -19.5t-19 -7.5z" />
    <glyph glyph-name="wdieresis" unicode="&#x1e85;" horiz-adv-x="675" 
d="M109 510h25l44 -475h5l235 475h25l49 -475h5l230 475h27l-249 -510h-31l-49 465h-5l-229 -465h-31zM373 635q-11 0 -17 6.5t-6 16.5q0 12 8 19.5t19 7.5t17 -6.5t6 -16.5q0 -12 -8 -19.5t-19 -7.5zM533 635q-11 0 -17 6.5t-6 16.5q0 12 8 19.5t19 7.5t17 -6.5t6 -16.5
q0 -12 -8 -19.5t-19 -7.5z" />
    <glyph glyph-name="uni1E9E" unicode="&#x1e9e;" horiz-adv-x="660" 
d="M196 523q35 177 199 177h316l-4 -20l-290 -280l-1 -5h44q43 0 77.5 -13t59 -36.5t37.5 -54.5t13 -67q0 -47 -15.5 -87.5t-44.5 -71t-70 -48t-92 -17.5h-125l4 25h121q45 0 81 15.5t62 42t40 61.5t14 73q0 70 -46 111.5t-121 41.5h-74l7 35l280 270h-273q-75 0 -117 -38
t-57 -117l-101 -520h-25z" />
    <glyph glyph-name="Ygrave" unicode="&#x1ef2;" horiz-adv-x="555" 
d="M302 270l-166 430h26l154 -400h5l310 400h30l-334 -430l-52 -270h-25zM310 910h37l63 -140h-17z" />
    <glyph glyph-name="ygrave" unicode="&#x1ef3;" horiz-adv-x="470" 
d="M219 2l-119 508h25l110 -470h6l281 470h28l-424 -710h-28zM235 730h37l63 -140h-17z" />
    <glyph glyph-name="endash" unicode="&#x2013;" horiz-adv-x="480" 
d="M88 300h420l-5 -25h-420z" />
    <glyph glyph-name="emdash" unicode="&#x2014;" horiz-adv-x="695" 
d="M88 300h635l-5 -25h-635z" />
    <glyph glyph-name="quoteleft" unicode="&#x2018;" horiz-adv-x="205" 
d="M271 700h15l-84 -200h-35z" />
    <glyph glyph-name="quoteright" unicode="&#x2019;" horiz-adv-x="205" 
d="M251 700h35l-104 -200h-15z" />
    <glyph glyph-name="quotesinglbase" unicode="&#x201a;" horiz-adv-x="195" 
d="M104 100h35l-104 -200h-15z" />
    <glyph glyph-name="quotedblleft" unicode="&#x201c;" horiz-adv-x="329" 
d="M266 700h15l-84 -200h-35zM390 700h15l-84 -200h-35z" />
    <glyph glyph-name="quotedblright" unicode="&#x201d;" horiz-adv-x="329" 
d="M246 700h35l-104 -200h-15zM370 700h35l-104 -200h-15z" />
    <glyph glyph-name="quotedblbase" unicode="&#x201e;" horiz-adv-x="319" 
d="M104 100h35l-104 -200h-15zM228 100h35l-104 -200h-15z" />
    <glyph glyph-name="dagger" unicode="&#x2020;" horiz-adv-x="445" 
d="M306 495h-145l5 25h145l35 180h25l-35 -180h145l-5 -25h-145l-96 -495h-25z" />
    <glyph glyph-name="daggerdbl" unicode="&#x2021;" horiz-adv-x="445" 
d="M244 180h-145l5 25h145l57 290h-145l5 25h145l35 180h25l-35 -180h145l-5 -25h-145l-57 -290h145l-5 -25h-145l-34 -180h-25z" />
    <glyph glyph-name="bullet" unicode="&#x2022;" horiz-adv-x="340" 
d="M218 215q-23 0 -35 13t-12 33q0 23 16.5 38.5t38.5 15.5q23 0 35 -13t12 -33q0 -23 -16.5 -38.5t-38.5 -15.5z" />
    <glyph glyph-name="ellipsis" unicode="&#x2026;" horiz-adv-x="615" 
d="M99 -5q-14 0 -20 8t-6 17q0 11 8 20.5t22 9.5t20 -8t6 -17q0 -11 -8 -20.5t-22 -9.5zM309 -5q-14 0 -20 8t-6 17q0 11 8 20.5t22 9.5t20 -8t6 -17q0 -11 -8 -20.5t-22 -9.5zM519 -5q-14 0 -20 8t-6 17q0 11 8 20.5t22 9.5t20 -8t6 -17q0 -11 -8 -20.5t-22 -9.5z" />
    <glyph glyph-name="perthousand" unicode="&#x2030;" horiz-adv-x="1075" 
d="M696 700h32l-571 -700h-32zM542 -10q-64 0 -96 36t-32 89q0 36 11 68t31.5 56t48.5 37.5t62 13.5q64 0 96 -36t32 -89q0 -36 -11.5 -68t-31.5 -56t-48 -37.5t-62 -13.5zM545 15q30 0 53 12t39 32t24.5 47t8.5 56q0 43 -25 73t-81 30q-30 0 -53 -12t-39 -32.5t-24.5 -47
t-8.5 -55.5q0 -43 25 -73t81 -30zM897 -10q-64 0 -96 36t-32 89q0 36 11 68t31.5 56t48.5 37.5t62 13.5q64 0 96 -36t32 -89q0 -36 -11.5 -68t-31.5 -56t-48 -37.5t-62 -13.5zM900 15q30 0 53 12t39 32t24.5 47t8.5 56q0 43 -25 73t-81 30q-30 0 -53 -12t-39 -32.5
t-24.5 -47t-8.5 -55.5q0 -43 25 -73t81 -30zM286 410q-64 0 -96 36t-32 89q0 36 11 68t31.5 56t48.5 37.5t62 13.5q64 0 96 -36t32 -89q0 -36 -11.5 -68t-31.5 -56t-48 -37.5t-62 -13.5zM289 435q30 0 53 12t39 32t24.5 47t8.5 56q0 43 -25 73t-81 30q-30 0 -53 -12
t-39 -32.5t-24.5 -47t-8.5 -55.5q0 -43 25 -73t81 -30z" />
    <glyph glyph-name="guilsinglleft" unicode="&#x2039;" horiz-adv-x="340" 
d="M106 265l244 225h33l-246 -227v-2l153 -221h-28z" />
    <glyph glyph-name="guilsinglright" unicode="&#x203a;" horiz-adv-x="340" 
d="M308 267v2l-153 221h28l156 -225l-244 -225h-33z" />
    <glyph glyph-name="fraction" unicode="&#x2044;" horiz-adv-x="145" 
d="M411 700h32l-571 -700h-32z" />
    <glyph glyph-name="uni2070" unicode="&#x2070;" horiz-adv-x="375" 
d="M275 395q-60 0 -92 37.5t-32 104.5t14.5 117t38.5 83.5t55 50.5t64 17q60 0 92 -37.5t32 -104.5t-14.5 -117t-38.5 -83.5t-55 -50.5t-64 -17zM276 420q22 0 47.5 13.5t47.5 42.5t36 74.5t14 109.5q0 62 -29 91t-70 29q-23 0 -48 -13.5t-47 -42.5t-36 -74.5t-14 -109.5
q0 -62 29 -91t70 -29z" />
    <glyph glyph-name="uni2074" unicode="&#x2074;" horiz-adv-x="325" 
d="M310 490h-215l5 25l255 285h40l-55 -285h55l-5 -25h-55l-18 -90h-25zM315 515l50 256h-4l-229 -256h183z" />
    <glyph glyph-name="uni2075" unicode="&#x2075;" horiz-adv-x="335" 
d="M253 395q-55 0 -87.5 30.5t-35.5 79.5h26q3 -34 25.5 -59.5t74.5 -25.5q22 0 43.5 8.5t38.5 25t27 41t10 57.5q0 44 -27 68.5t-70 24.5q-25 0 -51.5 -15t-43.5 -45h-30l67 215h210l-5 -25h-190l-45 -145h5q11 12 32.5 26t53.5 14q54 0 86.5 -33t32.5 -84q0 -36 -12 -65.5
t-32.5 -50t-47 -31.5t-55.5 -11z" />
    <glyph glyph-name="uni2076" unicode="&#x2076;" horiz-adv-x="330" 
d="M247 395q-25 0 -47 7.5t-38.5 22t-26.5 36t-10 50.5q0 28 6 50t16 41t23.5 36t28.5 35l110 127h31l-138 -160h6q7 7 17 12q8 5 20 9t29 4q53 0 86.5 -32.5t33.5 -83.5q0 -35 -11.5 -63t-32 -48.5t-47 -31.5t-56.5 -11zM250 420q23 0 44.5 8.5t38 24.5t26.5 39.5t10 53.5
q0 44 -27.5 69t-72.5 25q-23 0 -44.5 -8.5t-38 -24.5t-26.5 -39.5t-10 -53.5q0 -44 27.5 -69t72.5 -25z" />
    <glyph glyph-name="uni2077" unicode="&#x2077;" horiz-adv-x="305" 
d="M422 775h-219l5 25h250l-4 -20l-244 -380h-28z" />
    <glyph glyph-name="uni2078" unicode="&#x2078;" horiz-adv-x="350" 
d="M256 395q-26 0 -49.5 6.5t-40.5 20t-27 32.5t-10 45q0 17 6 35.5t17.5 35t28 29t38.5 17.5q-44 28 -44 74q0 25 10 46t27 36.5t39.5 24t48.5 8.5q50 0 83 -27t33 -72q0 -38 -21.5 -64t-56.5 -40q26 -12 38.5 -36t12.5 -50q0 -29 -11 -51t-30 -38t-43 -24t-49 -8zM259 420
q53 0 78.5 29.5t25.5 68.5q0 35 -27.5 56.5t-76.5 21.5q-53 0 -78.5 -29.5t-25.5 -68.5q0 -35 27.5 -56.5t76.5 -21.5zM293 620q39 0 68 23t29 67q0 32 -25 51t-67 19q-39 0 -68 -23t-29 -67q0 -32 25 -51t67 -19z" />
    <glyph glyph-name="uni2079" unicode="&#x2079;" horiz-adv-x="330" 
d="M336 560h-6q-7 -8 -17 -13q-8 -5 -20.5 -8.5t-28.5 -3.5q-53 0 -86.5 32.5t-33.5 83.5q0 34 11.5 62.5t32 49t47 31.5t56.5 11q25 0 47 -7.5t38.5 -22t26.5 -36.5t10 -50t-6 -50t-16 -41t-23.5 -36t-28.5 -35l-110 -127h-31zM269 560q23 0 44.5 8.5t38 24.5t26.5 39.5
t10 53.5q0 44 -27.5 69t-72.5 25q-23 0 -44.5 -8.5t-38 -24.5t-26.5 -39.5t-10 -53.5q0 -44 27.5 -69t72.5 -25z" />
    <glyph glyph-name="uni2080" unicode="&#x2080;" horiz-adv-x="375" 
d="M193 -105q-60 0 -92 37.5t-32 104.5t14.5 117t38.5 83.5t55 50.5t64 17q60 0 92 -37.5t32 -104.5t-14.5 -117t-38.5 -83.5t-55 -50.5t-64 -17zM194 -80q22 0 47.5 13.5t47.5 42.5t36 74.5t14 109.5q0 62 -29 91t-70 29q-23 0 -48 -13.5t-47 -42.5t-36 -74.5t-14 -109.5
q0 -62 29 -91t70 -29z" />
    <glyph glyph-name="uni2081" unicode="&#x2081;" horiz-adv-x="220" 
d="M170 205h-90l4 25h65q25 0 30 25l9 45h25l-78 -400h-25z" />
    <glyph glyph-name="uni2082" unicode="&#x2082;" horiz-adv-x="335" 
d="M35 -75l215 169q33 26 47.5 49t14.5 57q0 37 -25.5 58.5t-63.5 21.5q-45 0 -72 -26t-40 -69h-25q4 22 15 44t28 38.5t40.5 27t53.5 10.5q25 0 46.5 -8t36.5 -21.5t23.5 -32t8.5 -38.5q0 -24 -5 -42t-13.5 -32t-20.5 -25.5t-25 -21.5l-201 -159h207l-5 -25h-245z" />
    <glyph glyph-name="uni2083" unicode="&#x2083;" horiz-adv-x="335" 
d="M175 -105q-54 0 -89 28t-39 77h25q4 -30 29 -55t77 -25q49 0 76.5 29t27.5 70q0 30 -21.5 53t-63.5 23h-45l5 25h75q30 0 55 20t25 62q0 38 -28.5 58t-68.5 20q-44 0 -72.5 -26.5t-38.5 -68.5h-25q14 57 51.5 88.5t88.5 31.5q29 0 51 -8.5t37 -23t22.5 -32.5t7.5 -36
q0 -23 -7.5 -41.5t-19.5 -31t-27 -20t-30 -9.5q29 -13 41.5 -35t12.5 -48q0 -24 -9 -47t-26 -40t-41.5 -27.5t-55.5 -10.5z" />
    <glyph glyph-name="uni2084" unicode="&#x2084;" horiz-adv-x="325" 
d="M228 -10h-215l5 25l255 285h40l-55 -285h55l-5 -25h-55l-18 -90h-25zM233 15l50 256h-4l-229 -256h183z" />
    <glyph glyph-name="uni2085" unicode="&#x2085;" horiz-adv-x="335" 
d="M176 -105q-55 0 -87.5 30.5t-35.5 79.5h26q3 -34 25.5 -59.5t74.5 -25.5q22 0 43.5 8.5t38.5 25t27 41t10 57.5q0 44 -27 68.5t-70 24.5q-25 0 -51.5 -15t-43.5 -45h-30l67 215h210l-5 -25h-190l-45 -145h5q11 12 32.5 26t53.5 14q54 0 86.5 -33t32.5 -84
q0 -36 -12 -65.5t-32.5 -50t-47 -31.5t-55.5 -11z" />
    <glyph glyph-name="uni2086" unicode="&#x2086;" horiz-adv-x="330" 
d="M165 -105q-25 0 -47 7.5t-38.5 22t-26.5 36t-10 50.5q0 28 6 50t16 41t23.5 36t28.5 35l110 127h31l-138 -160h6q7 7 17 12q8 5 20 9t29 4q53 0 86.5 -32.5t33.5 -83.5q0 -35 -11.5 -63t-32 -48.5t-47 -31.5t-56.5 -11zM168 -80q23 0 44.5 8.5t38 24.5t26.5 39.5t10 53.5
q0 44 -27.5 69t-72.5 25q-23 0 -44.5 -8.5t-38 -24.5t-26.5 -39.5t-10 -53.5q0 -44 27.5 -69t72.5 -25z" />
    <glyph glyph-name="uni2087" unicode="&#x2087;" horiz-adv-x="305" 
d="M330 275h-219l5 25h250l-4 -20l-244 -380h-28z" />
    <glyph glyph-name="uni2088" unicode="&#x2088;" horiz-adv-x="350" 
d="M179 -105q-26 0 -49.5 6.5t-40.5 20t-27 32.5t-10 45q0 17 6 35.5t17.5 35t28 29t38.5 17.5q-44 28 -44 74q0 25 10 46t27 36.5t39.5 24t48.5 8.5q50 0 83 -27t33 -72q0 -38 -21.5 -64t-56.5 -40q26 -12 38.5 -36t12.5 -50q0 -29 -11 -51t-30 -38t-43 -24t-49 -8z
M182 -80q53 0 78.5 29.5t25.5 68.5q0 35 -27.5 56.5t-76.5 21.5q-53 0 -78.5 -29.5t-25.5 -68.5q0 -35 27.5 -56.5t76.5 -21.5zM216 120q39 0 68 23t29 67q0 32 -25 51t-67 19q-39 0 -68 -23t-29 -67q0 -32 25 -51t67 -19z" />
    <glyph glyph-name="uni2089" unicode="&#x2089;" horiz-adv-x="330" 
d="M264 60h-6q-7 -8 -17 -13q-8 -5 -20.5 -8.5t-28.5 -3.5q-53 0 -86.5 32.5t-33.5 83.5q0 34 11.5 62.5t32 49t47 31.5t56.5 11q25 0 47 -7.5t38.5 -22t26.5 -36.5t10 -50t-6 -50t-16 -41t-23.5 -36t-28.5 -35l-110 -127h-31zM197 60q23 0 44.5 8.5t38 24.5t26.5 39.5
t10 53.5q0 44 -27.5 69t-72.5 25q-23 0 -44.5 -8.5t-38 -24.5t-26.5 -39.5t-10 -53.5q0 -44 27.5 -69t72.5 -25z" />
    <glyph glyph-name="uni20A9" unicode="&#x20a9;" horiz-adv-x="885" 
d="M210 260h-150l5 25h144l-8 150h-107l5 25h100l-13 240h26l13 -240h223l108 240h33l14 -240h223l107 240h28l-107 -240h100l-5 -25h-107l-66 -150h144l-5 -25h-150l-115 -260h-45l-15 260h-205l-115 -260h-45zM254 30l104 230h-121l12 -230h5zM370 285l67 150h-210l8 -150
h135zM588 285l-9 150h-115l-67 -150h191zM634 30l102 230h-121l14 -230h5zM578 460l-11 195h-5l-87 -195h103zM748 285l66 150h-210l9 -150h135z" />
    <glyph glyph-name="Euro" unicode="&#x20ac;" horiz-adv-x="725" 
d="M444 -10q-52 0 -99.5 15.5t-84 48.5t-59 84t-25.5 122h-96l5 25h91q0 26 3 55.5t14 74.5h-83l5 25h85q21 69 55 120t76.5 84.5t90 49.5t94.5 16q94 0 160.5 -44t92.5 -131h-25q-26 72 -84 111t-146 39q-45 0 -88 -16t-80.5 -46.5t-68.5 -76.5t-52 -106h355l-5 -25h-356
q-11 -38 -14.5 -71t-3.5 -59h349l-5 -25h-344q3 -66 24 -112.5t54.5 -76t77 -43t91.5 -13.5q38 0 74.5 11t68.5 30.5t58.5 47t45.5 61.5h29q-97 -175 -280 -175z" />
    <glyph glyph-name="uni20B4" unicode="&#x20b4;" horiz-adv-x="665" 
d="M366 -10q-54 0 -95 14t-69 37t-42.5 52.5t-14.5 59.5q0 41 16 70.5t32 46.5h-66l5 25h515l-5 -25h-418q-19 -17 -36.5 -46.5t-17.5 -68.5q0 -31 15.5 -56.5t42.5 -44t63.5 -29t78.5 -10.5q41 0 75.5 11.5t60 30.5t42.5 43t24 50h25q-7 -30 -26.5 -59t-49.5 -51.5
t-69.5 -36t-85.5 -13.5zM158 430h418q19 17 36.5 46.5t17.5 68.5q0 31 -15.5 56.5t-42.5 44t-63.5 29t-78.5 10.5q-41 0 -75.5 -11.5t-60 -30.5t-42.5 -43.5t-24 -49.5h-25q7 30 26.5 58.5t49.5 51t69 36.5t86 14q54 0 95 -14t69 -37t42.5 -52.5t14.5 -59.5q0 -41 -16 -70.5
t-32 -46.5h66l-5 -25h-515z" />
    <glyph glyph-name="uni20B8" unicode="&#x20b8;" horiz-adv-x="580" 
d="M369 540h-250l5 25h525l-5 -25h-250l-104 -540h-25zM151 700h525l-5 -25h-525z" />
    <glyph glyph-name="uni20B9" unicode="&#x20b9;" horiz-adv-x="590" 
d="M275 295h-163l5 25h243q83 0 135.5 43t63.5 122h-410l5 25h407v15q0 36 -12.5 63.5t-35.5 47t-54.5 29.5t-68.5 10h-204l5 25h495l-5 -25h-183q37 -16 62.5 -54.5t25.5 -95.5v-15h63l-5 -25h-60q-11 -87 -68.5 -138.5t-155.5 -51.5h-58l168 -295h-27z" />
    <glyph glyph-name="uni20BA" unicode="&#x20ba;" horiz-adv-x="570" 
d="M200 310l-91 -30l5 25l91 30l25 130l-91 -30l5 25l91 30l41 210h25l-39 -200l192 65l-5 -25l-192 -65l-25 -130l192 65l-5 -25l-192 -65l-58 -295h106q75 0 125.5 14t82.5 41t48.5 67t24.5 93h25q-10 -49 -24.5 -92.5t-47 -76.5t-89 -52t-150.5 -19h-130z" />
    <glyph glyph-name="uni20BD" unicode="&#x20bd;" horiz-adv-x="635" 
d="M159 180h-95l5 25h95l21 105h-95l5 25h95l71 365h219q45 0 80.5 -12.5t59.5 -35t37 -53.5t13 -68q0 -53 -16 -94t-45 -69.5t-69.5 -43t-89.5 -14.5h-240l-21 -105h250l-5 -25h-250l-34 -180h-25zM450 335q91 0 143 50.5t52 145.5q0 67 -46.5 105.5t-133.5 38.5h-184
l-66 -340h235z" />
    <glyph glyph-name="uni20BF" unicode="&#x20bf;" horiz-adv-x="640" 
d="M220 0h-120l136 700h120l21 110h25l-21 -110h120l21 110h25l-22 -112q31 -3 57.5 -15.5t46 -32.5t30.5 -47t11 -60q0 -76 -40 -128t-108 -68q48 -20 71 -56t23 -83q0 -48 -15.5 -86.5t-42.5 -65.5t-65 -41.5t-83 -14.5h-20l-22 -110h-25l22 110h-120l-22 -110h-25z
M410 25q45 0 79 15t56.5 40t34 57.5t11.5 67.5q0 28 -10.5 52.5t-30 43t-49 29t-66.5 10.5h-244l-62 -315h281zM469 365q39 0 71.5 13t56 36.5t36 55t12.5 69.5q0 27 -10 52t-30 43.5t-49 29.5t-66 11h-234l-61 -310h274z" />
    <glyph glyph-name="uni2113" unicode="&#x2113;" horiz-adv-x="370" 
d="M290 -10q-57 0 -83.5 35t-26.5 95v133q-13 -7 -28 -12q-13 -5 -29 -9t-33 -6v24q23 4 39.5 9t27.5 10q13 5 23 11v300q0 67 28 98.5t77 31.5q45 0 75 -34t30 -106q0 -102 -47 -182t-138 -125v-143q0 -56 25.5 -80.5t59.5 -24.5q25 0 43 5q10 2 17 5v-25q-7 -3 -17 -5
q-18 -5 -43 -5zM205 290q43 22 73.5 54t49.5 68.5t28 75.5t9 77q0 64 -23.5 92t-56.5 28q-38 0 -59 -26t-21 -79v-290z" />
    <glyph glyph-name="uni2116" unicode="&#x2116;" horiz-adv-x="1080" 
d="M236 700h30l337 -662h5l128 662h25l-136 -700h-30l-337 662h-5l-128 -662h-25zM749 25h270l-4 -25h-270zM922 140q-57 0 -94 36t-37 98q0 44 14 78.5t37 58.5t52.5 36.5t59.5 12.5q57 0 94 -36t37 -98q0 -44 -14 -78.5t-37 -58.5t-52.5 -36.5t-59.5 -12.5zM924 165
q27 0 51.5 11t43 31.5t30 50t11.5 67.5q0 51 -30 80.5t-80 29.5q-26 0 -50 -11t-43 -31.5t-30 -50.5t-11 -67q0 -51 30 -80.5t78 -29.5z" />
    <glyph glyph-name="uni2117" unicode="&#x2117;" horiz-adv-x="860" 
d="M497 -10q-79 0 -145 26.5t-114 74.5t-74.5 114t-26.5 145t26.5 145t74.5 114t114 74.5t145 26.5t145 -26.5t114 -74.5t74.5 -114t26.5 -145t-26.5 -145t-74.5 -114t-114 -74.5t-145 -26.5zM497 15q69 0 130 23t106.5 66t72 105t26.5 141t-26.5 141t-72 105t-106.5 66
t-130 23t-130 -23t-106.5 -66t-72 -105t-26.5 -141t26.5 -141t72 -105t106.5 -66t130 -23zM387 540h140q53 0 86.5 -29t33.5 -86t-33.5 -86t-86.5 -29h-115v-145h-25v375zM522 335q100 0 100 90t-100 90h-110v-180h110z" />
    <glyph glyph-name="trademark" unicode="&#x2122;" horiz-adv-x="680" 
d="M215 675h-105v25h235v-25h-105v-285h-25v285zM395 700h40l105 -286h5l105 286h40v-310h-25v275h-5l-100 -275h-35l-100 275h-5v-275h-25v310z" />
    <glyph glyph-name="uni2126" unicode="&#x2126;" horiz-adv-x="790" 
d="M160 25h185l-15.5 7.5t-39.5 24t-52 43t-52 64t-40 87.5t-16 114q0 79 24 142.5t68.5 108.5t106 69.5t136.5 24.5t136.5 -24.5t106 -69.5t68.5 -108.5t24 -142.5q0 -64 -16 -114t-40 -87.5t-52 -64t-52 -43t-39.5 -24l-15.5 -7.5h185v-25h-240v25q68 25 122 70
q23 19 45 44.5t39.5 58.5t28 73t10.5 89q0 82 -24.5 143.5t-66.5 101.5t-98.5 60t-120.5 20t-120.5 -20t-98.5 -60t-66.5 -101.5t-24.5 -143.5q0 -49 10.5 -89t27.5 -73t39 -58.5t45 -44.5q54 -45 123 -70v-25h-240v25z" />
    <glyph glyph-name="estimated" unicode="&#x212e;" horiz-adv-x="850" 
d="M510 -20q-83 0 -152.5 28t-120 77t-79 114.5t-28.5 140.5t28.5 140.5t78 114.5t117 77t146.5 28t146.5 -28t117 -77t78 -114.5t28.5 -140.5v-5h-576q-14 0 -14 -15v-197q0 -5 0.5 -12t4 -16t12 -18.5t23.5 -19.5q4 -2 17.5 -10.5t37.5 -17.5t57.5 -16.5t77.5 -7.5
q66 0 115 20.5t83 46.5q39 30 67 68h55q-33 -45 -81 -80q-41 -30 -100.5 -55t-138.5 -25zM706 360q14 0 14 15v185q0 5 -0.5 12t-4 16t-12 18.5t-23.5 19.5q-6 3 -21.5 11.5t-39 16.5t-53.5 14.5t-66 6.5t-66 -6.5t-53.5 -14.5t-39 -16.5t-21.5 -11.5q-15 -10 -23.5 -19.5
t-12 -18.5t-4 -16t-0.5 -12v-185q0 -15 14 -15h412z" />
    <glyph glyph-name="uni2150" unicode="&#x2150;" horiz-adv-x="755" 
d="M651 700h32l-571 -700h-32zM282 605h-90l4 25h65q25 0 30 25l9 45h25l-78 -400h-25zM732 375h-219l5 25h250l-4 -20l-244 -380h-28z" />
    <glyph glyph-name="uni2151" unicode="&#x2151;" horiz-adv-x="745" 
d="M651 700h32l-571 -700h-32zM282 605h-90l4 25h65q25 0 30 25l9 45h25l-78 -400h-25zM651 160h-6q-7 -8 -17 -13q-8 -5 -20.5 -8.5t-28.5 -3.5q-53 0 -86.5 32.5t-33.5 83.5q0 34 11.5 62.5t32 49t47 31.5t56.5 11q25 0 47 -7.5t38.5 -22t26.5 -36.5t10 -50t-6 -50
t-16 -41t-23.5 -36t-28.5 -35l-110 -127h-31zM584 160q23 0 44.5 8.5t38 24.5t26.5 39.5t10 53.5q0 44 -27.5 69t-72.5 25q-23 0 -44.5 -8.5t-38 -24.5t-26.5 -39.5t-10 -53.5q0 -44 27.5 -69t72.5 -25z" />
    <glyph glyph-name="uni2152" unicode="&#x2152;" horiz-adv-x="970" 
d="M651 700h32l-571 -700h-32zM282 605h-90l4 25h65q25 0 30 25l9 45h25l-78 -400h-25zM582 305h-90l4 25h65q25 0 30 25l9 45h25l-78 -400h-25zM775 -5q-60 0 -92 37.5t-32 104.5t14.5 117t38.5 83.5t55 50.5t64 17q60 0 92 -37.5t32 -104.5t-14.5 -117t-38.5 -83.5
t-55 -50.5t-64 -17zM776 20q22 0 47.5 13.5t47.5 42.5t36 74.5t14 109.5q0 62 -29 91t-70 29q-23 0 -48 -13.5t-47 -42.5t-36 -74.5t-14 -109.5q0 -62 29 -91t70 -29z" />
    <glyph glyph-name="onethird" unicode="&#x2153;" horiz-adv-x="750" 
d="M651 700h32l-571 -700h-32zM282 605h-90l4 25h65q25 0 30 25l9 45h25l-78 -400h-25zM567 -5q-54 0 -89 28t-39 77h25q4 -30 29 -55t77 -25q49 0 76.5 29t27.5 70q0 30 -21.5 53t-63.5 23h-45l5 25h75q30 0 55 20t25 62q0 38 -28.5 58t-68.5 20q-44 0 -72.5 -26.5
t-38.5 -68.5h-25q14 57 51.5 88.5t88.5 31.5q29 0 51 -8.5t37 -23t22.5 -32.5t7.5 -36q0 -23 -7.5 -41.5t-19.5 -31t-27 -20t-30 -9.5q29 -13 41.5 -35t12.5 -48q0 -24 -9 -47t-26 -40t-41.5 -27.5t-55.5 -10.5z" />
    <glyph glyph-name="twothirds" unicode="&#x2154;" horiz-adv-x="860" 
d="M761 700h32l-571 -700h-32zM137 325l215 169q33 26 47.5 49t14.5 57q0 37 -25.5 58.5t-63.5 21.5q-45 0 -72 -26t-40 -69h-25q4 22 15 44t28 38.5t40.5 27t53.5 10.5q25 0 46.5 -8t36.5 -21.5t23.5 -32t8.5 -38.5q0 -24 -5 -42t-13.5 -32t-20.5 -25.5t-25 -21.5
l-201 -159h207l-5 -25h-245zM677 -5q-54 0 -89 28t-39 77h25q4 -30 29 -55t77 -25q49 0 76.5 29t27.5 70q0 30 -21.5 53t-63.5 23h-45l5 25h75q30 0 55 20t25 62q0 38 -28.5 58t-68.5 20q-44 0 -72.5 -26.5t-38.5 -68.5h-25q14 57 51.5 88.5t88.5 31.5q29 0 51 -8.5t37 -23
t22.5 -32.5t7.5 -36q0 -23 -7.5 -41.5t-19.5 -31t-27 -20t-30 -9.5q29 -13 41.5 -35t12.5 -48q0 -24 -9 -47t-26 -40t-41.5 -27.5t-55.5 -10.5z" />
    <glyph glyph-name="uni2155" unicode="&#x2155;" horiz-adv-x="765" 
d="M651 700h32l-571 -700h-32zM282 605h-90l4 25h65q25 0 30 25l9 45h25l-78 -400h-25zM573 -5q-55 0 -87.5 30.5t-35.5 79.5h26q3 -34 25.5 -59.5t74.5 -25.5q22 0 43.5 8.5t38.5 25t27 41t10 57.5q0 44 -27 68.5t-70 24.5q-25 0 -51.5 -15t-43.5 -45h-30l67 215h210
l-5 -25h-190l-45 -145h5q11 12 32.5 26t53.5 14q54 0 86.5 -33t32.5 -84q0 -36 -12 -65.5t-32.5 -50t-47 -31.5t-55.5 -11z" />
    <glyph glyph-name="uni2156" unicode="&#x2156;" horiz-adv-x="875" 
d="M761 700h32l-571 -700h-32zM137 325l215 169q33 26 47.5 49t14.5 57q0 37 -25.5 58.5t-63.5 21.5q-45 0 -72 -26t-40 -69h-25q4 22 15 44t28 38.5t40.5 27t53.5 10.5q25 0 46.5 -8t36.5 -21.5t23.5 -32t8.5 -38.5q0 -24 -5 -42t-13.5 -32t-20.5 -25.5t-25 -21.5
l-201 -159h207l-5 -25h-245zM683 -5q-55 0 -87.5 30.5t-35.5 79.5h26q3 -34 25.5 -59.5t74.5 -25.5q22 0 43.5 8.5t38.5 25t27 41t10 57.5q0 44 -27 68.5t-70 24.5q-25 0 -51.5 -15t-43.5 -45h-30l67 215h210l-5 -25h-190l-45 -145h5q11 12 32.5 26t53.5 14q54 0 86.5 -33
t32.5 -84q0 -36 -12 -65.5t-32.5 -50t-47 -31.5t-55.5 -11z" />
    <glyph glyph-name="uni2157" unicode="&#x2157;" horiz-adv-x="875" 
d="M761 700h32l-571 -700h-32zM277 295q-54 0 -89 28t-39 77h25q4 -30 29 -55t77 -25q49 0 76.5 29t27.5 70q0 30 -21.5 53t-63.5 23h-45l5 25h75q30 0 55 20t25 62q0 38 -28.5 58t-68.5 20q-44 0 -72.5 -26.5t-38.5 -68.5h-25q14 57 51.5 88.5t88.5 31.5q29 0 51 -8.5
t37 -23t22.5 -32.5t7.5 -36q0 -23 -7.5 -41.5t-19.5 -31t-27 -20t-30 -9.5q29 -13 41.5 -35t12.5 -48q0 -24 -9 -47t-26 -40t-41.5 -27.5t-55.5 -10.5zM683 -5q-55 0 -87.5 30.5t-35.5 79.5h26q3 -34 25.5 -59.5t74.5 -25.5q22 0 43.5 8.5t38.5 25t27 41t10 57.5
q0 44 -27 68.5t-70 24.5q-25 0 -51.5 -15t-43.5 -45h-30l67 215h210l-5 -25h-190l-45 -145h5q11 12 32.5 26t53.5 14q54 0 86.5 -33t32.5 -84q0 -36 -12 -65.5t-32.5 -50t-47 -31.5t-55.5 -11z" />
    <glyph glyph-name="uni2158" unicode="&#x2158;" horiz-adv-x="870" 
d="M756 700h32l-571 -700h-32zM340 390h-215l5 25l255 285h40l-55 -285h55l-5 -25h-55l-18 -90h-25zM345 415l50 256h-4l-229 -256h183zM678 -5q-55 0 -87.5 30.5t-35.5 79.5h26q3 -34 25.5 -59.5t74.5 -25.5q22 0 43.5 8.5t38.5 25t27 41t10 57.5q0 44 -27 68.5t-70 24.5
q-25 0 -51.5 -15t-43.5 -45h-30l67 215h210l-5 -25h-190l-45 -145h5q11 12 32.5 26t53.5 14q54 0 86.5 -33t32.5 -84q0 -36 -12 -65.5t-32.5 -50t-47 -31.5t-55.5 -11z" />
    <glyph glyph-name="uni2159" unicode="&#x2159;" horiz-adv-x="710" 
d="M651 700h32l-571 -700h-32zM282 605h-90l4 25h65q25 0 30 25l9 45h25l-78 -400h-25zM537 -5q-25 0 -47 7.5t-38.5 22t-26.5 36t-10 50.5q0 28 6 50t16 41t23.5 36t28.5 35l110 127h31l-138 -160h6q7 7 17 12q8 5 20 9t29 4q53 0 86.5 -32.5t33.5 -83.5q0 -35 -11.5 -63
t-32 -48.5t-47 -31.5t-56.5 -11zM540 20q23 0 44.5 8.5t38 24.5t26.5 39.5t10 53.5q0 44 -27.5 69t-72.5 25q-23 0 -44.5 -8.5t-38 -24.5t-26.5 -39.5t-10 -53.5q0 -44 27.5 -69t72.5 -25z" />
    <glyph glyph-name="uni215A" unicode="&#x215a;" horiz-adv-x="831" 
d="M771 700h32l-571 -700h-32zM278 295q-55 0 -87.5 30.5t-35.5 79.5h26q3 -34 25.5 -59.5t74.5 -25.5q22 0 43.5 8.5t38.5 25t27 41t10 57.5q0 44 -27 68.5t-70 24.5q-25 0 -51.5 -15t-43.5 -45h-30l67 215h210l-5 -25h-190l-45 -145h5q11 12 32.5 26t53.5 14
q54 0 86.5 -33t32.5 -84q0 -36 -12 -65.5t-32.5 -50t-47 -31.5t-55.5 -11zM657 -5q-25 0 -47 7.5t-38.5 22t-26.5 36t-10 50.5q0 28 6 50t16 41t23.5 36t28.5 35l110 127h31l-138 -160h6q7 7 17 12q8 5 20 9t29 4q53 0 86.5 -32.5t33.5 -83.5q0 -35 -11.5 -63t-32 -48.5
t-47 -31.5t-56.5 -11zM660 20q23 0 44.5 8.5t38 24.5t26.5 39.5t10 53.5q0 44 -27.5 69t-72.5 25q-23 0 -44.5 -8.5t-38 -24.5t-26.5 -39.5t-10 -53.5q0 -44 27.5 -69t72.5 -25z" />
    <glyph glyph-name="oneeighth" unicode="&#x215b;" horiz-adv-x="755" 
d="M651 700h32l-571 -700h-32zM282 605h-90l4 25h65q25 0 30 25l9 45h25l-78 -400h-25zM566 -5q-26 0 -49.5 6.5t-40.5 20t-27 32.5t-10 45q0 17 6 35.5t17.5 35t28 29t38.5 17.5q-44 28 -44 74q0 25 10 46t27 36.5t39.5 24t48.5 8.5q50 0 83 -27t33 -72q0 -38 -21.5 -64
t-56.5 -40q26 -12 38.5 -36t12.5 -50q0 -29 -11 -51t-30 -38t-43 -24t-49 -8zM569 20q53 0 78.5 29.5t25.5 68.5q0 35 -27.5 56.5t-76.5 21.5q-53 0 -78.5 -29.5t-25.5 -68.5q0 -35 27.5 -56.5t76.5 -21.5zM603 220q39 0 68 23t29 67q0 32 -25 51t-67 19q-39 0 -68 -23
t-29 -67q0 -32 25 -51t67 -19z" />
    <glyph glyph-name="threeeighths" unicode="&#x215c;" horiz-adv-x="857" 
d="M761 700h32l-571 -700h-32zM277 295q-54 0 -89 28t-39 77h25q4 -30 29 -55t77 -25q49 0 76.5 29t27.5 70q0 30 -21.5 53t-63.5 23h-45l5 25h75q30 0 55 20t25 62q0 38 -28.5 58t-68.5 20q-44 0 -72.5 -26.5t-38.5 -68.5h-25q14 57 51.5 88.5t88.5 31.5q29 0 51 -8.5
t37 -23t22.5 -32.5t7.5 -36q0 -23 -7.5 -41.5t-19.5 -31t-27 -20t-30 -9.5q29 -13 41.5 -35t12.5 -48q0 -24 -9 -47t-26 -40t-41.5 -27.5t-55.5 -10.5zM676 -5q-26 0 -49.5 6.5t-40.5 20t-27 32.5t-10 45q0 17 6 35.5t17.5 35t28 29t38.5 17.5q-44 28 -44 74q0 25 10 46
t27 36.5t39.5 24t48.5 8.5q50 0 83 -27t33 -72q0 -38 -21.5 -64t-56.5 -40q26 -12 38.5 -36t12.5 -50q0 -29 -11 -51t-30 -38t-43 -24t-49 -8zM679 20q53 0 78.5 29.5t25.5 68.5q0 35 -27.5 56.5t-76.5 21.5q-53 0 -78.5 -29.5t-25.5 -68.5q0 -35 27.5 -56.5t76.5 -21.5z
M713 220q39 0 68 23t29 67q0 32 -25 51t-67 19q-39 0 -68 -23t-29 -67q0 -32 25 -51t67 -19z" />
    <glyph glyph-name="fiveeighths" unicode="&#x215d;" horiz-adv-x="867" 
d="M771 700h32l-571 -700h-32zM278 295q-55 0 -87.5 30.5t-35.5 79.5h26q3 -34 25.5 -59.5t74.5 -25.5q22 0 43.5 8.5t38.5 25t27 41t10 57.5q0 44 -27 68.5t-70 24.5q-25 0 -51.5 -15t-43.5 -45h-30l67 215h210l-5 -25h-190l-45 -145h5q11 12 32.5 26t53.5 14
q54 0 86.5 -33t32.5 -84q0 -36 -12 -65.5t-32.5 -50t-47 -31.5t-55.5 -11zM686 -5q-26 0 -49.5 6.5t-40.5 20t-27 32.5t-10 45q0 17 6 35.5t17.5 35t28 29t38.5 17.5q-44 28 -44 74q0 25 10 46t27 36.5t39.5 24t48.5 8.5q50 0 83 -27t33 -72q0 -38 -21.5 -64t-56.5 -40
q26 -12 38.5 -36t12.5 -50q0 -29 -11 -51t-30 -38t-43 -24t-49 -8zM689 20q53 0 78.5 29.5t25.5 68.5q0 35 -27.5 56.5t-76.5 21.5q-53 0 -78.5 -29.5t-25.5 -68.5q0 -35 27.5 -56.5t76.5 -21.5zM723 220q39 0 68 23t29 67q0 32 -25 51t-67 19q-39 0 -68 -23t-29 -67
q0 -32 25 -51t67 -19z" />
    <glyph glyph-name="seveneighths" unicode="&#x215e;" horiz-adv-x="777" 
d="M681 700h32l-571 -700h-32zM422 675h-219l5 25h250l-4 -20l-244 -380h-28zM596 -5q-26 0 -49.5 6.5t-40.5 20t-27 32.5t-10 45q0 17 6 35.5t17.5 35t28 29t38.5 17.5q-44 28 -44 74q0 25 10 46t27 36.5t39.5 24t48.5 8.5q50 0 83 -27t33 -72q0 -38 -21.5 -64t-56.5 -40
q26 -12 38.5 -36t12.5 -50q0 -29 -11 -51t-30 -38t-43 -24t-49 -8zM599 20q53 0 78.5 29.5t25.5 68.5q0 35 -27.5 56.5t-76.5 21.5q-53 0 -78.5 -29.5t-25.5 -68.5q0 -35 27.5 -56.5t76.5 -21.5zM633 220q39 0 68 23t29 67q0 32 -25 51t-67 19q-39 0 -68 -23t-29 -67
q0 -32 25 -51t67 -19z" />
    <glyph glyph-name="uni215F" unicode="&#x215f;" horiz-adv-x="385" 
d="M651 700h32l-571 -700h-32zM282 605h-90l4 25h65q25 0 30 25l9 45h25l-78 -400h-25z" />
    <glyph glyph-name="uni2190" unicode="&#x2190;" 
d="M230 345v5l215 215l15 -15l-190 -190h660v-25h-660l190 -190l-15 -15z" />
    <glyph glyph-name="uni2191" unicode="&#x2191;" 
d="M565 660l-190 -190l-15 15l215 215h5l215 -215l-15 -15l-190 190v-660h-25v660z" />
    <glyph glyph-name="uni2192" unicode="&#x2192;" 
d="M700 145l190 190h-660v25h660l-190 190l15 15l215 -215v-5l-215 -215z" />
    <glyph glyph-name="uni2193" unicode="&#x2193;" 
d="M360 215l15 15l190 -190v660h25v-660l190 190l15 -15l-215 -215h-5z" />
    <glyph glyph-name="uni2194" unicode="&#x2194;" 
d="M230 345v5l215 215l15 -15l-190 -190h620l-190 190l15 15l215 -215v-5l-215 -215l-15 15l190 190h-620l190 -190l-15 -15z" />
    <glyph glyph-name="uni2195" unicode="&#x2195;" 
d="M360 215l15 15l190 -190v620l-190 -190l-15 15l215 215h5l215 -215l-15 -15l-190 190v-620l190 190l15 -15l-215 -215h-5z" />
    <glyph glyph-name="uni2196" unicode="&#x2196;" 
d="M305 610v-270h-25v300l10 10h300v-25h-270l560 -560l-15 -15z" />
    <glyph glyph-name="uni2197" unicode="&#x2197;" 
d="M280 65l560 560h-270v25h300l10 -10v-300h-25v270l-560 -560z" />
    <glyph glyph-name="uni2198" unicode="&#x2198;" 
d="M570 75h270l-560 560l15 15l560 -560v270h25v-300l-10 -10h-300v25z" />
    <glyph glyph-name="uni2199" unicode="&#x2199;" 
d="M280 60v300h25v-270l560 560l15 -15l-560 -560h270v-25h-300z" />
    <glyph glyph-name="uni21C5" unicode="&#x21c5;" 
d="M400 660l-190 -190l-15 15l215 215h5l215 -215l-15 -15l-190 190v-660h-25v660zM530 215l15 15l190 -190v660h25v-660l190 190l15 -15l-215 -215h-5z" />
    <glyph glyph-name="uni21F5" unicode="&#x21f5;" 
d="M195 215l15 15l190 -190v660h25v-660l190 190l15 -15l-215 -215h-5zM735 660l-190 -190l-15 15l215 215h5l215 -215l-15 -15l-190 190v-660h-25v660z" />
    <glyph glyph-name="partialdiff" unicode="&#x2202;" horiz-adv-x="565" 
d="M335 -10q-41 0 -79 15t-67 44t-46.5 72t-17.5 99q0 52 15 94.5t42 72.5t63.5 46.5t79.5 16.5t75 -10t56 -25.5t41.5 -34t32.5 -35.5h5q0 79 -14.5 142t-40.5 107t-63 67.5t-82 23.5q-32 0 -56 -8t-41 -21.5t-29 -31.5t-19 -39h-30q19 57 61 91t114 34q49 0 90 -22.5
t71 -67.5t47 -112.5t17 -157.5q0 -94 -16 -162t-45.5 -112t-71 -65t-92.5 -21zM335 15q51 0 87.5 23.5t60.5 62.5t35.5 89.5t11.5 104.5q-21 36 -49 65q-25 24 -61 44.5t-85 20.5t-84 -16t-57.5 -43.5t-33 -65t-10.5 -80.5q0 -47 14 -85t39 -64.5t59 -41t73 -14.5z" />
    <glyph glyph-name="emptyset" unicode="&#x2205;" horiz-adv-x="809" 
d="M469 -10q-66 0 -123 19t-102 57l-60 -71h-30l73 86q-48 46 -75 113.5t-27 155.5q0 86 26.5 153t73 113t109.5 70t136 24q66 0 123 -19t102 -57l60 71h30l-73 -86q48 -46 75 -113.5t27 -155.5q0 -86 -26.5 -153t-73 -113t-109.5 -70t-136 -24zM678 614q-41 34 -93.5 52.5
t-114.5 18.5q-71 0 -130 -24t-101 -68.5t-65.5 -106t-23.5 -136.5q0 -78 25 -141t70 -108zM469 15q71 0 130 24t101 68.5t65.5 106t23.5 136.5q0 78 -25 141t-70 108l-433 -513q41 -34 93.5 -52.5t114.5 -18.5z" />
    <glyph glyph-name="uni2206" unicode="&#x2206;" horiz-adv-x="630" 
d="M345 700h30l255 -700h-540zM595 25l-235 650l-235 -650h470z" />
    <glyph glyph-name="product" unicode="&#x220f;" horiz-adv-x="705" 
d="M180 700h475v-810h-25v785h-425v-785h-25v810z" />
    <glyph glyph-name="summation" unicode="&#x2211;" horiz-adv-x="560" 
d="M155 -85l265 400l-265 360v25h450v-25h-420l265 -360l-265 -400h420v-25h-450v25z" />
    <glyph glyph-name="minus" unicode="&#x2212;" horiz-adv-x="535" 
d="M110 310h435v-25h-435v25z" />
    <glyph glyph-name="radical" unicode="&#x221a;" horiz-adv-x="570" 
d="M220 180h-130v25h150l95 -290h10l252 810h28l-260 -835h-50z" />
    <glyph glyph-name="infinity" unicode="&#x221e;" horiz-adv-x="760" 
d="M260 205q-60 0 -97.5 38.5t-37.5 106.5t37.5 106.5t97.5 38.5q32 0 56.5 -10.5t45.5 -27.5t40.5 -40t42.5 -47q22 24 42 47t41 40t45.5 27.5t56.5 10.5q60 0 97.5 -38.5t37.5 -106.5t-37.5 -106.5t-97.5 -38.5q-32 0 -56.5 10.5t-45.5 27.5t-41 40t-42 47
q-23 -24 -42.5 -47t-40.5 -40t-45.5 -27.5t-56.5 -10.5zM260 230q26 0 47.5 9.5t41 26t39 38.5t42.5 46q-23 24 -42.5 46t-39 38.5t-41 26t-47.5 9.5q-53 0 -81.5 -33.5t-28.5 -86.5t28.5 -86.5t81.5 -33.5zM630 230q53 0 81.5 33.5t28.5 86.5t-28.5 86.5t-81.5 33.5
q-26 0 -47.5 -9.5t-41 -26t-39.5 -38.5t-42 -46q22 -24 42 -46t39.5 -38.5t41 -26t47.5 -9.5z" />
    <glyph glyph-name="integral" unicode="&#x222b;" horiz-adv-x="370" 
d="M93 -85h40q49 0 74.5 28.5t25.5 96.5v620q0 43 8.5 72t25.5 46t42 24.5t59 7.5h25v-25h-35q-49 0 -74.5 -28.5t-25.5 -96.5v-620q0 -43 -8.5 -72t-25.5 -46t-42 -24.5t-59 -7.5h-30v25z" />
    <glyph glyph-name="approxequal" unicode="&#x2248;" horiz-adv-x="555" 
d="M125 155q4 53 32.5 81.5t77.5 28.5q32 0 56 -13.5t45.5 -29t43.5 -29t50 -13.5q77 0 85 85h25q-4 -53 -32.5 -81.5t-77.5 -28.5q-32 0 -56 13.5t-45.5 29t-43.5 29t-50 13.5q-77 0 -85 -85h-25zM125 330q4 53 32.5 81.5t77.5 28.5q32 0 56 -13.5t45.5 -29t43.5 -29
t50 -13.5q77 0 85 85h25q-4 -53 -32.5 -81.5t-77.5 -28.5q-32 0 -56 13.5t-45.5 29t-43.5 29t-50 13.5q-77 0 -85 -85h-25z" />
    <glyph glyph-name="notequal" unicode="&#x2260;" horiz-adv-x="535" 
d="M267 200h-159v25h171l64 145h-235v25h246l57 130h30l-57 -130h159v-25h-170l-64 -145h234v-25h-246l-57 -130h-30z" />
    <glyph glyph-name="lessequal" unicode="&#x2264;" horiz-adv-x="540" 
d="M110 35h410v-25h-410v25zM110 285v40l410 180v-30l-390 -170l390 -170v-30z" />
    <glyph glyph-name="greaterequal" unicode="&#x2265;" horiz-adv-x="540" 
d="M126 35h410v-25h-410v25zM126 135l390 170l-390 170v30l410 -180v-40l-410 -180v30z" />
    <glyph glyph-name="uni2318" unicode="&#x2318;" horiz-adv-x="780" 
d="M253 0q-57 0 -93.5 36.5t-36.5 93.5q0 68 39 104t111 36h85v160h-85q-72 0 -111 36t-39 104q0 57 36.5 93.5t93.5 36.5q60 0 95 -36t35 -104v-105h160v105q0 68 35 104t95 36q57 0 93.5 -36.5t36.5 -93.5q0 -68 -39 -104t-111 -36h-85v-160h85q72 0 111 -36t39 -104
q0 -57 -36.5 -93.5t-93.5 -36.5q-60 0 -95 36t-35 104v105h-160v-105q0 -68 -35 -104t-95 -36zM258 25q45 0 72.5 30.5t27.5 79.5v110h-95q-53 0 -84 -30.5t-31 -79.5q0 -53 30.5 -81.5t79.5 -28.5zM543 270v160h-160v-160h160zM358 455v110q0 49 -27.5 79.5t-72.5 30.5
q-49 0 -79.5 -28.5t-30.5 -81.5q0 -49 31 -79.5t84 -30.5h95zM668 25q49 0 79.5 28.5t30.5 81.5q0 49 -31 79.5t-84 30.5h-95v-110q0 -49 27.5 -79.5t72.5 -30.5zM663 455q53 0 84 30.5t31 79.5q0 53 -30.5 81.5t-79.5 28.5q-45 0 -72.5 -30.5t-27.5 -79.5v-110h95z" />
    <glyph glyph-name="uni2460" unicode="&#x2460;" 
d="M567 455h-90v25h65q25 0 25 25v45h25v-400h-25v305zM572 -70q-88 0 -164.5 32.5t-133.5 89.5t-89.5 133.5t-32.5 164.5t32.5 164.5t89.5 133.5t133.5 89.5t164.5 32.5t164.5 -32.5t133.5 -89.5t89.5 -133.5t32.5 -164.5t-32.5 -164.5t-89.5 -133.5t-133.5 -89.5
t-164.5 -32.5zM572 -45q82 0 154.5 31t125.5 84t84 125t31 155q0 82 -31 154.5t-84 125.5t-125.5 84t-154.5 31q-83 0 -155 -31t-125 -84t-84 -125.5t-31 -154.5q0 -83 31 -155t84 -125t125 -84t155 -31z" />
    <glyph glyph-name="uni2461" unicode="&#x2461;" 
d="M447 175l182 169q21 20 32 40t11 46q0 49 -26.5 74.5t-68.5 25.5q-49 0 -73 -25t-32 -70h-25q8 53 39 86.5t91 33.5t90 -36t30 -89q0 -34 -14 -57t-31 -39l-170 -159h210v-25h-245v25zM572 -70q-88 0 -164.5 32.5t-133.5 89.5t-89.5 133.5t-32.5 164.5t32.5 164.5
t89.5 133.5t133.5 89.5t164.5 32.5t164.5 -32.5t133.5 -89.5t89.5 -133.5t32.5 -164.5t-32.5 -164.5t-89.5 -133.5t-133.5 -89.5t-164.5 -32.5zM572 -45q82 0 154.5 31t125.5 84t84 125t31 155q0 82 -31 154.5t-84 125.5t-125.5 84t-154.5 31q-83 0 -155 -31t-125 -84
t-84 -125.5t-31 -154.5q0 -83 31 -155t84 -125t125 -84t155 -31z" />
    <glyph glyph-name="uni2462" unicode="&#x2462;" 
d="M582 145q-53 0 -90 28t-45 77h25q2 -13 9.5 -27t21 -26t33.5 -19.5t46 -7.5q53 0 76.5 26t23.5 64t-24 61.5t-66 23.5h-55v25h65q30 0 52.5 18t22.5 52q0 45 -29 67.5t-71 22.5t-69.5 -23t-35.5 -72h-25q2 24 12 46t27 38.5t40 26t51 9.5q32 0 55.5 -9.5t39 -25t23 -35
t7.5 -40.5q0 -38 -19.5 -60t-45.5 -28q38 -13 54 -40t16 -57q0 -49 -32.5 -82t-92.5 -33zM572 -70q-88 0 -164.5 32.5t-133.5 89.5t-89.5 133.5t-32.5 164.5t32.5 164.5t89.5 133.5t133.5 89.5t164.5 32.5t164.5 -32.5t133.5 -89.5t89.5 -133.5t32.5 -164.5t-32.5 -164.5
t-89.5 -133.5t-133.5 -89.5t-164.5 -32.5zM572 -45q82 0 154.5 31t125.5 84t84 125t31 155q0 82 -31 154.5t-84 125.5t-125.5 84t-154.5 31q-83 0 -155 -31t-125 -84t-84 -125.5t-31 -154.5q0 -83 31 -155t84 -125t125 -84t155 -31z" />
    <glyph glyph-name="uni2463" unicode="&#x2463;" 
d="M622 240h-215v25l200 285h40v-285h55v-25h-55v-90h-25v90zM622 265v258h-5l-180 -258h185zM572 -70q-88 0 -164.5 32.5t-133.5 89.5t-89.5 133.5t-32.5 164.5t32.5 164.5t89.5 133.5t133.5 89.5t164.5 32.5t164.5 -32.5t133.5 -89.5t89.5 -133.5t32.5 -164.5
t-32.5 -164.5t-89.5 -133.5t-133.5 -89.5t-164.5 -32.5zM572 -45q82 0 154.5 31t125.5 84t84 125t31 155q0 82 -31 154.5t-84 125.5t-125.5 84t-154.5 31q-83 0 -155 -31t-125 -84t-84 -125.5t-31 -154.5q0 -83 31 -155t84 -125t125 -84t155 -31z" />
    <glyph glyph-name="uni2464" unicode="&#x2464;" 
d="M572 145q-53 0 -87.5 30.5t-42.5 79.5h25q4 -15 11 -30t19 -27.5t30.5 -20t44.5 -7.5q49 0 79.5 29t30.5 86q0 53 -30 81.5t-75 28.5q-65 0 -95 -60h-30l25 215h210v-25h-190l-18 -150h5q10 15 32.5 30t60.5 15q28 0 52 -10t41 -27.5t27 -42.5t10 -55q0 -64 -37.5 -102
t-97.5 -38zM572 -70q-88 0 -164.5 32.5t-133.5 89.5t-89.5 133.5t-32.5 164.5t32.5 164.5t89.5 133.5t133.5 89.5t164.5 32.5t164.5 -32.5t133.5 -89.5t89.5 -133.5t32.5 -164.5t-32.5 -164.5t-89.5 -133.5t-133.5 -89.5t-164.5 -32.5zM572 -45q82 0 154.5 31t125.5 84
t84 125t31 155q0 82 -31 154.5t-84 125.5t-125.5 84t-154.5 31q-83 0 -155 -31t-125 -84t-84 -125.5t-31 -154.5q0 -83 31 -155t84 -125t125 -84t155 -31z" />
    <glyph glyph-name="uni2465" unicode="&#x2465;" 
d="M570 145q-24 0 -47.5 8.5t-42 25.5t-29.5 42t-11 59q0 41 12 71.5t33 63.5l85 135h30l-110 -170h5q8 9 19 17q10 7 25 12.5t36 5.5q28 0 52 -10t41 -27.5t27 -42.5t10 -55q0 -60 -37.5 -97.5t-97.5 -37.5zM570 170q49 0 79.5 28.5t30.5 81.5t-30 81.5t-75 28.5
q-49 0 -79.5 -28.5t-30.5 -81.5t30 -81.5t75 -28.5zM572 -70q-88 0 -164.5 32.5t-133.5 89.5t-89.5 133.5t-32.5 164.5t32.5 164.5t89.5 133.5t133.5 89.5t164.5 32.5t164.5 -32.5t133.5 -89.5t89.5 -133.5t32.5 -164.5t-32.5 -164.5t-89.5 -133.5t-133.5 -89.5
t-164.5 -32.5zM572 -45q82 0 154.5 31t125.5 84t84 125t31 155q0 82 -31 154.5t-84 125.5t-125.5 84t-154.5 31q-83 0 -155 -31t-125 -84t-84 -125.5t-31 -154.5q0 -83 31 -155t84 -125t125 -84t155 -31z" />
    <glyph glyph-name="uni2466" unicode="&#x2466;" 
d="M674 525h-222v25h250v-20l-170 -380h-25zM572 -70q-88 0 -164.5 32.5t-133.5 89.5t-89.5 133.5t-32.5 164.5t32.5 164.5t89.5 133.5t133.5 89.5t164.5 32.5t164.5 -32.5t133.5 -89.5t89.5 -133.5t32.5 -164.5t-32.5 -164.5t-89.5 -133.5t-133.5 -89.5t-164.5 -32.5z
M572 -45q82 0 154.5 31t125.5 84t84 125t31 155q0 82 -31 154.5t-84 125.5t-125.5 84t-154.5 31q-83 0 -155 -31t-125 -84t-84 -125.5t-31 -154.5q0 -83 31 -155t84 -125t125 -84t155 -31z" />
    <glyph glyph-name="uni2467" unicode="&#x2467;" 
d="M572 145q-26 0 -49.5 7t-41.5 22t-28.5 36.5t-10.5 49.5q0 30 18 59.5t52 40.5q-60 30 -60 90q0 22 9 41.5t25 33.5t38 22t48 8t48 -8t38 -22t25 -33.5t9 -41.5q0 -60 -60 -90q34 -11 52 -40.5t18 -59.5q0 -28 -10.5 -49.5t-28.5 -36.5t-41.5 -22t-49.5 -7zM572 170
q56 0 80.5 26t24.5 62q0 42 -28 64.5t-77 22.5t-77 -22.5t-28 -64.5q0 -36 24.5 -62t80.5 -26zM572 370q42 0 68.5 21.5t26.5 61.5q0 35 -26.5 56t-68.5 21t-68.5 -21t-26.5 -56q0 -40 26.5 -61.5t68.5 -21.5zM572 -70q-88 0 -164.5 32.5t-133.5 89.5t-89.5 133.5
t-32.5 164.5t32.5 164.5t89.5 133.5t133.5 89.5t164.5 32.5t164.5 -32.5t133.5 -89.5t89.5 -133.5t32.5 -164.5t-32.5 -164.5t-89.5 -133.5t-133.5 -89.5t-164.5 -32.5zM572 -45q82 0 154.5 31t125.5 84t84 125t31 155q0 82 -31 154.5t-84 125.5t-125.5 84t-154.5 31
q-83 0 -155 -31t-125 -84t-84 -125.5t-31 -154.5q0 -83 31 -155t84 -125t125 -84t155 -31z" />
    <glyph glyph-name="uni2468" unicode="&#x2468;" 
d="M652 320h-5q-8 -10 -19 -18q-10 -7 -25.5 -12t-35.5 -5q-28 0 -52 10t-41 27.5t-27 42.5t-10 55q0 60 37.5 97.5t97.5 37.5q24 0 47.5 -8.5t42 -25.5t29.5 -42t11 -59q0 -41 -12 -71.5t-33 -63.5l-85 -135h-30zM567 310q49 0 79.5 28.5t30.5 81.5t-30 81.5t-75 28.5
q-49 0 -79.5 -28.5t-30.5 -81.5t30 -81.5t75 -28.5zM572 -70q-88 0 -164.5 32.5t-133.5 89.5t-89.5 133.5t-32.5 164.5t32.5 164.5t89.5 133.5t133.5 89.5t164.5 32.5t164.5 -32.5t133.5 -89.5t89.5 -133.5t32.5 -164.5t-32.5 -164.5t-89.5 -133.5t-133.5 -89.5
t-164.5 -32.5zM572 -45q82 0 154.5 31t125.5 84t84 125t31 155q0 82 -31 154.5t-84 125.5t-125.5 84t-154.5 31q-83 0 -155 -31t-125 -84t-84 -125.5t-31 -154.5q0 -83 31 -155t84 -125t125 -84t155 -31z" />
    <glyph glyph-name="uni2469" unicode="&#x2469;" 
d="M412 455h-90v25h65q25 0 25 25v45h25v-400h-25v305zM665 144q-70 0 -106.5 53.5t-36.5 151.5t36.5 151.5t106.5 53.5t106 -53.5t36 -151.5t-36 -151.5t-106 -53.5zM665 169q24 0 45 10t37 31.5t25.5 55.5t9.5 83t-9.5 83t-25.5 55.5t-37 31.5t-45 10t-45 -10t-37.5 -31.5
t-26 -55.5t-9.5 -83t9.5 -83t26 -55.5t37.5 -31.5t45 -10zM572 -70q-88 0 -164.5 32.5t-133.5 89.5t-89.5 133.5t-32.5 164.5t32.5 164.5t89.5 133.5t133.5 89.5t164.5 32.5t164.5 -32.5t133.5 -89.5t89.5 -133.5t32.5 -164.5t-32.5 -164.5t-89.5 -133.5t-133.5 -89.5
t-164.5 -32.5zM572 -45q82 0 154.5 31t125.5 84t84 125t31 155q0 82 -31 154.5t-84 125.5t-125.5 84t-154.5 31q-83 0 -155 -31t-125 -84t-84 -125.5t-31 -154.5q0 -83 31 -155t84 -125t125 -84t155 -31z" />
    <glyph glyph-name="uni246A" unicode="&#x246a;" 
d="M462 455h-90v25h65q25 0 25 25v45h25v-400h-25v305zM687 455h-90v25h65q25 0 25 25v45h25v-400h-25v305zM572 -70q-88 0 -164.5 32.5t-133.5 89.5t-89.5 133.5t-32.5 164.5t32.5 164.5t89.5 133.5t133.5 89.5t164.5 32.5t164.5 -32.5t133.5 -89.5t89.5 -133.5
t32.5 -164.5t-32.5 -164.5t-89.5 -133.5t-133.5 -89.5t-164.5 -32.5zM572 -45q82 0 154.5 31t125.5 84t84 125t31 155q0 82 -31 154.5t-84 125.5t-125.5 84t-154.5 31q-83 0 -155 -31t-125 -84t-84 -125.5t-31 -154.5q0 -83 31 -155t84 -125t125 -84t155 -31z" />
    </font>
</defs>
</svg>
