<svg xmlns="http://www.w3.org/2000/svg">
<defs>
<font id="TTInterphases-BoldItalic" horiz-adv-x="1000" >
  <font-face 
    font-family="TT Interphases"
    font-weight="700"
    font-style="italic"
    font-stretch="normal"
    units-per-em="1000"
    panose-1="2 0 8 3 0 0 0 9 0 4"
    ascent="760"
    descent="-240"
    x-height="530"
    cap-height="700"
    bbox="-406 -255 1501 1010"
    underline-thickness="50"
    underline-position="-200"
    slope="-11"
    unicode-range="U+000D-FB04"
  />
<missing-glyph horiz-adv-x="900" 
d="M100 284h45v-139h33v139h50v31h-128v126l19 -61h23l34 106l33 -106h23l54 170h-32l-34 -110l-35 110h-19l-35 -110l-31 103v157h700v-150h-110v-170h110v-91q-13 27 -50 27q-29 0 -44.5 -14.5t-15.5 -34.5q0 -22 13.5 -32t30 -15t30.5 -9.5t14 -16.5q0 -14 -9.5 -17.5
t-18.5 -3.5q-15 0 -21.5 7.5t-6.5 17.5h-33q0 -24 16.5 -39.5t44.5 -15.5q20 0 32.5 7.5t17.5 12.5v-163h-700v284zM328 143q38 0 60 25t22 61q0 37 -22.5 62t-59.5 25t-59.5 -25t-22.5 -62q0 -36 22 -61t60 -25zM328 174q-23 0 -37 16t-14 39q0 24 13.5 40t37.5 16
t37.5 -16t13.5 -40q0 -23 -14 -39t-37 -16zM549 315h-32v-106q0 -29 19.5 -47.5t48.5 -18.5t48 18.5t19 47.5v106h-32v-106q0 -15 -9 -25t-26 -10q-18 0 -27 11t-9 24v106zM344 380v62h24l35 -62h37l-40 67q36 16 36 50q0 21 -15.5 37t-41.5 16h-68v-170h33zM344 519h35
q10 0 17 -6t7 -17q0 -13 -8 -18t-16 -5h-35v46zM502 380v170h-33v-170h33zM800 262v-38q-11 10 -24 14.5t-24.5 8.5t-19.5 8t-8 12q0 9 7.5 14.5t18.5 5.5q10 0 18 -6.5t8 -18.5h24zM612 380v139h50v31h-132v-31h50v-139h32zM722 452h78v-41h-78v41zM722 519h78v-36h-78v36z
" />
    <glyph glyph-name="ff" unicode="ff" horiz-adv-x="720" 
d="M177 400h-85l26 130h85l11 60q12 68 53 104t113 36h126l-24 -125h-82q-23 0 -36 -13t-16 -32l-5 -30h195l11 60q12 68 53 104t113 36h126l-24 -125h-82q-23 0 -36 -13t-16 -32l-5 -30h125l-26 -130h-125l-77 -400h-140l77 400h-195l-77 -400h-140z" />
    <glyph glyph-name="fi" unicode="fi" horiz-adv-x="635" 
d="M177 400h-85l26 130h85l11 60q12 68 53 104t113 36h126l-24 -125h-82q-23 0 -36 -13t-16 -32l-5 -30h335l-103 -530h-140l77 400h-195l-77 -400h-140zM625 585q-34 0 -54.5 20t-20.5 50q0 38 25.5 64t59.5 26t54.5 -20t20.5 -50q0 -38 -25.5 -64t-59.5 -26z" />
    <glyph glyph-name="fl" unicode="fl" horiz-adv-x="640" 
d="M177 400h-85l26 130h85l11 60q12 68 53 104t113 36h336l-141 -730h-140l117 605h-152q-23 0 -36 -13t-16 -32l-5 -30h125l-26 -130h-125l-77 -400h-140z" />
    <glyph glyph-name="ffi" unicode="ffi" horiz-adv-x="970" 
d="M177 400h-85l26 130h85l11 60q12 68 53 104t113 36h126l-24 -125h-82q-23 0 -36 -13t-16 -32l-5 -30h195l11 60q12 68 53 104t113 36h126l-24 -125h-82q-23 0 -36 -13t-16 -32l-5 -30h335l-103 -530h-140l77 400h-195l-77 -400h-140l77 400h-195l-77 -400h-140zM960 585
q-34 0 -54.5 20t-20.5 50q0 38 25.5 64t59.5 26t54.5 -20t20.5 -50q0 -38 -25.5 -64t-59.5 -26z" />
    <glyph glyph-name="ffl" unicode="ffl" horiz-adv-x="975" 
d="M177 400h-85l26 130h85l11 60q12 68 53 104t113 36h126l-24 -125h-82q-23 0 -36 -13t-16 -32l-5 -30h195l11 60q12 68 53 104t113 36h336l-141 -730h-140l117 605h-152q-23 0 -36 -13t-16 -32l-5 -30h125l-26 -130h-125l-77 -400h-140l77 400h-195l-77 -400h-140z" />
    <glyph glyph-name="f_f_j" unicode="ffj" horiz-adv-x="970" 
d="M625 -80h85q23 0 36 13.5t18 36.5l84 430h-1h-195l-77 -400h-140l77 400h-195l-77 -400h-140l77 400h-85l26 130h85l11 60q12 68 53 104t113 36h126l-24 -125h-82q-23 0 -36 -13t-16 -32l-5 -30h195l11 60q12 68 53 104t113 36h126l-24 -125h-82q-23 0 -36 -13t-16 -32
l-5 -30h335l-115 -589q-14 -72 -50.5 -106.5t-110.5 -34.5h-135zM960 585q-34 0 -54.5 20t-20.5 50q0 38 25.5 64t59.5 26t54.5 -20t20.5 -50q0 -38 -25.5 -64t-59.5 -26z" />
    <glyph glyph-name="f_j" unicode="fj" horiz-adv-x="635" 
d="M290 -80h85q23 0 36 13.5t18 36.5l84 430h-1h-195l-77 -400h-140l77 400h-85l26 130h85l11 60q12 68 53 104t113 36h126l-24 -125h-82q-23 0 -36 -13t-16 -32l-5 -30h335l-115 -589q-14 -72 -50.5 -106.5t-110.5 -34.5h-135zM625 585q-34 0 -54.5 20t-20.5 50
q0 38 25.5 64t59.5 26t54.5 -20t20.5 -50q0 -38 -25.5 -64t-59.5 -26z" />
    <glyph glyph-name=".notdef" horiz-adv-x="900" 
d="M100 284h45v-139h33v139h50v31h-128v126l19 -61h23l34 106l33 -106h23l54 170h-32l-34 -110l-35 110h-19l-35 -110l-31 103v157h700v-150h-110v-170h110v-91q-13 27 -50 27q-29 0 -44.5 -14.5t-15.5 -34.5q0 -22 13.5 -32t30 -15t30.5 -9.5t14 -16.5q0 -14 -9.5 -17.5
t-18.5 -3.5q-15 0 -21.5 7.5t-6.5 17.5h-33q0 -24 16.5 -39.5t44.5 -15.5q20 0 32.5 7.5t17.5 12.5v-163h-700v284zM328 143q38 0 60 25t22 61q0 37 -22.5 62t-59.5 25t-59.5 -25t-22.5 -62q0 -36 22 -61t60 -25zM328 174q-23 0 -37 16t-14 39q0 24 13.5 40t37.5 16
t37.5 -16t13.5 -40q0 -23 -14 -39t-37 -16zM549 315h-32v-106q0 -29 19.5 -47.5t48.5 -18.5t48 18.5t19 47.5v106h-32v-106q0 -15 -9 -25t-26 -10q-18 0 -27 11t-9 24v106zM344 380v62h24l35 -62h37l-40 67q36 16 36 50q0 21 -15.5 37t-41.5 16h-68v-170h33zM344 519h35
q10 0 17 -6t7 -17q0 -13 -8 -18t-16 -5h-35v46zM502 380v170h-33v-170h33zM800 262v-38q-11 10 -24 14.5t-24.5 8.5t-19.5 8t-8 12q0 9 7.5 14.5t18.5 5.5q10 0 18 -6.5t8 -18.5h24zM612 380v139h50v31h-132v-31h50v-139h32zM722 452h78v-41h-78v41zM722 519h78v-36h-78v36z
" />
    <glyph glyph-name=".null" horiz-adv-x="0" 
 />
    <glyph glyph-name=".null" horiz-adv-x="0" 
 />
    <glyph glyph-name="nonmarkingreturn" unicode="&#xd;" horiz-adv-x="0" 
 />
    <glyph glyph-name="space" unicode=" " horiz-adv-x="230" 
 />
    <glyph glyph-name="exclam" unicode="!" horiz-adv-x="300" 
d="M152 -5q-32 0 -52.5 21.5t-20.5 51.5q0 18 7.5 34t20 28t28 18.5t32.5 6.5q32 0 52.5 -21.5t20.5 -51.5q0 -18 -7.5 -34t-20 -28t-28.5 -18.5t-32 -6.5zM196 625l15 75h140l-15 -75l-92 -395h-110z" />
    <glyph glyph-name="quotedbl" unicode="&#x22;" horiz-adv-x="405" 
d="M191 700h120l-45 -230h-120zM366 700h120l-45 -230h-120z" />
    <glyph glyph-name="numbersign" unicode="#" horiz-adv-x="675" 
d="M146 160h-100l48 120h100l57 140h-100l48 120h100l67 160h125l-67 -160h112l67 160h125l-67 -160h103l-48 -120h-103l-57 -140h103l-48 -120h-103l-66 -160h-125l66 160h-112l-66 -160h-125zM431 280l57 140h-112l-57 -140h112z" />
    <glyph glyph-name="dollar" unicode="$" horiz-adv-x="625" 
d="M241 2q-81 20 -127 72.5t-47 135.5h152q8 -41 45 -65.5t98 -24.5q57 0 86 23t29 62q0 31 -25 47.5t-62 28t-80.5 22.5t-80.5 31t-62 54t-25 92q0 54 18.5 95.5t51 70t75.5 44.5t92 19l20 101h150l-23 -119q70 -24 105.5 -73.5t35.5 -112.5h-150q0 34 -31 54.5t-84 20.5
q-56 0 -80.5 -25t-24.5 -55t25 -46.5t62 -28t80.5 -23t80.5 -32.5t62 -56t25 -94q0 -48 -17.5 -88t-49.5 -69.5t-77 -48t-99 -22.5l-19 -102h-150z" />
    <glyph glyph-name="percent" unicode="%" horiz-adv-x="765" 
d="M689 700h115l-571 -700h-115zM615 -10q-68 0 -109 38t-41 102q0 43 14 78t38 60t55.5 38.5t67.5 13.5q68 0 109 -38t41 -102q0 -43 -14 -78t-38 -60t-55.5 -38.5t-67.5 -13.5zM620 75q30 0 55 25t25 70q0 30 -17.5 47.5t-47.5 17.5t-55 -25t-25 -70q0 -30 17.5 -47.5
t47.5 -17.5zM281 380q-68 0 -109 38t-41 102q0 43 14 78t38 60t55.5 38.5t67.5 13.5q68 0 109 -38t41 -102q0 -43 -14 -78t-38 -60t-55.5 -38.5t-67.5 -13.5zM286 465q30 0 55 25t25 70q0 30 -17.5 47.5t-47.5 17.5t-55 -25t-25 -70q0 -30 17.5 -47.5t47.5 -17.5z" />
    <glyph glyph-name="ampersand" unicode="&#x26;" horiz-adv-x="660" 
d="M270 -10q-54 0 -93 15t-64 39t-36.5 54.5t-11.5 61.5q0 119 96 177l71 43l-17 20q-20 26 -32.5 54t-12.5 66q0 37 14.5 71.5t43 61t69 42t93.5 15.5q47 0 81.5 -13t57.5 -34.5t34.5 -49.5t11.5 -58q0 -17 -4 -37t-15 -41t-31.5 -43.5t-54.5 -43.5l-51 -30l87 -107l82 67
h191l-194 -164l128 -156h-170l-59 71q-41 -35 -91.5 -58t-122.5 -23zM280 115q42 0 69.5 15t56.5 37l-101 123l-25 -15q-41 -24 -55.5 -45.5t-14.5 -54.5q0 -23 20 -41.5t50 -18.5zM388 475q25 14 38.5 28t13.5 37t-17.5 36.5t-47.5 13.5t-50 -19t-20 -45q0 -15 8 -31.5
t18 -27.5l15 -18z" />
    <glyph glyph-name="quotesingle" unicode="'" horiz-adv-x="230" 
d="M191 700h120l-45 -230h-120z" />
    <glyph glyph-name="parenleft" unicode="(" horiz-adv-x="355" 
d="M162 -200q-29 60 -43 129.5t-14 160.5q0 101 20.5 195t54.5 176t78.5 150t93.5 119h140q-53 -56 -98.5 -127.5t-79 -154.5t-53 -176t-19.5 -192q0 -72 13 -142t43 -138h-136v0z" />
    <glyph glyph-name="parenright" unicode=")" horiz-adv-x="355" 
d="M-25 -200q52 56 98 127.5t79.5 154.5t53 176t19.5 192q0 72 -13 142t-43 138h136q29 -60 43 -129.5t14 -160.5q0 -101 -20.5 -195t-54.5 -176t-78.5 -150t-93.5 -119h-140v0z" />
    <glyph glyph-name="asterisk" unicode="*" horiz-adv-x="470" 
d="M161 385l100 100l-140 30l35 105l125 -55l-15 135h110l-15 -135l125 55l35 -105l-140 -30l100 -100l-95 -65l-65 115l-65 -115z" />
    <glyph glyph-name="plus" unicode="+" horiz-adv-x="550" 
d="M280 255h-185v110h185v185h110v-185h185v-110h-185v-185h-110v185z" />
    <glyph glyph-name="comma" unicode="," horiz-adv-x="230" 
d="M79 100h130l-101 -210h-109z" />
    <glyph glyph-name="hyphen" unicode="-" horiz-adv-x="405" 
d="M107 345h325l-25 -125h-325z" />
    <glyph glyph-name="period" unicode="." horiz-adv-x="230" 
d="M119 -5q-32 0 -52.5 21.5t-20.5 51.5q0 18 7.5 34t20 28t28 18.5t32.5 6.5q32 0 52.5 -21.5t20.5 -51.5q0 -18 -7.5 -34t-20 -28t-28.5 -18.5t-32 -6.5z" />
    <glyph glyph-name="slash" unicode="/" horiz-adv-x="435" 
d="M421 730h150l-470 -930h-149z" />
    <glyph glyph-name="zero" unicode="0" horiz-adv-x="680" 
d="M375 -10q-62 0 -112.5 18t-86 53t-55 86.5t-19.5 119.5q0 84 21 163.5t63 141.5t105.5 100t147.5 38q62 0 112.5 -18t86 -53t55 -86.5t19.5 -119.5q0 -84 -21 -163.5t-63 -141.5t-105.5 -100t-147.5 -38zM377 125q42 0 76.5 25.5t58.5 66.5t37 92.5t13 104.5
q0 41 -9.5 71t-26.5 50t-40 30t-49 10q-42 0 -76.5 -25.5t-58.5 -66.5t-37 -92.5t-13 -104.5q0 -41 9.5 -71t26.5 -50t40 -30t49 -10z" />
    <glyph glyph-name="one" unicode="1" horiz-adv-x="395" 
d="M269 485h-140l26 135h105q19 0 29 10t13 26l9 44h150l-136 -700h-150z" />
    <glyph glyph-name="two" unicode="2" horiz-adv-x="595" 
d="M56 135l352 267q30 23 51 45.5t21 54.5q0 34 -25 53.5t-70 19.5q-39 0 -69 -21.5t-41 -63.5h-152q10 43 30.5 83t53.5 70.5t79.5 48.5t108.5 18q56 0 100.5 -14t75.5 -39.5t47.5 -60.5t16.5 -76q0 -34 -9 -62t-25.5 -52t-38.5 -45.5t-48 -40.5l-245 -185h307l-26 -135
h-520z" />
    <glyph glyph-name="three" unicode="3" horiz-adv-x="605" 
d="M344 -10q-56 0 -107 12.5t-89.5 38t-61 65.5t-22.5 94v10h150q2 -24 12.5 -40.5t27.5 -26.5t39 -14t46 -4q53 0 81.5 23.5t28.5 61.5t-28.5 59t-81.5 21h-44l24 125h70q53 0 79 24.5t26 60.5q0 30 -26 53t-79 22q-42 -1 -75.5 -22t-39.5 -63h-150q23 102 90 161t180 59
q56 0 102 -13.5t79 -38t51 -58.5t18 -75q0 -38 -10.5 -69t-29 -54.5t-43 -39t-52.5 -22.5q38 -15 64 -51t26 -87q0 -48 -19 -87t-52.5 -66.5t-80.5 -43t-103 -15.5z" />
    <glyph glyph-name="four" unicode="4" horiz-adv-x="610" 
d="M381 135h-335l26 132l369 433h200l-85 -435h90l-25 -130h-90l-26 -135h-150zM406 265l49 255h-5l-216 -255h172z" />
    <glyph glyph-name="five" unicode="5" horiz-adv-x="605" 
d="M340 -10q-51 0 -96 14t-79.5 41.5t-55.5 69t-23 95.5h150q3 -34 29.5 -59.5t79.5 -25.5q60 0 92.5 36.5t32.5 93.5q0 45 -26.5 72.5t-83.5 27.5q-38 0 -64 -18t-41 -37h-152l118 400h445l-26 -130h-315l-38 -125h5q17 11 43.5 20.5t64.5 9.5q47 0 87 -14.5t69.5 -41
t46.5 -64.5t17 -85q0 -56 -17.5 -107t-53 -89.5t-88 -61t-121.5 -22.5z" />
    <glyph glyph-name="six" unicode="6" horiz-adv-x="610" 
d="M345 -10q-58 0 -105.5 15.5t-82 44t-53.5 68t-19 87.5q0 32 3.5 60.5t14.5 58.5t31 63t53 73l200 240h179l-196 -235h5q4 1 9 2t11.5 2t16.5 1q45 0 84 -16t67.5 -43.5t45 -65t16.5 -80.5q0 -58 -20.5 -108.5t-57.5 -87.5t-88.5 -58t-113.5 -21zM350 125q54 0 89.5 33
t35.5 92q0 24 -9.5 42.5t-25 31.5t-36.5 19.5t-44 6.5q-54 0 -89.5 -33t-35.5 -92q0 -24 9.5 -42.5t25 -31.5t36.5 -19.5t44 -6.5z" />
    <glyph glyph-name="seven" unicode="7" horiz-adv-x="540" 
d="M451 565h-315l27 135h485l-27 -135l-359 -565h-170z" />
    <glyph glyph-name="eight" unicode="8" horiz-adv-x="620" 
d="M359 -10q-71 0 -123 15t-86.5 41.5t-51.5 63t-17 79.5q0 36 11.5 67.5t31 56t46 41.5t55.5 26q-26 19 -47 52.5t-21 76.5q0 47 20.5 84.5t55 63.5t80 39.5t95.5 13.5q58 0 105.5 -13.5t81.5 -37.5t52.5 -58.5t18.5 -76.5q0 -34 -11.5 -63t-29.5 -51.5t-40.5 -39
t-44.5 -25.5q35 -20 57.5 -56t22.5 -81q0 -47 -18.5 -87t-52.5 -69t-82 -45.5t-108 -16.5zM353 115q51 0 84.5 27t33.5 78q0 38 -31.5 61.5t-90.5 23.5q-51 0 -84.5 -27t-33.5 -78q0 -38 31.5 -61.5t90.5 -23.5zM413 414q49 0 76 26t27 66q0 34 -25.5 56.5t-80.5 22.5
q-49 0 -76 -26t-27 -66q0 -34 25.5 -56.5t80.5 -22.5z" />
    <glyph glyph-name="nine" unicode="9" horiz-adv-x="610" 
d="M370 235h-5q-4 -2 -9 -3t-12 -1.5t-16 -0.5q-45 0 -84 16t-67.5 43.5t-45 65t-16.5 80.5q0 58 20.5 108.5t57.5 87.5t88.5 58t113.5 21q58 0 105.5 -15.5t82 -44t53.5 -68t19 -87.5q0 -32 -3.5 -60.5t-14.5 -58.5t-31 -63t-53 -73l-200 -240h-179zM380 350q54 0 89.5 33
t35.5 92q0 24 -9.5 42.5t-25 31.5t-36.5 19.5t-44 6.5q-54 0 -89.5 -33t-35.5 -92q0 -24 9.5 -42.5t25 -31.5t36.5 -19.5t44 -6.5z" />
    <glyph glyph-name="colon" unicode=":" horiz-adv-x="230" 
d="M119 -5q-32 0 -52.5 21.5t-20.5 51.5q0 18 7.5 34t20 28t28 18.5t32.5 6.5q32 0 52.5 -21.5t20.5 -51.5q0 -18 -7.5 -34t-20 -28t-28.5 -18.5t-32 -6.5zM194 380q-32 0 -52.5 21.5t-20.5 51.5q0 18 7.5 34t20 28t28 18.5t32.5 6.5q32 0 52.5 -21.5t20.5 -51.5
q0 -18 -7.5 -34t-20 -28t-28.5 -18.5t-32 -6.5z" />
    <glyph glyph-name="semicolon" unicode=";" horiz-adv-x="230" 
d="M79 100h130l-101 -210h-109zM194 380q-32 0 -52.5 21.5t-20.5 51.5q0 18 7.5 34t20 28t28 18.5t32.5 6.5q32 0 52.5 -21.5t20.5 -51.5q0 -18 -7.5 -34t-20 -28t-28.5 -18.5t-32 -6.5z" />
    <glyph glyph-name="less" unicode="&#x3c;" horiz-adv-x="510" 
d="M90 255v110l440 215v-125l-305 -145l305 -145v-125z" />
    <glyph glyph-name="equal" unicode="=" horiz-adv-x="550" 
d="M100 250h480v-110h-480v110zM100 475h480v-110h-480v110z" />
    <glyph glyph-name="greater" unicode="&#x3e;" horiz-adv-x="510" 
d="M104 165l305 145l-305 145v125l440 -215v-110l-440 -215v125z" />
    <glyph glyph-name="question" unicode="?" horiz-adv-x="520" 
d="M255 -5q-32 0 -52.5 21.5t-20.5 51.5q0 18 7.5 34t20 28t28 18.5t32.5 6.5q32 0 52.5 -21.5t20.5 -51.5q0 -18 -7.5 -34t-20 -28t-28.5 -18.5t-32 -6.5zM227 279q8 44 26.5 72.5t41 47t46.5 31t44 25t32.5 28.5t12.5 42q0 30 -25 45t-55 15q-42 0 -67 -25t-33 -55h-145
q6 47 26 85t51.5 64.5t74 41t93.5 14.5q52 0 94 -12.5t71.5 -35t44.5 -54t15 -68.5q0 -44 -15 -74t-38 -52t-50 -38t-51 -32.5t-42 -36t-22 -47.5l-5 -30h-134z" />
    <glyph glyph-name="at" unicode="@" horiz-adv-x="930" 
d="M455 -105q-81 0 -147 24t-113.5 68.5t-73.5 106t-26 136.5q0 112 34.5 200.5t96 149.5t146 93t183.5 32q96 0 170 -28t124 -75t75.5 -110t25.5 -132q0 -68 -16 -119t-43 -86t-63 -52.5t-76 -17.5q-30 0 -51 6.5t-35.5 17t-22.5 23t-13 23.5h-5q-23 -34 -60 -52t-90 -18
q-39 0 -70 13t-52 36t-32 54t-11 67q0 52 15 98t43 79.5t66.5 53t85.5 19.5q45 0 75 -16t45 -39h7l20 50h85l-49 -250q-1 -5 -1.5 -9t-0.5 -9q0 -47 54 -47q21 0 36.5 14t26.5 37t16.5 52.5t5.5 61.5q0 51 -19.5 96t-56.5 79.5t-91.5 54.5t-124.5 20q-80 0 -143.5 -26.5
t-108 -74t-68 -112.5t-23.5 -142q0 -54 18 -99.5t52 -77.5t82 -50t108 -18h150l-21 -105h-139zM502 180q20 0 39.5 8.5t35.5 26t25.5 43.5t9.5 62q0 42 -24 66t-63 24q-21 0 -40.5 -9t-35 -26.5t-25 -44t-9.5 -60.5q0 -42 24 -66t63 -24z" />
    <glyph glyph-name="A" unicode="A" horiz-adv-x="675" 
d="M391 700h185l114 -700h-148l-20 130h-285l-70 -130h-162zM499 265l-39 265h-5l-143 -265h187z" />
    <glyph glyph-name="B" unicode="B" horiz-adv-x="665" 
d="M206 700h309q94 0 147 -45t53 -120q0 -67 -34 -117t-91 -70q34 -17 54.5 -51t20.5 -82t-16 -88t-45 -68t-69.5 -43.5t-89.5 -15.5h-375zM425 130q42 0 68.5 22.5t26.5 67.5q0 33 -21 51.5t-59 18.5h-164l-31 -160h180zM475 410q42 0 66 24t24 66q0 30 -20.5 50t-54.5 20
h-160l-31 -160h176z" />
    <glyph glyph-name="C" unicode="C" horiz-adv-x="710" 
d="M413 -10q-73 0 -130.5 20.5t-97.5 58.5t-61 91.5t-21 119.5q0 101 29 181t78 135.5t114.5 84.5t138.5 29q135 0 210 -62.5t90 -167.5h-152q-7 19 -19 36t-30.5 30t-44 21t-59.5 8q-39 0 -76 -17t-65.5 -51.5t-46 -87.5t-17.5 -124q0 -87 45 -128.5t120 -41.5
q47 0 85.5 23t66.5 72h158q-19 -47 -48 -88.5t-68.5 -73t-89 -50t-109.5 -18.5z" />
    <glyph glyph-name="D" unicode="D" horiz-adv-x="700" 
d="M206 700h244q64 0 116.5 -20t90 -57t58 -89.5t20.5 -117.5q0 -96 -28 -173t-75.5 -131t-111 -83t-134.5 -29h-316zM380 135q37 0 74 16.5t66 49.5t47 81.5t18 112.5q0 41 -11.5 73t-31.5 53.5t-47.5 32.5t-59.5 11h-106l-83 -430h134z" />
    <glyph glyph-name="E" unicode="E" horiz-adv-x="600" 
d="M206 700h475l-27 -135h-325l-29 -150h305l-24 -125h-305l-30 -155h335l-26 -135h-485z" />
    <glyph glyph-name="F" unicode="F" horiz-adv-x="585" 
d="M206 700h475l-27 -135h-325l-32 -165h300l-26 -135h-300l-51 -265h-150z" />
    <glyph glyph-name="G" unicode="G" horiz-adv-x="725" 
d="M413 -10q-73 0 -130.5 20.5t-97.5 58.5t-61 91.5t-21 119.5q0 101 29 181t78 135.5t114.5 84.5t138.5 29q135 0 210 -62.5t90 -167.5h-152q-7 19 -19 36t-30.5 30t-44 21t-59.5 8q-39 0 -76 -17t-65.5 -51.5t-46 -87.5t-17.5 -124q0 -87 45 -128.5t120 -41.5
q62 0 106 36.5t58 93.5h-165l23 120h320l-16 -82q-15 -76 -46.5 -133t-75 -94.5t-97 -56.5t-112.5 -19z" />
    <glyph glyph-name="H" unicode="H" horiz-adv-x="720" 
d="M206 700h150l-55 -280h280l55 280h150l-136 -700h-150l55 285h-280l-55 -285h-150z" />
    <glyph glyph-name="I" unicode="I" horiz-adv-x="290" 
d="M206 700h150l-136 -700h-150z" />
    <glyph glyph-name="J" unicode="J" horiz-adv-x="570" 
d="M288 -10q-49 0 -91 12.5t-73 37.5t-48.5 63.5t-17.5 91.5v20h150v-5q0 -85 85 -85q38 0 63.5 26.5t36.5 81.5l91 467h150l-94 -481q-22 -112 -88 -170.5t-164 -58.5z" />
    <glyph glyph-name="K" unicode="K" horiz-adv-x="630" 
d="M206 700h150l-61 -310l311 310h180l-352 -350l223 -350h-172l-203 320l-62 -320h-150z" />
    <glyph glyph-name="L" unicode="L" horiz-adv-x="540" 
d="M206 700h150l-110 -565h320l-26 -135h-470z" />
    <glyph glyph-name="M" unicode="M" horiz-adv-x="915" 
d="M206 700h213l70 -485h5l260 485h227l-136 -700h-150l96 495h-5l-266 -495h-125l-74 495h-5l-96 -495h-150z" />
    <glyph glyph-name="N" unicode="N" horiz-adv-x="755" 
d="M206 700h195l170 -495h5l95 495h150l-136 -700h-195l-170 495h-5l-95 -495h-150z" />
    <glyph glyph-name="O" unicode="O" horiz-adv-x="740" 
d="M413 -10q-73 0 -130.5 20.5t-97.5 58.5t-61 91.5t-21 119.5q0 101 29 181t78 135.5t114.5 84.5t138.5 29t130.5 -20.5t97.5 -58.5t61 -91.5t21 -119.5q0 -101 -29 -181t-78 -135.5t-114.5 -84.5t-138.5 -29zM418 125q39 0 76 17t65.5 51.5t46 87.5t17.5 124
q0 87 -45 128.5t-120 41.5q-39 0 -76 -17t-65.5 -51.5t-46 -87.5t-17.5 -124q0 -87 45 -128.5t120 -41.5z" />
    <glyph glyph-name="P" unicode="P" horiz-adv-x="650" 
d="M206 700h269q49 0 89.5 -15t69.5 -43t45 -66.5t16 -85.5q0 -60 -20 -109.5t-55.5 -85.5t-83 -55.5t-101.5 -19.5h-173l-42 -220h-150zM433 355q51 0 81.5 33t30.5 87q0 38 -24.5 64t-67.5 26h-124l-40 -210h144z" />
    <glyph glyph-name="Q" unicode="Q" horiz-adv-x="740" 
d="M460 -7q-6 -1 -13 -2q-6 -1 -15 -1h-19q-73 0 -130.5 20.5t-97.5 58.5t-61 91.5t-21 119.5q0 101 29 181t78 135.5t114.5 84.5t138.5 29t130.5 -20.5t97.5 -58.5t61 -91.5t21 -119.5q0 -68 -13.5 -127t-38.5 -108t-59 -86t-74 -60l65 -139h-150zM351 225h150l28 -61
q42 32 68 92.5t26 148.5q0 87 -45 128.5t-120 41.5q-39 0 -76 -17t-65.5 -51.5t-46 -87.5t-17.5 -124q0 -79 39.5 -122t105.5 -47z" />
    <glyph glyph-name="R" unicode="R" horiz-adv-x="655" 
d="M206 700h284q45 0 82.5 -14.5t65 -40.5t42.5 -63t15 -82q0 -58 -15.5 -101.5t-40 -74t-56 -49t-62.5 -25.5l119 -250h-163l-114 240h-97l-46 -240h-150zM445 375q52 0 76 32.5t24 77.5q0 34 -21.5 57t-63.5 23h-131l-37 -190h153z" />
    <glyph glyph-name="S" unicode="S" horiz-adv-x="625" 
d="M352 -10q-131 0 -207.5 56t-77.5 164h152q8 -41 45 -65.5t98 -24.5q57 0 86 23t29 62q0 31 -25 47.5t-62 28t-80.5 22.5t-80.5 31t-62 54t-25 92q0 57 21 100.5t56.5 72t82.5 43t100 14.5q66 0 115.5 -16t82.5 -43.5t50 -65t17 -80.5h-150q0 34 -31 54.5t-84 20.5
q-56 0 -80.5 -25t-24.5 -55t25 -46.5t62 -28t80.5 -23t80.5 -32.5t62 -56t25 -94q0 -53 -20.5 -95.5t-57.5 -72.5t-88.5 -46t-113.5 -16z" />
    <glyph glyph-name="T" unicode="T" horiz-adv-x="595" 
d="M319 565h-210l27 135h570l-27 -135h-210l-109 -565h-150z" />
    <glyph glyph-name="U" unicode="U" horiz-adv-x="720" 
d="M390 -10q-62 0 -112.5 17.5t-86.5 50.5t-56 81.5t-20 110.5q0 33 8 76l73 374h150l-76 -387q-2 -14 -3.5 -25.5t-1.5 -22.5q0 -68 37 -104t98 -36q57 0 98.5 43t57.5 122l80 410h150l-83 -425q-13 -68 -41 -120.5t-68.5 -89.5t-92 -56t-111.5 -19z" />
    <glyph glyph-name="V" unicode="V" horiz-adv-x="665" 
d="M126 700h153l67 -530h5l273 530h167l-371 -700h-195z" />
    <glyph glyph-name="W" unicode="W" horiz-adv-x="950" 
d="M136 700h148l15 -485h5l215 485h160l25 -485h5l205 485h162l-321 -700h-165l-26 485l-214 -485h-165z" />
    <glyph glyph-name="X" unicode="X" horiz-adv-x="620" 
d="M284 360l-153 340h160l98 -240l192 240h180l-287 -340l161 -360h-160l-105 260l-205 -260h-180z" />
    <glyph glyph-name="Y" unicode="Y" horiz-adv-x="610" 
d="M266 240l-155 460h150l97 -305h5l218 305h170l-335 -460l-46 -240h-150z" />
    <glyph glyph-name="Z" unicode="Z" horiz-adv-x="600" 
d="M46 110l422 460h-323l26 130h520l-22 -110l-422 -460h338l-25 -130h-535z" />
    <glyph glyph-name="bracketleft" unicode="[" horiz-adv-x="345" 
d="M211 730h250l-25 -130h-110l-130 -670h110l-25 -130h-250z" />
    <glyph glyph-name="backslash" unicode="\" horiz-adv-x="435" 
d="M151 730h140l110 -930h-140z" />
    <glyph glyph-name="bracketright" unicode="]" horiz-adv-x="345" 
d="M11 -70h110l130 670h-110l25 130h250l-180 -930h-249z" />
    <glyph glyph-name="asciicircum" unicode="^" horiz-adv-x="475" 
d="M250 700h115l150 -320h-115l-90 210h-5l-90 -210h-115z" />
    <glyph glyph-name="underscore" unicode="_" horiz-adv-x="445" 
d="M-21 -110h484l-24 -125h-484z" />
    <glyph glyph-name="grave" unicode="`" horiz-adv-x="280" 
d="M177 760h125l61 -150h-100z" />
    <glyph glyph-name="a" unicode="a" horiz-adv-x="560" 
d="M235 -10q-79 0 -124 41t-45 109q0 39 14.5 72t41 57t64.5 37.5t85 13.5h156l3 18q2 10 2 17q0 29 -22 47t-64 18q-59 0 -83 -45h-140q12 36 33 66t50.5 52t67 34.5t82.5 12.5q49 0 88.5 -11.5t68 -34t44 -54.5t15.5 -72q0 -8 -1 -21.5t-4 -28.5l-62 -318h-120l-5 55h-5
q-20 -26 -55.5 -45.5t-84.5 -19.5zM285 105q42 0 74.5 22t43.5 73l4 20h-127q-21 0 -35 -5t-22.5 -13.5t-12.5 -19.5t-4 -22q0 -23 20.5 -39t58.5 -16z" />
    <glyph glyph-name="b" unicode="b" horiz-adv-x="620" 
d="M376 -10q-66 0 -101.5 19.5t-57.5 50.5h-5l-27 -60h-120l136 700h140l-43 -220h5q25 28 59 44t79 16q94 0 147 -56.5t53 -158.5q0 -75 -20 -136.5t-55.5 -106t-84 -68.5t-105.5 -24zM361 115q24 0 49 10.5t45.5 33t33 57.5t12.5 84q0 30 -8.5 51.5t-23 36t-33.5 21
t-40 6.5q-24 0 -49 -10.5t-45.5 -33t-33 -57.5t-12.5 -84q0 -30 8.5 -51.5t23 -36t33.5 -21t40 -6.5z" />
    <glyph glyph-name="c" unicode="c" horiz-adv-x="575" 
d="M327 -10q-117 0 -181 59.5t-64 165.5q0 80 24 140.5t63 101.5t89.5 62t103.5 21q56 0 98 -13.5t71 -38.5t46 -60t25 -78h-143q-6 19 -17 31.5t-24.5 20t-28 10.5t-27.5 3q-23 0 -48 -10.5t-45.5 -33t-33.5 -57.5t-13 -84q0 -30 8.5 -51.5t23 -36t33.5 -21t40 -6.5
q19 0 36.5 6t32 15.5t25 21t16.5 22.5h145q-13 -41 -36.5 -76t-55.5 -60.5t-73 -39.5t-90 -14z" />
    <glyph glyph-name="d" unicode="d" horiz-adv-x="620" 
d="M282 -10q-94 0 -147 56.5t-53 158.5q0 75 19.5 136.5t54 106t82.5 68.5t104 24q34 0 58.5 -6t43 -16t32 -24t24.5 -29h5l46 235h140l-137 -700h-120l-4 55h-5q-25 -26 -61.5 -45.5t-81.5 -19.5zM327 115q24 0 49 10.5t45.5 33t33 57.5t12.5 84q0 30 -8.5 51.5t-23 36
t-33.5 21t-40 6.5q-24 0 -49 -10.5t-45.5 -33t-33 -57.5t-12.5 -84q0 -30 8.5 -51.5t23 -36t33.5 -21t40 -6.5z" />
    <glyph glyph-name="e" unicode="e" horiz-adv-x="585" 
d="M327 -10q-117 0 -181 59.5t-64 165.5q0 79 23 139.5t62 101.5t90.5 62.5t107.5 21.5q54 0 98.5 -15t76 -43.5t48.5 -70.5t17 -96q0 -19 -2.5 -36t-4.5 -30q-3 -16 -6 -29h-370q3 -55 34 -80t71 -25q21 0 51 12t49 38h156q-18 -43 -46 -76t-61.5 -55t-71.5 -33t-77 -11z
M468 325q-6 45 -34 67.5t-72 22.5q-32 0 -67.5 -21.5t-55.5 -68.5h229z" />
    <glyph glyph-name="f" unicode="f" horiz-adv-x="385" 
d="M177 400h-85l26 130h85l11 60q12 68 53 104t113 36h126l-24 -125h-82q-23 0 -36 -13t-16 -32l-5 -30h125l-26 -130h-125l-77 -400h-140z" />
    <glyph glyph-name="g" unicode="g" horiz-adv-x="605" 
d="M300 -200q-120 0 -182 47t-73 133h143q4 -15 15 -25.5t26 -17t32 -9.5t34 -3q28 0 48 7t33 19t20.5 28.5t11.5 35.5l14 75h-5q-8 -9 -20 -19.5t-28.5 -19.5t-37.5 -15t-46 -6q-94 0 -147.5 54t-53.5 149q0 73 20 130t55 96.5t82.5 60t103.5 20.5q32 0 56 -6t42 -16
t31 -22.5t22 -25.5h5l27 60h120l-103 -530q-20 -98 -79.5 -149t-165.5 -51zM327 155q28 0 52.5 11t42.5 31t28.5 48.5t10.5 64.5q0 48 -29.5 76.5t-74.5 28.5q-29 0 -53 -11t-42 -31t-28 -48.5t-10 -64.5q0 -48 29 -76.5t74 -28.5z" />
    <glyph glyph-name="h" unicode="h" horiz-adv-x="595" 
d="M201 700h140l-43 -220h5q28 30 63.5 45t70.5 15q33 0 63.5 -11t53.5 -33t37 -55t14 -76q0 -19 -1.5 -31.5t-3.5 -23.5l-60 -310h-140l57 295q2 8 2.5 17t0.5 13q0 90 -85 90q-42 0 -71 -27.5t-38 -72.5l-61 -315h-140z" />
    <glyph glyph-name="i" unicode="i" horiz-adv-x="260" 
d="M163 530h140l-103 -530h-140zM250 585q-34 0 -54.5 20t-20.5 50q0 38 25.5 64t59.5 26t54.5 -20t20.5 -50q0 -38 -25.5 -64t-59.5 -26z" />
    <glyph glyph-name="j" unicode="j" horiz-adv-x="260" 
d="M-85 -80h85q23 0 36 13.5t18 36.5l109 560h140l-115 -589q-14 -72 -50.5 -106.5t-110.5 -34.5h-135zM250 585q-34 0 -54.5 20t-20.5 50q0 38 25.5 64t59.5 26t54.5 -20t20.5 -50q0 -38 -25.5 -64t-59.5 -26z" />
    <glyph glyph-name="k" unicode="k" horiz-adv-x="550" 
d="M201 700h140l-79 -405l241 235h170l-271 -265l175 -265h-162l-163 245l-47 -245h-140z" />
    <glyph glyph-name="l" unicode="l" horiz-adv-x="270" 
d="M201 700h140l-136 -700h-140z" />
    <glyph glyph-name="m" unicode="m" horiz-adv-x="885" 
d="M163 530h120l5 -55h5q26 30 57.5 47.5t69.5 17.5q32 0 55 -9t39 -22t24.5 -28t11.5 -26h5q8 13 22.5 28t34.5 27.5t47 21t61 8.5q37 0 69.5 -12t55.5 -34.5t36.5 -55.5t13.5 -75q0 -10 -1 -24t-4 -29l-60 -310h-140l58 300q2 8 3 17.5t1 16.5q0 39 -20.5 60t-60.5 21
q-31 0 -58 -23t-36 -72l-62 -320h-140l58 300q2 8 3 17.5t1 16.5q0 38 -20 59.5t-61 21.5q-35 0 -60.5 -25.5t-34.5 -74.5l-61 -315h-140z" />
    <glyph glyph-name="n" unicode="n" horiz-adv-x="590" 
d="M163 530h120l5 -55h5q23 26 59 45.5t81 19.5q32 0 62 -11t53.5 -33t37.5 -55t14 -76q0 -19 -1.5 -31.5t-3.5 -23.5l-60 -310h-140l57 295q2 8 2.5 17t0.5 13q0 90 -85 90q-42 0 -71 -27.5t-38 -72.5l-61 -315h-140z" />
    <glyph glyph-name="o" unicode="o" horiz-adv-x="590" 
d="M327 -10q-117 0 -181 59.5t-64 165.5q0 79 23 139.5t62 101.5t90.5 62.5t107.5 21.5q117 0 181 -59.5t64 -165.5q0 -79 -23 -139.5t-62 -102t-90.5 -62.5t-107.5 -21zM327 115q24 0 49.5 10.5t46.5 33t34 57.5t13 84q0 30 -8.5 51.5t-23 36t-33.5 21t-40 6.5
q-24 0 -49.5 -10.5t-46.5 -33t-34 -57.5t-13 -84q0 -30 8.5 -51.5t23 -36t33.5 -21t40 -6.5z" />
    <glyph glyph-name="p" unicode="p" horiz-adv-x="615" 
d="M163 530h120l4 -55h5q25 26 61.5 45.5t81.5 19.5q94 0 147 -56.5t53 -158.5q0 -75 -19.5 -136.5t-54 -106t-82.5 -68.5t-104 -24q-34 0 -58.5 6t-43 16t-32 24t-24.5 29h-5l-51 -265h-140zM355 115q24 0 49 10.5t45.5 33t33 57.5t12.5 84q0 30 -8.5 51.5t-23 36t-33.5 21
t-40 6.5q-24 0 -49 -10.5t-45.5 -33t-33 -57.5t-12.5 -84q0 -30 8.5 -51.5t23 -36t33.5 -21t40 -6.5z" />
    <glyph glyph-name="q" unicode="q" horiz-adv-x="615" 
d="M425 50h-5q-25 -28 -59 -44t-79 -16q-94 0 -147 56.5t-53 158.5q0 75 20 136.5t55.5 106t84 68.5t105.5 24q66 0 101.5 -19.5t57.5 -50.5h5l27 60h120l-142 -730h-140zM327 115q24 0 49 10.5t45.5 33t33 57.5t12.5 84q0 30 -8.5 51.5t-23 36t-33.5 21t-40 6.5
q-24 0 -49 -10.5t-45.5 -33t-33 -57.5t-12.5 -84q0 -30 8.5 -51.5t23 -36t33.5 -21t40 -6.5z" />
    <glyph glyph-name="r" unicode="r" horiz-adv-x="410" 
d="M163 530h120l5 -55h5q23 26 50.5 40.5t61.5 14.5h88l-27 -135h-71q-57 0 -94 -31.5t-48 -88.5l-53 -275h-140z" />
    <glyph glyph-name="s" unicode="s" horiz-adv-x="515" 
d="M305 -10q-117 0 -180 42t-72 133h149q4 -23 30.5 -36.5t70.5 -13.5q70 0 70 40q0 21 -19.5 32t-49 19t-64 16t-64 23.5t-49 42.5t-19.5 72q0 37 14 70t40.5 57.5t65.5 38.5t90 14q63 0 106 -13t70.5 -35.5t41 -52.5t17.5 -64h-150q-4 15 -24.5 27.5t-63.5 12.5
q-23 0 -42.5 -8t-19.5 -27q0 -23 19.5 -34t49 -18.5t64 -15t64 -23.5t49 -44t19.5 -75q0 -39 -14.5 -72t-41.5 -57t-66.5 -37.5t-90.5 -13.5z" />
    <glyph glyph-name="t" unicode="t" horiz-adv-x="405" 
d="M269 0q-71 0 -105.5 36.5t-34.5 93.5q0 8 1 18.5t3 21.5l44 230h-85l26 130h85l47 140h120l-27 -140h125l-26 -130h-125l-42 -215q-1 -4 -1 -12q0 -17 11 -30t31 -13h74l-25 -130h-96v0z" />
    <glyph glyph-name="u" unicode="u" horiz-adv-x="595" 
d="M265 -10q-32 0 -62 11t-53.5 33t-37.5 55t-14 76q0 19 1.5 31.5t3.5 23.5l60 310h140l-57 -295q-2 -8 -2.5 -17t-0.5 -13q0 -90 85 -90q42 0 71 27.5t38 72.5l61 315h140l-103 -530h-120l-5 55h-5q-23 -26 -59 -45.5t-81 -19.5z" />
    <glyph glyph-name="v" unicode="v" horiz-adv-x="545" 
d="M93 530h145l45 -385h5l195 385h155l-288 -530h-175z" />
    <glyph glyph-name="w" unicode="w" horiz-adv-x="805" 
d="M103 530h137l21 -355h5l159 355h145l21 -355h5l159 355h143l-248 -530h-159l-25 335h-5l-155 -335h-161z" />
    <glyph glyph-name="x" unicode="x" horiz-adv-x="495" 
d="M208 275l-110 255h150l62 -165l128 165h160l-210 -255l117 -275h-150l-71 180l-139 -180h-160z" />
    <glyph glyph-name="y" unicode="y" horiz-adv-x="560" 
d="M199 9l-111 521h148l62 -345h4l194 345h162l-432 -730h-152z" />
    <glyph glyph-name="z" unicode="z" horiz-adv-x="490" 
d="M45 105l298 300h-230l25 125h415l-21 -105l-298 -300h245l-24 -125h-430z" />
    <glyph glyph-name="braceleft" unicode="{" horiz-adv-x="365" 
d="M221 -200q-65 0 -98 36.5t-33 93.5q0 8 1 19t3 21l30 155q1 5 1 16q0 26 -14.5 42.5t-42.5 16.5l26 130h10q27 0 46.5 17.5t25.5 47.5l38 195q13 68 53 104t106 36h108l-25 -130h-58q-25 0 -36 -12t-16 -38l-31 -160q-7 -38 -19 -62t-27.5 -38t-32.5 -19.5t-35 -5.5
l-4 -20q27 -4 47.5 -25t20.5 -70q0 -9 -1 -20.5t-3 -19.5l-23 -120l-2 -10t-1 -10q0 -40 48 -40h43l-25 -130h-80v0z" />
    <glyph glyph-name="bar" unicode="|" horiz-adv-x="380" 
d="M186 730h140v-930h-140v930z" />
    <glyph glyph-name="braceright" unicode="}" horiz-adv-x="365" 
d="M12 -70h58q25 0 36 12t16 38l31 160q7 37 19 61.5t27.5 38.5t32.5 19.5t35 5.5l4 20q-27 4 -47.5 25t-20.5 70q0 9 1 20.5t3 19.5l23 120l2 10t1 10q0 40 -48 40h-43l25 130h80q65 0 98 -36.5t33 -93.5q0 -8 -1 -19t-3 -21l-30 -155q-1 -5 -1 -16q0 -26 14.5 -42.5
t42.5 -16.5l-26 -130h-10q-27 0 -46.5 -17.5t-25.5 -47.5l-38 -195q-13 -68 -53 -104t-106 -36h-108z" />
    <glyph glyph-name="asciitilde" unicode="~" horiz-adv-x="615" 
d="M460 220q-39 0 -65.5 11.5t-46 26t-36 26t-37.5 11.5q-26 0 -43 -18t-17 -52h-115q0 91 45 138t120 47q39 0 65.5 -11.5t46 -26t36 -26t37.5 -11.5q26 0 43 18t17 52h115q0 -91 -45 -138t-120 -47z" />
    <glyph glyph-name="nonbreakingspace" unicode="&#xa0;" horiz-adv-x="230" 
 />
    <glyph glyph-name="exclamdown" unicode="&#xa1;" horiz-adv-x="300" 
d="M60 -125l98 425h110l-68 -425l-14 -75h-140zM235 380q-32 0 -52.5 21.5t-20.5 51.5q0 18 7.5 34t20 28t28 18.5t32.5 6.5q32 0 52.5 -21.5t20.5 -51.5q0 -18 -7.5 -34t-20 -28t-28.5 -18.5t-32 -6.5z" />
    <glyph glyph-name="cent" unicode="&#xa2;" horiz-adv-x="575" 
d="M224 5q-69 23 -105.5 77t-36.5 133q0 73 20 130t53.5 97.5t77.5 64.5t92 30l21 103h144l-23 -116q60 -21 92 -66t43 -108h-143q-6 19 -17 31.5t-24.5 20t-28 10.5t-27.5 3q-23 0 -48 -10.5t-45.5 -33t-33.5 -57.5t-13 -84q0 -30 8.5 -51.5t23 -36t33.5 -21t40 -6.5
q19 0 36.5 6t32 15.5t25 21t16.5 22.5h145q-24 -75 -79 -126t-138 -61l-20 -103h-144z" />
    <glyph glyph-name="sterling" unicode="&#xa3;" horiz-adv-x="600" 
d="M56 135h26q29 0 43.5 13t21.5 47l16 80h-80l25 130h80l19 95q20 101 81 155.5t152 54.5q109 0 164.5 -55t55.5 -145v-10h-150q0 75 -70 75q-68 0 -86 -90l-16 -80h165l-25 -130h-165l-16 -80q-4 -19 -10 -30.5t-12 -18.5q-7 -8 -15 -11h341l-26 -135h-545z" />
    <glyph glyph-name="currency" unicode="&#xa4;" horiz-adv-x="600" 
d="M105 130l65 65q-17 26 -26 57.5t-9 67.5q0 35 9 67t26 58l-65 65l70 60l60 -60q26 17 57.5 26t67.5 9q35 0 67 -9t58 -26l60 60l70 -60l-65 -65q17 -26 26 -58t9 -67q0 -36 -9 -67.5t-26 -57.5l65 -65l-70 -60l-60 60q-26 -17 -58 -26t-67 -9q-36 0 -67.5 9t-57.5 26
l-60 -60zM360 190q57 0 93.5 36.5t36.5 93.5t-36.5 93.5t-93.5 36.5t-93.5 -36.5t-36.5 -93.5t36.5 -93.5t93.5 -36.5z" />
    <glyph glyph-name="yen" unicode="&#xa5;" horiz-adv-x="610" 
d="M239 100h-165l23 120h165l10 50h-165l23 120h89l-98 310h150l87 -305h5l208 305h170l-221 -310h90l-23 -120h-165l-10 -50h165l-23 -120h-165l-19 -100h-150z" />
    <glyph glyph-name="brokenbar" unicode="&#xa6;" horiz-adv-x="380" 
d="M186 180h140v-380h-140v380zM186 730h140v-380h-140v380z" />
    <glyph glyph-name="section" unicode="&#xa7;" horiz-adv-x="620" 
d="M320 -120q-49 0 -91 11.5t-74 35t-51.5 59t-23.5 84.5h150q6 -34 33 -52t72 -18q49 0 67 17t18 43q0 24 -23 37t-57.5 22.5t-74.5 19.5t-74.5 27t-57.5 45.5t-23 75.5q0 53 27.5 92.5t72.5 62.5q-15 15 -25 39t-10 54q0 32 15 63.5t45 56t75 40t105 15.5q105 0 169.5 -45
t75.5 -135h-151q-8 23 -31.5 41.5t-72.5 18.5t-67 -17t-18 -43q0 -23 23 -36t57.5 -22.5t74.5 -20t74.5 -28t57.5 -47t23 -76.5q0 -49 -26.5 -88.5t-68.5 -62.5q11 -14 20.5 -37t9.5 -57t-16 -65.5t-46.5 -56t-76.5 -39t-106 -14.5zM450 219q15 11 25 27.5t10 33.5
q0 24 -19 37t-48.5 20.5t-63.5 14.5t-64 19q-15 -11 -25 -27.5t-10 -33.5q0 -24 19 -37t48.5 -20.5t63.5 -14.5t64 -19z" />
    <glyph glyph-name="dieresis" unicode="&#xa8;" horiz-adv-x="400" 
d="M220 615q-30 0 -47.5 19.5t-17.5 45.5q0 34 22.5 54.5t52.5 20.5t47.5 -19.5t17.5 -45.5q0 -34 -22.5 -54.5t-52.5 -20.5zM420 615q-30 0 -47.5 19.5t-17.5 45.5q0 34 22.5 54.5t52.5 20.5t47.5 -19.5t17.5 -45.5q0 -34 -22.5 -54.5t-52.5 -20.5z" />
    <glyph glyph-name="copyright" unicode="&#xa9;" horiz-adv-x="820" 
d="M480 -10q-79 0 -145 26.5t-114 74.5t-74.5 114t-26.5 145t26.5 145t74.5 114t114 74.5t145 26.5t145 -26.5t114 -74.5t74.5 -114t26.5 -145t-26.5 -145t-74.5 -114t-114 -74.5t-145 -26.5zM480 80q58 0 106.5 19.5t84 55.5t55 85.5t19.5 109.5t-19.5 109.5t-55 85.5
t-84 55.5t-106.5 19.5t-106.5 -19.5t-84 -55.5t-55 -85.5t-19.5 -109.5t19.5 -109.5t55 -85.5t84 -55.5t106.5 -19.5zM480 160q-83 0 -131.5 49.5t-48.5 140.5t48.5 140.5t131.5 49.5q37 0 65.5 -11t49 -29.5t32.5 -42t18 -47.5h-90q-8 19 -26.5 34.5t-48.5 15.5
q-42 0 -66 -26.5t-24 -83.5t24 -83.5t66 -26.5q30 0 48.5 15.5t26.5 34.5h90q-6 -24 -18 -47.5t-32.5 -42t-49 -29.5t-65.5 -11z" />
    <glyph glyph-name="ordfeminine" unicode="&#xaa;" horiz-adv-x="365" 
d="M220 350q-60 0 -87.5 29t-27.5 71q0 24 7.5 46t23 38.5t39 26t55.5 9.5h110l1 5q2 8 2 15q0 15 -11.5 27.5t-41.5 12.5q-23 0 -33 -9t-18 -21h-95q12 57 52.5 83.5t93.5 26.5q68 0 105.5 -31t37.5 -84q0 -4 -1 -13t-3 -17l-40 -210h-80l2 35h-5q-8 -11 -30 -25.5
t-56 -14.5zM245 430q34 0 54.5 17.5t26.5 47.5l2 10h-88q-45 0 -45 -40q0 -15 12 -25t38 -10z" />
    <glyph glyph-name="guillemotleft" unicode="&#xab;" horiz-adv-x="695" 
d="M77 270l262 240h164l-270 -245l-2 -6l163 -229h-149zM342 270l262 240h164l-270 -245l-2 -6l163 -229h-149z" />
    <glyph glyph-name="logicalnot" unicode="&#xac;" horiz-adv-x="530" 
d="M435 265h-345v110h455v-225h-110v115z" />
    <glyph glyph-name="uni00AD" unicode="&#xad;" horiz-adv-x="405" 
d="M107 345h325l-25 -125h-325z" />
    <glyph glyph-name="registered" unicode="&#xae;" horiz-adv-x="820" 
d="M480 -10q-79 0 -145 26.5t-114 74.5t-74.5 114t-26.5 145t26.5 145t74.5 114t114 74.5t145 26.5t145 -26.5t114 -74.5t74.5 -114t26.5 -145t-26.5 -145t-74.5 -114t-114 -74.5t-145 -26.5zM480 80q58 0 106.5 19.5t84 55.5t55 85.5t19.5 109.5t-19.5 109.5t-55 85.5
t-84 55.5t-106.5 19.5t-106.5 -19.5t-84 -55.5t-55 -85.5t-19.5 -109.5t19.5 -109.5t55 -85.5t84 -55.5t106.5 -19.5zM345 540h160q64 0 99.5 -34t35.5 -91q0 -42 -21.5 -73t-63.5 -42l90 -135h-100l-85 130h-25v-130h-90v375zM500 370q23 0 36.5 11t13.5 34t-13.5 34
t-36.5 11h-65v-90h65z" />
    <glyph glyph-name="macron" unicode="&#xaf;" horiz-adv-x="360" 
d="M170 725h300l-18 -95h-300z" />
    <glyph glyph-name="degree" unicode="&#xb0;" horiz-adv-x="400" 
d="M290 415q-34 0 -62.5 11.5t-49 32t-32 49t-11.5 62.5t11.5 62.5t32 49t49 32t62.5 11.5t62.5 -11.5t49 -32t32 -49t11.5 -62.5t-11.5 -62.5t-32 -49t-49 -32t-62.5 -11.5zM290 500q30 0 47.5 18t17.5 52t-17.5 52t-47.5 18t-47.5 -18t-17.5 -52t17.5 -52t47.5 -18z" />
    <glyph glyph-name="plusminus" unicode="&#xb1;" horiz-adv-x="550" 
d="M95 115h480v-110h-480v110zM280 325h-185v110h185v175h110v-175h185v-110h-185v-175h-110v175z" />
    <glyph glyph-name="uni00B2" unicode="&#xb2;" horiz-adv-x="335" 
d="M118 480l172 136q23 18 36.5 34.5t13.5 39.5q0 11 -10.5 20.5t-29.5 9.5q-23 0 -35 -8.5t-17 -31.5h-95q13 60 49 92.5t108 32.5q30 0 53.5 -8.5t39 -23.5t24 -34.5t8.5 -41.5q0 -43 -18 -71t-53 -55l-113 -91h142l-16 -80h-275z" />
    <glyph glyph-name="uni00B3" unicode="&#xb3;" horiz-adv-x="345" 
d="M261 395q-66 0 -105.5 30t-39.5 85h94q4 -15 16.5 -22.5t39.5 -7.5q23 0 36.5 13t13.5 33q0 18 -11 28.5t-34 10.5h-31l16 80h40q23 0 34 12.5t11 27.5q0 13 -11 24t-39 11q-46 0 -52 -40h-95q11 64 51.5 94.5t100.5 30.5q36 0 62.5 -8.5t44 -23t25.5 -33.5t8 -40
q0 -23 -7 -40t-17.5 -29t-23 -19.5t-24.5 -11.5q23 -14 35 -34t12 -41q0 -26 -10 -49.5t-29.5 -41.5t-47 -28.5t-63.5 -10.5z" />
    <glyph glyph-name="acute" unicode="&#xb4;" horiz-adv-x="280" 
d="M267 760h135l-144 -150h-110z" />
    <glyph glyph-name="uni00B5" unicode="&#xb5;" horiz-adv-x="595" 
d="M163 530h140l-57 -295q-2 -8 -2.5 -17t-0.5 -13q0 -90 85 -90q42 0 71 27.5t38 72.5l61 315h140l-103 -530h-120l-5 55h-5q-26 -34 -58.5 -49.5t-66.5 -15.5t-51 8.5t-26 16.5l-38 -195h-140z" />
    <glyph glyph-name="paragraph" unicode="&#xb6;" horiz-adv-x="595" 
d="M279 310q-36 0 -67 13.5t-54 39t-36 61.5t-13 81t13 81t36 61.5t54 39t67 13.5h320v-810h-125v680h-70v-680h-125v420z" />
    <glyph glyph-name="periodcentered" unicode="&#xb7;" horiz-adv-x="230" 
d="M157 195q-32 0 -52.5 21.5t-20.5 51.5q0 18 7.5 34t20 28t28 18.5t32.5 6.5q32 0 52.5 -21.5t20.5 -51.5q0 -18 -7.5 -34t-20 -28t-28.5 -18.5t-32 -6.5z" />
    <glyph glyph-name="cedilla" unicode="&#xb8;" horiz-adv-x="240" 
d="M0 -150h60q30 0 30 25q0 11 -5 18t-21 7h-44l11 55l29 45h80l-21 -34q29 -6 47.5 -27.5t18.5 -53.5q0 -26 -9.5 -47t-25.5 -36t-37 -23.5t-43 -8.5h-84z" />
    <glyph glyph-name="uni00B9" unicode="&#xb9;" horiz-adv-x="270" 
d="M238 660h-90l16 85h65q8 0 17.5 4.5t11.5 15.5l7 35h90l-78 -400h-90z" />
    <glyph glyph-name="ordmasculine" unicode="&#xba;" horiz-adv-x="390" 
d="M274 350q-72 0 -113 38.5t-41 107.5q0 51 14.5 91t39.5 67t58 41.5t69 14.5q72 0 113 -38.5t41 -107.5q0 -51 -14.5 -91t-39.5 -67t-58 -41.5t-69 -14.5zM275 435q16 0 32 7.5t29 21.5t20.5 35.5t7.5 48.5q0 35 -17.5 56t-47.5 21q-17 0 -32.5 -7.5t-28.5 -21.5
t-20.5 -35.5t-7.5 -48.5q0 -35 17.5 -56t47.5 -21z" />
    <glyph glyph-name="guillemotright" unicode="&#xbb;" horiz-adv-x="695" 
d="M294 275l2 6l-163 229h149l168 -240l-262 -240h-164zM559 275l2 6l-163 229h149l168 -240l-262 -240h-164z" />
    <glyph glyph-name="onequarter" unicode="&#xbc;" horiz-adv-x="775" 
d="M651 700h103l-571 -700h-103zM228 560h-90l16 85h65q8 0 17.5 4.5t11.5 15.5l7 35h90l-78 -400h-90zM599 85h-180l15 80l206 235h110l-46 -235h60l-15 -80h-60l-17 -85h-90zM614 165l23 115h-5l-101 -115h83z" />
    <glyph glyph-name="onehalf" unicode="&#xbd;" horiz-adv-x="780" 
d="M651 700h103l-571 -700h-103zM228 560h-90l16 85h65q8 0 17.5 4.5t11.5 15.5l7 35h90l-78 -400h-90zM461 80l172 136q23 18 36.5 34.5t13.5 39.5q0 11 -10.5 20.5t-29.5 9.5q-23 0 -35 -8.5t-17 -31.5h-95q13 60 49 92.5t108 32.5q30 0 53.5 -8.5t39 -23.5t24 -34.5
t8.5 -41.5q0 -43 -18 -71t-53 -55l-113 -91h142l-16 -80h-275z" />
    <glyph glyph-name="threequarters" unicode="&#xbe;" horiz-adv-x="860" 
d="M736 700h103l-571 -700h-103zM259 295q-66 0 -105.5 30t-39.5 85h94q4 -15 16.5 -22.5t39.5 -7.5q23 0 36.5 13t13.5 33q0 18 -11 28.5t-34 10.5h-31l16 80h40q23 0 34 12.5t11 27.5q0 13 -11 24t-39 11q-46 0 -52 -40h-95q11 64 51.5 94.5t100.5 30.5q36 0 62.5 -8.5
t44 -23t25.5 -33.5t8 -40q0 -23 -7 -40t-17.5 -29t-23 -19.5t-24.5 -11.5q23 -14 35 -34t12 -41q0 -26 -10 -49.5t-29.5 -41.5t-47 -28.5t-63.5 -10.5zM684 85h-180l15 80l206 235h110l-46 -235h60l-15 -80h-60l-17 -85h-90zM699 165l23 115h-5l-101 -115h83z" />
    <glyph glyph-name="questiondown" unicode="&#xbf;" horiz-adv-x="520" 
d="M277 -210q-51 0 -92.5 12t-71 34t-45.5 53.5t-16 70.5q0 50 14.5 83t36 55.5t48 38t50 31.5t41.5 35.5t24 49.5l10 52h135l-14 -70q-9 -45 -27 -73t-40.5 -46.5t-46 -31t-42.5 -26.5t-31.5 -33t-12.5 -50q0 -26 22.5 -43t57.5 -17q34 0 62.5 21t37.5 59h145
q-7 -51 -28 -89t-53.5 -64t-74 -39t-89.5 -13zM357 380q-32 0 -52.5 21.5t-20.5 51.5q0 18 7.5 34t20 28t28 18.5t32.5 6.5q32 0 52.5 -21.5t20.5 -51.5q0 -18 -7.5 -34t-20 -28t-28.5 -18.5t-32 -6.5z" />
    <glyph glyph-name="Agrave" unicode="&#xc0;" horiz-adv-x="675" 
d="M391 700h185l114 -700h-148l-20 130h-285l-70 -130h-162zM499 265l-39 265h-5l-143 -265h187zM345 915h125l61 -150h-100z" />
    <glyph glyph-name="Aacute" unicode="&#xc1;" horiz-adv-x="675" 
d="M391 700h185l114 -700h-148l-20 130h-285l-70 -130h-162zM499 265l-39 265h-5l-143 -265h187zM559 915h135l-144 -150h-110z" />
    <glyph glyph-name="Acircumflex" unicode="&#xc2;" horiz-adv-x="675" 
d="M391 700h185l114 -700h-148l-20 130h-285l-70 -130h-162zM499 265l-39 265h-5l-143 -265h187zM465 920h95l105 -155h-109l-49 80h-5l-81 -80h-121z" />
    <glyph glyph-name="Atilde" unicode="&#xc3;" horiz-adv-x="675" 
d="M391 700h185l114 -700h-148l-20 130h-285l-70 -130h-162zM499 265l-39 265h-5l-143 -265h187zM555 775q-19 0 -35 6t-30 13.5t-26.5 14t-23.5 6.5t-17 -10t-8 -25h-95q8 57 37 91t78 34q19 0 34.5 -6.5t29 -14t26 -13.5t25.5 -6q11 0 17 10t8 25h95q-8 -57 -37 -91
t-78 -34z" />
    <glyph glyph-name="Adieresis" unicode="&#xc4;" horiz-adv-x="675" 
d="M391 700h185l114 -700h-148l-20 130h-285l-70 -130h-162zM499 265l-39 265h-5l-143 -265h187zM395 770q-30 0 -47.5 19.5t-17.5 45.5q0 34 22.5 54.5t52.5 20.5t47.5 -19.5t17.5 -45.5q0 -34 -22.5 -54.5t-52.5 -20.5zM595 770q-30 0 -47.5 19.5t-17.5 45.5
q0 34 22.5 54.5t52.5 20.5t47.5 -19.5t17.5 -45.5q0 -34 -22.5 -54.5t-52.5 -20.5z" />
    <glyph glyph-name="Aring" unicode="&#xc5;" horiz-adv-x="675" 
d="M391 700h185l114 -700h-148l-20 130h-285l-70 -130h-162zM499 265l-39 265h-5l-143 -265h187zM490 735q-45 0 -72.5 27.5t-27.5 72.5q0 27 9.5 49t26 38t38 24.5t46.5 8.5q45 0 72.5 -27.5t27.5 -72.5q0 -27 -9.5 -49t-26 -38t-38 -24.5t-46.5 -8.5zM495 805q19 0 32 13
t13 32q0 15 -10 25t-25 10q-19 0 -32 -13t-13 -32q0 -15 10 -25t25 -10z" />
    <glyph glyph-name="AE" unicode="&#xc6;" horiz-adv-x="960" 
d="M451 700h590l-27 -135h-320l-29 -149h300l-24 -126h-300l-30 -155h330l-26 -135h-480l27 140h-228l-97 -140h-172zM487 270l56 290h-18l-201 -290h163z" />
    <glyph glyph-name="Ccedilla" unicode="&#xc7;" horiz-adv-x="710" 
d="M288 -150h60q30 0 30 25q0 11 -5 18t-21 7h-44l11 55l26 41q-58 9 -103 32.5t-76 60.5t-47 85t-16 106q0 101 29 181t78 135.5t114.5 84.5t138.5 29q135 0 210 -62.5t90 -167.5h-152q-7 19 -19 36t-30.5 30t-44 21t-59.5 8q-39 0 -76 -17t-65.5 -51.5t-46 -87.5
t-17.5 -124q0 -87 45 -128.5t120 -41.5q47 0 85.5 23t66.5 72h158q-18 -46 -46.5 -87t-67 -72.5t-86.5 -50.5t-106 -20l-15 -24q29 -6 47.5 -27.5t18.5 -53.5q0 -26 -9.5 -47t-25.5 -36t-37 -23.5t-43 -8.5h-84z" />
    <glyph glyph-name="Egrave" unicode="&#xc8;" horiz-adv-x="600" 
d="M206 700h475l-27 -135h-325l-29 -150h305l-24 -125h-305l-30 -155h335l-26 -135h-485zM320 915h125l61 -150h-100z" />
    <glyph glyph-name="Eacute" unicode="&#xc9;" horiz-adv-x="600" 
d="M206 700h475l-27 -135h-325l-29 -150h305l-24 -125h-305l-30 -155h335l-26 -135h-485zM514 915h135l-144 -150h-110z" />
    <glyph glyph-name="Ecircumflex" unicode="&#xca;" horiz-adv-x="600" 
d="M206 700h475l-27 -135h-325l-29 -150h305l-24 -125h-305l-30 -155h335l-26 -135h-485zM430 920h95l105 -155h-109l-49 80h-5l-81 -80h-121z" />
    <glyph glyph-name="Edieresis" unicode="&#xcb;" horiz-adv-x="600" 
d="M206 700h475l-27 -135h-325l-29 -150h305l-24 -125h-305l-30 -155h335l-26 -135h-485zM355 770q-30 0 -47.5 19.5t-17.5 45.5q0 34 22.5 54.5t52.5 20.5t47.5 -19.5t17.5 -45.5q0 -34 -22.5 -54.5t-52.5 -20.5zM555 770q-30 0 -47.5 19.5t-17.5 45.5q0 34 22.5 54.5
t52.5 20.5t47.5 -19.5t17.5 -45.5q0 -34 -22.5 -54.5t-52.5 -20.5z" />
    <glyph glyph-name="Igrave" unicode="&#xcc;" horiz-adv-x="290" 
d="M206 700h150l-136 -700h-150zM150 915h125l61 -150h-100z" />
    <glyph glyph-name="Iacute" unicode="&#xcd;" horiz-adv-x="290" 
d="M206 700h150l-136 -700h-150zM359 915h135l-144 -150h-110z" />
    <glyph glyph-name="Icircumflex" unicode="&#xce;" horiz-adv-x="290" 
d="M206 700h150l-136 -700h-150zM270 920h95l105 -155h-109l-49 80h-5l-81 -80h-121z" />
    <glyph glyph-name="Idieresis" unicode="&#xcf;" horiz-adv-x="290" 
d="M206 700h150l-136 -700h-150zM200 770q-30 0 -47.5 19.5t-17.5 45.5q0 34 22.5 54.5t52.5 20.5t47.5 -19.5t17.5 -45.5q0 -34 -22.5 -54.5t-52.5 -20.5zM400 770q-30 0 -47.5 19.5t-17.5 45.5q0 34 22.5 54.5t52.5 20.5t47.5 -19.5t17.5 -45.5q0 -34 -22.5 -54.5
t-52.5 -20.5z" />
    <glyph glyph-name="Eth" unicode="&#xd0;" horiz-adv-x="715" 
d="M141 290h-75l24 125h75l56 285h244q64 0 116.5 -20t90 -57t58 -89.5t20.5 -117.5q0 -96 -28 -173t-75.5 -131t-111 -83t-134.5 -29h-316zM395 135q37 0 74 16.5t66 49.5t47 81.5t18 112.5q0 41 -11.5 73t-31.5 53.5t-47.5 32.5t-59.5 11h-106l-29 -150h155l-24 -125h-155
l-30 -155h134z" />
    <glyph glyph-name="Ntilde" unicode="&#xd1;" horiz-adv-x="755" 
d="M206 700h195l170 -495h5l95 495h150l-136 -700h-195l-170 495h-5l-95 -495h-150zM595 775q-19 0 -35 6t-30 13.5t-26.5 14t-23.5 6.5t-17 -10t-8 -25h-95q8 57 37 91t78 34q19 0 34.5 -6.5t29 -14t26 -13.5t25.5 -6q11 0 17 10t8 25h95q-8 -57 -37 -91t-78 -34z" />
    <glyph glyph-name="Ograve" unicode="&#xd2;" horiz-adv-x="740" 
d="M413 -10q-73 0 -130.5 20.5t-97.5 58.5t-61 91.5t-21 119.5q0 101 29 181t78 135.5t114.5 84.5t138.5 29t130.5 -20.5t97.5 -58.5t61 -91.5t21 -119.5q0 -101 -29 -181t-78 -135.5t-114.5 -84.5t-138.5 -29zM418 125q39 0 76 17t65.5 51.5t46 87.5t17.5 124
q0 87 -45 128.5t-120 41.5q-39 0 -76 -17t-65.5 -51.5t-46 -87.5t-17.5 -124q0 -87 45 -128.5t120 -41.5zM355 915h125l61 -150h-100z" />
    <glyph glyph-name="Oacute" unicode="&#xd3;" horiz-adv-x="740" 
d="M413 -10q-73 0 -130.5 20.5t-97.5 58.5t-61 91.5t-21 119.5q0 101 29 181t78 135.5t114.5 84.5t138.5 29t130.5 -20.5t97.5 -58.5t61 -91.5t21 -119.5q0 -101 -29 -181t-78 -135.5t-114.5 -84.5t-138.5 -29zM418 125q39 0 76 17t65.5 51.5t46 87.5t17.5 124
q0 87 -45 128.5t-120 41.5q-39 0 -76 -17t-65.5 -51.5t-46 -87.5t-17.5 -124q0 -87 45 -128.5t120 -41.5zM559 915h135l-144 -150h-110z" />
    <glyph glyph-name="Ocircumflex" unicode="&#xd4;" horiz-adv-x="740" 
d="M413 -10q-73 0 -130.5 20.5t-97.5 58.5t-61 91.5t-21 119.5q0 101 29 181t78 135.5t114.5 84.5t138.5 29t130.5 -20.5t97.5 -58.5t61 -91.5t21 -119.5q0 -101 -29 -181t-78 -135.5t-114.5 -84.5t-138.5 -29zM418 125q39 0 76 17t65.5 51.5t46 87.5t17.5 124
q0 87 -45 128.5t-120 41.5q-39 0 -76 -17t-65.5 -51.5t-46 -87.5t-17.5 -124q0 -87 45 -128.5t120 -41.5zM475 920h95l105 -155h-109l-49 80h-5l-81 -80h-121z" />
    <glyph glyph-name="Otilde" unicode="&#xd5;" horiz-adv-x="740" 
d="M413 -10q-73 0 -130.5 20.5t-97.5 58.5t-61 91.5t-21 119.5q0 101 29 181t78 135.5t114.5 84.5t138.5 29t130.5 -20.5t97.5 -58.5t61 -91.5t21 -119.5q0 -101 -29 -181t-78 -135.5t-114.5 -84.5t-138.5 -29zM418 125q39 0 76 17t65.5 51.5t46 87.5t17.5 124
q0 87 -45 128.5t-120 41.5q-39 0 -76 -17t-65.5 -51.5t-46 -87.5t-17.5 -124q0 -87 45 -128.5t120 -41.5zM565 775q-19 0 -35 6t-30 13.5t-26.5 14t-23.5 6.5t-17 -10t-8 -25h-95q8 57 37 91t78 34q19 0 34.5 -6.5t29 -14t26 -13.5t25.5 -6q11 0 17 10t8 25h95
q-8 -57 -37 -91t-78 -34z" />
    <glyph glyph-name="Odieresis" unicode="&#xd6;" horiz-adv-x="740" 
d="M413 -10q-73 0 -130.5 20.5t-97.5 58.5t-61 91.5t-21 119.5q0 101 29 181t78 135.5t114.5 84.5t138.5 29t130.5 -20.5t97.5 -58.5t61 -91.5t21 -119.5q0 -101 -29 -181t-78 -135.5t-114.5 -84.5t-138.5 -29zM418 125q39 0 76 17t65.5 51.5t46 87.5t17.5 124
q0 87 -45 128.5t-120 41.5q-39 0 -76 -17t-65.5 -51.5t-46 -87.5t-17.5 -124q0 -87 45 -128.5t120 -41.5zM400 770q-30 0 -47.5 19.5t-17.5 45.5q0 34 22.5 54.5t52.5 20.5t47.5 -19.5t17.5 -45.5q0 -34 -22.5 -54.5t-52.5 -20.5zM600 770q-30 0 -47.5 19.5t-17.5 45.5
q0 34 22.5 54.5t52.5 20.5t47.5 -19.5t17.5 -45.5q0 -34 -22.5 -54.5t-52.5 -20.5z" />
    <glyph glyph-name="multiply" unicode="&#xd7;" horiz-adv-x="560" 
d="M110 165l160 160l-160 160l75 75l160 -160l160 160l75 -75l-160 -160l160 -160l-75 -75l-160 160l-160 -160z" />
    <glyph glyph-name="Oslash" unicode="&#xd8;" horiz-adv-x="740" 
d="M168 87q-65 74 -65 193q0 101 29 181t78 135.5t114.5 84.5t138.5 29q46 0 85.5 -8.5t72.5 -23.5l36 47h137l-86 -112q32 -37 48.5 -85.5t16.5 -107.5q0 -101 -29 -181t-78 -135.5t-114.5 -84.5t-138.5 -29q-91 0 -158 32l-36 -47h-137zM532 562q-16 7 -35 10t-39 3
q-39 0 -76 -17t-65.5 -51.5t-46 -87.5t-17.5 -124q0 -23 3.5 -43t9.5 -37zM418 125q39 0 76 17t65.5 51.5t46 87.5t17.5 124q0 45 -14 79l-266 -347q33 -12 75 -12z" />
    <glyph glyph-name="Ugrave" unicode="&#xd9;" horiz-adv-x="720" 
d="M390 -10q-62 0 -112.5 17.5t-86.5 50.5t-56 81.5t-20 110.5q0 33 8 76l73 374h150l-76 -387q-2 -14 -3.5 -25.5t-1.5 -22.5q0 -68 37 -104t98 -36q57 0 98.5 43t57.5 122l80 410h150l-83 -425q-13 -68 -41 -120.5t-68.5 -89.5t-92 -56t-111.5 -19zM355 915h125l61 -150
h-100z" />
    <glyph glyph-name="Uacute" unicode="&#xda;" horiz-adv-x="720" 
d="M390 -10q-62 0 -112.5 17.5t-86.5 50.5t-56 81.5t-20 110.5q0 33 8 76l73 374h150l-76 -387q-2 -14 -3.5 -25.5t-1.5 -22.5q0 -68 37 -104t98 -36q57 0 98.5 43t57.5 122l80 410h150l-83 -425q-13 -68 -41 -120.5t-68.5 -89.5t-92 -56t-111.5 -19zM559 915h135l-144 -150
h-110z" />
    <glyph glyph-name="Ucircumflex" unicode="&#xdb;" horiz-adv-x="720" 
d="M390 -10q-62 0 -112.5 17.5t-86.5 50.5t-56 81.5t-20 110.5q0 33 8 76l73 374h150l-76 -387q-2 -14 -3.5 -25.5t-1.5 -22.5q0 -68 37 -104t98 -36q57 0 98.5 43t57.5 122l80 410h150l-83 -425q-13 -68 -41 -120.5t-68.5 -89.5t-92 -56t-111.5 -19zM475 920h95l105 -155
h-109l-49 80h-5l-81 -80h-121z" />
    <glyph glyph-name="Udieresis" unicode="&#xdc;" horiz-adv-x="720" 
d="M390 -10q-62 0 -112.5 17.5t-86.5 50.5t-56 81.5t-20 110.5q0 33 8 76l73 374h150l-76 -387q-2 -14 -3.5 -25.5t-1.5 -22.5q0 -68 37 -104t98 -36q57 0 98.5 43t57.5 122l80 410h150l-83 -425q-13 -68 -41 -120.5t-68.5 -89.5t-92 -56t-111.5 -19zM400 770
q-30 0 -47.5 19.5t-17.5 45.5q0 34 22.5 54.5t52.5 20.5t47.5 -19.5t17.5 -45.5q0 -34 -22.5 -54.5t-52.5 -20.5zM600 770q-30 0 -47.5 19.5t-17.5 45.5q0 34 22.5 54.5t52.5 20.5t47.5 -19.5t17.5 -45.5q0 -34 -22.5 -54.5t-52.5 -20.5z" />
    <glyph glyph-name="Yacute" unicode="&#xdd;" horiz-adv-x="610" 
d="M266 240l-155 460h150l97 -305h5l218 305h170l-335 -460l-46 -240h-150zM489 915h135l-144 -150h-110z" />
    <glyph glyph-name="Thorn" unicode="&#xde;" horiz-adv-x="720" 
d="M206 700h150l-28 -140h217q48 0 86.5 -13.5t64.5 -38t40 -58.5t14 -75q0 -51 -17 -94t-49 -74.5t-77.5 -49t-101.5 -17.5h-258l-27 -140h-150zM505 275q46 0 70.5 21.5t24.5 63.5q0 30 -24 47.5t-66 17.5h-208l-29 -150h232z" />
    <glyph glyph-name="germandbls" unicode="&#xdf;" horiz-adv-x="585" 
d="M161 521q17 86 76.5 137.5t157.5 51.5q58 0 102 -15t73.5 -39.5t44.5 -56t15 -64.5q0 -36 -10.5 -65.5t-28.5 -52.5t-41.5 -39t-49.5 -23q45 -17 72.5 -54t27.5 -87t-17 -90t-48 -67.5t-74.5 -42t-95.5 -14.5h-100l24 125h74q46 0 71.5 23t25.5 72q0 38 -23.5 56.5
t-66.5 18.5h-48l23 120h45q20 0 38 5.5t32 17t22 29.5t8 43q0 34 -25 54.5t-70 20.5q-41 0 -66.5 -21.5t-30.5 -59.5l-98 -504h-140z" />
    <glyph glyph-name="agrave" unicode="&#xe0;" horiz-adv-x="560" 
d="M235 -10q-79 0 -124 41t-45 109q0 39 14.5 72t41 57t64.5 37.5t85 13.5h156l3 18q2 10 2 17q0 29 -22 47t-64 18q-59 0 -83 -45h-140q12 36 33 66t50.5 52t67 34.5t82.5 12.5q49 0 88.5 -11.5t68 -34t44 -54.5t15.5 -72q0 -8 -1 -21.5t-4 -28.5l-62 -318h-120l-5 55h-5
q-20 -26 -55.5 -45.5t-84.5 -19.5zM285 105q42 0 74.5 22t43.5 73l4 20h-127q-21 0 -35 -5t-22.5 -13.5t-12.5 -19.5t-4 -22q0 -23 20.5 -39t58.5 -16zM260 760h125l61 -150h-100z" />
    <glyph glyph-name="aacute" unicode="&#xe1;" horiz-adv-x="560" 
d="M235 -10q-79 0 -124 41t-45 109q0 39 14.5 72t41 57t64.5 37.5t85 13.5h156l3 18q2 10 2 17q0 29 -22 47t-64 18q-59 0 -83 -45h-140q12 36 33 66t50.5 52t67 34.5t82.5 12.5q49 0 88.5 -11.5t68 -34t44 -54.5t15.5 -72q0 -8 -1 -21.5t-4 -28.5l-62 -318h-120l-5 55h-5
q-20 -26 -55.5 -45.5t-84.5 -19.5zM285 105q42 0 74.5 22t43.5 73l4 20h-127q-21 0 -35 -5t-22.5 -13.5t-12.5 -19.5t-4 -22q0 -23 20.5 -39t58.5 -16zM464 760h135l-144 -150h-110z" />
    <glyph glyph-name="acircumflex" unicode="&#xe2;" horiz-adv-x="560" 
d="M235 -10q-79 0 -124 41t-45 109q0 39 14.5 72t41 57t64.5 37.5t85 13.5h156l3 18q2 10 2 17q0 29 -22 47t-64 18q-59 0 -83 -45h-140q12 36 33 66t50.5 52t67 34.5t82.5 12.5q49 0 88.5 -11.5t68 -34t44 -54.5t15.5 -72q0 -8 -1 -21.5t-4 -28.5l-62 -318h-120l-5 55h-5
q-20 -26 -55.5 -45.5t-84.5 -19.5zM285 105q42 0 74.5 22t43.5 73l4 20h-127q-21 0 -35 -5t-22.5 -13.5t-12.5 -19.5t-4 -22q0 -23 20.5 -39t58.5 -16zM380 765h95l105 -155h-109l-49 80h-5l-81 -80h-121z" />
    <glyph glyph-name="atilde" unicode="&#xe3;" horiz-adv-x="560" 
d="M235 -10q-79 0 -124 41t-45 109q0 39 14.5 72t41 57t64.5 37.5t85 13.5h156l3 18q2 10 2 17q0 29 -22 47t-64 18q-59 0 -83 -45h-140q12 36 33 66t50.5 52t67 34.5t82.5 12.5q49 0 88.5 -11.5t68 -34t44 -54.5t15.5 -72q0 -8 -1 -21.5t-4 -28.5l-62 -318h-120l-5 55h-5
q-20 -26 -55.5 -45.5t-84.5 -19.5zM285 105q42 0 74.5 22t43.5 73l4 20h-127q-21 0 -35 -5t-22.5 -13.5t-12.5 -19.5t-4 -22q0 -23 20.5 -39t58.5 -16zM470 620q-19 0 -35 6t-30 13.5t-26.5 14t-23.5 6.5t-17 -10t-8 -25h-95q8 57 37 91t78 34q19 0 34.5 -6.5t29 -14
t26 -13.5t25.5 -6q11 0 17 10t8 25h95q-8 -57 -37 -91t-78 -34z" />
    <glyph glyph-name="adieresis" unicode="&#xe4;" horiz-adv-x="560" 
d="M235 -10q-79 0 -124 41t-45 109q0 39 14.5 72t41 57t64.5 37.5t85 13.5h156l3 18q2 10 2 17q0 29 -22 47t-64 18q-59 0 -83 -45h-140q12 36 33 66t50.5 52t67 34.5t82.5 12.5q49 0 88.5 -11.5t68 -34t44 -54.5t15.5 -72q0 -8 -1 -21.5t-4 -28.5l-62 -318h-120l-5 55h-5
q-20 -26 -55.5 -45.5t-84.5 -19.5zM285 105q42 0 74.5 22t43.5 73l4 20h-127q-21 0 -35 -5t-22.5 -13.5t-12.5 -19.5t-4 -22q0 -23 20.5 -39t58.5 -16zM300 615q-30 0 -47.5 19.5t-17.5 45.5q0 34 22.5 54.5t52.5 20.5t47.5 -19.5t17.5 -45.5q0 -34 -22.5 -54.5t-52.5 -20.5
zM500 615q-30 0 -47.5 19.5t-17.5 45.5q0 34 22.5 54.5t52.5 20.5t47.5 -19.5t17.5 -45.5q0 -34 -22.5 -54.5t-52.5 -20.5z" />
    <glyph glyph-name="aring" unicode="&#xe5;" horiz-adv-x="560" 
d="M235 -10q-79 0 -124 41t-45 109q0 39 14.5 72t41 57t64.5 37.5t85 13.5h156l3 18q2 10 2 17q0 29 -22 47t-64 18q-59 0 -83 -45h-140q12 36 33 66t50.5 52t67 34.5t82.5 12.5q49 0 88.5 -11.5t68 -34t44 -54.5t15.5 -72q0 -8 -1 -21.5t-4 -28.5l-62 -318h-120l-5 55h-5
q-20 -26 -55.5 -45.5t-84.5 -19.5zM285 105q42 0 74.5 22t43.5 73l4 20h-127q-21 0 -35 -5t-22.5 -13.5t-12.5 -19.5t-4 -22q0 -23 20.5 -39t58.5 -16zM395 590q-45 0 -72.5 27.5t-27.5 72.5q0 27 9.5 49t26 38t38 24.5t46.5 8.5q45 0 72.5 -27.5t27.5 -72.5q0 -27 -9.5 -49
t-26 -38t-38 -24.5t-46.5 -8.5zM400 660q19 0 32 13t13 32q0 15 -10 25t-25 10q-19 0 -32 -13t-13 -32q0 -15 10 -25t25 -10z" />
    <glyph glyph-name="ae" unicode="&#xe6;" horiz-adv-x="913" 
d="M255 -10q-47 0 -82.5 11.5t-59 31.5t-35.5 47.5t-12 59.5q0 34 12.5 65.5t37.5 56t62 39t87 14.5h162l3 20q2 10 2 19q0 25 -19.5 45.5t-66.5 20.5q-59 0 -83 -45h-140q11 36 32 66t50.5 52t67.5 34.5t84 12.5q59 0 97.5 -21.5t64.5 -63.5q13 17 32.5 32.5t43 27
t50.5 18.5t55 7q58 0 101.5 -17.5t73 -48t44 -71.5t14.5 -88q0 -19 -2.5 -37t-4.5 -32q-3 -17 -6 -31h-370q4 -49 32 -74.5t73 -25.5q23 0 52 12t47 38h157q-17 -43 -45 -76t-62 -55t-71 -33t-73 -11q-43 0 -76 10t-57 26t-40 35.5t-25 38.5q-29 -45 -80.5 -77.5
t-126.5 -32.5zM285 105q42 0 75 22.5t44 73.5l3 14h-132q-34 0 -51.5 -16t-17.5 -39t20.5 -39t58.5 -16zM797 315q-3 44 -28.5 72t-74.5 28q-39 0 -77 -25.5t-53 -74.5h233z" />
    <glyph glyph-name="ccedilla" unicode="&#xe7;" horiz-adv-x="575" 
d="M207 -150h60q30 0 30 25q0 11 -5 18t-21 7h-44l11 55l26 41q-88 15 -135 71.5t-47 147.5q0 80 24 140.5t63 101.5t89.5 62t103.5 21q56 0 98 -13.5t71 -38.5t46 -60t25 -78h-143q-6 19 -17 31.5t-24.5 20t-28 10.5t-27.5 3q-23 0 -48 -10.5t-45.5 -33t-33.5 -57.5
t-13 -84q0 -30 8.5 -51.5t23 -36t33.5 -21t40 -6.5q19 0 36.5 6t32 15.5t25 21t16.5 22.5h145q-26 -80 -87.5 -132.5t-153.5 -57.5l-15 -24q29 -6 47.5 -27.5t18.5 -53.5q0 -26 -9.5 -47t-25.5 -36t-37 -23.5t-43 -8.5h-84z" />
    <glyph glyph-name="egrave" unicode="&#xe8;" horiz-adv-x="585" 
d="M327 -10q-117 0 -181 59.5t-64 165.5q0 79 23 139.5t62 101.5t90.5 62.5t107.5 21.5q54 0 98.5 -15t76 -43.5t48.5 -70.5t17 -96q0 -19 -2.5 -36t-4.5 -30q-3 -16 -6 -29h-370q3 -55 34 -80t71 -25q21 0 51 12t49 38h156q-18 -43 -46 -76t-61.5 -55t-71.5 -33t-77 -11z
M468 325q-6 45 -34 67.5t-72 22.5q-32 0 -67.5 -21.5t-55.5 -68.5h229zM255 760h125l61 -150h-100z" />
    <glyph glyph-name="eacute" unicode="&#xe9;" horiz-adv-x="585" 
d="M327 -10q-117 0 -181 59.5t-64 165.5q0 79 23 139.5t62 101.5t90.5 62.5t107.5 21.5q54 0 98.5 -15t76 -43.5t48.5 -70.5t17 -96q0 -19 -2.5 -36t-4.5 -30q-3 -16 -6 -29h-370q3 -55 34 -80t71 -25q21 0 51 12t49 38h156q-18 -43 -46 -76t-61.5 -55t-71.5 -33t-77 -11z
M468 325q-6 45 -34 67.5t-72 22.5q-32 0 -67.5 -21.5t-55.5 -68.5h229zM459 760h135l-144 -150h-110z" />
    <glyph glyph-name="ecircumflex" unicode="&#xea;" horiz-adv-x="585" 
d="M327 -10q-117 0 -181 59.5t-64 165.5q0 79 23 139.5t62 101.5t90.5 62.5t107.5 21.5q54 0 98.5 -15t76 -43.5t48.5 -70.5t17 -96q0 -19 -2.5 -36t-4.5 -30q-3 -16 -6 -29h-370q3 -55 34 -80t71 -25q21 0 51 12t49 38h156q-18 -43 -46 -76t-61.5 -55t-71.5 -33t-77 -11z
M468 325q-6 45 -34 67.5t-72 22.5q-32 0 -67.5 -21.5t-55.5 -68.5h229zM380 765h95l105 -155h-109l-49 80h-5l-81 -80h-121z" />
    <glyph glyph-name="edieresis" unicode="&#xeb;" horiz-adv-x="585" 
d="M327 -10q-117 0 -181 59.5t-64 165.5q0 79 23 139.5t62 101.5t90.5 62.5t107.5 21.5q54 0 98.5 -15t76 -43.5t48.5 -70.5t17 -96q0 -19 -2.5 -36t-4.5 -30q-3 -16 -6 -29h-370q3 -55 34 -80t71 -25q21 0 51 12t49 38h156q-18 -43 -46 -76t-61.5 -55t-71.5 -33t-77 -11z
M468 325q-6 45 -34 67.5t-72 22.5q-32 0 -67.5 -21.5t-55.5 -68.5h229zM305 615q-30 0 -47.5 19.5t-17.5 45.5q0 34 22.5 54.5t52.5 20.5t47.5 -19.5t17.5 -45.5q0 -34 -22.5 -54.5t-52.5 -20.5zM505 615q-30 0 -47.5 19.5t-17.5 45.5q0 34 22.5 54.5t52.5 20.5t47.5 -19.5
t17.5 -45.5q0 -34 -22.5 -54.5t-52.5 -20.5z" />
    <glyph glyph-name="igrave" unicode="&#xec;" horiz-adv-x="260" 
d="M163 530h140l-103 -530h-140zM100 760h125l61 -150h-100z" />
    <glyph glyph-name="iacute" unicode="&#xed;" horiz-adv-x="260" 
d="M163 530h140l-103 -530h-140zM309 760h135l-144 -150h-110z" />
    <glyph glyph-name="icircumflex" unicode="&#xee;" horiz-adv-x="260" 
d="M163 530h140l-103 -530h-140zM225 765h95l105 -155h-109l-49 80h-5l-81 -80h-121z" />
    <glyph glyph-name="idieresis" unicode="&#xef;" horiz-adv-x="260" 
d="M163 530h140l-103 -530h-140zM155 615q-30 0 -47.5 19.5t-17.5 45.5q0 34 22.5 54.5t52.5 20.5t47.5 -19.5t17.5 -45.5q0 -34 -22.5 -54.5t-52.5 -20.5zM355 615q-30 0 -47.5 19.5t-17.5 45.5q0 34 22.5 54.5t52.5 20.5t47.5 -19.5t17.5 -45.5q0 -34 -22.5 -54.5
t-52.5 -20.5z" />
    <glyph glyph-name="eth" unicode="&#xf0;" horiz-adv-x="590" 
d="M317 -10q-54 0 -97.5 16t-74 45t-47 69.5t-16.5 89.5q0 66 21 118t55.5 88t79.5 55t94 19q55 0 89 -15.5t49 -32.5h5q-8 29 -22 57.5t-40 66.5l-137 -56l-26 75l114 47q-32 32 -62 56t-45 32h165q8 -7 17 -13q8 -6 16.5 -12.5t16.5 -14.5l98 35l21 -75l-68 -30
q41 -64 62.5 -133t21.5 -142q0 -88 -24 -153t-64.5 -107.5t-93 -63.5t-108.5 -21zM324 115q26 0 50 10t42.5 29.5t29.5 47t11 63.5q0 45 -28.5 72.5t-73.5 27.5q-26 0 -50 -10t-42.5 -29.5t-29.5 -47t-11 -63.5q0 -45 28.5 -72.5t73.5 -27.5z" />
    <glyph glyph-name="ntilde" unicode="&#xf1;" horiz-adv-x="590" 
d="M163 530h120l5 -55h5q23 26 59 45.5t81 19.5q32 0 62 -11t53.5 -33t37.5 -55t14 -76q0 -19 -1.5 -31.5t-3.5 -23.5l-60 -310h-140l57 295q2 8 2.5 17t0.5 13q0 90 -85 90q-42 0 -71 -27.5t-38 -72.5l-61 -315h-140zM475 620q-19 0 -35 6t-30 13.5t-26.5 14t-23.5 6.5
t-17 -10t-8 -25h-95q8 57 37 91t78 34q19 0 34.5 -6.5t29 -14t26 -13.5t25.5 -6q11 0 17 10t8 25h95q-8 -57 -37 -91t-78 -34z" />
    <glyph glyph-name="ograve" unicode="&#xf2;" horiz-adv-x="590" 
d="M327 -10q-117 0 -181 59.5t-64 165.5q0 79 23 139.5t62 101.5t90.5 62.5t107.5 21.5q117 0 181 -59.5t64 -165.5q0 -79 -23 -139.5t-62 -102t-90.5 -62.5t-107.5 -21zM327 115q24 0 49.5 10.5t46.5 33t34 57.5t13 84q0 30 -8.5 51.5t-23 36t-33.5 21t-40 6.5
q-24 0 -49.5 -10.5t-46.5 -33t-34 -57.5t-13 -84q0 -30 8.5 -51.5t23 -36t33.5 -21t40 -6.5zM255 760h125l61 -150h-100z" />
    <glyph glyph-name="oacute" unicode="&#xf3;" horiz-adv-x="590" 
d="M327 -10q-117 0 -181 59.5t-64 165.5q0 79 23 139.5t62 101.5t90.5 62.5t107.5 21.5q117 0 181 -59.5t64 -165.5q0 -79 -23 -139.5t-62 -102t-90.5 -62.5t-107.5 -21zM327 115q24 0 49.5 10.5t46.5 33t34 57.5t13 84q0 30 -8.5 51.5t-23 36t-33.5 21t-40 6.5
q-24 0 -49.5 -10.5t-46.5 -33t-34 -57.5t-13 -84q0 -30 8.5 -51.5t23 -36t33.5 -21t40 -6.5zM459 760h135l-144 -150h-110z" />
    <glyph glyph-name="ocircumflex" unicode="&#xf4;" horiz-adv-x="590" 
d="M327 -10q-117 0 -181 59.5t-64 165.5q0 79 23 139.5t62 101.5t90.5 62.5t107.5 21.5q117 0 181 -59.5t64 -165.5q0 -79 -23 -139.5t-62 -102t-90.5 -62.5t-107.5 -21zM327 115q24 0 49.5 10.5t46.5 33t34 57.5t13 84q0 30 -8.5 51.5t-23 36t-33.5 21t-40 6.5
q-24 0 -49.5 -10.5t-46.5 -33t-34 -57.5t-13 -84q0 -30 8.5 -51.5t23 -36t33.5 -21t40 -6.5zM380 765h95l105 -155h-109l-49 80h-5l-81 -80h-121z" />
    <glyph glyph-name="otilde" unicode="&#xf5;" horiz-adv-x="590" 
d="M327 -10q-117 0 -181 59.5t-64 165.5q0 79 23 139.5t62 101.5t90.5 62.5t107.5 21.5q117 0 181 -59.5t64 -165.5q0 -79 -23 -139.5t-62 -102t-90.5 -62.5t-107.5 -21zM327 115q24 0 49.5 10.5t46.5 33t34 57.5t13 84q0 30 -8.5 51.5t-23 36t-33.5 21t-40 6.5
q-24 0 -49.5 -10.5t-46.5 -33t-34 -57.5t-13 -84q0 -30 8.5 -51.5t23 -36t33.5 -21t40 -6.5zM470 620q-19 0 -35 6t-30 13.5t-26.5 14t-23.5 6.5t-17 -10t-8 -25h-95q8 57 37 91t78 34q19 0 34.5 -6.5t29 -14t26 -13.5t25.5 -6q11 0 17 10t8 25h95q-8 -57 -37 -91t-78 -34z
" />
    <glyph glyph-name="odieresis" unicode="&#xf6;" horiz-adv-x="590" 
d="M327 -10q-117 0 -181 59.5t-64 165.5q0 79 23 139.5t62 101.5t90.5 62.5t107.5 21.5q117 0 181 -59.5t64 -165.5q0 -79 -23 -139.5t-62 -102t-90.5 -62.5t-107.5 -21zM327 115q24 0 49.5 10.5t46.5 33t34 57.5t13 84q0 30 -8.5 51.5t-23 36t-33.5 21t-40 6.5
q-24 0 -49.5 -10.5t-46.5 -33t-34 -57.5t-13 -84q0 -30 8.5 -51.5t23 -36t33.5 -21t40 -6.5zM305 615q-30 0 -47.5 19.5t-17.5 45.5q0 34 22.5 54.5t52.5 20.5t47.5 -19.5t17.5 -45.5q0 -34 -22.5 -54.5t-52.5 -20.5zM505 615q-30 0 -47.5 19.5t-17.5 45.5q0 34 22.5 54.5
t52.5 20.5t47.5 -19.5t17.5 -45.5q0 -34 -22.5 -54.5t-52.5 -20.5z" />
    <glyph glyph-name="divide" unicode="&#xf7;" horiz-adv-x="530" 
d="M325 40q-30 0 -50 20.5t-20 54.5t20 54.5t50 20.5t50 -20.5t20 -54.5t-20 -54.5t-50 -20.5zM95 365h460v-110h-460v110zM325 430q-30 0 -50 20.5t-20 54.5t20 54.5t50 20.5t50 -20.5t20 -54.5t-20 -54.5t-50 -20.5z" />
    <glyph glyph-name="oslash" unicode="&#xf8;" horiz-adv-x="590" 
d="M125 74q-43 57 -43 141q0 79 23 139.5t62 101.5t90.5 62.5t107.5 21.5q73 0 126 -24l28 34h125l-77 -94q43 -55 43 -141q0 -79 -23 -139.5t-62 -102t-90.5 -62.5t-107.5 -21q-74 0 -126 24l-28 -34h-125zM402 409q-18 6 -37 6q-24 0 -49.5 -10.5t-46.5 -33t-34 -57.5
t-13 -84q0 -20 3 -35zM327 115q24 0 49.5 10.5t46.5 33t34 57.5t13 84q0 20 -4 35l-177 -214q18 -6 38 -6z" />
    <glyph glyph-name="ugrave" unicode="&#xf9;" horiz-adv-x="595" 
d="M265 -10q-32 0 -62 11t-53.5 33t-37.5 55t-14 76q0 19 1.5 31.5t3.5 23.5l60 310h140l-57 -295q-2 -8 -2.5 -17t-0.5 -13q0 -90 85 -90q42 0 71 27.5t38 72.5l61 315h140l-103 -530h-120l-5 55h-5q-23 -26 -59 -45.5t-81 -19.5zM265 760h125l61 -150h-100z" />
    <glyph glyph-name="uacute" unicode="&#xfa;" horiz-adv-x="595" 
d="M265 -10q-32 0 -62 11t-53.5 33t-37.5 55t-14 76q0 19 1.5 31.5t3.5 23.5l60 310h140l-57 -295q-2 -8 -2.5 -17t-0.5 -13q0 -90 85 -90q42 0 71 27.5t38 72.5l61 315h140l-103 -530h-120l-5 55h-5q-23 -26 -59 -45.5t-81 -19.5zM474 760h135l-144 -150h-110z" />
    <glyph glyph-name="ucircumflex" unicode="&#xfb;" horiz-adv-x="595" 
d="M265 -10q-32 0 -62 11t-53.5 33t-37.5 55t-14 76q0 19 1.5 31.5t3.5 23.5l60 310h140l-57 -295q-2 -8 -2.5 -17t-0.5 -13q0 -90 85 -90q42 0 71 27.5t38 72.5l61 315h140l-103 -530h-120l-5 55h-5q-23 -26 -59 -45.5t-81 -19.5zM385 765h95l105 -155h-109l-49 80h-5
l-81 -80h-121z" />
    <glyph glyph-name="udieresis" unicode="&#xfc;" horiz-adv-x="595" 
d="M265 -10q-32 0 -62 11t-53.5 33t-37.5 55t-14 76q0 19 1.5 31.5t3.5 23.5l60 310h140l-57 -295q-2 -8 -2.5 -17t-0.5 -13q0 -90 85 -90q42 0 71 27.5t38 72.5l61 315h140l-103 -530h-120l-5 55h-5q-23 -26 -59 -45.5t-81 -19.5zM310 615q-30 0 -47.5 19.5t-17.5 45.5
q0 34 22.5 54.5t52.5 20.5t47.5 -19.5t17.5 -45.5q0 -34 -22.5 -54.5t-52.5 -20.5zM510 615q-30 0 -47.5 19.5t-17.5 45.5q0 34 22.5 54.5t52.5 20.5t47.5 -19.5t17.5 -45.5q0 -34 -22.5 -54.5t-52.5 -20.5z" />
    <glyph glyph-name="yacute" unicode="&#xfd;" horiz-adv-x="560" 
d="M199 9l-111 521h148l62 -345h4l194 345h162l-432 -730h-152zM434 760h135l-144 -150h-110z" />
    <glyph glyph-name="thorn" unicode="&#xfe;" horiz-adv-x="620" 
d="M200 700h140l-43 -220h5q25 28 59 44t79 16q94 0 147 -56.5t53 -158.5q0 -75 -19.5 -136.5t-54 -106t-82.5 -68.5t-104 -24q-34 0 -58.5 6t-43 16t-32 24t-24.5 29h-5l-51 -265h-140zM360 115q24 0 49 10.5t45.5 33t33 57.5t12.5 84q0 30 -8.5 51.5t-23 36t-33.5 21
t-40 6.5q-24 0 -49 -10.5t-45.5 -33t-33 -57.5t-12.5 -84q0 -30 8.5 -51.5t23 -36t33.5 -21t40 -6.5z" />
    <glyph glyph-name="ydieresis" unicode="&#xff;" horiz-adv-x="560" 
d="M199 9l-111 521h148l62 -345h4l194 345h162l-432 -730h-152zM275 615q-30 0 -47.5 19.5t-17.5 45.5q0 34 22.5 54.5t52.5 20.5t47.5 -19.5t17.5 -45.5q0 -34 -22.5 -54.5t-52.5 -20.5zM475 615q-30 0 -47.5 19.5t-17.5 45.5q0 34 22.5 54.5t52.5 20.5t47.5 -19.5
t17.5 -45.5q0 -34 -22.5 -54.5t-52.5 -20.5z" />
    <glyph glyph-name="Amacron" unicode="&#x100;" horiz-adv-x="675" 
d="M391 700h185l114 -700h-148l-20 130h-285l-70 -130h-162zM499 265l-39 265h-5l-143 -265h187zM363 885h300l-18 -95h-300z" />
    <glyph glyph-name="amacron" unicode="&#x101;" horiz-adv-x="560" 
d="M235 -10q-79 0 -124 41t-45 109q0 39 14.5 72t41 57t64.5 37.5t85 13.5h156l3 18q2 10 2 17q0 29 -22 47t-64 18q-59 0 -83 -45h-140q12 36 33 66t50.5 52t67 34.5t82.5 12.5q49 0 88.5 -11.5t68 -34t44 -54.5t15.5 -72q0 -8 -1 -21.5t-4 -28.5l-62 -318h-120l-5 55h-5
q-20 -26 -55.5 -45.5t-84.5 -19.5zM285 105q42 0 74.5 22t43.5 73l4 20h-127q-21 0 -35 -5t-22.5 -13.5t-12.5 -19.5t-4 -22q0 -23 20.5 -39t58.5 -16zM273 725h300l-18 -95h-300z" />
    <glyph glyph-name="Abreve" unicode="&#x102;" horiz-adv-x="675" 
d="M391 700h185l114 -700h-148l-20 130h-285l-70 -130h-162zM499 265l-39 265h-5l-143 -265h187zM503 765q-32 0 -61.5 8t-52 26t-36 46.5t-13.5 69.5h100q0 -30 18.5 -45t44.5 -15q34 0 51 15.5t26 44.5h100q-18 -72 -63.5 -111t-113.5 -39z" />
    <glyph glyph-name="abreve" unicode="&#x103;" horiz-adv-x="560" 
d="M235 -10q-79 0 -124 41t-45 109q0 39 14.5 72t41 57t64.5 37.5t85 13.5h156l3 18q2 10 2 17q0 29 -22 47t-64 18q-59 0 -83 -45h-140q12 36 33 66t50.5 52t67 34.5t82.5 12.5q49 0 88.5 -11.5t68 -34t44 -54.5t15.5 -72q0 -8 -1 -21.5t-4 -28.5l-62 -318h-120l-5 55h-5
q-20 -26 -55.5 -45.5t-84.5 -19.5zM285 105q42 0 74.5 22t43.5 73l4 20h-127q-21 0 -35 -5t-22.5 -13.5t-12.5 -19.5t-4 -22q0 -23 20.5 -39t58.5 -16zM408 610q-32 0 -61.5 8t-52 26t-36 46.5t-13.5 69.5h100q0 -30 18.5 -45t44.5 -15q34 0 51 15.5t26 44.5h100
q-18 -72 -63.5 -111t-113.5 -39z" />
    <glyph glyph-name="Aogonek" unicode="&#x104;" horiz-adv-x="675" 
d="M576 -210q-71 0 -103 26t-32 64q0 26 10.5 46.5t26 35.5t33 24t31.5 14l-20 130h-285l-70 -130h-162l386 700h185l114 -700h-63q-36 -20 -58.5 -41t-22.5 -49q0 -35 56 -35h20l-16 -85h-30zM499 265l-39 265h-5l-143 -265h187z" />
    <glyph glyph-name="aogonek" unicode="&#x105;" horiz-adv-x="560" 
d="M454 -210q-71 0 -103 26t-32 64q0 26 10.5 46.5t26 35.5t33 24t31.5 14h-35l-5 55h-5q-20 -26 -55.5 -45.5t-84.5 -19.5q-79 0 -124 41t-45 109q0 39 14.5 72t41 57t64.5 37.5t85 13.5h156l3 18q2 10 2 17q0 29 -22 47t-64 18q-59 0 -83 -45h-140q12 36 33 66t50.5 52
t67 34.5t82.5 12.5q49 0 88.5 -11.5t68 -34t44 -54.5t15.5 -72q0 -8 -1 -21.5t-4 -28.5l-62 -318q-36 -20 -58.5 -41t-22.5 -49q0 -35 56 -35h20l-16 -85h-30zM285 105q42 0 74.5 22t43.5 73l4 20h-127q-21 0 -35 -5t-22.5 -13.5t-12.5 -19.5t-4 -22q0 -23 20.5 -39
t58.5 -16z" />
    <glyph glyph-name="Cacute" unicode="&#x106;" horiz-adv-x="710" 
d="M413 -10q-73 0 -130.5 20.5t-97.5 58.5t-61 91.5t-21 119.5q0 101 29 181t78 135.5t114.5 84.5t138.5 29q135 0 210 -62.5t90 -167.5h-152q-7 19 -19 36t-30.5 30t-44 21t-59.5 8q-39 0 -76 -17t-65.5 -51.5t-46 -87.5t-17.5 -124q0 -87 45 -128.5t120 -41.5
q47 0 85.5 23t66.5 72h158q-19 -47 -48 -88.5t-68.5 -73t-89 -50t-109.5 -18.5zM559 915h135l-144 -150h-110z" />
    <glyph glyph-name="cacute" unicode="&#x107;" horiz-adv-x="575" 
d="M327 -10q-117 0 -181 59.5t-64 165.5q0 80 24 140.5t63 101.5t89.5 62t103.5 21q56 0 98 -13.5t71 -38.5t46 -60t25 -78h-143q-6 19 -17 31.5t-24.5 20t-28 10.5t-27.5 3q-23 0 -48 -10.5t-45.5 -33t-33.5 -57.5t-13 -84q0 -30 8.5 -51.5t23 -36t33.5 -21t40 -6.5
q19 0 36.5 6t32 15.5t25 21t16.5 22.5h145q-13 -41 -36.5 -76t-55.5 -60.5t-73 -39.5t-90 -14zM459 760h135l-144 -150h-110z" />
    <glyph glyph-name="Ccircumflex" unicode="&#x108;" horiz-adv-x="710" 
d="M413 -10q-73 0 -130.5 20.5t-97.5 58.5t-61 91.5t-21 119.5q0 101 29 181t78 135.5t114.5 84.5t138.5 29q135 0 210 -62.5t90 -167.5h-152q-7 19 -19 36t-30.5 30t-44 21t-59.5 8q-39 0 -76 -17t-65.5 -51.5t-46 -87.5t-17.5 -124q0 -87 45 -128.5t120 -41.5
q47 0 85.5 23t66.5 72h158q-19 -47 -48 -88.5t-68.5 -73t-89 -50t-109.5 -18.5zM475 920h95l105 -155h-109l-49 80h-5l-81 -80h-121z" />
    <glyph glyph-name="ccircumflex" unicode="&#x109;" horiz-adv-x="575" 
d="M327 -10q-117 0 -181 59.5t-64 165.5q0 80 24 140.5t63 101.5t89.5 62t103.5 21q56 0 98 -13.5t71 -38.5t46 -60t25 -78h-143q-6 19 -17 31.5t-24.5 20t-28 10.5t-27.5 3q-23 0 -48 -10.5t-45.5 -33t-33.5 -57.5t-13 -84q0 -30 8.5 -51.5t23 -36t33.5 -21t40 -6.5
q19 0 36.5 6t32 15.5t25 21t16.5 22.5h145q-13 -41 -36.5 -76t-55.5 -60.5t-73 -39.5t-90 -14zM380 765h95l105 -155h-109l-49 80h-5l-81 -80h-121z" />
    <glyph glyph-name="Cdotaccent" unicode="&#x10a;" horiz-adv-x="710" 
d="M413 -10q-73 0 -130.5 20.5t-97.5 58.5t-61 91.5t-21 119.5q0 101 29 181t78 135.5t114.5 84.5t138.5 29q135 0 210 -62.5t90 -167.5h-152q-7 19 -19 36t-30.5 30t-44 21t-59.5 8q-39 0 -76 -17t-65.5 -51.5t-46 -87.5t-17.5 -124q0 -87 45 -128.5t120 -41.5
q47 0 85.5 23t66.5 72h158q-19 -47 -48 -88.5t-68.5 -73t-89 -50t-109.5 -18.5zM500 770q-30 0 -47.5 19.5t-17.5 45.5q0 34 22.5 54.5t52.5 20.5t47.5 -19.5t17.5 -45.5q0 -34 -22.5 -54.5t-52.5 -20.5z" />
    <glyph glyph-name="cdotaccent" unicode="&#x10b;" horiz-adv-x="575" 
d="M327 -10q-117 0 -181 59.5t-64 165.5q0 80 24 140.5t63 101.5t89.5 62t103.5 21q56 0 98 -13.5t71 -38.5t46 -60t25 -78h-143q-6 19 -17 31.5t-24.5 20t-28 10.5t-27.5 3q-23 0 -48 -10.5t-45.5 -33t-33.5 -57.5t-13 -84q0 -30 8.5 -51.5t23 -36t33.5 -21t40 -6.5
q19 0 36.5 6t32 15.5t25 21t16.5 22.5h145q-13 -41 -36.5 -76t-55.5 -60.5t-73 -39.5t-90 -14zM400 615q-30 0 -47.5 19.5t-17.5 45.5q0 34 22.5 54.5t52.5 20.5t47.5 -19.5t17.5 -45.5q0 -34 -22.5 -54.5t-52.5 -20.5z" />
    <glyph glyph-name="Ccaron" unicode="&#x10c;" horiz-adv-x="710" 
d="M413 -10q-73 0 -130.5 20.5t-97.5 58.5t-61 91.5t-21 119.5q0 101 29 181t78 135.5t114.5 84.5t138.5 29q135 0 210 -62.5t90 -167.5h-152q-7 19 -19 36t-30.5 30t-44 21t-59.5 8q-39 0 -76 -17t-65.5 -51.5t-46 -87.5t-17.5 -124q0 -87 45 -128.5t120 -41.5
q47 0 85.5 23t66.5 72h158q-19 -47 -48 -88.5t-68.5 -73t-89 -50t-109.5 -18.5zM345 925h105l50 -80h5l80 80h125l-165 -155h-95z" />
    <glyph glyph-name="ccaron" unicode="&#x10d;" horiz-adv-x="575" 
d="M327 -10q-117 0 -181 59.5t-64 165.5q0 80 24 140.5t63 101.5t89.5 62t103.5 21q56 0 98 -13.5t71 -38.5t46 -60t25 -78h-143q-6 19 -17 31.5t-24.5 20t-28 10.5t-27.5 3q-23 0 -48 -10.5t-45.5 -33t-33.5 -57.5t-13 -84q0 -30 8.5 -51.5t23 -36t33.5 -21t40 -6.5
q19 0 36.5 6t32 15.5t25 21t16.5 22.5h145q-13 -41 -36.5 -76t-55.5 -60.5t-73 -39.5t-90 -14zM240 765h105l50 -80h5l80 80h125l-165 -155h-95z" />
    <glyph glyph-name="Dcaron" unicode="&#x10e;" horiz-adv-x="700" 
d="M206 700h244q64 0 116.5 -20t90 -57t58 -89.5t20.5 -117.5q0 -96 -28 -173t-75.5 -131t-111 -83t-134.5 -29h-316zM380 135q37 0 74 16.5t66 49.5t47 81.5t18 112.5q0 41 -11.5 73t-31.5 53.5t-47.5 32.5t-59.5 11h-106l-83 -430h134zM325 925h105l50 -80h5l80 80h125
l-165 -155h-95z" />
    <glyph glyph-name="dcaron" unicode="&#x10f;" horiz-adv-x="720" 
d="M282 -10q-94 0 -147 56.5t-53 158.5q0 75 19.5 136.5t54 106t82.5 68.5t104 24q34 0 58.5 -6t43 -16t32 -24t24.5 -29h5l46 235h140l-137 -700h-120l-4 55h-5q-25 -26 -61.5 -45.5t-81.5 -19.5zM327 115q24 0 49 10.5t45.5 33t33 57.5t12.5 84q0 30 -8.5 51.5t-23 36
t-33.5 21t-40 6.5q-24 0 -49 -10.5t-45.5 -33t-33 -57.5t-12.5 -84q0 -30 8.5 -51.5t23 -36t33.5 -21t40 -6.5zM775 700h120l-108 -170h-90z" />
    <glyph glyph-name="Dcroat" unicode="&#x110;" horiz-adv-x="715" 
d="M141 290h-75l24 125h75l56 285h244q64 0 116.5 -20t90 -57t58 -89.5t20.5 -117.5q0 -96 -28 -173t-75.5 -131t-111 -83t-134.5 -29h-316zM395 135q37 0 74 16.5t66 49.5t47 81.5t18 112.5q0 41 -11.5 73t-31.5 53.5t-47.5 32.5t-59.5 11h-106l-29 -150h155l-24 -125h-155
l-30 -155h134z" />
    <glyph glyph-name="dcroat" unicode="&#x111;" horiz-adv-x="615" 
d="M285 -10q-46 0 -83.5 14.5t-64 40.5t-41 63t-14.5 82q0 73 20.5 129t55.5 94t80.5 57.5t96.5 19.5q34 0 59.5 -8t44 -20t30 -25t17.5 -22h5l21 110h-125l21 110h125l13 65h140l-13 -65h75l-21 -110h-75l-102 -525h-120l-4 55h-5q-23 -26 -57 -45.5t-79 -19.5zM324 115
q26 0 50 10t42.5 29.5t29.5 47t11 63.5q0 45 -28.5 72.5t-73.5 27.5q-26 0 -50 -10t-42.5 -29.5t-29.5 -47t-11 -63.5q0 -45 28.5 -72.5t73.5 -27.5z" />
    <glyph glyph-name="Emacron" unicode="&#x112;" horiz-adv-x="600" 
d="M206 700h475l-27 -135h-325l-29 -150h305l-24 -125h-305l-30 -155h335l-26 -135h-485zM323 885h300l-18 -95h-300z" />
    <glyph glyph-name="emacron" unicode="&#x113;" horiz-adv-x="585" 
d="M327 -10q-117 0 -181 59.5t-64 165.5q0 79 23 139.5t62 101.5t90.5 62.5t107.5 21.5q54 0 98.5 -15t76 -43.5t48.5 -70.5t17 -96q0 -19 -2.5 -36t-4.5 -30q-3 -16 -6 -29h-370q3 -55 34 -80t71 -25q21 0 51 12t49 38h156q-18 -43 -46 -76t-61.5 -55t-71.5 -33t-77 -11z
M468 325q-6 45 -34 67.5t-72 22.5q-32 0 -67.5 -21.5t-55.5 -68.5h229zM268 725h300l-18 -95h-300z" />
    <glyph glyph-name="Ebreve" unicode="&#x114;" horiz-adv-x="600" 
d="M206 700h475l-27 -135h-325l-29 -150h305l-24 -125h-305l-30 -155h335l-26 -135h-485zM463 765q-32 0 -61.5 8t-52 26t-36 46.5t-13.5 69.5h100q0 -30 18.5 -45t44.5 -15q34 0 51 15.5t26 44.5h100q-18 -72 -63.5 -111t-113.5 -39z" />
    <glyph glyph-name="ebreve" unicode="&#x115;" horiz-adv-x="585" 
d="M327 -10q-117 0 -181 59.5t-64 165.5q0 79 23 139.5t62 101.5t90.5 62.5t107.5 21.5q54 0 98.5 -15t76 -43.5t48.5 -70.5t17 -96q0 -19 -2.5 -36t-4.5 -30q-3 -16 -6 -29h-370q3 -55 34 -80t71 -25q21 0 51 12t49 38h156q-18 -43 -46 -76t-61.5 -55t-71.5 -33t-77 -11z
M468 325q-6 45 -34 67.5t-72 22.5q-32 0 -67.5 -21.5t-55.5 -68.5h229zM408 610q-32 0 -61.5 8t-52 26t-36 46.5t-13.5 69.5h100q0 -30 18.5 -45t44.5 -15q34 0 51 15.5t26 44.5h100q-18 -72 -63.5 -111t-113.5 -39z" />
    <glyph glyph-name="Edotaccent" unicode="&#x116;" horiz-adv-x="600" 
d="M206 700h475l-27 -135h-325l-29 -150h305l-24 -125h-305l-30 -155h335l-26 -135h-485zM455 770q-30 0 -47.5 19.5t-17.5 45.5q0 34 22.5 54.5t52.5 20.5t47.5 -19.5t17.5 -45.5q0 -34 -22.5 -54.5t-52.5 -20.5z" />
    <glyph glyph-name="edotaccent" unicode="&#x117;" horiz-adv-x="585" 
d="M327 -10q-117 0 -181 59.5t-64 165.5q0 79 23 139.5t62 101.5t90.5 62.5t107.5 21.5q54 0 98.5 -15t76 -43.5t48.5 -70.5t17 -96q0 -19 -2.5 -36t-4.5 -30q-3 -16 -6 -29h-370q3 -55 34 -80t71 -25q21 0 51 12t49 38h156q-18 -43 -46 -76t-61.5 -55t-71.5 -33t-77 -11z
M468 325q-6 45 -34 67.5t-72 22.5q-32 0 -67.5 -21.5t-55.5 -68.5h229zM400 615q-30 0 -47.5 19.5t-17.5 45.5q0 34 22.5 54.5t52.5 20.5t47.5 -19.5t17.5 -45.5q0 -34 -22.5 -54.5t-52.5 -20.5z" />
    <glyph glyph-name="Eogonek" unicode="&#x118;" horiz-adv-x="600" 
d="M504 -210q-71 0 -103 26t-32 64q0 26 10.5 46.5t26 35.5t33 24t31.5 14h-400l136 700h475l-27 -135h-325l-29 -150h305l-24 -125h-305l-30 -155h335l-26 -135q-36 -20 -58.5 -41t-22.5 -49q0 -35 56 -35h20l-16 -85h-30v0z" />
    <glyph glyph-name="eogonek" unicode="&#x119;" horiz-adv-x="585" 
d="M325 -210q-71 0 -103 26t-32 64q0 23 8 41.5t20.5 32.5t27.5 24t29 16q-93 12 -143 70t-50 151q0 79 23 139.5t62 101.5t90.5 62.5t107.5 21.5q54 0 98.5 -15t76 -43.5t48.5 -70.5t17 -96q0 -19 -2.5 -36t-4.5 -30q-3 -16 -6 -29h-370q3 -55 34 -80t71 -25q21 0 51 12
t49 38h156q-29 -71 -87.5 -117t-133.5 -56q-31 -17 -49 -36.5t-18 -45.5q0 -35 56 -35h20l-16 -85h-30zM468 325q-6 45 -34 67.5t-72 22.5q-32 0 -67.5 -21.5t-55.5 -68.5h229z" />
    <glyph glyph-name="Ecaron" unicode="&#x11a;" horiz-adv-x="600" 
d="M206 700h475l-27 -135h-325l-29 -150h305l-24 -125h-305l-30 -155h335l-26 -135h-485zM300 925h105l50 -80h5l80 80h125l-165 -155h-95z" />
    <glyph glyph-name="ecaron" unicode="&#x11b;" horiz-adv-x="585" 
d="M327 -10q-117 0 -181 59.5t-64 165.5q0 79 23 139.5t62 101.5t90.5 62.5t107.5 21.5q54 0 98.5 -15t76 -43.5t48.5 -70.5t17 -96q0 -19 -2.5 -36t-4.5 -30q-3 -16 -6 -29h-370q3 -55 34 -80t71 -25q21 0 51 12t49 38h156q-18 -43 -46 -76t-61.5 -55t-71.5 -33t-77 -11z
M468 325q-6 45 -34 67.5t-72 22.5q-32 0 -67.5 -21.5t-55.5 -68.5h229zM240 765h105l50 -80h5l80 80h125l-165 -155h-95z" />
    <glyph glyph-name="Gcircumflex" unicode="&#x11c;" horiz-adv-x="725" 
d="M413 -10q-73 0 -130.5 20.5t-97.5 58.5t-61 91.5t-21 119.5q0 101 29 181t78 135.5t114.5 84.5t138.5 29q135 0 210 -62.5t90 -167.5h-152q-7 19 -19 36t-30.5 30t-44 21t-59.5 8q-39 0 -76 -17t-65.5 -51.5t-46 -87.5t-17.5 -124q0 -87 45 -128.5t120 -41.5
q62 0 106 36.5t58 93.5h-165l23 120h320l-16 -82q-15 -76 -46.5 -133t-75 -94.5t-97 -56.5t-112.5 -19zM475 920h95l105 -155h-109l-49 80h-5l-81 -80h-121z" />
    <glyph glyph-name="gcircumflex" unicode="&#x11d;" horiz-adv-x="605" 
d="M300 -200q-120 0 -182 47t-73 133h143q4 -15 15 -25.5t26 -17t32 -9.5t34 -3q28 0 48 7t33 19t20.5 28.5t11.5 35.5l14 75h-5q-8 -9 -20 -19.5t-28.5 -19.5t-37.5 -15t-46 -6q-94 0 -147.5 54t-53.5 149q0 73 20 130t55 96.5t82.5 60t103.5 20.5q32 0 56 -6t42 -16
t31 -22.5t22 -25.5h5l27 60h120l-103 -530q-20 -98 -79.5 -149t-165.5 -51zM327 155q28 0 52.5 11t42.5 31t28.5 48.5t10.5 64.5q0 48 -29.5 76.5t-74.5 28.5q-29 0 -53 -11t-42 -31t-28 -48.5t-10 -64.5q0 -48 29 -76.5t74 -28.5zM395 765h95l105 -155h-109l-49 80h-5
l-81 -80h-121z" />
    <glyph glyph-name="Gbreve" unicode="&#x11e;" horiz-adv-x="725" 
d="M413 -10q-73 0 -130.5 20.5t-97.5 58.5t-61 91.5t-21 119.5q0 101 29 181t78 135.5t114.5 84.5t138.5 29q135 0 210 -62.5t90 -167.5h-152q-7 19 -19 36t-30.5 30t-44 21t-59.5 8q-39 0 -76 -17t-65.5 -51.5t-46 -87.5t-17.5 -124q0 -87 45 -128.5t120 -41.5
q62 0 106 36.5t58 93.5h-165l23 120h320l-16 -82q-15 -76 -46.5 -133t-75 -94.5t-97 -56.5t-112.5 -19zM503 765q-32 0 -61.5 8t-52 26t-36 46.5t-13.5 69.5h100q0 -30 18.5 -45t44.5 -15q34 0 51 15.5t26 44.5h100q-18 -72 -63.5 -111t-113.5 -39z" />
    <glyph glyph-name="gbreve" unicode="&#x11f;" horiz-adv-x="605" 
d="M300 -200q-120 0 -182 47t-73 133h143q4 -15 15 -25.5t26 -17t32 -9.5t34 -3q28 0 48 7t33 19t20.5 28.5t11.5 35.5l14 75h-5q-8 -9 -20 -19.5t-28.5 -19.5t-37.5 -15t-46 -6q-94 0 -147.5 54t-53.5 149q0 73 20 130t55 96.5t82.5 60t103.5 20.5q32 0 56 -6t42 -16
t31 -22.5t22 -25.5h5l27 60h120l-103 -530q-20 -98 -79.5 -149t-165.5 -51zM327 155q28 0 52.5 11t42.5 31t28.5 48.5t10.5 64.5q0 48 -29.5 76.5t-74.5 28.5q-29 0 -53 -11t-42 -31t-28 -48.5t-10 -64.5q0 -48 29 -76.5t74 -28.5zM418 610q-32 0 -61.5 8t-52 26t-36 46.5
t-13.5 69.5h100q0 -30 18.5 -45t44.5 -15q34 0 51 15.5t26 44.5h100q-18 -72 -63.5 -111t-113.5 -39z" />
    <glyph glyph-name="Gdotaccent" unicode="&#x120;" horiz-adv-x="725" 
d="M413 -10q-73 0 -130.5 20.5t-97.5 58.5t-61 91.5t-21 119.5q0 101 29 181t78 135.5t114.5 84.5t138.5 29q135 0 210 -62.5t90 -167.5h-152q-7 19 -19 36t-30.5 30t-44 21t-59.5 8q-39 0 -76 -17t-65.5 -51.5t-46 -87.5t-17.5 -124q0 -87 45 -128.5t120 -41.5
q62 0 106 36.5t58 93.5h-165l23 120h320l-16 -82q-15 -76 -46.5 -133t-75 -94.5t-97 -56.5t-112.5 -19zM500 770q-30 0 -47.5 19.5t-17.5 45.5q0 34 22.5 54.5t52.5 20.5t47.5 -19.5t17.5 -45.5q0 -34 -22.5 -54.5t-52.5 -20.5z" />
    <glyph glyph-name="gdotaccent" unicode="&#x121;" horiz-adv-x="605" 
d="M300 -200q-120 0 -182 47t-73 133h143q4 -15 15 -25.5t26 -17t32 -9.5t34 -3q28 0 48 7t33 19t20.5 28.5t11.5 35.5l14 75h-5q-8 -9 -20 -19.5t-28.5 -19.5t-37.5 -15t-46 -6q-94 0 -147.5 54t-53.5 149q0 73 20 130t55 96.5t82.5 60t103.5 20.5q32 0 56 -6t42 -16
t31 -22.5t22 -25.5h5l27 60h120l-103 -530q-20 -98 -79.5 -149t-165.5 -51zM327 155q28 0 52.5 11t42.5 31t28.5 48.5t10.5 64.5q0 48 -29.5 76.5t-74.5 28.5q-29 0 -53 -11t-42 -31t-28 -48.5t-10 -64.5q0 -48 29 -76.5t74 -28.5zM410 615q-30 0 -47.5 19.5t-17.5 45.5
q0 34 22.5 54.5t52.5 20.5t47.5 -19.5t17.5 -45.5q0 -34 -22.5 -54.5t-52.5 -20.5z" />
    <glyph glyph-name="Gcommaaccent" unicode="&#x122;" horiz-adv-x="725" 
d="M413 -10q-73 0 -130.5 20.5t-97.5 58.5t-61 91.5t-21 119.5q0 101 29 181t78 135.5t114.5 84.5t138.5 29q135 0 210 -62.5t90 -167.5h-152q-7 19 -19 36t-30.5 30t-44 21t-59.5 8q-39 0 -76 -17t-65.5 -51.5t-46 -87.5t-17.5 -124q0 -87 45 -128.5t120 -41.5
q62 0 106 36.5t58 93.5h-165l23 120h320l-16 -82q-15 -76 -46.5 -133t-75 -94.5t-97 -56.5t-112.5 -19zM327 -85h120l-108 -170h-89z" />
    <glyph glyph-name="gcommaaccent" unicode="&#x123;" horiz-adv-x="605" 
d="M453 780h89l-77 -170h-120zM300 -200q-120 0 -182 47t-73 133h143q4 -15 15 -25.5t26 -17t32 -9.5t34 -3q28 0 48 7t33 19t20.5 28.5t11.5 35.5l14 75h-5q-8 -9 -20 -19.5t-28.5 -19.5t-37.5 -15t-46 -6q-94 0 -147.5 54t-53.5 149q0 73 20 130t55 96.5t82.5 60
t103.5 20.5q32 0 56 -6t42 -16t31 -22.5t22 -25.5h5l27 60h120l-103 -530q-20 -98 -79.5 -149t-165.5 -51zM327 155q28 0 52.5 11t42.5 31t28.5 48.5t10.5 64.5q0 48 -29.5 76.5t-74.5 28.5q-29 0 -53 -11t-42 -31t-28 -48.5t-10 -64.5q0 -48 29 -76.5t74 -28.5z" />
    <glyph glyph-name="Hcircumflex" unicode="&#x124;" horiz-adv-x="720" 
d="M206 700h150l-55 -280h280l55 280h150l-136 -700h-150l55 285h-280l-55 -285h-150zM475 920h95l105 -155h-109l-49 80h-5l-81 -80h-121z" />
    <glyph glyph-name="hcircumflex" unicode="&#x125;" horiz-adv-x="595" 
d="M201 700h140l-43 -220h5q28 30 63.5 45t70.5 15q33 0 63.5 -11t53.5 -33t37 -55t14 -76q0 -19 -1.5 -31.5t-3.5 -23.5l-60 -310h-140l57 295q2 8 2.5 17t0.5 13q0 90 -85 90q-42 0 -71 -27.5t-38 -72.5l-61 -315h-140zM425 935h95l105 -155h-109l-49 80h-5l-81 -80h-121z
" />
    <glyph glyph-name="Hbar" unicode="&#x126;" horiz-adv-x="730" 
d="M173 505h-65l22 115h65l16 80h150l-16 -80h280l16 80h150l-16 -80h65l-22 -115h-65l-98 -505h-150l55 285h-280l-55 -285h-150zM586 420l17 85h-280l-17 -85h280z" />
    <glyph glyph-name="hbar" unicode="&#x127;" horiz-adv-x="600" 
d="M172 525h-75l21 110h75l13 65h140l-13 -65h125l-21 -110h-126l-22 -115h5q28 30 63.5 45t70.5 15q33 0 63.5 -11t53.5 -33t37 -55t14 -76q0 -19 -1.5 -31.5t-3.5 -23.5l-46 -240h-140l43 225q2 8 2.5 17t0.5 13q0 90 -85 90q-42 0 -71 -27.5t-38 -72.5l-47 -245h-140z
" />
    <glyph glyph-name="Imacron" unicode="&#x12a;" horiz-adv-x="290" 
d="M206 700h150l-136 -700h-150zM163 885h300l-18 -95h-300z" />
    <glyph glyph-name="imacron" unicode="&#x12b;" horiz-adv-x="260" 
d="M163 530h140l-103 -530h-140zM113 725h300l-18 -95h-300z" />
    <glyph glyph-name="Ibreve" unicode="&#x12c;" horiz-adv-x="290" 
d="M206 700h150l-136 -700h-150zM303 765q-32 0 -61.5 8t-52 26t-36 46.5t-13.5 69.5h100q0 -30 18.5 -45t44.5 -15q34 0 51 15.5t26 44.5h100q-18 -72 -63.5 -111t-113.5 -39z" />
    <glyph glyph-name="ibreve" unicode="&#x12d;" horiz-adv-x="260" 
d="M163 530h140l-103 -530h-140zM253 610q-32 0 -61.5 8t-52 26t-36 46.5t-13.5 69.5h100q0 -30 18.5 -45t44.5 -15q34 0 51 15.5t26 44.5h100q-18 -72 -63.5 -111t-113.5 -39z" />
    <glyph glyph-name="Iogonek" unicode="&#x12e;" horiz-adv-x="290" 
d="M104 -210q-71 0 -103 26t-32 64q0 26 10.5 46.5t26 35.5t33 24t31.5 14l136 700h150l-136 -700h-65q-36 -20 -58.5 -41t-22.5 -49q0 -35 56 -35h20l-16 -85h-30v0z" />
    <glyph glyph-name="iogonek" unicode="&#x12f;" horiz-adv-x="260" 
d="M94 -210q-71 0 -103 26t-32 64q0 26 10.5 46.5t26 35.5t33 24t31.5 14l103 530h140l-103 -530h-55q-36 -20 -58.5 -41t-22.5 -49q0 -35 56 -35h20l-16 -85h-30zM250 585q-34 0 -54.5 20t-20.5 50q0 38 25.5 64t59.5 26t54.5 -20t20.5 -50q0 -38 -25.5 -64t-59.5 -26z" />
    <glyph glyph-name="Idotaccent" unicode="&#x130;" horiz-adv-x="290" 
d="M206 700h150l-136 -700h-150zM300 770q-30 0 -47.5 19.5t-17.5 45.5q0 34 22.5 54.5t52.5 20.5t47.5 -19.5t17.5 -45.5q0 -34 -22.5 -54.5t-52.5 -20.5z" />
    <glyph glyph-name="dotlessi" unicode="&#x131;" horiz-adv-x="260" 
d="M163 530h140l-103 -530h-140z" />
    <glyph glyph-name="uni0132" unicode="&#x132;" horiz-adv-x="825" 
d="M206 700h150l-136 -700h-150zM543 -10q-49 0 -91 12.5t-73 37.5t-48.5 63.5t-17.5 91.5v20h150v-5q0 -85 85 -85q38 0 63.5 26.5t36.5 81.5l91 467h150l-94 -481q-22 -112 -88 -170.5t-164 -58.5z" />
    <glyph glyph-name="uni0133" unicode="&#x133;" horiz-adv-x="525" 
d="M163 530h140l-103 -530h-140zM250 585q-34 0 -54.5 20t-20.5 50q0 38 25.5 64t59.5 26t54.5 -20t20.5 -50q0 -38 -25.5 -64t-59.5 -26zM180 -80h85q23 0 36 13.5t18 36.5l109 560h140l-115 -589q-14 -72 -50.5 -106.5t-110.5 -34.5h-135zM515 585q-34 0 -54.5 20
t-20.5 50q0 38 25.5 64t59.5 26t54.5 -20t20.5 -50q0 -38 -25.5 -64t-59.5 -26z" />
    <glyph glyph-name="Jcircumflex" unicode="&#x134;" horiz-adv-x="570" 
d="M288 -10q-49 0 -91 12.5t-73 37.5t-48.5 63.5t-17.5 91.5v20h150v-5q0 -85 85 -85q38 0 63.5 26.5t36.5 81.5l91 467h150l-94 -481q-22 -112 -88 -170.5t-164 -58.5zM545 920h95l105 -155h-109l-49 80h-5l-81 -80h-121z" />
    <glyph glyph-name="jcircumflex" unicode="&#x135;" horiz-adv-x="260" 
d="M-85 -80h85q23 0 36 13.5t18 36.5l109 560h140l-115 -589q-14 -72 -50.5 -106.5t-110.5 -34.5h-135zM225 765h95l105 -155h-109l-49 80h-5l-81 -80h-121z" />
    <glyph glyph-name="Kcommaaccent" unicode="&#x136;" horiz-adv-x="630" 
d="M206 700h150l-61 -310l311 310h180l-352 -350l223 -350h-172l-203 320l-62 -320h-150zM282 -85h120l-108 -170h-89z" />
    <glyph glyph-name="kcommaaccent" unicode="&#x137;" horiz-adv-x="550" 
d="M201 700h140l-79 -405l241 235h170l-271 -265l175 -265h-162l-163 245l-47 -245h-140zM237 -85h120l-108 -170h-89z" />
    <glyph glyph-name="Lacute" unicode="&#x139;" horiz-adv-x="540" 
d="M206 700h150l-110 -565h320l-26 -135h-470zM359 915h135l-144 -150h-110z" />
    <glyph glyph-name="lacute" unicode="&#x13a;" horiz-adv-x="270" 
d="M201 700h140l-136 -700h-140zM344 915h135l-144 -150h-110z" />
    <glyph glyph-name="Lcommaaccent" unicode="&#x13b;" horiz-adv-x="540" 
d="M206 700h150l-110 -565h320l-26 -135h-470zM247 -85h120l-108 -170h-89z" />
    <glyph glyph-name="lcommaaccent" unicode="&#x13c;" horiz-adv-x="270" 
d="M201 700h140l-136 -700h-140zM57 -85h120l-108 -170h-89z" />
    <glyph glyph-name="Lcaron" unicode="&#x13d;" horiz-adv-x="540" 
d="M206 700h150l-110 -565h320l-26 -135h-470zM460 700h120l-108 -170h-90z" />
    <glyph glyph-name="lcaron" unicode="&#x13e;" horiz-adv-x="370" 
d="M201 700h140l-136 -700h-140zM425 700h120l-108 -170h-90z" />
    <glyph glyph-name="Ldot" unicode="&#x13f;" horiz-adv-x="540" 
d="M492 330q-32 0 -52.5 21.5t-20.5 51.5q0 18 7.5 34t20 28t28 18.5t32.5 6.5q32 0 52.5 -21.5t20.5 -51.5q0 -18 -7.5 -34t-20 -28t-28.5 -18.5t-32 -6.5zM206 700h150l-110 -565h320l-26 -135h-470z" />
    <glyph glyph-name="ldot" unicode="&#x140;" horiz-adv-x="410" 
d="M397 280q-32 0 -52.5 21.5t-20.5 51.5q0 18 7.5 34t20 28t28 18.5t32.5 6.5q32 0 52.5 -21.5t20.5 -51.5q0 -18 -7.5 -34t-20 -28t-28.5 -18.5t-32 -6.5zM201 700h140l-136 -700h-140z" />
    <glyph glyph-name="Lslash" unicode="&#x141;" horiz-adv-x="560" 
d="M140 260l-91 -30l27 140l91 30l59 300h150l-48 -245l166 55l-28 -140l-165 -55l-35 -180h320l-26 -135h-470z" />
    <glyph glyph-name="lslash" unicode="&#x142;" horiz-adv-x="315" 
d="M135 258l-82 -33l26 130l81 33l61 312h140l-49 -251l87 36l-25 -130l-87 -36l-62 -319h-140z" />
    <glyph glyph-name="Nacute" unicode="&#x143;" horiz-adv-x="755" 
d="M206 700h195l170 -495h5l95 495h150l-136 -700h-195l-170 495h-5l-95 -495h-150zM584 915h135l-144 -150h-110z" />
    <glyph glyph-name="nacute" unicode="&#x144;" horiz-adv-x="590" 
d="M163 530h120l5 -55h5q23 26 59 45.5t81 19.5q32 0 62 -11t53.5 -33t37.5 -55t14 -76q0 -19 -1.5 -31.5t-3.5 -23.5l-60 -310h-140l57 295q2 8 2.5 17t0.5 13q0 90 -85 90q-42 0 -71 -27.5t-38 -72.5l-61 -315h-140zM474 760h135l-144 -150h-110z" />
    <glyph glyph-name="Ncommaaccent" unicode="&#x145;" horiz-adv-x="755" 
d="M206 700h195l170 -495h5l95 495h150l-136 -700h-195l-170 495h-5l-95 -495h-150zM327 -85h120l-108 -170h-89z" />
    <glyph glyph-name="ncommaaccent" unicode="&#x146;" horiz-adv-x="590" 
d="M163 530h120l5 -55h5q23 26 59 45.5t81 19.5q32 0 62 -11t53.5 -33t37.5 -55t14 -76q0 -19 -1.5 -31.5t-3.5 -23.5l-60 -310h-140l57 295q2 8 2.5 17t0.5 13q0 90 -85 90q-42 0 -71 -27.5t-38 -72.5l-61 -315h-140zM232 -85h120l-108 -170h-89z" />
    <glyph glyph-name="Ncaron" unicode="&#x147;" horiz-adv-x="755" 
d="M206 700h195l170 -495h5l95 495h150l-136 -700h-195l-170 495h-5l-95 -495h-150zM365 925h105l50 -80h5l80 80h125l-165 -155h-95z" />
    <glyph glyph-name="ncaron" unicode="&#x148;" horiz-adv-x="590" 
d="M163 530h120l5 -55h5q23 26 59 45.5t81 19.5q32 0 62 -11t53.5 -33t37.5 -55t14 -76q0 -19 -1.5 -31.5t-3.5 -23.5l-60 -310h-140l57 295q2 8 2.5 17t0.5 13q0 90 -85 90q-42 0 -71 -27.5t-38 -72.5l-61 -315h-140zM250 765h105l50 -80h5l80 80h125l-165 -155h-95z" />
    <glyph glyph-name="napostrophe" unicode="&#x149;" horiz-adv-x="660" 
d="M235 530h120l5 -55h5q23 26 59 45.5t81 19.5q32 0 62 -11t53.5 -33t37.5 -55t14 -76q0 -19 -1.5 -31.5t-3.5 -23.5l-60 -310h-140l57 295q2 8 2.5 17t0.5 13q0 90 -85 90q-42 0 -71 -27.5t-38 -72.5l-61 -315h-140zM183 710h120l-108 -170h-90z" />
    <glyph glyph-name="Eng" unicode="&#x14a;" horiz-adv-x="755" 
d="M370 -100h60q41 0 67 22t35 64l3 14h-45l-169 495h-5l-96 -495h-150l136 700h195l170 -495h5l95 495h150l-137 -705q-23 -121 -84.5 -178t-159.5 -57h-97z" />
    <glyph glyph-name="eng" unicode="&#x14b;" horiz-adv-x="590" 
d="M249 -80h86q23 0 36 13.5t18 36.5l63 325q2 8 2.5 17t0.5 13q0 90 -85 90q-42 0 -71 -27.5t-38 -72.5l-61 -315h-140l103 530h120l5 -55h5q23 26 59 45.5t81 19.5q32 0 62 -11t53.5 -33t37.5 -55t14 -76q0 -19 -1.5 -31.5t-3.5 -23.5l-72 -370q-14 -72 -51 -106t-112 -34
h-134z" />
    <glyph glyph-name="Omacron" unicode="&#x14c;" horiz-adv-x="740" 
d="M413 -10q-73 0 -130.5 20.5t-97.5 58.5t-61 91.5t-21 119.5q0 101 29 181t78 135.5t114.5 84.5t138.5 29t130.5 -20.5t97.5 -58.5t61 -91.5t21 -119.5q0 -101 -29 -181t-78 -135.5t-114.5 -84.5t-138.5 -29zM418 125q39 0 76 17t65.5 51.5t46 87.5t17.5 124
q0 87 -45 128.5t-120 41.5q-39 0 -76 -17t-65.5 -51.5t-46 -87.5t-17.5 -124q0 -87 45 -128.5t120 -41.5zM368 885h300l-18 -95h-300z" />
    <glyph glyph-name="omacron" unicode="&#x14d;" horiz-adv-x="590" 
d="M327 -10q-117 0 -181 59.5t-64 165.5q0 79 23 139.5t62 101.5t90.5 62.5t107.5 21.5q117 0 181 -59.5t64 -165.5q0 -79 -23 -139.5t-62 -102t-90.5 -62.5t-107.5 -21zM327 115q24 0 49.5 10.5t46.5 33t34 57.5t13 84q0 30 -8.5 51.5t-23 36t-33.5 21t-40 6.5
q-24 0 -49.5 -10.5t-46.5 -33t-34 -57.5t-13 -84q0 -30 8.5 -51.5t23 -36t33.5 -21t40 -6.5zM268 725h300l-18 -95h-300z" />
    <glyph glyph-name="Obreve" unicode="&#x14e;" horiz-adv-x="740" 
d="M413 -10q-73 0 -130.5 20.5t-97.5 58.5t-61 91.5t-21 119.5q0 101 29 181t78 135.5t114.5 84.5t138.5 29t130.5 -20.5t97.5 -58.5t61 -91.5t21 -119.5q0 -101 -29 -181t-78 -135.5t-114.5 -84.5t-138.5 -29zM418 125q39 0 76 17t65.5 51.5t46 87.5t17.5 124
q0 87 -45 128.5t-120 41.5q-39 0 -76 -17t-65.5 -51.5t-46 -87.5t-17.5 -124q0 -87 45 -128.5t120 -41.5zM503 765q-32 0 -61.5 8t-52 26t-36 46.5t-13.5 69.5h100q0 -30 18.5 -45t44.5 -15q34 0 51 15.5t26 44.5h100q-18 -72 -63.5 -111t-113.5 -39z" />
    <glyph glyph-name="obreve" unicode="&#x14f;" horiz-adv-x="590" 
d="M327 -10q-117 0 -181 59.5t-64 165.5q0 79 23 139.5t62 101.5t90.5 62.5t107.5 21.5q117 0 181 -59.5t64 -165.5q0 -79 -23 -139.5t-62 -102t-90.5 -62.5t-107.5 -21zM327 115q24 0 49.5 10.5t46.5 33t34 57.5t13 84q0 30 -8.5 51.5t-23 36t-33.5 21t-40 6.5
q-24 0 -49.5 -10.5t-46.5 -33t-34 -57.5t-13 -84q0 -30 8.5 -51.5t23 -36t33.5 -21t40 -6.5zM408 610q-32 0 -61.5 8t-52 26t-36 46.5t-13.5 69.5h100q0 -30 18.5 -45t44.5 -15q34 0 51 15.5t26 44.5h100q-18 -72 -63.5 -111t-113.5 -39z" />
    <glyph glyph-name="Ohungarumlaut" unicode="&#x150;" horiz-adv-x="740" 
d="M413 -10q-73 0 -130.5 20.5t-97.5 58.5t-61 91.5t-21 119.5q0 101 29 181t78 135.5t114.5 84.5t138.5 29t130.5 -20.5t97.5 -58.5t61 -91.5t21 -119.5q0 -101 -29 -181t-78 -135.5t-114.5 -84.5t-138.5 -29zM418 125q39 0 76 17t65.5 51.5t46 87.5t17.5 124
q0 87 -45 128.5t-120 41.5q-39 0 -76 -17t-65.5 -51.5t-46 -87.5t-17.5 -124q0 -87 45 -128.5t120 -41.5zM474 915h135l-149 -150h-105zM654 915h135l-149 -150h-105z" />
    <glyph glyph-name="ohungarumlaut" unicode="&#x151;" horiz-adv-x="590" 
d="M327 -10q-117 0 -181 59.5t-64 165.5q0 79 23 139.5t62 101.5t90.5 62.5t107.5 21.5q117 0 181 -59.5t64 -165.5q0 -79 -23 -139.5t-62 -102t-90.5 -62.5t-107.5 -21zM327 115q24 0 49.5 10.5t46.5 33t34 57.5t13 84q0 30 -8.5 51.5t-23 36t-33.5 21t-40 6.5
q-24 0 -49.5 -10.5t-46.5 -33t-34 -57.5t-13 -84q0 -30 8.5 -51.5t23 -36t33.5 -21t40 -6.5zM374 760h135l-149 -150h-105zM554 760h135l-149 -150h-105z" />
    <glyph glyph-name="OE" unicode="&#x152;" horiz-adv-x="1063" 
d="M373 -10q-64 0 -114 22.5t-84.5 61.5t-53 92.5t-18.5 116.5q0 96 28 175t76.5 135t113 86.5t137.5 30.5q41 0 74.5 -9.5t58.5 -23t40.5 -29.5t21.5 -28l16 80h475l-27 -135h-324l-29 -150h299l-24 -125h-300l-30 -155h325l-26 -135h-475l10 50q-5 -6 -19.5 -16t-36 -19.5
t-50.5 -17t-64 -7.5zM398 125q42 0 79.5 19t65.5 55t44 88t16 118q0 36 -9.5 67t-28.5 54t-46 36t-61 13q-42 0 -79.5 -19t-65.5 -55t-44 -88t-16 -118q0 -36 9.5 -67t28.5 -54t45.5 -36t61.5 -13z" />
    <glyph glyph-name="oe" unicode="&#x153;" horiz-adv-x="940" 
d="M310 -10q-56 0 -99 16t-71.5 45.5t-43 71t-14.5 92.5q0 77 22.5 137.5t60 102t87.5 63.5t105 22q67 0 109.5 -27t68.5 -68q34 42 80.5 68.5t114.5 26.5q57 0 100.5 -17.5t72.5 -48t44 -71.5t15 -88q0 -19 -2.5 -36t-4.5 -30q-3 -16 -6 -29h-370q9 -105 106 -105
q23 0 51.5 12t46.5 38h157q-18 -43 -45.5 -76t-60.5 -55t-70 -33t-74 -11q-75 0 -122.5 26t-73.5 64q-15 -17 -34.5 -33t-42.5 -29t-50 -20.5t-57 -7.5zM317 115q25 0 49 12t43 35.5t30 58t11 79.5q0 60 -28.5 87.5t-66.5 27.5q-26 0 -49.5 -12t-42.5 -35.5t-30 -58
t-11 -79.5q0 -60 28.5 -87.5t66.5 -27.5zM826 315q-3 44 -28.5 72t-74.5 28q-39 0 -77 -25.5t-53 -74.5h233z" />
    <glyph glyph-name="Racute" unicode="&#x154;" horiz-adv-x="655" 
d="M206 700h284q45 0 82.5 -14.5t65 -40.5t42.5 -63t15 -82q0 -58 -15.5 -101.5t-40 -74t-56 -49t-62.5 -25.5l119 -250h-163l-114 240h-97l-46 -240h-150zM445 375q52 0 76 32.5t24 77.5q0 34 -21.5 57t-63.5 23h-131l-37 -190h153zM524 915h135l-144 -150h-110z" />
    <glyph glyph-name="racute" unicode="&#x155;" horiz-adv-x="410" 
d="M163 530h120l5 -55h5q23 26 50.5 40.5t61.5 14.5h88l-27 -135h-71q-57 0 -94 -31.5t-48 -88.5l-53 -275h-140zM404 760h135l-144 -150h-110z" />
    <glyph glyph-name="Rcommaaccent" unicode="&#x156;" horiz-adv-x="655" 
d="M206 700h284q45 0 82.5 -14.5t65 -40.5t42.5 -63t15 -82q0 -58 -15.5 -101.5t-40 -74t-56 -49t-62.5 -25.5l119 -250h-163l-114 240h-97l-46 -240h-150zM445 375q52 0 76 32.5t24 77.5q0 34 -21.5 57t-63.5 23h-131l-37 -190h153zM282 -85h120l-108 -170h-89z" />
    <glyph glyph-name="rcommaaccent" unicode="&#x157;" horiz-adv-x="410" 
d="M163 530h120l5 -55h5q23 26 50.5 40.5t61.5 14.5h88l-27 -135h-71q-57 0 -94 -31.5t-48 -88.5l-53 -275h-140zM52 -85h120l-108 -170h-89z" />
    <glyph glyph-name="Rcaron" unicode="&#x158;" horiz-adv-x="655" 
d="M206 700h284q45 0 82.5 -14.5t65 -40.5t42.5 -63t15 -82q0 -58 -15.5 -101.5t-40 -74t-56 -49t-62.5 -25.5l119 -250h-163l-114 240h-97l-46 -240h-150zM445 375q52 0 76 32.5t24 77.5q0 34 -21.5 57t-63.5 23h-131l-37 -190h153zM315 925h105l50 -80h5l80 80h125
l-165 -155h-95z" />
    <glyph glyph-name="rcaron" unicode="&#x159;" horiz-adv-x="410" 
d="M163 530h120l5 -55h5q23 26 50.5 40.5t61.5 14.5h88l-27 -135h-71q-57 0 -94 -31.5t-48 -88.5l-53 -275h-140zM190 765h105l50 -80h5l80 80h125l-165 -155h-95z" />
    <glyph glyph-name="Sacute" unicode="&#x15a;" horiz-adv-x="625" 
d="M352 -10q-131 0 -207.5 56t-77.5 164h152q8 -41 45 -65.5t98 -24.5q57 0 86 23t29 62q0 31 -25 47.5t-62 28t-80.5 22.5t-80.5 31t-62 54t-25 92q0 57 21 100.5t56.5 72t82.5 43t100 14.5q66 0 115.5 -16t82.5 -43.5t50 -65t17 -80.5h-150q0 34 -31 54.5t-84 20.5
q-56 0 -80.5 -25t-24.5 -55t25 -46.5t62 -28t80.5 -23t80.5 -32.5t62 -56t25 -94q0 -53 -20.5 -95.5t-57.5 -72.5t-88.5 -46t-113.5 -16zM499 915h135l-144 -150h-110z" />
    <glyph glyph-name="sacute" unicode="&#x15b;" horiz-adv-x="515" 
d="M305 -10q-117 0 -180 42t-72 133h149q4 -23 30.5 -36.5t70.5 -13.5q70 0 70 40q0 21 -19.5 32t-49 19t-64 16t-64 23.5t-49 42.5t-19.5 72q0 37 14 70t40.5 57.5t65.5 38.5t90 14q63 0 106 -13t70.5 -35.5t41 -52.5t17.5 -64h-150q-4 15 -24.5 27.5t-63.5 12.5
q-23 0 -42.5 -8t-19.5 -27q0 -23 19.5 -34t49 -18.5t64 -15t64 -23.5t49 -44t19.5 -75q0 -39 -14.5 -72t-41.5 -57t-66.5 -37.5t-90.5 -13.5zM419 760h135l-144 -150h-110z" />
    <glyph glyph-name="Scircumflex" unicode="&#x15c;" horiz-adv-x="625" 
d="M352 -10q-131 0 -207.5 56t-77.5 164h152q8 -41 45 -65.5t98 -24.5q57 0 86 23t29 62q0 31 -25 47.5t-62 28t-80.5 22.5t-80.5 31t-62 54t-25 92q0 57 21 100.5t56.5 72t82.5 43t100 14.5q66 0 115.5 -16t82.5 -43.5t50 -65t17 -80.5h-150q0 34 -31 54.5t-84 20.5
q-56 0 -80.5 -25t-24.5 -55t25 -46.5t62 -28t80.5 -23t80.5 -32.5t62 -56t25 -94q0 -53 -20.5 -95.5t-57.5 -72.5t-88.5 -46t-113.5 -16zM425 920h95l105 -155h-109l-49 80h-5l-81 -80h-121z" />
    <glyph glyph-name="scircumflex" unicode="&#x15d;" horiz-adv-x="515" 
d="M305 -10q-117 0 -180 42t-72 133h149q4 -23 30.5 -36.5t70.5 -13.5q70 0 70 40q0 21 -19.5 32t-49 19t-64 16t-64 23.5t-49 42.5t-19.5 72q0 37 14 70t40.5 57.5t65.5 38.5t90 14q63 0 106 -13t70.5 -35.5t41 -52.5t17.5 -64h-150q-4 15 -24.5 27.5t-63.5 12.5
q-23 0 -42.5 -8t-19.5 -27q0 -23 19.5 -34t49 -18.5t64 -15t64 -23.5t49 -44t19.5 -75q0 -39 -14.5 -72t-41.5 -57t-66.5 -37.5t-90.5 -13.5zM345 765h95l105 -155h-109l-49 80h-5l-81 -80h-121z" />
    <glyph glyph-name="Scedilla" unicode="&#x15e;" horiz-adv-x="625" 
d="M226 -150h60q30 0 30 25q0 11 -5 18t-21 7h-44l11 55l25 40q-100 14 -157 68t-58 147h152q8 -41 45 -65.5t98 -24.5q57 0 86 23t29 62q0 31 -25 47.5t-62 28t-80.5 22.5t-80.5 31t-62 54t-25 92q0 57 21 100.5t56.5 72t82.5 43t100 14.5q66 0 115.5 -16t82.5 -43.5
t50 -65t17 -80.5h-150q0 34 -31 54.5t-84 20.5q-56 0 -80.5 -25t-24.5 -55t25 -46.5t62 -28t80.5 -23t80.5 -32.5t62 -56t25 -94q0 -52 -20 -94t-56 -72t-86 -46.5t-110 -17.5l-15 -24q29 -6 47.5 -27.5t18.5 -53.5q0 -26 -9.5 -47t-25.5 -36t-37 -23.5t-43 -8.5h-84z" />
    <glyph glyph-name="scedilla" unicode="&#x15f;" horiz-adv-x="515" 
d="M173 -150h60q30 0 30 25q0 11 -5 18t-21 7h-44l11 55l26 40q-162 24 -177 170h149q4 -23 30.5 -36.5t70.5 -13.5q70 0 70 40q0 21 -19.5 32t-49 19t-64 16t-64 23.5t-49 42.5t-19.5 72q0 37 14 70t40.5 57.5t65.5 38.5t90 14q63 0 106 -13t70.5 -35.5t41 -52.5t17.5 -64
h-150q-4 15 -24.5 27.5t-63.5 12.5q-23 0 -42.5 -8t-19.5 -27q0 -23 19.5 -34t49 -18.5t64 -15t64 -23.5t49 -44t19.5 -75q0 -79 -55 -129t-156 -51l-15 -24q29 -6 47.5 -27.5t18.5 -53.5q0 -26 -9.5 -47t-25.5 -36t-37 -23.5t-43 -8.5h-84z" />
    <glyph glyph-name="Scaron" unicode="&#x160;" horiz-adv-x="625" 
d="M352 -10q-131 0 -207.5 56t-77.5 164h152q8 -41 45 -65.5t98 -24.5q57 0 86 23t29 62q0 31 -25 47.5t-62 28t-80.5 22.5t-80.5 31t-62 54t-25 92q0 57 21 100.5t56.5 72t82.5 43t100 14.5q66 0 115.5 -16t82.5 -43.5t50 -65t17 -80.5h-150q0 34 -31 54.5t-84 20.5
q-56 0 -80.5 -25t-24.5 -55t25 -46.5t62 -28t80.5 -23t80.5 -32.5t62 -56t25 -94q0 -53 -20.5 -95.5t-57.5 -72.5t-88.5 -46t-113.5 -16zM290 925h105l50 -80h5l80 80h125l-165 -155h-95z" />
    <glyph glyph-name="scaron" unicode="&#x161;" horiz-adv-x="515" 
d="M305 -10q-117 0 -180 42t-72 133h149q4 -23 30.5 -36.5t70.5 -13.5q70 0 70 40q0 21 -19.5 32t-49 19t-64 16t-64 23.5t-49 42.5t-19.5 72q0 37 14 70t40.5 57.5t65.5 38.5t90 14q63 0 106 -13t70.5 -35.5t41 -52.5t17.5 -64h-150q-4 15 -24.5 27.5t-63.5 12.5
q-23 0 -42.5 -8t-19.5 -27q0 -23 19.5 -34t49 -18.5t64 -15t64 -23.5t49 -44t19.5 -75q0 -39 -14.5 -72t-41.5 -57t-66.5 -37.5t-90.5 -13.5zM200 765h105l50 -80h5l80 80h125l-165 -155h-95z" />
    <glyph glyph-name="uni0162" unicode="&#x162;" horiz-adv-x="595" 
d="M220 -150h60q30 0 30 25q0 11 -5 18t-21 7h-44l11 55l29 45h-70l109 565h-210l27 135h570l-27 -135h-210l-109 -565l-21 -34q29 -6 47.5 -27.5t18.5 -53.5q0 -26 -9.5 -47t-25.5 -36t-37 -23.5t-43 -8.5h-84z" />
    <glyph glyph-name="uni0163" unicode="&#x163;" horiz-adv-x="405" 
d="M120 -150h60q30 0 30 25q0 11 -5 18t-21 7h-44l11 55l39 62q-31 17 -46 46t-15 67q0 8 1 18.5t3 21.5l44 230h-85l26 130h85l47 140h120l-27 -140h125l-26 -130h-125l-42 -215q-1 -4 -1 -12q0 -17 11 -30t31 -13h74l-25 -130h-96h-9l-21 -34q29 -6 47.5 -27.5t18.5 -53.5
q0 -26 -9.5 -47t-25.5 -36t-37 -23.5t-43 -8.5h-84z" />
    <glyph glyph-name="Tcaron" unicode="&#x164;" horiz-adv-x="595" 
d="M319 565h-210l27 135h570l-27 -135h-210l-109 -565h-150zM270 925h105l50 -80h5l80 80h125l-165 -155h-95z" />
    <glyph glyph-name="tcaron" unicode="&#x165;" horiz-adv-x="503" 
d="M269 0q-71 0 -105.5 36.5t-34.5 93.5q0 8 1 18.5t3 21.5l44 230h-85l26 130h85l47 140h120l-27 -140h125l-26 -130h-125l-42 -215q-1 -4 -1 -12q0 -17 11 -30t31 -13h74l-25 -130h-96v0zM560 700h120l-108 -170h-90z" />
    <glyph glyph-name="Tbar" unicode="&#x166;" horiz-adv-x="595" 
d="M274 330h-155l25 130h155l20 105h-210l27 135h570l-27 -135h-210l-20 -105h155l-25 -130h-155l-64 -330h-150z" />
    <glyph glyph-name="tbar" unicode="&#x167;" horiz-adv-x="405" 
d="M269 0q-71 0 -105.5 36.5t-34.5 93.5q0 8 1 18.5t3 21.5l12 65h-85l24 120h84l11 55h-85l24 120h85l47 140h120l-27 -140h125l-24 -120h-125l-11 -55h126l-24 -120h-125l-10 -50q-1 -4 -1 -12q0 -17 11 -30t31 -13h74l-25 -130h-96v0z" />
    <glyph glyph-name="Umacron" unicode="&#x16a;" horiz-adv-x="720" 
d="M390 -10q-62 0 -112.5 17.5t-86.5 50.5t-56 81.5t-20 110.5q0 33 8 76l73 374h150l-76 -387q-2 -14 -3.5 -25.5t-1.5 -22.5q0 -68 37 -104t98 -36q57 0 98.5 43t57.5 122l80 410h150l-83 -425q-13 -68 -41 -120.5t-68.5 -89.5t-92 -56t-111.5 -19zM373 885h300l-18 -95
h-300z" />
    <glyph glyph-name="umacron" unicode="&#x16b;" horiz-adv-x="595" 
d="M265 -10q-32 0 -62 11t-53.5 33t-37.5 55t-14 76q0 19 1.5 31.5t3.5 23.5l60 310h140l-57 -295q-2 -8 -2.5 -17t-0.5 -13q0 -90 85 -90q42 0 71 27.5t38 72.5l61 315h140l-103 -530h-120l-5 55h-5q-23 -26 -59 -45.5t-81 -19.5zM278 725h300l-18 -95h-300z" />
    <glyph glyph-name="Ubreve" unicode="&#x16c;" horiz-adv-x="720" 
d="M390 -10q-62 0 -112.5 17.5t-86.5 50.5t-56 81.5t-20 110.5q0 33 8 76l73 374h150l-76 -387q-2 -14 -3.5 -25.5t-1.5 -22.5q0 -68 37 -104t98 -36q57 0 98.5 43t57.5 122l80 410h150l-83 -425q-13 -68 -41 -120.5t-68.5 -89.5t-92 -56t-111.5 -19zM508 765q-32 0 -61.5 8
t-52 26t-36 46.5t-13.5 69.5h100q0 -30 18.5 -45t44.5 -15q34 0 51 15.5t26 44.5h100q-18 -72 -63.5 -111t-113.5 -39z" />
    <glyph glyph-name="ubreve" unicode="&#x16d;" horiz-adv-x="595" 
d="M265 -10q-32 0 -62 11t-53.5 33t-37.5 55t-14 76q0 19 1.5 31.5t3.5 23.5l60 310h140l-57 -295q-2 -8 -2.5 -17t-0.5 -13q0 -90 85 -90q42 0 71 27.5t38 72.5l61 315h140l-103 -530h-120l-5 55h-5q-23 -26 -59 -45.5t-81 -19.5zM418 610q-32 0 -61.5 8t-52 26t-36 46.5
t-13.5 69.5h100q0 -30 18.5 -45t44.5 -15q34 0 51 15.5t26 44.5h100q-18 -72 -63.5 -111t-113.5 -39z" />
    <glyph glyph-name="Uring" unicode="&#x16e;" horiz-adv-x="720" 
d="M390 -10q-62 0 -112.5 17.5t-86.5 50.5t-56 81.5t-20 110.5q0 33 8 76l73 374h150l-76 -387q-2 -14 -3.5 -25.5t-1.5 -22.5q0 -68 37 -104t98 -36q57 0 98.5 43t57.5 122l80 410h150l-83 -425q-13 -68 -41 -120.5t-68.5 -89.5t-92 -56t-111.5 -19zM495 740
q-45 0 -72.5 27.5t-27.5 72.5q0 27 9.5 49t26 38t38 24.5t46.5 8.5q45 0 72.5 -27.5t27.5 -72.5q0 -27 -9.5 -49t-26 -38t-38 -24.5t-46.5 -8.5zM500 810q19 0 32 13t13 32q0 15 -10 25t-25 10q-19 0 -32 -13t-13 -32q0 -15 10 -25t25 -10z" />
    <glyph glyph-name="uring" unicode="&#x16f;" horiz-adv-x="595" 
d="M265 -10q-32 0 -62 11t-53.5 33t-37.5 55t-14 76q0 19 1.5 31.5t3.5 23.5l60 310h140l-57 -295q-2 -8 -2.5 -17t-0.5 -13q0 -90 85 -90q42 0 71 27.5t38 72.5l61 315h140l-103 -530h-120l-5 55h-5q-23 -26 -59 -45.5t-81 -19.5zM405 590q-45 0 -72.5 27.5t-27.5 72.5
q0 27 9.5 49t26 38t38 24.5t46.5 8.5q45 0 72.5 -27.5t27.5 -72.5q0 -27 -9.5 -49t-26 -38t-38 -24.5t-46.5 -8.5zM410 660q19 0 32 13t13 32q0 15 -10 25t-25 10q-19 0 -32 -13t-13 -32q0 -15 10 -25t25 -10z" />
    <glyph glyph-name="Uhungarumlaut" unicode="&#x170;" horiz-adv-x="720" 
d="M390 -10q-62 0 -112.5 17.5t-86.5 50.5t-56 81.5t-20 110.5q0 33 8 76l73 374h150l-76 -387q-2 -14 -3.5 -25.5t-1.5 -22.5q0 -68 37 -104t98 -36q57 0 98.5 43t57.5 122l80 410h150l-83 -425q-13 -68 -41 -120.5t-68.5 -89.5t-92 -56t-111.5 -19zM464 915h135l-149 -150
h-105zM644 915h135l-149 -150h-105z" />
    <glyph glyph-name="uhungarumlaut" unicode="&#x171;" horiz-adv-x="595" 
d="M265 -10q-32 0 -62 11t-53.5 33t-37.5 55t-14 76q0 19 1.5 31.5t3.5 23.5l60 310h140l-57 -295q-2 -8 -2.5 -17t-0.5 -13q0 -90 85 -90q42 0 71 27.5t38 72.5l61 315h140l-103 -530h-120l-5 55h-5q-23 -26 -59 -45.5t-81 -19.5zM379 760h135l-149 -150h-105zM559 760h135
l-149 -150h-105z" />
    <glyph glyph-name="Uogonek" unicode="&#x172;" horiz-adv-x="720" 
d="M375 -210q-71 0 -103 26t-32 64q0 23 8.5 41.5t21 33t28 24.5t29.5 16q-97 16 -154.5 81.5t-57.5 173.5q0 33 8 76l73 374h150l-76 -387q-2 -14 -3.5 -25.5t-1.5 -22.5q0 -68 37 -104t98 -36q57 0 98.5 43t57.5 122l80 410h150l-83 -425q-26 -131 -103.5 -204.5
t-190.5 -79.5q-29 -17 -46.5 -36.5t-17.5 -44.5q0 -35 56 -35h20l-16 -85h-30v0z" />
    <glyph glyph-name="uogonek" unicode="&#x173;" horiz-adv-x="595" 
d="M484 -210q-71 0 -103 26t-32 64q0 26 10.5 46.5t26 35.5t33 24t31.5 14h-35l-5 55h-5q-23 -26 -59 -45.5t-81 -19.5q-32 0 -62 11t-53.5 33t-37.5 55t-14 76q0 19 1.5 31.5t3.5 23.5l60 310h140l-57 -295q-2 -8 -2.5 -17t-0.5 -13q0 -90 85 -90q42 0 71 27.5t38 72.5
l61 315h140l-103 -530q-36 -20 -58.5 -41t-22.5 -49q0 -35 56 -35h20l-16 -85h-30v0z" />
    <glyph glyph-name="Wcircumflex" unicode="&#x174;" horiz-adv-x="950" 
d="M136 700h148l15 -485h5l215 485h160l25 -485h5l205 485h162l-321 -700h-165l-26 485l-214 -485h-165zM590 920h95l105 -155h-109l-49 80h-5l-81 -80h-121z" />
    <glyph glyph-name="wcircumflex" unicode="&#x175;" horiz-adv-x="805" 
d="M103 530h137l21 -355h5l159 355h145l21 -355h5l159 355h143l-248 -530h-159l-25 335h-5l-155 -335h-161zM490 765h95l105 -155h-109l-49 80h-5l-81 -80h-121z" />
    <glyph glyph-name="Ycircumflex" unicode="&#x176;" horiz-adv-x="610" 
d="M266 240l-155 460h150l97 -305h5l218 305h170l-335 -460l-46 -240h-150zM410 920h95l105 -155h-109l-49 80h-5l-81 -80h-121z" />
    <glyph glyph-name="ycircumflex" unicode="&#x177;" horiz-adv-x="560" 
d="M199 9l-111 521h148l62 -345h4l194 345h162l-432 -730h-152zM350 765h95l105 -155h-109l-49 80h-5l-81 -80h-121z" />
    <glyph glyph-name="Ydieresis" unicode="&#x178;" horiz-adv-x="610" 
d="M266 240l-155 460h150l97 -305h5l218 305h170l-335 -460l-46 -240h-150zM335 770q-30 0 -47.5 19.5t-17.5 45.5q0 34 22.5 54.5t52.5 20.5t47.5 -19.5t17.5 -45.5q0 -34 -22.5 -54.5t-52.5 -20.5zM535 770q-30 0 -47.5 19.5t-17.5 45.5q0 34 22.5 54.5t52.5 20.5
t47.5 -19.5t17.5 -45.5q0 -34 -22.5 -54.5t-52.5 -20.5z" />
    <glyph glyph-name="Zacute" unicode="&#x179;" horiz-adv-x="600" 
d="M46 110l422 460h-323l26 130h520l-22 -110l-422 -460h338l-25 -130h-535zM494 915h135l-144 -150h-110z" />
    <glyph glyph-name="zacute" unicode="&#x17a;" horiz-adv-x="490" 
d="M45 105l298 300h-230l25 125h415l-21 -105l-298 -300h245l-24 -125h-430zM414 760h135l-144 -150h-110z" />
    <glyph glyph-name="Zdotaccent" unicode="&#x17b;" horiz-adv-x="600" 
d="M46 110l422 460h-323l26 130h520l-22 -110l-422 -460h338l-25 -130h-535zM435 770q-30 0 -47.5 19.5t-17.5 45.5q0 34 22.5 54.5t52.5 20.5t47.5 -19.5t17.5 -45.5q0 -34 -22.5 -54.5t-52.5 -20.5z" />
    <glyph glyph-name="zdotaccent" unicode="&#x17c;" horiz-adv-x="490" 
d="M45 105l298 300h-230l25 125h415l-21 -105l-298 -300h245l-24 -125h-430zM355 615q-30 0 -47.5 19.5t-17.5 45.5q0 34 22.5 54.5t52.5 20.5t47.5 -19.5t17.5 -45.5q0 -34 -22.5 -54.5t-52.5 -20.5z" />
    <glyph glyph-name="Zcaron" unicode="&#x17d;" horiz-adv-x="600" 
d="M46 110l422 460h-323l26 130h520l-22 -110l-422 -460h338l-25 -130h-535zM280 925h105l50 -80h5l80 80h125l-165 -155h-95z" />
    <glyph glyph-name="zcaron" unicode="&#x17e;" horiz-adv-x="490" 
d="M45 105l298 300h-230l25 125h415l-21 -105l-298 -300h245l-24 -125h-430zM200 765h105l50 -80h5l80 80h125l-165 -155h-95z" />
    <glyph glyph-name="uni018F" unicode="&#x18f;" horiz-adv-x="730" 
d="M403 -10q-147 0 -223.5 77.5t-76.5 217.5q0 20 2 40.5t4 37.5q3 19 6 37h498v5q0 87 -45 128.5t-120 41.5q-53 0 -87 -25t-53 -55h-163q18 43 46.5 82t67.5 68.5t87.5 47t106.5 17.5q73 0 130.5 -20.5t97.5 -58.5t61 -91.5t21 -119.5q0 -101 -29 -181t-78 -135.5
t-114.5 -84.5t-138.5 -29zM408 125q64 0 115.5 42.5t73.5 117.5h-349q0 -160 160 -160z" />
    <glyph glyph-name="florin" unicode="&#x192;" horiz-adv-x="460" 
d="M-7 -45h49q34 0 49 11t22 34l98 330h-92l37 130h95l35 115q11 36 26 63t38 45t55.5 27.5t77.5 9.5h95l-41 -135h-50q-34 0 -49 -11t-22 -34l-25 -80h115l-37 -130h-116l-111 -365q-11 -36 -26 -63t-38 -45t-55.5 -27.5t-77.5 -9.5h-94z" />
    <glyph glyph-name="Gacute" unicode="&#x1f4;" horiz-adv-x="725" 
d="M413 -10q-73 0 -130.5 20.5t-97.5 58.5t-61 91.5t-21 119.5q0 101 29 181t78 135.5t114.5 84.5t138.5 29q135 0 210 -62.5t90 -167.5h-152q-7 19 -19 36t-30.5 30t-44 21t-59.5 8q-39 0 -76 -17t-65.5 -51.5t-46 -87.5t-17.5 -124q0 -87 45 -128.5t120 -41.5
q62 0 106 36.5t58 93.5h-165l23 120h320l-16 -82q-15 -76 -46.5 -133t-75 -94.5t-97 -56.5t-112.5 -19zM559 915h135l-144 -150h-110z" />
    <glyph glyph-name="gacute" unicode="&#x1f5;" horiz-adv-x="605" 
d="M300 -200q-120 0 -182 47t-73 133h143q4 -15 15 -25.5t26 -17t32 -9.5t34 -3q28 0 48 7t33 19t20.5 28.5t11.5 35.5l14 75h-5q-8 -9 -20 -19.5t-28.5 -19.5t-37.5 -15t-46 -6q-94 0 -147.5 54t-53.5 149q0 73 20 130t55 96.5t82.5 60t103.5 20.5q32 0 56 -6t42 -16
t31 -22.5t22 -25.5h5l27 60h120l-103 -530q-20 -98 -79.5 -149t-165.5 -51zM327 155q28 0 52.5 11t42.5 31t28.5 48.5t10.5 64.5q0 48 -29.5 76.5t-74.5 28.5q-29 0 -53 -11t-42 -31t-28 -48.5t-10 -64.5q0 -48 29 -76.5t74 -28.5zM474 760h135l-144 -150h-110z" />
    <glyph glyph-name="Aringacute" unicode="&#x1fa;" horiz-adv-x="675" 
d="M490 730q-45 0 -72.5 27.5t-27.5 72.5q0 27 9.5 49t26 38t38 24.5t46.5 8.5h2l34 60h105l-74 -83q33 -28 33 -77q0 -27 -9.5 -49t-26 -38t-38 -24.5t-46.5 -8.5zM495 800q19 0 32 13t13 32q0 15 -10 25t-25 10q-19 0 -32 -13t-13 -32q0 -15 10 -25t25 -10zM391 700h185
l114 -700h-148l-20 130h-285l-70 -130h-162zM499 265l-39 265h-5l-143 -265h187z" />
    <glyph glyph-name="aringacute" unicode="&#x1fb;" horiz-adv-x="560" 
d="M400 580q-45 0 -72.5 27.5t-27.5 72.5q0 27 9.5 49t26 38t38 24.5t46.5 8.5h2l34 60h105l-74 -83q33 -28 33 -77q0 -27 -9.5 -49t-26 -38t-38 -24.5t-46.5 -8.5zM405 650q19 0 32 13t13 32q0 15 -10 25t-25 10q-19 0 -32 -13t-13 -32q0 -15 10 -25t25 -10zM235 -10
q-79 0 -124 41t-45 109q0 39 14.5 72t41 57t64.5 37.5t85 13.5h156l3 18q2 10 2 17q0 29 -22 47t-64 18q-59 0 -83 -45h-140q12 36 33 66t50.5 52t67 34.5t82.5 12.5q49 0 88.5 -11.5t68 -34t44 -54.5t15.5 -72q0 -8 -1 -21.5t-4 -28.5l-62 -318h-120l-5 55h-5
q-20 -26 -55.5 -45.5t-84.5 -19.5zM285 105q42 0 74.5 22t43.5 73l4 20h-127q-21 0 -35 -5t-22.5 -13.5t-12.5 -19.5t-4 -22q0 -23 20.5 -39t58.5 -16z" />
    <glyph glyph-name="AEacute" unicode="&#x1fc;" horiz-adv-x="960" 
d="M451 700h590l-27 -135h-320l-29 -149h300l-24 -126h-300l-30 -155h330l-26 -135h-480l27 140h-228l-97 -140h-172zM487 270l56 290h-18l-201 -290h163zM724 915h135l-144 -150h-110z" />
    <glyph glyph-name="aeacute" unicode="&#x1fd;" horiz-adv-x="913" 
d="M255 -10q-47 0 -82.5 11.5t-59 31.5t-35.5 47.5t-12 59.5q0 34 12.5 65.5t37.5 56t62 39t87 14.5h162l3 20q2 10 2 19q0 25 -19.5 45.5t-66.5 20.5q-59 0 -83 -45h-140q11 36 32 66t50.5 52t67.5 34.5t84 12.5q59 0 97.5 -21.5t64.5 -63.5q13 17 32.5 32.5t43 27
t50.5 18.5t55 7q58 0 101.5 -17.5t73 -48t44 -71.5t14.5 -88q0 -19 -2.5 -37t-4.5 -32q-3 -17 -6 -31h-370q4 -49 32 -74.5t73 -25.5q23 0 52 12t47 38h157q-17 -43 -45 -76t-62 -55t-71 -33t-73 -11q-43 0 -76 10t-57 26t-40 35.5t-25 38.5q-29 -45 -80.5 -77.5
t-126.5 -32.5zM285 105q42 0 75 22.5t44 73.5l3 14h-132q-34 0 -51.5 -16t-17.5 -39t20.5 -39t58.5 -16zM797 315q-3 44 -28.5 72t-74.5 28q-39 0 -77 -25.5t-53 -74.5h233zM614 760h135l-144 -150h-110z" />
    <glyph glyph-name="Oslashacute" unicode="&#x1fe;" horiz-adv-x="740" 
d="M168 87q-65 74 -65 193q0 101 29 181t78 135.5t114.5 84.5t138.5 29q46 0 85.5 -8.5t72.5 -23.5l36 47h137l-86 -112q32 -37 48.5 -85.5t16.5 -107.5q0 -101 -29 -181t-78 -135.5t-114.5 -84.5t-138.5 -29q-91 0 -158 32l-36 -47h-137zM532 562q-16 7 -35 10t-39 3
q-39 0 -76 -17t-65.5 -51.5t-46 -87.5t-17.5 -124q0 -23 3.5 -43t9.5 -37zM418 125q39 0 76 17t65.5 51.5t46 87.5t17.5 124q0 45 -14 79l-266 -347q33 -12 75 -12zM559 915h135l-144 -150h-110z" />
    <glyph glyph-name="oslashacute" unicode="&#x1ff;" horiz-adv-x="590" 
d="M125 74q-43 57 -43 141q0 79 23 139.5t62 101.5t90.5 62.5t107.5 21.5q73 0 126 -24l28 34h125l-77 -94q43 -55 43 -141q0 -79 -23 -139.5t-62 -102t-90.5 -62.5t-107.5 -21q-74 0 -126 24l-28 -34h-125zM402 409q-18 6 -37 6q-24 0 -49.5 -10.5t-46.5 -33t-34 -57.5
t-13 -84q0 -20 3 -35zM327 115q24 0 49.5 10.5t46.5 33t34 57.5t13 84q0 20 -4 35l-177 -214q18 -6 38 -6zM459 760h135l-144 -150h-110z" />
    <glyph glyph-name="Scommaaccent" unicode="&#x218;" horiz-adv-x="625" 
d="M352 -10q-131 0 -207.5 56t-77.5 164h152q8 -41 45 -65.5t98 -24.5q57 0 86 23t29 62q0 31 -25 47.5t-62 28t-80.5 22.5t-80.5 31t-62 54t-25 92q0 57 21 100.5t56.5 72t82.5 43t100 14.5q66 0 115.5 -16t82.5 -43.5t50 -65t17 -80.5h-150q0 34 -31 54.5t-84 20.5
q-56 0 -80.5 -25t-24.5 -55t25 -46.5t62 -28t80.5 -23t80.5 -32.5t62 -56t25 -94q0 -53 -20.5 -95.5t-57.5 -72.5t-88.5 -46t-113.5 -16zM267 -85h120l-108 -170h-89z" />
    <glyph glyph-name="scommaaccent" unicode="&#x219;" horiz-adv-x="515" 
d="M305 -10q-117 0 -180 42t-72 133h149q4 -23 30.5 -36.5t70.5 -13.5q70 0 70 40q0 21 -19.5 32t-49 19t-64 16t-64 23.5t-49 42.5t-19.5 72q0 37 14 70t40.5 57.5t65.5 38.5t90 14q63 0 106 -13t70.5 -35.5t41 -52.5t17.5 -64h-150q-4 15 -24.5 27.5t-63.5 12.5
q-23 0 -42.5 -8t-19.5 -27q0 -23 19.5 -34t49 -18.5t64 -15t64 -23.5t49 -44t19.5 -75q0 -39 -14.5 -72t-41.5 -57t-66.5 -37.5t-90.5 -13.5zM212 -85h120l-108 -170h-89z" />
    <glyph glyph-name="uni021A" unicode="&#x21a;" horiz-adv-x="595" 
d="M319 565h-210l27 135h570l-27 -135h-210l-109 -565h-150zM207 -85h120l-108 -170h-89z" />
    <glyph glyph-name="uni021B" unicode="&#x21b;" horiz-adv-x="405" 
d="M269 0q-71 0 -105.5 36.5t-34.5 93.5q0 8 1 18.5t3 21.5l44 230h-85l26 130h85l47 140h120l-27 -140h125l-26 -130h-125l-42 -215q-1 -4 -1 -12q0 -17 11 -30t31 -13h74l-25 -130h-96v0zM157 -85h120l-108 -170h-89z" />
    <glyph glyph-name="uni0232" unicode="&#x232;" horiz-adv-x="610" 
d="M266 240l-155 460h150l97 -305h5l218 305h170l-335 -460l-46 -240h-150zM298 885h300l-18 -95h-300z" />
    <glyph glyph-name="uni0233" unicode="&#x233;" horiz-adv-x="560" 
d="M199 9l-111 521h148l62 -345h4l194 345h162l-432 -730h-152zM248 725h300l-18 -95h-300z" />
    <glyph glyph-name="uni0244" unicode="&#x244;" horiz-adv-x="740" 
d="M400 -10q-62 0 -112.5 17.5t-86.5 50.5t-56 81.5t-20 110.5q0 33 8 76l18 94h-65l22 115h66l32 165h150l-33 -165h291l32 165h150l-32 -165h64l-22 -115h-65l-28 -145q-13 -68 -41 -120.5t-68.5 -89.5t-92 -56t-111.5 -19zM410 125q57 0 98.5 43t57.5 122l25 130h-290
l-21 -107q-2 -14 -3.5 -25.5t-1.5 -22.5q0 -68 37 -104t98 -36z" />
    <glyph glyph-name="uni0259" unicode="&#x259;" horiz-adv-x="585" 
d="M322 -10q-54 0 -98.5 15t-76 43.5t-48.5 70.5t-17 96q0 19 2 35.5t4 30.5q3 15 7 29h370q-3 55 -34 80t-71 25q-21 0 -51 -12t-49 -38h-156q18 43 46 76t61.5 55t71.5 33t77 11q117 0 181 -59.5t64 -165.5q0 -79 -23 -139.5t-62 -102t-90.5 -62.5t-107.5 -21zM325 115
q32 0 67.5 21.5t55.5 68.5h-229q6 -45 34 -67.5t72 -22.5z" />
    <glyph glyph-name="uni0289" unicode="&#x289;" horiz-adv-x="635" 
d="M285 -10q-32 0 -62 11t-53.5 33t-37.5 55t-14 76q0 19 1.5 31.5t3.5 23.5l23 120h-60l21 110h60l16 80h140l-16 -80h195l16 80h140l-15 -80h59l-21 -110h-60l-66 -340h-120l-5 55h-5q-23 -26 -59 -45.5t-81 -19.5zM348 115q42 0 71 27.5t38 72.5l24 125h-195l-20 -105
q-2 -8 -2.5 -17t-0.5 -13q0 -90 85 -90z" />
    <glyph glyph-name="uni02BC" unicode="&#x2bc;" horiz-adv-x="220" 
d="M211 700h120l-108 -170h-90z" />
    <glyph glyph-name="circumflex" unicode="&#x2c6;" horiz-adv-x="425" 
d="M313 765h95l105 -155h-109l-49 80h-5l-81 -80h-121z" />
    <glyph glyph-name="caron" unicode="&#x2c7;" horiz-adv-x="425" 
d="M177 765h105l50 -80h5l80 80h125l-165 -155h-95z" />
    <glyph glyph-name="breve" unicode="&#x2d8;" horiz-adv-x="400" 
d="M330 610q-32 0 -61.5 8t-52 26t-36 46.5t-13.5 69.5h100q0 -30 18.5 -45t44.5 -15q34 0 51 15.5t26 44.5h100q-18 -72 -63.5 -111t-113.5 -39z" />
    <glyph glyph-name="dotaccent" unicode="&#x2d9;" horiz-adv-x="200" 
d="M220 615q-30 0 -47.5 19.5t-17.5 45.5q0 34 22.5 54.5t52.5 20.5t47.5 -19.5t17.5 -45.5q0 -34 -22.5 -54.5t-52.5 -20.5z" />
    <glyph glyph-name="ring" unicode="&#x2da;" horiz-adv-x="280" 
d="M253 590q-45 0 -72.5 27.5t-27.5 72.5q0 27 9.5 49t26 38t38 24.5t46.5 8.5q45 0 72.5 -27.5t27.5 -72.5q0 -27 -9.5 -49t-26 -38t-38 -24.5t-46.5 -8.5zM258 660q19 0 32 13t13 32q0 15 -10 25t-25 10q-19 0 -32 -13t-13 -32q0 -15 10 -25t25 -10z" />
    <glyph glyph-name="ogonek" unicode="&#x2db;" horiz-adv-x="240" 
d="M132 -210q-71 0 -103 26t-32 64q0 26 9 46.5t23.5 35t32.5 24t36 14.5l1 10h85l-1 -10q-36 -20 -58.5 -41t-22.5 -49q0 -35 56 -35h20l-16 -85h-30v0z" />
    <glyph glyph-name="tilde" unicode="&#x2dc;" horiz-adv-x="390" 
d="M385 615q-19 0 -35 6t-30 13.5t-26.5 14t-23.5 6.5t-17 -10t-8 -25h-95q8 57 37 91t78 34q19 0 34.5 -6.5t29 -14t26 -13.5t25.5 -6q11 0 17 10t8 25h95q-8 -57 -37 -91t-78 -34z" />
    <glyph glyph-name="hungarumlaut" unicode="&#x2dd;" horiz-adv-x="460" 
d="M267 760h135l-149 -150h-105zM447 760h135l-149 -150h-105z" />
    <glyph glyph-name="acutecomb" unicode="&#x301;" horiz-adv-x="0" 
d="M-147 915h135l-144 -150h-110z" />
    <glyph glyph-name="uni0302" unicode="&#x302;" horiz-adv-x="0" 
d="M-241 920h95l105 -155h-109l-49 80h-5l-81 -80h-121z" />
    <glyph glyph-name="uni0304" unicode="&#x304;" horiz-adv-x="0" 
d="M-343 885h300l-18 -95h-300z" />
    <glyph glyph-name="uni0306" unicode="&#x306;" horiz-adv-x="0" 
d="M-198 770q-32 0 -61.5 8t-52 26t-36 46.5t-13.5 69.5h100q0 -30 18.5 -45t44.5 -15q34 0 51 15.5t26 44.5h100q-18 -72 -63.5 -111t-113.5 -39z" />
    <glyph glyph-name="uni0307" unicode="&#x307;" horiz-adv-x="0" 
d="M-208 775q-30 0 -47.5 19.5t-17.5 45.5q0 34 22.5 54.5t52.5 20.5t47.5 -19.5t17.5 -45.5q0 -34 -22.5 -54.5t-52.5 -20.5z" />
    <glyph glyph-name="uni0308" unicode="&#x308;" horiz-adv-x="0" 
d="M-308 775q-30 0 -47.5 19.5t-17.5 45.5q0 34 22.5 54.5t52.5 20.5t47.5 -19.5t17.5 -45.5q0 -34 -22.5 -54.5t-52.5 -20.5zM-108 775q-30 0 -47.5 19.5t-17.5 45.5q0 34 22.5 54.5t52.5 20.5t47.5 -19.5t17.5 -45.5q0 -34 -22.5 -54.5t-52.5 -20.5z" />
    <glyph glyph-name="uni030A" unicode="&#x30a;" horiz-adv-x="0" 
d="M-215 750q-45 0 -72.5 27.5t-27.5 72.5q0 27 9.5 49t26 38t38 24.5t46.5 8.5q45 0 72.5 -27.5t27.5 -72.5q0 -27 -9.5 -49t-26 -38t-38 -24.5t-46.5 -8.5zM-210 820q19 0 32 13t13 32q0 15 -10 25t-25 10q-19 0 -32 -13t-13 -32q0 -15 10 -25t25 -10z" />
    <glyph glyph-name="uni030C" unicode="&#x30c;" horiz-adv-x="0" 
d="M-372 920h105l50 -80h5l80 80h125l-165 -155h-95z" />
    <glyph glyph-name="uni0326" unicode="&#x326;" horiz-adv-x="220" 
d="M58 -85h120l-108 -170h-89z" />
    <glyph glyph-name="uni0400" unicode="&#x400;" horiz-adv-x="600" 
d="M206 700h475l-27 -135h-325l-29 -150h305l-24 -125h-305l-30 -155h335l-26 -135h-485zM320 915h125l61 -150h-100z" />
    <glyph glyph-name="uni0401" unicode="&#x401;" horiz-adv-x="600" 
d="M206 700h475l-27 -135h-325l-29 -150h305l-24 -125h-305l-30 -155h335l-26 -135h-485zM355 770q-30 0 -47.5 19.5t-17.5 45.5q0 34 22.5 54.5t52.5 20.5t47.5 -19.5t17.5 -45.5q0 -34 -22.5 -54.5t-52.5 -20.5zM555 770q-30 0 -47.5 19.5t-17.5 45.5q0 34 22.5 54.5
t52.5 20.5t47.5 -19.5t17.5 -45.5q0 -34 -22.5 -54.5t-52.5 -20.5z" />
    <glyph glyph-name="uni0402" unicode="&#x402;" horiz-adv-x="715" 
d="M269 565h-170l27 135h485l-27 -135h-165l-23 -120q16 2 34 5q15 2 32.5 3.5t32.5 1.5q56 0 100.5 -14.5t75.5 -40t47.5 -61.5t16.5 -79q0 -58 -21 -106t-57.5 -82t-86 -53t-105.5 -19h-85l26 135h49q26 0 49.5 6t41.5 18.5t28.5 32.5t10.5 48q0 45 -35 65t-90 20
q-30 0 -54.5 -5.5t-35.5 -9.5l-60 -310h-150z" />
    <glyph glyph-name="uni0403" unicode="&#x403;" horiz-adv-x="535" 
d="M206 700h435l-27 -135h-285l-109 -565h-150zM494 915h135l-144 -150h-110z" />
    <glyph glyph-name="uni0404" unicode="&#x404;" horiz-adv-x="710" 
d="M413 -10q-73 0 -130.5 20.5t-97.5 58.5t-61 91.5t-21 119.5q0 101 29 181t78 135.5t114.5 84.5t138.5 29q135 0 210 -62.5t90 -167.5h-152q-7 19 -19 36t-30.5 30t-44 21t-59.5 8q-61 0 -114 -41t-77 -124h246l-24 -120h-236q2 -85 46 -125t119 -40q47 0 85.5 23t66.5 72
h158q-19 -47 -48 -88.5t-68.5 -73t-89 -50t-109.5 -18.5z" />
    <glyph glyph-name="uni0405" unicode="&#x405;" horiz-adv-x="625" 
d="M352 -10q-131 0 -207.5 56t-77.5 164h152q8 -41 45 -65.5t98 -24.5q57 0 86 23t29 62q0 31 -25 47.5t-62 28t-80.5 22.5t-80.5 31t-62 54t-25 92q0 57 21 100.5t56.5 72t82.5 43t100 14.5q66 0 115.5 -16t82.5 -43.5t50 -65t17 -80.5h-150q0 34 -31 54.5t-84 20.5
q-56 0 -80.5 -25t-24.5 -55t25 -46.5t62 -28t80.5 -23t80.5 -32.5t62 -56t25 -94q0 -53 -20.5 -95.5t-57.5 -72.5t-88.5 -46t-113.5 -16z" />
    <glyph glyph-name="uni0406" unicode="&#x406;" horiz-adv-x="290" 
d="M206 700h150l-136 -700h-150z" />
    <glyph glyph-name="uni0407" unicode="&#x407;" horiz-adv-x="290" 
d="M206 700h150l-136 -700h-150zM200 770q-30 0 -47.5 19.5t-17.5 45.5q0 34 22.5 54.5t52.5 20.5t47.5 -19.5t17.5 -45.5q0 -34 -22.5 -54.5t-52.5 -20.5zM400 770q-30 0 -47.5 19.5t-17.5 45.5q0 34 22.5 54.5t52.5 20.5t47.5 -19.5t17.5 -45.5q0 -34 -22.5 -54.5
t-52.5 -20.5z" />
    <glyph glyph-name="uni0408" unicode="&#x408;" horiz-adv-x="570" 
d="M288 -10q-49 0 -91 12.5t-73 37.5t-48.5 63.5t-17.5 91.5v20h150v-5q0 -85 85 -85q38 0 63.5 26.5t36.5 81.5l91 467h150l-94 -481q-22 -112 -88 -170.5t-164 -58.5z" />
    <glyph glyph-name="uni0409" unicode="&#x409;" horiz-adv-x="1005" 
d="M36 135h14q26 0 47.5 11.5t39.5 42.5t34.5 85.5t33.5 140.5l56 285h480l-45 -230h114q49 0 88.5 -16t67.5 -44t43.5 -66t15.5 -82q0 -57 -20 -105t-55.5 -83t-83 -54.5t-101.5 -19.5h-310l109 565h-180l-31 -160q-21 -107 -44 -186t-56 -131t-79.5 -77.5t-113.5 -25.5
h-53zM760 135q49 0 82 30.5t33 81.5q0 36 -25 62t-70 26h-110l-39 -200h129z" />
    <glyph glyph-name="uni040A" unicode="&#x40a;" horiz-adv-x="1030" 
d="M206 700h150l-50 -255h265l50 255h150l-50 -255h114q45 0 84 -13.5t68.5 -39t46 -62.5t16.5 -83q0 -54 -19.5 -99.5t-53.5 -78.5t-81 -51t-101 -18h-310l60 310h-265l-60 -310h-150zM805 135q49 0 72 27t23 70q0 36 -22.5 57t-67.5 21h-115l-34 -175h144z" />
    <glyph glyph-name="uni040B" unicode="&#x40b;" horiz-adv-x="720" 
d="M269 565h-170l27 135h485l-27 -135h-165l-23 -120q13 2 29 5q14 2 31.5 3.5t38.5 1.5q113 0 166.5 -47t53.5 -138q0 -19 -2.5 -40t-6.5 -40l-36 -190h-150l38 200q2 13 4.5 25t2.5 20q0 42 -30 61t-75 19q-34 0 -56.5 -5.5t-33.5 -9.5l-60 -310h-150z" />
    <glyph glyph-name="uni040C" unicode="&#x40c;" horiz-adv-x="630" 
d="M206 700h150l-61 -310l311 310h180l-352 -350l223 -350h-172l-203 320l-62 -320h-150zM544 915h135l-144 -150h-110z" />
    <glyph glyph-name="uni040D" unicode="&#x40d;" horiz-adv-x="755" 
d="M206 700h150l-92 -470h5l362 470h190l-136 -700h-150l92 470h-5l-362 -470h-190zM380 915h125l61 -150h-100z" />
    <glyph glyph-name="uni040E" unicode="&#x40e;" horiz-adv-x="590" 
d="M247 196l-136 504h150l89 -335h5l206 335h165l-436 -700h-165zM423 765q-32 0 -60.5 8.5t-50.5 27t-34.5 47t-12.5 67.5h100q0 -30 18.5 -45t45.5 -15q31 0 49 15t27 45h100q-20 -79 -67 -114.5t-115 -35.5z" />
    <glyph glyph-name="uni040F" unicode="&#x40f;" horiz-adv-x="710" 
d="M285 0h-215l136 700h150l-110 -565h270l110 565h150l-136 -700h-215l-29 -145h-140z" />
    <glyph glyph-name="uni0410" unicode="&#x410;" horiz-adv-x="675" 
d="M391 700h185l114 -700h-148l-20 130h-285l-70 -130h-162zM499 265l-39 265h-5l-143 -265h187z" />
    <glyph glyph-name="uni0411" unicode="&#x411;" horiz-adv-x="640" 
d="M206 700h485l-27 -135h-335l-22 -115h138q51 0 89 -16t64 -43.5t39 -65t13 -80.5q0 -54 -18.5 -99.5t-52 -77.5t-79.5 -50t-100 -18h-330zM395 135q45 0 75 27.5t30 72.5q0 34 -24 57t-66 23h-129l-35 -180h149z" />
    <glyph glyph-name="uni0412" unicode="&#x412;" horiz-adv-x="665" 
d="M206 700h309q94 0 147 -45t53 -120q0 -67 -34 -117t-91 -70q34 -17 54.5 -51t20.5 -82t-16 -88t-45 -68t-69.5 -43.5t-89.5 -15.5h-375zM425 130q42 0 68.5 22.5t26.5 67.5q0 33 -21 51.5t-59 18.5h-164l-31 -160h180zM475 410q42 0 66 24t24 66q0 30 -20.5 50t-54.5 20
h-160l-31 -160h176z" />
    <glyph glyph-name="uni0413" unicode="&#x413;" horiz-adv-x="535" 
d="M206 700h435l-27 -135h-285l-109 -565h-150z" />
    <glyph glyph-name="uni0414" unicode="&#x414;" horiz-adv-x="725" 
d="M31 135h63q46 57 71.5 134t44.5 171l51 260h490l-110 -565h85l-55 -280h-140l29 145h-415l-29 -145h-139zM491 135l83 430h-190l-24 -125q-20 -104 -46.5 -180t-67.5 -125h245z" />
    <glyph glyph-name="uni0415" unicode="&#x415;" horiz-adv-x="600" 
d="M206 700h475l-27 -135h-325l-29 -150h305l-24 -125h-305l-30 -155h335l-26 -135h-485z" />
    <glyph glyph-name="uni0416" unicode="&#x416;" horiz-adv-x="895" 
d="M299 370l-170 330h162l154 -310l61 310h150l-61 -310l276 310h184l-326 -360l183 -340h-162l-168 320l-62 -320h-150l62 320l-292 -320h-184z" />
    <glyph glyph-name="uni0417" unicode="&#x417;" horiz-adv-x="630" 
d="M360 -10q-135 0 -213.5 55.5t-78.5 164.5h150q4 -42 43 -63.5t99 -21.5q64 0 91 26t27 64q0 30 -27 52.5t-87 22.5h-75l24 125h95q57 0 86 23t29 57t-28.5 57t-96.5 23q-21 0 -41.5 -5t-38 -15t-29.5 -26.5t-16 -38.5h-150q23 106 93 163t187 57q66 0 117 -14t85 -39.5
t51 -60.5t17 -76q0 -39 -12 -70t-31.5 -53.5t-43.5 -36.5t-48 -20q38 -20 64 -55t26 -80t-18 -84t-52.5 -68.5t-84 -46t-113.5 -16.5z" />
    <glyph glyph-name="uni0418" unicode="&#x418;" horiz-adv-x="755" 
d="M206 700h150l-92 -470h5l362 470h190l-136 -700h-150l92 470h-5l-362 -470h-190z" />
    <glyph glyph-name="uni0419" unicode="&#x419;" horiz-adv-x="755" 
d="M206 700h150l-92 -470h5l362 470h190l-136 -700h-150l92 470h-5l-362 -470h-190zM523 765q-32 0 -60.5 8.5t-50.5 27t-34.5 47t-12.5 67.5h100q0 -30 18.5 -45t45.5 -15q31 0 49 15t27 45h100q-20 -79 -67 -114.5t-115 -35.5z" />
    <glyph glyph-name="uni041A" unicode="&#x41a;" horiz-adv-x="630" 
d="M206 700h150l-61 -310l311 310h180l-352 -350l223 -350h-172l-203 320l-62 -320h-150z" />
    <glyph glyph-name="uni041B" unicode="&#x41b;" horiz-adv-x="690" 
d="M36 135h14q26 0 47.5 11.5t39.5 42.5t34.5 85.5t33.5 140.5l56 285h495l-136 -700h-150l109 565h-195l-31 -160q-21 -107 -44 -186t-56 -131t-79.5 -77.5t-113.5 -25.5h-53z" />
    <glyph glyph-name="uni041C" unicode="&#x41c;" horiz-adv-x="915" 
d="M206 700h213l70 -485h5l260 485h227l-136 -700h-150l96 495h-5l-266 -495h-125l-74 495h-5l-96 -495h-150z" />
    <glyph glyph-name="uni041D" unicode="&#x41d;" horiz-adv-x="720" 
d="M206 700h150l-55 -280h280l55 280h150l-136 -700h-150l55 285h-280l-55 -285h-150z" />
    <glyph glyph-name="uni041E" unicode="&#x41e;" horiz-adv-x="740" 
d="M413 -10q-73 0 -130.5 20.5t-97.5 58.5t-61 91.5t-21 119.5q0 101 29 181t78 135.5t114.5 84.5t138.5 29t130.5 -20.5t97.5 -58.5t61 -91.5t21 -119.5q0 -101 -29 -181t-78 -135.5t-114.5 -84.5t-138.5 -29zM418 125q39 0 76 17t65.5 51.5t46 87.5t17.5 124
q0 87 -45 128.5t-120 41.5q-39 0 -76 -17t-65.5 -51.5t-46 -87.5t-17.5 -124q0 -87 45 -128.5t120 -41.5z" />
    <glyph glyph-name="uni041F" unicode="&#x41f;" horiz-adv-x="710" 
d="M206 700h570l-136 -700h-150l109 565h-270l-109 -565h-150z" />
    <glyph glyph-name="uni0420" unicode="&#x420;" horiz-adv-x="650" 
d="M206 700h269q49 0 89.5 -15t69.5 -43t45 -66.5t16 -85.5q0 -60 -20 -109.5t-55.5 -85.5t-83 -55.5t-101.5 -19.5h-173l-42 -220h-150zM433 355q51 0 81.5 33t30.5 87q0 38 -24.5 64t-67.5 26h-124l-40 -210h144z" />
    <glyph glyph-name="uni0421" unicode="&#x421;" horiz-adv-x="710" 
d="M413 -10q-73 0 -130.5 20.5t-97.5 58.5t-61 91.5t-21 119.5q0 101 29 181t78 135.5t114.5 84.5t138.5 29q135 0 210 -62.5t90 -167.5h-152q-7 19 -19 36t-30.5 30t-44 21t-59.5 8q-39 0 -76 -17t-65.5 -51.5t-46 -87.5t-17.5 -124q0 -87 45 -128.5t120 -41.5
q47 0 85.5 23t66.5 72h158q-19 -47 -48 -88.5t-68.5 -73t-89 -50t-109.5 -18.5z" />
    <glyph glyph-name="uni0422" unicode="&#x422;" horiz-adv-x="595" 
d="M319 565h-210l27 135h570l-27 -135h-210l-109 -565h-150z" />
    <glyph glyph-name="uni0423" unicode="&#x423;" horiz-adv-x="590" 
d="M247 196l-136 504h150l89 -335h5l206 335h165l-436 -700h-165z" />
    <glyph glyph-name="uni0424" unicode="&#x424;" horiz-adv-x="850" 
d="M364 70q-65 6 -115 27.5t-84 55t-51.5 77.5t-17.5 95q0 66 24 123.5t68.5 100t106 67t136.5 24.5h44l14 70h150l-14 -70q65 -6 115 -27.5t84 -55t51.5 -77.5t17.5 -95q0 -66 -24 -123.5t-68.5 -100t-106 -67t-136.5 -24.5h-44l-15 -80h-150zM450 510h-29
q-80 0 -127.5 -47.5t-47.5 -132.5q0 -53 36 -89t107 -41zM568 200q80 0 127.5 47.5t47.5 132.5q0 53 -36 89t-107 41l-61 -310h29z" />
    <glyph glyph-name="uni0425" unicode="&#x425;" horiz-adv-x="620" 
d="M284 360l-153 340h160l98 -240l192 240h180l-287 -340l161 -360h-160l-105 260l-205 -260h-180z" />
    <glyph glyph-name="uni0426" unicode="&#x426;" horiz-adv-x="750" 
d="M585 0h-515l136 700h150l-110 -565h270l110 565h150l-110 -565h85l-55 -280h-140z" />
    <glyph glyph-name="uni0427" unicode="&#x427;" horiz-adv-x="680" 
d="M500 217q-15 -5 -33 -9q-16 -3 -37 -5.5t-46 -2.5q-124 0 -186.5 57.5t-62.5 155.5q0 19 2 36t6 36l42 215h150l-43 -221q-2 -8 -3 -18t-1 -18q0 -55 36 -81.5t104 -26.5q39 0 64 7t35 11l68 347h150l-136 -700h-150z" />
    <glyph glyph-name="uni0428" unicode="&#x428;" horiz-adv-x="980" 
d="M206 700h150l-110 -565h195l110 565h150l-110 -565h195l110 565h150l-136 -700h-840z" />
    <glyph glyph-name="uni0429" unicode="&#x429;" horiz-adv-x="1020" 
d="M855 0h-785l136 700h150l-110 -565h195l110 565h150l-110 -565h195l110 565h150l-110 -565h85l-55 -280h-140z" />
    <glyph glyph-name="uni042A" unicode="&#x42a;" horiz-adv-x="715" 
d="M265 565h-161l27 135h310l-45 -230h124q49 0 88.5 -16t67.5 -44t43.5 -66t15.5 -82q0 -57 -20 -105t-55.5 -83t-83 -54.5t-101.5 -19.5h-320zM470 135q49 0 82 30.5t33 81.5q0 36 -25 62t-70 26h-120l-39 -200h139z" />
    <glyph glyph-name="uni042B" unicode="&#x42b;" horiz-adv-x="880" 
d="M206 700h150l-45 -230h114q49 0 88.5 -16t67.5 -44t43.5 -66t15.5 -82q0 -57 -20 -105t-55.5 -83t-83 -54.5t-101.5 -19.5h-310zM375 135q49 0 82 30.5t33 81.5q0 36 -25 62t-70 26h-110l-39 -200h129zM796 700h150l-136 -700h-150z" />
    <glyph glyph-name="uni042C" unicode="&#x42c;" horiz-adv-x="630" 
d="M206 700h150l-45 -230h124q49 0 88.5 -16t67.5 -44t43.5 -66t15.5 -82q0 -57 -20 -105t-55.5 -83t-83 -54.5t-101.5 -19.5h-320zM385 135q49 0 82 30.5t33 81.5q0 36 -25 62t-70 26h-120l-39 -200h139z" />
    <glyph glyph-name="uni042D" unicode="&#x42d;" horiz-adv-x="705" 
d="M378 -10q-135 0 -210 62.5t-90 167.5h152q7 -19 19 -36t30.5 -30t44 -21t59.5 -8q30 0 59.5 10t54.5 30.5t44.5 51.5t31.5 73h-239l23 120h231q-2 84 -46.5 124.5t-118.5 40.5q-47 0 -85.5 -23t-66.5 -72h-158q19 47 48 88.5t68.5 73t89 50t109.5 18.5q73 0 130.5 -20.5
t97.5 -58.5t61 -91.5t21 -119.5q0 -101 -29 -181t-78 -135.5t-114.5 -84.5t-138.5 -29z" />
    <glyph glyph-name="uni042E" unicode="&#x42e;" horiz-adv-x="980" 
d="M660 -10q-64 0 -117 18.5t-91.5 55.5t-60 92.5t-21.5 128.5h-95l-55 -285h-150l136 700h150l-55 -280h86q20 71 53.5 125.5t77 91t95 55t107.5 18.5q67 0 121 -20t91.5 -57.5t57.5 -91.5t20 -121q0 -94 -26.5 -173t-73.5 -136t-111 -89t-139 -32zM665 125q39 0 74.5 19
t62.5 55t42.5 88t15.5 118q0 47 -11.5 79.5t-31 52.5t-46 29t-56.5 9q-39 0 -74.5 -19t-62.5 -55t-42.5 -88t-15.5 -118q0 -47 11.5 -79.5t31 -52.5t46 -29t56.5 -9z" />
    <glyph glyph-name="uni042F" unicode="&#x42f;" horiz-adv-x="655" 
d="M260 265q-23 7 -44.5 23t-38 40t-27 56t-10.5 71q0 54 18 99.5t49.5 77.5t75.5 50t97 18h341l-136 -700h-150l46 240h-60l-211 -240h-185zM507 375l37 190h-164q-41 0 -65.5 -28.5t-24.5 -81.5q0 -34 23.5 -57t56.5 -23h137z" />
    <glyph glyph-name="uni0430" unicode="&#x430;" horiz-adv-x="560" 
d="M235 -10q-79 0 -124 41t-45 109q0 39 14.5 72t41 57t64.5 37.5t85 13.5h156l3 18q2 10 2 17q0 29 -22 47t-64 18q-59 0 -83 -45h-140q12 36 33 66t50.5 52t67 34.5t82.5 12.5q49 0 88.5 -11.5t68 -34t44 -54.5t15.5 -72q0 -8 -1 -21.5t-4 -28.5l-62 -318h-120l-5 55h-5
q-20 -26 -55.5 -45.5t-84.5 -19.5zM285 105q42 0 74.5 22t43.5 73l4 20h-127q-21 0 -35 -5t-22.5 -13.5t-12.5 -19.5t-4 -22q0 -23 20.5 -39t58.5 -16z" />
    <glyph glyph-name="uni0431" unicode="&#x431;" horiz-adv-x="595" 
d="M332 -10q-55 0 -100 15t-77 44.5t-49.5 73.5t-17.5 102q0 45 9 93q15 83 41 154t66 122.5t95.5 81t129.5 29.5q89 0 143.5 10t87.5 25l-26 -135q-32 -19 -82.5 -24.5t-113.5 -5.5q-76 0 -117.5 -32.5t-65.5 -96.5h5q13 15 48 32t84 17q102 0 158.5 -57.5t56.5 -157.5
q0 -66 -21 -119.5t-58 -91.5t-87.5 -58.5t-108.5 -20.5zM337 115q57 0 93.5 41.5t36.5 113.5q0 49 -28.5 77t-81.5 28q-57 0 -93.5 -41.5t-36.5 -113.5q0 -49 28.5 -77t81.5 -28z" />
    <glyph glyph-name="uni0432" unicode="&#x432;" horiz-adv-x="540" 
d="M163 530h252q75 0 115 -36t40 -89q0 -29 -7.5 -51.5t-20.5 -40t-29 -29.5t-33 -19q23 -14 41.5 -40t18.5 -60q0 -39 -14 -70t-38 -52t-55.5 -32t-67.5 -11h-305zM340 115q30 0 45 16t15 39t-13 36.5t-47 13.5h-98l-20 -105h118zM377 325q26 0 39.5 13.5t13.5 36.5
q0 40 -55 40h-95l-17 -90h114z" />
    <glyph glyph-name="uni0433" unicode="&#x433;" horiz-adv-x="440" 
d="M163 530h355l-26 -130h-215l-77 -400h-140z" />
    <glyph glyph-name="uni0434" unicode="&#x434;" horiz-adv-x="600" 
d="M30 130h48q10 11 21 26.5t21.5 37.5t19.5 52t17 69l41 215h420l-78 -400h65l-49 -250h-135l24 120h-305l-24 -120h-134zM400 130l52 270h-140l-15 -85q-13 -72 -32.5 -115.5t-43.5 -69.5h179z" />
    <glyph glyph-name="uni0435" unicode="&#x435;" horiz-adv-x="585" 
d="M327 -10q-117 0 -181 59.5t-64 165.5q0 79 23 139.5t62 101.5t90.5 62.5t107.5 21.5q54 0 98.5 -15t76 -43.5t48.5 -70.5t17 -96q0 -19 -2.5 -36t-4.5 -30q-3 -16 -6 -29h-370q3 -55 34 -80t71 -25q21 0 51 12t49 38h156q-18 -43 -46 -76t-61.5 -55t-71.5 -33t-77 -11z
M468 325q-6 45 -34 67.5t-72 22.5q-32 0 -67.5 -21.5t-55.5 -68.5h229z" />
    <glyph glyph-name="uni0436" unicode="&#x436;" horiz-adv-x="785" 
d="M232 285l-136 245h162l121 -225l44 225h140l-44 -225l209 225h180l-256 -270l152 -260h-164l-135 235l-45 -235h-140l45 235l-225 -235h-185z" />
    <glyph glyph-name="uni0437" unicode="&#x437;" horiz-adv-x="520" 
d="M300 -10q-53 0 -96 11t-74.5 33t-49.5 55t-20 76h148q4 -26 30.5 -38t56.5 -12q45 0 65 13.5t20 36.5q0 21 -16 33t-54 12h-60l23 115h62q75 0 75 45q0 23 -21 34t-59 11q-30 0 -53.5 -12t-31.5 -38h-145q9 39 26 71.5t44.5 55.5t68 35.5t96.5 12.5q102 0 161 -41
t59 -109q0 -24 -10 -44.5t-25.5 -36.5t-34 -27t-35.5 -17q13 -6 26.5 -16.5t24 -25t17.5 -32t7 -36.5q0 -36 -12.5 -66t-40 -52t-70 -34.5t-102.5 -12.5z" />
    <glyph glyph-name="uni0438" unicode="&#x438;" horiz-adv-x="610" 
d="M163 530h140l-61 -310h5l251 310h155l-103 -530h-140l61 315h-5l-251 -315h-155z" />
    <glyph glyph-name="uni0439" unicode="&#x439;" horiz-adv-x="610" 
d="M163 530h140l-61 -310h5l251 310h155l-103 -530h-140l61 315h-5l-251 -315h-155zM424 605q-32 0 -59 8.5t-47 27t-31.5 47t-11.5 67.5h100q0 -30 12 -45t42 -15q26 0 40.5 15t25.5 45h100q-18 -73 -62.5 -111.5t-108.5 -38.5z" />
    <glyph glyph-name="uni043A" unicode="&#x43a;" horiz-adv-x="545" 
d="M163 530h140l-46 -235l241 235h170l-271 -265l174 -265h-161l-163 245l-47 -245h-140z" />
    <glyph glyph-name="uni043B" unicode="&#x43b;" horiz-adv-x="580" 
d="M35 130h20q21 0 36.5 10t27.5 32.5t22.5 58.5t20.5 89l41 210h420l-102 -530h-141l77 400h-140l-21 -114q-13 -69 -31 -124t-45 -93.5t-65 -58.5t-90 -20h-57z" />
    <glyph glyph-name="uni043C" unicode="&#x43c;" horiz-adv-x="745" 
d="M163 530h190l53 -315h5l177 315h200l-103 -530h-140l64 330h-5l-184 -330h-95l-56 330h-5l-64 -330h-140z" />
    <glyph glyph-name="uni043D" unicode="&#x43d;" horiz-adv-x="590" 
d="M163 530h140l-39 -200h190l39 200h140l-103 -530h-140l38 200h-190l-38 -200h-140z" />
    <glyph glyph-name="uni043E" unicode="&#x43e;" horiz-adv-x="590" 
d="M327 -10q-117 0 -181 59.5t-64 165.5q0 79 23 139.5t62 101.5t90.5 62.5t107.5 21.5q117 0 181 -59.5t64 -165.5q0 -79 -23 -139.5t-62 -102t-90.5 -62.5t-107.5 -21zM327 115q24 0 49.5 10.5t46.5 33t34 57.5t13 84q0 30 -8.5 51.5t-23 36t-33.5 21t-40 6.5
q-24 0 -49.5 -10.5t-46.5 -33t-34 -57.5t-13 -84q0 -30 8.5 -51.5t23 -36t33.5 -21t40 -6.5z" />
    <glyph glyph-name="uni043F" unicode="&#x43f;" horiz-adv-x="590" 
d="M163 530h470l-103 -530h-140l77 400h-190l-77 -400h-140z" />
    <glyph glyph-name="uni0440" unicode="&#x440;" horiz-adv-x="615" 
d="M163 530h120l4 -55h5q25 26 61.5 45.5t81.5 19.5q94 0 147 -56.5t53 -158.5q0 -75 -19.5 -136.5t-54 -106t-82.5 -68.5t-104 -24q-34 0 -58.5 6t-43 16t-32 24t-24.5 29h-5l-51 -265h-140zM355 115q24 0 49 10.5t45.5 33t33 57.5t12.5 84q0 30 -8.5 51.5t-23 36t-33.5 21
t-40 6.5q-24 0 -49 -10.5t-45.5 -33t-33 -57.5t-12.5 -84q0 -30 8.5 -51.5t23 -36t33.5 -21t40 -6.5z" />
    <glyph glyph-name="uni0441" unicode="&#x441;" horiz-adv-x="575" 
d="M327 -10q-117 0 -181 59.5t-64 165.5q0 80 24 140.5t63 101.5t89.5 62t103.5 21q56 0 98 -13.5t71 -38.5t46 -60t25 -78h-143q-6 19 -17 31.5t-24.5 20t-28 10.5t-27.5 3q-23 0 -48 -10.5t-45.5 -33t-33.5 -57.5t-13 -84q0 -30 8.5 -51.5t23 -36t33.5 -21t40 -6.5
q19 0 36.5 6t32 15.5t25 21t16.5 22.5h145q-13 -41 -36.5 -76t-55.5 -60.5t-73 -39.5t-90 -14z" />
    <glyph glyph-name="uni0442" unicode="&#x442;" horiz-adv-x="485" 
d="M240 400h-165l26 130h470l-26 -130h-165l-77 -400h-140z" />
    <glyph glyph-name="uni0443" unicode="&#x443;" horiz-adv-x="560" 
d="M199 9l-111 521h148l62 -345h4l194 345h162l-432 -730h-152z" />
    <glyph glyph-name="uni0444" unicode="&#x444;" horiz-adv-x="750" 
d="M306 0q-54 6 -96 25t-70.5 49t-43.5 69.5t-15 86.5q0 67 23 122.5t62.5 95t92.5 61t113 21.5h37l36 190h140l-36 -190q54 -6 96 -25t70.5 -49t43.5 -69.5t15 -86.5q0 -68 -23 -123t-62.5 -94.5t-92.5 -61t-113 -21.5h-37l-39 -200h-140zM384 405h-16q-31 0 -57.5 -11
t-46.5 -31.5t-31.5 -50.5t-11.5 -67q0 -51 26.5 -83.5t82.5 -36.5zM487 125q31 0 57.5 11t46.5 31.5t31.5 50t11.5 67.5q0 51 -26.5 83.5t-82.5 36.5l-54 -280h16z" />
    <glyph glyph-name="uni0445" unicode="&#x445;" horiz-adv-x="495" 
d="M208 275l-110 255h150l62 -165l128 165h160l-210 -255l117 -275h-150l-71 180l-139 -180h-160z" />
    <glyph glyph-name="uni0446" unicode="&#x446;" horiz-adv-x="610" 
d="M455 0h-395l103 530h140l-78 -400h185l78 400h140l-78 -400h65l-49 -250h-135z" />
    <glyph glyph-name="uni0447" unicode="&#x447;" horiz-adv-x="560" 
d="M390 155q-17 -4 -37.5 -7t-43.5 -3q-54 0 -92.5 13t-63 36t-36 54t-11.5 67q0 26 6 55l31 160h140l-33 -170q-2 -7 -2 -11.5v-9.5q0 -30 23.5 -49.5t80.5 -19.5q15 0 29.5 2.5t33.5 9.5l48 248h140l-103 -530h-140z" />
    <glyph glyph-name="uni0448" unicode="&#x448;" horiz-adv-x="810" 
d="M163 530h140l-78 -400h135l78 400h140l-78 -400h135l78 400h140l-103 -530h-690z" />
    <glyph glyph-name="uni0449" unicode="&#x449;" horiz-adv-x="835" 
d="M680 0h-620l103 530h140l-78 -400h135l78 400h140l-78 -400h135l78 400h140l-78 -400h65l-49 -250h-135z" />
    <glyph glyph-name="uni044A" unicode="&#x44a;" horiz-adv-x="575" 
d="M197 400h-125l26 130h265l-33 -165h95q36 0 66 -11.5t52 -32.5t34.5 -50.5t12.5 -65.5q0 -45 -16 -82.5t-43 -65t-63.5 -42.5t-77.5 -15h-270zM380 125q30 0 50 17.5t20 47.5q0 23 -15 36.5t-45 13.5h-84l-22 -115h96z" />
    <glyph glyph-name="uni044B" unicode="&#x44b;" horiz-adv-x="735" 
d="M163 530h140l-33 -165h85q36 0 66 -11.5t52 -32.5t34.5 -50.5t12.5 -65.5q0 -45 -16 -82.5t-43 -65t-63.5 -42.5t-77.5 -15h-260zM310 125q30 0 50 17.5t20 47.5q0 23 -15 36.5t-45 13.5h-74l-22 -115h86zM638 530h140l-103 -530h-140z" />
    <glyph glyph-name="uni044C" unicode="&#x44c;" horiz-adv-x="515" 
d="M163 530h140l-33 -165h95q36 0 66 -11.5t52 -32.5t34.5 -50.5t12.5 -65.5q0 -45 -16 -82.5t-43 -65t-63.5 -42.5t-77.5 -15h-270zM320 125q30 0 50 17.5t20 47.5q0 23 -15 36.5t-45 13.5h-84l-22 -115h96z" />
    <glyph glyph-name="uni044D" unicode="&#x44d;" horiz-adv-x="570" 
d="M307 -10q-56 0 -98 13.5t-71 38.5t-46.5 60t-24.5 78h143q6 -19 17 -31.5t24.5 -20t28 -10.5t27.5 -3q34 0 68 22t54 68h-163l24 120h155q-6 45 -35.5 67.5t-67.5 22.5q-19 0 -36.5 -6t-32 -15.5t-25 -21t-16.5 -22.5h-145q13 41 36.5 76t55.5 60.5t73 39.5t90 14
q117 0 181 -59.5t64 -165.5q0 -77 -22.5 -137.5t-61 -102t-89.5 -63.5t-107 -22z" />
    <glyph glyph-name="uni044E" unicode="&#x44e;" horiz-adv-x="795" 
d="M540 -10q-106 0 -165.5 54t-66.5 156h-70l-38 -200h-140l103 530h140l-39 -200h58q14 47 38.5 85.5t57.5 66.5t74 43t88 15q116 0 175.5 -62.5t59.5 -167.5q0 -68 -20.5 -126t-57 -101.5t-87 -68t-110.5 -24.5zM542 115q24 0 48 11.5t42.5 34.5t30.5 57.5t12 81.5
q0 57 -26.5 86t-68.5 29q-24 0 -48 -11.5t-42.5 -34.5t-30.5 -57.5t-12 -81.5q0 -57 26.5 -86t68.5 -29z" />
    <glyph glyph-name="uni044F" unicode="&#x44f;" horiz-adv-x="545" 
d="M181 197q-31 13 -56 45t-25 88q0 45 15 82t41 63t62 40.5t77 14.5h293l-103 -530h-140l34 175h-50l-144 -175h-165zM403 300l20 105h-118q-30 0 -47.5 -17t-17.5 -43q0 -45 60 -45h103z" />
    <glyph glyph-name="uni0450" unicode="&#x450;" horiz-adv-x="585" 
d="M327 -10q-117 0 -181 59.5t-64 165.5q0 79 23 139.5t62 101.5t90.5 62.5t107.5 21.5q54 0 98.5 -15t76 -43.5t48.5 -70.5t17 -96q0 -19 -2.5 -36t-4.5 -30q-3 -16 -6 -29h-370q3 -55 34 -80t71 -25q21 0 51 12t49 38h156q-18 -43 -46 -76t-61.5 -55t-71.5 -33t-77 -11z
M468 325q-6 45 -34 67.5t-72 22.5q-32 0 -67.5 -21.5t-55.5 -68.5h229zM255 760h125l61 -150h-100z" />
    <glyph glyph-name="uni0451" unicode="&#x451;" horiz-adv-x="585" 
d="M327 -10q-117 0 -181 59.5t-64 165.5q0 79 23 139.5t62 101.5t90.5 62.5t107.5 21.5q54 0 98.5 -15t76 -43.5t48.5 -70.5t17 -96q0 -19 -2.5 -36t-4.5 -30q-3 -16 -6 -29h-370q3 -55 34 -80t71 -25q21 0 51 12t49 38h156q-18 -43 -46 -76t-61.5 -55t-71.5 -33t-77 -11z
M468 325q-6 45 -34 67.5t-72 22.5q-32 0 -67.5 -21.5t-55.5 -68.5h229zM305 615q-30 0 -47.5 19.5t-17.5 45.5q0 34 22.5 54.5t52.5 20.5t47.5 -19.5t17.5 -45.5q0 -34 -22.5 -54.5t-52.5 -20.5zM505 615q-30 0 -47.5 19.5t-17.5 45.5q0 34 22.5 54.5t52.5 20.5t47.5 -19.5
t17.5 -45.5q0 -34 -22.5 -54.5t-52.5 -20.5z" />
    <glyph glyph-name="uni0452" unicode="&#x452;" horiz-adv-x="600" 
d="M259 -80h86q23 0 36 13.5t18 36.5l49 255q2 8 2.5 17t0.5 13q0 90 -85 90q-42 0 -71 -27.5t-38 -72.5l-47 -245h-140l102 525h-75l21 110h75l13 65h140l-13 -65h125l-21 -110h-126l-22 -115h5q28 30 63.5 45t70.5 15q33 0 63.5 -11t53.5 -33t37 -55t14 -76
q0 -19 -1.5 -31.5t-3.5 -23.5l-58 -299q-15 -72 -51 -106.5t-110 -34.5h-136z" />
    <glyph glyph-name="uni0453" unicode="&#x453;" horiz-adv-x="440" 
d="M163 530h355l-26 -130h-215l-77 -400h-140zM414 760h135l-144 -150h-110z" />
    <glyph glyph-name="uni0454" unicode="&#x454;" horiz-adv-x="575" 
d="M327 -10q-117 0 -181 59.5t-64 165.5q0 77 22.5 137.5t61 102t89.5 63.5t107 22t98 -13.5t71 -38.5t46 -60t25 -78h-143q-6 19 -17 31.5t-24.5 20t-28 10.5t-27.5 3q-17 0 -35 -5.5t-34.5 -17t-30 -28.5t-22.5 -39h163l-24 -120h-155q6 -45 35.5 -67.5t67.5 -22.5
q19 0 36.5 6t32 15.5t25 21t16.5 22.5h145q-13 -41 -36.5 -76t-55.5 -60.5t-73 -39.5t-90 -14z" />
    <glyph glyph-name="uni0455" unicode="&#x455;" horiz-adv-x="515" 
d="M305 -10q-117 0 -180 42t-72 133h149q4 -23 30.5 -36.5t70.5 -13.5q70 0 70 40q0 21 -19.5 32t-49 19t-64 16t-64 23.5t-49 42.5t-19.5 72q0 37 14 70t40.5 57.5t65.5 38.5t90 14q63 0 106 -13t70.5 -35.5t41 -52.5t17.5 -64h-150q-4 15 -24.5 27.5t-63.5 12.5
q-23 0 -42.5 -8t-19.5 -27q0 -23 19.5 -34t49 -18.5t64 -15t64 -23.5t49 -44t19.5 -75q0 -39 -14.5 -72t-41.5 -57t-66.5 -37.5t-90.5 -13.5z" />
    <glyph glyph-name="uni0456" unicode="&#x456;" horiz-adv-x="260" 
d="M163 530h140l-103 -530h-140zM250 585q-34 0 -54.5 20t-20.5 50q0 38 25.5 64t59.5 26t54.5 -20t20.5 -50q0 -38 -25.5 -64t-59.5 -26z" />
    <glyph glyph-name="uni0457" unicode="&#x457;" horiz-adv-x="260" 
d="M163 530h140l-103 -530h-140zM155 615q-30 0 -47.5 19.5t-17.5 45.5q0 34 22.5 54.5t52.5 20.5t47.5 -19.5t17.5 -45.5q0 -34 -22.5 -54.5t-52.5 -20.5zM355 615q-30 0 -47.5 19.5t-17.5 45.5q0 34 22.5 54.5t52.5 20.5t47.5 -19.5t17.5 -45.5q0 -34 -22.5 -54.5
t-52.5 -20.5z" />
    <glyph glyph-name="uni0458" unicode="&#x458;" horiz-adv-x="260" 
d="M-85 -80h85q23 0 36 13.5t18 36.5l109 560h140l-115 -589q-14 -72 -50.5 -106.5t-110.5 -34.5h-135zM250 585q-34 0 -54.5 20t-20.5 50q0 38 25.5 64t59.5 26t54.5 -20t20.5 -50q0 -38 -25.5 -64t-59.5 -26z" />
    <glyph glyph-name="uni0459" unicode="&#x459;" horiz-adv-x="825" 
d="M35 130h20q21 0 36.5 10t27.5 32.5t22.5 58.5t20.5 89l41 210h410l-33 -165h95q36 0 66 -11.5t52 -32.5t34.5 -50.5t12.5 -65.5q0 -45 -16 -82.5t-43 -65t-63.5 -42.5t-77.5 -15h-270l77 400h-130l-21 -114q-13 -69 -31 -124t-45 -93.5t-65 -58.5t-90 -20h-57zM630 125
q30 0 50 17.5t20 47.5q0 23 -15 36.5t-45 13.5h-84l-22 -115h96z" />
    <glyph glyph-name="uni045A" unicode="&#x45a;" horiz-adv-x="829" 
d="M163 530h140l-36 -185h175l36 185h140l-36 -185h98q36 0 66 -10t51.5 -29t34 -45.5t12.5 -60.5q0 -47 -15 -84t-40.5 -63t-60 -39.5t-73.5 -13.5h-280l41 215h-175l-41 -215h-140zM645 125q26 0 42.5 13.5t16.5 36.5q0 20 -14 32.5t-40 12.5h-92l-19 -95h106z" />
    <glyph glyph-name="uni045B" unicode="&#x45b;" horiz-adv-x="600" 
d="M172 525h-75l21 110h75l13 65h140l-13 -65h125l-21 -110h-126l-22 -115h5q28 30 63.5 45t70.5 15q33 0 63.5 -11t53.5 -33t37 -55t14 -76q0 -19 -1.5 -31.5t-3.5 -23.5l-46 -240h-140l43 225q2 8 2.5 17t0.5 13q0 90 -85 90q-42 0 -71 -27.5t-38 -72.5l-47 -245h-140z
" />
    <glyph glyph-name="uni045C" unicode="&#x45c;" horiz-adv-x="545" 
d="M163 530h140l-46 -235l241 235h170l-271 -265l174 -265h-161l-163 245l-47 -245h-140zM469 760h135l-144 -150h-110z" />
    <glyph glyph-name="uni045D" unicode="&#x45d;" horiz-adv-x="610" 
d="M163 530h140l-61 -310h5l251 310h155l-103 -530h-140l61 315h-5l-251 -315h-155zM280 760h125l61 -150h-100z" />
    <glyph glyph-name="uni045E" unicode="&#x45e;" horiz-adv-x="560" 
d="M199 9l-111 521h148l62 -345h4l194 345h162l-432 -730h-152zM379 605q-32 0 -59 8.5t-47 27t-31.5 47t-11.5 67.5h100q0 -30 12 -45t42 -15q26 0 40.5 15t25.5 45h100q-18 -73 -62.5 -111.5t-108.5 -38.5z" />
    <glyph glyph-name="uni045F" unicode="&#x45f;" horiz-adv-x="595" 
d="M230 0h-170l103 530h140l-78 -400h195l78 400h140l-103 -530h-170l-24 -120h-135z" />
    <glyph glyph-name="uni0490" unicode="&#x490;" horiz-adv-x="535" 
d="M206 700h290l27 140h145l-54 -275h-285l-109 -565h-150z" />
    <glyph glyph-name="uni0491" unicode="&#x491;" horiz-adv-x="440" 
d="M163 530h225l23 120h130l-49 -250h-215l-77 -400h-140z" />
    <glyph glyph-name="uni0492" unicode="&#x492;" horiz-adv-x="590" 
d="M151 265h-85l26 135h85l59 300h460l-27 -135h-310l-32 -165h185l-26 -135h-185l-51 -265h-150z" />
    <glyph glyph-name="uni0493" unicode="&#x493;" horiz-adv-x="455" 
d="M109 180h-70l24 120h70l45 230h355l-26 -130h-215l-19 -100h145l-24 -120h-145l-34 -180h-140z" />
    <glyph glyph-name="uni0494" unicode="&#x494;" horiz-adv-x="640" 
d="M328 -10h18q28 0 55.5 9.5t49.5 30t35.5 51.5t13.5 74q0 49 -33 79.5t-97 30.5q-24 0 -43.5 -4t-33 -9t-20.5 -8.5l-7 -3.5l-46 -240h-150l136 700h455l-27 -135h-305l-36 -185q11 6 27 10q14 4 34 7t46 3q60 0 107.5 -15.5t80 -44t50 -68.5t17.5 -89q0 -80 -25.5 -141
t-68.5 -102.5t-100 -63t-121 -21.5h-39z" />
    <glyph glyph-name="uni0495" unicode="&#x495;" horiz-adv-x="520" 
d="M266 -70h9q21 0 40.5 8t35 26t25 46.5t9.5 69.5q0 48 -20 71.5t-65 23.5q-17 0 -30 -3.5t-22 -8.5q-11 -5 -19 -11l-29 -152h-140l103 530h365l-26 -130h-225l-23 -118q10 5 22 9q11 3 25.5 6t33.5 3q87 0 138.5 -51t51.5 -149q0 -73 -19.5 -129t-53 -94t-79.5 -57.5
t-98 -19.5h-34z" />
    <glyph glyph-name="uni0496" unicode="&#x496;" horiz-adv-x="905" 
d="M790 0h-40l-168 320l-62 -320h-150l62 320l-292 -320h-184l343 370l-170 330h162l154 -310l61 310h150l-61 -310l276 310h184l-326 -360l110 -205h117l-55 -280h-140z" />
    <glyph glyph-name="uni0497" unicode="&#x497;" horiz-adv-x="785" 
d="M670 0h-30l-135 235l-45 -235h-140l45 235l-225 -235h-185l277 285l-136 245h162l121 -225l44 225h140l-44 -225l209 225h180l-256 -270l76 -130h102l-49 -250h-135z" />
    <glyph glyph-name="uni049A" unicode="&#x49a;" horiz-adv-x="635" 
d="M525 0h-40l-203 320l-62 -320h-150l136 700h150l-61 -310l311 310h180l-352 -350l137 -215h120l-55 -280h-140z" />
    <glyph glyph-name="uni049B" unicode="&#x49b;" horiz-adv-x="545" 
d="M435 0h-25l-163 245l-47 -245h-140l103 530h140l-46 -235l241 235h170l-271 -265l89 -135h109l-49 -250h-135z" />
    <glyph glyph-name="uni049C" unicode="&#x49c;" horiz-adv-x="665" 
d="M206 700h150l-56 -285h30l19 95h80l-19 -95h20l211 285h169l-271 -350l139 -350h-158l-114 290h-20l-19 -95h-80l19 95h-30l-56 -290h-150z" />
    <glyph glyph-name="uni049D" unicode="&#x49d;" horiz-adv-x="575" 
d="M163 530h140l-39 -200h20l12 65h70l-12 -65h15l149 200h159l-205 -265q26 -68 54.5 -132.5t56.5 -132.5h-153l-85 210h-15l-12 -65h-70l12 65h-20l-40 -210h-140z" />
    <glyph glyph-name="uni04A2" unicode="&#x4a2;" horiz-adv-x="760" 
d="M595 0h-95l55 285h-280l-55 -285h-150l136 700h150l-55 -280h280l55 280h150l-110 -565h85l-55 -280h-140z" />
    <glyph glyph-name="uni04A3" unicode="&#x4a3;" horiz-adv-x="615" 
d="M460 0h-70l38 200h-190l-38 -200h-140l103 530h140l-39 -200h190l39 200h140l-78 -400h65l-49 -250h-135z" />
    <glyph glyph-name="uni04AA" unicode="&#x4aa;" horiz-adv-x="710" 
d="M308 3q-99 26 -152 98.5t-53 178.5q0 101 29 181t78 135.5t114.5 84.5t138.5 29q135 0 210 -62.5t90 -167.5h-152q-7 19 -19 36t-30.5 30t-44 21t-59.5 8q-39 0 -76 -17t-65.5 -51.5t-46 -87.5t-17.5 -124q0 -87 45 -128.5t120 -41.5q47 0 85.5 23t66.5 72h158
q-17 -43 -43 -82t-60.5 -69.5t-78 -50.5t-95.5 -26l-27 -137h-145z" />
    <glyph glyph-name="uni04AB" unicode="&#x4ab;" horiz-adv-x="575" 
d="M237 1q-75 21 -115 76t-40 138q0 80 24 140.5t63 101.5t89.5 62t103.5 21q56 0 98 -13.5t71 -38.5t46 -60t25 -78h-143q-6 19 -17 31.5t-24.5 20t-28 10.5t-27.5 3q-23 0 -48 -10.5t-45.5 -33t-33.5 -57.5t-13 -84q0 -30 8.5 -51.5t23 -36t33.5 -21t40 -6.5q19 0 36.5 6
t32 15.5t25 21t16.5 22.5h145q-23 -74 -77.5 -125t-134.5 -62l-22 -113h-135z" />
    <glyph glyph-name="uni04AE" unicode="&#x4ae;" horiz-adv-x="610" 
d="M266 240l-155 460h150l97 -305h5l218 305h170l-335 -460l-46 -240h-150z" />
    <glyph glyph-name="uni04AF" unicode="&#x4af;" horiz-adv-x="545" 
d="M195 0h-20l-87 530h143l52 -375h5l198 375h157l-293 -530h-20l-39 -200h-135z" />
    <glyph glyph-name="uni04B0" unicode="&#x4b0;" horiz-adv-x="610" 
d="M264 230h-160l25 130h97l-115 340h150l97 -305h5l218 305h170l-248 -340h96l-25 -130h-160l-44 -230h-150z" />
    <glyph glyph-name="uni04B1" unicode="&#x4b1;" horiz-adv-x="545" 
d="M195 0h-120l23 120h58l-68 410h143l52 -375h5l198 375h157l-227 -410h57l-23 -120h-120l-39 -200h-135z" />
    <glyph glyph-name="uni04B2" unicode="&#x4b2;" horiz-adv-x="630" 
d="M504 0h-29l-105 260l-205 -260h-180l299 360l-153 340h160l98 -240l192 240h180l-287 -340l100 -225h96l-55 -280h-140z" />
    <glyph glyph-name="uni04B3" unicode="&#x4b3;" horiz-adv-x="510" 
d="M384 0h-29l-71 180l-139 -180h-160l223 275l-110 255h150l62 -165l128 165h160l-210 -255l62 -145h94l-49 -250h-135z" />
    <glyph glyph-name="uni04B6" unicode="&#x4b6;" horiz-adv-x="720" 
d="M554 0h-95l41 217q-15 -5 -33 -9q-16 -3 -37 -5.5t-46 -2.5q-124 0 -186.5 57.5t-62.5 155.5q0 19 2 36t6 36l42 215h150l-43 -221q-2 -8 -3 -18t-1 -18q0 -55 36 -81.5t104 -26.5q39 0 64 7t35 11l68 347h150l-110 -565h85l-55 -280h-140z" />
    <glyph glyph-name="uni04B7" unicode="&#x4b7;" horiz-adv-x="585" 
d="M430 0h-70l30 155q-17 -4 -37.5 -7t-43.5 -3q-54 0 -92.5 13t-63 36t-36 54t-11.5 67q0 26 6 55l31 160h140l-33 -170q-2 -7 -2 -11.5v-9.5q0 -30 23.5 -49.5t80.5 -19.5q15 0 29.5 2.5t33.5 9.5l48 248h140l-78 -400h65l-49 -250h-135z" />
    <glyph glyph-name="uni04B8" unicode="&#x4b8;" horiz-adv-x="680" 
d="M500 217q-11 -3 -23 -6q-11 -2 -26 -5t-32 -4l-17 -87h-95l17 89q-94 14 -141.5 68.5t-47.5 140.5q0 19 2 36t6 36l42 215h150l-43 -221q-2 -8 -3 -18t-1 -18q0 -73 64 -96l22 113h95l-24 -124q31 2 52 7.5t30 9.5l68 347h150l-136 -700h-150z" />
    <glyph glyph-name="uni04B9" unicode="&#x4b9;" horiz-adv-x="560" 
d="M390 155q-22 -6 -52 -9l-12 -61h-75l12 63q-42 5 -71.5 20t-48.5 37t-28 50t-9 60q0 26 6 55l31 160h140l-33 -170q-2 -7 -2 -11.5v-9.5q0 -20 9.5 -35t31.5 -24l11 55h75l-13 -65q12 1 24.5 3.5t28.5 8.5l48 248h140l-103 -530h-140z" />
    <glyph glyph-name="uni04BA" unicode="&#x4ba;" horiz-adv-x="685" 
d="M206 700h150l-41 -217q15 4 33 8q16 3 37 6t46 3q124 0 186.5 -57.5t62.5 -155.5q0 -19 -2 -36t-6 -36l-42 -215h-150l43 221q2 8 3 18t1 18q0 55 -36 81.5t-104 26.5q-39 0 -64 -7t-35 -11l-68 -347h-150z" />
    <glyph glyph-name="uni04BB" unicode="&#x4bb;" horiz-adv-x="595" 
d="M201 700h140l-43 -220h5q28 30 63.5 45t70.5 15q33 0 63.5 -11t53.5 -33t37 -55t14 -76q0 -19 -1.5 -31.5t-3.5 -23.5l-60 -310h-140l57 295q2 8 2.5 17t0.5 13q0 90 -85 90q-42 0 -71 -27.5t-38 -72.5l-61 -315h-140z" />
    <glyph glyph-name="uni04C1" unicode="&#x4c1;" horiz-adv-x="895" 
d="M299 370l-170 330h162l154 -310l61 310h150l-61 -310l276 310h184l-326 -360l183 -340h-162l-168 320l-62 -320h-150l62 320l-292 -320h-184zM598 765q-32 0 -60.5 8.5t-50.5 27t-34.5 47t-12.5 67.5h100q0 -30 18.5 -45t45.5 -15q31 0 49 15t27 45h100
q-20 -79 -67 -114.5t-115 -35.5z" />
    <glyph glyph-name="uni04C2" unicode="&#x4c2;" horiz-adv-x="785" 
d="M232 285l-136 245h162l121 -225l44 225h140l-44 -225l209 225h180l-256 -270l152 -260h-164l-135 235l-45 -235h-140l45 235l-225 -235h-185zM509 605q-32 0 -59 8.5t-47 27t-31.5 47t-11.5 67.5h100q0 -30 12 -45t42 -15q26 0 40.5 15t25.5 45h100q-18 -73 -62.5 -111.5
t-108.5 -38.5z" />
    <glyph glyph-name="uni04D2" unicode="&#x4d2;" horiz-adv-x="675" 
d="M391 700h185l114 -700h-148l-20 130h-285l-70 -130h-162zM499 265l-39 265h-5l-143 -265h187zM395 770q-30 0 -47.5 19.5t-17.5 45.5q0 34 22.5 54.5t52.5 20.5t47.5 -19.5t17.5 -45.5q0 -34 -22.5 -54.5t-52.5 -20.5zM595 770q-30 0 -47.5 19.5t-17.5 45.5
q0 34 22.5 54.5t52.5 20.5t47.5 -19.5t17.5 -45.5q0 -34 -22.5 -54.5t-52.5 -20.5z" />
    <glyph glyph-name="uni04D3" unicode="&#x4d3;" horiz-adv-x="560" 
d="M235 -10q-79 0 -124 41t-45 109q0 39 14.5 72t41 57t64.5 37.5t85 13.5h156l3 18q2 10 2 17q0 29 -22 47t-64 18q-59 0 -83 -45h-140q12 36 33 66t50.5 52t67 34.5t82.5 12.5q49 0 88.5 -11.5t68 -34t44 -54.5t15.5 -72q0 -8 -1 -21.5t-4 -28.5l-62 -318h-120l-5 55h-5
q-20 -26 -55.5 -45.5t-84.5 -19.5zM285 105q42 0 74.5 22t43.5 73l4 20h-127q-21 0 -35 -5t-22.5 -13.5t-12.5 -19.5t-4 -22q0 -23 20.5 -39t58.5 -16zM300 615q-30 0 -47.5 19.5t-17.5 45.5q0 34 22.5 54.5t52.5 20.5t47.5 -19.5t17.5 -45.5q0 -34 -22.5 -54.5t-52.5 -20.5
zM500 615q-30 0 -47.5 19.5t-17.5 45.5q0 34 22.5 54.5t52.5 20.5t47.5 -19.5t17.5 -45.5q0 -34 -22.5 -54.5t-52.5 -20.5z" />
    <glyph glyph-name="uni04D8" unicode="&#x4d8;" horiz-adv-x="730" 
d="M403 -10q-147 0 -223.5 77.5t-76.5 217.5q0 20 2 40.5t4 37.5q3 19 6 37h498v5q0 87 -45 128.5t-120 41.5q-53 0 -87 -25t-53 -55h-163q18 43 46.5 82t67.5 68.5t87.5 47t106.5 17.5q73 0 130.5 -20.5t97.5 -58.5t61 -91.5t21 -119.5q0 -101 -29 -181t-78 -135.5
t-114.5 -84.5t-138.5 -29zM408 125q64 0 115.5 42.5t73.5 117.5h-349q0 -160 160 -160z" />
    <glyph glyph-name="uni04D9" unicode="&#x4d9;" horiz-adv-x="585" 
d="M322 -10q-54 0 -98.5 15t-76 43.5t-48.5 70.5t-17 96q0 19 2 35.5t4 30.5q3 15 7 29h370q-3 55 -34 80t-71 25q-21 0 -51 -12t-49 -38h-156q18 43 46 76t61.5 55t71.5 33t77 11q117 0 181 -59.5t64 -165.5q0 -79 -23 -139.5t-62 -102t-90.5 -62.5t-107.5 -21zM325 115
q32 0 67.5 21.5t55.5 68.5h-229q6 -45 34 -67.5t72 -22.5z" />
    <glyph glyph-name="uni04E0" unicode="&#x4e0;" horiz-adv-x="625" 
d="M353 -10q-67 0 -120 14t-90.5 41t-57.5 67t-20 93v5h150q8 -45 44 -65t96 -20q36 0 60 10t38.5 25.5t20.5 34t6 35.5q0 45 -35 62.5t-95 17.5h-110l23 120l193 135h-297l27 135h515l-24 -120l-214 -150q85 -11 126 -61.5t41 -133.5q0 -43 -15.5 -86.5t-49 -79t-86 -57.5
t-126.5 -22z" />
    <glyph glyph-name="uni04E1" unicode="&#x4e1;" horiz-adv-x="535" 
d="M255 -200q-54 0 -99.5 13.5t-77.5 39.5t-50 63t-18 84v15h140q0 -42 30.5 -66t79.5 -24q22 0 42 7.5t35 23.5t24 40.5t9 58.5q0 38 -26 61.5t-79 23.5h-113l21 110l204 150h-260l26 130h445l-26 -130l-209 -154q81 -16 119 -67t38 -119q0 -58 -18 -106t-51.5 -82
t-80.5 -53t-105 -19z" />
    <glyph glyph-name="uni04E2" unicode="&#x4e2;" horiz-adv-x="755" 
d="M206 700h150l-92 -470h5l362 470h190l-136 -700h-150l92 470h-5l-362 -470h-190zM393 885h300l-18 -95h-300z" />
    <glyph glyph-name="uni04E3" unicode="&#x4e3;" horiz-adv-x="610" 
d="M163 530h140l-61 -310h5l251 310h155l-103 -530h-140l61 315h-5l-251 -315h-155zM288 725h300l-18 -95h-300z" />
    <glyph glyph-name="uni04E6" unicode="&#x4e6;" horiz-adv-x="740" 
d="M413 -10q-73 0 -130.5 20.5t-97.5 58.5t-61 91.5t-21 119.5q0 101 29 181t78 135.5t114.5 84.5t138.5 29t130.5 -20.5t97.5 -58.5t61 -91.5t21 -119.5q0 -101 -29 -181t-78 -135.5t-114.5 -84.5t-138.5 -29zM418 125q39 0 76 17t65.5 51.5t46 87.5t17.5 124
q0 87 -45 128.5t-120 41.5q-39 0 -76 -17t-65.5 -51.5t-46 -87.5t-17.5 -124q0 -87 45 -128.5t120 -41.5zM400 770q-30 0 -47.5 19.5t-17.5 45.5q0 34 22.5 54.5t52.5 20.5t47.5 -19.5t17.5 -45.5q0 -34 -22.5 -54.5t-52.5 -20.5zM600 770q-30 0 -47.5 19.5t-17.5 45.5
q0 34 22.5 54.5t52.5 20.5t47.5 -19.5t17.5 -45.5q0 -34 -22.5 -54.5t-52.5 -20.5z" />
    <glyph glyph-name="uni04E7" unicode="&#x4e7;" horiz-adv-x="590" 
d="M327 -10q-117 0 -181 59.5t-64 165.5q0 79 23 139.5t62 101.5t90.5 62.5t107.5 21.5q117 0 181 -59.5t64 -165.5q0 -79 -23 -139.5t-62 -102t-90.5 -62.5t-107.5 -21zM327 115q24 0 49.5 10.5t46.5 33t34 57.5t13 84q0 30 -8.5 51.5t-23 36t-33.5 21t-40 6.5
q-24 0 -49.5 -10.5t-46.5 -33t-34 -57.5t-13 -84q0 -30 8.5 -51.5t23 -36t33.5 -21t40 -6.5zM305 615q-30 0 -47.5 19.5t-17.5 45.5q0 34 22.5 54.5t52.5 20.5t47.5 -19.5t17.5 -45.5q0 -34 -22.5 -54.5t-52.5 -20.5zM505 615q-30 0 -47.5 19.5t-17.5 45.5q0 34 22.5 54.5
t52.5 20.5t47.5 -19.5t17.5 -45.5q0 -34 -22.5 -54.5t-52.5 -20.5z" />
    <glyph glyph-name="uni04E8" unicode="&#x4e8;" horiz-adv-x="740" 
d="M413 -10q-73 0 -130.5 20.5t-97.5 58.5t-61 91.5t-21 119.5q0 101 29 181t78 135.5t114.5 84.5t138.5 29t130.5 -20.5t97.5 -58.5t61 -91.5t21 -119.5q0 -101 -29 -181t-78 -135.5t-114.5 -84.5t-138.5 -29zM418 125q30 0 59.5 10t54.5 30.5t44.5 51.5t31.5 73h-355
q2 -85 46 -125t119 -40zM623 410q-2 85 -46 125t-119 40q-30 0 -59.5 -10t-54.5 -30.5t-44.5 -51.5t-31.5 -73h355z" />
    <glyph glyph-name="uni04E9" unicode="&#x4e9;" horiz-adv-x="590" 
d="M327 -10q-117 0 -181 59.5t-64 165.5q0 79 23 139.5t62 101.5t90.5 62.5t107.5 21.5q117 0 181 -59.5t64 -165.5q0 -79 -23 -139.5t-62 -102t-90.5 -62.5t-107.5 -21zM327 115q35 0 71 22.5t56 72.5h-231q6 -50 36 -72.5t68 -22.5zM469 320q-6 50 -36 72.5t-68 22.5
q-35 0 -71 -22.5t-56 -72.5h231z" />
    <glyph glyph-name="uni04EE" unicode="&#x4ee;" horiz-adv-x="590" 
d="M247 196l-136 504h150l89 -335h5l206 335h165l-436 -700h-165zM293 885h300l-18 -95h-300z" />
    <glyph glyph-name="uni04EF" unicode="&#x4ef;" horiz-adv-x="560" 
d="M199 9l-111 521h148l62 -345h4l194 345h162l-432 -730h-152zM248 725h300l-18 -95h-300z" />
    <glyph glyph-name="uni04F0" unicode="&#x4f0;" horiz-adv-x="590" 
d="M247 196l-136 504h150l89 -335h5l206 335h165l-436 -700h-165zM325 770q-30 0 -47.5 19.5t-17.5 45.5q0 34 22.5 54.5t52.5 20.5t47.5 -19.5t17.5 -45.5q0 -34 -22.5 -54.5t-52.5 -20.5zM525 770q-30 0 -47.5 19.5t-17.5 45.5q0 34 22.5 54.5t52.5 20.5t47.5 -19.5
t17.5 -45.5q0 -34 -22.5 -54.5t-52.5 -20.5z" />
    <glyph glyph-name="uni04F1" unicode="&#x4f1;" horiz-adv-x="560" 
d="M199 9l-111 521h148l62 -345h4l194 345h162l-432 -730h-152zM275 615q-30 0 -47.5 19.5t-17.5 45.5q0 34 22.5 54.5t52.5 20.5t47.5 -19.5t17.5 -45.5q0 -34 -22.5 -54.5t-52.5 -20.5zM475 615q-30 0 -47.5 19.5t-17.5 45.5q0 34 22.5 54.5t52.5 20.5t47.5 -19.5
t17.5 -45.5q0 -34 -22.5 -54.5t-52.5 -20.5z" />
    <glyph glyph-name="Wgrave" unicode="&#x1e80;" horiz-adv-x="950" 
d="M136 700h148l15 -485h5l215 485h160l25 -485h5l205 485h162l-321 -700h-165l-26 485l-214 -485h-165zM460 915h125l61 -150h-100z" />
    <glyph glyph-name="wgrave" unicode="&#x1e81;" horiz-adv-x="805" 
d="M103 530h137l21 -355h5l159 355h145l21 -355h5l159 355h143l-248 -530h-159l-25 335h-5l-155 -335h-161zM360 760h125l61 -150h-100z" />
    <glyph glyph-name="Wacute" unicode="&#x1e82;" horiz-adv-x="950" 
d="M136 700h148l15 -485h5l215 485h160l25 -485h5l205 485h162l-321 -700h-165l-26 485l-214 -485h-165zM679 915h135l-144 -150h-110z" />
    <glyph glyph-name="wacute" unicode="&#x1e83;" horiz-adv-x="805" 
d="M103 530h137l21 -355h5l159 355h145l21 -355h5l159 355h143l-248 -530h-159l-25 335h-5l-155 -335h-161zM579 760h135l-144 -150h-110z" />
    <glyph glyph-name="Wdieresis" unicode="&#x1e84;" horiz-adv-x="950" 
d="M136 700h148l15 -485h5l215 485h160l25 -485h5l205 485h162l-321 -700h-165l-26 485l-214 -485h-165zM515 770q-30 0 -47.5 19.5t-17.5 45.5q0 34 22.5 54.5t52.5 20.5t47.5 -19.5t17.5 -45.5q0 -34 -22.5 -54.5t-52.5 -20.5zM715 770q-30 0 -47.5 19.5t-17.5 45.5
q0 34 22.5 54.5t52.5 20.5t47.5 -19.5t17.5 -45.5q0 -34 -22.5 -54.5t-52.5 -20.5z" />
    <glyph glyph-name="wdieresis" unicode="&#x1e85;" horiz-adv-x="805" 
d="M103 530h137l21 -355h5l159 355h145l21 -355h5l159 355h143l-248 -530h-159l-25 335h-5l-155 -335h-161zM405 615q-30 0 -47.5 19.5t-17.5 45.5q0 34 22.5 54.5t52.5 20.5t47.5 -19.5t17.5 -45.5q0 -34 -22.5 -54.5t-52.5 -20.5zM605 615q-30 0 -47.5 19.5t-17.5 45.5
q0 34 22.5 54.5t52.5 20.5t47.5 -19.5t17.5 -45.5q0 -34 -22.5 -54.5t-52.5 -20.5z" />
    <glyph glyph-name="uni1E9E" unicode="&#x1e9e;" horiz-adv-x="690" 
d="M158 500q19 97 77 148.5t145 51.5h376l-26 -130l-157 -140l-1 -5q25 -9 47.5 -23.5t39.5 -36.5t26.5 -51.5t9.5 -69.5q0 -54 -17 -99t-48.5 -77t-76 -50t-98.5 -18h-140l26 135h99q56 0 80.5 29.5t24.5 70.5q0 34 -26 57t-79 23h-54l22 115l151 135h-159q-38 0 -63 -18.5
t-33 -61.5l-94 -485h-150z" />
    <glyph glyph-name="Ygrave" unicode="&#x1ef2;" horiz-adv-x="610" 
d="M266 240l-155 460h150l97 -305h5l218 305h170l-335 -460l-46 -240h-150zM285 915h125l61 -150h-100z" />
    <glyph glyph-name="ygrave" unicode="&#x1ef3;" horiz-adv-x="560" 
d="M199 9l-111 521h148l62 -345h4l194 345h162l-432 -730h-152zM230 760h125l61 -150h-100z" />
    <glyph glyph-name="endash" unicode="&#x2013;" horiz-adv-x="585" 
d="M97 345h525l-25 -125h-525z" />
    <glyph glyph-name="emdash" unicode="&#x2014;" horiz-adv-x="835" 
d="M97 345h775l-25 -125h-775z" />
    <glyph glyph-name="quoteleft" unicode="&#x2018;" horiz-adv-x="215" 
d="M226 700h110l-81 -210h-130z" />
    <glyph glyph-name="quoteright" unicode="&#x2019;" horiz-adv-x="215" 
d="M206 700h130l-101 -210h-110z" />
    <glyph glyph-name="quotesinglbase" unicode="&#x201a;" horiz-adv-x="210" 
d="M79 100h130l-101 -210h-109z" />
    <glyph glyph-name="quotedblleft" unicode="&#x201c;" horiz-adv-x="400" 
d="M226 700h110l-81 -210h-130zM411 700h110l-81 -210h-130z" />
    <glyph glyph-name="quotedblright" unicode="&#x201d;" horiz-adv-x="400" 
d="M206 700h130l-101 -210h-110zM391 700h130l-101 -210h-110z" />
    <glyph glyph-name="quotedblbase" unicode="&#x201e;" horiz-adv-x="395" 
d="M79 100h130l-101 -210h-109zM264 100h130l-101 -210h-110z" />
    <glyph glyph-name="dagger" unicode="&#x2020;" horiz-adv-x="490" 
d="M255 415h-120l26 135h120l30 150h140l-30 -150h120l-26 -135h-120l-80 -415h-140z" />
    <glyph glyph-name="daggerdbl" unicode="&#x2021;" horiz-adv-x="490" 
d="M204 150h-120l26 135h120l25 130h-120l26 135h120l30 150h140l-30 -150h120l-26 -135h-120l-25 -130h120l-26 -135h-120l-29 -150h-140z" />
    <glyph glyph-name="bullet" unicode="&#x2022;" horiz-adv-x="470" 
d="M280 175q-24 0 -43.5 8.5t-33 23t-21 33.5t-7.5 40q0 24 10.5 47t27.5 40t40 27.5t47 10.5t43.5 -8.5t33 -23t21 -33.5t7.5 -40q0 -24 -10.5 -47t-27.5 -40t-40 -27.5t-47 -10.5z" />
    <glyph glyph-name="ellipsis" unicode="&#x2026;" horiz-adv-x="760" 
d="M119 -5q-32 0 -52.5 21.5t-20.5 51.5q0 18 7.5 34t20 28t28 18.5t32.5 6.5q32 0 52.5 -21.5t20.5 -51.5q0 -18 -7.5 -34t-20 -28t-28.5 -18.5t-32 -6.5zM384 -5q-32 0 -52.5 21.5t-20.5 51.5q0 18 7.5 34t20 28t28 18.5t32.5 6.5q32 0 52.5 -21.5t20.5 -51.5
q0 -18 -7.5 -34t-20 -28t-28.5 -18.5t-32 -6.5zM649 -5q-32 0 -52.5 21.5t-20.5 51.5q0 18 7.5 34t20 28t28 18.5t32.5 6.5q32 0 52.5 -21.5t20.5 -51.5q0 -18 -7.5 -34t-20 -28t-28.5 -18.5t-32 -6.5z" />
    <glyph glyph-name="perthousand" unicode="&#x2030;" horiz-adv-x="1135" 
d="M689 700h115l-571 -700h-115zM615 -10q-68 0 -109 38t-41 102q0 43 14 78t38 60t55.5 38.5t67.5 13.5q68 0 109 -38t41 -102q0 -43 -14 -78t-38 -60t-55.5 -38.5t-67.5 -13.5zM620 75q30 0 55 25t25 70q0 30 -17.5 47.5t-47.5 17.5t-55 -25t-25 -70q0 -30 17.5 -47.5
t47.5 -17.5zM980 -10q-68 0 -109 38t-41 102q0 43 14 78t38 60t55.5 38.5t67.5 13.5q68 0 109 -38t41 -102q0 -43 -14 -78t-38 -60t-55.5 -38.5t-67.5 -13.5zM985 75q30 0 55 25t25 70q0 34 -17.5 49.5t-47.5 15.5t-55 -25t-25 -70q0 -34 17.5 -49.5t47.5 -15.5zM281 380
q-68 0 -109 38t-41 102q0 43 14 78t38 60t55.5 38.5t67.5 13.5q68 0 109 -38t41 -102q0 -43 -14 -78t-38 -60t-55.5 -38.5t-67.5 -13.5zM286 465q30 0 55 25t25 70q0 30 -17.5 47.5t-47.5 17.5t-55 -25t-25 -70q0 -30 17.5 -47.5t47.5 -17.5z" />
    <glyph glyph-name="guilsinglleft" unicode="&#x2039;" horiz-adv-x="430" 
d="M77 270l262 240h164l-270 -245l-2 -6l163 -229h-149z" />
    <glyph glyph-name="guilsinglright" unicode="&#x203a;" horiz-adv-x="430" 
d="M294 275l2 6l-163 229h149l168 -240l-262 -240h-164z" />
    <glyph glyph-name="fraction" unicode="&#x2044;" horiz-adv-x="160" 
d="M381 700h103l-571 -700h-103z" />
    <glyph glyph-name="uni2070" unicode="&#x2070;" horiz-adv-x="390" 
d="M280 395q-69 0 -107.5 42.5t-38.5 117.5q0 58 16 104.5t42 78.5t60.5 49.5t72.5 17.5q69 0 107.5 -42.5t38.5 -117.5q0 -58 -16 -104.5t-42 -78.5t-61 -49.5t-72 -17.5zM285 480q19 0 36 11t30.5 31.5t21.5 50t8 67.5t-17.5 59t-43.5 21q-19 0 -36 -11t-30.5 -31.5
t-21.5 -50.5t-8 -67q0 -38 17.5 -59t43.5 -21z" />
    <glyph glyph-name="uni2074" unicode="&#x2074;" horiz-adv-x="345" 
d="M279 485h-180l15 80l206 235h110l-46 -235h60l-15 -80h-60l-17 -85h-90zM294 565l23 115h-5l-101 -115h83z" />
    <glyph glyph-name="uni2075" unicode="&#x2075;" horiz-adv-x="350" 
d="M261 395q-64 0 -103 31.5t-42 88.5h95q4 -15 16.5 -25t38.5 -10t46.5 17t20.5 48q0 27 -17 38.5t-44 11.5q-12 0 -21 -4t-16 -9q-8 -5 -14 -12h-90l70 230h255l-16 -80h-178l-20 -65h5q5 3 14 7q8 3 19 5.5t26 2.5q24 0 45.5 -8.5t37.5 -23.5t25 -36.5t9 -46.5
q0 -36 -12 -65.5t-33.5 -50.5t-51.5 -32.5t-65 -11.5z" />
    <glyph glyph-name="uni2076" unicode="&#x2076;" horiz-adv-x="350" 
d="M250 395q-36 0 -63 10.5t-45 28.5t-27 41.5t-9 49.5q0 49 19 82.5t48 67.5l107 125h105l-109 -125q37 0 63.5 -10.5t43 -28t24.5 -40t8 -46.5q0 -35 -12.5 -63.5t-34 -49t-52 -31.5t-66.5 -11zM260 480q30 0 47.5 18.5t17.5 45.5q0 22 -15.5 39t-49.5 17
q-30 0 -47.5 -18.5t-17.5 -45.5q0 -22 15.5 -39t49.5 -17z" />
    <glyph glyph-name="uni2077" unicode="&#x2077;" horiz-adv-x="305" 
d="M333 720h-163l16 80h265l-16 -80l-202 -320h-102z" />
    <glyph glyph-name="uni2078" unicode="&#x2078;" horiz-adv-x="360" 
d="M266 395q-65 0 -107 28.5t-42 80.5q0 15 4 32t13 32.5t24 28.5t38 22q-16 11 -25 29.5t-9 39.5q0 24 10 45.5t28 37t43.5 25t57.5 9.5q34 0 60.5 -8.5t44 -23t26.5 -33t9 -39.5q0 -32 -18.5 -60.5t-48.5 -39.5q24 -16 33.5 -36t9.5 -42q0 -31 -12 -54.5t-32.5 -40
t-48 -25t-58.5 -8.5zM268 475q30 0 45.5 16.5t15.5 36.5q0 18 -14.5 32.5t-44.5 14.5t-45.5 -16.5t-15.5 -36.5q0 -18 14.5 -32.5t44.5 -14.5zM301 645q24 0 36.5 13.5t12.5 29.5q0 14 -12 25t-40 11q-24 0 -36.5 -13.5t-12.5 -29.5q0 -14 12 -25t40 -11z" />
    <glyph glyph-name="uni2079" unicode="&#x2079;" horiz-adv-x="350" 
d="M273 524q-37 0 -63.5 10.5t-43 28t-24.5 40t-8 46.5q0 35 12.5 63.5t34 49t52 31.5t66.5 11t63 -10.5t45 -28.5t27 -41.5t9 -49.5q0 -49 -19 -82.5t-48 -67.5l-107 -125h-105zM289 600q30 0 47.5 18.5t17.5 45.5q0 22 -15.5 39t-49.5 17q-30 0 -47.5 -18.5t-17.5 -45.5
q0 -22 15.5 -39t49.5 -17z" />
    <glyph glyph-name="uni2080" unicode="&#x2080;" horiz-adv-x="390" 
d="M198 -105q-69 0 -107.5 42.5t-38.5 117.5q0 58 16 104.5t42 78.5t60.5 49.5t72.5 17.5q69 0 107.5 -42.5t38.5 -117.5q0 -58 -16 -104.5t-42 -78.5t-61 -49.5t-72 -17.5zM203 -20q19 0 36 11t30.5 31.5t21.5 50t8 67.5t-17.5 59t-43.5 21q-19 0 -36 -11t-30.5 -31.5
t-21.5 -50.5t-8 -67q0 -38 17.5 -59t43.5 -21z" />
    <glyph glyph-name="uni2081" unicode="&#x2081;" horiz-adv-x="270" 
d="M156 160h-90l16 85h65q8 0 17.5 4.5t11.5 15.5l7 35h90l-78 -400h-90z" />
    <glyph glyph-name="uni2082" unicode="&#x2082;" horiz-adv-x="335" 
d="M31 -20l172 136q23 18 36.5 34.5t13.5 39.5q0 11 -10.5 20.5t-29.5 9.5q-23 0 -35 -8.5t-17 -31.5h-95q13 60 49 92.5t108 32.5q30 0 53.5 -8.5t39 -23.5t24 -34.5t8.5 -41.5q0 -43 -18 -71t-53 -55l-113 -91h142l-16 -80h-275z" />
    <glyph glyph-name="uni2083" unicode="&#x2083;" horiz-adv-x="345" 
d="M179 -105q-66 0 -105.5 30t-39.5 85h94q4 -15 16.5 -22.5t39.5 -7.5q23 0 36.5 13t13.5 33q0 18 -11 28.5t-34 10.5h-31l16 80h40q23 0 34 12.5t11 27.5q0 13 -11 24t-39 11q-46 0 -52 -40h-95q11 64 51.5 94.5t100.5 30.5q36 0 62.5 -8.5t44 -23t25.5 -33.5t8 -40
q0 -23 -7 -40t-17.5 -29t-23 -19.5t-24.5 -11.5q23 -14 35 -34t12 -41q0 -26 -10 -49.5t-29.5 -41.5t-47 -28.5t-63.5 -10.5z" />
    <glyph glyph-name="uni2084" unicode="&#x2084;" horiz-adv-x="345" 
d="M182 -15h-180l15 80l206 235h110l-46 -235h60l-15 -80h-60l-17 -85h-90zM197 65l23 115h-5l-101 -115h83z" />
    <glyph glyph-name="uni2085" unicode="&#x2085;" horiz-adv-x="350" 
d="M174 -105q-64 0 -103 31.5t-42 88.5h95q4 -15 16.5 -25t38.5 -10t46.5 17t20.5 48q0 27 -17 38.5t-44 11.5q-12 0 -21 -4t-16 -9q-8 -5 -14 -12h-90l70 230h255l-16 -80h-178l-20 -65h5q5 3 14 7q8 3 19 5.5t26 2.5q24 0 45.5 -8.5t37.5 -23.5t25 -36.5t9 -46.5
q0 -36 -12 -65.5t-33.5 -50.5t-51.5 -32.5t-65 -11.5z" />
    <glyph glyph-name="uni2086" unicode="&#x2086;" horiz-adv-x="350" 
d="M178 -105q-36 0 -63 10.5t-45 28.5t-27 41.5t-9 49.5q0 49 19 82.5t48 67.5l107 125h105l-109 -125q37 0 63.5 -10.5t43 -28t24.5 -40t8 -46.5q0 -35 -12.5 -63.5t-34 -49t-52 -31.5t-66.5 -11zM188 -20q30 0 47.5 18.5t17.5 45.5q0 22 -15.5 39t-49.5 17
q-30 0 -47.5 -18.5t-17.5 -45.5q0 -22 15.5 -39t49.5 -17z" />
    <glyph glyph-name="uni2087" unicode="&#x2087;" horiz-adv-x="305" 
d="M241 220h-163l16 80h265l-16 -80l-202 -320h-102z" />
    <glyph glyph-name="uni2088" unicode="&#x2088;" horiz-adv-x="360" 
d="M184 -105q-65 0 -107 28.5t-42 80.5q0 15 4 32t13 32.5t24 28.5t38 22q-16 11 -25 29.5t-9 39.5q0 24 10 45.5t28 37t43.5 25t57.5 9.5q34 0 60.5 -8.5t44 -23t26.5 -33t9 -39.5q0 -32 -18.5 -60.5t-48.5 -39.5q24 -16 33.5 -36t9.5 -42q0 -31 -12 -54.5t-32.5 -40
t-48 -25t-58.5 -8.5zM186 -25q30 0 45.5 16.5t15.5 36.5q0 18 -14.5 32.5t-44.5 14.5t-45.5 -16.5t-15.5 -36.5q0 -18 14.5 -32.5t44.5 -14.5zM219 145q24 0 36.5 13.5t12.5 29.5q0 14 -12 25t-40 11q-24 0 -36.5 -13.5t-12.5 -29.5q0 -14 12 -25t40 -11z" />
    <glyph glyph-name="uni2089" unicode="&#x2089;" horiz-adv-x="350" 
d="M191 24q-37 0 -63.5 10.5t-43 28t-24.5 40t-8 46.5q0 35 12.5 63.5t34 49t52 31.5t66.5 11t63 -10.5t45 -28.5t27 -41.5t9 -49.5q0 -49 -19 -82.5t-48 -67.5l-107 -125h-105zM207 100q30 0 47.5 18.5t17.5 45.5q0 22 -15.5 39t-49.5 17q-30 0 -47.5 -18.5t-17.5 -45.5
q0 -22 15.5 -39t49.5 -17z" />
    <glyph glyph-name="uni20A9" unicode="&#x20a9;" horiz-adv-x="985" 
d="M195 195h-143l23 115h119l-2 80h-102l23 115h77l-4 195h144l-7 -195h133l79 195h165l3 -195h133l69 195h156l-80 -195h77l-23 -115h-102l-32 -80h119l-23 -115h-143l-79 -195h-170l-3 195h-153l-79 -195h-170zM314 155l15 40h-19l-1 -40h5zM377 310l32 80h-91l-3 -80h62z
M601 310l-2 80h-71l-32 -80h105zM714 155l13 40h-19l1 -40h5zM598 505l-2 40h-5l-16 -40h23zM768 310l27 80h-91l2 -80h62z" />
    <glyph glyph-name="Euro" unicode="&#x20ac;" horiz-adv-x="755" 
d="M475 -10q-65 0 -118 16.5t-92 47t-63.5 74t-32.5 97.5h-111l19 95h87l12 60h-88l19 95h92q22 56 55.5 100t76 74t92 45.5t102.5 15.5q128 0 202 -57t94 -153h-156q-17 32 -51 53.5t-94 21.5q-48 0 -91.5 -24.5t-72.5 -75.5h231l-19 -95h-242l-11 -60h242l-19 -95h-213
q17 -51 57 -75.5t98 -24.5q42 0 77 18.5t62 56.5h163q-20 -44 -49 -82t-67.5 -66.5t-86 -45t-104.5 -16.5z" />
    <glyph glyph-name="uni20B4" unicode="&#x20b4;" horiz-adv-x="655" 
d="M350 -10q-54 0 -98.5 13t-76 35t-48.5 51t-17 61q0 26 8.5 50t16.5 35h-45l18 90h565l-18 -90h-360q-8 -8 -16.5 -22t-8.5 -33q0 -26 23 -43t72 -17q42 0 70 14.5t38 40.5h150q-26 -89 -91.5 -137t-181.5 -48zM135 465h360q8 8 16.5 22t8.5 33q0 26 -23 43t-72 17
q-42 0 -70 -14.5t-38 -40.5h-150q26 88 91.5 136.5t181.5 48.5q54 0 98.5 -13t76 -35t48.5 -51t17 -61q0 -26 -8.5 -50t-16.5 -35h45l-18 -90h-565z" />
    <glyph glyph-name="uni20B8" unicode="&#x20b8;" horiz-adv-x="625" 
d="M297 375h-210l27 135h570l-27 -135h-210l-72 -375h-150zM151 700h570l-27 -135h-570z" />
    <glyph glyph-name="uni20B9" unicode="&#x20b9;" horiz-adv-x="595" 
d="M238 225h-165l24 120h228q49 0 73 19.5t32 45.5h-321l21 105h315q-4 30 -35.5 47.5t-84.5 17.5h-183l24 120h535l-24 -120h-113q6 -6 10 -16q4 -8 7.5 -20t5.5 -29h78l-21 -105h-62q-8 -39 -26 -68.5t-43 -50t-55.5 -33t-61.5 -18.5l129 -240h-165z" />
    <glyph glyph-name="uni20BA" unicode="&#x20ba;" horiz-adv-x="610" 
d="M159 230l-97 -35l23 115l97 35l11 60l-97 -35l23 115l97 35l35 180h150l-25 -125l161 55l-22 -115l-161 -55l-12 -60l161 55l-22 -115l-161 -55l-29 -150h49q71 0 103 28t46 92h150q-15 -69 -37.5 -117.5t-58.5 -79t-88 -44.5t-125 -14h-215z" />
    <glyph glyph-name="uni20BD" unicode="&#x20bd;" horiz-adv-x="655" 
d="M108 95h-75l23 120h75l11 55h-75l24 125h75l60 305h285q43 0 79.5 -12.5t63 -36.5t41.5 -58.5t15 -77.5q0 -54 -18.5 -99.5t-50.5 -77.5t-74.5 -50t-91.5 -18h-183l-11 -55h195l-23 -120h-195l-18 -95h-150zM465 395q19 0 36 5.5t30 17.5t21 30t8 42q0 34 -20 54.5
t-65 20.5h-126l-33 -170h149z" />
    <glyph glyph-name="uni20BF" unicode="&#x20bf;" horiz-adv-x="665" 
d="M159 0h-89l136 700h90l21 110h120l-21 -110h65l21 110h120l-23 -122q56 -17 86 -56.5t30 -96.5q0 -67 -34 -117t-91 -70q34 -17 54.5 -51t20.5 -82q0 -46 -14.5 -84.5t-41 -66.5t-63.5 -44.5t-82 -19.5l-21 -110h-120l21 110h-65l-21 -110h-120zM425 130q42 0 68.5 22.5
t26.5 67.5q0 33 -21 51.5t-59 18.5h-164l-31 -160h180zM475 410q42 0 66 24t24 66q0 30 -20.5 50t-54.5 20h-160l-31 -160h176z" />
    <glyph glyph-name="uni2113" unicode="&#x2113;" horiz-adv-x="425" 
d="M325 -10q-75 0 -115 35.5t-40 114.5v75q-12 -4 -26 -8q-12 -3 -28.5 -5t-35.5 -2v90q19 0 35.5 3t28.5 7q14 4 26 10v255q0 72 40.5 108.5t104.5 36.5q32 0 59.5 -9.5t47.5 -30.5t31.5 -53t11.5 -77q0 -56 -16 -103t-43 -84.5t-63.5 -65.5t-77.5 -47v-100q0 -30 20.5 -45
t54.5 -15q13 0 25 2t21 5q11 4 19 8v-95q-9 -3 -21 -5q-23 -5 -59 -5zM265 345q49 30 77 80.5t28 114.5q0 80 -55 80q-23 0 -36.5 -15.5t-13.5 -49.5v-210z" />
    <glyph glyph-name="uni2116" unicode="&#x2116;" horiz-adv-x="1140" 
d="M206 700h195l170 -495h5l95 495h150l-136 -700h-195l-170 495h-5l-95 -495h-150zM791 110h320l-21 -110h-320zM980 170q-72 0 -116 41t-44 109q0 41 14 76t39 60.5t59 39.5t73 14q72 0 116 -41t44 -109q0 -41 -14 -76t-39 -60.5t-59 -39.5t-73 -14zM985 270q30 0 50 21.5
t20 63.5q0 55 -55 55q-30 0 -50 -21.5t-20 -63.5q0 -55 55 -55z" />
    <glyph glyph-name="uni2117" unicode="&#x2117;" horiz-adv-x="820" 
d="M480 -10q-79 0 -145 26.5t-114 74.5t-74.5 114t-26.5 145t26.5 145t74.5 114t114 74.5t145 26.5t145 -26.5t114 -74.5t74.5 -114t26.5 -145t-26.5 -145t-74.5 -114t-114 -74.5t-145 -26.5zM480 80q58 0 106.5 19.5t84 55.5t55 85.5t19.5 109.5t-19.5 109.5t-55 85.5
t-84 55.5t-106.5 19.5t-106.5 -19.5t-84 -55.5t-55 -85.5t-19.5 -109.5t19.5 -109.5t55 -85.5t84 -55.5t106.5 -19.5zM345 540h160q34 0 59 -9.5t42 -26.5t25.5 -40t8.5 -49q0 -57 -33.5 -93.5t-101.5 -36.5h-70v-120h-90v375zM500 365q23 0 36.5 12t13.5 38q0 23 -13.5 34
t-36.5 11h-65v-95h65z" />
    <glyph glyph-name="trademark" unicode="&#x2122;" horiz-adv-x="740" 
d="M209 615h-95v85h275v-85h-95v-225h-85v225zM419 700h125l55 -180h5l55 180h125v-310h-85v180h-5l-55 -180h-75l-55 180h-5v-180h-85v310z" />
    <glyph glyph-name="uni2126" unicode="&#x2126;" horiz-adv-x="820" 
d="M160 90h110q-39 26 -70 66q-26 35 -48 88t-22 131q0 75 24.5 136.5t70 106t110 68.5t145.5 24t145.5 -24t110 -68.5t70 -106t24.5 -136.5q0 -78 -22 -131t-48 -88q-31 -40 -70 -66h110v-90h-255v90q52 23 92 62q17 16 34 37.5t30 48t21 58t8 69.5q0 56 -18.5 103
t-52 80.5t-79.5 52.5t-100 19t-100 -19t-79.5 -52.5t-52 -80.5t-18.5 -103q0 -38 8 -69.5t21 -58t29.5 -48t33.5 -37.5q40 -39 93 -62v-90h-255v90z" />
    <glyph glyph-name="estimated" unicode="&#x212e;" horiz-adv-x="850" 
d="M502 -20q-83 0 -152.5 28t-120 77t-79 114.5t-28.5 140.5t28.5 140.5t78 114.5t117 77t146.5 28t146.5 -28t117 -77t78 -114.5t28.5 -140.5v-5h-575q-15 0 -15 -15v-195q0 -6 0.5 -13.5t4.5 -16.5t12 -18.5t23 -19.5q4 -2 17.5 -10.5t37.5 -17.5t57.5 -16.5t77.5 -7.5
q66 0 115 20.5t83 46.5q39 30 67 68h55q-33 -45 -81 -80q-41 -30 -100.5 -55t-138.5 -25zM697 360q15 0 15 15v185q0 11 -5 28.5t-35 37.5q-6 4 -21.5 12t-39 16t-53.5 14.5t-66 6.5t-66 -6.5t-53.5 -14.5t-39 -16t-21.5 -12q-30 -20 -35 -37.5t-5 -28.5v-185q0 -15 15 -15
h410z" />
    <glyph glyph-name="uni2150" unicode="&#x2150;" horiz-adv-x="785" 
d="M651 700h103l-571 -700h-103zM228 560h-90l16 85h65q8 0 17.5 4.5t11.5 15.5l7 35h90l-78 -400h-90zM698 320h-163l16 80h265l-16 -80l-202 -320h-102z" />
    <glyph glyph-name="uni2151" unicode="&#x2151;" horiz-adv-x="790" 
d="M651 700h103l-571 -700h-103zM228 560h-90l16 85h65q8 0 17.5 4.5t11.5 15.5l7 35h90l-78 -400h-90zM631 124q-37 0 -63.5 10.5t-43 28t-24.5 40t-8 46.5q0 35 12.5 63.5t34 49t52 31.5t66.5 11t63 -10.5t45 -28.5t27 -41.5t9 -49.5q0 -49 -19 -82.5t-48 -67.5l-107 -125
h-105zM647 200q30 0 47.5 18.5t17.5 45.5q0 22 -15.5 39t-49.5 17q-30 0 -47.5 -18.5t-17.5 -45.5q0 -22 15.5 -39t49.5 -17z" />
    <glyph glyph-name="uni2152" unicode="&#x2152;" horiz-adv-x="1060" 
d="M651 700h103l-571 -700h-103zM228 560h-90l16 85h65q8 0 17.5 4.5t11.5 15.5l7 35h90l-78 -400h-90zM591 260h-90l16 85h65q8 0 17.5 4.5t11.5 15.5l7 35h90l-78 -400h-90zM849 -5q-69 0 -107.5 42.5t-38.5 117.5q0 58 16 104.5t42 78.5t60.5 49.5t72.5 17.5
q69 0 107.5 -42.5t38.5 -117.5q0 -58 -16 -104.5t-42 -78.5t-61 -49.5t-72 -17.5zM854 80q19 0 36 11t30.5 31.5t21.5 50t8 67.5t-17.5 59t-43.5 21q-19 0 -36 -11t-30.5 -31.5t-21.5 -50.5t-8 -67q0 -38 17.5 -59t43.5 -21z" />
    <glyph glyph-name="onethird" unicode="&#x2153;" horiz-adv-x="795" 
d="M651 700h103l-571 -700h-103zM228 560h-90l16 85h65q8 0 17.5 4.5t11.5 15.5l7 35h90l-78 -400h-90zM615 -5q-66 0 -105.5 30t-39.5 85h94q4 -15 16.5 -22.5t39.5 -7.5q23 0 36.5 13t13.5 33q0 18 -11 28.5t-34 10.5h-31l16 80h40q23 0 34 12.5t11 27.5q0 13 -11 24
t-39 11q-46 0 -52 -40h-95q11 64 51.5 94.5t100.5 30.5q36 0 62.5 -8.5t44 -23t25.5 -33.5t8 -40q0 -23 -7 -40t-17.5 -29t-23 -19.5t-24.5 -11.5q23 -14 35 -34t12 -41q0 -26 -10 -49.5t-29.5 -41.5t-47 -28.5t-63.5 -10.5z" />
    <glyph glyph-name="twothirds" unicode="&#x2154;" horiz-adv-x="875" 
d="M731 700h103l-571 -700h-103zM109 380l172 136q23 18 36.5 34.5t13.5 39.5q0 11 -10.5 20.5t-29.5 9.5q-23 0 -35 -8.5t-17 -31.5h-95q13 60 49 92.5t108 32.5q30 0 53.5 -8.5t39 -23.5t24 -34.5t8.5 -41.5q0 -43 -18 -71t-53 -55l-113 -91h142l-16 -80h-275zM695 -5
q-66 0 -105.5 30t-39.5 85h94q4 -15 16.5 -22.5t39.5 -7.5q23 0 36.5 13t13.5 33q0 18 -11 28.5t-34 10.5h-31l16 80h40q23 0 34 12.5t11 27.5q0 13 -11 24t-39 11q-46 0 -52 -40h-95q11 64 51.5 94.5t100.5 30.5q36 0 62.5 -8.5t44 -23t25.5 -33.5t8 -40q0 -23 -7 -40
t-17.5 -29t-23 -19.5t-24.5 -11.5q23 -14 35 -34t12 -41q0 -26 -10 -49.5t-29.5 -41.5t-47 -28.5t-63.5 -10.5z" />
    <glyph glyph-name="uni2155" unicode="&#x2155;" horiz-adv-x="805" 
d="M651 700h103l-571 -700h-103zM228 560h-90l16 85h65q8 0 17.5 4.5t11.5 15.5l7 35h90l-78 -400h-90zM627 -5q-64 0 -103 31.5t-42 88.5h95q4 -15 16.5 -25t38.5 -10t46.5 17t20.5 48q0 27 -17 38.5t-44 11.5q-12 0 -21 -4t-16 -9q-8 -5 -14 -12h-90l70 230h255l-16 -80
h-178l-20 -65h5q5 3 14 7q8 3 19 5.5t26 2.5q24 0 45.5 -8.5t37.5 -23.5t25 -36.5t9 -46.5q0 -36 -12 -65.5t-33.5 -50.5t-51.5 -32.5t-65 -11.5z" />
    <glyph glyph-name="uni2156" unicode="&#x2156;" horiz-adv-x="885" 
d="M731 700h103l-571 -700h-103zM109 380l172 136q23 18 36.5 34.5t13.5 39.5q0 11 -10.5 20.5t-29.5 9.5q-23 0 -35 -8.5t-17 -31.5h-95q13 60 49 92.5t108 32.5q30 0 53.5 -8.5t39 -23.5t24 -34.5t8.5 -41.5q0 -43 -18 -71t-53 -55l-113 -91h142l-16 -80h-275zM707 -5
q-64 0 -103 31.5t-42 88.5h95q4 -15 16.5 -25t38.5 -10t46.5 17t20.5 48q0 27 -17 38.5t-44 11.5q-12 0 -21 -4t-16 -9q-8 -5 -14 -12h-90l70 230h255l-16 -80h-178l-20 -65h5q5 3 14 7q8 3 19 5.5t26 2.5q24 0 45.5 -8.5t37.5 -23.5t25 -36.5t9 -46.5q0 -36 -12 -65.5
t-33.5 -50.5t-51.5 -32.5t-65 -11.5z" />
    <glyph glyph-name="uni2157" unicode="&#x2157;" horiz-adv-x="890" 
d="M736 700h103l-571 -700h-103zM259 295q-66 0 -105.5 30t-39.5 85h94q4 -15 16.5 -22.5t39.5 -7.5q23 0 36.5 13t13.5 33q0 18 -11 28.5t-34 10.5h-31l16 80h40q23 0 34 12.5t11 27.5q0 13 -11 24t-39 11q-46 0 -52 -40h-95q11 64 51.5 94.5t100.5 30.5q36 0 62.5 -8.5
t44 -23t25.5 -33.5t8 -40q0 -23 -7 -40t-17.5 -29t-23 -19.5t-24.5 -11.5q23 -14 35 -34t12 -41q0 -26 -10 -49.5t-29.5 -41.5t-47 -28.5t-63.5 -10.5zM712 -5q-64 0 -103 31.5t-42 88.5h95q4 -15 16.5 -25t38.5 -10t46.5 17t20.5 48q0 27 -17 38.5t-44 11.5q-12 0 -21 -4
t-16 -9q-8 -5 -14 -12h-90l70 230h255l-16 -80h-178l-20 -65h5q5 3 14 7q8 3 19 5.5t26 2.5q24 0 45.5 -8.5t37.5 -23.5t25 -36.5t9 -46.5q0 -36 -12 -65.5t-33.5 -50.5t-51.5 -32.5t-65 -11.5z" />
    <glyph glyph-name="uni2158" unicode="&#x2158;" horiz-adv-x="900" 
d="M746 700h103l-571 -700h-103zM275 385h-180l15 80l206 235h110l-46 -235h60l-15 -80h-60l-17 -85h-90zM290 465l23 115h-5l-101 -115h83zM722 -5q-64 0 -103 31.5t-42 88.5h95q4 -15 16.5 -25t38.5 -10t46.5 17t20.5 48q0 27 -17 38.5t-44 11.5q-12 0 -21 -4t-16 -9
q-8 -5 -14 -12h-90l70 230h255l-16 -80h-178l-20 -65h5q5 3 14 7q8 3 19 5.5t26 2.5q24 0 45.5 -8.5t37.5 -23.5t25 -36.5t9 -46.5q0 -36 -12 -65.5t-33.5 -50.5t-51.5 -32.5t-65 -11.5z" />
    <glyph glyph-name="uni2159" unicode="&#x2159;" horiz-adv-x="775" 
d="M651 700h103l-571 -700h-103zM228 560h-90l16 85h65q8 0 17.5 4.5t11.5 15.5l7 35h90l-78 -400h-90zM595 -5q-36 0 -63 10.5t-45 28.5t-27 41.5t-9 49.5q0 49 19 82.5t48 67.5l107 125h105l-109 -125q37 0 63.5 -10.5t43 -28t24.5 -40t8 -46.5q0 -35 -12.5 -63.5t-34 -49
t-52 -31.5t-66.5 -11zM605 80q30 0 47.5 18.5t17.5 45.5q0 22 -15.5 39t-49.5 17q-30 0 -47.5 -18.5t-17.5 -45.5q0 -22 15.5 -39t49.5 -17z" />
    <glyph glyph-name="uni215A" unicode="&#x215a;" horiz-adv-x="876" 
d="M752 700h103l-571 -700h-103zM267 295q-64 0 -103 31.5t-42 88.5h95q4 -15 16.5 -25t38.5 -10t46.5 17t20.5 48q0 27 -17 38.5t-44 11.5q-12 0 -21 -4t-16 -9q-8 -5 -14 -12h-90l70 230h255l-16 -80h-178l-20 -65h5q5 3 14 7q8 3 19 5.5t26 2.5q24 0 45.5 -8.5
t37.5 -23.5t25 -36.5t9 -46.5q0 -36 -12 -65.5t-33.5 -50.5t-51.5 -32.5t-65 -11.5zM696 -5q-36 0 -63 10.5t-45 28.5t-27 41.5t-9 49.5q0 49 19 82.5t48 67.5l107 125h105l-109 -125q37 0 63.5 -10.5t43 -28t24.5 -40t8 -46.5q0 -35 -12.5 -63.5t-34 -49t-52 -31.5
t-66.5 -11zM706 80q30 0 47.5 18.5t17.5 45.5q0 22 -15.5 39t-49.5 17q-30 0 -47.5 -18.5t-17.5 -45.5q0 -22 15.5 -39t49.5 -17z" />
    <glyph glyph-name="oneeighth" unicode="&#x215b;" horiz-adv-x="800" 
d="M651 700h103l-571 -700h-103zM228 560h-90l16 85h65q8 0 17.5 4.5t11.5 15.5l7 35h90l-78 -400h-90zM611 -5q-65 0 -107 28.5t-42 80.5q0 15 4 32t13 32.5t24 28.5t38 22q-16 11 -25 29.5t-9 39.5q0 24 10 45.5t28 37t43.5 25t57.5 9.5q34 0 60.5 -8.5t44 -23t26.5 -33
t9 -39.5q0 -32 -18.5 -60.5t-48.5 -39.5q24 -16 33.5 -36t9.5 -42q0 -31 -12 -54.5t-32.5 -40t-48 -25t-58.5 -8.5zM613 75q30 0 45.5 16.5t15.5 36.5q0 18 -14.5 32.5t-44.5 14.5t-45.5 -16.5t-15.5 -36.5q0 -18 14.5 -32.5t44.5 -14.5zM646 245q24 0 36.5 13.5t12.5 29.5
q0 14 -12 25t-40 11q-24 0 -36.5 -13.5t-12.5 -29.5q0 -14 12 -25t40 -11z" />
    <glyph glyph-name="threeeighths" unicode="&#x215c;" horiz-adv-x="885" 
d="M736 700h103l-571 -700h-103zM259 295q-66 0 -105.5 30t-39.5 85h94q4 -15 16.5 -22.5t39.5 -7.5q23 0 36.5 13t13.5 33q0 18 -11 28.5t-34 10.5h-31l16 80h40q23 0 34 12.5t11 27.5q0 13 -11 24t-39 11q-46 0 -52 -40h-95q11 64 51.5 94.5t100.5 30.5q36 0 62.5 -8.5
t44 -23t25.5 -33.5t8 -40q0 -23 -7 -40t-17.5 -29t-23 -19.5t-24.5 -11.5q23 -14 35 -34t12 -41q0 -26 -10 -49.5t-29.5 -41.5t-47 -28.5t-63.5 -10.5zM696 -5q-65 0 -107 28.5t-42 80.5q0 15 4 32t13 32.5t24 28.5t38 22q-16 11 -25 29.5t-9 39.5q0 24 10 45.5t28 37
t43.5 25t57.5 9.5q34 0 60.5 -8.5t44 -23t26.5 -33t9 -39.5q0 -32 -18.5 -60.5t-48.5 -39.5q24 -16 33.5 -36t9.5 -42q0 -31 -12 -54.5t-32.5 -40t-48 -25t-58.5 -8.5zM698 75q30 0 45.5 16.5t15.5 36.5q0 18 -14.5 32.5t-44.5 14.5t-45.5 -16.5t-15.5 -36.5
q0 -18 14.5 -32.5t44.5 -14.5zM731 245q24 0 36.5 13.5t12.5 29.5q0 14 -12 25t-40 11q-24 0 -36.5 -13.5t-12.5 -29.5q0 -14 12 -25t40 -11z" />
    <glyph glyph-name="fiveeighths" unicode="&#x215d;" horiz-adv-x="901" 
d="M752 700h103l-571 -700h-103zM267 295q-64 0 -103 31.5t-42 88.5h95q4 -15 16.5 -25t38.5 -10t46.5 17t20.5 48q0 27 -17 38.5t-44 11.5q-12 0 -21 -4t-16 -9q-8 -5 -14 -12h-90l70 230h255l-16 -80h-178l-20 -65h5q5 3 14 7q8 3 19 5.5t26 2.5q24 0 45.5 -8.5
t37.5 -23.5t25 -36.5t9 -46.5q0 -36 -12 -65.5t-33.5 -50.5t-51.5 -32.5t-65 -11.5zM712 -5q-65 0 -107 28.5t-42 80.5q0 15 4 32t13 32.5t24 28.5t38 22q-16 11 -25 29.5t-9 39.5q0 24 10 45.5t28 37t43.5 25t57.5 9.5q34 0 60.5 -8.5t44 -23t26.5 -33t9 -39.5
q0 -32 -18.5 -60.5t-48.5 -39.5q24 -16 33.5 -36t9.5 -42q0 -31 -12 -54.5t-32.5 -40t-48 -25t-58.5 -8.5zM714 75q30 0 45.5 16.5t15.5 36.5q0 18 -14.5 32.5t-44.5 14.5t-45.5 -16.5t-15.5 -36.5q0 -18 14.5 -32.5t44.5 -14.5zM747 245q24 0 36.5 13.5t12.5 29.5
q0 14 -12 25t-40 11q-24 0 -36.5 -13.5t-12.5 -29.5q0 -14 12 -25t40 -11z" />
    <glyph glyph-name="seveneighths" unicode="&#x215e;" horiz-adv-x="815" 
d="M666 700h103l-571 -700h-103zM324 620h-163l16 80h265l-16 -80l-202 -320h-102zM626 -5q-65 0 -107 28.5t-42 80.5q0 15 4 32t13 32.5t24 28.5t38 22q-16 11 -25 29.5t-9 39.5q0 24 10 45.5t28 37t43.5 25t57.5 9.5q34 0 60.5 -8.5t44 -23t26.5 -33t9 -39.5
q0 -32 -18.5 -60.5t-48.5 -39.5q24 -16 33.5 -36t9.5 -42q0 -31 -12 -54.5t-32.5 -40t-48 -25t-58.5 -8.5zM628 75q30 0 45.5 16.5t15.5 36.5q0 18 -14.5 32.5t-44.5 14.5t-45.5 -16.5t-15.5 -36.5q0 -18 14.5 -32.5t44.5 -14.5zM661 245q24 0 36.5 13.5t12.5 29.5
q0 14 -12 25t-40 11q-24 0 -36.5 -13.5t-12.5 -29.5q0 -14 12 -25t40 -11z" />
    <glyph glyph-name="uni215F" unicode="&#x215f;" horiz-adv-x="430" 
d="M651 700h103l-571 -700h-103zM228 560h-90l16 85h65q8 0 17.5 4.5t11.5 15.5l7 35h90l-78 -400h-90z" />
    <glyph glyph-name="uni2190" unicode="&#x2190;" 
d="M215 345v5l215 215l70 -70l-100 -100h515v-95h-515l100 -100l-70 -70z" />
    <glyph glyph-name="uni2191" unicode="&#x2191;" 
d="M515 515l-100 -100l-70 70l215 215h5l215 -215l-70 -70l-100 100v-515h-95v515z" />
    <glyph glyph-name="uni2192" unicode="&#x2192;" 
d="M630 200l100 100h-515v95h515l-100 100l70 70l215 -215v-5l-215 -215z" />
    <glyph glyph-name="uni2193" unicode="&#x2193;" 
d="M345 215l70 70l100 -100v515h95v-515l100 100l70 -70l-215 -215h-5z" />
    <glyph glyph-name="uni2194" unicode="&#x2194;" 
d="M195 345v5l215 215l70 -70l-100 -100h370l-100 100l70 70l215 -215v-5l-215 -215l-70 70l100 100h-370l100 -100l-70 -70z" />
    <glyph glyph-name="uni2195" unicode="&#x2195;" 
d="M345 195l70 70l100 -100v370l-100 -100l-70 70l215 215h5l215 -215l-70 -70l-100 100v-370l100 100l70 -70l-215 -215h-5z" />
    <glyph glyph-name="uni2196" unicode="&#x2196;" 
d="M360 490v-150h-95v300l10 10h300v-95h-150l435 -435l-65 -65z" />
    <glyph glyph-name="uni2197" unicode="&#x2197;" 
d="M270 120l435 435h-150v95h300l10 -10v-300h-95v150l-435 -435z" />
    <glyph glyph-name="uni2198" unicode="&#x2198;" 
d="M555 145h150l-435 435l65 65l435 -435v150h95v-300l-10 -10h-300v95z" />
    <glyph glyph-name="uni2199" unicode="&#x2199;" 
d="M265 60v300h95v-150l435 435l65 -65l-435 -435h150v-95h-300z" />
    <glyph glyph-name="uni21C5" unicode="&#x21c5;" 
d="M350 515l-100 -100l-70 70l215 215h5l215 -215l-70 -70l-100 100v-515h-95v515zM515 215l70 70l100 -100v515h95v-515l100 100l70 -70l-215 -215h-5z" />
    <glyph glyph-name="uni21F5" unicode="&#x21f5;" 
d="M180 215l70 70l100 -100v515h95v-515l100 100l70 -70l-215 -215h-5zM685 515l-100 -100l-70 70l215 215h5l215 -215l-70 -70l-100 100v-515h-95v515z" />
    <glyph glyph-name="partialdiff" unicode="&#x2202;" horiz-adv-x="580" 
d="M335 -10q-51 0 -93 15.5t-72.5 45.5t-47.5 74t-17 100q0 52 16 94.5t44.5 72.5t68 46.5t86.5 16.5q97 0 165 -60h5q0 51 -11.5 92.5t-32.5 71t-50.5 45.5t-65.5 16q-38 0 -61 -16t-34 -39h-101q6 26 20.5 52t38.5 46.5t58 33.5t79 13q121 0 188 -89.5t67 -270.5
q0 -84 -14 -151t-44 -113.5t-77.5 -71t-114.5 -24.5zM335 80q32 0 59.5 12.5t47.5 37t31.5 62t11.5 88.5q-14 24 -34 42q-18 16 -45.5 29.5t-65.5 13.5q-60 0 -100 -36t-40 -104t37.5 -106.5t97.5 -38.5z" />
    <glyph glyph-name="emptyset" unicode="&#x2205;" horiz-adv-x="820" 
d="M480 -10q-113 0 -196 51l-39 -46h-125l91 108q-42 47 -64 109.5t-22 137.5q0 81 26 147t73 113.5t112 73.5t144 26q57 0 105.5 -13.5t90.5 -38.5l39 47h125l-91 -109q41 -47 63.5 -109t22.5 -137q0 -81 -26 -147t-73 -113.5t-112 -73.5t-144 -26zM613 583q-59 37 -133 37
q-54 0 -101 -19.5t-81 -55.5t-53.5 -85.5t-19.5 -109.5q0 -50 13.5 -92.5t37.5 -76.5zM480 80q54 0 101 19.5t81 55.5t53.5 85.5t19.5 109.5q0 50 -13.5 92t-38.5 76l-337 -402q29 -17 62.5 -26.5t71.5 -9.5z" />
    <glyph glyph-name="uni2206" unicode="&#x2206;" horiz-adv-x="650" 
d="M300 700h130l250 -700h-630zM545 90l-180 505l-180 -505h360z" />
    <glyph glyph-name="product" unicode="&#x220f;" horiz-adv-x="710" 
d="M158 700h530v-810h-105v715h-320v-715h-105v810z" />
    <glyph glyph-name="summation" unicode="&#x2211;" horiz-adv-x="590" 
d="M140 -20l220 335l-220 295v90h480v-95h-360l220 -290l-220 -330h360v-95h-480v90z" />
    <glyph glyph-name="minus" unicode="&#x2212;" horiz-adv-x="550" 
d="M95 365h480v-110h-480v110z" />
    <glyph glyph-name="radical" unicode="&#x221a;" horiz-adv-x="650" 
d="M205 135h-115v95h190l81 -235h11l223 730h105l-255 -835h-155z" />
    <glyph glyph-name="infinity" unicode="&#x221e;" horiz-adv-x="790" 
d="M288 185q-79 0 -124.5 45t-45.5 120t45.5 120t124.5 45q28 0 53.5 -8.5t47.5 -22.5t40.5 -32t33.5 -37q15 19 33.5 37t40.5 32t47.5 22.5t53.5 8.5q79 0 124.5 -45t45.5 -120t-45.5 -120t-124.5 -45q-28 0 -53.5 8.5t-47.5 22.5t-40.5 32t-33.5 37q-15 -19 -33.5 -37
t-40.5 -32t-47.5 -22.5t-53.5 -8.5zM288 265q38 0 70 25.5t55 59.5q-23 34 -55 59.5t-70 25.5t-61.5 -23.5t-23.5 -61.5t23.5 -61.5t61.5 -23.5zM638 265q38 0 61.5 23.5t23.5 61.5t-23.5 61.5t-61.5 23.5t-70 -25.5t-55 -59.5q23 -34 55 -59.5t70 -25.5z" />
    <glyph glyph-name="integral" unicode="&#x222b;" horiz-adv-x="390" 
d="M110 -20h15q28 0 45.5 6t27.5 20t13.5 37t3.5 57v500q0 58 9 98t31 65t57 36t88 11h20v-90h-15q-28 0 -45.5 -6t-27.5 -20t-13.5 -37t-3.5 -57v-500q0 -58 -9 -98t-31 -65t-57.5 -36t-87.5 -11h-20v90z" />
    <glyph glyph-name="approxequal" unicode="&#x2248;" horiz-adv-x="605" 
d="M110 110q0 36 10 67.5t30 55.5t48.5 38t66.5 14q30 0 55 -8.5t46 -19t39 -19t35 -8.5q23 0 36.5 14.5t13.5 40.5h125q0 -36 -10 -67.5t-30 -55.5t-49 -38t-66 -14q-30 0 -55 8.5t-46 19t-39 19t-35 8.5q-23 0 -36.5 -14.5t-13.5 -40.5h-125zM110 320q0 36 10 67.5
t30 55.5t48.5 38t66.5 14q30 0 55 -8.5t46 -19t39 -19t35 -8.5q23 0 36.5 14.5t13.5 40.5h125q0 -36 -10 -67.5t-30 -55.5t-49 -38t-66 -14q-30 0 -55 8.5t-46 19t-39 19t-35 8.5q-23 0 -36.5 -14.5t-13.5 -40.5h-125z" />
    <glyph glyph-name="notequal" unicode="&#x2260;" horiz-adv-x="550" 
d="M212 140h-112v110h160l50 115h-210v110h258l32 75h110l-32 -75h112v-110h-160l-50 -115h210v-110h-258l-32 -75h-110z" />
    <glyph glyph-name="lessequal" unicode="&#x2264;" horiz-adv-x="510" 
d="M90 100h440v-100h-440v100zM90 310v100l440 185v-120l-305 -115l305 -115v-120z" />
    <glyph glyph-name="greaterequal" unicode="&#x2265;" horiz-adv-x="510" 
d="M104 100h440v-100h-440v100zM104 245l305 115l-305 115v120l440 -185v-100l-440 -185v120z" />
    <glyph glyph-name="uni2318" unicode="&#x2318;" horiz-adv-x="815" 
d="M270 0q-68 0 -109 40.5t-41 104.5t42.5 104.5t117.5 40.5h60v120h-60q-75 0 -117.5 40.5t-42.5 104.5t41 104.5t109 40.5q72 0 111 -40t39 -115v-60h115v60q0 75 39 115t111 40q68 0 109 -40.5t41 -104.5t-42.5 -104.5t-117.5 -40.5h-60v-120h60q75 0 117.5 -40.5
t42.5 -104.5t-41 -104.5t-109 -40.5q-72 0 -111 40t-39 115v60h-115v-60q0 -75 -39 -115t-111 -40zM270 85q30 0 50 20t20 50v60h-60q-30 0 -50 -19.5t-20 -45.5q0 -30 17 -47.5t43 -17.5zM535 290v120h-115v-120h115zM340 485v60q0 30 -20 50t-50 20q-26 0 -43 -17.5
t-17 -47.5q0 -26 20 -45.5t50 -19.5h60zM685 85q26 0 43 17.5t17 47.5q0 26 -20 45.5t-50 19.5h-60v-60q0 -30 20 -50t50 -20zM675 485q30 0 50 19.5t20 45.5q0 30 -17 47.5t-43 17.5q-30 0 -50 -20t-20 -50v-60h60z" />
    <glyph glyph-name="uni2460" unicode="&#x2460;" 
d="M536 410h-90v85h65q25 0 25 25v30h90v-400h-90v260zM566 -80q-90 0 -168.5 33.5t-136.5 91.5t-91.5 136.5t-33.5 168.5t33.5 168.5t91.5 136.5t136.5 91.5t168.5 33.5t168.5 -33.5t136.5 -91.5t91.5 -136.5t33.5 -168.5t-33.5 -168.5t-91.5 -136.5t-136.5 -91.5
t-168.5 -33.5zM566 -5q75 0 140 27.5t112.5 75t75 112.5t27.5 140t-27.5 140t-75 112.5t-112.5 75t-140 27.5t-140 -27.5t-112.5 -75t-75 -112.5t-27.5 -140t27.5 -140t75 -112.5t112.5 -75t140 -27.5z" />
    <glyph glyph-name="uni2461" unicode="&#x2461;" 
d="M431 230l145 135q20 19 30 35t10 35q0 15 -11 25t-34 10q-45 0 -45 -40h-95q2 26 11 49t26 40t43.5 26.5t64.5 9.5q64 0 99.5 -33.5t35.5 -86.5q0 -34 -15 -60t-45 -55l-95 -90h150v-80h-275v80zM566 -80q-90 0 -168.5 33.5t-136.5 91.5t-91.5 136.5t-33.5 168.5
t33.5 168.5t91.5 136.5t136.5 91.5t168.5 33.5t168.5 -33.5t136.5 -91.5t91.5 -136.5t33.5 -168.5t-33.5 -168.5t-91.5 -136.5t-136.5 -91.5t-168.5 -33.5zM566 -5q75 0 140 27.5t112.5 75t75 112.5t27.5 140t-27.5 140t-75 112.5t-112.5 75t-140 27.5t-140 -27.5
t-112.5 -75t-75 -112.5t-27.5 -140t27.5 -140t75 -112.5t112.5 -75t140 -27.5z" />
    <glyph glyph-name="uni2462" unicode="&#x2462;" 
d="M576 145q-68 0 -107 31t-43 84h95q4 -15 16.5 -22.5t38.5 -7.5q23 0 36.5 11t13.5 34q0 19 -13.5 29.5t-36.5 10.5h-35v80h35q26 0 35.5 12.5t9.5 27.5t-12 25t-38 10t-36 -10.5t-14 -29.5h-95q4 57 38.5 91t106.5 34t108.5 -32.5t36.5 -77.5q0 -34 -18 -55.5t-37 -29.5
q60 -30 60 -90q0 -23 -8 -45t-25 -40t-45 -29t-67 -11zM566 -80q-90 0 -168.5 33.5t-136.5 91.5t-91.5 136.5t-33.5 168.5t33.5 168.5t91.5 136.5t136.5 91.5t168.5 33.5t168.5 -33.5t136.5 -91.5t91.5 -136.5t33.5 -168.5t-33.5 -168.5t-91.5 -136.5t-136.5 -91.5
t-168.5 -33.5zM566 -5q75 0 140 27.5t112.5 75t75 112.5t27.5 140t-27.5 140t-75 112.5t-112.5 75t-140 27.5t-140 -27.5t-112.5 -75t-75 -112.5t-27.5 -140t27.5 -140t75 -112.5t112.5 -75t140 -27.5z" />
    <glyph glyph-name="uni2463" unicode="&#x2463;" 
d="M566 235h-180v80l160 235h110v-235h60v-80h-60v-85h-90v85zM566 315v120h-5l-80 -120h85zM566 -80q-90 0 -168.5 33.5t-136.5 91.5t-91.5 136.5t-33.5 168.5t33.5 168.5t91.5 136.5t136.5 91.5t168.5 33.5t168.5 -33.5t136.5 -91.5t91.5 -136.5t33.5 -168.5t-33.5 -168.5
t-91.5 -136.5t-136.5 -91.5t-168.5 -33.5zM566 -5q75 0 140 27.5t112.5 75t75 112.5t27.5 140t-27.5 140t-75 112.5t-112.5 75t-140 27.5t-140 -27.5t-112.5 -75t-75 -112.5t-27.5 -140t27.5 -140t75 -112.5t112.5 -75t140 -27.5z" />
    <glyph glyph-name="uni2464" unicode="&#x2464;" 
d="M571 145q-32 0 -59.5 9t-48 25t-33 38t-14.5 48h95q4 -15 19 -25t41 -10q60 0 60 55q0 30 -17.5 45t-47.5 15q-23 0 -34.5 -8.5t-15.5 -16.5h-90l25 230h250v-80h-178l-7 -65h5q7 3 17 7q8 3 20.5 5.5t27.5 2.5q60 0 97.5 -35.5t37.5 -98.5q0 -61 -39 -101t-111 -40z
M566 -80q-90 0 -168.5 33.5t-136.5 91.5t-91.5 136.5t-33.5 168.5t33.5 168.5t91.5 136.5t136.5 91.5t168.5 33.5t168.5 -33.5t136.5 -91.5t91.5 -136.5t33.5 -168.5t-33.5 -168.5t-91.5 -136.5t-136.5 -91.5t-168.5 -33.5zM566 -5q75 0 140 27.5t112.5 75t75 112.5
t27.5 140t-27.5 140t-75 112.5t-112.5 75t-140 27.5t-140 -27.5t-112.5 -75t-75 -112.5t-27.5 -140t27.5 -140t75 -112.5t112.5 -75t140 -27.5z" />
    <glyph glyph-name="uni2465" unicode="&#x2465;" 
d="M566 145q-39 0 -68.5 12t-48.5 33t-28.5 48t-9.5 57q0 38 11.5 66t28.5 54l90 135h100l-85 -125h15q34 0 61.5 -10.5t47 -29.5t30.5 -44.5t11 -55.5t-11 -55.5t-31 -44.5t-48.5 -29.5t-64.5 -10.5zM566 230q30 0 47.5 17t17.5 43t-17.5 43t-47.5 17t-47.5 -17t-17.5 -43
t17.5 -43t47.5 -17zM566 -80q-90 0 -168.5 33.5t-136.5 91.5t-91.5 136.5t-33.5 168.5t33.5 168.5t91.5 136.5t136.5 91.5t168.5 33.5t168.5 -33.5t136.5 -91.5t91.5 -136.5t33.5 -168.5t-33.5 -168.5t-91.5 -136.5t-136.5 -91.5t-168.5 -33.5zM566 -5q75 0 140 27.5
t112.5 75t75 112.5t27.5 140t-27.5 140t-75 112.5t-112.5 75t-140 27.5t-140 -27.5t-112.5 -75t-75 -112.5t-27.5 -140t27.5 -140t75 -112.5t112.5 -75t140 -27.5z" />
    <glyph glyph-name="uni2466" unicode="&#x2466;" 
d="M611 470h-170v80h265v-80l-140 -320h-95zM566 -80q-90 0 -168.5 33.5t-136.5 91.5t-91.5 136.5t-33.5 168.5t33.5 168.5t91.5 136.5t136.5 91.5t168.5 33.5t168.5 -33.5t136.5 -91.5t91.5 -136.5t33.5 -168.5t-33.5 -168.5t-91.5 -136.5t-136.5 -91.5t-168.5 -33.5z
M566 -5q75 0 140 27.5t112.5 75t75 112.5t27.5 140t-27.5 140t-75 112.5t-112.5 75t-140 27.5t-140 -27.5t-112.5 -75t-75 -112.5t-27.5 -140t27.5 -140t75 -112.5t112.5 -75t140 -27.5z" />
    <glyph glyph-name="uni2467" unicode="&#x2467;" 
d="M565 145q-66 0 -108 31.5t-42 88.5q0 26 13 52t47 43q-23 11 -36.5 35t-13.5 50q0 45 36 77.5t104 32.5t104 -32.5t36 -77.5q0 -26 -13.5 -50t-36.5 -35q34 -17 47 -43t13 -52q0 -57 -42 -88.5t-108 -31.5zM565 225q30 0 45 15.5t15 34.5t-15 34.5t-45 15.5t-45 -15.5
t-15 -34.5t15 -34.5t45 -15.5zM565 395q26 0 38 12.5t12 27.5t-12 27.5t-38 12.5t-38 -12.5t-12 -27.5t12 -27.5t38 -12.5zM566 -80q-90 0 -168.5 33.5t-136.5 91.5t-91.5 136.5t-33.5 168.5t33.5 168.5t91.5 136.5t136.5 91.5t168.5 33.5t168.5 -33.5t136.5 -91.5
t91.5 -136.5t33.5 -168.5t-33.5 -168.5t-91.5 -136.5t-136.5 -91.5t-168.5 -33.5zM566 -5q75 0 140 27.5t112.5 75t75 112.5t27.5 140t-27.5 140t-75 112.5t-112.5 75t-140 27.5t-140 -27.5t-112.5 -75t-75 -112.5t-27.5 -140t27.5 -140t75 -112.5t112.5 -75t140 -27.5z" />
    <glyph glyph-name="uni2468" unicode="&#x2468;" 
d="M576 275h-15q-34 0 -61.5 10.5t-47 29.5t-30.5 44.5t-11 55.5t11 55.5t31 44.5t48.5 29.5t64.5 10.5q39 0 68.5 -12t48.5 -33t28.5 -48t9.5 -57q0 -38 -11.5 -66t-28.5 -54l-90 -135h-100zM566 350q30 0 47.5 17t17.5 43t-17.5 43t-47.5 17t-47.5 -17t-17.5 -43t17.5 -43
t47.5 -17zM566 -80q-90 0 -168.5 33.5t-136.5 91.5t-91.5 136.5t-33.5 168.5t33.5 168.5t91.5 136.5t136.5 91.5t168.5 33.5t168.5 -33.5t136.5 -91.5t91.5 -136.5t33.5 -168.5t-33.5 -168.5t-91.5 -136.5t-136.5 -91.5t-168.5 -33.5zM566 -5q75 0 140 27.5t112.5 75
t75 112.5t27.5 140t-27.5 140t-75 112.5t-112.5 75t-140 27.5t-140 -27.5t-112.5 -75t-75 -112.5t-27.5 -140t27.5 -140t75 -112.5t112.5 -75t140 -27.5z" />
    <glyph glyph-name="uni2469" unicode="&#x2469;" 
d="M376 410h-90v85h65q25 0 25 25v30h90v-400h-90v260zM676 145q-36 0 -66 13t-52 39t-34.5 64t-12.5 89t12.5 89t34.5 64t52 39t66 13t66 -13t52 -39t34.5 -64t12.5 -89t-12.5 -89t-34.5 -64t-52 -39t-66 -13zM676 230q30 0 52.5 28t22.5 92t-22.5 92t-52.5 28t-52.5 -28
t-22.5 -92t22.5 -92t52.5 -28zM566 -80q-90 0 -168.5 33.5t-136.5 91.5t-91.5 136.5t-33.5 168.5t33.5 168.5t91.5 136.5t136.5 91.5t168.5 33.5t168.5 -33.5t136.5 -91.5t91.5 -136.5t33.5 -168.5t-33.5 -168.5t-91.5 -136.5t-136.5 -91.5t-168.5 -33.5zM566 -5
q75 0 140 27.5t112.5 75t75 112.5t27.5 140t-27.5 140t-75 112.5t-112.5 75t-140 27.5t-140 -27.5t-112.5 -75t-75 -112.5t-27.5 -140t27.5 -140t75 -112.5t112.5 -75t140 -27.5z" />
    <glyph glyph-name="uni246A" unicode="&#x246a;" 
d="M421 410h-90v85h65q25 0 25 25v30h90v-400h-90v260zM656 410h-90v85h65q25 0 25 25v30h90v-400h-90v260zM566 -80q-90 0 -168.5 33.5t-136.5 91.5t-91.5 136.5t-33.5 168.5t33.5 168.5t91.5 136.5t136.5 91.5t168.5 33.5t168.5 -33.5t136.5 -91.5t91.5 -136.5
t33.5 -168.5t-33.5 -168.5t-91.5 -136.5t-136.5 -91.5t-168.5 -33.5zM566 -5q75 0 140 27.5t112.5 75t75 112.5t27.5 140t-27.5 140t-75 112.5t-112.5 75t-140 27.5t-140 -27.5t-112.5 -75t-75 -112.5t-27.5 -140t27.5 -140t75 -112.5t112.5 -75t140 -27.5z" />
    <glyph glyph-name="uni246B" unicode="&#x246b;" 
d="M386 410h-90v85h65q25 0 25 25v30h90v-400h-90v260zM531 230l145 135q20 19 30 35t10 35q0 15 -11 25t-34 10q-45 0 -45 -40h-95q2 26 11 49t26 40t43.5 26.5t64.5 9.5q64 0 99.5 -33.5t35.5 -86.5q0 -34 -15 -60t-45 -55l-95 -90h150v-80h-275v80zM566 -80
q-90 0 -168.5 33.5t-136.5 91.5t-91.5 136.5t-33.5 168.5t33.5 168.5t91.5 136.5t136.5 91.5t168.5 33.5t168.5 -33.5t136.5 -91.5t91.5 -136.5t33.5 -168.5t-33.5 -168.5t-91.5 -136.5t-136.5 -91.5t-168.5 -33.5zM566 -5q75 0 140 27.5t112.5 75t75 112.5t27.5 140
t-27.5 140t-75 112.5t-112.5 75t-140 27.5t-140 -27.5t-112.5 -75t-75 -112.5t-27.5 -140t27.5 -140t75 -112.5t112.5 -75t140 -27.5z" />
    <glyph glyph-name="uni246C" unicode="&#x246c;" 
d="M381 410h-90v85h65q25 0 25 25v30h90v-400h-90v260zM671 145q-68 0 -107 31t-43 84h95q4 -15 16.5 -22.5t38.5 -7.5q23 0 36.5 11t13.5 34q0 19 -13.5 29.5t-36.5 10.5h-35v80h35q26 0 35.5 12.5t9.5 27.5t-12 25t-38 10t-36 -10.5t-14 -29.5h-95q4 57 38.5 91t106.5 34
t108.5 -32.5t36.5 -77.5q0 -34 -18 -55.5t-37 -29.5q60 -30 60 -90q0 -23 -8 -45t-25 -40t-45 -29t-67 -11zM566 -80q-90 0 -168.5 33.5t-136.5 91.5t-91.5 136.5t-33.5 168.5t33.5 168.5t91.5 136.5t136.5 91.5t168.5 33.5t168.5 -33.5t136.5 -91.5t91.5 -136.5
t33.5 -168.5t-33.5 -168.5t-91.5 -136.5t-136.5 -91.5t-168.5 -33.5zM566 -5q75 0 140 27.5t112.5 75t75 112.5t27.5 140t-27.5 140t-75 112.5t-112.5 75t-140 27.5t-140 -27.5t-112.5 -75t-75 -112.5t-27.5 -140t27.5 -140t75 -112.5t112.5 -75t140 -27.5z" />
    <glyph glyph-name="uni246D" unicode="&#x246d;" 
d="M381 410h-90v85h65q25 0 25 25v30h90v-400h-90v260zM686 235h-180v80l160 235h110v-235h60v-80h-60v-85h-90v85zM686 315v120h-5l-80 -120h85zM566 -80q-90 0 -168.5 33.5t-136.5 91.5t-91.5 136.5t-33.5 168.5t33.5 168.5t91.5 136.5t136.5 91.5t168.5 33.5t168.5 -33.5
t136.5 -91.5t91.5 -136.5t33.5 -168.5t-33.5 -168.5t-91.5 -136.5t-136.5 -91.5t-168.5 -33.5zM566 -5q75 0 140 27.5t112.5 75t75 112.5t27.5 140t-27.5 140t-75 112.5t-112.5 75t-140 27.5t-140 -27.5t-112.5 -75t-75 -112.5t-27.5 -140t27.5 -140t75 -112.5t112.5 -75
t140 -27.5z" />
    <glyph glyph-name="uni246E" unicode="&#x246e;" 
d="M381 410h-90v85h65q25 0 25 25v30h90v-400h-90v260zM671 145q-32 0 -59.5 9t-48 25t-33 38t-14.5 48h95q4 -15 19 -25t41 -10q60 0 60 55q0 30 -17.5 45t-47.5 15q-23 0 -34.5 -8.5t-15.5 -16.5h-90l25 230h250v-80h-178l-7 -65h5q7 3 17 7q8 3 20.5 5.5t27.5 2.5
q60 0 97.5 -35.5t37.5 -98.5q0 -61 -39 -101t-111 -40zM566 -80q-90 0 -168.5 33.5t-136.5 91.5t-91.5 136.5t-33.5 168.5t33.5 168.5t91.5 136.5t136.5 91.5t168.5 33.5t168.5 -33.5t136.5 -91.5t91.5 -136.5t33.5 -168.5t-33.5 -168.5t-91.5 -136.5t-136.5 -91.5
t-168.5 -33.5zM566 -5q75 0 140 27.5t112.5 75t75 112.5t27.5 140t-27.5 140t-75 112.5t-112.5 75t-140 27.5t-140 -27.5t-112.5 -75t-75 -112.5t-27.5 -140t27.5 -140t75 -112.5t112.5 -75t140 -27.5z" />
    <glyph glyph-name="uni246F" unicode="&#x246f;" 
d="M381 410h-90v85h65q25 0 25 25v30h90v-400h-90v260zM671 145q-39 0 -68.5 12t-48.5 33t-28.5 48t-9.5 57q0 38 11.5 66t28.5 54l90 135h100l-85 -125h15q34 0 61.5 -10.5t47 -29.5t30.5 -44.5t11 -55.5t-11 -55.5t-31 -44.5t-48.5 -29.5t-64.5 -10.5zM671 230
q30 0 47.5 17t17.5 43t-17.5 43t-47.5 17t-47.5 -17t-17.5 -43t17.5 -43t47.5 -17zM566 -80q-90 0 -168.5 33.5t-136.5 91.5t-91.5 136.5t-33.5 168.5t33.5 168.5t91.5 136.5t136.5 91.5t168.5 33.5t168.5 -33.5t136.5 -91.5t91.5 -136.5t33.5 -168.5t-33.5 -168.5
t-91.5 -136.5t-136.5 -91.5t-168.5 -33.5zM566 -5q75 0 140 27.5t112.5 75t75 112.5t27.5 140t-27.5 140t-75 112.5t-112.5 75t-140 27.5t-140 -27.5t-112.5 -75t-75 -112.5t-27.5 -140t27.5 -140t75 -112.5t112.5 -75t140 -27.5z" />
    <glyph glyph-name="uni2470" unicode="&#x2470;" 
d="M391 410h-90v85h65q25 0 25 25v30h90v-400h-90v260zM711 470h-170v80h265v-80l-140 -320h-95zM566 -80q-90 0 -168.5 33.5t-136.5 91.5t-91.5 136.5t-33.5 168.5t33.5 168.5t91.5 136.5t136.5 91.5t168.5 33.5t168.5 -33.5t136.5 -91.5t91.5 -136.5t33.5 -168.5
t-33.5 -168.5t-91.5 -136.5t-136.5 -91.5t-168.5 -33.5zM566 -5q75 0 140 27.5t112.5 75t75 112.5t27.5 140t-27.5 140t-75 112.5t-112.5 75t-140 27.5t-140 -27.5t-112.5 -75t-75 -112.5t-27.5 -140t27.5 -140t75 -112.5t112.5 -75t140 -27.5z" />
    </font>
</defs>
</svg>
