<?xml version="1.0" standalone="no"?>
<!DOCTYPE svg PUBLIC "-//W3C//DTD SVG 1.1//EN" "http://www.w3.org/Graphics/SVG/1.1/DTD/svg11.dtd" >
<svg xmlns="http://www.w3.org/2000/svg" xmlns:xlink="http://www.w3.org/1999/xlink" version="1.1">
<metadata>
Created by FontForge 20170731 at Thu Oct 24 17:32:59 2019
 By Aleksey,,,
Copyright (c) 2019 by TypeType. Designers Ivan Gladkikh, Pavel Emelyanov. Technical designers Marina Khodak, Kseniya Karataeva, Nadezhda Polomoshnova, Yuri Nako, Nadyr Rakhimov, Victor Rubenko. All rights reserved.
</metadata>
<defs>
<font id="TTInterphasesMono-Regular" horiz-adv-x="600" >
  <font-face 
    font-family="TT Interphases Mono"
    font-weight="400"
    font-stretch="normal"
    units-per-em="1000"
    panose-1="2 0 5 6 3 0 0 2 0 4"
    ascent="760"
    descent="-240"
    x-height="520"
    cap-height="700"
    bbox="-465 -245 1205 985"
    underline-thickness="50"
    underline-position="-200"
    unicode-range="U+000D-F739"
  />
<missing-glyph 
d="M372 -14q-42 0 -71 29t-29 71v1q-9 -3 -21 -3q-16 0 -29 6q-11 -24 -33.5 -39t-51.5 -15q-19 0 -36 7.5t-29.5 20t-20 29.5t-7.5 37v344q0 51 19.5 97t54 81.5t81.5 56.5t101 21q50 0 96 -19.5t81.5 -54t57 -81.5t21.5 -101v-230v-96q0 -27 -18.5 -45.5t-45.5 -18.5
q-11 0 -20 3v-1q0 -42 -29 -71t-71 -29zM372 30q23 0 39.5 16.5t16.5 39.5v62v75h44v-76q0 -8 6 -13.5t14 -5.5t14 6t6 14v52v274q0 44 -16.5 82.5t-45 67.5t-67 45.5t-83.5 16.5t-83.5 -16.5t-67 -45.5t-45 -67.5t-16.5 -82.5v-344q0 -20 14.5 -35t34.5 -15q21 0 35.5 15
t14.5 35v2v16v112h44v-112q0 -8 6 -14t14 -6q9 0 15 6t6 14h44v-62q0 -23 16.5 -39.5t39.5 -16.5zM229 333q27 35 71 35q43 0 70 -35l-35 -27q-13 18 -35 18q-21 0 -36 -18zM150 454l25 25l-25 25l31 31l25 -25l25 25l31 -31l-25 -25l25 -25l-31 -31l-25 25l-25 -25z
M430 269q-11 0 -18.5 7.5t-7.5 18.5q0 5 4 13.5t9 16.5q5 10 13 20q7 -10 13 -20q5 -8 9 -16.5t4 -13.5q0 -11 -7.5 -18.5t-18.5 -7.5zM338 454l25 25l-25 25l31 31l25 -25l25 25l31 -31l-25 -25l25 -25l-31 -31l-25 25l-25 -25z" />
    <glyph glyph-name=".notdef" 
d="M372 -14q-42 0 -71 29t-29 71v1q-9 -3 -21 -3q-16 0 -29 6q-11 -24 -33.5 -39t-51.5 -15q-19 0 -36 7.5t-29.5 20t-20 29.5t-7.5 37v344q0 51 19.5 97t54 81.5t81.5 56.5t101 21q50 0 96 -19.5t81.5 -54t57 -81.5t21.5 -101v-230v-96q0 -27 -18.5 -45.5t-45.5 -18.5
q-11 0 -20 3v-1q0 -42 -29 -71t-71 -29zM372 30q23 0 39.5 16.5t16.5 39.5v62v75h44v-76q0 -8 6 -13.5t14 -5.5t14 6t6 14v52v274q0 44 -16.5 82.5t-45 67.5t-67 45.5t-83.5 16.5t-83.5 -16.5t-67 -45.5t-45 -67.5t-16.5 -82.5v-344q0 -20 14.5 -35t34.5 -15q21 0 35.5 15
t14.5 35v2v16v112h44v-112q0 -8 6 -14t14 -6q9 0 15 6t6 14h44v-62q0 -23 16.5 -39.5t39.5 -16.5zM229 333q27 35 71 35q43 0 70 -35l-35 -27q-13 18 -35 18q-21 0 -36 -18zM150 454l25 25l-25 25l31 31l25 -25l25 25l31 -31l-25 -25l25 -25l-31 -31l-25 25l-25 -25z
M430 269q-11 0 -18.5 7.5t-7.5 18.5q0 5 4 13.5t9 16.5q5 10 13 20q7 -10 13 -20q5 -8 9 -16.5t4 -13.5q0 -11 -7.5 -18.5t-18.5 -7.5zM338 454l25 25l-25 25l31 31l25 -25l25 25l31 -31l-25 -25l25 -25l-31 -31l-25 25l-25 -25z" />
    <glyph glyph-name=".null" horiz-adv-x="0" 
 />
    <glyph glyph-name=".null" horiz-adv-x="0" 
 />
    <glyph glyph-name="nonmarkingreturn" unicode="&#xd;" horiz-adv-x="0" 
 />
    <glyph glyph-name="space" unicode=" " 
 />
    <glyph glyph-name="exclam" unicode="!" 
d="M300 -5q-23 0 -39 16t-16 39t16 39t39 16t39 -16t16 -39t-16 -39t-39 -16zM255 650v50h90v-50l-15 -450h-60z" />
    <glyph glyph-name="quotedbl" unicode="&#x22;" 
d="M185 700h75v-220h-75v220zM340 700h75v-220h-75v220z" />
    <glyph glyph-name="numbersign" unicode="#" 
d="M148 210h-98l15 70h98l30 140h-98l15 70h98l44 210h75l-44 -210h94l45 210h75l-45 -210h98l-15 -70h-98l-30 -140h98l-15 -70h-98l-44 -210h-75l44 210h-94l-45 -210h-75zM332 280l30 140h-94l-30 -140h94z" />
    <glyph glyph-name="dollar" unicode="$" 
d="M255 -6q-78 12 -131.5 60t-63.5 136h85q11 -64 56 -94.5t109 -30.5q43 0 71 11t44.5 29t23 40t6.5 45q0 34 -16 55t-42.5 34.5t-60 22.5t-69 19t-69 23.5t-60 35.5t-42.5 55.5t-16 84.5q0 35 11.5 66t34 56t55 41.5t74.5 22.5v104h85v-103q36 -4 67.5 -16t56 -33.5
t40.5 -53t21 -74.5h-85q-8 49 -45.5 77t-94.5 28q-68 0 -101.5 -33t-33.5 -82q0 -36 16 -58.5t42.5 -37t60 -24t69 -19.5t69 -22.5t60 -34t42.5 -53.5t16 -81q0 -37 -12.5 -71t-37.5 -61t-62.5 -45t-87.5 -22v-101h-85v104z" />
    <glyph glyph-name="percent" unicode="%" 
d="M235 300h40l-135 -300h-100zM413 -10q-24 0 -46 9t-38.5 25.5t-26 39.5t-9.5 51t9.5 51t26 39.5t38.5 25.5t46 9t46 -9t38.5 -25.5t26 -39.5t9.5 -51t-9.5 -51t-26 -39.5t-38.5 -25.5t-46 -9zM413 45q26 0 43 18t17 52t-17 52t-43 18t-43 -18t-17 -52t17 -52t43 -18z
M450 700h100l-195 -300h-40zM173 455q-24 0 -46 9t-38.5 25.5t-26 39.5t-9.5 51t9.5 51t26 39.5t38.5 25.5t46 9t46 -9t38.5 -25.5t26 -39.5t9.5 -51t-9.5 -51t-26 -39.5t-38.5 -25.5t-46 -9zM173 510q26 0 43 18t17 52t-17 52t-43 18t-43 -18t-17 -52t17 -52t43 -18z" />
    <glyph glyph-name="ampersand" unicode="&#x26;" 
d="M235 -10q-38 0 -70.5 11.5t-57 33.5t-38.5 52t-14 68q0 30 10 56.5t26 49.5t36.5 43.5t40.5 38.5l16 14l-18 26q-23 32 -42 70t-19 87q0 39 13 70.5t35.5 53.5t52.5 34t64 12t63 -11t50.5 -31t34 -48.5t12.5 -64.5q0 -32 -10 -58.5t-27 -49.5t-39 -43.5t-47 -40.5
l-16 -13l129 -160l72 100h93l-120 -158l106 -132h-101l-59 74q-14 -14 -32 -29t-40 -27t-48 -20t-56 -8zM240 65q22 0 41 7t34.5 17t28 21.5t21.5 19.5l-135 168l-6 -5q-26 -21 -42 -39t-25.5 -34.5t-13 -32t-3.5 -32.5q0 -23 10 -39.5t25 -28t32.5 -17t32.5 -5.5zM281 439
q27 24 45.5 51t18.5 65t-18.5 59t-56.5 21q-42 0 -61 -26t-19 -64q0 -19 5.5 -37.5t13 -34t14.5 -26.5t10 -15l15 -22z" />
    <glyph glyph-name="quotesingle" unicode="'" 
d="M260 700h75v-220h-75v220z" />
    <glyph glyph-name="parenleft" unicode="(" 
d="M355 -200q-60 87 -95 206t-35 259t35 259t95 206h80q-60 -87 -95 -206t-35 -259t35 -259t95 -206h-80v0z" />
    <glyph glyph-name="parenright" unicode=")" 
d="M165 -200q60 87 95 206t35 259t-35 259t-95 206h80q60 -87 95 -206t35 -259t-35 -259t-95 -206h-80v0z" />
    <glyph glyph-name="asterisk" unicode="*" 
d="M155 375l100 115l-150 40l25 75l140 -55l-10 150h80l-10 -150l140 55l25 -75l-150 -40l100 -115l-65 -45l-80 125l-80 -125z" />
    <glyph glyph-name="plus" unicode="+" 
d="M270 275h-210v60h210v210h60v-210h210v-60h-210v-210h-60v210z" />
    <glyph glyph-name="comma" unicode="," 
d="M270 100h80l-60 -200h-60z" />
    <glyph glyph-name="hyphen" unicode="-" 
d="M150 315h300v-70h-300v70z" />
    <glyph glyph-name="period" unicode="." 
d="M300 -5q-23 0 -39 16t-16 39t16 39t39 16t39 -16t16 -39t-16 -39t-39 -16z" />
    <glyph glyph-name="slash" unicode="/" 
d="M380 730h80l-290 -930h-80z" />
    <glyph glyph-name="zero" unicode="0" 
d="M300 -10q-51 0 -94.5 20.5t-76 64t-51 111.5t-18.5 164t18.5 164t51 111.5t76 64t94.5 20.5t94.5 -20.5t76 -64t51 -111.5t18.5 -164t-18.5 -164t-51 -111.5t-76 -64t-94.5 -20.5zM300 65q32 0 60 14.5t49 47.5t33.5 87.5t12.5 135.5q0 63 -7.5 110t-21.5 80l-199 -453
q17 -12 35 -17t38 -5zM372 613q-31 22 -72 22q-32 0 -60 -14.5t-49 -47.5t-33.5 -87.5t-12.5 -135.5q0 -64 7.5 -110.5t21.5 -80.5z" />
    <glyph glyph-name="one" unicode="1" 
d="M105 75h170v460h-135v75h95q40 0 40 40v50h85v-625h170v-75h-425v75z" />
    <glyph glyph-name="two" unicode="2" 
d="M80 75l285 305q60 65 60 130q0 60 -32.5 92.5t-92.5 32.5q-28 0 -51.5 -9.5t-40.5 -26t-28 -38.5t-15 -46h-85q7 43 25.5 79t47 61.5t65.5 40t82 14.5q47 0 85.5 -15t66.5 -42t43 -63.5t15 -79.5q0 -30 -9 -57t-22.5 -51t-29.5 -44t-31 -36l-228 -247h330v-75h-440v75z
" />
    <glyph glyph-name="three" unicode="3" 
d="M295 -10q-45 0 -84.5 13t-70 37.5t-50 61t-25.5 83.5h85q8 -53 48 -86.5t97 -33.5q72 0 108.5 34t36.5 91t-36.5 91t-108.5 34h-50v70h50q64 0 99.5 34t35.5 91t-35.5 91t-99.5 34q-53 0 -90 -33.5t-45 -86.5h-85q15 94 74 144.5t146 50.5q105 0 162.5 -55t57.5 -145
q0 -118 -105 -155q57 -19 86 -62t29 -103q0 -45 -15 -82t-44 -63t-72 -40.5t-99 -14.5z" />
    <glyph glyph-name="four" unicode="4" 
d="M365 165h-305v75l270 460h120v-460h90v-75h-90v-165h-85v165zM365 240v360h-5l-210 -360h215z" />
    <glyph glyph-name="five" unicode="5" 
d="M310 -10q-39 0 -76.5 11.5t-68.5 35.5t-53.5 60.5t-31.5 87.5h85q15 -60 55.5 -90t89.5 -30q68 0 109 42.5t41 117.5q0 37 -11 67.5t-30.5 52.5t-47 33.5t-61.5 11.5q-38 0 -73.5 -16.5t-61.5 -58.5h-80l35 385h375v-75h-300l-20 -210h5q30 26 63.5 38t71.5 12
q47 0 87 -17t69.5 -48.5t46.5 -76t17 -98.5t-16.5 -97.5t-47 -74t-74 -47t-97.5 -16.5z" />
    <glyph glyph-name="six" unicode="6" 
d="M300 -10q-54 0 -98.5 16.5t-76 48t-48.5 77t-17 103.5q0 49 15 102t53 113q19 30 45.5 72.5t51.5 82.5q29 46 60 95h95l-185 -285h5q23 19 53.5 27t56.5 8q51 0 93 -16.5t72.5 -46.5t47.5 -72.5t17 -94.5q0 -51 -17 -93t-48.5 -72.5t-76 -47.5t-98.5 -17zM300 65
q34 0 62.5 12t49 32.5t32 48.5t11.5 62t-11.5 62.5t-32 49t-49 32t-62.5 11.5t-62.5 -11.5t-49 -32t-32 -49t-11.5 -62.5t11.5 -62t32 -48.5t49 -32.5t62.5 -12z" />
    <glyph glyph-name="seven" unicode="7" 
d="M440 625h-360v75h450v-75l-275 -625h-90z" />
    <glyph glyph-name="eight" unicode="8" 
d="M300 -10q-53 0 -95.5 16t-72.5 43.5t-46 65t-16 80.5q0 28 9.5 54.5t25.5 48.5t36.5 38t43.5 24q-19 9 -37 24t-32 34.5t-22.5 44t-8.5 52.5q0 41 15.5 76.5t43.5 62t67.5 41.5t88.5 15t88.5 -15t67.5 -41.5t43.5 -62t15.5 -76.5q0 -28 -8.5 -52.5t-22.5 -44t-32 -34.5
t-37 -24q22 -8 43 -24t37 -38t25.5 -48.5t9.5 -54.5q0 -43 -16.5 -80.5t-46.5 -65t-72.5 -43.5t-94.5 -16zM300 65q68 0 106.5 36.5t38.5 93.5t-38.5 93.5t-106.5 36.5t-106.5 -36.5t-38.5 -93.5t38.5 -93.5t106.5 -36.5zM300 395q60 0 95 33.5t35 86.5t-35 86.5t-95 33.5
t-95 -33.5t-35 -86.5t35 -86.5t95 -33.5z" />
    <glyph glyph-name="nine" unicode="9" 
d="M405 285h-5q-23 -19 -53.5 -27t-56.5 -8q-51 0 -93 16t-72.5 46t-47.5 72.5t-17 95.5q0 51 17 93t48.5 72.5t76 47.5t98.5 17t98.5 -16.5t76 -48t48.5 -77t17 -103.5q0 -49 -15 -102t-53 -113q-19 -30 -45.5 -73t-51.5 -82q-29 -47 -60 -95h-95zM300 325q34 0 62.5 11.5
t49 32t32 49t11.5 62.5t-11.5 62t-32 48.5t-49 32.5t-62.5 12t-62.5 -12t-49 -32.5t-32 -48.5t-11.5 -62t11.5 -62.5t32 -49t49 -32t62.5 -11.5z" />
    <glyph glyph-name="colon" unicode=":" 
d="M305 -5q-23 0 -39 16t-16 39t16 39t39 16t39 -16t16 -39t-16 -39t-39 -16zM305 415q-23 0 -39 16t-16 39t16 39t39 16t39 -16t16 -39t-16 -39t-39 -16z" />
    <glyph glyph-name="semicolon" unicode=";" 
d="M270 100h80l-60 -200h-60zM305 415q-23 0 -39 16t-16 39t16 39t39 16t39 -16t16 -39t-16 -39t-39 -16z" />
    <glyph glyph-name="less" unicode="&#x3c;" 
d="M90 270v70l420 205v-75l-345 -165l345 -165v-75z" />
    <glyph glyph-name="equal" unicode="=" 
d="M60 235h480v-60h-480v60zM60 430h480v-60h-480v60z" />
    <glyph glyph-name="greater" unicode="&#x3e;" 
d="M90 140l345 165l-345 165v75l420 -205v-70l-420 -205v75z" />
    <glyph glyph-name="question" unicode="?" 
d="M290 -5q-23 0 -39 16t-16 39t16 39t39 16t39 -16t16 -39t-16 -39t-39 -16zM250 250q0 40 12 66.5t30.5 46t40 35t40 33.5t30.5 41t12 58q0 49 -32.5 79.5t-92.5 30.5t-90.5 -33t-34.5 -82h-80q8 91 63 138t142 47q49 0 87 -13.5t64 -37.5t40 -57t14 -72q0 -43 -12 -71
t-30.5 -48.5t-40 -35.5t-40 -32t-30.5 -39t-12 -54v-50h-80v50z" />
    <glyph glyph-name="at" unicode="@" 
d="M305 -75q-60 0 -113 24t-92 72t-62 119t-23 165q0 96 22 167t60.5 118.5t90.5 71t112 23.5t112 -23.5t90.5 -70.5t60.5 -117t22 -164q0 -106 -33.5 -160.5t-85.5 -54.5q-26 0 -42.5 9.5t-24.5 20.5q-11 13 -14 30h-5q-19 -30 -48 -45t-52 -15q-28 0 -52.5 11.5t-43 36
t-29 62t-10.5 90.5q0 52 10.5 90t28.5 62.5t41.5 36t49.5 11.5q23 0 47.5 -9.5t47.5 -35.5h5l10 50h45v-279q0 -31 8.5 -48.5t27.5 -17.5q11 0 21 7.5t17.5 25t11.5 47.5t4 75q0 79 -18 138t-48.5 98.5t-70.5 59t-83 19.5t-83 -20t-70.5 -59.5t-48.5 -99.5t-18 -141
q0 -83 18.5 -143t49 -99.5t71.5 -58.5t86 -19h85v-60h-85zM290 150q17 0 31.5 7t25.5 24t17 45t6 69t-6 69t-17 45t-25.5 24t-31.5 7t-31.5 -7t-25.5 -24t-17 -45t-6 -69t6 -69t17 -45t25.5 -24t31.5 -7z" />
    <glyph glyph-name="A" unicode="A" 
d="M255 700h90l225 -700h-85l-57 175h-256l-57 -175h-85zM405 250l-84 265l-16 100h-10l-16 -100l-84 -265h210z" />
    <glyph glyph-name="B" unicode="B" 
d="M85 700h245q98 0 151.5 -52t53.5 -143q0 -49 -24 -90t-66 -60q42 -15 71 -59t29 -101q0 -91 -53.5 -143t-151.5 -52h-255v700zM335 75q57 0 91 33.5t34 86.5t-34 86.5t-91 33.5h-165v-240h165zM325 385q57 0 91 33.5t34 86.5t-34 86.5t-91 33.5h-155v-240h155z" />
    <glyph glyph-name="C" unicode="C" 
d="M300 -10q-54 0 -101 21t-81 65t-53.5 112t-19.5 162t19.5 162t53.5 112t81 65t101 21q91 0 150 -50.5t86 -144.5h-85q-20 57 -57 88.5t-94 31.5q-36 0 -67 -15t-54 -49t-36 -88t-13 -133t13 -133.5t36 -88t54 -48.5t67 -15q57 0 99 36t61 119h85q-26 -120 -90.5 -175
t-154.5 -55z" />
    <glyph glyph-name="D" unicode="D" 
d="M85 700h155q71 0 129 -23t99.5 -67.5t64 -110t22.5 -149.5q0 -88 -22.5 -154t-64 -109.5t-99.5 -65t-129 -21.5h-155v700zM240 75q51 0 93 17.5t72.5 52.5t47.5 86t17 119q0 67 -17 118.5t-47.5 86.5t-72.5 52.5t-93 17.5h-70v-550h70z" />
    <glyph glyph-name="E" unicode="E" 
d="M85 700h420v-75h-335v-235h315v-75h-315v-240h345v-75h-430v700z" />
    <glyph glyph-name="F" unicode="F" 
d="M85 700h420v-75h-335v-245h310v-75h-310v-305h-85v700z" />
    <glyph glyph-name="G" unicode="G" 
d="M300 -10q-54 0 -101 21t-81 65t-53.5 112t-19.5 162t19.5 162t53.5 112t81 65t101 21q91 0 150 -50.5t86 -144.5h-85q-20 57 -57 88.5t-94 31.5q-36 0 -67 -15t-54 -49t-36 -88t-13 -133t13 -133.5t36 -88t54 -48.5t67 -15q75 0 116.5 58.5t50.5 156.5h-147v75h235v-25
q-2 -68 -16.5 -129.5t-45 -108t-78.5 -74.5t-115 -28z" />
    <glyph glyph-name="H" unicode="H" 
d="M85 700h85v-310h260v310h85v-700h-85v315h-260v-315h-85v700z" />
    <glyph glyph-name="I" unicode="I" 
d="M110 75h150v550h-150v75h385v-75h-150v-550h150v-75h-385v75z" />
    <glyph glyph-name="J" unicode="J" 
d="M275 -10q-90 0 -149.5 50t-70.5 155h85q8 -63 45 -96.5t90 -33.5q60 0 100 44t40 131v385h-250v75h335v-460q0 -124 -60 -187t-165 -63z" />
    <glyph glyph-name="K" unicode="K" 
d="M90 700h85v-335l280 335h100l-290 -345l305 -355h-100l-295 345v-345h-85v700z" />
    <glyph glyph-name="L" unicode="L" 
d="M95 700h85v-625h350v-75h-435v700z" />
    <glyph glyph-name="M" unicode="M" 
d="M65 700h115l117 -325h5l118 325h115v-700h-85v420l20 175h-10l-32 -90l-96 -265h-65l-95 265l-32 90h-10l20 -175v-420h-85v700z" />
    <glyph glyph-name="N" unicode="N" 
d="M85 700h125l174 -453l61 -157h10l-25 170v440h85v-700h-125l-174 452l-61 158h-10l25 -171v-439h-85v700z" />
    <glyph glyph-name="O" unicode="O" 
d="M300 -10q-54 0 -101 21t-81 65t-53.5 112t-19.5 162t19.5 162t53.5 112t81 65t101 21t101 -21t81 -65t53.5 -112t19.5 -162t-19.5 -162t-53.5 -112t-81 -65t-101 -21zM300 65q36 0 67 15t54 48.5t36 88t13 133.5t-13 133t-36 88t-54 49t-67 15t-67 -15t-54 -49t-36 -88
t-13 -133t13 -133.5t36 -88t54 -48.5t67 -15z" />
    <glyph glyph-name="P" unicode="P" 
d="M85 700h235q52 0 94 -17t71 -46.5t44.5 -69.5t15.5 -87t-15.5 -87t-44.5 -69.5t-71 -46.5t-94 -17h-150v-260h-85v700zM315 335q68 0 106.5 38.5t38.5 106.5t-38.5 106.5t-106.5 38.5h-145v-290h145z" />
    <glyph glyph-name="Q" unicode="Q" 
d="M379 3q-19 -6 -38.5 -9.5t-40.5 -3.5q-54 0 -101 21t-81 65t-53.5 112t-19.5 162t19.5 162t53.5 112t81 65t101 21t101 -21t81 -65t53.5 -112t19.5 -162q0 -118 -29.5 -194t-80.5 -118l75 -138h-85zM300 65q22 0 43 6l-83 154h85l61 -115q29 32 46.5 90.5t17.5 149.5
q0 79 -13 133t-36 88t-54 49t-67 15t-67 -15t-54 -49t-36 -88t-13 -133t13 -133.5t36 -88t54 -48.5t67 -15z" />
    <glyph glyph-name="R" unicode="R" 
d="M85 700h245q51 0 91.5 -15t69 -43t44 -66.5t15.5 -85.5q0 -53 -17.5 -90.5t-45.5 -63t-61.5 -39t-65.5 -17.5l200 -280h-95l-200 280h-95v-280h-85v700zM325 355q68 0 104 35.5t36 99.5t-36 99.5t-104 35.5h-155v-270h155z" />
    <glyph glyph-name="S" unicode="S" 
d="M310 -10q-49 0 -92 12.5t-76 37t-54.5 62t-27.5 88.5h85q11 -64 56 -94.5t109 -30.5q43 0 71 11t44.5 29t23 40t6.5 45q0 34 -16 55t-42.5 34.5t-60 22.5t-69 19t-69 23.5t-60 35.5t-42.5 55.5t-16 84.5q0 39 14.5 74t43 60.5t69 40.5t93.5 15q43 0 81.5 -10t68.5 -31.5
t49.5 -55.5t25.5 -83h-85q-8 49 -45.5 77t-94.5 28q-68 0 -101.5 -33t-33.5 -82q0 -36 16 -58.5t42.5 -37t60 -24t69 -19.5t69 -22.5t60 -34t42.5 -53.5t16 -81q0 -39 -14 -75.5t-42.5 -64t-72 -44t-101.5 -16.5z" />
    <glyph glyph-name="T" unicode="T" 
d="M260 625h-130v-120h-85v195h510v-195h-85v120h-125v-625h-85v625z" />
    <glyph glyph-name="U" unicode="U" 
d="M300 -10q-105 0 -165 65.5t-60 204.5v440h85v-440q0 -105 38 -150t102 -45t102 45t38 150v440h85v-440q0 -139 -60 -204.5t-165 -65.5z" />
    <glyph glyph-name="V" unicode="V" 
d="M40 700h90l142 -505l20 -110h15l21 110l142 505h90l-205 -700h-110z" />
    <glyph glyph-name="W" unicode="W" 
d="M35 700h85l40 -380v-205h10l21 125l49 280h120l49 -281l21 -124h10v204l40 381h85l-80 -700h-110l-72 435h-5l-73 -435h-110z" />
    <glyph glyph-name="X" unicode="X" 
d="M250 360l-210 340h95l130 -215l30 -70h10l30 70l130 215h95l-210 -340l220 -360h-95l-140 235l-30 70h-10l-30 -70l-140 -235h-95z" />
    <glyph glyph-name="Y" unicode="Y" 
d="M255 270l-215 430h90l137 -290l25 -80h10l27 80l136 290h90l-215 -430v-270h-85v270z" />
    <glyph glyph-name="Z" unicode="Z" 
d="M60 60l370 565h-360v75h465v-60l-370 -565h375v-75h-480v60z" />
    <glyph glyph-name="bracketleft" unicode="[" 
d="M225 730h200v-75h-120v-780h120v-75h-200v930z" />
    <glyph glyph-name="backslash" unicode="\" 
d="M140 730h80l290 -930h-80z" />
    <glyph glyph-name="bracketright" unicode="]" 
d="M175 -125h120v780h-120v75h200v-930h-200v75z" />
    <glyph glyph-name="asciicircum" unicode="^" 
d="M260 700h75l150 -320h-70l-115 250h-5l-115 -250h-70z" />
    <glyph glyph-name="underscore" unicode="_" 
d="M90 -75h420v-70h-420v70z" />
    <glyph glyph-name="grave" unicode="`" 
d="M208 740h95l90 -140h-70z" />
    <glyph glyph-name="a" unicode="a" 
d="M275 -10q-38 0 -69 12.5t-53.5 34t-35 50.5t-12.5 63t12.5 63t36.5 50.5t58.5 34t77.5 12.5h135v35q0 53 -31 84t-84 31q-38 0 -68.5 -17t-41.5 -58h-80q6 36 23 63t42 45t57 27.5t68 9.5q43 0 78 -13.5t60 -37.5t38.5 -58t13.5 -76v-345h-60l-10 65h-5q-8 -11 -21 -24.5
t-31.5 -24.5t-43 -18.5t-54.5 -7.5zM285 60q30 0 55.5 10.5t44.5 30t29.5 46t10.5 58.5v35h-135q-57 0 -83.5 -24t-26.5 -66t26 -66t79 -24z" />
    <glyph glyph-name="b" unicode="b" 
d="M325 -10q-49 0 -86.5 21t-63.5 59h-5l-10 -70h-60v700h75v-245h5q26 34 61 54.5t84 20.5q45 0 82.5 -16t65 -49.5t42.5 -84.5t15 -120t-15 -120t-42.5 -84.5t-65 -49.5t-82.5 -16zM315 60q28 0 53.5 12.5t44.5 37t30.5 62t11.5 88.5t-11.5 88.5t-30.5 62t-44.5 37
t-53.5 12.5t-53.5 -12.5t-44.5 -37t-30.5 -62t-11.5 -88.5t11.5 -88.5t30.5 -62t44.5 -37t53.5 -12.5z" />
    <glyph glyph-name="c" unicode="c" 
d="M310 -10q-49 0 -91 18.5t-73 53t-48.5 84.5t-17.5 114t17.5 114t48.5 84.5t73 53t91 18.5q39 0 72 -11.5t58 -31t43 -46t27 -56.5h-75q-6 13 -17 26.5t-27 24t-36.5 17.5t-44.5 7q-32 0 -60 -13t-49 -38.5t-33.5 -62.5t-12.5 -86t12.5 -86t33.5 -62.5t49 -38.5t60 -13
q24 0 44.5 7t36.5 17.5t27 24t17 26.5h75q-9 -30 -27 -56.5t-43 -46t-58 -31t-72 -11.5z" />
    <glyph glyph-name="d" unicode="d" 
d="M275 -10q-45 0 -82.5 16t-65 49.5t-42.5 84.5t-15 120t15 120t42.5 84.5t65 49.5t82.5 16q49 0 84 -20.5t61 -54.5h5v245h75v-700h-60l-10 70h-5q-26 -38 -63.5 -59t-86.5 -21zM285 60q28 0 53.5 12.5t44.5 37t30.5 62t11.5 88.5t-11.5 88.5t-30.5 62t-44.5 37
t-53.5 12.5t-53.5 -12.5t-44.5 -37t-30.5 -62t-11.5 -88.5t11.5 -88.5t30.5 -62t44.5 -37t53.5 -12.5z" />
    <glyph glyph-name="e" unicode="e" 
d="M300 -10q-51 0 -93 18.5t-72.5 53t-47.5 84.5t-17 114t17.5 114t48.5 84.5t73 53t91 18.5t91 -18t73 -49.5t48.5 -76t17.5 -96.5q0 -11 -1 -20t-2 -16q-1 -8 -2 -14h-380q4 -83 45.5 -131.5t109.5 -48.5q42 0 74.5 20.5t53.5 54.5h80q-25 -68 -80.5 -106.5t-127.5 -38.5z
M455 305q-4 34 -16.5 62.5t-33 49t-47 32t-58.5 11.5t-58.5 -11.5t-47 -32t-33 -49t-16.5 -62.5h310z" />
    <glyph glyph-name="f" unicode="f" 
d="M115 70h120v380h-130v70h130v50q0 57 36.5 93.5t93.5 36.5h150v-70h-145q-26 0 -43 -17t-17 -43v-50h175v-70h-175v-380h130v-70h-325v70z" />
    <glyph glyph-name="g" unicode="g" 
d="M290 -200q-36 0 -69.5 9.5t-61.5 28.5t-49 48.5t-30 68.5h80q15 -42 51.5 -63.5t78.5 -21.5q60 0 97.5 38t37.5 102v90h-5q-26 -34 -63 -52t-82 -18q-43 0 -80.5 16.5t-65 48.5t-43.5 78.5t-16 106.5t16 106.5t43.5 78.5t65 48.5t80.5 16.5q45 0 84.5 -20.5t65.5 -54.5h5
l10 65h60v-510q0 -98 -56 -154t-154 -56zM285 100q28 0 53.5 12t44.5 35t30.5 56.5t11.5 76.5t-11.5 76.5t-30.5 56.5t-44.5 35t-53.5 12t-53.5 -12t-44.5 -35t-30.5 -56.5t-11.5 -76.5t11.5 -76.5t30.5 -56.5t44.5 -35t53.5 -12z" />
    <glyph glyph-name="h" unicode="h" 
d="M100 700h75v-250h5q23 45 60 62.5t75 17.5q39 0 73 -14.5t59 -41.5t39 -66t14 -88v-320h-75v320q0 68 -33.5 104t-86.5 36q-27 0 -50.5 -11t-41 -29.5t-27.5 -43t-11 -51.5v-325h-75v700z" />
    <glyph glyph-name="i" unicode="i" 
d="M115 70h155v380h-115v70h190v-450h145v-70h-375v70zM303 595q-22 0 -37.5 15t-15.5 37t15 37.5t38 15.5q22 0 37 -15.5t15 -37.5q0 -21 -15 -36.5t-37 -15.5z" />
    <glyph glyph-name="j" unicode="j" 
d="M235 -200q-38 0 -67.5 11.5t-50.5 31.5t-33 47.5t-14 59.5h75q4 -34 26 -57t64 -23t66 24t24 66v490h-137v70h212v-560q0 -36 -11.5 -65.5t-33.5 -50.5t-52.5 -32.5t-67.5 -11.5zM363 595q-22 0 -37.5 15t-15.5 37t15 37.5t38 15.5q22 0 37 -15.5t15 -37.5
q0 -21 -15 -36.5t-37 -15.5z" />
    <glyph glyph-name="k" unicode="k" 
d="M115 700h75v-425l245 245h95l-255 -255l270 -265h-95l-260 255v-255h-75v700z" />
    <glyph glyph-name="l" unicode="l" 
d="M115 70h155v560h-110v70h185v-630h145v-70h-375v70z" />
    <glyph glyph-name="m" unicode="m" 
d="M60 520h60l10 -60h5q15 34 38 52t57 18q9 0 21.5 -2.5t25.5 -10t24 -21.5t19 -36h5q15 34 42.5 52t57.5 18q57 0 88.5 -40.5t31.5 -119.5v-370h-75v380q0 45 -19.5 62.5t-45.5 17.5q-30 0 -50 -21t-20 -59v-380h-65v380q0 45 -19.5 62.5t-45.5 17.5q-30 0 -50 -21
t-20 -59v-380h-75v520z" />
    <glyph glyph-name="n" unicode="n" 
d="M100 520h60l10 -70h5q26 45 64 62.5t76 17.5q39 0 73 -14.5t59 -41.5t39 -66t14 -88v-320h-75v320q0 68 -33.5 104t-86.5 36q-28 0 -52 -11.5t-41 -30.5t-27 -44.5t-10 -53.5v-320h-75v520z" />
    <glyph glyph-name="o" unicode="o" 
d="M300 -10q-49 0 -91 18.5t-73 53t-48.5 84.5t-17.5 114t17.5 114t48.5 84.5t73 53t91 18.5t91 -18.5t73 -53t48.5 -84.5t17.5 -114t-17.5 -114t-48.5 -84.5t-73 -53t-91 -18.5zM300 60q32 0 60 13t49 38.5t33.5 62.5t12.5 86t-12.5 86t-33.5 62.5t-49 38.5t-60 13t-60 -13
t-49 -38.5t-33.5 -62.5t-12.5 -86t12.5 -86t33.5 -62.5t49 -38.5t60 -13z" />
    <glyph glyph-name="p" unicode="p" 
d="M100 520h60l10 -70h5q26 38 63.5 59t86.5 21q45 0 82.5 -16t65 -49.5t42.5 -84.5t15 -120t-15 -120t-42.5 -84.5t-65 -49.5t-82.5 -16q-49 0 -84 20.5t-61 54.5h-5v-265h-75v720zM315 60q28 0 53.5 12.5t44.5 37t30.5 62t11.5 88.5t-11.5 88.5t-30.5 62t-44.5 37
t-53.5 12.5t-53.5 -12.5t-44.5 -37t-30.5 -62t-11.5 -88.5t11.5 -88.5t30.5 -62t44.5 -37t53.5 -12.5z" />
    <glyph glyph-name="q" unicode="q" 
d="M425 65h-5q-26 -34 -61 -54.5t-84 -20.5q-45 0 -82.5 16t-65 49.5t-42.5 84.5t-15 120t15 120t42.5 84.5t65 49.5t82.5 16q49 0 86.5 -21t63.5 -59h5l10 70h60v-720h-75v265zM285 60q28 0 53.5 12.5t44.5 37t30.5 62t11.5 88.5t-11.5 88.5t-30.5 62t-44.5 37t-53.5 12.5
t-53.5 -12.5t-44.5 -37t-30.5 -62t-11.5 -88.5t11.5 -88.5t30.5 -62t44.5 -37t53.5 -12.5z" />
    <glyph glyph-name="r" unicode="r" 
d="M100 70h125v380h-105v70h165l10 -70h5q23 38 57 54t83 16h75v-70h-75q-29 0 -54 -9.5t-44 -26t-30 -39.5t-12 -50v-255h160v-70h-360v70z" />
    <glyph glyph-name="s" unicode="s" 
d="M305 -10q-43 0 -80.5 10t-66 30.5t-46.5 50.5t-22 69h80q8 -45 47 -67.5t88 -22.5q71 0 100.5 23t29.5 57q0 32 -24.5 48.5t-61 26t-79.5 18t-79.5 24.5t-61 45.5t-24.5 82.5q0 28 12 54t36 46.5t59.5 32.5t82.5 12q37 0 72.5 -8t63.5 -25t46.5 -45t22.5 -67h-80
q-8 34 -40 54.5t-85 20.5q-57 0 -86 -20.5t-29 -54.5t24.5 -51.5t61 -28t79.5 -19t79.5 -24.5t61 -44t24.5 -78q0 -32 -13 -59.5t-39 -47.5t-64 -31.5t-89 -11.5z" />
    <glyph glyph-name="t" unicode="t" 
d="M360 -10q-38 0 -68 11.5t-52 32t-33.5 49t-11.5 62.5v305h-130v70h130l10 140h65v-140h195v-70h-195v-300q0 -42 24 -66t66 -24t64 22t26 48h75q-2 -28 -14 -53.5t-33 -44.5t-51 -30.5t-67 -11.5z" />
    <glyph glyph-name="u" unicode="u" 
d="M285 -10q-39 0 -73 14.5t-59 41.5t-39 66t-14 88v320h75v-320q0 -68 33.5 -104t86.5 -36q28 0 52 11.5t41 30.5t27 44.5t10 53.5v320h75v-520h-60l-10 70h-5q-26 -45 -64 -62.5t-76 -17.5z" />
    <glyph glyph-name="v" unicode="v" 
d="M65 520h80l130 -365l20 -75h10l21 75l129 365h80l-190 -520h-90z" />
    <glyph glyph-name="w" unicode="w" 
d="M25 520h75l59 -360l-4 -80h10l21 78l69 252h90l69 -252l21 -78h10l-4 80l59 360h75l-90 -520h-95l-85 315h-10l-85 -315h-95z" />
    <glyph glyph-name="x" unicode="x" 
d="M255 270l-175 250h85l107 -160l26 -50h5l25 50l107 160h85l-175 -250l185 -270h-85l-110 165l-32 65h-5l-33 -65l-110 -165h-85z" />
    <glyph glyph-name="y" unicode="y" 
d="M260 0l-210 520h80l165 -415h5l165 415h80l-285 -720h-80z" />
    <glyph glyph-name="z" unicode="z" 
d="M100 60l300 390h-290v70h385v-60l-300 -390h305v-70h-400v60z" />
    <glyph glyph-name="braceleft" unicode="{" 
d="M370 -200q-24 0 -45 9t-36.5 24.5t-24.5 36.5t-9 45v245q0 30 -19.5 47.5t-45.5 17.5v80q26 0 45.5 17.5t19.5 47.5v245q0 24 9 45t24.5 36.5t36.5 24.5t45 9h55v-75h-50q-40 0 -40 -40v-245q0 -45 -23.5 -70.5t-61.5 -29.5v-10q38 -4 61.5 -29.5t23.5 -70.5v-245
q0 -40 40 -40h50v-75h-55v0z" />
    <glyph glyph-name="bar" unicode="|" 
d="M260 730h80v-930h-80v930z" />
    <glyph glyph-name="braceright" unicode="}" 
d="M175 -125h50q40 0 40 40v245q0 45 23.5 70.5t61.5 29.5v10q-38 4 -61.5 29.5t-23.5 70.5v245q0 40 -40 40h-50v75h55q24 0 45 -9t36.5 -24.5t24.5 -36.5t9 -45v-245q0 -30 19.5 -47.5t45.5 -17.5v-80q-26 0 -45.5 -17.5t-19.5 -47.5v-245q0 -24 -9 -45t-24.5 -36.5
t-36.5 -24.5t-45 -9h-55v75z" />
    <glyph glyph-name="asciitilde" unicode="~" 
d="M395 235q-39 0 -64 13.5t-44 29t-37.5 29t-44.5 13.5q-11 0 -22.5 -4t-21 -13.5t-15.5 -25t-6 -37.5h-65q0 37 12 64t30 43.5t40 24.5t43 8q39 0 64 -13.5t44 -29t37.5 -29t44.5 -13.5q11 0 22.5 4t21 13.5t15.5 24.5t6 38h65q0 -38 -12 -64.5t-30 -43t-40 -24.5t-43 -8z
" />
    <glyph glyph-name="nonbreakingspace" unicode="&#xa0;" 
 />
    <glyph glyph-name="exclamdown" unicode="&#xa1;" 
d="M255 -150l15 470h60l15 -470v-50h-90v50zM300 415q-23 0 -39 16t-16 39t16 39t39 16t39 -16t16 -39t-16 -39t-39 -16z" />
    <glyph glyph-name="cent" unicode="&#xa2;" 
d="M270 -6q-41 7 -76 28t-60.5 55t-39.5 80t-14 103t14 103t39.5 80t60.5 55t76 28v104h85v-104q60 -12 99 -51t56 -90h-75q-6 13 -17 26.5t-27 24t-36.5 17.5t-44.5 7q-32 0 -60 -13t-49 -38.5t-33.5 -62.5t-12.5 -86t12.5 -86t33.5 -62.5t49 -38.5t60 -13q24 0 44.5 7
t36.5 17.5t27 24t17 26.5h75q-17 -51 -56 -90.5t-99 -50.5v-104h-85v104z" />
    <glyph glyph-name="sterling" unicode="&#xa3;" 
d="M70 75h15q26 0 40.5 16t14.5 54v155h-70v75h70v115q0 52 14 93t39.5 69.5t60.5 43t76 14.5q36 0 68 -10.5t57 -32.5t42 -56t23 -81h-85q-8 49 -34 77t-71 28t-75 -35.5t-30 -114.5v-110h175v-75h-175v-155q0 -21 -4 -34.5t-9 -21.5q-5 -10 -12 -14h335v-75h-465v75z" />
    <glyph glyph-name="currency" unicode="&#xa4;" 
d="M70 127l65 65q-21 26 -33 59t-12 69q0 33 10.5 63.5t28.5 56.5l-59 60l43 42l58 -58q27 21 59.5 33.5t69.5 12.5q36 0 69 -12.5t60 -33.5l58 58l43 -42l-60 -60q19 -26 29.5 -56.5t10.5 -63.5q0 -36 -12 -69t-33 -59l65 -65l-43 -42l-65 65q-26 -19 -57 -29.5t-65 -10.5
t-65 10.5t-57 29.5l-65 -65zM300 175q32 0 58.5 10.5t46 30t30 46t10.5 58.5t-10.5 58.5t-30 46t-46 30t-58.5 10.5t-58.5 -10.5t-46 -30t-30 -46t-10.5 -58.5t10.5 -58.5t30 -46t46 -30t58.5 -10.5z" />
    <glyph glyph-name="yen" unicode="&#xa5;" 
d="M255 135h-170v75h170v70h-170v75h124l-169 345h90l144 -315l19 -70h10l18 70l144 315h90l-169 -345h124v-75h-170v-70h170v-75h-170v-135h-85v135z" />
    <glyph glyph-name="brokenbar" unicode="&#xa6;" 
d="M260 170h80v-370h-80v370zM260 730h80v-370h-80v370z" />
    <glyph glyph-name="section" unicode="&#xa7;" 
d="M305 -120q-83 0 -137 45t-73 120h85q7 -17 18 -33t26 -29t35 -20.5t46 -7.5q53 0 81.5 26.5t28.5 68.5q0 28 -14.5 44.5t-38 26t-53.5 14.5t-61.5 10.5t-61.5 15t-53.5 27t-38 45.5t-14.5 72q0 45 20 77.5t46 52.5q-21 17 -33.5 45t-12.5 60q0 34 12 64.5t36.5 54
t61 37.5t85.5 14q83 0 137 -45t73 -120h-85q-8 17 -18.5 33t-25.5 29t-35 20.5t-46 7.5q-53 0 -81.5 -26.5t-28.5 -68.5q0 -28 14.5 -44.5t38 -26t53.5 -14.5t61.5 -10.5t61.5 -15t53.5 -27t38 -45.5t14.5 -72q0 -45 -20 -77.5t-46 -52.5q21 -17 33.5 -45t12.5 -60
q0 -34 -12 -64.5t-36.5 -54t-61 -37.5t-85.5 -14zM387 189q26 16 37 40t11 51q0 41 -21 59.5t-53 27t-71.5 14t-76.5 20.5q-26 -16 -37 -40t-11 -51q0 -41 21 -59.5t53 -27t71.5 -14t76.5 -20.5z" />
    <glyph glyph-name="dieresis" unicode="&#xa8;" 
d="M212 610q-22 0 -37 15t-15 37t14.5 37.5t37.5 15.5q22 0 37 -15.5t15 -37.5q0 -21 -15 -36.5t-37 -15.5zM388 610q-22 0 -37.5 15t-15.5 37t15 37.5t38 15.5q22 0 37 -15.5t15 -37.5q0 -21 -15 -36.5t-37 -15.5z" />
    <glyph glyph-name="copyright" unicode="&#xa9;" 
d="M300 0q-60 0 -110.5 20.5t-87 57t-57 87t-20.5 110.5t20.5 110.5t57 87t87 57t110.5 20.5t110.5 -20.5t87 -57t57 -87t20.5 -110.5t-20.5 -110.5t-57 -87t-87 -57t-110.5 -20.5zM300 55q47 0 86.5 16t68 45t44.5 69.5t16 89.5t-16 89.5t-44.5 69.5t-68 45t-86.5 16
t-86.5 -16t-68 -45t-44.5 -69.5t-16 -89.5t16 -89.5t44.5 -69.5t68 -45t86.5 -16zM300 125q-57 0 -93.5 39t-36.5 111t36.5 111t93.5 39q49 0 79 -30t41 -75h-60q-8 23 -22.5 36.5t-37.5 13.5q-30 0 -50 -23t-20 -72t20 -72t50 -23q23 0 37.5 13.5t22.5 36.5h60
q-11 -45 -41 -75t-79 -30z" />
    <glyph glyph-name="ordfeminine" unicode="&#xaa;" 
d="M255 400q-45 0 -72.5 26.5t-27.5 68.5t28.5 68.5t81.5 26.5h90v10q0 23 -14.5 39t-40.5 16q-30 0 -43 -12.5t-17 -27.5h-65q2 22 12.5 40t27 30t37 18.5t43.5 6.5q57 0 88.5 -30.5t31.5 -79.5v-195h-55l-5 45h-5q-11 -23 -36 -36.5t-59 -13.5zM270 455q34 0 59.5 20
t25.5 50v15h-85q-55 0 -55 -40q0 -19 14.5 -32t40.5 -13z" />
    <glyph glyph-name="guillemotleft" unicode="&#xab;" 
d="M85 265l150 235h95l-150 -232v-6l150 -232h-95zM255 265l150 235h95l-150 -232v-6l150 -232h-95z" />
    <glyph glyph-name="logicalnot" unicode="&#xac;" 
d="M450 310h-365v60h425v-195h-60v135z" />
    <glyph glyph-name="uni00AD" unicode="&#xad;" 
d="M150 315h300v-70h-300v70z" />
    <glyph glyph-name="registered" unicode="&#xae;" 
d="M300 0q-60 0 -110.5 20.5t-87 57t-57 87t-20.5 110.5t20.5 110.5t57 87t87 57t110.5 20.5t110.5 -20.5t87 -57t57 -87t20.5 -110.5t-20.5 -110.5t-57 -87t-87 -57t-110.5 -20.5zM300 55q47 0 86.5 16t68 45t44.5 69.5t16 89.5t-16 89.5t-44.5 69.5t-68 45t-86.5 16
t-86.5 -16t-68 -45t-44.5 -69.5t-16 -89.5t16 -89.5t44.5 -69.5t68 -45t86.5 -16zM200 420h114q50 0 78 -26.5t28 -68.5q0 -68 -58 -91l61 -104h-67l-56 95h-40v-95h-60v290zM310 275q23 0 36.5 13t13.5 32t-14 32t-36 13h-50v-90h50z" />
    <glyph glyph-name="macron" unicode="&#xaf;" 
d="M160 705h280v-65h-280v65z" />
    <glyph glyph-name="degree" unicode="&#xb0;" 
d="M300 435q-60 0 -97.5 37.5t-37.5 97.5t37.5 97.5t97.5 37.5t97.5 -37.5t37.5 -97.5t-37.5 -97.5t-97.5 -37.5zM300 490q34 0 54.5 21t20.5 59t-20.5 59t-54.5 21t-54.5 -21t-20.5 -59t20.5 -59t54.5 -21z" />
    <glyph glyph-name="plusminus" unicode="&#xb1;" 
d="M60 60h480v-60h-480v60zM270 300h-210v60h210v185h60v-185h210v-60h-210v-185h-60v185z" />
    <glyph glyph-name="uni00B2" unicode="&#xb2;" 
d="M160 525l147 108q17 12 28 21.5t18 18t9.5 17.5t2.5 20q0 26 -18 43t-52 17q-21 0 -34.5 -7.5t-21.5 -18t-11 -23t-3 -21.5h-60q2 26 10.5 49t25 40t41 26.5t58.5 9.5q57 0 91 -33t34 -82q0 -34 -16 -59t-42 -44l-112 -82h170v-55h-265v55z" />
    <glyph glyph-name="uni00B3" unicode="&#xb3;" 
d="M300 465q-49 0 -85.5 26t-44.5 79h60q4 -23 22 -36.5t48 -13.5q34 0 49.5 13.5t15.5 36.5t-16 36.5t-54 13.5h-20v50h20q34 0 49.5 13.5t15.5 36.5t-15.5 36.5t-49.5 13.5q-30 0 -45.5 -14.5t-19.5 -40.5h-60q4 45 34.5 77.5t90.5 32.5t92.5 -29t32.5 -71
q0 -30 -16 -48.5t-39 -26.5q30 -8 45 -31t15 -49q0 -45 -32.5 -75t-92.5 -30z" />
    <glyph glyph-name="acute" unicode="&#xb4;" 
d="M297 740h95l-115 -140h-70z" />
    <glyph glyph-name="uni00B5" unicode="&#xb5;" 
d="M100 520h75v-320q0 -68 33.5 -104t86.5 -36q28 0 52 11.5t41 30.5t27 44.5t10 53.5v320h75v-520h-60l-10 70h-5q-26 -45 -64 -62.5t-76 -17.5q-12 0 -27 2.5t-30.5 9t-29.5 17t-23 27.5v-226h-75v700z" />
    <glyph glyph-name="paragraph" unicode="&#xb6;" 
d="M215 330q-32 0 -61 13.5t-51 38t-35 58.5t-13 75t13 75t35 58.5t51 38t61 13.5h285v-810h-70v750h-145v-750h-70v440z" />
    <glyph glyph-name="periodcentered" unicode="&#xb7;" 
d="M300 210q-23 0 -39 16t-16 39t16 39t39 16t39 -16t16 -39t-16 -39t-39 -16z" />
    <glyph glyph-name="cedilla" unicode="&#xb8;" 
d="M225 -155h50q40 0 40 40q0 15 -10.5 25t-29.5 10h-40v35l20 45h60l-15 -35q34 -4 54.5 -27t20.5 -53q0 -42 -26 -66t-64 -24h-60v50z" />
    <glyph glyph-name="uni00B9" unicode="&#xb9;" 
d="M170 525h105v175h-90v55h65q25 0 25 25v40h60v-295h100v-55h-265v55z" />
    <glyph glyph-name="ordmasculine" unicode="&#xba;" 
d="M300 400q-60 0 -97.5 40t-37.5 115t37.5 115t97.5 40t97.5 -40t37.5 -115t-37.5 -115t-97.5 -40zM300 455q34 0 54.5 23.5t20.5 76.5t-20.5 76.5t-54.5 23.5t-54.5 -23.5t-20.5 -76.5t20.5 -76.5t54.5 -23.5z" />
    <glyph glyph-name="guillemotright" unicode="&#xbb;" 
d="M250 262v6l-150 232h95l150 -235l-150 -235h-95zM420 262v6l-150 232h95l150 -235l-150 -235h-95z" />
    <glyph glyph-name="onequarter" unicode="&#xbc;" 
d="M240 300h40l-135 -300h-100zM455 700h100l-195 -300h-40zM10 405h105v175h-90v55h65q25 0 25 25v40h60v-295h100v-55h-265v55zM465 70h-180v55l155 225h85v-225h55v-55h-55v-70h-60v70zM465 125v155h-5l-107 -155h112z" />
    <glyph glyph-name="onehalf" unicode="&#xbd;" 
d="M240 300h40l-135 -300h-100zM455 700h100l-195 -300h-40zM10 405h105v175h-90v55h65q25 0 25 25v40h60v-295h100v-55h-265v55zM320 55l147 108q17 12 28 21.5t18 18t9.5 17.5t2.5 20q0 26 -18 43t-52 17q-21 0 -34.5 -7.5t-21.5 -18t-11 -23t-3 -21.5h-60q2 26 10.5 49
t25 40t41 26.5t58.5 9.5q57 0 91 -33t34 -82q0 -34 -16 -59t-42 -44l-112 -82h170v-55h-265v55z" />
    <glyph glyph-name="threequarters" unicode="&#xbe;" 
d="M240 300h40l-135 -300h-100zM455 700h100l-195 -300h-40zM150 345q-49 0 -85.5 26t-44.5 79h60q4 -23 22 -36.5t48 -13.5q34 0 49.5 13.5t15.5 36.5t-16 36.5t-54 13.5h-20v50h20q34 0 49.5 13.5t15.5 36.5t-15.5 36.5t-49.5 13.5q-30 0 -45.5 -14.5t-19.5 -40.5h-60
q4 45 34.5 77.5t90.5 32.5t92.5 -29t32.5 -71q0 -30 -16 -48.5t-39 -26.5q30 -8 45 -31t15 -49q0 -45 -32.5 -75t-92.5 -30zM465 70h-180v55l155 225h85v-225h55v-55h-55v-70h-60v70zM465 125v155h-5l-107 -155h112z" />
    <glyph glyph-name="questiondown" unicode="&#xbf;" 
d="M310 -210q-49 0 -87 13.5t-64.5 37.5t-40 57t-13.5 72q0 42 12 70.5t30.5 49t40 35.5t40 32t30.5 38.5t12 54.5v50h80v-50q0 -40 -12 -66.5t-30.5 -46t-40 -35t-40 -33.5t-30.5 -41t-12 -58q0 -49 32.5 -79.5t92.5 -30.5t90.5 33t34.5 82h80q-8 -91 -63 -138t-142 -47z
M310 395q-23 0 -39 16t-16 39t16 39t39 16t39 -16t16 -39t-16 -39t-39 -16z" />
    <glyph glyph-name="Agrave" unicode="&#xc0;" 
d="M255 700h90l225 -700h-85l-57 175h-256l-57 -175h-85zM405 250l-84 265l-16 100h-10l-16 -100l-84 -265h210zM150 910h95l90 -140h-70z" />
    <glyph glyph-name="Aacute" unicode="&#xc1;" 
d="M255 700h90l225 -700h-85l-57 175h-256l-57 -175h-85zM405 250l-84 265l-16 100h-10l-16 -100l-84 -265h210zM355 910h95l-115 -140h-70z" />
    <glyph glyph-name="Acircumflex" unicode="&#xc2;" 
d="M255 700h90l225 -700h-85l-57 175h-256l-57 -175h-85zM405 250l-84 265l-16 100h-10l-16 -100l-84 -265h210zM268 915h65l130 -145h-80l-80 90h-5l-80 -90h-80z" />
    <glyph glyph-name="Atilde" unicode="&#xc3;" 
d="M255 700h90l225 -700h-85l-57 175h-256l-57 -175h-85zM405 250l-84 265l-16 100h-10l-16 -100l-84 -265h210zM365 780q-21 0 -38 8t-31.5 17t-27 17t-23.5 8q-15 0 -22.5 -13t-7.5 -32h-70q0 45 22.5 75t67.5 30q21 0 38 -8t31.5 -17t27 -17t23.5 -8q15 0 22.5 13t7.5 32
h70q0 -45 -22.5 -75t-67.5 -30z" />
    <glyph glyph-name="Adieresis" unicode="&#xc4;" 
d="M255 700h90l225 -700h-85l-57 175h-256l-57 -175h-85zM405 250l-84 265l-16 100h-10l-16 -100l-84 -265h210zM212 780q-22 0 -37 15t-15 37t14.5 37.5t37.5 15.5q22 0 37 -15.5t15 -37.5q0 -21 -15 -36.5t-37 -15.5zM388 780q-22 0 -37.5 15t-15.5 37t15 37.5t38 15.5
q22 0 37 -15.5t15 -37.5q0 -21 -15 -36.5t-37 -15.5z" />
    <glyph glyph-name="Aring" unicode="&#xc5;" 
d="M255 700h90l225 -700h-85l-57 175h-256l-57 -175h-85zM405 250l-84 265l-16 100h-10l-16 -100l-84 -265h210zM300 755q-42 0 -69.5 26.5t-27.5 70.5t27 71t70 27q44 0 71 -27t27 -71t-28 -70.5t-70 -26.5zM300 805q23 0 35.5 12.5t12.5 34.5q0 21 -11.5 34.5t-36.5 13.5
q-24 0 -35.5 -13.5t-11.5 -34.5q0 -22 12 -34.5t35 -12.5z" />
    <glyph glyph-name="AE" unicode="&#xc6;" 
d="M195 700h370v-75h-205v-235h185v-75h-185v-240h215v-75h-300v160h-135l-40 -160h-85zM275 235v390h-15l-100 -390h115z" />
    <glyph glyph-name="Ccedilla" unicode="&#xc7;" 
d="M245 -155h50q40 0 40 40q0 15 -10.5 25t-29.5 10h-40v35l16 37q-49 5 -90.5 28.5t-71.5 67.5t-47 109t-17 153q0 94 19.5 162t53.5 112t81 65t101 21q91 0 150 -50.5t86 -144.5h-85q-20 57 -57 88.5t-94 31.5q-36 0 -67 -15t-54 -49t-36 -88t-13 -133t13 -133.5t36 -88
t54 -48.5t67 -15q57 0 99 36t61 119h85q-13 -60 -35.5 -102t-51 -69t-61.5 -40.5t-66 -16.5l-11 -27q34 -4 54.5 -27t20.5 -53q0 -42 -26 -66t-64 -24h-60v50z" />
    <glyph glyph-name="Egrave" unicode="&#xc8;" 
d="M85 700h420v-75h-335v-235h315v-75h-315v-240h345v-75h-430v700zM145 910h95l90 -140h-70z" />
    <glyph glyph-name="Eacute" unicode="&#xc9;" 
d="M85 700h420v-75h-335v-235h315v-75h-315v-240h345v-75h-430v700zM350 910h95l-115 -140h-70z" />
    <glyph glyph-name="Ecircumflex" unicode="&#xca;" 
d="M85 700h420v-75h-335v-235h315v-75h-315v-240h345v-75h-430v700zM265 915h65l130 -145h-80l-80 90h-5l-80 -90h-80z" />
    <glyph glyph-name="Edieresis" unicode="&#xcb;" 
d="M85 700h420v-75h-335v-235h315v-75h-315v-240h345v-75h-430v700zM207 780q-22 0 -37 15t-15 37t14.5 37.5t37.5 15.5q22 0 37 -15.5t15 -37.5q0 -21 -15 -36.5t-37 -15.5zM383 780q-22 0 -37.5 15t-15.5 37t15 37.5t38 15.5q22 0 37 -15.5t15 -37.5q0 -21 -15 -36.5
t-37 -15.5z" />
    <glyph glyph-name="Igrave" unicode="&#xcc;" 
d="M110 75h150v550h-150v75h385v-75h-150v-550h150v-75h-385v75zM155 910h95l90 -140h-70z" />
    <glyph glyph-name="Iacute" unicode="&#xcd;" 
d="M110 75h150v550h-150v75h385v-75h-150v-550h150v-75h-385v75zM355 910h95l-115 -140h-70z" />
    <glyph glyph-name="Icircumflex" unicode="&#xce;" 
d="M110 75h150v550h-150v75h385v-75h-150v-550h150v-75h-385v75zM270 915h65l130 -145h-80l-80 90h-5l-80 -90h-80z" />
    <glyph glyph-name="Idieresis" unicode="&#xcf;" 
d="M110 75h150v550h-150v75h385v-75h-150v-550h150v-75h-385v75zM217 780q-22 0 -37 15t-15 37t14.5 37.5t37.5 15.5q22 0 37 -15.5t15 -37.5q0 -21 -15 -36.5t-37 -15.5zM393 780q-22 0 -37.5 15t-15.5 37t15 37.5t38 15.5q22 0 37 -15.5t15 -37.5q0 -21 -15 -36.5
t-37 -15.5z" />
    <glyph glyph-name="Eth" unicode="&#xd0;" 
d="M85 315h-50v75h50v310h155q71 0 129 -23t99.5 -67.5t64 -110t22.5 -149.5q0 -88 -22.5 -154t-64 -109.5t-99.5 -65t-129 -21.5h-155v315zM240 75q51 0 93 17.5t72.5 52.5t47.5 86t17 119q0 67 -17 118.5t-47.5 86.5t-72.5 52.5t-93 17.5h-70v-235h120v-75h-120v-240h70z
" />
    <glyph glyph-name="Ntilde" unicode="&#xd1;" 
d="M85 700h125l174 -453l61 -157h10l-25 170v440h85v-700h-125l-174 452l-61 158h-10l25 -171v-439h-85v700zM365 780q-21 0 -38 8t-31.5 17t-27 17t-23.5 8q-15 0 -22.5 -13t-7.5 -32h-70q0 45 22.5 75t67.5 30q21 0 38 -8t31.5 -17t27 -17t23.5 -8q15 0 22.5 13t7.5 32h70
q0 -45 -22.5 -75t-67.5 -30z" />
    <glyph glyph-name="Ograve" unicode="&#xd2;" 
d="M300 -10q-54 0 -101 21t-81 65t-53.5 112t-19.5 162t19.5 162t53.5 112t81 65t101 21t101 -21t81 -65t53.5 -112t19.5 -162t-19.5 -162t-53.5 -112t-81 -65t-101 -21zM300 65q36 0 67 15t54 48.5t36 88t13 133.5t-13 133t-36 88t-54 49t-67 15t-67 -15t-54 -49t-36 -88
t-13 -133t13 -133.5t36 -88t54 -48.5t67 -15zM150 910h95l90 -140h-70z" />
    <glyph glyph-name="Oacute" unicode="&#xd3;" 
d="M300 -10q-54 0 -101 21t-81 65t-53.5 112t-19.5 162t19.5 162t53.5 112t81 65t101 21t101 -21t81 -65t53.5 -112t19.5 -162t-19.5 -162t-53.5 -112t-81 -65t-101 -21zM300 65q36 0 67 15t54 48.5t36 88t13 133.5t-13 133t-36 88t-54 49t-67 15t-67 -15t-54 -49t-36 -88
t-13 -133t13 -133.5t36 -88t54 -48.5t67 -15zM355 910h95l-115 -140h-70z" />
    <glyph glyph-name="Ocircumflex" unicode="&#xd4;" 
d="M300 -10q-54 0 -101 21t-81 65t-53.5 112t-19.5 162t19.5 162t53.5 112t81 65t101 21t101 -21t81 -65t53.5 -112t19.5 -162t-19.5 -162t-53.5 -112t-81 -65t-101 -21zM300 65q36 0 67 15t54 48.5t36 88t13 133.5t-13 133t-36 88t-54 49t-67 15t-67 -15t-54 -49t-36 -88
t-13 -133t13 -133.5t36 -88t54 -48.5t67 -15zM270 915h65l130 -145h-80l-80 90h-5l-80 -90h-80z" />
    <glyph glyph-name="Otilde" unicode="&#xd5;" 
d="M300 -10q-54 0 -101 21t-81 65t-53.5 112t-19.5 162t19.5 162t53.5 112t81 65t101 21t101 -21t81 -65t53.5 -112t19.5 -162t-19.5 -162t-53.5 -112t-81 -65t-101 -21zM300 65q36 0 67 15t54 48.5t36 88t13 133.5t-13 133t-36 88t-54 49t-67 15t-67 -15t-54 -49t-36 -88
t-13 -133t13 -133.5t36 -88t54 -48.5t67 -15zM365 780q-21 0 -38 8t-31.5 17t-27 17t-23.5 8q-15 0 -22.5 -13t-7.5 -32h-70q0 45 22.5 75t67.5 30q21 0 38 -8t31.5 -17t27 -17t23.5 -8q15 0 22.5 13t7.5 32h70q0 -45 -22.5 -75t-67.5 -30z" />
    <glyph glyph-name="Odieresis" unicode="&#xd6;" 
d="M300 -10q-54 0 -101 21t-81 65t-53.5 112t-19.5 162t19.5 162t53.5 112t81 65t101 21t101 -21t81 -65t53.5 -112t19.5 -162t-19.5 -162t-53.5 -112t-81 -65t-101 -21zM300 65q36 0 67 15t54 48.5t36 88t13 133.5t-13 133t-36 88t-54 49t-67 15t-67 -15t-54 -49t-36 -88
t-13 -133t13 -133.5t36 -88t54 -48.5t67 -15zM217 780q-22 0 -37 15t-15 37t14.5 37.5t37.5 15.5q22 0 37 -15.5t15 -37.5q0 -21 -15 -36.5t-37 -15.5zM393 780q-22 0 -37.5 15t-15.5 37t15 37.5t38 15.5q22 0 37 -15.5t15 -37.5q0 -21 -15 -36.5t-37 -15.5z" />
    <glyph glyph-name="multiply" unicode="&#xd7;" 
d="M84 151l169 170l-169 169l46 47l170 -170l170 170l46 -46l-170 -170l170 -169l-47 -47l-170 170l-169 -170z" />
    <glyph glyph-name="Oslash" unicode="&#xd8;" 
d="M110 88q-31 45 -48 109.5t-17 152.5q0 94 19.5 162t53.5 112t81 65t101 21q80 0 140 -45l35 60h80l-65 -113q30 -45 47.5 -109.5t17.5 -152.5q0 -94 -19.5 -162t-53.5 -112t-81 -65t-101 -21q-40 0 -75.5 11t-65.5 34l-34 -60h-80zM300 60q36 0 67.5 16t55.5 50.5
t38 89.5t14 134q0 59 -8 104t-22 79l-248 -432q22 -22 48 -31.5t55 -9.5zM402 598q-22 22 -47.5 32t-54.5 10q-36 0 -67.5 -16t-55.5 -50.5t-38 -89.5t-14 -134q0 -60 8 -105t22 -79z" />
    <glyph glyph-name="Ugrave" unicode="&#xd9;" 
d="M300 -10q-105 0 -165 65.5t-60 204.5v440h85v-440q0 -105 38 -150t102 -45t102 45t38 150v440h85v-440q0 -139 -60 -204.5t-165 -65.5zM150 910h95l90 -140h-70z" />
    <glyph glyph-name="Uacute" unicode="&#xda;" 
d="M300 -10q-105 0 -165 65.5t-60 204.5v440h85v-440q0 -105 38 -150t102 -45t102 45t38 150v440h85v-440q0 -139 -60 -204.5t-165 -65.5zM355 910h95l-115 -140h-70z" />
    <glyph glyph-name="Ucircumflex" unicode="&#xdb;" 
d="M300 -10q-105 0 -165 65.5t-60 204.5v440h85v-440q0 -105 38 -150t102 -45t102 45t38 150v440h85v-440q0 -139 -60 -204.5t-165 -65.5zM270 915h65l130 -145h-80l-80 90h-5l-80 -90h-80z" />
    <glyph glyph-name="Udieresis" unicode="&#xdc;" 
d="M300 -10q-105 0 -165 65.5t-60 204.5v440h85v-440q0 -105 38 -150t102 -45t102 45t38 150v440h85v-440q0 -139 -60 -204.5t-165 -65.5zM212 780q-22 0 -37 15t-15 37t14.5 37.5t37.5 15.5q22 0 37 -15.5t15 -37.5q0 -21 -15 -36.5t-37 -15.5zM388 780q-22 0 -37.5 15
t-15.5 37t15 37.5t38 15.5q22 0 37 -15.5t15 -37.5q0 -21 -15 -36.5t-37 -15.5z" />
    <glyph glyph-name="Yacute" unicode="&#xdd;" 
d="M255 270l-215 430h90l137 -290l25 -80h10l27 80l136 290h90l-215 -430v-270h-85v270zM350 910h95l-115 -140h-70z" />
    <glyph glyph-name="Thorn" unicode="&#xde;" 
d="M85 700h85v-165h185q98 0 149 -49t51 -136t-51 -136t-149 -49h-185v-165h-85v700zM350 240q60 0 90 28.5t30 81.5t-30 81.5t-90 28.5h-180v-220h180z" />
    <glyph glyph-name="germandbls" unicode="&#xdf;" 
d="M95 510q0 45 14.5 82t40.5 63t63 40.5t82 14.5q49 0 86 -16.5t62.5 -42.5t38.5 -59t13 -67q0 -57 -25 -99t-70 -61q28 -8 50.5 -25t38 -40t23.5 -51.5t8 -58.5q0 -87 -54 -138.5t-156 -51.5h-55v70h55q64 0 99.5 34t35.5 91q0 56 -32 90.5t-103 34.5h-40v70h25
q57 0 91 32.5t34 92.5q0 57 -34 91t-91 34t-91 -35t-34 -95v-510h-75v510z" />
    <glyph glyph-name="agrave" unicode="&#xe0;" 
d="M275 -10q-38 0 -69 12.5t-53.5 34t-35 50.5t-12.5 63t12.5 63t36.5 50.5t58.5 34t77.5 12.5h135v35q0 53 -31 84t-84 31q-38 0 -68.5 -17t-41.5 -58h-80q6 36 23 63t42 45t57 27.5t68 9.5q43 0 78 -13.5t60 -37.5t38.5 -58t13.5 -76v-345h-60l-10 65h-5q-8 -11 -21 -24.5
t-31.5 -24.5t-43 -18.5t-54.5 -7.5zM285 60q30 0 55.5 10.5t44.5 30t29.5 46t10.5 58.5v35h-135q-57 0 -83.5 -24t-26.5 -66t26 -66t79 -24zM165 740h95l90 -140h-70z" />
    <glyph glyph-name="aacute" unicode="&#xe1;" 
d="M275 -10q-38 0 -69 12.5t-53.5 34t-35 50.5t-12.5 63t12.5 63t36.5 50.5t58.5 34t77.5 12.5h135v35q0 53 -31 84t-84 31q-38 0 -68.5 -17t-41.5 -58h-80q6 36 23 63t42 45t57 27.5t68 9.5q43 0 78 -13.5t60 -37.5t38.5 -58t13.5 -76v-345h-60l-10 65h-5q-8 -11 -21 -24.5
t-31.5 -24.5t-43 -18.5t-54.5 -7.5zM285 60q30 0 55.5 10.5t44.5 30t29.5 46t10.5 58.5v35h-135q-57 0 -83.5 -24t-26.5 -66t26 -66t79 -24zM370 740h95l-115 -140h-70z" />
    <glyph glyph-name="acircumflex" unicode="&#xe2;" 
d="M275 -10q-38 0 -69 12.5t-53.5 34t-35 50.5t-12.5 63t12.5 63t36.5 50.5t58.5 34t77.5 12.5h135v35q0 53 -31 84t-84 31q-38 0 -68.5 -17t-41.5 -58h-80q6 36 23 63t42 45t57 27.5t68 9.5q43 0 78 -13.5t60 -37.5t38.5 -58t13.5 -76v-345h-60l-10 65h-5q-8 -11 -21 -24.5
t-31.5 -24.5t-43 -18.5t-54.5 -7.5zM285 60q30 0 55.5 10.5t44.5 30t29.5 46t10.5 58.5v35h-135q-57 0 -83.5 -24t-26.5 -66t26 -66t79 -24zM285 745h65l130 -145h-80l-80 90h-5l-80 -90h-80z" />
    <glyph glyph-name="atilde" unicode="&#xe3;" 
d="M275 -10q-38 0 -69 12.5t-53.5 34t-35 50.5t-12.5 63t12.5 63t36.5 50.5t58.5 34t77.5 12.5h135v35q0 53 -31 84t-84 31q-38 0 -68.5 -17t-41.5 -58h-80q6 36 23 63t42 45t57 27.5t68 9.5q43 0 78 -13.5t60 -37.5t38.5 -58t13.5 -76v-345h-60l-10 65h-5q-8 -11 -21 -24.5
t-31.5 -24.5t-43 -18.5t-54.5 -7.5zM285 60q30 0 55.5 10.5t44.5 30t29.5 46t10.5 58.5v35h-135q-57 0 -83.5 -24t-26.5 -66t26 -66t79 -24zM380 610q-21 0 -38 8t-31.5 17t-27 17t-23.5 8q-15 0 -22.5 -13t-7.5 -32h-70q0 45 22.5 75t67.5 30q21 0 38 -8t31.5 -17t27 -17
t23.5 -8q15 0 22.5 13t7.5 32h70q0 -45 -22.5 -75t-67.5 -30z" />
    <glyph glyph-name="adieresis" unicode="&#xe4;" 
d="M275 -10q-38 0 -69 12.5t-53.5 34t-35 50.5t-12.5 63t12.5 63t36.5 50.5t58.5 34t77.5 12.5h135v35q0 53 -31 84t-84 31q-38 0 -68.5 -17t-41.5 -58h-80q6 36 23 63t42 45t57 27.5t68 9.5q43 0 78 -13.5t60 -37.5t38.5 -58t13.5 -76v-345h-60l-10 65h-5q-8 -11 -21 -24.5
t-31.5 -24.5t-43 -18.5t-54.5 -7.5zM285 60q30 0 55.5 10.5t44.5 30t29.5 46t10.5 58.5v35h-135q-57 0 -83.5 -24t-26.5 -66t26 -66t79 -24zM227 610q-22 0 -37 15t-15 37t14.5 37.5t37.5 15.5q22 0 37 -15.5t15 -37.5q0 -21 -15 -36.5t-37 -15.5zM403 610q-22 0 -37.5 15
t-15.5 37t15 37.5t38 15.5q22 0 37 -15.5t15 -37.5q0 -21 -15 -36.5t-37 -15.5z" />
    <glyph glyph-name="aring" unicode="&#xe5;" 
d="M275 -10q-38 0 -69 12.5t-53.5 34t-35 50.5t-12.5 63t12.5 63t36.5 50.5t58.5 34t77.5 12.5h135v35q0 53 -31 84t-84 31q-38 0 -68.5 -17t-41.5 -58h-80q6 36 23 63t42 45t57 27.5t68 9.5q43 0 78 -13.5t60 -37.5t38.5 -58t13.5 -76v-345h-60l-10 65h-5q-8 -11 -21 -24.5
t-31.5 -24.5t-43 -18.5t-54.5 -7.5zM285 60q30 0 55.5 10.5t44.5 30t29.5 46t10.5 58.5v35h-135q-57 0 -83.5 -24t-26.5 -66t26 -66t79 -24zM317 585q-42 0 -69.5 26.5t-27.5 70.5t27 71t70 27q44 0 71 -27t27 -71t-28 -70.5t-70 -26.5zM317 635q23 0 35.5 12.5t12.5 34.5
q0 21 -11.5 34.5t-36.5 13.5q-24 0 -35.5 -13.5t-11.5 -34.5q0 -22 12 -34.5t35 -12.5z" />
    <glyph glyph-name="ae" unicode="&#xe6;" 
d="M165 -10q-64 0 -104.5 42.5t-40.5 117.5q0 72 42.5 113.5t117.5 41.5h80v40q0 64 -20.5 89.5t-54.5 25.5t-50 -22.5t-20 -52.5h-80q6 39 19.5 67t33 45t44.5 25t53 8q38 0 71.5 -19t48.5 -61q11 30 43 55t82 25q34 0 62.5 -13t49 -41.5t32 -74t11.5 -111.5q0 -11 -1 -20
t-2 -16q-1 -8 -2 -14h-240q0 -49 6 -83t17.5 -55.5t27 -31.5t34.5 -10q23 0 40 16.5t25 58.5h80q-15 -79 -53 -112t-87 -33q-53 0 -81.5 24t-43.5 66q-19 -42 -51 -66t-89 -24zM170 60q19 0 35.5 8t28.5 25t19 45t7 67v30h-80q-85 0 -85 -85q0 -45 20.5 -67.5t54.5 -22.5z
M510 305q-2 52 -10.5 83t-21 47t-26.5 20.5t-27 4.5t-27.5 -4.5t-26.5 -20.5t-20.5 -47t-10.5 -83h170z" />
    <glyph glyph-name="ccedilla" unicode="&#xe7;" 
d="M250 -155h50q40 0 40 40q0 15 -10.5 25t-29.5 10h-40v35l16 38q-42 6 -78 26.5t-62.5 54.5t-41 81t-14.5 105q0 64 17.5 114t48.5 84.5t73 53t91 18.5q39 0 72 -11.5t58 -31t43 -46t27 -56.5h-75q-6 13 -17 26.5t-27 24t-36.5 17.5t-44.5 7q-32 0 -60 -13t-49 -38.5
t-33.5 -62.5t-12.5 -86t12.5 -86t33.5 -62.5t49 -38.5t60 -13q24 0 44.5 7t36.5 17.5t27 24t17 26.5h75q-17 -55 -61 -95.5t-113 -47.5l-11 -27q34 -4 54.5 -27t20.5 -53q0 -42 -26 -66t-64 -24h-60v50z" />
    <glyph glyph-name="egrave" unicode="&#xe8;" 
d="M300 -10q-51 0 -93 18.5t-72.5 53t-47.5 84.5t-17 114t17.5 114t48.5 84.5t73 53t91 18.5t91 -18t73 -49.5t48.5 -76t17.5 -96.5q0 -11 -1 -20t-2 -16q-1 -8 -2 -14h-380q4 -83 45.5 -131.5t109.5 -48.5q42 0 74.5 20.5t53.5 54.5h80q-25 -68 -80.5 -106.5t-127.5 -38.5z
M455 305q-4 34 -16.5 62.5t-33 49t-47 32t-58.5 11.5t-58.5 -11.5t-47 -32t-33 -49t-16.5 -62.5h310zM151 740h95l90 -140h-70z" />
    <glyph glyph-name="eacute" unicode="&#xe9;" 
d="M300 -10q-51 0 -93 18.5t-72.5 53t-47.5 84.5t-17 114t17.5 114t48.5 84.5t73 53t91 18.5t91 -18t73 -49.5t48.5 -76t17.5 -96.5q0 -11 -1 -20t-2 -16q-1 -8 -2 -14h-380q4 -83 45.5 -131.5t109.5 -48.5q42 0 74.5 20.5t53.5 54.5h80q-25 -68 -80.5 -106.5t-127.5 -38.5z
M455 305q-4 34 -16.5 62.5t-33 49t-47 32t-58.5 11.5t-58.5 -11.5t-47 -32t-33 -49t-16.5 -62.5h310zM360 740h95l-115 -140h-70z" />
    <glyph glyph-name="ecircumflex" unicode="&#xea;" 
d="M300 -10q-51 0 -93 18.5t-72.5 53t-47.5 84.5t-17 114t17.5 114t48.5 84.5t73 53t91 18.5t91 -18t73 -49.5t48.5 -76t17.5 -96.5q0 -11 -1 -20t-2 -16q-1 -8 -2 -14h-380q4 -83 45.5 -131.5t109.5 -48.5q42 0 74.5 20.5t53.5 54.5h80q-25 -68 -80.5 -106.5t-127.5 -38.5z
M455 305q-4 34 -16.5 62.5t-33 49t-47 32t-58.5 11.5t-58.5 -11.5t-47 -32t-33 -49t-16.5 -62.5h310zM270 745h65l130 -145h-80l-80 90h-5l-80 -90h-80z" />
    <glyph glyph-name="edieresis" unicode="&#xeb;" 
d="M300 -10q-51 0 -93 18.5t-72.5 53t-47.5 84.5t-17 114t17.5 114t48.5 84.5t73 53t91 18.5t91 -18t73 -49.5t48.5 -76t17.5 -96.5q0 -11 -1 -20t-2 -16q-1 -8 -2 -14h-380q4 -83 45.5 -131.5t109.5 -48.5q42 0 74.5 20.5t53.5 54.5h80q-25 -68 -80.5 -106.5t-127.5 -38.5z
M455 305q-4 34 -16.5 62.5t-33 49t-47 32t-58.5 11.5t-58.5 -11.5t-47 -32t-33 -49t-16.5 -62.5h310zM217 610q-22 0 -37 15t-15 37t14.5 37.5t37.5 15.5q22 0 37 -15.5t15 -37.5q0 -21 -15 -36.5t-37 -15.5zM393 610q-22 0 -37.5 15t-15.5 37t15 37.5t38 15.5
q22 0 37 -15.5t15 -37.5q0 -21 -15 -36.5t-37 -15.5z" />
    <glyph glyph-name="igrave" unicode="&#xec;" 
d="M115 70h155v380h-115v70h190v-450h145v-70h-375v70zM147 740h95l90 -140h-70z" />
    <glyph glyph-name="iacute" unicode="&#xed;" 
d="M115 70h155v380h-115v70h190v-450h145v-70h-375v70zM360 740h95l-115 -140h-70z" />
    <glyph glyph-name="icircumflex" unicode="&#xee;" 
d="M115 70h155v380h-115v70h190v-450h145v-70h-375v70zM275 745h65l130 -145h-80l-80 90h-5l-80 -90h-80z" />
    <glyph glyph-name="idieresis" unicode="&#xef;" 
d="M115 70h155v380h-115v70h190v-450h145v-70h-375v70zM222 610q-22 0 -37 15t-15 37t14.5 37.5t37.5 15.5q22 0 37 -15.5t15 -37.5q0 -21 -15 -36.5t-37 -15.5zM398 610q-22 0 -37.5 15t-15.5 37t15 37.5t38 15.5q22 0 37 -15.5t15 -37.5q0 -21 -15 -36.5t-37 -15.5z" />
    <glyph glyph-name="eth" unicode="&#xf0;" 
d="M290 -10q-49 0 -89.5 16.5t-69.5 48t-45 77t-16 103.5q0 60 16.5 106t46 76.5t68.5 46.5t84 16q38 0 74.5 -13t55.5 -32h5q-15 38 -39.5 71.5t-53.5 63.5l-132 -60l-30 60l110 50q-21 17 -45.5 33t-45.5 29q-25 15 -49 28h120q14 -9 29 -19q13 -8 27.5 -19t28.5 -22
l100 45l30 -60l-78 -35q59 -64 96 -150.5t37 -199.5q0 -56 -15.5 -104t-45.5 -82.5t-74 -54t-100 -19.5zM295 60q68 0 109 44t41 131t-41 131t-109 44t-109 -44t-41 -131t41 -131t109 -44z" />
    <glyph glyph-name="ntilde" unicode="&#xf1;" 
d="M100 520h60l10 -70h5q26 45 64 62.5t76 17.5q39 0 73 -14.5t59 -41.5t39 -66t14 -88v-320h-75v320q0 68 -33.5 104t-86.5 36q-28 0 -52 -11.5t-41 -30.5t-27 -44.5t-10 -53.5v-320h-75v520zM360 610q-21 0 -38 8t-31.5 17t-27 17t-23.5 8q-15 0 -22.5 -13t-7.5 -32h-70
q0 45 22.5 75t67.5 30q21 0 38 -8t31.5 -17t27 -17t23.5 -8q15 0 22.5 13t7.5 32h70q0 -45 -22.5 -75t-67.5 -30z" />
    <glyph glyph-name="ograve" unicode="&#xf2;" 
d="M300 -10q-49 0 -91 18.5t-73 53t-48.5 84.5t-17.5 114t17.5 114t48.5 84.5t73 53t91 18.5t91 -18.5t73 -53t48.5 -84.5t17.5 -114t-17.5 -114t-48.5 -84.5t-73 -53t-91 -18.5zM300 60q32 0 60 13t49 38.5t33.5 62.5t12.5 86t-12.5 86t-33.5 62.5t-49 38.5t-60 13t-60 -13
t-49 -38.5t-33.5 -62.5t-12.5 -86t12.5 -86t33.5 -62.5t49 -38.5t60 -13zM151 740h95l90 -140h-70z" />
    <glyph glyph-name="oacute" unicode="&#xf3;" 
d="M300 -10q-49 0 -91 18.5t-73 53t-48.5 84.5t-17.5 114t17.5 114t48.5 84.5t73 53t91 18.5t91 -18.5t73 -53t48.5 -84.5t17.5 -114t-17.5 -114t-48.5 -84.5t-73 -53t-91 -18.5zM300 60q32 0 60 13t49 38.5t33.5 62.5t12.5 86t-12.5 86t-33.5 62.5t-49 38.5t-60 13t-60 -13
t-49 -38.5t-33.5 -62.5t-12.5 -86t12.5 -86t33.5 -62.5t49 -38.5t60 -13zM355 740h95l-115 -140h-70z" />
    <glyph glyph-name="ocircumflex" unicode="&#xf4;" 
d="M300 -10q-49 0 -91 18.5t-73 53t-48.5 84.5t-17.5 114t17.5 114t48.5 84.5t73 53t91 18.5t91 -18.5t73 -53t48.5 -84.5t17.5 -114t-17.5 -114t-48.5 -84.5t-73 -53t-91 -18.5zM300 60q32 0 60 13t49 38.5t33.5 62.5t12.5 86t-12.5 86t-33.5 62.5t-49 38.5t-60 13t-60 -13
t-49 -38.5t-33.5 -62.5t-12.5 -86t12.5 -86t33.5 -62.5t49 -38.5t60 -13zM270 745h65l130 -145h-80l-80 90h-5l-80 -90h-80z" />
    <glyph glyph-name="otilde" unicode="&#xf5;" 
d="M300 -10q-49 0 -91 18.5t-73 53t-48.5 84.5t-17.5 114t17.5 114t48.5 84.5t73 53t91 18.5t91 -18.5t73 -53t48.5 -84.5t17.5 -114t-17.5 -114t-48.5 -84.5t-73 -53t-91 -18.5zM300 60q32 0 60 13t49 38.5t33.5 62.5t12.5 86t-12.5 86t-33.5 62.5t-49 38.5t-60 13t-60 -13
t-49 -38.5t-33.5 -62.5t-12.5 -86t12.5 -86t33.5 -62.5t49 -38.5t60 -13zM365 610q-21 0 -38 8t-31.5 17t-27 17t-23.5 8q-15 0 -22.5 -13t-7.5 -32h-70q0 45 22.5 75t67.5 30q21 0 38 -8t31.5 -17t27 -17t23.5 -8q15 0 22.5 13t7.5 32h70q0 -45 -22.5 -75t-67.5 -30z" />
    <glyph glyph-name="odieresis" unicode="&#xf6;" 
d="M300 -10q-49 0 -91 18.5t-73 53t-48.5 84.5t-17.5 114t17.5 114t48.5 84.5t73 53t91 18.5t91 -18.5t73 -53t48.5 -84.5t17.5 -114t-17.5 -114t-48.5 -84.5t-73 -53t-91 -18.5zM300 60q32 0 60 13t49 38.5t33.5 62.5t12.5 86t-12.5 86t-33.5 62.5t-49 38.5t-60 13t-60 -13
t-49 -38.5t-33.5 -62.5t-12.5 -86t12.5 -86t33.5 -62.5t49 -38.5t60 -13zM212 610q-22 0 -37 15t-15 37t14.5 37.5t37.5 15.5q22 0 37 -15.5t15 -37.5q0 -21 -15 -36.5t-37 -15.5zM388 610q-22 0 -37.5 15t-15.5 37t15 37.5t38 15.5q22 0 37 -15.5t15 -37.5q0 -21 -15 -36.5
t-37 -15.5z" />
    <glyph glyph-name="divide" unicode="&#xf7;" 
d="M300 65q-20 0 -31.5 13t-11.5 30t11.5 29.5t31.5 12.5q19 0 30.5 -12.5t11.5 -29.5t-11.5 -30t-30.5 -13zM65 335h470v-60h-470v60zM300 460q-20 0 -31.5 13t-11.5 30t11.5 29.5t31.5 12.5q19 0 30.5 -12.5t11.5 -29.5t-11.5 -30t-30.5 -13z" />
    <glyph glyph-name="oslash" unicode="&#xf8;" 
d="M134 64q-30 35 -47 84t-17 112q0 64 17.5 114t48.5 84.5t73 53t91 18.5q32 0 60 -8t54 -22l26 40h80l-54 -84q30 -35 47 -84t17 -112q0 -64 -17.5 -114t-48.5 -84.5t-73 -53t-91 -18.5q-65 0 -114 30l-26 -40h-80zM378 444q-35 21 -78 21q-34 0 -63 -13t-50.5 -39
t-34 -64t-12.5 -89q0 -43 8.5 -76.5t24.5 -58.5zM300 55q34 0 63 13t50.5 39t34 64t12.5 89q0 82 -33 135l-205 -319q34 -21 78 -21z" />
    <glyph glyph-name="ugrave" unicode="&#xf9;" 
d="M285 -10q-39 0 -73 14.5t-59 41.5t-39 66t-14 88v320h75v-320q0 -68 33.5 -104t86.5 -36q28 0 52 11.5t41 30.5t27 44.5t10 53.5v320h75v-520h-60l-10 70h-5q-26 -45 -64 -62.5t-76 -17.5zM150 740h95l90 -140h-70z" />
    <glyph glyph-name="uacute" unicode="&#xfa;" 
d="M285 -10q-39 0 -73 14.5t-59 41.5t-39 66t-14 88v320h75v-320q0 -68 33.5 -104t86.5 -36q28 0 52 11.5t41 30.5t27 44.5t10 53.5v320h75v-520h-60l-10 70h-5q-26 -45 -64 -62.5t-76 -17.5zM355 740h95l-115 -140h-70z" />
    <glyph glyph-name="ucircumflex" unicode="&#xfb;" 
d="M285 -10q-39 0 -73 14.5t-59 41.5t-39 66t-14 88v320h75v-320q0 -68 33.5 -104t86.5 -36q28 0 52 11.5t41 30.5t27 44.5t10 53.5v320h75v-520h-60l-10 70h-5q-26 -45 -64 -62.5t-76 -17.5zM265 745h65l130 -145h-80l-80 90h-5l-80 -90h-80z" />
    <glyph glyph-name="udieresis" unicode="&#xfc;" 
d="M285 -10q-39 0 -73 14.5t-59 41.5t-39 66t-14 88v320h75v-320q0 -68 33.5 -104t86.5 -36q28 0 52 11.5t41 30.5t27 44.5t10 53.5v320h75v-520h-60l-10 70h-5q-26 -45 -64 -62.5t-76 -17.5zM212 610q-22 0 -37 15t-15 37t14.5 37.5t37.5 15.5q22 0 37 -15.5t15 -37.5
q0 -21 -15 -36.5t-37 -15.5zM388 610q-22 0 -37.5 15t-15.5 37t15 37.5t38 15.5q22 0 37 -15.5t15 -37.5q0 -21 -15 -36.5t-37 -15.5z" />
    <glyph glyph-name="yacute" unicode="&#xfd;" 
d="M260 0l-210 520h80l165 -415h5l165 415h80l-285 -720h-80zM354 740h95l-115 -140h-70z" />
    <glyph glyph-name="thorn" unicode="&#xfe;" 
d="M100 700h75v-245h5q26 34 61 54.5t84 20.5q45 0 82.5 -16t65 -49.5t42.5 -84.5t15 -120t-15 -120t-42.5 -84.5t-65 -49.5t-82.5 -16q-49 0 -84 20.5t-61 54.5h-5v-265h-75v900zM315 60q28 0 53.5 12.5t44.5 37t30.5 62t11.5 88.5t-11.5 88.5t-30.5 62t-44.5 37
t-53.5 12.5t-53.5 -12.5t-44.5 -37t-30.5 -62t-11.5 -88.5t11.5 -88.5t30.5 -62t44.5 -37t53.5 -12.5z" />
    <glyph glyph-name="ydieresis" unicode="&#xff;" 
d="M260 0l-210 520h80l165 -415h5l165 415h80l-285 -720h-80zM212 610q-22 0 -37 15t-15 37t14.5 37.5t37.5 15.5q22 0 37 -15.5t15 -37.5q0 -21 -15 -36.5t-37 -15.5zM388 610q-22 0 -37.5 15t-15.5 37t15 37.5t38 15.5q22 0 37 -15.5t15 -37.5q0 -21 -15 -36.5t-37 -15.5z
" />
    <glyph glyph-name="Amacron" unicode="&#x100;" 
d="M255 700h90l225 -700h-85l-57 175h-256l-57 -175h-85zM405 250l-84 265l-16 100h-10l-16 -100l-84 -265h210zM160 875h280v-65h-280v65z" />
    <glyph glyph-name="amacron" unicode="&#x101;" 
d="M275 -10q-38 0 -69 12.5t-53.5 34t-35 50.5t-12.5 63t12.5 63t36.5 50.5t58.5 34t77.5 12.5h135v35q0 53 -31 84t-84 31q-38 0 -68.5 -17t-41.5 -58h-80q6 36 23 63t42 45t57 27.5t68 9.5q43 0 78 -13.5t60 -37.5t38.5 -58t13.5 -76v-345h-60l-10 65h-5q-8 -11 -21 -24.5
t-31.5 -24.5t-43 -18.5t-54.5 -7.5zM285 60q30 0 55.5 10.5t44.5 30t29.5 46t10.5 58.5v35h-135q-57 0 -83.5 -24t-26.5 -66t26 -66t79 -24zM175 705h280v-65h-280v65z" />
    <glyph glyph-name="Abreve" unicode="&#x102;" 
d="M255 700h90l225 -700h-85l-57 175h-256l-57 -175h-85zM405 250l-84 265l-16 100h-10l-16 -100l-84 -265h210zM300 770q-28 0 -53.5 7t-46 22.5t-33.5 40t-17 60.5h70q4 -38 27 -54t53 -16t53 16t27 54h70q-4 -36 -17 -60.5t-33.5 -40t-46 -22.5t-53.5 -7z" />
    <glyph glyph-name="abreve" unicode="&#x103;" 
d="M275 -10q-38 0 -69 12.5t-53.5 34t-35 50.5t-12.5 63t12.5 63t36.5 50.5t58.5 34t77.5 12.5h135v35q0 53 -31 84t-84 31q-38 0 -68.5 -17t-41.5 -58h-80q6 36 23 63t42 45t57 27.5t68 9.5q43 0 78 -13.5t60 -37.5t38.5 -58t13.5 -76v-345h-60l-10 65h-5q-8 -11 -21 -24.5
t-31.5 -24.5t-43 -18.5t-54.5 -7.5zM285 60q30 0 55.5 10.5t44.5 30t29.5 46t10.5 58.5v35h-135q-57 0 -83.5 -24t-26.5 -66t26 -66t79 -24zM315 600q-28 0 -53.5 7t-46 22.5t-33.5 40t-17 60.5h70q4 -38 27 -54t53 -16t53 16t27 54h70q-4 -36 -17 -60.5t-33.5 -40
t-46 -22.5t-53.5 -7z" />
    <glyph glyph-name="Aogonek" unicode="&#x104;" 
d="M515 -190q-53 0 -79 24t-26 66q0 21 7 37.5t17.5 29t24 20.5t26.5 13l-57 175h-256l-57 -175h-85l225 700h90l225 -700h-20q-42 -22 -61 -41.5t-19 -53.5q0 -17 14.5 -28.5t40.5 -11.5h25v-55h-35zM405 250l-84 265l-16 100h-10l-16 -100l-84 -265h210z" />
    <glyph glyph-name="aogonek" unicode="&#x105;" 
d="M465 -190q-53 0 -79 24t-26 66q0 22 8 40t20 30.5t26 20t26 9.5l-10 65h-5q-8 -11 -21 -24.5t-31.5 -24.5t-43 -18.5t-54.5 -7.5q-38 0 -69 12.5t-53.5 34t-35 50.5t-12.5 63t12.5 63t36.5 50.5t58.5 34t77.5 12.5h135v35q0 53 -31 84t-84 31q-38 0 -68.5 -17t-41.5 -58
h-80q6 36 23 63t42 45t57 27.5t68 9.5q43 0 78 -13.5t60 -37.5t38.5 -58t13.5 -76v-345q-42 -22 -61 -41.5t-19 -53.5q0 -17 14.5 -28.5t40.5 -11.5h25v-55h-35zM285 60q30 0 55.5 10.5t44.5 30t29.5 46t10.5 58.5v35h-135q-57 0 -83.5 -24t-26.5 -66t26 -66t79 -24z" />
    <glyph glyph-name="Cacute" unicode="&#x106;" 
d="M300 -10q-54 0 -101 21t-81 65t-53.5 112t-19.5 162t19.5 162t53.5 112t81 65t101 21q91 0 150 -50.5t86 -144.5h-85q-20 57 -57 88.5t-94 31.5q-36 0 -67 -15t-54 -49t-36 -88t-13 -133t13 -133.5t36 -88t54 -48.5t67 -15q57 0 99 36t61 119h85q-26 -120 -90.5 -175
t-154.5 -55zM350 910h95l-115 -140h-70z" />
    <glyph glyph-name="cacute" unicode="&#x107;" 
d="M310 -10q-49 0 -91 18.5t-73 53t-48.5 84.5t-17.5 114t17.5 114t48.5 84.5t73 53t91 18.5q39 0 72 -11.5t58 -31t43 -46t27 -56.5h-75q-6 13 -17 26.5t-27 24t-36.5 17.5t-44.5 7q-32 0 -60 -13t-49 -38.5t-33.5 -62.5t-12.5 -86t12.5 -86t33.5 -62.5t49 -38.5t60 -13
q24 0 44.5 7t36.5 17.5t27 24t17 26.5h75q-9 -30 -27 -56.5t-43 -46t-58 -31t-72 -11.5zM360 740h95l-115 -140h-70z" />
    <glyph glyph-name="Ccircumflex" unicode="&#x108;" 
d="M300 -10q-54 0 -101 21t-81 65t-53.5 112t-19.5 162t19.5 162t53.5 112t81 65t101 21q91 0 150 -50.5t86 -144.5h-85q-20 57 -57 88.5t-94 31.5q-36 0 -67 -15t-54 -49t-36 -88t-13 -133t13 -133.5t36 -88t54 -48.5t67 -15q57 0 99 36t61 119h85q-26 -120 -90.5 -175
t-154.5 -55zM270 915h65l130 -145h-80l-80 90h-5l-80 -90h-80z" />
    <glyph glyph-name="ccircumflex" unicode="&#x109;" 
d="M310 -10q-49 0 -91 18.5t-73 53t-48.5 84.5t-17.5 114t17.5 114t48.5 84.5t73 53t91 18.5q39 0 72 -11.5t58 -31t43 -46t27 -56.5h-75q-6 13 -17 26.5t-27 24t-36.5 17.5t-44.5 7q-32 0 -60 -13t-49 -38.5t-33.5 -62.5t-12.5 -86t12.5 -86t33.5 -62.5t49 -38.5t60 -13
q24 0 44.5 7t36.5 17.5t27 24t17 26.5h75q-9 -30 -27 -56.5t-43 -46t-58 -31t-72 -11.5zM275 745h65l130 -145h-80l-80 90h-5l-80 -90h-80z" />
    <glyph glyph-name="Cdotaccent" unicode="&#x10a;" 
d="M300 -10q-54 0 -101 21t-81 65t-53.5 112t-19.5 162t19.5 162t53.5 112t81 65t101 21q91 0 150 -50.5t86 -144.5h-85q-20 57 -57 88.5t-94 31.5q-36 0 -67 -15t-54 -49t-36 -88t-13 -133t13 -133.5t36 -88t54 -48.5t67 -15q57 0 99 36t61 119h85q-26 -120 -90.5 -175
t-154.5 -55zM298 780q-22 0 -37.5 15t-15.5 37t15 37.5t38 15.5q22 0 37 -15.5t15 -37.5q0 -21 -15 -36.5t-37 -15.5z" />
    <glyph glyph-name="cdotaccent" unicode="&#x10b;" 
d="M310 -10q-49 0 -91 18.5t-73 53t-48.5 84.5t-17.5 114t17.5 114t48.5 84.5t73 53t91 18.5q39 0 72 -11.5t58 -31t43 -46t27 -56.5h-75q-6 13 -17 26.5t-27 24t-36.5 17.5t-44.5 7q-32 0 -60 -13t-49 -38.5t-33.5 -62.5t-12.5 -86t12.5 -86t33.5 -62.5t49 -38.5t60 -13
q24 0 44.5 7t36.5 17.5t27 24t17 26.5h75q-9 -30 -27 -56.5t-43 -46t-58 -31t-72 -11.5zM308 610q-22 0 -37.5 15t-15.5 37t15 37.5t38 15.5q22 0 37 -15.5t15 -37.5q0 -21 -15 -36.5t-37 -15.5z" />
    <glyph glyph-name="Ccaron" unicode="&#x10c;" 
d="M300 -10q-54 0 -101 21t-81 65t-53.5 112t-19.5 162t19.5 162t53.5 112t81 65t101 21q91 0 150 -50.5t86 -144.5h-85q-20 57 -57 88.5t-94 31.5q-36 0 -67 -15t-54 -49t-36 -88t-13 -133t13 -133.5t36 -88t54 -48.5t67 -15q57 0 99 36t61 119h85q-26 -120 -90.5 -175
t-154.5 -55zM140 915h80l80 -90h5l80 90h80l-130 -145h-65z" />
    <glyph glyph-name="ccaron" unicode="&#x10d;" 
d="M310 -10q-49 0 -91 18.5t-73 53t-48.5 84.5t-17.5 114t17.5 114t48.5 84.5t73 53t91 18.5q39 0 72 -11.5t58 -31t43 -46t27 -56.5h-75q-6 13 -17 26.5t-27 24t-36.5 17.5t-44.5 7q-32 0 -60 -13t-49 -38.5t-33.5 -62.5t-12.5 -86t12.5 -86t33.5 -62.5t49 -38.5t60 -13
q24 0 44.5 7t36.5 17.5t27 24t17 26.5h75q-9 -30 -27 -56.5t-43 -46t-58 -31t-72 -11.5zM150 740h80l80 -90h5l80 90h80l-130 -145h-65z" />
    <glyph glyph-name="Dcaron" unicode="&#x10e;" 
d="M85 700h155q71 0 129 -23t99.5 -67.5t64 -110t22.5 -149.5q0 -88 -22.5 -154t-64 -109.5t-99.5 -65t-129 -21.5h-155v700zM240 75q51 0 93 17.5t72.5 52.5t47.5 86t17 119q0 67 -17 118.5t-47.5 86.5t-72.5 52.5t-93 17.5h-70v-550h70zM150 915h80l80 -90h5l80 90h80
l-130 -145h-65z" />
    <glyph glyph-name="dcaron" unicode="&#x10f;" 
d="M275 -10q-45 0 -82.5 16t-65 49.5t-42.5 84.5t-15 120t15 120t42.5 84.5t65 49.5t82.5 16q49 0 84 -20.5t61 -54.5h5v245h75v-700h-60l-10 70h-5q-26 -38 -63.5 -59t-86.5 -21zM285 60q28 0 53.5 12.5t44.5 37t30.5 62t11.5 88.5t-11.5 88.5t-30.5 62t-44.5 37
t-53.5 12.5t-53.5 -12.5t-44.5 -37t-30.5 -62t-11.5 -88.5t11.5 -88.5t30.5 -62t44.5 -37t53.5 -12.5z" />
    <glyph glyph-name="Dcroat" unicode="&#x110;" 
d="M85 315h-50v75h50v310h155q71 0 129 -23t99.5 -67.5t64 -110t22.5 -149.5q0 -88 -22.5 -154t-64 -109.5t-99.5 -65t-129 -21.5h-155v315zM240 75q51 0 93 17.5t72.5 52.5t47.5 86t17 119q0 67 -17 118.5t-47.5 86.5t-72.5 52.5t-93 17.5h-70v-235h120v-75h-120v-240h70z
" />
    <glyph glyph-name="dcroat" unicode="&#x111;" 
d="M275 -10q-45 0 -82.5 16t-65 46.5t-42.5 76.5t-15 106t15 106t42.5 76.5t65 46.5t82.5 16t82 -18t63 -52h5v140h-135v70h135v80h75v-80h75v-70h-75v-550h-60l-10 70h-5q-23 -34 -60 -57t-90 -23zM285 60q60 0 100 44t40 131t-40 131t-100 44t-100 -44t-40 -131t40 -131
t100 -44z" />
    <glyph glyph-name="Emacron" unicode="&#x112;" 
d="M85 700h420v-75h-335v-235h315v-75h-315v-240h345v-75h-430v700zM155 875h280v-65h-280v65z" />
    <glyph glyph-name="emacron" unicode="&#x113;" 
d="M300 -10q-51 0 -93 18.5t-72.5 53t-47.5 84.5t-17 114t17.5 114t48.5 84.5t73 53t91 18.5t91 -18t73 -49.5t48.5 -76t17.5 -96.5q0 -11 -1 -20t-2 -16q-1 -8 -2 -14h-380q4 -83 45.5 -131.5t109.5 -48.5q42 0 74.5 20.5t53.5 54.5h80q-25 -68 -80.5 -106.5t-127.5 -38.5z
M455 305q-4 34 -16.5 62.5t-33 49t-47 32t-58.5 11.5t-58.5 -11.5t-47 -32t-33 -49t-16.5 -62.5h310zM165 705h280v-65h-280v65z" />
    <glyph glyph-name="Ebreve" unicode="&#x114;" 
d="M85 700h420v-75h-335v-235h315v-75h-315v-240h345v-75h-430v700zM295 770q-28 0 -53.5 7t-46 22.5t-33.5 40t-17 60.5h70q4 -38 27 -54t53 -16t53 16t27 54h70q-4 -36 -17 -60.5t-33.5 -40t-46 -22.5t-53.5 -7z" />
    <glyph glyph-name="ebreve" unicode="&#x115;" 
d="M300 -10q-51 0 -93 18.5t-72.5 53t-47.5 84.5t-17 114t17.5 114t48.5 84.5t73 53t91 18.5t91 -18t73 -49.5t48.5 -76t17.5 -96.5q0 -11 -1 -20t-2 -16q-1 -8 -2 -14h-380q4 -83 45.5 -131.5t109.5 -48.5q42 0 74.5 20.5t53.5 54.5h80q-25 -68 -80.5 -106.5t-127.5 -38.5z
M455 305q-4 34 -16.5 62.5t-33 49t-47 32t-58.5 11.5t-58.5 -11.5t-47 -32t-33 -49t-16.5 -62.5h310zM305 600q-28 0 -53.5 7t-46 22.5t-33.5 40t-17 60.5h70q4 -38 27 -54t53 -16t53 16t27 54h70q-4 -36 -17 -60.5t-33.5 -40t-46 -22.5t-53.5 -7z" />
    <glyph glyph-name="Edotaccent" unicode="&#x116;" 
d="M85 700h420v-75h-335v-235h315v-75h-315v-240h345v-75h-430v700zM298 780q-22 0 -37.5 15t-15.5 37t15 37.5t38 15.5q22 0 37 -15.5t15 -37.5q0 -21 -15 -36.5t-37 -15.5z" />
    <glyph glyph-name="edotaccent" unicode="&#x117;" 
d="M300 -10q-51 0 -93 18.5t-72.5 53t-47.5 84.5t-17 114t17.5 114t48.5 84.5t73 53t91 18.5t91 -18t73 -49.5t48.5 -76t17.5 -96.5q0 -11 -1 -20t-2 -16q-1 -8 -2 -14h-380q4 -83 45.5 -131.5t109.5 -48.5q42 0 74.5 20.5t53.5 54.5h80q-25 -68 -80.5 -106.5t-127.5 -38.5z
M455 305q-4 34 -16.5 62.5t-33 49t-47 32t-58.5 11.5t-58.5 -11.5t-47 -32t-33 -49t-16.5 -62.5h310zM303 610q-22 0 -37.5 15t-15.5 37t15 37.5t38 15.5q22 0 37 -15.5t15 -37.5q0 -21 -15 -36.5t-37 -15.5z" />
    <glyph glyph-name="Eogonek" unicode="&#x118;" 
d="M480 -190q-53 0 -79 24t-26 66q0 21 7 37.5t17.5 29t24 20.5t26.5 13h-365v700h420v-75h-335v-235h315v-75h-315v-240h345v-75q-42 -22 -61 -41.5t-19 -53.5q0 -17 14.5 -28.5t40.5 -11.5h25v-55h-35v0z" />
    <glyph glyph-name="eogonek" unicode="&#x119;" 
d="M325 -190q-53 0 -79 24t-26 66q0 34 16.5 56.5t38.5 34.5q-46 4 -83.5 24t-64.5 54.5t-42 82.5t-15 108q0 64 17.5 114t48.5 84.5t73 53t91 18.5t91 -18t73 -49.5t48.5 -76t17.5 -96.5q0 -11 -1 -20t-2 -16q-1 -8 -2 -14h-380q4 -83 45.5 -131.5t109.5 -48.5
q42 0 74.5 20.5t53.5 54.5h80q-20 -55 -61.5 -91.5t-95.5 -47.5q-37 -20 -54 -39.5t-17 -51.5q0 -17 14.5 -28.5t40.5 -11.5h25v-55h-35zM455 305q-4 34 -16.5 62.5t-33 49t-47 32t-58.5 11.5t-58.5 -11.5t-47 -32t-33 -49t-16.5 -62.5h310z" />
    <glyph glyph-name="Ecaron" unicode="&#x11a;" 
d="M85 700h420v-75h-335v-235h315v-75h-315v-240h345v-75h-430v700zM135 915h80l80 -90h5l80 90h80l-130 -145h-65z" />
    <glyph glyph-name="ecaron" unicode="&#x11b;" 
d="M300 -10q-51 0 -93 18.5t-72.5 53t-47.5 84.5t-17 114t17.5 114t48.5 84.5t73 53t91 18.5t91 -18t73 -49.5t48.5 -76t17.5 -96.5q0 -11 -1 -20t-2 -16q-1 -8 -2 -14h-380q4 -83 45.5 -131.5t109.5 -48.5q42 0 74.5 20.5t53.5 54.5h80q-25 -68 -80.5 -106.5t-127.5 -38.5z
M455 305q-4 34 -16.5 62.5t-33 49t-47 32t-58.5 11.5t-58.5 -11.5t-47 -32t-33 -49t-16.5 -62.5h310zM140 740h80l80 -90h5l80 90h80l-130 -145h-65z" />
    <glyph glyph-name="Gcircumflex" unicode="&#x11c;" 
d="M300 -10q-54 0 -101 21t-81 65t-53.5 112t-19.5 162t19.5 162t53.5 112t81 65t101 21q91 0 150 -50.5t86 -144.5h-85q-20 57 -57 88.5t-94 31.5q-36 0 -67 -15t-54 -49t-36 -88t-13 -133t13 -133.5t36 -88t54 -48.5t67 -15q75 0 116.5 58.5t50.5 156.5h-147v75h235v-25
q-2 -68 -16.5 -129.5t-45 -108t-78.5 -74.5t-115 -28zM270 915h65l130 -145h-80l-80 90h-5l-80 -90h-80z" />
    <glyph glyph-name="gcircumflex" unicode="&#x11d;" 
d="M290 -200q-36 0 -69.5 9.5t-61.5 28.5t-49 48.5t-30 68.5h80q15 -42 51.5 -63.5t78.5 -21.5q60 0 97.5 38t37.5 102v90h-5q-26 -34 -63 -52t-82 -18q-43 0 -80.5 16.5t-65 48.5t-43.5 78.5t-16 106.5t16 106.5t43.5 78.5t65 48.5t80.5 16.5q45 0 84.5 -20.5t65.5 -54.5h5
l10 65h60v-510q0 -98 -56 -154t-154 -56zM285 100q28 0 53.5 12t44.5 35t30.5 56.5t11.5 76.5t-11.5 76.5t-30.5 56.5t-44.5 35t-53.5 12t-53.5 -12t-44.5 -35t-30.5 -56.5t-11.5 -76.5t11.5 -76.5t30.5 -56.5t44.5 -35t53.5 -12zM265 745h65l130 -145h-80l-80 90h-5
l-80 -90h-80z" />
    <glyph glyph-name="Gbreve" unicode="&#x11e;" 
d="M300 -10q-54 0 -101 21t-81 65t-53.5 112t-19.5 162t19.5 162t53.5 112t81 65t101 21q91 0 150 -50.5t86 -144.5h-85q-20 57 -57 88.5t-94 31.5q-36 0 -67 -15t-54 -49t-36 -88t-13 -133t13 -133.5t36 -88t54 -48.5t67 -15q75 0 116.5 58.5t50.5 156.5h-147v75h235v-25
q-2 -68 -16.5 -129.5t-45 -108t-78.5 -74.5t-115 -28zM300 770q-28 0 -53.5 7t-46 22.5t-33.5 40t-17 60.5h70q4 -38 27 -54t53 -16t53 16t27 54h70q-4 -36 -17 -60.5t-33.5 -40t-46 -22.5t-53.5 -7z" />
    <glyph glyph-name="gbreve" unicode="&#x11f;" 
d="M290 -200q-36 0 -69.5 9.5t-61.5 28.5t-49 48.5t-30 68.5h80q15 -42 51.5 -63.5t78.5 -21.5q60 0 97.5 38t37.5 102v90h-5q-26 -34 -63 -52t-82 -18q-43 0 -80.5 16.5t-65 48.5t-43.5 78.5t-16 106.5t16 106.5t43.5 78.5t65 48.5t80.5 16.5q45 0 84.5 -20.5t65.5 -54.5h5
l10 65h60v-510q0 -98 -56 -154t-154 -56zM285 100q28 0 53.5 12t44.5 35t30.5 56.5t11.5 76.5t-11.5 76.5t-30.5 56.5t-44.5 35t-53.5 12t-53.5 -12t-44.5 -35t-30.5 -56.5t-11.5 -76.5t11.5 -76.5t30.5 -56.5t44.5 -35t53.5 -12zM295 600q-28 0 -53.5 7t-46 22.5t-33.5 40
t-17 60.5h70q4 -38 27 -54t53 -16t53 16t27 54h70q-4 -36 -17 -60.5t-33.5 -40t-46 -22.5t-53.5 -7z" />
    <glyph glyph-name="Gdotaccent" unicode="&#x120;" 
d="M300 -10q-54 0 -101 21t-81 65t-53.5 112t-19.5 162t19.5 162t53.5 112t81 65t101 21q91 0 150 -50.5t86 -144.5h-85q-20 57 -57 88.5t-94 31.5q-36 0 -67 -15t-54 -49t-36 -88t-13 -133t13 -133.5t36 -88t54 -48.5t67 -15q75 0 116.5 58.5t50.5 156.5h-147v75h235v-25
q-2 -68 -16.5 -129.5t-45 -108t-78.5 -74.5t-115 -28zM298 780q-22 0 -37.5 15t-15.5 37t15 37.5t38 15.5q22 0 37 -15.5t15 -37.5q0 -21 -15 -36.5t-37 -15.5z" />
    <glyph glyph-name="gdotaccent" unicode="&#x121;" 
d="M290 -200q-36 0 -69.5 9.5t-61.5 28.5t-49 48.5t-30 68.5h80q15 -42 51.5 -63.5t78.5 -21.5q60 0 97.5 38t37.5 102v90h-5q-26 -34 -63 -52t-82 -18q-43 0 -80.5 16.5t-65 48.5t-43.5 78.5t-16 106.5t16 106.5t43.5 78.5t65 48.5t80.5 16.5q45 0 84.5 -20.5t65.5 -54.5h5
l10 65h60v-510q0 -98 -56 -154t-154 -56zM285 100q28 0 53.5 12t44.5 35t30.5 56.5t11.5 76.5t-11.5 76.5t-30.5 56.5t-44.5 35t-53.5 12t-53.5 -12t-44.5 -35t-30.5 -56.5t-11.5 -76.5t11.5 -76.5t30.5 -56.5t44.5 -35t53.5 -12zM298 610q-22 0 -37.5 15t-15.5 37t15 37.5
t38 15.5q22 0 37 -15.5t15 -37.5q0 -21 -15 -36.5t-37 -15.5z" />
    <glyph glyph-name="Gcommaaccent" unicode="&#x122;" 
d="M300 -10q-54 0 -101 21t-81 65t-53.5 112t-19.5 162t19.5 162t53.5 112t81 65t101 21q91 0 150 -50.5t86 -144.5h-85q-20 57 -57 88.5t-94 31.5q-36 0 -67 -15t-54 -49t-36 -88t-13 -133t13 -133.5t36 -88t54 -48.5t67 -15q75 0 116.5 58.5t50.5 156.5h-147v75h235v-25
q-2 -68 -16.5 -129.5t-45 -108t-78.5 -74.5t-115 -28zM260 -85h85l-70 -160h-60z" />
    <glyph glyph-name="gcommaaccent" unicode="&#x123;" 
d="M320 760h60l-45 -160h-85zM290 -200q-36 0 -69.5 9.5t-61.5 28.5t-49 48.5t-30 68.5h80q15 -42 51.5 -63.5t78.5 -21.5q60 0 97.5 38t37.5 102v90h-5q-26 -34 -63 -52t-82 -18q-43 0 -80.5 16.5t-65 48.5t-43.5 78.5t-16 106.5t16 106.5t43.5 78.5t65 48.5t80.5 16.5
q45 0 84.5 -20.5t65.5 -54.5h5l10 65h60v-510q0 -98 -56 -154t-154 -56zM285 100q28 0 53.5 12t44.5 35t30.5 56.5t11.5 76.5t-11.5 76.5t-30.5 56.5t-44.5 35t-53.5 12t-53.5 -12t-44.5 -35t-30.5 -56.5t-11.5 -76.5t11.5 -76.5t30.5 -56.5t44.5 -35t53.5 -12z" />
    <glyph glyph-name="Hcircumflex" unicode="&#x124;" 
d="M85 700h85v-310h260v310h85v-700h-85v315h-260v-315h-85v700zM270 915h65l130 -145h-80l-80 90h-5l-80 -90h-80z" />
    <glyph glyph-name="hcircumflex" unicode="&#x125;" 
d="M100 700h75v-250h5q23 45 60 62.5t75 17.5q39 0 73 -14.5t59 -41.5t39 -66t14 -88v-320h-75v320q0 68 -33.5 104t-86.5 36q-27 0 -50.5 -11t-41 -29.5t-27.5 -43t-11 -51.5v-325h-75v700zM265 915h65l130 -145h-80l-80 90h-5l-80 -90h-80z" />
    <glyph glyph-name="Hbar" unicode="&#x126;" 
d="M85 525h-55v75h55v100h85v-100h260v100h85v-100h55v-75h-55v-525h-85v315h-260v-315h-85v525zM430 390v135h-260v-135h260z" />
    <glyph glyph-name="hbar" unicode="&#x127;" 
d="M115 550h-75v70h75v80h75v-80h135v-70h-135v-170h5q23 45 60 62.5t75 17.5q39 0 73 -14.5t59 -41.5t39 -66t14 -88v-250h-75v250q0 68 -33.5 104t-86.5 36q-27 0 -50 -10.5t-40 -28t-28 -41t-12 -50.5v-260h-75v550z" />
    <glyph glyph-name="Imacron" unicode="&#x12a;" 
d="M110 75h150v550h-150v75h385v-75h-150v-550h150v-75h-385v75zM165 875h280v-65h-280v65z" />
    <glyph glyph-name="imacron" unicode="&#x12b;" 
d="M115 70h155v380h-115v70h190v-450h145v-70h-375v70zM165 705h280v-65h-280v65z" />
    <glyph glyph-name="Ibreve" unicode="&#x12c;" 
d="M110 75h150v550h-150v75h385v-75h-150v-550h150v-75h-385v75zM305 770q-28 0 -53.5 7t-46 22.5t-33.5 40t-17 60.5h70q4 -38 27 -54t53 -16t53 16t27 54h70q-4 -36 -17 -60.5t-33.5 -40t-46 -22.5t-53.5 -7z" />
    <glyph glyph-name="ibreve" unicode="&#x12d;" 
d="M115 70h155v380h-115v70h190v-450h145v-70h-375v70zM310 600q-28 0 -53.5 7t-46 22.5t-33.5 40t-17 60.5h70q4 -38 27 -54t53 -16t53 16t27 54h70q-4 -36 -17 -60.5t-33.5 -40t-46 -22.5t-53.5 -7z" />
    <glyph glyph-name="Iogonek" unicode="&#x12e;" 
d="M300 -190q-53 0 -79 24t-26 66q0 21 7 37.5t17.5 29t24 20.5t26.5 13h-160v75h150v550h-150v75h385v-75h-150v-550h150v-75h-160q-42 -22 -61 -41.5t-19 -53.5q0 -17 14.5 -28.5t40.5 -11.5h25v-55h-35v0z" />
    <glyph glyph-name="iogonek" unicode="&#x12f;" 
d="M305 -190q-53 0 -79 24t-26 66q0 21 7 37.5t17.5 29t24 20.5t26.5 13h-160v70h155v380h-115v70h190v-450h145v-70h-150q-42 -22 -61 -41.5t-19 -53.5q0 -17 14.5 -28.5t40.5 -11.5h25v-55h-35zM303 595q-22 0 -37.5 15t-15.5 37t15 37.5t38 15.5q22 0 37 -15.5t15 -37.5
q0 -21 -15 -36.5t-37 -15.5z" />
    <glyph glyph-name="Idotaccent" unicode="&#x130;" 
d="M110 75h150v550h-150v75h385v-75h-150v-550h150v-75h-385v75zM301 780q-22 0 -37.5 15t-15.5 37t15 37.5t38 15.5q22 0 37 -15.5t15 -37.5q0 -21 -15 -36.5t-37 -15.5z" />
    <glyph glyph-name="dotlessi" unicode="&#x131;" 
d="M115 70h155v380h-115v70h190v-450h145v-70h-375v70z" />
    <glyph glyph-name="uni0132" unicode="&#x132;" 
d="M295 -10q-86 0 -145 50t-70 155h85q8 -63 44.5 -96.5t85.5 -33.5q60 0 100 44t40 131v385h-225v75h310v-460q0 -124 -60 -187t-165 -63zM80 700h85v-450h-85v450z" />
    <glyph glyph-name="uni0133" unicode="&#x133;" 
d="M135 520h75v-510h-75v510zM300 -200q-38 0 -67.5 11.5t-50.5 31.5t-33 47.5t-14 59.5h75q4 -34 26 -57t64 -23t66 24t24 66v490h-137v70h212v-560q0 -36 -11.5 -65.5t-33.5 -50.5t-52.5 -32.5t-67.5 -11.5zM173 595q-22 0 -37.5 15t-15.5 37t15 37.5t38 15.5
q22 0 37 -15.5t15 -37.5q0 -21 -15 -36.5t-37 -15.5zM428 595q-22 0 -37.5 15t-15.5 37t15 37.5t38 15.5q22 0 37 -15.5t15 -37.5q0 -21 -15 -36.5t-37 -15.5z" />
    <glyph glyph-name="Jcircumflex" unicode="&#x134;" 
d="M275 -10q-90 0 -149.5 50t-70.5 155h85q8 -63 45 -96.5t90 -33.5q60 0 100 44t40 131v385h-250v75h335v-460q0 -124 -60 -187t-165 -63zM300 915h65l130 -145h-80l-80 90h-5l-80 -90h-80z" />
    <glyph glyph-name="jcircumflex" unicode="&#x135;" 
d="M235 -200q-38 0 -67.5 11.5t-50.5 31.5t-33 47.5t-14 59.5h75q4 -34 26 -57t64 -23t66 24t24 66v490h-137v70h212v-560q0 -36 -11.5 -65.5t-33.5 -50.5t-52.5 -32.5t-67.5 -11.5zM340 745h65l130 -145h-80l-80 90h-5l-80 -90h-80z" />
    <glyph glyph-name="Kcommaaccent" unicode="&#x136;" 
d="M90 700h85v-335l280 335h100l-290 -345l305 -355h-100l-295 345v-345h-85v700zM290 -85h85l-70 -160h-60z" />
    <glyph glyph-name="kcommaaccent" unicode="&#x137;" 
d="M115 700h75v-425l245 245h95l-255 -255l270 -265h-95l-260 255v-255h-75v700zM285 -85h85l-70 -160h-60z" />
    <glyph glyph-name="Lacute" unicode="&#x139;" 
d="M95 700h85v-625h350v-75h-435v700zM190 910h95l-115 -140h-70z" />
    <glyph glyph-name="lacute" unicode="&#x13a;" 
d="M115 70h155v560h-110v70h185v-630h145v-70h-375v70zM360 910h95l-115 -140h-70z" />
    <glyph glyph-name="Lcommaaccent" unicode="&#x13b;" 
d="M95 700h85v-625h350v-75h-435v700zM265 -85h85l-70 -160h-60z" />
    <glyph glyph-name="lcommaaccent" unicode="&#x13c;" 
d="M115 70h155v560h-110v70h185v-630h145v-70h-375v70zM265 -85h85l-70 -160h-60z" />
    <glyph glyph-name="Lcaron" unicode="&#x13d;" 
d="M95 700h85v-625h350v-75h-435v700z" />
    <glyph glyph-name="lcaron" unicode="&#x13e;" 
d="M115 70h155v560h-110v70h185v-630h145v-70h-375v70z" />
    <glyph glyph-name="Ldot" unicode="&#x13f;" 
d="M95 700h85v-625h350v-75h-435v700zM435 335q-23 0 -39 16t-16 39t16 39t39 16t39 -16t16 -39t-16 -39t-39 -16z" />
    <glyph glyph-name="ldot" unicode="&#x140;" 
d="M115 70h155v560h-110v70h185v-630h145v-70h-375v70zM605 310q-23 0 -39 16t-16 39t16 39t39 16t39 -16t16 -39t-16 -39t-39 -16z" />
    <glyph glyph-name="Lslash" unicode="&#x141;" 
d="M95 295l-70 -25v80l70 25v325h85v-293l171 63v-80l-171 -63v-252h350v-75h-435v295z" />
    <glyph glyph-name="lslash" unicode="&#x142;" 
d="M115 70h155v231l-70 -31v85l70 31v244h-110v70h185v-281l70 31v-85l-70 -31v-264h145v-70h-375v70z" />
    <glyph glyph-name="Nacute" unicode="&#x143;" 
d="M85 700h125l174 -453l61 -157h10l-25 170v440h85v-700h-125l-174 452l-61 158h-10l25 -171v-439h-85v700zM355 910h95l-115 -140h-70z" />
    <glyph glyph-name="nacute" unicode="&#x144;" 
d="M100 520h60l10 -70h5q26 45 64 62.5t76 17.5q39 0 73 -14.5t59 -41.5t39 -66t14 -88v-320h-75v320q0 68 -33.5 104t-86.5 36q-28 0 -52 -11.5t-41 -30.5t-27 -44.5t-10 -53.5v-320h-75v520zM355 740h95l-115 -140h-70z" />
    <glyph glyph-name="Ncommaaccent" unicode="&#x145;" 
d="M85 700h125l174 -453l61 -157h10l-25 170v440h85v-700h-125l-174 452l-61 158h-10l25 -171v-439h-85v700zM260 -85h85l-70 -160h-60z" />
    <glyph glyph-name="ncommaaccent" unicode="&#x146;" 
d="M100 520h60l10 -70h5q26 45 64 62.5t76 17.5q39 0 73 -14.5t59 -41.5t39 -66t14 -88v-320h-75v320q0 68 -33.5 104t-86.5 36q-28 0 -52 -11.5t-41 -30.5t-27 -44.5t-10 -53.5v-320h-75v520zM255 -85h85l-70 -160h-60z" />
    <glyph glyph-name="Ncaron" unicode="&#x147;" 
d="M85 700h125l174 -453l61 -157h10l-25 170v440h85v-700h-125l-174 452l-61 158h-10l25 -171v-439h-85v700zM140 915h80l80 -90h5l80 90h80l-130 -145h-65z" />
    <glyph glyph-name="ncaron" unicode="&#x148;" 
d="M100 520h60l10 -70h5q26 45 64 62.5t76 17.5q39 0 73 -14.5t59 -41.5t39 -66t14 -88v-320h-75v320q0 68 -33.5 104t-86.5 36q-28 0 -52 -11.5t-41 -30.5t-27 -44.5t-10 -53.5v-320h-75v520zM140 740h80l80 -90h5l80 90h80l-130 -145h-65z" />
    <glyph glyph-name="napostrophe" unicode="&#x149;" 
d="M100 520h60l10 -70h5q26 45 64 62.5t76 17.5q39 0 73 -14.5t59 -41.5t39 -66t14 -88v-320h-75v320q0 68 -33.5 104t-86.5 36q-28 0 -52 -11.5t-41 -30.5t-27 -44.5t-10 -53.5v-320h-75v520zM60 700h80l-70 -160h-55z" />
    <glyph glyph-name="Eng" unicode="&#x14a;" 
d="M305 -125h15q57 0 83.5 28t26.5 92v5h-40l-174 452l-61 158h-10l25 -171v-439h-85v700h125l174 -453l61 -157h10l-25 170v440h85v-695q0 -102 -49 -153.5t-136 -51.5h-25v75z" />
    <glyph glyph-name="eng" unicode="&#x14b;" 
d="M280 -130h65q80 0 80 80v370q0 68 -33.5 104t-86.5 36q-28 0 -52 -11.5t-41 -30.5t-27 -44.5t-10 -53.5v-320h-75v520h60l10 -70h5q26 45 64 62.5t76 17.5q39 0 73 -14.5t59 -41.5t39 -66t14 -88v-370q0 -72 -39 -111t-111 -39h-70v70z" />
    <glyph glyph-name="Omacron" unicode="&#x14c;" 
d="M300 -10q-54 0 -101 21t-81 65t-53.5 112t-19.5 162t19.5 162t53.5 112t81 65t101 21t101 -21t81 -65t53.5 -112t19.5 -162t-19.5 -162t-53.5 -112t-81 -65t-101 -21zM300 65q36 0 67 15t54 48.5t36 88t13 133.5t-13 133t-36 88t-54 49t-67 15t-67 -15t-54 -49t-36 -88
t-13 -133t13 -133.5t36 -88t54 -48.5t67 -15zM160 875h280v-65h-280v65z" />
    <glyph glyph-name="omacron" unicode="&#x14d;" 
d="M300 -10q-49 0 -91 18.5t-73 53t-48.5 84.5t-17.5 114t17.5 114t48.5 84.5t73 53t91 18.5t91 -18.5t73 -53t48.5 -84.5t17.5 -114t-17.5 -114t-48.5 -84.5t-73 -53t-91 -18.5zM300 60q32 0 60 13t49 38.5t33.5 62.5t12.5 86t-12.5 86t-33.5 62.5t-49 38.5t-60 13t-60 -13
t-49 -38.5t-33.5 -62.5t-12.5 -86t12.5 -86t33.5 -62.5t49 -38.5t60 -13zM160 705h280v-65h-280v65z" />
    <glyph glyph-name="Obreve" unicode="&#x14e;" 
d="M300 -10q-54 0 -101 21t-81 65t-53.5 112t-19.5 162t19.5 162t53.5 112t81 65t101 21t101 -21t81 -65t53.5 -112t19.5 -162t-19.5 -162t-53.5 -112t-81 -65t-101 -21zM300 65q36 0 67 15t54 48.5t36 88t13 133.5t-13 133t-36 88t-54 49t-67 15t-67 -15t-54 -49t-36 -88
t-13 -133t13 -133.5t36 -88t54 -48.5t67 -15zM300 770q-28 0 -53.5 7t-46 22.5t-33.5 40t-17 60.5h70q4 -38 27 -54t53 -16t53 16t27 54h70q-4 -36 -17 -60.5t-33.5 -40t-46 -22.5t-53.5 -7z" />
    <glyph glyph-name="obreve" unicode="&#x14f;" 
d="M300 -10q-49 0 -91 18.5t-73 53t-48.5 84.5t-17.5 114t17.5 114t48.5 84.5t73 53t91 18.5t91 -18.5t73 -53t48.5 -84.5t17.5 -114t-17.5 -114t-48.5 -84.5t-73 -53t-91 -18.5zM300 60q32 0 60 13t49 38.5t33.5 62.5t12.5 86t-12.5 86t-33.5 62.5t-49 38.5t-60 13t-60 -13
t-49 -38.5t-33.5 -62.5t-12.5 -86t12.5 -86t33.5 -62.5t49 -38.5t60 -13zM300 600q-28 0 -53.5 7t-46 22.5t-33.5 40t-17 60.5h70q4 -38 27 -54t53 -16t53 16t27 54h70q-4 -36 -17 -60.5t-33.5 -40t-46 -22.5t-53.5 -7z" />
    <glyph glyph-name="Ohungarumlaut" unicode="&#x150;" 
d="M300 -10q-54 0 -101 21t-81 65t-53.5 112t-19.5 162t19.5 162t53.5 112t81 65t101 21t101 -21t81 -65t53.5 -112t19.5 -162t-19.5 -162t-53.5 -112t-81 -65t-101 -21zM300 65q36 0 67 15t54 48.5t36 88t13 133.5t-13 133t-36 88t-54 49t-67 15t-67 -15t-54 -49t-36 -88
t-13 -133t13 -133.5t36 -88t54 -48.5t67 -15zM275 910h95l-115 -140h-70zM435 910h95l-115 -140h-70z" />
    <glyph glyph-name="ohungarumlaut" unicode="&#x151;" 
d="M300 -10q-49 0 -91 18.5t-73 53t-48.5 84.5t-17.5 114t17.5 114t48.5 84.5t73 53t91 18.5t91 -18.5t73 -53t48.5 -84.5t17.5 -114t-17.5 -114t-48.5 -84.5t-73 -53t-91 -18.5zM300 60q32 0 60 13t49 38.5t33.5 62.5t12.5 86t-12.5 86t-33.5 62.5t-49 38.5t-60 13t-60 -13
t-49 -38.5t-33.5 -62.5t-12.5 -86t12.5 -86t33.5 -62.5t49 -38.5t60 -13zM275 740h95l-115 -140h-70zM435 740h95l-115 -140h-70z" />
    <glyph glyph-name="OE" unicode="&#x152;" 
d="M195 -10q-34 0 -64 16t-52.5 57t-35.5 110.5t-13 176.5t13 176.5t35.5 110.5t52.5 57t64 16q19 0 42 -12.5t38 -42.5v45h290v-75h-205v-235h185v-75h-185v-240h215v-75h-300v45q-15 -30 -38 -42.5t-42 -12.5zM195 65q15 0 29.5 10t25.5 40.5t18 86.5t7 148t-7 148
t-18 86.5t-25.5 40.5t-29.5 10t-29.5 -10t-25.5 -40.5t-18 -86.5t-7 -148t7 -148t18 -86.5t25.5 -40.5t29.5 -10z" />
    <glyph glyph-name="oe" unicode="&#x153;" 
d="M185 -10q-32 0 -61 15t-51 47t-35 83.5t-13 124.5t13 124.5t35 83.5t51 47t61 15q37 0 69 -20t51 -70q19 45 51 67.5t74 22.5q34 0 62.5 -13t49 -41.5t32 -74t11.5 -111.5q0 -11 -1 -20t-2 -16q-1 -8 -2 -14h-240q0 -49 6 -83t17.5 -55.5t27 -31.5t34.5 -10q23 0 40 16.5
t25 58.5h80q-15 -79 -53 -112t-87 -33q-53 0 -81.5 24t-43.5 66q-19 -50 -50.5 -70t-69.5 -20zM185 60q15 0 30 9.5t27.5 32.5t20 61.5t7.5 96.5t-7.5 96.5t-20 61.5t-27.5 32.5t-30 9.5t-30 -9.5t-27.5 -32.5t-20 -61.5t-7.5 -96.5t7.5 -96.5t20 -61.5t27.5 -32.5t30 -9.5z
M510 305q-2 52 -10.5 83t-21 47t-26.5 20.5t-27 4.5t-27.5 -4.5t-26.5 -20.5t-20.5 -47t-10.5 -83h170z" />
    <glyph glyph-name="Racute" unicode="&#x154;" 
d="M85 700h245q51 0 91.5 -15t69 -43t44 -66.5t15.5 -85.5q0 -53 -17.5 -90.5t-45.5 -63t-61.5 -39t-65.5 -17.5l200 -280h-95l-200 280h-95v-280h-85v700zM325 355q68 0 104 35.5t36 99.5t-36 99.5t-104 35.5h-155v-270h155zM370 910h95l-115 -140h-70z" />
    <glyph glyph-name="racute" unicode="&#x155;" 
d="M100 70h125v380h-105v70h165l10 -70h5q23 38 57 54t83 16h75v-70h-75q-29 0 -54 -9.5t-44 -26t-30 -39.5t-12 -50v-255h160v-70h-360v70zM385 740h95l-115 -140h-70z" />
    <glyph glyph-name="Rcommaaccent" unicode="&#x156;" 
d="M85 700h245q51 0 91.5 -15t69 -43t44 -66.5t15.5 -85.5q0 -53 -17.5 -90.5t-45.5 -63t-61.5 -39t-65.5 -17.5l200 -280h-95l-200 280h-95v-280h-85v700zM325 355q68 0 104 35.5t36 99.5t-36 99.5t-104 35.5h-155v-270h155zM270 -85h85l-70 -160h-60z" />
    <glyph glyph-name="rcommaaccent" unicode="&#x157;" 
d="M100 70h125v380h-105v70h165l10 -70h5q23 38 57 54t83 16h75v-70h-75q-29 0 -54 -9.5t-44 -26t-30 -39.5t-12 -50v-255h160v-70h-360v70zM235 -85h85l-70 -160h-60z" />
    <glyph glyph-name="Rcaron" unicode="&#x158;" 
d="M85 700h245q51 0 91.5 -15t69 -43t44 -66.5t15.5 -85.5q0 -53 -17.5 -90.5t-45.5 -63t-61.5 -39t-65.5 -17.5l200 -280h-95l-200 280h-95v-280h-85v700zM325 355q68 0 104 35.5t36 99.5t-36 99.5t-104 35.5h-155v-270h155zM155 915h80l80 -90h5l80 90h80l-130 -145h-65z
" />
    <glyph glyph-name="rcaron" unicode="&#x159;" 
d="M100 70h125v380h-105v70h165l10 -70h5q23 38 57 54t83 16h75v-70h-75q-29 0 -54 -9.5t-44 -26t-30 -39.5t-12 -50v-255h160v-70h-360v70zM170 745h80l80 -90h5l80 90h80l-130 -145h-65z" />
    <glyph glyph-name="Sacute" unicode="&#x15a;" 
d="M310 -10q-49 0 -92 12.5t-76 37t-54.5 62t-27.5 88.5h85q11 -64 56 -94.5t109 -30.5q43 0 71 11t44.5 29t23 40t6.5 45q0 34 -16 55t-42.5 34.5t-60 22.5t-69 19t-69 23.5t-60 35.5t-42.5 55.5t-16 84.5q0 39 14.5 74t43 60.5t69 40.5t93.5 15q43 0 81.5 -10t68.5 -31.5
t49.5 -55.5t25.5 -83h-85q-8 49 -45.5 77t-94.5 28q-68 0 -101.5 -33t-33.5 -82q0 -36 16 -58.5t42.5 -37t60 -24t69 -19.5t69 -22.5t60 -34t42.5 -53.5t16 -81q0 -39 -14 -75.5t-42.5 -64t-72 -44t-101.5 -16.5zM360 910h95l-115 -140h-70z" />
    <glyph glyph-name="sacute" unicode="&#x15b;" 
d="M305 -10q-43 0 -80.5 10t-66 30.5t-46.5 50.5t-22 69h80q8 -45 47 -67.5t88 -22.5q71 0 100.5 23t29.5 57q0 32 -24.5 48.5t-61 26t-79.5 18t-79.5 24.5t-61 45.5t-24.5 82.5q0 28 12 54t36 46.5t59.5 32.5t82.5 12q37 0 72.5 -8t63.5 -25t46.5 -45t22.5 -67h-80
q-8 34 -40 54.5t-85 20.5q-57 0 -86 -20.5t-29 -54.5t24.5 -51.5t61 -28t79.5 -19t79.5 -24.5t61 -44t24.5 -78q0 -32 -13 -59.5t-39 -47.5t-64 -31.5t-89 -11.5zM355 740h95l-115 -140h-70z" />
    <glyph glyph-name="Scircumflex" unicode="&#x15c;" 
d="M310 -10q-49 0 -92 12.5t-76 37t-54.5 62t-27.5 88.5h85q11 -64 56 -94.5t109 -30.5q43 0 71 11t44.5 29t23 40t6.5 45q0 34 -16 55t-42.5 34.5t-60 22.5t-69 19t-69 23.5t-60 35.5t-42.5 55.5t-16 84.5q0 39 14.5 74t43 60.5t69 40.5t93.5 15q43 0 81.5 -10t68.5 -31.5
t49.5 -55.5t25.5 -83h-85q-8 49 -45.5 77t-94.5 28q-68 0 -101.5 -33t-33.5 -82q0 -36 16 -58.5t42.5 -37t60 -24t69 -19.5t69 -22.5t60 -34t42.5 -53.5t16 -81q0 -39 -14 -75.5t-42.5 -64t-72 -44t-101.5 -16.5zM275 915h65l130 -145h-80l-80 90h-5l-80 -90h-80z" />
    <glyph glyph-name="scircumflex" unicode="&#x15d;" 
d="M305 -10q-43 0 -80.5 10t-66 30.5t-46.5 50.5t-22 69h80q8 -45 47 -67.5t88 -22.5q71 0 100.5 23t29.5 57q0 32 -24.5 48.5t-61 26t-79.5 18t-79.5 24.5t-61 45.5t-24.5 82.5q0 28 12 54t36 46.5t59.5 32.5t82.5 12q37 0 72.5 -8t63.5 -25t46.5 -45t22.5 -67h-80
q-8 34 -40 54.5t-85 20.5q-57 0 -86 -20.5t-29 -54.5t24.5 -51.5t61 -28t79.5 -19t79.5 -24.5t61 -44t24.5 -78q0 -32 -13 -59.5t-39 -47.5t-64 -31.5t-89 -11.5zM270 745h65l130 -145h-80l-80 90h-5l-80 -90h-80z" />
    <glyph glyph-name="Scedilla" unicode="&#x15e;" 
d="M245 -155h50q40 0 40 40q0 15 -10.5 25t-29.5 10h-40v35l16 37q-42 4 -78.5 18.5t-64 39t-45.5 59.5t-23 81h85q11 -64 56 -94.5t109 -30.5q43 0 71 11t44.5 29t23 40t6.5 45q0 34 -16 55t-42.5 34.5t-60 22.5t-69 19t-69 23.5t-60 35.5t-42.5 55.5t-16 84.5
q0 39 14.5 74t43 60.5t69 40.5t93.5 15q43 0 81.5 -10t68.5 -31.5t49.5 -55.5t25.5 -83h-85q-8 49 -45.5 77t-94.5 28q-68 0 -101.5 -33t-33.5 -82q0 -36 16 -58.5t42.5 -37t60 -24t69 -19.5t69 -22.5t60 -34t42.5 -53.5t16 -81q0 -38 -13 -72.5t-39 -61.5t-65.5 -45
t-91.5 -21l-11 -25q34 -4 54.5 -27t20.5 -53q0 -42 -26 -66t-64 -24h-60v50z" />
    <glyph glyph-name="scedilla" unicode="&#x15f;" 
d="M250 -155h50q40 0 40 40q0 15 -10.5 25t-29.5 10h-40v35l16 36q-76 7 -127.5 47t-58.5 112h80q8 -45 47 -67.5t88 -22.5q71 0 100.5 23t29.5 57q0 32 -24.5 48.5t-61 26t-79.5 18t-79.5 24.5t-61 45.5t-24.5 82.5q0 28 12 54t36 46.5t59.5 32.5t82.5 12q37 0 72.5 -8
t63.5 -25t46.5 -45t22.5 -67h-80q-8 34 -40 54.5t-85 20.5q-57 0 -86 -20.5t-29 -54.5t24.5 -51.5t61 -28t79.5 -19t79.5 -24.5t61 -44t24.5 -78q0 -60 -43.5 -101t-130.5 -48l-11 -26q34 -4 54.5 -27t20.5 -53q0 -42 -26 -66t-64 -24h-60v50z" />
    <glyph glyph-name="Scaron" unicode="&#x160;" 
d="M310 -10q-49 0 -92 12.5t-76 37t-54.5 62t-27.5 88.5h85q11 -64 56 -94.5t109 -30.5q43 0 71 11t44.5 29t23 40t6.5 45q0 34 -16 55t-42.5 34.5t-60 22.5t-69 19t-69 23.5t-60 35.5t-42.5 55.5t-16 84.5q0 39 14.5 74t43 60.5t69 40.5t93.5 15q43 0 81.5 -10t68.5 -31.5
t49.5 -55.5t25.5 -83h-85q-8 49 -45.5 77t-94.5 28q-68 0 -101.5 -33t-33.5 -82q0 -36 16 -58.5t42.5 -37t60 -24t69 -19.5t69 -22.5t60 -34t42.5 -53.5t16 -81q0 -39 -14 -75.5t-42.5 -64t-72 -44t-101.5 -16.5zM145 915h80l80 -90h5l80 90h80l-130 -145h-65z" />
    <glyph glyph-name="scaron" unicode="&#x161;" 
d="M305 -10q-43 0 -80.5 10t-66 30.5t-46.5 50.5t-22 69h80q8 -45 47 -67.5t88 -22.5q71 0 100.5 23t29.5 57q0 32 -24.5 48.5t-61 26t-79.5 18t-79.5 24.5t-61 45.5t-24.5 82.5q0 28 12 54t36 46.5t59.5 32.5t82.5 12q37 0 72.5 -8t63.5 -25t46.5 -45t22.5 -67h-80
q-8 34 -40 54.5t-85 20.5q-57 0 -86 -20.5t-29 -54.5t24.5 -51.5t61 -28t79.5 -19t79.5 -24.5t61 -44t24.5 -78q0 -32 -13 -59.5t-39 -47.5t-64 -31.5t-89 -11.5zM140 740h80l80 -90h5l80 90h80l-130 -145h-65z" />
    <glyph glyph-name="uni0162" unicode="&#x162;" 
d="M255 -155h50q40 0 40 40q0 15 -10.5 25t-29.5 10h-40v35l20 45h-25v625h-130v-120h-85v195h510v-195h-85v120h-125v-625l-15 -35q34 -4 54.5 -27t20.5 -53q0 -42 -26 -66t-64 -24h-60v50z" />
    <glyph glyph-name="uni0163" unicode="&#x163;" 
d="M295 -155h50q40 0 40 40q0 15 -10.5 25t-29.5 10h-40v35l17 39q-59 11 -93 51.5t-34 99.5v305h-130v70h130l10 140h65v-140h195v-70h-195v-300q0 -42 24 -66t66 -24t64 22t26 48h75q-4 -53 -41 -92.5t-103 -46.5l-11 -26q34 -4 54.5 -27t20.5 -53q0 -42 -26 -66t-64 -24
h-60v50z" />
    <glyph glyph-name="Tcaron" unicode="&#x164;" 
d="M260 625h-130v-120h-85v195h510v-195h-85v120h-125v-625h-85v625zM140 915h80l80 -90h5l80 90h80l-130 -145h-65z" />
    <glyph glyph-name="tcaron" unicode="&#x165;" 
d="M360 -10q-38 0 -68 11.5t-52 32t-33.5 49t-11.5 62.5v305h-130v70h130l10 140h65v-140h195v-70h-195v-300q0 -42 24 -66t66 -24t64 22t26 48h75q-2 -28 -14 -53.5t-33 -44.5t-51 -30.5t-67 -11.5z" />
    <glyph glyph-name="Tbar" unicode="&#x166;" 
d="M260 415h-170v75h170v135h-215v75h510v-75h-210v-135h170v-75h-170v-415h-85v415z" />
    <glyph glyph-name="tbar" unicode="&#x167;" 
d="M360 -10q-38 0 -68 11.5t-52 32t-33.5 49t-11.5 62.5v135h-129v70h129v100h-130v70h130l10 140h65v-140h195v-70h-195v-100h196v-70h-196v-130q0 -42 24 -66t66 -24t64 22t26 48h75q-2 -28 -14 -53.5t-33 -44.5t-51 -30.5t-67 -11.5z" />
    <glyph glyph-name="Umacron" unicode="&#x16a;" 
d="M300 -10q-105 0 -165 65.5t-60 204.5v440h85v-440q0 -105 38 -150t102 -45t102 45t38 150v440h85v-440q0 -139 -60 -204.5t-165 -65.5zM160 875h280v-65h-280v65z" />
    <glyph glyph-name="umacron" unicode="&#x16b;" 
d="M285 -10q-39 0 -73 14.5t-59 41.5t-39 66t-14 88v320h75v-320q0 -68 33.5 -104t86.5 -36q28 0 52 11.5t41 30.5t27 44.5t10 53.5v320h75v-520h-60l-10 70h-5q-26 -45 -64 -62.5t-76 -17.5zM160 705h280v-65h-280v65z" />
    <glyph glyph-name="Ubreve" unicode="&#x16c;" 
d="M300 -10q-105 0 -165 65.5t-60 204.5v440h85v-440q0 -105 38 -150t102 -45t102 45t38 150v440h85v-440q0 -139 -60 -204.5t-165 -65.5zM300 770q-28 0 -53.5 7t-46 22.5t-33.5 40t-17 60.5h70q4 -38 27 -54t53 -16t53 16t27 54h70q-4 -36 -17 -60.5t-33.5 -40t-46 -22.5
t-53.5 -7z" />
    <glyph glyph-name="ubreve" unicode="&#x16d;" 
d="M285 -10q-39 0 -73 14.5t-59 41.5t-39 66t-14 88v320h75v-320q0 -68 33.5 -104t86.5 -36q28 0 52 11.5t41 30.5t27 44.5t10 53.5v320h75v-520h-60l-10 70h-5q-26 -45 -64 -62.5t-76 -17.5zM300 600q-28 0 -53.5 7t-46 22.5t-33.5 40t-17 60.5h70q4 -38 27 -54t53 -16
t53 16t27 54h70q-4 -36 -17 -60.5t-33.5 -40t-46 -22.5t-53.5 -7z" />
    <glyph glyph-name="Uring" unicode="&#x16e;" 
d="M300 -10q-105 0 -165 65.5t-60 204.5v440h85v-440q0 -105 38 -150t102 -45t102 45t38 150v440h85v-440q0 -139 -60 -204.5t-165 -65.5zM300 755q-42 0 -69.5 26.5t-27.5 70.5t27 71t70 27q44 0 71 -27t27 -71t-28 -70.5t-70 -26.5zM300 805q23 0 35.5 12.5t12.5 34.5
q0 21 -11.5 34.5t-36.5 13.5q-24 0 -35.5 -13.5t-11.5 -34.5q0 -22 12 -34.5t35 -12.5z" />
    <glyph glyph-name="uring" unicode="&#x16f;" 
d="M285 -10q-39 0 -73 14.5t-59 41.5t-39 66t-14 88v320h75v-320q0 -68 33.5 -104t86.5 -36q28 0 52 11.5t41 30.5t27 44.5t10 53.5v320h75v-520h-60l-10 70h-5q-26 -45 -64 -62.5t-76 -17.5zM302 585q-42 0 -69.5 26.5t-27.5 70.5t27 71t70 27q44 0 71 -27t27 -71
t-28 -70.5t-70 -26.5zM302 635q23 0 35.5 12.5t12.5 34.5q0 21 -11.5 34.5t-36.5 13.5q-24 0 -35.5 -13.5t-11.5 -34.5q0 -22 12 -34.5t35 -12.5z" />
    <glyph glyph-name="Uhungarumlaut" unicode="&#x170;" 
d="M300 -10q-105 0 -165 65.5t-60 204.5v440h85v-440q0 -105 38 -150t102 -45t102 45t38 150v440h85v-440q0 -139 -60 -204.5t-165 -65.5zM270 910h95l-115 -140h-70zM430 910h95l-115 -140h-70z" />
    <glyph glyph-name="uhungarumlaut" unicode="&#x171;" 
d="M285 -10q-39 0 -73 14.5t-59 41.5t-39 66t-14 88v320h75v-320q0 -68 33.5 -104t86.5 -36q28 0 52 11.5t41 30.5t27 44.5t10 53.5v320h75v-520h-60l-10 70h-5q-26 -45 -64 -62.5t-76 -17.5zM270 740h95l-115 -140h-70zM430 740h95l-115 -140h-70z" />
    <glyph glyph-name="Uogonek" unicode="&#x172;" 
d="M320 -190q-53 0 -79 24t-26 66q0 34 16 57t38 35q-92 8 -143 73.5t-51 194.5v440h85v-440q0 -105 38 -150t102 -45t102 45t38 150v440h85v-440q0 -125 -48.5 -190.5t-135.5 -76.5q-34 -19 -50 -37.5t-16 -50.5q0 -17 14.5 -28.5t40.5 -11.5h25v-55h-35v0z" />
    <glyph glyph-name="uogonek" unicode="&#x173;" 
d="M465 -190q-53 0 -79 24t-26 66q0 22 8 40t20 30.5t26 20t26 9.5l-10 70h-5q-26 -45 -64 -62.5t-76 -17.5q-39 0 -73 14.5t-59 41.5t-39 66t-14 88v320h75v-320q0 -68 33.5 -104t86.5 -36q28 0 52 11.5t41 30.5t27 44.5t10 53.5v320h75v-520q-42 -22 -61 -41.5t-19 -53.5
q0 -17 14.5 -28.5t40.5 -11.5h25v-55h-35v0z" />
    <glyph glyph-name="Wcircumflex" unicode="&#x174;" 
d="M35 700h85l40 -380v-205h10l21 125l49 280h120l49 -281l21 -124h10v204l40 381h85l-80 -700h-110l-72 435h-5l-73 -435h-110zM265 915h65l130 -145h-80l-80 90h-5l-80 -90h-80z" />
    <glyph glyph-name="wcircumflex" unicode="&#x175;" 
d="M25 520h75l59 -360l-4 -80h10l21 78l69 252h90l69 -252l21 -78h10l-4 80l59 360h75l-90 -520h-95l-85 315h-10l-85 -315h-95zM270 745h65l130 -145h-80l-80 90h-5l-80 -90h-80z" />
    <glyph glyph-name="Ycircumflex" unicode="&#x176;" 
d="M255 270l-215 430h90l137 -290l25 -80h10l27 80l136 290h90l-215 -430v-270h-85v270zM270 915h65l130 -145h-80l-80 90h-5l-80 -90h-80z" />
    <glyph glyph-name="ycircumflex" unicode="&#x177;" 
d="M260 0l-210 520h80l165 -415h5l165 415h80l-285 -720h-80zM265 745h65l130 -145h-80l-80 90h-5l-80 -90h-80z" />
    <glyph glyph-name="Ydieresis" unicode="&#x178;" 
d="M255 270l-215 430h90l137 -290l25 -80h10l27 80l136 290h90l-215 -430v-270h-85v270zM212 780q-22 0 -37 15t-15 37t14.5 37.5t37.5 15.5q22 0 37 -15.5t15 -37.5q0 -21 -15 -36.5t-37 -15.5zM388 780q-22 0 -37.5 15t-15.5 37t15 37.5t38 15.5q22 0 37 -15.5t15 -37.5
q0 -21 -15 -36.5t-37 -15.5z" />
    <glyph glyph-name="Zacute" unicode="&#x179;" 
d="M60 60l370 565h-360v75h465v-60l-370 -565h375v-75h-480v60zM355 910h95l-115 -140h-70z" />
    <glyph glyph-name="zacute" unicode="&#x17a;" 
d="M100 60l300 390h-290v70h385v-60l-300 -390h305v-70h-400v60zM355 740h95l-115 -140h-70z" />
    <glyph glyph-name="Zdotaccent" unicode="&#x17b;" 
d="M60 60l370 565h-360v75h465v-60l-370 -565h375v-75h-480v60zM303 780q-22 0 -37.5 15t-15.5 37t15 37.5t38 15.5q22 0 37 -15.5t15 -37.5q0 -21 -15 -36.5t-37 -15.5z" />
    <glyph glyph-name="zdotaccent" unicode="&#x17c;" 
d="M100 60l300 390h-290v70h385v-60l-300 -390h305v-70h-400v60zM303 610q-22 0 -37.5 15t-15.5 37t15 37.5t38 15.5q22 0 37 -15.5t15 -37.5q0 -21 -15 -36.5t-37 -15.5z" />
    <glyph glyph-name="Zcaron" unicode="&#x17d;" 
d="M60 60l370 565h-360v75h465v-60l-370 -565h375v-75h-480v60zM140 910h80l80 -90h5l80 90h80l-130 -145h-65z" />
    <glyph glyph-name="zcaron" unicode="&#x17e;" 
d="M100 60l300 390h-290v70h385v-60l-300 -390h305v-70h-400v60zM140 740h80l80 -90h5l80 90h80l-130 -145h-65z" />
    <glyph glyph-name="uni018F" unicode="&#x18f;" 
d="M300 -10q-54 0 -101 21t-81 65t-53.5 112t-19.5 162v30h425q-3 70 -17 118.5t-37 79t-52.5 44t-63.5 13.5q-45 0 -81.5 -24t-60.5 -81h-88q30 94 90.5 137t139.5 43q54 0 101 -21t81 -65t53.5 -112t19.5 -162t-19.5 -162t-53.5 -112t-81 -65t-101 -21zM300 65
q33 0 62.5 12.5t52 41t37 74.5t18.5 112h-340q4 -66 18.5 -112t37 -74.5t52 -41t62.5 -12.5z" />
    <glyph glyph-name="florin" unicode="&#x192;" 
d="M46 -105h60q26 0 41 11.5t21 38.5l96 420h-110l16 75h110l38 151q13 60 46 84.5t86 24.5h70l-16 -75h-55q-23 0 -38.5 -11t-21.5 -39l-34 -135h110l-16 -75h-110l-100 -436q-14 -61 -46.5 -85t-85.5 -24h-77z" />
    <glyph glyph-name="Gacute" unicode="&#x1f4;" 
d="M300 -10q-54 0 -101 21t-81 65t-53.5 112t-19.5 162t19.5 162t53.5 112t81 65t101 21q91 0 150 -50.5t86 -144.5h-85q-20 57 -57 88.5t-94 31.5q-36 0 -67 -15t-54 -49t-36 -88t-13 -133t13 -133.5t36 -88t54 -48.5t67 -15q75 0 116.5 58.5t50.5 156.5h-147v75h235v-25
q-2 -68 -16.5 -129.5t-45 -108t-78.5 -74.5t-115 -28zM350 910h95l-115 -140h-70z" />
    <glyph glyph-name="gacute" unicode="&#x1f5;" 
d="M290 -200q-36 0 -69.5 9.5t-61.5 28.5t-49 48.5t-30 68.5h80q15 -42 51.5 -63.5t78.5 -21.5q60 0 97.5 38t37.5 102v90h-5q-26 -34 -63 -52t-82 -18q-43 0 -80.5 16.5t-65 48.5t-43.5 78.5t-16 106.5t16 106.5t43.5 78.5t65 48.5t80.5 16.5q45 0 84.5 -20.5t65.5 -54.5h5
l10 65h60v-510q0 -98 -56 -154t-154 -56zM285 100q28 0 53.5 12t44.5 35t30.5 56.5t11.5 76.5t-11.5 76.5t-30.5 56.5t-44.5 35t-53.5 12t-53.5 -12t-44.5 -35t-30.5 -56.5t-11.5 -76.5t11.5 -76.5t30.5 -56.5t44.5 -35t53.5 -12zM340 740h95l-115 -140h-70z" />
    <glyph glyph-name="Aringacute" unicode="&#x1fa;" 
d="M300 735q-42 0 -69.5 26.5t-27.5 70.5q0 41 24 67t62 30l22 56h80l-45 -65q24 -11 38 -34t14 -54q0 -44 -28 -70.5t-70 -26.5zM300 785q23 0 35.5 12.5t12.5 34.5q0 21 -11.5 34.5t-36.5 13.5q-24 0 -35.5 -13.5t-11.5 -34.5q0 -22 12 -34.5t35 -12.5zM255 700h90
l225 -700h-85l-57 175h-256l-57 -175h-85zM405 250l-84 265l-16 100h-10l-16 -100l-84 -265h210z" />
    <glyph glyph-name="aringacute" unicode="&#x1fb;" 
d="M317 565q-42 0 -69.5 26.5t-27.5 70.5q0 41 24 67t62 30l22 56h80l-45 -65q24 -11 38 -34t14 -54q0 -44 -28 -70.5t-70 -26.5zM317 615q23 0 35.5 12.5t12.5 34.5q0 21 -11.5 34.5t-36.5 13.5q-24 0 -35.5 -13.5t-11.5 -34.5q0 -22 12 -34.5t35 -12.5zM275 -10
q-38 0 -69 12.5t-53.5 34t-35 50.5t-12.5 63t12.5 63t36.5 50.5t58.5 34t77.5 12.5h135v35q0 53 -31 84t-84 31q-38 0 -68.5 -17t-41.5 -58h-80q6 36 23 63t42 45t57 27.5t68 9.5q43 0 78 -13.5t60 -37.5t38.5 -58t13.5 -76v-345h-60l-10 65h-5q-8 -11 -21 -24.5
t-31.5 -24.5t-43 -18.5t-54.5 -7.5zM285 60q30 0 55.5 10.5t44.5 30t29.5 46t10.5 58.5v35h-135q-57 0 -83.5 -24t-26.5 -66t26 -66t79 -24z" />
    <glyph glyph-name="AEacute" unicode="&#x1fc;" 
d="M195 700h370v-75h-205v-235h185v-75h-185v-240h215v-75h-300v160h-135l-40 -160h-85zM275 235v390h-15l-100 -390h115zM372 910h95l-115 -140h-70z" />
    <glyph glyph-name="aeacute" unicode="&#x1fd;" 
d="M165 -10q-64 0 -104.5 42.5t-40.5 117.5q0 72 42.5 113.5t117.5 41.5h80v40q0 64 -20.5 89.5t-54.5 25.5t-50 -22.5t-20 -52.5h-80q6 39 19.5 67t33 45t44.5 25t53 8q38 0 71.5 -19t48.5 -61q11 30 43 55t82 25q34 0 62.5 -13t49 -41.5t32 -74t11.5 -111.5q0 -11 -1 -20
t-2 -16q-1 -8 -2 -14h-240q0 -49 6 -83t17.5 -55.5t27 -31.5t34.5 -10q23 0 40 16.5t25 58.5h80q-15 -79 -53 -112t-87 -33q-53 0 -81.5 24t-43.5 66q-19 -42 -51 -66t-89 -24zM170 60q19 0 35.5 8t28.5 25t19 45t7 67v30h-80q-85 0 -85 -85q0 -45 20.5 -67.5t54.5 -22.5z
M510 305q-2 52 -10.5 83t-21 47t-26.5 20.5t-27 4.5t-27.5 -4.5t-26.5 -20.5t-20.5 -47t-10.5 -83h170zM355 740h95l-115 -140h-70z" />
    <glyph glyph-name="Oslashacute" unicode="&#x1fe;" 
d="M110 88q-31 45 -48 109.5t-17 152.5q0 94 19.5 162t53.5 112t81 65t101 21q80 0 140 -45l35 60h80l-65 -113q30 -45 47.5 -109.5t17.5 -152.5q0 -94 -19.5 -162t-53.5 -112t-81 -65t-101 -21q-40 0 -75.5 11t-65.5 34l-34 -60h-80zM300 60q36 0 67.5 16t55.5 50.5
t38 89.5t14 134q0 59 -8 104t-22 79l-248 -432q22 -22 48 -31.5t55 -9.5zM402 598q-22 22 -47.5 32t-54.5 10q-36 0 -67.5 -16t-55.5 -50.5t-38 -89.5t-14 -134q0 -60 8 -105t22 -79zM355 910h95l-115 -140h-70z" />
    <glyph glyph-name="oslashacute" unicode="&#x1ff;" 
d="M134 64q-30 35 -47 84t-17 112q0 64 17.5 114t48.5 84.5t73 53t91 18.5q32 0 60 -8t54 -22l26 40h80l-54 -84q30 -35 47 -84t17 -112q0 -64 -17.5 -114t-48.5 -84.5t-73 -53t-91 -18.5q-65 0 -114 30l-26 -40h-80zM378 444q-35 21 -78 21q-34 0 -63 -13t-50.5 -39
t-34 -64t-12.5 -89q0 -43 8.5 -76.5t24.5 -58.5zM300 55q34 0 63 13t50.5 39t34 64t12.5 89q0 82 -33 135l-205 -319q34 -21 78 -21zM355 740h95l-115 -140h-70z" />
    <glyph glyph-name="Scommaaccent" unicode="&#x218;" 
d="M310 -10q-49 0 -92 12.5t-76 37t-54.5 62t-27.5 88.5h85q11 -64 56 -94.5t109 -30.5q43 0 71 11t44.5 29t23 40t6.5 45q0 34 -16 55t-42.5 34.5t-60 22.5t-69 19t-69 23.5t-60 35.5t-42.5 55.5t-16 84.5q0 39 14.5 74t43 60.5t69 40.5t93.5 15q43 0 81.5 -10t68.5 -31.5
t49.5 -55.5t25.5 -83h-85q-8 49 -45.5 77t-94.5 28q-68 0 -101.5 -33t-33.5 -82q0 -36 16 -58.5t42.5 -37t60 -24t69 -19.5t69 -22.5t60 -34t42.5 -53.5t16 -81q0 -39 -14 -75.5t-42.5 -64t-72 -44t-101.5 -16.5zM260 -85h85l-70 -160h-60z" />
    <glyph glyph-name="scommaaccent" unicode="&#x219;" 
d="M305 -10q-43 0 -80.5 10t-66 30.5t-46.5 50.5t-22 69h80q8 -45 47 -67.5t88 -22.5q71 0 100.5 23t29.5 57q0 32 -24.5 48.5t-61 26t-79.5 18t-79.5 24.5t-61 45.5t-24.5 82.5q0 28 12 54t36 46.5t59.5 32.5t82.5 12q37 0 72.5 -8t63.5 -25t46.5 -45t22.5 -67h-80
q-8 34 -40 54.5t-85 20.5q-57 0 -86 -20.5t-29 -54.5t24.5 -51.5t61 -28t79.5 -19t79.5 -24.5t61 -44t24.5 -78q0 -32 -13 -59.5t-39 -47.5t-64 -31.5t-89 -11.5zM260 -85h85l-70 -160h-60z" />
    <glyph glyph-name="uni021A" unicode="&#x21a;" 
d="M260 625h-130v-120h-85v195h510v-195h-85v120h-125v-625h-85v625zM260 -85h85l-70 -160h-60z" />
    <glyph glyph-name="uni021B" unicode="&#x21b;" 
d="M360 -10q-38 0 -68 11.5t-52 32t-33.5 49t-11.5 62.5v305h-130v70h130l10 140h65v-140h195v-70h-195v-300q0 -42 24 -66t66 -24t64 22t26 48h75q-2 -28 -14 -53.5t-33 -44.5t-51 -30.5t-67 -11.5zM260 -85h85l-70 -160h-60z" />
    <glyph glyph-name="uni0232" unicode="&#x232;" 
d="M255 270l-215 430h90l137 -290l25 -80h10l27 80l136 290h90l-215 -430v-270h-85v270zM155 875h280v-65h-280v65z" />
    <glyph glyph-name="uni0233" unicode="&#x233;" 
d="M260 0l-210 520h80l165 -415h5l165 415h80l-285 -720h-80zM155 705h280v-65h-280v65z" />
    <glyph glyph-name="uni0244" unicode="&#x244;" 
d="M300 -10q-105 0 -165 65.5t-60 204.5v175h-45v75h45v190h85v-190h280v190h85v-190h45v-75h-45v-175q0 -139 -60 -204.5t-165 -65.5zM300 65q64 0 102 45t38 150v175h-280v-175q0 -105 38 -150t102 -45z" />
    <glyph glyph-name="uni0259" unicode="&#x259;" 
d="M300 -10q-49 0 -91 18t-73 49.5t-48.5 75.5t-17.5 97q0 11 0.5 20t1.5 16q1 8 3 14h380q-4 83 -45.5 131.5t-109.5 48.5q-42 0 -74.5 -20.5t-53.5 -54.5h-80q25 68 80.5 106.5t127.5 38.5q51 0 93 -18.5t72.5 -53t47.5 -84.5t17 -114t-17.5 -114t-48.5 -84.5t-73 -53
t-91 -18.5zM300 60q32 0 58.5 11.5t47 32t33 49t16.5 62.5h-310q4 -34 16.5 -62.5t33 -49t47 -32t58.5 -11.5z" />
    <glyph glyph-name="uni0289" unicode="&#x289;" 
d="M285 -10q-39 0 -73 14.5t-59 41.5t-39 66t-14 88v165h-60v70h60v85h75v-85h250v85h75v-85h60v-70h-60v-365h-60l-10 70h-5q-26 -45 -64 -62.5t-76 -17.5zM295 60q28 0 52 11.5t41 30.5t27 44.5t10 53.5v165h-250v-165q0 -68 33.5 -104t86.5 -36z" />
    <glyph glyph-name="uni02B9" unicode="&#x2b9;" 
d="M290 700h95l-90 -220h-65z" />
    <glyph glyph-name="uni02BA" unicode="&#x2ba;" 
d="M220 700h95l-90 -220h-65zM365 700h95l-90 -220h-65z" />
    <glyph glyph-name="uni02BC" unicode="&#x2bc;" 
d="M282 700h80l-70 -160h-55z" />
    <glyph glyph-name="circumflex" unicode="&#x2c6;" 
d="M267 745h65l130 -145h-80l-80 90h-5l-80 -90h-80z" />
    <glyph glyph-name="caron" unicode="&#x2c7;" 
d="M137 740h80l80 -90h5l80 90h80l-130 -145h-65z" />
    <glyph glyph-name="breve" unicode="&#x2d8;" 
d="M300 600q-28 0 -53.5 7t-46 22.5t-33.5 40t-17 60.5h70q4 -38 27 -54t53 -16t53 16t27 54h70q-4 -36 -17 -60.5t-33.5 -40t-46 -22.5t-53.5 -7z" />
    <glyph glyph-name="dotaccent" unicode="&#x2d9;" 
d="M300 610q-22 0 -37.5 15t-15.5 37t15 37.5t38 15.5q22 0 37 -15.5t15 -37.5q0 -21 -15 -36.5t-37 -15.5z" />
    <glyph glyph-name="ring" unicode="&#x2da;" 
d="M299 585q-42 0 -69.5 26.5t-27.5 70.5t27 71t70 27q44 0 71 -27t27 -71t-28 -70.5t-70 -26.5zM299 635q23 0 35.5 12.5t12.5 34.5q0 21 -11.5 34.5t-36.5 13.5q-24 0 -35.5 -13.5t-11.5 -34.5q0 -22 12 -34.5t35 -12.5z" />
    <glyph glyph-name="ogonek" unicode="&#x2db;" 
d="M335 -190q-53 0 -79 24t-26 66q0 21 7 37.5t17.5 29t24 20.5t26.5 13v10h65v-10q-42 -22 -61 -41.5t-19 -53.5q0 -17 14.5 -28.5t40.5 -11.5h25v-55h-35v0z" />
    <glyph glyph-name="tilde" unicode="&#x2dc;" 
d="M365 610q-21 0 -38 8t-31.5 17t-27 17t-23.5 8q-15 0 -22.5 -13t-7.5 -32h-70q0 45 22.5 75t67.5 30q21 0 38 -8t31.5 -17t27 -17t23.5 -8q15 0 22.5 13t7.5 32h70q0 -45 -22.5 -75t-67.5 -30z" />
    <glyph glyph-name="hungarumlaut" unicode="&#x2dd;" 
d="M217 740h95l-115 -140h-70zM377 740h95l-115 -140h-70z" />
    <glyph glyph-name="acutecomb" unicode="&#x301;" horiz-adv-x="0" 
d="M-244 910h95l-115 -140h-70z" />
    <glyph glyph-name="uni0302" unicode="&#x302;" horiz-adv-x="0" 
d="M-335 915h65l130 -145h-80l-80 90h-5l-80 -90h-80z" />
    <glyph glyph-name="uni0304" unicode="&#x304;" horiz-adv-x="0" 
d="M-440 875h280v-65h-280v65z" />
    <glyph glyph-name="uni0306" unicode="&#x306;" horiz-adv-x="0" 
d="M-300 770q-28 0 -53.5 7t-46 22.5t-33.5 40t-17 60.5h70q4 -38 27 -54t53 -16t53 16t27 54h70q-4 -36 -17 -60.5t-33.5 -40t-46 -22.5t-53.5 -7z" />
    <glyph glyph-name="uni0307" unicode="&#x307;" horiz-adv-x="0" 
d="M-292 780q-22 0 -37.5 15t-15.5 37t15 37.5t38 15.5q22 0 37 -15.5t15 -37.5q0 -21 -15 -36.5t-37 -15.5z" />
    <glyph glyph-name="uni0308" unicode="&#x308;" horiz-adv-x="0" 
d="M-385 780q-22 0 -37 15t-15 37t14.5 37.5t37.5 15.5q22 0 37 -15.5t15 -37.5q0 -21 -15 -36.5t-37 -15.5zM-209 780q-22 0 -37.5 15t-15.5 37t15 37.5t38 15.5q22 0 37 -15.5t15 -37.5q0 -21 -15 -36.5t-37 -15.5z" />
    <glyph glyph-name="uni030A" unicode="&#x30a;" horiz-adv-x="0" 
d="M-303 755q-42 0 -69.5 26.5t-27.5 70.5t27 71t70 27q44 0 71 -27t27 -71t-28 -70.5t-70 -26.5zM-303 805q23 0 35.5 12.5t12.5 34.5q0 21 -11.5 34.5t-36.5 13.5q-24 0 -35.5 -13.5t-11.5 -34.5q0 -22 12 -34.5t35 -12.5z" />
    <glyph glyph-name="uni030C" unicode="&#x30c;" horiz-adv-x="0" 
d="M-465 910h80l80 -90h5l80 90h80l-130 -145h-65z" />
    <glyph glyph-name="uni0326" unicode="&#x326;" 
d="M280 -85h85l-70 -160h-60z" />
    <glyph glyph-name="uni0400" unicode="&#x400;" 
d="M85 700h420v-75h-335v-235h315v-75h-315v-240h345v-75h-430v700zM145 910h95l90 -140h-70z" />
    <glyph glyph-name="uni0401" unicode="&#x401;" 
d="M85 700h420v-75h-335v-235h315v-75h-315v-240h345v-75h-430v700zM204 780q-22 0 -37 15t-15 37t14.5 37.5t37.5 15.5q22 0 37 -15.5t15 -37.5q0 -21 -15 -36.5t-37 -15.5zM380 780q-22 0 -37.5 15t-15.5 37t15 37.5t38 15.5q22 0 37 -15.5t15 -37.5q0 -21 -15 -36.5
t-37 -15.5z" />
    <glyph glyph-name="uni0402" unicode="&#x402;" 
d="M145 625h-150v75h385v-75h-150v-211q9 6 23.5 11.5t31 10t33.5 7t32 2.5q47 0 85.5 -15.5t66.5 -44.5t43 -71t15 -94q0 -49 -16 -89.5t-43.5 -69.5t-65 -45t-80.5 -16h-60v75h50q57 0 93.5 38.5t36.5 106.5q0 75 -35 112.5t-95 37.5q-38 0 -67 -9.5t-48 -22.5v-338h-85
v625z" />
    <glyph glyph-name="uni0403" unicode="&#x403;" 
d="M105 700h440v-165h-85v90h-270v-625h-85v700zM380 910h95l-115 -140h-70z" />
    <glyph glyph-name="uni0404" unicode="&#x404;" 
d="M300 -10q-54 0 -101 21t-81 65t-53.5 112t-19.5 162t19.5 162t53.5 112t81 65t101 21q91 0 150 -50.5t86 -144.5h-85q-20 57 -57 88.5t-94 31.5q-33 0 -62.5 -13t-52 -42.5t-37.5 -76t-18 -113.5h250v-75h-250q3 -69 17.5 -116.5t37 -77.5t52.5 -43t63 -13q57 0 99 36
t61 119h85q-26 -120 -90.5 -175t-154.5 -55z" />
    <glyph glyph-name="uni0405" unicode="&#x405;" 
d="M310 -10q-49 0 -92 12.5t-76 37t-54.5 62t-27.5 88.5h85q11 -64 56 -94.5t109 -30.5q43 0 71 11t44.5 29t23 40t6.5 45q0 34 -16 55t-42.5 34.5t-60 22.5t-69 19t-69 23.5t-60 35.5t-42.5 55.5t-16 84.5q0 39 14.5 74t43 60.5t69 40.5t93.5 15q43 0 81.5 -10t68.5 -31.5
t49.5 -55.5t25.5 -83h-85q-8 49 -45.5 77t-94.5 28q-68 0 -101.5 -33t-33.5 -82q0 -36 16 -58.5t42.5 -37t60 -24t69 -19.5t69 -22.5t60 -34t42.5 -53.5t16 -81q0 -39 -14 -75.5t-42.5 -64t-72 -44t-101.5 -16.5z" />
    <glyph glyph-name="uni0406" unicode="&#x406;" 
d="M110 75h150v550h-150v75h385v-75h-150v-550h150v-75h-385v75z" />
    <glyph glyph-name="uni0407" unicode="&#x407;" 
d="M110 75h150v550h-150v75h385v-75h-150v-550h150v-75h-385v75zM212 780q-22 0 -37 15t-15 37t14.5 37.5t37.5 15.5q22 0 37 -15.5t15 -37.5q0 -21 -15 -36.5t-37 -15.5zM388 780q-22 0 -37.5 15t-15.5 37t15 37.5t38 15.5q22 0 37 -15.5t15 -37.5q0 -21 -15 -36.5
t-37 -15.5z" />
    <glyph glyph-name="uni0408" unicode="&#x408;" 
d="M275 -10q-90 0 -149.5 50t-70.5 155h85q8 -63 45 -96.5t90 -33.5q60 0 100 44t40 131v385h-250v75h335v-460q0 -124 -60 -187t-165 -63z" />
    <glyph glyph-name="uni0409" unicode="&#x409;" 
d="M10 75h10q17 0 33 11.5t29 47t20.5 101.5t7.5 175v290h255v-270h25q43 0 79 -14.5t61.5 -42.5t40 -67.5t14.5 -90.5t-14.5 -90.5t-40 -67.5t-61.5 -42.5t-79 -14.5h-110v625h-85v-215q0 -107 -7.5 -185t-27.5 -129t-54 -76t-86 -25h-10v80zM385 75q53 0 84 34t31 106
t-31 106t-84 34h-20v-280h20z" />
    <glyph glyph-name="uni040A" unicode="&#x40a;" 
d="M70 700h85v-290h130v290h85v-290h20q91 0 143 -53.5t52 -151.5t-52 -151.5t-143 -53.5h-105v335h-130v-335h-85v700zM385 75q57 0 86 31t29 99t-29 99t-86 31h-15v-260h15z" />
    <glyph glyph-name="uni040B" unicode="&#x40b;" 
d="M145 625h-150v75h385v-75h-150v-211q26 15 61 23t69 8q97 0 148.5 -55t51.5 -175v-215h-85v215q0 83 -31.5 119t-88.5 36q-49 0 -77.5 -10t-47.5 -22v-338h-85v625z" />
    <glyph glyph-name="uni040C" unicode="&#x40c;" 
d="M90 700h85v-335l280 335h100l-290 -345l305 -355h-100l-295 345v-345h-85v700zM370 910h95l-115 -140h-70z" />
    <glyph glyph-name="uni040D" unicode="&#x40d;" 
d="M85 700h85v-440l-25 -170h10l61 157l174 453h125v-700h-85v439l25 171h-10l-61 -158l-174 -452h-125v700zM150 910h95l90 -140h-70z" />
    <glyph glyph-name="uni040E" unicode="&#x40e;" 
d="M260 205l-240 495h90l159 -336l31 -89h5l30 90l150 335h90l-320 -700h-90zM300 775q-28 0 -53.5 7t-46 22.5t-33.5 40t-17 60.5h70q4 -38 27 -54t53 -16t53 16t27 54h70q-4 -36 -17 -60.5t-33.5 -40t-46 -22.5t-53.5 -7z" />
    <glyph glyph-name="uni040F" unicode="&#x40f;" 
d="M260 0h-175v700h85v-625h260v625h85v-700h-175v-145h-80v145z" />
    <glyph glyph-name="uni0410" unicode="&#x410;" 
d="M255 700h90l225 -700h-85l-57 175h-256l-57 -175h-85zM405 250l-84 265l-16 100h-10l-16 -100l-84 -265h210z" />
    <glyph glyph-name="uni0411" unicode="&#x411;" 
d="M85 700h415v-75h-330v-205h160q51 0 91.5 -15t69 -43t44 -66.5t15.5 -85.5t-15.5 -85.5t-44 -66.5t-69 -43t-91.5 -15h-245v700zM325 75q34 0 60 10.5t44 29t27 43t9 52.5q0 60 -38 97.5t-102 37.5h-155v-270h155z" />
    <glyph glyph-name="uni0412" unicode="&#x412;" 
d="M85 700h245q98 0 151.5 -52t53.5 -143q0 -49 -24 -90t-66 -60q42 -15 71 -59t29 -101q0 -91 -53.5 -143t-151.5 -52h-255v700zM335 75q57 0 91 33.5t34 86.5t-34 86.5t-91 33.5h-165v-240h165zM325 385q57 0 91 33.5t34 86.5t-34 86.5t-91 33.5h-155v-240h155z" />
    <glyph glyph-name="uni0413" unicode="&#x413;" 
d="M105 700h440v-165h-85v90h-270v-625h-85v700z" />
    <glyph glyph-name="uni0414" unicode="&#x414;" 
d="M20 75h50q38 64 51.5 145t13.5 190v290h380v-625h50v-220h-75v145h-395v-145h-75v220zM430 75v550h-210v-215q0 -109 -13.5 -190t-51.5 -145h275z" />
    <glyph glyph-name="uni0415" unicode="&#x415;" 
d="M85 700h420v-75h-335v-235h315v-75h-315v-240h345v-75h-430v700z" />
    <glyph glyph-name="uni0416" unicode="&#x416;" 
d="M170 355l-145 345h100l96 -250l34 -85h15l-10 65v270h80v-270l-10 -65h15l34 85l96 250h100l-145 -345l160 -355h-100l-114 270l-31 75h-15l10 -65v-280h-80v280l10 65h-15l-31 -75l-114 -270h-100z" />
    <glyph glyph-name="uni0417" unicode="&#x417;" 
d="M290 -10q-45 0 -85 13t-71.5 37.5t-52 61t-26.5 83.5h85q4 -26 17 -48t33.5 -38t46 -25t53.5 -9q79 0 117 34t38 91q0 28 -8 51t-26.5 39.5t-48 25.5t-72.5 9h-30v70h30q72 0 108.5 34t36.5 91t-36.5 91t-108.5 34q-57 0 -94.5 -30t-45.5 -90h-85q6 49 25.5 85.5t49.5 61
t68.5 36.5t81.5 12q56 0 99 -14.5t72 -40.5t44 -63t15 -82q0 -64 -30 -102t-75 -53q24 -8 45 -23t36.5 -37t24.5 -48.5t9 -56.5q0 -43 -15.5 -79.5t-46 -63.5t-75.5 -42t-103 -15z" />
    <glyph glyph-name="uni0418" unicode="&#x418;" 
d="M85 700h85v-440l-25 -170h10l61 157l174 453h125v-700h-85v439l25 171h-10l-61 -158l-174 -452h-125v700z" />
    <glyph glyph-name="uni0419" unicode="&#x419;" 
d="M85 700h85v-440l-25 -170h10l61 157l174 453h125v-700h-85v439l25 171h-10l-61 -158l-174 -452h-125v700zM300 775q-28 0 -53.5 7t-46 22.5t-33.5 40t-17 60.5h70q4 -38 27 -54t53 -16t53 16t27 54h70q-4 -36 -17 -60.5t-33.5 -40t-46 -22.5t-53.5 -7z" />
    <glyph glyph-name="uni041A" unicode="&#x41a;" 
d="M90 700h85v-335l280 335h100l-290 -345l305 -355h-100l-295 345v-345h-85v700z" />
    <glyph glyph-name="uni041B" unicode="&#x41b;" 
d="M30 75h20q22 0 39 16.5t28.5 55.5t17 103t5.5 160v290h375v-700h-85v625h-205v-215q0 -107 -7.5 -185t-27.5 -129t-54 -76t-86 -25h-20v80z" />
    <glyph glyph-name="uni041C" unicode="&#x41c;" 
d="M65 700h115l117 -325h5l118 325h115v-700h-85v420l20 175h-10l-32 -90l-96 -265h-65l-95 265l-32 90h-10l20 -175v-420h-85v700z" />
    <glyph glyph-name="uni041D" unicode="&#x41d;" 
d="M85 700h85v-310h260v310h85v-700h-85v315h-260v-315h-85v700z" />
    <glyph glyph-name="uni041E" unicode="&#x41e;" 
d="M300 -10q-54 0 -101 21t-81 65t-53.5 112t-19.5 162t19.5 162t53.5 112t81 65t101 21t101 -21t81 -65t53.5 -112t19.5 -162t-19.5 -162t-53.5 -112t-81 -65t-101 -21zM300 65q36 0 67 15t54 48.5t36 88t13 133.5t-13 133t-36 88t-54 49t-67 15t-67 -15t-54 -49t-36 -88
t-13 -133t13 -133.5t36 -88t54 -48.5t67 -15z" />
    <glyph glyph-name="uni041F" unicode="&#x41f;" 
d="M85 700h430v-700h-85v625h-260v-625h-85v700z" />
    <glyph glyph-name="uni0420" unicode="&#x420;" 
d="M85 700h235q52 0 94 -17t71 -46.5t44.5 -69.5t15.5 -87t-15.5 -87t-44.5 -69.5t-71 -46.5t-94 -17h-150v-260h-85v700zM315 335q68 0 106.5 38.5t38.5 106.5t-38.5 106.5t-106.5 38.5h-145v-290h145z" />
    <glyph glyph-name="uni0421" unicode="&#x421;" 
d="M300 -10q-54 0 -101 21t-81 65t-53.5 112t-19.5 162t19.5 162t53.5 112t81 65t101 21q91 0 150 -50.5t86 -144.5h-85q-20 57 -57 88.5t-94 31.5q-36 0 -67 -15t-54 -49t-36 -88t-13 -133t13 -133.5t36 -88t54 -48.5t67 -15q57 0 99 36t61 119h85q-26 -120 -90.5 -175
t-154.5 -55z" />
    <glyph glyph-name="uni0422" unicode="&#x422;" 
d="M260 625h-130v-120h-85v195h510v-195h-85v120h-125v-625h-85v625z" />
    <glyph glyph-name="uni0423" unicode="&#x423;" 
d="M260 205l-240 495h90l159 -336l31 -89h5l30 90l150 335h90l-320 -700h-90z" />
    <glyph glyph-name="uni0424" unicode="&#x424;" 
d="M260 80q-47 0 -88 18.5t-71.5 53.5t-48 86t-17.5 117t17.5 117t48 86t71.5 53.5t88 18.5v80h80v-80q47 0 88 -18.5t71.5 -53.5t48 -86t17.5 -117t-17.5 -117t-48 -86t-71.5 -53.5t-88 -18.5v-90h-80v90zM260 555q-26 0 -51.5 -13t-45 -38.5t-31.5 -62.5t-12 -86t12 -86
t31.5 -62.5t45 -38.5t51.5 -13v400zM340 155q26 0 51.5 13t45 38.5t31.5 62.5t12 86t-12 86t-31.5 62.5t-45 38.5t-51.5 13v-400z" />
    <glyph glyph-name="uni0425" unicode="&#x425;" 
d="M250 360l-210 340h95l130 -215l30 -70h10l30 70l130 215h95l-210 -340l220 -360h-95l-140 235l-30 70h-10l-30 -70l-140 -235h-95z" />
    <glyph glyph-name="uni0426" unicode="&#x426;" 
d="M500 0h-415v700h85v-625h270v625h85v-625h50v-220h-75v145z" />
    <glyph glyph-name="uni0427" unicode="&#x427;" 
d="M430 250q-30 -19 -66 -27t-74 -8q-49 0 -90 17t-71 48.5t-47 76t-17 98.5v245h85v-245q0 -79 40 -122t100 -43q38 0 72 8t68 27v375h85v-700h-85v250z" />
    <glyph glyph-name="uni0428" unicode="&#x428;" 
d="M55 700h85v-625h120v625h80v-625h120v625h85v-700h-490v700z" />
    <glyph glyph-name="uni0429" unicode="&#x429;" 
d="M520 0h-465v700h85v-625h120v625h80v-625h120v625h85v-625h50v-220h-75v145z" />
    <glyph glyph-name="uni042A" unicode="&#x42a;" 
d="M140 625h-120v75h205v-270h90q52 0 94 -15.5t71 -43.5t44.5 -67.5t15.5 -88.5t-15.5 -88.5t-44.5 -67.5t-71 -43.5t-94 -15.5h-175v625zM310 75q68 0 106.5 38t38.5 102t-38.5 102t-106.5 38h-85v-280h85z" />
    <glyph glyph-name="uni042B" unicode="&#x42b;" 
d="M55 700h85v-270h60q45 0 82.5 -15.5t65 -43.5t42.5 -67.5t15 -88.5t-15 -88.5t-42.5 -67.5t-65 -43.5t-82.5 -15.5h-145v700zM195 75q26 0 49 10t40 28t26.5 44t9.5 58t-9.5 58t-26.5 44t-40 28t-49 10h-55v-280h55zM460 700h85v-700h-85v700z" />
    <glyph glyph-name="uni042C" unicode="&#x42c;" 
d="M85 700h85v-270h145q52 0 94 -15.5t71 -43.5t44.5 -67.5t15.5 -88.5t-15.5 -88.5t-44.5 -67.5t-71 -43.5t-94 -15.5h-230v700zM310 75q68 0 106.5 38t38.5 102t-38.5 102t-106.5 38h-140v-280h140z" />
    <glyph glyph-name="uni042D" unicode="&#x42d;" 
d="M300 -10q-90 0 -154.5 55t-90.5 175h85q19 -83 61 -119t99 -36q33 0 63 13t52.5 43t37 77.5t17.5 116.5h-250v75h250q-3 67 -18 113.5t-37.5 76t-52 42.5t-62.5 13q-57 0 -94 -31.5t-57 -88.5h-85q27 94 86 144.5t150 50.5q54 0 101 -21t81 -65t53.5 -112t19.5 -162
t-19.5 -162t-53.5 -112t-81 -65t-101 -21z" />
    <glyph glyph-name="uni042E" unicode="&#x42e;" 
d="M380 -10q-36 0 -66.5 16.5t-53.5 54.5t-37.5 100t-17.5 154h-55v-315h-85v700h85v-310h55q3 90 17.5 151t37.5 98.5t53.5 54t66.5 16.5t68.5 -17.5t57 -59.5t39.5 -111t15 -172t-15 -172t-39.5 -111t-57 -59.5t-68.5 -17.5zM380 65q17 0 34 11.5t30.5 43t22 87t8.5 143.5
t-8.5 143.5t-22 87t-30.5 43t-34 11.5t-34 -11.5t-30.5 -43t-22 -87t-8.5 -143.5t8.5 -143.5t22 -87t30.5 -43t34 -11.5z" />
    <glyph glyph-name="uni042F" unicode="&#x42f;" 
d="M231 282q-30 3 -62.5 16t-58.5 38.5t-43 63t-17 90.5q0 47 15.5 85.5t44 66.5t69 43t91.5 15h245v-700h-85v280h-105l-190 -280h-95zM430 355v270h-155q-68 0 -104 -35.5t-36 -99.5t36 -99.5t104 -35.5h155z" />
    <glyph glyph-name="uni0430" unicode="&#x430;" 
d="M275 -10q-38 0 -69 12.5t-53.5 34t-35 50.5t-12.5 63t12.5 63t36.5 50.5t58.5 34t77.5 12.5h135v35q0 53 -31 84t-84 31q-38 0 -68.5 -17t-41.5 -58h-80q6 36 23 63t42 45t57 27.5t68 9.5q43 0 78 -13.5t60 -37.5t38.5 -58t13.5 -76v-345h-60l-10 65h-5q-8 -11 -21 -24.5
t-31.5 -24.5t-43 -18.5t-54.5 -7.5zM285 60q30 0 55.5 10.5t44.5 30t29.5 46t10.5 58.5v35h-135q-57 0 -83.5 -24t-26.5 -66t26 -66t79 -24z" />
    <glyph glyph-name="uni0431" unicode="&#x431;" 
d="M305 -10q-53 0 -97 18t-75.5 54t-49.5 90.5t-18 127.5q0 107 16 183.5t48.5 126t81 72.5t114.5 23q60 0 107.5 10t77.5 25v-75q-30 -15 -72.5 -22.5t-102.5 -7.5q-87 0 -135.5 -49.5t-59.5 -155.5h5q30 42 74 61t101 19q49 0 89.5 -16.5t69.5 -48.5t45 -78.5t16 -106.5
t-17 -106.5t-48 -78.5t-74.5 -48.5t-95.5 -16.5zM305 60q72 0 116 46.5t44 133.5t-44 133.5t-116 46.5t-116 -46.5t-44 -133.5t44 -133.5t116 -46.5z" />
    <glyph glyph-name="uni0432" unicode="&#x432;" 
d="M100 520h255q68 0 109 -40.5t41 -104.5q0 -38 -17.5 -64t-47.5 -41q34 -15 54.5 -48.5t20.5 -71.5q0 -68 -42.5 -109t-117.5 -41h-255v520zM355 70q42 0 63.5 21t21.5 59q0 85 -85 85h-180v-165h180zM355 300q38 0 59 20.5t21 54.5t-21 54.5t-59 20.5h-180v-150h180z" />
    <glyph glyph-name="uni0433" unicode="&#x433;" 
d="M115 520h390v-136h-75v66h-240v-450h-75v520z" />
    <glyph glyph-name="uni0434" unicode="&#x434;" 
d="M55 70h35q26 45 35.5 103t9.5 137v210h350v-450h50v-190h-70v120h-340v-120h-70v190zM410 70v380h-200v-140q0 -79 -9.5 -137t-35.5 -103h245z" />
    <glyph glyph-name="uni0435" unicode="&#x435;" 
d="M300 -10q-51 0 -93 18.5t-72.5 53t-47.5 84.5t-17 114t17.5 114t48.5 84.5t73 53t91 18.5t91 -18t73 -49.5t48.5 -76t17.5 -96.5q0 -11 -1 -20t-2 -16q-1 -8 -2 -14h-380q4 -83 45.5 -131.5t109.5 -48.5q42 0 74.5 20.5t53.5 54.5h80q-25 -68 -80.5 -106.5t-127.5 -38.5z
M455 305q-4 34 -16.5 62.5t-33 49t-47 32t-58.5 11.5t-58.5 -11.5t-47 -32t-33 -49t-16.5 -62.5h310z" />
    <glyph glyph-name="uni0436" unicode="&#x436;" 
d="M190 265l-155 255h85l106 -180l39 -65h10l-10 65v180h70v-180l-10 -65h10l39 65l106 180h85l-155 -255l170 -265h-85l-119 190l-41 65h-10l10 -65v-190h-70v190l10 65h-10l-41 -65l-119 -190h-85z" />
    <glyph glyph-name="uni0437" unicode="&#x437;" 
d="M295 -10q-91 0 -147.5 36.5t-67.5 108.5h75q8 -38 45.5 -56.5t94.5 -18.5q71 0 103 25t32 55q0 34 -32 59.5t-103 25.5h-35v70h35q64 0 94.5 25.5t30.5 59.5q0 30 -30.5 55t-94.5 25q-115 0 -130 -75h-75q23 145 205 145q51 0 88.5 -11.5t62 -31.5t37 -47.5t12.5 -59.5
q0 -21 -7 -40t-18.5 -35t-27 -27.5t-32.5 -17.5q19 -6 36 -17t30 -26.5t21 -35t8 -41.5q0 -32 -12.5 -59.5t-38 -47.5t-65.5 -31.5t-94 -11.5z" />
    <glyph glyph-name="uni0438" unicode="&#x438;" 
d="M100 520h75v-350l-20 -76h10l43 76l197 350h95v-520h-75v350l20 76h-10l-43 -76l-197 -350h-95v520z" />
    <glyph glyph-name="uni0439" unicode="&#x439;" 
d="M100 520h75v-350l-20 -76h10l43 76l197 350h95v-520h-75v350l20 76h-10l-43 -76l-197 -350h-95v520zM300 600q-53 0 -92.5 29t-47.5 101h70q8 -70 70 -70t70 70h70q-8 -72 -47.5 -101t-92.5 -29z" />
    <glyph glyph-name="uni043A" unicode="&#x43a;" 
d="M110 520h75v-245l245 245h95l-255 -255l270 -265h-95l-260 255v-255h-75v520z" />
    <glyph glyph-name="uni043B" unicode="&#x43b;" 
d="M50 70h10q24 0 40.5 11.5t26.5 39t14 74t4 115.5v210h355v-520h-75v450h-205v-140q0 -83 -7.5 -142.5t-25.5 -97.5t-49 -56.5t-78 -18.5h-10v75z" />
    <glyph glyph-name="uni043C" unicode="&#x43c;" 
d="M70 520h100l125 -285h10l125 285h100v-520h-75v310l25 120h-10l-39 -88l-106 -227h-55l-101 227l-39 88h-10l25 -120v-310h-75v520z" />
    <glyph glyph-name="uni043D" unicode="&#x43d;" 
d="M100 520h75v-225h250v225h75v-520h-75v225h-250v-225h-75v520z" />
    <glyph glyph-name="uni043E" unicode="&#x43e;" 
d="M300 -10q-49 0 -91 18.5t-73 53t-48.5 84.5t-17.5 114t17.5 114t48.5 84.5t73 53t91 18.5t91 -18.5t73 -53t48.5 -84.5t17.5 -114t-17.5 -114t-48.5 -84.5t-73 -53t-91 -18.5zM300 60q32 0 60 13t49 38.5t33.5 62.5t12.5 86t-12.5 86t-33.5 62.5t-49 38.5t-60 13t-60 -13
t-49 -38.5t-33.5 -62.5t-12.5 -86t12.5 -86t33.5 -62.5t49 -38.5t60 -13z" />
    <glyph glyph-name="uni043F" unicode="&#x43f;" 
d="M100 520h400v-520h-75v450h-250v-450h-75v520z" />
    <glyph glyph-name="uni0440" unicode="&#x440;" 
d="M100 520h60l10 -70h5q26 38 63.5 59t86.5 21q45 0 82.5 -16t65 -49.5t42.5 -84.5t15 -120t-15 -120t-42.5 -84.5t-65 -49.5t-82.5 -16q-49 0 -84 20.5t-61 54.5h-5v-265h-75v720zM315 60q28 0 53.5 12.5t44.5 37t30.5 62t11.5 88.5t-11.5 88.5t-30.5 62t-44.5 37
t-53.5 12.5t-53.5 -12.5t-44.5 -37t-30.5 -62t-11.5 -88.5t11.5 -88.5t30.5 -62t44.5 -37t53.5 -12.5z" />
    <glyph glyph-name="uni0441" unicode="&#x441;" 
d="M310 -10q-49 0 -91 18.5t-73 53t-48.5 84.5t-17.5 114t17.5 114t48.5 84.5t73 53t91 18.5q39 0 72 -11.5t58 -31t43 -46t27 -56.5h-75q-6 13 -17 26.5t-27 24t-36.5 17.5t-44.5 7q-32 0 -60 -13t-49 -38.5t-33.5 -62.5t-12.5 -86t12.5 -86t33.5 -62.5t49 -38.5t60 -13
q24 0 44.5 7t36.5 17.5t27 24t17 26.5h75q-9 -30 -27 -56.5t-43 -46t-58 -31t-72 -11.5z" />
    <glyph glyph-name="uni0442" unicode="&#x442;" 
d="M260 450h-120v-100h-75v170h470v-170h-75v100h-125v-450h-75v450z" />
    <glyph glyph-name="uni0443" unicode="&#x443;" 
d="M260 0l-210 520h80l165 -415h5l165 415h80l-285 -720h-80z" />
    <glyph glyph-name="uni0444" unicode="&#x444;" 
d="M265 0q-41 0 -80 19t-69 53t-48 82t-18 106t18 106t48 82t69 53t80 19v200h70v-200q41 0 80 -19t69 -53t48 -82t18 -106t-18 -106t-48 -82t-69 -53t-80 -19v-200h-70v200zM265 450q-26 0 -51.5 -13t-45 -37t-31.5 -59.5t-12 -80.5t12 -80.5t31.5 -59.5t45 -37t51.5 -13
v380zM335 70q26 0 51.5 13t45 37t31.5 59.5t12 80.5t-12 80.5t-31.5 59.5t-45 37t-51.5 13v-380z" />
    <glyph glyph-name="uni0445" unicode="&#x445;" 
d="M255 270l-175 250h85l107 -160l26 -50h5l25 50l107 160h85l-175 -250l185 -270h-85l-110 165l-32 65h-5l-33 -65l-110 -165h-85z" />
    <glyph glyph-name="uni0446" unicode="&#x446;" 
d="M480 0h-380v520h75v-450h250v450h75v-450h50v-190h-70v120z" />
    <glyph glyph-name="uni0447" unicode="&#x447;" 
d="M425 180q-26 -11 -61.5 -20.5t-73.5 -9.5q-49 0 -87 13.5t-64.5 37.5t-40 57t-13.5 72v190h75v-190q0 -45 35 -77.5t95 -32.5q75 0 135 30v270h75v-520h-75v180z" />
    <glyph glyph-name="uni0448" unicode="&#x448;" 
d="M65 520h75v-450h125v450h70v-450h125v450h75v-520h-470v520z" />
    <glyph glyph-name="uni0449" unicode="&#x449;" 
d="M515 0h-450v520h75v-450h125v450h70v-450h125v450h75v-450h50v-190h-70v120z" />
    <glyph glyph-name="uni044A" unicode="&#x44a;" 
d="M160 450h-115v70h190v-190h135q37 0 68.5 -12.5t54 -34.5t35 -52t12.5 -66t-12.5 -66t-35 -52t-54 -34.5t-68.5 -12.5h-210v450zM365 70q45 0 72.5 26.5t27.5 68.5t-27.5 68.5t-72.5 26.5h-130v-190h130z" />
    <glyph glyph-name="uni044B" unicode="&#x44b;" 
d="M90 520h75v-190h45q37 0 68.5 -12.5t54 -34.5t35 -52t12.5 -66t-12.5 -66t-35 -52t-54 -34.5t-68.5 -12.5h-120v520zM205 70q45 0 72.5 26.5t27.5 68.5t-27.5 68.5t-72.5 26.5h-40v-190h40zM435 520h75v-520h-75v520z" />
    <glyph glyph-name="uni044C" unicode="&#x44c;" 
d="M105 520h75v-190h165q37 0 68.5 -12.5t54 -34.5t35 -52t12.5 -66t-12.5 -66t-35 -52t-54 -34.5t-68.5 -12.5h-240v520zM340 70q45 0 72.5 26.5t27.5 68.5t-27.5 68.5t-72.5 26.5h-160v-190h160z" />
    <glyph glyph-name="uni044D" unicode="&#x44d;" 
d="M290 -10q-39 0 -72 11.5t-58 31t-43 46t-27 56.5h75q6 -13 17 -26.5t27 -24t36.5 -17.5t44.5 -7q29 0 55 10.5t47 31.5t34.5 51.5t18.5 71.5h-175v70h175q-5 40 -18.5 71t-34.5 52t-47 31.5t-55 10.5q-24 0 -44.5 -7t-36.5 -17.5t-27 -24t-17 -26.5h-75q9 30 27 56.5
t43 46t58 31t72 11.5q49 0 91 -18.5t73 -53t48.5 -84.5t17.5 -114t-17.5 -114t-48.5 -84.5t-73 -53t-91 -18.5z" />
    <glyph glyph-name="uni044E" unicode="&#x44e;" 
d="M375 -10q-30 0 -57 10.5t-47.5 37.5t-34 72.5t-16.5 114.5h-55v-225h-75v520h75v-225h55q3 69 16.5 114t34 72t47.5 38t57 11q34 0 63 -14t50.5 -46t34 -83.5t12.5 -126.5t-12.5 -126.5t-34 -83.5t-50.5 -46t-63 -14zM375 60q17 0 32.5 8.5t27 31t18.5 61.5t7 99t-7 98.5
t-18.5 61t-27 31.5t-32.5 9t-32.5 -9t-27 -31.5t-18.5 -61t-7 -98.5t7 -99t18.5 -61.5t27 -31t32.5 -8.5z" />
    <glyph glyph-name="uni044F" unicode="&#x44f;" 
d="M231 201q-19 3 -42 14.5t-42.5 31t-33 47.5t-13.5 66q0 34 12.5 63t35 50.5t53.5 34t69 12.5h230v-520h-75v200h-110l-140 -200h-85zM425 270v180h-150q-45 0 -72.5 -26t-27.5 -64t27.5 -64t72.5 -26h150z" />
    <glyph glyph-name="uni0450" unicode="&#x450;" 
d="M300 -10q-51 0 -93 18.5t-72.5 53t-47.5 84.5t-17 114t17.5 114t48.5 84.5t73 53t91 18.5t91 -18t73 -49.5t48.5 -76t17.5 -96.5q0 -11 -1 -20t-2 -16q-1 -8 -2 -14h-380q4 -83 45.5 -131.5t109.5 -48.5q42 0 74.5 20.5t53.5 54.5h80q-25 -68 -80.5 -106.5t-127.5 -38.5z
M455 305q-4 34 -16.5 62.5t-33 49t-47 32t-58.5 11.5t-58.5 -11.5t-47 -32t-33 -49t-16.5 -62.5h310zM151 740h95l90 -140h-70z" />
    <glyph glyph-name="uni0451" unicode="&#x451;" 
d="M300 -10q-51 0 -93 18.5t-72.5 53t-47.5 84.5t-17 114t17.5 114t48.5 84.5t73 53t91 18.5t91 -18t73 -49.5t48.5 -76t17.5 -96.5q0 -11 -1 -20t-2 -16q-1 -8 -2 -14h-380q4 -83 45.5 -131.5t109.5 -48.5q42 0 74.5 20.5t53.5 54.5h80q-25 -68 -80.5 -106.5t-127.5 -38.5z
M455 305q-4 34 -16.5 62.5t-33 49t-47 32t-58.5 11.5t-58.5 -11.5t-47 -32t-33 -49t-16.5 -62.5h310zM222 610q-22 0 -37 15t-15 37t14.5 37.5t37.5 15.5q22 0 37 -15.5t15 -37.5q0 -21 -15 -36.5t-37 -15.5zM398 610q-22 0 -37.5 15t-15.5 37t15 37.5t38 15.5
q22 0 37 -15.5t15 -37.5q0 -21 -15 -36.5t-37 -15.5z" />
    <glyph glyph-name="uni0452" unicode="&#x452;" 
d="M295 -130h65q80 0 80 80v300q0 68 -33.5 104t-86.5 36q-27 0 -50 -10.5t-40 -28t-28 -41t-12 -50.5v-260h-75v550h-75v70h75v80h75v-80h135v-70h-135v-170h5q23 45 60 62.5t75 17.5q39 0 73 -14.5t59 -41.5t39 -66t14 -88v-300q0 -72 -39 -111t-111 -39h-70v70z" />
    <glyph glyph-name="uni0453" unicode="&#x453;" 
d="M115 520h390v-136h-75v66h-240v-450h-75v520zM370 740h95l-115 -140h-70z" />
    <glyph glyph-name="uni0454" unicode="&#x454;" 
d="M310 -10q-49 0 -91 18.5t-73 53t-48.5 84.5t-17.5 114t17.5 114t48.5 84.5t73 53t91 18.5q39 0 72 -11.5t58 -31t43 -46t27 -56.5h-75q-6 13 -17 26.5t-27 24t-36.5 17.5t-44.5 7q-29 0 -55 -10.5t-47 -31.5t-35 -52t-18 -71h175v-70h-175q4 -41 18 -71.5t35 -51.5
t47 -31.5t55 -10.5q24 0 44.5 7t36.5 17.5t27 24t17 26.5h75q-9 -30 -27 -56.5t-43 -46t-58 -31t-72 -11.5z" />
    <glyph glyph-name="uni0455" unicode="&#x455;" 
d="M305 -10q-43 0 -80.5 10t-66 30.5t-46.5 50.5t-22 69h80q8 -45 47 -67.5t88 -22.5q71 0 100.5 23t29.5 57q0 32 -24.5 48.5t-61 26t-79.5 18t-79.5 24.5t-61 45.5t-24.5 82.5q0 28 12 54t36 46.5t59.5 32.5t82.5 12q37 0 72.5 -8t63.5 -25t46.5 -45t22.5 -67h-80
q-8 34 -40 54.5t-85 20.5q-57 0 -86 -20.5t-29 -54.5t24.5 -51.5t61 -28t79.5 -19t79.5 -24.5t61 -44t24.5 -78q0 -32 -13 -59.5t-39 -47.5t-64 -31.5t-89 -11.5z" />
    <glyph glyph-name="uni0456" unicode="&#x456;" 
d="M115 70h155v380h-115v70h190v-450h145v-70h-375v70zM303 595q-22 0 -37.5 15t-15.5 37t15 37.5t38 15.5q22 0 37 -15.5t15 -37.5q0 -21 -15 -36.5t-37 -15.5z" />
    <glyph glyph-name="uni0457" unicode="&#x457;" 
d="M115 70h155v380h-115v70h190v-450h145v-70h-375v70zM202 610q-22 0 -37 15t-15 37t14.5 37.5t37.5 15.5q22 0 37 -15.5t15 -37.5q0 -21 -15 -36.5t-37 -15.5zM378 610q-22 0 -37.5 15t-15.5 37t15 37.5t38 15.5q22 0 37 -15.5t15 -37.5q0 -21 -15 -36.5t-37 -15.5z" />
    <glyph glyph-name="uni0458" unicode="&#x458;" 
d="M235 -200q-38 0 -67.5 11.5t-50.5 31.5t-33 47.5t-14 59.5h75q4 -34 26 -57t64 -23t66 24t24 66v490h-137v70h212v-560q0 -36 -11.5 -65.5t-33.5 -50.5t-52.5 -32.5t-67.5 -11.5zM363 595q-22 0 -37.5 15t-15.5 37t15 37.5t38 15.5q22 0 37 -15.5t15 -37.5
q0 -21 -15 -36.5t-37 -15.5z" />
    <glyph glyph-name="uni0459" unicode="&#x459;" 
d="M10 70h10q17 0 29 11.5t20 39t12 74t4 115.5v210h270v-190h50q37 0 68.5 -12.5t54 -34.5t35 -52t12.5 -66t-12.5 -66t-35 -52t-54 -34.5t-68.5 -12.5h-125v450h-120v-140q0 -83 -7 -142.5t-23.5 -97.5t-43.5 -56.5t-66 -18.5h-10v75zM400 70q45 0 72.5 26.5t27.5 68.5
t-27.5 68.5t-72.5 26.5h-45v-190h45z" />
    <glyph glyph-name="uni045A" unicode="&#x45a;" 
d="M50 520h75v-210h155v210h75v-210h55q37 0 67.5 -11.5t52.5 -32t33.5 -49t11.5 -62.5t-11.5 -62.5t-33.5 -49t-52.5 -32t-67.5 -11.5h-130v240h-155v-240h-75v520zM405 70q45 0 70 23.5t25 61.5t-25 61.5t-70 23.5h-50v-170h50z" />
    <glyph glyph-name="uni045B" unicode="&#x45b;" 
d="M115 550h-75v70h75v80h75v-80h135v-70h-135v-170h5q23 45 60 62.5t75 17.5q39 0 73 -14.5t59 -41.5t39 -66t14 -88v-250h-75v250q0 68 -33.5 104t-86.5 36q-27 0 -50 -10.5t-40 -28t-28 -41t-12 -50.5v-260h-75v550z" />
    <glyph glyph-name="uni045C" unicode="&#x45c;" 
d="M110 520h75v-245l245 245h95l-255 -255l270 -265h-95l-260 255v-255h-75v520zM360 740h95l-115 -140h-70z" />
    <glyph glyph-name="uni045D" unicode="&#x45d;" 
d="M100 520h75v-350l-20 -76h10l43 76l197 350h95v-520h-75v350l20 76h-10l-43 -76l-197 -350h-95v520zM150 740h95l90 -140h-70z" />
    <glyph glyph-name="uni045E" unicode="&#x45e;" 
d="M260 0l-210 520h80l165 -415h5l165 415h80l-285 -720h-80zM300 600q-53 0 -92.5 29t-47.5 101h70q8 -70 70 -70t70 70h70q-8 -72 -47.5 -101t-92.5 -29z" />
    <glyph glyph-name="uni045F" unicode="&#x45f;" 
d="M265 0h-165v520h75v-450h250v450h75v-520h-165v-120h-70v120z" />
    <glyph glyph-name="uni0490" unicode="&#x490;" 
d="M105 700h340v140h85v-215h-340v-625h-85v700z" />
    <glyph glyph-name="uni0491" unicode="&#x491;" 
d="M115 520h280v120h75v-190h-280v-450h-75v520z" />
    <glyph glyph-name="uni0492" unicode="&#x492;" 
d="M130 305h-90v75h90v320h405v-75h-320v-245h200v-75h-200v-305h-85v305z" />
    <glyph glyph-name="uni0493" unicode="&#x493;" 
d="M150 220h-85v70h85v230h355v-70h-280v-160h185v-70h-185v-220h-75v220z" />
    <glyph glyph-name="uni0494" unicode="&#x494;" 
d="M290 -45q30 0 58 12t49.5 35.5t34.5 58t13 79.5q0 43 -11.5 76.5t-31.5 56.5t-47.5 35t-59.5 12q-30 0 -53.5 -5.5t-39.5 -12.5q-18 -8 -32 -17v-285h-85v700h390v-75h-305v-265q6 4 17 10t27 11.5t36.5 9.5t44.5 4q52 0 95.5 -17.5t74.5 -50t48 -80t17 -107.5
q0 -58 -18 -106t-49.5 -82t-76 -53t-96.5 -19v75z" />
    <glyph glyph-name="uni0495" unicode="&#x495;" 
d="M315 -125q19 0 41.5 9t42 28.5t33 51t13.5 76.5q0 83 -41 126.5t-109 43.5q-29 0 -50.5 -5.5t-37.5 -12.5q-18 -8 -32 -17v-175h-75v520h320v-70h-245v-205q15 9 34 17q17 7 39.5 12.5t51.5 5.5q102 0 161 -61.5t59 -178.5q0 -60 -18.5 -105t-48 -75t-66 -45t-72.5 -15
v75z" />
    <glyph glyph-name="uni0496" unicode="&#x496;" 
d="M525 0h-35l-114 270l-31 75h-15l10 -65v-280h-80v280l10 65h-15l-31 -75l-114 -270h-100l160 355l-145 345h100l96 -250l34 -85h15l-10 65v270h80v-270l-10 -65h15l34 85l96 250h100l-145 -345l126 -280h44v-220h-75v145z" />
    <glyph glyph-name="uni0497" unicode="&#x497;" 
d="M515 0h-20l-119 190l-41 65h-10l10 -65v-190h-70v190l10 65h-10l-41 -65l-119 -190h-85l170 265l-155 255h85l106 -180l39 -65h10l-10 65v180h70v-180l-10 -65h10l39 65l106 180h85l-155 -255l125 -195h50v-190h-70v120z" />
    <glyph glyph-name="uni049A" unicode="&#x49a;" 
d="M495 0h-25l-295 345v-345h-85v700h85v-335l280 335h100l-290 -345l240 -280h65v-220h-75v145z" />
    <glyph glyph-name="uni049B" unicode="&#x49b;" 
d="M470 0h-25l-260 255v-255h-75v520h75v-245l245 245h95l-255 -255l198 -195h72v-190h-70v120z" />
    <glyph glyph-name="uni049C" unicode="&#x49c;" 
d="M85 700h85v-310h45v115h60v-115h32l128 310h95l-150 -345l165 -355h-95l-139 315h-36v-115h-60v115h-45v-315h-85v700z" />
    <glyph glyph-name="uni049D" unicode="&#x49d;" 
d="M100 520h75v-220h45v90h55v-90h30l120 220h80l-140 -255l150 -265h-80l-130 230h-30v-90h-55v90h-45v-230h-75v520z" />
    <glyph glyph-name="uni04A2" unicode="&#x4a2;" 
d="M490 0h-60v315h-260v-315h-85v700h85v-310h260v310h85v-625h50v-220h-75v145z" />
    <glyph glyph-name="uni04A3" unicode="&#x4a3;" 
d="M480 0h-55v225h-250v-225h-75v520h75v-225h250v225h75v-450h50v-190h-70v120z" />
    <glyph glyph-name="uni04AA" unicode="&#x4aa;" 
d="M260 -7q-47 7 -86.5 32t-68 68.5t-44.5 107.5t-16 149q0 94 19.5 162t53.5 112t81 65t101 21q91 0 150 -50.5t86 -144.5h-85q-20 57 -57 88.5t-94 31.5q-36 0 -67 -15t-54 -49t-36 -88t-13 -133t13 -133.5t36 -88t54 -48.5t67 -15q57 0 99 36t61 119h85
q-23 -107 -76.5 -161.5t-128.5 -65.5v-133h-80v133z" />
    <glyph glyph-name="uni04AB" unicode="&#x4ab;" 
d="M270 -6q-41 7 -76 28t-60.5 55t-39.5 80t-14 103q0 64 17.5 114t48.5 84.5t73 53t91 18.5q39 0 72 -11.5t58 -31t43 -46t27 -56.5h-75q-6 13 -17 26.5t-27 24t-36.5 17.5t-44.5 7q-32 0 -60 -13t-49 -38.5t-33.5 -62.5t-12.5 -86t12.5 -86t33.5 -62.5t49 -38.5t60 -13
q24 0 44.5 7t36.5 17.5t27 24t17 26.5h75q-17 -54 -59.5 -94t-110.5 -49v-112h-70v114z" />
    <glyph glyph-name="uni04AE" unicode="&#x4ae;" 
d="M255 270l-215 430h90l137 -290l25 -80h10l27 80l136 290h90l-215 -430v-270h-85v270z" />
    <glyph glyph-name="uni04AF" unicode="&#x4af;" 
d="M262 0h-15l-187 520h80l136 -385l21 -85h5l21 85l137 385h80l-188 -520h-15v-200h-75v200z" />
    <glyph glyph-name="uni04B0" unicode="&#x4b0;" 
d="M255 255h-150v75h120l-185 370h90l137 -290l25 -80h10l27 80l136 290h90l-185 -370h120v-75h-150v-255h-85v255z" />
    <glyph glyph-name="uni04B1" unicode="&#x4b1;" 
d="M262 0h-112v70h72l-162 450h80l136 -385l21 -85h5l21 85l137 385h80l-163 -450h73v-70h-113v-200h-75v200z" />
    <glyph glyph-name="uni04B2" unicode="&#x4b2;" 
d="M495 0h-20l-140 235l-30 70h-10l-30 -70l-140 -235h-95l220 360l-210 340h95l130 -215l30 -70h10l30 70l130 215h95l-210 -340l174 -285h46v-220h-75v145z" />
    <glyph glyph-name="uni04B3" unicode="&#x4b3;" 
d="M460 0h-15l-110 165l-32 65h-5l-33 -65l-110 -165h-85l185 270l-175 250h85l107 -160l26 -50h5l25 50l107 160h85l-175 -250l137 -200h48v-190h-70v120z" />
    <glyph glyph-name="uni04B6" unicode="&#x4b6;" 
d="M490 0h-60v250q-30 -19 -66 -27t-74 -8q-51 0 -92.5 17t-71 48.5t-45.5 76t-16 98.5v245h85v-245q0 -39 11.5 -70t30.5 -52t44.5 -32t53.5 -11q38 0 72 8t68 27v375h85v-625h50v-220h-75v145z" />
    <glyph glyph-name="uni04B7" unicode="&#x4b7;" 
d="M480 0h-55v180q-26 -11 -61.5 -20.5t-73.5 -9.5q-49 0 -87 13.5t-64.5 37.5t-40 57t-13.5 72v190h75v-190q0 -45 35 -77.5t95 -32.5q75 0 135 30v270h75v-450h50v-190h-70v120z" />
    <glyph glyph-name="uni04B8" unicode="&#x4b8;" 
d="M430 250q-23 -14 -48 -22t-52 -11v-117h-75v117q-43 6 -78 25t-60 50t-38.5 72t-13.5 91v245h85v-245q0 -67 30 -108t75 -53v131h75v-133q50 6 100 33v375h85v-700h-85v250z" />
    <glyph glyph-name="uni04B9" unicode="&#x4b9;" 
d="M425 180q-20 -9 -46 -17t-54 -11v-97h-60v96q-40 3 -73 17t-57 36.5t-37 54.5t-13 71v190h75v-190q0 -45 30 -73.5t75 -35.5v104h60v-104q52 6 100 29v270h75v-520h-75v180z" />
    <glyph glyph-name="uni04BA" unicode="&#x4ba;" 
d="M85 700h85v-275q38 23 70 31.5t70 8.5q109 0 167 -59.5t58 -180.5v-225h-85v225q0 87 -36 126t-104 39q-38 0 -70 -8.5t-70 -31.5v-350h-85v700z" />
    <glyph glyph-name="uni04BB" unicode="&#x4bb;" 
d="M100 700h75v-250h5q23 45 60 62.5t75 17.5q39 0 73 -14.5t59 -41.5t39 -66t14 -88v-320h-75v320q0 68 -33.5 104t-86.5 36q-27 0 -50.5 -11t-41 -29.5t-27.5 -43t-11 -51.5v-325h-75v700z" />
    <glyph glyph-name="uni04C1" unicode="&#x4c1;" 
d="M170 355l-145 345h100l96 -250l34 -85h15l-10 65v270h80v-270l-10 -65h15l34 85l96 250h100l-145 -345l160 -355h-100l-114 270l-31 75h-15l10 -65v-280h-80v280l10 65h-15l-31 -75l-114 -270h-100zM300 775q-28 0 -53.5 7t-46 22.5t-33.5 40t-17 60.5h70q4 -38 27 -54
t53 -16t53 16t27 54h70q-4 -36 -17 -60.5t-33.5 -40t-46 -22.5t-53.5 -7z" />
    <glyph glyph-name="uni04C2" unicode="&#x4c2;" 
d="M190 265l-155 255h85l106 -180l39 -65h10l-10 65v180h70v-180l-10 -65h10l39 65l106 180h85l-155 -255l170 -265h-85l-119 190l-41 65h-10l10 -65v-190h-70v190l10 65h-10l-41 -65l-119 -190h-85zM300 600q-53 0 -92.5 29t-47.5 101h70q8 -70 70 -70t70 70h70
q-8 -72 -47.5 -101t-92.5 -29z" />
    <glyph glyph-name="uni04D2" unicode="&#x4d2;" 
d="M255 700h90l225 -700h-85l-57 175h-256l-57 -175h-85zM405 250l-84 265l-16 100h-10l-16 -100l-84 -265h210zM212 780q-22 0 -37 15t-15 37t14.5 37.5t37.5 15.5q22 0 37 -15.5t15 -37.5q0 -21 -15 -36.5t-37 -15.5zM388 780q-22 0 -37.5 15t-15.5 37t15 37.5t38 15.5
q22 0 37 -15.5t15 -37.5q0 -21 -15 -36.5t-37 -15.5z" />
    <glyph glyph-name="uni04D3" unicode="&#x4d3;" 
d="M275 -10q-38 0 -69 12.5t-53.5 34t-35 50.5t-12.5 63t12.5 63t36.5 50.5t58.5 34t77.5 12.5h135v35q0 53 -31 84t-84 31q-38 0 -68.5 -17t-41.5 -58h-80q6 36 23 63t42 45t57 27.5t68 9.5q43 0 78 -13.5t60 -37.5t38.5 -58t13.5 -76v-345h-60l-10 65h-5q-8 -11 -21 -24.5
t-31.5 -24.5t-43 -18.5t-54.5 -7.5zM285 60q30 0 55.5 10.5t44.5 30t29.5 46t10.5 58.5v35h-135q-57 0 -83.5 -24t-26.5 -66t26 -66t79 -24zM227 610q-22 0 -37 15t-15 37t14.5 37.5t37.5 15.5q22 0 37 -15.5t15 -37.5q0 -21 -15 -36.5t-37 -15.5zM403 610q-22 0 -37.5 15
t-15.5 37t15 37.5t38 15.5q22 0 37 -15.5t15 -37.5q0 -21 -15 -36.5t-37 -15.5z" />
    <glyph glyph-name="uni04D8" unicode="&#x4d8;" 
d="M300 -10q-54 0 -101 21t-81 65t-53.5 112t-19.5 162v30h425q-3 70 -17 118.5t-37 79t-52.5 44t-63.5 13.5q-45 0 -81.5 -24t-60.5 -81h-88q30 94 90.5 137t139.5 43q54 0 101 -21t81 -65t53.5 -112t19.5 -162t-19.5 -162t-53.5 -112t-81 -65t-101 -21zM300 65
q33 0 62.5 12.5t52 41t37 74.5t18.5 112h-340q4 -66 18.5 -112t37 -74.5t52 -41t62.5 -12.5z" />
    <glyph glyph-name="uni04D9" unicode="&#x4d9;" 
d="M300 -10q-49 0 -91 18t-73 49.5t-48.5 75.5t-17.5 97q0 11 0.5 20t1.5 16q1 8 3 14h380q-4 83 -45.5 131.5t-109.5 48.5q-42 0 -74.5 -20.5t-53.5 -54.5h-80q25 68 80.5 106.5t127.5 38.5q51 0 93 -18.5t72.5 -53t47.5 -84.5t17 -114t-17.5 -114t-48.5 -84.5t-73 -53
t-91 -18.5zM300 60q32 0 58.5 11.5t47 32t33 49t16.5 62.5h-310q4 -34 16.5 -62.5t33 -49t47 -32t58.5 -11.5z" />
    <glyph glyph-name="uni04E0" unicode="&#x4e0;" 
d="M290 -10q-45 0 -86 13t-73.5 37.5t-53.5 61t-27 83.5h85q4 -26 18 -48t35 -38t47.5 -25t54.5 -9q79 0 119.5 38t40.5 102t-40.5 102t-119.5 38h-120v75l235 205h-325v75h440v-75l-235 -205h5q58 0 103.5 -16t77 -44.5t48 -68t16.5 -86.5t-16.5 -86.5t-48 -68t-77 -44.5
t-103.5 -16z" />
    <glyph glyph-name="uni04E1" unicode="&#x4e1;" 
d="M290 -200q-102 0 -159.5 52t-65.5 143h75q8 -60 47 -92.5t103 -32.5q68 0 109 41t41 109q0 72 -41 113.5t-109 41.5h-110v65l220 210h-310v70h410v-70l-215 -205q56 0 99 -17t72 -47t44 -71t15 -90t-16 -89.5t-45.5 -69.5t-71 -45t-92.5 -16z" />
    <glyph glyph-name="uni04E2" unicode="&#x4e2;" 
d="M85 700h85v-440l-25 -170h10l61 157l174 453h125v-700h-85v439l25 171h-10l-61 -158l-174 -452h-125v700zM160 875h280v-65h-280v65z" />
    <glyph glyph-name="uni04E3" unicode="&#x4e3;" 
d="M100 520h75v-350l-20 -76h10l43 76l197 350h95v-520h-75v350l20 76h-10l-43 -76l-197 -350h-95v520zM160 705h280v-65h-280v65z" />
    <glyph glyph-name="uni04E6" unicode="&#x4e6;" 
d="M300 -10q-54 0 -101 21t-81 65t-53.5 112t-19.5 162t19.5 162t53.5 112t81 65t101 21t101 -21t81 -65t53.5 -112t19.5 -162t-19.5 -162t-53.5 -112t-81 -65t-101 -21zM300 65q36 0 67 15t54 48.5t36 88t13 133.5t-13 133t-36 88t-54 49t-67 15t-67 -15t-54 -49t-36 -88
t-13 -133t13 -133.5t36 -88t54 -48.5t67 -15zM212 780q-22 0 -37 15t-15 37t14.5 37.5t37.5 15.5q22 0 37 -15.5t15 -37.5q0 -21 -15 -36.5t-37 -15.5zM388 780q-22 0 -37.5 15t-15.5 37t15 37.5t38 15.5q22 0 37 -15.5t15 -37.5q0 -21 -15 -36.5t-37 -15.5z" />
    <glyph glyph-name="uni04E7" unicode="&#x4e7;" 
d="M300 -10q-49 0 -91 18.5t-73 53t-48.5 84.5t-17.5 114t17.5 114t48.5 84.5t73 53t91 18.5t91 -18.5t73 -53t48.5 -84.5t17.5 -114t-17.5 -114t-48.5 -84.5t-73 -53t-91 -18.5zM300 60q32 0 60 13t49 38.5t33.5 62.5t12.5 86t-12.5 86t-33.5 62.5t-49 38.5t-60 13t-60 -13
t-49 -38.5t-33.5 -62.5t-12.5 -86t12.5 -86t33.5 -62.5t49 -38.5t60 -13zM212 610q-22 0 -37 15t-15 37t14.5 37.5t37.5 15.5q22 0 37 -15.5t15 -37.5q0 -21 -15 -36.5t-37 -15.5zM388 610q-22 0 -37.5 15t-15.5 37t15 37.5t38 15.5q22 0 37 -15.5t15 -37.5q0 -21 -15 -36.5
t-37 -15.5z" />
    <glyph glyph-name="uni04E8" unicode="&#x4e8;" 
d="M300 -10q-54 0 -101 21t-81 65t-53.5 112t-19.5 162t19.5 162t53.5 112t81 65t101 21t101 -21t81 -65t53.5 -112t19.5 -162t-19.5 -162t-53.5 -112t-81 -65t-101 -21zM300 65q33 0 62.5 13t52 43t37 77.5t17.5 116.5h-339q3 -69 17.5 -116.5t37 -77.5t52 -43t63.5 -13z
M469 385q-3 69 -17.5 116.5t-37 77t-52 43t-62.5 13.5q-34 0 -63.5 -13.5t-52 -43t-37 -77t-17.5 -116.5h339z" />
    <glyph glyph-name="uni04E9" unicode="&#x4e9;" 
d="M300 -10q-49 0 -91 18.5t-73 53t-48.5 84.5t-17.5 114t17.5 114t48.5 84.5t73 53t91 18.5t91 -18.5t73 -53t48.5 -84.5t17.5 -114t-17.5 -114t-48.5 -84.5t-73 -53t-91 -18.5zM300 60q58 0 101 42t52 123h-306q4 -41 17.5 -71.5t34 -51.5t46.5 -31.5t55 -10.5zM453 295
q-9 81 -52 123t-101 42q-29 0 -55 -10.5t-46.5 -31.5t-34 -52t-17.5 -71h306z" />
    <glyph glyph-name="uni04EE" unicode="&#x4ee;" 
d="M260 205l-240 495h90l159 -336l31 -89h5l30 90l150 335h90l-320 -700h-90zM165 875h280v-65h-280v65z" />
    <glyph glyph-name="uni04EF" unicode="&#x4ef;" 
d="M260 0l-210 520h80l165 -415h5l165 415h80l-285 -720h-80zM165 705h280v-65h-280v65z" />
    <glyph glyph-name="uni04F0" unicode="&#x4f0;" 
d="M260 205l-240 495h90l159 -336l31 -89h5l30 90l150 335h90l-320 -700h-90zM217 780q-22 0 -37 15t-15 37t14.5 37.5t37.5 15.5q22 0 37 -15.5t15 -37.5q0 -21 -15 -36.5t-37 -15.5zM393 780q-22 0 -37.5 15t-15.5 37t15 37.5t38 15.5q22 0 37 -15.5t15 -37.5
q0 -21 -15 -36.5t-37 -15.5z" />
    <glyph glyph-name="uni04F1" unicode="&#x4f1;" 
d="M260 0l-210 520h80l165 -415h5l165 415h80l-285 -720h-80zM217 610q-22 0 -37 15t-15 37t14.5 37.5t37.5 15.5q22 0 37 -15.5t15 -37.5q0 -21 -15 -36.5t-37 -15.5zM393 610q-22 0 -37.5 15t-15.5 37t15 37.5t38 15.5q22 0 37 -15.5t15 -37.5q0 -21 -15 -36.5t-37 -15.5z
" />
    <glyph glyph-name="Wgrave" unicode="&#x1e80;" 
d="M35 700h85l40 -380v-205h10l21 125l49 280h120l49 -281l21 -124h10v204l40 381h85l-80 -700h-110l-72 435h-5l-73 -435h-110zM150 910h95l90 -140h-70z" />
    <glyph glyph-name="wgrave" unicode="&#x1e81;" 
d="M25 520h75l59 -360l-4 -80h10l21 78l69 252h90l69 -252l21 -78h10l-4 80l59 360h75l-90 -520h-95l-85 315h-10l-85 -315h-95zM150 740h95l90 -140h-70z" />
    <glyph glyph-name="Wacute" unicode="&#x1e82;" 
d="M35 700h85l40 -380v-205h10l21 125l49 280h120l49 -281l21 -124h10v204l40 381h85l-80 -700h-110l-72 435h-5l-73 -435h-110zM355 910h95l-115 -140h-70z" />
    <glyph glyph-name="wacute" unicode="&#x1e83;" 
d="M25 520h75l59 -360l-4 -80h10l21 78l69 252h90l69 -252l21 -78h10l-4 80l59 360h75l-90 -520h-95l-85 315h-10l-85 -315h-95zM353 740h95l-115 -140h-70z" />
    <glyph glyph-name="Wdieresis" unicode="&#x1e84;" 
d="M35 700h85l40 -380v-205h10l21 125l49 280h120l49 -281l21 -124h10v204l40 381h85l-80 -700h-110l-72 435h-5l-73 -435h-110zM212 780q-22 0 -37 15t-15 37t14.5 37.5t37.5 15.5q22 0 37 -15.5t15 -37.5q0 -21 -15 -36.5t-37 -15.5zM388 780q-22 0 -37.5 15t-15.5 37
t15 37.5t38 15.5q22 0 37 -15.5t15 -37.5q0 -21 -15 -36.5t-37 -15.5z" />
    <glyph glyph-name="wdieresis" unicode="&#x1e85;" 
d="M25 520h75l59 -360l-4 -80h10l21 78l69 252h90l69 -252l21 -78h10l-4 80l59 360h75l-90 -520h-95l-85 315h-10l-85 -315h-95zM212 610q-22 0 -37 15t-15 37t14.5 37.5t37.5 15.5q22 0 37 -15.5t15 -37.5q0 -21 -15 -36.5t-37 -15.5zM388 610q-22 0 -37.5 15t-15.5 37
t15 37.5t38 15.5q22 0 37 -15.5t15 -37.5q0 -21 -15 -36.5t-37 -15.5z" />
    <glyph glyph-name="uni1E9E" unicode="&#x1e9e;" 
d="M75 490q0 98 55.5 154t149.5 56h240v-75l-180 -210v-5q45 0 83.5 -14.5t66.5 -41t44 -64.5t16 -85q0 -43 -16 -80.5t-44.5 -65t-66.5 -43.5t-83 -16h-105v75h95q64 0 99.5 35t35.5 95t-35.5 95t-99.5 35h-85v85l175 205h-140q-53 0 -86.5 -35.5t-33.5 -99.5v-490h-85v490
z" />
    <glyph glyph-name="Ygrave" unicode="&#x1ef2;" 
d="M255 270l-215 430h90l137 -290l25 -80h10l27 80l136 290h90l-215 -430v-270h-85v270zM145 910h95l90 -140h-70z" />
    <glyph glyph-name="ygrave" unicode="&#x1ef3;" 
d="M260 0l-210 520h80l165 -415h5l165 415h80l-285 -720h-80zM150 740h95l90 -140h-70z" />
    <glyph glyph-name="endash" unicode="&#x2013;" 
d="M120 315h360v-70h-360v70z" />
    <glyph glyph-name="emdash" unicode="&#x2014;" 
d="M65 315h470v-70h-470v70z" />
    <glyph glyph-name="quoteleft" unicode="&#x2018;" 
d="M300 700h60l-40 -200h-80z" />
    <glyph glyph-name="quoteright" unicode="&#x2019;" 
d="M280 700h80l-60 -200h-60z" />
    <glyph glyph-name="quotesinglbase" unicode="&#x201a;" 
d="M270 100h80l-60 -200h-60z" />
    <glyph glyph-name="quotedblleft" unicode="&#x201c;" 
d="M225 700h60l-40 -200h-80zM375 700h60l-40 -200h-80z" />
    <glyph glyph-name="quotedblright" unicode="&#x201d;" 
d="M205 700h80l-60 -200h-60zM355 700h80l-60 -200h-60z" />
    <glyph glyph-name="quotedblbase" unicode="&#x201e;" 
d="M205 100h80l-60 -200h-60zM355 100h80l-60 -200h-60z" />
    <glyph glyph-name="dagger" unicode="&#x2020;" 
d="M260 455h-135v75h135v170h80v-170h135v-75h-135v-455h-80v455z" />
    <glyph glyph-name="daggerdbl" unicode="&#x2021;" 
d="M260 170h-135v75h135v210h-135v75h135v170h80v-170h135v-75h-135v-210h135v-75h-135v-170h-80v170z" />
    <glyph glyph-name="bullet" unicode="&#x2022;" 
d="M300 190q-38 0 -64 26t-26 64t26 64t64 26t64 -26t26 -64t-26 -64t-64 -26z" />
    <glyph glyph-name="ellipsis" unicode="&#x2026;" 
d="M70 -5q-23 0 -39 16t-16 39t16 39t39 16t39 -16t16 -39t-16 -39t-39 -16zM300 -5q-23 0 -39 16t-16 39t16 39t39 16t39 -16t16 -39t-16 -39t-39 -16zM530 -5q-23 0 -39 16t-16 39t16 39t39 16t39 -16t16 -39t-16 -39t-39 -16z" />
    <glyph glyph-name="perthousand" unicode="&#x2030;" 
d="M150 300h40l-135 -300h-100zM310 -10q-24 0 -46 9t-38.5 25.5t-26 39.5t-9.5 51t9.5 51t26 39.5t38.5 25.5t46 9q26 0 49.5 -10.5t40.5 -30.5q35 41 90 41q24 0 46 -9t38.5 -25.5t26 -39.5t9.5 -51t-9.5 -51t-26 -39.5t-38.5 -25.5t-46 -9q-56 0 -90 40
q-17 -20 -40.5 -30t-49.5 -10zM310 45q26 0 43 18t17 52t-17 52t-43 18t-43 -18t-17 -52t17 -52t43 -18zM490 45q26 0 43 18t17 52t-17 52t-43 18t-43 -18t-17 -52v-6q2 -31 18 -47.5t42 -16.5zM365 700h100l-195 -300h-40zM104 455q-24 0 -46 9t-38.5 25.5t-26 39.5
t-9.5 51t9.5 51t26 39.5t38.5 25.5t46 9t46 -9t38.5 -25.5t26 -39.5t9.5 -51t-9.5 -51t-26 -39.5t-38.5 -25.5t-46 -9zM104 510q26 0 43 18t17 52t-17 52t-43 18t-43 -18t-17 -52t17 -52t43 -18z" />
    <glyph glyph-name="uni2032" unicode="&#x2032;" 
d="M290 700h95l-90 -220h-65z" />
    <glyph glyph-name="uni2033" unicode="&#x2033;" 
d="M220 700h95l-90 -220h-65zM365 700h95l-90 -220h-65z" />
    <glyph glyph-name="uni2034" unicode="&#x2034;" 
d="M145 700h95l-90 -220h-65zM290 700h95l-90 -220h-65zM435 700h95l-90 -220h-65z" />
    <glyph glyph-name="uni2035" unicode="&#x2035;" 
d="M215 700h95l60 -220h-65z" />
    <glyph glyph-name="uni2036" unicode="&#x2036;" 
d="M140 700h95l60 -220h-65zM285 700h95l60 -220h-65z" />
    <glyph glyph-name="uni2037" unicode="&#x2037;" 
d="M70 700h95l60 -220h-65zM215 700h95l60 -220h-65zM360 700h95l60 -220h-65z" />
    <glyph glyph-name="guilsinglleft" unicode="&#x2039;" 
d="M170 265l150 235h95l-150 -232v-6l150 -232h-95z" />
    <glyph glyph-name="guilsinglright" unicode="&#x203a;" 
d="M335 262v6l-150 232h95l150 -235l-150 -235h-95z" />
    <glyph glyph-name="uni203C" unicode="&#x203c;" 
d="M190 -5q-23 0 -39 16t-16 39t16 39t39 16t39 -16t16 -39t-16 -39t-39 -16zM410 -5q-23 0 -39 16t-16 39t16 39t39 16t39 -16t16 -39t-16 -39t-39 -16zM145 650v50h90v-50l-15 -450h-60zM365 650v50h90v-50l-15 -450h-60z" />
    <glyph glyph-name="uni203D" unicode="&#x203d;" 
d="M290 -5q-23 0 -39 16t-16 39t16 39t39 16t39 -16t16 -39t-16 -39t-39 -16zM250 635q-41 -11 -61.5 -40.5t-23.5 -69.5h-80q8 91 63 138t142 47q49 0 87 -13.5t64 -37.5t40 -57t14 -72q0 -43 -12 -71t-30.5 -48.5t-40 -35.5t-40 -32t-30.5 -39t-12 -54v-50h-80v435z
M330 395q16 13 31 25.5t27 28t19.5 35t7.5 46.5q0 37 -22 65.5t-63 39.5v-240z" />
    <glyph glyph-name="fraction" unicode="&#x2044;" horiz-adv-x="150" 
d="M15 300h40l-135 -300h-100zM230 700h100l-195 -300h-40z" />
    <glyph glyph-name="uni2047" unicode="&#x2047;" 
d="M135 -5q-23 0 -39 16t-16 39t16 39t39 16t39 -16t16 -39t-16 -39t-39 -16zM440 -5q-23 0 -39 16t-16 39t16 39t39 16t39 -16t16 -39t-16 -39t-39 -16zM95 240q0 60 16.5 96t36 64t36 56.5t16.5 73.5q0 60 -19.5 85t-45.5 25t-43.5 -25.5t-21.5 -89.5h-80q4 94 42.5 139.5
t102.5 45.5t104.5 -44.5t40.5 -135.5q0 -37 -8 -64.5t-19.5 -48.5t-25 -39.5t-25 -38t-19.5 -43.5t-8 -56v-40h-80v40zM400 240q0 60 16.5 96t36 64t36 56.5t16.5 73.5q0 60 -19.5 85t-45.5 25t-43.5 -25.5t-21.5 -89.5h-80q4 94 42.5 139.5t102.5 45.5t104.5 -44.5
t40.5 -135.5q0 -37 -8 -64.5t-19.5 -48.5t-25 -39.5t-25 -38t-19.5 -43.5t-8 -56v-40h-80v40z" />
    <glyph glyph-name="uni2048" unicode="&#x2048;" 
d="M195 -5q-23 0 -39 16t-16 39t16 39t39 16t39 -16t16 -39t-16 -39t-39 -16zM445 -5q-23 0 -39 16t-16 39t16 39t39 16t39 -16t16 -39t-16 -39t-39 -16zM155 240q0 60 16.5 96t36 64t36 56.5t16.5 73.5q0 60 -19.5 85t-45.5 25t-43.5 -25.5t-21.5 -89.5h-80
q4 94 42.5 139.5t102.5 45.5t104.5 -44.5t40.5 -135.5q0 -37 -8 -64.5t-19.5 -48.5t-25 -39.5t-25 -38t-19.5 -43.5t-8 -56v-40h-80v40zM400 650v50h90v-50l-15 -450h-60z" />
    <glyph glyph-name="uni2049" unicode="&#x2049;" 
d="M140 -5q-23 0 -39 16t-16 39t16 39t39 16t39 -16t16 -39t-16 -39t-39 -16zM390 -5q-23 0 -39 16t-16 39t16 39t39 16t39 -16t16 -39t-16 -39t-39 -16zM95 650v50h90v-50l-15 -450h-60zM350 240q0 60 16.5 96t36 64t36 56.5t16.5 73.5q0 60 -19.5 85t-45.5 25t-43.5 -25.5
t-21.5 -89.5h-80q4 94 42.5 139.5t102.5 45.5t104.5 -44.5t40.5 -135.5q0 -37 -8 -64.5t-19.5 -48.5t-25 -39.5t-25 -38t-19.5 -43.5t-8 -56v-40h-80v40z" />
    <glyph glyph-name="uni2070" unicode="&#x2070;" 
d="M300 465q-30 0 -56.5 12t-46 35t-31 56.5t-11.5 76.5t11.5 76.5t31 56.5t46 35t56.5 12t56.5 -12t46 -35t31 -56.5t11.5 -76.5t-11.5 -76.5t-31 -56.5t-46 -35t-56.5 -12zM300 515q38 0 64 31t26 99q0 28 -5.5 53.5t-16.5 42.5l-96 -221q15 -5 28 -5zM328 770
q-15 5 -28 5q-38 0 -64 -31t-26 -99q0 -28 5.5 -53.5t16.5 -42.5z" />
    <glyph glyph-name="uni2074" unicode="&#x2074;" 
d="M325 540h-180v55l155 225h85v-225h55v-55h-55v-70h-60v70zM325 595v155h-5l-107 -155h112z" />
    <glyph glyph-name="uni2075" unicode="&#x2075;" 
d="M300 465q-53 0 -87.5 30t-42.5 75h60q8 -19 24 -34.5t46 -15.5t50 20t20 50t-20.5 50t-54.5 20q-19 0 -35.5 -9.5t-24.5 -20.5h-55l25 190h205v-55h-160l-10 -75h5q7 6 17 10q8 4 18.5 7t24.5 3q57 0 91 -33.5t34 -86.5q0 -26 -10 -49t-27 -40t-41 -26.5t-52 -9.5z" />
    <glyph glyph-name="uni2076" unicode="&#x2076;" 
d="M300 465q-26 0 -49.5 9t-41.5 25.5t-28.5 39.5t-10.5 51q0 45 14 74.5t38 60.5l73 95h68l-88 -115h5q3 1 8 2t11.5 2t17.5 1q15 0 34.5 -6t37 -20.5t29.5 -38.5t12 -60q0 -24 -10 -46t-27 -38.5t-41 -26t-52 -9.5zM300 520q30 0 50 20t20 50t-20 50t-50 20t-50 -20
t-20 -50t20 -50t50 -20z" />
    <glyph glyph-name="uni2077" unicode="&#x2077;" 
d="M370 765h-170v55h240v-55l-150 -295h-70z" />
    <glyph glyph-name="uni2078" unicode="&#x2078;" 
d="M300 465q-30 0 -54 8.5t-41 23t-26 33.5t-9 40q0 30 14.5 54.5t40.5 35.5q-4 2 -11.5 7.5t-15 14.5t-13 21t-5.5 27q0 38 31.5 66.5t88.5 28.5t88.5 -28.5t31.5 -66.5q0 -15 -5.5 -27t-13 -21t-15 -14.5t-11.5 -7.5q26 -11 40.5 -35.5t14.5 -54.5q0 -21 -9 -40t-26 -33.5
t-41 -23t-54 -8.5zM300 520q34 0 52 16t18 39t-18 39t-52 16t-52 -16t-18 -39t18 -39t52 -16zM300 680q30 0 45 13t15 32t-15 32t-45 13t-45 -13t-15 -32t15 -32t45 -13z" />
    <glyph glyph-name="uni2079" unicode="&#x2079;" 
d="M325 585h-5q-3 -2 -8 -3t-12 -1.5t-17 -0.5q-15 0 -34.5 6t-37 20.5t-29.5 38.5t-12 60q0 24 10 46t27 38.5t41 26t52 9.5q26 0 49.5 -9t41.5 -25.5t28.5 -39.5t10.5 -51q0 -45 -14 -74.5t-38 -60.5l-73 -95h-68zM300 630q30 0 50 20t20 50t-20 50t-50 20t-50 -20
t-20 -50t20 -50t50 -20z" />
    <glyph glyph-name="uni207A" unicode="&#x207a;" 
d="M265 620h-100v60h100v105h60v-105h105v-60h-105v-105h-60v105z" />
    <glyph glyph-name="uni207B" unicode="&#x207b;" 
d="M165 680h265v-60h-265v60z" />
    <glyph glyph-name="uni207C" unicode="&#x207c;" 
d="M165 622h265v-60h-265v60zM165 733h265v-60h-265v60z" />
    <glyph glyph-name="uni207D" unicode="&#x207d;" 
d="M290 450q-25 36 -40 85.5t-15 109.5t15 109.5t40 85.5h65q-55 -76 -55 -195t55 -195h-65v0z" />
    <glyph glyph-name="uni207E" unicode="&#x207e;" 
d="M245 450q55 76 55 195t-55 195h65q25 -36 40 -85.5t15 -109.5t-15 -109.5t-40 -85.5h-65v0z" />
    <glyph glyph-name="uni2080" unicode="&#x2080;" 
d="M300 -125q-30 0 -56.5 12t-46 35t-31 56.5t-11.5 76.5t11.5 76.5t31 56.5t46 35t56.5 12t56.5 -12t46 -35t31 -56.5t11.5 -76.5t-11.5 -76.5t-31 -56.5t-46 -35t-56.5 -12zM300 -75q38 0 64 31t26 99q0 28 -5.5 53.5t-16.5 42.5l-96 -221q15 -5 28 -5zM328 180
q-15 5 -28 5q-38 0 -64 -31t-26 -99q0 -28 5.5 -53.5t16.5 -42.5z" />
    <glyph glyph-name="uni2081" unicode="&#x2081;" 
d="M170 -65h105v175h-90v55h65q25 0 25 25v40h60v-295h100v-55h-265v55z" />
    <glyph glyph-name="uni2082" unicode="&#x2082;" 
d="M160 -65l147 108q17 12 28 21.5t18 18t9.5 17.5t2.5 20q0 26 -18 43t-52 17q-21 0 -34.5 -7.5t-21.5 -18t-11 -23t-3 -21.5h-60q2 26 10.5 49t25 40t41 26.5t58.5 9.5q57 0 91 -33t34 -82q0 -34 -16 -59t-42 -44l-112 -82h170v-55h-265v55z" />
    <glyph glyph-name="uni2083" unicode="&#x2083;" 
d="M300 -125q-49 0 -85.5 26t-44.5 79h60q4 -23 22 -36.5t48 -13.5q34 0 49.5 13.5t15.5 36.5t-16 36.5t-54 13.5h-20v50h20q34 0 49.5 13.5t15.5 36.5t-15.5 36.5t-49.5 13.5q-30 0 -45.5 -14.5t-19.5 -40.5h-60q4 45 34.5 77.5t90.5 32.5t92.5 -29t32.5 -71
q0 -30 -16 -48.5t-39 -26.5q30 -8 45 -31t15 -49q0 -45 -32.5 -75t-92.5 -30z" />
    <glyph glyph-name="uni2084" unicode="&#x2084;" 
d="M325 -50h-180v55l155 225h85v-225h55v-55h-55v-70h-60v70zM325 5v155h-5l-107 -155h112z" />
    <glyph glyph-name="uni2085" unicode="&#x2085;" 
d="M300 -125q-53 0 -87.5 30t-42.5 75h60q8 -19 24 -34.5t46 -15.5t50 20t20 50t-20.5 50t-54.5 20q-19 0 -35.5 -9.5t-24.5 -20.5h-55l25 190h205v-55h-160l-10 -75h5q7 6 17 10q8 4 18.5 7t24.5 3q57 0 91 -33.5t34 -86.5q0 -26 -10 -49t-27 -40t-41 -26.5t-52 -9.5z" />
    <glyph glyph-name="uni2086" unicode="&#x2086;" 
d="M300 -125q-26 0 -49.5 9t-41.5 25.5t-28.5 39.5t-10.5 51q0 45 14 74.5t38 60.5l73 95h68l-88 -115h5q3 1 8 2t11.5 2t17.5 1q15 0 34.5 -6t37 -20.5t29.5 -38.5t12 -60q0 -24 -10 -46t-27 -38.5t-41 -26t-52 -9.5zM300 -70q30 0 50 20t20 50t-20 50t-50 20t-50 -20
t-20 -50t20 -50t50 -20z" />
    <glyph glyph-name="uni2087" unicode="&#x2087;" 
d="M370 175h-170v55h240v-55l-150 -295h-70z" />
    <glyph glyph-name="uni2088" unicode="&#x2088;" 
d="M300 -125q-30 0 -54 8.5t-41 23t-26 33.5t-9 40q0 30 14.5 54.5t40.5 35.5q-4 2 -11.5 7.5t-15 14.5t-13 21t-5.5 27q0 38 31.5 66.5t88.5 28.5t88.5 -28.5t31.5 -66.5q0 -15 -5.5 -27t-13 -21t-15 -14.5t-11.5 -7.5q26 -11 40.5 -35.5t14.5 -54.5q0 -21 -9 -40
t-26 -33.5t-41 -23t-54 -8.5zM300 -70q34 0 52 16t18 39t-18 39t-52 16t-52 -16t-18 -39t18 -39t52 -16zM300 90q30 0 45 13t15 32t-15 32t-45 13t-45 -13t-15 -32t15 -32t45 -13z" />
    <glyph glyph-name="uni2089" unicode="&#x2089;" 
d="M325 -5h-5q-3 -2 -8 -3t-12 -1.5t-17 -0.5q-15 0 -34.5 6t-37 20.5t-29.5 38.5t-12 60q0 24 10 46t27 38.5t41 26t52 9.5q26 0 49.5 -9t41.5 -25.5t28.5 -39.5t10.5 -51q0 -45 -14 -74.5t-38 -60.5l-73 -95h-68zM300 40q30 0 50 20t20 50t-20 50t-50 20t-50 -20t-20 -50
t20 -50t50 -20z" />
    <glyph glyph-name="uni208A" unicode="&#x208a;" 
d="M265 35h-100v60h100v105h60v-105h105v-60h-105v-105h-60v105z" />
    <glyph glyph-name="uni208B" unicode="&#x208b;" 
d="M165 95h265v-60h-265v60z" />
    <glyph glyph-name="uni208C" unicode="&#x208c;" 
d="M165 37h265v-60h-265v60zM165 148h265v-60h-265v60z" />
    <glyph glyph-name="uni208D" unicode="&#x208d;" 
d="M290 -135q-25 36 -40 85.5t-15 109.5t15 109.5t40 85.5h65q-55 -76 -55 -195t55 -195h-65v0z" />
    <glyph glyph-name="uni208E" unicode="&#x208e;" 
d="M245 -135q55 76 55 195t-55 195h65q25 -36 40 -85.5t15 -109.5t-15 -109.5t-40 -85.5h-65v0z" />
    <glyph glyph-name="uni20A3" unicode="&#x20a3;" 
d="M85 120h-65v75h65v505h420v-75h-335v-245h310v-75h-310v-110h170v-75h-170v-120h-85v120z" />
    <glyph glyph-name="uni20A4" unicode="&#x20a4;" 
d="M70 75h15q26 0 40.5 16t14.5 54v75h-70v75h70v75h-70v75h70v45q0 52 14 93t39.5 69.5t60.5 43t76 14.5q36 0 68 -10.5t57 -32.5t42 -56t23 -81h-85q-8 49 -34 77t-71 28t-75 -35.5t-30 -114.5v-40h175v-75h-175v-75h175v-75h-175v-75q0 -21 -4 -34.5t-9 -21.5
q-5 -10 -12 -14h335v-75h-465v75z" />
    <glyph glyph-name="uni20A9" unicode="&#x20a9;" 
d="M92 195h-62v75h54l-5 45h-49v75h40l-35 310h85l32 -310h62l21 130h130l20 -130h62l33 310h85l-36 -310h41v-75h-49l-5 -45h54v-75h-63l-22 -195h-110l-31 195h-88l-31 -195h-110zM170 115l13 80h-23v-80h10zM195 270l7 45h-42v-45h35zM332 270l-7 45h-50l-7 -45h64z
M440 115v80h-24l14 -80h10zM440 270v45h-43l7 -45h36zM313 390l-10 65h-5l-11 -65h26z" />
    <glyph glyph-name="Euro" unicode="&#x20ac;" 
d="M300 -10q-91 0 -157.5 59t-88.5 186h-49v75h41q-1 10 -1 19.5v20.5v30h-40v75h47q10 66 33 114t55 79.5t73 46.5t87 15q91 0 150 -50.5t86 -144.5h-85q-20 57 -57 88.5t-94 31.5q-29 0 -55 -10t-47 -31.5t-37 -55.5t-24 -83h193v-75h-200v-30v-20.5t1 -19.5h199v-75h-191
q17 -92 61 -131t100 -39q57 0 99 36t61 119h85q-26 -120 -90.5 -175t-154.5 -55z" />
    <glyph glyph-name="uni20B4" unicode="&#x20b4;" 
d="M300 -15q-49 0 -87 12.5t-64.5 34t-40 50.5t-13.5 63q0 30 6.5 51t19.5 39h-66v75h490v-75h-335q-13 -13 -21.5 -35t-8.5 -45q0 -42 31.5 -68.5t88.5 -26.5q104 0 135 85h85q-19 -83 -76 -121.5t-144 -38.5zM55 460h335q13 13 21.5 35t8.5 45q0 42 -31.5 68.5t-88.5 26.5
q-104 0 -135 -85h-85q19 83 76 121.5t144 38.5q49 0 87 -12.5t64 -34t40 -50.5t14 -63q0 -30 -6.5 -51t-19.5 -39h66v-75h-490v75z" />
    <glyph glyph-name="uni20B8" unicode="&#x20b8;" 
d="M260 470h-200v75h480v-75h-195v-470h-85v470zM60 700h480v-75h-480v75z" />
    <glyph glyph-name="uni20B9" unicode="&#x20b9;" 
d="M175 275h-115v75h190q53 0 90 25.5t45 74.5h-325v75h325q-8 49 -45 74.5t-90 25.5h-190v75h475v-75h-120q15 -11 26 -26q10 -13 18.5 -31.5t10.5 -42.5h65v-75h-65q-8 -79 -60 -121.5t-135 -53.5l195 -275h-100z" />
    <glyph glyph-name="uni20BA" unicode="&#x20ba;" 
d="M130 256l-85 -31v75l85 31v90l-85 -31v75l85 31v204h85v-172l155 58v-75l-155 -58v-90l155 58v-75l-155 -58v-213q66 0 112.5 9t76.5 28.5t44.5 51t16.5 76.5h75q-2 -64 -20 -109.5t-56.5 -74.5t-99.5 -42.5t-149 -13.5h-85v256z" />
    <glyph glyph-name="uni20BD" unicode="&#x20bd;" 
d="M85 125h-60v75h60v70h-60v75h60v355h235q52 0 94 -15.5t71 -43.5t44.5 -67.5t15.5 -88.5t-15.5 -88.5t-44.5 -67.5t-71 -43.5t-94 -15.5h-150v-70h215v-75h-215v-125h-85v125zM315 345q72 0 108.5 36t36.5 104t-36.5 104t-108.5 36h-145v-280h145z" />
    <glyph glyph-name="uni20BF" unicode="&#x20bf;" 
d="M155 0h-70v700h70v110h85v-110h85v110h85v-122q60 -19 92.5 -66.5t32.5 -116.5q0 -49 -24 -90t-66 -60q42 -15 71 -59t29 -101q0 -73 -35 -121.5t-100 -65.5v-119h-85v111h-85v-111h-85v111zM335 75q57 0 91 33.5t34 86.5t-34 86.5t-91 33.5h-165v-240h165zM325 385
q57 0 91 33.5t34 86.5t-34 86.5t-91 33.5h-155v-240h155z" />
    <glyph glyph-name="uni2113" unicode="&#x2113;" 
d="M320 -10q-68 0 -104 37.5t-36 97.5v100q-12 -4 -25 -8q-11 -3 -25.5 -5t-29.5 -2v65q15 0 29.5 3t25.5 7q13 4 25 10v280q0 64 35 99.5t95 35.5q64 0 99.5 -41.5t35.5 -113.5q0 -54 -15.5 -101t-42.5 -85.5t-62.5 -68t-74.5 -50.5v-125q0 -34 21 -52t59 -18q19 0 37 5
q10 2 18 5v-65q-6 -3 -16 -5q-18 -5 -49 -5zM250 330q24 15 47 38t40 51.5t27.5 61.5t10.5 69q0 45 -17.5 70t-47.5 25q-26 0 -43 -18.5t-17 -56.5v-240z" />
    <glyph glyph-name="uni2116" unicode="&#x2116;" 
d="M95 700h125l155 -610h10l-20 170v50h80v-310h-125l-155 610h-10l25 -200v-410h-85v700zM350 415h215v-65h-215v65zM450 450q-53 0 -84 32.5t-31 92.5t31 92.5t84 32.5t84 -32.5t31 -92.5t-31 -92.5t-84 -32.5zM450 520q19 0 29.5 12.5t10.5 42.5t-10.5 42.5t-29.5 12.5
t-29.5 -12.5t-10.5 -42.5t10.5 -42.5t29.5 -12.5z" />
    <glyph glyph-name="uni2117" unicode="&#x2117;" 
d="M300 0q-60 0 -110.5 20.5t-87 57t-57 87t-20.5 110.5t20.5 110.5t57 87t87 57t110.5 20.5t110.5 -20.5t87 -57t57 -87t20.5 -110.5t-20.5 -110.5t-57 -87t-87 -57t-110.5 -20.5zM300 55q47 0 86.5 16t68 45t44.5 69.5t16 89.5t-16 89.5t-44.5 69.5t-68 45t-86.5 16
t-86.5 -16t-68 -45t-44.5 -69.5t-16 -89.5t16 -89.5t44.5 -69.5t68 -45t86.5 -16zM205 420h99q61 0 93.5 -30.5t32.5 -79.5t-32.5 -79.5t-92.5 -30.5h-40v-70h-60v290zM310 255q26 0 43 16t17 39t-17 39t-43 16h-45v-110h45z" />
    <glyph glyph-name="trademark" unicode="&#x2122;" 
d="M110 650h-85v50h305l65 -190h5l65 190h80v-310h-55v150l15 86h-10l-31 -87l-39 -109h-55l-39 109l-31 87h-10l15 -86v-150h-55v260h-85v-260h-55v260z" />
    <glyph glyph-name="uni2126" unicode="&#x2126;" 
d="M55 65h105l-21 18t-46.5 55.5t-46.5 95t-21 136.5q0 82 21 145.5t58 107t87.5 65.5t108.5 22t108.5 -22t87.5 -65.5t58 -107t21 -145.5q0 -79 -21 -136.5t-46.5 -95t-46.5 -55.5l-21 -18h105v-65h-190v65q40 29 72 71q27 36 50 91t23 133q0 73 -16 126.5t-43 89
t-63.5 52.5t-77.5 17t-77.5 -17t-63.5 -52.5t-43 -89t-16 -126.5q0 -78 22.5 -133t49.5 -91q32 -42 73 -71v-65h-190v65z" />
    <glyph glyph-name="uni2150" unicode="&#x2150;" 
d="M240 300h40l-135 -300h-100zM455 700h100l-195 -300h-40zM10 405h105v175h-90v55h65q25 0 25 25v40h60v-295h100v-55h-265v55zM515 295h-170v55h240v-55l-150 -295h-70z" />
    <glyph glyph-name="uni2151" unicode="&#x2151;" 
d="M240 300h40l-135 -300h-100zM455 700h100l-195 -300h-40zM10 405h105v175h-90v55h65q25 0 25 25v40h60v-295h100v-55h-265v55zM475 115h-5q-3 -2 -8 -3t-12 -1.5t-17 -0.5q-15 0 -34.5 6t-37 20.5t-29.5 38.5t-12 60q0 24 10 46t27 38.5t41 26t52 9.5q26 0 49.5 -9
t41.5 -25.5t28.5 -39.5t10.5 -51q0 -45 -14 -74.5t-38 -60.5l-73 -95h-68zM450 160q30 0 50 20t20 50t-20 50t-50 20t-50 -20t-20 -50t20 -50t50 -20z" />
    <glyph glyph-name="uni2152" unicode="&#x2152;" 
d="M135 300h40l-135 -300h-100zM175 55h105v175h-90v55h65q25 0 25 25v40h60v-350h-165v55zM485 -5q-26 0 -49 10.5t-40 32.5t-26.5 56t-9.5 81t9.5 81t26.5 56t40 32.5t49 10.5t49 -10.5t40 -32.5t26.5 -56t9.5 -81t-9.5 -81t-26.5 -56t-40 -32.5t-49 -10.5zM507 301
q-9 4 -22 4q-30 0 -50 -27.5t-20 -102.5q0 -58 12 -88zM485 45q30 0 50 27.5t20 102.5q0 29 -3.5 50.5t-9.5 36.5l-79 -214q10 -3 22 -3zM5 405h105v175h-90v55h65q25 0 25 25v40h60v-350h-165v55zM350 700h100l-195 -300h-40z" />
    <glyph glyph-name="onethird" unicode="&#x2153;" 
d="M240 300h40l-135 -300h-100zM455 700h100l-195 -300h-40zM10 405h105v175h-90v55h65q25 0 25 25v40h60v-295h100v-55h-265v55zM460 -5q-49 0 -85.5 26t-44.5 79h60q4 -23 22 -36.5t48 -13.5q34 0 49.5 13.5t15.5 36.5t-16 36.5t-54 13.5h-20v50h20q34 0 49.5 13.5
t15.5 36.5t-15.5 36.5t-49.5 13.5q-30 0 -45.5 -14.5t-19.5 -40.5h-60q4 45 34.5 77.5t90.5 32.5t92.5 -29t32.5 -71q0 -30 -16 -48.5t-39 -26.5q30 -8 45 -31t15 -49q0 -45 -32.5 -75t-92.5 -30z" />
    <glyph glyph-name="twothirds" unicode="&#x2154;" 
d="M240 300h40l-135 -300h-100zM455 700h100l-195 -300h-40zM20 405l147 108q17 12 28 21.5t18 18t9.5 17.5t2.5 20q0 26 -18 43t-52 17q-21 0 -34.5 -7.5t-21.5 -18t-11 -23t-3 -21.5h-60q2 26 10.5 49t25 40t41 26.5t58.5 9.5q57 0 91 -33t34 -82q0 -34 -16 -59t-42 -44
l-112 -82h170v-55h-265v55zM460 -5q-49 0 -85.5 26t-44.5 79h60q4 -23 22 -36.5t48 -13.5q34 0 49.5 13.5t15.5 36.5t-16 36.5t-54 13.5h-20v50h20q34 0 49.5 13.5t15.5 36.5t-15.5 36.5t-49.5 13.5q-30 0 -45.5 -14.5t-19.5 -40.5h-60q4 45 34.5 77.5t90.5 32.5t92.5 -29
t32.5 -71q0 -30 -16 -48.5t-39 -26.5q30 -8 45 -31t15 -49q0 -45 -32.5 -75t-92.5 -30z" />
    <glyph glyph-name="uni2155" unicode="&#x2155;" 
d="M240 300h40l-135 -300h-100zM455 700h100l-195 -300h-40zM10 405h105v175h-90v55h65q25 0 25 25v40h60v-295h100v-55h-265v55zM455 -5q-53 0 -87.5 30t-42.5 75h60q8 -19 24 -34.5t46 -15.5t50 20t20 50t-20.5 50t-54.5 20q-19 0 -35.5 -9.5t-24.5 -20.5h-55l25 190h205
v-55h-160l-10 -75h5q7 6 17 10q8 4 18.5 7t24.5 3q57 0 91 -33.5t34 -86.5q0 -26 -10 -49t-27 -40t-41 -26.5t-52 -9.5z" />
    <glyph glyph-name="uni2156" unicode="&#x2156;" 
d="M240 300h40l-135 -300h-100zM455 700h100l-195 -300h-40zM20 405l147 108q17 12 28 21.5t18 18t9.5 17.5t2.5 20q0 26 -18 43t-52 17q-21 0 -34.5 -7.5t-21.5 -18t-11 -23t-3 -21.5h-60q2 26 10.5 49t25 40t41 26.5t58.5 9.5q57 0 91 -33t34 -82q0 -34 -16 -59t-42 -44
l-112 -82h170v-55h-265v55zM455 -5q-53 0 -87.5 30t-42.5 75h60q8 -19 24 -34.5t46 -15.5t50 20t20 50t-20.5 50t-54.5 20q-19 0 -35.5 -9.5t-24.5 -20.5h-55l25 190h205v-55h-160l-10 -75h5q7 6 17 10q8 4 18.5 7t24.5 3q57 0 91 -33.5t34 -86.5q0 -26 -10 -49t-27 -40
t-41 -26.5t-52 -9.5z" />
    <glyph glyph-name="uni2157" unicode="&#x2157;" 
d="M240 300h40l-135 -300h-100zM455 700h100l-195 -300h-40zM150 345q-49 0 -85.5 26t-44.5 79h60q4 -23 22 -36.5t48 -13.5q34 0 49.5 13.5t15.5 36.5t-16 36.5t-54 13.5h-20v50h20q34 0 49.5 13.5t15.5 36.5t-15.5 36.5t-49.5 13.5q-30 0 -45.5 -14.5t-19.5 -40.5h-60
q4 45 34.5 77.5t90.5 32.5t92.5 -29t32.5 -71q0 -30 -16 -48.5t-39 -26.5q30 -8 45 -31t15 -49q0 -45 -32.5 -75t-92.5 -30zM455 -5q-53 0 -87.5 30t-42.5 75h60q8 -19 24 -34.5t46 -15.5t50 20t20 50t-20.5 50t-54.5 20q-19 0 -35.5 -9.5t-24.5 -20.5h-55l25 190h205v-55
h-160l-10 -75h5q7 6 17 10q8 4 18.5 7t24.5 3q57 0 91 -33.5t34 -86.5q0 -26 -10 -49t-27 -40t-41 -26.5t-52 -9.5z" />
    <glyph glyph-name="uni2158" unicode="&#x2158;" 
d="M240 300h40l-135 -300h-100zM455 700h100l-195 -300h-40zM180 420h-180v55l155 225h85v-225h55v-55h-55v-70h-60v70zM180 475v155h-5l-107 -155h112zM455 -5q-53 0 -87.5 30t-42.5 75h60q8 -19 24 -34.5t46 -15.5t50 20t20 50t-20.5 50t-54.5 20q-19 0 -35.5 -9.5
t-24.5 -20.5h-55l25 190h205v-55h-160l-10 -75h5q7 6 17 10q8 4 18.5 7t24.5 3q57 0 91 -33.5t34 -86.5q0 -26 -10 -49t-27 -40t-41 -26.5t-52 -9.5z" />
    <glyph glyph-name="uni2159" unicode="&#x2159;" 
d="M240 300h40l-135 -300h-100zM455 700h100l-195 -300h-40zM10 405h105v175h-90v55h65q25 0 25 25v40h60v-295h100v-55h-265v55zM440 -5q-26 0 -49.5 9t-41.5 25.5t-28.5 39.5t-10.5 51q0 45 14 74.5t38 60.5l73 95h68l-88 -115h5q3 1 8 2t11.5 2t17.5 1q15 0 34.5 -6
t37 -20.5t29.5 -38.5t12 -60q0 -24 -10 -46t-27 -38.5t-41 -26t-52 -9.5zM440 50q30 0 50 20t20 50t-20 50t-50 20t-50 -20t-20 -50t20 -50t50 -20z" />
    <glyph glyph-name="uni215A" unicode="&#x215a;" 
d="M240 300h40l-135 -300h-100zM455 700h100l-195 -300h-40zM150 345q-53 0 -87.5 30t-42.5 75h60q8 -19 24 -34.5t46 -15.5t50 20t20 50t-20.5 50t-54.5 20q-19 0 -35.5 -9.5t-24.5 -20.5h-55l25 190h205v-55h-160l-10 -75h5q7 6 17 10q8 4 18.5 7t24.5 3q57 0 91 -33.5
t34 -86.5q0 -26 -10 -49t-27 -40t-41 -26.5t-52 -9.5zM440 -5q-26 0 -49.5 9t-41.5 25.5t-28.5 39.5t-10.5 51q0 45 14 74.5t38 60.5l73 95h68l-88 -115h5q3 1 8 2t11.5 2t17.5 1q15 0 34.5 -6t37 -20.5t29.5 -38.5t12 -60q0 -24 -10 -46t-27 -38.5t-41 -26t-52 -9.5z
M440 50q30 0 50 20t20 50t-20 50t-50 20t-50 -20t-20 -50t20 -50t50 -20z" />
    <glyph glyph-name="oneeighth" unicode="&#x215b;" 
d="M240 300h40l-135 -300h-100zM455 700h100l-195 -300h-40zM10 405h105v175h-90v55h65q25 0 25 25v40h60v-295h100v-55h-265v55zM450 -5q-30 0 -54 8.5t-41 23t-26 33.5t-9 40q0 30 14.5 54.5t40.5 35.5q-4 2 -11.5 7.5t-15 14.5t-13 21t-5.5 27q0 38 31.5 66.5t88.5 28.5
t88.5 -28.5t31.5 -66.5q0 -15 -5.5 -27t-13 -21t-15 -14.5t-11.5 -7.5q26 -11 40.5 -35.5t14.5 -54.5q0 -21 -9 -40t-26 -33.5t-41 -23t-54 -8.5zM450 50q34 0 52 16t18 39t-18 39t-52 16t-52 -16t-18 -39t18 -39t52 -16zM450 210q30 0 45 13t15 32t-15 32t-45 13t-45 -13
t-15 -32t15 -32t45 -13z" />
    <glyph glyph-name="threeeighths" unicode="&#x215c;" 
d="M240 300h40l-135 -300h-100zM455 700h100l-195 -300h-40zM150 345q-49 0 -85.5 26t-44.5 79h60q4 -23 22 -36.5t48 -13.5q34 0 49.5 13.5t15.5 36.5t-16 36.5t-54 13.5h-20v50h20q34 0 49.5 13.5t15.5 36.5t-15.5 36.5t-49.5 13.5q-30 0 -45.5 -14.5t-19.5 -40.5h-60
q4 45 34.5 77.5t90.5 32.5t92.5 -29t32.5 -71q0 -30 -16 -48.5t-39 -26.5q30 -8 45 -31t15 -49q0 -45 -32.5 -75t-92.5 -30zM450 -5q-30 0 -54 8.5t-41 23t-26 33.5t-9 40q0 30 14.5 54.5t40.5 35.5q-4 2 -11.5 7.5t-15 14.5t-13 21t-5.5 27q0 38 31.5 66.5t88.5 28.5
t88.5 -28.5t31.5 -66.5q0 -15 -5.5 -27t-13 -21t-15 -14.5t-11.5 -7.5q26 -11 40.5 -35.5t14.5 -54.5q0 -21 -9 -40t-26 -33.5t-41 -23t-54 -8.5zM450 50q34 0 52 16t18 39t-18 39t-52 16t-52 -16t-18 -39t18 -39t52 -16zM450 210q30 0 45 13t15 32t-15 32t-45 13t-45 -13
t-15 -32t15 -32t45 -13z" />
    <glyph glyph-name="fiveeighths" unicode="&#x215d;" 
d="M240 300h40l-135 -300h-100zM455 700h100l-195 -300h-40zM150 345q-53 0 -87.5 30t-42.5 75h60q8 -19 24 -34.5t46 -15.5t50 20t20 50t-20.5 50t-54.5 20q-19 0 -35.5 -9.5t-24.5 -20.5h-55l25 190h205v-55h-160l-10 -75h5q7 6 17 10q8 4 18.5 7t24.5 3q57 0 91 -33.5
t34 -86.5q0 -26 -10 -49t-27 -40t-41 -26.5t-52 -9.5zM450 -5q-30 0 -54 8.5t-41 23t-26 33.5t-9 40q0 30 14.5 54.5t40.5 35.5q-4 2 -11.5 7.5t-15 14.5t-13 21t-5.5 27q0 38 31.5 66.5t88.5 28.5t88.5 -28.5t31.5 -66.5q0 -15 -5.5 -27t-13 -21t-15 -14.5t-11.5 -7.5
q26 -11 40.5 -35.5t14.5 -54.5q0 -21 -9 -40t-26 -33.5t-41 -23t-54 -8.5zM450 50q34 0 52 16t18 39t-18 39t-52 16t-52 -16t-18 -39t18 -39t52 -16zM450 210q30 0 45 13t15 32t-15 32t-45 13t-45 -13t-15 -32t15 -32t45 -13z" />
    <glyph glyph-name="seveneighths" unicode="&#x215e;" 
d="M240 300h40l-135 -300h-100zM455 700h100l-195 -300h-40zM244 645h-170v55h240v-55l-150 -295h-70zM450 -5q-30 0 -54 8.5t-41 23t-26 33.5t-9 40q0 30 14.5 54.5t40.5 35.5q-4 2 -11.5 7.5t-15 14.5t-13 21t-5.5 27q0 38 31.5 66.5t88.5 28.5t88.5 -28.5t31.5 -66.5
q0 -15 -5.5 -27t-13 -21t-15 -14.5t-11.5 -7.5q26 -11 40.5 -35.5t14.5 -54.5q0 -21 -9 -40t-26 -33.5t-41 -23t-54 -8.5zM450 50q34 0 52 16t18 39t-18 39t-52 16t-52 -16t-18 -39t18 -39t52 -16zM450 210q30 0 45 13t15 32t-15 32t-45 13t-45 -13t-15 -32t15 -32t45 -13z
" />
    <glyph glyph-name="arrowleft" unicode="&#x2190;" 
d="M45 345v5l170 170l50 -50l-85 -85h365v-75h-365l85 -85l-50 -50z" />
    <glyph glyph-name="arrowup" unicode="&#x2191;" 
d="M260 415l-85 -85l-50 50l170 170h5l170 -170l-50 -50l-85 85v-415h-75v415z" />
    <glyph glyph-name="arrowright" unicode="&#x2192;" 
d="M325 225l85 85h-365v75h365l-85 85l50 50l170 -170v-5l-170 -170z" />
    <glyph glyph-name="arrowdown" unicode="&#x2193;" 
d="M125 170l50 50l85 -85v415h75v-415l85 85l50 -50l-170 -170h-5z" />
    <glyph glyph-name="arrowboth" unicode="&#x2194;" 
d="M-15 345v5l170 170l50 -50l-85 -85h360l-85 85l50 50l170 -170v-5l-170 -170l-50 50l85 85h-360l85 -85l-50 -50z" />
    <glyph glyph-name="arrowupdn" unicode="&#x2195;" 
d="M125 170l50 50l85 -85v360l-85 -85l-50 50l170 170h5l170 -170l-50 -50l-85 85v-360l85 85l50 -50l-170 -170h-5z" />
    <glyph glyph-name="uni2196" unicode="&#x2196;" 
d="M160 296v-120h-70v241l3 3h241v-70h-122l298 -297l-53 -53z" />
    <glyph glyph-name="uni2197" unicode="&#x2197;" 
d="M90 53l298 297h-122v70h241l3 -3v-241h-70v120l-297 -296z" />
    <glyph glyph-name="uni2198" unicode="&#x2198;" 
d="M266 70h122l-298 297l53 53l297 -296v120h70v-241l-3 -3h-241v70z" />
    <glyph glyph-name="uni2199" unicode="&#x2199;" 
d="M90 3v241h70v-120l297 296l53 -53l-298 -297h122v-70h-241z" />
    <glyph glyph-name="partialdiff" unicode="&#x2202;" 
d="M290 -10q-49 0 -88.5 15.5t-67.5 45t-43.5 72.5t-15.5 97t15 97t42.5 72.5t65 45t82.5 15.5q49 0 90 -15.5t75 -49.5h5q0 56 -11 104t-32.5 82.5t-53.5 54t-73 19.5q-21 0 -36 -6t-26.5 -15t-19 -19.5t-13.5 -19.5h-75q7 24 21.5 47t35.5 40t49 27.5t64 10.5
q113 0 176.5 -89.5t63.5 -270.5q0 -184 -60.5 -272t-169.5 -88zM290 55q32 0 60 14t49 42.5t33.5 72t12.5 101.5q-14 28 -36 50q-19 19 -48 34.5t-71 15.5q-64 0 -102 -39t-38 -126q0 -79 40 -122t100 -43z" />
    <glyph glyph-name="emptyset" unicode="&#x2205;" 
d="M100 80q-38 45 -59 112t-21 158q0 90 21 157.5t58.5 112.5t89 67.5t111.5 22.5q78 0 140 -38l30 53h90l-60 -105q38 -45 59 -112t21 -158q0 -90 -21.5 -157.5t-59 -112.5t-88.5 -67.5t-111 -22.5q-39 0 -74.5 9t-65.5 28l-30 -52h-90zM300 65q45 0 82 15.5t63 50
t40.5 88.5t14.5 131q0 66 -11 115t-31 83l-261 -456q22 -14 48 -20.5t55 -6.5zM403 608q-44 27 -103 27q-45 0 -82 -15.5t-63 -50t-40.5 -88.5t-14.5 -131q0 -66 10.5 -115t30.5 -83z" />
    <glyph glyph-name="uni2206" unicode="&#x2206;" 
d="M250 700h100l240 -700h-580zM490 65l-190 555l-190 -555h380z" />
    <glyph glyph-name="product" unicode="&#x220f;" 
d="M55 700h490v-810h-75v745h-340v-745h-75v810z" />
    <glyph glyph-name="summation" unicode="&#x2211;" 
d="M70 -35l235 350l-235 310v75h470v-65h-390l240 -320l-240 -360h390v-65h-470v75z" />
    <glyph glyph-name="minus" unicode="&#x2212;" 
d="M60 335h480v-60h-480v60z" />
    <glyph glyph-name="radical" unicode="&#x221a;" 
d="M137 155h-102v65h155l72 -240h5l218 745h75l-245 -835h-95z" />
    <glyph glyph-name="infinity" unicode="&#x221e;" 
d="M165 185q-30 0 -56.5 11t-46 32t-31 52t-11.5 70t11.5 70t31 52t46 32t56.5 11q42 0 77 -28.5t58 -81.5q23 53 58 81.5t77 28.5q30 0 56.5 -11t46 -32t31 -52t11.5 -70t-11.5 -70t-31 -52t-46 -32t-56.5 -11q-42 0 -77 28.5t-58 81.5q-23 -53 -58 -81.5t-77 -28.5z
M165 255q34 0 55.5 23t44.5 72q-23 49 -44.5 72t-55.5 23q-30 0 -52.5 -25t-22.5 -70t22.5 -70t52.5 -25zM435 255q30 0 52.5 25t22.5 70t-22.5 70t-52.5 25q-34 0 -55.5 -23t-44.5 -72q23 -49 44.5 -72t55.5 -23z" />
    <glyph glyph-name="integral" unicode="&#x222b;" 
d="M165 -40h10q30 0 48.5 7t29 21.5t14 37t3.5 54.5v540q0 101 36 145.5t119 44.5h10v-70h-5q-30 0 -48.5 -7t-29 -21.5t-14 -37t-3.5 -54.5v-540q0 -101 -36.5 -145.5t-118.5 -44.5h-15v70z" />
    <glyph glyph-name="approxequal" unicode="&#x2248;" 
d="M85 150q0 60 36.5 92.5t93.5 32.5q32 0 55.5 -10t42.5 -22.5t36 -22.5t36 -10q26 0 45.5 15.5t19.5 49.5h65q0 -60 -36.5 -92.5t-93.5 -32.5q-32 0 -55.5 10t-42.5 22.5t-36 22.5t-36 10q-26 0 -45.5 -15.5t-19.5 -49.5h-65zM85 335q0 60 36.5 92.5t93.5 32.5
q32 0 55.5 -10t42.5 -22.5t36 -22.5t36 -10q26 0 45.5 15.5t19.5 49.5h65q0 -60 -36.5 -92.5t-93.5 -32.5q-32 0 -55.5 10t-42.5 22.5t-36 22.5t-36 10q-26 0 -45.5 -15.5t-19.5 -49.5h-65z" />
    <glyph glyph-name="notequal" unicode="&#x2260;" 
d="M209 175h-149v60h175l60 135h-235v60h261l44 100h70l-44 -100h149v-60h-175l-60 -135h235v-60h-261l-44 -100h-70z" />
    <glyph glyph-name="lessequal" unicode="&#x2264;" 
d="M90 60h420v-60h-420v60zM90 275v70l420 180v-70l-345 -145l345 -145v-70z" />
    <glyph glyph-name="greaterequal" unicode="&#x2265;" 
d="M90 60h420v-60h-420v60zM90 165l345 145l-345 145v70l420 -180v-70l-420 -180v70z" />
    <glyph glyph-name="uni2318" unicode="&#x2318;" 
d="M140 -5q-53 0 -86.5 33.5t-33.5 86.5q0 57 33 88.5t97 31.5h55v80h-55q-64 0 -97 31.5t-33 88.5q0 53 33.5 86.5t86.5 33.5q57 0 91 -35t34 -95v-55h70v55q0 60 34 95t91 35q53 0 86.5 -33.5t33.5 -86.5q0 -57 -33 -88.5t-97 -31.5h-55v-80h55q64 0 97 -31.5t33 -88.5
q0 -53 -33.5 -86.5t-86.5 -33.5q-57 0 -91 35t-34 95v55h-70v-55q0 -60 -34 -95t-91 -35zM140 55q30 0 47.5 17.5t17.5 47.5v60h-60q-30 0 -47.5 -17.5t-17.5 -47.5q0 -26 17 -43t43 -17zM205 370v60q0 30 -17.5 47.5t-47.5 17.5q-26 0 -43 -17t-17 -43q0 -30 17.5 -47.5
t47.5 -17.5h60zM460 55q26 0 43 17t17 43q0 30 -17.5 47.5t-47.5 17.5h-60v-60q0 -30 17.5 -47.5t47.5 -17.5zM455 370q30 0 47.5 17.5t17.5 47.5q0 26 -17 43t-43 17q-30 0 -47.5 -17.5t-17.5 -47.5v-60h60zM335 235v80h-70v-80h70z" />
    <glyph glyph-name="lozenge" unicode="&#x25ca;" 
d="M55 350l225 350h40l225 -350l-225 -350h-40zM465 350l-165 260l-165 -260l165 -260z" />
    <glyph glyph-name="uni2E18" unicode="&#x2e18;" 
d="M310 -210q-49 0 -87 13.5t-64.5 37.5t-40 57t-13.5 72q0 42 12 70.5t30.5 49t40 35.5t40 32t30.5 38.5t12 54.5v50h80v-435q41 11 61.5 40.5t23.5 69.5h80q-8 -91 -63 -138t-142 -47zM270 105q-16 -13 -31 -25.5t-27 -28t-19.5 -35t-7.5 -46.5q0 -37 22 -65.5t63 -39.5
v240zM310 395q-23 0 -39 16t-16 39t16 39t39 16t39 -16t16 -39t-16 -39t-39 -16z" />
    <glyph glyph-name="uniF6D1" unicode="&#xf6d1;" 
d="M300 775q-28 0 -53.5 7t-46 22.5t-33.5 40t-17 60.5h70q4 -38 27 -54t53 -16t53 16t27 54h70q-4 -36 -17 -60.5t-33.5 -40t-46 -22.5t-53.5 -7z" />
    <glyph glyph-name="uniF6D4" unicode="&#xf6d4;" 
d="M300 600q-53 0 -92.5 29t-47.5 101h70q8 -70 70 -70t70 70h70q-8 -72 -47.5 -101t-92.5 -29z" />
    <glyph glyph-name="uniF730" unicode="&#xf730;" 
d="M300 -10q-56 0 -104 20t-82.5 59t-54 96t-19.5 130t19.5 130t54 96t82.5 59t104 20t104 -20t82.5 -59t54 -96t19.5 -130t-19.5 -130t-54 -96t-82.5 -59t-104 -20zM363 524q-31 11 -63 11q-39 0 -74 -15.5t-60.5 -46t-40.5 -75.5t-15 -103q0 -60 16.5 -108.5t45.5 -78.5z
M300 55q39 0 74 15.5t60.5 46t40.5 75.5t15 103q0 62 -18 111t-47 79l-192 -418q31 -12 67 -12z" />
    <glyph glyph-name="uniF731" unicode="&#xf731;" 
d="M105 70h175v360h-130v70h85q45 0 45 45v45h75v-520h170v-70h-420v70z" />
    <glyph glyph-name="uniF732" unicode="&#xf732;" 
d="M85 70l250 185q52 37 73.5 71t21.5 79q0 57 -36 91t-104 34q-30 0 -53.5 -8.5t-40.5 -23t-27 -33.5t-14 -40h-75q4 36 20.5 67.5t43.5 55.5t64 38t82 14q49 0 88.5 -15t67.5 -42t43.5 -63.5t15.5 -79.5q0 -60 -27 -105t-83 -85l-190 -140h290v-70h-410v70z" />
    <glyph glyph-name="uniF733" unicode="&#xf733;" 
d="M295 -120q-43 0 -81 12t-67.5 35.5t-49.5 58t-27 79.5h75q15 -57 54 -86t96 -29q68 0 106.5 35t38.5 95t-37.5 95t-112.5 35h-40v70h40q68 0 104 34t36 91t-36 91t-104 34q-57 0 -92 -28t-43 -77h-75q6 39 23 71.5t44.5 55.5t63.5 35.5t79 12.5q51 0 90.5 -14.5t67.5 -40
t42.5 -61.5t14.5 -79q0 -57 -30 -96.5t-75 -58.5q24 -8 45 -24t36.5 -38t24.5 -48.5t9 -54.5q0 -45 -15.5 -82.5t-44 -65t-69 -42.5t-91.5 -15z" />
    <glyph glyph-name="uniF734" unicode="&#xf734;" 
d="M375 40h-330v70l295 480h110v-480h95v-70h-95v-150h-75v150zM375 110v390h-5l-240 -390h245z" />
    <glyph glyph-name="uniF735" unicode="&#xf735;" 
d="M300 -120q-39 0 -75 12t-65.5 35.5t-51.5 58t-33 79.5h80q6 -26 19.5 -47.5t32.5 -36.5t43 -23t50 -8q34 0 62.5 11.5t49 33.5t32 52t11.5 68q0 39 -13 70t-34.5 52t-49.5 32t-58 11q-38 0 -73.5 -18.5t-61.5 -56.5h-75l35 385h375v-70h-310l-20 -220h5q26 23 56 36.5
t79 13.5t89.5 -16.5t69.5 -47t45 -74t16 -97.5q0 -53 -17 -96t-47.5 -74t-72.5 -48t-93 -17z" />
    <glyph glyph-name="uniF736" unicode="&#xf736;" 
d="M300 -10q-49 0 -91 17t-73 49t-48.5 77.5t-17.5 101.5q0 49 14 104.5t56 120.5q19 29 45 70.5t49 79.5q27 44 56 90h85l-188 -290h5q21 19 52.5 29.5t65.5 10.5q47 0 87 -17t69.5 -47.5t46.5 -72.5t17 -93q0 -49 -17.5 -91t-48.5 -73t-73 -48.5t-91 -17.5zM300 60
q34 0 62.5 11.5t49 32.5t32 50.5t11.5 65.5t-11.5 65.5t-32 50.5t-49 32.5t-62.5 11.5t-62.5 -11.5t-49 -32.5t-32 -50.5t-11.5 -65.5t11.5 -65.5t32 -50.5t49 -32.5t62.5 -11.5z" />
    <glyph glyph-name="uniF737" unicode="&#xf737;" 
d="M435 520h-360v70h445v-70l-280 -630h-85z" />
    <glyph glyph-name="uniF738" unicode="&#xf738;" 
d="M300 -10q-53 0 -94.5 15t-70.5 42.5t-44.5 65t-15.5 82.5q0 32 10.5 59t27 48t38 35.5t44.5 22.5q-15 7 -33.5 19.5t-34 31.5t-26.5 44.5t-11 59.5q0 41 15 76.5t43 62t66.5 41.5t85.5 15t85.5 -15t66.5 -41.5t43 -62t15 -76.5q0 -34 -11 -59.5t-26.5 -44.5t-34 -31.5
t-33.5 -19.5q22 -8 44 -22.5t38.5 -35.5t27 -48t10.5 -59q0 -45 -15.5 -82.5t-44.5 -65t-71 -42.5t-94 -15zM300 60q72 0 111 37.5t39 97.5t-39 97.5t-111 37.5t-111 -37.5t-39 -97.5t39 -97.5t111 -37.5zM300 395q64 0 99.5 31.5t35.5 88.5t-35.5 91t-99.5 34t-99.5 -34
t-35.5 -91t35.5 -88.5t99.5 -31.5z" />
    <glyph glyph-name="uniF739" unicode="&#xf739;" 
d="M413 180h-5q-21 -19 -52.5 -29.5t-65.5 -10.5q-47 0 -87 17t-69.5 47.5t-46.5 72.5t-17 93q0 49 17.5 91t48.5 73t73 48.5t91 17.5t91 -17t73 -49t48.5 -77.5t17.5 -101.5q0 -49 -14 -104.5t-56 -120.5q-20 -30 -45.5 -71t-48.5 -79q-27 -44 -56 -90h-85zM300 210
q34 0 62.5 11.5t49 32.5t32 50.5t11.5 65.5t-11.5 65.5t-32 50.5t-49 32.5t-62.5 11.5t-62.5 -11.5t-49 -32.5t-32 -50.5t-11.5 -65.5t11.5 -65.5t32 -50.5t49 -32.5t62.5 -11.5z" />
    <glyph glyph-name="one.alt" 
d="M105 75h170v525l-145 -65v85l175 80h55v-625h170v-75h-425v75z" />
    <glyph glyph-name="six.alt" 
d="M310 -10q-128 0 -191.5 87.5t-63.5 272.5q0 177 66.5 268.5t198.5 91.5q83 0 144.5 -50.5t80.5 -144.5h-85q-15 53 -51 86.5t-89 33.5q-94 0 -139.5 -71.5t-45.5 -203.5h5q60 90 180 90q47 0 88.5 -15.5t73 -45t50 -72.5t18.5 -97q0 -51 -17 -93t-48.5 -72.5t-76 -47.5
t-98.5 -17zM310 65q34 0 62.5 12t49 32.5t32 48.5t11.5 62t-11.5 62.5t-32 49t-49 32t-62.5 11.5t-62.5 -11.5t-49 -32t-32 -49t-11.5 -62.5t11.5 -62t32 -48.5t49 -32.5t62.5 -12z" />
    <glyph glyph-name="nine.alt" 
d="M280 -10q-83 0 -144.5 50.5t-80.5 144.5h85q15 -53 51 -86.5t89 -33.5q94 0 139.5 71.5t45.5 203.5h-5q-60 -90 -180 -90q-47 0 -88.5 15.5t-73 45t-50 72.5t-18.5 97q0 51 17 93t48.5 72.5t76 47.5t98.5 17q128 0 191.5 -87.5t63.5 -272.5q0 -177 -66.5 -268.5
t-198.5 -91.5zM290 325q34 0 62.5 11.5t49 32t32 49t11.5 62.5t-11.5 62t-32 48.5t-49 32.5t-62.5 12t-62.5 -12t-49 -32.5t-32 -48.5t-11.5 -62t11.5 -62.5t32 -49t49 -32t62.5 -11.5z" />
    <glyph glyph-name="J.alt" 
d="M120 75h175q24 0 46 10t38.5 28t26 44t9.5 58v410h-250v75h335v-485q0 -102 -55.5 -158.5t-149.5 -56.5h-175v75z" />
    <glyph glyph-name="a.alt" 
d="M275 -10q-45 0 -82.5 16t-65 49.5t-42.5 84.5t-15 120t15 120t42.5 84.5t65 49.5t82.5 16q49 0 86.5 -21t63.5 -59h5l10 70h60v-520h-60l-10 70h-5q-26 -38 -63.5 -59t-86.5 -21zM285 60q28 0 53.5 12.5t44.5 37t30.5 62t11.5 88.5t-11.5 88.5t-30.5 62t-44.5 37
t-53.5 12.5t-53.5 -12.5t-44.5 -37t-30.5 -62t-11.5 -88.5t11.5 -88.5t30.5 -62t44.5 -37t53.5 -12.5z" />
    <glyph glyph-name="l.alt" 
d="M370 0q-60 0 -97.5 38t-37.5 102v490h-120v70h195v-555q0 -34 20 -54.5t50 -20.5h80v-70h-90v0z" />
    <glyph glyph-name="y.alt" 
d="M295 -200q-68 0 -117.5 34t-72.5 91h85q15 -26 43 -40.5t62 -14.5q60 0 95 36t35 104v55h-5q-11 -21 -27.5 -35t-34.5 -23t-37 -13t-36 -4q-83 0 -134 54t-51 156v320h75v-320q0 -68 33.5 -104t86.5 -36q28 0 52 11.5t41 30.5t27 44.5t10 53.5v320h75v-510
q0 -98 -55.5 -154t-149.5 -56z" />
    <glyph glyph-name="uni00B9.alt" 
d="M170 525h105v225l-95 -45v65l105 50h50v-295h100v-55h-265v55z" />
    <glyph glyph-name="agrave.alt" 
d="M275 -10q-45 0 -82.5 16t-65 49.5t-42.5 84.5t-15 120t15 120t42.5 84.5t65 49.5t82.5 16q49 0 86.5 -21t63.5 -59h5l10 70h60v-520h-60l-10 70h-5q-26 -38 -63.5 -59t-86.5 -21zM285 60q28 0 53.5 12.5t44.5 37t30.5 62t11.5 88.5t-11.5 88.5t-30.5 62t-44.5 37
t-53.5 12.5t-53.5 -12.5t-44.5 -37t-30.5 -62t-11.5 -88.5t11.5 -88.5t30.5 -62t44.5 -37t53.5 -12.5zM135 740h95l90 -140h-70z" />
    <glyph glyph-name="aacute.alt" 
d="M275 -10q-45 0 -82.5 16t-65 49.5t-42.5 84.5t-15 120t15 120t42.5 84.5t65 49.5t82.5 16q49 0 86.5 -21t63.5 -59h5l10 70h60v-520h-60l-10 70h-5q-26 -38 -63.5 -59t-86.5 -21zM285 60q28 0 53.5 12.5t44.5 37t30.5 62t11.5 88.5t-11.5 88.5t-30.5 62t-44.5 37
t-53.5 12.5t-53.5 -12.5t-44.5 -37t-30.5 -62t-11.5 -88.5t11.5 -88.5t30.5 -62t44.5 -37t53.5 -12.5zM340 740h95l-115 -140h-70z" />
    <glyph glyph-name="acircumflex.alt" 
d="M275 -10q-45 0 -82.5 16t-65 49.5t-42.5 84.5t-15 120t15 120t42.5 84.5t65 49.5t82.5 16q49 0 86.5 -21t63.5 -59h5l10 70h60v-520h-60l-10 70h-5q-26 -38 -63.5 -59t-86.5 -21zM285 60q28 0 53.5 12.5t44.5 37t30.5 62t11.5 88.5t-11.5 88.5t-30.5 62t-44.5 37
t-53.5 12.5t-53.5 -12.5t-44.5 -37t-30.5 -62t-11.5 -88.5t11.5 -88.5t30.5 -62t44.5 -37t53.5 -12.5zM270 745h65l130 -145h-80l-80 90h-5l-80 -90h-80z" />
    <glyph glyph-name="atilde.alt" 
d="M275 -10q-45 0 -82.5 16t-65 49.5t-42.5 84.5t-15 120t15 120t42.5 84.5t65 49.5t82.5 16q49 0 86.5 -21t63.5 -59h5l10 70h60v-520h-60l-10 70h-5q-26 -38 -63.5 -59t-86.5 -21zM285 60q28 0 53.5 12.5t44.5 37t30.5 62t11.5 88.5t-11.5 88.5t-30.5 62t-44.5 37
t-53.5 12.5t-53.5 -12.5t-44.5 -37t-30.5 -62t-11.5 -88.5t11.5 -88.5t30.5 -62t44.5 -37t53.5 -12.5zM355 610q-21 0 -38 8t-31.5 17t-27 17t-23.5 8q-15 0 -22.5 -13t-7.5 -32h-70q0 45 22.5 75t67.5 30q21 0 38 -8t31.5 -17t27 -17t23.5 -8q15 0 22.5 13t7.5 32h70
q0 -45 -22.5 -75t-67.5 -30z" />
    <glyph glyph-name="adieresis.alt" 
d="M275 -10q-45 0 -82.5 16t-65 49.5t-42.5 84.5t-15 120t15 120t42.5 84.5t65 49.5t82.5 16q49 0 86.5 -21t63.5 -59h5l10 70h60v-520h-60l-10 70h-5q-26 -38 -63.5 -59t-86.5 -21zM285 60q28 0 53.5 12.5t44.5 37t30.5 62t11.5 88.5t-11.5 88.5t-30.5 62t-44.5 37
t-53.5 12.5t-53.5 -12.5t-44.5 -37t-30.5 -62t-11.5 -88.5t11.5 -88.5t30.5 -62t44.5 -37t53.5 -12.5zM202 610q-22 0 -37 15t-15 37t14.5 37.5t37.5 15.5q22 0 37 -15.5t15 -37.5q0 -21 -15 -36.5t-37 -15.5zM378 610q-22 0 -37.5 15t-15.5 37t15 37.5t38 15.5
q22 0 37 -15.5t15 -37.5q0 -21 -15 -36.5t-37 -15.5z" />
    <glyph glyph-name="aring.alt" 
d="M275 -10q-45 0 -82.5 16t-65 49.5t-42.5 84.5t-15 120t15 120t42.5 84.5t65 49.5t82.5 16q49 0 86.5 -21t63.5 -59h5l10 70h60v-520h-60l-10 70h-5q-26 -38 -63.5 -59t-86.5 -21zM285 60q28 0 53.5 12.5t44.5 37t30.5 62t11.5 88.5t-11.5 88.5t-30.5 62t-44.5 37
t-53.5 12.5t-53.5 -12.5t-44.5 -37t-30.5 -62t-11.5 -88.5t11.5 -88.5t30.5 -62t44.5 -37t53.5 -12.5zM297 585q-42 0 -69.5 26.5t-27.5 70.5t27 71t70 27q44 0 71 -27t27 -71t-28 -70.5t-70 -26.5zM297 635q23 0 35.5 12.5t12.5 34.5q0 21 -11.5 34.5t-36.5 13.5
q-24 0 -35.5 -13.5t-11.5 -34.5q0 -22 12 -34.5t35 -12.5z" />
    <glyph glyph-name="yacute.alt" 
d="M295 -200q-68 0 -117.5 34t-72.5 91h85q15 -26 43 -40.5t62 -14.5q60 0 95 36t35 104v55h-5q-11 -21 -27.5 -35t-34.5 -23t-37 -13t-36 -4q-83 0 -134 54t-51 156v320h75v-320q0 -68 33.5 -104t86.5 -36q28 0 52 11.5t41 30.5t27 44.5t10 53.5v320h75v-510
q0 -98 -55.5 -154t-149.5 -56zM350 740h95l-115 -140h-70z" />
    <glyph glyph-name="ydieresis.alt" 
d="M295 -200q-68 0 -117.5 34t-72.5 91h85q15 -26 43 -40.5t62 -14.5q60 0 95 36t35 104v55h-5q-11 -21 -27.5 -35t-34.5 -23t-37 -13t-36 -4q-83 0 -134 54t-51 156v320h75v-320q0 -68 33.5 -104t86.5 -36q28 0 52 11.5t41 30.5t27 44.5t10 53.5v320h75v-510
q0 -98 -55.5 -154t-149.5 -56zM202 610q-22 0 -37 15t-15 37t14.5 37.5t37.5 15.5q22 0 37 -15.5t15 -37.5q0 -21 -15 -36.5t-37 -15.5zM378 610q-22 0 -37.5 15t-15.5 37t15 37.5t38 15.5q22 0 37 -15.5t15 -37.5q0 -21 -15 -36.5t-37 -15.5z" />
    <glyph glyph-name="amacron.alt" 
d="M275 -10q-45 0 -82.5 16t-65 49.5t-42.5 84.5t-15 120t15 120t42.5 84.5t65 49.5t82.5 16q49 0 86.5 -21t63.5 -59h5l10 70h60v-520h-60l-10 70h-5q-26 -38 -63.5 -59t-86.5 -21zM285 60q28 0 53.5 12.5t44.5 37t30.5 62t11.5 88.5t-11.5 88.5t-30.5 62t-44.5 37
t-53.5 12.5t-53.5 -12.5t-44.5 -37t-30.5 -62t-11.5 -88.5t11.5 -88.5t30.5 -62t44.5 -37t53.5 -12.5zM150 705h280v-65h-280v65z" />
    <glyph glyph-name="abreve.alt" 
d="M275 -10q-45 0 -82.5 16t-65 49.5t-42.5 84.5t-15 120t15 120t42.5 84.5t65 49.5t82.5 16q49 0 86.5 -21t63.5 -59h5l10 70h60v-520h-60l-10 70h-5q-26 -38 -63.5 -59t-86.5 -21zM285 60q28 0 53.5 12.5t44.5 37t30.5 62t11.5 88.5t-11.5 88.5t-30.5 62t-44.5 37
t-53.5 12.5t-53.5 -12.5t-44.5 -37t-30.5 -62t-11.5 -88.5t11.5 -88.5t30.5 -62t44.5 -37t53.5 -12.5zM300 600q-28 0 -53.5 7t-46 22.5t-33.5 40t-17 60.5h70q4 -38 27 -54t53 -16t53 16t27 54h70q-4 -36 -17 -60.5t-33.5 -40t-46 -22.5t-53.5 -7z" />
    <glyph glyph-name="aogonek.alt" 
d="M465 -190q-53 0 -79 24t-26 66q0 22 8 40t20 30.5t26 20t26 9.5l-10 70h-5q-26 -38 -63.5 -59t-86.5 -21q-45 0 -82.5 16t-65 49.5t-42.5 84.5t-15 120t15 120t42.5 84.5t65 49.5t82.5 16q49 0 86.5 -21t63.5 -59h5l10 70h60v-520q-42 -22 -61 -41.5t-19 -53.5
q0 -17 14.5 -28.5t40.5 -11.5h25v-55h-35zM285 60q28 0 53.5 12.5t44.5 37t30.5 62t11.5 88.5t-11.5 88.5t-30.5 62t-44.5 37t-53.5 12.5t-53.5 -12.5t-44.5 -37t-30.5 -62t-11.5 -88.5t11.5 -88.5t30.5 -62t44.5 -37t53.5 -12.5z" />
    <glyph glyph-name="uni0132.alt" 
d="M80 700h85v-580h-85v580zM80 75h235q24 0 46 10t38.5 28t26 44t9.5 58v410h-225v75h310v-485q0 -102 -55.5 -158.5t-149.5 -56.5h-235v75z" />
    <glyph glyph-name="Jcircumflex.alt" 
d="M120 75h175q24 0 46 10t38.5 28t26 44t9.5 58v410h-250v75h335v-485q0 -102 -55.5 -158.5t-149.5 -56.5h-175v75zM300 915h65l130 -145h-80l-80 90h-5l-80 -90h-80z" />
    <glyph glyph-name="lacute.alt" 
d="M370 0q-60 0 -97.5 38t-37.5 102v490h-120v70h195v-555q0 -34 20 -54.5t50 -20.5h80v-70h-90v0zM330 910h95l-115 -140h-70z" />
    <glyph glyph-name="lcommaaccent.alt" 
d="M370 0q-60 0 -97.5 38t-37.5 102v490h-120v70h195v-555q0 -34 20 -54.5t50 -20.5h80v-70h-90v0zM300 -85h85l-70 -160h-60z" />
    <glyph glyph-name="lcaron.alt" 
d="M370 0q-60 0 -97.5 38t-37.5 102v490h-120v70h195v-555q0 -34 20 -54.5t50 -20.5h80v-70h-90v0z" />
    <glyph glyph-name="ldot.alt" 
d="M370 0q-60 0 -97.5 38t-37.5 102v490h-120v70h195v-555q0 -34 20 -54.5t50 -20.5h80v-70h-90v0zM570 310q-23 0 -39 16t-16 39t16 39t39 16t39 -16t16 -39t-16 -39t-39 -16z" />
    <glyph glyph-name="lslash.alt" 
d="M370 0q-60 0 -97.5 38t-37.5 102v161l-70 -31v85l70 31v244h-120v70h195v-281l70 31v-85l-70 -31v-189q0 -34 20 -54.5t50 -20.5h80v-70h-90v0z" />
    <glyph glyph-name="ycircumflex.alt" 
d="M295 -200q-68 0 -117.5 34t-72.5 91h85q15 -26 43 -40.5t62 -14.5q60 0 95 36t35 104v55h-5q-11 -21 -27.5 -35t-34.5 -23t-37 -13t-36 -4q-83 0 -134 54t-51 156v320h75v-320q0 -68 33.5 -104t86.5 -36q28 0 52 11.5t41 30.5t27 44.5t10 53.5v320h75v-510
q0 -98 -55.5 -154t-149.5 -56zM260 745h65l130 -145h-80l-80 90h-5l-80 -90h-80z" />
    <glyph glyph-name="aringacute.alt" 
d="M297 565q-42 0 -69.5 26.5t-27.5 70.5q0 41 24 67t62 30l22 56h80l-45 -65q24 -11 38 -34t14 -54q0 -44 -28 -70.5t-70 -26.5zM297 615q23 0 35.5 12.5t12.5 34.5q0 21 -11.5 34.5t-36.5 13.5q-24 0 -35.5 -13.5t-11.5 -34.5q0 -22 12 -34.5t35 -12.5zM275 -10
q-45 0 -82.5 16t-65 49.5t-42.5 84.5t-15 120t15 120t42.5 84.5t65 49.5t82.5 16q49 0 86.5 -21t63.5 -59h5l10 70h60v-520h-60l-10 70h-5q-26 -38 -63.5 -59t-86.5 -21zM285 60q28 0 53.5 12.5t44.5 37t30.5 62t11.5 88.5t-11.5 88.5t-30.5 62t-44.5 37t-53.5 12.5
t-53.5 -12.5t-44.5 -37t-30.5 -62t-11.5 -88.5t11.5 -88.5t30.5 -62t44.5 -37t53.5 -12.5z" />
    <glyph glyph-name="uni0233.alt" 
d="M295 -200q-68 0 -117.5 34t-72.5 91h85q15 -26 43 -40.5t62 -14.5q60 0 95 36t35 104v55h-5q-11 -21 -27.5 -35t-34.5 -23t-37 -13t-36 -4q-83 0 -134 54t-51 156v320h75v-320q0 -68 33.5 -104t86.5 -36q28 0 52 11.5t41 30.5t27 44.5t10 53.5v320h75v-510
q0 -98 -55.5 -154t-149.5 -56zM160 705h280v-65h-280v65z" />
    <glyph glyph-name="uni0408.alt" 
d="M120 75h175q24 0 46 10t38.5 28t26 44t9.5 58v410h-250v75h335v-485q0 -102 -55.5 -158.5t-149.5 -56.5h-175v75z" />
    <glyph glyph-name="uni0430.alt" 
d="M275 -10q-45 0 -82.5 16t-65 49.5t-42.5 84.5t-15 120t15 120t42.5 84.5t65 49.5t82.5 16q49 0 86.5 -21t63.5 -59h5l10 70h60v-520h-60l-10 70h-5q-26 -38 -63.5 -59t-86.5 -21zM285 60q28 0 53.5 12.5t44.5 37t30.5 62t11.5 88.5t-11.5 88.5t-30.5 62t-44.5 37
t-53.5 12.5t-53.5 -12.5t-44.5 -37t-30.5 -62t-11.5 -88.5t11.5 -88.5t30.5 -62t44.5 -37t53.5 -12.5z" />
    <glyph glyph-name="uni0443.alt" 
d="M295 -200q-68 0 -117.5 34t-72.5 91h85q15 -26 43 -40.5t62 -14.5q60 0 95 36t35 104v55h-5q-11 -21 -27.5 -35t-34.5 -23t-37 -13t-36 -4q-83 0 -134 54t-51 156v320h75v-320q0 -68 33.5 -104t86.5 -36q28 0 52 11.5t41 30.5t27 44.5t10 53.5v320h75v-510
q0 -98 -55.5 -154t-149.5 -56z" />
    <glyph glyph-name="uni045E.alt" 
d="M295 -200q-68 0 -117.5 34t-72.5 91h85q15 -26 43 -40.5t62 -14.5q60 0 95 36t35 104v55h-5q-11 -21 -27.5 -35t-34.5 -23t-37 -13t-36 -4q-83 0 -134 54t-51 156v320h75v-320q0 -68 33.5 -104t86.5 -36q28 0 52 11.5t41 30.5t27 44.5t10 53.5v320h75v-510
q0 -98 -55.5 -154t-149.5 -56zM305 600q-53 0 -92.5 29t-47.5 101h70q8 -70 70 -70t70 70h70q-8 -72 -47.5 -101t-92.5 -29z" />
    <glyph glyph-name="uni04D3.alt" 
d="M275 -10q-45 0 -82.5 16t-65 49.5t-42.5 84.5t-15 120t15 120t42.5 84.5t65 49.5t82.5 16q49 0 86.5 -21t63.5 -59h5l10 70h60v-520h-60l-10 70h-5q-26 -38 -63.5 -59t-86.5 -21zM285 60q28 0 53.5 12.5t44.5 37t30.5 62t11.5 88.5t-11.5 88.5t-30.5 62t-44.5 37
t-53.5 12.5t-53.5 -12.5t-44.5 -37t-30.5 -62t-11.5 -88.5t11.5 -88.5t30.5 -62t44.5 -37t53.5 -12.5zM202 610q-22 0 -37 15t-15 37t14.5 37.5t37.5 15.5q22 0 37 -15.5t15 -37.5q0 -21 -15 -36.5t-37 -15.5zM378 610q-22 0 -37.5 15t-15.5 37t15 37.5t38 15.5
q22 0 37 -15.5t15 -37.5q0 -21 -15 -36.5t-37 -15.5z" />
    <glyph glyph-name="uni04EF.alt" 
d="M295 -200q-68 0 -117.5 34t-72.5 91h85q15 -26 43 -40.5t62 -14.5q60 0 95 36t35 104v55h-5q-11 -21 -27.5 -35t-34.5 -23t-37 -13t-36 -4q-83 0 -134 54t-51 156v320h75v-320q0 -68 33.5 -104t86.5 -36q28 0 52 11.5t41 30.5t27 44.5t10 53.5v320h75v-510
q0 -98 -55.5 -154t-149.5 -56zM160 705h280v-65h-280v65z" />
    <glyph glyph-name="uni04F1.alt" 
d="M295 -200q-68 0 -117.5 34t-72.5 91h85q15 -26 43 -40.5t62 -14.5q60 0 95 36t35 104v55h-5q-11 -21 -27.5 -35t-34.5 -23t-37 -13t-36 -4q-83 0 -134 54t-51 156v320h75v-320q0 -68 33.5 -104t86.5 -36q28 0 52 11.5t41 30.5t27 44.5t10 53.5v320h75v-510
q0 -98 -55.5 -154t-149.5 -56zM202 610q-22 0 -37 15t-15 37t14.5 37.5t37.5 15.5q22 0 37 -15.5t15 -37.5q0 -21 -15 -36.5t-37 -15.5zM378 610q-22 0 -37.5 15t-15.5 37t15 37.5t38 15.5q22 0 37 -15.5t15 -37.5q0 -21 -15 -36.5t-37 -15.5z" />
    <glyph glyph-name="ygrave.alt" 
d="M295 -200q-68 0 -117.5 34t-72.5 91h85q15 -26 43 -40.5t62 -14.5q60 0 95 36t35 104v55h-5q-11 -21 -27.5 -35t-34.5 -23t-37 -13t-36 -4q-83 0 -134 54t-51 156v320h75v-320q0 -68 33.5 -104t86.5 -36q28 0 52 11.5t41 30.5t27 44.5t10 53.5v320h75v-510
q0 -98 -55.5 -154t-149.5 -56zM145 740h95l90 -140h-70z" />
    <glyph glyph-name="uni2076.alt" 
d="M300 465q-57 0 -93.5 41t-36.5 124q0 54 9 91.5t26.5 60.5t42.5 33t57 10q49 0 78 -27.5t37 -72.5h-65q-4 23 -19.5 34t-35.5 11q-62 0 -70 -85h5q8 7 19 12q9 5 23 9t33 4q21 0 42 -7t38.5 -21.5t28.5 -37t11 -54.5q0 -26 -10 -49t-27 -40t-41 -26.5t-52 -9.5zM300 520
q30 0 50 20t20 50t-20 50t-50 20t-50 -20t-20 -50t20 -50t50 -20z" />
    <glyph glyph-name="uni2079.alt" 
d="M295 465q-49 0 -78 27.5t-37 72.5h65q4 -23 19.5 -34t35.5 -11q62 0 70 85h-5q-8 -8 -19 -13q-10 -5 -23.5 -8.5t-32.5 -3.5q-21 0 -42 7t-38.5 21.5t-28.5 37t-11 54.5q0 26 10 49t27 40t41 26.5t52 9.5q57 0 93.5 -41t36.5 -124q0 -54 -9 -91.5t-26.5 -60.5t-42.5 -33
t-57 -10zM300 630q30 0 50 20t20 50t-20 50t-50 20t-50 -20t-20 -50t20 -50t50 -20z" />
    <glyph glyph-name="uni2081.alt" 
d="M170 -65h105v225l-95 -45v65l105 50h50v-295h100v-55h-265v55z" />
    <glyph glyph-name="uni2086.alt" 
d="M300 -125q-57 0 -93.5 41t-36.5 124q0 54 9 91.5t26.5 60.5t42.5 33t57 10q49 0 78 -27.5t37 -72.5h-65q-4 23 -19.5 34t-35.5 11q-62 0 -70 -85h5q8 7 19 12q9 5 23 9t33 4q21 0 42 -7t38.5 -21.5t28.5 -37t11 -54.5q0 -26 -10 -49t-27 -40t-41 -26.5t-52 -9.5zM300 -70
q30 0 50 20t20 50t-20 50t-50 20t-50 -20t-20 -50t20 -50t50 -20z" />
    <glyph glyph-name="uni2089.alt" 
d="M295 -125q-49 0 -78 27.5t-37 72.5h65q4 -23 19.5 -34t35.5 -11q62 0 70 85h-5q-8 -8 -19 -13q-10 -5 -23.5 -8.5t-32.5 -3.5q-21 0 -42 7t-38.5 21.5t-28.5 37t-11 54.5q0 26 10 49t27 40t41 26.5t52 9.5q57 0 93.5 -41t36.5 -124q0 -54 -9 -91.5t-26.5 -60.5t-42.5 -33
t-57 -10zM300 40q30 0 50 20t20 50t-20 50t-50 20t-50 -20t-20 -50t20 -50t50 -20z" />
    <glyph glyph-name="uniF731.alt" 
d="M105 70h175v425l-140 -65v80l170 80h45v-520h170v-70h-420v70z" />
    <glyph glyph-name="uniF736.alt" 
d="M305 -10q-60 0 -106 19.5t-76.5 63t-46.5 111.5t-16 166q0 180 67 270t183 90q83 0 137.5 -46.5t77.5 -133.5h-85q-19 57 -50 83.5t-80 26.5q-38 0 -70 -15.5t-55 -49.5t-36.5 -87t-13.5 -128h5q30 45 72.5 67.5t102.5 22.5q47 0 87 -16.5t69.5 -46.5t46.5 -72.5
t17 -94.5q0 -51 -17 -93t-47.5 -72.5t-72.5 -47.5t-93 -17zM305 60q34 0 62.5 11.5t49 32.5t32 50.5t11.5 65.5t-11.5 65.5t-32 50.5t-49 32.5t-62.5 11.5t-62.5 -11.5t-49 -32.5t-32 -50.5t-11.5 -65.5t11.5 -65.5t32 -50.5t49 -32.5t62.5 -11.5z" />
    <glyph glyph-name="uniF739.alt" 
d="M290 -120q-83 0 -137.5 46.5t-77.5 133.5h85q19 -57 50 -83.5t80 -26.5q37 0 69.5 15.5t55.5 49.5t36.5 87t13.5 128h-5q-30 -45 -72.5 -67.5t-102.5 -22.5q-47 0 -87 16t-69.5 46t-46.5 72.5t-17 95.5q0 51 17 93t47.5 72.5t72.5 47.5t93 17q60 0 106 -19.5t76.5 -63
t46.5 -112t16 -165.5q0 -180 -67 -270t-183 -90zM295 210q34 0 62.5 11.5t49 32.5t32 50.5t11.5 65.5t-11.5 65.5t-32 50.5t-49 32.5t-62.5 11.5t-62.5 -11.5t-49 -32.5t-32 -50.5t-11.5 -65.5t11.5 -65.5t32 -50.5t49 -32.5t62.5 -11.5z" />
    <glyph glyph-name="uni0492.balt" 
d="M105 700h405v-75h-320v-245h240v-75h-240v-305h-85v700z" />
    <glyph glyph-name="uni0493.balt" 
d="M130 520h355v-70h-280v-160h230v-70h-230v-220h-75v520z" />
    <glyph glyph-name="uni04AA.balt" 
d="M245 -155h50q40 0 40 40q0 15 -10.5 25t-29.5 10h-40v35l16 37q-49 5 -90.5 28.5t-71.5 67.5t-47 109t-17 153q0 94 19.5 162t53.5 112t81 65t101 21q91 0 150 -50.5t86 -144.5h-85q-20 57 -57 88.5t-94 31.5q-36 0 -67 -15t-54 -49t-36 -88t-13 -133t13 -133.5t36 -88
t54 -48.5t67 -15q57 0 99 36t61 119h85q-13 -60 -35.5 -102t-51 -69t-61.5 -40.5t-66 -16.5l-11 -27q34 -4 54.5 -27t20.5 -53q0 -42 -26 -66t-64 -24h-60v50z" />
    <glyph glyph-name="uni04AB.balt" 
d="M250 -155h50q40 0 40 40q0 15 -10.5 25t-29.5 10h-40v35l16 38q-42 6 -78 26.5t-62.5 54.5t-41 81t-14.5 105q0 64 17.5 114t48.5 84.5t73 53t91 18.5q39 0 72 -11.5t58 -31t43 -46t27 -56.5h-75q-6 13 -17 26.5t-27 24t-36.5 17.5t-44.5 7q-32 0 -60 -13t-49 -38.5
t-33.5 -62.5t-12.5 -86t12.5 -86t33.5 -62.5t49 -38.5t60 -13q24 0 44.5 7t36.5 17.5t27 24t17 26.5h75q-17 -55 -61 -95.5t-113 -47.5l-11 -27q34 -4 54.5 -27t20.5 -53q0 -42 -26 -66t-64 -24h-60v50z" />
    <glyph glyph-name="parenleft.case" 
d="M355 -120q-60 87 -95 206t-35 259t35 259t95 206h80q-60 -87 -95 -206t-35 -259t35 -259t95 -206h-80v0z" />
    <glyph glyph-name="parenright.case" 
d="M165 -120q60 87 95 206t35 259t-35 259t-95 206h80q60 -87 95 -206t35 -259t-35 -259t-95 -206h-80v0z" />
    <glyph glyph-name="hyphen.case" 
d="M150 380h300v-70h-300v70z" />
    <glyph glyph-name="colon.case" 
d="M305 75q-23 0 -39 16t-16 39t16 39t39 16t39 -16t16 -39t-16 -39t-39 -16zM305 495q-23 0 -39 16t-16 39t16 39t39 16t39 -16t16 -39t-16 -39t-39 -16z" />
    <glyph glyph-name="at.case" 
d="M305 -25q-60 0 -113 24t-92 72t-62 119t-23 165q0 96 22 167t60.5 118.5t90.5 71t112 23.5t112 -23.5t90.5 -70.5t60.5 -117t22 -164q0 -106 -33.5 -160.5t-85.5 -54.5q-26 0 -42.5 9.5t-24.5 20.5q-11 13 -14 30h-5q-19 -30 -48 -45t-52 -15q-28 0 -52.5 11.5t-43 36
t-29 62t-10.5 90.5q0 52 10.5 90t28.5 62.5t41.5 36t49.5 11.5q23 0 47.5 -9.5t47.5 -35.5h5l10 50h45v-279q0 -31 8.5 -48.5t27.5 -17.5q11 0 21 7.5t17.5 25t11.5 47.5t4 75q0 79 -18 138t-48.5 98.5t-70.5 59t-83 19.5t-83 -20t-70.5 -59.5t-48.5 -99.5t-18 -141
q0 -83 18.5 -143t49 -99.5t71.5 -58.5t86 -19h85v-60h-85zM290 200q17 0 31.5 7t25.5 24t17 45t6 69t-6 69t-17 45t-25.5 24t-31.5 7t-31.5 -7t-25.5 -24t-17 -45t-6 -69t6 -69t17 -45t25.5 -24t31.5 -7z" />
    <glyph glyph-name="bracketleft.case" 
d="M225 810h200v-75h-120v-780h120v-75h-200v930z" />
    <glyph glyph-name="bracketright.case" 
d="M175 -45h120v780h-120v75h200v-930h-200v75z" />
    <glyph glyph-name="braceleft.case" 
d="M370 -120q-24 0 -45 9t-36.5 24.5t-24.5 36.5t-9 45v245q0 30 -19.5 47.5t-45.5 17.5v80q26 0 45.5 17.5t19.5 47.5v245q0 24 9 45t24.5 36.5t36.5 24.5t45 9h55v-75h-50q-40 0 -40 -40v-245q0 -45 -23.5 -70.5t-61.5 -29.5v-10q38 -4 61.5 -29.5t23.5 -70.5v-245
q0 -40 40 -40h50v-75h-55v0z" />
    <glyph glyph-name="braceright.case" 
d="M175 -45h50q40 0 40 40v245q0 45 23.5 70.5t61.5 29.5v10q-38 4 -61.5 29.5t-23.5 70.5v245q0 40 -40 40h-50v75h55q24 0 45 -9t36.5 -24.5t24.5 -36.5t9 -45v-245q0 -30 19.5 -47.5t45.5 -17.5v-80q-26 0 -45.5 -17.5t-19.5 -47.5v-245q0 -24 -9 -45t-24.5 -36.5
t-36.5 -24.5t-45 -9h-55v75z" />
    <glyph glyph-name="exclamdown.case" 
d="M255 50l15 450h60l15 -450v-50h-90v50zM300 595q-23 0 -39 16t-16 39t16 39t39 16t39 -16t16 -39t-16 -39t-39 -16z" />
    <glyph glyph-name="guillemotleft.case" 
d="M85 345l150 235h95l-150 -232v-6l150 -232h-95zM255 345l150 235h95l-150 -232v-6l150 -232h-95z" />
    <glyph glyph-name="periodcentered.case" 
d="M300 290q-23 0 -39 16t-16 39t16 39t39 16t39 -16t16 -39t-16 -39t-39 -16z" />
    <glyph glyph-name="guillemotright.case" 
d="M250 342v6l-150 232h95l150 -235l-150 -235h-95zM420 342v6l-150 232h95l150 -235l-150 -235h-95z" />
    <glyph glyph-name="questiondown.case" 
d="M310 -5q-49 0 -87 13.5t-64.5 37.5t-40 57t-13.5 72q0 42 12 70.5t30.5 49t40 35.5t40 32t30.5 38.5t12 54.5v50h80v-50q0 -40 -12 -66.5t-30.5 -46t-40 -35t-40 -33.5t-30.5 -41t-12 -58q0 -49 32.5 -79.5t92.5 -30.5t90.5 33t34.5 82h80q-8 -91 -63 -138t-142 -47z
M310 595q-23 0 -39 16t-16 39t16 39t39 16t39 -16t16 -39t-16 -39t-39 -16z" />
    <glyph glyph-name="endash.case" 
d="M120 380h360v-70h-360v70z" />
    <glyph glyph-name="emdash.case" 
d="M65 380h470v-70h-470v70z" />
    <glyph glyph-name="bullet.case" 
d="M300 270q-38 0 -64 26t-26 64t26 64t64 26t64 -26t26 -64t-26 -64t-64 -26z" />
    <glyph glyph-name="guilsinglleft.case" 
d="M170 345l150 235h95l-150 -232v-6l150 -232h-95z" />
    <glyph glyph-name="guilsinglright.case" 
d="M335 342v6l-150 232h95l150 -235l-150 -235h-95z" />
    <glyph glyph-name="uni2E18.case" 
d="M310 -5q-49 0 -87 13.5t-64.5 37.5t-40 57t-13.5 72q0 42 12 70.5t30.5 49t40 35.5t40 32t30.5 38.5t12 54.5v50h80v-435q41 11 61.5 40.5t23.5 69.5h80q-8 -91 -63 -138t-142 -47zM270 310q-16 -13 -31 -25.5t-27 -28t-19.5 -35t-7.5 -46.5q0 -37 22 -65.5t63 -39.5v240
zM310 595q-23 0 -39 16t-16 39t16 39t39 16t39 -16t16 -39t-16 -39t-39 -16z" />
    <glyph glyph-name="zero.dnom" 
d="M300 -5q-30 0 -56.5 12t-46 35t-31 56.5t-11.5 76.5t11.5 76.5t31 56.5t46 35t56.5 12t56.5 -12t46 -35t31 -56.5t11.5 -76.5t-11.5 -76.5t-31 -56.5t-46 -35t-56.5 -12zM300 45q38 0 64 31t26 99q0 28 -5.5 53.5t-16.5 42.5l-96 -221q15 -5 28 -5zM328 300q-15 5 -28 5
q-38 0 -64 -31t-26 -99q0 -28 5.5 -53.5t16.5 -42.5z" />
    <glyph glyph-name="one.dnom" 
d="M170 55h105v175h-90v55h65q25 0 25 25v40h60v-295h100v-55h-265v55z" />
    <glyph glyph-name="two.dnom" 
d="M160 55l147 108q17 12 28 21.5t18 18t9.5 17.5t2.5 20q0 26 -18 43t-52 17q-21 0 -34.5 -7.5t-21.5 -18t-11 -23t-3 -21.5h-60q2 26 10.5 49t25 40t41 26.5t58.5 9.5q57 0 91 -33t34 -82q0 -34 -16 -59t-42 -44l-112 -82h170v-55h-265v55z" />
    <glyph glyph-name="three.dnom" 
d="M300 -5q-49 0 -85.5 26t-44.5 79h60q4 -23 22 -36.5t48 -13.5q34 0 49.5 13.5t15.5 36.5t-16 36.5t-54 13.5h-20v50h20q34 0 49.5 13.5t15.5 36.5t-15.5 36.5t-49.5 13.5q-30 0 -45.5 -14.5t-19.5 -40.5h-60q4 45 34.5 77.5t90.5 32.5t92.5 -29t32.5 -71q0 -30 -16 -48.5
t-39 -26.5q30 -8 45 -31t15 -49q0 -45 -32.5 -75t-92.5 -30z" />
    <glyph glyph-name="four.dnom" 
d="M325 70h-180v55l155 225h85v-225h55v-55h-55v-70h-60v70zM325 125v155h-5l-107 -155h112z" />
    <glyph glyph-name="five.dnom" 
d="M300 -5q-53 0 -87.5 30t-42.5 75h60q8 -19 24 -34.5t46 -15.5t50 20t20 50t-20.5 50t-54.5 20q-19 0 -35.5 -9.5t-24.5 -20.5h-55l25 190h205v-55h-160l-10 -75h5q7 6 17 10q8 4 18.5 7t24.5 3q57 0 91 -33.5t34 -86.5q0 -26 -10 -49t-27 -40t-41 -26.5t-52 -9.5z" />
    <glyph glyph-name="six.dnom" 
d="M300 -5q-26 0 -49.5 9t-41.5 25.5t-28.5 39.5t-10.5 51q0 45 14 74.5t38 60.5l73 95h68l-88 -115h5q3 1 8 2t11.5 2t17.5 1q15 0 34.5 -6t37 -20.5t29.5 -38.5t12 -60q0 -24 -10 -46t-27 -38.5t-41 -26t-52 -9.5zM300 50q30 0 50 20t20 50t-20 50t-50 20t-50 -20t-20 -50
t20 -50t50 -20z" />
    <glyph glyph-name="seven.dnom" 
d="M370 295h-170v55h240v-55l-150 -295h-70z" />
    <glyph glyph-name="eight.dnom" 
d="M300 -5q-30 0 -54 8.5t-41 23t-26 33.5t-9 40q0 30 14.5 54.5t40.5 35.5q-4 2 -11.5 7.5t-15 14.5t-13 21t-5.5 27q0 38 31.5 66.5t88.5 28.5t88.5 -28.5t31.5 -66.5q0 -15 -5.5 -27t-13 -21t-15 -14.5t-11.5 -7.5q26 -11 40.5 -35.5t14.5 -54.5q0 -21 -9 -40t-26 -33.5
t-41 -23t-54 -8.5zM300 50q34 0 52 16t18 39t-18 39t-52 16t-52 -16t-18 -39t18 -39t52 -16zM300 210q30 0 45 13t15 32t-15 32t-45 13t-45 -13t-15 -32t15 -32t45 -13z" />
    <glyph glyph-name="nine.dnom" 
d="M325 115h-5q-3 -2 -8 -3t-12 -1.5t-17 -0.5q-15 0 -34.5 6t-37 20.5t-29.5 38.5t-12 60q0 24 10 46t27 38.5t41 26t52 9.5q26 0 49.5 -9t41.5 -25.5t28.5 -39.5t10.5 -51q0 -45 -14 -74.5t-38 -60.5l-73 -95h-68zM300 160q30 0 50 20t20 50t-20 50t-50 20t-50 -20
t-20 -50t20 -50t50 -20z" />
    </font>
</defs>
</svg>
