<svg xmlns="http://www.w3.org/2000/svg">
<defs>
<font id="TTInterphases-DemiBold" horiz-adv-x="1000" >
  <font-face 
    font-family="TT Interphases DemiBold"
    font-weight="600"
    font-stretch="normal"
    units-per-em="1000"
    panose-1="2 0 5 3 2 0 0 2 0 4"
    ascent="760"
    descent="-240"
    x-height="530"
    cap-height="700"
    bbox="-530 -250 1438 1000"
    underline-thickness="50"
    underline-position="-200"
    unicode-range="U+000D-FB04"
  />
<missing-glyph horiz-adv-x="900" 
d="M100 284h45v-139h33v139h50v31h-128v126l19 -61h23l34 106l33 -106h23l54 170h-32l-34 -110l-35 110h-19l-35 -110l-31 103v157h700v-150h-110v-170h110v-91q-13 27 -50 27q-29 0 -44.5 -14.5t-15.5 -34.5q0 -22 13.5 -32t30 -15t30.5 -9.5t14 -16.5q0 -14 -9.5 -17.5
t-18.5 -3.5q-15 0 -21.5 7.5t-6.5 17.5h-33q0 -24 16.5 -39.5t44.5 -15.5q20 0 32.5 7.5t17.5 12.5v-163h-700v284zM328 143q38 0 60 25t22 61q0 37 -22.5 62t-59.5 25t-59.5 -25t-22.5 -62q0 -36 22 -61t60 -25zM328 174q-23 0 -37 16t-14 39q0 24 13.5 40t37.5 16
t37.5 -16t13.5 -40q0 -23 -14 -39t-37 -16zM549 315h-32v-106q0 -29 19.5 -47.5t48.5 -18.5t48 18.5t19 47.5v106h-32v-106q0 -15 -9 -25t-26 -10q-18 0 -27 11t-9 24v106zM344 380v62h24l35 -62h37l-40 67q36 16 36 50q0 21 -15.5 37t-41.5 16h-68v-170h33zM344 519h35
q10 0 17 -6t7 -17q0 -13 -8 -18t-16 -5h-35v46zM502 380v170h-33v-170h33zM800 262v-38q-11 10 -24 14.5t-24.5 8.5t-19.5 8t-8 12q0 9 7.5 14.5t18.5 5.5q10 0 18 -6.5t8 -18.5h24zM612 380v139h50v31h-132v-31h50v-139h32zM722 452h78v-41h-78v41zM722 519h78v-36h-78v36z
" />
    <glyph glyph-name="ff" unicode="ff" horiz-adv-x="690" 
d="M105 425h-85v105h85v45q0 68 40 106.5t115 38.5h90v-105h-75q-26 0 -40.5 -16t-14.5 -39v-30h205v45q0 68 40 106.5t115 38.5h90v-105h-75q-26 0 -40.5 -16t-14.5 -39v-30h130v-105h-130v-425h-115v425h-205v-425h-115v425z" />
    <glyph glyph-name="fi" unicode="fi" horiz-adv-x="605" 
d="M105 425h-85v105h85v45q0 68 40 106.5t115 38.5h90v-105h-75q-26 0 -40.5 -16t-14.5 -39v-30h320v-530h-115v425h-205v-425h-115v425zM482 590q-32 0 -52 20t-20 50t20 50t52 20t52.5 -20t20.5 -50t-20.5 -50t-52.5 -20z" />
    <glyph glyph-name="fl" unicode="fl" horiz-adv-x="610" 
d="M105 425h-85v105h85v45q0 68 40 106.5t115 38.5h280v-720h-115v615h-150q-26 0 -40.5 -16t-14.5 -39v-30h130v-105h-130v-425h-115v425z" />
    <glyph glyph-name="ffi" unicode="ffi" horiz-adv-x="925" 
d="M105 425h-85v105h85v45q0 68 40 106.5t115 38.5h90v-105h-75q-26 0 -40.5 -16t-14.5 -39v-30h205v45q0 68 40 106.5t115 38.5h90v-105h-75q-26 0 -40.5 -16t-14.5 -39v-30h320v-530h-115v425h-205v-425h-115v425h-205v-425h-115v425zM802 590q-32 0 -52 20t-20 50t20 50
t52 20t52.5 -20t20.5 -50t-20.5 -50t-52.5 -20z" />
    <glyph glyph-name="ffl" unicode="ffl" horiz-adv-x="930" 
d="M105 425h-85v105h85v45q0 68 40 106.5t115 38.5h90v-105h-75q-26 0 -40.5 -16t-14.5 -39v-30h205v45q0 68 40 106.5t115 38.5h280v-720h-115v615h-150q-26 0 -40.5 -16t-14.5 -39v-30h130v-105h-130v-425h-115v425h-205v-425h-115v425z" />
    <glyph glyph-name="f_f_j" unicode="ffj" horiz-adv-x="925" 
d="M610 -100h80q23 0 39 14.5t16 40.5v470h-205v-425h-115v425h-205v-425h-115v425h-85v105h85v45q0 68 40 106.5t115 38.5h90v-105h-75q-26 0 -40.5 -16t-14.5 -39v-30h205v45q0 68 40 106.5t115 38.5h90v-105h-75q-26 0 -40.5 -16t-14.5 -39v-30h320v-585
q0 -72 -40 -108.5t-115 -36.5h-95v100zM802 590q-32 0 -52 20t-20 50t20 50t52 20t52.5 -20t20.5 -50t-20.5 -50t-52.5 -20z" />
    <glyph glyph-name="f_j" unicode="fj" horiz-adv-x="605" 
d="M290 -100h80q23 0 39 14.5t16 40.5v470h-205v-425h-115v425h-85v105h85v45q0 68 40 106.5t115 38.5h90v-105h-75q-26 0 -40.5 -16t-14.5 -39v-30h320v-585q0 -72 -40 -108.5t-115 -36.5h-95v100zM482 590q-32 0 -52 20t-20 50t20 50t52 20t52.5 -20t20.5 -50t-20.5 -50
t-52.5 -20z" />
    <glyph glyph-name=".notdef" horiz-adv-x="900" 
d="M100 284h45v-139h33v139h50v31h-128v126l19 -61h23l34 106l33 -106h23l54 170h-32l-34 -110l-35 110h-19l-35 -110l-31 103v157h700v-150h-110v-170h110v-91q-13 27 -50 27q-29 0 -44.5 -14.5t-15.5 -34.5q0 -22 13.5 -32t30 -15t30.5 -9.5t14 -16.5q0 -14 -9.5 -17.5
t-18.5 -3.5q-15 0 -21.5 7.5t-6.5 17.5h-33q0 -24 16.5 -39.5t44.5 -15.5q20 0 32.5 7.5t17.5 12.5v-163h-700v284zM328 143q38 0 60 25t22 61q0 37 -22.5 62t-59.5 25t-59.5 -25t-22.5 -62q0 -36 22 -61t60 -25zM328 174q-23 0 -37 16t-14 39q0 24 13.5 40t37.5 16
t37.5 -16t13.5 -40q0 -23 -14 -39t-37 -16zM549 315h-32v-106q0 -29 19.5 -47.5t48.5 -18.5t48 18.5t19 47.5v106h-32v-106q0 -15 -9 -25t-26 -10q-18 0 -27 11t-9 24v106zM344 380v62h24l35 -62h37l-40 67q36 16 36 50q0 21 -15.5 37t-41.5 16h-68v-170h33zM344 519h35
q10 0 17 -6t7 -17q0 -13 -8 -18t-16 -5h-35v46zM502 380v170h-33v-170h33zM800 262v-38q-11 10 -24 14.5t-24.5 8.5t-19.5 8t-8 12q0 9 7.5 14.5t18.5 5.5q10 0 18 -6.5t8 -18.5h24zM612 380v139h50v31h-132v-31h50v-139h32zM722 452h78v-41h-78v41zM722 519h78v-36h-78v36z
" />
    <glyph glyph-name=".null" horiz-adv-x="0" 
 />
    <glyph glyph-name=".null" horiz-adv-x="0" 
 />
    <glyph glyph-name="nonmarkingreturn" unicode="&#xd;" horiz-adv-x="0" 
 />
    <glyph glyph-name="space" unicode=" " horiz-adv-x="220" 
 />
    <glyph glyph-name="exclam" unicode="!" horiz-adv-x="290" 
d="M145 -5q-30 0 -50 20t-20 50t20 50t50 20t50 -20t20 -50t-20 -50t-50 -20zM85 640v60h120v-60l-15 -420h-90z" />
    <glyph glyph-name="quotedbl" unicode="&#x22;" horiz-adv-x="390" 
d="M60 700h105v-225h-105v225zM225 700h105v-225h-105v225z" />
    <glyph glyph-name="numbersign" unicode="#" horiz-adv-x="665" 
d="M127 175h-107l20 100h109l32 150h-111l20 100h112l38 175h105l-38 -175h125l38 175h105l-38 -175h108l-20 -100h-109l-32 -150h111l-20 -100h-113l-37 -175h-105l37 175h-125l-37 -175h-105zM379 275l32 150h-125l-32 -150h125z" />
    <glyph glyph-name="dollar" unicode="$" horiz-adv-x="615" 
d="M250 -6q-91 12 -149 64.5t-71 141.5h125q12 -48 51 -74t99 -26q75 0 110 27.5t35 72.5q0 29 -17 46.5t-44.5 28.5t-63 18.5t-73 16.5t-73 22t-63 35.5t-44.5 56.5t-17 86q0 82 52.5 133t142.5 63v104h125v-106q84 -15 130.5 -63.5t59.5 -120.5h-125q-11 38 -44.5 59
t-90.5 21q-64 0 -94.5 -26t-30.5 -64q0 -40 29.5 -60.5t74 -33t96.5 -24t96.5 -32.5t74 -58t29.5 -102q0 -37 -13.5 -70.5t-40 -60.5t-64.5 -46t-87 -27v-106h-125v104z" />
    <glyph glyph-name="percent" unicode="%" horiz-adv-x="760" 
d="M545 700h105l-435 -700h-105zM565 -10q-36 0 -65.5 11.5t-50.5 33.5t-32.5 52t-11.5 68q0 37 11.5 67.5t32.5 52.5t50.5 33.5t65.5 11.5t65.5 -11.5t50.5 -33.5t32.5 -52.5t11.5 -67.5q0 -38 -11.5 -68t-32.5 -52t-50.5 -33.5t-65.5 -11.5zM565 70q34 0 54.5 21.5
t20.5 63.5t-20.5 63.5t-54.5 21.5t-54.5 -21.5t-20.5 -63.5t20.5 -63.5t54.5 -21.5zM195 380q-36 0 -65.5 11.5t-50.5 33.5t-32.5 52t-11.5 68q0 37 11.5 67.5t32.5 52.5t50.5 33.5t65.5 11.5t65.5 -11.5t50.5 -33.5t32.5 -52.5t11.5 -67.5q0 -38 -11.5 -68t-32.5 -52
t-50.5 -33.5t-65.5 -11.5zM195 460q34 0 54.5 21.5t20.5 63.5t-20.5 63.5t-54.5 21.5t-54.5 -21.5t-20.5 -63.5t20.5 -63.5t54.5 -21.5z" />
    <glyph glyph-name="ampersand" unicode="&#x26;" horiz-adv-x="635" 
d="M240 -10q-53 0 -93.5 14t-69 39t-43 59t-14.5 73q0 53 27.5 96t72.5 74l38 27l-31 30q-26 26 -44 59.5t-18 78.5q0 34 13.5 64.5t39 54t61.5 37.5t81 14q90 0 140 -47.5t50 -122.5q0 -42 -21.5 -79t-68.5 -71l-40 -29l130 -129l77 78h153l-151 -154l156 -156h-150l-80 80
q-17 -15 -38 -31t-47 -29t-58.5 -21.5t-71.5 -8.5zM240 95q42 0 76 18t60 44l-142 141l-34 -23q-26 -19 -40.5 -44t-14.5 -51q0 -38 26.5 -61.5t68.5 -23.5zM285 465q21 16 35.5 31.5t14.5 38.5q0 30 -20.5 50t-54.5 20q-38 0 -59 -20.5t-21 -54.5q0 -23 10.5 -37t29.5 -33
l25 -25z" />
    <glyph glyph-name="quotesingle" unicode="'" horiz-adv-x="225" 
d="M60 700h105v-225h-105v225z" />
    <glyph glyph-name="parenleft" unicode="(" horiz-adv-x="335" 
d="M195 -200q-60 87 -95 206t-35 259t35 259t95 206h115q-60 -91 -95 -208t-35 -257t35 -257t95 -208h-115v0z" />
    <glyph glyph-name="parenright" unicode=")" horiz-adv-x="335" 
d="M25 -200q60 91 95 208t35 257t-35 257t-95 208h115q60 -87 95 -206t35 -259t-35 -259t-95 -206h-115v0z" />
    <glyph glyph-name="asterisk" unicode="*" horiz-adv-x="470" 
d="M80 380l100 105l-145 35l30 90l135 -50l-15 140h100l-15 -140l135 50l30 -90l-145 -35l100 -105l-85 -55l-70 121l-70 -121z" />
    <glyph glyph-name="plus" unicode="+" horiz-adv-x="555" 
d="M230 260h-190v95h190v190h95v-190h190v-95h-190v-190h-95v190z" />
    <glyph glyph-name="comma" unicode="," horiz-adv-x="220" 
d="M60 100h110l-60 -205h-90z" />
    <glyph glyph-name="hyphen" unicode="-" horiz-adv-x="395" 
d="M40 335h315v-105h-315v105z" />
    <glyph glyph-name="period" unicode="." horiz-adv-x="220" 
d="M110 -5q-30 0 -50 20t-20 50t20 50t50 20t50 -20t20 -50t-20 -50t-50 -20z" />
    <glyph glyph-name="slash" unicode="/" horiz-adv-x="410" 
d="M290 730h120l-290 -930h-120z" />
    <glyph glyph-name="zero" unicode="0" horiz-adv-x="670" 
d="M335 -10q-64 0 -118 22.5t-93.5 67.5t-61.5 112.5t-22 157.5t22 157.5t61.5 112.5t93.5 67.5t118 22.5t118 -22.5t93.5 -67.5t61.5 -112.5t22 -157.5t-22 -157.5t-61.5 -112.5t-93.5 -67.5t-118 -22.5zM335 105q34 0 64.5 14.5t54 44.5t37.5 76t14 110t-14 110t-37.5 76
t-54 44.5t-64.5 14.5t-64.5 -14.5t-54 -44.5t-37.5 -76t-14 -110t14 -110t37.5 -76t54 -44.5t64.5 -14.5z" />
    <glyph glyph-name="one" unicode="1" horiz-adv-x="370" 
d="M170 505h-140v110h100q40 0 40 41v44h125v-700h-125v505z" />
    <glyph glyph-name="two" unicode="2" horiz-adv-x="585" 
d="M40 110l310 290q24 23 37 46.5t13 53.5q0 45 -27.5 72.5t-87.5 27.5q-49 0 -80.5 -27.5t-39.5 -72.5h-125q6 45 23.5 83.5t48 66.5t74 44t99.5 16q60 0 106 -15t76.5 -42.5t46.5 -65t16 -82.5q0 -28 -7.5 -52.5t-20 -46.5t-29 -41t-33.5 -35l-230 -220h330v-110h-500v110
z" />
    <glyph glyph-name="three" unicode="3" horiz-adv-x="590" 
d="M293 -10q-52 0 -98 12.5t-81.5 38t-57.5 65.5t-26 94h125q8 -49 45 -74.5t90 -25.5q60 0 95 27.5t35 72.5t-35 72.5t-95 27.5h-55v105h55q60 0 90 26.5t30 68.5t-30 71t-90 29q-45 0 -81 -25.5t-44 -74.5h-125q15 106 82 158t173 52q54 0 98.5 -14.5t76 -40.5t48.5 -63
t17 -82q0 -57 -28 -96.5t-77 -58.5q53 -19 84 -62t31 -103q0 -45 -18 -82t-51 -63t-79.5 -40.5t-103.5 -14.5z" />
    <glyph glyph-name="four" unicode="4" horiz-adv-x="590" 
d="M355 145h-335v110l290 445h170v-445h90v-110h-90v-145h-125v145zM355 255v310h-5l-200 -310h205z" />
    <glyph glyph-name="five" unicode="5" horiz-adv-x="595" 
d="M295 -10q-45 0 -87 14t-76 40.5t-58.5 65.5t-33.5 90h125q11 -45 46 -72.5t84 -27.5q68 0 101.5 37.5t33.5 97.5q0 28 -8.5 52.5t-25.5 43t-42 29t-59 10.5q-42 0 -71.5 -19.5t-48.5 -45.5h-120l40 395h420v-110h-315l-15 -160h5q23 19 55.5 29.5t74.5 10.5
q51 0 94 -17.5t74.5 -49.5t49 -76t17.5 -97q0 -51 -17.5 -95t-50.5 -76.5t-81.5 -50.5t-110.5 -18z" />
    <glyph glyph-name="six" unicode="6" horiz-adv-x="600" 
d="M300 -10q-60 0 -108 18t-82 50t-52 77.5t-18 99.5q0 57 18 109.5t52 105.5l160 250h140l-170 -255h5q15 8 32 11.5t43 3.5q54 0 98.5 -17.5t76 -48.5t48.5 -73t17 -91q0 -53 -18 -97t-52 -75.5t-82 -49.5t-108 -18zM300 100q60 0 97.5 35t37.5 95t-37.5 95t-97.5 35
t-97.5 -35t-37.5 -95t37.5 -95t97.5 -35z" />
    <glyph glyph-name="seven" unicode="7" horiz-adv-x="530" 
d="M365 590h-335v110h470v-110l-260 -590h-135z" />
    <glyph glyph-name="eight" unicode="8" horiz-adv-x="610" 
d="M305 -10q-64 0 -112.5 16t-81.5 44t-49.5 66.5t-16.5 83.5q0 26 9.5 51t25.5 46t36.5 37.5t43.5 25.5q-19 9 -37 24t-32 34t-22.5 42t-8.5 50q0 45 18 82t50 63t77.5 40.5t99.5 14.5t99.5 -14.5t77.5 -40.5t50 -63t18 -82q0 -27 -8.5 -50t-22.5 -42t-32 -34t-37 -24
q22 -9 43 -25.5t37 -37.5t25.5 -46t9.5 -51q0 -45 -16.5 -83.5t-49.5 -66.5t-81.5 -44t-112.5 -16zM305 100q64 0 99.5 28t35.5 77t-35.5 77t-99.5 28t-99.5 -28t-35.5 -77t35.5 -77t99.5 -28zM305 410q60 0 90 26.5t30 68.5t-30 68.5t-90 26.5t-90 -26.5t-30 -68.5
t30 -68.5t90 -26.5z" />
    <glyph glyph-name="nine" unicode="9" horiz-adv-x="600" 
d="M360 255h-5q-15 -8 -32 -11.5t-43 -3.5q-54 0 -98.5 17.5t-76 48.5t-48.5 73t-17 91q0 52 18 96.5t52 76t82 49.5t108 18t108 -18t82 -50t52 -77.5t18 -99.5q0 -57 -18 -109.5t-52 -105.5l-160 -250h-140zM300 340q60 0 97.5 35t37.5 95t-37.5 95t-97.5 35t-97.5 -35
t-37.5 -95t37.5 -95t97.5 -35z" />
    <glyph glyph-name="colon" unicode=":" horiz-adv-x="220" 
d="M110 -5q-30 0 -50 20t-20 50t20 50t50 20t50 -20t20 -50t-20 -50t-50 -20zM110 395q-30 0 -50 20t-20 50t20 50t50 20t50 -20t20 -50t-20 -50t-50 -20z" />
    <glyph glyph-name="semicolon" unicode=";" horiz-adv-x="220" 
d="M60 100h110l-60 -205h-90zM110 395q-30 0 -50 20t-20 50t20 50t50 20t50 -20t20 -50t-20 -50t-50 -20z" />
    <glyph glyph-name="less" unicode="&#x3c;" horiz-adv-x="525" 
d="M45 260v100l435 215v-110l-320 -155l320 -155v-110z" />
    <glyph glyph-name="equal" unicode="=" horiz-adv-x="550" 
d="M35 245h480v-95h-480v95zM35 460h480v-95h-480v95z" />
    <glyph glyph-name="greater" unicode="&#x3e;" horiz-adv-x="525" 
d="M45 155l320 155l-320 155v110l435 -215v-100l-435 -215v110z" />
    <glyph glyph-name="question" unicode="?" horiz-adv-x="515" 
d="M250 -5q-30 0 -50 20t-20 50t20 50t50 20t50 -20t20 -50t-20 -50t-50 -20zM190 260q0 44 11.5 73t28.5 49t37.5 34.5t37.5 29.5t28.5 33t11.5 46q0 34 -23 57t-72 23q-23 0 -41.5 -8t-32 -21t-21.5 -30t-10 -36h-120q11 98 71 149t154 51q49 0 89.5 -12.5t69.5 -36
t45 -57t16 -74.5q0 -40 -12 -67.5t-30.5 -48t-40 -36.5t-40 -32.5t-30.5 -36.5t-12 -49v-40h-115v40z" />
    <glyph glyph-name="at" unicode="@" horiz-adv-x="925" 
d="M440 -100q-88 0 -160 28t-123 80t-79 126t-28 166q0 88 29.5 161.5t84 126.5t131 82.5t170.5 29.5q97 0 174.5 -30.5t130.5 -83t81.5 -122.5t28.5 -149q0 -60 -13.5 -104t-36.5 -73.5t-55.5 -43.5t-69.5 -14q-34 0 -56 10.5t-35 24.5q-16 15 -24 35h-5q-17 -28 -52 -49
t-88 -21q-43 0 -77.5 16t-58.5 44.5t-36.5 68t-12.5 86.5t12.5 85.5t36 66.5t57 43t74.5 15q30 0 52 -5.5t37 -13.5t23.5 -16.5t12.5 -14.5h5l10 45h75v-270q0 -30 13.5 -45t36.5 -15q19 0 33.5 6.5t25 22.5t16 43t5.5 68q0 58 -20.5 112t-61 96t-100 67t-138.5 25
q-73 0 -132 -23t-101 -64.5t-64.5 -98.5t-22.5 -124q0 -71 21 -128.5t59 -98t92.5 -62t122.5 -21.5h170v-90h-170zM460 165q49 0 77 34.5t28 95.5q0 60 -28 92.5t-77 32.5t-77 -32.5t-28 -92.5q0 -61 28 -95.5t77 -34.5z" />
    <glyph glyph-name="A" unicode="A" horiz-adv-x="655" 
d="M250 700h155l255 -700h-130l-54 150h-297l-54 -150h-130zM437 260l-107 300h-5l-107 -300h219z" />
    <glyph glyph-name="B" unicode="B" horiz-adv-x="660" 
d="M75 700h320q102 0 156 -52t54 -143q0 -53 -26 -92t-64 -58q42 -19 71 -59.5t29 -100.5q0 -91 -54 -143t-156 -52h-330v700zM390 110q47 0 73.5 25t26.5 70t-26.5 70t-73.5 25h-190v-190h190zM380 400q45 0 72.5 25t27.5 70t-27.5 70t-72.5 25h-180v-190h180z" />
    <glyph glyph-name="C" unicode="C" horiz-adv-x="700" 
d="M370 -10q-73 0 -133 23t-102.5 68.5t-66 113t-23.5 155.5t23.5 155.5t66 113t102.5 68.5t133 23q60 0 108 -15.5t84.5 -43.5t62 -67.5t40.5 -88.5h-130q-23 49 -62 77t-103 28q-90 0 -145 -63t-55 -187t55 -187t145 -63q64 0 103 28t62 77h130q-30 -98 -102.5 -156.5
t-192.5 -58.5z" />
    <glyph glyph-name="D" unicode="D" horiz-adv-x="695" 
d="M75 700h260q71 0 129 -23t99.5 -67.5t64 -110t22.5 -149.5t-22.5 -149.5t-64 -110t-99.5 -67.5t-129 -23h-260v700zM330 110q41 0 76.5 15t62 45t41.5 75t15 105t-15 105t-41.5 75t-62 45t-76.5 15h-130v-480h130z" />
    <glyph glyph-name="E" unicode="E" horiz-adv-x="595" 
d="M75 700h460v-110h-335v-185h315v-105h-315v-190h345v-110h-470v700z" />
    <glyph glyph-name="F" unicode="F" horiz-adv-x="575" 
d="M75 700h460v-110h-335v-200h310v-110h-310v-280h-125v700z" />
    <glyph glyph-name="G" unicode="G" horiz-adv-x="725" 
d="M370 -10q-73 0 -133 23t-102.5 68.5t-66 113t-23.5 155.5t23.5 155.5t66 113t102.5 68.5t133 23q60 0 108 -15.5t84.5 -43.5t62 -67.5t40.5 -88.5h-130q-23 49 -62 77t-103 28q-90 0 -145 -63t-55 -187t55 -187t145 -63q44 0 77 14.5t56 38t35.5 53t16.5 59.5h-195v105
h320v-49q0 -75 -21 -136t-61 -104.5t-97.5 -67t-130.5 -23.5z" />
    <glyph glyph-name="H" unicode="H" horiz-adv-x="715" 
d="M75 700h125v-290h315v290h125v-700h-125v300h-315v-300h-125v700z" />
    <glyph glyph-name="I" unicode="I" horiz-adv-x="275" 
d="M75 700h125v-700h-125v700z" />
    <glyph glyph-name="J" unicode="J" horiz-adv-x="565" 
d="M260 -10q-102 0 -163 54.5t-72 160.5h125q8 -53 38 -79t72 -26q49 0 79.5 34t30.5 106v460h125v-460q0 -121 -63 -185.5t-172 -64.5z" />
    <glyph glyph-name="K" unicode="K" horiz-adv-x="615" 
d="M75 700h125v-320l275 320h145l-295 -345l310 -355h-145l-290 330v-330h-125v700z" />
    <glyph glyph-name="L" unicode="L" horiz-adv-x="555" 
d="M75 700h125v-590h335v-110h-460v700z" />
    <glyph glyph-name="M" unicode="M" horiz-adv-x="895" 
d="M75 700h185l185 -520h5l185 520h185v-700h-125v535h-5l-190 -535h-105l-190 535h-5v-535h-125v700z" />
    <glyph glyph-name="N" unicode="N" horiz-adv-x="745" 
d="M75 700h165l300 -525h5v525h125v-700h-165l-300 525h-5v-525h-125v700z" />
    <glyph glyph-name="O" unicode="O" horiz-adv-x="740" 
d="M370 -10q-74 0 -133.5 24t-102.5 70t-66 113t-23 153t23 153t66 113t102.5 70t133.5 24q73 0 133 -24t103 -70t66 -113t23 -153t-23 -153t-66 -113t-103 -70t-133 -24zM370 100q90 0 145 63t55 187t-55 187t-145 63t-145 -63t-55 -187t55 -187t145 -63z" />
    <glyph glyph-name="P" unicode="P" horiz-adv-x="640" 
d="M75 700h281q52 0 96 -17t75.5 -47.5t49.5 -72.5t18 -93t-18 -93t-49.5 -72.5t-75.5 -47.5t-96 -17h-156v-240h-125v700zM345 350q60 0 92.5 31.5t32.5 88.5t-32.5 88.5t-92.5 31.5h-145v-240h145z" />
    <glyph glyph-name="Q" unicode="Q" horiz-adv-x="740" 
d="M454 -1q-39 -9 -84 -9q-74 0 -133.5 24t-102.5 70t-66 113t-23 153t23 153t66 113t102.5 70t133.5 24q73 0 133 -24t103 -70t66 -113t23 -153q0 -109 -35.5 -185.5t-100.5 -120.5l96 -144h-135zM387 100l-82 125h135l54 -83q36 31 56 82.5t20 125.5q0 124 -55 187
t-145 63t-145 -63t-55 -187t55 -187t145 -63h17z" />
    <glyph glyph-name="R" unicode="R" horiz-adv-x="650" 
d="M75 700h290q51 0 93 -15.5t72.5 -44t47.5 -69t17 -91.5q0 -54 -17.5 -92.5t-42.5 -64t-54 -39t-51 -19.5l185 -265h-140l-180 260h-95v-260h-125v700zM356 370q52 0 83 28.5t31 81.5t-31 81.5t-84 28.5h-155v-220h156z" />
    <glyph glyph-name="S" unicode="S" horiz-adv-x="615" 
d="M305 -10q-113 0 -186.5 54t-88.5 156h125q12 -48 51 -74t99 -26q75 0 110 27.5t35 72.5q0 29 -17 46.5t-44.5 28.5t-63 18.5t-73 16.5t-73 22t-63 35.5t-44.5 56.5t-17 86q0 47 18 84t51 63t79 39.5t102 13.5q116 0 180.5 -52t79.5 -138h-125q-11 38 -44.5 59t-90.5 21
q-64 0 -94.5 -26t-30.5 -64q0 -40 29.5 -60.5t74 -33t96.5 -24t96.5 -32.5t74 -58t29.5 -102q0 -43 -18.5 -81.5t-53.5 -67t-86 -45t-117 -16.5z" />
    <glyph glyph-name="T" unicode="T" horiz-adv-x="595" 
d="M235 590h-215v110h555v-110h-215v-590h-125v590z" />
    <glyph glyph-name="U" unicode="U" horiz-adv-x="710" 
d="M355 -10q-66 0 -118.5 20t-89.5 59t-57 96t-20 131v404h125v-404q0 -95 44 -145.5t116 -50.5q71 0 115.5 50.5t44.5 145.5v404h125v-404q0 -74 -20 -131t-57 -96t-90 -59t-118 -20z" />
    <glyph glyph-name="V" unicode="V" horiz-adv-x="655" 
d="M5 700h135l185 -560h5l185 560h135l-240 -700h-165z" />
    <glyph glyph-name="W" unicode="W" horiz-adv-x="935" 
d="M10 700h130l120 -530h5l130 530h145l130 -530h5l120 530h130l-180 -700h-150l-125 525h-5l-125 -525h-150z" />
    <glyph glyph-name="X" unicode="X" horiz-adv-x="610" 
d="M225 360l-225 340h140l165 -255l165 255h140l-225 -340l235 -360h-140l-175 275l-175 -275h-140z" />
    <glyph glyph-name="Y" unicode="Y" horiz-adv-x="585" 
d="M230 250l-245 450h130l175 -325h5l175 325h130l-245 -450v-250h-125v250z" />
    <glyph glyph-name="Z" unicode="Z" horiz-adv-x="590" 
d="M35 95l360 495h-350v110h505v-95l-360 -495h365v-110h-520v95z" />
    <glyph glyph-name="bracketleft" unicode="[" horiz-adv-x="330" 
d="M75 730h230v-110h-115v-710h115v-110h-230v930z" />
    <glyph glyph-name="backslash" unicode="\" horiz-adv-x="410" 
d="M0 730h120l290 -930h-120z" />
    <glyph glyph-name="bracketright" unicode="]" horiz-adv-x="330" 
d="M25 -90h115v710h-115v110h230v-930h-230v110z" />
    <glyph glyph-name="asciicircum" unicode="^" horiz-adv-x="475" 
d="M185 700h105l150 -320h-100l-100 225h-5l-100 -225h-100z" />
    <glyph glyph-name="underscore" unicode="_" horiz-adv-x="420" 
d="M-20 -115h460v-105h-460v105z" />
    <glyph glyph-name="grave" unicode="`" horiz-adv-x="265" 
d="M30 750h115l90 -145h-90z" />
    <glyph glyph-name="a" unicode="a" horiz-adv-x="545" 
d="M215 -10q-41 0 -74.5 12.5t-57 34.5t-36 52t-12.5 66q0 34 13 64t38.5 52.5t62.5 35.5t86 13h135v25q0 45 -28 70t-77 25q-42 0 -64.5 -18.5t-30.5 -41.5h-118q9 34 27 63t45 50.5t62.5 34t78.5 12.5q106 0 163 -52t57 -143v-345h-100l-10 65h-5q-8 -13 -21.5 -26.5
t-33.5 -24t-45 -17.5t-55 -7zM240 90q60 0 95 31t35 84v25h-130q-49 0 -69.5 -20t-20.5 -50t22.5 -50t67.5 -20z" />
    <glyph glyph-name="b" unicode="b" horiz-adv-x="610" 
d="M340 -10q-53 0 -92.5 22.5t-62.5 52.5h-5l-15 -65h-95v700h115v-230h5q7 11 21 23.5t33.5 23t43.5 17t52 6.5q51 0 93 -18t72.5 -52.5t47.5 -86t17 -118.5t-17 -118.5t-47.5 -86t-72.5 -52.5t-93 -18zM320 95q28 0 52.5 10.5t43 31.5t29 53t10.5 75t-10.5 75t-29 53
t-43 31.5t-52.5 10.5t-52.5 -10.5t-43 -31.5t-29 -53t-10.5 -75t10.5 -75t29 -53t43 -31.5t52.5 -10.5z" />
    <glyph glyph-name="c" unicode="c" horiz-adv-x="555" 
d="M290 -10q-56 0 -102 18.5t-79 53.5t-51 86t-18 117t18 117t51 86t79 53.5t102 18.5q49 0 88 -14t68.5 -38t49.5 -55.5t29 -67.5h-115q-19 34 -47 52t-73 18q-60 0 -97.5 -43.5t-37.5 -126.5t37.5 -126.5t97.5 -43.5q45 0 73 18t47 52h115q-9 -36 -29 -67.5t-49.5 -55.5
t-68.5 -38t-88 -14z" />
    <glyph glyph-name="d" unicode="d" horiz-adv-x="610" 
d="M270 -10q-51 0 -93 18t-72.5 52.5t-47.5 86t-17 118.5t17 118.5t47.5 86t72.5 52.5t93 18q28 0 52 -6.5t43.5 -17t33 -23t21.5 -23.5h5v230h115v-700h-95l-15 65h-5q-23 -30 -62.5 -52.5t-92.5 -22.5zM290 95q28 0 52.5 10.5t43 31.5t29 53t10.5 75t-10.5 75t-29 53
t-43 31.5t-52.5 10.5t-52.5 -10.5t-43 -31.5t-29 -53t-10.5 -75t10.5 -75t29 -53t43 -31.5t52.5 -10.5z" />
    <glyph glyph-name="e" unicode="e" horiz-adv-x="580" 
d="M294 -10q-58 0 -105 18.5t-80 53.5t-51 86t-18 117t18 117t51 86t79 53.5t102 18.5q60 0 106.5 -21t78.5 -56.5t48.5 -83t16.5 -99.5q0 -11 -1 -20t-2 -16q-1 -8 -2 -14h-375q4 -60 39.5 -97.5t95.5 -37.5q42 0 66.5 17t43.5 43h125q-11 -34 -31 -64t-49 -52.5t-68 -35.5
t-88 -13zM420 320q-8 49 -40.5 82t-89.5 33q-53 0 -86 -31t-44 -84h260z" />
    <glyph glyph-name="f" unicode="f" horiz-adv-x="370" 
d="M105 425h-85v105h85v45q0 68 40 106.5t115 38.5h90v-105h-75q-26 0 -40.5 -16t-14.5 -39v-30h130v-105h-130v-425h-115v425z" />
    <glyph glyph-name="g" unicode="g" horiz-adv-x="600" 
d="M290 -200q-102 0 -159.5 45.5t-80.5 124.5h120q11 -34 43 -49.5t77 -15.5q60 0 95 28.5t35 81.5v85h-5q-19 -26 -58 -48t-92 -22q-49 0 -90 16.5t-71 49t-47 80t-17 109.5t17 109.5t47 80t71 49t90 16.5q53 0 92.5 -22.5t62.5 -52.5h5l15 65h95v-515q0 -102 -62 -158.5
t-183 -56.5zM286 135q28 0 52.5 10t42.5 29.5t28.5 47t10.5 63.5t-10.5 63.5t-29 47t-43 29.5t-52.5 10q-57 0 -93.5 -39t-36.5 -111t37 -111t94 -39z" />
    <glyph glyph-name="h" unicode="h" horiz-adv-x="585" 
d="M70 700h115v-230h5q23 34 59 52t81 18q43 0 79 -15.5t61.5 -43.5t40 -67.5t14.5 -88.5v-325h-115v315q0 57 -30.5 88.5t-79.5 31.5q-26 0 -47.5 -9.5t-36.5 -26t-23 -39t-8 -47.5v-313h-115v700z" />
    <glyph glyph-name="i" unicode="i" horiz-adv-x="245" 
d="M65 530h115v-530h-115v530zM122 590q-32 0 -52 20t-20 50t20 50t52 20t52.5 -20t20.5 -50t-20.5 -50t-52.5 -20z" />
    <glyph glyph-name="j" unicode="j" horiz-adv-x="245" 
d="M-70 -100h80q23 0 39 14.5t16 40.5v575h115v-585q0 -72 -40 -108.5t-115 -36.5h-95v100zM122 590q-32 0 -52 20t-20 50t20 50t52 20t52.5 -20t20.5 -50t-20.5 -50t-52.5 -20z" />
    <glyph glyph-name="k" unicode="k" horiz-adv-x="535" 
d="M70 700h115v-410l215 240h140l-235 -260l250 -270h-140l-230 250v-250h-115v700z" />
    <glyph glyph-name="l" unicode="l" horiz-adv-x="255" 
d="M70 700h115v-700h-115v700z" />
    <glyph glyph-name="m" unicode="m" horiz-adv-x="880" 
d="M65 530h95l15 -65h5q45 75 130 75q30 0 54.5 -7.5t43 -20.5t31.5 -29t21 -33h5q7 17 22 33t36 29t48 20.5t59 7.5q41 0 76 -14.5t60.5 -42.5t39.5 -67.5t14 -90.5v-325h-115v315q0 30 -8.5 52.5t-23 37.5t-33.5 22.5t-40 7.5q-42 0 -71 -31.5t-29 -88.5v-315h-115v315
q0 60 -30 90t-75 30q-42 0 -71 -31.5t-29 -88.5v-315h-115v530z" />
    <glyph glyph-name="n" unicode="n" horiz-adv-x="580" 
d="M65 530h95l15 -65h5q23 38 61.5 56.5t83.5 18.5q43 0 79 -15.5t61.5 -43.5t40 -67.5t14.5 -88.5v-325h-115v315q0 57 -30.5 88.5t-79.5 31.5q-26 0 -47.5 -9.5t-36.5 -26t-23 -39t-8 -47.5v-313h-115v530z" />
    <glyph glyph-name="o" unicode="o" horiz-adv-x="580" 
d="M290 -10q-56 0 -102 18.5t-79 53.5t-51 86t-18 117t18 117t51 86t79 53.5t102 18.5t102 -18.5t79 -53.5t51 -86t18 -117t-18 -117t-51 -86t-79 -53.5t-102 -18.5zM290 95q28 0 52.5 10.5t43 31.5t29 53t10.5 75t-10.5 75t-29 53t-43 31.5t-52.5 10.5t-52.5 -10.5
t-43 -31.5t-29 -53t-10.5 -75t10.5 -75t29 -53t43 -31.5t52.5 -10.5z" />
    <glyph glyph-name="p" unicode="p" horiz-adv-x="605" 
d="M65 530h95l15 -65h5q23 30 62.5 52.5t92.5 22.5q51 0 93 -18t72.5 -52.5t47.5 -86t17 -118.5t-17 -118.5t-47.5 -86t-72.5 -52.5t-93 -18q-28 0 -52 6.5t-43.5 17t-33.5 23t-21 23.5h-5v-260h-115v730zM315 95q28 0 52.5 10.5t43 31.5t29 53t10.5 75t-10.5 75t-29 53
t-43 31.5t-52.5 10.5t-52.5 -10.5t-43 -31.5t-29 -53t-10.5 -75t10.5 -75t29 -53t43 -31.5t52.5 -10.5z" />
    <glyph glyph-name="q" unicode="q" horiz-adv-x="605" 
d="M425 60h-5q-8 -11 -21.5 -23.5t-33 -23t-43.5 -17t-52 -6.5q-51 0 -93 18t-72.5 52.5t-47.5 86t-17 118.5t17 118.5t47.5 86t72.5 52.5t93 18q53 0 92.5 -22.5t62.5 -52.5h5l15 65h95v-730h-115v260zM290 95q28 0 52.5 10.5t43 31.5t29 53t10.5 75t-10.5 75t-29 53
t-43 31.5t-52.5 10.5t-52.5 -10.5t-43 -31.5t-29 -53t-10.5 -75t10.5 -75t29 -53t43 -31.5t52.5 -10.5z" />
    <glyph glyph-name="r" unicode="r" horiz-adv-x="390" 
d="M65 530h95l15 -65h5q23 34 55.5 49.5t74.5 15.5h65v-110h-55q-64 0 -102 -35t-38 -95v-290h-115v530z" />
    <glyph glyph-name="s" unicode="s" horiz-adv-x="500" 
d="M250 -10q-49 0 -87.5 12.5t-66.5 34.5t-46 52t-25 66h125q8 -26 33 -43t67 -17q56 0 78 16t22 39q0 25 -22.5 37t-56.5 19.5t-73.5 16t-73.5 26t-56.5 49.5t-22.5 87q0 32 13 60t38.5 49t62.5 33.5t86 12.5t86.5 -11.5t64.5 -32t44 -49t25 -62.5h-125q-8 19 -29 34.5
t-66 15.5q-42 0 -61 -13.5t-19 -36.5q0 -25 22.5 -37t56.5 -20.5t73.5 -17t73.5 -26.5t56.5 -49t22.5 -85q0 -34 -13.5 -63t-40.5 -50.5t-68.5 -34t-97.5 -12.5z" />
    <glyph glyph-name="t" unicode="t" horiz-adv-x="390" 
d="M255 0q-72 0 -111 38.5t-39 106.5v280h-85v105h85l15 140h100v-140h130v-105h-130v-265q0 -23 14.5 -39t40.5 -16h75v-105h-95v0z" />
    <glyph glyph-name="u" unicode="u" horiz-adv-x="585" 
d="M260 -10q-43 0 -79 15.5t-61.5 43.5t-40 67.5t-14.5 88.5v325h115v-315q0 -57 30.5 -88.5t79.5 -31.5q26 0 47.5 9.5t36.5 26t23 39t8 47.5v313h115v-530h-95l-15 65h-5q-23 -38 -61.5 -56.5t-83.5 -18.5z" />
    <glyph glyph-name="v" unicode="v" horiz-adv-x="535" 
d="M0 530h125l140 -405h5l140 405h125l-195 -530h-145z" />
    <glyph glyph-name="w" unicode="w" horiz-adv-x="785" 
d="M5 530h120l100 -385h5l100 385h125l100 -385h5l100 385h120l-145 -530h-140l-100 365h-5l-100 -365h-140z" />
    <glyph glyph-name="x" unicode="x" horiz-adv-x="490" 
d="M170 275l-165 255h130l110 -175l110 175h130l-165 -255l175 -275h-130l-120 195l-120 -195h-130z" />
    <glyph glyph-name="y" unicode="y" horiz-adv-x="545" 
d="M215 0l-215 530h125l145 -375h5l145 375h125l-290 -730h-120z" />
    <glyph glyph-name="z" unicode="z" horiz-adv-x="475" 
d="M30 90l265 335h-255v105h400v-90l-265 -335h270v-105h-415v90z" />
    <glyph glyph-name="braceleft" unicode="{" horiz-adv-x="345" 
d="M245 -200q-64 0 -102 38t-38 102v200q0 70 -70 70v110q70 0 70 70v200q0 64 38 102t102 38h75v-110h-50q-26 0 -38 -12.5t-12 -42.5v-170q0 -34 -5 -56t-15.5 -35.5t-26.5 -20t-38 -8.5v-20q22 -2 38 -8.5t26.5 -20t15.5 -35.5t5 -56v-170q0 -30 12 -42.5t38 -12.5h50
v-110h-75v0z" />
    <glyph glyph-name="bar" unicode="|" horiz-adv-x="355" 
d="M120 730h115v-930h-115v930z" />
    <glyph glyph-name="braceright" unicode="}" horiz-adv-x="345" 
d="M25 -90h50q26 0 38 12.5t12 42.5v170q0 34 5 56t15.5 35.5t26.5 20t38 8.5v20q-22 2 -38 8.5t-26.5 20t-15.5 35.5t-5 56v170q0 30 -12 42.5t-38 12.5h-50v110h75q64 0 102 -38t38 -102v-200q0 -70 70 -70v-110q-70 0 -70 -70v-200q0 -64 -38 -102t-102 -38h-75v110z" />
    <glyph glyph-name="asciitilde" unicode="~" horiz-adv-x="595" 
d="M395 225q-39 0 -65.5 12.5t-46 27.5t-36 27.5t-37.5 12.5q-30 0 -47.5 -18.5t-17.5 -56.5h-100q0 83 41.5 126.5t113.5 43.5q39 0 65.5 -12.5t46 -27.5t36 -27.5t37.5 -12.5q30 0 47.5 18.5t17.5 56.5h100q0 -83 -41.5 -126.5t-113.5 -43.5z" />
    <glyph glyph-name="nonbreakingspace" unicode="&#xa0;" horiz-adv-x="220" 
 />
    <glyph glyph-name="exclamdown" unicode="&#xa1;" horiz-adv-x="280" 
d="M80 -140l15 455h90l15 -455v-60h-120v60zM140 400q-30 0 -50 20t-20 50t20 50t50 20t50 -20t20 -50t-20 -50t-50 -20z" />
    <glyph glyph-name="cent" unicode="&#xa2;" horiz-adv-x="555" 
d="M235 -5q-90 16 -142.5 85.5t-52.5 184.5t52.5 184t142.5 86v105h120v-108q69 -17 111.5 -62.5t58.5 -104.5h-115q-19 34 -47 52t-73 18q-60 0 -97.5 -43.5t-37.5 -126.5t37.5 -126.5t97.5 -43.5q45 0 73 18t47 52h115q-16 -59 -58.5 -105t-111.5 -62v-108h-120v105z" />
    <glyph glyph-name="sterling" unicode="&#xa3;" horiz-adv-x="590" 
d="M35 110h25q55 0 55 70v105h-80v110h80v90q0 106 59 165.5t161 59.5q94 0 153 -53t67 -147h-130q-15 90 -90 90q-42 0 -68.5 -30t-26.5 -90v-85h170v-110h-170v-105q0 -19 -4 -32.5t-9 -21.5q-5 -10 -12 -16h350v-110h-530v110z" />
    <glyph glyph-name="currency" unicode="&#xa4;" horiz-adv-x="590" 
d="M50 135l62 63q-17 26 -27 57t-10 65t10 65t27 57l-62 63l60 55l59 -60q27 19 59 29.5t67 10.5t67 -10.5t59 -29.5l59 60l60 -55l-62 -63q17 -26 27 -57t10 -65t-10 -65t-27 -57l62 -63l-60 -55l-59 60q-27 -19 -59 -29.5t-67 -10.5t-67 10.5t-59 29.5l-59 -60zM295 185
q28 0 52.5 10.5t43 29t29 43t10.5 52.5t-10.5 52.5t-29 43t-43 29t-52.5 10.5t-52.5 -10.5t-43 -29t-29 -43t-10.5 -52.5t10.5 -52.5t29 -43t43 -29t52.5 -10.5z" />
    <glyph glyph-name="yen" unicode="&#xa5;" horiz-adv-x="575" 
d="M225 110h-165v105h165v55h-165v105h100l-170 325h135l160 -325h5l160 325h135l-170 -325h100v-105h-165v-55h165v-105h-165v-110h-125v110z" />
    <glyph glyph-name="brokenbar" unicode="&#xa6;" horiz-adv-x="355" 
d="M120 175h115v-375h-115v375zM120 730h115v-375h-115v375z" />
    <glyph glyph-name="section" unicode="&#xa7;" horiz-adv-x="615" 
d="M315 -120q-102 0 -168.5 47t-81.5 138h120q11 -42 46 -61t84 -19q60 0 85 20t25 50q0 23 -16 36.5t-42 21.5t-59 13t-68 11.5t-68 16.5t-59 28t-42 46.5t-16 71.5q0 45 22 78t48 52q-23 19 -36.5 45t-13.5 60q0 36 14 67.5t42.5 55.5t72 38t101.5 14q102 0 164 -46
t81 -129h-120q-11 30 -43.5 50t-81.5 20q-60 0 -85 -20t-25 -50q0 -31 27.5 -45.5t68.5 -22.5t89 -15t89 -24t68.5 -49t27.5 -89q0 -45 -22 -78t-48 -52q23 -19 36.5 -45t13.5 -60q0 -36 -14 -67.5t-42.5 -55.5t-72 -38t-101.5 -14zM405 210q19 15 29.5 32.5t10.5 37.5
q0 34 -22.5 49t-57 22t-74.5 11.5t-76 17.5q-19 -15 -29.5 -32.5t-10.5 -37.5q0 -34 22.5 -49t57 -22t74.5 -11.5t76 -17.5z" />
    <glyph glyph-name="dieresis" unicode="&#xa8;" horiz-adv-x="380" 
d="M95 615q-30 0 -47.5 19.5t-17.5 45.5t17.5 45.5t47.5 19.5t47.5 -19.5t17.5 -45.5t-17.5 -45.5t-47.5 -19.5zM285 615q-30 0 -47.5 19.5t-17.5 45.5t17.5 45.5t47.5 19.5t47.5 -19.5t17.5 -45.5t-17.5 -45.5t-47.5 -19.5z" />
    <glyph glyph-name="copyright" unicode="&#xa9;" horiz-adv-x="830" 
d="M415 -10q-79 0 -145 26.5t-114 74.5t-74.5 114t-26.5 145t26.5 145t74.5 114t114 74.5t145 26.5t145 -26.5t114 -74.5t74.5 -114t26.5 -145t-26.5 -145t-74.5 -114t-114 -74.5t-145 -26.5zM415 70q60 0 110.5 20.5t87 57.5t57 88.5t20.5 113.5t-20.5 113.5t-57 88.5
t-87 57.5t-110.5 20.5t-110.5 -20.5t-87 -57.5t-57 -88.5t-20.5 -113.5t20.5 -113.5t57 -88.5t87 -57.5t110.5 -20.5zM416 160q-84 0 -132.5 49.5t-48.5 140.5t48.5 140.5t132.5 49.5q35 0 62.5 -10.5t47.5 -27.5t33 -40t21 -47h-85q-8 23 -27 36.5t-53 13.5q-45 0 -70 -29
t-25 -86t25 -86t70 -29q34 0 53 13.5t27 36.5h85q-8 -24 -21 -47t-33 -40t-47.5 -27.5t-62.5 -10.5z" />
    <glyph glyph-name="ordfeminine" unicode="&#xaa;" horiz-adv-x="365" 
d="M150 350q-34 0 -57.5 11t-38.5 27.5t-22 35.5t-7 36q0 49 30.5 79.5t94.5 30.5h95v10q0 23 -13 39t-47 16q-23 0 -35 -7.5t-20 -22.5h-90q8 45 44.5 75t100.5 30q68 0 106.5 -35t38.5 -95v-225h-75l-5 45h-5q-11 -19 -32.5 -34.5t-62.5 -15.5zM165 425q38 0 59 20t21 50
v10h-90q-23 0 -34 -10t-11 -25q0 -23 12.5 -34t42.5 -11z" />
    <glyph glyph-name="guillemotleft" unicode="&#xab;" horiz-adv-x="655" 
d="M35 270l215 240h135l-215 -237v-6l215 -237h-135zM280 270l215 240h135l-215 -237v-6l215 -237h-135z" />
    <glyph glyph-name="logicalnot" unicode="&#xac;" horiz-adv-x="520" 
d="M385 275h-350v95h445v-215h-95v120z" />
    <glyph glyph-name="uni00AD" unicode="&#xad;" horiz-adv-x="395" 
d="M40 335h315v-105h-315v105z" />
    <glyph glyph-name="registered" unicode="&#xae;" horiz-adv-x="830" 
d="M415 -10q-79 0 -145 26.5t-114 74.5t-74.5 114t-26.5 145t26.5 145t74.5 114t114 74.5t145 26.5t145 -26.5t114 -74.5t74.5 -114t26.5 -145t-26.5 -145t-74.5 -114t-114 -74.5t-145 -26.5zM415 70q60 0 110.5 20.5t87 57.5t57 88.5t20.5 113.5t-20.5 113.5t-57 88.5
t-87 57.5t-110.5 20.5t-110.5 -20.5t-87 -57.5t-57 -88.5t-20.5 -113.5t20.5 -113.5t57 -88.5t87 -57.5t110.5 -20.5zM280 540h160q64 0 99.5 -34t35.5 -91q0 -44 -24 -74t-66 -41l95 -135h-95l-90 130h-30v-130h-85v375zM436 365q26 0 42.5 12t16.5 38t-17 38t-43 12h-70
v-100h71z" />
    <glyph glyph-name="macron" unicode="&#xaf;" horiz-adv-x="355" 
d="M30 715h295v-85h-295v85z" />
    <glyph glyph-name="degree" unicode="&#xb0;" horiz-adv-x="390" 
d="M195 420q-34 0 -61.5 11.5t-47 31.5t-30.5 47.5t-11 59.5t11 59.5t30.5 47.5t47 31.5t61.5 11.5t61.5 -11.5t47 -31.5t30.5 -47.5t11 -59.5t-11 -59.5t-30.5 -47.5t-47 -31.5t-61.5 -11.5zM195 495q34 0 52 20.5t18 54.5t-18 54.5t-52 20.5t-52 -20.5t-18 -54.5t18 -54.5
t52 -20.5z" />
    <glyph glyph-name="plusminus" unicode="&#xb1;" horiz-adv-x="555" 
d="M40 100h475v-95h-475v95zM230 315h-190v95h190v190h95v-190h190v-95h-190v-180h-95v180z" />
    <glyph glyph-name="uni00B2" unicode="&#xb2;" horiz-adv-x="335" 
d="M30 475l145 140q20 20 30 36t10 34q0 15 -12 27.5t-38 12.5t-38 -13t-12 -32h-90q2 26 11.5 49t27.5 40t44 26.5t62 9.5q64 0 99.5 -33.5t35.5 -86.5q0 -33 -13.5 -58.5t-41.5 -51.5l-105 -100h155v-75h-270v75z" />
    <glyph glyph-name="uni00B3" unicode="&#xb3;" horiz-adv-x="340" 
d="M165 395q-60 0 -98.5 28.5t-46.5 81.5h90q4 -15 16.5 -22.5t38.5 -7.5t40.5 13.5t14.5 36.5q0 19 -12 32t-38 13h-40v75h40q26 0 35.5 12.5t9.5 27.5q0 40 -50 40q-26 0 -38.5 -13t-16.5 -32h-90q2 26 11.5 49t27.5 40t44 26.5t62 9.5q32 0 58 -9t44 -24t28 -35t10 -42
q0 -34 -18 -55.5t-37 -29.5q30 -15 45 -39.5t15 -50.5q0 -24 -8.5 -47t-26.5 -40t-45.5 -27.5t-64.5 -10.5z" />
    <glyph glyph-name="acute" unicode="&#xb4;" horiz-adv-x="265" 
d="M120 750h115l-115 -145h-90z" />
    <glyph glyph-name="uni00B5" unicode="&#xb5;" horiz-adv-x="585" 
d="M65 530h115v-315q0 -57 30.5 -88.5t79.5 -31.5q26 0 47.5 9.5t36.5 26t23 38.5t8 46v315h115v-530h-95l-15 65h-5q-23 -38 -58 -56.5t-77 -18.5q-25 0 -41.5 5t-27.5 12q-12 8 -21 18v-205h-115v710z" />
    <glyph glyph-name="paragraph" unicode="&#xb6;" horiz-adv-x="570" 
d="M205 320q-38 0 -68 13.5t-52 38.5t-33.5 60t-11.5 78t11.5 78t33.5 60t52 38.5t68 13.5h290v-810h-110v700h-70v-700h-110v430z" />
    <glyph glyph-name="periodcentered" unicode="&#xb7;" horiz-adv-x="220" 
d="M110 200q-30 0 -50 20t-20 50t20 50t50 20t50 -20t20 -50t-20 -50t-50 -20z" />
    <glyph glyph-name="cedilla" unicode="&#xb8;" horiz-adv-x="230" 
d="M30 -150h55q30 0 30 27q0 28 -30 28h-45v50l20 45h75l-15 -35q34 -4 57 -25.5t23 -59.5q0 -45 -28 -72.5t-77 -27.5h-65v70z" />
    <glyph glyph-name="uni00B9" unicode="&#xb9;" horiz-adv-x="265" 
d="M120 665h-90v80h65q25 0 25 25v30h85v-400h-85v265z" />
    <glyph glyph-name="ordmasculine" unicode="&#xba;" horiz-adv-x="390" 
d="M195 350q-72 0 -116 46.5t-44 133.5t44 133.5t116 46.5t116 -46.5t44 -133.5t-44 -133.5t-116 -46.5zM195 430q34 0 54.5 27.5t20.5 72.5t-20.5 72.5t-54.5 27.5t-54.5 -27.5t-20.5 -72.5t20.5 -72.5t54.5 -27.5z" />
    <glyph glyph-name="guillemotright" unicode="&#xbb;" horiz-adv-x="655" 
d="M240 267v6l-215 237h135l215 -240l-215 -240h-135zM485 267v6l-215 237h135l215 -240l-215 -240h-135z" />
    <glyph glyph-name="onequarter" unicode="&#xbc;" horiz-adv-x="765" 
d="M525 700h90l-435 -700h-90zM120 565h-90v80h65q25 0 25 25v30h85v-400h-85v265zM585 85h-180v75l160 240h105v-240h60v-75h-60v-85h-85v85zM585 160v135h-5l-90 -135h95z" />
    <glyph glyph-name="onehalf" unicode="&#xbd;" horiz-adv-x="775" 
d="M525 700h90l-435 -700h-90zM120 565h-90v80h65q25 0 25 25v30h85v-400h-85v265zM455 75l145 140q20 20 30 36t10 34q0 15 -12 27.5t-38 12.5t-38 -13t-12 -32h-90q2 26 11.5 49t27.5 40t44 26.5t62 9.5q64 0 99.5 -33.5t35.5 -86.5q0 -33 -13.5 -58.5t-41.5 -51.5
l-105 -100h155v-75h-270v75z" />
    <glyph glyph-name="threequarters" unicode="&#xbe;" horiz-adv-x="845" 
d="M600 700h90l-435 -700h-90zM175 295q-60 0 -98.5 28.5t-46.5 81.5h90q4 -15 16.5 -22.5t38.5 -7.5t40.5 13.5t14.5 36.5q0 19 -12 32t-38 13h-40v75h40q26 0 35.5 12.5t9.5 27.5q0 40 -50 40q-26 0 -38.5 -13t-16.5 -32h-90q2 26 11.5 49t27.5 40t44 26.5t62 9.5
q32 0 58 -9t44 -24t28 -35t10 -42q0 -34 -18 -55.5t-37 -29.5q30 -15 45 -39.5t15 -50.5q0 -24 -8.5 -47t-26.5 -40t-45.5 -27.5t-64.5 -10.5zM665 85h-180v75l160 240h105v-240h60v-75h-60v-85h-85v85zM665 160v135h-5l-90 -135h95z" />
    <glyph glyph-name="questiondown" unicode="&#xbf;" horiz-adv-x="515" 
d="M265 -210q-49 0 -89.5 12.5t-69.5 36t-45 57t-16 74.5q0 46 12 76.5t30.5 52t40 37t40 32.5t30.5 38t12 54v55h115v-55q0 -48 -11.5 -78.5t-28.5 -51t-37.5 -35.5t-37.5 -30.5t-28.5 -36.5t-11.5 -53q0 -34 23 -57t72 -23q22 0 41 8t32.5 21t21.5 30t10 36h120
q-11 -98 -71 -149t-154 -51zM265 400q-30 0 -50 20t-20 50t20 50t50 20t50 -20t20 -50t-20 -50t-50 -20z" />
    <glyph glyph-name="Agrave" unicode="&#xc0;" horiz-adv-x="655" 
d="M250 700h155l255 -700h-130l-54 150h-297l-54 -150h-130zM437 260l-107 300h-5l-107 -300h219zM165 910h115l90 -145h-90z" />
    <glyph glyph-name="Aacute" unicode="&#xc1;" horiz-adv-x="655" 
d="M250 700h155l255 -700h-130l-54 150h-297l-54 -150h-130zM437 260l-107 300h-5l-107 -300h219zM370 910h115l-115 -145h-90z" />
    <glyph glyph-name="Acircumflex" unicode="&#xc2;" horiz-adv-x="655" 
d="M250 700h155l255 -700h-130l-54 150h-297l-54 -150h-130zM437 260l-107 300h-5l-107 -300h219zM290 915h75l135 -150h-100l-70 85h-5l-70 -85h-100z" />
    <glyph glyph-name="Atilde" unicode="&#xc3;" horiz-adv-x="655" 
d="M250 700h155l255 -700h-130l-54 150h-297l-54 -150h-130zM437 260l-107 300h-5l-107 -300h219zM395 780q-21 0 -37 7t-29.5 15.5t-25.5 15.5t-23 7q-30 0 -30 -40h-85q0 57 26.5 88.5t68.5 31.5q21 0 37 -7t29.5 -15.5t25.5 -15.5t23 -7q30 0 30 40h85q0 -57 -26.5 -88.5
t-68.5 -31.5z" />
    <glyph glyph-name="Adieresis" unicode="&#xc4;" horiz-adv-x="655" 
d="M250 700h155l255 -700h-130l-54 150h-297l-54 -150h-130zM437 260l-107 300h-5l-107 -300h219zM235 775q-30 0 -47.5 19.5t-17.5 45.5t17.5 45.5t47.5 19.5t47.5 -19.5t17.5 -45.5t-17.5 -45.5t-47.5 -19.5zM425 775q-30 0 -47.5 19.5t-17.5 45.5t17.5 45.5t47.5 19.5
t47.5 -19.5t17.5 -45.5t-17.5 -45.5t-47.5 -19.5z" />
    <glyph glyph-name="Aring" unicode="&#xc5;" horiz-adv-x="655" 
d="M250 700h155l255 -700h-130l-54 150h-297l-54 -150h-130zM437 260l-107 300h-5l-107 -300h219zM325 740q-45 0 -75 28t-30 77t30 77t75 28t75 -28t30 -77t-30 -77t-75 -28zM325 805q40 0 40 40t-40 40t-40 -40t40 -40z" />
    <glyph glyph-name="AE" unicode="&#xc6;" horiz-adv-x="950" 
d="M315 700h575v-110h-335v-185h315v-105h-315v-190h345v-110h-470v148h-249l-76 -148h-135zM430 259v321h-40l-155 -321h195z" />
    <glyph glyph-name="Ccedilla" unicode="&#xc7;" horiz-adv-x="700" 
d="M295 -150h55q30 0 30 27q0 28 -30 28h-45v50l16 38q-63 7 -114 33.5t-87 71.5t-55.5 108t-19.5 144q0 88 23.5 155.5t66 113t102.5 68.5t133 23q60 0 108 -15.5t84.5 -43.5t62 -67.5t40.5 -88.5h-130q-23 49 -62 77t-103 28q-90 0 -145 -63t-55 -187t55 -187t145 -63
q64 0 103 28t62 77h130q-29 -93 -94.5 -150t-174.5 -64l-11 -26q34 -4 57 -25.5t23 -59.5q0 -45 -28 -72.5t-77 -27.5h-65v70z" />
    <glyph glyph-name="Egrave" unicode="&#xc8;" horiz-adv-x="595" 
d="M75 700h460v-110h-335v-185h315v-105h-315v-190h345v-110h-470v700zM155 910h115l90 -145h-90z" />
    <glyph glyph-name="Eacute" unicode="&#xc9;" horiz-adv-x="595" 
d="M75 700h460v-110h-335v-185h315v-105h-315v-190h345v-110h-470v700zM355 910h115l-115 -145h-90z" />
    <glyph glyph-name="Ecircumflex" unicode="&#xca;" horiz-adv-x="595" 
d="M75 700h460v-110h-335v-185h315v-105h-315v-190h345v-110h-470v700zM275 915h75l135 -150h-100l-70 85h-5l-70 -85h-100z" />
    <glyph glyph-name="Edieresis" unicode="&#xcb;" horiz-adv-x="595" 
d="M75 700h460v-110h-335v-185h315v-105h-315v-190h345v-110h-470v700zM215 775q-30 0 -47.5 19.5t-17.5 45.5t17.5 45.5t47.5 19.5t47.5 -19.5t17.5 -45.5t-17.5 -45.5t-47.5 -19.5zM405 775q-30 0 -47.5 19.5t-17.5 45.5t17.5 45.5t47.5 19.5t47.5 -19.5t17.5 -45.5
t-17.5 -45.5t-47.5 -19.5z" />
    <glyph glyph-name="Igrave" unicode="&#xcc;" horiz-adv-x="275" 
d="M75 700h125v-700h-125v700zM-20 910h115l90 -145h-90z" />
    <glyph glyph-name="Iacute" unicode="&#xcd;" horiz-adv-x="275" 
d="M75 700h125v-700h-125v700zM185 910h115l-115 -145h-90z" />
    <glyph glyph-name="Icircumflex" unicode="&#xce;" horiz-adv-x="275" 
d="M75 700h125v-700h-125v700zM100 915h75l135 -150h-100l-70 85h-5l-70 -85h-100z" />
    <glyph glyph-name="Idieresis" unicode="&#xcf;" horiz-adv-x="275" 
d="M75 700h125v-700h-125v700zM45 775q-30 0 -47.5 19.5t-17.5 45.5t17.5 45.5t47.5 19.5t47.5 -19.5t17.5 -45.5t-17.5 -45.5t-47.5 -19.5zM235 775q-30 0 -47.5 19.5t-17.5 45.5t17.5 45.5t47.5 19.5t47.5 -19.5t17.5 -45.5t-17.5 -45.5t-47.5 -19.5z" />
    <glyph glyph-name="Eth" unicode="&#xd0;" horiz-adv-x="705" 
d="M85 300h-75v105h75v295h260q71 0 129 -23t99.5 -67.5t64 -110t22.5 -149.5t-22.5 -149.5t-64 -110t-99.5 -67.5t-129 -23h-260v300zM340 110q41 0 76.5 15t62 45t41.5 75t15 105t-15 105t-41.5 75t-62 45t-76.5 15h-130v-185h165v-105h-165v-190h130z" />
    <glyph glyph-name="Ntilde" unicode="&#xd1;" horiz-adv-x="745" 
d="M75 700h165l300 -525h5v525h125v-700h-165l-300 525h-5v-525h-125v700zM445 780q-21 0 -37 7t-29.5 15.5t-25.5 15.5t-23 7q-30 0 -30 -40h-85q0 57 26.5 88.5t68.5 31.5q21 0 37 -7t29.5 -15.5t25.5 -15.5t23 -7q30 0 30 40h85q0 -57 -26.5 -88.5t-68.5 -31.5z" />
    <glyph glyph-name="Ograve" unicode="&#xd2;" horiz-adv-x="740" 
d="M370 -10q-74 0 -133.5 24t-102.5 70t-66 113t-23 153t23 153t66 113t102.5 70t133.5 24q73 0 133 -24t103 -70t66 -113t23 -153t-23 -153t-66 -113t-103 -70t-133 -24zM370 100q90 0 145 63t55 187t-55 187t-145 63t-145 -63t-55 -187t55 -187t145 -63zM210 910h115
l90 -145h-90z" />
    <glyph glyph-name="Oacute" unicode="&#xd3;" horiz-adv-x="740" 
d="M370 -10q-74 0 -133.5 24t-102.5 70t-66 113t-23 153t23 153t66 113t102.5 70t133.5 24q73 0 133 -24t103 -70t66 -113t23 -153t-23 -153t-66 -113t-103 -70t-133 -24zM370 100q90 0 145 63t55 187t-55 187t-145 63t-145 -63t-55 -187t55 -187t145 -63zM415 910h115
l-115 -145h-90z" />
    <glyph glyph-name="Ocircumflex" unicode="&#xd4;" horiz-adv-x="740" 
d="M370 -10q-74 0 -133.5 24t-102.5 70t-66 113t-23 153t23 153t66 113t102.5 70t133.5 24q73 0 133 -24t103 -70t66 -113t23 -153t-23 -153t-66 -113t-103 -70t-133 -24zM370 100q90 0 145 63t55 187t-55 187t-145 63t-145 -63t-55 -187t55 -187t145 -63zM330 915h75
l135 -150h-100l-70 85h-5l-70 -85h-100z" />
    <glyph glyph-name="Otilde" unicode="&#xd5;" horiz-adv-x="740" 
d="M370 -10q-74 0 -133.5 24t-102.5 70t-66 113t-23 153t23 153t66 113t102.5 70t133.5 24q73 0 133 -24t103 -70t66 -113t23 -153t-23 -153t-66 -113t-103 -70t-133 -24zM370 100q90 0 145 63t55 187t-55 187t-145 63t-145 -63t-55 -187t55 -187t145 -63zM435 780
q-21 0 -37 7t-29.5 15.5t-25.5 15.5t-23 7q-30 0 -30 -40h-85q0 57 26.5 88.5t68.5 31.5q21 0 37 -7t29.5 -15.5t25.5 -15.5t23 -7q30 0 30 40h85q0 -57 -26.5 -88.5t-68.5 -31.5z" />
    <glyph glyph-name="Odieresis" unicode="&#xd6;" horiz-adv-x="740" 
d="M370 -10q-74 0 -133.5 24t-102.5 70t-66 113t-23 153t23 153t66 113t102.5 70t133.5 24q73 0 133 -24t103 -70t66 -113t23 -153t-23 -153t-66 -113t-103 -70t-133 -24zM370 100q90 0 145 63t55 187t-55 187t-145 63t-145 -63t-55 -187t55 -187t145 -63zM275 775
q-30 0 -47.5 19.5t-17.5 45.5t17.5 45.5t47.5 19.5t47.5 -19.5t17.5 -45.5t-17.5 -45.5t-47.5 -19.5zM465 775q-30 0 -47.5 19.5t-17.5 45.5t17.5 45.5t47.5 19.5t47.5 -19.5t17.5 -45.5t-17.5 -45.5t-47.5 -19.5z" />
    <glyph glyph-name="multiply" unicode="&#xd7;" horiz-adv-x="550" 
d="M45 160l165 165l-165 165l65 65l165 -165l165 165l65 -65l-165 -165l165 -165l-65 -65l-165 165l-165 -165z" />
    <glyph glyph-name="Oslash" unicode="&#xd8;" horiz-adv-x="740" 
d="M149 68q-50 46 -77 117t-27 165q0 86 23 153t66 113t102.5 70t133.5 24q76 0 137 -26l24 41h114l-55 -94q50 -46 77.5 -116.5t27.5 -164.5q0 -86 -23 -153t-66 -113t-103 -70t-133 -24q-38 0 -72 6.5t-65 18.5l-23 -40h-115zM449 585q-36 15 -79 15q-90 0 -145 -63
t-55 -187q0 -108 43 -172zM370 100q90 0 145 63t55 187q0 55 -11.5 97.5t-32.5 73.5l-235 -406q34 -15 79 -15z" />
    <glyph glyph-name="Ugrave" unicode="&#xd9;" horiz-adv-x="710" 
d="M355 -10q-66 0 -118.5 20t-89.5 59t-57 96t-20 131v404h125v-404q0 -95 44 -145.5t116 -50.5q71 0 115.5 50.5t44.5 145.5v404h125v-404q0 -74 -20 -131t-57 -96t-90 -59t-118 -20zM195 910h115l90 -145h-90z" />
    <glyph glyph-name="Uacute" unicode="&#xda;" horiz-adv-x="710" 
d="M355 -10q-66 0 -118.5 20t-89.5 59t-57 96t-20 131v404h125v-404q0 -95 44 -145.5t116 -50.5q71 0 115.5 50.5t44.5 145.5v404h125v-404q0 -74 -20 -131t-57 -96t-90 -59t-118 -20zM400 910h115l-115 -145h-90z" />
    <glyph glyph-name="Ucircumflex" unicode="&#xdb;" horiz-adv-x="710" 
d="M355 -10q-66 0 -118.5 20t-89.5 59t-57 96t-20 131v404h125v-404q0 -95 44 -145.5t116 -50.5q71 0 115.5 50.5t44.5 145.5v404h125v-404q0 -74 -20 -131t-57 -96t-90 -59t-118 -20zM315 915h75l135 -150h-100l-70 85h-5l-70 -85h-100z" />
    <glyph glyph-name="Udieresis" unicode="&#xdc;" horiz-adv-x="710" 
d="M355 -10q-66 0 -118.5 20t-89.5 59t-57 96t-20 131v404h125v-404q0 -95 44 -145.5t116 -50.5q71 0 115.5 50.5t44.5 145.5v404h125v-404q0 -74 -20 -131t-57 -96t-90 -59t-118 -20zM260 775q-30 0 -47.5 19.5t-17.5 45.5t17.5 45.5t47.5 19.5t47.5 -19.5t17.5 -45.5
t-17.5 -45.5t-47.5 -19.5zM450 775q-30 0 -47.5 19.5t-17.5 45.5t17.5 45.5t47.5 19.5t47.5 -19.5t17.5 -45.5t-17.5 -45.5t-47.5 -19.5z" />
    <glyph glyph-name="Yacute" unicode="&#xdd;" horiz-adv-x="585" 
d="M230 250l-245 450h130l175 -325h5l175 325h130l-245 -450v-250h-125v250zM335 910h115l-115 -145h-90z" />
    <glyph glyph-name="Thorn" unicode="&#xde;" horiz-adv-x="705" 
d="M75 700h125v-150h245q109 0 164.5 -55t55.5 -145t-55.5 -145t-164.5 -55h-245v-150h-125v700zM435 260q53 0 79 24t26 66t-26 66t-79 24h-235v-180h235z" />
    <glyph glyph-name="germandbls" unicode="&#xdf;" horiz-adv-x="575" 
d="M65 504q0 45 15 83t43.5 65.5t70.5 42.5t96 15q58 0 100.5 -17t70 -44t41 -61t13.5 -68q0 -57 -27.5 -96.5t-72.5 -58.5q28 -8 51 -24t39.5 -38.5t25.5 -50t9 -57.5q0 -93 -58.5 -144t-176.5 -51h-50v105h50q58 0 89 26t31 74q0 45 -30 72.5t-90 27.5h-50v100h30
q53 0 84 25.5t31 74.5q0 45 -29.5 72.5t-80.5 27.5q-53 0 -81.5 -29.5t-28.5 -74.5v-501h-115v504z" />
    <glyph glyph-name="agrave" unicode="&#xe0;" horiz-adv-x="545" 
d="M215 -10q-41 0 -74.5 12.5t-57 34.5t-36 52t-12.5 66q0 34 13 64t38.5 52.5t62.5 35.5t86 13h135v25q0 45 -28 70t-77 25q-42 0 -64.5 -18.5t-30.5 -41.5h-118q9 34 27 63t45 50.5t62.5 34t78.5 12.5q106 0 163 -52t57 -143v-345h-100l-10 65h-5q-8 -13 -21.5 -26.5
t-33.5 -24t-45 -17.5t-55 -7zM240 90q60 0 95 31t35 84v25h-130q-49 0 -69.5 -20t-20.5 -50t22.5 -50t67.5 -20zM115 750h115l90 -145h-90z" />
    <glyph glyph-name="aacute" unicode="&#xe1;" horiz-adv-x="545" 
d="M215 -10q-41 0 -74.5 12.5t-57 34.5t-36 52t-12.5 66q0 34 13 64t38.5 52.5t62.5 35.5t86 13h135v25q0 45 -28 70t-77 25q-42 0 -64.5 -18.5t-30.5 -41.5h-118q9 34 27 63t45 50.5t62.5 34t78.5 12.5q106 0 163 -52t57 -143v-345h-100l-10 65h-5q-8 -13 -21.5 -26.5
t-33.5 -24t-45 -17.5t-55 -7zM240 90q60 0 95 31t35 84v25h-130q-49 0 -69.5 -20t-20.5 -50t22.5 -50t67.5 -20zM320 750h115l-115 -145h-90z" />
    <glyph glyph-name="acircumflex" unicode="&#xe2;" horiz-adv-x="545" 
d="M215 -10q-41 0 -74.5 12.5t-57 34.5t-36 52t-12.5 66q0 34 13 64t38.5 52.5t62.5 35.5t86 13h135v25q0 45 -28 70t-77 25q-42 0 -64.5 -18.5t-30.5 -41.5h-118q9 34 27 63t45 50.5t62.5 34t78.5 12.5q106 0 163 -52t57 -143v-345h-100l-10 65h-5q-8 -13 -21.5 -26.5
t-33.5 -24t-45 -17.5t-55 -7zM240 90q60 0 95 31t35 84v25h-130q-49 0 -69.5 -20t-20.5 -50t22.5 -50t67.5 -20zM235 755h75l135 -150h-100l-70 85h-5l-70 -85h-100z" />
    <glyph glyph-name="atilde" unicode="&#xe3;" horiz-adv-x="545" 
d="M215 -10q-41 0 -74.5 12.5t-57 34.5t-36 52t-12.5 66q0 34 13 64t38.5 52.5t62.5 35.5t86 13h135v25q0 45 -28 70t-77 25q-42 0 -64.5 -18.5t-30.5 -41.5h-118q9 34 27 63t45 50.5t62.5 34t78.5 12.5q106 0 163 -52t57 -143v-345h-100l-10 65h-5q-8 -13 -21.5 -26.5
t-33.5 -24t-45 -17.5t-55 -7zM240 90q60 0 95 31t35 84v25h-130q-49 0 -69.5 -20t-20.5 -50t22.5 -50t67.5 -20zM345 620q-21 0 -37 7t-29.5 15.5t-25.5 15.5t-23 7q-30 0 -30 -40h-85q0 57 26.5 88.5t68.5 31.5q21 0 37 -7t29.5 -15.5t25.5 -15.5t23 -7q30 0 30 40h85
q0 -57 -26.5 -88.5t-68.5 -31.5z" />
    <glyph glyph-name="adieresis" unicode="&#xe4;" horiz-adv-x="545" 
d="M215 -10q-41 0 -74.5 12.5t-57 34.5t-36 52t-12.5 66q0 34 13 64t38.5 52.5t62.5 35.5t86 13h135v25q0 45 -28 70t-77 25q-42 0 -64.5 -18.5t-30.5 -41.5h-118q9 34 27 63t45 50.5t62.5 34t78.5 12.5q106 0 163 -52t57 -143v-345h-100l-10 65h-5q-8 -13 -21.5 -26.5
t-33.5 -24t-45 -17.5t-55 -7zM240 90q60 0 95 31t35 84v25h-130q-49 0 -69.5 -20t-20.5 -50t22.5 -50t67.5 -20zM180 615q-30 0 -47.5 19.5t-17.5 45.5t17.5 45.5t47.5 19.5t47.5 -19.5t17.5 -45.5t-17.5 -45.5t-47.5 -19.5zM370 615q-30 0 -47.5 19.5t-17.5 45.5t17.5 45.5
t47.5 19.5t47.5 -19.5t17.5 -45.5t-17.5 -45.5t-47.5 -19.5z" />
    <glyph glyph-name="aring" unicode="&#xe5;" horiz-adv-x="545" 
d="M215 -10q-41 0 -74.5 12.5t-57 34.5t-36 52t-12.5 66q0 34 13 64t38.5 52.5t62.5 35.5t86 13h135v25q0 45 -28 70t-77 25q-42 0 -64.5 -18.5t-30.5 -41.5h-118q9 34 27 63t45 50.5t62.5 34t78.5 12.5q106 0 163 -52t57 -143v-345h-100l-10 65h-5q-8 -13 -21.5 -26.5
t-33.5 -24t-45 -17.5t-55 -7zM240 90q60 0 95 31t35 84v25h-130q-49 0 -69.5 -20t-20.5 -50t22.5 -50t67.5 -20zM275 585q-45 0 -75 28t-30 77t30 77t75 28t75 -28t30 -77t-30 -77t-75 -28zM275 650q40 0 40 40t-40 40t-40 -40t40 -40z" />
    <glyph glyph-name="ae" unicode="&#xe6;" horiz-adv-x="900" 
d="M215 -10q-41 0 -74.5 12.5t-57 34.5t-36 52t-12.5 66q0 34 13 63t38.5 50.5t62.5 34t86 12.5h135v30q0 45 -28 70t-77 25q-42 0 -64.5 -18.5t-30.5 -41.5h-118q9 34 27 63t45 50.5t62.5 34t78.5 12.5q64 0 107.5 -26t62.5 -64q34 42 77 66t103 24t106 -21t76.5 -56.5
t46.5 -83t16 -99.5q0 -11 -1 -21t-2 -18q-1 -9 -2 -16h-370q4 -60 39.5 -95t95.5 -35q41 0 63.5 17t41.5 43h125q-11 -34 -30.5 -64t-48 -52.5t-66.5 -35.5t-86 -13q-67 0 -115.5 27.5t-78.5 72.5q-13 -21 -31.5 -39t-43.5 -31.5t-58.5 -21.5t-76.5 -8zM240 90q60 0 95 31
t35 84v20h-130q-49 0 -69.5 -19.5t-20.5 -45.5q0 -30 22.5 -50t67.5 -20zM743 315q-6 57 -40.5 88.5t-87.5 31.5q-57 0 -89.5 -31.5t-40.5 -88.5h258z" />
    <glyph glyph-name="ccedilla" unicode="&#xe7;" horiz-adv-x="555" 
d="M220 -150h55q30 0 30 27q0 28 -30 28h-45v50l17 38q-95 13 -151 83t-56 189q0 66 18 117t51 86t79 53.5t102 18.5q49 0 88 -14t68.5 -38t49.5 -55.5t29 -67.5h-115q-19 34 -47 52t-73 18q-60 0 -97.5 -43.5t-37.5 -126.5t37.5 -126.5t97.5 -43.5q45 0 73 18t47 52h115
q-9 -33 -26 -62t-42.5 -52.5t-59.5 -39t-76 -19.5l-11 -27q34 -4 57 -25.5t23 -59.5q0 -45 -28 -72.5t-77 -27.5h-65v70z" />
    <glyph glyph-name="egrave" unicode="&#xe8;" horiz-adv-x="580" 
d="M294 -10q-58 0 -105 18.5t-80 53.5t-51 86t-18 117t18 117t51 86t79 53.5t102 18.5q60 0 106.5 -21t78.5 -56.5t48.5 -83t16.5 -99.5q0 -11 -1 -20t-2 -16q-1 -8 -2 -14h-375q4 -60 39.5 -97.5t95.5 -37.5q42 0 66.5 17t43.5 43h125q-11 -34 -31 -64t-49 -52.5t-68 -35.5
t-88 -13zM420 320q-8 49 -40.5 82t-89.5 33q-53 0 -86 -31t-44 -84h260zM135 750h115l90 -145h-90z" />
    <glyph glyph-name="eacute" unicode="&#xe9;" horiz-adv-x="580" 
d="M294 -10q-58 0 -105 18.5t-80 53.5t-51 86t-18 117t18 117t51 86t79 53.5t102 18.5q60 0 106.5 -21t78.5 -56.5t48.5 -83t16.5 -99.5q0 -11 -1 -20t-2 -16q-1 -8 -2 -14h-375q4 -60 39.5 -97.5t95.5 -37.5q42 0 66.5 17t43.5 43h125q-11 -34 -31 -64t-49 -52.5t-68 -35.5
t-88 -13zM420 320q-8 49 -40.5 82t-89.5 33q-53 0 -86 -31t-44 -84h260zM340 750h115l-115 -145h-90z" />
    <glyph glyph-name="ecircumflex" unicode="&#xea;" horiz-adv-x="580" 
d="M294 -10q-58 0 -105 18.5t-80 53.5t-51 86t-18 117t18 117t51 86t79 53.5t102 18.5q60 0 106.5 -21t78.5 -56.5t48.5 -83t16.5 -99.5q0 -11 -1 -20t-2 -16q-1 -8 -2 -14h-375q4 -60 39.5 -97.5t95.5 -37.5q42 0 66.5 17t43.5 43h125q-11 -34 -31 -64t-49 -52.5t-68 -35.5
t-88 -13zM420 320q-8 49 -40.5 82t-89.5 33q-53 0 -86 -31t-44 -84h260zM255 755h75l135 -150h-100l-70 85h-5l-70 -85h-100z" />
    <glyph glyph-name="edieresis" unicode="&#xeb;" horiz-adv-x="580" 
d="M294 -10q-58 0 -105 18.5t-80 53.5t-51 86t-18 117t18 117t51 86t79 53.5t102 18.5q60 0 106.5 -21t78.5 -56.5t48.5 -83t16.5 -99.5q0 -11 -1 -20t-2 -16q-1 -8 -2 -14h-375q4 -60 39.5 -97.5t95.5 -37.5q42 0 66.5 17t43.5 43h125q-11 -34 -31 -64t-49 -52.5t-68 -35.5
t-88 -13zM420 320q-8 49 -40.5 82t-89.5 33q-53 0 -86 -31t-44 -84h260zM200 615q-30 0 -47.5 19.5t-17.5 45.5t17.5 45.5t47.5 19.5t47.5 -19.5t17.5 -45.5t-17.5 -45.5t-47.5 -19.5zM390 615q-30 0 -47.5 19.5t-17.5 45.5t17.5 45.5t47.5 19.5t47.5 -19.5t17.5 -45.5
t-17.5 -45.5t-47.5 -19.5z" />
    <glyph glyph-name="igrave" unicode="&#xec;" horiz-adv-x="245" 
d="M65 530h115v-530h-115v530zM-35 750h115l90 -145h-90z" />
    <glyph glyph-name="iacute" unicode="&#xed;" horiz-adv-x="245" 
d="M65 530h115v-530h-115v530zM165 750h115l-115 -145h-90z" />
    <glyph glyph-name="icircumflex" unicode="&#xee;" horiz-adv-x="245" 
d="M65 530h115v-530h-115v530zM85 755h75l135 -150h-100l-70 85h-5l-70 -85h-100z" />
    <glyph glyph-name="idieresis" unicode="&#xef;" horiz-adv-x="245" 
d="M65 530h115v-530h-115v530zM30 615q-30 0 -47.5 19.5t-17.5 45.5t17.5 45.5t47.5 19.5t47.5 -19.5t17.5 -45.5t-17.5 -45.5t-47.5 -19.5zM220 615q-30 0 -47.5 19.5t-17.5 45.5t17.5 45.5t47.5 19.5t47.5 -19.5t17.5 -45.5t-17.5 -45.5t-47.5 -19.5z" />
    <glyph glyph-name="eth" unicode="&#xf0;" horiz-adv-x="580" 
d="M280 -10q-113 0 -176.5 66.5t-63.5 183.5t59.5 183.5t165.5 66.5q42 0 73.5 -12.5t46.5 -27.5h5q-11 30 -35 62t-50 58l-125 -60l-35 70l100 50q-21 17 -42.5 31.5t-40.5 26.5t-34.5 20t-22.5 12h150q15 -8 34.5 -19.5t45.5 -30.5l95 40l35 -70l-65 -30
q60 -71 97.5 -154.5t37.5 -195.5q0 -128 -67 -199t-188 -71zM285 95q60 0 95 38.5t35 106.5t-35 106.5t-95 38.5t-95 -38.5t-35 -106.5t35 -106.5t95 -38.5z" />
    <glyph glyph-name="ntilde" unicode="&#xf1;" horiz-adv-x="580" 
d="M65 530h95l15 -65h5q23 38 61.5 56.5t83.5 18.5q43 0 79 -15.5t61.5 -43.5t40 -67.5t14.5 -88.5v-325h-115v315q0 57 -30.5 88.5t-79.5 31.5q-26 0 -47.5 -9.5t-36.5 -26t-23 -39t-8 -47.5v-313h-115v530zM360 620q-21 0 -37 7t-29.5 15.5t-25.5 15.5t-23 7
q-30 0 -30 -40h-85q0 57 26.5 88.5t68.5 31.5q21 0 37 -7t29.5 -15.5t25.5 -15.5t23 -7q30 0 30 40h85q0 -57 -26.5 -88.5t-68.5 -31.5z" />
    <glyph glyph-name="ograve" unicode="&#xf2;" horiz-adv-x="580" 
d="M290 -10q-56 0 -102 18.5t-79 53.5t-51 86t-18 117t18 117t51 86t79 53.5t102 18.5t102 -18.5t79 -53.5t51 -86t18 -117t-18 -117t-51 -86t-79 -53.5t-102 -18.5zM290 95q28 0 52.5 10.5t43 31.5t29 53t10.5 75t-10.5 75t-29 53t-43 31.5t-52.5 10.5t-52.5 -10.5
t-43 -31.5t-29 -53t-10.5 -75t10.5 -75t29 -53t43 -31.5t52.5 -10.5zM130 750h115l90 -145h-90z" />
    <glyph glyph-name="oacute" unicode="&#xf3;" horiz-adv-x="580" 
d="M290 -10q-56 0 -102 18.5t-79 53.5t-51 86t-18 117t18 117t51 86t79 53.5t102 18.5t102 -18.5t79 -53.5t51 -86t18 -117t-18 -117t-51 -86t-79 -53.5t-102 -18.5zM290 95q28 0 52.5 10.5t43 31.5t29 53t10.5 75t-10.5 75t-29 53t-43 31.5t-52.5 10.5t-52.5 -10.5
t-43 -31.5t-29 -53t-10.5 -75t10.5 -75t29 -53t43 -31.5t52.5 -10.5zM335 750h115l-115 -145h-90z" />
    <glyph glyph-name="ocircumflex" unicode="&#xf4;" horiz-adv-x="580" 
d="M290 -10q-56 0 -102 18.5t-79 53.5t-51 86t-18 117t18 117t51 86t79 53.5t102 18.5t102 -18.5t79 -53.5t51 -86t18 -117t-18 -117t-51 -86t-79 -53.5t-102 -18.5zM290 95q28 0 52.5 10.5t43 31.5t29 53t10.5 75t-10.5 75t-29 53t-43 31.5t-52.5 10.5t-52.5 -10.5
t-43 -31.5t-29 -53t-10.5 -75t10.5 -75t29 -53t43 -31.5t52.5 -10.5zM255 755h75l135 -150h-100l-70 85h-5l-70 -85h-100z" />
    <glyph glyph-name="otilde" unicode="&#xf5;" horiz-adv-x="580" 
d="M290 -10q-56 0 -102 18.5t-79 53.5t-51 86t-18 117t18 117t51 86t79 53.5t102 18.5t102 -18.5t79 -53.5t51 -86t18 -117t-18 -117t-51 -86t-79 -53.5t-102 -18.5zM290 95q28 0 52.5 10.5t43 31.5t29 53t10.5 75t-10.5 75t-29 53t-43 31.5t-52.5 10.5t-52.5 -10.5
t-43 -31.5t-29 -53t-10.5 -75t10.5 -75t29 -53t43 -31.5t52.5 -10.5zM360 620q-21 0 -37 7t-29.5 15.5t-25.5 15.5t-23 7q-30 0 -30 -40h-85q0 57 26.5 88.5t68.5 31.5q21 0 37 -7t29.5 -15.5t25.5 -15.5t23 -7q30 0 30 40h85q0 -57 -26.5 -88.5t-68.5 -31.5z" />
    <glyph glyph-name="odieresis" unicode="&#xf6;" horiz-adv-x="580" 
d="M290 -10q-56 0 -102 18.5t-79 53.5t-51 86t-18 117t18 117t51 86t79 53.5t102 18.5t102 -18.5t79 -53.5t51 -86t18 -117t-18 -117t-51 -86t-79 -53.5t-102 -18.5zM290 95q28 0 52.5 10.5t43 31.5t29 53t10.5 75t-10.5 75t-29 53t-43 31.5t-52.5 10.5t-52.5 -10.5
t-43 -31.5t-29 -53t-10.5 -75t10.5 -75t29 -53t43 -31.5t52.5 -10.5zM195 615q-30 0 -47.5 19.5t-17.5 45.5t17.5 45.5t47.5 19.5t47.5 -19.5t17.5 -45.5t-17.5 -45.5t-47.5 -19.5zM385 615q-30 0 -47.5 19.5t-17.5 45.5t17.5 45.5t47.5 19.5t47.5 -19.5t17.5 -45.5
t-17.5 -45.5t-47.5 -19.5z" />
    <glyph glyph-name="divide" unicode="&#xf7;" horiz-adv-x="540" 
d="M270 45q-26 0 -43 17.5t-17 47.5t17 47.5t43 17.5t43 -17.5t17 -47.5t-17 -47.5t-43 -17.5zM40 355h460v-95h-460v95zM270 440q-26 0 -43 17.5t-17 47.5t17 47.5t43 17.5t43 -17.5t17 -47.5t-17 -47.5t-43 -17.5z" />
    <glyph glyph-name="oslash" unicode="&#xf8;" horiz-adv-x="580" 
d="M108 63q-32 35 -50 85.5t-18 116.5t18 117t51 86t79 53.5t102 18.5q58 0 110 -22l20 32h105l-53 -83q32 -35 50 -85.5t18 -116.5t-18 -117t-51 -86t-79 -53.5t-102 -18.5q-31 0 -58.5 5.5t-51.5 15.5l-20 -31h-105zM340 425q-12 5 -24.5 7.5t-25.5 2.5q-28 0 -52.5 -10.5
t-43 -31.5t-29 -53t-10.5 -75q0 -58 19 -98zM290 95q28 0 52.5 10.5t43 31.5t29 53t10.5 75q0 60 -20 98l-166 -259q24 -9 51 -9z" />
    <glyph glyph-name="ugrave" unicode="&#xf9;" horiz-adv-x="585" 
d="M260 -10q-43 0 -79 15.5t-61.5 43.5t-40 67.5t-14.5 88.5v325h115v-315q0 -57 30.5 -88.5t79.5 -31.5q26 0 47.5 9.5t36.5 26t23 39t8 47.5v313h115v-530h-95l-15 65h-5q-23 -38 -61.5 -56.5t-83.5 -18.5zM135 750h115l90 -145h-90z" />
    <glyph glyph-name="uacute" unicode="&#xfa;" horiz-adv-x="585" 
d="M260 -10q-43 0 -79 15.5t-61.5 43.5t-40 67.5t-14.5 88.5v325h115v-315q0 -57 30.5 -88.5t79.5 -31.5q26 0 47.5 9.5t36.5 26t23 39t8 47.5v313h115v-530h-95l-15 65h-5q-23 -38 -61.5 -56.5t-83.5 -18.5zM340 750h115l-115 -145h-90z" />
    <glyph glyph-name="ucircumflex" unicode="&#xfb;" horiz-adv-x="585" 
d="M260 -10q-43 0 -79 15.5t-61.5 43.5t-40 67.5t-14.5 88.5v325h115v-315q0 -57 30.5 -88.5t79.5 -31.5q26 0 47.5 9.5t36.5 26t23 39t8 47.5v313h115v-530h-95l-15 65h-5q-23 -38 -61.5 -56.5t-83.5 -18.5zM255 755h75l135 -150h-100l-70 85h-5l-70 -85h-100z" />
    <glyph glyph-name="udieresis" unicode="&#xfc;" horiz-adv-x="585" 
d="M260 -10q-43 0 -79 15.5t-61.5 43.5t-40 67.5t-14.5 88.5v325h115v-315q0 -57 30.5 -88.5t79.5 -31.5q26 0 47.5 9.5t36.5 26t23 39t8 47.5v313h115v-530h-95l-15 65h-5q-23 -38 -61.5 -56.5t-83.5 -18.5zM200 615q-30 0 -47.5 19.5t-17.5 45.5t17.5 45.5t47.5 19.5
t47.5 -19.5t17.5 -45.5t-17.5 -45.5t-47.5 -19.5zM390 615q-30 0 -47.5 19.5t-17.5 45.5t17.5 45.5t47.5 19.5t47.5 -19.5t17.5 -45.5t-17.5 -45.5t-47.5 -19.5z" />
    <glyph glyph-name="yacute" unicode="&#xfd;" horiz-adv-x="545" 
d="M215 0l-215 530h125l145 -375h5l145 375h125l-290 -730h-120zM315 750h115l-115 -145h-90z" />
    <glyph glyph-name="thorn" unicode="&#xfe;" horiz-adv-x="610" 
d="M70 700h115v-230h5q23 30 60 50t90 20q51 0 93 -18t72.5 -52.5t47.5 -86t17 -118.5t-17 -118.5t-47.5 -86t-72.5 -52.5t-93 -18q-28 0 -52 6.5t-43.5 17t-33.5 23t-21 23.5h-5v-260h-115v900zM320 95q28 0 52.5 10.5t43 31.5t29 53t10.5 75t-10.5 75t-29 53t-43 31.5
t-52.5 10.5t-52.5 -10.5t-43 -31.5t-29 -53t-10.5 -75t10.5 -75t29 -53t43 -31.5t52.5 -10.5z" />
    <glyph glyph-name="ydieresis" unicode="&#xff;" horiz-adv-x="545" 
d="M215 0l-215 530h125l145 -375h5l145 375h125l-290 -730h-120zM175 615q-30 0 -47.5 19.5t-17.5 45.5t17.5 45.5t47.5 19.5t47.5 -19.5t17.5 -45.5t-17.5 -45.5t-47.5 -19.5zM365 615q-30 0 -47.5 19.5t-17.5 45.5t17.5 45.5t47.5 19.5t47.5 -19.5t17.5 -45.5t-17.5 -45.5
t-47.5 -19.5z" />
    <glyph glyph-name="Amacron" unicode="&#x100;" horiz-adv-x="655" 
d="M250 700h155l255 -700h-130l-54 150h-297l-54 -150h-130zM437 260l-107 300h-5l-107 -300h219zM180 880h295v-85h-295v85z" />
    <glyph glyph-name="amacron" unicode="&#x101;" horiz-adv-x="545" 
d="M215 -10q-41 0 -74.5 12.5t-57 34.5t-36 52t-12.5 66q0 34 13 64t38.5 52.5t62.5 35.5t86 13h135v25q0 45 -28 70t-77 25q-42 0 -64.5 -18.5t-30.5 -41.5h-118q9 34 27 63t45 50.5t62.5 34t78.5 12.5q106 0 163 -52t57 -143v-345h-100l-10 65h-5q-8 -13 -21.5 -26.5
t-33.5 -24t-45 -17.5t-55 -7zM240 90q60 0 95 31t35 84v25h-130q-49 0 -69.5 -20t-20.5 -50t22.5 -50t67.5 -20zM130 715h295v-85h-295v85z" />
    <glyph glyph-name="Abreve" unicode="&#x102;" horiz-adv-x="655" 
d="M250 700h155l255 -700h-130l-54 150h-297l-54 -150h-130zM437 260l-107 300h-5l-107 -300h219zM330 765q-64 0 -110.5 35t-54.5 110h90q4 -34 24.5 -49.5t50.5 -15.5t50.5 15.5t24.5 49.5h90q-8 -75 -54.5 -110t-110.5 -35z" />
    <glyph glyph-name="abreve" unicode="&#x103;" horiz-adv-x="545" 
d="M215 -10q-41 0 -74.5 12.5t-57 34.5t-36 52t-12.5 66q0 34 13 64t38.5 52.5t62.5 35.5t86 13h135v25q0 45 -28 70t-77 25q-42 0 -64.5 -18.5t-30.5 -41.5h-118q9 34 27 63t45 50.5t62.5 34t78.5 12.5q106 0 163 -52t57 -143v-345h-100l-10 65h-5q-8 -13 -21.5 -26.5
t-33.5 -24t-45 -17.5t-55 -7zM240 90q60 0 95 31t35 84v25h-130q-49 0 -69.5 -20t-20.5 -50t22.5 -50t67.5 -20zM275 605q-64 0 -110.5 35t-54.5 110h90q4 -34 24.5 -49.5t50.5 -15.5t50.5 15.5t24.5 49.5h90q-8 -75 -54.5 -110t-110.5 -35z" />
    <glyph glyph-name="Aogonek" unicode="&#x104;" horiz-adv-x="655" 
d="M580 -205q-64 0 -94.5 27.5t-30.5 72.5q0 22 7 39.5t17.5 30t24 21t26.5 14.5l-54 150h-297l-54 -150h-130l255 700h155l255 -700h-50q-34 -19 -52 -39.5t-18 -50.5q0 -19 12.5 -29.5t42.5 -10.5h25v-75h-40zM437 260l-107 300h-5l-107 -300h219z" />
    <glyph glyph-name="aogonek" unicode="&#x105;" horiz-adv-x="545" 
d="M455 -205q-64 0 -94.5 27.5t-30.5 72.5q0 22 7 39.5t17.5 30t24 21t26.5 14.5h-20l-10 65h-5q-8 -13 -21.5 -26.5t-33.5 -24t-45 -17.5t-55 -7q-41 0 -74.5 12.5t-57 34.5t-36 52t-12.5 66q0 34 13 64t38.5 52.5t62.5 35.5t86 13h135v25q0 45 -28 70t-77 25
q-42 0 -64.5 -18.5t-30.5 -41.5h-118q9 34 27 63t45 50.5t62.5 34t78.5 12.5q106 0 163 -52t57 -143v-345q-34 -19 -52 -39.5t-18 -50.5q0 -19 12.5 -29.5t42.5 -10.5h25v-75h-40zM240 90q60 0 95 31t35 84v25h-130q-49 0 -69.5 -20t-20.5 -50t22.5 -50t67.5 -20z" />
    <glyph glyph-name="Cacute" unicode="&#x106;" horiz-adv-x="700" 
d="M370 -10q-73 0 -133 23t-102.5 68.5t-66 113t-23.5 155.5t23.5 155.5t66 113t102.5 68.5t133 23q60 0 108 -15.5t84.5 -43.5t62 -67.5t40.5 -88.5h-130q-23 49 -62 77t-103 28q-90 0 -145 -63t-55 -187t55 -187t145 -63q64 0 103 28t62 77h130q-30 -98 -102.5 -156.5
t-192.5 -58.5zM410 910h115l-115 -145h-90z" />
    <glyph glyph-name="cacute" unicode="&#x107;" horiz-adv-x="555" 
d="M290 -10q-56 0 -102 18.5t-79 53.5t-51 86t-18 117t18 117t51 86t79 53.5t102 18.5q49 0 88 -14t68.5 -38t49.5 -55.5t29 -67.5h-115q-19 34 -47 52t-73 18q-60 0 -97.5 -43.5t-37.5 -126.5t37.5 -126.5t97.5 -43.5q45 0 73 18t47 52h115q-9 -36 -29 -67.5t-49.5 -55.5
t-68.5 -38t-88 -14zM340 750h115l-115 -145h-90z" />
    <glyph glyph-name="Ccircumflex" unicode="&#x108;" horiz-adv-x="700" 
d="M370 -10q-73 0 -133 23t-102.5 68.5t-66 113t-23.5 155.5t23.5 155.5t66 113t102.5 68.5t133 23q60 0 108 -15.5t84.5 -43.5t62 -67.5t40.5 -88.5h-130q-23 49 -62 77t-103 28q-90 0 -145 -63t-55 -187t55 -187t145 -63q64 0 103 28t62 77h130q-30 -98 -102.5 -156.5
t-192.5 -58.5zM330 915h75l135 -150h-100l-70 85h-5l-70 -85h-100z" />
    <glyph glyph-name="ccircumflex" unicode="&#x109;" horiz-adv-x="555" 
d="M290 -10q-56 0 -102 18.5t-79 53.5t-51 86t-18 117t18 117t51 86t79 53.5t102 18.5q49 0 88 -14t68.5 -38t49.5 -55.5t29 -67.5h-115q-19 34 -47 52t-73 18q-60 0 -97.5 -43.5t-37.5 -126.5t37.5 -126.5t97.5 -43.5q45 0 73 18t47 52h115q-9 -36 -29 -67.5t-49.5 -55.5
t-68.5 -38t-88 -14zM255 755h75l135 -150h-100l-70 85h-5l-70 -85h-100z" />
    <glyph glyph-name="Cdotaccent" unicode="&#x10a;" horiz-adv-x="700" 
d="M370 -10q-73 0 -133 23t-102.5 68.5t-66 113t-23.5 155.5t23.5 155.5t66 113t102.5 68.5t133 23q60 0 108 -15.5t84.5 -43.5t62 -67.5t40.5 -88.5h-130q-23 49 -62 77t-103 28q-90 0 -145 -63t-55 -187t55 -187t145 -63q64 0 103 28t62 77h130q-30 -98 -102.5 -156.5
t-192.5 -58.5zM370 775q-30 0 -47.5 19.5t-17.5 45.5t17.5 45.5t47.5 19.5t47.5 -19.5t17.5 -45.5t-17.5 -45.5t-47.5 -19.5z" />
    <glyph glyph-name="cdotaccent" unicode="&#x10b;" horiz-adv-x="555" 
d="M290 -10q-56 0 -102 18.5t-79 53.5t-51 86t-18 117t18 117t51 86t79 53.5t102 18.5q49 0 88 -14t68.5 -38t49.5 -55.5t29 -67.5h-115q-19 34 -47 52t-73 18q-60 0 -97.5 -43.5t-37.5 -126.5t37.5 -126.5t97.5 -43.5q45 0 73 18t47 52h115q-9 -36 -29 -67.5t-49.5 -55.5
t-68.5 -38t-88 -14zM295 615q-30 0 -47.5 19.5t-17.5 45.5t17.5 45.5t47.5 19.5t47.5 -19.5t17.5 -45.5t-17.5 -45.5t-47.5 -19.5z" />
    <glyph glyph-name="Ccaron" unicode="&#x10c;" horiz-adv-x="700" 
d="M370 -10q-73 0 -133 23t-102.5 68.5t-66 113t-23.5 155.5t23.5 155.5t66 113t102.5 68.5t133 23q60 0 108 -15.5t84.5 -43.5t62 -67.5t40.5 -88.5h-130q-23 49 -62 77t-103 28q-90 0 -145 -63t-55 -187t55 -187t145 -63q64 0 103 28t62 77h130q-30 -98 -102.5 -156.5
t-192.5 -58.5zM195 915h100l70 -85h5l70 85h100l-135 -150h-75z" />
    <glyph glyph-name="ccaron" unicode="&#x10d;" horiz-adv-x="555" 
d="M290 -10q-56 0 -102 18.5t-79 53.5t-51 86t-18 117t18 117t51 86t79 53.5t102 18.5q49 0 88 -14t68.5 -38t49.5 -55.5t29 -67.5h-115q-19 34 -47 52t-73 18q-60 0 -97.5 -43.5t-37.5 -126.5t37.5 -126.5t97.5 -43.5q45 0 73 18t47 52h115q-9 -36 -29 -67.5t-49.5 -55.5
t-68.5 -38t-88 -14zM120 750h100l70 -85h5l70 85h100l-135 -150h-75z" />
    <glyph glyph-name="Dcaron" unicode="&#x10e;" horiz-adv-x="695" 
d="M75 700h260q71 0 129 -23t99.5 -67.5t64 -110t22.5 -149.5t-22.5 -149.5t-64 -110t-99.5 -67.5t-129 -23h-260v700zM330 110q41 0 76.5 15t62 45t41.5 75t15 105t-15 105t-41.5 75t-62 45t-76.5 15h-130v-480h130zM170 915h100l70 -85h5l70 85h100l-135 -150h-75z" />
    <glyph glyph-name="dcaron" unicode="&#x10f;" horiz-adv-x="700" 
d="M270 -10q-51 0 -93 18t-72.5 52.5t-47.5 86t-17 118.5t17 118.5t47.5 86t72.5 52.5t93 18q28 0 52 -6.5t43.5 -17t33 -23t21.5 -23.5h5v230h115v-700h-95l-15 65h-5q-23 -30 -62.5 -52.5t-92.5 -22.5zM290 95q28 0 52.5 10.5t43 31.5t29 53t10.5 75t-10.5 75t-29 53
t-43 31.5t-52.5 10.5t-52.5 -10.5t-43 -31.5t-29 -53t-10.5 -75t10.5 -75t29 -53t43 -31.5t52.5 -10.5z" />
    <glyph glyph-name="Dcroat" unicode="&#x110;" horiz-adv-x="705" 
d="M85 300h-75v105h75v295h260q71 0 129 -23t99.5 -67.5t64 -110t22.5 -149.5t-22.5 -149.5t-64 -110t-99.5 -67.5t-129 -23h-260v300zM340 110q41 0 76.5 15t62 45t41.5 75t15 105t-15 105t-41.5 75t-62 45t-76.5 15h-130v-185h165v-105h-165v-190h130z" />
    <glyph glyph-name="dcroat" unicode="&#x111;" horiz-adv-x="610" 
d="M265 -10q-51 0 -92.5 16.5t-71 48.5t-45.5 78.5t-16 106.5t16 106.5t45.5 78.5t71 48.5t92.5 16.5q26 0 48.5 -6.5t41 -17t32.5 -23t23 -23.5h5v115h-135v95h135v70h115v-70h80v-95h-80v-535h-95l-15 65h-5q-23 -30 -60 -52.5t-90 -22.5zM285 95q60 0 95 38.5t35 106.5
t-35 106.5t-95 38.5t-95 -38.5t-35 -106.5t35 -106.5t95 -38.5z" />
    <glyph glyph-name="Emacron" unicode="&#x112;" horiz-adv-x="595" 
d="M75 700h460v-110h-335v-185h315v-105h-315v-190h345v-110h-470v700zM165 880h295v-85h-295v85z" />
    <glyph glyph-name="emacron" unicode="&#x113;" horiz-adv-x="580" 
d="M294 -10q-58 0 -105 18.5t-80 53.5t-51 86t-18 117t18 117t51 86t79 53.5t102 18.5q60 0 106.5 -21t78.5 -56.5t48.5 -83t16.5 -99.5q0 -11 -1 -20t-2 -16q-1 -8 -2 -14h-375q4 -60 39.5 -97.5t95.5 -37.5q42 0 66.5 17t43.5 43h125q-11 -34 -31 -64t-49 -52.5t-68 -35.5
t-88 -13zM420 320q-8 49 -40.5 82t-89.5 33q-53 0 -86 -31t-44 -84h260zM150 715h295v-85h-295v85z" />
    <glyph glyph-name="Ebreve" unicode="&#x114;" horiz-adv-x="595" 
d="M75 700h460v-110h-335v-185h315v-105h-315v-190h345v-110h-470v700zM310 765q-64 0 -110.5 35t-54.5 110h90q4 -34 24.5 -49.5t50.5 -15.5t50.5 15.5t24.5 49.5h90q-8 -75 -54.5 -110t-110.5 -35z" />
    <glyph glyph-name="ebreve" unicode="&#x115;" horiz-adv-x="580" 
d="M294 -10q-58 0 -105 18.5t-80 53.5t-51 86t-18 117t18 117t51 86t79 53.5t102 18.5q60 0 106.5 -21t78.5 -56.5t48.5 -83t16.5 -99.5q0 -11 -1 -20t-2 -16q-1 -8 -2 -14h-375q4 -60 39.5 -97.5t95.5 -37.5q42 0 66.5 17t43.5 43h125q-11 -34 -31 -64t-49 -52.5t-68 -35.5
t-88 -13zM420 320q-8 49 -40.5 82t-89.5 33q-53 0 -86 -31t-44 -84h260zM295 605q-64 0 -110.5 35t-54.5 110h90q4 -34 24.5 -49.5t50.5 -15.5t50.5 15.5t24.5 49.5h90q-8 -75 -54.5 -110t-110.5 -35z" />
    <glyph glyph-name="Edotaccent" unicode="&#x116;" horiz-adv-x="595" 
d="M75 700h460v-110h-335v-185h315v-105h-315v-190h345v-110h-470v700zM310 775q-30 0 -47.5 19.5t-17.5 45.5t17.5 45.5t47.5 19.5t47.5 -19.5t17.5 -45.5t-17.5 -45.5t-47.5 -19.5z" />
    <glyph glyph-name="edotaccent" unicode="&#x117;" horiz-adv-x="580" 
d="M294 -10q-58 0 -105 18.5t-80 53.5t-51 86t-18 117t18 117t51 86t79 53.5t102 18.5q60 0 106.5 -21t78.5 -56.5t48.5 -83t16.5 -99.5q0 -11 -1 -20t-2 -16q-1 -8 -2 -14h-375q4 -60 39.5 -97.5t95.5 -37.5q42 0 66.5 17t43.5 43h125q-11 -34 -31 -64t-49 -52.5t-68 -35.5
t-88 -13zM420 320q-8 49 -40.5 82t-89.5 33q-53 0 -86 -31t-44 -84h260zM295 615q-30 0 -47.5 19.5t-17.5 45.5t17.5 45.5t47.5 19.5t47.5 -19.5t17.5 -45.5t-17.5 -45.5t-47.5 -19.5z" />
    <glyph glyph-name="Eogonek" unicode="&#x118;" horiz-adv-x="595" 
d="M515 -205q-64 0 -94.5 27.5t-30.5 72.5q0 22 7 39.5t17.5 30t24 21t26.5 14.5h-390v700h460v-110h-335v-185h315v-105h-315v-190h345v-110q-34 -19 -52 -39.5t-18 -50.5q0 -19 12.5 -29.5t42.5 -10.5h25v-75h-40v0z" />
    <glyph glyph-name="eogonek" unicode="&#x119;" horiz-adv-x="580" 
d="M330 -205q-64 0 -94.5 27.5t-30.5 72.5q0 38 17.5 61t39.5 36q-103 9 -162.5 79.5t-59.5 193.5q0 66 18 117t51 86t79 53.5t102 18.5q60 0 106.5 -21t78.5 -56.5t48.5 -83t16.5 -99.5q0 -11 -1 -20t-2 -16q-1 -8 -2 -14h-375q4 -60 39.5 -97.5t95.5 -37.5q42 0 66.5 17
t43.5 43h125q-19 -57 -62.5 -101t-115.5 -58q-30 -18 -46 -37.5t-16 -48.5q0 -19 12.5 -29.5t42.5 -10.5h25v-75h-40zM420 320q-8 49 -40.5 82t-89.5 33q-53 0 -86 -31t-44 -84h260z" />
    <glyph glyph-name="Ecaron" unicode="&#x11a;" horiz-adv-x="595" 
d="M75 700h460v-110h-335v-185h315v-105h-315v-190h345v-110h-470v700zM140 915h100l70 -85h5l70 85h100l-135 -150h-75z" />
    <glyph glyph-name="ecaron" unicode="&#x11b;" horiz-adv-x="580" 
d="M294 -10q-58 0 -105 18.5t-80 53.5t-51 86t-18 117t18 117t51 86t79 53.5t102 18.5q60 0 106.5 -21t78.5 -56.5t48.5 -83t16.5 -99.5q0 -11 -1 -20t-2 -16q-1 -8 -2 -14h-375q4 -60 39.5 -97.5t95.5 -37.5q42 0 66.5 17t43.5 43h125q-11 -34 -31 -64t-49 -52.5t-68 -35.5
t-88 -13zM420 320q-8 49 -40.5 82t-89.5 33q-53 0 -86 -31t-44 -84h260zM120 750h100l70 -85h5l70 85h100l-135 -150h-75z" />
    <glyph glyph-name="Gcircumflex" unicode="&#x11c;" horiz-adv-x="725" 
d="M370 -10q-73 0 -133 23t-102.5 68.5t-66 113t-23.5 155.5t23.5 155.5t66 113t102.5 68.5t133 23q60 0 108 -15.5t84.5 -43.5t62 -67.5t40.5 -88.5h-130q-23 49 -62 77t-103 28q-90 0 -145 -63t-55 -187t55 -187t145 -63q44 0 77 14.5t56 38t35.5 53t16.5 59.5h-195v105
h320v-49q0 -75 -21 -136t-61 -104.5t-97.5 -67t-130.5 -23.5zM330 915h75l135 -150h-100l-70 85h-5l-70 -85h-100z" />
    <glyph glyph-name="gcircumflex" unicode="&#x11d;" horiz-adv-x="600" 
d="M290 -200q-102 0 -159.5 45.5t-80.5 124.5h120q11 -34 43 -49.5t77 -15.5q60 0 95 28.5t35 81.5v85h-5q-19 -26 -58 -48t-92 -22q-49 0 -90 16.5t-71 49t-47 80t-17 109.5t17 109.5t47 80t71 49t90 16.5q53 0 92.5 -22.5t62.5 -52.5h5l15 65h95v-515q0 -102 -62 -158.5
t-183 -56.5zM286 135q28 0 52.5 10t42.5 29.5t28.5 47t10.5 63.5t-10.5 63.5t-29 47t-43 29.5t-52.5 10q-57 0 -93.5 -39t-36.5 -111t37 -111t94 -39zM265 755h75l135 -150h-100l-70 85h-5l-70 -85h-100z" />
    <glyph glyph-name="Gbreve" unicode="&#x11e;" horiz-adv-x="725" 
d="M370 -10q-73 0 -133 23t-102.5 68.5t-66 113t-23.5 155.5t23.5 155.5t66 113t102.5 68.5t133 23q60 0 108 -15.5t84.5 -43.5t62 -67.5t40.5 -88.5h-130q-23 49 -62 77t-103 28q-90 0 -145 -63t-55 -187t55 -187t145 -63q44 0 77 14.5t56 38t35.5 53t16.5 59.5h-195v105
h320v-49q0 -75 -21 -136t-61 -104.5t-97.5 -67t-130.5 -23.5zM370 765q-64 0 -110.5 35t-54.5 110h90q4 -34 24.5 -49.5t50.5 -15.5t50.5 15.5t24.5 49.5h90q-8 -75 -54.5 -110t-110.5 -35z" />
    <glyph glyph-name="gbreve" unicode="&#x11f;" horiz-adv-x="600" 
d="M290 -200q-102 0 -159.5 45.5t-80.5 124.5h120q11 -34 43 -49.5t77 -15.5q60 0 95 28.5t35 81.5v85h-5q-19 -26 -58 -48t-92 -22q-49 0 -90 16.5t-71 49t-47 80t-17 109.5t17 109.5t47 80t71 49t90 16.5q53 0 92.5 -22.5t62.5 -52.5h5l15 65h95v-515q0 -102 -62 -158.5
t-183 -56.5zM286 135q28 0 52.5 10t42.5 29.5t28.5 47t10.5 63.5t-10.5 63.5t-29 47t-43 29.5t-52.5 10q-57 0 -93.5 -39t-36.5 -111t37 -111t94 -39zM305 605q-64 0 -110.5 35t-54.5 110h90q4 -34 24.5 -49.5t50.5 -15.5t50.5 15.5t24.5 49.5h90q-8 -75 -54.5 -110
t-110.5 -35z" />
    <glyph glyph-name="Gdotaccent" unicode="&#x120;" horiz-adv-x="725" 
d="M370 -10q-73 0 -133 23t-102.5 68.5t-66 113t-23.5 155.5t23.5 155.5t66 113t102.5 68.5t133 23q60 0 108 -15.5t84.5 -43.5t62 -67.5t40.5 -88.5h-130q-23 49 -62 77t-103 28q-90 0 -145 -63t-55 -187t55 -187t145 -63q44 0 77 14.5t56 38t35.5 53t16.5 59.5h-195v105
h320v-49q0 -75 -21 -136t-61 -104.5t-97.5 -67t-130.5 -23.5zM370 775q-30 0 -47.5 19.5t-17.5 45.5t17.5 45.5t47.5 19.5t47.5 -19.5t17.5 -45.5t-17.5 -45.5t-47.5 -19.5z" />
    <glyph glyph-name="gdotaccent" unicode="&#x121;" horiz-adv-x="600" 
d="M290 -200q-102 0 -159.5 45.5t-80.5 124.5h120q11 -34 43 -49.5t77 -15.5q60 0 95 28.5t35 81.5v85h-5q-19 -26 -58 -48t-92 -22q-49 0 -90 16.5t-71 49t-47 80t-17 109.5t17 109.5t47 80t71 49t90 16.5q53 0 92.5 -22.5t62.5 -52.5h5l15 65h95v-515q0 -102 -62 -158.5
t-183 -56.5zM286 135q28 0 52.5 10t42.5 29.5t28.5 47t10.5 63.5t-10.5 63.5t-29 47t-43 29.5t-52.5 10q-57 0 -93.5 -39t-36.5 -111t37 -111t94 -39zM305 615q-30 0 -47.5 19.5t-17.5 45.5t17.5 45.5t47.5 19.5t47.5 -19.5t17.5 -45.5t-17.5 -45.5t-47.5 -19.5z" />
    <glyph glyph-name="Gcommaaccent" unicode="&#x122;" horiz-adv-x="725" 
d="M370 -10q-73 0 -133 23t-102.5 68.5t-66 113t-23.5 155.5t23.5 155.5t66 113t102.5 68.5t133 23q60 0 108 -15.5t84.5 -43.5t62 -67.5t40.5 -88.5h-130q-23 49 -62 77t-103 28q-90 0 -145 -63t-55 -187t55 -187t145 -63q44 0 77 14.5t56 38t35.5 53t16.5 59.5h-195v105
h320v-49q0 -75 -21 -136t-61 -104.5t-97.5 -67t-130.5 -23.5zM320 -85h105l-75 -165h-75z" />
    <glyph glyph-name="gcommaaccent" unicode="&#x123;" horiz-adv-x="600" 
d="M320 770h75l-45 -165h-105zM290 -200q-102 0 -159.5 45.5t-80.5 124.5h120q11 -34 43 -49.5t77 -15.5q60 0 95 28.5t35 81.5v85h-5q-19 -26 -58 -48t-92 -22q-49 0 -90 16.5t-71 49t-47 80t-17 109.5t17 109.5t47 80t71 49t90 16.5q53 0 92.5 -22.5t62.5 -52.5h5l15 65
h95v-515q0 -102 -62 -158.5t-183 -56.5zM286 135q28 0 52.5 10t42.5 29.5t28.5 47t10.5 63.5t-10.5 63.5t-29 47t-43 29.5t-52.5 10q-57 0 -93.5 -39t-36.5 -111t37 -111t94 -39z" />
    <glyph glyph-name="Hcircumflex" unicode="&#x124;" horiz-adv-x="715" 
d="M75 700h125v-290h315v290h125v-700h-125v300h-315v-300h-125v700zM320 915h75l135 -150h-100l-70 85h-5l-70 -85h-100z" />
    <glyph glyph-name="hcircumflex" unicode="&#x125;" horiz-adv-x="585" 
d="M70 700h115v-230h5q23 34 59 52t81 18q43 0 79 -15.5t61.5 -43.5t40 -67.5t14.5 -88.5v-325h-115v315q0 57 -30.5 88.5t-79.5 31.5q-26 0 -47.5 -9.5t-36.5 -26t-23 -39t-8 -47.5v-313h-115v700zM260 925h75l135 -150h-100l-70 85h-5l-70 -85h-100z" />
    <glyph glyph-name="Hbar" unicode="&#x126;" horiz-adv-x="725" 
d="M80 510h-70v100h70v90h125v-90h315v90h125v-90h70v-100h-70v-510h-125v300h-315v-300h-125v510zM520 410v100h-315v-100h315z" />
    <glyph glyph-name="hbar" unicode="&#x127;" horiz-adv-x="590" 
d="M75 535h-75v95h75v70h115v-70h135v-95h-135v-135h5q23 34 59 52t81 18q43 0 79 -15.5t61.5 -43.5t40 -67.5t14.5 -88.5v-255h-115v245q0 57 -30.5 88.5t-79.5 31.5q-26 0 -47.5 -9.5t-36.5 -26t-23 -39t-8 -47.5v-243h-115v535z" />
    <glyph glyph-name="Imacron" unicode="&#x12a;" horiz-adv-x="275" 
d="M75 700h125v-700h-125v700zM-10 880h295v-85h-295v85z" />
    <glyph glyph-name="imacron" unicode="&#x12b;" horiz-adv-x="245" 
d="M65 530h115v-530h-115v530zM-25 715h295v-85h-295v85z" />
    <glyph glyph-name="Ibreve" unicode="&#x12c;" horiz-adv-x="275" 
d="M75 700h125v-700h-125v700zM140 765q-64 0 -110.5 35t-54.5 110h90q4 -34 24.5 -49.5t50.5 -15.5t50.5 15.5t24.5 49.5h90q-8 -75 -54.5 -110t-110.5 -35z" />
    <glyph glyph-name="ibreve" unicode="&#x12d;" horiz-adv-x="245" 
d="M65 530h115v-530h-115v530zM125 605q-64 0 -110.5 35t-54.5 110h90q4 -34 24.5 -49.5t50.5 -15.5t50.5 15.5t24.5 49.5h90q-8 -75 -54.5 -110t-110.5 -35z" />
    <glyph glyph-name="Iogonek" unicode="&#x12e;" horiz-adv-x="275" 
d="M125 -205q-64 0 -94.5 27.5t-30.5 72.5q0 22 7 39.5t17.5 30t24 21t26.5 14.5v700h125v-700h-45q-34 -19 -52 -39.5t-18 -50.5q0 -19 12.5 -29.5t42.5 -10.5h25v-75h-40v0z" />
    <glyph glyph-name="iogonek" unicode="&#x12f;" horiz-adv-x="245" 
d="M115 -205q-64 0 -94.5 27.5t-30.5 72.5q0 22 7 39.5t17.5 30t24 21t26.5 14.5v530h115v-530h-35q-34 -19 -52 -39.5t-18 -50.5q0 -19 12.5 -29.5t42.5 -10.5h25v-75h-40zM122 590q-32 0 -52 20t-20 50t20 50t52 20t52.5 -20t20.5 -50t-20.5 -50t-52.5 -20z" />
    <glyph glyph-name="Idotaccent" unicode="&#x130;" horiz-adv-x="275" 
d="M75 700h125v-700h-125v700zM140 775q-30 0 -47.5 19.5t-17.5 45.5t17.5 45.5t47.5 19.5t47.5 -19.5t17.5 -45.5t-17.5 -45.5t-47.5 -19.5z" />
    <glyph glyph-name="dotlessi" unicode="&#x131;" horiz-adv-x="245" 
d="M65 530h115v-530h-115v530z" />
    <glyph glyph-name="uni0132" unicode="&#x132;" horiz-adv-x="795" 
d="M75 700h125v-700h-125v700zM490 -10q-102 0 -163 54.5t-72 160.5h125q8 -53 38 -79t72 -26q49 0 79.5 34t30.5 106v460h125v-460q0 -121 -63 -185.5t-172 -64.5z" />
    <glyph glyph-name="uni0133" unicode="&#x133;" horiz-adv-x="495" 
d="M65 530h115v-530h-115v530zM122 590q-32 0 -52 20t-20 50t20 50t52 20t52.5 -20t20.5 -50t-20.5 -50t-52.5 -20zM180 -100h80q23 0 39 14.5t16 40.5v575h115v-585q0 -72 -40 -108.5t-115 -36.5h-95v100zM372 590q-32 0 -52 20t-20 50t20 50t52 20t52.5 -20t20.5 -50
t-20.5 -50t-52.5 -20z" />
    <glyph glyph-name="Jcircumflex" unicode="&#x134;" horiz-adv-x="565" 
d="M260 -10q-102 0 -163 54.5t-72 160.5h125q8 -53 38 -79t72 -26q49 0 79.5 34t30.5 106v460h125v-460q0 -121 -63 -185.5t-172 -64.5zM390 915h75l135 -150h-100l-70 85h-5l-70 -85h-100z" />
    <glyph glyph-name="jcircumflex" unicode="&#x135;" horiz-adv-x="245" 
d="M-70 -100h80q23 0 39 14.5t16 40.5v575h115v-585q0 -72 -40 -108.5t-115 -36.5h-95v100zM85 755h75l135 -150h-100l-70 85h-5l-70 -85h-100z" />
    <glyph glyph-name="Kcommaaccent" unicode="&#x136;" horiz-adv-x="615" 
d="M75 700h125v-320l275 320h145l-295 -345l310 -355h-145l-290 330v-330h-125v700zM285 -85h105l-75 -165h-75z" />
    <glyph glyph-name="kcommaaccent" unicode="&#x137;" horiz-adv-x="535" 
d="M70 700h115v-410l215 240h140l-235 -260l250 -270h-140l-230 250v-250h-115v700zM240 -85h105l-75 -165h-75z" />
    <glyph glyph-name="Lacute" unicode="&#x139;" horiz-adv-x="555" 
d="M75 700h125v-590h335v-110h-460v700zM185 910h115l-115 -145h-90z" />
    <glyph glyph-name="lacute" unicode="&#x13a;" horiz-adv-x="255" 
d="M70 700h115v-700h-115v700zM170 910h115l-115 -145h-90z" />
    <glyph glyph-name="Lcommaaccent" unicode="&#x13b;" horiz-adv-x="555" 
d="M75 700h125v-590h335v-110h-460v700zM255 -85h105l-75 -165h-75z" />
    <glyph glyph-name="lcommaaccent" unicode="&#x13c;" horiz-adv-x="255" 
d="M70 700h115v-700h-115v700zM75 -85h105l-75 -165h-75z" />
    <glyph glyph-name="Lcaron" unicode="&#x13d;" horiz-adv-x="555" 
d="M75 700h125v-590h335v-110h-460v700z" />
    <glyph glyph-name="lcaron" unicode="&#x13e;" horiz-adv-x="345" 
d="M70 700h115v-700h-115v700z" />
    <glyph glyph-name="Ldot" unicode="&#x13f;" horiz-adv-x="555" 
d="M410 325q-30 0 -50 20t-20 50t20 50t50 20t50 -20t20 -50t-20 -50t-50 -20zM75 700h125v-590h335v-110h-460v700z" />
    <glyph glyph-name="ldot" unicode="&#x140;" horiz-adv-x="385" 
d="M320 290q-30 0 -50 20t-20 50t20 50t50 20t50 -20t20 -50t-20 -50t-50 -20zM70 700h115v-700h-115v700z" />
    <glyph glyph-name="Lslash" unicode="&#x141;" horiz-adv-x="570" 
d="M90 275l-85 -30v120l85 30v305h125v-260l155 55v-120l-155 -55v-210h335v-110h-460v275z" />
    <glyph glyph-name="lslash" unicode="&#x142;" horiz-adv-x="295" 
d="M90 272l-75 -32v115l75 32v313h115v-262l75 32v-115l-75 -33v-322h-115v272z" />
    <glyph glyph-name="Nacute" unicode="&#x143;" horiz-adv-x="745" 
d="M75 700h165l300 -525h5v525h125v-700h-165l-300 525h-5v-525h-125v700zM420 910h115l-115 -145h-90z" />
    <glyph glyph-name="nacute" unicode="&#x144;" horiz-adv-x="580" 
d="M65 530h95l15 -65h5q23 38 61.5 56.5t83.5 18.5q43 0 79 -15.5t61.5 -43.5t40 -67.5t14.5 -88.5v-325h-115v315q0 57 -30.5 88.5t-79.5 31.5q-26 0 -47.5 -9.5t-36.5 -26t-23 -39t-8 -47.5v-313h-115v530zM340 750h115l-115 -145h-90z" />
    <glyph glyph-name="Ncommaaccent" unicode="&#x145;" horiz-adv-x="745" 
d="M75 700h165l300 -525h5v525h125v-700h-165l-300 525h-5v-525h-125v700zM325 -85h105l-75 -165h-75z" />
    <glyph glyph-name="ncommaaccent" unicode="&#x146;" horiz-adv-x="580" 
d="M65 530h95l15 -65h5q23 38 61.5 56.5t83.5 18.5q43 0 79 -15.5t61.5 -43.5t40 -67.5t14.5 -88.5v-325h-115v315q0 57 -30.5 88.5t-79.5 31.5q-26 0 -47.5 -9.5t-36.5 -26t-23 -39t-8 -47.5v-313h-115v530zM240 -85h105l-75 -165h-75z" />
    <glyph glyph-name="Ncaron" unicode="&#x147;" horiz-adv-x="745" 
d="M75 700h165l300 -525h5v525h125v-700h-165l-300 525h-5v-525h-125v700zM200 915h100l70 -85h5l70 85h100l-135 -150h-75z" />
    <glyph glyph-name="ncaron" unicode="&#x148;" horiz-adv-x="580" 
d="M65 530h95l15 -65h5q23 38 61.5 56.5t83.5 18.5q43 0 79 -15.5t61.5 -43.5t40 -67.5t14.5 -88.5v-325h-115v315q0 57 -30.5 88.5t-79.5 31.5q-26 0 -47.5 -9.5t-36.5 -26t-23 -39t-8 -47.5v-313h-115v530zM120 750h100l70 -85h5l70 85h100l-135 -150h-75z" />
    <glyph glyph-name="napostrophe" unicode="&#x149;" horiz-adv-x="630" 
d="M115 530h95l15 -65h5q23 38 61.5 56.5t83.5 18.5q43 0 79 -15.5t61.5 -43.5t40 -67.5t14.5 -88.5v-325h-115v315q0 57 -30.5 88.5t-79.5 31.5q-26 0 -47.5 -9.5t-36.5 -26t-23 -39t-8 -47.5v-313h-115v530zM50 720h100l-70 -165h-75z" />
    <glyph glyph-name="Eng" unicode="&#x14a;" horiz-adv-x="745" 
d="M395 -110h45q105 0 105 105v5h-40l-300 525h-5v-525h-125v700h165l300 -525h5v525h125v-690q0 -124 -58 -179.5t-167 -55.5h-50v115z" />
    <glyph glyph-name="eng" unicode="&#x14b;" horiz-adv-x="580" 
d="M270 -100h80q23 0 39 14.5t16 40.5v360q0 57 -30.5 88.5t-79.5 31.5q-26 0 -47.5 -9.5t-36.5 -26t-23 -39t-8 -47.5v-313h-115v530h95l15 -65h5q23 38 61.5 56.5t83.5 18.5q43 0 79 -15.5t61.5 -43.5t40 -67.5t14.5 -88.5v-380q0 -72 -40 -108.5t-115 -36.5h-95v100z" />
    <glyph glyph-name="Omacron" unicode="&#x14c;" horiz-adv-x="740" 
d="M370 -10q-74 0 -133.5 24t-102.5 70t-66 113t-23 153t23 153t66 113t102.5 70t133.5 24q73 0 133 -24t103 -70t66 -113t23 -153t-23 -153t-66 -113t-103 -70t-133 -24zM370 100q90 0 145 63t55 187t-55 187t-145 63t-145 -63t-55 -187t55 -187t145 -63zM220 880h295v-85
h-295v85z" />
    <glyph glyph-name="omacron" unicode="&#x14d;" horiz-adv-x="580" 
d="M290 -10q-56 0 -102 18.5t-79 53.5t-51 86t-18 117t18 117t51 86t79 53.5t102 18.5t102 -18.5t79 -53.5t51 -86t18 -117t-18 -117t-51 -86t-79 -53.5t-102 -18.5zM290 95q28 0 52.5 10.5t43 31.5t29 53t10.5 75t-10.5 75t-29 53t-43 31.5t-52.5 10.5t-52.5 -10.5
t-43 -31.5t-29 -53t-10.5 -75t10.5 -75t29 -53t43 -31.5t52.5 -10.5zM145 715h295v-85h-295v85z" />
    <glyph glyph-name="Obreve" unicode="&#x14e;" horiz-adv-x="740" 
d="M370 -10q-74 0 -133.5 24t-102.5 70t-66 113t-23 153t23 153t66 113t102.5 70t133.5 24q73 0 133 -24t103 -70t66 -113t23 -153t-23 -153t-66 -113t-103 -70t-133 -24zM370 100q90 0 145 63t55 187t-55 187t-145 63t-145 -63t-55 -187t55 -187t145 -63zM370 770
q-64 0 -110.5 35t-54.5 110h90q4 -34 24.5 -49.5t50.5 -15.5t50.5 15.5t24.5 49.5h90q-8 -75 -54.5 -110t-110.5 -35z" />
    <glyph glyph-name="obreve" unicode="&#x14f;" horiz-adv-x="580" 
d="M290 -10q-56 0 -102 18.5t-79 53.5t-51 86t-18 117t18 117t51 86t79 53.5t102 18.5t102 -18.5t79 -53.5t51 -86t18 -117t-18 -117t-51 -86t-79 -53.5t-102 -18.5zM290 95q28 0 52.5 10.5t43 31.5t29 53t10.5 75t-10.5 75t-29 53t-43 31.5t-52.5 10.5t-52.5 -10.5
t-43 -31.5t-29 -53t-10.5 -75t10.5 -75t29 -53t43 -31.5t52.5 -10.5zM290 605q-64 0 -110.5 35t-54.5 110h90q4 -34 24.5 -49.5t50.5 -15.5t50.5 15.5t24.5 49.5h90q-8 -75 -54.5 -110t-110.5 -35z" />
    <glyph glyph-name="Ohungarumlaut" unicode="&#x150;" horiz-adv-x="740" 
d="M370 -10q-74 0 -133.5 24t-102.5 70t-66 113t-23 153t23 153t66 113t102.5 70t133.5 24q73 0 133 -24t103 -70t66 -113t23 -153t-23 -153t-66 -113t-103 -70t-133 -24zM370 100q90 0 145 63t55 187t-55 187t-145 63t-145 -63t-55 -187t55 -187t145 -63zM330 910h115
l-115 -145h-90zM500 910h115l-115 -145h-90z" />
    <glyph glyph-name="ohungarumlaut" unicode="&#x151;" horiz-adv-x="580" 
d="M290 -10q-56 0 -102 18.5t-79 53.5t-51 86t-18 117t18 117t51 86t79 53.5t102 18.5t102 -18.5t79 -53.5t51 -86t18 -117t-18 -117t-51 -86t-79 -53.5t-102 -18.5zM290 95q28 0 52.5 10.5t43 31.5t29 53t10.5 75t-10.5 75t-29 53t-43 31.5t-52.5 10.5t-52.5 -10.5
t-43 -31.5t-29 -53t-10.5 -75t10.5 -75t29 -53t43 -31.5t52.5 -10.5zM250 750h115l-115 -145h-90zM420 750h115l-115 -145h-90z" />
    <glyph glyph-name="OE" unicode="&#x152;" horiz-adv-x="1065" 
d="M355 -10q-66 0 -122.5 24t-98 70t-65.5 113t-24 153t24 153t65.5 113t98 70t122.5 24q72 0 122 -25.5t73 -59.5v75h455v-110h-330v-185h310v-105h-310v-190h340v-110h-465v75q-23 -34 -73 -59.5t-122 -25.5zM360 100q37 0 71.5 15t61 46t42 78t15.5 111t-15.5 111t-42 78
t-61 46t-71.5 15q-38 0 -72 -15t-60.5 -46t-42 -78t-15.5 -111t15.5 -111t42 -78t60.5 -46t72 -15z" />
    <glyph glyph-name="oe" unicode="&#x153;" horiz-adv-x="945" 
d="M280 -10q-53 0 -97 18.5t-75.5 53.5t-49.5 86t-18 117t18 117t49.5 86t75.5 53.5t97 18.5q70 0 117 -27.5t73 -72.5q26 45 74 72.5t116 27.5q56 0 101.5 -21t77.5 -56.5t49 -82t17 -98.5q0 -12 -1 -21.5t-2 -16.5q-1 -8 -2 -14h-370q8 -64 40.5 -99.5t89.5 -35.5
q42 0 66.5 17t43.5 43h125q-11 -36 -31.5 -66t-49.5 -52t-66.5 -34.5t-82.5 -12.5q-68 0 -116.5 25.5t-78.5 74.5q-30 -49 -76 -74.5t-114 -25.5zM285 95q56 0 93 42t37 128q0 42 -10 74t-27.5 53t-41 32t-51.5 11q-57 0 -93.5 -43.5t-36.5 -126.5q0 -86 37 -128t93 -42z
M785 320q-11 57 -42 86t-88 29q-49 0 -81.5 -29t-43.5 -86h255z" />
    <glyph glyph-name="Racute" unicode="&#x154;" horiz-adv-x="650" 
d="M75 700h290q51 0 93 -15.5t72.5 -44t47.5 -69t17 -91.5q0 -54 -17.5 -92.5t-42.5 -64t-54 -39t-51 -19.5l185 -265h-140l-180 260h-95v-260h-125v700zM356 370q52 0 83 28.5t31 81.5t-31 81.5t-84 28.5h-155v-220h156zM365 910h115l-115 -145h-90z" />
    <glyph glyph-name="racute" unicode="&#x155;" horiz-adv-x="390" 
d="M65 530h95l15 -65h5q23 34 55.5 49.5t74.5 15.5h65v-110h-55q-64 0 -102 -35t-38 -95v-290h-115v530zM260 750h115l-115 -145h-90z" />
    <glyph glyph-name="Rcommaaccent" unicode="&#x156;" horiz-adv-x="650" 
d="M75 700h290q51 0 93 -15.5t72.5 -44t47.5 -69t17 -91.5q0 -54 -17.5 -92.5t-42.5 -64t-54 -39t-51 -19.5l185 -265h-140l-180 260h-95v-260h-125v700zM356 370q52 0 83 28.5t31 81.5t-31 81.5t-84 28.5h-155v-220h156zM275 -85h105l-75 -165h-75z" />
    <glyph glyph-name="rcommaaccent" unicode="&#x157;" horiz-adv-x="390" 
d="M65 530h95l15 -65h5q23 34 55.5 49.5t74.5 15.5h65v-110h-55q-64 0 -102 -35t-38 -95v-290h-115v530zM70 -85h105l-75 -165h-75z" />
    <glyph glyph-name="Rcaron" unicode="&#x158;" horiz-adv-x="650" 
d="M75 700h290q51 0 93 -15.5t72.5 -44t47.5 -69t17 -91.5q0 -54 -17.5 -92.5t-42.5 -64t-54 -39t-51 -19.5l185 -265h-140l-180 260h-95v-260h-125v700zM356 370q52 0 83 28.5t31 81.5t-31 81.5t-84 28.5h-155v-220h156zM150 915h100l70 -85h5l70 85h100l-135 -150h-75z
" />
    <glyph glyph-name="rcaron" unicode="&#x159;" horiz-adv-x="390" 
d="M65 530h95l15 -65h5q23 34 55.5 49.5t74.5 15.5h65v-110h-55q-64 0 -102 -35t-38 -95v-290h-115v530zM45 750h100l70 -85h5l70 85h100l-135 -150h-75z" />
    <glyph glyph-name="Sacute" unicode="&#x15a;" horiz-adv-x="615" 
d="M305 -10q-113 0 -186.5 54t-88.5 156h125q12 -48 51 -74t99 -26q75 0 110 27.5t35 72.5q0 29 -17 46.5t-44.5 28.5t-63 18.5t-73 16.5t-73 22t-63 35.5t-44.5 56.5t-17 86q0 47 18 84t51 63t79 39.5t102 13.5q116 0 180.5 -52t79.5 -138h-125q-11 38 -44.5 59t-90.5 21
q-64 0 -94.5 -26t-30.5 -64q0 -40 29.5 -60.5t74 -33t96.5 -24t96.5 -32.5t74 -58t29.5 -102q0 -43 -18.5 -81.5t-53.5 -67t-86 -45t-117 -16.5zM355 910h115l-115 -145h-90z" />
    <glyph glyph-name="sacute" unicode="&#x15b;" horiz-adv-x="500" 
d="M250 -10q-49 0 -87.5 12.5t-66.5 34.5t-46 52t-25 66h125q8 -26 33 -43t67 -17q56 0 78 16t22 39q0 25 -22.5 37t-56.5 19.5t-73.5 16t-73.5 26t-56.5 49.5t-22.5 87q0 32 13 60t38.5 49t62.5 33.5t86 12.5t86.5 -11.5t64.5 -32t44 -49t25 -62.5h-125q-8 19 -29 34.5
t-66 15.5q-42 0 -61 -13.5t-19 -36.5q0 -25 22.5 -37t56.5 -20.5t73.5 -17t73.5 -26.5t56.5 -49t22.5 -85q0 -34 -13.5 -63t-40.5 -50.5t-68.5 -34t-97.5 -12.5zM290 750h115l-115 -145h-90z" />
    <glyph glyph-name="Scircumflex" unicode="&#x15c;" horiz-adv-x="615" 
d="M305 -10q-113 0 -186.5 54t-88.5 156h125q12 -48 51 -74t99 -26q75 0 110 27.5t35 72.5q0 29 -17 46.5t-44.5 28.5t-63 18.5t-73 16.5t-73 22t-63 35.5t-44.5 56.5t-17 86q0 47 18 84t51 63t79 39.5t102 13.5q116 0 180.5 -52t79.5 -138h-125q-11 38 -44.5 59t-90.5 21
q-64 0 -94.5 -26t-30.5 -64q0 -40 29.5 -60.5t74 -33t96.5 -24t96.5 -32.5t74 -58t29.5 -102q0 -43 -18.5 -81.5t-53.5 -67t-86 -45t-117 -16.5zM270 915h75l135 -150h-100l-70 85h-5l-70 -85h-100z" />
    <glyph glyph-name="scircumflex" unicode="&#x15d;" horiz-adv-x="500" 
d="M250 -10q-49 0 -87.5 12.5t-66.5 34.5t-46 52t-25 66h125q8 -26 33 -43t67 -17q56 0 78 16t22 39q0 25 -22.5 37t-56.5 19.5t-73.5 16t-73.5 26t-56.5 49.5t-22.5 87q0 32 13 60t38.5 49t62.5 33.5t86 12.5t86.5 -11.5t64.5 -32t44 -49t25 -62.5h-125q-8 19 -29 34.5
t-66 15.5q-42 0 -61 -13.5t-19 -36.5q0 -25 22.5 -37t56.5 -20.5t73.5 -17t73.5 -26.5t56.5 -49t22.5 -85q0 -34 -13.5 -63t-40.5 -50.5t-68.5 -34t-97.5 -12.5zM210 755h75l135 -150h-100l-70 85h-5l-70 -85h-100z" />
    <glyph glyph-name="Scedilla" unicode="&#x15e;" horiz-adv-x="615" 
d="M230 -150h55q30 0 30 27q0 28 -30 28h-45v50l16 38q-94 11 -153 63.5t-73 143.5h125q12 -48 51 -74t99 -26q75 0 110 27.5t35 72.5q0 29 -17 46.5t-44.5 28.5t-63 18.5t-73 16.5t-73 22t-63 35.5t-44.5 56.5t-17 86q0 47 18 84t51 63t79 39.5t102 13.5q116 0 180.5 -52
t79.5 -138h-125q-11 38 -44.5 59t-90.5 21q-64 0 -94.5 -26t-30.5 -64q0 -40 29.5 -60.5t74 -33t96.5 -24t96.5 -32.5t74 -58t29.5 -102q0 -41 -16.5 -77.5t-48.5 -64.5t-78 -46t-106 -21l-11 -26q34 -4 57 -25.5t23 -59.5q0 -45 -28 -72.5t-77 -27.5h-65v70z" />
    <glyph glyph-name="scedilla" unicode="&#x15f;" horiz-adv-x="500" 
d="M185 -150h55q30 0 30 27q0 28 -30 28h-45v50l16 37q-80 9 -126 54t-60 109h125q8 -26 33 -43t67 -17q56 0 78 16t22 39q0 25 -22.5 37t-56.5 19.5t-73.5 16t-73.5 26t-56.5 49.5t-22.5 87q0 32 13 60t38.5 49t62.5 33.5t86 12.5t86.5 -11.5t64.5 -32t44 -49t25 -62.5
h-125q-8 19 -29 34.5t-66 15.5q-42 0 -61 -13.5t-19 -36.5q0 -25 22.5 -37t56.5 -20.5t73.5 -17t73.5 -26.5t56.5 -49t22.5 -85q0 -63 -45 -106.5t-140 -51.5l-10 -27q34 -4 57 -25.5t23 -59.5q0 -45 -28 -72.5t-77 -27.5h-65v70z" />
    <glyph glyph-name="Scaron" unicode="&#x160;" horiz-adv-x="615" 
d="M305 -10q-113 0 -186.5 54t-88.5 156h125q12 -48 51 -74t99 -26q75 0 110 27.5t35 72.5q0 29 -17 46.5t-44.5 28.5t-63 18.5t-73 16.5t-73 22t-63 35.5t-44.5 56.5t-17 86q0 47 18 84t51 63t79 39.5t102 13.5q116 0 180.5 -52t79.5 -138h-125q-11 38 -44.5 59t-90.5 21
q-64 0 -94.5 -26t-30.5 -64q0 -40 29.5 -60.5t74 -33t96.5 -24t96.5 -32.5t74 -58t29.5 -102q0 -43 -18.5 -81.5t-53.5 -67t-86 -45t-117 -16.5zM135 915h100l70 -85h5l70 85h100l-135 -150h-75z" />
    <glyph glyph-name="scaron" unicode="&#x161;" horiz-adv-x="500" 
d="M250 -10q-49 0 -87.5 12.5t-66.5 34.5t-46 52t-25 66h125q8 -26 33 -43t67 -17q56 0 78 16t22 39q0 25 -22.5 37t-56.5 19.5t-73.5 16t-73.5 26t-56.5 49.5t-22.5 87q0 32 13 60t38.5 49t62.5 33.5t86 12.5t86.5 -11.5t64.5 -32t44 -49t25 -62.5h-125q-8 19 -29 34.5
t-66 15.5q-42 0 -61 -13.5t-19 -36.5q0 -25 22.5 -37t56.5 -20.5t73.5 -17t73.5 -26.5t56.5 -49t22.5 -85q0 -34 -13.5 -63t-40.5 -50.5t-68.5 -34t-97.5 -12.5zM75 750h100l70 -85h5l70 85h100l-135 -150h-75z" />
    <glyph glyph-name="uni0162" unicode="&#x162;" horiz-adv-x="595" 
d="M255 -150h55q30 0 30 27q0 28 -30 28h-45v50l20 45h-50v590h-215v110h555v-110h-215v-590l-15 -35q34 -4 57 -25.5t23 -59.5q0 -45 -28 -72.5t-77 -27.5h-65v70z" />
    <glyph glyph-name="uni0163" unicode="&#x163;" horiz-adv-x="390" 
d="M145 -150h55q30 0 30 27q0 28 -30 28h-45v50l26 59q-76 34 -76 131v280h-85v105h85l15 140h100v-140h130v-105h-130v-265q0 -23 14.5 -39t40.5 -16h75v-105h-100l-15 -35q34 -4 57 -25.5t23 -59.5q0 -45 -28 -72.5t-77 -27.5h-65v70z" />
    <glyph glyph-name="Tcaron" unicode="&#x164;" horiz-adv-x="595" 
d="M235 590h-215v110h555v-110h-215v-590h-125v590zM125 915h100l70 -85h5l70 85h100l-135 -150h-75z" />
    <glyph glyph-name="tcaron" unicode="&#x165;" horiz-adv-x="455" 
d="M255 0q-72 0 -111 38.5t-39 106.5v280h-85v105h85l15 140h100v-140h130v-105h-130v-265q0 -23 14.5 -39t40.5 -16h75v-105h-95v0z" />
    <glyph glyph-name="Tbar" unicode="&#x166;" horiz-adv-x="595" 
d="M235 360h-160v110h160v120h-215v110h555v-110h-215v-120h160v-110h-160v-360h-125v360z" />
    <glyph glyph-name="tbar" unicode="&#x167;" horiz-adv-x="390" 
d="M255 0q-72 0 -111 38.5t-39 106.5v110h-85v100h85v70h-85v105h85l15 140h100v-140h130v-105h-130v-70h130v-100h-130v-95q0 -23 14.5 -39t40.5 -16h75v-105h-95v0z" />
    <glyph glyph-name="Umacron" unicode="&#x16a;" horiz-adv-x="710" 
d="M355 -10q-66 0 -118.5 20t-89.5 59t-57 96t-20 131v404h125v-404q0 -95 44 -145.5t116 -50.5q71 0 115.5 50.5t44.5 145.5v404h125v-404q0 -74 -20 -131t-57 -96t-90 -59t-118 -20zM210 880h295v-85h-295v85z" />
    <glyph glyph-name="umacron" unicode="&#x16b;" horiz-adv-x="585" 
d="M260 -10q-43 0 -79 15.5t-61.5 43.5t-40 67.5t-14.5 88.5v325h115v-315q0 -57 30.5 -88.5t79.5 -31.5q26 0 47.5 9.5t36.5 26t23 39t8 47.5v313h115v-530h-95l-15 65h-5q-23 -38 -61.5 -56.5t-83.5 -18.5zM145 715h295v-85h-295v85z" />
    <glyph glyph-name="Ubreve" unicode="&#x16c;" horiz-adv-x="710" 
d="M355 -10q-66 0 -118.5 20t-89.5 59t-57 96t-20 131v404h125v-404q0 -95 44 -145.5t116 -50.5q71 0 115.5 50.5t44.5 145.5v404h125v-404q0 -74 -20 -131t-57 -96t-90 -59t-118 -20zM355 765q-64 0 -110.5 35t-54.5 110h90q4 -34 24.5 -49.5t50.5 -15.5t50.5 15.5
t24.5 49.5h90q-8 -75 -54.5 -110t-110.5 -35z" />
    <glyph glyph-name="ubreve" unicode="&#x16d;" horiz-adv-x="585" 
d="M260 -10q-43 0 -79 15.5t-61.5 43.5t-40 67.5t-14.5 88.5v325h115v-315q0 -57 30.5 -88.5t79.5 -31.5q26 0 47.5 9.5t36.5 26t23 39t8 47.5v313h115v-530h-95l-15 65h-5q-23 -38 -61.5 -56.5t-83.5 -18.5zM295 605q-64 0 -110.5 35t-54.5 110h90q4 -34 24.5 -49.5
t50.5 -15.5t50.5 15.5t24.5 49.5h90q-8 -75 -54.5 -110t-110.5 -35z" />
    <glyph glyph-name="Uring" unicode="&#x16e;" horiz-adv-x="710" 
d="M355 -10q-66 0 -118.5 20t-89.5 59t-57 96t-20 131v404h125v-404q0 -95 44 -145.5t116 -50.5q71 0 115.5 50.5t44.5 145.5v404h125v-404q0 -74 -20 -131t-57 -96t-90 -59t-118 -20zM355 745q-45 0 -75 28t-30 77t30 77t75 28t75 -28t30 -77t-30 -77t-75 -28zM355 810
q40 0 40 40t-40 40t-40 -40t40 -40z" />
    <glyph glyph-name="uring" unicode="&#x16f;" horiz-adv-x="585" 
d="M260 -10q-43 0 -79 15.5t-61.5 43.5t-40 67.5t-14.5 88.5v325h115v-315q0 -57 30.5 -88.5t79.5 -31.5q26 0 47.5 9.5t36.5 26t23 39t8 47.5v313h115v-530h-95l-15 65h-5q-23 -38 -61.5 -56.5t-83.5 -18.5zM295 585q-45 0 -75 28t-30 77t30 77t75 28t75 -28t30 -77
t-30 -77t-75 -28zM295 650q40 0 40 40t-40 40t-40 -40t40 -40z" />
    <glyph glyph-name="Uhungarumlaut" unicode="&#x170;" horiz-adv-x="710" 
d="M355 -10q-66 0 -118.5 20t-89.5 59t-57 96t-20 131v404h125v-404q0 -95 44 -145.5t116 -50.5q71 0 115.5 50.5t44.5 145.5v404h125v-404q0 -74 -20 -131t-57 -96t-90 -59t-118 -20zM315 910h115l-115 -145h-90zM485 910h115l-115 -145h-90z" />
    <glyph glyph-name="uhungarumlaut" unicode="&#x171;" horiz-adv-x="585" 
d="M260 -10q-43 0 -79 15.5t-61.5 43.5t-40 67.5t-14.5 88.5v325h115v-315q0 -57 30.5 -88.5t79.5 -31.5q26 0 47.5 9.5t36.5 26t23 39t8 47.5v313h115v-530h-95l-15 65h-5q-23 -38 -61.5 -56.5t-83.5 -18.5zM250 750h115l-115 -145h-90zM420 750h115l-115 -145h-90z" />
    <glyph glyph-name="Uogonek" unicode="&#x172;" horiz-adv-x="710" 
d="M400 -205q-64 0 -94.5 27.5t-30.5 72.5q0 38 17 60.5t40 35.5q-122 7 -192 85t-70 220v404h125v-404q0 -95 44 -145.5t116 -50.5q71 0 115.5 50.5t44.5 145.5v404h125v-404q0 -128 -58 -204t-159 -95q-31 -18 -47 -38t-16 -49q0 -19 12.5 -29.5t42.5 -10.5h25v-75h-40v0z
" />
    <glyph glyph-name="uogonek" unicode="&#x173;" horiz-adv-x="585" 
d="M490 -205q-64 0 -94.5 27.5t-30.5 72.5q0 22 7 39.5t17.5 30t24 21t26.5 14.5h-15l-15 65h-5q-23 -38 -61.5 -56.5t-83.5 -18.5q-43 0 -79 15.5t-61.5 43.5t-40 67.5t-14.5 88.5v325h115v-315q0 -57 30.5 -88.5t79.5 -31.5q26 0 47.5 9.5t36.5 26t23 39t8 47.5v313h115
v-530q-34 -19 -52 -39.5t-18 -50.5q0 -19 12.5 -29.5t42.5 -10.5h25v-75h-40v0z" />
    <glyph glyph-name="Wcircumflex" unicode="&#x174;" horiz-adv-x="935" 
d="M10 700h130l120 -530h5l130 530h145l130 -530h5l120 530h130l-180 -700h-150l-125 525h-5l-125 -525h-150zM430 915h75l135 -150h-100l-70 85h-5l-70 -85h-100z" />
    <glyph glyph-name="wcircumflex" unicode="&#x175;" horiz-adv-x="785" 
d="M5 530h120l100 -385h5l100 385h125l100 -385h5l100 385h120l-145 -530h-140l-100 365h-5l-100 -365h-140zM350 755h75l135 -150h-100l-70 85h-5l-70 -85h-100z" />
    <glyph glyph-name="Ycircumflex" unicode="&#x176;" horiz-adv-x="585" 
d="M230 250l-245 450h130l175 -325h5l175 325h130l-245 -450v-250h-125v250zM255 915h75l135 -150h-100l-70 85h-5l-70 -85h-100z" />
    <glyph glyph-name="ycircumflex" unicode="&#x177;" horiz-adv-x="545" 
d="M215 0l-215 530h125l145 -375h5l145 375h125l-290 -730h-120zM235 755h75l135 -150h-100l-70 85h-5l-70 -85h-100z" />
    <glyph glyph-name="Ydieresis" unicode="&#x178;" horiz-adv-x="585" 
d="M230 250l-245 450h130l175 -325h5l175 325h130l-245 -450v-250h-125v250zM195 775q-30 0 -47.5 19.5t-17.5 45.5t17.5 45.5t47.5 19.5t47.5 -19.5t17.5 -45.5t-17.5 -45.5t-47.5 -19.5zM385 775q-30 0 -47.5 19.5t-17.5 45.5t17.5 45.5t47.5 19.5t47.5 -19.5t17.5 -45.5
t-17.5 -45.5t-47.5 -19.5z" />
    <glyph glyph-name="Zacute" unicode="&#x179;" horiz-adv-x="590" 
d="M35 95l360 495h-350v110h505v-95l-360 -495h365v-110h-520v95zM340 910h115l-115 -145h-90z" />
    <glyph glyph-name="zacute" unicode="&#x17a;" horiz-adv-x="475" 
d="M30 90l265 335h-255v105h400v-90l-265 -335h270v-105h-415v90zM280 750h115l-115 -145h-90z" />
    <glyph glyph-name="Zdotaccent" unicode="&#x17b;" horiz-adv-x="590" 
d="M35 95l360 495h-350v110h505v-95l-360 -495h365v-110h-520v95zM300 775q-30 0 -47.5 19.5t-17.5 45.5t17.5 45.5t47.5 19.5t47.5 -19.5t17.5 -45.5t-17.5 -45.5t-47.5 -19.5z" />
    <glyph glyph-name="zdotaccent" unicode="&#x17c;" horiz-adv-x="475" 
d="M30 90l265 335h-255v105h400v-90l-265 -335h270v-105h-415v90zM240 615q-30 0 -47.5 19.5t-17.5 45.5t17.5 45.5t47.5 19.5t47.5 -19.5t17.5 -45.5t-17.5 -45.5t-47.5 -19.5z" />
    <glyph glyph-name="Zcaron" unicode="&#x17d;" horiz-adv-x="590" 
d="M35 95l360 495h-350v110h505v-95l-360 -495h365v-110h-520v95zM125 915h100l70 -85h5l70 85h100l-135 -150h-75z" />
    <glyph glyph-name="zcaron" unicode="&#x17e;" horiz-adv-x="475" 
d="M30 90l265 335h-255v105h400v-90l-265 -335h270v-105h-415v90zM60 750h100l70 -85h5l70 85h100l-135 -150h-75z" />
    <glyph glyph-name="uni018F" unicode="&#x18f;" horiz-adv-x="730" 
d="M361 -10q-70 0 -128 22.5t-100 68t-65 114t-23 160.5v35h513q-3 51 -19 90t-42 65.5t-61 40.5t-76 14q-64 0 -103 -27.5t-62 -72.5h-130q15 47 40.5 85.5t62 66.5t84.5 43t108 15q73 0 133 -23t102.5 -68.5t66 -113t23.5 -155.5q0 -87 -23.5 -154t-66 -113t-102 -69.5
t-132.5 -23.5zM360 100q83 0 135.5 51.5t60.5 138.5h-385q5 -51 21 -87t41 -59t57 -33.5t70 -10.5z" />
    <glyph glyph-name="florin" unicode="&#x192;" horiz-adv-x="430" 
d="M-45 -70h55q30 0 45 13.5t20 36.5l77 360h-97l25 110h96l29 135q14 64 51 94.5t109 30.5h90l-25 -110h-55q-26 0 -41 -13t-19 -32l-23 -105h113l-25 -110h-111l-84 -390q-14 -68 -52 -99t-113 -31h-90z" />
    <glyph glyph-name="Gacute" unicode="&#x1f4;" horiz-adv-x="725" 
d="M370 -10q-73 0 -133 23t-102.5 68.5t-66 113t-23.5 155.5t23.5 155.5t66 113t102.5 68.5t133 23q60 0 108 -15.5t84.5 -43.5t62 -67.5t40.5 -88.5h-130q-23 49 -62 77t-103 28q-90 0 -145 -63t-55 -187t55 -187t145 -63q44 0 77 14.5t56 38t35.5 53t16.5 59.5h-195v105
h320v-49q0 -75 -21 -136t-61 -104.5t-97.5 -67t-130.5 -23.5zM410 910h115l-115 -145h-90z" />
    <glyph glyph-name="gacute" unicode="&#x1f5;" horiz-adv-x="600" 
d="M290 -200q-102 0 -159.5 45.5t-80.5 124.5h120q11 -34 43 -49.5t77 -15.5q60 0 95 28.5t35 81.5v85h-5q-19 -26 -58 -48t-92 -22q-49 0 -90 16.5t-71 49t-47 80t-17 109.5t17 109.5t47 80t71 49t90 16.5q53 0 92.5 -22.5t62.5 -52.5h5l15 65h95v-515q0 -102 -62 -158.5
t-183 -56.5zM286 135q28 0 52.5 10t42.5 29.5t28.5 47t10.5 63.5t-10.5 63.5t-29 47t-43 29.5t-52.5 10q-57 0 -93.5 -39t-36.5 -111t37 -111t94 -39zM345 750h115l-115 -145h-90z" />
    <glyph glyph-name="Aringacute" unicode="&#x1fa;" horiz-adv-x="655" 
d="M325 735q-45 0 -75 28t-30 77q0 45 25.5 72.5t66.5 31.5l23 56h95l-49 -69q23 -13 36 -36t13 -55q0 -49 -30 -77t-75 -28zM325 800q40 0 40 40t-40 40t-40 -40t40 -40zM250 700h155l255 -700h-130l-54 150h-297l-54 -150h-130zM437 260l-107 300h-5l-107 -300h219z" />
    <glyph glyph-name="aringacute" unicode="&#x1fb;" horiz-adv-x="545" 
d="M275 575q-45 0 -75 28t-30 77q0 45 25.5 72.5t65.5 31.5l24 61h95l-49 -74q23 -13 36 -36t13 -55q0 -49 -30 -77t-75 -28zM275 640q40 0 40 40t-40 40t-40 -40t40 -40zM215 -10q-41 0 -74.5 12.5t-57 34.5t-36 52t-12.5 66q0 34 13 64t38.5 52.5t62.5 35.5t86 13h135v25
q0 45 -28 70t-77 25q-42 0 -64.5 -18.5t-30.5 -41.5h-118q9 34 27 63t45 50.5t62.5 34t78.5 12.5q106 0 163 -52t57 -143v-345h-100l-10 65h-5q-8 -13 -21.5 -26.5t-33.5 -24t-45 -17.5t-55 -7zM240 90q60 0 95 31t35 84v25h-130q-49 0 -69.5 -20t-20.5 -50t22.5 -50
t67.5 -20z" />
    <glyph glyph-name="AEacute" unicode="&#x1fc;" horiz-adv-x="950" 
d="M315 700h575v-110h-335v-185h315v-105h-315v-190h345v-110h-470v148h-249l-76 -148h-135zM430 259v321h-40l-155 -321h195zM545 910h115l-115 -145h-90z" />
    <glyph glyph-name="aeacute" unicode="&#x1fd;" horiz-adv-x="900" 
d="M215 -10q-41 0 -74.5 12.5t-57 34.5t-36 52t-12.5 66q0 34 13 63t38.5 50.5t62.5 34t86 12.5h135v30q0 45 -28 70t-77 25q-42 0 -64.5 -18.5t-30.5 -41.5h-118q9 34 27 63t45 50.5t62.5 34t78.5 12.5q64 0 107.5 -26t62.5 -64q34 42 77 66t103 24t106 -21t76.5 -56.5
t46.5 -83t16 -99.5q0 -11 -1 -21t-2 -18q-1 -9 -2 -16h-370q4 -60 39.5 -95t95.5 -35q41 0 63.5 17t41.5 43h125q-11 -34 -30.5 -64t-48 -52.5t-66.5 -35.5t-86 -13q-67 0 -115.5 27.5t-78.5 72.5q-13 -21 -31.5 -39t-43.5 -31.5t-58.5 -21.5t-76.5 -8zM240 90q60 0 95 31
t35 84v20h-130q-49 0 -69.5 -19.5t-20.5 -45.5q0 -30 22.5 -50t67.5 -20zM743 315q-6 57 -40.5 88.5t-87.5 31.5q-57 0 -89.5 -31.5t-40.5 -88.5h258zM495 750h115l-115 -145h-90z" />
    <glyph glyph-name="Oslashacute" unicode="&#x1fe;" horiz-adv-x="740" 
d="M149 68q-50 46 -77 117t-27 165q0 86 23 153t66 113t102.5 70t133.5 24q76 0 137 -26l24 41h114l-55 -94q50 -46 77.5 -116.5t27.5 -164.5q0 -86 -23 -153t-66 -113t-103 -70t-133 -24q-38 0 -72 6.5t-65 18.5l-23 -40h-115zM449 585q-36 15 -79 15q-90 0 -145 -63
t-55 -187q0 -108 43 -172zM370 100q90 0 145 63t55 187q0 55 -11.5 97.5t-32.5 73.5l-235 -406q34 -15 79 -15zM415 910h115l-115 -145h-90z" />
    <glyph glyph-name="oslashacute" unicode="&#x1ff;" horiz-adv-x="580" 
d="M108 63q-32 35 -50 85.5t-18 116.5t18 117t51 86t79 53.5t102 18.5q58 0 110 -22l20 32h105l-53 -83q32 -35 50 -85.5t18 -116.5t-18 -117t-51 -86t-79 -53.5t-102 -18.5q-31 0 -58.5 5.5t-51.5 15.5l-20 -31h-105zM340 425q-12 5 -24.5 7.5t-25.5 2.5q-28 0 -52.5 -10.5
t-43 -31.5t-29 -53t-10.5 -75q0 -58 19 -98zM290 95q28 0 52.5 10.5t43 31.5t29 53t10.5 75q0 60 -20 98l-166 -259q24 -9 51 -9zM335 750h115l-115 -145h-90z" />
    <glyph glyph-name="Scommaaccent" unicode="&#x218;" horiz-adv-x="615" 
d="M305 -10q-113 0 -186.5 54t-88.5 156h125q12 -48 51 -74t99 -26q75 0 110 27.5t35 72.5q0 29 -17 46.5t-44.5 28.5t-63 18.5t-73 16.5t-73 22t-63 35.5t-44.5 56.5t-17 86q0 47 18 84t51 63t79 39.5t102 13.5q116 0 180.5 -52t79.5 -138h-125q-11 38 -44.5 59t-90.5 21
q-64 0 -94.5 -26t-30.5 -64q0 -40 29.5 -60.5t74 -33t96.5 -24t96.5 -32.5t74 -58t29.5 -102q0 -43 -18.5 -81.5t-53.5 -67t-86 -45t-117 -16.5zM260 -85h105l-75 -165h-75z" />
    <glyph glyph-name="scommaaccent" unicode="&#x219;" horiz-adv-x="500" 
d="M250 -10q-49 0 -87.5 12.5t-66.5 34.5t-46 52t-25 66h125q8 -26 33 -43t67 -17q56 0 78 16t22 39q0 25 -22.5 37t-56.5 19.5t-73.5 16t-73.5 26t-56.5 49.5t-22.5 87q0 32 13 60t38.5 49t62.5 33.5t86 12.5t86.5 -11.5t64.5 -32t44 -49t25 -62.5h-125q-8 19 -29 34.5
t-66 15.5q-42 0 -61 -13.5t-19 -36.5q0 -25 22.5 -37t56.5 -20.5t73.5 -17t73.5 -26.5t56.5 -49t22.5 -85q0 -34 -13.5 -63t-40.5 -50.5t-68.5 -34t-97.5 -12.5zM200 -85h105l-75 -165h-75z" />
    <glyph glyph-name="uni021A" unicode="&#x21a;" horiz-adv-x="595" 
d="M235 590h-215v110h555v-110h-215v-590h-125v590zM245 -85h105l-75 -165h-75z" />
    <glyph glyph-name="uni021B" unicode="&#x21b;" horiz-adv-x="390" 
d="M255 0q-72 0 -111 38.5t-39 106.5v280h-85v105h85l15 140h100v-140h130v-105h-130v-265q0 -23 14.5 -39t40.5 -16h75v-105h-95v0zM174 -85h105l-75 -165h-75z" />
    <glyph glyph-name="uni0232" unicode="&#x232;" horiz-adv-x="585" 
d="M230 250l-245 450h130l175 -325h5l175 325h130l-245 -450v-250h-125v250zM145 880h295v-85h-295v85z" />
    <glyph glyph-name="uni0233" unicode="&#x233;" horiz-adv-x="545" 
d="M215 0l-215 530h125l145 -375h5l145 375h125l-290 -730h-120zM125 715h295v-85h-295v85z" />
    <glyph glyph-name="uni0244" unicode="&#x244;" horiz-adv-x="730" 
d="M365 -10q-66 0 -118.5 20t-89.5 59t-57 96t-20 130v130h-70v100h70v175h125v-175h320v175h125v-175h70v-100h-70v-130q0 -73 -20 -130t-57 -96t-89.5 -59t-118.5 -20zM365 100q72 0 116 48.5t44 146.5v130h-320v-130q0 -98 44 -146.5t116 -48.5z" />
    <glyph glyph-name="uni0259" unicode="&#x259;" horiz-adv-x="580" 
d="M290 -10q-60 0 -106.5 21t-78.5 56.5t-48.5 82.5t-16.5 100q0 11 0.5 20t1.5 16q1 8 3 14h375q-4 60 -39.5 97.5t-95.5 37.5q-42 0 -66.5 -17t-43.5 -43h-125q11 34 31 64t49 52.5t68 35.5t88 13q58 0 105 -18.5t80 -53.5t51 -86t18 -117t-18 -117t-51 -86t-79 -53.5
t-102 -18.5zM290 95q53 0 86 31t44 84h-260q8 -49 40.5 -82t89.5 -33z" />
    <glyph glyph-name="uni0289" unicode="&#x289;" horiz-adv-x="625" 
d="M280 -10q-43 0 -79 15.5t-61.5 43.5t-40 67.5t-14.5 88.5v145h-65v95h65v85h115v-85h225v85h115v-85h65v-95h-65v-350h-95l-15 65h-5q-23 -38 -61.5 -56.5t-83.5 -18.5zM310 95q26 0 47.5 9.5t36.5 26t23 39t8 47.5v133h-225v-135q0 -57 30.5 -88.5t79.5 -31.5z" />
    <glyph glyph-name="uni02BC" unicode="&#x2bc;" horiz-adv-x="205" 
d="M75 700h100l-70 -165h-75z" />
    <glyph glyph-name="circumflex" unicode="&#x2c6;" horiz-adv-x="405" 
d="M165 755h75l135 -150h-100l-70 85h-5l-70 -85h-100z" />
    <glyph glyph-name="caron" unicode="&#x2c7;" horiz-adv-x="405" 
d="M30 750h100l70 -85h5l70 85h100l-135 -150h-75z" />
    <glyph glyph-name="breve" unicode="&#x2d8;" horiz-adv-x="390" 
d="M195 605q-64 0 -110.5 35t-54.5 110h90q4 -34 24.5 -49.5t50.5 -15.5t50.5 15.5t24.5 49.5h90q-8 -75 -54.5 -110t-110.5 -35z" />
    <glyph glyph-name="dotaccent" unicode="&#x2d9;" horiz-adv-x="190" 
d="M95 615q-30 0 -47.5 19.5t-17.5 45.5t17.5 45.5t47.5 19.5t47.5 -19.5t17.5 -45.5t-17.5 -45.5t-47.5 -19.5z" />
    <glyph glyph-name="ring" unicode="&#x2da;" horiz-adv-x="270" 
d="M135 585q-45 0 -75 28t-30 77t30 77t75 28t75 -28t30 -77t-30 -77t-75 -28zM135 650q40 0 40 40t-40 40t-40 -40t40 -40z" />
    <glyph glyph-name="ogonek" unicode="&#x2db;" horiz-adv-x="225" 
d="M155 -205q-64 0 -94.5 27.5t-30.5 72.5q0 22 7 39.5t17.5 30t24 21t26.5 14.5v10h80v-10q-34 -19 -52 -39.5t-18 -50.5q0 -19 12.5 -29.5t42.5 -10.5h25v-75h-40v0z" />
    <glyph glyph-name="tilde" unicode="&#x2dc;" horiz-adv-x="385" 
d="M260 615q-21 0 -37 7t-29.5 15.5t-25.5 15.5t-23 7q-30 0 -30 -40h-85q0 57 26.5 88.5t68.5 31.5q21 0 37 -7t29.5 -15.5t25.5 -15.5t23 -7q30 0 30 40h85q0 -57 -26.5 -88.5t-68.5 -31.5z" />
    <glyph glyph-name="hungarumlaut" unicode="&#x2dd;" horiz-adv-x="435" 
d="M120 750h115l-115 -145h-90zM290 750h115l-115 -145h-90z" />
    <glyph glyph-name="acutecomb" unicode="&#x301;" horiz-adv-x="0" 
d="M-315 910h115l-115 -145h-90z" />
    <glyph glyph-name="uni0302" unicode="&#x302;" horiz-adv-x="0" 
d="M-395 915h75l135 -150h-100l-70 85h-5l-70 -85h-100z" />
    <glyph glyph-name="uni0304" unicode="&#x304;" horiz-adv-x="0" 
d="M-505 880h295v-85h-295v85z" />
    <glyph glyph-name="uni0306" unicode="&#x306;" horiz-adv-x="0" 
d="M-355 770q-64 0 -110.5 35t-54.5 110h90q4 -34 24.5 -49.5t50.5 -15.5t50.5 15.5t24.5 49.5h90q-8 -75 -54.5 -110t-110.5 -35z" />
    <glyph glyph-name="uni0307" unicode="&#x307;" horiz-adv-x="0" 
d="M-355 780q-30 0 -47.5 19.5t-17.5 45.5t17.5 45.5t47.5 19.5t47.5 -19.5t17.5 -45.5t-17.5 -45.5t-47.5 -19.5z" />
    <glyph glyph-name="uni0308" unicode="&#x308;" horiz-adv-x="0" 
d="M-450 780q-30 0 -47.5 19.5t-17.5 45.5t17.5 45.5t47.5 19.5t47.5 -19.5t17.5 -45.5t-17.5 -45.5t-47.5 -19.5zM-260 780q-30 0 -47.5 19.5t-17.5 45.5t17.5 45.5t47.5 19.5t47.5 -19.5t17.5 -45.5t-17.5 -45.5t-47.5 -19.5z" />
    <glyph glyph-name="uni030A" unicode="&#x30a;" horiz-adv-x="0" 
d="M-355 750q-45 0 -75 28t-30 77t30 77t75 28t75 -28t30 -77t-30 -77t-75 -28zM-355 815q40 0 40 40t-40 40t-40 -40t40 -40z" />
    <glyph glyph-name="uni030C" unicode="&#x30c;" horiz-adv-x="0" 
d="M-530 910h100l70 -85h5l70 85h100l-135 -150h-75z" />
    <glyph glyph-name="uni0326" unicode="&#x326;" horiz-adv-x="210" 
d="M75 -85h105l-75 -165h-75z" />
    <glyph glyph-name="uni0400" unicode="&#x400;" horiz-adv-x="595" 
d="M75 700h460v-110h-335v-185h315v-105h-315v-190h345v-110h-470v700zM155 910h115l90 -145h-90z" />
    <glyph glyph-name="uni0401" unicode="&#x401;" horiz-adv-x="595" 
d="M75 700h460v-110h-335v-185h315v-105h-315v-190h345v-110h-470v700zM215 775q-30 0 -47.5 19.5t-17.5 45.5t17.5 45.5t47.5 19.5t47.5 -19.5t17.5 -45.5t-17.5 -45.5t-47.5 -19.5zM405 775q-30 0 -47.5 19.5t-17.5 45.5t17.5 45.5t47.5 19.5t47.5 -19.5t17.5 -45.5
t-17.5 -45.5t-47.5 -19.5z" />
    <glyph glyph-name="uni0402" unicode="&#x402;" horiz-adv-x="715" 
d="M170 590h-175v110h470v-110h-170v-165q26 11 63.5 18t71.5 7q56 0 101.5 -15.5t77.5 -44.5t49 -71t17 -94q0 -51 -16.5 -92.5t-47.5 -71t-75.5 -45.5t-100.5 -16h-60v110h45q60 0 95 29t35 86q0 61 -35 88t-95 27q-44 0 -75 -8.5t-50 -16.5v-315h-125v590z" />
    <glyph glyph-name="uni0403" unicode="&#x403;" horiz-adv-x="520" 
d="M75 700h420v-110h-295v-590h-125v700zM331 911h115l-115 -145h-90z" />
    <glyph glyph-name="uni0404" unicode="&#x404;" horiz-adv-x="700" 
d="M370 -10q-73 0 -133 23t-102.5 68.5t-66 113t-23.5 155.5t23.5 155.5t66 113t102.5 68.5t133 23q60 0 108 -15.5t84.5 -43.5t62 -67.5t40.5 -88.5h-130q-23 49 -62 77t-103 28q-81 0 -133.5 -50t-63.5 -150h257v-100h-257q11 -100 63.5 -150t133.5 -50q64 0 103 28t62 77
h130q-30 -98 -102.5 -156.5t-192.5 -58.5z" />
    <glyph glyph-name="uni0405" unicode="&#x405;" horiz-adv-x="615" 
d="M305 -10q-113 0 -186.5 54t-88.5 156h125q12 -48 51 -74t99 -26q75 0 110 27.5t35 72.5q0 29 -17 46.5t-44.5 28.5t-63 18.5t-73 16.5t-73 22t-63 35.5t-44.5 56.5t-17 86q0 47 18 84t51 63t79 39.5t102 13.5q116 0 180.5 -52t79.5 -138h-125q-11 38 -44.5 59t-90.5 21
q-64 0 -94.5 -26t-30.5 -64q0 -40 29.5 -60.5t74 -33t96.5 -24t96.5 -32.5t74 -58t29.5 -102q0 -43 -18.5 -81.5t-53.5 -67t-86 -45t-117 -16.5z" />
    <glyph glyph-name="uni0406" unicode="&#x406;" horiz-adv-x="275" 
d="M75 700h125v-700h-125v700z" />
    <glyph glyph-name="uni0407" unicode="&#x407;" horiz-adv-x="275" 
d="M75 700h125v-700h-125v700zM45 775q-30 0 -47.5 19.5t-17.5 45.5t17.5 45.5t47.5 19.5t47.5 -19.5t17.5 -45.5t-17.5 -45.5t-47.5 -19.5zM235 775q-30 0 -47.5 19.5t-17.5 45.5t17.5 45.5t47.5 19.5t47.5 -19.5t17.5 -45.5t-17.5 -45.5t-47.5 -19.5z" />
    <glyph glyph-name="uni0408" unicode="&#x408;" horiz-adv-x="565" 
d="M260 -10q-102 0 -163 54.5t-72 160.5h125q8 -53 38 -79t72 -26q49 0 79.5 34t30.5 106v460h125v-460q0 -121 -63 -185.5t-172 -64.5z" />
    <glyph glyph-name="uni0409" unicode="&#x409;" horiz-adv-x="1010" 
d="M10 113h10q30 0 51 12.5t34 46.5t19 93t6 151v284h460v-250h146q54 0 98 -17t75.5 -47t48.5 -71t17 -90t-17 -90t-48.5 -71t-76 -47t-98.5 -17h-270v590h-210v-185q0 -107 -10 -185t-36.5 -129t-72 -76t-116.5 -25h-10v123zM725 110q57 0 91 33t34 82t-34 82t-91 33h-135
v-230h135z" />
    <glyph glyph-name="uni040A" unicode="&#x40a;" horiz-adv-x="1035" 
d="M75 700h125v-270h295v270h125v-270h155q52 0 94 -15.5t71 -43.5t44.5 -67.5t15.5 -88.5t-15.5 -88.5t-44.5 -67.5t-71 -43.5t-94 -15.5h-280v320h-295v-320h-125v700zM770 110q49 0 77 28t28 77t-28 77t-77 28h-150v-210h150z" />
    <glyph glyph-name="uni040B" unicode="&#x40b;" horiz-adv-x="725" 
d="M170 590h-175v110h470v-110h-170v-165q26 11 63.5 18t71.5 7q113 0 171.5 -59.5t58.5 -180.5v-210h-125v210q0 72 -29 101t-86 29q-42 0 -74 -8.5t-51 -16.5v-315h-125v590z" />
    <glyph glyph-name="uni040C" unicode="&#x40c;" horiz-adv-x="615" 
d="M75 700h125v-320l274 320h146l-295 -345l310 -355h-145l-290 330v-330h-125v700zM375 910h115l-115 -145h-90z" />
    <glyph glyph-name="uni040D" unicode="&#x40d;" horiz-adv-x="745" 
d="M75 700h125v-530h5l300 530h165v-700h-125v530h-5l-300 -530h-165v700zM215 910h115l90 -145h-90z" />
    <glyph glyph-name="uni040E" unicode="&#x40e;" horiz-adv-x="580" 
d="M230 190l-240 510h135l165 -360h5l160 360h130l-310 -700h-130zM290 765q-64 0 -110.5 35t-54.5 110h90q4 -34 24.5 -49.5t50.5 -15.5t50.5 15.5t24.5 49.5h90q-8 -75 -54.5 -110t-110.5 -35z" />
    <glyph glyph-name="uni040F" unicode="&#x40f;" horiz-adv-x="705" 
d="M295 0h-220v700h125v-590h305v590h125v-700h-220v-145h-115v145z" />
    <glyph glyph-name="uni0410" unicode="&#x410;" horiz-adv-x="655" 
d="M250 700h155l255 -700h-130l-54 150h-297l-54 -150h-130zM437 260l-107 300h-5l-107 -300h219z" />
    <glyph glyph-name="uni0411" unicode="&#x411;" horiz-adv-x="635" 
d="M75 700h470v-110h-345v-150h165q52 0 94.5 -16t72.5 -45t46.5 -69.5t16.5 -89.5t-16.5 -89.5t-46.5 -69.5t-72.5 -45t-94.5 -16h-290v700zM350 110q60 0 90 30.5t30 79.5t-31.5 79.5t-88.5 30.5h-150v-220h150z" />
    <glyph glyph-name="uni0412" unicode="&#x412;" horiz-adv-x="660" 
d="M75 700h320q102 0 156 -52t54 -143q0 -53 -26 -92t-64 -58q42 -19 71 -59.5t29 -100.5q0 -91 -54 -143t-156 -52h-330v700zM390 110q47 0 73.5 25t26.5 70t-26.5 70t-73.5 25h-190v-190h190zM380 400q45 0 72.5 25t27.5 70t-27.5 70t-72.5 25h-180v-190h180z" />
    <glyph glyph-name="uni0413" unicode="&#x413;" horiz-adv-x="520" 
d="M75 700h420v-110h-295v-590h-125v700z" />
    <glyph glyph-name="uni0414" unicode="&#x414;" horiz-adv-x="710" 
d="M5 110h60q37 60 48.5 137.5t11.5 182.5v270h475v-590h85v-255h-115v145h-450v-145h-115v255zM475 110v480h-225v-160q0 -109 -13 -186t-47 -134h285z" />
    <glyph glyph-name="uni0415" unicode="&#x415;" horiz-adv-x="595" 
d="M75 700h460v-110h-335v-185h315v-105h-315v-190h345v-110h-470v700z" />
    <glyph glyph-name="uni0416" unicode="&#x416;" horiz-adv-x="875" 
d="M255 355l-260 345h140l240 -320v320h125v-320l240 320h140l-260 -345l275 -355h-140l-255 330v-330h-125v330l-255 -330h-140z" />
    <glyph glyph-name="uni0417" unicode="&#x417;" horiz-adv-x="615" 
d="M300 -10q-117 0 -189.5 54t-80.5 156h125q4 -26 17 -45t33 -31t44.5 -18t50.5 -6q75 0 110 27.5t35 72.5q0 42 -33 68.5t-112 26.5h-65v110h65q71 0 103 27t32 68q0 45 -35.5 72.5t-99.5 27.5q-53 0 -90 -25.5t-45 -74.5h-125q11 102 79 156t181 54q65 0 113.5 -15
t81 -42t49 -63.5t16.5 -79.5q0 -60 -30 -100t-75 -55q49 -19 82 -60t33 -105q0 -41 -17 -77.5t-50.5 -63.5t-84.5 -43t-118 -16z" />
    <glyph glyph-name="uni0418" unicode="&#x418;" horiz-adv-x="745" 
d="M75 700h125v-530h5l300 530h165v-700h-125v530h-5l-300 -530h-165v700z" />
    <glyph glyph-name="uni0419" unicode="&#x419;" horiz-adv-x="745" 
d="M75 700h125v-530h5l300 530h165v-700h-125v530h-5l-300 -530h-165v700zM375 765q-64 0 -110.5 35t-54.5 110h90q4 -34 24.5 -49.5t50.5 -15.5t50.5 15.5t24.5 49.5h90q-8 -75 -54.5 -110t-110.5 -35z" />
    <glyph glyph-name="uni041A" unicode="&#x41a;" horiz-adv-x="615" 
d="M75 700h125v-320l274 320h146l-295 -345l310 -355h-145l-290 330v-330h-125v700z" />
    <glyph glyph-name="uni041B" unicode="&#x41b;" horiz-adv-x="685" 
d="M10 113h10q30 0 51 12.5t34 46.5t19 93t6 151v284h480v-700h-125v590h-230v-185q0 -107 -10 -185t-36.5 -129t-72 -76t-116.5 -25h-10v123z" />
    <glyph glyph-name="uni041C" unicode="&#x41c;" horiz-adv-x="895" 
d="M75 700h185l185 -520h5l185 520h185v-700h-125v535h-5l-190 -535h-105l-190 535h-5v-535h-125v700z" />
    <glyph glyph-name="uni041D" unicode="&#x41d;" horiz-adv-x="715" 
d="M75 700h125v-290h315v290h125v-700h-125v300h-315v-300h-125v700z" />
    <glyph glyph-name="uni041E" unicode="&#x41e;" horiz-adv-x="740" 
d="M370 -10q-74 0 -133.5 24t-102.5 70t-66 113t-23 153t23 153t66 113t102.5 70t133.5 24q73 0 133 -24t103 -70t66 -113t23 -153t-23 -153t-66 -113t-103 -70t-133 -24zM370 100q90 0 145 63t55 187t-55 187t-145 63t-145 -63t-55 -187t55 -187t145 -63z" />
    <glyph glyph-name="uni041F" unicode="&#x41f;" horiz-adv-x="705" 
d="M75 700h555v-700h-125v590h-305v-590h-125v700z" />
    <glyph glyph-name="uni0420" unicode="&#x420;" horiz-adv-x="640" 
d="M75 700h281q52 0 96 -17t75.5 -47.5t49.5 -72.5t18 -93t-18 -93t-49.5 -72.5t-75.5 -47.5t-96 -17h-156v-240h-125v700zM345 350q60 0 92.5 31.5t32.5 88.5t-32.5 88.5t-92.5 31.5h-145v-240h145z" />
    <glyph glyph-name="uni0421" unicode="&#x421;" horiz-adv-x="700" 
d="M370 -10q-73 0 -133 23t-102.5 68.5t-66 113t-23.5 155.5t23.5 155.5t66 113t102.5 68.5t133 23q60 0 108 -15.5t84.5 -43.5t62 -67.5t40.5 -88.5h-130q-23 49 -62 77t-103 28q-90 0 -145 -63t-55 -187t55 -187t145 -63q64 0 103 28t62 77h130q-30 -98 -102.5 -156.5
t-192.5 -58.5z" />
    <glyph glyph-name="uni0422" unicode="&#x422;" horiz-adv-x="595" 
d="M235 590h-215v110h555v-110h-215v-590h-125v590z" />
    <glyph glyph-name="uni0423" unicode="&#x423;" horiz-adv-x="580" 
d="M230 190l-240 510h135l165 -360h5l160 360h130l-310 -700h-130z" />
    <glyph glyph-name="uni0424" unicode="&#x424;" horiz-adv-x="835" 
d="M355 70q-75 0 -134.5 21.5t-100.5 59.5t-63 90t-22 114t22 114t63 90t100.5 59.5t134.5 21.5v70h125v-70q75 0 134.5 -21.5t100.5 -59.5t63 -90t22 -114t-22 -114t-63 -90t-100.5 -59.5t-134.5 -21.5v-80h-125v80zM355 530q-98 0 -146.5 -48t-48.5 -127t48.5 -127
t146.5 -48v350zM480 180q98 0 146.5 48t48.5 127t-48.5 127t-146.5 48v-350z" />
    <glyph glyph-name="uni0425" unicode="&#x425;" horiz-adv-x="610" 
d="M225 360l-225 340h140l165 -255l165 255h140l-225 -340l235 -360h-140l-175 275l-175 -275h-140z" />
    <glyph glyph-name="uni0426" unicode="&#x426;" horiz-adv-x="740" 
d="M600 0h-525v700h125v-590h305v590h125v-590h85v-255h-115v145z" />
    <glyph glyph-name="uni0427" unicode="&#x427;" horiz-adv-x="680" 
d="M480 250q-30 -15 -68 -25t-87 -10q-128 0 -194 66.5t-66 184.5v234h125v-231q0 -71 38.5 -107.5t106.5 -36.5q53 0 86 9.5t59 20.5v345h125v-700h-125v250z" />
    <glyph glyph-name="uni0428" unicode="&#x428;" horiz-adv-x="965" 
d="M75 700h125v-590h220v590h125v-590h220v590h125v-700h-815v700z" />
    <glyph glyph-name="uni0429" unicode="&#x429;" 
d="M860 0h-785v700h125v-590h220v590h125v-590h220v590h125v-590h85v-255h-115v145z" />
    <glyph glyph-name="uni042A" unicode="&#x42a;" horiz-adv-x="715" 
d="M160 590h-160v110h285v-250h156q54 0 98 -17t75.5 -47t48.5 -71t17 -90t-17 -90t-48.5 -71t-76 -47t-98.5 -17h-280v590zM430 110q57 0 91 33t34 82t-34 82t-91 33h-145v-230h145z" />
    <glyph glyph-name="uni042B" unicode="&#x42b;" horiz-adv-x="860" 
d="M75 700h125v-250h146q54 0 98 -17t75.5 -47t48.5 -71t17 -90t-17 -90t-48.5 -71t-76 -47t-98.5 -17h-270v700zM335 110q57 0 91 33t34 82t-34 82t-91 33h-135v-230h135zM660 700h125v-700h-125v700z" />
    <glyph glyph-name="uni042C" unicode="&#x42c;" horiz-adv-x="630" 
d="M75 700h125v-250h156q54 0 98 -17t75.5 -47t48.5 -71t17 -90t-17 -90t-48.5 -71t-76 -47t-98.5 -17h-280v700zM345 110q57 0 91 33t34 82t-34 82t-91 33h-145v-230h145z" />
    <glyph glyph-name="uni042D" unicode="&#x42d;" horiz-adv-x="695" 
d="M325 -10q-120 0 -192.5 58.5t-102.5 156.5h130q23 -49 62 -77t103 -28q81 0 133.5 50t63.5 150h-257v100h257q-11 100 -63.5 150t-133.5 50q-64 0 -103 -28t-62 -77h-130q15 49 40.5 88.5t62 67.5t84.5 43.5t108 15.5q73 0 133 -23t102.5 -68.5t66 -113t23.5 -155.5
t-23.5 -155.5t-66 -113t-102.5 -68.5t-133 -23z" />
    <glyph glyph-name="uni042E" unicode="&#x42e;" horiz-adv-x="965" 
d="M610 -10q-62 0 -115.5 19.5t-94 58t-66 95.5t-32.5 132h-102v-295h-125v700h125v-295h102q7 75 32.5 132t66 95.5t94 58t115.5 19.5q67 0 124 -23t98.5 -68.5t64.5 -113t23 -155.5t-23 -155.5t-64.5 -113t-98.5 -68.5t-124 -23zM610 100q39 0 73 15t59 46t39 78t14 111
t-14 111t-39 78t-59 46t-73 15t-73 -15t-59 -46t-39 -78t-14 -111t14 -111t39 -78t59 -46t73 -15z" />
    <glyph glyph-name="uni042F" unicode="&#x42f;" horiz-adv-x="645" 
d="M230 265q-15 2 -45 12.5t-60 35t-52.5 65t-22.5 102.5q0 49 17 89.5t48 69.5t74 45t96 16h285v-700h-125v260h-75l-190 -260h-150zM445 370v220h-155q-53 0 -84 -28.5t-31 -81.5t31 -81.5t84 -28.5h155z" />
    <glyph glyph-name="uni0430" unicode="&#x430;" horiz-adv-x="545" 
d="M215 -10q-41 0 -74.5 12.5t-57 34.5t-36 52t-12.5 66q0 34 13 64t38.5 52.5t62.5 35.5t86 13h135v25q0 45 -28 70t-77 25q-42 0 -64.5 -18.5t-30.5 -41.5h-118q9 34 27 63t45 50.5t62.5 34t78.5 12.5q106 0 163 -52t57 -143v-345h-100l-10 65h-5q-8 -13 -21.5 -26.5
t-33.5 -24t-45 -17.5t-55 -7zM240 90q60 0 95 31t35 84v25h-130q-49 0 -69.5 -20t-20.5 -50t22.5 -50t67.5 -20z" />
    <glyph glyph-name="uni0431" unicode="&#x431;" horiz-adv-x="585" 
d="M295 -10q-56 0 -102 18t-79 55t-51 93.5t-18 133.5q0 206 67.5 305.5t202.5 99.5q68 0 116.5 10t78.5 25v-110q-53 -30 -180 -30q-83 0 -123.5 -40.5t-51.5 -119.5h5q23 30 61.5 47.5t98.5 17.5q49 0 90 -17.5t71 -49.5t47 -78.5t17 -104.5q0 -60 -18 -107.5t-51 -80
t-79 -50t-102 -17.5zM295 95q64 0 99.5 39t35.5 111t-35.5 111t-99.5 39t-99.5 -41t-35.5 -109q0 -72 35.5 -111t99.5 -39z" />
    <glyph glyph-name="uni0432" unicode="&#x432;" horiz-adv-x="530" 
d="M65 530h261q75 0 117 -40.5t42 -104.5q0 -45 -20 -72.5t-50 -42.5q34 -15 57 -44t23 -71q0 -75 -43.5 -115t-125.5 -40h-261v530zM310 100q70 0 70 60t-70 60h-130v-120h130zM305 320q30 0 47.5 14.5t17.5 40.5t-17.5 40.5t-47.5 14.5h-125v-110h125z" />
    <glyph glyph-name="uni0433" unicode="&#x433;" horiz-adv-x="430" 
d="M65 530h345v-105h-230v-425h-115v530z" />
    <glyph glyph-name="uni0434" unicode="&#x434;" horiz-adv-x="580" 
d="M5 105h51q11 19 19 39.5t13.5 45t8.5 55.5t3 70v215h395v-425h65v-225h-110v120h-335v-120h-110v225zM380 105v320h-165v-110q0 -79 -12.5 -127.5t-32.5 -82.5h210z" />
    <glyph glyph-name="uni0435" unicode="&#x435;" horiz-adv-x="580" 
d="M294 -10q-58 0 -105 18.5t-80 53.5t-51 86t-18 117t18 117t51 86t79 53.5t102 18.5q60 0 106.5 -21t78.5 -56.5t48.5 -83t16.5 -99.5q0 -11 -1 -20t-2 -16q-1 -8 -2 -14h-375q4 -60 39.5 -97.5t95.5 -37.5q42 0 66.5 17t43.5 43h125q-11 -34 -31 -64t-49 -52.5t-68 -35.5
t-88 -13zM420 320q-8 49 -40.5 82t-89.5 33q-53 0 -86 -31t-44 -84h260z" />
    <glyph glyph-name="uni0436" unicode="&#x436;" horiz-adv-x="755" 
d="M201 270l-206 260h140l185 -235v235h115v-235l185 235h140l-206 -260l221 -270h-140l-200 245v-245h-115v245l-200 -245h-140z" />
    <glyph glyph-name="uni0437" unicode="&#x437;" horiz-adv-x="505" 
d="M251 -10q-103 0 -159 43t-67 122h120q15 -60 105 -60q49 0 74.5 17t25.5 43t-21 43t-74 17h-55v100h51q89 0 89 65q0 23 -20.5 39t-69.5 16q-42 0 -66.5 -17t-28.5 -43h-120q11 75 64 120t151 45q51 0 90 -12.5t65.5 -33.5t40.5 -49t14 -60q0 -45 -25 -74.5t-57 -42.5
q39 -17 65.5 -47.5t26.5 -75.5q0 -34 -13.5 -62.5t-40.5 -49t-68 -32t-97 -11.5z" />
    <glyph glyph-name="uni0438" unicode="&#x438;" horiz-adv-x="600" 
d="M65 530h115v-364h5l215 364h135v-530h-115v365h-5l-215 -365h-135v530z" />
    <glyph glyph-name="uni0439" unicode="&#x439;" horiz-adv-x="600" 
d="M65 530h115v-364h5l215 364h135v-530h-115v365h-5l-215 -365h-135v530zM300 605q-30 0 -56.5 8t-47 25t-34 45t-17.5 67h90q4 -34 21.5 -49.5t43.5 -15.5t43.5 15.5t21.5 49.5h90q-4 -39 -17.5 -67t-34 -45t-47 -25t-56.5 -8z" />
    <glyph glyph-name="uni043A" unicode="&#x43a;" horiz-adv-x="530" 
d="M65 530h115v-240l215 240h140l-235 -260l250 -270h-140l-230 250v-250h-115v530z" />
    <glyph glyph-name="uni043B" unicode="&#x43b;" horiz-adv-x="565" 
d="M10 105h15q22 0 37.5 11t25 36.5t13.5 66.5t4 101v210h395v-530h-115v425h-165v-115q0 -73 -8 -132t-28.5 -101t-56.5 -64.5t-92 -22.5h-25v115z" />
    <glyph glyph-name="uni043C" unicode="&#x43c;" horiz-adv-x="725" 
d="M65 530h165l130 -360h5l130 360h165v-530h-115v365h-5l-135 -365h-85l-135 365h-5v-365h-115v530z" />
    <glyph glyph-name="uni043D" unicode="&#x43d;" horiz-adv-x="580" 
d="M65 530h115v-210h220v210h115v-530h-115v210h-220v-210h-115v530z" />
    <glyph glyph-name="uni043E" unicode="&#x43e;" horiz-adv-x="580" 
d="M290 -10q-56 0 -102 18.5t-79 53.5t-51 86t-18 117t18 117t51 86t79 53.5t102 18.5t102 -18.5t79 -53.5t51 -86t18 -117t-18 -117t-51 -86t-79 -53.5t-102 -18.5zM290 95q28 0 52.5 10.5t43 31.5t29 53t10.5 75t-10.5 75t-29 53t-43 31.5t-52.5 10.5t-52.5 -10.5
t-43 -31.5t-29 -53t-10.5 -75t10.5 -75t29 -53t43 -31.5t52.5 -10.5z" />
    <glyph glyph-name="uni043F" unicode="&#x43f;" horiz-adv-x="580" 
d="M65 530h450v-530h-115v425h-220v-425h-115v530z" />
    <glyph glyph-name="uni0440" unicode="&#x440;" horiz-adv-x="605" 
d="M65 530h95l15 -65h5q23 30 62.5 52.5t92.5 22.5q51 0 93 -18t72.5 -52.5t47.5 -86t17 -118.5t-17 -118.5t-47.5 -86t-72.5 -52.5t-93 -18q-28 0 -52 6.5t-43.5 17t-33.5 23t-21 23.5h-5v-260h-115v730zM315 95q28 0 52.5 10.5t43 31.5t29 53t10.5 75t-10.5 75t-29 53
t-43 31.5t-52.5 10.5t-52.5 -10.5t-43 -31.5t-29 -53t-10.5 -75t10.5 -75t29 -53t43 -31.5t52.5 -10.5z" />
    <glyph glyph-name="uni0441" unicode="&#x441;" horiz-adv-x="555" 
d="M290 -10q-56 0 -102 18.5t-79 53.5t-51 86t-18 117t18 117t51 86t79 53.5t102 18.5q49 0 88 -14t68.5 -38t49.5 -55.5t29 -67.5h-115q-19 34 -47 52t-73 18q-60 0 -97.5 -43.5t-37.5 -126.5t37.5 -126.5t97.5 -43.5q45 0 73 18t47 52h115q-9 -36 -29 -67.5t-49.5 -55.5
t-68.5 -38t-88 -14z" />
    <glyph glyph-name="uni0442" unicode="&#x442;" horiz-adv-x="475" 
d="M180 425h-170v105h455v-105h-170v-425h-115v425z" />
    <glyph glyph-name="uni0443" unicode="&#x443;" horiz-adv-x="545" 
d="M215 0l-215 530h125l145 -375h5l145 375h125l-290 -730h-120z" />
    <glyph glyph-name="uni0444" unicode="&#x444;" horiz-adv-x="725" 
d="M305 0q-62 0 -112 19.5t-85 55t-54 84t-19 106.5t19 106.5t54 84t85 55t112 19.5v190h115v-190q62 0 112 -19.5t85 -55t54 -84t19 -106.5t-19 -106.5t-54 -84t-85 -55t-112 -19.5v-200h-115v200zM305 425q-75 0 -115 -44t-40 -116t40 -116t115 -44v320zM420 105
q75 0 115 44t40 116t-40 116t-115 44v-320z" />
    <glyph glyph-name="uni0445" unicode="&#x445;" horiz-adv-x="490" 
d="M170 275l-165 255h130l110 -175l110 175h130l-165 -255l175 -275h-130l-120 195l-120 -195h-130z" />
    <glyph glyph-name="uni0446" unicode="&#x446;" horiz-adv-x="595" 
d="M465 0h-400v530h115v-425h215v425h115v-425h65v-225h-110v120z" />
    <glyph glyph-name="uni0447" unicode="&#x447;" horiz-adv-x="555" 
d="M375 175q-23 -8 -52 -14t-63 -6q-102 0 -153.5 52t-51.5 143v180h115v-180q0 -42 26 -66t79 -24q32 0 54.5 4.5t45.5 15.5v250h115v-530h-115v175z" />
    <glyph glyph-name="uni0448" unicode="&#x448;" horiz-adv-x="795" 
d="M65 530h115v-425h160v425h115v-425h160v425h115v-530h-665v530z" />
    <glyph glyph-name="uni0449" unicode="&#x449;" horiz-adv-x="815" 
d="M685 0h-620v530h115v-425h160v425h115v-425h160v425h115v-425h65v-225h-110v120z" />
    <glyph glyph-name="uni044A" unicode="&#x44a;" horiz-adv-x="570" 
d="M125 425h-125v105h240v-180h125q37 0 69.5 -12.5t55.5 -35.5t36.5 -55.5t13.5 -71.5t-13.5 -71.5t-36.5 -55.5t-55.5 -35.5t-69.5 -12.5h-240v425zM350 105q34 0 54.5 18t20.5 52t-20.5 52t-55.5 18h-109v-140h110z" />
    <glyph glyph-name="uni044B" unicode="&#x44b;" horiz-adv-x="710" 
d="M65 530h115v-180h115q37 0 69.5 -12.5t55.5 -35.5t36.5 -55.5t13.5 -71.5t-13.5 -71.5t-36.5 -55.5t-55.5 -35.5t-69.5 -12.5h-230v530zM280 105q34 0 54.5 18t20.5 52t-20.5 52t-55.5 18h-99v-140h100zM530 530h115v-530h-115v530z" />
    <glyph glyph-name="uni044C" unicode="&#x44c;" horiz-adv-x="510" 
d="M65 530h115v-180h125q37 0 69.5 -12.5t55.5 -35.5t36.5 -55.5t13.5 -71.5t-13.5 -71.5t-36.5 -55.5t-55.5 -35.5t-69.5 -12.5h-240v530zM290 105q34 0 54.5 18t20.5 52t-20.5 52t-55.5 18h-109v-140h110z" />
    <glyph glyph-name="uni044D" unicode="&#x44d;" horiz-adv-x="550" 
d="M260 -10q-49 0 -88 14t-68.5 38t-49.5 55.5t-29 67.5h115q19 -34 47 -52t73 -18q51 0 85.5 30.5t45.5 89.5h-176v100h176q-11 59 -45.5 89.5t-85.5 30.5q-45 0 -73 -18t-47 -52h-115q9 36 29 67.5t49.5 55.5t68.5 38t88 14q56 0 102 -18.5t79 -53.5t51 -86t18 -117
t-18 -117t-51 -86t-79 -53.5t-102 -18.5z" />
    <glyph glyph-name="uni044E" unicode="&#x44e;" horiz-adv-x="775" 
d="M490 -10q-100 0 -163.5 58t-77.5 162h-69v-210h-115v530h115v-215h68q13 106 76.5 165.5t165.5 59.5q56 0 101.5 -19t77.5 -54.5t49 -86.5t17 -115t-17 -115t-49 -86.5t-77.5 -54.5t-101.5 -19zM490 95q56 0 93 42t37 128t-37 128t-93 42t-93 -42t-37 -128t37 -128
t93 -42z" />
    <glyph glyph-name="uni044F" unicode="&#x44f;" horiz-adv-x="530" 
d="M160 190q-24 6 -46 20.5t-38.5 36t-26 49t-9.5 59.5q0 39 13.5 71.5t37.5 55.5t57 35.5t72 12.5h245v-530h-115v180h-64l-131 -180h-130zM350 285v140h-120q-38 0 -56.5 -20t-18.5 -50q0 -31 18.5 -50.5t56.5 -19.5h120z" />
    <glyph glyph-name="uni0450" unicode="&#x450;" horiz-adv-x="580" 
d="M294 -10q-58 0 -105 18.5t-80 53.5t-51 86t-18 117t18 117t51 86t79 53.5t102 18.5q60 0 106.5 -21t78.5 -56.5t48.5 -83t16.5 -99.5q0 -11 -1 -20t-2 -16q-1 -8 -2 -14h-375q4 -60 39.5 -97.5t95.5 -37.5q42 0 66.5 17t43.5 43h125q-11 -34 -31 -64t-49 -52.5t-68 -35.5
t-88 -13zM420 320q-8 49 -40.5 82t-89.5 33q-53 0 -86 -31t-44 -84h260zM130 750h115l90 -145h-90z" />
    <glyph glyph-name="uni0451" unicode="&#x451;" horiz-adv-x="580" 
d="M294 -10q-58 0 -105 18.5t-80 53.5t-51 86t-18 117t18 117t51 86t79 53.5t102 18.5q60 0 106.5 -21t78.5 -56.5t48.5 -83t16.5 -99.5q0 -11 -1 -20t-2 -16q-1 -8 -2 -14h-375q4 -60 39.5 -97.5t95.5 -37.5q42 0 66.5 17t43.5 43h125q-11 -34 -31 -64t-49 -52.5t-68 -35.5
t-88 -13zM420 320q-8 49 -40.5 82t-89.5 33q-53 0 -86 -31t-44 -84h260zM200 615q-30 0 -47.5 19.5t-17.5 45.5t17.5 45.5t47.5 19.5t47.5 -19.5t17.5 -45.5t-17.5 -45.5t-47.5 -19.5zM390 615q-30 0 -47.5 19.5t-17.5 45.5t17.5 45.5t47.5 19.5t47.5 -19.5t17.5 -45.5
t-17.5 -45.5t-47.5 -19.5z" />
    <glyph glyph-name="uni0452" unicode="&#x452;" horiz-adv-x="590" 
d="M280 -100h70q30 0 47.5 17.5t17.5 47.5v280q0 57 -30.5 88.5t-79.5 31.5q-26 0 -47.5 -9.5t-36.5 -26t-23 -39t-8 -47.5v-243h-115v535h-75v95h75v70h115v-70h135v-95h-135v-135h5q23 34 59 52t81 18q43 0 79 -15.5t61.5 -43.5t40 -67.5t14.5 -88.5v-305
q0 -72 -40.5 -111t-119.5 -39h-90v100z" />
    <glyph glyph-name="uni0453" unicode="&#x453;" horiz-adv-x="430" 
d="M65 530h345v-105h-230v-425h-115v530zM285 750h115l-115 -145h-90z" />
    <glyph glyph-name="uni0454" unicode="&#x454;" horiz-adv-x="555" 
d="M290 -10q-56 0 -102 18.5t-79 53.5t-51 86t-18 117t18 117t51 86t79 53.5t102 18.5q49 0 88 -14t68.5 -38t49.5 -55.5t29 -67.5h-115q-19 34 -47 52t-73 18q-51 0 -85.5 -30.5t-45.5 -89.5h176v-100h-176q11 -59 45.5 -89.5t85.5 -30.5q45 0 73 18t47 52h115
q-9 -36 -29 -67.5t-49.5 -55.5t-68.5 -38t-88 -14z" />
    <glyph glyph-name="uni0455" unicode="&#x455;" horiz-adv-x="500" 
d="M250 -10q-49 0 -87.5 12.5t-66.5 34.5t-46 52t-25 66h125q8 -26 33 -43t67 -17q56 0 78 16t22 39q0 25 -22.5 37t-56.5 19.5t-73.5 16t-73.5 26t-56.5 49.5t-22.5 87q0 32 13 60t38.5 49t62.5 33.5t86 12.5t86.5 -11.5t64.5 -32t44 -49t25 -62.5h-125q-8 19 -29 34.5
t-66 15.5q-42 0 -61 -13.5t-19 -36.5q0 -25 22.5 -37t56.5 -20.5t73.5 -17t73.5 -26.5t56.5 -49t22.5 -85q0 -34 -13.5 -63t-40.5 -50.5t-68.5 -34t-97.5 -12.5z" />
    <glyph glyph-name="uni0456" unicode="&#x456;" horiz-adv-x="245" 
d="M65 530h115v-530h-115v530zM122 590q-32 0 -52 20t-20 50t20 50t52 20t52.5 -20t20.5 -50t-20.5 -50t-52.5 -20z" />
    <glyph glyph-name="uni0457" unicode="&#x457;" horiz-adv-x="245" 
d="M65 530h115v-530h-115v530zM30 615q-30 0 -47.5 19.5t-17.5 45.5t17.5 45.5t47.5 19.5t47.5 -19.5t17.5 -45.5t-17.5 -45.5t-47.5 -19.5zM220 615q-30 0 -47.5 19.5t-17.5 45.5t17.5 45.5t47.5 19.5t47.5 -19.5t17.5 -45.5t-17.5 -45.5t-47.5 -19.5z" />
    <glyph glyph-name="uni0458" unicode="&#x458;" horiz-adv-x="245" 
d="M-70 -100h80q23 0 39 14.5t16 40.5v575h115v-585q0 -72 -40 -108.5t-115 -36.5h-95v100zM122 590q-32 0 -52 20t-20 50t20 50t52 20t52.5 -20t20.5 -50t-20.5 -50t-52.5 -20z" />
    <glyph glyph-name="uni0459" unicode="&#x459;" horiz-adv-x="820" 
d="M10 105h15q22 0 37.5 11t25 36.5t13.5 66.5t4 101v210h385v-180h125q37 0 69.5 -12.5t55.5 -35.5t36.5 -55.5t13.5 -71.5t-13.5 -71.5t-36.5 -55.5t-55.5 -35.5t-69.5 -12.5h-240v425h-155v-115q0 -73 -8 -132t-28.5 -101t-56.5 -64.5t-92 -22.5h-25v115zM600 105
q34 0 54.5 18t20.5 52t-20.5 52t-55.5 18h-109v-140h110z" />
    <glyph glyph-name="uni045A" unicode="&#x45a;" horiz-adv-x="830" 
d="M65 530h115v-200h210v200h115v-200h125q39 0 70.5 -12.5t53.5 -34.5t34 -52t12 -66q0 -75 -45.5 -120t-124.5 -45h-240v225h-210v-225h-115v530zM615 105q31 0 50.5 15t19.5 45q0 60 -70 60h-110v-120h110z" />
    <glyph glyph-name="uni045B" unicode="&#x45b;" horiz-adv-x="590" 
d="M75 535h-75v95h75v70h115v-70h135v-95h-135v-135h5q23 34 59 52t81 18q43 0 79 -15.5t61.5 -43.5t40 -67.5t14.5 -88.5v-255h-115v245q0 57 -30.5 88.5t-79.5 31.5q-26 0 -47.5 -9.5t-36.5 -26t-23 -39t-8 -47.5v-243h-115v535z" />
    <glyph glyph-name="uni045C" unicode="&#x45c;" horiz-adv-x="530" 
d="M65 530h115v-240l215 240h140l-235 -260l250 -270h-140l-230 250v-250h-115v530zM330 750h115l-115 -145h-90z" />
    <glyph glyph-name="uni045D" unicode="&#x45d;" horiz-adv-x="600" 
d="M65 530h115v-364h5l215 364h135v-530h-115v365h-5l-215 -365h-135v530zM140 750h115l90 -145h-90z" />
    <glyph glyph-name="uni045E" unicode="&#x45e;" horiz-adv-x="545" 
d="M215 0l-215 530h125l145 -375h5l145 375h125l-290 -730h-120zM270 605q-30 0 -56.5 8t-47 25t-34 45t-17.5 67h90q4 -34 21.5 -49.5t43.5 -15.5t43.5 15.5t21.5 49.5h90q-4 -39 -17.5 -67t-34 -45t-47 -25t-56.5 -8z" />
    <glyph glyph-name="uni045F" unicode="&#x45f;" horiz-adv-x="580" 
d="M235 0h-170v530h115v-425h220v425h115v-530h-170v-120h-110v120z" />
    <glyph glyph-name="uni0490" unicode="&#x490;" horiz-adv-x="520" 
d="M75 700h300v140h120v-250h-295v-590h-125v700z" />
    <glyph glyph-name="uni0491" unicode="&#x491;" horiz-adv-x="430" 
d="M65 530h235v120h110v-225h-230v-425h-115v530z" />
    <glyph glyph-name="uni0492" unicode="&#x492;" horiz-adv-x="580" 
d="M105 280h-90v110h90v310h450v-110h-325v-200h190v-110h-190v-280h-125v280z" />
    <glyph glyph-name="uni0493" unicode="&#x493;" horiz-adv-x="440" 
d="M80 195h-75v100h75v235h340v-105h-225v-130h155v-100h-155v-195h-115v195z" />
    <glyph glyph-name="uni0494" unicode="&#x494;" horiz-adv-x="635" 
d="M325 -25q72 0 113.5 40.5t41.5 119.5q0 30 -10 57t-29.5 48t-47 33t-63.5 12q-32 0 -56 -6t-41 -14q-19 -9 -33 -20v-245h-125v700h446v-110h-321v-230q17 9 39 17q19 7 45.5 12.5t60.5 5.5q62 0 110.5 -18t81.5 -52t50.5 -82t17.5 -108q0 -128 -74 -199t-206 -71v110z
" />
    <glyph glyph-name="uni0495" unicode="&#x495;" horiz-adv-x="520" 
d="M275 -95q49 0 77 34t28 106q0 68 -26.5 104t-83.5 36q-21 0 -37.5 -5t-28.5 -10q-14 -7 -24 -15v-155h-115v530h345v-105h-230v-160q11 7 26 12q13 5 31 9t43 4q47 0 86.5 -15t68 -45.5t44.5 -76.5t16 -108q0 -121 -59 -183t-161 -62v105z" />
    <glyph glyph-name="uni0496" unicode="&#x496;" horiz-adv-x="885" 
d="M790 0h-35l-255 330v-330h-125v330l-255 -330h-140l275 355l-260 345h140l240 -320v320h125v-320l240 320h140l-260 -345l190 -245h95v-255h-115v145z" />
    <glyph glyph-name="uni0497" unicode="&#x497;" horiz-adv-x="760" 
d="M665 0h-30l-200 245v-245h-115v245l-200 -245h-140l221 270l-206 260h140l185 -235v235h115v-235l185 235h140l-206 -260l135 -165h86v-225h-110v120z" />
    <glyph glyph-name="uni049A" unicode="&#x49a;" horiz-adv-x="620" 
d="M525 0h-35l-290 330v-330h-125v700h125v-320l274 320h146l-295 -345l214 -245h101v-255h-115v145z" />
    <glyph glyph-name="uni049B" unicode="&#x49b;" horiz-adv-x="535" 
d="M440 0h-30l-230 250v-250h-115v530h115v-240l215 240h140l-235 -260l153 -165h97v-225h-110v120z" />
    <glyph glyph-name="uni049C" unicode="&#x49c;" horiz-adv-x="645" 
d="M75 700h125v-295h35v105h75v-105h20l180 295h140l-215 -345l225 -355h-135l-190 300h-25v-105h-75v105h-35v-300h-125v700z" />
    <glyph glyph-name="uni049D" unicode="&#x49d;" horiz-adv-x="550" 
d="M65 530h115v-210h25v75h70v-75h15l125 210h130l-155 -260l170 -270h-135l-135 220h-15v-75h-70v75h-25v-220h-115v530z" />
    <glyph glyph-name="uni04A2" unicode="&#x4a2;" horiz-adv-x="750" 
d="M610 0h-95v300h-315v-300h-125v700h125v-290h315v290h125v-590h85v-255h-115v145z" />
    <glyph glyph-name="uni04A3" unicode="&#x4a3;" horiz-adv-x="600" 
d="M470 0h-70v210h-220v-210h-115v530h115v-210h220v210h115v-425h65v-225h-110v120z" />
    <glyph glyph-name="uni04AA" unicode="&#x4aa;" horiz-adv-x="700" 
d="M310 -6q-60 9 -109 36t-83.5 72t-53.5 107t-19 141q0 88 23.5 155.5t66 113t102.5 68.5t133 23q60 0 108 -15.5t84.5 -43.5t62 -67.5t40.5 -88.5h-130q-23 49 -62 77t-103 28q-90 0 -145 -63t-55 -187t55 -187t145 -63q64 0 103 28t62 77h130q-26 -87 -85 -142.5
t-155 -68.5v-139h-115v139z" />
    <glyph glyph-name="uni04AB" unicode="&#x4ab;" horiz-adv-x="555" 
d="M240 -6q-92 15 -146 84.5t-54 186.5q0 66 18 117t51 86t79 53.5t102 18.5q49 0 88 -14t68.5 -38t49.5 -55.5t29 -67.5h-115q-19 34 -47 52t-73 18q-60 0 -97.5 -43.5t-37.5 -126.5t37.5 -126.5t97.5 -43.5q45 0 73 18t47 52h115q-16 -60 -60 -107t-115 -62v-116h-110v114
z" />
    <glyph glyph-name="uni04AE" unicode="&#x4ae;" horiz-adv-x="585" 
d="M230 250l-245 450h130l175 -325h5l175 325h130l-245 -450v-250h-125v250z" />
    <glyph glyph-name="uni04AF" unicode="&#x4af;" horiz-adv-x="535" 
d="M210 0h-15l-195 530h125l140 -405h5l140 405h125l-195 -530h-15v-200h-115v200z" />
    <glyph glyph-name="uni04B0" unicode="&#x4b0;" horiz-adv-x="585" 
d="M230 240h-155v110h100l-190 350h130l175 -325h5l175 325h130l-190 -350h100v-110h-155v-240h-125v240z" />
    <glyph glyph-name="uni04B1" unicode="&#x4b1;" horiz-adv-x="535" 
d="M210 0h-120v105h66l-156 425h125l140 -405h5l140 405h125l-157 -425h67v-105h-120v-200h-115v200z" />
    <glyph glyph-name="uni04B2" unicode="&#x4b2;" horiz-adv-x="620" 
d="M510 0h-30l-175 275l-175 -275h-140l235 360l-225 340h140l165 -255l165 255h140l-225 -340l163 -250h77v-255h-115v145z" />
    <glyph glyph-name="uni04B3" unicode="&#x4b3;" horiz-adv-x="505" 
d="M395 0h-30l-120 195l-120 -195h-130l175 275l-165 255h130l110 -175l110 175h130l-165 -255l108 -170h77v-225h-110v120z" />
    <glyph glyph-name="uni04B6" unicode="&#x4b6;" horiz-adv-x="715" 
d="M575 0h-95v250q-30 -15 -68 -25t-87 -10q-128 0 -194 66.5t-66 184.5v234h125v-231q0 -71 38.5 -107.5t106.5 -36.5q53 0 86 9.5t59 20.5v345h125v-590h85v-255h-115v145z" />
    <glyph glyph-name="uni04B7" unicode="&#x4b7;" horiz-adv-x="575" 
d="M445 0h-70v175q-23 -8 -52 -14t-63 -6q-102 0 -153.5 52t-51.5 143v180h115v-180q0 -42 26 -66t79 -24q32 0 54.5 4.5t45.5 15.5v250h115v-425h65v-225h-110v120z" />
    <glyph glyph-name="uni04B8" unicode="&#x4b8;" horiz-adv-x="680" 
d="M480 250q-20 -11 -43.5 -18.5t-51.5 -12.5v-99h-90v96q-114 8 -172 73.5t-58 176.5v234h125v-231q0 -60 27.5 -95t77.5 -45v126h90v-127q31 4 53 11.5t42 15.5v345h125v-700h-125v250z" />
    <glyph glyph-name="uni04B9" unicode="&#x4b9;" horiz-adv-x="555" 
d="M375 175q-14 -5 -30.5 -9.5t-34.5 -7.5v-68h-70v65q-92 5 -138.5 57t-46.5 138v180h115v-180q0 -34 17.5 -56.5t52.5 -30.5v67h70v-69q18 2 33.5 6.5t31.5 12.5v250h115v-530h-115v175z" />
    <glyph glyph-name="uni04BA" unicode="&#x4ba;" horiz-adv-x="680" 
d="M75 700h125v-250q30 15 68 25t87 10q128 0 194 -66.5t66 -184.5v-234h-125v231q0 71 -38.5 107.5t-106.5 36.5q-53 0 -86 -9.5t-59 -20.5v-345h-125v700z" />
    <glyph glyph-name="uni04BB" unicode="&#x4bb;" horiz-adv-x="585" 
d="M70 700h115v-230h5q23 34 59 52t81 18q43 0 79 -15.5t61.5 -43.5t40 -67.5t14.5 -88.5v-325h-115v315q0 57 -30.5 88.5t-79.5 31.5q-26 0 -47.5 -9.5t-36.5 -26t-23 -39t-8 -47.5v-313h-115v700z" />
    <glyph glyph-name="uni04C1" unicode="&#x4c1;" horiz-adv-x="875" 
d="M255 355l-260 345h140l240 -320v320h125v-320l240 320h140l-260 -345l275 -355h-140l-255 330v-330h-125v330l-255 -330h-140zM440 765q-64 0 -110.5 35t-54.5 110h90q4 -34 24.5 -49.5t50.5 -15.5t50.5 15.5t24.5 49.5h90q-8 -75 -54.5 -110t-110.5 -35z" />
    <glyph glyph-name="uni04C2" unicode="&#x4c2;" horiz-adv-x="755" 
d="M201 270l-206 260h140l185 -235v235h115v-235l185 235h140l-206 -260l221 -270h-140l-200 245v-245h-115v245l-200 -245h-140zM380 605q-30 0 -56.5 8t-47 25t-34 45t-17.5 67h90q4 -34 21.5 -49.5t43.5 -15.5t43.5 15.5t21.5 49.5h90q-4 -39 -17.5 -67t-34 -45t-47 -25
t-56.5 -8z" />
    <glyph glyph-name="uni04D2" unicode="&#x4d2;" horiz-adv-x="655" 
d="M250 700h155l255 -700h-130l-54 150h-297l-54 -150h-130zM437 260l-107 300h-5l-107 -300h219zM235 775q-30 0 -47.5 19.5t-17.5 45.5t17.5 45.5t47.5 19.5t47.5 -19.5t17.5 -45.5t-17.5 -45.5t-47.5 -19.5zM425 775q-30 0 -47.5 19.5t-17.5 45.5t17.5 45.5t47.5 19.5
t47.5 -19.5t17.5 -45.5t-17.5 -45.5t-47.5 -19.5z" />
    <glyph glyph-name="uni04D3" unicode="&#x4d3;" horiz-adv-x="545" 
d="M215 -10q-41 0 -74.5 12.5t-57 34.5t-36 52t-12.5 66q0 34 13 64t38.5 52.5t62.5 35.5t86 13h135v25q0 45 -28 70t-77 25q-42 0 -64.5 -18.5t-30.5 -41.5h-118q9 34 27 63t45 50.5t62.5 34t78.5 12.5q106 0 163 -52t57 -143v-345h-100l-10 65h-5q-8 -13 -21.5 -26.5
t-33.5 -24t-45 -17.5t-55 -7zM240 90q60 0 95 31t35 84v25h-130q-49 0 -69.5 -20t-20.5 -50t22.5 -50t67.5 -20zM180 615q-30 0 -47.5 19.5t-17.5 45.5t17.5 45.5t47.5 19.5t47.5 -19.5t17.5 -45.5t-17.5 -45.5t-47.5 -19.5zM370 615q-30 0 -47.5 19.5t-17.5 45.5t17.5 45.5
t47.5 19.5t47.5 -19.5t17.5 -45.5t-17.5 -45.5t-47.5 -19.5z" />
    <glyph glyph-name="uni04D8" unicode="&#x4d8;" horiz-adv-x="730" 
d="M361 -10q-70 0 -128 22.5t-100 68t-65 114t-23 160.5v35h513q-3 51 -19 90t-42 65.5t-61 40.5t-76 14q-64 0 -103 -27.5t-62 -72.5h-130q15 47 40.5 85.5t62 66.5t84.5 43t108 15q73 0 133 -23t102.5 -68.5t66 -113t23.5 -155.5q0 -87 -23.5 -154t-66 -113t-102 -69.5
t-132.5 -23.5zM360 100q83 0 135.5 51.5t60.5 138.5h-385q5 -51 21 -87t41 -59t57 -33.5t70 -10.5z" />
    <glyph glyph-name="uni04D9" unicode="&#x4d9;" horiz-adv-x="580" 
d="M290 -10q-60 0 -106.5 21t-78.5 56.5t-48.5 82.5t-16.5 100q0 11 0.5 20t1.5 16q1 8 3 14h375q-4 60 -39.5 97.5t-95.5 37.5q-42 0 -66.5 -17t-43.5 -43h-125q11 34 31 64t49 52.5t68 35.5t88 13q58 0 105 -18.5t80 -53.5t51 -86t18 -117t-18 -117t-51 -86t-79 -53.5
t-102 -18.5zM290 95q53 0 86 31t44 84h-260q8 -49 40.5 -82t89.5 -33z" />
    <glyph glyph-name="uni04E0" unicode="&#x4e0;" horiz-adv-x="615" 
d="M295 -10q-117 0 -188 54t-82 156h125q8 -49 50 -74.5t95 -25.5q75 0 110 33t35 82t-33 79.5t-112 30.5h-130v100l210 165h-325v110h500v-105l-215 -170h5q52 0 94 -15.5t71 -43.5t44.5 -67.5t15.5 -88.5q0 -43 -15.5 -83t-48.5 -70.5t-84 -48.5t-122 -18z" />
    <glyph glyph-name="uni04E1" unicode="&#x4e1;" horiz-adv-x="515" 
d="M255 -200q-56 0 -100 15t-74.5 42.5t-47 65t-18.5 82.5h115q4 -45 40 -72.5t85 -27.5q57 0 86 32.5t29 92.5t-31 92.5t-99 32.5h-110v90l190 180h-275v105h425v-105l-190 -175q105 -8 155 -69.5t50 -155.5q0 -51 -15 -92.5t-44 -71t-72 -45.5t-99 -16z" />
    <glyph glyph-name="uni04E2" unicode="&#x4e2;" horiz-adv-x="745" 
d="M75 700h125v-530h5l300 530h165v-700h-125v530h-5l-300 -530h-165v700zM225 880h295v-85h-295v85z" />
    <glyph glyph-name="uni04E3" unicode="&#x4e3;" horiz-adv-x="600" 
d="M65 530h115v-364h5l215 364h135v-530h-115v365h-5l-215 -365h-135v530zM150 715h295v-85h-295v85z" />
    <glyph glyph-name="uni04E6" unicode="&#x4e6;" horiz-adv-x="740" 
d="M370 -10q-74 0 -133.5 24t-102.5 70t-66 113t-23 153t23 153t66 113t102.5 70t133.5 24q73 0 133 -24t103 -70t66 -113t23 -153t-23 -153t-66 -113t-103 -70t-133 -24zM370 100q90 0 145 63t55 187t-55 187t-145 63t-145 -63t-55 -187t55 -187t145 -63zM275 775
q-30 0 -47.5 19.5t-17.5 45.5t17.5 45.5t47.5 19.5t47.5 -19.5t17.5 -45.5t-17.5 -45.5t-47.5 -19.5zM465 775q-30 0 -47.5 19.5t-17.5 45.5t17.5 45.5t47.5 19.5t47.5 -19.5t17.5 -45.5t-17.5 -45.5t-47.5 -19.5z" />
    <glyph glyph-name="uni04E7" unicode="&#x4e7;" horiz-adv-x="580" 
d="M290 -10q-56 0 -102 18.5t-79 53.5t-51 86t-18 117t18 117t51 86t79 53.5t102 18.5t102 -18.5t79 -53.5t51 -86t18 -117t-18 -117t-51 -86t-79 -53.5t-102 -18.5zM290 95q28 0 52.5 10.5t43 31.5t29 53t10.5 75t-10.5 75t-29 53t-43 31.5t-52.5 10.5t-52.5 -10.5
t-43 -31.5t-29 -53t-10.5 -75t10.5 -75t29 -53t43 -31.5t52.5 -10.5zM195 615q-30 0 -47.5 19.5t-17.5 45.5t17.5 45.5t47.5 19.5t47.5 -19.5t17.5 -45.5t-17.5 -45.5t-47.5 -19.5zM385 615q-30 0 -47.5 19.5t-17.5 45.5t17.5 45.5t47.5 19.5t47.5 -19.5t17.5 -45.5
t-17.5 -45.5t-47.5 -19.5z" />
    <glyph glyph-name="uni04E8" unicode="&#x4e8;" horiz-adv-x="740" 
d="M370 -10q-74 0 -133.5 24t-102.5 70t-66 113t-23 153t23 153t66 113t102.5 70t133.5 24q73 0 133 -24t103 -70t66 -113t23 -153t-23 -153t-66 -113t-103 -70t-133 -24zM370 100q81 0 133.5 50t63.5 150h-394q11 -100 63.5 -150t133.5 -50zM567 400q-11 100 -63.5 150
t-133.5 50t-133.5 -50t-63.5 -150h394z" />
    <glyph glyph-name="uni04E9" unicode="&#x4e9;" horiz-adv-x="580" 
d="M290 -10q-56 0 -102 18.5t-79 53.5t-51 86t-18 117t18 117t51 86t79 53.5t102 18.5t102 -18.5t79 -53.5t51 -86t18 -117t-18 -117t-51 -86t-79 -53.5t-102 -18.5zM290 95q48 0 83.5 29.5t46.5 90.5h-261q11 -61 47 -90.5t84 -29.5zM420 315q-11 61 -46.5 90.5t-83.5 29.5
t-84 -29.5t-47 -90.5h261z" />
    <glyph glyph-name="uni04EE" unicode="&#x4ee;" horiz-adv-x="580" 
d="M230 190l-240 510h135l165 -360h5l160 360h130l-310 -700h-130zM140 880h295v-85h-295v85z" />
    <glyph glyph-name="uni04EF" unicode="&#x4ef;" horiz-adv-x="545" 
d="M215 0l-215 530h125l145 -375h5l145 375h125l-290 -730h-120zM125 715h295v-85h-295v85z" />
    <glyph glyph-name="uni04F0" unicode="&#x4f0;" horiz-adv-x="580" 
d="M230 190l-240 510h135l165 -360h5l160 360h130l-310 -700h-130zM195 775q-30 0 -47.5 19.5t-17.5 45.5t17.5 45.5t47.5 19.5t47.5 -19.5t17.5 -45.5t-17.5 -45.5t-47.5 -19.5zM385 775q-30 0 -47.5 19.5t-17.5 45.5t17.5 45.5t47.5 19.5t47.5 -19.5t17.5 -45.5
t-17.5 -45.5t-47.5 -19.5z" />
    <glyph glyph-name="uni04F1" unicode="&#x4f1;" horiz-adv-x="545" 
d="M215 0l-215 530h125l145 -375h5l145 375h125l-290 -730h-120zM175 615q-30 0 -47.5 19.5t-17.5 45.5t17.5 45.5t47.5 19.5t47.5 -19.5t17.5 -45.5t-17.5 -45.5t-47.5 -19.5zM365 615q-30 0 -47.5 19.5t-17.5 45.5t17.5 45.5t47.5 19.5t47.5 -19.5t17.5 -45.5t-17.5 -45.5
t-47.5 -19.5z" />
    <glyph glyph-name="Wgrave" unicode="&#x1e80;" horiz-adv-x="935" 
d="M10 700h130l120 -530h5l130 530h145l130 -530h5l120 530h130l-180 -700h-150l-125 525h-5l-125 -525h-150zM310 910h115l90 -145h-90z" />
    <glyph glyph-name="wgrave" unicode="&#x1e81;" horiz-adv-x="785" 
d="M5 530h120l100 -385h5l100 385h125l100 -385h5l100 385h120l-145 -530h-140l-100 365h-5l-100 -365h-140zM230 750h115l90 -145h-90z" />
    <glyph glyph-name="Wacute" unicode="&#x1e82;" horiz-adv-x="935" 
d="M10 700h130l120 -530h5l130 530h145l130 -530h5l120 530h130l-180 -700h-150l-125 525h-5l-125 -525h-150zM515 910h115l-115 -145h-90z" />
    <glyph glyph-name="wacute" unicode="&#x1e83;" horiz-adv-x="785" 
d="M5 530h120l100 -385h5l100 385h125l100 -385h5l100 385h120l-145 -530h-140l-100 365h-5l-100 -365h-140zM440 750h115l-115 -145h-90z" />
    <glyph glyph-name="Wdieresis" unicode="&#x1e84;" horiz-adv-x="935" 
d="M10 700h130l120 -530h5l130 530h145l130 -530h5l120 530h130l-180 -700h-150l-125 525h-5l-125 -525h-150zM375 775q-30 0 -47.5 19.5t-17.5 45.5t17.5 45.5t47.5 19.5t47.5 -19.5t17.5 -45.5t-17.5 -45.5t-47.5 -19.5zM565 775q-30 0 -47.5 19.5t-17.5 45.5t17.5 45.5
t47.5 19.5t47.5 -19.5t17.5 -45.5t-17.5 -45.5t-47.5 -19.5z" />
    <glyph glyph-name="wdieresis" unicode="&#x1e85;" horiz-adv-x="785" 
d="M5 530h120l100 -385h5l100 385h125l100 -385h5l100 385h120l-145 -530h-140l-100 365h-5l-100 -365h-140zM295 615q-30 0 -47.5 19.5t-17.5 45.5t17.5 45.5t47.5 19.5t47.5 -19.5t17.5 -45.5t-17.5 -45.5t-47.5 -19.5zM485 615q-30 0 -47.5 19.5t-17.5 45.5t17.5 45.5
t47.5 19.5t47.5 -19.5t17.5 -45.5t-17.5 -45.5t-47.5 -19.5z" />
    <glyph glyph-name="uni1E9E" unicode="&#x1e9e;" horiz-adv-x="685" 
d="M70 485q0 102 56 158.5t154 56.5h335v-105l-155 -170v-5q39 -4 73 -19.5t59 -42t39 -62.5t14 -81q0 -49 -15.5 -88.5t-45 -67.5t-72.5 -43.5t-97 -15.5h-105v110h90q60 0 90 28t30 77t-30.5 77t-94.5 28h-75v105l150 165h-175q-45 0 -72.5 -29t-27.5 -81v-480h-125v485z
" />
    <glyph glyph-name="Ygrave" unicode="&#x1ef2;" horiz-adv-x="585" 
d="M230 250l-245 450h130l175 -325h5l175 325h130l-245 -450v-250h-125v250zM130 910h115l90 -145h-90z" />
    <glyph glyph-name="ygrave" unicode="&#x1ef3;" horiz-adv-x="545" 
d="M215 0l-215 530h125l145 -375h5l145 375h125l-290 -730h-120zM110 750h115l90 -145h-90z" />
    <glyph glyph-name="endash" unicode="&#x2013;" horiz-adv-x="560" 
d="M30 335h500v-105h-500v105z" />
    <glyph glyph-name="emdash" unicode="&#x2014;" horiz-adv-x="805" 
d="M30 335h745v-105h-745v105z" />
    <glyph glyph-name="quoteleft" unicode="&#x2018;" horiz-adv-x="210" 
d="M100 700h90l-40 -205h-110z" />
    <glyph glyph-name="quoteright" unicode="&#x2019;" horiz-adv-x="210" 
d="M80 700h110l-60 -205h-90z" />
    <glyph glyph-name="quotesinglbase" unicode="&#x201a;" horiz-adv-x="210" 
d="M60 100h110l-60 -205h-90z" />
    <glyph glyph-name="quotedblleft" unicode="&#x201c;" horiz-adv-x="380" 
d="M100 700h90l-40 -205h-110zM270 700h90l-40 -205h-110z" />
    <glyph glyph-name="quotedblright" unicode="&#x201d;" horiz-adv-x="380" 
d="M80 700h110l-60 -205h-90zM250 700h110l-60 -205h-90z" />
    <glyph glyph-name="quotedblbase" unicode="&#x201e;" horiz-adv-x="380" 
d="M60 100h110l-60 -205h-90zM230 100h110l-60 -205h-90z" />
    <glyph glyph-name="dagger" unicode="&#x2020;" horiz-adv-x="480" 
d="M180 430h-125v110h125v160h120v-160h125v-110h-125v-430h-120v430z" />
    <glyph glyph-name="daggerdbl" unicode="&#x2021;" horiz-adv-x="480" 
d="M180 160h-125v110h125v160h-125v110h125v160h120v-160h125v-110h-125v-160h125v-110h-125v-160h-120v160z" />
    <glyph glyph-name="bullet" unicode="&#x2022;" horiz-adv-x="450" 
d="M225 180q-23 0 -42 8.5t-33 23t-22 33.5t-8 40t8 40t22 33.5t33 23t42 8.5q22 0 41.5 -8.5t33.5 -23t22 -33.5t8 -40t-8 -40t-22 -33.5t-33.5 -23t-41.5 -8.5z" />
    <glyph glyph-name="ellipsis" unicode="&#x2026;" horiz-adv-x="730" 
d="M110 -5q-30 0 -50 20t-20 50t20 50t50 20t50 -20t20 -50t-20 -50t-50 -20zM365 -5q-30 0 -50 20t-20 50t20 50t50 20t50 -20t20 -50t-20 -50t-50 -20zM620 -5q-30 0 -50 20t-20 50t20 50t50 20t50 -20t20 -50t-20 -50t-50 -20z" />
    <glyph glyph-name="perthousand" unicode="&#x2030;" horiz-adv-x="1130" 
d="M545 700h105l-435 -700h-105zM565 -10q-36 0 -65.5 11.5t-50.5 33.5t-32.5 52t-11.5 68q0 37 11.5 67.5t32.5 52.5t50.5 33.5t65.5 11.5t65.5 -11.5t50.5 -33.5t32.5 -52.5t11.5 -67.5q0 -38 -11.5 -68t-32.5 -52t-50.5 -33.5t-65.5 -11.5zM565 70q34 0 54.5 21.5
t20.5 63.5t-20.5 63.5t-54.5 21.5t-54.5 -21.5t-20.5 -63.5t20.5 -63.5t54.5 -21.5zM935 -10q-36 0 -65.5 11.5t-50.5 33.5t-32.5 52t-11.5 68q0 37 11.5 67.5t32.5 52.5t50.5 33.5t65.5 11.5t65.5 -11.5t50.5 -33.5t32.5 -52.5t11.5 -67.5q0 -38 -11.5 -68t-32.5 -52
t-50.5 -33.5t-65.5 -11.5zM935 70q34 0 54.5 21.5t20.5 63.5t-20.5 63.5t-54.5 21.5t-54.5 -21.5t-20.5 -63.5t20.5 -63.5t54.5 -21.5zM195 380q-36 0 -65.5 11.5t-50.5 33.5t-32.5 52t-11.5 68q0 37 11.5 67.5t32.5 52.5t50.5 33.5t65.5 11.5t65.5 -11.5t50.5 -33.5
t32.5 -52.5t11.5 -67.5q0 -38 -11.5 -68t-32.5 -52t-50.5 -33.5t-65.5 -11.5zM195 460q34 0 54.5 21.5t20.5 63.5t-20.5 63.5t-54.5 21.5t-54.5 -21.5t-20.5 -63.5t20.5 -63.5t54.5 -21.5z" />
    <glyph glyph-name="guilsinglleft" unicode="&#x2039;" horiz-adv-x="410" 
d="M35 270l215 240h135l-215 -237v-6l215 -237h-135z" />
    <glyph glyph-name="guilsinglright" unicode="&#x203a;" horiz-adv-x="410" 
d="M240 267v6l-215 237h135l215 -240l-215 -240h-135z" />
    <glyph glyph-name="fraction" unicode="&#x2044;" horiz-adv-x="145" 
d="M245 700h90l-435 -700h-90z" />
    <glyph glyph-name="uni2070" unicode="&#x2070;" horiz-adv-x="390" 
d="M195 395q-72 0 -116 51.5t-44 153.5t44 153.5t116 51.5t116 -51.5t44 -153.5t-44 -153.5t-116 -51.5zM195 475q30 0 52.5 30.5t22.5 94.5t-22.5 94.5t-52.5 30.5t-52.5 -30.5t-22.5 -94.5t22.5 -94.5t52.5 -30.5z" />
    <glyph glyph-name="uni2074" unicode="&#x2074;" horiz-adv-x="345" 
d="M185 485h-180v75l160 240h105v-240h60v-75h-60v-85h-85v85zM185 560v135h-5l-90 -135h95z" />
    <glyph glyph-name="uni2075" unicode="&#x2075;" horiz-adv-x="345" 
d="M170 395q-30 0 -56 9t-45.5 24.5t-32 36.5t-16.5 45h90q4 -15 19 -25t41 -10q30 0 47.5 17t17.5 43q0 34 -20 49.5t-50 15.5q-19 0 -30.5 -7t-19.5 -18h-85l25 225h245v-75h-175l-10 -70h5q7 3 17 7q8 3 20.5 5.5t27.5 2.5q60 0 97.5 -35.5t37.5 -98.5q0 -30 -11 -56
t-30.5 -45t-47 -29.5t-61.5 -10.5z" />
    <glyph glyph-name="uni2076" unicode="&#x2076;" horiz-adv-x="350" 
d="M165 395q-36 0 -63.5 11.5t-47 31t-29.5 46t-10 56.5q0 37 10 67t25 53l95 140h90l-88 -130q4 1 9 2t10.5 2t13.5 1q30 0 55 -10.5t42.5 -29.5t27.5 -44.5t10 -55.5t-11.5 -55.5t-31.5 -44.5t-47.5 -29.5t-59.5 -10.5zM165 475q34 0 49.5 19.5t15.5 45.5t-15.5 45.5
t-49.5 19.5t-49.5 -19.5t-15.5 -45.5t15 -45.5t50 -19.5z" />
    <glyph glyph-name="uni2077" unicode="&#x2077;" horiz-adv-x="300" 
d="M200 725h-170v75h260v-75l-140 -325h-90z" />
    <glyph glyph-name="uni2078" unicode="&#x2078;" horiz-adv-x="360" 
d="M180 395q-64 0 -104.5 31.5t-40.5 88.5q0 26 13 53t47 42q-23 11 -36.5 35t-13.5 50q0 45 35.5 77.5t99.5 32.5t99.5 -32.5t35.5 -77.5q0 -26 -13.5 -50t-36.5 -35q34 -15 47 -42t13 -53q0 -57 -40.5 -88.5t-104.5 -31.5zM180 470q30 0 45 16t15 39q0 19 -15 34.5
t-45 15.5t-45 -15.5t-15 -34.5q0 -23 15 -39t45 -16zM180 645q26 0 38 12.5t12 27.5q0 19 -12 32t-38 13t-38 -13t-12 -32q0 -15 12 -27.5t38 -12.5z" />
    <glyph glyph-name="uni2079" unicode="&#x2079;" horiz-adv-x="350" 
d="M203 530q-4 -2 -9 -3t-10.5 -1.5t-13.5 -0.5q-30 0 -55 10.5t-42.5 29.5t-27.5 44.5t-10 55.5t11.5 55.5t31.5 44.5t47.5 29.5t59.5 10.5q36 0 63.5 -11.5t47 -31t29.5 -46t10 -56.5q0 -37 -10 -67t-25 -53l-95 -140h-90zM185 595q34 0 49.5 19.5t15.5 45.5t-15 45.5
t-50 19.5q-34 0 -49.5 -19.5t-15.5 -45.5t15.5 -45.5t49.5 -19.5z" />
    <glyph glyph-name="uni2080" unicode="&#x2080;" horiz-adv-x="390" 
d="M195 -105q-72 0 -116 51.5t-44 153.5t44 153.5t116 51.5t116 -51.5t44 -153.5t-44 -153.5t-116 -51.5zM195 -25q30 0 52.5 30.5t22.5 94.5t-22.5 94.5t-52.5 30.5t-52.5 -30.5t-22.5 -94.5t22.5 -94.5t52.5 -30.5z" />
    <glyph glyph-name="uni2081" unicode="&#x2081;" horiz-adv-x="265" 
d="M120 165h-90v80h65q25 0 25 25v30h85v-400h-85v265z" />
    <glyph glyph-name="uni2082" unicode="&#x2082;" horiz-adv-x="335" 
d="M30 -25l145 140q20 20 30 36t10 34q0 15 -12 27.5t-38 12.5t-38 -13t-12 -32h-90q2 26 11.5 49t27.5 40t44 26.5t62 9.5q64 0 99.5 -33.5t35.5 -86.5q0 -33 -13.5 -58.5t-41.5 -51.5l-105 -100h155v-75h-270v75z" />
    <glyph glyph-name="uni2083" unicode="&#x2083;" horiz-adv-x="340" 
d="M165 -105q-60 0 -98.5 28.5t-46.5 81.5h90q4 -15 16.5 -22.5t38.5 -7.5t40.5 13.5t14.5 36.5q0 19 -12 32t-38 13h-40v75h40q26 0 35.5 12.5t9.5 27.5q0 40 -50 40q-26 0 -38.5 -13t-16.5 -32h-90q2 26 11.5 49t27.5 40t44 26.5t62 9.5q32 0 58 -9t44 -24t28 -35t10 -42
q0 -34 -18 -55.5t-37 -29.5q30 -15 45 -39.5t15 -50.5q0 -24 -8.5 -47t-26.5 -40t-45.5 -27.5t-64.5 -10.5z" />
    <glyph glyph-name="uni2084" unicode="&#x2084;" horiz-adv-x="345" 
d="M185 -15h-180v75l160 240h105v-240h60v-75h-60v-85h-85v85zM185 60v135h-5l-90 -135h95z" />
    <glyph glyph-name="uni2085" unicode="&#x2085;" horiz-adv-x="345" 
d="M170 -105q-30 0 -56 9t-45.5 24.5t-32 36.5t-16.5 45h90q4 -15 19 -25t41 -10q30 0 47.5 17t17.5 43q0 34 -20 49.5t-50 15.5q-19 0 -30.5 -7t-19.5 -18h-85l25 225h245v-75h-175l-10 -70h5q7 3 17 7q8 3 20.5 5.5t27.5 2.5q60 0 97.5 -35.5t37.5 -98.5q0 -30 -11 -56
t-30.5 -45t-47 -29.5t-61.5 -10.5z" />
    <glyph glyph-name="uni2086" unicode="&#x2086;" horiz-adv-x="350" 
d="M165 -105q-36 0 -63.5 11.5t-47 31t-29.5 46t-10 56.5q0 37 10 67t25 53l95 140h90l-88 -130q4 1 9 2t10.5 2t13.5 1q30 0 55 -10.5t42.5 -29.5t27.5 -44.5t10 -55.5t-11.5 -55.5t-31.5 -44.5t-47.5 -29.5t-59.5 -10.5zM165 -25q34 0 49.5 19.5t15.5 45.5t-15.5 45.5
t-49.5 19.5t-49.5 -19.5t-15.5 -45.5t15 -45.5t50 -19.5z" />
    <glyph glyph-name="uni2087" unicode="&#x2087;" horiz-adv-x="300" 
d="M200 225h-170v75h260v-75l-140 -325h-90z" />
    <glyph glyph-name="uni2088" unicode="&#x2088;" horiz-adv-x="360" 
d="M180 -105q-64 0 -104.5 31.5t-40.5 88.5q0 26 13 53t47 42q-23 11 -36.5 35t-13.5 50q0 45 35.5 77.5t99.5 32.5t99.5 -32.5t35.5 -77.5q0 -26 -13.5 -50t-36.5 -35q34 -15 47 -42t13 -53q0 -57 -40.5 -88.5t-104.5 -31.5zM180 -30q30 0 45 16t15 39q0 19 -15 34.5
t-45 15.5t-45 -15.5t-15 -34.5q0 -23 15 -39t45 -16zM180 145q26 0 38 12.5t12 27.5q0 19 -12 32t-38 13t-38 -13t-12 -32q0 -15 12 -27.5t38 -12.5z" />
    <glyph glyph-name="uni2089" unicode="&#x2089;" horiz-adv-x="350" 
d="M203 30q-4 -2 -9 -3t-10.5 -1.5t-13.5 -0.5q-30 0 -55 10.5t-42.5 29.5t-27.5 44.5t-10 55.5t11.5 55.5t31.5 44.5t47.5 29.5t59.5 10.5q36 0 63.5 -11.5t47 -31t29.5 -46t10 -56.5q0 -37 -10 -67t-25 -53l-95 -140h-90zM185 95q34 0 49.5 19.5t15.5 45.5t-15 45.5
t-50 19.5q-34 0 -49.5 -19.5t-15.5 -45.5t15.5 -45.5t49.5 -19.5z" />
    <glyph glyph-name="uni20A9" unicode="&#x20a9;" horiz-adv-x="975" 
d="M160 210h-140v100h118l-18 85h-100v100h79l-44 205h130l34 -205h146l45 205h155l45 -205h145l35 205h130l-44 -205h79v-100h-101l-18 -85h119v-100h-140l-45 -210h-155l-46 210h-163l-46 -210h-155zM285 130l17 80h-36l14 -80h5zM324 310l19 85h-108l15 -85h74zM547 310
l-19 85h-82l-18 -85h119zM695 130l13 80h-36l18 -80h5zM506 495l-16 75h-5l-17 -75h38zM725 310l14 85h-107l18 -85h75z" />
    <glyph glyph-name="Euro" unicode="&#x20ac;" horiz-adv-x="745" 
d="M425 -10q-117 0 -198.5 59t-111.5 176h-100v90h85v70h-85v90h100q30 117 111.5 176t198.5 59q113 0 184.5 -52t105.5 -143h-130q-23 38 -61.5 61.5t-98.5 23.5q-72 0 -116.5 -32.5t-63.5 -92.5h255v-90h-275v-70h275v-90h-255q19 -60 63.5 -92.5t116.5 -32.5
q60 0 98.5 23.5t61.5 61.5h130q-34 -91 -105.5 -143t-184.5 -52z" />
    <glyph glyph-name="uni20B4" unicode="&#x20b4;" horiz-adv-x="650" 
d="M325 -10q-54 0 -98.5 14t-76 37t-48.5 52.5t-17 61.5q0 19 4.5 40t17.5 40h-57v85h550v-85h-365q-11 -11 -18 -26.5t-7 -38.5q0 -30 31 -50t84 -20t84 17.5t46 47.5h125q-19 -83 -84 -129t-171 -46zM50 465h365q11 11 18 26.5t7 38.5q0 30 -31 50t-84 20t-84 -17.5
t-46 -47.5h-125q19 83 84 129t171 46q54 0 98.5 -14t76 -37t48.5 -52.5t17 -61.5q0 -19 -4.5 -40t-17.5 -40h57v-85h-550v85z" />
    <glyph glyph-name="uni20B8" unicode="&#x20b8;" horiz-adv-x="615" 
d="M245 410h-215v110h555v-110h-215v-410h-125v410zM30 700h555v-110h-555v110z" />
    <glyph glyph-name="uni20B9" unicode="&#x20b9;" horiz-adv-x="590" 
d="M190 240h-155v105h215q49 0 80.5 21t39.5 59h-335v95h335q-8 38 -39.5 56.5t-80.5 18.5h-215v105h525v-105h-105q8 -6 16 -17q7 -9 13.5 -23.5t10.5 -34.5h65v-95h-65q-6 -39 -21 -69.5t-37 -52t-49.5 -34.5t-57.5 -19l185 -250h-145z" />
    <glyph glyph-name="uni20BA" unicode="&#x20ba;" horiz-adv-x="595" 
d="M115 243l-90 -33v100l90 33v70l-90 -33v100l90 33v187h125v-141l150 56v-100l-150 -56v-70l150 56v-100l-150 -56v-179q56 0 95.5 6.5t64 22.5t36.5 43t14 68h120q-4 -68 -23.5 -115.5t-60 -77.5t-103.5 -43.5t-153 -13.5h-115v243z" />
    <glyph glyph-name="uni20BD" unicode="&#x20bd;" horiz-adv-x="650" 
d="M100 110h-80v105h80v60h-80v105h80v320h285q52 0 94 -16t71 -44.5t44.5 -68t15.5 -86.5t-15.5 -85.5t-44.5 -66.5t-71 -43t-94 -15h-160v-60h205v-105h-205v-110h-125v110zM370 380q53 0 84 28t31 77t-31 77t-84 28h-145v-210h145z" />
    <glyph glyph-name="uni20BF" unicode="&#x20bf;" horiz-adv-x="660" 
d="M165 0h-90v700h90v110h105v-110h75v110h105v-115q75 -14 115 -63.5t40 -126.5q0 -53 -26 -92t-64 -58q42 -19 71 -59.5t29 -100.5q0 -80 -42.5 -130.5t-122.5 -61.5v-113h-105v110h-75v-110h-105v110zM390 110q47 0 73.5 25t26.5 70t-26.5 70t-73.5 25h-190v-190h190z
M380 400q45 0 72.5 25t27.5 70t-27.5 70t-72.5 25h-180v-190h180z" />
    <glyph glyph-name="uni2113" unicode="&#x2113;" horiz-adv-x="420" 
d="M250 -10q-150 0 -150 145v85q-12 -4 -26 -8q-12 -3 -28.5 -5t-35.5 -2v85q19 0 35.5 3t28.5 7q14 4 26 10v259q0 69 38 105t102 36t104.5 -41t40.5 -124q0 -56 -15.5 -103t-42.5 -84.5t-62.5 -65.5t-74.5 -47v-110q0 -60 70 -60q13 0 25 2t21 5q11 4 19 8v-90
q-10 -3 -21 -5q-22 -5 -54 -5zM190 345q49 30 77 81t28 119q0 80 -55 80q-23 0 -36.5 -15t-13.5 -49v-216z" />
    <glyph glyph-name="uni2116" unicode="&#x2116;" horiz-adv-x="1125" 
d="M75 700h165l300 -525h5v525h125v-700h-165l-300 525h-5v-525h-125v700zM760 100h310v-99h-310v99zM915 160q-36 0 -66 11.5t-52 33.5t-34.5 52t-12.5 68q0 37 12.5 67.5t34.5 52.5t52 33.5t66 11.5t66 -11.5t52 -33.5t34.5 -52.5t12.5 -67.5q0 -38 -12.5 -68t-34.5 -52
t-52 -33.5t-66 -11.5zM915 245q30 0 50 21t20 59t-20 59t-50 21t-50 -21t-20 -59t20 -59t50 -21z" />
    <glyph glyph-name="uni2117" unicode="&#x2117;" horiz-adv-x="830" 
d="M415 -10q-79 0 -145 26.5t-114 74.5t-74.5 114t-26.5 145t26.5 145t74.5 114t114 74.5t145 26.5t145 -26.5t114 -74.5t74.5 -114t26.5 -145t-26.5 -145t-74.5 -114t-114 -74.5t-145 -26.5zM415 70q60 0 110.5 20.5t87 57.5t57 88.5t20.5 113.5t-20.5 113.5t-57 88.5
t-87 57.5t-110.5 20.5t-110.5 -20.5t-87 -57.5t-57 -88.5t-20.5 -113.5t20.5 -113.5t57 -88.5t87 -57.5t110.5 -20.5zM280 540h160q34 0 59 -9.5t42 -26.5t25.5 -40t8.5 -49q0 -57 -33.5 -93.5t-101.5 -36.5h-75v-120h-85v375zM430 360q60 0 60 55q0 23 -15 36.5t-45 13.5
h-65v-105h65z" />
    <glyph glyph-name="trademark" unicode="&#x2122;" horiz-adv-x="735" 
d="M110 625h-95v75h270v-75h-95v-235h-80v235zM320 700h115l60 -205h5l60 205h115v-310h-80v190h-5l-55 -190h-75l-55 190h-5v-190h-80v310z" />
    <glyph glyph-name="uni2126" unicode="&#x2126;" horiz-adv-x="820" 
d="M90 85h115q-41 24 -73 64q-27 34 -49.5 88t-22.5 133q0 75 23.5 137.5t68.5 107.5t110 70t148 25q82 0 147 -25t110 -70t69 -107.5t24 -137.5q0 -79 -23 -133t-50 -88q-32 -40 -72 -64h115v-85h-255v85q53 24 95 64q18 17 35 38.5t30.5 48.5t21.5 59t8 70q0 56 -18 104
t-51.5 82.5t-80.5 54t-105 19.5t-105 -19.5t-80.5 -54t-51.5 -82.5t-18 -104q0 -38 8 -70t21.5 -59t30.5 -48.5t35 -38.5q41 -40 95 -64v-85h-255v85z" />
    <glyph glyph-name="estimated" unicode="&#x212e;" horiz-adv-x="850" 
d="M440 -20q-83 0 -152.5 28t-120 77t-79 114.5t-28.5 140.5t28.5 140.5t78 114.5t117 77t146.5 28t146.5 -28t117 -77t78 -114.5t28.5 -140.5v-5h-575q-15 0 -15 -15v-195q0 -11 5 -30t35 -38q4 -2 17.5 -10.5t37.5 -17.5t57.5 -16.5t77.5 -7.5q66 0 115 20.5t83 46.5
q39 30 67 68h55q-33 -45 -81 -80q-41 -30 -100.5 -55t-138.5 -25zM635 360q15 0 15 15v185q0 10 -5 28.5t-35 37.5q-6 4 -21.5 12t-39 16t-54 14.5t-65.5 6.5q-36 0 -66.5 -6.5t-54 -14.5t-38.5 -16.5t-21 -11.5q-30 -19 -35 -37t-5 -29v-185q0 -15 15 -15h410z" />
    <glyph glyph-name="uni2150" unicode="&#x2150;" horiz-adv-x="780" 
d="M525 700h90l-435 -700h-90zM120 565h-90v80h65q25 0 25 25v30h85v-400h-85v265zM645 325h-170v75h260v-75l-140 -325h-90z" />
    <glyph glyph-name="uni2151" unicode="&#x2151;" horiz-adv-x="790" 
d="M525 700h90l-435 -700h-90zM120 565h-90v80h65q25 0 25 25v30h85v-400h-85v265zM618 130q-4 -2 -9 -3t-10.5 -1.5t-13.5 -0.5q-30 0 -55 10.5t-42.5 29.5t-27.5 44.5t-10 55.5t11.5 55.5t31.5 44.5t47.5 29.5t59.5 10.5q36 0 63.5 -11.5t47 -31t29.5 -46t10 -56.5
q0 -37 -10 -67t-25 -53l-95 -140h-90zM600 195q34 0 49.5 19.5t15.5 45.5t-15 45.5t-50 19.5q-34 0 -49.5 -19.5t-15.5 -45.5t15.5 -45.5t49.5 -19.5z" />
    <glyph glyph-name="uni2152" unicode="&#x2152;" horiz-adv-x="1045" 
d="M526 700h90l-435 -700h-90zM120 565h-90v80h65q25 0 25 25v30h85v-400h-85v265zM551 265h-90v80h65q25 0 25 25v30h85v-400h-85v265zM840 -5q-72 0 -116 51.5t-44 153.5t44 153.5t116 51.5t116 -51.5t44 -153.5t-44 -153.5t-116 -51.5zM840 75q30 0 52.5 30.5t22.5 94.5
t-22.5 94.5t-52.5 30.5t-52.5 -30.5t-22.5 -94.5t22.5 -94.5t52.5 -30.5z" />
    <glyph glyph-name="onethird" unicode="&#x2153;" horiz-adv-x="785" 
d="M525 700h90l-435 -700h-90zM120 565h-90v80h65q25 0 25 25v30h85v-400h-85v265zM595 -5q-60 0 -98.5 28.5t-46.5 81.5h90q4 -15 16.5 -22.5t38.5 -7.5t40.5 13.5t14.5 36.5q0 19 -12 32t-38 13h-40v75h40q26 0 35.5 12.5t9.5 27.5q0 40 -50 40q-26 0 -38.5 -13t-16.5 -32
h-90q2 26 11.5 49t27.5 40t44 26.5t62 9.5q32 0 58 -9t44 -24t28 -35t10 -42q0 -34 -18 -55.5t-37 -29.5q30 -15 45 -39.5t15 -50.5q0 -24 -8.5 -47t-26.5 -40t-45.5 -27.5t-64.5 -10.5z" />
    <glyph glyph-name="twothirds" unicode="&#x2154;" horiz-adv-x="860" 
d="M600 700h90l-435 -700h-90zM40 375l145 140q20 20 30 36t10 34q0 15 -12 27.5t-38 12.5t-38 -13t-12 -32h-90q2 26 11.5 49t27.5 40t44 26.5t62 9.5q64 0 99.5 -33.5t35.5 -86.5q0 -33 -13.5 -58.5t-41.5 -51.5l-105 -100h155v-75h-270v75zM670 -5q-60 0 -98.5 28.5
t-46.5 81.5h90q4 -15 16.5 -22.5t38.5 -7.5t40.5 13.5t14.5 36.5q0 19 -12 32t-38 13h-40v75h40q26 0 35.5 12.5t9.5 27.5q0 40 -50 40q-26 0 -38.5 -13t-16.5 -32h-90q2 26 11.5 49t27.5 40t44 26.5t62 9.5q32 0 58 -9t44 -24t28 -35t10 -42q0 -34 -18 -55.5t-37 -29.5
q30 -15 45 -39.5t15 -50.5q0 -24 -8.5 -47t-26.5 -40t-45.5 -27.5t-64.5 -10.5z" />
    <glyph glyph-name="uni2155" unicode="&#x2155;" horiz-adv-x="800" 
d="M525 700h90l-435 -700h-90zM120 565h-90v80h65q25 0 25 25v30h85v-400h-85v265zM605 -5q-30 0 -56 9t-45.5 24.5t-32 36.5t-16.5 45h90q4 -15 19 -25t41 -10q30 0 47.5 17t17.5 43q0 34 -20 49.5t-50 15.5q-19 0 -30.5 -7t-19.5 -18h-85l25 225h245v-75h-175l-10 -70h5
q7 3 17 7q8 3 20.5 5.5t27.5 2.5q60 0 97.5 -35.5t37.5 -98.5q0 -30 -11 -56t-30.5 -45t-47 -29.5t-61.5 -10.5z" />
    <glyph glyph-name="uni2156" unicode="&#x2156;" horiz-adv-x="880" 
d="M600 700h90l-435 -700h-90zM40 375l145 140q20 20 30 36t10 34q0 15 -12 27.5t-38 12.5t-38 -13t-12 -32h-90q2 26 11.5 49t27.5 40t44 26.5t62 9.5q64 0 99.5 -33.5t35.5 -86.5q0 -33 -13.5 -58.5t-41.5 -51.5l-105 -100h155v-75h-270v75zM685 -5q-30 0 -56 9
t-45.5 24.5t-32 36.5t-16.5 45h90q4 -15 19 -25t41 -10q30 0 47.5 17t17.5 43q0 34 -20 49.5t-50 15.5q-19 0 -30.5 -7t-19.5 -18h-85l25 225h245v-75h-175l-10 -70h5q7 3 17 7q8 3 20.5 5.5t27.5 2.5q60 0 97.5 -35.5t37.5 -98.5q0 -30 -11 -56t-30.5 -45t-47 -29.5
t-61.5 -10.5z" />
    <glyph glyph-name="uni2157" unicode="&#x2157;" horiz-adv-x="875" 
d="M600 700h90l-435 -700h-90zM175 295q-60 0 -98.5 28.5t-46.5 81.5h90q4 -15 16.5 -22.5t38.5 -7.5t40.5 13.5t14.5 36.5q0 19 -12 32t-38 13h-40v75h40q26 0 35.5 12.5t9.5 27.5q0 40 -50 40q-26 0 -38.5 -13t-16.5 -32h-90q2 26 11.5 49t27.5 40t44 26.5t62 9.5
q32 0 58 -9t44 -24t28 -35t10 -42q0 -34 -18 -55.5t-37 -29.5q30 -15 45 -39.5t15 -50.5q0 -24 -8.5 -47t-26.5 -40t-45.5 -27.5t-64.5 -10.5zM680 -5q-30 0 -56 9t-45.5 24.5t-32 36.5t-16.5 45h90q4 -15 19 -25t41 -10q30 0 47.5 17t17.5 43q0 34 -20 49.5t-50 15.5
q-19 0 -30.5 -7t-19.5 -18h-85l25 225h245v-75h-175l-10 -70h5q7 3 17 7q8 3 20.5 5.5t27.5 2.5q60 0 97.5 -35.5t37.5 -98.5q0 -30 -11 -56t-30.5 -45t-47 -29.5t-61.5 -10.5z" />
    <glyph glyph-name="uni2158" unicode="&#x2158;" horiz-adv-x="890" 
d="M615 700h90l-435 -700h-90zM200 385h-180v75l160 240h105v-240h60v-75h-60v-85h-85v85zM200 460v135h-5l-90 -135h95zM695 -5q-30 0 -56 9t-45.5 24.5t-32 36.5t-16.5 45h90q4 -15 19 -25t41 -10q30 0 47.5 17t17.5 43q0 34 -20 49.5t-50 15.5q-19 0 -30.5 -7t-19.5 -18
h-85l25 225h245v-75h-175l-10 -70h5q7 3 17 7q8 3 20.5 5.5t27.5 2.5q60 0 97.5 -35.5t37.5 -98.5q0 -30 -11 -56t-30.5 -45t-47 -29.5t-61.5 -10.5z" />
    <glyph glyph-name="uni2159" unicode="&#x2159;" horiz-adv-x="775" 
d="M525 700h90l-435 -700h-90zM120 565h-90v80h65q25 0 25 25v30h85v-400h-85v265zM585 -5q-36 0 -63.5 11.5t-47 31t-29.5 46t-10 56.5q0 37 10 67t25 53l95 140h90l-88 -130q4 1 9 2t10.5 2t13.5 1q30 0 55 -10.5t42.5 -29.5t27.5 -44.5t10 -55.5t-11.5 -55.5t-31.5 -44.5
t-47.5 -29.5t-59.5 -10.5zM585 75q34 0 49.5 19.5t15.5 45.5t-15.5 45.5t-49.5 19.5t-49.5 -19.5t-15.5 -45.5t15 -45.5t50 -19.5z" />
    <glyph glyph-name="uni215A" unicode="&#x215a;" horiz-adv-x="865" 
d="M620 700h90l-435 -700h-90zM190 295q-30 0 -56 9t-45.5 24.5t-32 36.5t-16.5 45h90q4 -15 19 -25t41 -10q30 0 47.5 17t17.5 43q0 34 -20 49.5t-50 15.5q-19 0 -30.5 -7t-19.5 -18h-85l25 225h245v-75h-175l-10 -70h5q7 3 17 7q8 3 20.5 5.5t27.5 2.5q60 0 97.5 -35.5
t37.5 -98.5q0 -30 -11 -56t-30.5 -45t-47 -29.5t-61.5 -10.5zM675 -5q-36 0 -63.5 11.5t-47 31t-29.5 46t-10 56.5q0 37 10 67t25 53l95 140h90l-88 -130q4 1 9 2t10.5 2t13.5 1q30 0 55 -10.5t42.5 -29.5t27.5 -44.5t10 -55.5t-11.5 -55.5t-31.5 -44.5t-47.5 -29.5
t-59.5 -10.5zM675 75q34 0 49.5 19.5t15.5 45.5t-15.5 45.5t-49.5 19.5t-49.5 -19.5t-15.5 -45.5t15 -45.5t50 -19.5z" />
    <glyph glyph-name="oneeighth" unicode="&#x215b;" horiz-adv-x="795" 
d="M525 700h90l-435 -700h-90zM120 565h-90v80h65q25 0 25 25v30h85v-400h-85v265zM605 -5q-64 0 -104.5 31.5t-40.5 88.5q0 26 13 53t47 42q-23 11 -36.5 35t-13.5 50q0 45 35.5 77.5t99.5 32.5t99.5 -32.5t35.5 -77.5q0 -26 -13.5 -50t-36.5 -35q34 -15 47 -42t13 -53
q0 -57 -40.5 -88.5t-104.5 -31.5zM605 70q30 0 45 16t15 39q0 19 -15 34.5t-45 15.5t-45 -15.5t-15 -34.5q0 -23 15 -39t45 -16zM605 245q26 0 38 12.5t12 27.5q0 19 -12 32t-38 13t-38 -13t-12 -32q0 -15 12 -27.5t38 -12.5z" />
    <glyph glyph-name="threeeighths" unicode="&#x215c;" horiz-adv-x="870" 
d="M600 700h90l-435 -700h-90zM175 295q-60 0 -98.5 28.5t-46.5 81.5h90q4 -15 16.5 -22.5t38.5 -7.5t40.5 13.5t14.5 36.5q0 19 -12 32t-38 13h-40v75h40q26 0 35.5 12.5t9.5 27.5q0 40 -50 40q-26 0 -38.5 -13t-16.5 -32h-90q2 26 11.5 49t27.5 40t44 26.5t62 9.5
q32 0 58 -9t44 -24t28 -35t10 -42q0 -34 -18 -55.5t-37 -29.5q30 -15 45 -39.5t15 -50.5q0 -24 -8.5 -47t-26.5 -40t-45.5 -27.5t-64.5 -10.5zM680 -5q-64 0 -104.5 31.5t-40.5 88.5q0 26 13 53t47 42q-23 11 -36.5 35t-13.5 50q0 45 35.5 77.5t99.5 32.5t99.5 -32.5
t35.5 -77.5q0 -26 -13.5 -50t-36.5 -35q34 -15 47 -42t13 -53q0 -57 -40.5 -88.5t-104.5 -31.5zM680 70q30 0 45 16t15 39q0 19 -15 34.5t-45 15.5t-45 -15.5t-15 -34.5q0 -23 15 -39t45 -16zM680 245q26 0 38 12.5t12 27.5q0 19 -12 32t-38 13t-38 -13t-12 -32
q0 -15 12 -27.5t38 -12.5z" />
    <glyph glyph-name="fiveeighths" unicode="&#x215d;" horiz-adv-x="890" 
d="M620 700h90l-435 -700h-90zM190 295q-30 0 -56 9t-45.5 24.5t-32 36.5t-16.5 45h90q4 -15 19 -25t41 -10q30 0 47.5 17t17.5 43q0 34 -20 49.5t-50 15.5q-19 0 -30.5 -7t-19.5 -18h-85l25 225h245v-75h-175l-10 -70h5q7 3 17 7q8 3 20.5 5.5t27.5 2.5q60 0 97.5 -35.5
t37.5 -98.5q0 -30 -11 -56t-30.5 -45t-47 -29.5t-61.5 -10.5zM700 -5q-64 0 -104.5 31.5t-40.5 88.5q0 26 13 53t47 42q-23 11 -36.5 35t-13.5 50q0 45 35.5 77.5t99.5 32.5t99.5 -32.5t35.5 -77.5q0 -26 -13.5 -50t-36.5 -35q34 -15 47 -42t13 -53q0 -57 -40.5 -88.5
t-104.5 -31.5zM700 70q30 0 45 16t15 39q0 19 -15 34.5t-45 15.5t-45 -15.5t-15 -34.5q0 -23 15 -39t45 -16zM700 245q26 0 38 12.5t12 27.5q0 19 -12 32t-38 13t-38 -13t-12 -32q0 -15 12 -27.5t38 -12.5z" />
    <glyph glyph-name="seveneighths" unicode="&#x215e;" horiz-adv-x="795" 
d="M525 700h90l-435 -700h-90zM210 625h-170v75h260v-75l-140 -325h-90zM600 -5q-64 0 -104.5 31.5t-40.5 88.5q0 26 13 53t47 42q-23 11 -36.5 35t-13.5 50q0 45 35.5 77.5t99.5 32.5t99.5 -32.5t35.5 -77.5q0 -26 -13.5 -50t-36.5 -35q34 -15 47 -42t13 -53
q0 -57 -40.5 -88.5t-104.5 -31.5zM600 70q30 0 45 16t15 39q0 19 -15 34.5t-45 15.5t-45 -15.5t-15 -34.5q0 -23 15 -39t45 -16zM600 245q26 0 38 12.5t12 27.5q0 19 -12 32t-38 13t-38 -13t-12 -32q0 -15 12 -27.5t38 -12.5z" />
    <glyph glyph-name="uni215F" unicode="&#x215f;" horiz-adv-x="425" 
d="M525 700h90l-435 -700h-90zM120 565h-90v80h65q25 0 25 25v30h85v-400h-85v265z" />
    <glyph glyph-name="uni2190" unicode="&#x2190;" 
d="M150 345v5l215 215l55 -55l-120 -120h550v-85h-550l120 -120l-55 -55z" />
    <glyph glyph-name="uni2191" unicode="&#x2191;" 
d="M455 550l-120 -120l-55 55l215 215h5l215 -215l-55 -55l-120 120v-550h-85v550z" />
    <glyph glyph-name="uni2192" unicode="&#x2192;" 
d="M580 185l120 120h-550v85h550l-120 120l55 55l215 -215v-5l-215 -215z" />
    <glyph glyph-name="uni2193" unicode="&#x2193;" 
d="M280 215l55 55l120 -120v550h85v-550l120 120l55 -55l-215 -215h-5z" />
    <glyph glyph-name="uni2194" unicode="&#x2194;" 
d="M130 345v5l215 215l55 -55l-120 -120h440l-120 120l55 55l215 -215v-5l-215 -215l-55 55l120 120h-440l120 -120l-55 -55z" />
    <glyph glyph-name="uni2195" unicode="&#x2195;" 
d="M280 195l55 55l120 -120v440l-120 -120l-55 55l215 215h5l215 -215l-55 -55l-120 120v-440l120 120l55 -55l-215 -215h-5z" />
    <glyph glyph-name="uni2196" unicode="&#x2196;" 
d="M285 510v-170h-85v300l10 10h300v-85h-170l460 -460l-55 -55z" />
    <glyph glyph-name="uni2197" unicode="&#x2197;" 
d="M200 105l460 460h-170v85h300l10 -10v-300h-85v170l-460 -460z" />
    <glyph glyph-name="uni2198" unicode="&#x2198;" 
d="M490 135h170l-460 460l55 55l460 -460v170h85v-300l-10 -10h-300v85z" />
    <glyph glyph-name="uni2199" unicode="&#x2199;" 
d="M200 60v300h85v-170l460 460l55 -55l-460 -460h170v-85h-300z" />
    <glyph glyph-name="uni21C5" unicode="&#x21c5;" 
d="M290 550l-120 -120l-55 55l215 215h5l215 -215l-55 -55l-120 120v-550h-85v550zM450 215l55 55l120 -120v550h85v-550l120 120l55 -55l-215 -215h-5z" />
    <glyph glyph-name="uni21F5" unicode="&#x21f5;" 
d="M115 215l55 55l120 -120v550h85v-550l120 120l55 -55l-215 -215h-5zM625 550l-120 -120l-55 55l215 215h5l215 -215l-55 -55l-120 120v-550h-85v550z" />
    <glyph glyph-name="partialdiff" unicode="&#x2202;" horiz-adv-x="575" 
d="M275 -10q-49 0 -91 15.5t-73 45.5t-48.5 74t-17.5 100q0 52 16 94.5t44.5 72.5t68 46.5t86.5 16.5q49 0 90 -15.5t75 -49.5h5q0 52 -11 95.5t-32 74.5t-52 48t-70 17q-38 0 -58.5 -13.5t-31.5 -36.5h-95q6 24 20 48.5t37 43.5t56 31t75 12q122 0 187 -89.5t65 -270.5
q0 -177 -58.5 -268.5t-186.5 -91.5zM275 75q68 0 109 50.5t41 159.5q-15 24 -36 42q-18 16 -46.5 29.5t-67.5 13.5q-64 0 -102 -38.5t-38 -106.5q0 -72 38 -111t102 -39z" />
    <glyph glyph-name="emptyset" unicode="&#x2205;" horiz-adv-x="820" 
d="M410 -10q-116 0 -200 52l-40 -47h-115l87 104q-42 48 -64.5 111t-22.5 140q0 81 25 147t71.5 113.5t112 73.5t146.5 26q58 0 108 -13.5t92 -39.5l40 48h115l-88 -105q42 -47 65 -110t23 -140q0 -81 -25 -147t-71.5 -113.5t-112 -73.5t-146.5 -26zM550 586
q-29 19 -64.5 29t-75.5 10q-58 0 -106 -20.5t-82 -57t-53 -87t-19 -110.5q0 -52 14 -97t40 -80zM410 75q58 0 106 20.5t82 57t53 87t19 110.5q0 52 -14.5 96.5t-40.5 79.5l-346 -413q30 -18 65 -28t76 -10z" />
    <glyph glyph-name="uni2206" unicode="&#x2206;" horiz-adv-x="650" 
d="M265 700h120l250 -700h-620zM510 85l-185 515l-185 -515h370z" />
    <glyph glyph-name="product" unicode="&#x220f;" horiz-adv-x="710" 
d="M95 700h520v-810h-95v725h-330v-725h-95v810z" />
    <glyph glyph-name="summation" unicode="&#x2211;" horiz-adv-x="585" 
d="M60 -25l225 340l-225 300v85h475v-85h-365l225 -300l-225 -340h365v-85h-475v85z" />
    <glyph glyph-name="minus" unicode="&#x2212;" horiz-adv-x="555" 
d="M40 355h475v-95h-475v95z" />
    <glyph glyph-name="radical" unicode="&#x221a;" horiz-adv-x="635" 
d="M130 140h-120v85h190l80 -235h10l225 735h95l-255 -835h-140z" />
    <glyph glyph-name="infinity" unicode="&#x221e;" horiz-adv-x="790" 
d="M220 185q-75 0 -120 45t-45 120t45 120t120 45q28 0 53.5 -9.5t47.5 -24.5t40.5 -33.5t33.5 -37.5q15 19 33.5 37.5t40.5 33.5t47.5 24.5t53.5 9.5q75 0 120 -45t45 -120t-45 -120t-120 -45q-28 0 -53.5 9.5t-47.5 24.5t-40.5 33.5t-33.5 37.5q-15 -19 -33.5 -37.5
t-40.5 -33.5t-47.5 -24.5t-53.5 -9.5zM220 260q21 0 40.5 7.5t36.5 20.5t32 29t26 33q-11 17 -26 33t-32 29t-36.5 20.5t-40.5 7.5q-38 0 -61.5 -26t-23.5 -64t23.5 -64t61.5 -26zM570 260q38 0 61.5 26t23.5 64t-23.5 64t-61.5 26q-21 0 -40.5 -7.5t-36.5 -20.5t-32 -29
t-26 -33q11 -17 26 -33t32 -29t36.5 -20.5t40.5 -7.5z" />
    <glyph glyph-name="integral" unicode="&#x222b;" horiz-adv-x="380" 
d="M40 -25h15q28 0 45.5 6t27.5 19.5t13.5 35.5t3.5 54v520q0 54 10 92t31 62t54 35t80 11h20v-85h-15q-28 0 -45.5 -6t-27.5 -19.5t-13.5 -35.5t-3.5 -54v-520q0 -54 -10 -92t-31 -62t-54 -35t-80 -11h-20v85z" />
    <glyph glyph-name="approxequal" unicode="&#x2248;" horiz-adv-x="595" 
d="M55 120q0 34 9.5 63t27.5 50.5t45 34t63 12.5q32 0 57.5 -9.5t47.5 -20.5t40 -20.5t35 -9.5q23 0 39 17t16 43h105q0 -34 -9.5 -63t-27.5 -50.5t-45 -34t-63 -12.5q-32 0 -57.5 9.5t-47.5 20.5t-40 20.5t-35 9.5q-23 0 -39 -17t-16 -43h-105zM55 325q0 34 9.5 63
t27.5 50.5t45 34t63 12.5q32 0 57.5 -9.5t47.5 -20.5t40 -20.5t35 -9.5q23 0 39 17t16 43h105q0 -34 -9.5 -63t-27.5 -50.5t-45 -34t-63 -12.5q-32 0 -57.5 9.5t-47.5 20.5t-40 20.5t-35 9.5q-23 0 -39 -17t-16 -43h-105z" />
    <glyph glyph-name="notequal" unicode="&#x2260;" horiz-adv-x="550" 
d="M160 150h-125v95h166l53 120h-219v95h260l35 80h95l-35 -80h125v-95h-166l-53 -120h219v-95h-260l-35 -80h-95z" />
    <glyph glyph-name="lessequal" unicode="&#x2264;" horiz-adv-x="525" 
d="M45 90h435v-90h-435v90zM45 305v90l435 185v-105l-320 -125l320 -125v-105z" />
    <glyph glyph-name="greaterequal" unicode="&#x2265;" horiz-adv-x="525" 
d="M45 90h435v-90h-435v90zM45 225l320 125l-320 125v105l435 -185v-90l-435 -185v105z" />
    <glyph glyph-name="uni2318" unicode="&#x2318;" horiz-adv-x="815" 
d="M200 0q-68 0 -109 40.5t-41 104.5q0 65 41.5 102.5t113.5 37.5h65v130h-65q-72 0 -113.5 37.5t-41.5 102.5q0 64 41 104.5t109 40.5q66 0 105.5 -37.5t39.5 -112.5v-65h125v65q0 75 39.5 112.5t105.5 37.5q68 0 109 -40.5t41 -104.5q0 -65 -41.5 -102.5t-113.5 -37.5h-65
v-130h65q72 0 113.5 -37.5t41.5 -102.5q0 -64 -41 -104.5t-109 -40.5q-66 0 -105.5 37.5t-39.5 112.5v65h-125v-65q0 -75 -39.5 -112.5t-105.5 -37.5zM200 75q30 0 50 20.5t20 54.5v65h-64q-35 0 -55.5 -20t-20.5 -50t20 -50t50 -20zM470 285v130h-125v-130h125zM270 485v65
q0 34 -20 54.5t-50 20.5t-50 -20t-20 -50t20.5 -50t55.5 -20h64zM615 75q30 0 50 20t20 50t-20.5 50t-55.5 20h-64v-65q0 -34 20 -54.5t50 -20.5zM609 485q35 0 55.5 20t20.5 50t-20 50t-50 20t-50 -20.5t-20 -54.5v-65h64z" />
    <glyph glyph-name="uni2460" unicode="&#x2460;" 
d="M475 415h-90v80h65q25 0 25 25v30h85v-400h-85v265zM500 -75q-90 0 -167.5 33.5t-135 91t-90 135t-32.5 165.5t32.5 165.5t90 135t135 91t167.5 33.5t167.5 -33.5t135 -91t90 -135t32.5 -165.5t-32.5 -165.5t-90 -135t-135 -91t-167.5 -33.5zM500 -5q75 0 140 27.5
t112.5 75t75 112.5t27.5 140t-27.5 140t-75 112.5t-112.5 75t-140 27.5t-140 -27.5t-112.5 -75t-75 -112.5t-27.5 -140t27.5 -140t75 -112.5t112.5 -75t140 -27.5z" />
    <glyph glyph-name="uni2461" unicode="&#x2461;" 
d="M370 225l145 140q20 20 30 36t10 34q0 15 -12 27.5t-38 12.5t-38 -13t-12 -32h-90q2 26 11.5 49t27.5 40t44 26.5t62 9.5q64 0 99.5 -33.5t35.5 -86.5q0 -33 -13.5 -58.5t-41.5 -51.5l-105 -100h155v-75h-270v75zM500 -75q-90 0 -167.5 33.5t-135 91t-90 135t-32.5 165.5
t32.5 165.5t90 135t135 91t167.5 33.5t167.5 -33.5t135 -91t90 -135t32.5 -165.5t-32.5 -165.5t-90 -135t-135 -91t-167.5 -33.5zM500 -5q75 0 140 27.5t112.5 75t75 112.5t27.5 140t-27.5 140t-75 112.5t-112.5 75t-140 27.5t-140 -27.5t-112.5 -75t-75 -112.5t-27.5 -140
t27.5 -140t75 -112.5t112.5 -75t140 -27.5z" />
    <glyph glyph-name="uni2462" unicode="&#x2462;" 
d="M505 145q-60 0 -98.5 28.5t-46.5 81.5h90q4 -15 16.5 -22.5t38.5 -7.5t40.5 13.5t14.5 36.5q0 19 -12 32t-38 13h-40v75h40q26 0 35.5 12.5t9.5 27.5q0 40 -50 40q-26 0 -38.5 -13t-16.5 -32h-90q2 26 11.5 49t27.5 40t44 26.5t62 9.5q32 0 58 -9t44 -24t28 -35t10 -42
q0 -34 -18 -55.5t-37 -29.5q30 -15 45 -39.5t15 -50.5q0 -24 -8.5 -47t-26.5 -40t-45.5 -27.5t-64.5 -10.5zM500 -75q-90 0 -167.5 33.5t-135 91t-90 135t-32.5 165.5t32.5 165.5t90 135t135 91t167.5 33.5t167.5 -33.5t135 -91t90 -135t32.5 -165.5t-32.5 -165.5t-90 -135
t-135 -91t-167.5 -33.5zM500 -5q75 0 140 27.5t112.5 75t75 112.5t27.5 140t-27.5 140t-75 112.5t-112.5 75t-140 27.5t-140 -27.5t-112.5 -75t-75 -112.5t-27.5 -140t27.5 -140t75 -112.5t112.5 -75t140 -27.5z" />
    <glyph glyph-name="uni2463" unicode="&#x2463;" 
d="M505 235h-180v75l160 240h105v-240h60v-75h-60v-85h-85v85zM505 310v135h-5l-90 -135h95zM500 -75q-90 0 -167.5 33.5t-135 91t-90 135t-32.5 165.5t32.5 165.5t90 135t135 91t167.5 33.5t167.5 -33.5t135 -91t90 -135t32.5 -165.5t-32.5 -165.5t-90 -135t-135 -91
t-167.5 -33.5zM500 -5q75 0 140 27.5t112.5 75t75 112.5t27.5 140t-27.5 140t-75 112.5t-112.5 75t-140 27.5t-140 -27.5t-112.5 -75t-75 -112.5t-27.5 -140t27.5 -140t75 -112.5t112.5 -75t140 -27.5z" />
    <glyph glyph-name="uni2464" unicode="&#x2464;" 
d="M505 145q-30 0 -56 9t-45.5 24.5t-32 36.5t-16.5 45h90q4 -15 19 -25t41 -10q30 0 47.5 17t17.5 43q0 34 -20 49.5t-50 15.5q-19 0 -30.5 -7t-19.5 -18h-85l25 225h245v-75h-175l-10 -70h5q7 3 17 7q8 3 20.5 5.5t27.5 2.5q60 0 97.5 -35.5t37.5 -98.5q0 -30 -11 -56
t-30.5 -45t-47 -29.5t-61.5 -10.5zM500 -75q-90 0 -167.5 33.5t-135 91t-90 135t-32.5 165.5t32.5 165.5t90 135t135 91t167.5 33.5t167.5 -33.5t135 -91t90 -135t32.5 -165.5t-32.5 -165.5t-90 -135t-135 -91t-167.5 -33.5zM500 -5q75 0 140 27.5t112.5 75t75 112.5
t27.5 140t-27.5 140t-75 112.5t-112.5 75t-140 27.5t-140 -27.5t-112.5 -75t-75 -112.5t-27.5 -140t27.5 -140t75 -112.5t112.5 -75t140 -27.5z" />
    <glyph glyph-name="uni2465" unicode="&#x2465;" 
d="M500 145q-36 0 -63.5 11.5t-47 31t-29.5 46t-10 56.5q0 37 10 67t25 53l95 140h90l-88 -130q4 1 9 2t10.5 2t13.5 1q30 0 55 -10.5t42.5 -29.5t27.5 -44.5t10 -55.5t-11.5 -55.5t-31.5 -44.5t-47.5 -29.5t-59.5 -10.5zM500 225q34 0 49.5 19.5t15.5 45.5t-15.5 45.5
t-49.5 19.5t-49.5 -19.5t-15.5 -45.5t15 -45.5t50 -19.5zM500 -75q-90 0 -167.5 33.5t-135 91t-90 135t-32.5 165.5t32.5 165.5t90 135t135 91t167.5 33.5t167.5 -33.5t135 -91t90 -135t32.5 -165.5t-32.5 -165.5t-90 -135t-135 -91t-167.5 -33.5zM500 -5q75 0 140 27.5
t112.5 75t75 112.5t27.5 140t-27.5 140t-75 112.5t-112.5 75t-140 27.5t-140 -27.5t-112.5 -75t-75 -112.5t-27.5 -140t27.5 -140t75 -112.5t112.5 -75t140 -27.5z" />
    <glyph glyph-name="uni2466" unicode="&#x2466;" 
d="M545 475h-170v75h260v-75l-140 -325h-90zM500 -75q-90 0 -167.5 33.5t-135 91t-90 135t-32.5 165.5t32.5 165.5t90 135t135 91t167.5 33.5t167.5 -33.5t135 -91t90 -135t32.5 -165.5t-32.5 -165.5t-90 -135t-135 -91t-167.5 -33.5zM500 -5q75 0 140 27.5t112.5 75
t75 112.5t27.5 140t-27.5 140t-75 112.5t-112.5 75t-140 27.5t-140 -27.5t-112.5 -75t-75 -112.5t-27.5 -140t27.5 -140t75 -112.5t112.5 -75t140 -27.5z" />
    <glyph glyph-name="uni2467" unicode="&#x2467;" 
d="M500 145q-64 0 -104.5 31.5t-40.5 88.5q0 26 13 53t47 42q-23 11 -36.5 35t-13.5 50q0 45 35.5 77.5t99.5 32.5t99.5 -32.5t35.5 -77.5q0 -26 -13.5 -50t-36.5 -35q34 -15 47 -42t13 -53q0 -57 -40.5 -88.5t-104.5 -31.5zM500 220q30 0 45 16t15 39q0 19 -15 34.5
t-45 15.5t-45 -15.5t-15 -34.5q0 -23 15 -39t45 -16zM500 395q26 0 38 12.5t12 27.5q0 19 -12 32t-38 13t-38 -13t-12 -32q0 -15 12 -27.5t38 -12.5zM500 -75q-90 0 -167.5 33.5t-135 91t-90 135t-32.5 165.5t32.5 165.5t90 135t135 91t167.5 33.5t167.5 -33.5t135 -91
t90 -135t32.5 -165.5t-32.5 -165.5t-90 -135t-135 -91t-167.5 -33.5zM500 -5q75 0 140 27.5t112.5 75t75 112.5t27.5 140t-27.5 140t-75 112.5t-112.5 75t-140 27.5t-140 -27.5t-112.5 -75t-75 -112.5t-27.5 -140t27.5 -140t75 -112.5t112.5 -75t140 -27.5z" />
    <glyph glyph-name="uni2468" unicode="&#x2468;" 
d="M518 280q-4 -2 -9 -3t-10.5 -1.5t-13.5 -0.5q-30 0 -55 10.5t-42.5 29.5t-27.5 44.5t-10 55.5t11.5 55.5t31.5 44.5t47.5 29.5t59.5 10.5q36 0 63.5 -11.5t47 -31t29.5 -46t10 -56.5q0 -37 -10 -67t-25 -53l-95 -140h-90zM500 345q34 0 49.5 19.5t15.5 45.5t-15 45.5
t-50 19.5q-34 0 -49.5 -19.5t-15.5 -45.5t15.5 -45.5t49.5 -19.5zM500 -75q-90 0 -167.5 33.5t-135 91t-90 135t-32.5 165.5t32.5 165.5t90 135t135 91t167.5 33.5t167.5 -33.5t135 -91t90 -135t32.5 -165.5t-32.5 -165.5t-90 -135t-135 -91t-167.5 -33.5zM500 -5
q75 0 140 27.5t112.5 75t75 112.5t27.5 140t-27.5 140t-75 112.5t-112.5 75t-140 27.5t-140 -27.5t-112.5 -75t-75 -112.5t-27.5 -140t27.5 -140t75 -112.5t112.5 -75t140 -27.5z" />
    <glyph glyph-name="uni2469" unicode="&#x2469;" 
d="M314 415h-90v80h65q25 0 25 25v30h85v-400h-85v265zM610 145q-72 0 -116 51.5t-44 153.5t44 153.5t116 51.5t116 -51.5t44 -153.5t-44 -153.5t-116 -51.5zM610 225q30 0 52.5 30.5t22.5 94.5t-22.5 94.5t-52.5 30.5t-52.5 -30.5t-22.5 -94.5t22.5 -94.5t52.5 -30.5z
M500 -75q-90 0 -167.5 33.5t-135 91t-90 135t-32.5 165.5t32.5 165.5t90 135t135 91t167.5 33.5t167.5 -33.5t135 -91t90 -135t32.5 -165.5t-32.5 -165.5t-90 -135t-135 -91t-167.5 -33.5zM500 -5q75 0 140 27.5t112.5 75t75 112.5t27.5 140t-27.5 140t-75 112.5t-112.5 75
t-140 27.5t-140 -27.5t-112.5 -75t-75 -112.5t-27.5 -140t27.5 -140t75 -112.5t112.5 -75t140 -27.5z" />
    <glyph glyph-name="uni246A" unicode="&#x246a;" 
d="M360 415h-90v80h65q25 0 25 25v30h85v-400h-85v265zM595 415h-90v80h65q25 0 25 25v30h85v-400h-85v265zM500 -75q-90 0 -167.5 33.5t-135 91t-90 135t-32.5 165.5t32.5 165.5t90 135t135 91t167.5 33.5t167.5 -33.5t135 -91t90 -135t32.5 -165.5t-32.5 -165.5t-90 -135
t-135 -91t-167.5 -33.5zM500 -5q75 0 140 27.5t112.5 75t75 112.5t27.5 140t-27.5 140t-75 112.5t-112.5 75t-140 27.5t-140 -27.5t-112.5 -75t-75 -112.5t-27.5 -140t27.5 -140t75 -112.5t112.5 -75t140 -27.5z" />
    <glyph glyph-name="uni246B" unicode="&#x246b;" 
d="M324 415h-90v80h65q25 0 25 25v30h85v-400h-85v265zM470 225l145 140q20 20 30 36t10 34q0 15 -12 27.5t-38 12.5t-38 -13t-12 -32h-90q2 26 11.5 49t27.5 40t44 26.5t62 9.5q64 0 99.5 -33.5t35.5 -86.5q0 -33 -13.5 -58.5t-41.5 -51.5l-105 -100h155v-75h-270v75z
M500 -75q-90 0 -167.5 33.5t-135 91t-90 135t-32.5 165.5t32.5 165.5t90 135t135 91t167.5 33.5t167.5 -33.5t135 -91t90 -135t32.5 -165.5t-32.5 -165.5t-90 -135t-135 -91t-167.5 -33.5zM500 -5q75 0 140 27.5t112.5 75t75 112.5t27.5 140t-27.5 140t-75 112.5t-112.5 75
t-140 27.5t-140 -27.5t-112.5 -75t-75 -112.5t-27.5 -140t27.5 -140t75 -112.5t112.5 -75t140 -27.5z" />
    <glyph glyph-name="uni246C" unicode="&#x246c;" 
d="M320 415h-90v80h65q25 0 25 25v30h85v-400h-85v265zM600 145q-60 0 -98.5 28.5t-46.5 81.5h90q4 -15 16.5 -22.5t38.5 -7.5t40.5 13.5t14.5 36.5q0 19 -12 32t-38 13h-40v75h40q26 0 35.5 12.5t9.5 27.5q0 40 -50 40q-26 0 -38.5 -13t-16.5 -32h-90q2 26 11.5 49t27.5 40
t44 26.5t62 9.5q32 0 58 -9t44 -24t28 -35t10 -42q0 -34 -18 -55.5t-37 -29.5q30 -15 45 -39.5t15 -50.5q0 -24 -8.5 -47t-26.5 -40t-45.5 -27.5t-64.5 -10.5zM500 -75q-90 0 -167.5 33.5t-135 91t-90 135t-32.5 165.5t32.5 165.5t90 135t135 91t167.5 33.5t167.5 -33.5
t135 -91t90 -135t32.5 -165.5t-32.5 -165.5t-90 -135t-135 -91t-167.5 -33.5zM500 -5q75 0 140 27.5t112.5 75t75 112.5t27.5 140t-27.5 140t-75 112.5t-112.5 75t-140 27.5t-140 -27.5t-112.5 -75t-75 -112.5t-27.5 -140t27.5 -140t75 -112.5t112.5 -75t140 -27.5z" />
    <glyph glyph-name="uni246D" unicode="&#x246d;" 
d="M320 415h-90v80h65q25 0 25 25v30h85v-400h-85v265zM625 235h-180v75l160 240h105v-240h60v-75h-60v-85h-85v85zM625 310v135h-5l-90 -135h95zM500 -75q-90 0 -167.5 33.5t-135 91t-90 135t-32.5 165.5t32.5 165.5t90 135t135 91t167.5 33.5t167.5 -33.5t135 -91t90 -135
t32.5 -165.5t-32.5 -165.5t-90 -135t-135 -91t-167.5 -33.5zM500 -5q75 0 140 27.5t112.5 75t75 112.5t27.5 140t-27.5 140t-75 112.5t-112.5 75t-140 27.5t-140 -27.5t-112.5 -75t-75 -112.5t-27.5 -140t27.5 -140t75 -112.5t112.5 -75t140 -27.5z" />
    <glyph glyph-name="uni246E" unicode="&#x246e;" 
d="M315 415h-90v80h65q25 0 25 25v30h85v-400h-85v265zM600 145q-30 0 -56 9t-45.5 24.5t-32 36.5t-16.5 45h90q4 -15 19 -25t41 -10q30 0 47.5 17t17.5 43q0 34 -20 49.5t-50 15.5q-19 0 -30.5 -7t-19.5 -18h-85l25 225h245v-75h-175l-10 -70h5q7 3 17 7q8 3 20.5 5.5
t27.5 2.5q60 0 97.5 -35.5t37.5 -98.5q0 -30 -11 -56t-30.5 -45t-47 -29.5t-61.5 -10.5zM500 -75q-90 0 -167.5 33.5t-135 91t-90 135t-32.5 165.5t32.5 165.5t90 135t135 91t167.5 33.5t167.5 -33.5t135 -91t90 -135t32.5 -165.5t-32.5 -165.5t-90 -135t-135 -91
t-167.5 -33.5zM500 -5q75 0 140 27.5t112.5 75t75 112.5t27.5 140t-27.5 140t-75 112.5t-112.5 75t-140 27.5t-140 -27.5t-112.5 -75t-75 -112.5t-27.5 -140t27.5 -140t75 -112.5t112.5 -75t140 -27.5z" />
    <glyph glyph-name="uni246F" unicode="&#x246f;" 
d="M315 415h-90v80h65q25 0 25 25v30h85v-400h-85v265zM605 145q-36 0 -63.5 11.5t-47 31t-29.5 46t-10 56.5q0 37 10 67t25 53l95 140h90l-88 -130q4 1 9 2t10.5 2t13.5 1q30 0 55 -10.5t42.5 -29.5t27.5 -44.5t10 -55.5t-11.5 -55.5t-31.5 -44.5t-47.5 -29.5t-59.5 -10.5z
M605 225q34 0 49.5 19.5t15.5 45.5t-15.5 45.5t-49.5 19.5t-49.5 -19.5t-15.5 -45.5t15 -45.5t50 -19.5zM500 -75q-90 0 -167.5 33.5t-135 91t-90 135t-32.5 165.5t32.5 165.5t90 135t135 91t167.5 33.5t167.5 -33.5t135 -91t90 -135t32.5 -165.5t-32.5 -165.5t-90 -135
t-135 -91t-167.5 -33.5zM500 -5q75 0 140 27.5t112.5 75t75 112.5t27.5 140t-27.5 140t-75 112.5t-112.5 75t-140 27.5t-140 -27.5t-112.5 -75t-75 -112.5t-27.5 -140t27.5 -140t75 -112.5t112.5 -75t140 -27.5z" />
    <glyph glyph-name="uni2470" unicode="&#x2470;" 
d="M330 415h-90v80h65q25 0 25 25v30h85v-400h-85v265zM645 475h-170v75h260v-75l-140 -325h-90zM500 -75q-90 0 -167.5 33.5t-135 91t-90 135t-32.5 165.5t32.5 165.5t90 135t135 91t167.5 33.5t167.5 -33.5t135 -91t90 -135t32.5 -165.5t-32.5 -165.5t-90 -135t-135 -91
t-167.5 -33.5zM500 -5q75 0 140 27.5t112.5 75t75 112.5t27.5 140t-27.5 140t-75 112.5t-112.5 75t-140 27.5t-140 -27.5t-112.5 -75t-75 -112.5t-27.5 -140t27.5 -140t75 -112.5t112.5 -75t140 -27.5z" />
    <glyph glyph-name="uni2471" unicode="&#x2471;" 
d="M325 415h-90v80h65q25 0 25 25v30h85v-400h-85v265zM605 145q-64 0 -104.5 31.5t-40.5 88.5q0 26 13 53t47 42q-23 11 -36.5 35t-13.5 50q0 45 35.5 77.5t99.5 32.5t99.5 -32.5t35.5 -77.5q0 -26 -13.5 -50t-36.5 -35q34 -15 47 -42t13 -53q0 -57 -40.5 -88.5
t-104.5 -31.5zM605 220q30 0 45 16t15 39q0 19 -15 34.5t-45 15.5t-45 -15.5t-15 -34.5q0 -23 15 -39t45 -16zM605 395q26 0 38 12.5t12 27.5q0 19 -12 32t-38 13t-38 -13t-12 -32q0 -15 12 -27.5t38 -12.5zM500 -75q-90 0 -167.5 33.5t-135 91t-90 135t-32.5 165.5
t32.5 165.5t90 135t135 91t167.5 33.5t167.5 -33.5t135 -91t90 -135t32.5 -165.5t-32.5 -165.5t-90 -135t-135 -91t-167.5 -33.5zM500 -5q75 0 140 27.5t112.5 75t75 112.5t27.5 140t-27.5 140t-75 112.5t-112.5 75t-140 27.5t-140 -27.5t-112.5 -75t-75 -112.5t-27.5 -140
t27.5 -140t75 -112.5t112.5 -75t140 -27.5z" />
    <glyph glyph-name="uni2472" unicode="&#x2472;" 
d="M325 415h-90v80h65q25 0 25 25v30h85v-400h-85v265zM622 280q-4 -2 -9 -3t-10.5 -1.5t-13.5 -0.5q-30 0 -55 10.5t-42.5 29.5t-27.5 44.5t-10 55.5t11.5 55.5t31.5 44.5t47.5 29.5t59.5 10.5q36 0 63.5 -11.5t47 -31t29.5 -46t10 -56.5q0 -37 -10 -67t-25 -53l-95 -140
h-90zM604 345q34 0 49.5 19.5t15.5 45.5t-15 45.5t-50 19.5q-34 0 -49.5 -19.5t-15.5 -45.5t15.5 -45.5t49.5 -19.5zM500 -75q-90 0 -167.5 33.5t-135 91t-90 135t-32.5 165.5t32.5 165.5t90 135t135 91t167.5 33.5t167.5 -33.5t135 -91t90 -135t32.5 -165.5t-32.5 -165.5
t-90 -135t-135 -91t-167.5 -33.5zM500 -5q75 0 140 27.5t112.5 75t75 112.5t27.5 140t-27.5 140t-75 112.5t-112.5 75t-140 27.5t-140 -27.5t-112.5 -75t-75 -112.5t-27.5 -140t27.5 -140t75 -112.5t112.5 -75t140 -27.5z" />
    <glyph glyph-name="uni2473" unicode="&#x2473;" 
d="M210 225l145 140q20 20 30 36t10 34q0 15 -12 27.5t-38 12.5t-38 -13t-12 -32h-90q2 26 11.5 49t27.5 40t44 26.5t62 9.5q64 0 99.5 -33.5t35.5 -86.5q0 -33 -13.5 -58.5t-41.5 -51.5l-105 -100h155v-75h-270v75zM655 145q-72 0 -116 51.5t-44 153.5t44 153.5t116 51.5
t116 -51.5t44 -153.5t-44 -153.5t-116 -51.5zM655 225q30 0 52.5 30.5t22.5 94.5t-22.5 94.5t-52.5 30.5t-52.5 -30.5t-22.5 -94.5t22.5 -94.5t52.5 -30.5zM500 -75q-90 0 -167.5 33.5t-135 91t-90 135t-32.5 165.5t32.5 165.5t90 135t135 91t167.5 33.5t167.5 -33.5
t135 -91t90 -135t32.5 -165.5t-32.5 -165.5t-90 -135t-135 -91t-167.5 -33.5zM500 -5q75 0 140 27.5t112.5 75t75 112.5t27.5 140t-27.5 140t-75 112.5t-112.5 75t-140 27.5t-140 -27.5t-112.5 -75t-75 -112.5t-27.5 -140t27.5 -140t75 -112.5t112.5 -75t140 -27.5z" />
    <glyph glyph-name="uni24EA" unicode="&#x24ea;" 
d="M500 145q-72 0 -116 51.5t-44 153.5t44 153.5t116 51.5t116 -51.5t44 -153.5t-44 -153.5t-116 -51.5zM500 225q30 0 52.5 30.5t22.5 94.5t-22.5 94.5t-52.5 30.5t-52.5 -30.5t-22.5 -94.5t22.5 -94.5t52.5 -30.5zM500 -75q-90 0 -167.5 33.5t-135 91t-90 135t-32.5 165.5
t32.5 165.5t90 135t135 91t167.5 33.5t167.5 -33.5t135 -91t90 -135t32.5 -165.5t-32.5 -165.5t-90 -135t-135 -91t-167.5 -33.5zM500 -5q75 0 140 27.5t112.5 75t75 112.5t27.5 140t-27.5 140t-75 112.5t-112.5 75t-140 27.5t-140 -27.5t-112.5 -75t-75 -112.5t-27.5 -140
t27.5 -140t75 -112.5t112.5 -75t140 -27.5z" />
    <glyph glyph-name="uni24EB" unicode="&#x24eb;" 
d="M500 -75q-90 0 -167.5 33.5t-135 91t-90 135t-32.5 165.5t32.5 165.5t90 135t135 91t167.5 33.5t167.5 -33.5t135 -91t90 -135t32.5 -165.5t-32.5 -165.5t-90 -135t-135 -91t-167.5 -33.5zM445 150v400h-85v-30q0 -25 -25 -25h-65v-80h90v-265h85zM680 150v400h-85v-30
q0 -25 -25 -25h-65v-80h90v-265h85z" />
    <glyph glyph-name="uni24EC" unicode="&#x24ec;" 
d="M500 -75q-90 0 -167.5 33.5t-135 91t-90 135t-32.5 165.5t32.5 165.5t90 135t135 91t167.5 33.5t167.5 -33.5t135 -91t90 -135t32.5 -165.5t-32.5 -165.5t-90 -135t-135 -91t-167.5 -33.5zM409 150v400h-85v-30q0 -25 -25 -25h-65v-80h90v-265h85zM740 150v75h-155
l105 100q28 26 41.5 51.5t13.5 58.5q0 53 -35.5 86.5t-99.5 33.5q-36 0 -62 -9.5t-44 -26.5t-27.5 -40t-11.5 -49h90q0 19 12 32t38 13t38 -12.5t12 -27.5q0 -18 -10 -34t-30 -36l-145 -140v-75h270z" />
    <glyph glyph-name="uni24ED" unicode="&#x24ed;" 
d="M500 -75q-90 0 -167.5 33.5t-135 91t-90 135t-32.5 165.5t32.5 165.5t90 135t135 91t167.5 33.5t167.5 -33.5t135 -91t90 -135t32.5 -165.5t-32.5 -165.5t-90 -135t-135 -91t-167.5 -33.5zM405 150v400h-85v-30q0 -25 -25 -25h-65v-80h90v-265h85zM600 145
q37 0 64.5 10.5t45.5 27.5t26.5 40t8.5 47q0 26 -15 50.5t-45 39.5q19 8 37 29.5t18 55.5q0 22 -10 42t-28 35t-44 24t-58 9q-36 0 -62 -9.5t-44 -26.5t-27.5 -40t-11.5 -49h90q4 19 16.5 32t38.5 13q50 0 50 -40q0 -15 -9.5 -27.5t-35.5 -12.5h-40v-75h40q26 0 38 -13
t12 -32q0 -23 -14.5 -36.5t-40.5 -13.5t-38.5 7.5t-16.5 22.5h-90q8 -53 46.5 -81.5t98.5 -28.5z" />
    <glyph glyph-name="uni24EE" unicode="&#x24ee;" 
d="M500 -75q-90 0 -167.5 33.5t-135 91t-90 135t-32.5 165.5t32.5 165.5t90 135t135 91t167.5 33.5t167.5 -33.5t135 -91t90 -135t32.5 -165.5t-32.5 -165.5t-90 -135t-135 -91t-167.5 -33.5zM405 150v400h-85v-30q0 -25 -25 -25h-65v-80h90v-265h85zM710 150v85h60v75h-60
v240h-105l-160 -240v-75h180v-85h85zM620 445h5v-135h-95z" />
    <glyph glyph-name="uni24EF" unicode="&#x24ef;" 
d="M500 -75q-90 0 -167.5 33.5t-135 91t-90 135t-32.5 165.5t32.5 165.5t90 135t135 91t167.5 33.5t167.5 -33.5t135 -91t90 -135t32.5 -165.5t-32.5 -165.5t-90 -135t-135 -91t-167.5 -33.5zM400 150v400h-85v-30q0 -25 -25 -25h-65v-80h90v-265h85zM600 145
q34 0 61.5 10.5t47 29.5t30.5 45t11 56q0 63 -37.5 98.5t-97.5 35.5q-15 0 -27.5 -2.5t-20.5 -5.5q-10 -4 -17 -7h-5l10 70h175v75h-245l-25 -225h85q8 11 19.5 18t30.5 7q30 0 50 -15.5t20 -49.5q0 -26 -17.5 -43t-47.5 -17q-26 0 -41 10t-19 25h-90q4 -24 16.5 -45
t32 -36.5t45.5 -24.5t56 -9z" />
    <glyph glyph-name="uni24F0" unicode="&#x24f0;" 
d="M500 -75q-90 0 -167.5 33.5t-135 91t-90 135t-32.5 165.5t32.5 165.5t90 135t135 91t167.5 33.5t167.5 -33.5t135 -91t90 -135t32.5 -165.5t-32.5 -165.5t-90 -135t-135 -91t-167.5 -33.5zM400 150v400h-85v-30q0 -25 -25 -25h-65v-80h90v-265h85zM605 145
q32 0 59.5 10.5t47.5 29.5t31.5 44.5t11.5 55.5t-11.5 55.5t-31.5 44.5t-47.5 29.5t-59.5 10.5h-15l85 125h-90l-95 -140q-15 -23 -25 -53t-10 -67q0 -30 10 -56.5t29.5 -46t47 -31t63.5 -11.5zM605 225q-35 0 -50 19.5t-15 45.5t15.5 45.5t49.5 19.5t49.5 -19.5t15.5 -45.5
t-15.5 -45.5t-49.5 -19.5z" />
    <glyph glyph-name="uni24F1" unicode="&#x24f1;" 
d="M500 -75q-90 0 -167.5 33.5t-135 91t-90 135t-32.5 165.5t32.5 165.5t90 135t135 91t167.5 33.5t167.5 -33.5t135 -91t90 -135t32.5 -165.5t-32.5 -165.5t-90 -135t-135 -91t-167.5 -33.5zM415 150v400h-85v-30q0 -25 -25 -25h-65v-80h90v-265h85zM595 150l140 325v75
h-260v-75h170l-140 -325h90z" />
    <glyph glyph-name="uni24F2" unicode="&#x24f2;" 
d="M500 -75q-90 0 -167.5 33.5t-135 91t-90 135t-32.5 165.5t32.5 165.5t90 135t135 91t167.5 33.5t167.5 -33.5t135 -91t90 -135t32.5 -165.5t-32.5 -165.5t-90 -135t-135 -91t-167.5 -33.5zM410 150v400h-85v-30q0 -25 -25 -25h-65v-80h90v-265h85zM605 145
q64 0 104.5 31.5t40.5 88.5q0 26 -13 53t-47 42q23 11 36.5 35t13.5 50q0 45 -35.5 77.5t-99.5 32.5t-99.5 -32.5t-35.5 -77.5q0 -26 13.5 -50t36.5 -35q-34 -15 -47 -42t-13 -53q0 -57 40.5 -88.5t104.5 -31.5zM605 220q-30 0 -45 16t-15 39q0 19 15 34.5t45 15.5t45 -15.5
t15 -34.5q0 -23 -15 -39t-45 -16zM605 395q-26 0 -38 12.5t-12 27.5q0 19 12 32t38 13t38 -13t12 -32q0 -15 -12 -27.5t-38 -12.5z" />
    <glyph glyph-name="uni24F3" unicode="&#x24f3;" 
d="M500 -75q-90 0 -167.5 33.5t-135 91t-90 135t-32.5 165.5t32.5 165.5t90 135t135 91t167.5 33.5t167.5 -33.5t135 -91t90 -135t32.5 -165.5t-32.5 -165.5t-90 -135t-135 -91t-167.5 -33.5zM410 150v400h-85v-30q0 -25 -25 -25h-65v-80h90v-265h85zM624 150l95 140
q15 23 25 53t10 67q0 30 -10 56.5t-29.5 46t-47 31t-63.5 11.5q-32 0 -59.5 -10.5t-47.5 -29.5t-31.5 -44.5t-11.5 -55.5t11.5 -55.5t31.5 -44.5t47.5 -29.5t59.5 -10.5h15l-85 -125h90zM604 345q-34 0 -49.5 19.5t-15.5 45.5t15.5 45.5t49.5 19.5q35 0 50 -19.5t15 -45.5
t-15.5 -45.5t-49.5 -19.5z" />
    <glyph glyph-name="uni24F4" unicode="&#x24f4;" 
d="M500 -75q-90 0 -167.5 33.5t-135 91t-90 135t-32.5 165.5t32.5 165.5t90 135t135 91t167.5 33.5t167.5 -33.5t135 -91t90 -135t32.5 -165.5t-32.5 -165.5t-90 -135t-135 -91t-167.5 -33.5zM480 150v75h-155l105 100q28 26 41.5 51.5t13.5 58.5q0 53 -35.5 86.5
t-99.5 33.5q-36 0 -62 -9.5t-44 -26.5t-27.5 -40t-11.5 -49h90q0 19 12 32t38 13t38 -12.5t12 -27.5q0 -18 -10 -34t-30 -36l-145 -140v-75h270zM655 145q72 0 116 51.5t44 153.5t-44 153.5t-116 51.5t-116 -51.5t-44 -153.5t44 -153.5t116 -51.5zM655 225q-30 0 -52.5 30.5
t-22.5 94.5t22.5 94.5t52.5 30.5t52.5 -30.5t22.5 -94.5t-22.5 -94.5t-52.5 -30.5z" />
    <glyph glyph-name="uni24FF" unicode="&#x24ff;" 
d="M500 -75q-90 0 -167.5 33.5t-135 91t-90 135t-32.5 165.5t32.5 165.5t90 135t135 91t167.5 33.5t167.5 -33.5t135 -91t90 -135t32.5 -165.5t-32.5 -165.5t-90 -135t-135 -91t-167.5 -33.5zM500 145q72 0 116 51.5t44 153.5t-44 153.5t-116 51.5t-116 -51.5t-44 -153.5
t44 -153.5t116 -51.5zM500 225q-30 0 -52.5 30.5t-22.5 94.5t22.5 94.5t52.5 30.5t52.5 -30.5t22.5 -94.5t-22.5 -94.5t-52.5 -30.5z" />
    <glyph glyph-name="lozenge" unicode="&#x25ca;" horiz-adv-x="595" 
d="M35 350l227 350h70l228 -350l-228 -350h-70zM460 350l-163 255l-162 -255l162 -255z" />
    <glyph glyph-name="uni2776" unicode="&#x2776;" 
d="M500 -75q-90 0 -167.5 33.5t-135 91t-90 135t-32.5 165.5t32.5 165.5t90 135t135 91t167.5 33.5t167.5 -33.5t135 -91t90 -135t32.5 -165.5t-32.5 -165.5t-90 -135t-135 -91t-167.5 -33.5zM560 150v400h-85v-30q0 -25 -25 -25h-65v-80h90v-265h85z" />
    <glyph glyph-name="uni2777" unicode="&#x2777;" 
d="M500 -75q-90 0 -167.5 33.5t-135 91t-90 135t-32.5 165.5t32.5 165.5t90 135t135 91t167.5 33.5t167.5 -33.5t135 -91t90 -135t32.5 -165.5t-32.5 -165.5t-90 -135t-135 -91t-167.5 -33.5zM640 150v75h-155l105 100q28 26 41.5 51.5t13.5 58.5q0 53 -35.5 86.5
t-99.5 33.5q-36 0 -62 -9.5t-44 -26.5t-27.5 -40t-11.5 -49h90q0 19 12 32t38 13t38 -12.5t12 -27.5q0 -18 -10 -34t-30 -36l-145 -140v-75h270z" />
    <glyph glyph-name="uni2778" unicode="&#x2778;" 
d="M500 -75q-90 0 -167.5 33.5t-135 91t-90 135t-32.5 165.5t32.5 165.5t90 135t135 91t167.5 33.5t167.5 -33.5t135 -91t90 -135t32.5 -165.5t-32.5 -165.5t-90 -135t-135 -91t-167.5 -33.5zM505 145q37 0 64.5 10.5t45.5 27.5t26.5 40t8.5 47q0 26 -15 50.5t-45 39.5
q19 8 37 29.5t18 55.5q0 22 -10 42t-28 35t-44 24t-58 9q-36 0 -62 -9.5t-44 -26.5t-27.5 -40t-11.5 -49h90q4 19 16.5 32t38.5 13q50 0 50 -40q0 -15 -9.5 -27.5t-35.5 -12.5h-40v-75h40q26 0 38 -13t12 -32q0 -23 -14.5 -36.5t-40.5 -13.5t-38.5 7.5t-16.5 22.5h-90
q8 -53 46.5 -81.5t98.5 -28.5z" />
    <glyph glyph-name="uni2779" unicode="&#x2779;" 
d="M500 -75q-90 0 -167.5 33.5t-135 91t-90 135t-32.5 165.5t32.5 165.5t90 135t135 91t167.5 33.5t167.5 -33.5t135 -91t90 -135t32.5 -165.5t-32.5 -165.5t-90 -135t-135 -91t-167.5 -33.5zM590 150v85h60v75h-60v240h-105l-160 -240v-75h180v-85h85zM500 445h5v-135h-95z
" />
    <glyph glyph-name="uni277A" unicode="&#x277a;" 
d="M500 -75q-90 0 -167.5 33.5t-135 91t-90 135t-32.5 165.5t32.5 165.5t90 135t135 91t167.5 33.5t167.5 -33.5t135 -91t90 -135t32.5 -165.5t-32.5 -165.5t-90 -135t-135 -91t-167.5 -33.5zM505 145q34 0 61.5 10.5t47 29.5t30.5 45t11 56q0 63 -37.5 98.5t-97.5 35.5
q-15 0 -27.5 -2.5t-20.5 -5.5q-10 -4 -17 -7h-5l10 70h175v75h-245l-25 -225h85q8 11 19.5 18t30.5 7q30 0 50 -15.5t20 -49.5q0 -26 -17.5 -43t-47.5 -17q-26 0 -41 10t-19 25h-90q4 -24 16.5 -45t32 -36.5t45.5 -24.5t56 -9z" />
    <glyph glyph-name="uni277B" unicode="&#x277b;" 
d="M500 -75q-90 0 -167.5 33.5t-135 91t-90 135t-32.5 165.5t32.5 165.5t90 135t135 91t167.5 33.5t167.5 -33.5t135 -91t90 -135t32.5 -165.5t-32.5 -165.5t-90 -135t-135 -91t-167.5 -33.5zM500 145q32 0 59.5 10.5t47.5 29.5t31.5 44.5t11.5 55.5t-10 55.5t-27.5 44.5
t-42.5 29.5t-55 10.5q-8 0 -13.5 -1t-10.5 -2t-9 -2l88 130h-90l-95 -140q-15 -23 -25 -53t-10 -67q0 -30 10 -56.5t29.5 -46t47 -31t63.5 -11.5zM500 225q-35 0 -50 19.5t-15 45.5t15.5 45.5t49.5 19.5t49.5 -19.5t15.5 -45.5t-15.5 -45.5t-49.5 -19.5z" />
    <glyph glyph-name="uni277C" unicode="&#x277c;" 
d="M500 -75q-90 0 -167.5 33.5t-135 91t-90 135t-32.5 165.5t32.5 165.5t90 135t135 91t167.5 33.5t167.5 -33.5t135 -91t90 -135t32.5 -165.5t-32.5 -165.5t-90 -135t-135 -91t-167.5 -33.5zM495 150l140 325v75h-260v-75h170l-140 -325h90z" />
    <glyph glyph-name="uni277D" unicode="&#x277d;" 
d="M500 -75q-90 0 -167.5 33.5t-135 91t-90 135t-32.5 165.5t32.5 165.5t90 135t135 91t167.5 33.5t167.5 -33.5t135 -91t90 -135t32.5 -165.5t-32.5 -165.5t-90 -135t-135 -91t-167.5 -33.5zM500 145q64 0 104.5 31.5t40.5 88.5q0 26 -13 53t-47 42q23 11 36.5 35t13.5 50
q0 45 -35.5 77.5t-99.5 32.5t-99.5 -32.5t-35.5 -77.5q0 -26 13.5 -50t36.5 -35q-34 -15 -47 -42t-13 -53q0 -57 40.5 -88.5t104.5 -31.5zM500 220q-30 0 -45 16t-15 39q0 19 15 34.5t45 15.5t45 -15.5t15 -34.5q0 -23 -15 -39t-45 -16zM500 395q-26 0 -38 12.5t-12 27.5
q0 19 12 32t38 13t38 -13t12 -32q0 -15 -12 -27.5t-38 -12.5z" />
    <glyph glyph-name="uni277E" unicode="&#x277e;" 
d="M500 -75q-90 0 -167.5 33.5t-135 91t-90 135t-32.5 165.5t32.5 165.5t90 135t135 91t167.5 33.5t167.5 -33.5t135 -91t90 -135t32.5 -165.5t-32.5 -165.5t-90 -135t-135 -91t-167.5 -33.5zM520 150l95 140q15 23 25 53t10 67q0 30 -10 56.5t-29.5 46t-47 31t-63.5 11.5
q-32 0 -59.5 -10.5t-47.5 -29.5t-31.5 -44.5t-11.5 -55.5t10 -55.5t27.5 -44.5t42.5 -29.5t55 -10.5q8 0 13.5 0.5t10.5 1.5t9 3l-88 -130h90zM500 345q-34 0 -49.5 19.5t-15.5 45.5t15.5 45.5t49.5 19.5q35 0 50 -19.5t15 -45.5t-15.5 -45.5t-49.5 -19.5z" />
    <glyph glyph-name="uni277F" unicode="&#x277f;" 
d="M500 -75q-90 0 -167.5 33.5t-135 91t-90 135t-32.5 165.5t32.5 165.5t90 135t135 91t167.5 33.5t167.5 -33.5t135 -91t90 -135t32.5 -165.5t-32.5 -165.5t-90 -135t-135 -91t-167.5 -33.5zM399 150v400h-85v-30q0 -25 -25 -25h-65v-80h90v-265h85zM610 145q72 0 116 51.5
t44 153.5t-44 153.5t-116 51.5t-116 -51.5t-44 -153.5t44 -153.5t116 -51.5zM610 225q-30 0 -52.5 30.5t-22.5 94.5t22.5 94.5t52.5 30.5t52.5 -30.5t22.5 -94.5t-22.5 -94.5t-52.5 -30.5z" />
    <glyph glyph-name="uni2921" unicode="&#x2921;" 
d="M520 105h170l-435 435v-170h-85v300l10 10h300v-85h-170l435 -435v170h85v-300l-10 -10h-300v85z" />
    <glyph glyph-name="uni2922" unicode="&#x2922;" 
d="M170 30v300h85v-170l435 435h-170v85h300l10 -10v-300h-85v170l-435 -435h170v-85h-300z" />
    <glyph glyph-name="back_left.icon" unicode="&#xe000;" 
d="M295 215v5l215 215l55 -55l-120 -120h255q26 0 38 13t12 32v265q0 19 -12 32t-38 13h-535v85h535q30 0 55 -10t42.5 -27t27.5 -41t10 -52v-266q0 -28 -10 -51.5t-27.5 -41t-42.5 -27t-55 -9.5h-255l120 -120l-55 -55z" />
    <glyph glyph-name="back_right.icon" unicode="&#xe001;" 
d="M300 0q-30 0 -55 10t-42.5 27t-27.5 41t-10 52v266q0 28 10 51.5t27.5 40.5t42.5 27t55 10h255l-120 120l55 55l215 -215v-5l-215 -215l-55 55l120 120h-255q-26 0 -38 -13t-12 -32v-265q0 -19 12 -32t38 -13h535v-85h-535v0z" />
    <glyph glyph-name="angle_left.icon" unicode="&#xe002;" 
d="M312 353v4l293 253l50 -55l-228 -198v-4l228 -198l-50 -55z" />
    <glyph glyph-name="angle_up.icon" unicode="&#xe003;" 
d="M245 250l253 293h4l253 -293l-55 -50l-198 228h-4l-198 -228z" />
    <glyph glyph-name="angle_right.icon" unicode="&#xe004;" 
d="M345 155l228 198v4l-228 198l50 55l293 -253v-4l-293 -253z" />
    <glyph glyph-name="angle_down.icon" unicode="&#xe005;" 
d="M245 465l55 50l198 -228h4l198 228l55 -50l-253 -293h-4z" />
    <glyph glyph-name="angle_double_left.icon" unicode="&#xe006;" 
d="M210 353v4l293 253l50 -55l-228 -198v-4l228 -198l-50 -55zM402 353v4l293 253l50 -55l-228 -198v-4l228 -198l-50 -55z" />
    </font>
</defs>
</svg>
