<svg xmlns="http://www.w3.org/2000/svg">
<defs>
<font id="TTInterphases-Black" horiz-adv-x="1000" >
  <font-face 
    font-family="TT Interphases Black"
    font-weight="900"
    font-stretch="normal"
    units-per-em="1000"
    panose-1="2 0 5 3 2 0 0 2 0 4"
    ascent="760"
    descent="-240"
    x-height="540"
    cap-height="700"
    bbox="-570 -270 1438 1030"
    underline-thickness="50"
    underline-position="-200"
    unicode-range="U+000D-FB04"
  />
<missing-glyph horiz-adv-x="900" 
d="M100 284h45v-139h33v139h50v31h-128v126l19 -61h23l34 106l33 -106h23l54 170h-32l-34 -110l-35 110h-19l-35 -110l-31 103v157h700v-150h-110v-170h110v-91q-13 27 -50 27q-29 0 -44.5 -14.5t-15.5 -34.5q0 -22 13.5 -32t30 -15t30.5 -9.5t14 -16.5q0 -14 -9.5 -17.5
t-18.5 -3.5q-15 0 -21.5 7.5t-6.5 17.5h-33q0 -24 16.5 -39.5t44.5 -15.5q20 0 32.5 7.5t17.5 12.5v-163h-700v284zM328 143q38 0 60 25t22 61q0 37 -22.5 62t-59.5 25t-59.5 -25t-22.5 -62q0 -36 22 -61t60 -25zM328 174q-23 0 -37 16t-14 39q0 24 13.5 40t37.5 16
t37.5 -16t13.5 -40q0 -23 -14 -39t-37 -16zM549 315h-32v-106q0 -29 19.5 -47.5t48.5 -18.5t48 18.5t19 47.5v106h-32v-106q0 -15 -9 -25t-26 -10q-18 0 -27 11t-9 24v106zM344 380v62h24l35 -62h37l-40 67q36 16 36 50q0 21 -15.5 37t-41.5 16h-68v-170h33zM344 519h35
q10 0 17 -6t7 -17q0 -13 -8 -18t-16 -5h-35v46zM502 380v170h-33v-170h33zM800 262v-38q-11 10 -24 14.5t-24.5 8.5t-19.5 8t-8 12q0 9 7.5 14.5t18.5 5.5q10 0 18 -6.5t8 -18.5h24zM612 380v139h50v31h-132v-31h50v-139h32zM722 452h78v-41h-78v41zM722 519h78v-36h-78v36z
" />
    <glyph glyph-name="ff" unicode="ff" horiz-adv-x="795" 
d="M105 375h-85v165h85v40q0 86 42.5 128t147.5 42h115v-155h-85q-19 0 -29.5 -13t-10.5 -32v-10h185v40q0 86 42.5 128t147.5 42h115v-155h-85q-19 0 -29.5 -13t-10.5 -32v-10h125v-165h-125v-375h-180v375h-185v-375h-180v375z" />
    <glyph glyph-name="fi" unicode="fi" horiz-adv-x="710" 
d="M105 375h-85v165h85v40q0 86 42.5 128t147.5 42h115v-155h-85q-19 0 -29.5 -13t-10.5 -32v-10h365v-540h-180v375h-185v-375h-180v375zM560 580q-49 0 -74.5 26.5t-25.5 68.5t25.5 68.5t74.5 26.5t74.5 -26.5t25.5 -68.5t-25.5 -68.5t-74.5 -26.5z" />
    <glyph glyph-name="fl" unicode="fl" horiz-adv-x="710" 
d="M105 375h-85v165h85v40q0 86 42.5 128t147.5 42h360v-750h-180v595h-150q-19 0 -29.5 -13t-10.5 -32v-10h125v-165h-125v-375h-180v375z" />
    <glyph glyph-name="ffi" unicode="ffi" horiz-adv-x="1074" 
d="M105 375h-85v165h85v40q0 86 42.5 128t147.5 42h115v-155h-85q-19 0 -29.5 -13t-10.5 -32v-10h184v40q0 86 42.5 128t147.5 42h115v-155h-85q-19 0 -29.5 -13t-10.5 -32v-10h365v-540h-180v375h-185v-375h-180v375h-184v-375h-180v375zM924 580q-49 0 -74.5 26.5
t-25.5 68.5t25.5 68.5t74.5 26.5t74.5 -26.5t25.5 -68.5t-25.5 -68.5t-74.5 -26.5z" />
    <glyph glyph-name="ffl" unicode="ffl" horiz-adv-x="1075" 
d="M105 375h-85v165h85v40q0 86 42.5 128t147.5 42h115v-155h-85q-19 0 -29.5 -13t-10.5 -32v-10h185v40q0 86 42.5 128t147.5 42h360v-750h-180v595h-150q-19 0 -29.5 -13t-10.5 -32v-10h125v-165h-125v-375h-180v375h-185v-375h-180v375z" />
    <glyph glyph-name="f_f_j" unicode="ffj" horiz-adv-x="1074" 
d="M709 -40h85q19 0 29.5 13t10.5 32v370h-185v-375h-180v375h-184v-375h-180v375h-85v165h85v40q0 86 42.5 128t147.5 42h115v-155h-85q-19 0 -29.5 -13t-10.5 -32v-10h184v40q0 86 42.5 128t147.5 42h115v-155h-85q-19 0 -29.5 -13t-10.5 -32v-10h365v-570
q0 -86 -42.5 -128t-147.5 -42h-115v160zM924 580q-49 0 -74.5 26.5t-25.5 68.5t25.5 68.5t74.5 26.5t74.5 -26.5t25.5 -68.5t-25.5 -68.5t-74.5 -26.5z" />
    <glyph glyph-name="f_j" unicode="fj" horiz-adv-x="710" 
d="M345 -40h85q19 0 29.5 13t10.5 32v370h-185v-375h-180v375h-85v165h85v40q0 86 42.5 128t147.5 42h115v-155h-85q-19 0 -29.5 -13t-10.5 -32v-10h365v-570q0 -86 -42.5 -128t-147.5 -42h-115v160zM560 580q-49 0 -74.5 26.5t-25.5 68.5t25.5 68.5t74.5 26.5t74.5 -26.5
t25.5 -68.5t-25.5 -68.5t-74.5 -26.5z" />
    <glyph glyph-name=".notdef" horiz-adv-x="900" 
d="M100 284h45v-139h33v139h50v31h-128v126l19 -61h23l34 106l33 -106h23l54 170h-32l-34 -110l-35 110h-19l-35 -110l-31 103v157h700v-150h-110v-170h110v-91q-13 27 -50 27q-29 0 -44.5 -14.5t-15.5 -34.5q0 -22 13.5 -32t30 -15t30.5 -9.5t14 -16.5q0 -14 -9.5 -17.5
t-18.5 -3.5q-15 0 -21.5 7.5t-6.5 17.5h-33q0 -24 16.5 -39.5t44.5 -15.5q20 0 32.5 7.5t17.5 12.5v-163h-700v284zM328 143q38 0 60 25t22 61q0 37 -22.5 62t-59.5 25t-59.5 -25t-22.5 -62q0 -36 22 -61t60 -25zM328 174q-23 0 -37 16t-14 39q0 24 13.5 40t37.5 16
t37.5 -16t13.5 -40q0 -23 -14 -39t-37 -16zM549 315h-32v-106q0 -29 19.5 -47.5t48.5 -18.5t48 18.5t19 47.5v106h-32v-106q0 -15 -9 -25t-26 -10q-18 0 -27 11t-9 24v106zM344 380v62h24l35 -62h37l-40 67q36 16 36 50q0 21 -15.5 37t-41.5 16h-68v-170h33zM344 519h35
q10 0 17 -6t7 -17q0 -13 -8 -18t-16 -5h-35v46zM502 380v170h-33v-170h33zM800 262v-38q-11 10 -24 14.5t-24.5 8.5t-19.5 8t-8 12q0 9 7.5 14.5t18.5 5.5q10 0 18 -6.5t8 -18.5h24zM612 380v139h50v31h-132v-31h50v-139h32zM722 452h78v-41h-78v41zM722 519h78v-36h-78v36z
" />
    <glyph glyph-name=".null" horiz-adv-x="0" 
 />
    <glyph glyph-name=".null" horiz-adv-x="0" 
 />
    <glyph glyph-name="nonmarkingreturn" unicode="&#xd;" horiz-adv-x="0" 
 />
    <glyph glyph-name="space" unicode=" " horiz-adv-x="240" 
 />
    <glyph glyph-name="exclam" unicode="!" horiz-adv-x="310" 
d="M155 -5q-18 0 -35 7t-30.5 19.5t-21.5 29.5t-8 38t8 39t21.5 30.5t30.5 19.5t35 7t35 -7t30.5 -19.5t21.5 -30.5t8 -39t-8 -38t-21.5 -29.5t-30.5 -19.5t-35 -7zM65 610v90h180v-90l-15 -350h-150z" />
    <glyph glyph-name="quotedbl" unicode="&#x22;" horiz-adv-x="420" 
d="M40 700h150v-230h-150v230zM230 700h150v-230h-150v230z" />
    <glyph glyph-name="numbersign" unicode="#" horiz-adv-x="699" 
d="M107 140h-97l34 160h98l21 100h-97l33 160h98l30 140h155l-30 -140h85l30 140h155l-30 -140h97l-34 -160h-98l-21 -100h97l-33 -160h-98l-30 -140h-155l30 140h-85l-30 -140h-155zM381 300l21 100h-84l-21 -100h84z" />
    <glyph glyph-name="dollar" unicode="$" horiz-adv-x="635" 
d="M220 -1q-45 9 -82.5 27.5t-65 47.5t-44 67.5t-18.5 88.5h200q0 -31 26 -50.5t79 -19.5q56 0 75.5 16t19.5 39q0 25 -28 35.5t-69.5 17t-90 15.5t-90 31t-69.5 63.5t-28 112.5q0 46 15 81t40 60.5t58.5 42t71.5 25.5v111h200v-112q49 -12 83.5 -33.5t56.5 -50.5t33 -63.5
t12 -70.5h-200q0 30 -23.5 45t-61.5 15q-45 0 -62.5 -15.5t-17.5 -34.5t16 -29.5t42.5 -17t60 -11.5t69 -13t69 -21t60 -36t42.5 -57t16 -85q0 -80 -50 -138.5t-145 -80.5v-111h-200v109z" />
    <glyph glyph-name="percent" unicode="%" horiz-adv-x="795" 
d="M553 700h124l-435 -700h-124zM590 -10q-38 0 -68 12.5t-52 35t-33.5 53.5t-11.5 69q0 37 11.5 68.5t33.5 54t52 35t68 12.5q37 0 67.5 -12.5t52.5 -35t33.5 -54t11.5 -68.5q0 -38 -11.5 -69t-33.5 -53.5t-52.5 -35t-67.5 -12.5zM590 90q26 0 43 18t17 52t-17 52t-43 18
t-43 -18t-17 -52t17 -52t43 -18zM205 370q-38 0 -68 12.5t-52 35t-33.5 53.5t-11.5 69q0 37 11.5 68.5t33.5 54t52 35t68 12.5q37 0 67.5 -12.5t52.5 -35t33.5 -54t11.5 -68.5q0 -38 -11.5 -69t-33.5 -53.5t-52.5 -35t-67.5 -12.5zM205 470q26 0 43 18t17 52t-17 52t-43 18
t-43 -18t-17 -52t17 -52t43 -18z" />
    <glyph glyph-name="ampersand" unicode="&#x26;" horiz-adv-x="685" 
d="M245 -10q-60 0 -103.5 16t-71.5 43t-41.5 63.5t-13.5 77.5q0 38 20.5 81t73.5 78l36 24l-25 27q-24 26 -42 60.5t-18 79.5q0 32 14 62.5t40.5 54.5t65.5 38.5t90 14.5q56 0 97.5 -14.5t68.5 -38.5t40.5 -54.5t13.5 -62.5q0 -42 -17.5 -81.5t-66.5 -74.5l-32 -23l75 -73
l51 52h216l-158 -162l177 -178h-215l-69 70q-15 -11 -35 -25t-45.5 -26t-57 -20.5t-68.5 -8.5zM260 155q40 0 73 31l-86 86l-16 -11q-20 -14 -25.5 -27.5t-5.5 -28.5t13 -32.5t47 -17.5zM291 480q12 10 18 18t6 22t-10.5 24.5t-29.5 10.5q-18 0 -29 -10.5t-11 -24.5
q0 -16 7.5 -26.5t15.5 -19.5l10 -12z" />
    <glyph glyph-name="quotesingle" unicode="'" horiz-adv-x="230" 
d="M40 700h150v-230h-150v230z" />
    <glyph glyph-name="parenleft" unicode="(" horiz-adv-x="390" 
d="M185 -200q-60 87 -95 202.5t-35 262.5t35 262.5t95 202.5h185q-60 -94 -95 -209.5t-35 -255.5t35 -255.5t95 -209.5h-185v0z" />
    <glyph glyph-name="parenright" unicode=")" horiz-adv-x="390" 
d="M20 -200q60 94 95 209.5t35 255.5t-35 255.5t-95 209.5h185q60 -87 95 -202.5t35 -262.5t-35 -262.5t-95 -202.5h-185v0z" />
    <glyph glyph-name="asterisk" unicode="*" horiz-adv-x="476" 
d="M68 392q25 24 45 43q17 17 31.5 30t14.5 14l-124 23l42 131l111 -57l-20 124h140l-20 -124l111 57l42 -131l-124 -23q0 -1 14 -14t31 -30q20 -19 46 -43l-116 -80q-16 31 -27 56q-11 21 -19 38.5t-8 18.5q0 -1 -8.5 -18.5t-18.5 -38.5q-12 -25 -27 -56z" />
    <glyph glyph-name="plus" unicode="+" horiz-adv-x="550" 
d="M205 245h-175v140h175v175h140v-175h175v-140h-175v-175h-140v175z" />
    <glyph glyph-name="comma" unicode="," horiz-adv-x="240" 
d="M40 100h160l-62 -210h-138z" />
    <glyph glyph-name="hyphen" unicode="-" horiz-adv-x="420" 
d="M40 360h340v-150h-340v150z" />
    <glyph glyph-name="period" unicode="." horiz-adv-x="240" 
d="M120 -5q-18 0 -35 7t-30.5 19.5t-21.5 29.5t-8 38t8 39t21.5 30.5t30.5 19.5t35 7t35 -7t30.5 -19.5t21.5 -30.5t8 -39t-8 -38t-21.5 -29.5t-30.5 -19.5t-35 -7z" />
    <glyph glyph-name="slash" unicode="/" horiz-adv-x="475" 
d="M290 730h185l-290 -930h-185z" />
    <glyph glyph-name="zero" unicode="0" horiz-adv-x="690" 
d="M345 -10q-71 0 -129.5 23t-99.5 68.5t-63.5 113t-22.5 155.5t22.5 155.5t63.5 113t99.5 68.5t129.5 23t129 -23t99.5 -68.5t64 -113t22.5 -155.5t-22.5 -155.5t-64 -113t-99.5 -68.5t-129 -23zM345 170q22 0 43 10t37 31.5t25.5 55.5t9.5 83t-9.5 83t-25.5 55.5t-37 31.5
t-43 10q-23 0 -43.5 -10t-36.5 -31.5t-25.5 -55.5t-9.5 -83t9.5 -83t25.5 -55.5t36.5 -31.5t43.5 -10z" />
    <glyph glyph-name="one" unicode="1" horiz-adv-x="445" 
d="M185 450h-145v180h105q40 0 40 40v30h200v-700h-200v450z" />
    <glyph glyph-name="two" unicode="2" horiz-adv-x="615" 
d="M25 185l298 225q12 9 27 25.5t15 39.5t-15.5 39t-49.5 16t-50 -17t-20 -43h-205q2 43 17.5 86t48.5 77t84.5 55.5t124.5 21.5t125 -18t85.5 -48t49 -69t15.5 -80q0 -68 -30.5 -115.5t-79.5 -85.5l-155 -114h275v-180h-560v185z" />
    <glyph glyph-name="three" unicode="3" horiz-adv-x="640" 
d="M325 -10q-54 0 -108.5 11t-98 38t-71 73.5t-27.5 117.5h205q8 -34 34 -47t56 -13q34 0 59.5 12t25.5 38q0 15 -7 24t-18.5 13.5t-27 6t-32.5 1.5h-65v170h65q38 0 56.5 13.5t18.5 36.5q0 45 -75 45q-26 0 -49 -11t-31 -49h-205q8 121 85.5 180.5t209.5 59.5
q54 0 104 -12.5t88 -37t60.5 -62t22.5 -88.5q0 -30 -10 -54.5t-26.5 -43.5t-37 -33.5t-41.5 -23.5q22 -8 44.5 -22t40.5 -34.5t29 -47.5t11 -61q0 -54 -24 -92t-64 -62t-91.5 -35t-105.5 -11z" />
    <glyph glyph-name="four" unicode="4" horiz-adv-x="650" 
d="M355 115h-335v170l270 415h265v-415h90v-170h-90v-115h-200v115zM355 285v199l-130 -199h130z" />
    <glyph glyph-name="five" unicode="5" horiz-adv-x="620" 
d="M315 -10q-56 0 -105.5 15t-87.5 44.5t-62 73.5t-30 102h200q2 -8 7 -17.5t14.5 -17.5t23.5 -14t35 -6q45 0 65 25t20 55q0 13 -4 27t-14 26t-26.5 19.5t-40.5 7.5q-19 0 -32.5 -4t-22.5 -10t-15 -13t-10 -13h-191l41 410h475v-165h-313l-8 -80h6q19 10 48 17.5t67 7.5
q51 0 94.5 -15.5t76 -45.5t51 -74t18.5 -100q0 -49 -16.5 -95t-50.5 -81.5t-87 -57t-126 -21.5z" />
    <glyph glyph-name="six" unicode="6" horiz-adv-x="620" 
d="M310 -10q-66 0 -118.5 19.5t-89.5 53.5t-57 81t-20 101q0 67 22.5 119t52.5 100q19 30 44.5 70.5t49.5 77.5q27 43 57 88h220l-133 -210q57 0 104.5 -17t81 -49t52.5 -77.5t19 -101.5q0 -54 -20 -101t-57 -81t-89.5 -53.5t-118.5 -19.5zM310 170q34 0 59.5 19t25.5 61
t-25.5 61t-59.5 19t-59.5 -19t-25.5 -61t25.5 -61t59.5 -19z" />
    <glyph glyph-name="seven" unicode="7" horiz-adv-x="555" 
d="M315 520h-295v180h510v-180l-230 -520h-215z" />
    <glyph glyph-name="eight" unicode="8" horiz-adv-x="640" 
d="M320 -10q-74 0 -128.5 16t-90.5 44.5t-53.5 68t-17.5 86.5q0 57 32.5 99t77.5 61q-38 19 -66.5 54t-28.5 91q0 49 22 86t59.5 62.5t87.5 38.5t106 13t106 -13t87.5 -38.5t59.5 -62.5t22 -86q0 -28 -8 -50.5t-21 -40.5t-30 -31.5t-36 -22.5q45 -19 77.5 -61t32.5 -99
q0 -47 -18 -86.5t-54 -68t-90.5 -44.5t-127.5 -16zM320 150q42 0 66 20t24 50t-24 50t-66 20t-66 -20t-24 -50t24 -50t66 -20zM320 430q30 0 52.5 15t22.5 45t-22.5 45t-52.5 15t-52.5 -15t-22.5 -45t22.5 -45t52.5 -15z" />
    <glyph glyph-name="nine" unicode="9" horiz-adv-x="620" 
d="M282 210q-57 0 -104.5 17t-81 49t-52.5 77.5t-19 101.5q0 54 20 101t57 81t89.5 53.5t118.5 19.5t118.5 -19.5t89.5 -53.5t57 -81t20 -101q0 -34 -6 -63.5t-16.5 -56t-24 -51t-28.5 -48.5q-19 -30 -45 -70.5t-49 -77.5q-28 -43 -57 -88h-220zM310 370q34 0 59.5 19
t25.5 61t-25.5 61t-59.5 19t-59.5 -19t-25.5 -61t25.5 -61t59.5 -19z" />
    <glyph glyph-name="colon" unicode=":" horiz-adv-x="240" 
d="M120 -5q-18 0 -35 7t-30.5 19.5t-21.5 29.5t-8 38t8 39t21.5 30.5t30.5 19.5t35 7t35 -7t30.5 -19.5t21.5 -30.5t8 -39t-8 -38t-21.5 -29.5t-30.5 -19.5t-35 -7zM120 355q-18 0 -35 7t-30.5 19.5t-21.5 29.5t-8 38t8 39t21.5 30.5t30.5 19.5t35 7t35 -7t30.5 -19.5
t21.5 -30.5t8 -39t-8 -38t-21.5 -29.5t-30.5 -19.5t-35 -7z" />
    <glyph glyph-name="semicolon" unicode=";" horiz-adv-x="240" 
d="M40 100h160l-62 -210h-138zM120 355q-18 0 -35 7t-30.5 19.5t-21.5 29.5t-8 38t8 39t21.5 30.5t30.5 19.5t35 7t35 -7t30.5 -19.5t21.5 -30.5t8 -39t-8 -38t-21.5 -29.5t-30.5 -19.5t-35 -7z" />
    <glyph glyph-name="less" unicode="&#x3c;" horiz-adv-x="500" 
d="M25 250v130l450 220v-160l-270 -125l270 -125v-160z" />
    <glyph glyph-name="equal" unicode="=" horiz-adv-x="550" 
d="M30 265h490v-140h-490v140zM30 500h490v-140h-490v140z" />
    <glyph glyph-name="greater" unicode="&#x3e;" horiz-adv-x="500" 
d="M25 190l270 125l-270 125v160l450 -220v-130l-450 -220v160z" />
    <glyph glyph-name="question" unicode="?" horiz-adv-x="530" 
d="M264 -5q-18 0 -35 7t-30.5 19.5t-21.5 29.5t-8 38t8 39t21.5 30.5t30.5 19.5t35 7t35 -7t30.5 -19.5t21.5 -30.5t8 -39t-8 -38t-21.5 -29.5t-30.5 -19.5t-35 -7zM170 290q0 47 10.5 77.5t27 49.5t35 30t35 19.5t27 18t10.5 25.5q0 19 -17.5 27t-32.5 8q-30 0 -45 -13.5
t-15 -36.5h-195q0 102 66.5 158.5t183.5 56.5q58 0 104.5 -13.5t78.5 -38t49.5 -58.5t17.5 -75q0 -40 -12 -66t-29.5 -44t-38.5 -30t-38.5 -25t-29.5 -29t-12 -41v-40h-180v40z" />
    <glyph glyph-name="at" unicode="@" horiz-adv-x="935" 
d="M450 -115q-101 0 -178.5 30.5t-130 86t-79.5 132.5t-27 171t32 169.5t90 129t137.5 82.5t175.5 29q107 0 188.5 -33.5t136 -87.5t82.5 -122t28 -137q0 -64 -16.5 -110t-44 -76t-64 -44.5t-75.5 -14.5q-29 0 -51 6.5t-37.5 16.5t-25.5 21.5t-16 20.5h-5
q-8 -11 -18.5 -22.5t-26 -21t-36.5 -15.5t-49 -6q-49 0 -84 17.5t-57.5 46.5t-33 67t-10.5 79t11 79t33 67t55 46.5t76 17.5q21 0 36.5 -2.5t28 -8t23.5 -13t22 -16.5h5l10 35h105v-234q0 -27 13 -42t32 -15q34 0 49.5 25.5t15.5 85.5q0 39 -15 84.5t-50.5 84.5t-93 65
t-141.5 26q-73 0 -129 -22.5t-94 -61t-57.5 -89.5t-19.5 -107q0 -66 16.5 -118.5t50.5 -89.5t87 -57t126 -20h165v-135h-165zM460 205q13 0 27 4.5t26 15t19.5 29t7.5 46.5t-7.5 46.5t-19.5 29t-26 15t-27 4.5q-34 0 -57 -23t-23 -72t23 -72t57 -23z" />
    <glyph glyph-name="A" unicode="A" horiz-adv-x="705" 
d="M235 700h235l245 -700h-210l-31 100h-244l-30 -100h-210zM411 280l-59 210l-58 -210h117z" />
    <glyph glyph-name="B" unicode="B" horiz-adv-x="680" 
d="M60 700h355q113 0 169 -52t56 -143q0 -26 -7.5 -49.5t-20.5 -43t-29 -34t-33 -23.5q19 -9 37 -23.5t32 -34t22.5 -45t8.5 -57.5q0 -41 -12.5 -77t-40 -62t-70 -41t-102.5 -15h-365v700zM390 170q30 0 45 13.5t15 36.5t-15 36.5t-45 13.5h-130v-100h130zM380 430
q30 0 45 13.5t15 36.5t-15 36.5t-45 13.5h-120v-100h120z" />
    <glyph glyph-name="C" unicode="C" horiz-adv-x="715" 
d="M370 -10q-75 0 -137.5 23t-107.5 68.5t-70 113t-25 155.5t25 155.5t70 113t107.5 68.5t137.5 23t131 -20t95 -55.5t62 -83t32 -101.5h-205q-6 11 -13 25t-20 26t-32.5 20.5t-49.5 8.5q-38 0 -64.5 -13.5t-43 -37.5t-24.5 -57t-8 -72t8 -72t24.5 -57t43 -37.5t64.5 -13.5
q30 0 49.5 8.5t32.5 20.5t20 26t13 25h205q-9 -54 -32 -101.5t-62 -83t-95 -55.5t-131 -20z" />
    <glyph glyph-name="D" unicode="D" horiz-adv-x="710" 
d="M60 700h295q77 0 137.5 -25t102 -71t63.5 -110.5t22 -143.5t-22 -143.5t-63.5 -110.5t-102 -71t-137.5 -25h-295v700zM345 180q26 0 50.5 12t43 34t30 53.5t11.5 70.5t-11.5 70.5t-30 53.5t-43 34t-50.5 12h-85v-340h85z" />
    <glyph glyph-name="E" unicode="E" horiz-adv-x="605" 
d="M60 700h500v-180h-300v-85h280v-165h-280v-90h310v-180h-510v700z" />
    <glyph glyph-name="F" unicode="F" horiz-adv-x="590" 
d="M60 700h500v-180h-300v-110h275v-180h-275v-230h-200v700z" />
    <glyph glyph-name="G" unicode="G" horiz-adv-x="730" 
d="M370 -10q-75 0 -137.5 23t-107.5 68.5t-70 113t-25 155.5t25 155.5t70 113t107.5 68.5t137.5 23t131 -20.5t95 -55.5t62 -82.5t32 -101.5h-205q-3 8 -10 21.5t-20.5 26.5t-34 22.5t-50.5 9.5q-38 0 -64.5 -13.5t-43 -37.5t-24.5 -57t-8 -72t8 -72t25 -57t45 -37.5
t67 -13.5q28 0 48 6.5t33.5 17t21.5 22.5t13 24h-141v150h350v-65q0 -75 -23.5 -136.5t-66.5 -106t-104 -68.5t-136 -24z" />
    <glyph glyph-name="H" unicode="H" horiz-adv-x="730" 
d="M60 700h200v-255h210v255h200v-700h-200v265h-210v-265h-200v700z" />
    <glyph glyph-name="I" unicode="I" horiz-adv-x="320" 
d="M60 700h200v-700h-200v700z" />
    <glyph glyph-name="J" unicode="J" horiz-adv-x="580" 
d="M275 -10q-125 0 -190 64t-65 181h200q0 -65 55 -65q23 0 36.5 14t13.5 56v460h200v-460q0 -121 -64.5 -185.5t-185.5 -64.5z" />
    <glyph glyph-name="K" unicode="K" horiz-adv-x="685" 
d="M60 700h200v-295l200 295h230l-240 -345l255 -355h-230l-215 305v-305h-200v700z" />
    <glyph glyph-name="L" unicode="L" horiz-adv-x="570" 
d="M60 700h200v-520h290v-180h-490v700z" />
    <glyph glyph-name="M" unicode="M" horiz-adv-x="955" 
d="M60 700h280l137 -425l138 425h280v-700h-200v429l-138 -429h-159l-138 429v-429h-200v700z" />
    <glyph glyph-name="N" unicode="N" horiz-adv-x="775" 
d="M60 700h250l205 -404v404h200v-700h-250l-205 404v-404h-200v700z" />
    <glyph glyph-name="O" unicode="O" horiz-adv-x="740" 
d="M370 -10q-75 0 -137.5 23t-107.5 68.5t-70 113t-25 155.5t25 155.5t70 113t107.5 68.5t137.5 23t137.5 -23t107.5 -68.5t70 -113t25 -155.5t-25 -155.5t-70 -113t-107.5 -68.5t-137.5 -23zM370 170q37 0 64 13.5t43.5 37.5t24.5 57t8 72t-8 72t-24.5 57t-43.5 37.5
t-64 13.5q-38 0 -64.5 -13.5t-43 -37.5t-24.5 -57t-8 -72t8 -72t24.5 -57t43 -37.5t64.5 -13.5z" />
    <glyph glyph-name="P" unicode="P" horiz-adv-x="660" 
d="M60 700h310q58 0 106 -19t82 -52.5t53 -80.5t19 -103t-19 -103t-53 -81t-82 -52.5t-106 -18.5h-110v-190h-200v700zM350 370q38 0 59 20.5t21 54.5t-21 54.5t-59 20.5h-90v-150h90z" />
    <glyph glyph-name="Q" unicode="Q" horiz-adv-x="740" 
d="M427 -6q-14 -2 -28.5 -3t-28.5 -1q-75 0 -137.5 23t-107.5 68.5t-70 113t-25 155.5t25 155.5t70 113t107.5 68.5t137.5 23t137.5 -23t107.5 -68.5t70 -113t25 -155.5q0 -97 -29.5 -168t-83.5 -117l113 -165h-220zM370 170q37 0 64 13.5t43.5 37.5t24.5 57t8 72t-8 72
t-24.5 57t-43.5 37.5t-64 13.5q-38 0 -64.5 -13.5t-43 -37.5t-24.5 -57t-8 -72t8 -72t24.5 -57t43 -37.5t64.5 -13.5z" />
    <glyph glyph-name="R" unicode="R" horiz-adv-x="670" 
d="M60 700h320q58 0 104.5 -18.5t78.5 -51t49.5 -76.5t17.5 -94q0 -41 -9.5 -73t-23.5 -56t-30 -40t-30 -26.5t-23 -15l-9 -4.5l155 -245h-220l-132 220h-48v-220h-200v700zM365 400q30 0 47.5 17t17.5 43t-17.5 43t-47.5 17h-105v-120h105z" />
    <glyph glyph-name="S" unicode="S" horiz-adv-x="635" 
d="M315 -10q-62 0 -116.5 14.5t-95.5 44t-65.5 74.5t-27.5 107h200q0 -31 26 -50.5t79 -19.5q56 0 75.5 16t19.5 39q0 25 -28 35.5t-69.5 17t-90 15.5t-90 31t-69.5 63.5t-28 112.5q0 60 25 102t64.5 68.5t89.5 38t101 11.5q78 0 133 -19t89.5 -51t50.5 -73.5t17 -86.5h-200
q0 30 -23.5 45t-61.5 15q-45 0 -62.5 -15.5t-17.5 -34.5t16 -29.5t42.5 -17t60 -11.5t69 -13t69 -21t60 -36t42.5 -57t16 -85q0 -50 -19.5 -92t-58 -72.5t-94.5 -48t-128 -17.5z" />
    <glyph glyph-name="T" unicode="T" horiz-adv-x="610" 
d="M205 520h-195v180h590v-180h-195v-520h-200v520z" />
    <glyph glyph-name="U" unicode="U" horiz-adv-x="730" 
d="M365 -10q-71 0 -128.5 22t-98 63t-62 100.5t-21.5 134.5v390h200v-390q0 -72 30.5 -106t79.5 -34t79.5 34t30.5 106v390h200v-390q0 -75 -21.5 -134.5t-62 -100.5t-98 -63t-128.5 -22z" />
    <glyph glyph-name="V" unicode="V" horiz-adv-x="685" 
d="M-5 700h210l138 -490l137 490h210l-225 -700h-245z" />
    <glyph glyph-name="W" unicode="W" horiz-adv-x="984" 
d="M5 700h205l89 -415l111 415h164l110 -415l90 415h205l-180 -700h-195l-112 375l-112 -375h-195z" />
    <glyph glyph-name="X" unicode="X" horiz-adv-x="670" 
d="M205 360l-215 340h225l120 -215l120 215h225l-215 -340l225 -360h-225l-130 235l-130 -235h-225z" />
    <glyph glyph-name="Y" unicode="Y" horiz-adv-x="645" 
d="M222 215l-242 485h215l127 -300l128 300h215l-243 -485v-215h-200v215z" />
    <glyph glyph-name="Z" unicode="Z" horiz-adv-x="625" 
d="M30 150l300 380h-290v170h550v-150l-305 -380h305v-170h-560v150z" />
    <glyph glyph-name="bracketleft" unicode="[" horiz-adv-x="370" 
d="M60 730h290v-170h-110v-590h110v-170h-290v930z" />
    <glyph glyph-name="backslash" unicode="\" horiz-adv-x="475" 
d="M0 730h185l290 -930h-185z" />
    <glyph glyph-name="bracketright" unicode="]" horiz-adv-x="370" 
d="M20 -30h110v590h-110v170h290v-930h-290v170z" />
    <glyph glyph-name="asciicircum" unicode="^" horiz-adv-x="485" 
d="M170 700h145l150 -320h-145l-75 175h-5l-75 -175h-145z" />
    <glyph glyph-name="underscore" unicode="_" horiz-adv-x="480" 
d="M-25 -100h530v-150h-530v150z" />
    <glyph glyph-name="grave" unicode="`" horiz-adv-x="310" 
d="M30 765h160l90 -150h-130z" />
    <glyph glyph-name="a" unicode="a" horiz-adv-x="580" 
d="M215 -10q-45 0 -80.5 13t-59.5 36t-37 54t-13 67q0 34 12.5 64t38.5 52.5t67 35.5t97 13h115v20q0 19 -18 34.5t-52 15.5q-45 0 -60 -30h-180q6 34 22.5 67t46 59t73 42.5t103.5 16.5q56 0 101.5 -13t77.5 -40t49 -67.5t17 -94.5v-335h-160l-15 50h-5q-8 -9 -20 -19.5
t-29.5 -19.5t-40 -15t-50.5 -6zM260 135q45 0 70 22t25 48v10h-100q-50 0 -50 -40q0 -15 12.5 -27.5t42.5 -12.5z" />
    <glyph glyph-name="b" unicode="b" horiz-adv-x="635" 
d="M370 -10q-28 0 -50 6t-38.5 15t-28 19.5t-18.5 19.5h-5l-15 -50h-160v700h180v-205h5l11 11t25 18.5t39.5 17.5t54.5 8q52 0 95.5 -17.5t74.5 -53t48 -88t17 -121.5t-17 -121.5t-48 -88t-74.5 -53t-95.5 -17.5zM330 150q42 0 68.5 30t26.5 90t-26.5 90t-68.5 30
t-68.5 -30t-26.5 -90t26.5 -90t68.5 -30z" />
    <glyph glyph-name="c" unicode="c" horiz-adv-x="595" 
d="M305 -10q-132 0 -203.5 72t-71.5 208t71.5 208t203.5 72q67 0 115 -21t79.5 -54t48 -73t22.5 -77h-180q-11 30 -31.5 47.5t-58.5 17.5t-64 -30t-26 -90t26 -90t64 -30t58.5 17.5t31.5 47.5h180q-6 -38 -22.5 -77.5t-48 -72.5t-79.5 -54t-115 -21z" />
    <glyph glyph-name="d" unicode="d" horiz-adv-x="635" 
d="M265 -10q-53 0 -96 17.5t-74 53t-48 88t-17 121.5t17 121.5t48 88t74 53t96 17.5q31 0 54.5 -8t39.5 -17.5t25 -18.5l11 -11h5v205h180v-700h-160l-15 50h-5q-8 -9 -19 -19.5t-27.5 -19.5t-38.5 -15t-50 -6zM305 150q42 0 68.5 30t26.5 90t-26.5 90t-68.5 30t-68.5 -30
t-26.5 -90t26.5 -90t68.5 -30z" />
    <glyph glyph-name="e" unicode="e" horiz-adv-x="610" 
d="M310 -10q-136 0 -208 72t-72 208t74 208t206 72q67 0 118 -22.5t84.5 -61t50.5 -89t17 -107.5q0 -11 -1 -21t-2 -18q-1 -9 -2 -16h-370q2 -11 8 -25t17.5 -26t28.5 -20.5t41 -8.5q22 0 37.5 4t26 10t16.5 13t10 13h180q-6 -24 -22 -56t-46.5 -60.5t-77.5 -48.5t-114 -20z
M405 330q-8 30 -31.5 52.5t-68.5 22.5t-68.5 -22.5t-31.5 -52.5h200z" />
    <glyph glyph-name="f" unicode="f" horiz-adv-x="430" 
d="M105 375h-85v165h85v40q0 86 42.5 128t147.5 42h115v-155h-85q-19 0 -29.5 -13t-10.5 -32v-10h125v-165h-125v-375h-180v375z" />
    <glyph glyph-name="g" unicode="g" horiz-adv-x="630" 
d="M315 -200q-78 0 -129 20t-81 49.5t-43.5 63.5t-16.5 62h180q4 -13 12.5 -21.5t20.5 -14t25.5 -7.5t26.5 -2q49 0 69.5 19t20.5 61v55h-5q-4 -6 -13.5 -15t-25.5 -18t-38.5 -15.5t-52.5 -6.5q-49 0 -91.5 17.5t-74.5 50t-50.5 80t-18.5 107.5t18.5 109t51.5 83.5
t77.5 53.5t97.5 19q28 0 50 -6t38.5 -14.5t28 -18t18.5 -16.5h5l15 45h150v-510q0 -113 -63 -171.5t-202 -58.5zM305 180q42 0 68.5 28.5t26.5 81.5t-26.5 81.5t-68.5 28.5t-68.5 -28.5t-26.5 -81.5t26.5 -81.5t68.5 -28.5z" />
    <glyph glyph-name="h" unicode="h" horiz-adv-x="615" 
d="M55 700h180v-200h5q23 20 57 35t83 15q32 0 65.5 -11t61.5 -36.5t45.5 -66.5t17.5 -101v-335h-180v300q0 42 -21 63.5t-57 21.5q-35 0 -56 -21.5t-21 -63.5v-300h-180v700z" />
    <glyph glyph-name="i" unicode="i" horiz-adv-x="280" 
d="M50 540h180v-540h-180v540zM140 580q-49 0 -74.5 26.5t-25.5 68.5t25.5 68.5t74.5 26.5t74.5 -26.5t25.5 -68.5t-25.5 -68.5t-74.5 -26.5z" />
    <glyph glyph-name="j" unicode="j" horiz-adv-x="280" 
d="M-75 -40h85q19 0 29.5 13t10.5 32v535h180v-570q0 -86 -42.5 -128t-147.5 -42h-115v160zM140 580q-49 0 -74.5 26.5t-25.5 68.5t25.5 68.5t74.5 26.5t74.5 -26.5t25.5 -68.5t-25.5 -68.5t-74.5 -26.5z" />
    <glyph glyph-name="k" unicode="k" horiz-adv-x="595" 
d="M55 700h180v-385l155 225h210l-185 -265l200 -275h-210l-170 235v-235h-180v700z" />
    <glyph glyph-name="l" unicode="l" horiz-adv-x="290" 
d="M55 700h180v-700h-180v700z" />
    <glyph glyph-name="m" unicode="m" horiz-adv-x="895" 
d="M50 540h160l15 -50h5q19 26 48.5 43t71.5 17q39 0 67 -12.5t45 -27.5q20 -18 33 -40h5q13 22 35 40q18 15 47.5 27.5t72.5 12.5q32 0 66.5 -11t63 -36.5t47 -66.5t18.5 -101v-335h-180v300q0 45 -18 65t-47 20q-28 0 -46.5 -20t-18.5 -65v-300h-180v300q0 45 -18 65
t-47 20q-28 0 -46.5 -20t-18.5 -65v-300h-180v540z" />
    <glyph glyph-name="n" unicode="n" horiz-adv-x="610" 
d="M50 540h160l15 -50h5q26 28 61 44t84 16q32 0 65.5 -11t61.5 -36.5t45.5 -66.5t17.5 -101v-335h-180v300q0 42 -21 63.5t-57 21.5q-35 0 -56 -21.5t-21 -63.5v-300h-180v540z" />
    <glyph glyph-name="o" unicode="o" horiz-adv-x="610" 
d="M305 -10q-132 0 -203.5 72t-71.5 208t71.5 208t203.5 72t203.5 -72t71.5 -208t-71.5 -208t-203.5 -72zM305 150q42 0 68.5 30t26.5 90t-26.5 90t-68.5 30t-68.5 -30t-26.5 -90t26.5 -90t68.5 -30z" />
    <glyph glyph-name="p" unicode="p" horiz-adv-x="630" 
d="M50 540h160l15 -50h5q7 9 18.5 19.5t28 19.5t38.5 15t50 6q52 0 95.5 -17.5t74.5 -53t48 -88t17 -121.5t-17 -121.5t-48 -88t-74.5 -53t-95.5 -17.5q-31 0 -54.5 8t-39.5 17.5t-25 18.5l-11 11h-5v-245h-180v740zM325 150q42 0 68.5 30t26.5 90t-26.5 90t-68.5 30
t-68.5 -30t-26.5 -90t26.5 -90t68.5 -30z" />
    <glyph glyph-name="q" unicode="q" horiz-adv-x="630" 
d="M400 45h-5l-11 -11t-25 -18.5t-39.5 -17.5t-54.5 -8q-53 0 -96 17.5t-74 53t-48 88t-17 121.5t17 121.5t48 88t74 53t96 17.5q28 0 50 -6t38.5 -15t27.5 -19.5t19 -19.5h5l15 50h160v-740h-180v245zM305 150q42 0 68.5 30t26.5 90t-26.5 90t-68.5 30t-68.5 -30t-26.5 -90
t26.5 -90t68.5 -30z" />
    <glyph glyph-name="r" unicode="r" horiz-adv-x="440" 
d="M50 540h160l15 -50h5q11 14 26.5 23.5t32 15.5t32.5 8.5t29 2.5h80v-170h-70q-60 0 -95 -31.5t-35 -103.5v-235h-180v540z" />
    <glyph glyph-name="s" unicode="s" horiz-adv-x="550" 
d="M270 -10q-75 0 -124.5 19t-79 48t-42 63.5t-14.5 64.5h180q4 -21 25 -35.5t55 -14.5q38 0 59 8t21 27q0 17 -23.5 24.5t-59.5 12.5t-77 12t-77 24.5t-59.5 49.5t-23.5 87q0 75 61.5 122.5t178.5 47.5q71 0 119 -17t77.5 -43.5t43 -59.5t15.5 -65h-180q0 16 -16 28t-54 12
q-9 0 -19.5 -1t-19.5 -4.5t-15 -9.5t-6 -15q0 -16 23.5 -22.5t58.5 -11t75.5 -11.5t75.5 -25t58.5 -51t23.5 -89q0 -24 -9.5 -54.5t-38 -57.5t-79.5 -45t-133 -18z" />
    <glyph glyph-name="t" unicode="t" horiz-adv-x="450" 
d="M295 0q-105 0 -147.5 42t-42.5 128v205h-85v165h85l30 140h150v-140h125v-165h-125v-170q0 -19 10.5 -32t29.5 -13h85v-160h-115v0z" />
    <glyph glyph-name="u" unicode="u" horiz-adv-x="615" 
d="M240 -10q-32 0 -65.5 11t-61.5 36.5t-45.5 66.5t-17.5 101v335h180v-300q0 -42 21 -63.5t57 -21.5q35 0 56 21.5t21 63.5v300h180v-540h-160l-15 50h-5q-26 -28 -61 -44t-84 -16z" />
    <glyph glyph-name="v" unicode="v" horiz-adv-x="565" 
d="M-5 540h190l98 -380l97 380h190l-175 -540h-225z" />
    <glyph glyph-name="w" unicode="w" horiz-adv-x="855" 
d="M5 540h190l68 -320l82 320h165l82 -320l68 320h190l-140 -540h-200l-83 280l-82 -280h-200z" />
    <glyph glyph-name="x" unicode="x" horiz-adv-x="530" 
d="M145 280l-150 260h200l70 -150l70 150h200l-150 -260l160 -280h-200l-80 160l-80 -160h-200z" />
    <glyph glyph-name="y" unicode="y" horiz-adv-x="595" 
d="M200 0l-210 540h200l110 -330l105 330h200l-290 -740h-195z" />
    <glyph glyph-name="z" unicode="z" horiz-adv-x="530" 
d="M30 140l225 240h-215v160h450v-140l-225 -240h230v-160h-465v140z" />
    <glyph glyph-name="braceleft" unicode="{" horiz-adv-x="400" 
d="M265 -200q-94 0 -134.5 45.5t-40.5 139.5v125q0 22 -6 37t-16 23t-22.5 11.5t-25.5 3.5v160q13 0 25.5 3.5t22.5 11.5t16 22.5t6 37.5v125q0 94 40.5 139.5t134.5 45.5h115v-170h-40q-70 0 -70 -70v-85q0 -38 -9 -62t-23.5 -38.5t-31 -21t-31.5 -8.5v-20q15 -2 31.5 -8.5
t31 -21t23.5 -39t9 -61.5v-85q0 -70 70 -70h40v-170h-115v0z" />
    <glyph glyph-name="bar" unicode="|" horiz-adv-x="420" 
d="M120 730h180v-930h-180v930z" />
    <glyph glyph-name="braceright" unicode="}" horiz-adv-x="400" 
d="M20 -30h40q70 0 70 70v85q0 37 9 61.5t23.5 39t31 21t31.5 8.5v20q-15 2 -31.5 8.5t-31 21t-23.5 38.5t-9 62v85q0 70 -70 70h-40v170h115q94 0 134.5 -45.5t40.5 -139.5v-125q0 -23 6 -37.5t16 -22.5t22.5 -11.5t25.5 -3.5v-160q-13 0 -25.5 -3.5t-22.5 -11.5t-16 -23
t-6 -37v-125q0 -94 -40.5 -139.5t-134.5 -45.5h-115v170z" />
    <glyph glyph-name="asciitilde" unicode="~" horiz-adv-x="645" 
d="M420 210q-39 0 -65 10t-45.5 22.5t-35 22.5t-34.5 10q-26 0 -40.5 -17t-14.5 -43h-145q0 52 14 91.5t39 66t59 39.5t73 13t65 -10t45.5 -22.5t35 -22.5t34.5 -10q26 0 40.5 17t14.5 43h145q0 -53 -14 -92t-39 -65.5t-59 -39.5t-73 -13z" />
    <glyph glyph-name="nonbreakingspace" unicode="&#xa0;" horiz-adv-x="240" 
 />
    <glyph glyph-name="exclamdown" unicode="&#xa1;" horiz-adv-x="300" 
d="M60 -110l15 390h150l15 -390v-90h-180v90zM150 355q-18 0 -35 7t-30.5 19.5t-21.5 29.5t-8 38t8 39t21.5 30.5t30.5 19.5t35 7t35 -7t30.5 -19.5t21.5 -30.5t8 -39t-8 -38t-21.5 -29.5t-30.5 -19.5t-35 -7z" />
    <glyph glyph-name="cent" unicode="&#xa2;" horiz-adv-x="595" 
d="M210 1q-88 23 -134 91.5t-46 177.5t46 177t134 91v92h180v-91q44 -12 76 -35.5t53.5 -53t33.5 -62t17 -63.5h-180q-11 30 -31.5 47.5t-58.5 17.5t-64 -30t-26 -90t26 -90t64 -30t58.5 17.5t31.5 47.5h180q-5 -31 -17 -64t-33.5 -62.5t-53.5 -53t-76 -35.5v-110h-180v111z
" />
    <glyph glyph-name="sterling" unicode="&#xa3;" horiz-adv-x="615" 
d="M20 180h30q55 0 55 60v15h-85v175h85v40q0 117 64 178.5t181 61.5q66 0 111.5 -17.5t74.5 -48.5t43 -73t16 -91h-205q0 19 -8.5 34.5t-31.5 15.5q-45 0 -45 -60v-40h145v-175h-145v-15q0 -17 -4 -28.5t-9 -18.5q-5 -8 -12 -13h320v-180h-580v180z" />
    <glyph glyph-name="currency" unicode="&#xa4;" horiz-adv-x="590" 
d="M30 131l68 68q-16 26 -24.5 56.5t-8.5 64.5q0 69 33 122l-68 68l80 71l64 -64q26 16 56.5 24.5t64.5 8.5t64.5 -8.5t56.5 -24.5l64 64l80 -71l-68 -68q16 -26 24.5 -57t8.5 -65t-8.5 -64.5t-24.5 -56.5l68 -68l-80 -71l-63 63q-53 -33 -122 -33q-70 0 -122 33l-63 -63z
M295 200q54 0 87 33.5t33 86.5t-33 86.5t-87 33.5t-87 -33.5t-33 -86.5t33 -86.5t87 -33.5z" />
    <glyph glyph-name="yen" unicode="&#xa5;" horiz-adv-x="645" 
d="M222 75h-161v150h161v40h-161v150h77l-148 285h215l117 -290l118 290h215l-148 -285h77v-150h-162v-40h162v-150h-162v-75h-200v75z" />
    <glyph glyph-name="brokenbar" unicode="&#xa6;" horiz-adv-x="420" 
d="M120 180h180v-380h-180v380zM120 730h180v-380h-180v380z" />
    <glyph glyph-name="section" unicode="&#xa7;" horiz-adv-x="630" 
d="M315 -120q-54 0 -99.5 13t-79.5 38.5t-54.5 62.5t-26.5 86h190q4 -15 12.5 -24t19.5 -13.5t22.5 -6t20.5 -1.5q23 0 41.5 8t18.5 27t-25 26.5t-63 13t-82 13t-82 26.5t-63 53t-25 93q0 42 23.5 75t52.5 50q-21 17 -38.5 47.5t-17.5 62.5q0 83 65 131.5t190 48.5
q54 0 99.5 -13t79 -37t54.5 -59.5t27 -80.5h-190q-4 11 -12.5 18t-19.5 10.5t-22.5 5t-20.5 1.5q-23 0 -41.5 -8t-18.5 -27t25 -26.5t63 -13t82 -13t82 -26.5t63 -53t25 -93q0 -42 -23.5 -75t-52.5 -50q21 -17 38.5 -47.5t17.5 -62.5q0 -83 -65 -131.5t-190 -48.5zM382 249
q10 8 14 16t4 20q0 19 -15 27.5t-37.5 13t-49 7t-50.5 8.5q-10 -8 -14 -16t-4 -20q0 -19 14.5 -27.5t37 -13t49.5 -7t51 -8.5z" />
    <glyph glyph-name="dieresis" unicode="&#xa8;" horiz-adv-x="440" 
d="M113 610q-34 0 -58.5 22.5t-24.5 59.5t24.5 60t58.5 23q33 0 57.5 -23t24.5 -60t-24.5 -59.5t-57.5 -22.5zM328 610q-34 0 -58.5 22.5t-24.5 59.5t24.5 60t58.5 23q33 0 57.5 -23t24.5 -60t-24.5 -59.5t-57.5 -22.5z" />
    <glyph glyph-name="copyright" unicode="&#xa9;" horiz-adv-x="800" 
d="M400 -10q-79 0 -145 26.5t-114 74.5t-74.5 114t-26.5 145t26.5 145t74.5 114t114 74.5t145 26.5t145 -26.5t114 -74.5t74.5 -114t26.5 -145t-26.5 -145t-74.5 -114t-114 -74.5t-145 -26.5zM400 95q54 0 100 18t79.5 51.5t52 80.5t18.5 105t-18.5 105t-52 80.5t-79.5 51.5
t-100 18t-100 -18t-79.5 -51.5t-52 -80.5t-18.5 -105t18.5 -105t52 -80.5t79.5 -51.5t100 -18zM400 160q-83 0 -131.5 49.5t-48.5 140.5t48.5 140.5t131.5 49.5q43 0 73.5 -12.5t51 -33t31 -45.5t14.5 -49h-105q-8 19 -23.5 32t-41.5 13q-38 0 -56.5 -25t-18.5 -70t18.5 -70
t56.5 -25q26 0 41.5 13t23.5 32h105q-4 -24 -14.5 -49t-31 -45.5t-51 -33t-73.5 -12.5z" />
    <glyph glyph-name="ordfeminine" unicode="&#xaa;" horiz-adv-x="360" 
d="M140 350q-34 0 -57 11t-37 27.5t-20 35.5t-6 36q0 45 33 77.5t97 32.5h75v10q0 15 -8.5 27.5t-31.5 12.5t-30 -9.5t-10 -15.5h-105q2 22 11 43t26 37t43.5 25.5t64.5 9.5q72 0 108.5 -35t36.5 -95v-225h-95l-4 30h-5q-5 -4 -12 -10t-17 -11.5t-24 -9.5t-33 -4zM160 440
q34 0 49.5 17.5t15.5 32.5v10h-65q-40 0 -40 -30t40 -30z" />
    <glyph glyph-name="guillemotleft" unicode="&#xab;" horiz-adv-x="760" 
d="M30 275l220 245h195l-220 -242v-6l220 -242h-195zM325 275l220 245h195l-220 -242v-6l220 -242h-195z" />
    <glyph glyph-name="logicalnot" unicode="&#xac;" horiz-adv-x="540" 
d="M365 240h-335v140h475v-235h-140v95z" />
    <glyph glyph-name="uni00AD" unicode="&#xad;" horiz-adv-x="420" 
d="M40 360h340v-150h-340v150z" />
    <glyph glyph-name="registered" unicode="&#xae;" horiz-adv-x="800" 
d="M400 -10q-79 0 -145 26.5t-114 74.5t-74.5 114t-26.5 145t26.5 145t74.5 114t114 74.5t145 26.5t145 -26.5t114 -74.5t74.5 -114t26.5 -145t-26.5 -145t-74.5 -114t-114 -74.5t-145 -26.5zM400 95q54 0 100 18t79.5 51.5t52 80.5t18.5 105t-18.5 105t-52 80.5t-79.5 51.5
t-100 18t-100 -18t-79.5 -51.5t-52 -80.5t-18.5 -105t18.5 -105t52 -80.5t79.5 -51.5t100 -18zM260 540h160q37 0 64 -10.5t43.5 -27.5t24.5 -40t8 -47q0 -38 -17 -67t-53 -46l80 -137h-117l-73 125h-15v-125h-105v375zM410 385q19 0 32 5.5t13 24.5t-13 24.5t-32 5.5h-45
v-60h45z" />
    <glyph glyph-name="macron" unicode="&#xaf;" horiz-adv-x="370" 
d="M30 745h310v-115h-310v115z" />
    <glyph glyph-name="degree" unicode="&#xb0;" horiz-adv-x="400" 
d="M200 410q-34 0 -63 11t-50.5 31.5t-34 50t-12.5 67.5q0 37 12.5 67t34 50.5t50.5 31.5t63 11t63 -11t50.5 -31.5t34 -50.5t12.5 -67q0 -38 -12.5 -67.5t-34 -50t-50.5 -31.5t-63 -11zM200 510q25 0 40 17t15 43t-15 43t-40 17t-40 -17t-15 -43t15 -43t40 -17z" />
    <glyph glyph-name="plusminus" unicode="&#xb1;" horiz-adv-x="550" 
d="M30 150h490v-140h-490v140zM205 355h-175v140h175v165h140v-165h175v-140h-175v-165h-140v165z" />
    <glyph glyph-name="uni00B2" unicode="&#xb2;" horiz-adv-x="345" 
d="M25 495l135 120q19 17 32 31.5t13 33.5q0 15 -10 22.5t-25 7.5q-19 0 -27 -10t-8 -25h-110q0 60 35.5 95t114.5 35q36 0 62 -9.5t43.5 -26t26 -38.5t8.5 -46q0 -38 -18 -67.5t-50 -58.5l-77 -64h140v-95h-285v95z" />
    <glyph glyph-name="uni00B3" unicode="&#xb3;" horiz-adv-x="355" 
d="M180 395q-83 0 -121.5 34t-38.5 91h110q0 -9 11 -19.5t34 -10.5q19 0 32 10t13 25t-11 25t-34 10h-25v90h25q23 0 31.5 11t8.5 19q0 11 -10.5 20.5t-29.5 9.5q-23 0 -34 -10t-11 -25h-110q0 64 40 97t115 33q39 0 67.5 -9.5t47 -25t27 -35t8.5 -40.5q0 -19 -6 -33
t-15 -24.5t-19.5 -17t-19.5 -10.5q30 -11 47.5 -33.5t17.5 -56.5q0 -17 -6.5 -38.5t-23.5 -41t-46 -32.5t-74 -13z" />
    <glyph glyph-name="acute" unicode="&#xb4;" horiz-adv-x="310" 
d="M120 765h160l-120 -150h-130z" />
    <glyph glyph-name="uni00B5" unicode="&#xb5;" horiz-adv-x="615" 
d="M50 540h180v-300q0 -85 78 -85q77 0 77 85v300h180v-540h-160l-15 50h-5q-15 -28 -38 -44t-57 -16q-25 0 -43 5q-10 2 -17 5v-180h-180v720z" />
    <glyph glyph-name="paragraph" unicode="&#xb6;" horiz-adv-x="645" 
d="M205 290q-36 0 -68.5 15t-57 42.5t-39.5 65t-15 82.5t13.5 82.5t37.5 65t57 42.5t72 15h380v-810h-155v640h-70v-640h-155v400z" />
    <glyph glyph-name="periodcentered" unicode="&#xb7;" horiz-adv-x="240" 
d="M120 180q-18 0 -35 7t-30.5 19.5t-21.5 29.5t-8 38t8 39t21.5 30.5t30.5 19.5t35 7t35 -7t30.5 -19.5t21.5 -30.5t8 -39t-8 -38t-21.5 -29.5t-30.5 -19.5t-35 -7z" />
    <glyph glyph-name="cedilla" unicode="&#xb8;" horiz-adv-x="265" 
d="M30 -150h60q15 0 20 5.5t5 14.5q0 8 -5 14t-20 6h-45v70l20 40h90l-15 -30q15 -2 31.5 -9.5t31 -20.5t23.5 -32t9 -43q0 -23 -7 -43.5t-22 -36.5t-38.5 -25.5t-57.5 -9.5h-80v100z" />
    <glyph glyph-name="uni00B9" unicode="&#xb9;" horiz-adv-x="285" 
d="M125 650h-90v95h65q25 0 25 25v30h105v-400h-105v250z" />
    <glyph glyph-name="ordmasculine" unicode="&#xba;" horiz-adv-x="390" 
d="M195 350q-34 0 -64.5 10.5t-54 32.5t-37.5 56t-14 81t14 81t37.5 56t54 32.5t64.5 10.5t64.5 -10.5t54 -32.5t37.5 -56t14 -81t-14 -81t-37.5 -56t-54 -32.5t-64.5 -10.5zM195 445q34 0 49.5 25.5t15.5 59.5t-15.5 59.5t-49.5 25.5t-49.5 -25.5t-15.5 -59.5t15.5 -59.5
t49.5 -25.5z" />
    <glyph glyph-name="guillemotright" unicode="&#xbb;" horiz-adv-x="760" 
d="M240 272v6l-220 242h195l220 -245l-220 -245h-195zM535 272v6l-220 242h195l220 -245l-220 -245h-195z" />
    <glyph glyph-name="onequarter" unicode="&#xbc;" horiz-adv-x="775" 
d="M515 700h105l-435 -700h-105zM110 550h-90v95h65q25 0 25 25v30h105v-400h-105v250zM580 80h-175v95l160 225h120v-225h60v-95h-60v-80h-105v80zM580 175v95l-65 -95h65z" />
    <glyph glyph-name="onehalf" unicode="&#xbd;" horiz-adv-x="780" 
d="M515 700h105l-435 -700h-105zM110 550h-90v95h65q25 0 25 25v30h105v-400h-105v250zM450 95l135 120q19 17 32 31.5t13 33.5q0 15 -10 22.5t-25 7.5q-19 0 -27 -10t-8 -25h-110q0 60 35.5 95t114.5 35q36 0 62 -9.5t43.5 -26t26 -38.5t8.5 -46q0 -38 -18 -67.5t-50 -58.5
l-77 -64h140v-95h-285v95z" />
    <glyph glyph-name="threequarters" unicode="&#xbe;" horiz-adv-x="858" 
d="M598 700h105l-435 -700h-105zM180 295q-83 0 -121.5 34t-38.5 91h110q0 -9 11 -19.5t34 -10.5q19 0 32 10t13 25t-11 25t-34 10h-25v90h25q23 0 31.5 11t8.5 19q0 11 -10.5 20.5t-29.5 9.5q-23 0 -34 -10t-11 -25h-110q0 64 40 97t115 33q39 0 67.5 -9.5t47 -25t27 -35
t8.5 -40.5q0 -19 -6 -33t-15 -24.5t-19.5 -17t-19.5 -10.5q30 -11 47.5 -33.5t17.5 -56.5q0 -17 -6.5 -38.5t-23.5 -41t-46 -32.5t-74 -13zM663 80h-175v95l160 225h120v-225h60v-95h-60v-80h-105v80zM663 175v95l-65 -95h65z" />
    <glyph glyph-name="questiondown" unicode="&#xbf;" horiz-adv-x="530" 
d="M270 -210q-58 0 -104.5 13.5t-78.5 38t-49.5 58.5t-17.5 75q0 45 12 74.5t29.5 50t38.5 35.5t38.5 30.5t29.5 35t12 49.5v40h180v-40q0 -52 -10.5 -86t-27 -56t-35 -35t-35 -24.5t-27 -24.5t-10.5 -34q0 -19 17.5 -27t32.5 -8q30 0 45 13.5t15 36.5h195
q0 -102 -66.5 -158.5t-183.5 -56.5zM266 355q-18 0 -35 7t-30.5 19.5t-21.5 30.5t-8 39t8 38t21.5 29.5t30.5 19.5t35 7t35 -7t30.5 -19.5t21.5 -29.5t8 -38t-8 -39t-21.5 -30.5t-30.5 -19.5t-35 -7z" />
    <glyph glyph-name="Agrave" unicode="&#xc0;" horiz-adv-x="705" 
d="M235 700h235l245 -700h-210l-31 100h-244l-30 -100h-210zM411 280l-59 210l-58 -210h117zM165 915h160l90 -150h-130z" />
    <glyph glyph-name="Aacute" unicode="&#xc1;" horiz-adv-x="705" 
d="M235 700h235l245 -700h-210l-31 100h-244l-30 -100h-210zM411 280l-59 210l-58 -210h117zM375 915h160l-120 -150h-130z" />
    <glyph glyph-name="Acircumflex" unicode="&#xc2;" horiz-adv-x="705" 
d="M235 700h235l245 -700h-210l-31 100h-244l-30 -100h-210zM411 280l-59 210l-58 -210h117zM290 920h125l140 -155h-140l-60 70h-5l-60 -70h-140z" />
    <glyph glyph-name="Atilde" unicode="&#xc3;" horiz-adv-x="705" 
d="M235 700h235l245 -700h-210l-31 100h-244l-30 -100h-210zM411 280l-59 210l-58 -210h117zM415 770q-17 0 -32 5.5t-28.5 12t-26 12t-23.5 5.5q-10 0 -15 -9.5t-5 -20.5h-110q0 60 25 97.5t85 37.5q17 0 32 -5.5t28.5 -12t26 -12t23.5 -5.5q10 0 15 9.5t5 20.5h110
q0 -60 -25 -97.5t-85 -37.5z" />
    <glyph glyph-name="Adieresis" unicode="&#xc4;" horiz-adv-x="705" 
d="M235 700h235l245 -700h-210l-31 100h-244l-30 -100h-210zM411 280l-59 210l-58 -210h117zM248 760q-34 0 -58.5 22.5t-24.5 59.5t24.5 60t58.5 23q33 0 57.5 -23t24.5 -60t-24.5 -59.5t-57.5 -22.5zM463 760q-34 0 -58.5 22.5t-24.5 59.5t24.5 60t58.5 23q33 0 57.5 -23
t24.5 -60t-24.5 -59.5t-57.5 -22.5z" />
    <glyph glyph-name="Aring" unicode="&#xc5;" horiz-adv-x="705" 
d="M235 700h235l245 -700h-210l-31 100h-244l-30 -100h-210zM411 280l-59 210l-58 -210h117zM350 730q-26 0 -47.5 9t-38 25t-25.5 38t-9 48t9 48t25.5 38t38 25t47.5 9q25 0 47 -9t38.5 -25t25.5 -38t9 -48t-9 -48t-25.5 -38t-38.5 -25t-47 -9zM350 810q19 0 29.5 11.5
t10.5 28.5t-10.5 28.5t-29.5 11.5t-29.5 -11.5t-10.5 -28.5t10.5 -28.5t29.5 -11.5z" />
    <glyph glyph-name="AE" unicode="&#xc6;" horiz-adv-x="969" 
d="M305 700h619v-180h-300v-85h280v-165h-280v-90h310v-180h-505v115h-202l-58 -115h-219zM429 280v240h-18l-111 -240h129z" />
    <glyph glyph-name="Ccedilla" unicode="&#xc7;" horiz-adv-x="715" 
d="M290 -150h60q15 0 20 5.5t5 14.5q0 8 -5 14t-20 6h-45v70l16 33q-65 7 -118.5 33t-92 71t-59.5 108.5t-21 144.5q0 88 25 155.5t70 113t107.5 68.5t137.5 23t131 -20t95 -55.5t62 -83t32 -101.5h-205q-6 11 -13 25t-20 26t-32.5 20.5t-49.5 8.5q-38 0 -64.5 -13.5
t-43 -37.5t-24.5 -57t-8 -72t8 -72t24.5 -57t43 -37.5t64.5 -13.5q30 0 49.5 8.5t32.5 20.5t20 26t13 25h205q-9 -51 -29.5 -95.5t-54.5 -79t-82.5 -56.5t-112.5 -27l-11 -22q15 -2 31.5 -9.5t31 -20.5t23.5 -32t9 -43q0 -23 -7 -43.5t-22 -36.5t-38.5 -25.5t-57.5 -9.5h-80
v100z" />
    <glyph glyph-name="Egrave" unicode="&#xc8;" horiz-adv-x="605" 
d="M60 700h500v-180h-300v-85h280v-165h-280v-90h310v-180h-510v700zM130 915h160l90 -150h-130z" />
    <glyph glyph-name="Eacute" unicode="&#xc9;" horiz-adv-x="605" 
d="M60 700h500v-180h-300v-85h280v-165h-280v-90h310v-180h-510v700zM340 915h160l-120 -150h-130z" />
    <glyph glyph-name="Ecircumflex" unicode="&#xca;" horiz-adv-x="605" 
d="M60 700h500v-180h-300v-85h280v-165h-280v-90h310v-180h-510v700zM255 920h125l140 -155h-140l-60 70h-5l-60 -70h-140z" />
    <glyph glyph-name="Edieresis" unicode="&#xcb;" horiz-adv-x="605" 
d="M60 700h500v-180h-300v-85h280v-165h-280v-90h310v-180h-510v700zM208 760q-34 0 -58.5 22.5t-24.5 59.5t24.5 60t58.5 23q33 0 57.5 -23t24.5 -60t-24.5 -59.5t-57.5 -22.5zM423 760q-34 0 -58.5 22.5t-24.5 59.5t24.5 60t58.5 23q33 0 57.5 -23t24.5 -60t-24.5 -59.5
t-57.5 -22.5z" />
    <glyph glyph-name="Igrave" unicode="&#xcc;" horiz-adv-x="320" 
d="M60 700h200v-700h-200v700zM-25 915h160l90 -150h-130z" />
    <glyph glyph-name="Iacute" unicode="&#xcd;" horiz-adv-x="320" 
d="M60 700h200v-700h-200v700zM185 915h160l-120 -150h-130z" />
    <glyph glyph-name="Icircumflex" unicode="&#xce;" horiz-adv-x="320" 
d="M60 700h200v-700h-200v700zM100 920h125l140 -155h-140l-60 70h-5l-60 -70h-140z" />
    <glyph glyph-name="Idieresis" unicode="&#xcf;" horiz-adv-x="320" 
d="M60 700h200v-700h-200v700zM53 760q-34 0 -58.5 22.5t-24.5 59.5t24.5 60t58.5 23q33 0 57.5 -23t24.5 -60t-24.5 -59.5t-57.5 -22.5zM268 760q-34 0 -58.5 22.5t-24.5 59.5t24.5 60t58.5 23q33 0 57.5 -23t24.5 -60t-24.5 -59.5t-57.5 -22.5z" />
    <glyph glyph-name="Eth" unicode="&#xd0;" horiz-adv-x="730" 
d="M80 270h-80v165h80v265h295q77 0 137.5 -25t102 -71t63.5 -110.5t22 -143.5t-22 -143.5t-63.5 -110.5t-102 -71t-137.5 -25h-295v270zM365 180q26 0 50.5 12t43 34t30 53.5t11.5 70.5t-11.5 70.5t-30 53.5t-43 34t-50.5 12h-85v-85h130v-165h-130v-90h85z" />
    <glyph glyph-name="Ntilde" unicode="&#xd1;" horiz-adv-x="775" 
d="M60 700h250l205 -404v404h200v-700h-250l-205 404v-404h-200v700zM455 770q-17 0 -32 5.5t-28.5 12t-26 12t-23.5 5.5q-10 0 -15 -9.5t-5 -20.5h-110q0 60 25 97.5t85 37.5q17 0 32 -5.5t28.5 -12t26 -12t23.5 -5.5q10 0 15 9.5t5 20.5h110q0 -60 -25 -97.5t-85 -37.5z
" />
    <glyph glyph-name="Ograve" unicode="&#xd2;" horiz-adv-x="740" 
d="M370 -10q-75 0 -137.5 23t-107.5 68.5t-70 113t-25 155.5t25 155.5t70 113t107.5 68.5t137.5 23t137.5 -23t107.5 -68.5t70 -113t25 -155.5t-25 -155.5t-70 -113t-107.5 -68.5t-137.5 -23zM370 170q37 0 64 13.5t43.5 37.5t24.5 57t8 72t-8 72t-24.5 57t-43.5 37.5
t-64 13.5q-38 0 -64.5 -13.5t-43 -37.5t-24.5 -57t-8 -72t8 -72t24.5 -57t43 -37.5t64.5 -13.5zM185 915h160l90 -150h-130z" />
    <glyph glyph-name="Oacute" unicode="&#xd3;" horiz-adv-x="740" 
d="M370 -10q-75 0 -137.5 23t-107.5 68.5t-70 113t-25 155.5t25 155.5t70 113t107.5 68.5t137.5 23t137.5 -23t107.5 -68.5t70 -113t25 -155.5t-25 -155.5t-70 -113t-107.5 -68.5t-137.5 -23zM370 170q37 0 64 13.5t43.5 37.5t24.5 57t8 72t-8 72t-24.5 57t-43.5 37.5
t-64 13.5q-38 0 -64.5 -13.5t-43 -37.5t-24.5 -57t-8 -72t8 -72t24.5 -57t43 -37.5t64.5 -13.5zM395 915h160l-120 -150h-130z" />
    <glyph glyph-name="Ocircumflex" unicode="&#xd4;" horiz-adv-x="740" 
d="M370 -10q-75 0 -137.5 23t-107.5 68.5t-70 113t-25 155.5t25 155.5t70 113t107.5 68.5t137.5 23t137.5 -23t107.5 -68.5t70 -113t25 -155.5t-25 -155.5t-70 -113t-107.5 -68.5t-137.5 -23zM370 170q37 0 64 13.5t43.5 37.5t24.5 57t8 72t-8 72t-24.5 57t-43.5 37.5
t-64 13.5q-38 0 -64.5 -13.5t-43 -37.5t-24.5 -57t-8 -72t8 -72t24.5 -57t43 -37.5t64.5 -13.5zM310 920h125l140 -155h-140l-60 70h-5l-60 -70h-140z" />
    <glyph glyph-name="Otilde" unicode="&#xd5;" horiz-adv-x="740" 
d="M370 -10q-75 0 -137.5 23t-107.5 68.5t-70 113t-25 155.5t25 155.5t70 113t107.5 68.5t137.5 23t137.5 -23t107.5 -68.5t70 -113t25 -155.5t-25 -155.5t-70 -113t-107.5 -68.5t-137.5 -23zM370 170q37 0 64 13.5t43.5 37.5t24.5 57t8 72t-8 72t-24.5 57t-43.5 37.5
t-64 13.5q-38 0 -64.5 -13.5t-43 -37.5t-24.5 -57t-8 -72t8 -72t24.5 -57t43 -37.5t64.5 -13.5zM435 770q-17 0 -32 5.5t-28.5 12t-26 12t-23.5 5.5q-10 0 -15 -9.5t-5 -20.5h-110q0 60 25 97.5t85 37.5q17 0 32 -5.5t28.5 -12t26 -12t23.5 -5.5q10 0 15 9.5t5 20.5h110
q0 -60 -25 -97.5t-85 -37.5z" />
    <glyph glyph-name="Odieresis" unicode="&#xd6;" horiz-adv-x="740" 
d="M370 -10q-75 0 -137.5 23t-107.5 68.5t-70 113t-25 155.5t25 155.5t70 113t107.5 68.5t137.5 23t137.5 -23t107.5 -68.5t70 -113t25 -155.5t-25 -155.5t-70 -113t-107.5 -68.5t-137.5 -23zM370 170q37 0 64 13.5t43.5 37.5t24.5 57t8 72t-8 72t-24.5 57t-43.5 37.5
t-64 13.5q-38 0 -64.5 -13.5t-43 -37.5t-24.5 -57t-8 -72t8 -72t24.5 -57t43 -37.5t64.5 -13.5zM263 760q-34 0 -58.5 22.5t-24.5 59.5t24.5 60t58.5 23q33 0 57.5 -23t24.5 -60t-24.5 -59.5t-57.5 -22.5zM478 760q-34 0 -58.5 22.5t-24.5 59.5t24.5 60t58.5 23
q33 0 57.5 -23t24.5 -60t-24.5 -59.5t-57.5 -22.5z" />
    <glyph glyph-name="multiply" unicode="&#xd7;" horiz-adv-x="582" 
d="M40 174l152 152l-152 152l99 99l152 -152l152 152l99 -99l-152 -152l152 -152l-99 -99l-152 152l-152 -152z" />
    <glyph glyph-name="Oslash" unicode="&#xd8;" horiz-adv-x="740" 
d="M128 79q-47 45 -72.5 112.5t-25.5 158.5q0 88 25 155.5t70 113t107.5 68.5t137.5 23q58 0 111 -15l17 30h175l-60 -105q46 -46 71.5 -113t25.5 -157q0 -88 -25 -155.5t-70 -113t-107.5 -68.5t-137.5 -23q-57 0 -110 14l-17 -29h-175zM386 529q-4 1 -8 1h-8
q-39 0 -67.5 -13.5t-47 -37.5t-27 -57t-8.5 -72q0 -51 13 -87zM370 170q39 0 67.5 13.5t47 37.5t27 57t8.5 72q0 24 -3.5 45.5t-9.5 40.5l-152 -266h15z" />
    <glyph glyph-name="Ugrave" unicode="&#xd9;" horiz-adv-x="730" 
d="M365 -10q-71 0 -128.5 22t-98 63t-62 100.5t-21.5 134.5v390h200v-390q0 -72 30.5 -106t79.5 -34t79.5 34t30.5 106v390h200v-390q0 -75 -21.5 -134.5t-62 -100.5t-98 -63t-128.5 -22zM180 915h160l90 -150h-130z" />
    <glyph glyph-name="Uacute" unicode="&#xda;" horiz-adv-x="730" 
d="M365 -10q-71 0 -128.5 22t-98 63t-62 100.5t-21.5 134.5v390h200v-390q0 -72 30.5 -106t79.5 -34t79.5 34t30.5 106v390h200v-390q0 -75 -21.5 -134.5t-62 -100.5t-98 -63t-128.5 -22zM390 915h160l-120 -150h-130z" />
    <glyph glyph-name="Ucircumflex" unicode="&#xdb;" horiz-adv-x="730" 
d="M365 -10q-71 0 -128.5 22t-98 63t-62 100.5t-21.5 134.5v390h200v-390q0 -72 30.5 -106t79.5 -34t79.5 34t30.5 106v390h200v-390q0 -75 -21.5 -134.5t-62 -100.5t-98 -63t-128.5 -22zM300 920h125l140 -155h-140l-60 70h-5l-60 -70h-140z" />
    <glyph glyph-name="Udieresis" unicode="&#xdc;" horiz-adv-x="730" 
d="M365 -10q-71 0 -128.5 22t-98 63t-62 100.5t-21.5 134.5v390h200v-390q0 -72 30.5 -106t79.5 -34t79.5 34t30.5 106v390h200v-390q0 -75 -21.5 -134.5t-62 -100.5t-98 -63t-128.5 -22zM258 760q-34 0 -58.5 22.5t-24.5 59.5t24.5 60t58.5 23q33 0 57.5 -23t24.5 -60
t-24.5 -59.5t-57.5 -22.5zM473 760q-34 0 -58.5 22.5t-24.5 59.5t24.5 60t58.5 23q33 0 57.5 -23t24.5 -60t-24.5 -59.5t-57.5 -22.5z" />
    <glyph glyph-name="Yacute" unicode="&#xdd;" horiz-adv-x="645" 
d="M222 215l-242 485h215l127 -300l128 300h215l-243 -485v-215h-200v215zM350 915h160l-120 -150h-130z" />
    <glyph glyph-name="Thorn" unicode="&#xde;" horiz-adv-x="735" 
d="M60 700h200v-115h185q67 0 117 -17.5t83 -49t49 -74.5t16 -94t-16 -94t-49 -74.5t-83 -49t-117 -17.5h-185v-115h-200v700zM425 290q85 0 85 60t-85 60h-165v-120h165z" />
    <glyph glyph-name="germandbls" unicode="&#xdf;" horiz-adv-x="610" 
d="M50 490q0 49 16 89.5t48 69.5t79.5 45t111.5 16q67 0 115.5 -17.5t79.5 -46t45.5 -64.5t14.5 -72q0 -57 -28 -92t-77 -53q28 -8 52 -23.5t41 -37t27 -48t10 -56.5q0 -94 -62.5 -147t-197.5 -53h-45v160h50q42 0 58.5 17t16.5 46q0 28 -16.5 45t-58.5 17h-50v140h25
q34 0 54.5 15.5t20.5 49.5q0 30 -20.5 45t-54.5 15t-54.5 -18t-20.5 -52v-480h-180v490z" />
    <glyph glyph-name="agrave" unicode="&#xe0;" horiz-adv-x="580" 
d="M215 -10q-45 0 -80.5 13t-59.5 36t-37 54t-13 67q0 34 12.5 64t38.5 52.5t67 35.5t97 13h115v20q0 19 -18 34.5t-52 15.5q-45 0 -60 -30h-180q6 34 22.5 67t46 59t73 42.5t103.5 16.5q56 0 101.5 -13t77.5 -40t49 -67.5t17 -94.5v-335h-160l-15 50h-5q-8 -9 -20 -19.5
t-29.5 -19.5t-40 -15t-50.5 -6zM260 135q45 0 70 22t25 48v10h-100q-50 0 -50 -40q0 -15 12.5 -27.5t42.5 -12.5zM120 765h160l90 -150h-130z" />
    <glyph glyph-name="aacute" unicode="&#xe1;" horiz-adv-x="580" 
d="M215 -10q-45 0 -80.5 13t-59.5 36t-37 54t-13 67q0 34 12.5 64t38.5 52.5t67 35.5t97 13h115v20q0 19 -18 34.5t-52 15.5q-45 0 -60 -30h-180q6 34 22.5 67t46 59t73 42.5t103.5 16.5q56 0 101.5 -13t77.5 -40t49 -67.5t17 -94.5v-335h-160l-15 50h-5q-8 -9 -20 -19.5
t-29.5 -19.5t-40 -15t-50.5 -6zM260 135q45 0 70 22t25 48v10h-100q-50 0 -50 -40q0 -15 12.5 -27.5t42.5 -12.5zM330 765h160l-120 -150h-130z" />
    <glyph glyph-name="acircumflex" unicode="&#xe2;" horiz-adv-x="580" 
d="M215 -10q-45 0 -80.5 13t-59.5 36t-37 54t-13 67q0 34 12.5 64t38.5 52.5t67 35.5t97 13h115v20q0 19 -18 34.5t-52 15.5q-45 0 -60 -30h-180q6 34 22.5 67t46 59t73 42.5t103.5 16.5q56 0 101.5 -13t77.5 -40t49 -67.5t17 -94.5v-335h-160l-15 50h-5q-8 -9 -20 -19.5
t-29.5 -19.5t-40 -15t-50.5 -6zM260 135q45 0 70 22t25 48v10h-100q-50 0 -50 -40q0 -15 12.5 -27.5t42.5 -12.5zM235 770h125l140 -155h-140l-60 70h-5l-60 -70h-140z" />
    <glyph glyph-name="atilde" unicode="&#xe3;" horiz-adv-x="580" 
d="M215 -10q-45 0 -80.5 13t-59.5 36t-37 54t-13 67q0 34 12.5 64t38.5 52.5t67 35.5t97 13h115v20q0 19 -18 34.5t-52 15.5q-45 0 -60 -30h-180q6 34 22.5 67t46 59t73 42.5t103.5 16.5q56 0 101.5 -13t77.5 -40t49 -67.5t17 -94.5v-335h-160l-15 50h-5q-8 -9 -20 -19.5
t-29.5 -19.5t-40 -15t-50.5 -6zM260 135q45 0 70 22t25 48v10h-100q-50 0 -50 -40q0 -15 12.5 -27.5t42.5 -12.5zM365 620q-17 0 -32 5.5t-28.5 12t-26 12t-23.5 5.5q-10 0 -15 -9.5t-5 -20.5h-110q0 60 25 97.5t85 37.5q17 0 32 -5.5t28.5 -12t26 -12t23.5 -5.5
q10 0 15 9.5t5 20.5h110q0 -60 -25 -97.5t-85 -37.5z" />
    <glyph glyph-name="adieresis" unicode="&#xe4;" horiz-adv-x="580" 
d="M215 -10q-45 0 -80.5 13t-59.5 36t-37 54t-13 67q0 34 12.5 64t38.5 52.5t67 35.5t97 13h115v20q0 19 -18 34.5t-52 15.5q-45 0 -60 -30h-180q6 34 22.5 67t46 59t73 42.5t103.5 16.5q56 0 101.5 -13t77.5 -40t49 -67.5t17 -94.5v-335h-160l-15 50h-5q-8 -9 -20 -19.5
t-29.5 -19.5t-40 -15t-50.5 -6zM260 135q45 0 70 22t25 48v10h-100q-50 0 -50 -40q0 -15 12.5 -27.5t42.5 -12.5zM193 610q-34 0 -58.5 22.5t-24.5 59.5t24.5 60t58.5 23q33 0 57.5 -23t24.5 -60t-24.5 -59.5t-57.5 -22.5zM408 610q-34 0 -58.5 22.5t-24.5 59.5t24.5 60
t58.5 23q33 0 57.5 -23t24.5 -60t-24.5 -59.5t-57.5 -22.5z" />
    <glyph glyph-name="aring" unicode="&#xe5;" horiz-adv-x="580" 
d="M215 -10q-45 0 -80.5 13t-59.5 36t-37 54t-13 67q0 34 12.5 64t38.5 52.5t67 35.5t97 13h115v20q0 19 -18 34.5t-52 15.5q-45 0 -60 -30h-180q6 34 22.5 67t46 59t73 42.5t103.5 16.5q56 0 101.5 -13t77.5 -40t49 -67.5t17 -94.5v-335h-160l-15 50h-5q-8 -9 -20 -19.5
t-29.5 -19.5t-40 -15t-50.5 -6zM260 135q45 0 70 22t25 48v10h-100q-50 0 -50 -40q0 -15 12.5 -27.5t42.5 -12.5zM300 600q-26 0 -47.5 9t-38 25t-25.5 38t-9 48t9 48t25.5 38t38 25t47.5 9q25 0 47 -9t38.5 -25t25.5 -38t9 -48t-9 -48t-25.5 -38t-38.5 -25t-47 -9zM300 680
q19 0 29.5 11.5t10.5 28.5t-10.5 28.5t-29.5 11.5t-29.5 -11.5t-10.5 -28.5t10.5 -28.5t29.5 -11.5z" />
    <glyph glyph-name="ae" unicode="&#xe6;" horiz-adv-x="930" 
d="M220 -10q-51 0 -87.5 14.5t-60.5 38.5t-35.5 54.5t-11.5 62.5q0 34 12.5 64t38.5 52.5t67 35.5t97 13h115v20q0 23 -21.5 36.5t-47.5 13.5q-21 0 -37 -6.5t-24 -23.5h-180q6 36 23.5 69t47.5 59t72 41.5t97 15.5q39 0 67 -7t48.5 -17.5t34.5 -24t25 -26.5q11 13 28 26.5
t40 24t52 17.5t65 7q64 0 111.5 -22.5t79.5 -61t48 -89t16 -107.5q0 -11 -1 -21t-2 -18q-1 -9 -2 -16h-360q2 -11 7.5 -25t15.5 -26t26.5 -20.5t40.5 -8.5q22 0 37 4t24.5 10t14.5 13t9 13h180q-6 -24 -21 -56t-43.5 -60.5t-72.5 -48.5t-108 -20q-74 0 -124.5 25t-80.5 55
q-19 -17 -38 -31.5t-44 -25.5t-58.5 -17t-79.5 -6zM260 135q45 0 70 22t25 48v10h-100q-50 0 -50 -40q0 -15 12.5 -27.5t42.5 -12.5zM725 325q-4 30 -27 55t-68 25t-68 -25t-27 -55h190z" />
    <glyph glyph-name="ccedilla" unicode="&#xe7;" horiz-adv-x="595" 
d="M230 -150h60q15 0 20 5.5t5 14.5q0 8 -5 14t-20 6h-45v70l16 32q-112 12 -171.5 82.5t-59.5 195.5q0 136 71.5 208t203.5 72q67 0 115 -21t79.5 -54t48 -73t22.5 -77h-180q-11 30 -31.5 47.5t-58.5 17.5t-64 -30t-26 -90t26 -90t64 -30t58.5 17.5t31.5 47.5h180
q-5 -34 -19.5 -70.5t-40.5 -67.5t-65 -54t-94 -30l-11 -23q15 -2 31.5 -9.5t31 -20.5t23.5 -32t9 -43q0 -23 -7 -43.5t-22 -36.5t-38.5 -25.5t-57.5 -9.5h-80v100z" />
    <glyph glyph-name="egrave" unicode="&#xe8;" horiz-adv-x="610" 
d="M310 -10q-136 0 -208 72t-72 208t74 208t206 72q67 0 118 -22.5t84.5 -61t50.5 -89t17 -107.5q0 -11 -1 -21t-2 -18q-1 -9 -2 -16h-370q2 -11 8 -25t17.5 -26t28.5 -20.5t41 -8.5q22 0 37.5 4t26 10t16.5 13t10 13h180q-6 -24 -22 -56t-46.5 -60.5t-77.5 -48.5t-114 -20z
M405 330q-8 30 -31.5 52.5t-68.5 22.5t-68.5 -22.5t-31.5 -52.5h200zM125 765h160l90 -150h-130z" />
    <glyph glyph-name="eacute" unicode="&#xe9;" horiz-adv-x="610" 
d="M310 -10q-136 0 -208 72t-72 208t74 208t206 72q67 0 118 -22.5t84.5 -61t50.5 -89t17 -107.5q0 -11 -1 -21t-2 -18q-1 -9 -2 -16h-370q2 -11 8 -25t17.5 -26t28.5 -20.5t41 -8.5q22 0 37.5 4t26 10t16.5 13t10 13h180q-6 -24 -22 -56t-46.5 -60.5t-77.5 -48.5t-114 -20z
M405 330q-8 30 -31.5 52.5t-68.5 22.5t-68.5 -22.5t-31.5 -52.5h200zM335 765h160l-120 -150h-130z" />
    <glyph glyph-name="ecircumflex" unicode="&#xea;" horiz-adv-x="610" 
d="M310 -10q-136 0 -208 72t-72 208t74 208t206 72q67 0 118 -22.5t84.5 -61t50.5 -89t17 -107.5q0 -11 -1 -21t-2 -18q-1 -9 -2 -16h-370q2 -11 8 -25t17.5 -26t28.5 -20.5t41 -8.5q22 0 37.5 4t26 10t16.5 13t10 13h180q-6 -24 -22 -56t-46.5 -60.5t-77.5 -48.5t-114 -20z
M405 330q-8 30 -31.5 52.5t-68.5 22.5t-68.5 -22.5t-31.5 -52.5h200zM245 770h125l140 -155h-140l-60 70h-5l-60 -70h-140z" />
    <glyph glyph-name="edieresis" unicode="&#xeb;" horiz-adv-x="610" 
d="M310 -10q-136 0 -208 72t-72 208t74 208t206 72q67 0 118 -22.5t84.5 -61t50.5 -89t17 -107.5q0 -11 -1 -21t-2 -18q-1 -9 -2 -16h-370q2 -11 8 -25t17.5 -26t28.5 -20.5t41 -8.5q22 0 37.5 4t26 10t16.5 13t10 13h180q-6 -24 -22 -56t-46.5 -60.5t-77.5 -48.5t-114 -20z
M405 330q-8 30 -31.5 52.5t-68.5 22.5t-68.5 -22.5t-31.5 -52.5h200zM198 610q-34 0 -58.5 22.5t-24.5 59.5t24.5 60t58.5 23q33 0 57.5 -23t24.5 -60t-24.5 -59.5t-57.5 -22.5zM413 610q-34 0 -58.5 22.5t-24.5 59.5t24.5 60t58.5 23q33 0 57.5 -23t24.5 -60t-24.5 -59.5
t-57.5 -22.5z" />
    <glyph glyph-name="igrave" unicode="&#xec;" horiz-adv-x="280" 
d="M50 540h180v-540h-180v540zM-45 765h160l90 -150h-130z" />
    <glyph glyph-name="iacute" unicode="&#xed;" horiz-adv-x="280" 
d="M50 540h180v-540h-180v540zM165 765h160l-120 -150h-130z" />
    <glyph glyph-name="icircumflex" unicode="&#xee;" horiz-adv-x="280" 
d="M50 540h180v-540h-180v540zM75 770h125l140 -155h-140l-60 70h-5l-60 -70h-140z" />
    <glyph glyph-name="idieresis" unicode="&#xef;" horiz-adv-x="280" 
d="M50 540h180v-540h-180v540zM33 610q-34 0 -58.5 22.5t-24.5 59.5t24.5 60t58.5 23q33 0 57.5 -23t24.5 -60t-24.5 -59.5t-57.5 -22.5zM248 610q-34 0 -58.5 22.5t-24.5 59.5t24.5 60t58.5 23q33 0 57.5 -23t24.5 -60t-24.5 -59.5t-57.5 -22.5z" />
    <glyph glyph-name="eth" unicode="&#xf0;" horiz-adv-x="605" 
d="M300 -10q-60 0 -109.5 19.5t-85.5 55t-55.5 84t-19.5 106.5q0 54 17 99.5t47.5 77.5t72.5 50t93 18q45 0 71.5 -11.5t35.5 -18.5h5q-29 51 -66 93l-126 -53l-45 90l92 39q-42 34 -78.5 57t-57.5 34h190q17 -8 34 -18t34 -22l96 40l45 -90l-57 -24q61 -65 101.5 -151.5
t40.5 -189.5q0 -81 -24 -135.5t-63 -87.5t-88 -47.5t-100 -14.5zM300 150q38 0 64 25t26 70t-26 70t-64 25t-64 -25t-26 -70t26 -70t64 -25z" />
    <glyph glyph-name="ntilde" unicode="&#xf1;" horiz-adv-x="610" 
d="M50 540h160l15 -50h5q26 28 61 44t84 16q32 0 65.5 -11t61.5 -36.5t45.5 -66.5t17.5 -101v-335h-180v300q0 42 -21 63.5t-57 21.5q-35 0 -56 -21.5t-21 -63.5v-300h-180v540zM370 620q-17 0 -32 5.5t-28.5 12t-26 12t-23.5 5.5q-10 0 -15 -9.5t-5 -20.5h-110
q0 60 25 97.5t85 37.5q17 0 32 -5.5t28.5 -12t26 -12t23.5 -5.5q10 0 15 9.5t5 20.5h110q0 -60 -25 -97.5t-85 -37.5z" />
    <glyph glyph-name="ograve" unicode="&#xf2;" horiz-adv-x="610" 
d="M305 -10q-132 0 -203.5 72t-71.5 208t71.5 208t203.5 72t203.5 -72t71.5 -208t-71.5 -208t-203.5 -72zM305 150q42 0 68.5 30t26.5 90t-26.5 90t-68.5 30t-68.5 -30t-26.5 -90t26.5 -90t68.5 -30zM120 765h160l90 -150h-130z" />
    <glyph glyph-name="oacute" unicode="&#xf3;" horiz-adv-x="610" 
d="M305 -10q-132 0 -203.5 72t-71.5 208t71.5 208t203.5 72t203.5 -72t71.5 -208t-71.5 -208t-203.5 -72zM305 150q42 0 68.5 30t26.5 90t-26.5 90t-68.5 30t-68.5 -30t-26.5 -90t26.5 -90t68.5 -30zM330 765h160l-120 -150h-130z" />
    <glyph glyph-name="ocircumflex" unicode="&#xf4;" horiz-adv-x="610" 
d="M305 -10q-132 0 -203.5 72t-71.5 208t71.5 208t203.5 72t203.5 -72t71.5 -208t-71.5 -208t-203.5 -72zM305 150q42 0 68.5 30t26.5 90t-26.5 90t-68.5 30t-68.5 -30t-26.5 -90t26.5 -90t68.5 -30zM245 770h125l140 -155h-140l-60 70h-5l-60 -70h-140z" />
    <glyph glyph-name="otilde" unicode="&#xf5;" horiz-adv-x="610" 
d="M305 -10q-132 0 -203.5 72t-71.5 208t71.5 208t203.5 72t203.5 -72t71.5 -208t-71.5 -208t-203.5 -72zM305 150q42 0 68.5 30t26.5 90t-26.5 90t-68.5 30t-68.5 -30t-26.5 -90t26.5 -90t68.5 -30zM370 620q-17 0 -32 5.5t-28.5 12t-26 12t-23.5 5.5q-10 0 -15 -9.5
t-5 -20.5h-110q0 60 25 97.5t85 37.5q17 0 32 -5.5t28.5 -12t26 -12t23.5 -5.5q10 0 15 9.5t5 20.5h110q0 -60 -25 -97.5t-85 -37.5z" />
    <glyph glyph-name="odieresis" unicode="&#xf6;" horiz-adv-x="610" 
d="M305 -10q-132 0 -203.5 72t-71.5 208t71.5 208t203.5 72t203.5 -72t71.5 -208t-71.5 -208t-203.5 -72zM305 150q42 0 68.5 30t26.5 90t-26.5 90t-68.5 30t-68.5 -30t-26.5 -90t26.5 -90t68.5 -30zM198 610q-34 0 -58.5 22.5t-24.5 59.5t24.5 60t58.5 23q33 0 57.5 -23
t24.5 -60t-24.5 -59.5t-57.5 -22.5zM413 610q-34 0 -58.5 22.5t-24.5 59.5t24.5 60t58.5 23q33 0 57.5 -23t24.5 -60t-24.5 -59.5t-57.5 -22.5z" />
    <glyph glyph-name="divide" unicode="&#xf7;" horiz-adv-x="535" 
d="M267 25q-19 0 -35.5 7.5t-28.5 19.5t-19 28.5t-7 34.5t7 34.5t19 28.5t28.5 19.5t35.5 7.5t35.5 -7.5t28.5 -19.5t19 -28.5t7 -34.5t-7 -34.5t-19 -28.5t-28.5 -19.5t-35.5 -7.5zM30 385h475v-140h-475v140zM267 420q-19 0 -35.5 7.5t-28.5 19.5t-19 28.5t-7 34.5t7 34.5
t19 28.5t28.5 19.5t35.5 7.5t35.5 -7.5t28.5 -19.5t19 -28.5t7 -34.5t-7 -34.5t-19 -28.5t-28.5 -19.5t-35.5 -7.5z" />
    <glyph glyph-name="oslash" unicode="&#xf8;" horiz-adv-x="610" 
d="M102 62q-72 72 -72 208t71.5 208t203.5 72q27 0 52 -3.5t48 -9.5l15 23h150l-57 -89q67 -72 67 -201q0 -136 -71.5 -208t-203.5 -72q-48 0 -92 11l-13 -21h-150zM326 413q-5 1 -10.5 1.5t-10.5 0.5q-53 0 -86.5 -38.5t-33.5 -106.5q0 -37 10 -64zM305 125q53 0 86.5 38.5
t33.5 106.5q0 14 -2 27t-5 25l-125 -197h12z" />
    <glyph glyph-name="ugrave" unicode="&#xf9;" horiz-adv-x="615" 
d="M240 -10q-32 0 -65.5 11t-61.5 36.5t-45.5 66.5t-17.5 101v335h180v-300q0 -42 21 -63.5t57 -21.5q35 0 56 21.5t21 63.5v300h180v-540h-160l-15 50h-5q-26 -28 -61 -44t-84 -16zM125 765h160l90 -150h-130z" />
    <glyph glyph-name="uacute" unicode="&#xfa;" horiz-adv-x="615" 
d="M240 -10q-32 0 -65.5 11t-61.5 36.5t-45.5 66.5t-17.5 101v335h180v-300q0 -42 21 -63.5t57 -21.5q35 0 56 21.5t21 63.5v300h180v-540h-160l-15 50h-5q-26 -28 -61 -44t-84 -16zM335 765h160l-120 -150h-130z" />
    <glyph glyph-name="ucircumflex" unicode="&#xfb;" horiz-adv-x="615" 
d="M240 -10q-32 0 -65.5 11t-61.5 36.5t-45.5 66.5t-17.5 101v335h180v-300q0 -42 21 -63.5t57 -21.5q35 0 56 21.5t21 63.5v300h180v-540h-160l-15 50h-5q-26 -28 -61 -44t-84 -16zM245 770h125l140 -155h-140l-60 70h-5l-60 -70h-140z" />
    <glyph glyph-name="udieresis" unicode="&#xfc;" horiz-adv-x="615" 
d="M240 -10q-32 0 -65.5 11t-61.5 36.5t-45.5 66.5t-17.5 101v335h180v-300q0 -42 21 -63.5t57 -21.5q35 0 56 21.5t21 63.5v300h180v-540h-160l-15 50h-5q-26 -28 -61 -44t-84 -16zM203 610q-34 0 -58.5 22.5t-24.5 59.5t24.5 60t58.5 23q33 0 57.5 -23t24.5 -60
t-24.5 -59.5t-57.5 -22.5zM418 610q-34 0 -58.5 22.5t-24.5 59.5t24.5 60t58.5 23q33 0 57.5 -23t24.5 -60t-24.5 -59.5t-57.5 -22.5z" />
    <glyph glyph-name="yacute" unicode="&#xfd;" horiz-adv-x="595" 
d="M200 0l-210 540h200l110 -330l105 330h200l-290 -740h-195zM320 765h160l-120 -150h-130z" />
    <glyph glyph-name="thorn" unicode="&#xfe;" horiz-adv-x="635" 
d="M55 700h180v-205h5q15 19 46 37t84 18q52 0 95.5 -17.5t74.5 -53t48 -88t17 -121.5t-17 -121.5t-48 -88t-74.5 -53t-95.5 -17.5q-31 0 -54.5 8t-39.5 17.5t-25 18.5l-11 11h-5v-245h-180v900zM330 150q42 0 68.5 30t26.5 90t-26.5 90t-68.5 30t-68.5 -30t-26.5 -90
t26.5 -90t68.5 -30z" />
    <glyph glyph-name="ydieresis" unicode="&#xff;" horiz-adv-x="595" 
d="M200 0l-210 540h200l110 -330l105 330h200l-290 -740h-195zM188 610q-34 0 -58.5 22.5t-24.5 59.5t24.5 60t58.5 23q33 0 57.5 -23t24.5 -60t-24.5 -59.5t-57.5 -22.5zM403 610q-34 0 -58.5 22.5t-24.5 59.5t24.5 60t58.5 23q33 0 57.5 -23t24.5 -60t-24.5 -59.5
t-57.5 -22.5z" />
    <glyph glyph-name="Amacron" unicode="&#x100;" horiz-adv-x="705" 
d="M235 700h235l245 -700h-210l-31 100h-244l-30 -100h-210zM411 280l-59 210l-58 -210h117zM195 895h310v-115h-310v115z" />
    <glyph glyph-name="amacron" unicode="&#x101;" horiz-adv-x="580" 
d="M215 -10q-45 0 -80.5 13t-59.5 36t-37 54t-13 67q0 34 12.5 64t38.5 52.5t67 35.5t97 13h115v20q0 19 -18 34.5t-52 15.5q-45 0 -60 -30h-180q6 34 22.5 67t46 59t73 42.5t103.5 16.5q56 0 101.5 -13t77.5 -40t49 -67.5t17 -94.5v-335h-160l-15 50h-5q-8 -9 -20 -19.5
t-29.5 -19.5t-40 -15t-50.5 -6zM260 135q45 0 70 22t25 48v10h-100q-50 0 -50 -40q0 -15 12.5 -27.5t42.5 -12.5zM145 745h310v-115h-310v115z" />
    <glyph glyph-name="Abreve" unicode="&#x102;" horiz-adv-x="705" 
d="M235 700h235l245 -700h-210l-31 100h-244l-30 -100h-210zM411 280l-59 210l-58 -210h117zM350 760q-34 0 -65 9t-55 28t-40 49.5t-20 73.5h120q4 -26 20.5 -38t39.5 -12t39.5 12t20.5 38h120q-4 -43 -20 -73.5t-40 -49.5t-55 -28t-65 -9z" />
    <glyph glyph-name="abreve" unicode="&#x103;" horiz-adv-x="580" 
d="M215 -10q-45 0 -80.5 13t-59.5 36t-37 54t-13 67q0 34 12.5 64t38.5 52.5t67 35.5t97 13h115v20q0 19 -18 34.5t-52 15.5q-45 0 -60 -30h-180q6 34 22.5 67t46 59t73 42.5t103.5 16.5q56 0 101.5 -13t77.5 -40t49 -67.5t17 -94.5v-335h-160l-15 50h-5q-8 -9 -20 -19.5
t-29.5 -19.5t-40 -15t-50.5 -6zM260 135q45 0 70 22t25 48v10h-100q-50 0 -50 -40q0 -15 12.5 -27.5t42.5 -12.5zM300 610q-34 0 -65 9t-55 28t-40 49.5t-20 73.5h120q4 -26 20.5 -38t39.5 -12t39.5 12t20.5 38h120q-4 -43 -20 -73.5t-40 -49.5t-55 -28t-65 -9z" />
    <glyph glyph-name="Aogonek" unicode="&#x104;" horiz-adv-x="705" 
d="M590 -230q-45 0 -75.5 9.5t-49.5 26t-27 38.5t-8 46q0 22 7 40.5t17.5 32t24 23t26.5 14.5l-31 100h-244l-30 -100h-210l245 700h235l245 -700h-105q-26 -15 -40.5 -35.5t-14.5 -39.5q0 -9 2.5 -17.5t9 -14.5t18 -9.5t30.5 -3.5h20v-110h-45zM411 280l-59 210l-58 -210
h117z" />
    <glyph glyph-name="aogonek" unicode="&#x105;" horiz-adv-x="580" 
d="M515 -230q-45 0 -75.5 9.5t-49.5 26t-27 38.5t-8 46q0 22 7 40.5t17.5 32t24 23t26.5 14.5h-55l-15 50h-5q-8 -9 -20 -19.5t-29.5 -19.5t-40 -15t-50.5 -6q-45 0 -80.5 13t-59.5 36t-37 54t-13 67q0 34 12.5 64t38.5 52.5t67 35.5t97 13h115v20q0 19 -18 34.5t-52 15.5
q-45 0 -60 -30h-180q6 34 22.5 67t46 59t73 42.5t103.5 16.5q56 0 101.5 -13t77.5 -40t49 -67.5t17 -94.5v-335q-26 -15 -40.5 -35.5t-14.5 -39.5q0 -9 2.5 -17.5t9 -14.5t18 -9.5t30.5 -3.5h20v-110h-45zM260 135q45 0 70 22t25 48v10h-100q-50 0 -50 -40q0 -15 12.5 -27.5
t42.5 -12.5z" />
    <glyph glyph-name="Cacute" unicode="&#x106;" horiz-adv-x="715" 
d="M370 -10q-75 0 -137.5 23t-107.5 68.5t-70 113t-25 155.5t25 155.5t70 113t107.5 68.5t137.5 23t131 -20t95 -55.5t62 -83t32 -101.5h-205q-6 11 -13 25t-20 26t-32.5 20.5t-49.5 8.5q-38 0 -64.5 -13.5t-43 -37.5t-24.5 -57t-8 -72t8 -72t24.5 -57t43 -37.5t64.5 -13.5
q30 0 49.5 8.5t32.5 20.5t20 26t13 25h205q-9 -54 -32 -101.5t-62 -83t-95 -55.5t-131 -20zM395 915h160l-120 -150h-130z" />
    <glyph glyph-name="cacute" unicode="&#x107;" horiz-adv-x="595" 
d="M305 -10q-132 0 -203.5 72t-71.5 208t71.5 208t203.5 72q67 0 115 -21t79.5 -54t48 -73t22.5 -77h-180q-11 30 -31.5 47.5t-58.5 17.5t-64 -30t-26 -90t26 -90t64 -30t58.5 17.5t31.5 47.5h180q-6 -38 -22.5 -77.5t-48 -72.5t-79.5 -54t-115 -21zM330 765h160l-120 -150
h-130z" />
    <glyph glyph-name="Ccircumflex" unicode="&#x108;" horiz-adv-x="715" 
d="M370 -10q-75 0 -137.5 23t-107.5 68.5t-70 113t-25 155.5t25 155.5t70 113t107.5 68.5t137.5 23t131 -20t95 -55.5t62 -83t32 -101.5h-205q-6 11 -13 25t-20 26t-32.5 20.5t-49.5 8.5q-38 0 -64.5 -13.5t-43 -37.5t-24.5 -57t-8 -72t8 -72t24.5 -57t43 -37.5t64.5 -13.5
q30 0 49.5 8.5t32.5 20.5t20 26t13 25h205q-9 -54 -32 -101.5t-62 -83t-95 -55.5t-131 -20zM315 920h125l140 -155h-140l-60 70h-5l-60 -70h-140z" />
    <glyph glyph-name="ccircumflex" unicode="&#x109;" horiz-adv-x="595" 
d="M305 -10q-132 0 -203.5 72t-71.5 208t71.5 208t203.5 72q67 0 115 -21t79.5 -54t48 -73t22.5 -77h-180q-11 30 -31.5 47.5t-58.5 17.5t-64 -30t-26 -90t26 -90t64 -30t58.5 17.5t31.5 47.5h180q-6 -38 -22.5 -77.5t-48 -72.5t-79.5 -54t-115 -21zM245 770h125l140 -155
h-140l-60 70h-5l-60 -70h-140z" />
    <glyph glyph-name="Cdotaccent" unicode="&#x10a;" horiz-adv-x="715" 
d="M370 -10q-75 0 -137.5 23t-107.5 68.5t-70 113t-25 155.5t25 155.5t70 113t107.5 68.5t137.5 23t131 -20t95 -55.5t62 -83t32 -101.5h-205q-6 11 -13 25t-20 26t-32.5 20.5t-49.5 8.5q-38 0 -64.5 -13.5t-43 -37.5t-24.5 -57t-8 -72t8 -72t24.5 -57t43 -37.5t64.5 -13.5
q30 0 49.5 8.5t32.5 20.5t20 26t13 25h205q-9 -54 -32 -101.5t-62 -83t-95 -55.5t-131 -20zM378 760q-34 0 -58.5 22.5t-24.5 59.5t24.5 60t58.5 23q33 0 57.5 -23t24.5 -60t-24.5 -59.5t-57.5 -22.5z" />
    <glyph glyph-name="cdotaccent" unicode="&#x10b;" horiz-adv-x="595" 
d="M305 -10q-132 0 -203.5 72t-71.5 208t71.5 208t203.5 72q67 0 115 -21t79.5 -54t48 -73t22.5 -77h-180q-11 30 -31.5 47.5t-58.5 17.5t-64 -30t-26 -90t26 -90t64 -30t58.5 17.5t31.5 47.5h180q-6 -38 -22.5 -77.5t-48 -72.5t-79.5 -54t-115 -21zM308 610
q-34 0 -58.5 22.5t-24.5 59.5t24.5 60t58.5 23q33 0 57.5 -23t24.5 -60t-24.5 -59.5t-57.5 -22.5z" />
    <glyph glyph-name="Ccaron" unicode="&#x10c;" horiz-adv-x="715" 
d="M370 -10q-75 0 -137.5 23t-107.5 68.5t-70 113t-25 155.5t25 155.5t70 113t107.5 68.5t137.5 23t131 -20t95 -55.5t62 -83t32 -101.5h-205q-6 11 -13 25t-20 26t-32.5 20.5t-49.5 8.5q-38 0 -64.5 -13.5t-43 -37.5t-24.5 -57t-8 -72t8 -72t24.5 -57t43 -37.5t64.5 -13.5
q30 0 49.5 8.5t32.5 20.5t20 26t13 25h205q-9 -54 -32 -101.5t-62 -83t-95 -55.5t-131 -20zM175 920h140l60 -70h5l60 70h140l-140 -155h-125z" />
    <glyph glyph-name="ccaron" unicode="&#x10d;" horiz-adv-x="595" 
d="M305 -10q-132 0 -203.5 72t-71.5 208t71.5 208t203.5 72q67 0 115 -21t79.5 -54t48 -73t22.5 -77h-180q-11 30 -31.5 47.5t-58.5 17.5t-64 -30t-26 -90t26 -90t64 -30t58.5 17.5t31.5 47.5h180q-6 -38 -22.5 -77.5t-48 -72.5t-79.5 -54t-115 -21zM105 765h140l60 -70h5
l60 70h140l-140 -155h-125z" />
    <glyph glyph-name="Dcaron" unicode="&#x10e;" horiz-adv-x="710" 
d="M60 700h295q77 0 137.5 -25t102 -71t63.5 -110.5t22 -143.5t-22 -143.5t-63.5 -110.5t-102 -71t-137.5 -25h-295v700zM345 180q26 0 50.5 12t43 34t30 53.5t11.5 70.5t-11.5 70.5t-30 53.5t-43 34t-50.5 12h-85v-340h85zM150 920h140l60 -70h5l60 70h140l-140 -155h-125z
" />
    <glyph glyph-name="dcaron" unicode="&#x10f;" horiz-adv-x="750" 
d="M265 -10q-53 0 -96 17.5t-74 53t-48 88t-17 121.5t17 121.5t48 88t74 53t96 17.5q31 0 54.5 -8t39.5 -17.5t25 -18.5l11 -11h5v205h180v-700h-160l-15 50h-5q-8 -9 -19 -19.5t-27.5 -19.5t-38.5 -15t-50 -6zM305 150q42 0 68.5 30t26.5 90t-26.5 90t-68.5 30t-68.5 -30
t-26.5 -90t26.5 -90t68.5 -30z" />
    <glyph glyph-name="Dcroat" unicode="&#x110;" horiz-adv-x="730" 
d="M80 270h-80v165h80v265h295q77 0 137.5 -25t102 -71t63.5 -110.5t22 -143.5t-22 -143.5t-63.5 -110.5t-102 -71t-137.5 -25h-295v270zM365 180q26 0 50.5 12t43 34t30 53.5t11.5 70.5t-11.5 70.5t-30 53.5t-43 34t-50.5 12h-85v-85h130v-165h-130v-90h85z" />
    <glyph glyph-name="dcroat" unicode="&#x111;" horiz-adv-x="625" 
d="M255 -10q-106 0 -165.5 65t-59.5 190t59.5 190t165.5 65q31 0 54.5 -8t39.5 -17.5t25 -18.5l11 -11h5v75h-115v115h115v65h180v-65h70v-115h-70v-520h-160l-15 50h-5q-8 -9 -19 -19.5t-27.5 -19.5t-38.5 -15t-50 -6zM300 150q38 0 64 25t26 70t-26 70t-64 25t-64 -25
t-26 -70t26 -70t64 -25z" />
    <glyph glyph-name="Emacron" unicode="&#x112;" horiz-adv-x="605" 
d="M60 700h500v-180h-300v-85h280v-165h-280v-90h310v-180h-510v700zM160 895h310v-115h-310v115z" />
    <glyph glyph-name="emacron" unicode="&#x113;" horiz-adv-x="610" 
d="M310 -10q-136 0 -208 72t-72 208t74 208t206 72q67 0 118 -22.5t84.5 -61t50.5 -89t17 -107.5q0 -11 -1 -21t-2 -18q-1 -9 -2 -16h-370q2 -11 8 -25t17.5 -26t28.5 -20.5t41 -8.5q22 0 37.5 4t26 10t16.5 13t10 13h180q-6 -24 -22 -56t-46.5 -60.5t-77.5 -48.5t-114 -20z
M405 330q-8 30 -31.5 52.5t-68.5 22.5t-68.5 -22.5t-31.5 -52.5h200zM150 745h310v-115h-310v115z" />
    <glyph glyph-name="Ebreve" unicode="&#x114;" horiz-adv-x="605" 
d="M60 700h500v-180h-300v-85h280v-165h-280v-90h310v-180h-510v700zM315 760q-34 0 -65 9t-55 28t-40 49.5t-20 73.5h120q4 -26 20.5 -38t39.5 -12t39.5 12t20.5 38h120q-4 -43 -20 -73.5t-40 -49.5t-55 -28t-65 -9z" />
    <glyph glyph-name="ebreve" unicode="&#x115;" horiz-adv-x="610" 
d="M310 -10q-136 0 -208 72t-72 208t74 208t206 72q67 0 118 -22.5t84.5 -61t50.5 -89t17 -107.5q0 -11 -1 -21t-2 -18q-1 -9 -2 -16h-370q2 -11 8 -25t17.5 -26t28.5 -20.5t41 -8.5q22 0 37.5 4t26 10t16.5 13t10 13h180q-6 -24 -22 -56t-46.5 -60.5t-77.5 -48.5t-114 -20z
M405 330q-8 30 -31.5 52.5t-68.5 22.5t-68.5 -22.5t-31.5 -52.5h200zM305 610q-34 0 -65 9t-55 28t-40 49.5t-20 73.5h120q4 -26 20.5 -38t39.5 -12t39.5 12t20.5 38h120q-4 -43 -20 -73.5t-40 -49.5t-55 -28t-65 -9z" />
    <glyph glyph-name="Edotaccent" unicode="&#x116;" horiz-adv-x="605" 
d="M60 700h500v-180h-300v-85h280v-165h-280v-90h310v-180h-510v700zM318 760q-34 0 -58.5 22.5t-24.5 59.5t24.5 60t58.5 23q33 0 57.5 -23t24.5 -60t-24.5 -59.5t-57.5 -22.5z" />
    <glyph glyph-name="edotaccent" unicode="&#x117;" horiz-adv-x="610" 
d="M310 -10q-136 0 -208 72t-72 208t74 208t206 72q67 0 118 -22.5t84.5 -61t50.5 -89t17 -107.5q0 -11 -1 -21t-2 -18q-1 -9 -2 -16h-370q2 -11 8 -25t17.5 -26t28.5 -20.5t41 -8.5q22 0 37.5 4t26 10t16.5 13t10 13h180q-6 -24 -22 -56t-46.5 -60.5t-77.5 -48.5t-114 -20z
M405 330q-8 30 -31.5 52.5t-68.5 22.5t-68.5 -22.5t-31.5 -52.5h200zM308 610q-34 0 -58.5 22.5t-24.5 59.5t24.5 60t58.5 23q33 0 57.5 -23t24.5 -60t-24.5 -59.5t-57.5 -22.5z" />
    <glyph glyph-name="Eogonek" unicode="&#x118;" horiz-adv-x="605" 
d="M550 -230q-45 0 -75.5 9.5t-49.5 26t-27 38.5t-8 46q0 22 7 40.5t17.5 32t24 23t26.5 14.5h-405v700h500v-180h-300v-85h280v-165h-280v-90h310v-180q-26 -15 -40.5 -35.5t-14.5 -39.5q0 -9 2.5 -17.5t9 -14.5t18 -9.5t30.5 -3.5h20v-110h-45v0z" />
    <glyph glyph-name="eogonek" unicode="&#x119;" horiz-adv-x="610" 
d="M354 -230q-45 0 -75.5 9.5t-49.5 26t-27 38.5t-8 46q0 40 19 65.5t42 38.5q-109 14 -167 84.5t-58 191.5q0 136 74 208t206 72q67 0 118 -22.5t84.5 -61t50.5 -89t17 -107.5q0 -11 -1 -21t-2 -18q-1 -9 -2 -16h-370q2 -11 8 -25t17.5 -26t28.5 -20.5t41 -8.5q22 0 37.5 4
t26 10t16.5 13t10 13h180q-5 -22 -18.5 -50t-37.5 -54.5t-61 -47.5t-89 -29q-22 -14 -33.5 -33t-11.5 -36q0 -9 2.5 -17.5t9 -14.5t18 -9.5t30.5 -3.5h20v-110h-45zM405 330q-8 30 -31.5 52.5t-68.5 22.5t-68.5 -22.5t-31.5 -52.5h200z" />
    <glyph glyph-name="Ecaron" unicode="&#x11a;" horiz-adv-x="605" 
d="M60 700h500v-180h-300v-85h280v-165h-280v-90h310v-180h-510v700zM115 920h140l60 -70h5l60 70h140l-140 -155h-125z" />
    <glyph glyph-name="ecaron" unicode="&#x11b;" horiz-adv-x="610" 
d="M310 -10q-136 0 -208 72t-72 208t74 208t206 72q67 0 118 -22.5t84.5 -61t50.5 -89t17 -107.5q0 -11 -1 -21t-2 -18q-1 -9 -2 -16h-370q2 -11 8 -25t17.5 -26t28.5 -20.5t41 -8.5q22 0 37.5 4t26 10t16.5 13t10 13h180q-6 -24 -22 -56t-46.5 -60.5t-77.5 -48.5t-114 -20z
M405 330q-8 30 -31.5 52.5t-68.5 22.5t-68.5 -22.5t-31.5 -52.5h200zM105 765h140l60 -70h5l60 70h140l-140 -155h-125z" />
    <glyph glyph-name="Gcircumflex" unicode="&#x11c;" horiz-adv-x="730" 
d="M370 -10q-75 0 -137.5 23t-107.5 68.5t-70 113t-25 155.5t25 155.5t70 113t107.5 68.5t137.5 23t131 -20.5t95 -55.5t62 -82.5t32 -101.5h-205q-3 8 -10 21.5t-20.5 26.5t-34 22.5t-50.5 9.5q-38 0 -64.5 -13.5t-43 -37.5t-24.5 -57t-8 -72t8 -72t25 -57t45 -37.5
t67 -13.5q28 0 48 6.5t33.5 17t21.5 22.5t13 24h-141v150h350v-65q0 -75 -23.5 -136.5t-66.5 -106t-104 -68.5t-136 -24zM315 920h125l140 -155h-140l-60 70h-5l-60 -70h-140z" />
    <glyph glyph-name="gcircumflex" unicode="&#x11d;" horiz-adv-x="630" 
d="M315 -200q-78 0 -129 20t-81 49.5t-43.5 63.5t-16.5 62h180q4 -13 12.5 -21.5t20.5 -14t25.5 -7.5t26.5 -2q49 0 69.5 19t20.5 61v55h-5q-4 -6 -13.5 -15t-25.5 -18t-38.5 -15.5t-52.5 -6.5q-49 0 -91.5 17.5t-74.5 50t-50.5 80t-18.5 107.5t18.5 109t51.5 83.5
t77.5 53.5t97.5 19q28 0 50 -6t38.5 -14.5t28 -18t18.5 -16.5h5l15 45h150v-510q0 -113 -63 -171.5t-202 -58.5zM305 180q42 0 68.5 28.5t26.5 81.5t-26.5 81.5t-68.5 28.5t-68.5 -28.5t-26.5 -81.5t26.5 -81.5t68.5 -28.5zM255 770h125l140 -155h-140l-60 70h-5l-60 -70
h-140z" />
    <glyph glyph-name="Gbreve" unicode="&#x11e;" horiz-adv-x="730" 
d="M370 -10q-75 0 -137.5 23t-107.5 68.5t-70 113t-25 155.5t25 155.5t70 113t107.5 68.5t137.5 23t131 -20.5t95 -55.5t62 -82.5t32 -101.5h-205q-3 8 -10 21.5t-20.5 26.5t-34 22.5t-50.5 9.5q-38 0 -64.5 -13.5t-43 -37.5t-24.5 -57t-8 -72t8 -72t25 -57t45 -37.5
t67 -13.5q28 0 48 6.5t33.5 17t21.5 22.5t13 24h-141v150h350v-65q0 -75 -23.5 -136.5t-66.5 -106t-104 -68.5t-136 -24zM375 760q-34 0 -65 9t-55 28t-40 49.5t-20 73.5h120q4 -26 20.5 -38t39.5 -12t39.5 12t20.5 38h120q-4 -43 -20 -73.5t-40 -49.5t-55 -28t-65 -9z" />
    <glyph glyph-name="gbreve" unicode="&#x11f;" horiz-adv-x="630" 
d="M315 -200q-78 0 -129 20t-81 49.5t-43.5 63.5t-16.5 62h180q4 -13 12.5 -21.5t20.5 -14t25.5 -7.5t26.5 -2q49 0 69.5 19t20.5 61v55h-5q-4 -6 -13.5 -15t-25.5 -18t-38.5 -15.5t-52.5 -6.5q-49 0 -91.5 17.5t-74.5 50t-50.5 80t-18.5 107.5t18.5 109t51.5 83.5
t77.5 53.5t97.5 19q28 0 50 -6t38.5 -14.5t28 -18t18.5 -16.5h5l15 45h150v-510q0 -113 -63 -171.5t-202 -58.5zM305 180q42 0 68.5 28.5t26.5 81.5t-26.5 81.5t-68.5 28.5t-68.5 -28.5t-26.5 -81.5t26.5 -81.5t68.5 -28.5zM315 610q-34 0 -65 9t-55 28t-40 49.5t-20 73.5
h120q4 -26 20.5 -38t39.5 -12t39.5 12t20.5 38h120q-4 -43 -20 -73.5t-40 -49.5t-55 -28t-65 -9z" />
    <glyph glyph-name="Gdotaccent" unicode="&#x120;" horiz-adv-x="730" 
d="M370 -10q-75 0 -137.5 23t-107.5 68.5t-70 113t-25 155.5t25 155.5t70 113t107.5 68.5t137.5 23t131 -20.5t95 -55.5t62 -82.5t32 -101.5h-205q-3 8 -10 21.5t-20.5 26.5t-34 22.5t-50.5 9.5q-38 0 -64.5 -13.5t-43 -37.5t-24.5 -57t-8 -72t8 -72t25 -57t45 -37.5
t67 -13.5q28 0 48 6.5t33.5 17t21.5 22.5t13 24h-141v150h350v-65q0 -75 -23.5 -136.5t-66.5 -106t-104 -68.5t-136 -24zM378 760q-34 0 -58.5 22.5t-24.5 59.5t24.5 60t58.5 23q33 0 57.5 -23t24.5 -60t-24.5 -59.5t-57.5 -22.5z" />
    <glyph glyph-name="gdotaccent" unicode="&#x121;" horiz-adv-x="630" 
d="M315 -200q-78 0 -129 20t-81 49.5t-43.5 63.5t-16.5 62h180q4 -13 12.5 -21.5t20.5 -14t25.5 -7.5t26.5 -2q49 0 69.5 19t20.5 61v55h-5q-4 -6 -13.5 -15t-25.5 -18t-38.5 -15.5t-52.5 -6.5q-49 0 -91.5 17.5t-74.5 50t-50.5 80t-18.5 107.5t18.5 109t51.5 83.5
t77.5 53.5t97.5 19q28 0 50 -6t38.5 -14.5t28 -18t18.5 -16.5h5l15 45h150v-510q0 -113 -63 -171.5t-202 -58.5zM305 180q42 0 68.5 28.5t26.5 81.5t-26.5 81.5t-68.5 28.5t-68.5 -28.5t-26.5 -81.5t26.5 -81.5t68.5 -28.5zM318 610q-34 0 -58.5 22.5t-24.5 59.5t24.5 60
t58.5 23q33 0 57.5 -23t24.5 -60t-24.5 -59.5t-57.5 -22.5z" />
    <glyph glyph-name="Gcommaaccent" unicode="&#x122;" horiz-adv-x="730" 
d="M370 -10q-75 0 -137.5 23t-107.5 68.5t-70 113t-25 155.5t25 155.5t70 113t107.5 68.5t137.5 23t131 -20.5t95 -55.5t62 -82.5t32 -101.5h-205q-3 8 -10 21.5t-20.5 26.5t-34 22.5t-50.5 9.5q-38 0 -64.5 -13.5t-43 -37.5t-24.5 -57t-8 -72t8 -72t25 -57t45 -37.5
t67 -13.5q28 0 48 6.5t33.5 17t21.5 22.5t13 24h-141v150h350v-65q0 -75 -23.5 -136.5t-66.5 -106t-104 -68.5t-136 -24zM300 -85h150l-75 -170h-120z" />
    <glyph glyph-name="gcommaaccent" unicode="&#x123;" horiz-adv-x="630" 
d="M297 825h138l-40 -210h-160zM315 -200q-78 0 -129 20t-81 49.5t-43.5 63.5t-16.5 62h180q4 -13 12.5 -21.5t20.5 -14t25.5 -7.5t26.5 -2q49 0 69.5 19t20.5 61v55h-5q-4 -6 -13.5 -15t-25.5 -18t-38.5 -15.5t-52.5 -6.5q-49 0 -91.5 17.5t-74.5 50t-50.5 80t-18.5 107.5
t18.5 109t51.5 83.5t77.5 53.5t97.5 19q28 0 50 -6t38.5 -14.5t28 -18t18.5 -16.5h5l15 45h150v-510q0 -113 -63 -171.5t-202 -58.5zM305 180q42 0 68.5 28.5t26.5 81.5t-26.5 81.5t-68.5 28.5t-68.5 -28.5t-26.5 -81.5t26.5 -81.5t68.5 -28.5z" />
    <glyph glyph-name="Hcircumflex" unicode="&#x124;" horiz-adv-x="730" 
d="M60 700h200v-255h210v255h200v-700h-200v265h-210v-265h-200v700zM305 920h125l140 -155h-140l-60 70h-5l-60 -70h-140z" />
    <glyph glyph-name="hcircumflex" unicode="&#x125;" horiz-adv-x="615" 
d="M55 700h180v-200h5q23 20 57 35t83 15q32 0 65.5 -11t61.5 -36.5t45.5 -66.5t17.5 -101v-335h-180v300q0 42 -21 63.5t-57 21.5q-35 0 -56 -21.5t-21 -63.5v-300h-180v700zM245 940h125l140 -155h-140l-60 70h-5l-60 -70h-140z" />
    <glyph glyph-name="Hbar" unicode="&#x126;" horiz-adv-x="750" 
d="M70 489h-60v145h60v66h200v-66h210v66h200v-66h60v-145h-60v-489h-200v250h-210v-250h-200v489zM480 430v59h-210v-59h210z" />
    <glyph glyph-name="hbar" unicode="&#x127;" horiz-adv-x="610" 
d="M55 520h-65v115h65v65h180v-65h120v-115h-120v-90h5q23 20 57 35t83 15q32 0 65.5 -11t61.5 -36.5t45.5 -66.5t17.5 -101v-265h-180v230q0 42 -21 63.5t-57 21.5q-35 0 -56 -21.5t-21 -63.5v-230h-180v520z" />
    <glyph glyph-name="Imacron" unicode="&#x12a;" horiz-adv-x="320" 
d="M60 700h200v-700h-200v700zM5 895h310v-115h-310v115z" />
    <glyph glyph-name="imacron" unicode="&#x12b;" horiz-adv-x="280" 
d="M50 540h180v-540h-180v540zM-15 745h310v-115h-310v115z" />
    <glyph glyph-name="Ibreve" unicode="&#x12c;" horiz-adv-x="320" 
d="M60 700h200v-700h-200v700zM160 760q-34 0 -65 9t-55 28t-40 49.5t-20 73.5h120q4 -26 20.5 -38t39.5 -12t39.5 12t20.5 38h120q-4 -43 -20 -73.5t-40 -49.5t-55 -28t-65 -9z" />
    <glyph glyph-name="ibreve" unicode="&#x12d;" horiz-adv-x="280" 
d="M50 540h180v-540h-180v540zM140 610q-34 0 -65 9t-55 28t-40 49.5t-20 73.5h120q4 -26 20.5 -38t39.5 -12t39.5 12t20.5 38h120q-4 -43 -20 -73.5t-40 -49.5t-55 -28t-65 -9z" />
    <glyph glyph-name="Iogonek" unicode="&#x12e;" horiz-adv-x="320" 
d="M145 -230q-45 0 -75.5 9.5t-49.5 26t-27 38.5t-8 46q0 22 7 40.5t17.5 32t24 23t26.5 14.5v700h200v-700h-95q-26 -15 -40.5 -35.5t-14.5 -39.5q0 -9 2.5 -17.5t9 -14.5t18 -9.5t30.5 -3.5h20v-110h-45v0z" />
    <glyph glyph-name="iogonek" unicode="&#x12f;" horiz-adv-x="280" 
d="M135 -230q-45 0 -75.5 9.5t-49.5 26t-27 38.5t-8 46q0 22 7 40.5t17.5 32t24 23t26.5 14.5v540h180v-540h-75q-26 -15 -40.5 -35.5t-14.5 -39.5q0 -9 2.5 -17.5t9 -14.5t18 -9.5t30.5 -3.5h20v-110h-45zM140 580q-49 0 -74.5 26.5t-25.5 68.5t25.5 68.5t74.5 26.5
t74.5 -26.5t25.5 -68.5t-25.5 -68.5t-74.5 -26.5z" />
    <glyph glyph-name="Idotaccent" unicode="&#x130;" horiz-adv-x="320" 
d="M60 700h200v-700h-200v700zM163 760q-34 0 -58.5 22.5t-24.5 59.5t24.5 60t58.5 23q33 0 57.5 -23t24.5 -60t-24.5 -59.5t-57.5 -22.5z" />
    <glyph glyph-name="dotlessi" unicode="&#x131;" horiz-adv-x="280" 
d="M50 540h180v-540h-180v540z" />
    <glyph glyph-name="uni0132" unicode="&#x132;" horiz-adv-x="875" 
d="M60 700h200v-700h-200v700zM570 -10q-125 0 -190 64t-65 181h200q0 -65 55 -65q23 0 36.5 14t13.5 56v460h200v-460q0 -121 -64.5 -185.5t-185.5 -64.5z" />
    <glyph glyph-name="uni0133" unicode="&#x133;" horiz-adv-x="565" 
d="M50 540h180v-540h-180v540zM140 580q-49 0 -74.5 26.5t-25.5 68.5t25.5 68.5t74.5 26.5t74.5 -26.5t25.5 -68.5t-25.5 -68.5t-74.5 -26.5zM210 -40h85q19 0 29.5 13t10.5 32v535h180v-570q0 -86 -42.5 -128t-147.5 -42h-115v160zM425 580q-49 0 -74.5 26.5t-25.5 68.5
t25.5 68.5t74.5 26.5t74.5 -26.5t25.5 -68.5t-25.5 -68.5t-74.5 -26.5z" />
    <glyph glyph-name="Jcircumflex" unicode="&#x134;" horiz-adv-x="580" 
d="M275 -10q-125 0 -190 64t-65 181h200q0 -65 55 -65q23 0 36.5 14t13.5 56v460h200v-460q0 -121 -64.5 -185.5t-185.5 -64.5zM360 920h125l140 -155h-140l-60 70h-5l-60 -70h-140z" />
    <glyph glyph-name="jcircumflex" unicode="&#x135;" horiz-adv-x="280" 
d="M-75 -40h85q19 0 29.5 13t10.5 32v535h180v-570q0 -86 -42.5 -128t-147.5 -42h-115v160zM75 770h125l140 -155h-140l-60 70h-5l-60 -70h-140z" />
    <glyph glyph-name="Kcommaaccent" unicode="&#x136;" horiz-adv-x="685" 
d="M60 700h200v-295l200 295h230l-240 -345l255 -355h-230l-215 305v-305h-200v700zM285 -85h150l-75 -170h-120z" />
    <glyph glyph-name="kcommaaccent" unicode="&#x137;" horiz-adv-x="595" 
d="M55 700h180v-385l155 225h210l-185 -265l200 -275h-210l-170 235v-235h-180v700zM245 -85h150l-75 -170h-120z" />
    <glyph glyph-name="Lacute" unicode="&#x139;" horiz-adv-x="570" 
d="M60 700h200v-520h290v-180h-490v700zM185 915h160l-120 -150h-130z" />
    <glyph glyph-name="lacute" unicode="&#x13a;" horiz-adv-x="290" 
d="M55 700h180v-700h-180v700zM170 915h160l-120 -150h-130z" />
    <glyph glyph-name="Lcommaaccent" unicode="&#x13b;" horiz-adv-x="570" 
d="M60 700h200v-520h290v-180h-490v700zM235 -85h150l-75 -170h-120z" />
    <glyph glyph-name="lcommaaccent" unicode="&#x13c;" horiz-adv-x="290" 
d="M55 700h180v-700h-180v700zM70 -85h150l-75 -170h-120z" />
    <glyph glyph-name="Lcaron" unicode="&#x13d;" horiz-adv-x="570" 
d="M60 700h200v-520h290v-180h-490v700z" />
    <glyph glyph-name="lcaron" unicode="&#x13e;" horiz-adv-x="405" 
d="M55 700h180v-700h-180v700z" />
    <glyph glyph-name="Ldot" unicode="&#x13f;" horiz-adv-x="570" 
d="M445 330q-18 0 -35 7t-30.5 19.5t-21.5 29.5t-8 38t8 39t21.5 30.5t30.5 19.5t35 7t35 -7t30.5 -19.5t21.5 -30.5t8 -39t-8 -38t-21.5 -29.5t-30.5 -19.5t-35 -7zM60 700h200v-520h290v-180h-490v700z" />
    <glyph glyph-name="ldot" unicode="&#x140;" horiz-adv-x="450" 
d="M370 270q-18 0 -35 7t-30.5 19.5t-21.5 29.5t-8 38t8 39t21.5 30.5t30.5 19.5t35 7t35 -7t30.5 -19.5t21.5 -30.5t8 -39t-8 -38t-21.5 -29.5t-30.5 -19.5t-35 -7zM55 700h180v-700h-180v700z" />
    <glyph glyph-name="Lslash" unicode="&#x141;" horiz-adv-x="600" 
d="M90 237l-90 -33v180l90 33v283h200v-209l145 54v-180l-145 -54v-131h290v-180h-490v237z" />
    <glyph glyph-name="lslash" unicode="&#x142;" horiz-adv-x="360" 
d="M85 234l-75 -34v155l75 34v311h180v-229l85 39v-155l-85 -39v-316h-180v234z" />
    <glyph glyph-name="Nacute" unicode="&#x143;" horiz-adv-x="775" 
d="M60 700h250l205 -404v404h200v-700h-250l-205 404v-404h-200v700zM410 915h160l-120 -150h-130z" />
    <glyph glyph-name="nacute" unicode="&#x144;" horiz-adv-x="610" 
d="M50 540h160l15 -50h5q26 28 61 44t84 16q32 0 65.5 -11t61.5 -36.5t45.5 -66.5t17.5 -101v-335h-180v300q0 42 -21 63.5t-57 21.5q-35 0 -56 -21.5t-21 -63.5v-300h-180v540zM330 765h160l-120 -150h-130z" />
    <glyph glyph-name="Ncommaaccent" unicode="&#x145;" horiz-adv-x="775" 
d="M60 700h250l205 -404v404h200v-700h-250l-205 404v-404h-200v700zM315 -85h150l-75 -170h-120z" />
    <glyph glyph-name="ncommaaccent" unicode="&#x146;" horiz-adv-x="610" 
d="M50 540h160l15 -50h5q26 28 61 44t84 16q32 0 65.5 -11t61.5 -36.5t45.5 -66.5t17.5 -101v-335h-180v300q0 42 -21 63.5t-57 21.5q-35 0 -56 -21.5t-21 -63.5v-300h-180v540zM230 -85h150l-75 -170h-120z" />
    <glyph glyph-name="Ncaron" unicode="&#x147;" horiz-adv-x="775" 
d="M60 700h250l205 -404v404h200v-700h-250l-205 404v-404h-200v700zM185 920h140l60 -70h5l60 70h140l-140 -155h-125z" />
    <glyph glyph-name="ncaron" unicode="&#x148;" horiz-adv-x="610" 
d="M50 540h160l15 -50h5q26 28 61 44t84 16q32 0 65.5 -11t61.5 -36.5t45.5 -66.5t17.5 -101v-335h-180v300q0 42 -21 63.5t-57 21.5q-35 0 -56 -21.5t-21 -63.5v-300h-180v540zM105 765h140l60 -70h5l60 70h140l-140 -155h-125z" />
    <glyph glyph-name="napostrophe" unicode="&#x149;" horiz-adv-x="725" 
d="M165 540h160l15 -50h5q26 28 61 44t84 16q32 0 65.5 -11t61.5 -36.5t45.5 -66.5t17.5 -101v-335h-180v300q0 42 -21 63.5t-57 21.5q-35 0 -56 -21.5t-21 -63.5v-300h-180v540z" />
    <glyph glyph-name="Eng" unicode="&#x14a;" horiz-adv-x="775" 
d="M375 -90h60q42 0 63.5 21t21.5 59v10h-55l-205 404v-404h-200v700h250l205 -404v404h200v-674q0 -154 -65.5 -225t-204.5 -71h-70v180z" />
    <glyph glyph-name="eng" unicode="&#x14b;" horiz-adv-x="610" 
d="M260 -40h85q19 0 29.5 13t10.5 32v295q0 42 -21 63.5t-57 21.5q-35 0 -56 -21.5t-21 -63.5v-300h-180v540h160l15 -50h5q26 28 61 44t84 16q32 0 65.5 -11t61.5 -36.5t45.5 -66.5t17.5 -101v-365q0 -86 -42.5 -128t-147.5 -42h-115v160z" />
    <glyph glyph-name="Omacron" unicode="&#x14c;" horiz-adv-x="740" 
d="M370 -10q-75 0 -137.5 23t-107.5 68.5t-70 113t-25 155.5t25 155.5t70 113t107.5 68.5t137.5 23t137.5 -23t107.5 -68.5t70 -113t25 -155.5t-25 -155.5t-70 -113t-107.5 -68.5t-137.5 -23zM370 170q37 0 64 13.5t43.5 37.5t24.5 57t8 72t-8 72t-24.5 57t-43.5 37.5
t-64 13.5q-38 0 -64.5 -13.5t-43 -37.5t-24.5 -57t-8 -72t8 -72t24.5 -57t43 -37.5t64.5 -13.5zM215 895h310v-115h-310v115z" />
    <glyph glyph-name="omacron" unicode="&#x14d;" horiz-adv-x="610" 
d="M305 -10q-132 0 -203.5 72t-71.5 208t71.5 208t203.5 72t203.5 -72t71.5 -208t-71.5 -208t-203.5 -72zM305 150q42 0 68.5 30t26.5 90t-26.5 90t-68.5 30t-68.5 -30t-26.5 -90t26.5 -90t68.5 -30zM150 745h310v-115h-310v115z" />
    <glyph glyph-name="Obreve" unicode="&#x14e;" horiz-adv-x="740" 
d="M370 -10q-75 0 -137.5 23t-107.5 68.5t-70 113t-25 155.5t25 155.5t70 113t107.5 68.5t137.5 23t137.5 -23t107.5 -68.5t70 -113t25 -155.5t-25 -155.5t-70 -113t-107.5 -68.5t-137.5 -23zM370 170q37 0 64 13.5t43.5 37.5t24.5 57t8 72t-8 72t-24.5 57t-43.5 37.5
t-64 13.5q-38 0 -64.5 -13.5t-43 -37.5t-24.5 -57t-8 -72t8 -72t24.5 -57t43 -37.5t64.5 -13.5zM370 760q-34 0 -65 9t-55 28t-40 49.5t-20 73.5h120q4 -26 20.5 -38t39.5 -12t39.5 12t20.5 38h120q-4 -43 -20 -73.5t-40 -49.5t-55 -28t-65 -9z" />
    <glyph glyph-name="obreve" unicode="&#x14f;" horiz-adv-x="610" 
d="M305 -10q-132 0 -203.5 72t-71.5 208t71.5 208t203.5 72t203.5 -72t71.5 -208t-71.5 -208t-203.5 -72zM305 150q42 0 68.5 30t26.5 90t-26.5 90t-68.5 30t-68.5 -30t-26.5 -90t26.5 -90t68.5 -30zM305 610q-34 0 -65 9t-55 28t-40 49.5t-20 73.5h120q4 -26 20.5 -38
t39.5 -12t39.5 12t20.5 38h120q-4 -43 -20 -73.5t-40 -49.5t-55 -28t-65 -9z" />
    <glyph glyph-name="Ohungarumlaut" unicode="&#x150;" horiz-adv-x="740" 
d="M370 -10q-75 0 -137.5 23t-107.5 68.5t-70 113t-25 155.5t25 155.5t70 113t107.5 68.5t137.5 23t137.5 -23t107.5 -68.5t70 -113t25 -155.5t-25 -155.5t-70 -113t-107.5 -68.5t-137.5 -23zM370 170q37 0 64 13.5t43.5 37.5t24.5 57t8 72t-8 72t-24.5 57t-43.5 37.5
t-64 13.5q-38 0 -64.5 -13.5t-43 -37.5t-24.5 -57t-8 -72t8 -72t24.5 -57t43 -37.5t64.5 -13.5zM310 915h150l-120 -150h-125zM510 915h150l-120 -150h-125z" />
    <glyph glyph-name="ohungarumlaut" unicode="&#x151;" horiz-adv-x="610" 
d="M305 -10q-132 0 -203.5 72t-71.5 208t71.5 208t203.5 72t203.5 -72t71.5 -208t-71.5 -208t-203.5 -72zM305 150q42 0 68.5 30t26.5 90t-26.5 90t-68.5 30t-68.5 -30t-26.5 -90t26.5 -90t68.5 -30zM235 765h150l-120 -150h-125zM435 765h150l-120 -150h-125z" />
    <glyph glyph-name="OE" unicode="&#x152;" horiz-adv-x="1035" 
d="M345 -10q-66 0 -123 24t-100 70t-67.5 113t-24.5 153t24.5 153t67.5 113t100 70t123 24q39 0 67.5 -7.5t46.5 -15.5q21 -10 36 -22v35h505v-180h-305v-90h275v-165h-275v-85h295v-180h-495v35q-15 -13 -36 -23q-18 -8 -46.5 -15t-67.5 -7zM363 170q34 0 58.5 14t41 38.5
t24.5 57t8 70.5q0 37 -8 70t-24.5 57.5t-41 38.5t-58.5 14q-33 0 -58 -14t-41.5 -38.5t-25 -57.5t-8.5 -70q0 -38 8.5 -70.5t25 -57t41.5 -38.5t58 -14z" />
    <glyph glyph-name="oe" unicode="&#x153;" horiz-adv-x="959" 
d="M300 -10q-128 0 -199 72t-71 208t71 208t199 72q38 0 67.5 -8.5t51.5 -20.5t37 -26t24 -25q9 11 25.5 25t39.5 26t53 20.5t66 8.5q67 0 117 -22.5t83 -61t49 -89t16 -107.5q0 -11 -1 -21t-2 -18q-1 -9 -2 -16h-359q2 -12 7.5 -26t15.5 -26t26 -20t40 -8q22 0 37 4
t24.5 10t14.5 13t9 13h180q-6 -24 -21 -56t-44.5 -60.5t-76 -48.5t-113.5 -20q-37 0 -67 8.5t-53 20.5t-39 26t-25 25q-9 -11 -24 -25t-37 -26t-51.5 -20.5t-67.5 -8.5zM300 390q-38 0 -64 -30t-26 -90t26 -90t64 -30t64 30t26 90t-26 90t-64 30zM754 330q-8 30 -29 52.5
t-66 22.5t-65.5 -22t-28.5 -53h189z" />
    <glyph glyph-name="Racute" unicode="&#x154;" horiz-adv-x="670" 
d="M60 700h320q58 0 104.5 -18.5t78.5 -51t49.5 -76.5t17.5 -94q0 -41 -9.5 -73t-23.5 -56t-30 -40t-30 -26.5t-23 -15l-9 -4.5l155 -245h-220l-132 220h-48v-220h-200v700zM365 400q30 0 47.5 17t17.5 43t-17.5 43t-47.5 17h-105v-120h105zM355 915h160l-120 -150h-130z
" />
    <glyph glyph-name="racute" unicode="&#x155;" horiz-adv-x="440" 
d="M50 540h160l15 -50h5q11 14 26.5 23.5t32 15.5t32.5 8.5t29 2.5h80v-170h-70q-60 0 -95 -31.5t-35 -103.5v-235h-180v540zM265 765h160l-120 -150h-130z" />
    <glyph glyph-name="Rcommaaccent" unicode="&#x156;" horiz-adv-x="670" 
d="M60 700h320q58 0 104.5 -18.5t78.5 -51t49.5 -76.5t17.5 -94q0 -41 -9.5 -73t-23.5 -56t-30 -40t-30 -26.5t-23 -15l-9 -4.5l155 -245h-220l-132 220h-48v-220h-200v700zM365 400q30 0 47.5 17t17.5 43t-17.5 43t-47.5 17h-105v-120h105zM275 -85h150l-75 -170h-120z" />
    <glyph glyph-name="rcommaaccent" unicode="&#x157;" horiz-adv-x="440" 
d="M50 540h160l15 -50h5q11 14 26.5 23.5t32 15.5t32.5 8.5t29 2.5h80v-170h-70q-60 0 -95 -31.5t-35 -103.5v-235h-180v540zM65 -85h150l-75 -170h-120z" />
    <glyph glyph-name="Rcaron" unicode="&#x158;" horiz-adv-x="670" 
d="M60 700h320q58 0 104.5 -18.5t78.5 -51t49.5 -76.5t17.5 -94q0 -41 -9.5 -73t-23.5 -56t-30 -40t-30 -26.5t-23 -15l-9 -4.5l155 -245h-220l-132 220h-48v-220h-200v700zM365 400q30 0 47.5 17t17.5 43t-17.5 43t-47.5 17h-105v-120h105zM130 920h140l60 -70h5l60 70h140
l-140 -155h-125z" />
    <glyph glyph-name="rcaron" unicode="&#x159;" horiz-adv-x="440" 
d="M50 540h160l15 -50h5q11 14 26.5 23.5t32 15.5t32.5 8.5t29 2.5h80v-170h-70q-60 0 -95 -31.5t-35 -103.5v-235h-180v540zM50 765h140l60 -70h5l60 70h140l-140 -155h-125z" />
    <glyph glyph-name="Sacute" unicode="&#x15a;" horiz-adv-x="635" 
d="M315 -10q-62 0 -116.5 14.5t-95.5 44t-65.5 74.5t-27.5 107h200q0 -31 26 -50.5t79 -19.5q56 0 75.5 16t19.5 39q0 25 -28 35.5t-69.5 17t-90 15.5t-90 31t-69.5 63.5t-28 112.5q0 60 25 102t64.5 68.5t89.5 38t101 11.5q78 0 133 -19t89.5 -51t50.5 -73.5t17 -86.5h-200
q0 30 -23.5 45t-61.5 15q-45 0 -62.5 -15.5t-17.5 -34.5t16 -29.5t42.5 -17t60 -11.5t69 -13t69 -21t60 -36t42.5 -57t16 -85q0 -50 -19.5 -92t-58 -72.5t-94.5 -48t-128 -17.5zM340 915h160l-120 -150h-130z" />
    <glyph glyph-name="sacute" unicode="&#x15b;" horiz-adv-x="550" 
d="M270 -10q-75 0 -124.5 19t-79 48t-42 63.5t-14.5 64.5h180q4 -21 25 -35.5t55 -14.5q38 0 59 8t21 27q0 17 -23.5 24.5t-59.5 12.5t-77 12t-77 24.5t-59.5 49.5t-23.5 87q0 75 61.5 122.5t178.5 47.5q71 0 119 -17t77.5 -43.5t43 -59.5t15.5 -65h-180q0 16 -16 28t-54 12
q-9 0 -19.5 -1t-19.5 -4.5t-15 -9.5t-6 -15q0 -16 23.5 -22.5t58.5 -11t75.5 -11.5t75.5 -25t58.5 -51t23.5 -89q0 -24 -9.5 -54.5t-38 -57.5t-79.5 -45t-133 -18zM295 765h160l-120 -150h-130z" />
    <glyph glyph-name="Scircumflex" unicode="&#x15c;" horiz-adv-x="635" 
d="M315 -10q-62 0 -116.5 14.5t-95.5 44t-65.5 74.5t-27.5 107h200q0 -31 26 -50.5t79 -19.5q56 0 75.5 16t19.5 39q0 25 -28 35.5t-69.5 17t-90 15.5t-90 31t-69.5 63.5t-28 112.5q0 60 25 102t64.5 68.5t89.5 38t101 11.5q78 0 133 -19t89.5 -51t50.5 -73.5t17 -86.5h-200
q0 30 -23.5 45t-61.5 15q-45 0 -62.5 -15.5t-17.5 -34.5t16 -29.5t42.5 -17t60 -11.5t69 -13t69 -21t60 -36t42.5 -57t16 -85q0 -50 -19.5 -92t-58 -72.5t-94.5 -48t-128 -17.5zM260 920h125l140 -155h-140l-60 70h-5l-60 -70h-140z" />
    <glyph glyph-name="scircumflex" unicode="&#x15d;" horiz-adv-x="550" 
d="M270 -10q-75 0 -124.5 19t-79 48t-42 63.5t-14.5 64.5h180q4 -21 25 -35.5t55 -14.5q38 0 59 8t21 27q0 17 -23.5 24.5t-59.5 12.5t-77 12t-77 24.5t-59.5 49.5t-23.5 87q0 75 61.5 122.5t178.5 47.5q71 0 119 -17t77.5 -43.5t43 -59.5t15.5 -65h-180q0 16 -16 28t-54 12
q-9 0 -19.5 -1t-19.5 -4.5t-15 -9.5t-6 -15q0 -16 23.5 -22.5t58.5 -11t75.5 -11.5t75.5 -25t58.5 -51t23.5 -89q0 -24 -9.5 -54.5t-38 -57.5t-79.5 -45t-133 -18zM210 770h125l140 -155h-140l-60 70h-5l-60 -70h-140z" />
    <glyph glyph-name="Scedilla" unicode="&#x15e;" horiz-adv-x="635" 
d="M240 -150h60q15 0 20 5.5t5 14.5q0 8 -5 14t-20 6h-45v70l16 32q-54 4 -100.5 21t-81.5 46.5t-56 72t-23 98.5h200q0 -31 26 -50.5t79 -19.5q56 0 75.5 16t19.5 39q0 25 -28 35.5t-69.5 17t-90 15.5t-90 31t-69.5 63.5t-28 112.5q0 60 25 102t64.5 68.5t89.5 38t101 11.5
q78 0 133 -19t89.5 -51t50.5 -73.5t17 -86.5h-200q0 30 -23.5 45t-61.5 15q-45 0 -62.5 -15.5t-17.5 -34.5t16 -29.5t42.5 -17t60 -11.5t69 -13t69 -21t60 -36t42.5 -57t16 -85q0 -45 -16.5 -84.5t-49 -69.5t-80 -49.5t-108.5 -24.5l-11 -22q15 -2 31.5 -9.5t31 -20.5
t23.5 -32t9 -43q0 -23 -7 -43.5t-22 -36.5t-38.5 -25.5t-57.5 -9.5h-80v100z" />
    <glyph glyph-name="scedilla" unicode="&#x15f;" horiz-adv-x="550" 
d="M200 -150h60q15 0 20 5.5t5 14.5q0 8 -5 14t-20 6h-45v70l16 32q-63 5 -105 25t-67 48t-36.5 59.5t-12.5 60.5h180q4 -21 25 -35.5t55 -14.5q38 0 59 8t21 27q0 17 -23.5 24.5t-59.5 12.5t-77 12t-77 24.5t-59.5 49.5t-23.5 87q0 75 61.5 122.5t178.5 47.5q71 0 119 -17
t77.5 -43.5t43 -59.5t15.5 -65h-180q0 16 -16 28t-54 12q-9 0 -19.5 -1t-19.5 -4.5t-15 -9.5t-6 -15q0 -16 23.5 -22.5t58.5 -11t75.5 -11.5t75.5 -25t58.5 -51t23.5 -89q0 -23 -8 -50.5t-31 -52.5t-63.5 -44t-106.5 -25l-11 -23q15 -2 31.5 -9.5t31 -20.5t23.5 -32t9 -43
q0 -23 -7 -43.5t-22 -36.5t-38.5 -25.5t-57.5 -9.5h-80v100z" />
    <glyph glyph-name="Scaron" unicode="&#x160;" horiz-adv-x="635" 
d="M315 -10q-62 0 -116.5 14.5t-95.5 44t-65.5 74.5t-27.5 107h200q0 -31 26 -50.5t79 -19.5q56 0 75.5 16t19.5 39q0 25 -28 35.5t-69.5 17t-90 15.5t-90 31t-69.5 63.5t-28 112.5q0 60 25 102t64.5 68.5t89.5 38t101 11.5q78 0 133 -19t89.5 -51t50.5 -73.5t17 -86.5h-200
q0 30 -23.5 45t-61.5 15q-45 0 -62.5 -15.5t-17.5 -34.5t16 -29.5t42.5 -17t60 -11.5t69 -13t69 -21t60 -36t42.5 -57t16 -85q0 -50 -19.5 -92t-58 -72.5t-94.5 -48t-128 -17.5zM120 920h140l60 -70h5l60 70h140l-140 -155h-125z" />
    <glyph glyph-name="scaron" unicode="&#x161;" horiz-adv-x="550" 
d="M270 -10q-75 0 -124.5 19t-79 48t-42 63.5t-14.5 64.5h180q4 -21 25 -35.5t55 -14.5q38 0 59 8t21 27q0 17 -23.5 24.5t-59.5 12.5t-77 12t-77 24.5t-59.5 49.5t-23.5 87q0 75 61.5 122.5t178.5 47.5q71 0 119 -17t77.5 -43.5t43 -59.5t15.5 -65h-180q0 16 -16 28t-54 12
q-9 0 -19.5 -1t-19.5 -4.5t-15 -9.5t-6 -15q0 -16 23.5 -22.5t58.5 -11t75.5 -11.5t75.5 -25t58.5 -51t23.5 -89q0 -24 -9.5 -54.5t-38 -57.5t-79.5 -45t-133 -18zM70 765h140l60 -70h5l60 70h140l-140 -155h-125z" />
    <glyph glyph-name="uni0162" unicode="&#x162;" horiz-adv-x="610" 
d="M280 -150h60q15 0 20 5.5t5 14.5q0 8 -5 14t-20 6h-45v70l20 40h-110v520h-195v180h590v-180h-195v-520l-15 -30q15 -2 31.5 -9.5t31 -20.5t23.5 -32t9 -43q0 -23 -7 -43.5t-22 -36.5t-38.5 -25.5t-57.5 -9.5h-80v100z" />
    <glyph glyph-name="uni0163" unicode="&#x163;" horiz-adv-x="450" 
d="M160 -150h60q15 0 20 5.5t5 14.5q0 8 -5 14t-20 6h-45v70l26 52q-52 17 -74 56t-22 102v205h-85v165h85l30 140h150v-140h125v-165h-125v-170q0 -19 10.5 -32t29.5 -13h85v-160h-125l-15 -30q15 -2 31.5 -9.5t31 -20.5t23.5 -32t9 -43q0 -23 -7 -43.5t-22 -36.5
t-38.5 -25.5t-57.5 -9.5h-80v100z" />
    <glyph glyph-name="Tcaron" unicode="&#x164;" horiz-adv-x="610" 
d="M205 520h-195v180h590v-180h-195v-520h-200v520zM105 920h140l60 -70h5l60 70h140l-140 -155h-125z" />
    <glyph glyph-name="tcaron" unicode="&#x165;" horiz-adv-x="555" 
d="M295 0q-105 0 -147.5 42t-42.5 128v205h-85v165h85l30 140h150v-140h125v-165h-125v-170q0 -19 10.5 -32t29.5 -13h85v-160h-115v0z" />
    <glyph glyph-name="Tbar" unicode="&#x166;" horiz-adv-x="630" 
d="M215 280h-145v160h145v80h-195v180h590v-180h-195v-80h145v-160h-145v-280h-200v280z" />
    <glyph glyph-name="tbar" unicode="&#x167;" horiz-adv-x="450" 
d="M295 0q-105 0 -147.5 42t-42.5 128v65h-85v130h85v45h-85v130h85l30 140h150v-140h125v-130h-125v-45h125v-130h-125v-35q0 -19 10.5 -32t29.5 -13h85v-155h-115v0z" />
    <glyph glyph-name="Umacron" unicode="&#x16a;" horiz-adv-x="730" 
d="M365 -10q-71 0 -128.5 22t-98 63t-62 100.5t-21.5 134.5v390h200v-390q0 -72 30.5 -106t79.5 -34t79.5 34t30.5 106v390h200v-390q0 -75 -21.5 -134.5t-62 -100.5t-98 -63t-128.5 -22zM210 895h310v-115h-310v115z" />
    <glyph glyph-name="umacron" unicode="&#x16b;" horiz-adv-x="615" 
d="M240 -10q-32 0 -65.5 11t-61.5 36.5t-45.5 66.5t-17.5 101v335h180v-300q0 -42 21 -63.5t57 -21.5q35 0 56 21.5t21 63.5v300h180v-540h-160l-15 50h-5q-26 -28 -61 -44t-84 -16zM150 745h310v-115h-310v115z" />
    <glyph glyph-name="Ubreve" unicode="&#x16c;" horiz-adv-x="730" 
d="M365 -10q-71 0 -128.5 22t-98 63t-62 100.5t-21.5 134.5v390h200v-390q0 -72 30.5 -106t79.5 -34t79.5 34t30.5 106v390h200v-390q0 -75 -21.5 -134.5t-62 -100.5t-98 -63t-128.5 -22zM365 760q-34 0 -65 9t-55 28t-40 49.5t-20 73.5h120q4 -26 20.5 -38t39.5 -12
t39.5 12t20.5 38h120q-4 -43 -20 -73.5t-40 -49.5t-55 -28t-65 -9z" />
    <glyph glyph-name="ubreve" unicode="&#x16d;" horiz-adv-x="615" 
d="M240 -10q-32 0 -65.5 11t-61.5 36.5t-45.5 66.5t-17.5 101v335h180v-300q0 -42 21 -63.5t57 -21.5q35 0 56 21.5t21 63.5v300h180v-540h-160l-15 50h-5q-26 -28 -61 -44t-84 -16zM305 610q-34 0 -65 9t-55 28t-40 49.5t-20 73.5h120q4 -26 20.5 -38t39.5 -12t39.5 12
t20.5 38h120q-4 -43 -20 -73.5t-40 -49.5t-55 -28t-65 -9z" />
    <glyph glyph-name="Uring" unicode="&#x16e;" horiz-adv-x="730" 
d="M365 -10q-71 0 -128.5 22t-98 63t-62 100.5t-21.5 134.5v390h200v-390q0 -72 30.5 -106t79.5 -34t79.5 34t30.5 106v390h200v-390q0 -75 -21.5 -134.5t-62 -100.5t-98 -63t-128.5 -22zM365 730q-26 0 -47.5 9t-38 25t-25.5 38t-9 48t9 48t25.5 38t38 25t47.5 9
q25 0 47 -9t38.5 -25t25.5 -38t9 -48t-9 -48t-25.5 -38t-38.5 -25t-47 -9zM365 810q19 0 29.5 11.5t10.5 28.5t-10.5 28.5t-29.5 11.5t-29.5 -11.5t-10.5 -28.5t10.5 -28.5t29.5 -11.5z" />
    <glyph glyph-name="uring" unicode="&#x16f;" horiz-adv-x="615" 
d="M240 -10q-32 0 -65.5 11t-61.5 36.5t-45.5 66.5t-17.5 101v335h180v-300q0 -42 21 -63.5t57 -21.5q35 0 56 21.5t21 63.5v300h180v-540h-160l-15 50h-5q-26 -28 -61 -44t-84 -16zM305 600q-26 0 -47.5 9t-38 25t-25.5 38t-9 48t9 48t25.5 38t38 25t47.5 9q25 0 47 -9
t38.5 -25t25.5 -38t9 -48t-9 -48t-25.5 -38t-38.5 -25t-47 -9zM305 680q19 0 29.5 11.5t10.5 28.5t-10.5 28.5t-29.5 11.5t-29.5 -11.5t-10.5 -28.5t10.5 -28.5t29.5 -11.5z" />
    <glyph glyph-name="Uhungarumlaut" unicode="&#x170;" horiz-adv-x="730" 
d="M365 -10q-71 0 -128.5 22t-98 63t-62 100.5t-21.5 134.5v390h200v-390q0 -72 30.5 -106t79.5 -34t79.5 34t30.5 106v390h200v-390q0 -75 -21.5 -134.5t-62 -100.5t-98 -63t-128.5 -22zM290 915h150l-120 -150h-125zM490 915h150l-120 -150h-125z" />
    <glyph glyph-name="uhungarumlaut" unicode="&#x171;" horiz-adv-x="615" 
d="M240 -10q-32 0 -65.5 11t-61.5 36.5t-45.5 66.5t-17.5 101v335h180v-300q0 -42 21 -63.5t57 -21.5q35 0 56 21.5t21 63.5v300h180v-540h-160l-15 50h-5q-26 -28 -61 -44t-84 -16zM240 765h150l-120 -150h-125zM440 765h150l-120 -150h-125z" />
    <glyph glyph-name="Uogonek" unicode="&#x172;" horiz-adv-x="730" 
d="M420 -230q-45 0 -75.5 9.5t-49.5 26t-27 38.5t-8 46q0 39 18 64t41 39q-61 6 -110 30.5t-83 65t-52.5 96.5t-18.5 125v390h200v-390q0 -72 30.5 -106t79.5 -34t79.5 34t30.5 106v390h200v-390q0 -132 -64.5 -213.5t-178.5 -100.5q-23 -15 -35 -34.5t-12 -36.5
q0 -9 2.5 -17.5t9 -14.5t18 -9.5t30.5 -3.5h20v-110h-45v0z" />
    <glyph glyph-name="uogonek" unicode="&#x173;" horiz-adv-x="615" 
d="M545 -230q-45 0 -75.5 9.5t-49.5 26t-27 38.5t-8 46q0 22 7 40.5t17.5 32t24 23t26.5 14.5h-55l-15 50h-5q-26 -28 -61 -44t-84 -16q-32 0 -65.5 11t-61.5 36.5t-45.5 66.5t-17.5 101v335h180v-300q0 -42 21 -63.5t57 -21.5q35 0 56 21.5t21 63.5v300h180v-540
q-26 -15 -40.5 -35.5t-14.5 -39.5q0 -9 2.5 -17.5t9 -14.5t18 -9.5t30.5 -3.5h20v-110h-45v0z" />
    <glyph glyph-name="Wcircumflex" unicode="&#x174;" horiz-adv-x="984" 
d="M5 700h205l89 -415l111 415h164l110 -415l90 415h205l-180 -700h-195l-112 375l-112 -375h-195zM430 920h125l140 -155h-140l-60 70h-5l-60 -70h-140z" />
    <glyph glyph-name="wcircumflex" unicode="&#x175;" horiz-adv-x="855" 
d="M5 540h190l68 -320l82 320h165l82 -320l68 320h190l-140 -540h-200l-83 280l-82 -280h-200zM365 770h125l140 -155h-140l-60 70h-5l-60 -70h-140z" />
    <glyph glyph-name="Ycircumflex" unicode="&#x176;" horiz-adv-x="645" 
d="M222 215l-242 485h215l127 -300l128 300h215l-243 -485v-215h-200v215zM260 920h125l140 -155h-140l-60 70h-5l-60 -70h-140z" />
    <glyph glyph-name="ycircumflex" unicode="&#x177;" horiz-adv-x="595" 
d="M200 0l-210 540h200l110 -330l105 330h200l-290 -740h-195zM235 770h125l140 -155h-140l-60 70h-5l-60 -70h-140z" />
    <glyph glyph-name="Ydieresis" unicode="&#x178;" horiz-adv-x="645" 
d="M222 215l-242 485h215l127 -300l128 300h215l-243 -485v-215h-200v215zM213 760q-34 0 -58.5 22.5t-24.5 59.5t24.5 60t58.5 23q33 0 57.5 -23t24.5 -60t-24.5 -59.5t-57.5 -22.5zM428 760q-34 0 -58.5 22.5t-24.5 59.5t24.5 60t58.5 23q33 0 57.5 -23t24.5 -60
t-24.5 -59.5t-57.5 -22.5z" />
    <glyph glyph-name="Zacute" unicode="&#x179;" horiz-adv-x="625" 
d="M30 150l300 380h-290v170h550v-150l-305 -380h305v-170h-560v150zM335 915h160l-120 -150h-130z" />
    <glyph glyph-name="zacute" unicode="&#x17a;" horiz-adv-x="530" 
d="M30 140l225 240h-215v160h450v-140l-225 -240h230v-160h-465v140zM285 765h160l-120 -150h-130z" />
    <glyph glyph-name="Zdotaccent" unicode="&#x17b;" horiz-adv-x="625" 
d="M30 150l300 380h-290v170h550v-150l-305 -380h305v-170h-560v150zM313 760q-34 0 -58.5 22.5t-24.5 59.5t24.5 60t58.5 23q33 0 57.5 -23t24.5 -60t-24.5 -59.5t-57.5 -22.5z" />
    <glyph glyph-name="zdotaccent" unicode="&#x17c;" horiz-adv-x="530" 
d="M30 140l225 240h-215v160h450v-140l-225 -240h230v-160h-465v140zM263 610q-34 0 -58.5 22.5t-24.5 59.5t24.5 60t58.5 23q33 0 57.5 -23t24.5 -60t-24.5 -59.5t-57.5 -22.5z" />
    <glyph glyph-name="Zcaron" unicode="&#x17d;" horiz-adv-x="625" 
d="M30 150l300 380h-290v170h550v-150l-305 -380h305v-170h-560v150zM110 920h140l60 -70h5l60 70h140l-140 -155h-125z" />
    <glyph glyph-name="zcaron" unicode="&#x17e;" horiz-adv-x="530" 
d="M30 140l225 240h-215v160h450v-140l-225 -240h230v-160h-465v140zM60 765h140l60 -70h5l60 70h140l-140 -155h-125z" />
    <glyph glyph-name="uni018F" unicode="&#x18f;" horiz-adv-x="730" 
d="M360 -10q-75 0 -136 24.5t-104 73t-66.5 121.5t-23.5 171v40h463q-12 49 -43 79.5t-90 30.5q-26 0 -46 -5.5t-34.5 -13.5t-23 -16.5t-12.5 -14.5h-200q7 40 29.5 81t61 74t94.5 54t131 21t137.5 -23t107.5 -68.5t70 -113t25 -155.5t-25 -155.5t-70 -113t-107.5 -68.5
t-137.5 -23zM360 170q31 0 53.5 8.5t37.5 22.5t24 32t15 37h-130h-130q6 -19 15 -37t24 -32t37 -22.5t54 -8.5z" />
    <glyph glyph-name="florin" unicode="&#x192;" horiz-adv-x="515" 
d="M-16 0h40q34 0 51.5 17t22.5 43l49 230h-91l39 180h91l17 80q9 42 24.5 75t42.5 56.5t66.5 36t95.5 12.5h108l-39 -180h-49q-34 0 -51.5 -17t-22.5 -43l-4 -20h121l-38 -180h-122l-62 -290q-9 -42 -24.5 -75t-42.5 -56.5t-66.5 -36t-95.5 -12.5h-99z" />
    <glyph glyph-name="Gacute" unicode="&#x1f4;" horiz-adv-x="730" 
d="M370 -10q-75 0 -137.5 23t-107.5 68.5t-70 113t-25 155.5t25 155.5t70 113t107.5 68.5t137.5 23t131 -20.5t95 -55.5t62 -82.5t32 -101.5h-205q-3 8 -10 21.5t-20.5 26.5t-34 22.5t-50.5 9.5q-38 0 -64.5 -13.5t-43 -37.5t-24.5 -57t-8 -72t8 -72t25 -57t45 -37.5
t67 -13.5q28 0 48 6.5t33.5 17t21.5 22.5t13 24h-141v150h350v-65q0 -75 -23.5 -136.5t-66.5 -106t-104 -68.5t-136 -24zM395 915h160l-120 -150h-130z" />
    <glyph glyph-name="gacute" unicode="&#x1f5;" horiz-adv-x="630" 
d="M315 -200q-78 0 -129 20t-81 49.5t-43.5 63.5t-16.5 62h180q4 -13 12.5 -21.5t20.5 -14t25.5 -7.5t26.5 -2q49 0 69.5 19t20.5 61v55h-5q-4 -6 -13.5 -15t-25.5 -18t-38.5 -15.5t-52.5 -6.5q-49 0 -91.5 17.5t-74.5 50t-50.5 80t-18.5 107.5t18.5 109t51.5 83.5
t77.5 53.5t97.5 19q28 0 50 -6t38.5 -14.5t28 -18t18.5 -16.5h5l15 45h150v-510q0 -113 -63 -171.5t-202 -58.5zM305 180q42 0 68.5 28.5t26.5 81.5t-26.5 81.5t-68.5 28.5t-68.5 -28.5t-26.5 -81.5t26.5 -81.5t68.5 -28.5zM340 765h160l-120 -150h-130z" />
    <glyph glyph-name="Aringacute" unicode="&#x1fa;" horiz-adv-x="705" 
d="M350 725q-26 0 -47.5 9t-38 25t-25.5 38t-9 48q0 47 27.5 78.5t70.5 39.5l25 67h120l-57 -84q25 -15 39.5 -41.5t14.5 -59.5q0 -26 -9 -48t-25.5 -38t-38.5 -25t-47 -9zM350 805q19 0 29.5 11.5t10.5 28.5t-10.5 28.5t-29.5 11.5t-29.5 -11.5t-10.5 -28.5t10.5 -28.5
t29.5 -11.5zM235 700h235l245 -700h-210l-31 100h-244l-30 -100h-210zM411 280l-59 210l-58 -210h117z" />
    <glyph glyph-name="aringacute" unicode="&#x1fb;" horiz-adv-x="580" 
d="M300 590q-26 0 -47.5 9t-38 25t-25.5 38t-9 48q0 47 27.5 78.5t70.5 39.5l25 67h120l-57 -84q25 -15 39.5 -41.5t14.5 -59.5q0 -26 -9 -48t-25.5 -38t-38.5 -25t-47 -9zM300 670q19 0 29.5 11.5t10.5 28.5t-10.5 28.5t-29.5 11.5t-29.5 -11.5t-10.5 -28.5t10.5 -28.5
t29.5 -11.5zM215 -10q-45 0 -80.5 13t-59.5 36t-37 54t-13 67q0 34 12.5 64t38.5 52.5t67 35.5t97 13h115v20q0 19 -18 34.5t-52 15.5q-45 0 -60 -30h-180q6 34 22.5 67t46 59t73 42.5t103.5 16.5q56 0 101.5 -13t77.5 -40t49 -67.5t17 -94.5v-335h-160l-15 50h-5
q-8 -9 -20 -19.5t-29.5 -19.5t-40 -15t-50.5 -6zM260 135q45 0 70 22t25 48v10h-100q-50 0 -50 -40q0 -15 12.5 -27.5t42.5 -12.5z" />
    <glyph glyph-name="AEacute" unicode="&#x1fc;" horiz-adv-x="969" 
d="M305 700h619v-180h-300v-85h280v-165h-280v-90h310v-180h-505v115h-202l-58 -115h-219zM429 280v240h-18l-111 -240h129zM560 915h160l-120 -150h-130z" />
    <glyph glyph-name="aeacute" unicode="&#x1fd;" horiz-adv-x="930" 
d="M220 -10q-51 0 -87.5 14.5t-60.5 38.5t-35.5 54.5t-11.5 62.5q0 34 12.5 64t38.5 52.5t67 35.5t97 13h115v20q0 23 -21.5 36.5t-47.5 13.5q-21 0 -37 -6.5t-24 -23.5h-180q6 36 23.5 69t47.5 59t72 41.5t97 15.5q39 0 67 -7t48.5 -17.5t34.5 -24t25 -26.5q11 13 28 26.5
t40 24t52 17.5t65 7q64 0 111.5 -22.5t79.5 -61t48 -89t16 -107.5q0 -11 -1 -21t-2 -18q-1 -9 -2 -16h-360q2 -11 7.5 -25t15.5 -26t26.5 -20.5t40.5 -8.5q22 0 37 4t24.5 10t14.5 13t9 13h180q-6 -24 -21 -56t-43.5 -60.5t-72.5 -48.5t-108 -20q-74 0 -124.5 25t-80.5 55
q-19 -17 -38 -31.5t-44 -25.5t-58.5 -17t-79.5 -6zM260 135q45 0 70 22t25 48v10h-100q-50 0 -50 -40q0 -15 12.5 -27.5t42.5 -12.5zM725 325q-4 30 -27 55t-68 25t-68 -25t-27 -55h190zM490 765h160l-120 -150h-130z" />
    <glyph glyph-name="Oslashacute" unicode="&#x1fe;" horiz-adv-x="740" 
d="M128 79q-47 45 -72.5 112.5t-25.5 158.5q0 88 25 155.5t70 113t107.5 68.5t137.5 23q58 0 111 -15l17 30h175l-60 -105q46 -46 71.5 -113t25.5 -157q0 -88 -25 -155.5t-70 -113t-107.5 -68.5t-137.5 -23q-57 0 -110 14l-17 -29h-175zM386 529q-4 1 -8 1h-8
q-39 0 -67.5 -13.5t-47 -37.5t-27 -57t-8.5 -72q0 -51 13 -87zM370 170q39 0 67.5 13.5t47 37.5t27 57t8.5 72q0 24 -3.5 45.5t-9.5 40.5l-152 -266h15zM395 915h160l-120 -150h-130z" />
    <glyph glyph-name="oslashacute" unicode="&#x1ff;" horiz-adv-x="610" 
d="M102 62q-72 72 -72 208t71.5 208t203.5 72q27 0 52 -3.5t48 -9.5l15 23h150l-57 -89q67 -72 67 -201q0 -136 -71.5 -208t-203.5 -72q-48 0 -92 11l-13 -21h-150zM326 413q-5 1 -10.5 1.5t-10.5 0.5q-53 0 -86.5 -38.5t-33.5 -106.5q0 -37 10 -64zM305 125q53 0 86.5 38.5
t33.5 106.5q0 14 -2 27t-5 25l-125 -197h12zM330 765h160l-120 -150h-130z" />
    <glyph glyph-name="Scommaaccent" unicode="&#x218;" horiz-adv-x="635" 
d="M315 -10q-62 0 -116.5 14.5t-95.5 44t-65.5 74.5t-27.5 107h200q0 -31 26 -50.5t79 -19.5q56 0 75.5 16t19.5 39q0 25 -28 35.5t-69.5 17t-90 15.5t-90 31t-69.5 63.5t-28 112.5q0 60 25 102t64.5 68.5t89.5 38t101 11.5q78 0 133 -19t89.5 -51t50.5 -73.5t17 -86.5h-200
q0 30 -23.5 45t-61.5 15q-45 0 -62.5 -15.5t-17.5 -34.5t16 -29.5t42.5 -17t60 -11.5t69 -13t69 -21t60 -36t42.5 -57t16 -85q0 -50 -19.5 -92t-58 -72.5t-94.5 -48t-128 -17.5zM245 -85h150l-75 -170h-120z" />
    <glyph glyph-name="scommaaccent" unicode="&#x219;" horiz-adv-x="550" 
d="M270 -10q-75 0 -124.5 19t-79 48t-42 63.5t-14.5 64.5h180q4 -21 25 -35.5t55 -14.5q38 0 59 8t21 27q0 17 -23.5 24.5t-59.5 12.5t-77 12t-77 24.5t-59.5 49.5t-23.5 87q0 75 61.5 122.5t178.5 47.5q71 0 119 -17t77.5 -43.5t43 -59.5t15.5 -65h-180q0 16 -16 28t-54 12
q-9 0 -19.5 -1t-19.5 -4.5t-15 -9.5t-6 -15q0 -16 23.5 -22.5t58.5 -11t75.5 -11.5t75.5 -25t58.5 -51t23.5 -89q0 -24 -9.5 -54.5t-38 -57.5t-79.5 -45t-133 -18zM200 -85h150l-75 -170h-120z" />
    <glyph glyph-name="uni021A" unicode="&#x21a;" horiz-adv-x="610" 
d="M205 520h-195v180h590v-180h-195v-520h-200v520zM230 -85h150l-75 -170h-120z" />
    <glyph glyph-name="uni021B" unicode="&#x21b;" horiz-adv-x="450" 
d="M295 0q-105 0 -147.5 42t-42.5 128v205h-85v165h85l30 140h150v-140h125v-165h-125v-170q0 -19 10.5 -32t29.5 -13h85v-160h-115v0zM190 -85h150l-75 -170h-120z" />
    <glyph glyph-name="uni0232" unicode="&#x232;" horiz-adv-x="645" 
d="M222 215l-242 485h215l127 -300l128 300h215l-243 -485v-215h-200v215zM165 895h310v-115h-310v115z" />
    <glyph glyph-name="uni0233" unicode="&#x233;" horiz-adv-x="595" 
d="M200 0l-210 540h200l110 -330l105 330h200l-290 -740h-195zM140 745h310v-115h-310v115z" />
    <glyph glyph-name="uni0244" unicode="&#x244;" horiz-adv-x="730" 
d="M365 -10q-71 0 -128.5 22t-98 63t-62 100.5t-21.5 134.5v99h-55v145h55v146h200v-146h220v146h200v-146h55v-145h-55v-99q0 -75 -21.5 -134.5t-62 -100.5t-98 -63t-128.5 -22zM365 170q49 0 79.5 34t30.5 106v99h-220v-99q0 -72 30.5 -106t79.5 -34z" />
    <glyph glyph-name="uni0259" unicode="&#x259;" horiz-adv-x="610" 
d="M300 -10q-68 0 -118.5 22.5t-84 61t-50.5 89t-17 107.5q0 11 0.5 21t1.5 18q1 9 3 16h370q-2 11 -8 25t-17.5 26t-28.5 20.5t-41 8.5q-23 0 -38 -4t-25.5 -10t-16.5 -13t-10 -13h-180q6 24 22 56t46.5 60.5t77 48.5t114.5 20q136 0 208 -72t72 -208t-74 -208t-206 -72z
M305 135q45 0 68.5 22.5t31.5 52.5h-200q8 -30 31.5 -52.5t68.5 -22.5z" />
    <glyph glyph-name="uni0289" unicode="&#x289;" horiz-adv-x="655" 
d="M260 -10q-32 0 -65.5 11t-61.5 36.5t-45.5 66.5t-17.5 101v130h-55v130h55v75h180v-75h155v75h180v-75h55v-130h-55v-335h-160l-15 50h-5q-26 -28 -61 -44t-84 -16zM328 155q35 0 56 21.5t21 63.5v95h-155v-95q0 -42 21 -63.5t57 -21.5z" />
    <glyph glyph-name="uni02BC" unicode="&#x2bc;" horiz-adv-x="245" 
d="M75 700h140l-75 -170h-110z" />
    <glyph glyph-name="circumflex" unicode="&#x2c6;" horiz-adv-x="465" 
d="M170 770h125l140 -155h-140l-60 70h-5l-60 -70h-140z" />
    <glyph glyph-name="caron" unicode="&#x2c7;" horiz-adv-x="465" 
d="M30 765h140l60 -70h5l60 70h140l-140 -155h-125z" />
    <glyph glyph-name="breve" unicode="&#x2d8;" horiz-adv-x="420" 
d="M210 610q-34 0 -65 9t-55 28t-40 49.5t-20 73.5h120q4 -26 20.5 -38t39.5 -12t39.5 12t20.5 38h120q-4 -43 -20 -73.5t-40 -49.5t-55 -28t-65 -9z" />
    <glyph glyph-name="dotaccent" unicode="&#x2d9;" horiz-adv-x="225" 
d="M113 610q-34 0 -58.5 22.5t-24.5 59.5t24.5 60t58.5 23q33 0 57.5 -23t24.5 -60t-24.5 -59.5t-57.5 -22.5z" />
    <glyph glyph-name="ring" unicode="&#x2da;" horiz-adv-x="300" 
d="M150 600q-26 0 -47.5 9t-38 25t-25.5 38t-9 48t9 48t25.5 38t38 25t47.5 9q25 0 47 -9t38.5 -25t25.5 -38t9 -48t-9 -48t-25.5 -38t-38.5 -25t-47 -9zM150 680q19 0 29.5 11.5t10.5 28.5t-10.5 28.5t-29.5 11.5t-29.5 -11.5t-10.5 -28.5t10.5 -28.5t29.5 -11.5z" />
    <glyph glyph-name="ogonek" unicode="&#x2db;" horiz-adv-x="265" 
d="M190 -230q-45 0 -75.5 9.5t-49.5 26t-27 38.5t-8 46q0 22 7 40.5t17.5 32t24 23t26.5 14.5v10h105v-10q-26 -15 -40.5 -35.5t-14.5 -39.5q0 -9 2.5 -17.5t9 -14.5t18 -9.5t30.5 -3.5h20v-110h-45v0z" />
    <glyph glyph-name="tilde" unicode="&#x2dc;" horiz-adv-x="410" 
d="M270 620q-17 0 -32 5.5t-28.5 12t-26 12t-23.5 5.5q-10 0 -15 -9.5t-5 -20.5h-110q0 60 25 97.5t85 37.5q17 0 32 -5.5t28.5 -12t26 -12t23.5 -5.5q10 0 15 9.5t5 20.5h110q0 -60 -25 -97.5t-85 -37.5z" />
    <glyph glyph-name="hungarumlaut" unicode="&#x2dd;" horiz-adv-x="505" 
d="M125 765h150l-120 -150h-125zM325 765h150l-120 -150h-125z" />
    <glyph glyph-name="acutecomb" unicode="&#x301;" horiz-adv-x="0" 
d="M-345 915h160l-120 -150h-130z" />
    <glyph glyph-name="uni0302" unicode="&#x302;" horiz-adv-x="0" 
d="M-430 920h125l140 -155h-140l-60 70h-5l-60 -70h-140z" />
    <glyph glyph-name="uni0304" unicode="&#x304;" horiz-adv-x="0" 
d="M-520 895h310v-115h-310v115z" />
    <glyph glyph-name="uni0306" unicode="&#x306;" horiz-adv-x="0" 
d="M-365 760q-34 0 -65 9t-55 28t-40 49.5t-20 73.5h120q4 -26 20.5 -38t39.5 -12t39.5 12t20.5 38h120q-4 -43 -20 -73.5t-40 -49.5t-55 -28t-65 -9z" />
    <glyph glyph-name="uni0307" unicode="&#x307;" horiz-adv-x="0" 
d="M-367 760q-34 0 -58.5 22.5t-24.5 59.5t24.5 60t58.5 23q33 0 57.5 -23t24.5 -60t-24.5 -59.5t-57.5 -22.5z" />
    <glyph glyph-name="uni0308" unicode="&#x308;" horiz-adv-x="0" 
d="M-472 760q-34 0 -58.5 22.5t-24.5 59.5t24.5 60t58.5 23q33 0 57.5 -23t24.5 -60t-24.5 -59.5t-57.5 -22.5zM-257 760q-34 0 -58.5 22.5t-24.5 59.5t24.5 60t58.5 23q33 0 57.5 -23t24.5 -60t-24.5 -59.5t-57.5 -22.5z" />
    <glyph glyph-name="uni030A" unicode="&#x30a;" horiz-adv-x="0" 
d="M-365 750q-26 0 -47.5 9t-38 25t-25.5 38t-9 48t9 48t25.5 38t38 25t47.5 9q25 0 47 -9t38.5 -25t25.5 -38t9 -48t-9 -48t-25.5 -38t-38.5 -25t-47 -9zM-365 830q19 0 29.5 11.5t10.5 28.5t-10.5 28.5t-29.5 11.5t-29.5 -11.5t-10.5 -28.5t10.5 -28.5t29.5 -11.5z" />
    <glyph glyph-name="uni030C" unicode="&#x30c;" horiz-adv-x="0" 
d="M-565 915h140l60 -70h5l60 70h140l-140 -155h-125z" />
    <glyph glyph-name="uni0326" unicode="&#x326;" horiz-adv-x="255" 
d="M75 -85h150l-75 -170h-120z" />
    <glyph glyph-name="uni0400" unicode="&#x400;" horiz-adv-x="605" 
d="M60 700h500v-180h-300v-85h280v-165h-280v-90h310v-180h-510v700zM130 915h160l90 -150h-130z" />
    <glyph glyph-name="uni0401" unicode="&#x401;" horiz-adv-x="605" 
d="M60 700h500v-180h-300v-85h280v-165h-280v-90h310v-180h-510v700zM208 760q-34 0 -58.5 22.5t-24.5 59.5t24.5 60t58.5 23q33 0 57.5 -23t24.5 -60t-24.5 -59.5t-57.5 -22.5zM423 760q-34 0 -58.5 22.5t-24.5 59.5t24.5 60t58.5 23q33 0 57.5 -23t24.5 -60t-24.5 -59.5
t-57.5 -22.5z" />
    <glyph glyph-name="uni0402" unicode="&#x402;" horiz-adv-x="730" 
d="M145 520h-155v180h510v-180h-155v-75q19 8 49.5 14t60.5 6q62 0 108.5 -17t78 -48t47.5 -74.5t16 -95.5q0 -105 -65.5 -167.5t-189.5 -62.5h-60v175h35q38 0 59 14.5t21 40.5q0 60 -80 60q-25 0 -45 -6t-35 -14v-270h-200v520z" />
    <glyph glyph-name="uni0403" unicode="&#x403;" horiz-adv-x="545" 
d="M60 700h460v-180h-260v-520h-200v700zM315 915h160l-120 -150h-130z" />
    <glyph glyph-name="uni0404" unicode="&#x404;" horiz-adv-x="715" 
d="M370 -10q-75 0 -137.5 23t-107.5 68.5t-70 113t-25 155.5t25 155.5t70 113t107.5 68.5t137.5 23t131 -20t95 -55.5t62 -83t32 -101.5h-205q-6 11 -13 25t-20 26t-32.5 20.5t-49.5 8.5q-54 0 -85.5 -27t-44.5 -73h186v-160h-186q13 -46 44.5 -73t85.5 -27q30 0 49.5 8.5
t32.5 20.5t20 26t13 25h205q-9 -54 -32 -101.5t-62 -83t-95 -55.5t-131 -20z" />
    <glyph glyph-name="uni0405" unicode="&#x405;" horiz-adv-x="635" 
d="M315 -10q-62 0 -116.5 14.5t-95.5 44t-65.5 74.5t-27.5 107h200q0 -31 26 -50.5t79 -19.5q56 0 75.5 16t19.5 39q0 25 -28 35.5t-69.5 17t-90 15.5t-90 31t-69.5 63.5t-28 112.5q0 60 25 102t64.5 68.5t89.5 38t101 11.5q78 0 133 -19t89.5 -51t50.5 -73.5t17 -86.5h-200
q0 30 -23.5 45t-61.5 15q-45 0 -62.5 -15.5t-17.5 -34.5t16 -29.5t42.5 -17t60 -11.5t69 -13t69 -21t60 -36t42.5 -57t16 -85q0 -50 -19.5 -92t-58 -72.5t-94.5 -48t-128 -17.5z" />
    <glyph glyph-name="uni0406" unicode="&#x406;" horiz-adv-x="320" 
d="M60 700h200v-700h-200v700z" />
    <glyph glyph-name="uni0407" unicode="&#x407;" horiz-adv-x="320" 
d="M60 700h200v-700h-200v700zM53 760q-34 0 -58.5 22.5t-24.5 59.5t24.5 60t58.5 23q33 0 57.5 -23t24.5 -60t-24.5 -59.5t-57.5 -22.5zM268 760q-34 0 -58.5 22.5t-24.5 59.5t24.5 60t58.5 23q33 0 57.5 -23t24.5 -60t-24.5 -59.5t-57.5 -22.5z" />
    <glyph glyph-name="uni0408" unicode="&#x408;" horiz-adv-x="580" 
d="M275 -10q-125 0 -190 64t-65 181h200q0 -65 55 -65q23 0 36.5 14t13.5 56v460h200v-460q0 -121 -64.5 -185.5t-185.5 -64.5z" />
    <glyph glyph-name="uni0409" unicode="&#x409;" horiz-adv-x="1015" 
d="M10 180h10q24 0 42 8t30 34t17.5 74t5.5 129v275h515v-200h100q56 0 104 -18t82.5 -51t54 -79t19.5 -102t-19.5 -102t-54 -79t-82.5 -51t-104 -18h-300v520h-115v-115q0 -111 -12 -190.5t-44 -130.5t-87.5 -75t-141.5 -24h-20v195zM710 180q38 0 59 20t21 50t-21 50
t-59 20h-80v-140h80z" />
    <glyph glyph-name="uni040A" unicode="&#x40a;" horiz-adv-x="1035" 
d="M60 700h200v-230h190v230h200v-230h110q56 0 102 -17t79 -48t51 -74.5t18 -95.5q0 -53 -18 -96t-51 -74t-79 -48t-102 -17h-310v290h-190v-290h-200v700zM745 180q34 0 49.5 16t15.5 39t-15.5 39t-49.5 16h-95v-110h95z" />
    <glyph glyph-name="uni040B" unicode="&#x40b;" horiz-adv-x="740" 
d="M145 520h-155v180h510v-180h-155v-75q19 8 49.5 14t60.5 6q124 0 179.5 -64t55.5 -191v-210h-200v210q0 42 -13.5 61t-51.5 19q-25 0 -45 -6t-35 -14v-270h-200v520z" />
    <glyph glyph-name="uni040C" unicode="&#x40c;" horiz-adv-x="685" 
d="M60 700h200v-295l200 295h230l-240 -345l255 -355h-230l-215 305v-305h-200v700zM385 915h160l-120 -150h-130z" />
    <glyph glyph-name="uni040D" unicode="&#x40d;" horiz-adv-x="775" 
d="M60 700h200v-407l215 407h240v-700h-200v407l-215 -407h-240v700zM205 915h160l90 -150h-130z" />
    <glyph glyph-name="uni040E" unicode="&#x40e;" horiz-adv-x="615" 
d="M213 170l-238 530h215l122 -305l113 305h210l-290 -700h-200zM305 760q-34 0 -65 9t-55 28t-40 49.5t-20 73.5h120q4 -26 20.5 -38t39.5 -12t39.5 12t20.5 38h120q-4 -43 -20 -73.5t-40 -49.5t-55 -28t-65 -9z" />
    <glyph glyph-name="uni040F" unicode="&#x40f;" horiz-adv-x="720" 
d="M265 0h-205v700h200v-520h200v520h200v-700h-205v-145h-190v145z" />
    <glyph glyph-name="uni0410" unicode="&#x410;" horiz-adv-x="705" 
d="M235 700h235l245 -700h-210l-31 100h-244l-30 -100h-210zM411 280l-59 210l-58 -210h117z" />
    <glyph glyph-name="uni0411" unicode="&#x411;" horiz-adv-x="660" 
d="M60 700h520v-180h-320v-70h120q60 0 106.5 -16t78.5 -45.5t48.5 -71t16.5 -92.5t-16.5 -92.5t-48.5 -71t-78.5 -45.5t-106.5 -16h-320v700zM350 170q42 0 61 17t19 43t-19 43t-61 17h-90v-120h90z" />
    <glyph glyph-name="uni0412" unicode="&#x412;" horiz-adv-x="680" 
d="M60 700h355q113 0 169 -52t56 -143q0 -26 -7.5 -49.5t-20.5 -43t-29 -34t-33 -23.5q19 -9 37 -23.5t32 -34t22.5 -45t8.5 -57.5q0 -41 -12.5 -77t-40 -62t-70 -41t-102.5 -15h-365v700zM390 170q30 0 45 13.5t15 36.5t-15 36.5t-45 13.5h-130v-100h130zM380 430
q30 0 45 13.5t15 36.5t-15 36.5t-45 13.5h-120v-100h120z" />
    <glyph glyph-name="uni0413" unicode="&#x413;" horiz-adv-x="545" 
d="M60 700h460v-180h-260v-520h-200v700z" />
    <glyph glyph-name="uni0414" unicode="&#x414;" horiz-adv-x="755" 
d="M5 180h70q30 60 37.5 133t7.5 152v235h530v-520h85v-325h-190v145h-350v-145h-190v325zM450 180v340h-130v-55q2 -98 -13.5 -169t-41.5 -116h185z" />
    <glyph glyph-name="uni0415" unicode="&#x415;" horiz-adv-x="605" 
d="M60 700h500v-180h-300v-85h280v-165h-280v-90h310v-180h-510v700z" />
    <glyph glyph-name="uni0416" unicode="&#x416;" horiz-adv-x="970" 
d="M205 355l-210 345h220l170 -295v295h200v-295l170 295h220l-210 -345l225 -355h-220l-185 305v-305h-200v305l-185 -305h-220z" />
    <glyph glyph-name="uni0417" unicode="&#x417;" horiz-adv-x="655" 
d="M325 -10q-154 0 -227.5 63t-77.5 172h200q4 -19 16.5 -30t28.5 -16.5t32.5 -7t27.5 -1.5q53 0 76.5 13.5t23.5 36.5q0 19 -20 32t-80 13h-75v170h75q52 0 71 13t19 32q0 23 -24 36.5t-66 13.5q-15 0 -31 -2.5t-29.5 -8.5t-23 -16.5t-11.5 -27.5h-200q7 109 78 172t217 63
q71 0 125.5 -16t91 -43t55 -63.5t18.5 -77.5q0 -64 -29 -102.5t-71 -57.5q22 -9 42 -22t35 -32t24 -44.5t9 -61.5q0 -41 -17.5 -77.5t-54 -63.5t-93 -43t-135.5 -16z" />
    <glyph glyph-name="uni0418" unicode="&#x418;" horiz-adv-x="775" 
d="M60 700h200v-407l215 407h240v-700h-200v407l-215 -407h-240v700z" />
    <glyph glyph-name="uni0419" unicode="&#x419;" horiz-adv-x="775" 
d="M60 700h200v-407l215 407h240v-700h-200v407l-215 -407h-240v700zM400 760q-34 0 -65 9t-55 28t-40 49.5t-20 73.5h120q4 -26 20.5 -38t39.5 -12t39.5 12t20.5 38h120q-4 -43 -20 -73.5t-40 -49.5t-55 -28t-65 -9z" />
    <glyph glyph-name="uni041A" unicode="&#x41a;" horiz-adv-x="685" 
d="M60 700h200v-295l200 295h230l-240 -345l255 -355h-230l-215 305v-305h-200v700z" />
    <glyph glyph-name="uni041B" unicode="&#x41b;" horiz-adv-x="705" 
d="M10 180h10q24 0 42 8t30 34t17.5 74t5.5 129v275h530v-700h-200v520h-130v-115q0 -111 -12 -190.5t-44 -130.5t-87.5 -75t-141.5 -24h-20v195z" />
    <glyph glyph-name="uni041C" unicode="&#x41c;" horiz-adv-x="955" 
d="M60 700h280l137 -425l138 425h280v-700h-200v429l-138 -429h-159l-138 429v-429h-200v700z" />
    <glyph glyph-name="uni041D" unicode="&#x41d;" horiz-adv-x="730" 
d="M60 700h200v-255h210v255h200v-700h-200v265h-210v-265h-200v700z" />
    <glyph glyph-name="uni041E" unicode="&#x41e;" horiz-adv-x="740" 
d="M370 -10q-75 0 -137.5 23t-107.5 68.5t-70 113t-25 155.5t25 155.5t70 113t107.5 68.5t137.5 23t137.5 -23t107.5 -68.5t70 -113t25 -155.5t-25 -155.5t-70 -113t-107.5 -68.5t-137.5 -23zM370 170q37 0 64 13.5t43.5 37.5t24.5 57t8 72t-8 72t-24.5 57t-43.5 37.5
t-64 13.5q-38 0 -64.5 -13.5t-43 -37.5t-24.5 -57t-8 -72t8 -72t24.5 -57t43 -37.5t64.5 -13.5z" />
    <glyph glyph-name="uni041F" unicode="&#x41f;" horiz-adv-x="720" 
d="M60 700h600v-700h-200v520h-200v-520h-200v700z" />
    <glyph glyph-name="uni0420" unicode="&#x420;" horiz-adv-x="660" 
d="M60 700h310q58 0 106 -19t82 -52.5t53 -80.5t19 -103t-19 -103t-53 -81t-82 -52.5t-106 -18.5h-110v-190h-200v700zM350 370q38 0 59 20.5t21 54.5t-21 54.5t-59 20.5h-90v-150h90z" />
    <glyph glyph-name="uni0421" unicode="&#x421;" horiz-adv-x="715" 
d="M370 -10q-75 0 -137.5 23t-107.5 68.5t-70 113t-25 155.5t25 155.5t70 113t107.5 68.5t137.5 23t131 -20t95 -55.5t62 -83t32 -101.5h-205q-6 11 -13 25t-20 26t-32.5 20.5t-49.5 8.5q-38 0 -64.5 -13.5t-43 -37.5t-24.5 -57t-8 -72t8 -72t24.5 -57t43 -37.5t64.5 -13.5
q30 0 49.5 8.5t32.5 20.5t20 26t13 25h205q-9 -54 -32 -101.5t-62 -83t-95 -55.5t-131 -20z" />
    <glyph glyph-name="uni0422" unicode="&#x422;" horiz-adv-x="610" 
d="M205 520h-195v180h590v-180h-195v-520h-200v520z" />
    <glyph glyph-name="uni0423" unicode="&#x423;" horiz-adv-x="615" 
d="M213 170l-238 530h215l122 -305l113 305h210l-290 -700h-200z" />
    <glyph glyph-name="uni0424" unicode="&#x424;" horiz-adv-x="880" 
d="M340 70q-71 0 -130 20.5t-101 58t-65.5 90t-23.5 116.5t23.5 116.5t65.5 90t101 58t130 20.5v70h200v-70q71 0 130 -20.5t101 -58t65.5 -90t23.5 -116.5t-23.5 -116.5t-65.5 -90t-101 -58t-130 -20.5v-80h-200v80zM340 470q-53 0 -86.5 -29t-33.5 -86t33.5 -86t86.5 -29
v230zM540 240q53 0 86.5 29t33.5 86t-33.5 86t-86.5 29v-230z" />
    <glyph glyph-name="uni0425" unicode="&#x425;" horiz-adv-x="670" 
d="M205 360l-215 340h225l120 -215l120 215h225l-215 -340l225 -360h-225l-130 235l-130 -235h-225z" />
    <glyph glyph-name="uni0426" unicode="&#x426;" horiz-adv-x="765" 
d="M555 0h-495v700h200v-520h200v520h200v-520h85v-325h-190v145z" />
    <glyph glyph-name="uni0427" unicode="&#x427;" horiz-adv-x="705" 
d="M445 200q-17 -10 -53.5 -17.5t-81.5 -7.5q-128 0 -194 66t-66 209v250h200v-240q0 -105 100 -105q25 0 43.5 3.5t29.5 8.5q13 5 22 13v320h200v-700h-200v200z" />
    <glyph glyph-name="uni0428" unicode="&#x428;" horiz-adv-x="1010" 
d="M60 700h200v-520h145v520h200v-520h145v520h200v-700h-890v700z" />
    <glyph glyph-name="uni0429" unicode="&#x429;" horiz-adv-x="1055" 
d="M845 0h-785v700h200v-520h145v520h200v-520h145v520h200v-520h85v-325h-190v145z" />
    <glyph glyph-name="uni042A" unicode="&#x42a;" horiz-adv-x="755" 
d="M160 520h-160v180h360v-200h110q56 0 104 -18t82.5 -51t54 -79t19.5 -102t-19.5 -102t-54 -79t-82.5 -51t-104 -18h-310v520zM450 180q38 0 59 20t21 50t-21 50t-59 20h-90v-140h90z" />
    <glyph glyph-name="uni042B" unicode="&#x42b;" horiz-adv-x="925" 
d="M60 700h200v-200h100q56 0 104 -18t82.5 -51t54 -79t19.5 -102t-19.5 -102t-54 -79t-82.5 -51t-104 -18h-300v700zM340 180q38 0 59 20t21 50t-21 50t-59 20h-80v-140h80zM665 700h200v-700h-200v700z" />
    <glyph glyph-name="uni042C" unicode="&#x42c;" horiz-adv-x="655" 
d="M60 700h200v-200h110q56 0 104 -18t82.5 -51t54 -79t19.5 -102t-19.5 -102t-54 -79t-82.5 -51t-104 -18h-310v700zM350 180q38 0 59 20t21 50t-21 50t-59 20h-90v-140h90z" />
    <glyph glyph-name="uni042D" unicode="&#x42d;" horiz-adv-x="710" 
d="M340 -10q-75 0 -131 20t-95 55.5t-62 83t-32 101.5h205q6 -11 13 -25t20 -26t32.5 -20.5t49.5 -8.5q54 0 85.5 27t44.5 73h-186v160h186q-13 46 -44.5 73t-85.5 27q-30 0 -49.5 -8.5t-32.5 -20.5t-20 -26t-13 -25h-205q9 54 32 101.5t62 83t95 55.5t131 20t137.5 -23
t107.5 -68.5t70 -113t25 -155.5t-25 -155.5t-70 -113t-107.5 -68.5t-137.5 -23z" />
    <glyph glyph-name="uni042E" unicode="&#x42e;" horiz-adv-x="1015" 
d="M660 -10q-66 0 -120 19t-94.5 54t-67 85t-35.5 112h-83v-260h-200v700h200v-260h83q10 63 36 113t66.5 85t94.5 53.5t120 18.5q73 0 133 -24t102.5 -70t66 -113t23.5 -153t-23.5 -153t-66 -113t-102.5 -70t-133 -24zM660 170q28 0 51 10t39.5 31.5t25.5 55.5t9 83t-9 83
t-25.5 55.5t-39.5 31.5t-51 10t-51 -10t-39.5 -31.5t-25.5 -55.5t-9 -83t9 -83t25.5 -55.5t39.5 -31.5t51 -10z" />
    <glyph glyph-name="uni042F" unicode="&#x42f;" horiz-adv-x="670" 
d="M165 250q-21 8 -43 24.5t-40 42.5t-30 61.5t-12 81.5q0 50 17.5 94t49.5 76.5t78.5 51t104.5 18.5h320v-700h-200v220h-44l-141 -220h-220zM410 400v120h-105q-30 0 -47.5 -17t-17.5 -43t17.5 -43t47.5 -17h105z" />
    <glyph glyph-name="uni0430" unicode="&#x430;" horiz-adv-x="580" 
d="M215 -10q-45 0 -80.5 13t-59.5 36t-37 54t-13 67q0 34 12.5 64t38.5 52.5t67 35.5t97 13h115v20q0 19 -18 34.5t-52 15.5q-45 0 -60 -30h-180q6 34 22.5 67t46 59t73 42.5t103.5 16.5q56 0 101.5 -13t77.5 -40t49 -67.5t17 -94.5v-335h-160l-15 50h-5q-8 -9 -20 -19.5
t-29.5 -19.5t-40 -15t-50.5 -6zM260 135q45 0 70 22t25 48v10h-100q-50 0 -50 -40q0 -15 12.5 -27.5t42.5 -12.5z" />
    <glyph glyph-name="uni0431" unicode="&#x431;" horiz-adv-x="615" 
d="M310 -10q-128 0 -201.5 79.5t-73.5 240.5q0 96 18.5 172t55.5 129t92.5 81t128.5 28q75 0 123.5 7.5t81.5 22.5v-161q-26 -18 -75.5 -26t-109.5 -8q-41 0 -68.5 -11.5t-44.5 -27.5t-26.5 -34t-15.5 -31h5q15 15 52.5 32t97.5 17q56 0 100 -19.5t74 -53t45.5 -79.5
t15.5 -98q0 -58 -18.5 -106t-53.5 -82t-86 -53t-117 -19zM310 135q42 0 68.5 28.5t26.5 81.5t-26.5 81.5t-68.5 28.5t-68.5 -28.5t-26.5 -81.5t26.5 -81.5t68.5 -28.5z" />
    <glyph glyph-name="uni0432" unicode="&#x432;" horiz-adv-x="565" 
d="M50 540h305q87 0 131 -41t44 -109q0 -45 -22.5 -72.5t-52.5 -42.5q34 -15 59.5 -43t25.5 -77q0 -72 -45.5 -113.5t-139.5 -41.5h-305v540zM315 140q45 0 45 35t-45 35h-85v-70h85zM310 340q23 0 31.5 7.5t8.5 22.5t-8.5 22.5t-31.5 7.5h-80v-60h80z" />
    <glyph glyph-name="uni0433" unicode="&#x433;" horiz-adv-x="445" 
d="M50 540h375v-165h-195v-375h-180v540z" />
    <glyph glyph-name="uni0434" unicode="&#x434;" horiz-adv-x="640" 
d="M5 165h45q6 9 12 20t11 27.5t8.5 42.5t3.5 65v220h470v-375h65v-285h-175v120h-265v-120h-175v285zM375 165v210h-110v-55q0 -36 -5 -62.5t-11.5 -45t-13 -30t-10.5 -17.5h150z" />
    <glyph glyph-name="uni0435" unicode="&#x435;" horiz-adv-x="610" 
d="M310 -10q-136 0 -208 72t-72 208t74 208t206 72q67 0 118 -22.5t84.5 -61t50.5 -89t17 -107.5q0 -11 -1 -21t-2 -18q-1 -9 -2 -16h-370q2 -11 8 -25t17.5 -26t28.5 -20.5t41 -8.5q22 0 37.5 4t26 10t16.5 13t10 13h180q-6 -24 -22 -56t-46.5 -60.5t-77.5 -48.5t-114 -20z
M405 330q-8 30 -31.5 52.5t-68.5 22.5t-68.5 -22.5t-31.5 -52.5h200z" />
    <glyph glyph-name="uni0436" unicode="&#x436;" horiz-adv-x="840" 
d="M170 275l-175 265h210l125 -215v215h180v-215l125 215h210l-175 -265l190 -275h-210l-140 215v-215h-180v215l-140 -215h-210z" />
    <glyph glyph-name="uni0437" unicode="&#x437;" horiz-adv-x="560" 
d="M280 -10q-68 0 -116 15t-79.5 42t-47 63.5t-17.5 79.5h180q4 -30 25 -40t55 -10q38 0 54 9.5t16 25.5q0 30 -60 30h-65v130h55q21 0 33 3.5t18 8t7.5 9.5t1.5 9q0 15 -13 25t-47 10q-26 0 -46 -10t-24 -40h-180q2 43 16.5 79.5t44.5 63.5t76.5 42t112.5 15
q62 0 108 -12.5t76.5 -34.5t45.5 -52t15 -66q0 -45 -23.5 -70t-61.5 -40q42 -15 68.5 -47t26.5 -78q0 -71 -62 -115.5t-193 -44.5z" />
    <glyph glyph-name="uni0438" unicode="&#x438;" horiz-adv-x="630" 
d="M50 540h180v-280l164 280h186v-540h-180v280l-164 -280h-186v540z" />
    <glyph glyph-name="uni0439" unicode="&#x439;" horiz-adv-x="630" 
d="M50 540h180v-280l164 280h186v-540h-180v280l-164 -280h-186v540zM315 610q-32 0 -61 9t-52 28t-38 49.5t-19 73.5h120q4 -26 17.5 -38t32.5 -12t32.5 12t17.5 38h120q-4 -43 -19 -73.5t-38 -49.5t-52 -28t-61 -9z" />
    <glyph glyph-name="uni043A" unicode="&#x43a;" horiz-adv-x="590" 
d="M50 540h180v-225l155 225h210l-185 -265l200 -275h-210l-170 235v-235h-180v540z" />
    <glyph glyph-name="uni043B" unicode="&#x43b;" horiz-adv-x="605" 
d="M10 175h15q41 0 55.5 43t14.5 122v200h460v-540h-180v375h-100v-75q0 -53 -7.5 -107t-31 -98t-67 -72t-114.5 -28h-45v180z" />
    <glyph glyph-name="uni043C" unicode="&#x43c;" horiz-adv-x="780" 
d="M50 540h245l95 -265l95 265h245v-540h-180v285l-100 -285h-120l-100 285v-285h-180v540z" />
    <glyph glyph-name="uni043D" unicode="&#x43d;" horiz-adv-x="610" 
d="M50 540h180v-190h150v190h180v-540h-180v185h-150v-185h-180v540z" />
    <glyph glyph-name="uni043E" unicode="&#x43e;" horiz-adv-x="610" 
d="M305 -10q-132 0 -203.5 72t-71.5 208t71.5 208t203.5 72t203.5 -72t71.5 -208t-71.5 -208t-203.5 -72zM305 150q42 0 68.5 30t26.5 90t-26.5 90t-68.5 30t-68.5 -30t-26.5 -90t26.5 -90t68.5 -30z" />
    <glyph glyph-name="uni043F" unicode="&#x43f;" horiz-adv-x="610" 
d="M50 540h510v-540h-180v375h-150v-375h-180v540z" />
    <glyph glyph-name="uni0440" unicode="&#x440;" horiz-adv-x="630" 
d="M50 540h160l15 -50h5q7 9 18.5 19.5t28 19.5t38.5 15t50 6q52 0 95.5 -17.5t74.5 -53t48 -88t17 -121.5t-17 -121.5t-48 -88t-74.5 -53t-95.5 -17.5q-31 0 -54.5 8t-39.5 17.5t-25 18.5l-11 11h-5v-245h-180v740zM325 150q42 0 68.5 30t26.5 90t-26.5 90t-68.5 30
t-68.5 -30t-26.5 -90t26.5 -90t68.5 -30z" />
    <glyph glyph-name="uni0441" unicode="&#x441;" horiz-adv-x="595" 
d="M305 -10q-132 0 -203.5 72t-71.5 208t71.5 208t203.5 72q67 0 115 -21t79.5 -54t48 -73t22.5 -77h-180q-11 30 -31.5 47.5t-58.5 17.5t-64 -30t-26 -90t26 -90t64 -30t58.5 17.5t31.5 47.5h180q-6 -38 -22.5 -77.5t-48 -72.5t-79.5 -54t-115 -21z" />
    <glyph glyph-name="uni0442" unicode="&#x442;" horiz-adv-x="510" 
d="M165 375h-155v165h490v-165h-155v-375h-180v375z" />
    <glyph glyph-name="uni0443" unicode="&#x443;" horiz-adv-x="595" 
d="M200 0l-210 540h200l110 -330l105 330h200l-290 -740h-195z" />
    <glyph glyph-name="uni0444" unicode="&#x444;" horiz-adv-x="790" 
d="M305 0q-64 0 -115.5 19.5t-88 55.5t-56.5 85.5t-20 109.5t20 109.5t56.5 85.5t88 55.5t115.5 19.5v180h180v-180q64 0 115.5 -19.5t88 -55.5t56.5 -85.5t20 -109.5t-20 -109.5t-56.5 -85.5t-88 -55.5t-115.5 -19.5v-200h-180v200zM305 380q-45 0 -72.5 -30.5t-27.5 -79.5
t27.5 -79.5t72.5 -30.5v220zM485 160q45 0 72.5 30.5t27.5 79.5t-27.5 79.5t-72.5 30.5v-220z" />
    <glyph glyph-name="uni0445" unicode="&#x445;" horiz-adv-x="530" 
d="M145 280l-150 260h200l70 -150l70 150h200l-150 -260l160 -280h-200l-80 160l-80 -160h-200z" />
    <glyph glyph-name="uni0446" unicode="&#x446;" horiz-adv-x="640" 
d="M445 0h-395v540h180v-375h145v375h180v-375h65v-285h-175v120z" />
    <glyph glyph-name="uni0447" unicode="&#x447;" horiz-adv-x="595" 
d="M365 145q-16 -6 -45.5 -10.5t-59.5 -4.5q-113 0 -166.5 53t-53.5 162v195h180v-185q0 -30 18.5 -47.5t56.5 -17.5q26 0 42.5 6t27.5 14v230h180v-540h-180v145z" />
    <glyph glyph-name="uni0448" unicode="&#x448;" horiz-adv-x="820" 
d="M50 540h180v-375h90v375h180v-375h90v375h180v-540h-720v540z" />
    <glyph glyph-name="uni0449" unicode="&#x449;" horiz-adv-x="855" 
d="M660 0h-610v540h180v-375h90v375h180v-375h90v375h180v-375h65v-285h-175v120z" />
    <glyph glyph-name="uni044A" unicode="&#x44a;" horiz-adv-x="605" 
d="M120 390h-120v150h300v-150h90q45 0 82 -14.5t63 -40t40.5 -61.5t14.5 -79t-14.5 -79t-40.5 -61.5t-63 -40t-82 -14.5h-270v390zM365 150q23 0 34 13t11 32t-11 32t-34 13h-65v-90h65z" />
    <glyph glyph-name="uni044B" unicode="&#x44b;" horiz-adv-x="776" 
d="M50 540h180v-150h80q45 0 82 -14.5t63 -40t40.5 -61.5t14.5 -79t-14.5 -79t-40.5 -61.5t-63 -40t-82 -14.5h-260v540zM285 150q23 0 34 13t11 32t-11 32t-34 13h-55v-90h55zM545 540h181v-540h-181v540z" />
    <glyph glyph-name="uni044C" unicode="&#x44c;" horiz-adv-x="535" 
d="M50 540h180v-150h90q45 0 82 -14.5t63 -40t40.5 -61.5t14.5 -79t-14.5 -79t-40.5 -61.5t-63 -40t-82 -14.5h-270v540zM295 150q23 0 34 13t11 32t-11 32t-34 13h-65v-90h65z" />
    <glyph glyph-name="uni044D" unicode="&#x44d;" horiz-adv-x="590" 
d="M285 -10q-68 0 -115.5 21t-79 53t-48 69.5t-22.5 71.5h175q11 -30 32 -50t63 -20q28 0 51 14.5t34 55.5h-136v135h136q-11 34 -34 49.5t-51 15.5q-42 0 -63 -20t-32 -50h-175q6 34 22.5 71.5t48 69.5t79 53t115.5 21q132 0 203.5 -72t71.5 -208t-71.5 -208t-203.5 -72z
" />
    <glyph glyph-name="uni044E" unicode="&#x44e;" horiz-adv-x="845" 
d="M550 -10q-105 0 -171.5 51t-86.5 149h-62v-190h-180v540h180v-190h62q20 97 86.5 148.5t171.5 51.5q125 0 195 -72t70 -208t-70 -208t-195 -72zM550 150q38 0 61.5 28t23.5 92t-23.5 92t-61.5 28t-61.5 -28t-23.5 -92t23.5 -92t61.5 -28z" />
    <glyph glyph-name="uni044F" unicode="&#x44f;" horiz-adv-x="570" 
d="M110 190q-40 24 -60 65t-20 95q0 41 14.5 76t40.5 60.5t63 39.5t82 14h290v-540h-180v160h-45l-85 -160h-200zM340 305v80h-90q-40 0 -40 -40t40 -40h90z" />
    <glyph glyph-name="uni0450" unicode="&#x450;" horiz-adv-x="610" 
d="M310 -10q-136 0 -208 72t-72 208t74 208t206 72q67 0 118 -22.5t84.5 -61t50.5 -89t17 -107.5q0 -11 -1 -21t-2 -18q-1 -9 -2 -16h-370q2 -11 8 -25t17.5 -26t28.5 -20.5t41 -8.5q22 0 37.5 4t26 10t16.5 13t10 13h180q-6 -24 -22 -56t-46.5 -60.5t-77.5 -48.5t-114 -20z
M405 330q-8 30 -31.5 52.5t-68.5 22.5t-68.5 -22.5t-31.5 -52.5h200zM125 765h160l90 -150h-130z" />
    <glyph glyph-name="uni0451" unicode="&#x451;" horiz-adv-x="610" 
d="M310 -10q-136 0 -208 72t-72 208t74 208t206 72q67 0 118 -22.5t84.5 -61t50.5 -89t17 -107.5q0 -11 -1 -21t-2 -18q-1 -9 -2 -16h-370q2 -11 8 -25t17.5 -26t28.5 -20.5t41 -8.5q22 0 37.5 4t26 10t16.5 13t10 13h180q-6 -24 -22 -56t-46.5 -60.5t-77.5 -48.5t-114 -20z
M405 330q-8 30 -31.5 52.5t-68.5 22.5t-68.5 -22.5t-31.5 -52.5h200zM198 610q-34 0 -58.5 22.5t-24.5 59.5t24.5 60t58.5 23q33 0 57.5 -23t24.5 -60t-24.5 -59.5t-57.5 -22.5zM413 610q-34 0 -58.5 22.5t-24.5 59.5t24.5 60t58.5 23q33 0 57.5 -23t24.5 -60t-24.5 -59.5
t-57.5 -22.5z" />
    <glyph glyph-name="uni0452" unicode="&#x452;" horiz-adv-x="610" 
d="M275 -45h40q39 0 56 15t19 52v208q0 42 -21 63.5t-57 21.5q-35 0 -56 -21.5t-21 -63.5v-230h-180v520h-65v115h65v65h180v-65h120v-115h-120v-90h5q23 20 57 35t83 15q32 0 65.5 -11t61.5 -36.5t45.5 -66.5t17.5 -101v-265q0 -98 -51 -149t-149 -51h-95v155z" />
    <glyph glyph-name="uni0453" unicode="&#x453;" horiz-adv-x="445" 
d="M50 540h375v-165h-195v-375h-180v540zM265 765h160l-120 -150h-130z" />
    <glyph glyph-name="uni0454" unicode="&#x454;" horiz-adv-x="590" 
d="M305 -10q-132 0 -203.5 72t-71.5 208t71.5 208t203.5 72q67 0 115 -21t79.5 -53t48 -69.5t22.5 -71.5h-175q-11 30 -32 50t-63 20q-28 0 -51 -15.5t-34 -49.5h136v-135h-136q11 -41 34 -55.5t51 -14.5q42 0 63 20t32 50h175q-6 -34 -22.5 -71.5t-48 -69.5t-79.5 -53
t-115 -21z" />
    <glyph glyph-name="uni0455" unicode="&#x455;" horiz-adv-x="550" 
d="M270 -10q-75 0 -124.5 19t-79 48t-42 63.5t-14.5 64.5h180q4 -21 25 -35.5t55 -14.5q38 0 59 8t21 27q0 17 -23.5 24.5t-59.5 12.5t-77 12t-77 24.5t-59.5 49.5t-23.5 87q0 75 61.5 122.5t178.5 47.5q71 0 119 -17t77.5 -43.5t43 -59.5t15.5 -65h-180q0 16 -16 28t-54 12
q-9 0 -19.5 -1t-19.5 -4.5t-15 -9.5t-6 -15q0 -16 23.5 -22.5t58.5 -11t75.5 -11.5t75.5 -25t58.5 -51t23.5 -89q0 -24 -9.5 -54.5t-38 -57.5t-79.5 -45t-133 -18z" />
    <glyph glyph-name="uni0456" unicode="&#x456;" horiz-adv-x="280" 
d="M50 540h180v-540h-180v540zM140 580q-49 0 -74.5 26.5t-25.5 68.5t25.5 68.5t74.5 26.5t74.5 -26.5t25.5 -68.5t-25.5 -68.5t-74.5 -26.5z" />
    <glyph glyph-name="uni0457" unicode="&#x457;" horiz-adv-x="280" 
d="M50 540h180v-540h-180v540zM33 610q-34 0 -58.5 22.5t-24.5 59.5t24.5 60t58.5 23q33 0 57.5 -23t24.5 -60t-24.5 -59.5t-57.5 -22.5zM248 610q-34 0 -58.5 22.5t-24.5 59.5t24.5 60t58.5 23q33 0 57.5 -23t24.5 -60t-24.5 -59.5t-57.5 -22.5z" />
    <glyph glyph-name="uni0458" unicode="&#x458;" horiz-adv-x="280" 
d="M-75 -40h85q19 0 29.5 13t10.5 32v535h180v-570q0 -86 -42.5 -128t-147.5 -42h-115v160zM140 580q-49 0 -74.5 26.5t-25.5 68.5t25.5 68.5t74.5 26.5t74.5 -26.5t25.5 -68.5t-25.5 -68.5t-74.5 -26.5z" />
    <glyph glyph-name="uni0459" unicode="&#x459;" horiz-adv-x="840" 
d="M10 175h15q41 0 55.5 43t14.5 122v200h450v-150h80q45 0 82 -14.5t63 -40t40.5 -61.5t14.5 -79t-14.5 -79t-40.5 -61.5t-63 -40t-82 -14.5h-260v375h-90v-75q0 -53 -7.5 -107t-31 -98t-67 -72t-114.5 -28h-45v180zM600 150q23 0 34 13t11 32t-11 32t-34 13h-55v-90h55z
" />
    <glyph glyph-name="uni045A" unicode="&#x45a;" horiz-adv-x="845" 
d="M50 540h180v-180h140v180h180v-180h90q87 0 138.5 -48.5t51.5 -131.5t-51.5 -131.5t-138.5 -48.5h-270v210h-140v-210h-180v540zM620 150q11 0 20.5 7.5t9.5 22.5t-9.5 22.5t-20.5 7.5h-70v-60h70z" />
    <glyph glyph-name="uni045B" unicode="&#x45b;" horiz-adv-x="610" 
d="M55 520h-65v115h65v65h180v-65h120v-115h-120v-90h5q23 20 57 35t83 15q32 0 65.5 -11t61.5 -36.5t45.5 -66.5t17.5 -101v-265h-180v230q0 42 -21 63.5t-57 21.5q-35 0 -56 -21.5t-21 -63.5v-230h-180v520z" />
    <glyph glyph-name="uni045C" unicode="&#x45c;" horiz-adv-x="590" 
d="M50 540h180v-225l155 225h210l-185 -265l200 -275h-210l-170 235v-235h-180v540zM335 765h160l-120 -150h-130z" />
    <glyph glyph-name="uni045D" unicode="&#x45d;" horiz-adv-x="630" 
d="M50 540h180v-280l164 280h186v-540h-180v280l-164 -280h-186v540zM135 765h160l90 -150h-130z" />
    <glyph glyph-name="uni045E" unicode="&#x45e;" horiz-adv-x="595" 
d="M200 0l-210 540h200l110 -330l105 330h200l-290 -740h-195zM300 610q-32 0 -61 9t-52 28t-38 49.5t-19 73.5h120q4 -26 17.5 -38t32.5 -12t32.5 12t17.5 38h120q-4 -43 -19 -73.5t-38 -49.5t-52 -28t-61 -9z" />
    <glyph glyph-name="uni045F" unicode="&#x45f;" horiz-adv-x="610" 
d="M220 0h-170v540h180v-375h150v375h180v-540h-170v-120h-170v120z" />
    <glyph glyph-name="uni0490" unicode="&#x490;" horiz-adv-x="545" 
d="M60 700h275v140h185v-320h-260v-520h-200v700z" />
    <glyph glyph-name="uni0491" unicode="&#x491;" horiz-adv-x="445" 
d="M50 540h210v110h165v-275h-195v-375h-180v540z" />
    <glyph glyph-name="uni0492" unicode="&#x492;" horiz-adv-x="600" 
d="M90 230h-80v180h80v290h480v-180h-280v-110h175v-180h-175v-230h-200v230z" />
    <glyph glyph-name="uni0493" unicode="&#x493;" horiz-adv-x="470" 
d="M70 160h-70v145h70v235h385v-165h-205v-70h135v-145h-135v-160h-180v160z" />
    <glyph glyph-name="uni0494" unicode="&#x494;" horiz-adv-x="665" 
d="M335 10q49 0 82 28t33 92q0 19 -6 37t-18.5 32t-32.5 22.5t-48 8.5q-38 0 -59 -10.5t-26 -14.5v-205h-200v700h470v-180h-270v-140q8 5 40 15t85 10q66 0 114.5 -19.5t81 -55.5t48.5 -85.5t16 -109.5q0 -73 -22.5 -129t-63 -94t-98 -57.5t-126.5 -19.5v175z" />
    <glyph glyph-name="uni0495" unicode="&#x495;" horiz-adv-x="550" 
d="M285 -40q38 0 61.5 26.5t23.5 68.5t-19 68.5t-61 26.5q-15 0 -26 -3t-19 -7q-9 -4 -15 -10v-130h-180v540h395v-165h-215v-85q10 6 24 10q12 4 28.5 7t37.5 3q47 0 86.5 -14.5t68 -46t44.5 -81t16 -118.5q0 -121 -62.5 -185.5t-187.5 -64.5v160z" />
    <glyph glyph-name="uni0496" unicode="&#x496;" horiz-adv-x="974" 
d="M809 0h-39l-185 305v-305h-200v305l-185 -305h-220l225 355l-210 345h220l170 -295v295h200v-295l170 295h220l-210 -345l111 -175h123v-325h-190v145z" />
    <glyph glyph-name="uni0497" unicode="&#x497;" horiz-adv-x="840" 
d="M685 0h-35l-140 215v-215h-180v215l-140 -215h-210l190 275l-175 265h210l125 -215v215h180v-215l125 215h210l-175 -265l76 -110h114v-285h-175v120z" />
    <glyph glyph-name="uni049A" unicode="&#x49a;" horiz-adv-x="695" 
d="M515 0h-40l-215 305v-305h-200v700h200v-295l200 295h230l-240 -345l125 -175h130v-325h-190v145z" />
    <glyph glyph-name="uni049B" unicode="&#x49b;" horiz-adv-x="600" 
d="M435 0h-35l-170 235v-235h-180v540h180v-225l155 225h210l-185 -265l80 -110h120v-285h-175v120z" />
    <glyph glyph-name="uni049C" unicode="&#x49c;" horiz-adv-x="712" 
d="M60 700h200v-265h20v75h90v-75h11l120 265h210l-170 -345l181 -355h-210l-129 270h-13v-75h-90v75h-20v-270h-200v700z" />
    <glyph glyph-name="uni049D" unicode="&#x49d;" horiz-adv-x="625" 
d="M50 540h180v-190h20v50h75v-50h11l89 190h195l-135 -265l150 -275h-195l-102 200h-13v-50h-75v50h-20v-200h-180v540z" />
    <glyph glyph-name="uni04A2" unicode="&#x4a2;" horiz-adv-x="775" 
d="M565 0h-95v265h-210v-265h-200v700h200v-255h210v255h200v-520h85v-325h-190v145z" />
    <glyph glyph-name="uni04A3" unicode="&#x4a3;" horiz-adv-x="645" 
d="M450 0h-70v185h-150v-185h-180v540h180v-190h150v190h180v-375h65v-285h-175v120z" />
    <glyph glyph-name="uni04AA" unicode="&#x4aa;" horiz-adv-x="715" 
d="M270 2q-54 13 -98.5 42t-76 72.5t-48.5 102t-17 131.5q0 88 25 155.5t70 113t107.5 68.5t137.5 23t131 -20t95 -55.5t62 -83t32 -101.5h-205q-6 11 -13 25t-20 26t-32.5 20.5t-49.5 8.5q-38 0 -64.5 -13.5t-43 -37.5t-24.5 -57t-8 -72t8 -72t24.5 -57t43 -37.5
t64.5 -13.5q30 0 49.5 8.5t32.5 20.5t20 26t13 25h205q-8 -45 -25.5 -86t-45.5 -74t-67.5 -56.5t-91.5 -34.5v-144h-190v147z" />
    <glyph glyph-name="uni04AB" unicode="&#x4ab;" horiz-adv-x="595" 
d="M215 0q-90 23 -137.5 91t-47.5 179q0 136 71.5 208t203.5 72q67 0 115 -21t79.5 -54t48 -73t22.5 -77h-180q-11 30 -31.5 47.5t-58.5 17.5t-64 -30t-26 -90t26 -90t64 -30t58.5 17.5t31.5 47.5h180q-5 -31 -17 -64t-33.5 -62.5t-53.5 -53t-76 -35.5v-120h-175v120z" />
    <glyph glyph-name="uni04AE" unicode="&#x4ae;" horiz-adv-x="645" 
d="M222 215l-242 485h215l127 -300l128 300h215l-243 -485v-215h-200v215z" />
    <glyph glyph-name="uni04AF" unicode="&#x4af;" horiz-adv-x="585" 
d="M205 0h-25l-190 540h200l103 -335l102 335h200l-190 -540h-25v-200h-175v200z" />
    <glyph glyph-name="uni04B0" unicode="&#x4b0;" horiz-adv-x="655" 
d="M227 205h-169v175h86l-159 320h215l127 -300l128 300h215l-161 -320h84v-175h-166v-205h-200v205z" />
    <glyph glyph-name="uni04B1" unicode="&#x4b1;" horiz-adv-x="595" 
d="M210 0h-130v150h62l-147 390h200l103 -335l102 335h200l-147 -390h72v-150h-140v-200h-175v200z" />
    <glyph glyph-name="uni04B2" unicode="&#x4b2;" horiz-adv-x="685" 
d="M495 0h-30l-130 235l-130 -235h-225l225 360l-215 340h225l120 -215l120 215h225l-215 -340l112 -180h108v-325h-190v145z" />
    <glyph glyph-name="uni04B3" unicode="&#x4b3;" horiz-adv-x="540" 
d="M375 0h-30l-80 160l-80 -160h-200l160 280l-150 260h200l70 -150l70 150h200l-150 -260l65 -115h100v-285h-175v120z" />
    <glyph glyph-name="uni04B6" unicode="&#x4b6;" horiz-adv-x="750" 
d="M540 0h-95v200q-17 -10 -53.5 -17.5t-81.5 -7.5q-128 0 -194 66t-66 209v250h200v-240q0 -105 100 -105q25 0 43.5 3.5t29.5 8.5q13 5 22 13v320h200v-520h85v-325h-190v145z" />
    <glyph glyph-name="uni04B7" unicode="&#x4b7;" horiz-adv-x="629" 
d="M434 0h-69v145q-16 -6 -45.5 -10.5t-59.5 -4.5q-113 0 -166.5 53t-53.5 162v195h180v-185q0 -30 18.5 -47.5t56.5 -17.5q26 0 42.5 6t27.5 14v230h180v-375h64v-285h-175v120z" />
    <glyph glyph-name="uni04B8" unicode="&#x4b8;" horiz-adv-x="705" 
d="M445 200q-8 -5 -19.5 -8.5t-25.5 -7.5v-79h-100v70q-124 2 -187 68.5t-63 206.5v250h200v-240q0 -73 50 -96v96h100v-100q11 2 20 6t14 7q6 4 11 7v320h200v-700h-200v200z" />
    <glyph glyph-name="uni04B9" unicode="&#x4b9;" horiz-adv-x="595" 
d="M365 145q-7 -2 -15.5 -4.5t-19.5 -4.5v-61h-75v55q-111 1 -163 53.5t-52 161.5v195h180v-185q0 -43 35 -58v48h75v-51q11 2 19.5 6.5t15.5 9.5v230h180v-540h-180v145z" />
    <glyph glyph-name="uni04BA" unicode="&#x4ba;" horiz-adv-x="705" 
d="M60 700h200v-215q30 11 63.5 18t86.5 7q54 0 101 -14t81 -44t53.5 -77.5t19.5 -114.5v-260h-200v230q0 100 -105 100q-30 0 -59.5 -8.5t-40.5 -16.5v-305h-200v700z" />
    <glyph glyph-name="uni04BB" unicode="&#x4bb;" horiz-adv-x="610" 
d="M50 700h180v-200h5q23 20 57 35t83 15q32 0 65.5 -11t61.5 -36.5t45.5 -66.5t17.5 -101v-335h-180v300q0 42 -21 63.5t-57 21.5q-35 0 -56 -21.5t-21 -63.5v-300h-180v700z" />
    <glyph glyph-name="uni04C1" unicode="&#x4c1;" horiz-adv-x="970" 
d="M205 355l-210 345h220l170 -295v295h200v-295l170 295h220l-210 -345l225 -355h-220l-185 305v-305h-200v305l-185 -305h-220zM485 760q-34 0 -65 9t-55 28t-40 49.5t-20 73.5h120q4 -26 20.5 -38t39.5 -12t39.5 12t20.5 38h120q-4 -43 -20 -73.5t-40 -49.5t-55 -28
t-65 -9z" />
    <glyph glyph-name="uni04C2" unicode="&#x4c2;" horiz-adv-x="840" 
d="M170 275l-175 265h210l125 -215v215h180v-215l125 215h210l-175 -265l190 -275h-210l-140 215v-215h-180v215l-140 -215h-210zM420 610q-32 0 -61 9t-52 28t-38 49.5t-19 73.5h120q4 -26 17.5 -38t32.5 -12t32.5 12t17.5 38h120q-4 -43 -19 -73.5t-38 -49.5t-52 -28
t-61 -9z" />
    <glyph glyph-name="uni04D2" unicode="&#x4d2;" horiz-adv-x="705" 
d="M235 700h235l245 -700h-210l-31 100h-244l-30 -100h-210zM411 280l-59 210l-58 -210h117zM248 760q-34 0 -58.5 22.5t-24.5 59.5t24.5 60t58.5 23q33 0 57.5 -23t24.5 -60t-24.5 -59.5t-57.5 -22.5zM463 760q-34 0 -58.5 22.5t-24.5 59.5t24.5 60t58.5 23q33 0 57.5 -23
t24.5 -60t-24.5 -59.5t-57.5 -22.5z" />
    <glyph glyph-name="uni04D3" unicode="&#x4d3;" horiz-adv-x="580" 
d="M215 -10q-45 0 -80.5 13t-59.5 36t-37 54t-13 67q0 34 12.5 64t38.5 52.5t67 35.5t97 13h115v20q0 19 -18 34.5t-52 15.5q-45 0 -60 -30h-180q6 34 22.5 67t46 59t73 42.5t103.5 16.5q56 0 101.5 -13t77.5 -40t49 -67.5t17 -94.5v-335h-160l-15 50h-5q-8 -9 -20 -19.5
t-29.5 -19.5t-40 -15t-50.5 -6zM260 135q45 0 70 22t25 48v10h-100q-50 0 -50 -40q0 -15 12.5 -27.5t42.5 -12.5zM193 610q-34 0 -58.5 22.5t-24.5 59.5t24.5 60t58.5 23q33 0 57.5 -23t24.5 -60t-24.5 -59.5t-57.5 -22.5zM408 610q-34 0 -58.5 22.5t-24.5 59.5t24.5 60
t58.5 23q33 0 57.5 -23t24.5 -60t-24.5 -59.5t-57.5 -22.5z" />
    <glyph glyph-name="uni04D8" unicode="&#x4d8;" horiz-adv-x="730" 
d="M360 -10q-75 0 -136 24.5t-104 73t-66.5 121.5t-23.5 171v40h463q-12 49 -43 79.5t-90 30.5q-26 0 -46 -5.5t-34.5 -13.5t-23 -16.5t-12.5 -14.5h-200q7 40 29.5 81t61 74t94.5 54t131 21t137.5 -23t107.5 -68.5t70 -113t25 -155.5t-25 -155.5t-70 -113t-107.5 -68.5
t-137.5 -23zM360 170q31 0 53.5 8.5t37.5 22.5t24 32t15 37h-130h-130q6 -19 15 -37t24 -32t37 -22.5t54 -8.5z" />
    <glyph glyph-name="uni04D9" unicode="&#x4d9;" horiz-adv-x="610" 
d="M300 -10q-68 0 -118.5 22.5t-84 61t-50.5 89t-17 107.5q0 11 0.5 21t1.5 18q1 9 3 16h370q-2 11 -8 25t-17.5 26t-28.5 20.5t-41 8.5q-23 0 -38 -4t-25.5 -10t-16.5 -13t-10 -13h-180q6 24 22 56t46.5 60.5t77 48.5t114.5 20q136 0 208 -72t72 -208t-74 -208t-206 -72z
M305 135q45 0 68.5 22.5t31.5 52.5h-200q8 -30 31.5 -52.5t68.5 -22.5z" />
    <glyph glyph-name="uni04E0" unicode="&#x4e0;" horiz-adv-x="645" 
d="M320 -10q-154 0 -230 63t-80 172h200q4 -19 16.5 -30t28.5 -16.5t32.5 -7t27.5 -1.5q28 0 47 6.5t31 17t17 23t5 23.5q0 9 -3 21.5t-13.5 23t-30 18t-53.5 7.5h-120v120l120 90h-265v180h540v-139l-180 -131h5q36 0 71.5 -13t64 -39t46.5 -64t18 -89q0 -36 -14 -77
t-47.5 -76t-90.5 -58.5t-143 -23.5z" />
    <glyph glyph-name="uni04E1" unicode="&#x4e1;" horiz-adv-x="565" 
d="M280 -200q-73 0 -126 17.5t-87 48.5t-50.5 73t-16.5 91h180q0 -30 24 -50t66 -20t66 21.5t24 63.5q0 85 -100 85h-130v120l165 130h-250v160h480v-160l-160 -125q45 -9 78 -30t54.5 -50t32 -65t10.5 -75q0 -54 -19 -97.5t-53 -74t-82 -47t-106 -16.5z" />
    <glyph glyph-name="uni04E2" unicode="&#x4e2;" horiz-adv-x="775" 
d="M60 700h200v-407l215 407h240v-700h-200v407l-215 -407h-240v700zM230 895h310v-115h-310v115z" />
    <glyph glyph-name="uni04E3" unicode="&#x4e3;" horiz-adv-x="630" 
d="M50 540h180v-280l164 280h186v-540h-180v280l-164 -280h-186v540zM160 745h310v-115h-310v115z" />
    <glyph glyph-name="uni04E6" unicode="&#x4e6;" horiz-adv-x="740" 
d="M370 -10q-75 0 -137.5 23t-107.5 68.5t-70 113t-25 155.5t25 155.5t70 113t107.5 68.5t137.5 23t137.5 -23t107.5 -68.5t70 -113t25 -155.5t-25 -155.5t-70 -113t-107.5 -68.5t-137.5 -23zM370 170q37 0 64 13.5t43.5 37.5t24.5 57t8 72t-8 72t-24.5 57t-43.5 37.5
t-64 13.5q-38 0 -64.5 -13.5t-43 -37.5t-24.5 -57t-8 -72t8 -72t24.5 -57t43 -37.5t64.5 -13.5zM263 760q-34 0 -58.5 22.5t-24.5 59.5t24.5 60t58.5 23q33 0 57.5 -23t24.5 -60t-24.5 -59.5t-57.5 -22.5zM478 760q-34 0 -58.5 22.5t-24.5 59.5t24.5 60t58.5 23
q33 0 57.5 -23t24.5 -60t-24.5 -59.5t-57.5 -22.5z" />
    <glyph glyph-name="uni04E7" unicode="&#x4e7;" horiz-adv-x="610" 
d="M305 -10q-132 0 -203.5 72t-71.5 208t71.5 208t203.5 72t203.5 -72t71.5 -208t-71.5 -208t-203.5 -72zM305 150q42 0 68.5 30t26.5 90t-26.5 90t-68.5 30t-68.5 -30t-26.5 -90t26.5 -90t68.5 -30zM198 610q-34 0 -58.5 22.5t-24.5 59.5t24.5 60t58.5 23q33 0 57.5 -23
t24.5 -60t-24.5 -59.5t-57.5 -22.5zM413 610q-34 0 -58.5 22.5t-24.5 59.5t24.5 60t58.5 23q33 0 57.5 -23t24.5 -60t-24.5 -59.5t-57.5 -22.5z" />
    <glyph glyph-name="uni04E8" unicode="&#x4e8;" horiz-adv-x="740" 
d="M370 -10q-75 0 -137.5 23t-107.5 68.5t-70 113t-25 155.5t25 155.5t70 113t107.5 68.5t137.5 23t137.5 -23t107.5 -68.5t70 -113t25 -155.5t-25 -155.5t-70 -113t-107.5 -68.5t-137.5 -23zM370 170q56 0 87.5 28.5t43.5 76.5h-263q13 -48 44.5 -76.5t87.5 -28.5zM501 425
q-12 48 -43.5 76.5t-87.5 28.5t-87.5 -28.5t-44.5 -76.5h263z" />
    <glyph glyph-name="uni04E9" unicode="&#x4e9;" horiz-adv-x="610" 
d="M305 -10q-132 0 -203.5 72t-71.5 208t71.5 208t203.5 72t203.5 -72t71.5 -208t-71.5 -208t-203.5 -72zM305 140q32 0 58.5 18.5t34.5 46.5h-187q8 -28 35 -46.5t59 -18.5zM398 335q-8 27 -34.5 46t-58.5 19t-59 -19t-35 -46h187z" />
    <glyph glyph-name="uni04EE" unicode="&#x4ee;" horiz-adv-x="615" 
d="M213 170l-238 530h215l122 -305l113 305h210l-290 -700h-200zM150 895h310v-115h-310v115z" />
    <glyph glyph-name="uni04EF" unicode="&#x4ef;" horiz-adv-x="595" 
d="M200 0l-210 540h200l110 -330l105 330h200l-290 -740h-195zM140 745h310v-115h-310v115z" />
    <glyph glyph-name="uni04F0" unicode="&#x4f0;" horiz-adv-x="615" 
d="M213 170l-238 530h215l122 -305l113 305h210l-290 -700h-200zM198 760q-34 0 -58.5 22.5t-24.5 59.5t24.5 60t58.5 23q33 0 57.5 -23t24.5 -60t-24.5 -59.5t-57.5 -22.5zM413 760q-34 0 -58.5 22.5t-24.5 59.5t24.5 60t58.5 23q33 0 57.5 -23t24.5 -60t-24.5 -59.5
t-57.5 -22.5z" />
    <glyph glyph-name="uni04F1" unicode="&#x4f1;" horiz-adv-x="595" 
d="M200 0l-210 540h200l110 -330l105 330h200l-290 -740h-195zM188 610q-34 0 -58.5 22.5t-24.5 59.5t24.5 60t58.5 23q33 0 57.5 -23t24.5 -60t-24.5 -59.5t-57.5 -22.5zM403 610q-34 0 -58.5 22.5t-24.5 59.5t24.5 60t58.5 23q33 0 57.5 -23t24.5 -60t-24.5 -59.5
t-57.5 -22.5z" />
    <glyph glyph-name="Wgrave" unicode="&#x1e80;" horiz-adv-x="984" 
d="M5 700h205l89 -415l111 415h164l110 -415l90 415h205l-180 -700h-195l-112 375l-112 -375h-195zM310 915h160l90 -150h-130z" />
    <glyph glyph-name="wgrave" unicode="&#x1e81;" horiz-adv-x="855" 
d="M5 540h190l68 -320l82 320h165l82 -320l68 320h190l-140 -540h-200l-83 280l-82 -280h-200zM240 765h160l90 -150h-130z" />
    <glyph glyph-name="Wacute" unicode="&#x1e82;" horiz-adv-x="984" 
d="M5 700h205l89 -415l111 415h164l110 -415l90 415h205l-180 -700h-195l-112 375l-112 -375h-195zM515 915h160l-120 -150h-130z" />
    <glyph glyph-name="wacute" unicode="&#x1e83;" horiz-adv-x="855" 
d="M5 540h190l68 -320l82 320h165l82 -320l68 320h190l-140 -540h-200l-83 280l-82 -280h-200zM450 765h160l-120 -150h-130z" />
    <glyph glyph-name="Wdieresis" unicode="&#x1e84;" horiz-adv-x="984" 
d="M5 700h205l89 -415l111 415h164l110 -415l90 415h205l-180 -700h-195l-112 375l-112 -375h-195zM388 760q-34 0 -58.5 22.5t-24.5 59.5t24.5 60t58.5 23q33 0 57.5 -23t24.5 -60t-24.5 -59.5t-57.5 -22.5zM603 760q-34 0 -58.5 22.5t-24.5 59.5t24.5 60t58.5 23
q33 0 57.5 -23t24.5 -60t-24.5 -59.5t-57.5 -22.5z" />
    <glyph glyph-name="wdieresis" unicode="&#x1e85;" horiz-adv-x="855" 
d="M5 540h190l68 -320l82 320h165l82 -320l68 320h190l-140 -540h-200l-83 280l-82 -280h-200zM323 610q-34 0 -58.5 22.5t-24.5 59.5t24.5 60t58.5 23q33 0 57.5 -23t24.5 -60t-24.5 -59.5t-57.5 -22.5zM538 610q-34 0 -58.5 22.5t-24.5 59.5t24.5 60t58.5 23
q33 0 57.5 -23t24.5 -60t-24.5 -59.5t-57.5 -22.5z" />
    <glyph glyph-name="uni1E9E" unicode="&#x1e9e;" horiz-adv-x="705" 
d="M55 470q0 113 56.5 171.5t158.5 58.5h380v-170l-100 -90v-5q19 -8 42 -24t42.5 -41t32.5 -60t13 -80q0 -58 -18.5 -101.5t-51 -72t-76.5 -42.5t-94 -14h-105v180h65q24 0 39.5 6t24.5 15t12.5 19.5t3.5 19.5t-3.5 19.5t-12.5 19.5t-24.5 15t-39.5 6h-55v140l100 90h-125
q-65 0 -65 -60v-470h-200v470z" />
    <glyph glyph-name="Ygrave" unicode="&#x1ef2;" horiz-adv-x="645" 
d="M222 215l-242 485h215l127 -300l128 300h215l-243 -485v-215h-200v215zM140 915h160l90 -150h-130z" />
    <glyph glyph-name="ygrave" unicode="&#x1ef3;" horiz-adv-x="595" 
d="M200 0l-210 540h200l110 -330l105 330h200l-290 -740h-195zM110 765h160l90 -150h-130z" />
    <glyph glyph-name="endash" unicode="&#x2013;" horiz-adv-x="630" 
d="M30 360h570v-150h-570v150z" />
    <glyph glyph-name="emdash" unicode="&#x2014;" horiz-adv-x="895" 
d="M30 360h835v-150h-835v150z" />
    <glyph glyph-name="quoteleft" unicode="&#x2018;" horiz-adv-x="215" 
d="M72 700h138l-40 -210h-160z" />
    <glyph glyph-name="quoteright" unicode="&#x2019;" horiz-adv-x="215" 
d="M50 700h160l-62 -210h-138z" />
    <glyph glyph-name="quotesinglbase" unicode="&#x201a;" horiz-adv-x="215" 
d="M40 100h160l-62 -210h-138z" />
    <glyph glyph-name="quotedblleft" unicode="&#x201c;" horiz-adv-x="430" 
d="M72 700h138l-40 -210h-160zM287 700h138l-40 -210h-160z" />
    <glyph glyph-name="quotedblright" unicode="&#x201d;" horiz-adv-x="430" 
d="M50 700h160l-62 -210h-138zM265 700h160l-62 -210h-138z" />
    <glyph glyph-name="quotedblbase" unicode="&#x201e;" horiz-adv-x="430" 
d="M40 100h160l-62 -210h-138zM255 100h160l-62 -210h-138z" />
    <glyph glyph-name="dagger" unicode="&#x2020;" horiz-adv-x="500" 
d="M160 390h-110v170h110v140h180v-140h110v-170h-110v-390h-180v390z" />
    <glyph glyph-name="daggerdbl" unicode="&#x2021;" horiz-adv-x="500" 
d="M160 140h-110v170h110v80h-110v170h110v140h180v-140h110v-170h-110v-80h110v-170h-110v-140h-180v140z" />
    <glyph glyph-name="bullet" unicode="&#x2022;" horiz-adv-x="500" 
d="M250 160q-26 0 -49.5 10.5t-41.5 28.5t-28.5 41.5t-10.5 49.5t10.5 49.5t28.5 41.5t41.5 28.5t49.5 10.5t49.5 -10.5t41.5 -28.5t28.5 -41.5t10.5 -49.5t-10.5 -49.5t-28.5 -41.5t-41.5 -28.5t-49.5 -10.5z" />
    <glyph glyph-name="ellipsis" unicode="&#x2026;" horiz-adv-x="810" 
d="M120 -5q-18 0 -35 7t-30.5 19.5t-21.5 29.5t-8 38t8 39t21.5 30.5t30.5 19.5t35 7t35 -7t30.5 -19.5t21.5 -30.5t8 -39t-8 -38t-21.5 -29.5t-30.5 -19.5t-35 -7zM405 -5q-18 0 -35 7t-30.5 19.5t-21.5 29.5t-8 38t8 39t21.5 30.5t30.5 19.5t35 7t35 -7t30.5 -19.5
t21.5 -30.5t8 -39t-8 -38t-21.5 -29.5t-30.5 -19.5t-35 -7zM690 -5q-18 0 -35 7t-30.5 19.5t-21.5 29.5t-8 38t8 39t21.5 30.5t30.5 19.5t35 7t35 -7t30.5 -19.5t21.5 -30.5t8 -39t-8 -38t-21.5 -29.5t-30.5 -19.5t-35 -7z" />
    <glyph glyph-name="perthousand" unicode="&#x2030;" horiz-adv-x="1165" 
d="M553 700h124l-435 -700h-124zM590 -10q-38 0 -68 12.5t-52 35t-33.5 53.5t-11.5 69q0 37 11.5 68.5t33.5 54t52 35t68 12.5q37 0 67.5 -12.5t52.5 -35t33.5 -54t11.5 -68.5q0 -38 -11.5 -69t-33.5 -53.5t-52.5 -35t-67.5 -12.5zM590 90q26 0 43 18t17 52t-17 52t-43 18
t-43 -18t-17 -52t17 -52t43 -18zM205 370q-38 0 -68 12.5t-52 35t-33.5 53.5t-11.5 69q0 37 11.5 68.5t33.5 54t52 35t68 12.5q37 0 67.5 -12.5t52.5 -35t33.5 -54t11.5 -68.5q0 -38 -11.5 -69t-33.5 -53.5t-52.5 -35t-67.5 -12.5zM205 470q26 0 43 18t17 52t-17 52t-43 18
t-43 -18t-17 -52t17 -52t43 -18zM960 -10q-38 0 -68 12.5t-52 35t-33.5 53.5t-11.5 69q0 37 11.5 68.5t33.5 54t52 35t68 12.5q37 0 67.5 -12.5t52.5 -35t33.5 -54t11.5 -68.5q0 -38 -11.5 -69t-33.5 -53.5t-52.5 -35t-67.5 -12.5zM960 90q26 0 43 18t17 52t-17 52t-43 18
t-43 -18t-17 -52t17 -52t43 -18z" />
    <glyph glyph-name="guilsinglleft" unicode="&#x2039;" horiz-adv-x="465" 
d="M30 275l220 245h195l-220 -242v-6l220 -242h-195z" />
    <glyph glyph-name="guilsinglright" unicode="&#x203a;" horiz-adv-x="465" 
d="M240 272v6l-220 242h195l220 -245l-220 -245h-195z" />
    <glyph glyph-name="fraction" unicode="&#x2044;" horiz-adv-x="180" 
d="M255 700h105l-435 -700h-105z" />
    <glyph glyph-name="uni2070" unicode="&#x2070;" horiz-adv-x="400" 
d="M200 395q-39 0 -71 13.5t-55 40t-36 64.5t-13 87t13 87t36 64t55 40t71 14t71 -14t55 -40t36 -64t13 -87t-13 -87t-36 -64.5t-55 -40t-71 -13.5zM200 490q36 0 53 30.5t17 79.5t-17 79.5t-53 30.5t-53 -30.5t-17 -79.5t17 -79.5t53 -30.5z" />
    <glyph glyph-name="uni2074" unicode="&#x2074;" horiz-adv-x="350" 
d="M175 480h-175v95l160 225h120v-225h60v-95h-60v-80h-105v80zM175 575v95l-65 -95h65z" />
    <glyph glyph-name="uni2075" unicode="&#x2075;" horiz-adv-x="360" 
d="M180 395q-72 0 -114 36.5t-46 93.5h110q2 -15 14.5 -25t35.5 -10q26 0 40.5 13.5t14.5 36.5q0 26 -16 38t-39 12t-34 -8.5t-16 -16.5h-105l28 235h267v-95h-183l-6 -50h5q7 3 17 7q8 3 20 5.5t27 2.5q60 0 100 -33t40 -97q0 -30 -10 -56.5t-30.5 -46t-50.5 -31t-69 -11.5
z" />
    <glyph glyph-name="uni2076" unicode="&#x2076;" horiz-adv-x="350" 
d="M175 395q-41 0 -71.5 12.5t-50 33.5t-29 49t-9.5 60q0 38 13 67.5t27 52.5l85 130h118l-83 -120q39 0 68.5 -11.5t50 -30t31 -43t10.5 -50.5q0 -68 -42.5 -109t-117.5 -41zM175 490q26 0 40.5 13.5t14.5 36.5t-14.5 36.5t-40.5 13.5t-40.5 -13.5t-14.5 -36.5t14.5 -36.5
t40.5 -13.5z" />
    <glyph glyph-name="uni2077" unicode="&#x2077;" horiz-adv-x="305" 
d="M190 705h-170v95h280v-95l-138 -305h-110z" />
    <glyph glyph-name="uni2078" unicode="&#x2078;" horiz-adv-x="360" 
d="M180 395q-68 0 -111.5 32.5t-43.5 92.5q0 26 13 51t47 44q-23 11 -36.5 32.5t-13.5 47.5q0 45 35 77.5t110 32.5t110 -32.5t35 -77.5q0 -26 -13.5 -47.5t-36.5 -32.5q34 -19 47 -44t13 -51q0 -60 -43.5 -92.5t-111.5 -32.5zM180 485q26 0 38 12.5t12 27.5t-12 27.5
t-38 12.5t-38 -12.5t-12 -27.5t12 -27.5t38 -12.5zM180 645q26 0 35.5 12t9.5 23t-9.5 23t-35.5 12t-35.5 -12t-9.5 -23t9.5 -23t35.5 -12z" />
    <glyph glyph-name="uni2079" unicode="&#x2079;" horiz-adv-x="350" 
d="M175 520q-39 0 -68.5 11t-50 30t-31 43.5t-10.5 50.5q0 68 42.5 109t117.5 41q41 0 71.5 -12.5t50 -33.5t29 -49t9.5 -60q0 -38 -13 -67.5t-27 -52.5l-85 -130h-118zM175 610q26 0 40.5 13.5t14.5 36.5t-14.5 36.5t-40.5 13.5t-40.5 -13.5t-14.5 -36.5t14.5 -36.5
t40.5 -13.5z" />
    <glyph glyph-name="uni2080" unicode="&#x2080;" horiz-adv-x="400" 
d="M200 -105q-39 0 -71 13.5t-55 40t-36 64.5t-13 87t13 87t36 64t55 40t71 14t71 -14t55 -40t36 -64t13 -87t-13 -87t-36 -64.5t-55 -40t-71 -13.5zM200 -10q36 0 53 30.5t17 79.5t-17 79.5t-53 30.5t-53 -30.5t-17 -79.5t17 -79.5t53 -30.5z" />
    <glyph glyph-name="uni2081" unicode="&#x2081;" horiz-adv-x="285" 
d="M125 150h-90v95h65q25 0 25 25v30h105v-400h-105v250z" />
    <glyph glyph-name="uni2082" unicode="&#x2082;" horiz-adv-x="345" 
d="M25 -5l135 120q19 17 32 31.5t13 33.5q0 15 -10 22.5t-25 7.5q-19 0 -27 -10t-8 -25h-110q0 60 35.5 95t114.5 35q36 0 62 -9.5t43.5 -26t26 -38.5t8.5 -46q0 -38 -18 -67.5t-50 -58.5l-77 -64h140v-95h-285v95z" />
    <glyph glyph-name="uni2083" unicode="&#x2083;" horiz-adv-x="355" 
d="M180 -105q-83 0 -121.5 34t-38.5 91h110q0 -9 11 -19.5t34 -10.5q19 0 32 10t13 25t-11 25t-34 10h-25v90h25q23 0 31.5 11t8.5 19q0 11 -10.5 20.5t-29.5 9.5q-23 0 -34 -10t-11 -25h-110q0 64 40 97t115 33q39 0 67.5 -9.5t47 -25t27 -35t8.5 -40.5q0 -19 -6 -33
t-15 -24.5t-19.5 -17t-19.5 -10.5q30 -11 47.5 -33.5t17.5 -56.5q0 -17 -6.5 -38.5t-23.5 -41t-46 -32.5t-74 -13z" />
    <glyph glyph-name="uni2084" unicode="&#x2084;" horiz-adv-x="350" 
d="M175 -20h-175v95l160 225h120v-225h60v-95h-60v-80h-105v80zM175 75v95l-65 -95h65z" />
    <glyph glyph-name="uni2085" unicode="&#x2085;" horiz-adv-x="360" 
d="M180 -105q-72 0 -114 36.5t-46 93.5h110q2 -15 14.5 -25t35.5 -10q26 0 40.5 13.5t14.5 36.5q0 26 -16 38t-39 12t-34 -8.5t-16 -16.5h-105l28 235h267v-95h-183l-6 -50h5q7 3 17 7q8 3 20 5.5t27 2.5q60 0 100 -33t40 -97q0 -30 -10 -56.5t-30.5 -46t-50.5 -31
t-69 -11.5z" />
    <glyph glyph-name="uni2086" unicode="&#x2086;" horiz-adv-x="350" 
d="M175 -105q-41 0 -71.5 12.5t-50 33.5t-29 49t-9.5 60q0 38 13 67.5t27 52.5l85 130h118l-83 -120q39 0 68.5 -11.5t50 -30t31 -43t10.5 -50.5q0 -68 -42.5 -109t-117.5 -41zM175 -10q26 0 40.5 13.5t14.5 36.5t-14.5 36.5t-40.5 13.5t-40.5 -13.5t-14.5 -36.5t14.5 -36.5
t40.5 -13.5z" />
    <glyph glyph-name="uni2087" unicode="&#x2087;" horiz-adv-x="305" 
d="M190 205h-170v95h280v-95l-138 -305h-110z" />
    <glyph glyph-name="uni2088" unicode="&#x2088;" horiz-adv-x="360" 
d="M180 -105q-68 0 -111.5 32.5t-43.5 92.5q0 26 13 51t47 44q-23 11 -36.5 32.5t-13.5 47.5q0 45 35 77.5t110 32.5t110 -32.5t35 -77.5q0 -26 -13.5 -47.5t-36.5 -32.5q34 -19 47 -44t13 -51q0 -60 -43.5 -92.5t-111.5 -32.5zM180 -15q26 0 38 12.5t12 27.5t-12 27.5
t-38 12.5t-38 -12.5t-12 -27.5t12 -27.5t38 -12.5zM180 145q26 0 35.5 12t9.5 23t-9.5 23t-35.5 12t-35.5 -12t-9.5 -23t9.5 -23t35.5 -12z" />
    <glyph glyph-name="uni2089" unicode="&#x2089;" horiz-adv-x="350" 
d="M175 20q-39 0 -68.5 11t-50 30t-31 43.5t-10.5 50.5q0 68 42.5 109t117.5 41q41 0 71.5 -12.5t50 -33.5t29 -49t9.5 -60q0 -38 -13 -67.5t-27 -52.5l-85 -130h-118zM175 110q26 0 40.5 13.5t14.5 36.5t-14.5 36.5t-40.5 13.5t-40.5 -13.5t-14.5 -36.5t14.5 -36.5
t40.5 -13.5z" />
    <glyph glyph-name="uni20A9" unicode="&#x20a9;" horiz-adv-x="1014" 
d="M173 160h-153v150h119l-18 80h-101v150h66l-36 160h205l21 -160h109l40 160h164l40 -160h109l21 160h205l-37 -160h67v-150h-101l-18 -80h119v-150h-154l-36 -160h-195l-41 160h-123l-40 -160h-195zM328 310l20 80h-51l10 -80h21zM531 310l-20 80h-8l-20 -80h48zM707 310
l11 80h-52l20 -80h21z" />
    <glyph glyph-name="Euro" unicode="&#x20ac;" horiz-adv-x="770" 
d="M435 -10q-60 0 -112.5 15.5t-94.5 45.5t-72 72.5t-46 96.5h-95v110h85v45h-85v110h97q16 52 46 94t72 71t93.5 44.5t111.5 15.5q67 0 120.5 -17t92.5 -47.5t63.5 -72.5t33.5 -93h-205q-6 7 -14.5 17t-21 18t-30 14t-39.5 6q-38 0 -63 -13.5t-44 -36.5h162v-110h-205v-45
h205v-110h-167q19 -26 45.5 -40.5t66.5 -14.5q22 0 39.5 6t30 14t21 17.5t14.5 17.5h205q-9 -51 -33.5 -93t-63.5 -72.5t-92.5 -47.5t-120.5 -17z" />
    <glyph glyph-name="uni20B4" unicode="&#x20b4;" horiz-adv-x="660" 
d="M335 -10q-60 0 -109 12t-83.5 34t-53.5 53.5t-19 70.5q0 15 3 28.5t6.5 24t7 16.5l3.5 6h-55v90h590v-90h-340q-4 -4 -8 -9q-7 -11 -7 -26q0 -19 15.5 -34.5t49.5 -15.5q62 0 70 40h200q-4 -43 -22 -79.5t-51 -63.5t-82 -42t-115 -15zM35 465h340q3 4 7 9q3 5 5.5 11
t2.5 15q0 19 -15.5 34.5t-49.5 15.5q-62 0 -70 -40h-200q4 43 22 79.5t51 63.5t82 42t115 15q60 0 109 -12t83.5 -34t53.5 -53.5t19 -70.5q0 -15 -3 -28.5t-6.5 -24t-7 -16.5l-3.5 -6h55v-90h-590v90z" />
    <glyph glyph-name="uni20B8" unicode="&#x20b8;" horiz-adv-x="650" 
d="M225 310h-195v170h590v-170h-195v-310h-200v310zM30 700h590v-170h-590v170z" />
    <glyph glyph-name="uni20B9" unicode="&#x20b9;" horiz-adv-x="610" 
d="M203 190h-173v145h191q45 0 67 14.5t27 35.5h-285v120h285q-5 20 -27.5 35t-67.5 15h-190v145h560v-145h-105q10 -8 16.5 -23.5t8.5 -26.5h80v-120h-79q-8 -42 -26.5 -73.5t-37.5 -51.5t-33 -30l-14 -10l160 -220h-220z" />
    <glyph glyph-name="uni20BA" unicode="&#x20ba;" horiz-adv-x="630" 
d="M110 207l-90 -33v140l90 33v45l-90 -33v140l90 33v168h195v-96l150 56v-140l-150 -56v-45l150 56v-140l-150 -56v-99q21 0 41.5 3.5t37.5 13t28 26t13 42.5h195q-2 -75 -25.5 -126t-67 -81.5t-104.5 -44t-138 -13.5h-175v207z" />
    <glyph glyph-name="uni20BD" unicode="&#x20bd;" horiz-adv-x="655" 
d="M75 75h-65v145h65v40h-65v145h65v295h330q49 0 91 -14.5t73 -43t48.5 -69.5t17.5 -93q0 -53 -17.5 -93.5t-48 -69t-71.5 -43t-88 -14.5h-135v-40h180v-145h-180v-75h-200v75zM375 405q30 0 45 17t15 43q0 23 -15 39t-45 16h-100v-115h100z" />
    <glyph glyph-name="uni20BF" unicode="&#x20bf;" horiz-adv-x="680" 
d="M145 0h-85v700h85v110h145v-110h60v110h145v-117q72 -17 108.5 -65.5t36.5 -122.5q0 -26 -7.5 -49.5t-20.5 -43t-29 -34t-33 -23.5q19 -9 37 -23.5t32 -34t22.5 -45t8.5 -57.5q0 -71 -37.5 -123t-117.5 -67v-115h-145v110h-60v-110h-145v110zM390 170q30 0 45 13.5
t15 36.5t-15 36.5t-45 13.5h-130v-100h130zM380 430q30 0 45 13.5t15 36.5t-15 36.5t-45 13.5h-120v-100h120z" />
    <glyph glyph-name="uni2113" unicode="&#x2113;" horiz-adv-x="435" 
d="M250 -10q-34 0 -63 8t-50.5 27.5t-34 51t-12.5 78.5v50q-12 -4 -26 -8q-12 -3 -28.5 -5t-35.5 -2v100q19 0 35.5 3t28.5 7q14 4 26 10v245q0 39 12 68.5t33 48.5t48 28.5t57 9.5q32 0 61.5 -9t52.5 -30t37 -55.5t14 -85.5q0 -54 -18 -102t-47.5 -87t-67.5 -67.5
t-77 -43.5v-75q0 -30 20.5 -47.5t54.5 -17.5q13 0 25.5 2.5t22.5 5.5l22 8v-105q-12 -3 -26 -6q-12 -2 -28.5 -3.5t-35.5 -1.5zM195 347q49 30 74.5 80t25.5 103q0 38 -14.5 59t-40.5 21q-19 0 -32 -17.5t-13 -47.5v-198z" />
    <glyph glyph-name="uni2116" unicode="&#x2116;" horiz-adv-x="1175" 
d="M60 700h250l205 -404v404h200v-700h-250l-205 402v-402h-200v700zM800 135h330v-135h-330v135zM965 190q-38 0 -70.5 12t-57 35t-38.5 56.5t-14 76.5t14 76.5t38.5 56.5t57 35t70.5 12q37 0 70 -12t57.5 -35t38.5 -56.5t14 -76.5t-14 -76.5t-38.5 -56.5t-57.5 -35
t-70 -12zM965 315q23 0 34 16t11 39t-11 39t-34 16t-34 -16t-11 -39t11 -39t34 -16z" />
    <glyph glyph-name="uni2117" unicode="&#x2117;" horiz-adv-x="800" 
d="M400 -10q-79 0 -145 26.5t-114 74.5t-74.5 114t-26.5 145t26.5 145t74.5 114t114 74.5t145 26.5t145 -26.5t114 -74.5t74.5 -114t26.5 -145t-26.5 -145t-74.5 -114t-114 -74.5t-145 -26.5zM400 95q54 0 100 18t79.5 51.5t52 80.5t18.5 105t-18.5 105t-52 80.5t-79.5 51.5
t-100 18t-100 -18t-79.5 -51.5t-52 -80.5t-18.5 -105t18.5 -105t52 -80.5t79.5 -51.5t100 -18zM260 540h160q71 0 105.5 -37t34.5 -93t-34.5 -93t-105.5 -37h-55v-115h-105v375zM410 375q15 0 30 6t15 29t-15 29t-30 6h-45v-70h45z" />
    <glyph glyph-name="trademark" unicode="&#x2122;" horiz-adv-x="750" 
d="M100 600h-90v100h285v-100h-90v-210h-105v210zM325 700h148l42 -145h5l42 145h148v-310h-105v146h-5l-40 -146h-85l-40 146h-5v-146h-105v310z" />
    <glyph glyph-name="uni2126" unicode="&#x2126;" horiz-adv-x="830" 
d="M90 105h100l-20 15t-44.5 47.5t-45 85t-20.5 127.5q0 71 25 131.5t71.5 104.5t112 69t146.5 25t146.5 -25t112 -69t71.5 -104.5t25 -131.5q0 -75 -20.5 -127.5t-45 -85t-44.5 -47.5l-20 -15h100v-105h-260v105q47 21 85 57q16 15 31 35t27 45t19.5 55.5t7.5 67.5
q0 47 -15 90.5t-44.5 76.5t-73.5 53t-102 20t-102 -20t-73.5 -53t-44.5 -76.5t-15 -90.5q0 -37 7 -67.5t19 -55.5t27.5 -45t31.5 -35q37 -36 85 -57v-105h-260v105z" />
    <glyph glyph-name="estimated" unicode="&#x212e;" horiz-adv-x="850" 
d="M440 -20q-83 0 -152.5 28t-120 77t-79 114.5t-28.5 140.5t28.5 140.5t78 114.5t117 77t146.5 28t146.5 -28t117 -77t78 -114.5t28.5 -140.5v-5h-576q-14 0 -14 -15v-197q0 -5 0.5 -12t4 -16t12 -18.5t23.5 -19.5q4 -2 17.5 -10.5t37.5 -17.5t57.5 -16.5t77.5 -7.5
q66 0 115 20.5t83 46.5q39 30 67 68h55q-33 -45 -81 -80q-41 -30 -100.5 -55t-138.5 -25zM636 360q14 0 14 15v185q0 5 -0.5 12t-4 16t-12 18.5t-23.5 19.5q-6 3 -21.5 11.5t-39 16.5t-53.5 14.5t-66 6.5t-66 -6.5t-53.5 -14.5t-39 -16.5t-21.5 -11.5q-15 -10 -23.5 -19.5
t-12 -18.5t-4 -16t-0.5 -12v-185q0 -15 14 -15h412z" />
    <glyph glyph-name="uni2150" unicode="&#x2150;" horiz-adv-x="790" 
d="M515 700h105l-435 -700h-105zM110 550h-90v95h65q25 0 25 25v30h105v-400h-105v250zM640 304h-170v95h280v-95l-138 -305h-110z" />
    <glyph glyph-name="uni2151" unicode="&#x2151;" horiz-adv-x="785" 
d="M515 700h105l-435 -700h-105zM110 550h-90v95h65q25 0 25 25v30h105v-400h-105v250zM595 121q-39 0 -68.5 11t-50 30t-31 43.5t-10.5 50.5q0 68 42.5 109t117.5 41q41 0 71.5 -12.5t50 -33.5t29 -49t9.5 -60q0 -38 -13 -67.5t-27 -52.5l-85 -130h-118zM595 211
q26 0 40.5 13.5t14.5 36.5t-14.5 36.5t-40.5 13.5t-40.5 -13.5t-14.5 -36.5t14.5 -36.5t40.5 -13.5z" />
    <glyph glyph-name="uni2152" unicode="&#x2152;" horiz-adv-x="1080" 
d="M515 700h105l-435 -700h-105zM110 550h-90v95h65q25 0 25 25v30h105v-400h-105v250zM548 250h-90v95h65q25 0 25 25v30h105v-400h-105v250zM865 -5q-39 0 -71 13.5t-55 40t-36 64.5t-13 87t13 87t36 64t55 40t71 14t71 -14t55 -40t36 -64t13 -87t-13 -87t-36 -64.5
t-55 -40t-71 -13.5zM865 90q36 0 53 30.5t17 79.5t-17 79.5t-53 30.5t-53 -30.5t-17 -79.5t17 -79.5t53 -30.5z" />
    <glyph glyph-name="onethird" unicode="&#x2153;" horiz-adv-x="800" 
d="M515 700h105l-435 -700h-105zM110 550h-90v95h65q25 0 25 25v30h105v-400h-105v250zM610 -5q-83 0 -121.5 34t-38.5 91h110q0 -9 11 -19.5t34 -10.5q19 0 32 10t13 25t-11 25t-34 10h-25v90h25q23 0 31.5 11t8.5 19q0 11 -10.5 20.5t-29.5 9.5q-23 0 -34 -10t-11 -25
h-110q0 64 40 97t115 33q39 0 67.5 -9.5t47 -25t27 -35t8.5 -40.5q0 -19 -6 -33t-15 -24.5t-19.5 -17t-19.5 -10.5q30 -11 47.5 -33.5t17.5 -56.5q0 -17 -6.5 -38.5t-23.5 -41t-46 -32.5t-74 -13z" />
    <glyph glyph-name="twothirds" unicode="&#x2154;" horiz-adv-x="874" 
d="M589 700h105l-435 -700h-105zM20 395l135 120q19 17 32 31.5t13 33.5q0 15 -10 22.5t-25 7.5q-19 0 -27 -10t-8 -25h-110q0 60 35.5 95t114.5 35q36 0 62 -9.5t43.5 -26t26 -38.5t8.5 -46q0 -38 -18 -67.5t-50 -58.5l-77 -64h140v-95h-285v95zM684 -5q-83 0 -121.5 34
t-38.5 91h110q0 -9 11 -19.5t34 -10.5q19 0 32 10t13 25t-11 25t-34 10h-25v90h25q23 0 31.5 11t8.5 19q0 11 -10.5 20.5t-29.5 9.5q-23 0 -34 -10t-11 -25h-110q0 64 40 97t115 33q39 0 67.5 -9.5t47 -25t27 -35t8.5 -40.5q0 -19 -6 -33t-15 -24.5t-19.5 -17t-19.5 -10.5
q30 -11 47.5 -33.5t17.5 -56.5q0 -17 -6.5 -38.5t-23.5 -41t-46 -32.5t-74 -13z" />
    <glyph glyph-name="uni2155" unicode="&#x2155;" horiz-adv-x="810" 
d="M515 700h105l-435 -700h-105zM110 550h-90v95h65q25 0 25 25v30h105v-400h-105v250zM610 -5q-72 0 -114 36.5t-46 93.5h110q2 -15 14.5 -25t35.5 -10q26 0 40.5 13.5t14.5 36.5q0 26 -16 38t-39 12t-34 -8.5t-16 -16.5h-105l28 235h267v-95h-183l-6 -50h5q7 3 17 7
q8 3 20 5.5t27 2.5q60 0 100 -33t40 -97q0 -30 -10 -56.5t-30.5 -46t-50.5 -31t-69 -11.5z" />
    <glyph glyph-name="uni2156" unicode="&#x2156;" horiz-adv-x="884" 
d="M589 700h105l-435 -700h-105zM20 395l135 120q19 17 32 31.5t13 33.5q0 15 -10 22.5t-25 7.5q-19 0 -27 -10t-8 -25h-110q0 60 35.5 95t114.5 35q36 0 62 -9.5t43.5 -26t26 -38.5t8.5 -46q0 -38 -18 -67.5t-50 -58.5l-77 -64h140v-95h-285v95zM684 -5q-72 0 -114 36.5
t-46 93.5h110q2 -15 14.5 -25t35.5 -10q26 0 40.5 13.5t14.5 36.5q0 26 -16 38t-39 12t-34 -8.5t-16 -16.5h-105l28 235h267v-95h-183l-6 -50h5q7 3 17 7q8 3 20 5.5t27 2.5q60 0 100 -33t40 -97q0 -30 -10 -56.5t-30.5 -46t-50.5 -31t-69 -11.5z" />
    <glyph glyph-name="uni2157" unicode="&#x2157;" horiz-adv-x="893" 
d="M598 700h105l-435 -700h-105zM180 295q-83 0 -121.5 34t-38.5 91h110q0 -9 11 -19.5t34 -10.5q19 0 32 10t13 25t-11 25t-34 10h-25v90h25q23 0 31.5 11t8.5 19q0 11 -10.5 20.5t-29.5 9.5q-23 0 -34 -10t-11 -25h-110q0 64 40 97t115 33q39 0 67.5 -9.5t47 -25t27 -35
t8.5 -40.5q0 -19 -6 -33t-15 -24.5t-19.5 -17t-19.5 -10.5q30 -11 47.5 -33.5t17.5 -56.5q0 -17 -6.5 -38.5t-23.5 -41t-46 -32.5t-74 -13zM693 -5q-72 0 -114 36.5t-46 93.5h110q2 -15 14.5 -25t35.5 -10q26 0 40.5 13.5t14.5 36.5q0 26 -16 38t-39 12t-34 -8.5t-16 -16.5
h-105l28 235h267v-95h-183l-6 -50h5q7 3 17 7q8 3 20 5.5t27 2.5q60 0 100 -33t40 -97q0 -30 -10 -56.5t-30.5 -46t-50.5 -31t-69 -11.5z" />
    <glyph glyph-name="uni2158" unicode="&#x2158;" horiz-adv-x="908" 
d="M613 700h105l-435 -700h-105zM185 380h-175v95l160 225h120v-225h60v-95h-60v-80h-105v80zM185 475v95l-65 -95h65zM708 -5q-72 0 -114 36.5t-46 93.5h110q2 -15 14.5 -25t35.5 -10q26 0 40.5 13.5t14.5 36.5q0 26 -16 38t-39 12t-34 -8.5t-16 -16.5h-105l28 235h267v-95
h-183l-6 -50h5q7 3 17 7q8 3 20 5.5t27 2.5q60 0 100 -33t40 -97q0 -30 -10 -56.5t-30.5 -46t-50.5 -31t-69 -11.5z" />
    <glyph glyph-name="uni2159" unicode="&#x2159;" horiz-adv-x="775" 
d="M515 700h105l-435 -700h-105zM110 550h-90v95h65q25 0 25 25v30h105v-400h-105v250zM585 -5q-41 0 -71.5 12.5t-50 33.5t-29 49t-9.5 60q0 38 13 67.5t27 52.5l85 130h118l-83 -120q39 0 68.5 -11.5t50 -30t31 -43t10.5 -50.5q0 -68 -42.5 -109t-117.5 -41zM585 90
q26 0 40.5 13.5t14.5 36.5t-14.5 36.5t-40.5 13.5t-40.5 -13.5t-14.5 -36.5t14.5 -36.5t40.5 -13.5z" />
    <glyph glyph-name="uni215A" unicode="&#x215a;" horiz-adv-x="880" 
d="M620 700h105l-435 -700h-105zM190 295q-72 0 -114 36.5t-46 93.5h110q2 -15 14.5 -25t35.5 -10q26 0 40.5 13.5t14.5 36.5q0 26 -16 38t-39 12t-34 -8.5t-16 -16.5h-105l28 235h267v-95h-183l-6 -50h5q7 3 17 7q8 3 20 5.5t27 2.5q60 0 100 -33t40 -97q0 -30 -10 -56.5
t-30.5 -46t-50.5 -31t-69 -11.5zM690 -5q-41 0 -71.5 12.5t-50 33.5t-29 49t-9.5 60q0 38 13 67.5t27 52.5l85 130h118l-83 -120q39 0 68.5 -11.5t50 -30t31 -43t10.5 -50.5q0 -68 -42.5 -109t-117.5 -41zM690 90q26 0 40.5 13.5t14.5 36.5t-14.5 36.5t-40.5 13.5
t-40.5 -13.5t-14.5 -36.5t14.5 -36.5t40.5 -13.5z" />
    <glyph glyph-name="oneeighth" unicode="&#x215b;" horiz-adv-x="800" 
d="M515 700h105l-435 -700h-105zM110 550h-90v95h65q25 0 25 25v30h105v-400h-105v250zM605 -5q-68 0 -111.5 32.5t-43.5 92.5q0 26 13 51t47 44q-23 11 -36.5 32.5t-13.5 47.5q0 45 35 77.5t110 32.5t110 -32.5t35 -77.5q0 -26 -13.5 -47.5t-36.5 -32.5q34 -19 47 -44
t13 -51q0 -60 -43.5 -92.5t-111.5 -32.5zM605 85q26 0 38 12.5t12 27.5t-12 27.5t-38 12.5t-38 -12.5t-12 -27.5t12 -27.5t38 -12.5zM605 245q26 0 35.5 12t9.5 23t-9.5 23t-35.5 12t-35.5 -12t-9.5 -23t9.5 -23t35.5 -12z" />
    <glyph glyph-name="threeeighths" unicode="&#x215c;" horiz-adv-x="883" 
d="M598 700h105l-435 -700h-105zM180 295q-83 0 -121.5 34t-38.5 91h110q0 -9 11 -19.5t34 -10.5q19 0 32 10t13 25t-11 25t-34 10h-25v90h25q23 0 31.5 11t8.5 19q0 11 -10.5 20.5t-29.5 9.5q-23 0 -34 -10t-11 -25h-110q0 64 40 97t115 33q39 0 67.5 -9.5t47 -25t27 -35
t8.5 -40.5q0 -19 -6 -33t-15 -24.5t-19.5 -17t-19.5 -10.5q30 -11 47.5 -33.5t17.5 -56.5q0 -17 -6.5 -38.5t-23.5 -41t-46 -32.5t-74 -13zM688 -5q-68 0 -111.5 32.5t-43.5 92.5q0 26 13 51t47 44q-23 11 -36.5 32.5t-13.5 47.5q0 45 35 77.5t110 32.5t110 -32.5t35 -77.5
q0 -26 -13.5 -47.5t-36.5 -32.5q34 -19 47 -44t13 -51q0 -60 -43.5 -92.5t-111.5 -32.5zM688 85q26 0 38 12.5t12 27.5t-12 27.5t-38 12.5t-38 -12.5t-12 -27.5t12 -27.5t38 -12.5zM688 245q26 0 35.5 12t9.5 23t-9.5 23t-35.5 12t-35.5 -12t-9.5 -23t9.5 -23t35.5 -12z" />
    <glyph glyph-name="fiveeighths" unicode="&#x215d;" horiz-adv-x="905" 
d="M620 700h105l-435 -700h-105zM190 295q-72 0 -114 36.5t-46 93.5h110q2 -15 14.5 -25t35.5 -10q26 0 40.5 13.5t14.5 36.5q0 26 -16 38t-39 12t-34 -8.5t-16 -16.5h-105l28 235h267v-95h-183l-6 -50h5q7 3 17 7q8 3 20 5.5t27 2.5q60 0 100 -33t40 -97q0 -30 -10 -56.5
t-30.5 -46t-50.5 -31t-69 -11.5zM710 -5q-68 0 -111.5 32.5t-43.5 92.5q0 26 13 51t47 44q-23 11 -36.5 32.5t-13.5 47.5q0 45 35 77.5t110 32.5t110 -32.5t35 -77.5q0 -26 -13.5 -47.5t-36.5 -32.5q34 -19 47 -44t13 -51q0 -60 -43.5 -92.5t-111.5 -32.5zM710 85
q26 0 38 12.5t12 27.5t-12 27.5t-38 12.5t-38 -12.5t-12 -27.5t12 -27.5t38 -12.5zM710 245q26 0 35.5 12t9.5 23t-9.5 23t-35.5 12t-35.5 -12t-9.5 -23t9.5 -23t35.5 -12z" />
    <glyph glyph-name="seveneighths" unicode="&#x215e;" horiz-adv-x="804" 
d="M519 700h105l-435 -700h-105zM200 605h-170v95h280v-95l-138 -305h-110zM609 -5q-68 0 -111.5 32.5t-43.5 92.5q0 26 13 51t47 44q-23 11 -36.5 32.5t-13.5 47.5q0 45 35 77.5t110 32.5t110 -32.5t35 -77.5q0 -26 -13.5 -47.5t-36.5 -32.5q34 -19 47 -44t13 -51
q0 -60 -43.5 -92.5t-111.5 -32.5zM609 85q26 0 38 12.5t12 27.5t-12 27.5t-38 12.5t-38 -12.5t-12 -27.5t12 -27.5t38 -12.5zM609 245q26 0 35.5 12t9.5 23t-9.5 23t-35.5 12t-35.5 -12t-9.5 -23t9.5 -23t35.5 -12z" />
    <glyph glyph-name="uni215F" unicode="&#x215f;" horiz-adv-x="440" 
d="M515 700h105l-435 -700h-105zM110 550h-90v95h65q25 0 25 25v30h105v-400h-105v250z" />
    <glyph glyph-name="uni2190" unicode="&#x2190;" 
d="M150 345v5l215 215l75 -75l-90 -90h500v-105h-500l90 -90l-75 -75z" />
    <glyph glyph-name="uni2191" unicode="&#x2191;" 
d="M445 500l-90 -90l-75 75l215 215h5l215 -215l-75 -75l-90 90v-500h-105v500z" />
    <glyph glyph-name="uni2192" unicode="&#x2192;" 
d="M560 205l90 90h-500v105h500l-90 90l75 75l215 -215v-5l-215 -215z" />
    <glyph glyph-name="uni2193" unicode="&#x2193;" 
d="M280 215l75 75l90 -90v500h105v-500l90 90l75 -75l-215 -215h-5z" />
    <glyph glyph-name="uni2194" unicode="&#x2194;" 
d="M130 345v5l215 215l75 -75l-90 -90h340l-90 90l75 75l215 -215v-5l-215 -215l-75 75l90 90h-340l90 -90l-75 -75z" />
    <glyph glyph-name="uni2195" unicode="&#x2195;" 
d="M280 195l75 75l90 -90v340l-90 -90l-75 75l215 215h5l215 -215l-75 -75l-90 90v-340l90 90l75 -75l-215 -215h-5z" />
    <glyph glyph-name="uni2196" unicode="&#x2196;" 
d="M305 470v-130h-105v300l10 10h300v-105h-130l420 -420l-75 -75z" />
    <glyph glyph-name="uni2197" unicode="&#x2197;" 
d="M200 125l420 420h-130v105h300l10 -10v-300h-105v130l-420 -420z" />
    <glyph glyph-name="uni2198" unicode="&#x2198;" 
d="M490 155h130l-420 420l75 75l420 -420v130h105v-300l-10 -10h-300v105z" />
    <glyph glyph-name="uni2199" unicode="&#x2199;" 
d="M200 60v300h105v-130l420 420l75 -75l-420 -420h130v-105h-300z" />
    <glyph glyph-name="uni21C5" unicode="&#x21c5;" 
d="M280 500l-90 -90l-75 75l215 215h5l215 -215l-75 -75l-90 90v-500h-105v500zM450 215l75 75l90 -90v500h105v-500l90 90l75 -75l-215 -215h-5z" />
    <glyph glyph-name="uni21F5" unicode="&#x21f5;" 
d="M115 215l75 75l90 -90v500h105v-500l90 90l75 -75l-215 -215h-5zM615 500l-90 -90l-75 75l215 215h5l215 -215l-75 -75l-90 90v-500h-105v500z" />
    <glyph glyph-name="partialdiff" unicode="&#x2202;" horiz-adv-x="580" 
d="M275 -10q-113 0 -174 63t-61 176q0 51 15.5 93t44 73t69 48t91.5 17q45 0 84.5 -12.5t73.5 -42.5h5q0 45 -11 82.5t-31 65t-47 42.5t-59 15q-34 0 -58.5 -16t-35.5 -39h-111q6 26 19.5 53.5t38 50t60.5 37t87 14.5q58 0 105 -22.5t80.5 -67.5t51.5 -112.5t18 -157.5
q0 -75 -12.5 -140.5t-42 -114.5t-78.5 -77t-122 -28zM275 92q28 0 54.5 11t46.5 34t32 58.5t12 84.5q-14 21 -34 39q-17 14 -44 26.5t-62 12.5q-28 0 -52.5 -8t-43 -24.5t-29 -40.5t-10.5 -56q0 -64 36.5 -100.5t93.5 -36.5z" />
    <glyph glyph-name="emptyset" unicode="&#x2205;" horiz-adv-x="820" 
d="M410 -10q-57 0 -105.5 12.5t-88.5 35.5l-36 -43h-140l94 112q-38 46 -58.5 107t-20.5 136q0 82 25 148.5t71.5 113.5t112 72.5t146.5 25.5q56 0 104.5 -12.5t89.5 -35.5l36 43h140l-95 -112q38 -47 59 -107.5t21 -135.5q0 -82 -25 -148.5t-71.5 -113.5t-112 -72.5
t-146.5 -25.5zM535 581q-55 29 -125 29q-54 0 -99.5 -17.5t-77.5 -50.5t-50 -81.5t-18 -110.5q0 -48 10.5 -87.5t30.5 -70.5zM410 90q54 0 99.5 17.5t77.5 50.5t50 81.5t18 110.5q0 93 -42 158l-329 -389q52 -29 126 -29z" />
    <glyph glyph-name="uni2206" unicode="&#x2206;" horiz-adv-x="650" 
d="M250 700h150l250 -700h-650zM495 105l-170 475l-170 -475h340z" />
    <glyph glyph-name="product" unicode="&#x220f;" horiz-adv-x="705" 
d="M80 700h545v-810h-120v700h-305v-700h-120v810z" />
    <glyph glyph-name="summation" unicode="&#x2211;" horiz-adv-x="600" 
d="M60 -5l210 320l-210 280v105h490v-110h-350l205 -275l-210 -315h355v-110h-490v105z" />
    <glyph glyph-name="minus" unicode="&#x2212;" horiz-adv-x="550" 
d="M30 385h490v-140h-490v140z" />
    <glyph glyph-name="radical" unicode="&#x221a;" horiz-adv-x="675" 
d="M130 130h-115v105h200l80 -240h16l219 730h120l-250 -835h-190z" />
    <glyph glyph-name="infinity" unicode="&#x221e;" horiz-adv-x="800" 
d="M225 174q-45 0 -79.5 13.5t-58 37t-35.5 55.5t-12 70q0 37 12 69.5t35.5 56t58 37t79.5 13.5q28 0 54 -9.5t48.5 -24t41 -32.5t31.5 -35q13 17 31.5 35t41 32.5t48.5 24t54 9.5q45 0 79.5 -13.5t58 -37t35.5 -56t12 -69.5q0 -38 -12 -70t-35.5 -55.5t-58 -37t-79.5 -13.5
q-28 0 -54 9.5t-48.5 24t-41 32t-31.5 34.5q-13 -17 -31.5 -34.5t-41 -32t-48.5 -24t-54 -9.5zM225 276q34 0 63 19.5t52 54.5q-23 34 -52 54t-63 20q-21 0 -36 -6.5t-24.5 -17t-14.5 -24t-5 -26.5t5 -26.5t14.5 -24t24.5 -17t36 -6.5zM575 276q21 0 36 6.5t24.5 17t14.5 24
t5 26.5t-5 26.5t-14.5 24t-24.5 17t-36 6.5q-34 0 -63 -20t-52 -54q23 -35 52 -54.5t63 -19.5z" />
    <glyph glyph-name="integral" unicode="&#x222b;" horiz-adv-x="405" 
d="M40 -5h15q28 0 45.5 7t27.5 21.5t13.5 37t3.5 54.5v470q0 64 9.5 107t32 69t60 37.5t93.5 11.5h25v-105h-15q-28 0 -45.5 -7t-27.5 -21.5t-13.5 -37t-3.5 -54.5v-470q0 -64 -9.5 -107t-32 -69.5t-60 -37.5t-93.5 -11h-25v105z" />
    <glyph glyph-name="approxequal" unicode="&#x2248;" horiz-adv-x="626" 
d="M40 85q0 37 11 73t33 64.5t55 45.5t76 17q28 0 50.5 -6.5t41 -14t35 -13.5t33.5 -6q18 0 32 8.5t18 31.5h161q0 -38 -11 -73.5t-33 -64t-55 -45.5t-76 -17q-28 0 -50.5 6t-41.5 13.5t-35.5 14t-33.5 6.5q-19 0 -32.5 -8.5t-17.5 -31.5h-160zM40 315q0 37 11 73t33 64.5
t55 45.5t76 17q28 0 50.5 -6.5t41 -14t35 -13.5t33.5 -6q18 0 32 8.5t18 31.5h161q0 -38 -11 -73.5t-33 -64t-55 -45.5t-76 -17q-28 0 -50.5 6t-41.5 13.5t-35.5 14t-33.5 6.5q-19 0 -32.5 -8.5t-17.5 -31.5h-160z" />
    <glyph glyph-name="notequal" unicode="&#x2260;" horiz-adv-x="550" 
d="M122 125h-92v140h154l43 95h-197v140h259l29 65h139l-29 -65h92v-140h-154l-43 -95h197v-140h-259l-29 -65h-139z" />
    <glyph glyph-name="lessequal" unicode="&#x2264;" horiz-adv-x="500" 
d="M25 130h450v-130h-450v130zM25 315v130l450 175v-145l-265 -95l265 -95v-145z" />
    <glyph glyph-name="greaterequal" unicode="&#x2265;" horiz-adv-x="500" 
d="M25 130h450v-130h-450v130zM25 285l265 95l-265 95v145l450 -175v-130l-450 -175v145z" />
    <glyph glyph-name="uni2318" unicode="&#x2318;" horiz-adv-x="820" 
d="M205 0q-39 0 -68.5 13t-48.5 34t-28.5 48t-9.5 55q0 32 11 59.5t32 47.5t51.5 31.5t69.5 11.5h54v100h-54q-39 0 -69.5 11.5t-51.5 31.5t-32 47.5t-11 59.5q0 28 9.5 55t28.5 48t48.5 34t68.5 13t68.5 -12.5t48.5 -34t28.5 -50.5t9.5 -63v-53h100v53q0 34 9.5 63
t28.5 50.5t48.5 34t68.5 12.5t68.5 -13t48.5 -34t28.5 -48t9.5 -55q0 -32 -11 -59.5t-32 -47.5t-51.5 -31.5t-69.5 -11.5h-54v-100h54q39 0 69.5 -11.5t51.5 -31.5t32 -47.5t11 -59.5q0 -28 -9.5 -55t-28.5 -48t-48.5 -34t-68.5 -13t-68.5 12.5t-48.5 34t-28.5 50.5t-9.5 63
v53h-100v-53q0 -34 -9.5 -63t-28.5 -50.5t-48.5 -34t-68.5 -12.5zM210 98q28 0 43 18t15 44v53h-54q-29 0 -45 -17.5t-16 -40.5q0 -26 15.5 -41.5t41.5 -15.5zM460 300v100h-100v-100h100zM268 487v53q0 26 -15 44t-43 18q-26 0 -41.5 -15.5t-15.5 -41.5q0 -23 16 -40.5
t45 -17.5h54zM610 98q26 0 41.5 15.5t15.5 41.5q0 23 -16 40.5t-45 17.5h-54v-53q0 -26 15 -44t43 -18zM606 487q29 0 45 17.5t16 40.5q0 26 -15.5 41.5t-41.5 15.5q-28 0 -43 -18t-15 -44v-53h54z" />
    <glyph glyph-name="uni2460" unicode="&#x2460;" 
d="M460 400h-90v95h65q25 0 25 25v30h105v-400h-105v250zM500 -90q-92 0 -172 34.5t-139.5 94t-94 139.5t-34.5 172t34.5 172t94 139.5t139.5 94t172 34.5t172 -34.5t139.5 -94t94 -139.5t34.5 -172t-34.5 -172t-94 -139.5t-139.5 -94t-172 -34.5zM500 -5q75 0 140 27
t112.5 75t75 113t27.5 140t-27.5 140t-75 112.5t-112.5 75t-140 27.5t-140 -27.5t-112.5 -75t-75 -112.5t-27.5 -140t27.5 -140t75 -112.5t112.5 -75t140 -27.5z" />
    <glyph glyph-name="uni2461" unicode="&#x2461;" 
d="M360 245l135 120q19 17 32 31.5t13 33.5q0 15 -10 22.5t-25 7.5q-19 0 -27 -10t-8 -25h-110q0 60 35.5 95t114.5 35q36 0 62 -9.5t43.5 -26t26 -38.5t8.5 -46q0 -38 -18 -67.5t-50 -58.5l-77 -64h140v-95h-285v95zM500 -90q-92 0 -172 34.5t-139.5 94t-94 139.5
t-34.5 172t34.5 172t94 139.5t139.5 94t172 34.5t172 -34.5t139.5 -94t94 -139.5t34.5 -172t-34.5 -172t-94 -139.5t-139.5 -94t-172 -34.5zM500 -5q75 0 140 27t112.5 75t75 113t27.5 140t-27.5 140t-75 112.5t-112.5 75t-140 27.5t-140 -27.5t-112.5 -75t-75 -112.5
t-27.5 -140t27.5 -140t75 -112.5t112.5 -75t140 -27.5z" />
    <glyph glyph-name="uni2462" unicode="&#x2462;" 
d="M510 145q-83 0 -121.5 34t-38.5 91h110q0 -9 11 -19.5t34 -10.5q19 0 32 10t13 25t-11 25t-34 10h-25v90h25q23 0 31.5 11t8.5 19q0 11 -10.5 20.5t-29.5 9.5q-23 0 -34 -10t-11 -25h-110q0 64 40 97t115 33q39 0 67.5 -9.5t47 -25t27 -35t8.5 -40.5q0 -19 -6 -33
t-15 -24.5t-19.5 -17t-19.5 -10.5q30 -11 47.5 -33.5t17.5 -56.5q0 -17 -6.5 -38.5t-23.5 -41t-46 -32.5t-74 -13zM500 -90q-92 0 -172 34.5t-139.5 94t-94 139.5t-34.5 172t34.5 172t94 139.5t139.5 94t172 34.5t172 -34.5t139.5 -94t94 -139.5t34.5 -172t-34.5 -172
t-94 -139.5t-139.5 -94t-172 -34.5zM500 -5q75 0 140 27t112.5 75t75 113t27.5 140t-27.5 140t-75 112.5t-112.5 75t-140 27.5t-140 -27.5t-112.5 -75t-75 -112.5t-27.5 -140t27.5 -140t75 -112.5t112.5 -75t140 -27.5z" />
    <glyph glyph-name="uni2463" unicode="&#x2463;" 
d="M490 230h-175v95l160 225h120v-225h60v-95h-60v-80h-105v80zM490 325v95l-65 -95h65zM500 -90q-92 0 -172 34.5t-139.5 94t-94 139.5t-34.5 172t34.5 172t94 139.5t139.5 94t172 34.5t172 -34.5t139.5 -94t94 -139.5t34.5 -172t-34.5 -172t-94 -139.5t-139.5 -94
t-172 -34.5zM500 -5q75 0 140 27t112.5 75t75 113t27.5 140t-27.5 140t-75 112.5t-112.5 75t-140 27.5t-140 -27.5t-112.5 -75t-75 -112.5t-27.5 -140t27.5 -140t75 -112.5t112.5 -75t140 -27.5z" />
    <glyph glyph-name="uni2464" unicode="&#x2464;" 
d="M505 145q-72 0 -114 36.5t-46 93.5h110q2 -15 14.5 -25t35.5 -10q26 0 40.5 13.5t14.5 36.5q0 26 -16 38t-39 12t-34 -8.5t-16 -16.5h-105l28 235h267v-95h-183l-6 -50h5q7 3 17 7q8 3 20 5.5t27 2.5q60 0 100 -33t40 -97q0 -30 -10 -56.5t-30.5 -46t-50.5 -31t-69 -11.5
zM500 -90q-92 0 -172 34.5t-139.5 94t-94 139.5t-34.5 172t34.5 172t94 139.5t139.5 94t172 34.5t172 -34.5t139.5 -94t94 -139.5t34.5 -172t-34.5 -172t-94 -139.5t-139.5 -94t-172 -34.5zM500 -5q75 0 140 27t112.5 75t75 113t27.5 140t-27.5 140t-75 112.5t-112.5 75
t-140 27.5t-140 -27.5t-112.5 -75t-75 -112.5t-27.5 -140t27.5 -140t75 -112.5t112.5 -75t140 -27.5z" />
    <glyph glyph-name="uni2465" unicode="&#x2465;" 
d="M500 145q-41 0 -71.5 12.5t-50 33.5t-29 49t-9.5 60q0 38 13 67.5t27 52.5l85 130h118l-83 -120q39 0 68.5 -11.5t50 -30t31 -43t10.5 -50.5q0 -68 -42.5 -109t-117.5 -41zM500 240q26 0 40.5 13.5t14.5 36.5t-14.5 36.5t-40.5 13.5t-40.5 -13.5t-14.5 -36.5t14.5 -36.5
t40.5 -13.5zM500 -90q-92 0 -172 34.5t-139.5 94t-94 139.5t-34.5 172t34.5 172t94 139.5t139.5 94t172 34.5t172 -34.5t139.5 -94t94 -139.5t34.5 -172t-34.5 -172t-94 -139.5t-139.5 -94t-172 -34.5zM500 -5q75 0 140 27t112.5 75t75 113t27.5 140t-27.5 140t-75 112.5
t-112.5 75t-140 27.5t-140 -27.5t-112.5 -75t-75 -112.5t-27.5 -140t27.5 -140t75 -112.5t112.5 -75t140 -27.5z" />
    <glyph glyph-name="uni2466" unicode="&#x2466;" 
d="M535 455h-170v95h280v-95l-138 -305h-110zM500 -90q-92 0 -172 34.5t-139.5 94t-94 139.5t-34.5 172t34.5 172t94 139.5t139.5 94t172 34.5t172 -34.5t139.5 -94t94 -139.5t34.5 -172t-34.5 -172t-94 -139.5t-139.5 -94t-172 -34.5zM500 -5q75 0 140 27t112.5 75t75 113
t27.5 140t-27.5 140t-75 112.5t-112.5 75t-140 27.5t-140 -27.5t-112.5 -75t-75 -112.5t-27.5 -140t27.5 -140t75 -112.5t112.5 -75t140 -27.5z" />
    <glyph glyph-name="uni2467" unicode="&#x2467;" 
d="M500 145q-68 0 -111.5 32.5t-43.5 92.5q0 26 13 51t47 44q-23 11 -36.5 32.5t-13.5 47.5q0 45 35 77.5t110 32.5t110 -32.5t35 -77.5q0 -26 -13.5 -47.5t-36.5 -32.5q34 -19 47 -44t13 -51q0 -60 -43.5 -92.5t-111.5 -32.5zM500 235q26 0 38 12.5t12 27.5t-12 27.5
t-38 12.5t-38 -12.5t-12 -27.5t12 -27.5t38 -12.5zM500 395q26 0 35.5 12t9.5 23t-9.5 23t-35.5 12t-35.5 -12t-9.5 -23t9.5 -23t35.5 -12zM500 -90q-92 0 -172 34.5t-139.5 94t-94 139.5t-34.5 172t34.5 172t94 139.5t139.5 94t172 34.5t172 -34.5t139.5 -94t94 -139.5
t34.5 -172t-34.5 -172t-94 -139.5t-139.5 -94t-172 -34.5zM500 -5q75 0 140 27t112.5 75t75 113t27.5 140t-27.5 140t-75 112.5t-112.5 75t-140 27.5t-140 -27.5t-112.5 -75t-75 -112.5t-27.5 -140t27.5 -140t75 -112.5t112.5 -75t140 -27.5z" />
    <glyph glyph-name="uni2468" unicode="&#x2468;" 
d="M500 270q-39 0 -68.5 11t-50 30t-31 43.5t-10.5 50.5q0 68 42.5 109t117.5 41q41 0 71.5 -12.5t50 -33.5t29 -49t9.5 -60q0 -38 -13 -67.5t-27 -52.5l-85 -130h-118zM500 360q26 0 40.5 13.5t14.5 36.5t-14.5 36.5t-40.5 13.5t-40.5 -13.5t-14.5 -36.5t14.5 -36.5
t40.5 -13.5zM500 -90q-92 0 -172 34.5t-139.5 94t-94 139.5t-34.5 172t34.5 172t94 139.5t139.5 94t172 34.5t172 -34.5t139.5 -94t94 -139.5t34.5 -172t-34.5 -172t-94 -139.5t-139.5 -94t-172 -34.5zM500 -5q75 0 140 27t112.5 75t75 113t27.5 140t-27.5 140t-75 112.5
t-112.5 75t-140 27.5t-140 -27.5t-112.5 -75t-75 -112.5t-27.5 -140t27.5 -140t75 -112.5t112.5 -75t140 -27.5z" />
    <glyph glyph-name="uni2469" unicode="&#x2469;" 
d="M300 400h-90v95h65q25 0 25 25v30h105v-400h-105v250zM615 145q-39 0 -71 13.5t-55 40t-36 64.5t-13 87t13 87t36 64t55 40t71 14t71 -14t55 -40t36 -64t13 -87t-13 -87t-36 -64.5t-55 -40t-71 -13.5zM615 240q36 0 53 30.5t17 79.5t-17 79.5t-53 30.5t-53 -30.5
t-17 -79.5t17 -79.5t53 -30.5zM500 -90q-92 0 -172 34.5t-139.5 94t-94 139.5t-34.5 172t34.5 172t94 139.5t139.5 94t172 34.5t172 -34.5t139.5 -94t94 -139.5t34.5 -172t-34.5 -172t-94 -139.5t-139.5 -94t-172 -34.5zM500 -5q75 0 140 27t112.5 75t75 113t27.5 140
t-27.5 140t-75 112.5t-112.5 75t-140 27.5t-140 -27.5t-112.5 -75t-75 -112.5t-27.5 -140t27.5 -140t75 -112.5t112.5 -75t140 -27.5z" />
    <glyph glyph-name="uni246A" unicode="&#x246a;" 
d="M345 400h-90v95h65q25 0 25 25v30h105v-400h-105v250zM585 400h-90v95h65q25 0 25 25v30h105v-400h-105v250zM500 -90q-92 0 -172 34.5t-139.5 94t-94 139.5t-34.5 172t34.5 172t94 139.5t139.5 94t172 34.5t172 -34.5t139.5 -94t94 -139.5t34.5 -172t-34.5 -172
t-94 -139.5t-139.5 -94t-172 -34.5zM500 -5q75 0 140 27t112.5 75t75 113t27.5 140t-27.5 140t-75 112.5t-112.5 75t-140 27.5t-140 -27.5t-112.5 -75t-75 -112.5t-27.5 -140t27.5 -140t75 -112.5t112.5 -75t140 -27.5z" />
    <glyph glyph-name="uni246B" unicode="&#x246b;" 
d="M310 400h-90v95h65q25 0 25 25v30h105v-400h-105v250zM460 245l135 120q19 17 32 31.5t13 33.5q0 15 -10 22.5t-25 7.5q-19 0 -27 -10t-8 -25h-110q0 60 35.5 95t114.5 35q36 0 62 -9.5t43.5 -26t26 -38.5t8.5 -46q0 -38 -18 -67.5t-50 -58.5l-77 -64h140v-95h-285v95z
M500 -90q-92 0 -172 34.5t-139.5 94t-94 139.5t-34.5 172t34.5 172t94 139.5t139.5 94t172 34.5t172 -34.5t139.5 -94t94 -139.5t34.5 -172t-34.5 -172t-94 -139.5t-139.5 -94t-172 -34.5zM500 -5q75 0 140 27t112.5 75t75 113t27.5 140t-27.5 140t-75 112.5t-112.5 75
t-140 27.5t-140 -27.5t-112.5 -75t-75 -112.5t-27.5 -140t27.5 -140t75 -112.5t112.5 -75t140 -27.5z" />
    <glyph glyph-name="uni246C" unicode="&#x246c;" 
d="M310 400h-90v95h65q25 0 25 25v30h105v-400h-105v250zM608 145q-83 0 -121.5 34t-38.5 91h110q0 -9 11 -19.5t34 -10.5q19 0 32 10t13 25t-11 25t-34 10h-25v90h25q23 0 31.5 11t8.5 19q0 11 -10.5 20.5t-29.5 9.5q-23 0 -34 -10t-11 -25h-110q0 64 40 97t115 33
q39 0 67.5 -9.5t47 -25t27 -35t8.5 -40.5q0 -19 -6 -33t-15 -24.5t-19.5 -17t-19.5 -10.5q30 -11 47.5 -33.5t17.5 -56.5q0 -17 -6.5 -38.5t-23.5 -41t-46 -32.5t-74 -13zM500 -90q-92 0 -172 34.5t-139.5 94t-94 139.5t-34.5 172t34.5 172t94 139.5t139.5 94t172 34.5
t172 -34.5t139.5 -94t94 -139.5t34.5 -172t-34.5 -172t-94 -139.5t-139.5 -94t-172 -34.5zM500 -5q75 0 140 27t112.5 75t75 113t27.5 140t-27.5 140t-75 112.5t-112.5 75t-140 27.5t-140 -27.5t-112.5 -75t-75 -112.5t-27.5 -140t27.5 -140t75 -112.5t112.5 -75t140 -27.5z
" />
    <glyph glyph-name="uni246D" unicode="&#x246d;" 
d="M310 400h-90v95h65q25 0 25 25v30h105v-400h-105v250zM615 230h-175v95l160 225h120v-225h60v-95h-60v-80h-105v80zM615 325v95l-65 -95h65zM500 -90q-92 0 -172 34.5t-139.5 94t-94 139.5t-34.5 172t34.5 172t94 139.5t139.5 94t172 34.5t172 -34.5t139.5 -94t94 -139.5
t34.5 -172t-34.5 -172t-94 -139.5t-139.5 -94t-172 -34.5zM500 -5q75 0 140 27t112.5 75t75 113t27.5 140t-27.5 140t-75 112.5t-112.5 75t-140 27.5t-140 -27.5t-112.5 -75t-75 -112.5t-27.5 -140t27.5 -140t75 -112.5t112.5 -75t140 -27.5z" />
    <glyph glyph-name="uni246E" unicode="&#x246e;" 
d="M310 400h-90v95h65q25 0 25 25v30h105v-400h-105v250zM610 145q-72 0 -114 36.5t-46 93.5h110q2 -15 14.5 -25t35.5 -10q26 0 40.5 13.5t14.5 36.5q0 26 -16 38t-39 12t-34 -8.5t-16 -16.5h-105l28 235h267v-95h-183l-6 -50h5q7 3 17 7q8 3 20 5.5t27 2.5q60 0 100 -33
t40 -97q0 -30 -10 -56.5t-30.5 -46t-50.5 -31t-69 -11.5zM500 -90q-92 0 -172 34.5t-139.5 94t-94 139.5t-34.5 172t34.5 172t94 139.5t139.5 94t172 34.5t172 -34.5t139.5 -94t94 -139.5t34.5 -172t-34.5 -172t-94 -139.5t-139.5 -94t-172 -34.5zM500 -5q75 0 140 27
t112.5 75t75 113t27.5 140t-27.5 140t-75 112.5t-112.5 75t-140 27.5t-140 -27.5t-112.5 -75t-75 -112.5t-27.5 -140t27.5 -140t75 -112.5t112.5 -75t140 -27.5z" />
    <glyph glyph-name="uni246F" unicode="&#x246f;" 
d="M310 400h-90v95h65q25 0 25 25v30h105v-400h-105v250zM610 145q-41 0 -71.5 12.5t-50 33.5t-29 49t-9.5 60q0 38 13 67.5t27 52.5l85 130h118l-83 -120q39 0 68.5 -11.5t50 -30t31 -43t10.5 -50.5q0 -68 -42.5 -109t-117.5 -41zM610 240q26 0 40.5 13.5t14.5 36.5
t-14.5 36.5t-40.5 13.5t-40.5 -13.5t-14.5 -36.5t14.5 -36.5t40.5 -13.5zM500 -90q-92 0 -172 34.5t-139.5 94t-94 139.5t-34.5 172t34.5 172t94 139.5t139.5 94t172 34.5t172 -34.5t139.5 -94t94 -139.5t34.5 -172t-34.5 -172t-94 -139.5t-139.5 -94t-172 -34.5zM500 -5
q75 0 140 27t112.5 75t75 113t27.5 140t-27.5 140t-75 112.5t-112.5 75t-140 27.5t-140 -27.5t-112.5 -75t-75 -112.5t-27.5 -140t27.5 -140t75 -112.5t112.5 -75t140 -27.5z" />
    <glyph glyph-name="uni2470" unicode="&#x2470;" 
d="M310 400h-90v95h65q25 0 25 25v30h105v-400h-105v250zM635 455h-170v95h280v-95l-138 -305h-110zM500 -90q-92 0 -172 34.5t-139.5 94t-94 139.5t-34.5 172t34.5 172t94 139.5t139.5 94t172 34.5t172 -34.5t139.5 -94t94 -139.5t34.5 -172t-34.5 -172t-94 -139.5
t-139.5 -94t-172 -34.5zM500 -5q75 0 140 27t112.5 75t75 113t27.5 140t-27.5 140t-75 112.5t-112.5 75t-140 27.5t-140 -27.5t-112.5 -75t-75 -112.5t-27.5 -140t27.5 -140t75 -112.5t112.5 -75t140 -27.5z" />
    <glyph glyph-name="uni2471" unicode="&#x2471;" 
d="M310 400h-90v95h65q25 0 25 25v30h105v-400h-105v250zM610 145q-68 0 -111.5 32.5t-43.5 92.5q0 26 13 51t47 44q-23 11 -36.5 32.5t-13.5 47.5q0 45 35 77.5t110 32.5t110 -32.5t35 -77.5q0 -26 -13.5 -47.5t-36.5 -32.5q34 -19 47 -44t13 -51q0 -60 -43.5 -92.5
t-111.5 -32.5zM610 235q26 0 38 12.5t12 27.5t-12 27.5t-38 12.5t-38 -12.5t-12 -27.5t12 -27.5t38 -12.5zM610 395q26 0 35.5 12t9.5 23t-9.5 23t-35.5 12t-35.5 -12t-9.5 -23t9.5 -23t35.5 -12zM500 -90q-92 0 -172 34.5t-139.5 94t-94 139.5t-34.5 172t34.5 172t94 139.5
t139.5 94t172 34.5t172 -34.5t139.5 -94t94 -139.5t34.5 -172t-34.5 -172t-94 -139.5t-139.5 -94t-172 -34.5zM500 -5q75 0 140 27t112.5 75t75 113t27.5 140t-27.5 140t-75 112.5t-112.5 75t-140 27.5t-140 -27.5t-112.5 -75t-75 -112.5t-27.5 -140t27.5 -140t75 -112.5
t112.5 -75t140 -27.5z" />
    <glyph glyph-name="uni2472" unicode="&#x2472;" 
d="M310 400h-90v95h65q25 0 25 25v30h105v-400h-105v250zM610 270q-39 0 -68.5 11t-50 30t-31 43.5t-10.5 50.5q0 68 42.5 109t117.5 41q41 0 71.5 -12.5t50 -33.5t29 -49t9.5 -60q0 -38 -13 -67.5t-27 -52.5l-85 -130h-118zM610 360q26 0 40.5 13.5t14.5 36.5t-14.5 36.5
t-40.5 13.5t-40.5 -13.5t-14.5 -36.5t14.5 -36.5t40.5 -13.5zM500 -90q-92 0 -172 34.5t-139.5 94t-94 139.5t-34.5 172t34.5 172t94 139.5t139.5 94t172 34.5t172 -34.5t139.5 -94t94 -139.5t34.5 -172t-34.5 -172t-94 -139.5t-139.5 -94t-172 -34.5zM500 -5q75 0 140 27
t112.5 75t75 113t27.5 140t-27.5 140t-75 112.5t-112.5 75t-140 27.5t-140 -27.5t-112.5 -75t-75 -112.5t-27.5 -140t27.5 -140t75 -112.5t112.5 -75t140 -27.5z" />
    <glyph glyph-name="uni2473" unicode="&#x2473;" 
d="M500 -90q-92 0 -172 34.5t-139.5 94t-94 139.5t-34.5 172t34.5 172t94 139.5t139.5 94t172 34.5t172 -34.5t139.5 -94t94 -139.5t34.5 -172t-34.5 -172t-94 -139.5t-139.5 -94t-172 -34.5zM500 -5q75 0 140 27t112.5 75t75 113t27.5 140t-27.5 140t-75 112.5t-112.5 75
t-140 27.5t-140 -27.5t-112.5 -75t-75 -112.5t-27.5 -140q0 -92 40 -167v62l135 120q19 17 32 31.5t13 33.5q0 15 -10 22.5t-25 7.5q-19 0 -27 -10t-8 -25h-110q0 60 35.5 95t114.5 35q36 0 62 -9.5t43.5 -26t26 -38.5t8.5 -46q0 -38 -18 -67.5t-50 -58.5l-77 -64h140v-95
h-266q48 -71 125 -113t171 -42zM655 145q-39 0 -71 13.5t-55 40t-36 64.5t-13 87t13 87t36 64t55 40t71 14t71 -14t55 -40t36 -64t13 -87t-13 -87t-36 -64.5t-55 -40t-71 -13.5zM655 240q36 0 53 30.5t17 79.5t-17 79.5t-53 30.5t-53 -30.5t-17 -79.5t17 -79.5t53 -30.5z
" />
    <glyph glyph-name="uni24EA" unicode="&#x24ea;" 
d="M499 145q-39 0 -71 13.5t-55 40t-36 64.5t-13 87t13 87t36 64t55 40t71 14t71 -14t55 -40t36 -64t13 -87t-13 -87t-36 -64.5t-55 -40t-71 -13.5zM499 240q36 0 53 30.5t17 79.5t-17 79.5t-53 30.5t-53 -30.5t-17 -79.5t17 -79.5t53 -30.5zM500 -90q-92 0 -172 34.5
t-139.5 94t-94 139.5t-34.5 172t34.5 172t94 139.5t139.5 94t172 34.5t172 -34.5t139.5 -94t94 -139.5t34.5 -172t-34.5 -172t-94 -139.5t-139.5 -94t-172 -34.5zM500 -5q75 0 140 27t112.5 75t75 113t27.5 140t-27.5 140t-75 112.5t-112.5 75t-140 27.5t-140 -27.5
t-112.5 -75t-75 -112.5t-27.5 -140t27.5 -140t75 -112.5t112.5 -75t140 -27.5z" />
    <glyph glyph-name="uni24EB" unicode="&#x24eb;" 
d="M500 -90q-92 0 -172 34.5t-139.5 94t-94 139.5t-34.5 172t34.5 172t94 139.5t139.5 94t172 34.5t172 -34.5t139.5 -94t94 -139.5t34.5 -172t-34.5 -172t-94 -139.5t-139.5 -94t-172 -34.5zM450 150v400h-105v-30q0 -25 -25 -25h-65v-95h90v-250h105zM690 150v400h-105
v-30q0 -25 -25 -25h-65v-95h90v-250h105z" />
    <glyph glyph-name="uni24EC" unicode="&#x24ec;" 
d="M500 -90q-92 0 -172 34.5t-139.5 94t-94 139.5t-34.5 172t34.5 172t94 139.5t139.5 94t172 34.5t172 -34.5t139.5 -94t94 -139.5t34.5 -172t-34.5 -172t-94 -139.5t-139.5 -94t-172 -34.5zM415 150v400h-105v-30q0 -25 -25 -25h-65v-95h90v-250h105zM745 150v95h-140
l77 64q32 29 50 58.5t18 67.5q0 24 -8.5 46t-26 38.5t-43.5 26t-62 9.5q-79 0 -114.5 -35t-35.5 -95h110q0 15 8 25t27 10q15 0 25 -7.5t10 -22.5q0 -19 -13 -33.5t-32 -31.5l-135 -120v-95h285z" />
    <glyph glyph-name="uni24ED" unicode="&#x24ed;" 
d="M500 -90q-92 0 -172 34.5t-139.5 94t-94 139.5t-34.5 172t34.5 172t94 139.5t139.5 94t172 34.5t172 -34.5t139.5 -94t94 -139.5t34.5 -172t-34.5 -172t-94 -139.5t-139.5 -94t-172 -34.5zM415 150v400h-105v-30q0 -25 -25 -25h-65v-95h90v-250h105zM608 145q45 0 74 13
t46 32.5t23.5 41t6.5 38.5q0 34 -17.5 56.5t-47.5 33.5q9 4 19.5 10.5t19.5 17t15 24.5t6 33q0 21 -8.5 40.5t-27 35t-47 25t-67.5 9.5q-75 0 -115 -31t-40 -99h110q0 15 11 25t34 10q19 0 29.5 -9.5t10.5 -20.5q0 -8 -8.5 -19t-31.5 -11h-25v-90h25q23 0 34 -10t11 -25
t-13 -25t-32 -10q-23 0 -34 10.5t-11 19.5h-110q0 -57 38.5 -91t121.5 -34z" />
    <glyph glyph-name="uni24EE" unicode="&#x24ee;" 
d="M500 -90q-92 0 -172 34.5t-139.5 94t-94 139.5t-34.5 172t34.5 172t94 139.5t139.5 94t172 34.5t172 -34.5t139.5 -94t94 -139.5t34.5 -172t-34.5 -172t-94 -139.5t-139.5 -94t-172 -34.5zM415 150v400h-105v-30q0 -25 -25 -25h-65v-95h90v-250h105zM720 150v80h60v95
h-60v225h-120l-160 -225v-95h175v-80h105zM615 420v-95h-65z" />
    <glyph glyph-name="uni24EF" unicode="&#x24ef;" 
d="M500 -90q-92 0 -172 34.5t-139.5 94t-94 139.5t-34.5 172t34.5 172t94 139.5t139.5 94t172 34.5t172 -34.5t139.5 -94t94 -139.5t34.5 -172t-34.5 -172t-94 -139.5t-139.5 -94t-172 -34.5zM415 150v400h-105v-30q0 -25 -25 -25h-65v-95h90v-250h105zM610 145
q39 0 69 11.5t50.5 31t30.5 46t10 56.5q0 64 -40 97t-100 33q-15 0 -27 -2.5t-20 -5.5q-10 -4 -17 -7h-5l6 50h183v95h-267l-28 -235h105q5 8 16 16.5t34 8.5t39 -12t16 -38q0 -23 -14.5 -36.5t-40.5 -13.5q-23 0 -35.5 10t-14.5 25h-110q4 -57 46 -93.5t114 -36.5z" />
    <glyph glyph-name="uni24F0" unicode="&#x24f0;" 
d="M500 -90q-92 0 -172 34.5t-139.5 94t-94 139.5t-34.5 172t34.5 172t94 139.5t139.5 94t172 34.5t172 -34.5t139.5 -94t94 -139.5t34.5 -172t-34.5 -172t-94 -139.5t-139.5 -94t-172 -34.5zM415 150v400h-105v-30q0 -25 -25 -25h-65v-95h90v-250h105zM610 145
q75 0 117.5 41t42.5 109q0 26 -10.5 50.5t-31 43t-50 30t-68.5 11.5l83 120h-118l-85 -130q-14 -23 -27 -52.5t-13 -67.5q0 -32 9.5 -60t29 -49t50 -33.5t71.5 -12.5zM610 240q-26 0 -40.5 13.5t-14.5 36.5t14.5 36.5t40.5 13.5t40.5 -13.5t14.5 -36.5t-14.5 -36.5
t-40.5 -13.5z" />
    <glyph glyph-name="uni24F1" unicode="&#x24f1;" 
d="M500 -90q-92 0 -172 34.5t-139.5 94t-94 139.5t-34.5 172t34.5 172t94 139.5t139.5 94t172 34.5t172 -34.5t139.5 -94t94 -139.5t34.5 -172t-34.5 -172t-94 -139.5t-139.5 -94t-172 -34.5zM415 150v400h-105v-30q0 -25 -25 -25h-65v-95h90v-250h105zM607 150l138 305v95
h-280v-95h170l-138 -305h110z" />
    <glyph glyph-name="uni24F2" unicode="&#x24f2;" 
d="M500 -90q-92 0 -172 34.5t-139.5 94t-94 139.5t-34.5 172t34.5 172t94 139.5t139.5 94t172 34.5t172 -34.5t139.5 -94t94 -139.5t34.5 -172t-34.5 -172t-94 -139.5t-139.5 -94t-172 -34.5zM415 150v400h-105v-30q0 -25 -25 -25h-65v-95h90v-250h105zM610 145
q68 0 111.5 32.5t43.5 92.5q0 26 -13 51t-47 44q23 11 36.5 32.5t13.5 47.5q0 45 -35 77.5t-110 32.5t-110 -32.5t-35 -77.5q0 -26 13.5 -47.5t36.5 -32.5q-34 -19 -47 -44t-13 -51q0 -60 43.5 -92.5t111.5 -32.5zM610 235q-26 0 -38 12.5t-12 27.5t12 27.5t38 12.5
t38 -12.5t12 -27.5t-12 -27.5t-38 -12.5zM610 395q-26 0 -35.5 12t-9.5 23t9.5 23t35.5 12t35.5 -12t9.5 -23t-9.5 -23t-35.5 -12z" />
    <glyph glyph-name="uni24F3" unicode="&#x24f3;" 
d="M500 -90q-92 0 -172 34.5t-139.5 94t-94 139.5t-34.5 172t34.5 172t94 139.5t139.5 94t172 34.5t172 -34.5t139.5 -94t94 -139.5t34.5 -172t-34.5 -172t-94 -139.5t-139.5 -94t-172 -34.5zM415 150v400h-105v-30q0 -25 -25 -25h-65v-95h90v-250h105zM645 150l85 130
q14 23 27 52.5t13 67.5q0 32 -9.5 60t-29 49t-50 33.5t-71.5 12.5q-75 0 -117.5 -41t-42.5 -109q0 -26 10.5 -50.5t31 -43.5t50 -30t68.5 -11l-83 -120h118zM610 360q-26 0 -40.5 13.5t-14.5 36.5t14.5 36.5t40.5 13.5t40.5 -13.5t14.5 -36.5t-14.5 -36.5t-40.5 -13.5z" />
    <glyph glyph-name="uni24F4" unicode="&#x24f4;" 
d="M500 -90q-92 0 -172 34.5t-139.5 94t-94 139.5t-34.5 172t34.5 172t94 139.5t139.5 94t172 34.5t172 -34.5t139.5 -94t94 -139.5t34.5 -172t-34.5 -172t-94 -139.5t-139.5 -94t-172 -34.5zM480 150v95h-140l77 64q32 29 50 58.5t18 67.5q0 24 -8.5 46t-26 38.5t-43.5 26
t-62 9.5q-79 0 -114.5 -35t-35.5 -95h110q0 15 8 25t27 10q15 0 25 -7.5t10 -22.5q0 -19 -13 -33.5t-32 -31.5l-135 -120v-95h285zM665 145q39 0 71 13.5t55 40t36 64.5t13 87t-13 87t-36 64t-55 40t-71 14t-71 -14t-55 -40t-36 -64t-13 -87t13 -87t36 -64.5t55 -40
t71 -13.5zM665 240q-36 0 -53 30.5t-17 79.5t17 79.5t53 30.5t53 -30.5t17 -79.5t-17 -79.5t-53 -30.5z" />
    <glyph glyph-name="uni24FF" unicode="&#x24ff;" 
d="M500 -90q-92 0 -172 34.5t-139.5 94t-94 139.5t-34.5 172t34.5 172t94 139.5t139.5 94t172 34.5t172 -34.5t139.5 -94t94 -139.5t34.5 -172t-34.5 -172t-94 -139.5t-139.5 -94t-172 -34.5zM499 145q39 0 71 13.5t55 40t36 64.5t13 87t-13 87t-36 64t-55 40t-71 14
t-71 -14t-55 -40t-36 -64t-13 -87t13 -87t36 -64.5t55 -40t71 -13.5zM499 240q-36 0 -53 30.5t-17 79.5t17 79.5t53 30.5t53 -30.5t17 -79.5t-17 -79.5t-53 -30.5z" />
    <glyph glyph-name="lozenge" unicode="&#x25ca;" horiz-adv-x="600" 
d="M30 350l225 350h90l225 -350l-225 -350h-90zM450 350l-150 235l-150 -235l150 -235z" />
    <glyph glyph-name="uni2776" unicode="&#x2776;" 
d="M500 -90q-92 0 -172 34.5t-139.5 94t-94 139.5t-34.5 172t34.5 172t94 139.5t139.5 94t172 34.5t172 -34.5t139.5 -94t94 -139.5t34.5 -172t-34.5 -172t-94 -139.5t-139.5 -94t-172 -34.5zM565 150v400h-105v-30q0 -25 -25 -25h-65v-95h90v-250h105z" />
    <glyph glyph-name="uni2777" unicode="&#x2777;" 
d="M500 -90q-92 0 -172 34.5t-139.5 94t-94 139.5t-34.5 172t34.5 172t94 139.5t139.5 94t172 34.5t172 -34.5t139.5 -94t94 -139.5t34.5 -172t-34.5 -172t-94 -139.5t-139.5 -94t-172 -34.5zM645 150v95h-140l77 64q32 29 50 58.5t18 67.5q0 24 -8.5 46t-26 38.5t-43.5 26
t-62 9.5q-79 0 -114.5 -35t-35.5 -95h110q0 15 8 25t27 10q15 0 25 -7.5t10 -22.5q0 -19 -13 -33.5t-32 -31.5l-135 -120v-95h285z" />
    <glyph glyph-name="uni2778" unicode="&#x2778;" 
d="M500 -90q-92 0 -172 34.5t-139.5 94t-94 139.5t-34.5 172t34.5 172t94 139.5t139.5 94t172 34.5t172 -34.5t139.5 -94t94 -139.5t34.5 -172t-34.5 -172t-94 -139.5t-139.5 -94t-172 -34.5zM510 145q45 0 74 13t46 32.5t23.5 41t6.5 38.5q0 34 -17.5 56.5t-47.5 33.5
q9 4 19.5 10.5t19.5 17t15 24.5t6 33q0 21 -8.5 40.5t-27 35t-47 25t-67.5 9.5q-75 0 -115 -31t-40 -99h110q0 15 11 25t34 10q19 0 29.5 -9.5t10.5 -20.5q0 -8 -8.5 -19t-31.5 -11h-25v-90h25q23 0 34 -10t11 -25t-13 -25t-32 -10q-23 0 -34 10.5t-11 19.5h-110
q0 -57 38.5 -91t121.5 -34z" />
    <glyph glyph-name="uni2779" unicode="&#x2779;" 
d="M500 -90q-92 0 -172 34.5t-139.5 94t-94 139.5t-34.5 172t34.5 172t94 139.5t139.5 94t172 34.5t172 -34.5t139.5 -94t94 -139.5t34.5 -172t-34.5 -172t-94 -139.5t-139.5 -94t-172 -34.5zM595 150v80h60v95h-60v225h-120l-160 -225v-95h175v-80h105zM490 420v-95h-65z
" />
    <glyph glyph-name="uni277A" unicode="&#x277a;" 
d="M500 -90q-92 0 -172 34.5t-139.5 94t-94 139.5t-34.5 172t34.5 172t94 139.5t139.5 94t172 34.5t172 -34.5t139.5 -94t94 -139.5t34.5 -172t-34.5 -172t-94 -139.5t-139.5 -94t-172 -34.5zM505 145q39 0 69 11.5t50.5 31t30.5 46t10 56.5q0 64 -40 97t-100 33
q-15 0 -27 -2.5t-20 -5.5q-10 -4 -17 -7h-5l6 50h183v95h-267l-28 -235h105q5 8 16 16.5t34 8.5t39 -12t16 -38q0 -23 -14.5 -36.5t-40.5 -13.5q-23 0 -35.5 10t-14.5 25h-110q4 -57 46 -93.5t114 -36.5z" />
    <glyph glyph-name="uni277B" unicode="&#x277b;" 
d="M500 -90q-92 0 -172 34.5t-139.5 94t-94 139.5t-34.5 172t34.5 172t94 139.5t139.5 94t172 34.5t172 -34.5t139.5 -94t94 -139.5t34.5 -172t-34.5 -172t-94 -139.5t-139.5 -94t-172 -34.5zM500 145q75 0 117.5 41t42.5 109q0 26 -10.5 50.5t-31 43t-50 30t-68.5 11.5
l83 120h-118l-85 -130q-14 -23 -27 -52.5t-13 -67.5q0 -32 9.5 -60t29 -49t50 -33.5t71.5 -12.5zM500 240q-26 0 -40.5 13.5t-14.5 36.5t14.5 36.5t40.5 13.5t40.5 -13.5t14.5 -36.5t-14.5 -36.5t-40.5 -13.5z" />
    </font>
</defs>
</svg>
