<svg xmlns="http://www.w3.org/2000/svg">
<defs>
<font id="TTInterphases-Light" horiz-adv-x="1000" >
  <font-face 
    font-family="TT Interphases Light"
    font-weight="300"
    font-stretch="normal"
    units-per-em="1000"
    panose-1="2 0 5 3 3 0 0 2 0 4"
    ascent="760"
    descent="-240"
    x-height="520"
    cap-height="700"
    bbox="-500 -245 1438 980"
    underline-thickness="50"
    underline-position="-200"
    unicode-range="U+000D-FB04"
  />
<missing-glyph horiz-adv-x="900" 
d="M100 284h45v-139h33v139h50v31h-128v126l19 -61h23l34 106l33 -106h23l54 170h-32l-34 -110l-35 110h-19l-35 -110l-31 103v157h700v-150h-110v-170h110v-91q-13 27 -50 27q-29 0 -44.5 -14.5t-15.5 -34.5q0 -22 13.5 -32t30 -15t30.5 -9.5t14 -16.5q0 -14 -9.5 -17.5
t-18.5 -3.5q-15 0 -21.5 7.5t-6.5 17.5h-33q0 -24 16.5 -39.5t44.5 -15.5q20 0 32.5 7.5t17.5 12.5v-163h-700v284zM328 143q38 0 60 25t22 61q0 37 -22.5 62t-59.5 25t-59.5 -25t-22.5 -62q0 -36 22 -61t60 -25zM328 174q-23 0 -37 16t-14 39q0 24 13.5 40t37.5 16
t37.5 -16t13.5 -40q0 -23 -14 -39t-37 -16zM549 315h-32v-106q0 -29 19.5 -47.5t48.5 -18.5t48 18.5t19 47.5v106h-32v-106q0 -15 -9 -25t-26 -10q-18 0 -27 11t-9 24v106zM344 380v62h24l35 -62h37l-40 67q36 16 36 50q0 21 -15.5 37t-41.5 16h-68v-170h33zM344 519h35
q10 0 17 -6t7 -17q0 -13 -8 -18t-16 -5h-35v46zM502 380v170h-33v-170h33zM800 262v-38q-11 10 -24 14.5t-24.5 8.5t-19.5 8t-8 12q0 9 7.5 14.5t18.5 5.5q10 0 18 -6.5t8 -18.5h24zM612 380v139h50v31h-132v-31h50v-139h32zM722 452h78v-41h-78v41zM722 519h78v-36h-78v36z
" />
    <glyph glyph-name="ff" unicode="ff" horiz-adv-x="600" 
d="M110 470h-85v50h85v70q0 53 31 81.5t84 28.5h70v-50h-70q-30 0 -47.5 -15t-17.5 -45v-70h235v70q0 53 31 81.5t84 28.5h70v-50h-70q-30 0 -47.5 -15t-17.5 -45v-70h135v-50h-135v-470h-50v470h-235v-470h-50v470z" />
    <glyph glyph-name="fi" unicode="fi" horiz-adv-x="520" 
d="M110 470h-85v50h85v70q0 53 31 81.5t84 28.5h70v-50h-70q-30 0 -47.5 -15t-17.5 -45v-70h285v-520h-50v470h-235v-470h-50v470zM420 610q-17 0 -28.5 11.5t-11.5 28.5t11.5 28.5t28.5 11.5t28.5 -11.5t11.5 -28.5t-11.5 -28.5t-28.5 -11.5z" />
    <glyph glyph-name="fl" unicode="fl" horiz-adv-x="525" 
d="M110 470h-85v50h85v70q0 53 31 81.5t84 28.5h220v-700h-50v650h-170q-30 0 -47.5 -15t-17.5 -45v-70h135v-50h-135v-470h-50v470z" />
    <glyph glyph-name="ffi" unicode="ffi" horiz-adv-x="805" 
d="M110 470h-85v50h85v70q0 53 31 81.5t84 28.5h70v-50h-70q-30 0 -47.5 -15t-17.5 -45v-70h235v70q0 53 31 81.5t84 28.5h70v-50h-70q-30 0 -47.5 -15t-17.5 -45v-70h285v-520h-50v470h-235v-470h-50v470h-235v-470h-50v470zM705 610q-17 0 -28.5 11.5t-11.5 28.5
t11.5 28.5t28.5 11.5t28.5 -11.5t11.5 -28.5t-11.5 -28.5t-28.5 -11.5z" />
    <glyph glyph-name="ffl" unicode="ffl" horiz-adv-x="810" 
d="M110 470h-85v50h85v70q0 53 31 81.5t84 28.5h70v-50h-70q-30 0 -47.5 -15t-17.5 -45v-70h235v70q0 53 31 81.5t84 28.5h220v-700h-50v650h-170q-30 0 -47.5 -15t-17.5 -45v-70h135v-50h-135v-470h-50v470h-235v-470h-50v470z" />
    <glyph glyph-name="f_f_j" unicode="ffj" horiz-adv-x="805" 
d="M540 -150h75q30 0 47.5 17t17.5 43v560h-235v-470h-50v470h-235v-470h-50v470h-85v50h85v70q0 53 31 81.5t84 28.5h70v-50h-70q-30 0 -47.5 -15t-17.5 -45v-70h235v70q0 53 31 81.5t84 28.5h70v-50h-70q-30 0 -47.5 -15t-17.5 -45v-70h285v-610q0 -49 -30.5 -79.5
t-79.5 -30.5h-80v50zM705 610q-17 0 -28.5 11.5t-11.5 28.5t11.5 28.5t28.5 11.5t28.5 -11.5t11.5 -28.5t-11.5 -28.5t-28.5 -11.5z" />
    <glyph glyph-name="f_j" unicode="fj" horiz-adv-x="520" 
d="M255 -150h75q30 0 47.5 17t17.5 43v560h-235v-470h-50v470h-85v50h85v70q0 53 31 81.5t84 28.5h70v-50h-70q-30 0 -47.5 -15t-17.5 -45v-70h285v-610q0 -49 -30.5 -79.5t-79.5 -30.5h-80v50zM420 610q-17 0 -28.5 11.5t-11.5 28.5t11.5 28.5t28.5 11.5t28.5 -11.5
t11.5 -28.5t-11.5 -28.5t-28.5 -11.5z" />
    <glyph glyph-name=".notdef" horiz-adv-x="900" 
d="M100 284h45v-139h33v139h50v31h-128v126l19 -61h23l34 106l33 -106h23l54 170h-32l-34 -110l-35 110h-19l-35 -110l-31 103v157h700v-150h-110v-170h110v-91q-13 27 -50 27q-29 0 -44.5 -14.5t-15.5 -34.5q0 -22 13.5 -32t30 -15t30.5 -9.5t14 -16.5q0 -14 -9.5 -17.5
t-18.5 -3.5q-15 0 -21.5 7.5t-6.5 17.5h-33q0 -24 16.5 -39.5t44.5 -15.5q20 0 32.5 7.5t17.5 12.5v-163h-700v284zM328 143q38 0 60 25t22 61q0 37 -22.5 62t-59.5 25t-59.5 -25t-22.5 -62q0 -36 22 -61t60 -25zM328 174q-23 0 -37 16t-14 39q0 24 13.5 40t37.5 16
t37.5 -16t13.5 -40q0 -23 -14 -39t-37 -16zM549 315h-32v-106q0 -29 19.5 -47.5t48.5 -18.5t48 18.5t19 47.5v106h-32v-106q0 -15 -9 -25t-26 -10q-18 0 -27 11t-9 24v106zM344 380v62h24l35 -62h37l-40 67q36 16 36 50q0 21 -15.5 37t-41.5 16h-68v-170h33zM344 519h35
q10 0 17 -6t7 -17q0 -13 -8 -18t-16 -5h-35v46zM502 380v170h-33v-170h33zM800 262v-38q-11 10 -24 14.5t-24.5 8.5t-19.5 8t-8 12q0 9 7.5 14.5t18.5 5.5q10 0 18 -6.5t8 -18.5h24zM612 380v139h50v31h-132v-31h50v-139h32zM722 452h78v-41h-78v41zM722 519h78v-36h-78v36z
" />
    <glyph glyph-name=".null" horiz-adv-x="0" 
 />
    <glyph glyph-name=".null" horiz-adv-x="0" 
 />
    <glyph glyph-name="nonmarkingreturn" unicode="&#xd;" horiz-adv-x="0" 
 />
    <glyph glyph-name="space" unicode=" " horiz-adv-x="210" 
 />
    <glyph glyph-name="exclam" unicode="!" horiz-adv-x="260" 
d="M130 -5q-17 0 -28.5 11.5t-11.5 28.5t11.5 28.5t28.5 11.5t28.5 -11.5t11.5 -28.5t-11.5 -28.5t-28.5 -11.5zM100 645v55h60v-55l-10 -445h-40z" />
    <glyph glyph-name="quotedbl" unicode="&#x22;" horiz-adv-x="330" 
d="M70 700h50v-210h-50v210zM210 700h50v-210h-50v210z" />
    <glyph glyph-name="numbersign" unicode="#" horiz-adv-x="620" 
d="M148 200h-123l10 50h124l43 200h-122l10 50h122l43 200h50l-43 -200h160l43 200h50l-43 -200h123l-10 -50h-124l-43 -200h122l-10 -50h-122l-43 -200h-50l43 200h-160l-43 -200h-50zM368 250l43 200h-159l-43 -200h159z" />
    <glyph glyph-name="dollar" unicode="$" horiz-adv-x="590" 
d="M270 -8q-94 8 -152.5 59.5t-72.5 128.5h55q12 -37 32 -63.5t46 -43.5t57 -25t65 -8q47 0 82.5 11.5t59.5 31t36 46t12 56.5q0 39 -18.5 64t-48 40.5t-68 25.5t-78 19.5t-78 22t-68 33.5t-48 53t-18.5 82q0 36 13 67.5t39 56.5t64 41t89 19v101h55v-102q80 -8 134 -50.5
t71 -117.5h-55q-8 21 -21.5 42t-35.5 38.5t-53.5 28.5t-74.5 11q-41 0 -73 -10.5t-53.5 -29t-32.5 -43t-11 -52.5q0 -39 18.5 -64t48 -40.5t68 -25.5t78 -19.5t78 -22t68 -33.5t48 -53t18.5 -82q0 -38 -14 -71.5t-41.5 -59.5t-69 -43t-95.5 -20v-101h-55v102z" />
    <glyph glyph-name="percent" unicode="%" horiz-adv-x="745" 
d="M560 700h60l-435 -700h-60zM550 -10q-68 0 -109 41.5t-41 113.5t41 113.5t109 41.5t109 -41.5t41 -113.5t-41 -113.5t-109 -41.5zM550 35q45 0 72.5 28.5t27.5 81.5t-27.5 81.5t-72.5 28.5t-72.5 -28.5t-27.5 -81.5t27.5 -81.5t72.5 -28.5zM195 400q-68 0 -109 41.5
t-41 113.5t41 113.5t109 41.5t109 -41.5t41 -113.5t-41 -113.5t-109 -41.5zM195 445q45 0 72.5 28.5t27.5 81.5t-27.5 81.5t-72.5 28.5t-72.5 -28.5t-27.5 -81.5t27.5 -81.5t72.5 -28.5z" />
    <glyph glyph-name="ampersand" unicode="&#x26;" horiz-adv-x="620" 
d="M240 -10q-49 0 -85.5 13t-61 36t-36.5 54t-12 67q0 60 26.5 98t73.5 72l55 40l-43 43q-28 28 -50 60t-22 77q0 34 12 63t34.5 50.5t55 34t73.5 12.5q79 0 124.5 -44t45.5 -116q0 -26 -10 -48.5t-25.5 -41t-34 -33.5t-35.5 -27l-50 -35l195 -195l105 105h70l-140 -140
l135 -135h-70l-101 100q-45 -49 -99.5 -79.5t-129.5 -30.5zM240 40q57 0 103 23t91 72l-199 200l-55 -40q-47 -35 -63.5 -66.5t-16.5 -68.5q0 -53 38 -86.5t102 -33.5zM300 443q31 22 53 47.5t22 59.5q0 22 -8 42t-23 35t-36.5 24t-47.5 9q-57 0 -88.5 -32.5t-31.5 -77.5
q0 -15 3 -27.5t10 -25.5t18.5 -26.5t28.5 -30.5l40 -40z" />
    <glyph glyph-name="quotesingle" unicode="'" horiz-adv-x="190" 
d="M70 700h50v-210h-50v210z" />
    <glyph glyph-name="parenleft" unicode="(" horiz-adv-x="300" 
d="M210 -200q-57 83 -93.5 200.5t-36.5 264.5t36.5 264.5t93.5 200.5h55q-68 -98 -101.5 -215.5t-33.5 -249.5t33.5 -249.5t101.5 -215.5h-55v0z" />
    <glyph glyph-name="parenright" unicode=")" horiz-adv-x="300" 
d="M35 -200q68 98 101.5 215.5t33.5 249.5t-33.5 249.5t-101.5 215.5h55q57 -83 93.5 -200.5t36.5 -264.5t-36.5 -264.5t-93.5 -200.5h-55v0z" />
    <glyph glyph-name="asterisk" unicode="*" horiz-adv-x="470" 
d="M100 380l105 125l-155 45l15 50l150 -55l-10 155h60l-10 -155l150 55l15 -50l-155 -45l105 -125l-45 -30l-90 130l-90 -130z" />
    <glyph glyph-name="plus" unicode="+" horiz-adv-x="550" 
d="M250 275h-205v50h205v205h50v-205h205v-50h-205v-205h-50v205z" />
    <glyph glyph-name="comma" unicode="," horiz-adv-x="200" 
d="M80 100h55l-65 -200h-35z" />
    <glyph glyph-name="hyphen" unicode="-" horiz-adv-x="375" 
d="M40 310h295v-50h-295v50z" />
    <glyph glyph-name="period" unicode="." horiz-adv-x="200" 
d="M100 -5q-17 0 -28.5 11.5t-11.5 28.5t11.5 28.5t28.5 11.5t28.5 -11.5t11.5 -28.5t-11.5 -28.5t-28.5 -11.5z" />
    <glyph glyph-name="slash" unicode="/" horiz-adv-x="340" 
d="M290 730h50l-290 -930h-50z" />
    <glyph glyph-name="zero" unicode="0" horiz-adv-x="660" 
d="M330 -10q-58 0 -108.5 22.5t-87.5 67.5t-58 112.5t-21 157.5t21 157.5t58 112.5t87.5 67.5t108.5 22.5t108.5 -22.5t87.5 -67.5t58 -112.5t21 -157.5t-21 -157.5t-58 -112.5t-87.5 -67.5t-108.5 -22.5zM330 40q45 0 85 19t70 57.5t47.5 96.5t17.5 137t-17.5 137
t-47.5 96.5t-70 57.5t-85 19t-85 -19t-70 -57.5t-47.5 -96.5t-17.5 -137t17.5 -137t47.5 -96.5t70 -57.5t85 -19z" />
    <glyph glyph-name="one" unicode="1" horiz-adv-x="315" 
d="M170 555h-135v50h95q40 0 40 40v55h55v-700h-55v555z" />
    <glyph glyph-name="two" unicode="2" horiz-adv-x="545" 
d="M50 50l320 327q15 15 28 29.5t22 30t14.5 33t5.5 40.5q0 68 -42.5 109t-117.5 41q-41 0 -72 -13.5t-53 -34.5t-34 -47t-16 -50h-55q7 43 26 79t48 61.5t68 40t88 14.5t88.5 -15t67.5 -42t43.5 -63.5t15.5 -79.5q0 -28 -7.5 -51.5t-20 -43.5t-27.5 -37t-30 -32l-290 -296
h380v-50h-450v50z" />
    <glyph glyph-name="three" unicode="3" horiz-adv-x="570" 
d="M280 -10q-45 0 -86 13t-73.5 37.5t-53.5 61t-27 83.5h55q4 -26 18 -52t37 -46.5t56 -33.5t74 -13t73.5 11.5t55 31.5t34.5 47.5t12 59.5q0 28 -11 52.5t-32 43t-52 29t-70 10.5h-65v50h65q36 0 64.5 10.5t48.5 29t31 43t11 52.5q0 68 -43 109t-122 41q-39 0 -70 -13
t-53 -33.5t-35 -46.5t-17 -52h-55q7 45 27 81t50 61.5t69 39t84 13.5q51 0 91.5 -15t69 -42t44 -63.5t15.5 -79.5q0 -57 -28.5 -96.5t-81.5 -58.5q26 -8 48 -23t38 -37t25 -48.5t9 -56.5q0 -41 -15.5 -77.5t-45 -63.5t-72.5 -43t-97 -16z" />
    <glyph glyph-name="four" unicode="4" horiz-adv-x="535" 
d="M365 175h-345v50l320 475h80v-475h90v-50h-90v-175h-55v175zM365 225v415h-5l-280 -415h285z" />
    <glyph glyph-name="five" unicode="5" horiz-adv-x="575" 
d="M290 -10q-43 0 -82.5 13t-71 37.5t-53 61t-28.5 83.5h55q15 -68 63.5 -106.5t116.5 -38.5q45 0 78.5 15.5t56 41.5t34 59t11.5 69t-11.5 69t-34 59t-56 41.5t-78.5 15.5t-87.5 -23t-72.5 -72h-60l35 385h380v-50h-331l-24 -265h5q30 42 72.5 58.5t87.5 16.5
q49 0 91 -17.5t73 -49t48.5 -74.5t17.5 -94q0 -53 -17.5 -96t-49 -74t-74.5 -48t-94 -17z" />
    <glyph glyph-name="six" unicode="6" horiz-adv-x="580" 
d="M290 -10q-54 0 -98.5 17t-76 48.5t-48.5 76t-17 98.5q0 53 19.5 104t57.5 111l163 255h60l-185 -290h5q26 23 56.5 31.5t68.5 8.5q51 0 94 -17.5t74.5 -48.5t49 -73t17.5 -91t-18 -91t-49.5 -73t-76 -48.5t-96.5 -17.5zM290 40q41 0 75 13.5t58.5 37.5t38 57t13.5 72
t-13.5 72t-38 57t-58.5 37.5t-75 13.5t-75 -13.5t-58.5 -37.5t-38 -57t-13.5 -72t13.5 -72t38 -57t58.5 -37.5t75 -13.5z" />
    <glyph glyph-name="seven" unicode="7" horiz-adv-x="505" 
d="M410 650h-380v50h440v-50l-285 -650h-60z" />
    <glyph glyph-name="eight" unicode="8" horiz-adv-x="580" 
d="M290 -10q-53 0 -95.5 16t-72.5 43t-46 63.5t-16 77.5q0 57 35 102t95 68q-21 7 -41.5 21t-37 34.5t-26.5 46.5t-10 58q0 39 15.5 74t43.5 60.5t67.5 40.5t88.5 15t88.5 -15t67.5 -40.5t43.5 -60.5t15.5 -74q0 -32 -10 -58t-26.5 -46.5t-37 -34.5t-41.5 -21q60 -23 95 -68
t35 -102q0 -41 -16.5 -77.5t-46.5 -63.5t-72.5 -43t-94.5 -16zM290 40q39 0 71.5 12t55.5 33t35.5 48t12.5 57t-12.5 57t-35.5 48t-55.5 33t-71.5 12t-71.5 -12t-55.5 -33t-35.5 -48t-12.5 -57t12.5 -57t35.5 -48t55.5 -33t71.5 -12zM290 385q39 0 69 10.5t50.5 29t30.5 43
t10 52.5q0 60 -42.5 100t-117.5 40t-117.5 -40t-42.5 -100q0 -28 10 -52.5t30.5 -43t50.5 -29t69 -10.5z" />
    <glyph glyph-name="nine" unicode="9" horiz-adv-x="580" 
d="M415 290h-5q-26 -23 -56.5 -31.5t-68.5 -8.5q-51 0 -94 17.5t-74.5 48.5t-49 73t-17.5 91t18 91t49.5 73t75.5 48.5t97 17.5q54 0 98.5 -17t76 -48.5t48.5 -76t17 -98.5q0 -53 -19.5 -104t-57.5 -111l-163 -255h-60zM290 300q41 0 75 13.5t58.5 37.5t38 57t13.5 72
t-13.5 72t-38 57t-58.5 37.5t-75 13.5t-75 -13.5t-58.5 -37.5t-38 -57t-13.5 -72t13.5 -72t38 -57t58.5 -37.5t75 -13.5z" />
    <glyph glyph-name="colon" unicode=":" horiz-adv-x="200" 
d="M100 -5q-17 0 -28.5 11.5t-11.5 28.5t11.5 28.5t28.5 11.5t28.5 -11.5t11.5 -28.5t-11.5 -28.5t-28.5 -11.5zM100 445q-17 0 -28.5 11.5t-11.5 28.5t11.5 28.5t28.5 11.5t28.5 -11.5t11.5 -28.5t-11.5 -28.5t-28.5 -11.5z" />
    <glyph glyph-name="semicolon" unicode=";" horiz-adv-x="200" 
d="M80 100h55l-65 -200h-35zM100 445q-17 0 -28.5 11.5t-11.5 28.5t11.5 28.5t28.5 11.5t28.5 -11.5t11.5 -28.5t-11.5 -28.5t-28.5 -11.5z" />
    <glyph glyph-name="less" unicode="&#x3c;" horiz-adv-x="540" 
d="M60 270v60l420 205v-55l-370 -180l370 -180v-55z" />
    <glyph glyph-name="equal" unicode="=" horiz-adv-x="545" 
d="M45 235h455v-50h-455v50zM45 420h455v-50h-455v50z" />
    <glyph glyph-name="greater" unicode="&#x3e;" horiz-adv-x="540" 
d="M60 120l370 180l-370 180v55l420 -205v-60l-420 -205v55z" />
    <glyph glyph-name="question" unicode="?" horiz-adv-x="495" 
d="M240 -5q-17 0 -28.5 11.5t-11.5 28.5t11.5 28.5t28.5 11.5t28.5 -11.5t11.5 -28.5t-11.5 -28.5t-28.5 -11.5zM215 245q0 36 5.5 59.5t17 41.5t28 32.5t39.5 31.5q34 26 54.5 52t20.5 68q0 57 -38 93.5t-102 36.5t-103 -35.5t-47 -99.5h-55q4 39 19.5 73t41.5 59t62.5 39
t81.5 14t81 -13.5t61.5 -36.5t39 -55.5t13.5 -69.5q0 -30 -7 -53t-20.5 -42.5t-32 -36t-40.5 -33.5q-17 -13 -30 -24t-22 -25t-13.5 -32t-4.5 -44v-45h-50v45z" />
    <glyph glyph-name="at" unicode="@" horiz-adv-x="920" 
d="M445 -90q-84 0 -154 28t-120.5 79t-78 123t-27.5 160q0 86 28.5 158t81 123.5t126.5 80t164 28.5t163.5 -28.5t126 -79.5t81.5 -122t29 -155q0 -60 -11.5 -102.5t-31.5 -70t-47.5 -40t-59.5 -12.5q-36 0 -57.5 12.5t-33.5 27.5q-14 18 -19 40h-5q-19 -34 -55.5 -57
t-89.5 -23q-39 0 -73 14.5t-59 41.5t-39 66t-14 88t14 88t39 66t59 41.5t73 14.5q45 0 78.5 -17.5t56.5 -47.5h5l10 60h40v-290q0 -75 70 -75q22 0 40.5 8.5t32 28.5t20.5 53.5t7 84.5q0 75 -24.5 136.5t-70 106t-110 68.5t-145.5 24t-145.5 -24.5t-110 -69t-70 -107
t-24.5 -139.5q0 -79 23.5 -142t66.5 -107t104 -67.5t136 -23.5h160v-50h-160zM460 125q64 0 102 41t38 124t-38 124t-102 41t-102 -41t-38 -124t38 -124t102 -41z" />
    <glyph glyph-name="A" unicode="A" horiz-adv-x="615" 
d="M275 700h65l265 -700h-55l-70 185h-345l-70 -185h-55zM461 235l-151 400h-5l-151 -400h307z" />
    <glyph glyph-name="B" unicode="B" horiz-adv-x="645" 
d="M90 700h285q94 0 147 -51.5t53 -138.5q0 -53 -28 -94.5t-77 -60.5q53 -19 84 -62t31 -103q0 -87 -53 -138.5t-147 -51.5h-295v700zM380 50q72 0 111 38t39 102q0 60 -39 97.5t-111 37.5h-235v-275h235zM370 375q72 0 111 37.5t39 97.5q0 64 -39 102t-111 38h-225v-275
h225z" />
    <glyph glyph-name="C" unicode="C" horiz-adv-x="690" 
d="M365 -10q-68 0 -124.5 24t-98 70t-64.5 113t-23 153t23 153t64.5 113t98 70t124.5 24q102 0 174 -50.5t106 -144.5h-60q-30 72 -87.5 108.5t-132.5 36.5q-54 0 -101 -20.5t-81 -59.5t-53.5 -97t-19.5 -133t19.5 -133t53.5 -97t81 -59.5t101 -20.5q75 0 132.5 36.5
t87.5 108.5h60q-34 -94 -106 -144.5t-174 -50.5z" />
    <glyph glyph-name="D" unicode="D" horiz-adv-x="680" 
d="M90 700h230q67 0 123.5 -23t96.5 -67.5t62.5 -110t22.5 -149.5t-22.5 -149.5t-62.5 -110t-96.5 -67.5t-123.5 -23h-230v700zM320 50q54 0 100 19.5t79.5 57.5t52 94t18.5 129t-18.5 129t-52 94t-79.5 57.5t-100 19.5h-175v-600h175z" />
    <glyph glyph-name="E" unicode="E" horiz-adv-x="590" 
d="M90 700h430v-50h-375v-270h355v-50h-355v-280h385v-50h-440v700z" />
    <glyph glyph-name="F" unicode="F" horiz-adv-x="570" 
d="M90 700h430v-50h-375v-280h350v-50h-350v-320h-55v700z" />
    <glyph glyph-name="G" unicode="G" horiz-adv-x="710" 
d="M365 -10q-68 0 -124.5 24t-98 70t-64.5 113t-23 153t23 153t64.5 113t98 70t124.5 24q102 0 174 -50.5t106 -144.5h-60q-30 72 -87.5 108.5t-132.5 36.5q-54 0 -101 -20.5t-81 -59.5t-53.5 -97t-19.5 -133t19.5 -133t53.5 -97t81 -59.5t101 -20.5t97.5 19.5t74 53.5
t47 81t16.5 101h-240v50h295v-30q0 -75 -20.5 -135t-58.5 -102.5t-91.5 -65t-119.5 -22.5z" />
    <glyph glyph-name="H" unicode="H" horiz-adv-x="700" 
d="M90 700h55v-320h410v320h55v-700h-55v330h-410v-330h-55v700z" />
    <glyph glyph-name="I" unicode="I" horiz-adv-x="235" 
d="M90 700h55v-700h-55v700z" />
    <glyph glyph-name="J" unicode="J" horiz-adv-x="535" 
d="M235 -10q-91 0 -145 49.5t-65 140.5h55q8 -64 49.5 -102t105.5 -38q72 0 116 45.5t44 139.5v475h55v-475q0 -58 -15.5 -102t-43.5 -73.5t-67.5 -44.5t-88.5 -15z" />
    <glyph glyph-name="K" unicode="K" horiz-adv-x="565" 
d="M90 700h55v-335l335 335h70l-345 -345l360 -355h-70l-350 345v-345h-55v700z" />
    <glyph glyph-name="L" unicode="L" horiz-adv-x="535" 
d="M90 700h55v-650h375v-50h-430v700z" />
    <glyph glyph-name="M" unicode="M" horiz-adv-x="845" 
d="M90 700h85l245 -620h5l245 620h85v-700h-55v620h-5l-245 -620h-55l-245 620h-5v-620h-55v700z" />
    <glyph glyph-name="N" unicode="N" horiz-adv-x="725" 
d="M90 700h75l410 -625h5v625h55v-700h-75l-410 625h-5v-625h-55v700z" />
    <glyph glyph-name="O" unicode="O" horiz-adv-x="730" 
d="M365 -10q-68 0 -124.5 24t-98 70t-64.5 113t-23 153t23 153t64.5 113t98 70t124.5 24q67 0 124 -24t98.5 -70t64.5 -113t23 -153t-23 -153t-64.5 -113t-98.5 -70t-124 -24zM365 40q54 0 101 20.5t81 59.5t53.5 97t19.5 133t-19.5 133t-53.5 97t-81 59.5t-101 20.5
t-101 -20.5t-81 -59.5t-53.5 -97t-19.5 -133t19.5 -133t53.5 -97t81 -59.5t101 -20.5z" />
    <glyph glyph-name="P" unicode="P" horiz-adv-x="620" 
d="M90 700h255q51 0 91.5 -15.5t69 -43.5t44 -67.5t15.5 -88.5t-15.5 -88.5t-44 -67.5t-69 -43.5t-91.5 -15.5h-200v-270h-55v700zM340 320q79 0 124.5 45t45.5 120t-45.5 120t-124.5 45h-195v-330h195z" />
    <glyph glyph-name="Q" unicode="Q" horiz-adv-x="730" 
d="M476 9q-26 -9 -53.5 -14t-57.5 -5q-68 0 -124.5 24t-98 70t-64.5 113t-23 153t23 153t64.5 113t98 70t124.5 24q67 0 124 -24t98.5 -70t64.5 -113t23 -153q0 -118 -41 -198t-112 -122l88 -130h-60zM365 40q45 0 81 13l-116 172h60l102 -151q58 35 93 104.5t35 171.5
q0 75 -19.5 133t-53.5 97t-81 59.5t-101 20.5t-101 -20.5t-81 -59.5t-53.5 -97t-19.5 -133t19.5 -133t53.5 -97t81 -59.5t101 -20.5z" />
    <glyph glyph-name="R" unicode="R" horiz-adv-x="620" 
d="M90 700h255q106 0 163 -55.5t57 -149.5t-56.5 -149.5t-158.5 -55.5l210 -290h-65l-210 290h-140v-290h-55v700zM340 340q83 0 126.5 41.5t43.5 113.5t-43.5 113.5t-126.5 41.5h-195v-310h195z" />
    <glyph glyph-name="S" unicode="S" horiz-adv-x="590" 
d="M300 -10q-53 0 -96.5 14t-76 39.5t-54 60.5t-28.5 76h55q12 -37 32 -63.5t46 -43.5t57 -25t65 -8q47 0 82.5 11.5t59.5 31t36 46t12 56.5q0 39 -18.5 64t-48 40.5t-68 25.5t-78 19.5t-78 22t-68 33.5t-48 53t-18.5 82q0 39 15.5 73t44.5 59t70.5 39t94.5 14
q94 0 157.5 -43.5t82.5 -126.5h-55q-8 21 -21.5 42t-35.5 38.5t-53.5 28.5t-74.5 11q-41 0 -73 -10.5t-53.5 -29t-32.5 -43t-11 -52.5q0 -39 18.5 -64t48 -40.5t68 -25.5t78 -19.5t78 -22t68 -33.5t48 -53t18.5 -82q0 -41 -16.5 -77t-48 -62t-77 -41t-103.5 -15z" />
    <glyph glyph-name="T" unicode="T" horiz-adv-x="585" 
d="M265 650h-240v50h535v-50h-240v-650h-55v650z" />
    <glyph glyph-name="U" unicode="U" horiz-adv-x="700" 
d="M350 -10q-60 0 -109 19.5t-83.5 56.5t-53.5 91t-19 123v420h55v-420q0 -58 15 -103t43 -75.5t66.5 -46t85.5 -15.5t85.5 15.5t66.5 46t43 75.5t15 103v420h55v-420q0 -69 -19 -123t-53.5 -91t-83.5 -56.5t-109 -19.5z" />
    <glyph glyph-name="V" unicode="V" horiz-adv-x="615" 
d="M15 700h58l232 -640h5l232 640h58l-255 -700h-75z" />
    <glyph glyph-name="W" unicode="W" horiz-adv-x="895" 
d="M20 700h55l170 -630h5l160 630h75l160 -630h5l170 630h55l-190 -700h-75l-160 625h-5l-160 -625h-75z" />
    <glyph glyph-name="X" unicode="X" horiz-adv-x="570" 
d="M253 360l-228 340h65l195 -295l195 295h65l-228 -340l238 -360h-65l-205 310l-205 -310h-65z" />
    <glyph glyph-name="Y" unicode="Y" horiz-adv-x="565" 
d="M255 270l-250 430h60l215 -375h5l215 375h60l-250 -430v-270h-55v270z" />
    <glyph glyph-name="Z" unicode="Z" horiz-adv-x="555" 
d="M35 40l410 610h-400v50h470v-40l-410 -610h415v-50h-485v40z" />
    <glyph glyph-name="bracketleft" unicode="[" horiz-adv-x="300" 
d="M90 730h175v-50h-125v-830h125v-50h-175v930z" />
    <glyph glyph-name="backslash" unicode="\" horiz-adv-x="340" 
d="M0 730h50l290 -930h-50z" />
    <glyph glyph-name="bracketright" unicode="]" horiz-adv-x="300" 
d="M35 -150h125v830h-125v50h175v-930h-175v50z" />
    <glyph glyph-name="asciicircum" unicode="^" horiz-adv-x="455" 
d="M200 700h55l150 -320h-50l-125 270h-5l-125 -270h-50z" />
    <glyph glyph-name="underscore" unicode="_" horiz-adv-x="360" 
d="M-20 -130h400v-50h-400v50z" />
    <glyph glyph-name="grave" unicode="`" horiz-adv-x="220" 
d="M30 740h70l90 -140h-45z" />
    <glyph glyph-name="a" unicode="a" horiz-adv-x="515" 
d="M220 -10q-83 0 -129 43.5t-46 111.5q0 34 12 62.5t35.5 49t58 32t79.5 11.5h165v40q0 68 -36.5 104t-108.5 36q-60 0 -92.5 -26.5t-47.5 -68.5h-50q15 64 65 104.5t125 40.5q91 0 143 -51.5t52 -138.5v-340h-40l-10 80h-5q-8 -17 -22.5 -33t-36 -29t-49.5 -20.5t-62 -7.5
zM220 40q83 0 129 45t46 120v45h-165q-68 0 -101.5 -30t-33.5 -75t32.5 -75t92.5 -30z" />
    <glyph glyph-name="b" unicode="b" horiz-adv-x="590" 
d="M315 -10q-57 0 -103.5 25.5t-76.5 74.5h-5l-10 -90h-40v700h50v-270h5q30 49 76.5 74.5t103.5 25.5q49 0 90 -17.5t71 -52t47 -84.5t17 -116t-17 -116t-47 -84.5t-71 -52t-90 -17.5zM310 40q37 0 70 14.5t57.5 43t38.5 69t14 93.5q0 52 -14 93t-38.5 69.5t-57.5 43
t-70 14.5q-38 0 -70.5 -14.5t-57 -43t-38.5 -69.5t-14 -93q0 -53 14 -93.5t38.5 -69t57 -43t70.5 -14.5z" />
    <glyph glyph-name="c" unicode="c" horiz-adv-x="540" 
d="M285 -10q-51 0 -94 18.5t-74.5 53t-49 84.5t-17.5 114t17.5 114t49 84.5t74.5 53t94 18.5q72 0 128.5 -35t86.5 -110h-55q-26 45 -64.5 70t-95.5 25q-39 0 -73 -14.5t-59 -43t-39 -69.5t-14 -93q0 -53 14 -93.5t39 -69t59 -43t73 -14.5q57 0 95.5 25t64.5 70h55
q-30 -75 -86.5 -110t-128.5 -35z" />
    <glyph glyph-name="d" unicode="d" horiz-adv-x="590" 
d="M275 -10q-49 0 -90 17.5t-71 52t-47 84.5t-17 116t17 116t47 84.5t71 52t90 17.5q57 0 103.5 -25.5t76.5 -74.5h5v270h50v-700h-40l-10 90h-5q-30 -49 -76.5 -74.5t-103.5 -25.5zM280 40q37 0 70 14.5t57.5 43t38.5 69t14 93.5q0 52 -14 93t-38.5 69.5t-57.5 43t-70 14.5
q-38 0 -70.5 -14.5t-57 -43t-38.5 -69.5t-14 -93q0 -53 14 -93.5t38.5 -69t57 -43t70.5 -14.5z" />
    <glyph glyph-name="e" unicode="e" horiz-adv-x="560" 
d="M285 -10q-51 0 -94 18.5t-74.5 53t-49 84.5t-17.5 114t17.5 114t48.5 84.5t73 53t91 18.5t91 -18t73 -50t48.5 -77.5t17.5 -99.5q0 -10 -0.5 -17t-1.5 -12q-1 -6 -1 -11h-407q2 -45 16 -82.5t38 -65t57 -42.5t74 -15q57 0 95.5 25t64.5 70h55q-26 -72 -83 -108.5
t-132 -36.5zM460 290q-2 43 -16 78t-38 60t-56.5 38.5t-69.5 13.5q-39 0 -71 -14t-55 -39.5t-36.5 -60.5t-17.5 -76h360z" />
    <glyph glyph-name="f" unicode="f" horiz-adv-x="315" 
d="M110 470h-85v50h85v70q0 53 31 81.5t84 28.5h70v-50h-70q-30 0 -47.5 -15t-17.5 -45v-70h135v-50h-135v-470h-50v470z" />
    <glyph glyph-name="g" unicode="g" horiz-adv-x="585" 
d="M290 -200q-83 0 -143.5 38t-86.5 117h54q20 -49 64 -77t112 -28q83 0 126.5 41t43.5 109v125h-5q-26 -45 -72 -70t-103 -25q-49 0 -91 18t-73 51t-48.5 79t-17.5 102t17.5 102t48.5 79t73 51t91 18q57 0 103.5 -25.5t76.5 -74.5h5l5 90h40v-520q0 -90 -57.5 -145
t-162.5 -55zM280 80q37 0 70 14.5t57.5 40.5t38.5 63t14 82t-14 82t-38.5 63t-57.5 40.5t-70 14.5q-38 0 -70.5 -14.5t-57 -40.5t-38.5 -63t-14 -82t14 -82t38.5 -63t57 -40.5t70.5 -14.5z" />
    <glyph glyph-name="h" unicode="h" horiz-adv-x="555" 
d="M80 700h50v-260h5q26 45 66.5 67.5t93.5 22.5q41 0 76 -14.5t60.5 -41.5t39.5 -66t14 -88v-320h-50v320q0 36 -11.5 65.5t-31 50.5t-46 32.5t-56.5 11.5q-34 0 -63 -12.5t-50.5 -34t-34 -50.5t-12.5 -63v-320h-50v700z" />
    <glyph glyph-name="i" unicode="i" horiz-adv-x="200" 
d="M75 520h50v-520h-50v520zM100 610q-17 0 -28.5 11.5t-11.5 28.5t11.5 28.5t28.5 11.5t28.5 -11.5t11.5 -28.5t-11.5 -28.5t-28.5 -11.5z" />
    <glyph glyph-name="j" unicode="j" horiz-adv-x="200" 
d="M-65 -150h75q30 0 47.5 15t17.5 45v610h50v-610q0 -53 -30.5 -81.5t-79.5 -28.5h-80v50zM100 610q-17 0 -28.5 11.5t-11.5 28.5t11.5 28.5t28.5 11.5t28.5 -11.5t11.5 -28.5t-11.5 -28.5t-28.5 -11.5z" />
    <glyph glyph-name="k" unicode="k" horiz-adv-x="470" 
d="M80 700h50v-430l265 250h65l-276 -260l291 -260h-65l-280 250v-250h-50v700z" />
    <glyph glyph-name="l" unicode="l" horiz-adv-x="210" 
d="M80 700h50v-700h-50v700z" />
    <glyph glyph-name="m" unicode="m" horiz-adv-x="855" 
d="M75 520h40l10 -80h5q23 45 61.5 67.5t83.5 22.5q57 0 99 -30.5t61 -79.5h5q26 60 71 85t94 25q37 0 70 -14.5t57.5 -41.5t38.5 -66t14 -87v-321h-50v321q0 37 -10.5 66.5t-29 50t-43 31.5t-52.5 11q-30 0 -56.5 -11.5t-46 -32.5t-31 -50.5t-11.5 -64.5v-321h-50v321
q0 37 -10.5 66.5t-29 50t-43 31.5t-52.5 11t-54 -11t-46.5 -31.5t-32.5 -50t-12 -66.5v-321h-50v520z" />
    <glyph glyph-name="n" unicode="n" horiz-adv-x="550" 
d="M75 520h40l10 -80h5q26 45 66.5 67.5t93.5 22.5q41 0 76 -14.5t60.5 -41.5t39.5 -66t14 -88v-320h-50v320q0 36 -11.5 65.5t-31 50.5t-46 32.5t-56.5 11.5q-34 0 -63 -12.5t-50.5 -34t-34 -50.5t-12.5 -63v-320h-50v520z" />
    <glyph glyph-name="o" unicode="o" horiz-adv-x="570" 
d="M285 -10q-51 0 -94 18.5t-74.5 53t-49 84.5t-17.5 114t17.5 114t49 84.5t74.5 53t94 18.5t94 -18.5t74.5 -53t49 -84.5t17.5 -114t-17.5 -114t-49 -84.5t-74.5 -53t-94 -18.5zM285 40q39 0 73 14.5t59 43t39 69t14 93.5q0 52 -14 93t-39 69.5t-59 43t-73 14.5t-73 -14.5
t-59 -43t-39 -69.5t-14 -93q0 -53 14 -93.5t39 -69t59 -43t73 -14.5z" />
    <glyph glyph-name="p" unicode="p" horiz-adv-x="585" 
d="M75 520h40l10 -90h5q30 49 76.5 74.5t103.5 25.5q49 0 90 -17.5t71 -52t47 -84.5t17 -116t-17 -116t-47 -84.5t-71 -52t-90 -17.5q-57 0 -103.5 25.5t-76.5 74.5h-5v-290h-50v720zM305 40q37 0 70 14.5t57.5 43t38.5 69t14 93.5q0 52 -14 93t-38.5 69.5t-57.5 43
t-70 14.5q-38 0 -70.5 -14.5t-57 -43t-38.5 -69.5t-14 -93q0 -53 14 -93.5t38.5 -69t57 -43t70.5 -14.5z" />
    <glyph glyph-name="q" unicode="q" horiz-adv-x="585" 
d="M460 90h-5q-30 -49 -76.5 -74.5t-103.5 -25.5q-49 0 -90 17.5t-71 52t-47 84.5t-17 116t17 116t47 84.5t71 52t90 17.5q57 0 103.5 -25.5t76.5 -74.5h5l10 90h40v-720h-50v290zM280 40q37 0 70 14.5t57.5 43t38.5 69t14 93.5q0 52 -14 93t-38.5 69.5t-57.5 43t-70 14.5
q-38 0 -70.5 -14.5t-57 -43t-38.5 -69.5t-14 -93q0 -53 14 -93.5t38.5 -69t57 -43t70.5 -14.5z" />
    <glyph glyph-name="r" unicode="r" horiz-adv-x="345" 
d="M75 520h40l10 -80h5q23 42 57.5 61t87.5 19h55v-50h-55q-34 0 -61.5 -11.5t-47 -31.5t-30.5 -47.5t-11 -59.5v-320h-50v520z" />
    <glyph glyph-name="s" unicode="s" horiz-adv-x="470" 
d="M240 -10q-79 0 -132 40.5t-68 104.5h55q6 -19 17 -36t29 -30t42.5 -21t56.5 -8q75 0 107.5 26.5t32.5 68.5q0 38 -24 56.5t-60 29.5t-78.5 18.5t-78.5 23t-60 43.5t-24 79q0 30 12 56.5t35 46t56.5 31t76.5 11.5q68 0 117 -33t68 -97h-55q-6 13 -15.5 27t-25 26
t-37.5 19.5t-52 7.5q-68 0 -99 -26.5t-31 -68.5q0 -37 24 -56t60 -30t78.5 -18.5t78.5 -23t60 -43.5t24 -79q0 -30 -12 -56.5t-36 -46t-59.5 -31t-82.5 -11.5z" />
    <glyph glyph-name="t" unicode="t" horiz-adv-x="335" 
d="M225 0q-53 0 -84 28.5t-31 81.5v360h-85v50h85l10 140h40v-140h135v-50h-135v-360q0 -30 17.5 -45t47.5 -15h70v-50h-70v0z" />
    <glyph glyph-name="u" unicode="u" horiz-adv-x="555" 
d="M265 -10q-41 0 -76 14.5t-60.5 41.5t-39.5 66t-14 88v320h50v-320q0 -36 11.5 -65.5t31 -50.5t46 -32.5t56.5 -11.5q34 0 63 12.5t50.5 34t34 50.5t12.5 63v320h50v-520h-40l-10 80h-5q-53 -90 -160 -90z" />
    <glyph glyph-name="v" unicode="v" horiz-adv-x="485" 
d="M5 520h55l180 -460h5l180 460h55l-205 -520h-65z" />
    <glyph glyph-name="w" unicode="w" horiz-adv-x="695" 
d="M10 520h50l127 -455h5l128 455h55l128 -455h5l127 455h50l-145 -520h-65l-125 440h-5l-125 -440h-65z" />
    <glyph glyph-name="x" unicode="x" horiz-adv-x="450" 
d="M195 267l-175 253h60l145 -210l145 210h60l-175 -253l185 -267h-60l-155 225l-155 -225h-60z" />
    <glyph glyph-name="y" unicode="y" horiz-adv-x="490" 
d="M224 0l-219 520h55l188 -447h5l177 447h55l-285 -720h-55z" />
    <glyph glyph-name="z" unicode="z" horiz-adv-x="430" 
d="M25 40l310 430h-300v50h365v-40l-310 -430h315v-50h-380v40z" />
    <glyph glyph-name="braceleft" unicode="{" horiz-adv-x="305" 
d="M220 -200q-45 0 -72.5 28.5t-27.5 81.5v255q0 34 -17.5 52t-47.5 18v60q30 0 47.5 18t17.5 52v255q0 53 27.5 81.5t72.5 28.5h50v-50h-45q-55 0 -55 -60v-255q0 -42 -18.5 -66.5t-56.5 -28.5v-10q38 -4 56.5 -28.5t18.5 -66.5v-255q0 -60 55 -60h45v-50h-50v0z" />
    <glyph glyph-name="bar" unicode="|" horiz-adv-x="290" 
d="M120 730h50v-930h-50v930z" />
    <glyph glyph-name="braceright" unicode="}" horiz-adv-x="305" 
d="M35 -150h45q55 0 55 60v255q0 42 18.5 66.5t56.5 28.5v10q-38 4 -56.5 28.5t-18.5 66.5v255q0 60 -55 60h-45v50h50q45 0 72.5 -28.5t27.5 -81.5v-255q0 -34 17.5 -52t47.5 -18v-60q-30 0 -47.5 -18t-17.5 -52v-255q0 -53 -27.5 -81.5t-72.5 -28.5h-50v50z" />
    <glyph glyph-name="asciitilde" unicode="~" horiz-adv-x="555" 
d="M380 230q-39 0 -65.5 15t-48 32.5t-42.5 32.5t-49 15q-34 0 -52 -20.5t-18 -69.5h-50q0 68 33.5 104t86.5 36q39 0 65.5 -15t48 -32.5t42.5 -32.5t49 -15q34 0 52 20.5t18 69.5h50q0 -68 -33.5 -104t-86.5 -36z" />
    <glyph glyph-name="nonbreakingspace" unicode="&#xa0;" horiz-adv-x="210" 
 />
    <glyph glyph-name="exclamdown" unicode="&#xa1;" horiz-adv-x="260" 
d="M100 -145l10 465h40l10 -465v-55h-60v55zM130 445q-17 0 -28.5 11.5t-11.5 28.5t11.5 28.5t28.5 11.5t28.5 -11.5t11.5 -28.5t-11.5 -28.5t-28.5 -11.5z" />
    <glyph glyph-name="cent" unicode="&#xa2;" horiz-adv-x="540" 
d="M260 -9q-47 5 -85.5 25.5t-66.5 54.5t-43 81.5t-15 107.5t15 107.5t43 81.5t66.5 54.5t85.5 25.5v101h55v-102q64 -6 113 -45t72 -103h-55q-23 45 -63 72.5t-97 27.5q-39 0 -73 -14.5t-59 -43t-39 -69.5t-14 -93q0 -53 14 -93.5t39 -69t59 -43t73 -14.5q57 0 97 27.5
t63 72.5h55q-23 -64 -72 -103t-113 -45v-102h-55v101z" />
    <glyph glyph-name="sterling" unicode="&#xa3;" horiz-adv-x="570" 
d="M45 50h25q26 0 40.5 16t14.5 54v190h-80v50h80v135q0 51 15 90.5t41 67.5t62 42.5t77 14.5q37 0 70.5 -11.5t59 -34t42.5 -56t23 -78.5h-55q-4 22 -13.5 45.5t-26.5 42t-41.5 30.5t-58.5 12q-60 0 -100 -43t-40 -122v-135h190v-50h-190v-190q0 -21 -4 -34.5t-9 -21.5
q-5 -10 -12 -14h380v-50h-490v50z" />
    <glyph glyph-name="currency" unicode="&#xa4;" horiz-adv-x="570" 
d="M60 130l60 60q-19 23 -32 57.5t-13 72.5t13 72.5t32 57.5l-60 60l35 30l57 -57q29 24 64 35.5t69 11.5t69 -11.5t64 -35.5l57 57l35 -30l-60 -60q19 -23 32 -57.5t13 -72.5t-13 -72.5t-32 -57.5l60 -60l-35 -30l-57 57q-29 -24 -64 -35.5t-69 -11.5t-69 11.5t-64 35.5
l-57 -57zM285 160q72 0 116 44t44 116t-44 116t-116 44t-116 -44t-44 -116t44 -116t116 -44z" />
    <glyph glyph-name="yen" unicode="&#xa5;" horiz-adv-x="565" 
d="M255 140h-185v50h185v90h-185v50h155l-210 370h60l205 -370h5l205 370h60l-210 -370h155v-50h-185v-90h185v-50h-185v-140h-55v140z" />
    <glyph glyph-name="brokenbar" unicode="&#xa6;" horiz-adv-x="290" 
d="M120 170h50v-370h-50v370zM120 730h50v-370h-50v370z" />
    <glyph glyph-name="section" unicode="&#xa7;" horiz-adv-x="610" 
d="M315 -120q-94 0 -157.5 43.5t-82.5 126.5h55q7 -23 21 -44.5t36 -38t53.5 -27t74.5 -10.5q79 0 117 30.5t38 79.5q0 44 -30 64t-75 30t-97.5 16t-97.5 21t-75 45t-30 89q0 26 7 47t17.5 37.5t24 29t26.5 21.5q-23 15 -39 40t-16 70q0 34 13 63t39.5 50.5t65.5 34t92 12.5
q98 0 157 -45t78 -120h-55q-8 19 -20.5 39t-33.5 37t-52 28t-74 11q-79 0 -117 -30.5t-38 -79.5q0 -44 30 -64t75 -30t97.5 -16t97.5 -21t75 -45t30 -89q0 -26 -7 -47t-17.5 -37.5t-24 -29t-26.5 -21.5q23 -15 39 -40t16 -70q0 -34 -13 -63t-39.5 -50.5t-66 -34t-91.5 -12.5
zM420 170q30 15 50 45t20 65q0 31 -14 50.5t-38 31.5t-55 18t-64 11.5t-66.5 11.5t-62.5 17q-30 -15 -50 -45.5t-20 -64.5q0 -31 14 -50.5t38 -31.5t55 -18t64 -11.5t66.5 -11.5t62.5 -17z" />
    <glyph glyph-name="dieresis" unicode="&#xa8;" horiz-adv-x="310" 
d="M70 630q-17 0 -28.5 11.5t-11.5 28.5t11.5 28.5t28.5 11.5t28.5 -11.5t11.5 -28.5t-11.5 -28.5t-28.5 -11.5zM240 630q-17 0 -28.5 11.5t-11.5 28.5t11.5 28.5t28.5 11.5t28.5 -11.5t11.5 -28.5t-11.5 -28.5t-28.5 -11.5z" />
    <glyph glyph-name="copyright" unicode="&#xa9;" horiz-adv-x="850" 
d="M425 -10q-79 0 -145 26.5t-114 74.5t-74.5 114t-26.5 145t26.5 145t74.5 114t114 74.5t145 26.5t145 -26.5t114 -74.5t74.5 -114t26.5 -145t-26.5 -145t-74.5 -114t-114 -74.5t-145 -26.5zM425 35q67 0 124 23t98.5 65t64.5 100t23 127t-23 127t-64.5 100t-98.5 65
t-124 23q-68 0 -124.5 -23t-98 -65t-64.5 -100t-23 -127t23 -127t64.5 -100t98 -65t124.5 -23zM430 160q-75 0 -122.5 50t-47.5 140t47.5 140t122.5 50q57 0 98.5 -30.5t56.5 -79.5h-50q-11 30 -37 47.5t-68 17.5q-60 0 -92.5 -36.5t-32.5 -108.5t32.5 -108.5t92.5 -36.5
q42 0 68 17.5t37 47.5h50q-15 -49 -56.5 -79.5t-98.5 -30.5z" />
    <glyph glyph-name="ordfeminine" unicode="&#xaa;" horiz-adv-x="370" 
d="M160 350q-64 0 -97 31t-33 84q0 42 31.5 71t88.5 29h125v15q0 38 -25 61.5t-70 23.5q-41 0 -59.5 -18t-25.5 -37h-50q4 21 15.5 39t29.5 31.5t41 21.5t49 8q72 0 108.5 -35t36.5 -95v-225h-40l-5 60h-5q-6 -11 -15.5 -22.5t-23.5 -21t-33 -15.5t-43 -6zM165 395
q49 0 79.5 30t30.5 75v20h-130q-30 0 -47.5 -17t-17.5 -43q0 -30 20 -47.5t65 -17.5z" />
    <glyph glyph-name="guillemotleft" unicode="&#xab;" horiz-adv-x="555" 
d="M50 265l205 230h70l-205 -228v-4l205 -228h-70zM240 265l205 230h70l-205 -228v-4l205 -228h-70z" />
    <glyph glyph-name="logicalnot" unicode="&#xac;" horiz-adv-x="500" 
d="M400 310h-355v50h405v-190h-50v140z" />
    <glyph glyph-name="uni00AD" unicode="&#xad;" horiz-adv-x="375" 
d="M40 310h295v-50h-295v50z" />
    <glyph glyph-name="registered" unicode="&#xae;" horiz-adv-x="850" 
d="M425 -10q-79 0 -145 26.5t-114 74.5t-74.5 114t-26.5 145t26.5 145t74.5 114t114 74.5t145 26.5t145 -26.5t114 -74.5t74.5 -114t26.5 -145t-26.5 -145t-74.5 -114t-114 -74.5t-145 -26.5zM425 35q67 0 124 23t98.5 65t64.5 100t23 127t-23 127t-64.5 100t-98.5 65
t-124 23q-68 0 -124.5 -23t-98 -65t-64.5 -100t-23 -127t23 -127t64.5 -100t98 -65t124.5 -23zM310 540h145q60 0 92.5 -31t32.5 -84q0 -28 -8.5 -49t-23 -35t-33.5 -21.5t-40 -9.5l105 -145h-55l-105 145h-65v-145h-45v375zM450 350q85 0 85 75t-85 75h-95v-150h95z" />
    <glyph glyph-name="macron" unicode="&#xaf;" horiz-adv-x="330" 
d="M30 690h270v-45h-270v45z" />
    <glyph glyph-name="degree" unicode="&#xb0;" horiz-adv-x="380" 
d="M190 440q-30 0 -55 10t-42.5 28t-27.5 42.5t-10 54.5t10 54.5t27.5 42.5t42.5 28t55 10t55 -10t42.5 -28t27.5 -42.5t10 -54.5t-10 -54.5t-27.5 -42.5t-42.5 -28t-55 -10zM190 485q42 0 66 24t24 66t-24 66t-66 24t-66 -24t-24 -66t24 -66t66 -24z" />
    <glyph glyph-name="plusminus" unicode="&#xb1;" horiz-adv-x="550" 
d="M45 50h460v-50h-460v50zM250 295h-205v50h205v185h50v-185h205v-50h-205v-185h-50v185z" />
    <glyph glyph-name="uni00B2" unicode="&#xb2;" horiz-adv-x="335" 
d="M35 445l170 160q40 37 40 80q0 38 -20.5 56.5t-54.5 18.5q-42 0 -61.5 -20.5t-23.5 -54.5h-50q4 24 13.5 46t26 38.5t40 26t55.5 9.5q30 0 53.5 -9.5t39 -26t24 -38.5t8.5 -46q0 -30 -12.5 -55.5t-32.5 -44.5l-150 -140h190v-45h-255v45z" />
    <glyph glyph-name="uni00B3" unicode="&#xb3;" horiz-adv-x="335" 
d="M160 395q-53 0 -89.5 28t-45.5 77h50q6 -23 25 -41.5t60 -18.5q44 0 64.5 22.5t20.5 52.5t-19.5 50t-55.5 20h-50v45h55q30 0 47.5 15.5t17.5 44.5q0 34 -21 52t-59 18q-42 0 -62 -20.5t-26 -54.5h-47q2 24 11.5 46t26 38.5t41 26t56.5 9.5q64 0 97 -32.5t33 -77.5
q0 -34 -17 -56.5t-43 -33.5q38 -15 51.5 -39.5t13.5 -50.5q0 -53 -33.5 -86.5t-101.5 -33.5z" />
    <glyph glyph-name="acute" unicode="&#xb4;" horiz-adv-x="220" 
d="M120 740h70l-115 -140h-45z" />
    <glyph glyph-name="uni00B5" unicode="&#xb5;" horiz-adv-x="555" 
d="M75 520h50v-320q0 -36 11.5 -65.5t31 -50.5t46 -32.5t56.5 -11.5q34 0 63 12.5t50.5 34t34 50.5t12.5 63v320h50v-520h-40l-10 80h-5q-53 -90 -160 -90q-36 0 -61 10t-42 22q-19 14 -32 33h-5v-235h-50v700z" />
    <glyph glyph-name="paragraph" unicode="&#xb6;" horiz-adv-x="505" 
d="M210 350q-72 0 -116 46t-44 129t44 129t116 46h205v-810h-50v760h-105v-760h-50v460z" />
    <glyph glyph-name="periodcentered" unicode="&#xb7;" horiz-adv-x="210" 
d="M105 230q-17 0 -28.5 11.5t-11.5 28.5t11.5 28.5t28.5 11.5t28.5 -11.5t11.5 -28.5t-11.5 -28.5t-28.5 -11.5z" />
    <glyph glyph-name="cedilla" unicode="&#xb8;" horiz-adv-x="205" 
d="M30 -165h50q23 0 36.5 13t13.5 32t-13.5 32t-36.5 13h-40v30l20 45h45l-15 -35q38 -4 61.5 -25.5t23.5 -59.5t-26 -61.5t-64 -23.5h-55v40z" />
    <glyph glyph-name="uni00B9" unicode="&#xb9;" horiz-adv-x="230" 
d="M115 690h-85v50h60q25 0 25 25v35h50v-400h-50v290z" />
    <glyph glyph-name="ordmasculine" unicode="&#xba;" horiz-adv-x="380" 
d="M190 350q-68 0 -111.5 46.5t-43.5 133.5t43.5 133.5t111.5 46.5t111.5 -46.5t43.5 -133.5t-43.5 -133.5t-111.5 -46.5zM190 395q45 0 75 33.5t30 101.5t-30 101.5t-75 33.5t-75 -33.5t-30 -101.5t30 -101.5t75 -33.5z" />
    <glyph glyph-name="guillemotright" unicode="&#xbb;" horiz-adv-x="555" 
d="M245 263v4l-205 228h70l205 -230l-205 -230h-70zM435 263v4l-205 228h70l205 -230l-205 -230h-70z" />
    <glyph glyph-name="onequarter" unicode="&#xbc;" horiz-adv-x="740" 
d="M530 700h55l-435 -700h-55zM145 590h-85v50h60q25 0 25 25v35h50v-400h-50v290zM580 90h-200v45l180 265h70v-265h55v-45h-55v-90h-50v90zM580 135v205h-5l-140 -205h145z" />
    <glyph glyph-name="onehalf" unicode="&#xbd;" horiz-adv-x="762" 
d="M530 700h55l-435 -700h-55zM145 590h-85v50h60q25 0 25 25v35h50v-400h-50v290zM437 45l170 160q40 37 40 80q0 38 -20.5 56.5t-54.5 18.5q-42 0 -61.5 -20.5t-23.5 -54.5h-50q4 24 13.5 46t26 38.5t40 26t55.5 9.5q30 0 53.5 -9.5t39 -26t24 -38.5t8.5 -46
q0 -30 -12.5 -55.5t-32.5 -44.5l-150 -140h190v-45h-255v45z" />
    <glyph glyph-name="threequarters" unicode="&#xbe;" horiz-adv-x="825" 
d="M615 700h55l-435 -700h-55zM190 295q-53 0 -89.5 28t-45.5 77h50q6 -23 25 -41.5t60 -18.5q44 0 64.5 22.5t20.5 52.5t-19.5 50t-55.5 20h-50v45h55q30 0 47.5 15.5t17.5 44.5q0 34 -21 52t-59 18q-42 0 -62 -20.5t-26 -54.5h-47q2 24 11.5 46t26 38.5t41 26t56.5 9.5
q64 0 97 -32.5t33 -77.5q0 -34 -17 -56.5t-43 -33.5q38 -15 51.5 -39.5t13.5 -50.5q0 -53 -33.5 -86.5t-101.5 -33.5zM665 90h-200v45l180 265h70v-265h55v-45h-55v-90h-50v90zM665 135v205h-5l-140 -205h145z" />
    <glyph glyph-name="questiondown" unicode="&#xbf;" horiz-adv-x="495" 
d="M255 -210q-45 0 -81 13.5t-61.5 36.5t-39 55t-13.5 70q0 34 7 59t20.5 45.5t31.5 37t41 33.5q17 13 30 24.5t22 26t13.5 34.5t4.5 50v45h50v-45q0 -39 -5.5 -65t-17 -45t-28.5 -33.5t-39 -31.5q-17 -13 -31 -25.5t-23.5 -27.5t-15 -34t-5.5 -43q0 -57 38 -93.5t102 -36.5
t103 35.5t47 99.5h55q-4 -39 -19.5 -73t-42 -59t-62.5 -39t-81 -14zM255 445q-17 0 -28.5 11.5t-11.5 28.5t11.5 28.5t28.5 11.5t28.5 -11.5t11.5 -28.5t-11.5 -28.5t-28.5 -11.5z" />
    <glyph glyph-name="Agrave" unicode="&#xc0;" horiz-adv-x="615" 
d="M275 700h65l265 -700h-55l-70 185h-345l-70 -185h-55zM461 235l-151 400h-5l-151 -400h307zM170 910h70l90 -140h-45z" />
    <glyph glyph-name="Aacute" unicode="&#xc1;" horiz-adv-x="615" 
d="M275 700h65l265 -700h-55l-70 185h-345l-70 -185h-55zM461 235l-151 400h-5l-151 -400h307zM380 910h70l-115 -140h-45z" />
    <glyph glyph-name="Acircumflex" unicode="&#xc2;" horiz-adv-x="615" 
d="M275 700h65l265 -700h-55l-70 185h-345l-70 -185h-55zM461 235l-151 400h-5l-151 -400h307zM290 915h45l130 -145h-55l-95 105h-5l-95 -105h-55z" />
    <glyph glyph-name="Atilde" unicode="&#xc3;" horiz-adv-x="615" 
d="M275 700h65l265 -700h-55l-70 185h-345l-70 -185h-55zM461 235l-151 400h-5l-151 -400h307zM375 790q-23 0 -39.5 8.5t-30.5 19t-27 19t-28 8.5t-25 -12t-10 -38h-50q0 49 21 72t59 23q22 0 39 -8.5t31 -19t27 -19t28 -8.5t25 12t10 38h50q0 -49 -21 -72t-59 -23z" />
    <glyph glyph-name="Adieresis" unicode="&#xc4;" horiz-adv-x="615" 
d="M275 700h65l265 -700h-55l-70 185h-345l-70 -185h-55zM461 235l-151 400h-5l-151 -400h307zM225 800q-17 0 -28.5 11.5t-11.5 28.5t11.5 28.5t28.5 11.5t28.5 -11.5t11.5 -28.5t-11.5 -28.5t-28.5 -11.5zM395 800q-17 0 -28.5 11.5t-11.5 28.5t11.5 28.5t28.5 11.5
t28.5 -11.5t11.5 -28.5t-11.5 -28.5t-28.5 -11.5z" />
    <glyph glyph-name="Aring" unicode="&#xc5;" horiz-adv-x="615" 
d="M275 700h65l265 -700h-55l-70 185h-345l-70 -185h-55zM461 235l-151 400h-5l-151 -400h307zM310 750q-42 0 -68.5 26.5t-26.5 68.5t26.5 68.5t68.5 26.5t68.5 -26.5t26.5 -68.5t-26.5 -68.5t-68.5 -26.5zM310 790q24 0 39.5 15.5t15.5 39.5t-15.5 39.5t-39.5 15.5
t-39.5 -15.5t-15.5 -39.5t15.5 -39.5t39.5 -15.5z" />
    <glyph glyph-name="AE" unicode="&#xc6;" horiz-adv-x="925" 
d="M330 700h525v-50h-375v-270h355v-50h-355v-280h385v-50h-440v175h-294l-86 -175h-60zM425 230v420h-60l-207 -420h267z" />
    <glyph glyph-name="Ccedilla" unicode="&#xc7;" horiz-adv-x="690" 
d="M300 -165h50q23 0 36.5 13t13.5 32t-13.5 32t-36.5 13h-40v30l16 37q-60 6 -109.5 33t-85.5 72.5t-56 109t-20 143.5q0 86 23 153t64.5 113t98 70t124.5 24q102 0 174 -50.5t106 -144.5h-60q-30 72 -87.5 108.5t-132.5 36.5q-54 0 -101 -20.5t-81 -59.5t-53.5 -97
t-19.5 -133t19.5 -133t53.5 -97t81 -59.5t101 -20.5q75 0 132.5 36.5t87.5 108.5h60q-34 -94 -104.5 -143.5t-170.5 -51.5l-10 -25q38 -4 61.5 -25.5t23.5 -59.5t-26 -61.5t-64 -23.5h-55v40z" />
    <glyph glyph-name="Egrave" unicode="&#xc8;" horiz-adv-x="590" 
d="M90 700h430v-50h-375v-270h355v-50h-355v-280h385v-50h-440v700zM175 910h70l90 -140h-45z" />
    <glyph glyph-name="Eacute" unicode="&#xc9;" horiz-adv-x="590" 
d="M90 700h430v-50h-375v-270h355v-50h-355v-280h385v-50h-440v700zM380 910h70l-115 -140h-45z" />
    <glyph glyph-name="Ecircumflex" unicode="&#xca;" horiz-adv-x="590" 
d="M90 700h430v-50h-375v-270h355v-50h-355v-280h385v-50h-440v700zM290 915h45l130 -145h-55l-95 105h-5l-95 -105h-55z" />
    <glyph glyph-name="Edieresis" unicode="&#xcb;" horiz-adv-x="590" 
d="M90 700h430v-50h-375v-270h355v-50h-355v-280h385v-50h-440v700zM225 800q-17 0 -28.5 11.5t-11.5 28.5t11.5 28.5t28.5 11.5t28.5 -11.5t11.5 -28.5t-11.5 -28.5t-28.5 -11.5zM395 800q-17 0 -28.5 11.5t-11.5 28.5t11.5 28.5t28.5 11.5t28.5 -11.5t11.5 -28.5
t-11.5 -28.5t-28.5 -11.5z" />
    <glyph glyph-name="Igrave" unicode="&#xcc;" horiz-adv-x="235" 
d="M90 700h55v-700h-55v700zM-20 910h70l90 -140h-45z" />
    <glyph glyph-name="Iacute" unicode="&#xcd;" horiz-adv-x="235" 
d="M90 700h55v-700h-55v700zM190 910h70l-115 -140h-45z" />
    <glyph glyph-name="Icircumflex" unicode="&#xce;" horiz-adv-x="235" 
d="M90 700h55v-700h-55v700zM100 915h45l130 -145h-55l-95 105h-5l-95 -105h-55z" />
    <glyph glyph-name="Idieresis" unicode="&#xcf;" horiz-adv-x="235" 
d="M90 700h55v-700h-55v700zM35 800q-17 0 -28.5 11.5t-11.5 28.5t11.5 28.5t28.5 11.5t28.5 -11.5t11.5 -28.5t-11.5 -28.5t-28.5 -11.5zM205 800q-17 0 -28.5 11.5t-11.5 28.5t11.5 28.5t28.5 11.5t28.5 -11.5t11.5 -28.5t-11.5 -28.5t-28.5 -11.5z" />
    <glyph glyph-name="Eth" unicode="&#xd0;" horiz-adv-x="685" 
d="M95 330h-75v50h75v320h230q67 0 123.5 -23t96.5 -67.5t62.5 -110t22.5 -149.5t-22.5 -149.5t-62.5 -110t-96.5 -67.5t-123.5 -23h-230v330zM325 50q54 0 100 19.5t79.5 57.5t52 94t18.5 129t-18.5 129t-52 94t-79.5 57.5t-100 19.5h-175v-270h195v-50h-195v-280h175z" />
    <glyph glyph-name="Ntilde" unicode="&#xd1;" horiz-adv-x="725" 
d="M90 700h75l410 -625h5v625h55v-700h-75l-410 625h-5v-625h-55v700zM425 790q-23 0 -39.5 8.5t-30.5 19t-27 19t-28 8.5t-25 -12t-10 -38h-50q0 49 21 72t59 23q22 0 39 -8.5t31 -19t27 -19t28 -8.5t25 12t10 38h50q0 -49 -21 -72t-59 -23z" />
    <glyph glyph-name="Ograve" unicode="&#xd2;" horiz-adv-x="730" 
d="M365 -10q-68 0 -124.5 24t-98 70t-64.5 113t-23 153t23 153t64.5 113t98 70t124.5 24q67 0 124 -24t98.5 -70t64.5 -113t23 -153t-23 -153t-64.5 -113t-98.5 -70t-124 -24zM365 40q54 0 101 20.5t81 59.5t53.5 97t19.5 133t-19.5 133t-53.5 97t-81 59.5t-101 20.5
t-101 -20.5t-81 -59.5t-53.5 -97t-19.5 -133t19.5 -133t53.5 -97t81 -59.5t101 -20.5zM230 910h70l90 -140h-45z" />
    <glyph glyph-name="Oacute" unicode="&#xd3;" horiz-adv-x="730" 
d="M365 -10q-68 0 -124.5 24t-98 70t-64.5 113t-23 153t23 153t64.5 113t98 70t124.5 24q67 0 124 -24t98.5 -70t64.5 -113t23 -153t-23 -153t-64.5 -113t-98.5 -70t-124 -24zM365 40q54 0 101 20.5t81 59.5t53.5 97t19.5 133t-19.5 133t-53.5 97t-81 59.5t-101 20.5
t-101 -20.5t-81 -59.5t-53.5 -97t-19.5 -133t19.5 -133t53.5 -97t81 -59.5t101 -20.5zM435 910h70l-115 -140h-45z" />
    <glyph glyph-name="Ocircumflex" unicode="&#xd4;" horiz-adv-x="730" 
d="M365 -10q-68 0 -124.5 24t-98 70t-64.5 113t-23 153t23 153t64.5 113t98 70t124.5 24q67 0 124 -24t98.5 -70t64.5 -113t23 -153t-23 -153t-64.5 -113t-98.5 -70t-124 -24zM365 40q54 0 101 20.5t81 59.5t53.5 97t19.5 133t-19.5 133t-53.5 97t-81 59.5t-101 20.5
t-101 -20.5t-81 -59.5t-53.5 -97t-19.5 -133t19.5 -133t53.5 -97t81 -59.5t101 -20.5zM345 915h45l130 -145h-55l-95 105h-5l-95 -105h-55z" />
    <glyph glyph-name="Otilde" unicode="&#xd5;" horiz-adv-x="730" 
d="M365 -10q-68 0 -124.5 24t-98 70t-64.5 113t-23 153t23 153t64.5 113t98 70t124.5 24q67 0 124 -24t98.5 -70t64.5 -113t23 -153t-23 -153t-64.5 -113t-98.5 -70t-124 -24zM365 40q54 0 101 20.5t81 59.5t53.5 97t19.5 133t-19.5 133t-53.5 97t-81 59.5t-101 20.5
t-101 -20.5t-81 -59.5t-53.5 -97t-19.5 -133t19.5 -133t53.5 -97t81 -59.5t101 -20.5zM430 790q-23 0 -39.5 8.5t-30.5 19t-27 19t-28 8.5t-25 -12t-10 -38h-50q0 49 21 72t59 23q22 0 39 -8.5t31 -19t27 -19t28 -8.5t25 12t10 38h50q0 -49 -21 -72t-59 -23z" />
    <glyph glyph-name="Odieresis" unicode="&#xd6;" horiz-adv-x="730" 
d="M365 -10q-68 0 -124.5 24t-98 70t-64.5 113t-23 153t23 153t64.5 113t98 70t124.5 24q67 0 124 -24t98.5 -70t64.5 -113t23 -153t-23 -153t-64.5 -113t-98.5 -70t-124 -24zM365 40q54 0 101 20.5t81 59.5t53.5 97t19.5 133t-19.5 133t-53.5 97t-81 59.5t-101 20.5
t-101 -20.5t-81 -59.5t-53.5 -97t-19.5 -133t19.5 -133t53.5 -97t81 -59.5t101 -20.5zM280 800q-17 0 -28.5 11.5t-11.5 28.5t11.5 28.5t28.5 11.5t28.5 -11.5t11.5 -28.5t-11.5 -28.5t-28.5 -11.5zM450 800q-17 0 -28.5 11.5t-11.5 28.5t11.5 28.5t28.5 11.5t28.5 -11.5
t11.5 -28.5t-11.5 -28.5t-28.5 -11.5z" />
    <glyph glyph-name="multiply" unicode="&#xd7;" horiz-adv-x="530" 
d="M55 150l175 170l-175 170l35 35l175 -170l175 170l35 -35l-175 -170l175 -170l-35 -35l-175 170l-175 -170z" />
    <glyph glyph-name="Oslash" unicode="&#xd8;" horiz-adv-x="730" 
d="M171 56q-54 45 -85 118.5t-31 175.5q0 86 23 153t64.5 113t98 70t124.5 24q42 0 81.5 -10t73.5 -30l30 55h55l-46 -81q54 -45 85 -118.5t31 -175.5q0 -86 -23 -153t-64.5 -113t-98.5 -70t-124 -24q-42 0 -81.5 10t-73.5 30l-30 -55h-55zM493 626q-29 18 -61.5 26t-66.5 8
q-54 0 -101 -20.5t-81 -59.5t-53.5 -97t-19.5 -133q0 -83 24 -145.5t64 -100.5zM365 40q54 0 101 20.5t81 59.5t53.5 97t19.5 133q0 83 -24 145.5t-64 100.5l-295 -522q29 -18 61.5 -26t66.5 -8z" />
    <glyph glyph-name="Ugrave" unicode="&#xd9;" horiz-adv-x="700" 
d="M350 -10q-60 0 -109 19.5t-83.5 56.5t-53.5 91t-19 123v420h55v-420q0 -58 15 -103t43 -75.5t66.5 -46t85.5 -15.5t85.5 15.5t66.5 46t43 75.5t15 103v420h55v-420q0 -69 -19 -123t-53.5 -91t-83.5 -56.5t-109 -19.5zM215 910h70l90 -140h-45z" />
    <glyph glyph-name="Uacute" unicode="&#xda;" horiz-adv-x="700" 
d="M350 -10q-60 0 -109 19.5t-83.5 56.5t-53.5 91t-19 123v420h55v-420q0 -58 15 -103t43 -75.5t66.5 -46t85.5 -15.5t85.5 15.5t66.5 46t43 75.5t15 103v420h55v-420q0 -69 -19 -123t-53.5 -91t-83.5 -56.5t-109 -19.5zM420 910h70l-115 -140h-45z" />
    <glyph glyph-name="Ucircumflex" unicode="&#xdb;" horiz-adv-x="700" 
d="M350 -10q-60 0 -109 19.5t-83.5 56.5t-53.5 91t-19 123v420h55v-420q0 -58 15 -103t43 -75.5t66.5 -46t85.5 -15.5t85.5 15.5t66.5 46t43 75.5t15 103v420h55v-420q0 -69 -19 -123t-53.5 -91t-83.5 -56.5t-109 -19.5zM330 915h45l130 -145h-55l-95 105h-5l-95 -105h-55z
" />
    <glyph glyph-name="Udieresis" unicode="&#xdc;" horiz-adv-x="700" 
d="M350 -10q-60 0 -109 19.5t-83.5 56.5t-53.5 91t-19 123v420h55v-420q0 -58 15 -103t43 -75.5t66.5 -46t85.5 -15.5t85.5 15.5t66.5 46t43 75.5t15 103v420h55v-420q0 -69 -19 -123t-53.5 -91t-83.5 -56.5t-109 -19.5zM265 800q-17 0 -28.5 11.5t-11.5 28.5t11.5 28.5
t28.5 11.5t28.5 -11.5t11.5 -28.5t-11.5 -28.5t-28.5 -11.5zM435 800q-17 0 -28.5 11.5t-11.5 28.5t11.5 28.5t28.5 11.5t28.5 -11.5t11.5 -28.5t-11.5 -28.5t-28.5 -11.5z" />
    <glyph glyph-name="Yacute" unicode="&#xdd;" horiz-adv-x="565" 
d="M255 270l-250 430h60l215 -375h5l215 375h60l-250 -430v-270h-55v270zM350 910h70l-115 -140h-45z" />
    <glyph glyph-name="Thorn" unicode="&#xde;" horiz-adv-x="680" 
d="M90 700h55v-175h300q91 0 140.5 -48t49.5 -127t-49.5 -127t-140.5 -48h-300v-175h-55v700zM440 225q68 0 104 34t36 91t-36 91t-104 34h-295v-250h295z" />
    <glyph glyph-name="germandbls" unicode="&#xdf;" horiz-adv-x="555" 
d="M75 505q0 47 14.5 85t41 64.5t64.5 41t85 14.5t85 -14t64.5 -38.5t41 -57.5t14.5 -70q0 -64 -33 -109.5t-82 -60.5q64 -15 102 -59t38 -116q0 -83 -55 -134t-160 -51h-55v50h55q83 0 124 38t41 102t-41 102t-124 38h-55v50h40q34 0 62.5 11.5t49 31t32 46t11.5 56.5
q0 28 -11 52.5t-31 43t-48.5 29t-64.5 10.5q-72 0 -113.5 -41.5t-41.5 -113.5v-505h-50v505z" />
    <glyph glyph-name="agrave" unicode="&#xe0;" horiz-adv-x="515" 
d="M220 -10q-83 0 -129 43.5t-46 111.5q0 34 12 62.5t35.5 49t58 32t79.5 11.5h165v40q0 68 -36.5 104t-108.5 36q-60 0 -92.5 -26.5t-47.5 -68.5h-50q15 64 65 104.5t125 40.5q91 0 143 -51.5t52 -138.5v-340h-40l-10 80h-5q-8 -17 -22.5 -33t-36 -29t-49.5 -20.5t-62 -7.5
zM220 40q83 0 129 45t46 120v45h-165q-68 0 -101.5 -30t-33.5 -75t32.5 -75t92.5 -30zM125 740h70l90 -140h-45z" />
    <glyph glyph-name="aacute" unicode="&#xe1;" horiz-adv-x="515" 
d="M220 -10q-83 0 -129 43.5t-46 111.5q0 34 12 62.5t35.5 49t58 32t79.5 11.5h165v40q0 68 -36.5 104t-108.5 36q-60 0 -92.5 -26.5t-47.5 -68.5h-50q15 64 65 104.5t125 40.5q91 0 143 -51.5t52 -138.5v-340h-40l-10 80h-5q-8 -17 -22.5 -33t-36 -29t-49.5 -20.5t-62 -7.5
zM220 40q83 0 129 45t46 120v45h-165q-68 0 -101.5 -30t-33.5 -75t32.5 -75t92.5 -30zM330 740h70l-115 -140h-45z" />
    <glyph glyph-name="acircumflex" unicode="&#xe2;" horiz-adv-x="515" 
d="M220 -10q-83 0 -129 43.5t-46 111.5q0 34 12 62.5t35.5 49t58 32t79.5 11.5h165v40q0 68 -36.5 104t-108.5 36q-60 0 -92.5 -26.5t-47.5 -68.5h-50q15 64 65 104.5t125 40.5q91 0 143 -51.5t52 -138.5v-340h-40l-10 80h-5q-8 -17 -22.5 -33t-36 -29t-49.5 -20.5t-62 -7.5
zM220 40q83 0 129 45t46 120v45h-165q-68 0 -101.5 -30t-33.5 -75t32.5 -75t92.5 -30zM240 745h45l130 -145h-55l-95 105h-5l-95 -105h-55z" />
    <glyph glyph-name="atilde" unicode="&#xe3;" horiz-adv-x="515" 
d="M220 -10q-83 0 -129 43.5t-46 111.5q0 34 12 62.5t35.5 49t58 32t79.5 11.5h165v40q0 68 -36.5 104t-108.5 36q-60 0 -92.5 -26.5t-47.5 -68.5h-50q15 64 65 104.5t125 40.5q91 0 143 -51.5t52 -138.5v-340h-40l-10 80h-5q-8 -17 -22.5 -33t-36 -29t-49.5 -20.5t-62 -7.5
zM220 40q83 0 129 45t46 120v45h-165q-68 0 -101.5 -30t-33.5 -75t32.5 -75t92.5 -30zM325 620q-23 0 -39.5 8.5t-30.5 19t-27 19t-28 8.5t-25 -12t-10 -38h-50q0 49 21 72t59 23q22 0 39 -8.5t31 -19t27 -19t28 -8.5t25 12t10 38h50q0 -49 -21 -72t-59 -23z" />
    <glyph glyph-name="adieresis" unicode="&#xe4;" horiz-adv-x="515" 
d="M220 -10q-83 0 -129 43.5t-46 111.5q0 34 12 62.5t35.5 49t58 32t79.5 11.5h165v40q0 68 -36.5 104t-108.5 36q-60 0 -92.5 -26.5t-47.5 -68.5h-50q15 64 65 104.5t125 40.5q91 0 143 -51.5t52 -138.5v-340h-40l-10 80h-5q-8 -17 -22.5 -33t-36 -29t-49.5 -20.5t-62 -7.5
zM220 40q83 0 129 45t46 120v45h-165q-68 0 -101.5 -30t-33.5 -75t32.5 -75t92.5 -30zM175 630q-17 0 -28.5 11.5t-11.5 28.5t11.5 28.5t28.5 11.5t28.5 -11.5t11.5 -28.5t-11.5 -28.5t-28.5 -11.5zM345 630q-17 0 -28.5 11.5t-11.5 28.5t11.5 28.5t28.5 11.5t28.5 -11.5
t11.5 -28.5t-11.5 -28.5t-28.5 -11.5z" />
    <glyph glyph-name="aring" unicode="&#xe5;" horiz-adv-x="515" 
d="M220 -10q-83 0 -129 43.5t-46 111.5q0 34 12 62.5t35.5 49t58 32t79.5 11.5h165v40q0 68 -36.5 104t-108.5 36q-60 0 -92.5 -26.5t-47.5 -68.5h-50q15 64 65 104.5t125 40.5q91 0 143 -51.5t52 -138.5v-340h-40l-10 80h-5q-8 -17 -22.5 -33t-36 -29t-49.5 -20.5t-62 -7.5
zM220 40q83 0 129 45t46 120v45h-165q-68 0 -101.5 -30t-33.5 -75t32.5 -75t92.5 -30zM260 580q-42 0 -68.5 26.5t-26.5 68.5t26.5 68.5t68.5 26.5t68.5 -26.5t26.5 -68.5t-26.5 -68.5t-68.5 -26.5zM260 620q24 0 39.5 15.5t15.5 39.5t-15.5 39.5t-39.5 15.5t-39.5 -15.5
t-15.5 -39.5t15.5 -39.5t39.5 -15.5z" />
    <glyph glyph-name="ae" unicode="&#xe6;" horiz-adv-x="895" 
d="M220 -10q-41 0 -73.5 11.5t-55 31.5t-34.5 47.5t-12 59.5t12 59.5t34.5 47.5t55 31.5t73.5 11.5h175v50q0 68 -36.5 104t-108.5 36q-60 0 -92.5 -26.5t-47.5 -68.5h-50q15 64 65 104.5t125 40.5t120 -33.5t60 -86.5q30 60 80 90t110 30q47 0 88 -18t71.5 -50t48 -77.5
t17.5 -99.5q0 -10 -0.5 -17t-1.5 -12q-1 -6 -1 -11h-397q0 -45 15 -82.5t39.5 -65t57 -42.5t68.5 -15q53 0 92.5 26.5t62.5 68.5h55q-13 -36 -35 -63t-49.5 -45t-59.5 -27.5t-66 -9.5q-72 0 -123 34t-77 91q-26 -57 -76 -91t-129 -34zM220 40q83 0 129 45t46 120v35h-175
q-60 0 -92.5 -29t-32.5 -71q0 -45 34 -72.5t91 -27.5zM795 290q-2 43 -16 78t-37.5 60t-54.5 38.5t-67 13.5q-38 0 -68.5 -14t-53 -39.5t-36 -60.5t-17.5 -76h350z" />
    <glyph glyph-name="ccedilla" unicode="&#xe7;" horiz-adv-x="540" 
d="M215 -165h50q23 0 36.5 13t13.5 32t-13.5 32t-36.5 13h-40v30l17 39q-42 7 -77.5 28t-61 55t-39.5 80t-14 103q0 64 17.5 114t49 84.5t74.5 53t94 18.5q72 0 128.5 -35t86.5 -110h-55q-26 45 -64.5 70t-95.5 25q-39 0 -73 -14.5t-59 -43t-39 -69.5t-14 -93
q0 -53 14 -93.5t39 -69t59 -43t73 -14.5q57 0 95.5 25t64.5 70h55q-30 -75 -86.5 -110t-128.5 -35l-10 -25q38 -4 61.5 -25.5t23.5 -59.5t-26 -61.5t-64 -23.5h-55v40z" />
    <glyph glyph-name="egrave" unicode="&#xe8;" horiz-adv-x="560" 
d="M285 -10q-51 0 -94 18.5t-74.5 53t-49 84.5t-17.5 114t17.5 114t48.5 84.5t73 53t91 18.5t91 -18t73 -50t48.5 -77.5t17.5 -99.5q0 -10 -0.5 -17t-1.5 -12q-1 -6 -1 -11h-407q2 -45 16 -82.5t38 -65t57 -42.5t74 -15q57 0 95.5 25t64.5 70h55q-26 -72 -83 -108.5
t-132 -36.5zM460 290q-2 43 -16 78t-38 60t-56.5 38.5t-69.5 13.5q-39 0 -71 -14t-55 -39.5t-36.5 -60.5t-17.5 -76h360zM150 740h70l90 -140h-45z" />
    <glyph glyph-name="eacute" unicode="&#xe9;" horiz-adv-x="560" 
d="M285 -10q-51 0 -94 18.5t-74.5 53t-49 84.5t-17.5 114t17.5 114t48.5 84.5t73 53t91 18.5t91 -18t73 -50t48.5 -77.5t17.5 -99.5q0 -10 -0.5 -17t-1.5 -12q-1 -6 -1 -11h-407q2 -45 16 -82.5t38 -65t57 -42.5t74 -15q57 0 95.5 25t64.5 70h55q-26 -72 -83 -108.5
t-132 -36.5zM460 290q-2 43 -16 78t-38 60t-56.5 38.5t-69.5 13.5q-39 0 -71 -14t-55 -39.5t-36.5 -60.5t-17.5 -76h360zM355 740h70l-115 -140h-45z" />
    <glyph glyph-name="ecircumflex" unicode="&#xea;" horiz-adv-x="560" 
d="M285 -10q-51 0 -94 18.5t-74.5 53t-49 84.5t-17.5 114t17.5 114t48.5 84.5t73 53t91 18.5t91 -18t73 -50t48.5 -77.5t17.5 -99.5q0 -10 -0.5 -17t-1.5 -12q-1 -6 -1 -11h-407q2 -45 16 -82.5t38 -65t57 -42.5t74 -15q57 0 95.5 25t64.5 70h55q-26 -72 -83 -108.5
t-132 -36.5zM460 290q-2 43 -16 78t-38 60t-56.5 38.5t-69.5 13.5q-39 0 -71 -14t-55 -39.5t-36.5 -60.5t-17.5 -76h360zM265 745h45l130 -145h-55l-95 105h-5l-95 -105h-55z" />
    <glyph glyph-name="edieresis" unicode="&#xeb;" horiz-adv-x="560" 
d="M285 -10q-51 0 -94 18.5t-74.5 53t-49 84.5t-17.5 114t17.5 114t48.5 84.5t73 53t91 18.5t91 -18t73 -50t48.5 -77.5t17.5 -99.5q0 -10 -0.5 -17t-1.5 -12q-1 -6 -1 -11h-407q2 -45 16 -82.5t38 -65t57 -42.5t74 -15q57 0 95.5 25t64.5 70h55q-26 -72 -83 -108.5
t-132 -36.5zM460 290q-2 43 -16 78t-38 60t-56.5 38.5t-69.5 13.5q-39 0 -71 -14t-55 -39.5t-36.5 -60.5t-17.5 -76h360zM200 630q-17 0 -28.5 11.5t-11.5 28.5t11.5 28.5t28.5 11.5t28.5 -11.5t11.5 -28.5t-11.5 -28.5t-28.5 -11.5zM370 630q-17 0 -28.5 11.5t-11.5 28.5
t11.5 28.5t28.5 11.5t28.5 -11.5t11.5 -28.5t-11.5 -28.5t-28.5 -11.5z" />
    <glyph glyph-name="igrave" unicode="&#xec;" horiz-adv-x="200" 
d="M75 520h50v-520h-50v520zM-35 740h70l90 -140h-45z" />
    <glyph glyph-name="iacute" unicode="&#xed;" horiz-adv-x="200" 
d="M75 520h50v-520h-50v520zM170 740h70l-115 -140h-45z" />
    <glyph glyph-name="icircumflex" unicode="&#xee;" horiz-adv-x="200" 
d="M75 520h50v-520h-50v520zM80 745h45l130 -145h-55l-95 105h-5l-95 -105h-55z" />
    <glyph glyph-name="idieresis" unicode="&#xef;" horiz-adv-x="200" 
d="M75 520h50v-520h-50v520zM15 630q-17 0 -28.5 11.5t-11.5 28.5t11.5 28.5t28.5 11.5t28.5 -11.5t11.5 -28.5t-11.5 -28.5t-28.5 -11.5zM185 630q-17 0 -28.5 11.5t-11.5 28.5t11.5 28.5t28.5 11.5t28.5 -11.5t11.5 -28.5t-11.5 -28.5t-28.5 -11.5z" />
    <glyph glyph-name="eth" unicode="&#xf0;" horiz-adv-x="555" 
d="M270 -10q-49 0 -89.5 18t-69.5 50t-45 77.5t-16 99.5t16 99.5t45 77.5t69.5 50t89.5 18q53 0 93.5 -23.5t61.5 -51.5h5q-19 53 -51 98t-74 87l-135 -60l-20 40l120 55q-17 13 -37 27t-39.5 25.5t-35.5 20t-23 12.5h80q4 -2 15 -8t25 -14.5t30 -19.5t30 -23l100 45l20 -40
l-85 -40q31 -32 59 -69.5t49.5 -82t34 -96.5t12.5 -112q0 -58 -17 -106t-48 -82t-74.5 -53t-95.5 -19zM275 40q39 0 71.5 15t55.5 41t35.5 62t12.5 77t-12.5 76.5t-35.5 62t-55.5 41.5t-71.5 15t-71.5 -15t-55.5 -41.5t-35.5 -62t-12.5 -76.5t12.5 -77t35.5 -62t55.5 -41
t71.5 -15z" />
    <glyph glyph-name="ntilde" unicode="&#xf1;" horiz-adv-x="550" 
d="M75 520h40l10 -80h5q26 45 66.5 67.5t93.5 22.5q41 0 76 -14.5t60.5 -41.5t39.5 -66t14 -88v-320h-50v320q0 36 -11.5 65.5t-31 50.5t-46 32.5t-56.5 11.5q-34 0 -63 -12.5t-50.5 -34t-34 -50.5t-12.5 -63v-320h-50v520zM345 620q-23 0 -39.5 8.5t-30.5 19t-27 19
t-28 8.5t-25 -12t-10 -38h-50q0 49 21 72t59 23q22 0 39 -8.5t31 -19t27 -19t28 -8.5t25 12t10 38h50q0 -49 -21 -72t-59 -23z" />
    <glyph glyph-name="ograve" unicode="&#xf2;" horiz-adv-x="570" 
d="M285 -10q-51 0 -94 18.5t-74.5 53t-49 84.5t-17.5 114t17.5 114t49 84.5t74.5 53t94 18.5t94 -18.5t74.5 -53t49 -84.5t17.5 -114t-17.5 -114t-49 -84.5t-74.5 -53t-94 -18.5zM285 40q39 0 73 14.5t59 43t39 69t14 93.5q0 52 -14 93t-39 69.5t-59 43t-73 14.5t-73 -14.5
t-59 -43t-39 -69.5t-14 -93q0 -53 14 -93.5t39 -69t59 -43t73 -14.5zM150 740h70l90 -140h-45z" />
    <glyph glyph-name="oacute" unicode="&#xf3;" horiz-adv-x="570" 
d="M285 -10q-51 0 -94 18.5t-74.5 53t-49 84.5t-17.5 114t17.5 114t49 84.5t74.5 53t94 18.5t94 -18.5t74.5 -53t49 -84.5t17.5 -114t-17.5 -114t-49 -84.5t-74.5 -53t-94 -18.5zM285 40q39 0 73 14.5t59 43t39 69t14 93.5q0 52 -14 93t-39 69.5t-59 43t-73 14.5t-73 -14.5
t-59 -43t-39 -69.5t-14 -93q0 -53 14 -93.5t39 -69t59 -43t73 -14.5zM355 740h70l-115 -140h-45z" />
    <glyph glyph-name="ocircumflex" unicode="&#xf4;" horiz-adv-x="570" 
d="M285 -10q-51 0 -94 18.5t-74.5 53t-49 84.5t-17.5 114t17.5 114t49 84.5t74.5 53t94 18.5t94 -18.5t74.5 -53t49 -84.5t17.5 -114t-17.5 -114t-49 -84.5t-74.5 -53t-94 -18.5zM285 40q39 0 73 14.5t59 43t39 69t14 93.5q0 52 -14 93t-39 69.5t-59 43t-73 14.5t-73 -14.5
t-59 -43t-39 -69.5t-14 -93q0 -53 14 -93.5t39 -69t59 -43t73 -14.5zM265 745h45l130 -145h-55l-95 105h-5l-95 -105h-55z" />
    <glyph glyph-name="otilde" unicode="&#xf5;" horiz-adv-x="570" 
d="M285 -10q-51 0 -94 18.5t-74.5 53t-49 84.5t-17.5 114t17.5 114t49 84.5t74.5 53t94 18.5t94 -18.5t74.5 -53t49 -84.5t17.5 -114t-17.5 -114t-49 -84.5t-74.5 -53t-94 -18.5zM285 40q39 0 73 14.5t59 43t39 69t14 93.5q0 52 -14 93t-39 69.5t-59 43t-73 14.5t-73 -14.5
t-59 -43t-39 -69.5t-14 -93q0 -53 14 -93.5t39 -69t59 -43t73 -14.5zM350 620q-23 0 -39.5 8.5t-30.5 19t-27 19t-28 8.5t-25 -12t-10 -38h-50q0 49 21 72t59 23q22 0 39 -8.5t31 -19t27 -19t28 -8.5t25 12t10 38h50q0 -49 -21 -72t-59 -23z" />
    <glyph glyph-name="odieresis" unicode="&#xf6;" horiz-adv-x="570" 
d="M285 -10q-51 0 -94 18.5t-74.5 53t-49 84.5t-17.5 114t17.5 114t49 84.5t74.5 53t94 18.5t94 -18.5t74.5 -53t49 -84.5t17.5 -114t-17.5 -114t-49 -84.5t-74.5 -53t-94 -18.5zM285 40q39 0 73 14.5t59 43t39 69t14 93.5q0 52 -14 93t-39 69.5t-59 43t-73 14.5t-73 -14.5
t-59 -43t-39 -69.5t-14 -93q0 -53 14 -93.5t39 -69t59 -43t73 -14.5zM200 630q-17 0 -28.5 11.5t-11.5 28.5t11.5 28.5t28.5 11.5t28.5 -11.5t11.5 -28.5t-11.5 -28.5t-28.5 -11.5zM370 630q-17 0 -28.5 11.5t-11.5 28.5t11.5 28.5t28.5 11.5t28.5 -11.5t11.5 -28.5
t-11.5 -28.5t-28.5 -11.5z" />
    <glyph glyph-name="divide" unicode="&#xf7;" horiz-adv-x="540" 
d="M270 70q-17 0 -28.5 11.5t-11.5 28.5t11.5 28.5t28.5 11.5t28.5 -11.5t11.5 -28.5t-11.5 -28.5t-28.5 -11.5zM45 325h450v-50h-450v50zM270 455q-17 0 -28.5 11.5t-11.5 28.5t11.5 28.5t28.5 11.5t28.5 -11.5t11.5 -28.5t-11.5 -28.5t-28.5 -11.5z" />
    <glyph glyph-name="oslash" unicode="&#xf8;" horiz-adv-x="570" 
d="M126 52q-35 35 -55.5 87t-20.5 121q0 64 17.5 114t49 84.5t74.5 53t94 18.5q68 0 122 -34l28 44h55l-46 -72q35 -35 55.5 -87t20.5 -121q0 -64 -17.5 -114t-49 -84.5t-74.5 -53t-94 -18.5q-71 0 -123 33l-27 -43h-55zM380 453q-41 27 -95 27q-39 0 -73 -14.5t-59 -43
t-39 -69.5t-14 -93q0 -54 14 -94.5t40 -69.5zM285 40q39 0 73 14.5t59 43t39 69t14 93.5t-14.5 94t-39.5 69l-226 -357q41 -26 95 -26z" />
    <glyph glyph-name="ugrave" unicode="&#xf9;" horiz-adv-x="555" 
d="M265 -10q-41 0 -76 14.5t-60.5 41.5t-39.5 66t-14 88v320h50v-320q0 -36 11.5 -65.5t31 -50.5t46 -32.5t56.5 -11.5q34 0 63 12.5t50.5 34t34 50.5t12.5 63v320h50v-520h-40l-10 80h-5q-53 -90 -160 -90zM145 740h70l90 -140h-45z" />
    <glyph glyph-name="uacute" unicode="&#xfa;" horiz-adv-x="555" 
d="M265 -10q-41 0 -76 14.5t-60.5 41.5t-39.5 66t-14 88v320h50v-320q0 -36 11.5 -65.5t31 -50.5t46 -32.5t56.5 -11.5q34 0 63 12.5t50.5 34t34 50.5t12.5 63v320h50v-520h-40l-10 80h-5q-53 -90 -160 -90zM345 740h70l-115 -140h-45z" />
    <glyph glyph-name="ucircumflex" unicode="&#xfb;" horiz-adv-x="555" 
d="M265 -10q-41 0 -76 14.5t-60.5 41.5t-39.5 66t-14 88v320h50v-320q0 -36 11.5 -65.5t31 -50.5t46 -32.5t56.5 -11.5q34 0 63 12.5t50.5 34t34 50.5t12.5 63v320h50v-520h-40l-10 80h-5q-53 -90 -160 -90zM260 745h45l130 -145h-55l-95 105h-5l-95 -105h-55z" />
    <glyph glyph-name="udieresis" unicode="&#xfc;" horiz-adv-x="555" 
d="M265 -10q-41 0 -76 14.5t-60.5 41.5t-39.5 66t-14 88v320h50v-320q0 -36 11.5 -65.5t31 -50.5t46 -32.5t56.5 -11.5q34 0 63 12.5t50.5 34t34 50.5t12.5 63v320h50v-520h-40l-10 80h-5q-53 -90 -160 -90zM195 630q-17 0 -28.5 11.5t-11.5 28.5t11.5 28.5t28.5 11.5
t28.5 -11.5t11.5 -28.5t-11.5 -28.5t-28.5 -11.5zM365 630q-17 0 -28.5 11.5t-11.5 28.5t11.5 28.5t28.5 11.5t28.5 -11.5t11.5 -28.5t-11.5 -28.5t-28.5 -11.5z" />
    <glyph glyph-name="yacute" unicode="&#xfd;" horiz-adv-x="490" 
d="M224 0l-219 520h55l188 -447h5l177 447h55l-285 -720h-55zM315 740h70l-115 -140h-45z" />
    <glyph glyph-name="thorn" unicode="&#xfe;" horiz-adv-x="590" 
d="M80 700h50v-270h5q30 49 76.5 74.5t103.5 25.5q49 0 90 -17.5t71 -52t47 -84.5t17 -116t-17 -116t-47 -84.5t-71 -52t-90 -17.5q-57 0 -103.5 25.5t-76.5 74.5h-5v-290h-50v900zM310 40q37 0 70 14.5t57.5 43t38.5 69t14 93.5q0 52 -14 93t-38.5 69.5t-57.5 43t-70 14.5
q-38 0 -70.5 -14.5t-57 -43t-38.5 -69.5t-14 -93q0 -53 14 -93.5t38.5 -69t57 -43t70.5 -14.5z" />
    <glyph glyph-name="ydieresis" unicode="&#xff;" horiz-adv-x="490" 
d="M224 0l-219 520h55l188 -447h5l177 447h55l-285 -720h-55zM160 630q-17 0 -28.5 11.5t-11.5 28.5t11.5 28.5t28.5 11.5t28.5 -11.5t11.5 -28.5t-11.5 -28.5t-28.5 -11.5zM330 630q-17 0 -28.5 11.5t-11.5 28.5t11.5 28.5t28.5 11.5t28.5 -11.5t11.5 -28.5t-11.5 -28.5
t-28.5 -11.5z" />
    <glyph glyph-name="Amacron" unicode="&#x100;" horiz-adv-x="615" 
d="M275 700h65l265 -700h-55l-70 185h-345l-70 -185h-55zM461 235l-151 400h-5l-151 -400h307zM175 860h270v-45h-270v45z" />
    <glyph glyph-name="amacron" unicode="&#x101;" horiz-adv-x="515" 
d="M220 -10q-83 0 -129 43.5t-46 111.5q0 34 12 62.5t35.5 49t58 32t79.5 11.5h165v40q0 68 -36.5 104t-108.5 36q-60 0 -92.5 -26.5t-47.5 -68.5h-50q15 64 65 104.5t125 40.5q91 0 143 -51.5t52 -138.5v-340h-40l-10 80h-5q-8 -17 -22.5 -33t-36 -29t-49.5 -20.5t-62 -7.5
zM220 40q83 0 129 45t46 120v45h-165q-68 0 -101.5 -30t-33.5 -75t32.5 -75t92.5 -30zM125 690h270v-45h-270v45z" />
    <glyph glyph-name="Abreve" unicode="&#x102;" horiz-adv-x="615" 
d="M275 700h65l265 -700h-55l-70 185h-345l-70 -185h-55zM461 235l-151 400h-5l-151 -400h307zM310 780q-26 0 -50.5 7t-44 21.5t-31.5 37t-14 54.5h50q4 -38 28 -56.5t62 -18.5t62 18.5t28 56.5h50q-2 -32 -14 -54.5t-31.5 -37t-44 -21.5t-50.5 -7z" />
    <glyph glyph-name="abreve" unicode="&#x103;" horiz-adv-x="515" 
d="M220 -10q-83 0 -129 43.5t-46 111.5q0 34 12 62.5t35.5 49t58 32t79.5 11.5h165v40q0 68 -36.5 104t-108.5 36q-60 0 -92.5 -26.5t-47.5 -68.5h-50q15 64 65 104.5t125 40.5q91 0 143 -51.5t52 -138.5v-340h-40l-10 80h-5q-8 -17 -22.5 -33t-36 -29t-49.5 -20.5t-62 -7.5
zM220 40q83 0 129 45t46 120v45h-165q-68 0 -101.5 -30t-33.5 -75t32.5 -75t92.5 -30zM260 610q-26 0 -50.5 7t-44 21.5t-31.5 37t-14 54.5h50q4 -38 28 -56.5t62 -18.5t62 18.5t28 56.5h50q-2 -32 -14 -54.5t-31.5 -37t-44 -21.5t-50.5 -7z" />
    <glyph glyph-name="Aogonek" unicode="&#x104;" horiz-adv-x="615" 
d="M565 -185q-45 0 -70 21.5t-25 63.5q0 22 7.5 38.5t19.5 28.5t26 19.5t27 13.5l-70 185h-345l-70 -185h-55l265 700h65l265 -700h-10q-41 -23 -60.5 -42t-19.5 -53q0 -23 14.5 -36.5t40.5 -13.5h35v-40h-40zM461 235l-151 400h-5l-151 -400h307z" />
    <glyph glyph-name="aogonek" unicode="&#x105;" horiz-adv-x="515" 
d="M415 -185q-45 0 -70 21.5t-25 63.5q0 24 8.5 40.5t21 28t27.5 18.5t28 13l-10 80h-5q-8 -17 -22.5 -33t-36 -29t-49.5 -20.5t-62 -7.5q-83 0 -129 43.5t-46 111.5q0 34 12 62.5t35.5 49t58 32t79.5 11.5h165v40q0 68 -36.5 104t-108.5 36q-60 0 -92.5 -26.5t-47.5 -68.5
h-50q15 64 65 104.5t125 40.5q91 0 143 -51.5t52 -138.5v-340q-17 -9 -31.5 -18t-25.5 -20t-17 -24.5t-6 -32.5q0 -23 14.5 -36.5t40.5 -13.5h35v-40h-40zM220 40q83 0 129 45t46 120v45h-165q-68 0 -101.5 -30t-33.5 -75t32.5 -75t92.5 -30z" />
    <glyph glyph-name="Cacute" unicode="&#x106;" horiz-adv-x="690" 
d="M365 -10q-68 0 -124.5 24t-98 70t-64.5 113t-23 153t23 153t64.5 113t98 70t124.5 24q102 0 174 -50.5t106 -144.5h-60q-30 72 -87.5 108.5t-132.5 36.5q-54 0 -101 -20.5t-81 -59.5t-53.5 -97t-19.5 -133t19.5 -133t53.5 -97t81 -59.5t101 -20.5q75 0 132.5 36.5
t87.5 108.5h60q-34 -94 -106 -144.5t-174 -50.5zM430 910h70l-115 -140h-45z" />
    <glyph glyph-name="cacute" unicode="&#x107;" horiz-adv-x="540" 
d="M285 -10q-51 0 -94 18.5t-74.5 53t-49 84.5t-17.5 114t17.5 114t49 84.5t74.5 53t94 18.5q72 0 128.5 -35t86.5 -110h-55q-26 45 -64.5 70t-95.5 25q-39 0 -73 -14.5t-59 -43t-39 -69.5t-14 -93q0 -53 14 -93.5t39 -69t59 -43t73 -14.5q57 0 95.5 25t64.5 70h55
q-30 -75 -86.5 -110t-128.5 -35zM355 740h70l-115 -140h-45z" />
    <glyph glyph-name="Ccircumflex" unicode="&#x108;" horiz-adv-x="690" 
d="M365 -10q-68 0 -124.5 24t-98 70t-64.5 113t-23 153t23 153t64.5 113t98 70t124.5 24q102 0 174 -50.5t106 -144.5h-60q-30 72 -87.5 108.5t-132.5 36.5q-54 0 -101 -20.5t-81 -59.5t-53.5 -97t-19.5 -133t19.5 -133t53.5 -97t81 -59.5t101 -20.5q75 0 132.5 36.5
t87.5 108.5h60q-34 -94 -106 -144.5t-174 -50.5zM340 915h45l130 -145h-55l-95 105h-5l-95 -105h-55z" />
    <glyph glyph-name="ccircumflex" unicode="&#x109;" horiz-adv-x="540" 
d="M285 -10q-51 0 -94 18.5t-74.5 53t-49 84.5t-17.5 114t17.5 114t49 84.5t74.5 53t94 18.5q72 0 128.5 -35t86.5 -110h-55q-26 45 -64.5 70t-95.5 25q-39 0 -73 -14.5t-59 -43t-39 -69.5t-14 -93q0 -53 14 -93.5t39 -69t59 -43t73 -14.5q57 0 95.5 25t64.5 70h55
q-30 -75 -86.5 -110t-128.5 -35zM265 745h45l130 -145h-55l-95 105h-5l-95 -105h-55z" />
    <glyph glyph-name="Cdotaccent" unicode="&#x10a;" horiz-adv-x="690" 
d="M365 -10q-68 0 -124.5 24t-98 70t-64.5 113t-23 153t23 153t64.5 113t98 70t124.5 24q102 0 174 -50.5t106 -144.5h-60q-30 72 -87.5 108.5t-132.5 36.5q-54 0 -101 -20.5t-81 -59.5t-53.5 -97t-19.5 -133t19.5 -133t53.5 -97t81 -59.5t101 -20.5q75 0 132.5 36.5
t87.5 108.5h60q-34 -94 -106 -144.5t-174 -50.5zM360 800q-17 0 -28.5 11.5t-11.5 28.5t11.5 28.5t28.5 11.5t28.5 -11.5t11.5 -28.5t-11.5 -28.5t-28.5 -11.5z" />
    <glyph glyph-name="cdotaccent" unicode="&#x10b;" horiz-adv-x="540" 
d="M285 -10q-51 0 -94 18.5t-74.5 53t-49 84.5t-17.5 114t17.5 114t49 84.5t74.5 53t94 18.5q72 0 128.5 -35t86.5 -110h-55q-26 45 -64.5 70t-95.5 25q-39 0 -73 -14.5t-59 -43t-39 -69.5t-14 -93q0 -53 14 -93.5t39 -69t59 -43t73 -14.5q57 0 95.5 25t64.5 70h55
q-30 -75 -86.5 -110t-128.5 -35zM285 630q-17 0 -28.5 11.5t-11.5 28.5t11.5 28.5t28.5 11.5t28.5 -11.5t11.5 -28.5t-11.5 -28.5t-28.5 -11.5z" />
    <glyph glyph-name="Ccaron" unicode="&#x10c;" horiz-adv-x="690" 
d="M365 -10q-68 0 -124.5 24t-98 70t-64.5 113t-23 153t23 153t64.5 113t98 70t124.5 24q102 0 174 -50.5t106 -144.5h-60q-30 72 -87.5 108.5t-132.5 36.5q-54 0 -101 -20.5t-81 -59.5t-53.5 -97t-19.5 -133t19.5 -133t53.5 -97t81 -59.5t101 -20.5q75 0 132.5 36.5
t87.5 108.5h60q-34 -94 -106 -144.5t-174 -50.5zM210 915h55l95 -105h5l95 105h55l-130 -145h-45z" />
    <glyph glyph-name="ccaron" unicode="&#x10d;" horiz-adv-x="540" 
d="M285 -10q-51 0 -94 18.5t-74.5 53t-49 84.5t-17.5 114t17.5 114t49 84.5t74.5 53t94 18.5q72 0 128.5 -35t86.5 -110h-55q-26 45 -64.5 70t-95.5 25q-39 0 -73 -14.5t-59 -43t-39 -69.5t-14 -93q0 -53 14 -93.5t39 -69t59 -43t73 -14.5q57 0 95.5 25t64.5 70h55
q-30 -75 -86.5 -110t-128.5 -35zM135 740h55l95 -105h5l95 105h55l-130 -145h-45z" />
    <glyph glyph-name="Dcaron" unicode="&#x10e;" horiz-adv-x="680" 
d="M90 700h230q67 0 123.5 -23t96.5 -67.5t62.5 -110t22.5 -149.5t-22.5 -149.5t-62.5 -110t-96.5 -67.5t-123.5 -23h-230v700zM320 50q54 0 100 19.5t79.5 57.5t52 94t18.5 129t-18.5 129t-52 94t-79.5 57.5t-100 19.5h-175v-600h175zM190 915h55l95 -105h5l95 105h55
l-130 -145h-45z" />
    <glyph glyph-name="dcaron" unicode="&#x10f;" horiz-adv-x="655" 
d="M275 -10q-49 0 -90 17.5t-71 52t-47 84.5t-17 116t17 116t47 84.5t71 52t90 17.5q57 0 103.5 -25.5t76.5 -74.5h5v270h50v-700h-40l-10 90h-5q-30 -49 -76.5 -74.5t-103.5 -25.5zM280 40q37 0 70 14.5t57.5 43t38.5 69t14 93.5q0 52 -14 93t-38.5 69.5t-57.5 43t-70 14.5
q-38 0 -70.5 -14.5t-57 -43t-38.5 -69.5t-14 -93q0 -53 14 -93.5t38.5 -69t57 -43t70.5 -14.5z" />
    <glyph glyph-name="Dcroat" unicode="&#x110;" horiz-adv-x="685" 
d="M95 330h-75v50h75v320h230q67 0 123.5 -23t96.5 -67.5t62.5 -110t22.5 -149.5t-22.5 -149.5t-62.5 -110t-96.5 -67.5t-123.5 -23h-230v330zM325 50q54 0 100 19.5t79.5 57.5t52 94t18.5 129t-18.5 129t-52 94t-79.5 57.5t-100 19.5h-175v-270h195v-50h-195v-280h175z" />
    <glyph glyph-name="dcroat" unicode="&#x111;" horiz-adv-x="580" 
d="M270 -10q-49 0 -89.5 18t-69.5 50t-45 77.5t-16 99.5t16 99.5t45 77.5t69.5 50t89.5 18q57 0 104.5 -27.5t70.5 -72.5h5v180h-160v50h160v90h50v-90h75v-50h-75v-560h-40l-10 90h-5q-23 -45 -70.5 -72.5t-104.5 -27.5zM275 40q39 0 71.5 15t55.5 41t35.5 62t12.5 77
t-12.5 76.5t-35.5 62t-55.5 41.5t-71.5 15t-71.5 -15t-55.5 -41.5t-35.5 -62t-12.5 -76.5t12.5 -77t35.5 -62t55.5 -41t71.5 -15z" />
    <glyph glyph-name="Emacron" unicode="&#x112;" horiz-adv-x="590" 
d="M90 700h430v-50h-375v-270h355v-50h-355v-280h385v-50h-440v700zM175 860h270v-45h-270v45z" />
    <glyph glyph-name="emacron" unicode="&#x113;" horiz-adv-x="560" 
d="M285 -10q-51 0 -94 18.5t-74.5 53t-49 84.5t-17.5 114t17.5 114t48.5 84.5t73 53t91 18.5t91 -18t73 -50t48.5 -77.5t17.5 -99.5q0 -10 -0.5 -17t-1.5 -12q-1 -6 -1 -11h-407q2 -45 16 -82.5t38 -65t57 -42.5t74 -15q57 0 95.5 25t64.5 70h55q-26 -72 -83 -108.5
t-132 -36.5zM460 290q-2 43 -16 78t-38 60t-56.5 38.5t-69.5 13.5q-39 0 -71 -14t-55 -39.5t-36.5 -60.5t-17.5 -76h360zM150 690h270v-45h-270v45z" />
    <glyph glyph-name="Ebreve" unicode="&#x114;" horiz-adv-x="590" 
d="M90 700h430v-50h-375v-270h355v-50h-355v-280h385v-50h-440v700zM310 780q-26 0 -50.5 7t-44 21.5t-31.5 37t-14 54.5h50q4 -38 28 -56.5t62 -18.5t62 18.5t28 56.5h50q-2 -32 -14 -54.5t-31.5 -37t-44 -21.5t-50.5 -7z" />
    <glyph glyph-name="ebreve" unicode="&#x115;" horiz-adv-x="560" 
d="M285 -10q-51 0 -94 18.5t-74.5 53t-49 84.5t-17.5 114t17.5 114t48.5 84.5t73 53t91 18.5t91 -18t73 -50t48.5 -77.5t17.5 -99.5q0 -10 -0.5 -17t-1.5 -12q-1 -6 -1 -11h-407q2 -45 16 -82.5t38 -65t57 -42.5t74 -15q57 0 95.5 25t64.5 70h55q-26 -72 -83 -108.5
t-132 -36.5zM460 290q-2 43 -16 78t-38 60t-56.5 38.5t-69.5 13.5q-39 0 -71 -14t-55 -39.5t-36.5 -60.5t-17.5 -76h360zM285 610q-26 0 -50.5 7t-44 21.5t-31.5 37t-14 54.5h50q4 -38 28 -56.5t62 -18.5t62 18.5t28 56.5h50q-2 -32 -14 -54.5t-31.5 -37t-44 -21.5t-50.5 -7
z" />
    <glyph glyph-name="Edotaccent" unicode="&#x116;" horiz-adv-x="590" 
d="M90 700h430v-50h-375v-270h355v-50h-355v-280h385v-50h-440v700zM310 800q-17 0 -28.5 11.5t-11.5 28.5t11.5 28.5t28.5 11.5t28.5 -11.5t11.5 -28.5t-11.5 -28.5t-28.5 -11.5z" />
    <glyph glyph-name="edotaccent" unicode="&#x117;" horiz-adv-x="560" 
d="M285 -10q-51 0 -94 18.5t-74.5 53t-49 84.5t-17.5 114t17.5 114t48.5 84.5t73 53t91 18.5t91 -18t73 -50t48.5 -77.5t17.5 -99.5q0 -10 -0.5 -17t-1.5 -12q-1 -6 -1 -11h-407q2 -45 16 -82.5t38 -65t57 -42.5t74 -15q57 0 95.5 25t64.5 70h55q-26 -72 -83 -108.5
t-132 -36.5zM460 290q-2 43 -16 78t-38 60t-56.5 38.5t-69.5 13.5q-39 0 -71 -14t-55 -39.5t-36.5 -60.5t-17.5 -76h360zM285 630q-17 0 -28.5 11.5t-11.5 28.5t11.5 28.5t28.5 11.5t28.5 -11.5t11.5 -28.5t-11.5 -28.5t-28.5 -11.5z" />
    <glyph glyph-name="Eogonek" unicode="&#x118;" horiz-adv-x="590" 
d="M500 -185q-45 0 -70 21.5t-25 63.5q0 22 7.5 38.5t19.5 28.5t26 19.5t27 13.5h-395v700h430v-50h-375v-270h355v-50h-355v-280h385v-50q-41 -23 -60.5 -42t-19.5 -53q0 -23 14.5 -36.5t40.5 -13.5h35v-40h-40v0z" />
    <glyph glyph-name="eogonek" unicode="&#x119;" horiz-adv-x="560" 
d="M305 -185q-45 0 -70 21.5t-25 63.5q0 36 17.5 57t40.5 33q-48 4 -88 23.5t-69 54t-45 83t-16 109.5q0 64 17.5 114t48.5 84.5t73 53t91 18.5t91 -18t73 -50t48.5 -77.5t17.5 -99.5q0 -10 -0.5 -17t-1.5 -12q-1 -6 -1 -11h-407q2 -45 16 -82.5t38 -65t57 -42.5t74 -15
q57 0 95.5 25t64.5 70h55q-23 -63 -70.5 -99t-110.5 -44q-32 -19 -48 -37.5t-16 -49.5q0 -23 14.5 -36.5t40.5 -13.5h35v-40h-40zM460 290q-2 43 -16 78t-38 60t-56.5 38.5t-69.5 13.5q-39 0 -71 -14t-55 -39.5t-36.5 -60.5t-17.5 -76h360z" />
    <glyph glyph-name="Ecaron" unicode="&#x11a;" horiz-adv-x="590" 
d="M90 700h430v-50h-375v-270h355v-50h-355v-280h385v-50h-440v700zM160 915h55l95 -105h5l95 105h55l-130 -145h-45z" />
    <glyph glyph-name="ecaron" unicode="&#x11b;" horiz-adv-x="560" 
d="M285 -10q-51 0 -94 18.5t-74.5 53t-49 84.5t-17.5 114t17.5 114t48.5 84.5t73 53t91 18.5t91 -18t73 -50t48.5 -77.5t17.5 -99.5q0 -10 -0.5 -17t-1.5 -12q-1 -6 -1 -11h-407q2 -45 16 -82.5t38 -65t57 -42.5t74 -15q57 0 95.5 25t64.5 70h55q-26 -72 -83 -108.5
t-132 -36.5zM460 290q-2 43 -16 78t-38 60t-56.5 38.5t-69.5 13.5q-39 0 -71 -14t-55 -39.5t-36.5 -60.5t-17.5 -76h360zM135 740h55l95 -105h5l95 105h55l-130 -145h-45z" />
    <glyph glyph-name="Gcircumflex" unicode="&#x11c;" horiz-adv-x="710" 
d="M365 -10q-68 0 -124.5 24t-98 70t-64.5 113t-23 153t23 153t64.5 113t98 70t124.5 24q102 0 174 -50.5t106 -144.5h-60q-30 72 -87.5 108.5t-132.5 36.5q-54 0 -101 -20.5t-81 -59.5t-53.5 -97t-19.5 -133t19.5 -133t53.5 -97t81 -59.5t101 -20.5t97.5 19.5t74 53.5
t47 81t16.5 101h-240v50h295v-30q0 -75 -20.5 -135t-58.5 -102.5t-91.5 -65t-119.5 -22.5zM340 915h45l130 -145h-55l-95 105h-5l-95 -105h-55z" />
    <glyph glyph-name="gcircumflex" unicode="&#x11d;" horiz-adv-x="585" 
d="M290 -200q-83 0 -143.5 38t-86.5 117h54q20 -49 64 -77t112 -28q83 0 126.5 41t43.5 109v125h-5q-26 -45 -72 -70t-103 -25q-49 0 -91 18t-73 51t-48.5 79t-17.5 102t17.5 102t48.5 79t73 51t91 18q57 0 103.5 -25.5t76.5 -74.5h5l5 90h40v-520q0 -90 -57.5 -145
t-162.5 -55zM280 80q37 0 70 14.5t57.5 40.5t38.5 63t14 82t-14 82t-38.5 63t-57.5 40.5t-70 14.5q-38 0 -70.5 -14.5t-57 -40.5t-38.5 -63t-14 -82t14 -82t38.5 -63t57 -40.5t70.5 -14.5zM275 745h45l130 -145h-55l-95 105h-5l-95 -105h-55z" />
    <glyph glyph-name="Gbreve" unicode="&#x11e;" horiz-adv-x="710" 
d="M365 -10q-68 0 -124.5 24t-98 70t-64.5 113t-23 153t23 153t64.5 113t98 70t124.5 24q102 0 174 -50.5t106 -144.5h-60q-30 72 -87.5 108.5t-132.5 36.5q-54 0 -101 -20.5t-81 -59.5t-53.5 -97t-19.5 -133t19.5 -133t53.5 -97t81 -59.5t101 -20.5t97.5 19.5t74 53.5
t47 81t16.5 101h-240v50h295v-30q0 -75 -20.5 -135t-58.5 -102.5t-91.5 -65t-119.5 -22.5zM360 780q-26 0 -50.5 7t-44 21.5t-31.5 37t-14 54.5h50q4 -38 28 -56.5t62 -18.5t62 18.5t28 56.5h50q-2 -32 -14 -54.5t-31.5 -37t-44 -21.5t-50.5 -7z" />
    <glyph glyph-name="gbreve" unicode="&#x11f;" horiz-adv-x="585" 
d="M290 -200q-83 0 -143.5 38t-86.5 117h54q20 -49 64 -77t112 -28q83 0 126.5 41t43.5 109v125h-5q-26 -45 -72 -70t-103 -25q-49 0 -91 18t-73 51t-48.5 79t-17.5 102t17.5 102t48.5 79t73 51t91 18q57 0 103.5 -25.5t76.5 -74.5h5l5 90h40v-520q0 -90 -57.5 -145
t-162.5 -55zM280 80q37 0 70 14.5t57.5 40.5t38.5 63t14 82t-14 82t-38.5 63t-57.5 40.5t-70 14.5q-38 0 -70.5 -14.5t-57 -40.5t-38.5 -63t-14 -82t14 -82t38.5 -63t57 -40.5t70.5 -14.5zM295 610q-26 0 -50.5 7t-44 21.5t-31.5 37t-14 54.5h50q4 -38 28 -56.5t62 -18.5
t62 18.5t28 56.5h50q-2 -32 -14 -54.5t-31.5 -37t-44 -21.5t-50.5 -7z" />
    <glyph glyph-name="Gdotaccent" unicode="&#x120;" horiz-adv-x="710" 
d="M365 -10q-68 0 -124.5 24t-98 70t-64.5 113t-23 153t23 153t64.5 113t98 70t124.5 24q102 0 174 -50.5t106 -144.5h-60q-30 72 -87.5 108.5t-132.5 36.5q-54 0 -101 -20.5t-81 -59.5t-53.5 -97t-19.5 -133t19.5 -133t53.5 -97t81 -59.5t101 -20.5t97.5 19.5t74 53.5
t47 81t16.5 101h-240v50h295v-30q0 -75 -20.5 -135t-58.5 -102.5t-91.5 -65t-119.5 -22.5zM360 800q-17 0 -28.5 11.5t-11.5 28.5t11.5 28.5t28.5 11.5t28.5 -11.5t11.5 -28.5t-11.5 -28.5t-28.5 -11.5z" />
    <glyph glyph-name="gdotaccent" unicode="&#x121;" horiz-adv-x="585" 
d="M290 -200q-83 0 -143.5 38t-86.5 117h54q20 -49 64 -77t112 -28q83 0 126.5 41t43.5 109v125h-5q-26 -45 -72 -70t-103 -25q-49 0 -91 18t-73 51t-48.5 79t-17.5 102t17.5 102t48.5 79t73 51t91 18q57 0 103.5 -25.5t76.5 -74.5h5l5 90h40v-520q0 -90 -57.5 -145
t-162.5 -55zM280 80q37 0 70 14.5t57.5 40.5t38.5 63t14 82t-14 82t-38.5 63t-57.5 40.5t-70 14.5q-38 0 -70.5 -14.5t-57 -40.5t-38.5 -63t-14 -82t14 -82t38.5 -63t57 -40.5t70.5 -14.5zM295 630q-17 0 -28.5 11.5t-11.5 28.5t11.5 28.5t28.5 11.5t28.5 -11.5t11.5 -28.5
t-11.5 -28.5t-28.5 -11.5z" />
    <glyph glyph-name="Gcommaaccent" unicode="&#x122;" horiz-adv-x="710" 
d="M365 -10q-68 0 -124.5 24t-98 70t-64.5 113t-23 153t23 153t64.5 113t98 70t124.5 24q102 0 174 -50.5t106 -144.5h-60q-30 72 -87.5 108.5t-132.5 36.5q-54 0 -101 -20.5t-81 -59.5t-53.5 -97t-19.5 -133t19.5 -133t53.5 -97t81 -59.5t101 -20.5t97.5 19.5t74 53.5
t47 81t16.5 101h-240v50h295v-30q0 -75 -20.5 -135t-58.5 -102.5t-91.5 -65t-119.5 -22.5zM330 -85h55l-65 -160h-35z" />
    <glyph glyph-name="gcommaaccent" unicode="&#x123;" horiz-adv-x="585" 
d="M330 760h40l-45 -160h-60zM290 -200q-83 0 -143.5 38t-86.5 117h54q20 -49 64 -77t112 -28q83 0 126.5 41t43.5 109v125h-5q-26 -45 -72 -70t-103 -25q-49 0 -91 18t-73 51t-48.5 79t-17.5 102t17.5 102t48.5 79t73 51t91 18q57 0 103.5 -25.5t76.5 -74.5h5l5 90h40v-520
q0 -90 -57.5 -145t-162.5 -55zM280 80q37 0 70 14.5t57.5 40.5t38.5 63t14 82t-14 82t-38.5 63t-57.5 40.5t-70 14.5q-38 0 -70.5 -14.5t-57 -40.5t-38.5 -63t-14 -82t14 -82t38.5 -63t57 -40.5t70.5 -14.5z" />
    <glyph glyph-name="Hcircumflex" unicode="&#x124;" horiz-adv-x="700" 
d="M90 700h55v-320h410v320h55v-700h-55v330h-410v-330h-55v700zM330 915h45l130 -145h-55l-95 105h-5l-95 -105h-55z" />
    <glyph glyph-name="hcircumflex" unicode="&#x125;" horiz-adv-x="555" 
d="M80 700h50v-260h5q26 45 66.5 67.5t93.5 22.5q41 0 76 -14.5t60.5 -41.5t39.5 -66t14 -88v-320h-50v320q0 36 -11.5 65.5t-31 50.5t-46 32.5t-56.5 11.5q-34 0 -63 -12.5t-50.5 -34t-34 -50.5t-12.5 -63v-320h-50v700zM260 915h45l130 -145h-55l-95 105h-5l-95 -105h-55z
" />
    <glyph glyph-name="Hbar" unicode="&#x126;" horiz-adv-x="710" 
d="M95 540h-75v50h75v110h55v-110h410v110h55v-110h75v-50h-75v-540h-55v330h-410v-330h-55v540zM560 380v160h-410v-160h410z" />
    <glyph glyph-name="hbar" unicode="&#x127;" horiz-adv-x="560" 
d="M85 560h-80v50h80v90h50v-90h160v-50h-160v-190h5q26 45 66.5 67.5t93.5 22.5q41 0 76 -14.5t60.5 -41.5t39.5 -66t14 -88v-250h-50v250q0 36 -11.5 65.5t-31 50.5t-46 32.5t-56.5 11.5q-34 0 -63 -12.5t-50.5 -34t-34 -50.5t-12.5 -63v-250h-50v560z" />
    <glyph glyph-name="Imacron" unicode="&#x12a;" horiz-adv-x="235" 
d="M90 700h55v-700h-55v700zM-15 860h270v-45h-270v45z" />
    <glyph glyph-name="imacron" unicode="&#x12b;" horiz-adv-x="200" 
d="M75 520h50v-520h-50v520zM-35 690h270v-45h-270v45z" />
    <glyph glyph-name="Ibreve" unicode="&#x12c;" horiz-adv-x="235" 
d="M90 700h55v-700h-55v700zM120 780q-26 0 -50.5 7t-44 21.5t-31.5 37t-14 54.5h50q4 -38 28 -56.5t62 -18.5t62 18.5t28 56.5h50q-2 -32 -14 -54.5t-31.5 -37t-44 -21.5t-50.5 -7z" />
    <glyph glyph-name="ibreve" unicode="&#x12d;" horiz-adv-x="200" 
d="M75 520h50v-520h-50v520zM100 610q-26 0 -50.5 7t-44 21.5t-31.5 37t-14 54.5h50q4 -38 28 -56.5t62 -18.5t62 18.5t28 56.5h50q-2 -32 -14 -54.5t-31.5 -37t-44 -21.5t-50.5 -7z" />
    <glyph glyph-name="Iogonek" unicode="&#x12e;" horiz-adv-x="235" 
d="M105 -185q-45 0 -70 21.5t-25 63.5q0 22 7.5 38.5t19.5 28.5t26 19.5t27 13.5v700h55v-700h-10q-41 -23 -60.5 -42t-19.5 -53q0 -23 14.5 -36.5t40.5 -13.5h35v-40h-40v0z" />
    <glyph glyph-name="iogonek" unicode="&#x12f;" horiz-adv-x="200" 
d="M90 -185q-45 0 -70 21.5t-25 63.5q0 22 7.5 38.5t19.5 28.5t26 19.5t27 13.5v520h50v-520h-5q-41 -23 -60.5 -42t-19.5 -53q0 -23 14.5 -36.5t40.5 -13.5h35v-40h-40zM100 610q-17 0 -28.5 11.5t-11.5 28.5t11.5 28.5t28.5 11.5t28.5 -11.5t11.5 -28.5t-11.5 -28.5
t-28.5 -11.5z" />
    <glyph glyph-name="Idotaccent" unicode="&#x130;" horiz-adv-x="235" 
d="M90 700h55v-700h-55v700zM120 800q-17 0 -28.5 11.5t-11.5 28.5t11.5 28.5t28.5 11.5t28.5 -11.5t11.5 -28.5t-11.5 -28.5t-28.5 -11.5z" />
    <glyph glyph-name="dotlessi" unicode="&#x131;" horiz-adv-x="200" 
d="M75 520h50v-520h-50v520z" />
    <glyph glyph-name="uni0132" unicode="&#x132;" horiz-adv-x="740" 
d="M90 700h55v-700h-55v700zM440 -10q-91 0 -145 49.5t-65 140.5h55q8 -64 49.5 -102t105.5 -38q72 0 116 45.5t44 139.5v475h55v-475q0 -58 -15.5 -102t-43.5 -73.5t-67.5 -44.5t-88.5 -15z" />
    <glyph glyph-name="uni0133" unicode="&#x133;" horiz-adv-x="415" 
d="M75 520h50v-520h-50v520zM100 610q-17 0 -28.5 11.5t-11.5 28.5t11.5 28.5t28.5 11.5t28.5 -11.5t11.5 -28.5t-11.5 -28.5t-28.5 -11.5zM150 -150h75q30 0 47.5 15t17.5 45v610h50v-610q0 -53 -30.5 -81.5t-79.5 -28.5h-80v50zM315 610q-17 0 -28.5 11.5t-11.5 28.5
t11.5 28.5t28.5 11.5t28.5 -11.5t11.5 -28.5t-11.5 -28.5t-28.5 -11.5z" />
    <glyph glyph-name="Jcircumflex" unicode="&#x134;" horiz-adv-x="535" 
d="M235 -10q-91 0 -145 49.5t-65 140.5h55q8 -64 49.5 -102t105.5 -38q72 0 116 45.5t44 139.5v475h55v-475q0 -58 -15.5 -102t-43.5 -73.5t-67.5 -44.5t-88.5 -15zM405 915h45l130 -145h-55l-95 105h-5l-95 -105h-55z" />
    <glyph glyph-name="jcircumflex" unicode="&#x135;" horiz-adv-x="200" 
d="M-65 -150h75q30 0 47.5 17t17.5 43v610h50v-610q0 -49 -30.5 -79.5t-79.5 -30.5h-80v50zM80 745h45l130 -145h-55l-95 105h-5l-95 -105h-55z" />
    <glyph glyph-name="Kcommaaccent" unicode="&#x136;" horiz-adv-x="565" 
d="M90 700h55v-335l335 335h70l-345 -345l360 -355h-70l-350 345v-345h-55v700zM280 -85h55l-65 -160h-35z" />
    <glyph glyph-name="kcommaaccent" unicode="&#x137;" horiz-adv-x="470" 
d="M80 700h50v-430l265 250h65l-276 -260l291 -260h-65l-280 250v-250h-50v700zM235 -85h55l-65 -160h-35z" />
    <glyph glyph-name="Lacute" unicode="&#x139;" horiz-adv-x="535" 
d="M90 700h55v-650h375v-50h-430v700zM185 910h70l-115 -140h-45z" />
    <glyph glyph-name="lacute" unicode="&#x13a;" horiz-adv-x="210" 
d="M80 700h50v-700h-50v700zM175 910h70l-115 -140h-45z" />
    <glyph glyph-name="Lcommaaccent" unicode="&#x13b;" horiz-adv-x="535" 
d="M90 700h55v-650h375v-50h-430v700zM275 -85h55l-65 -160h-35z" />
    <glyph glyph-name="lcommaaccent" unicode="&#x13c;" horiz-adv-x="210" 
d="M80 700h50v-700h-50v700zM80 -85h55l-65 -160h-35z" />
    <glyph glyph-name="Lcaron" unicode="&#x13d;" horiz-adv-x="535" 
d="M90 700h55v-650h375v-50h-430v700z" />
    <glyph glyph-name="lcaron" unicode="&#x13e;" horiz-adv-x="275" 
d="M80 700h50v-700h-50v700z" />
    <glyph glyph-name="Ldot" unicode="&#x13f;" horiz-adv-x="535" 
d="M380 335q-17 0 -28.5 11.5t-11.5 28.5t11.5 28.5t28.5 11.5t28.5 -11.5t11.5 -28.5t-11.5 -28.5t-28.5 -11.5zM90 700h55v-650h375v-50h-430v700z" />
    <glyph glyph-name="ldot" unicode="&#x140;" horiz-adv-x="315" 
d="M260 315q-17 0 -28.5 11.5t-11.5 28.5t11.5 28.5t28.5 11.5t28.5 -11.5t11.5 -28.5t-11.5 -28.5t-28.5 -11.5zM80 700h50v-700h-50v700z" />
    <glyph glyph-name="Lslash" unicode="&#x141;" horiz-adv-x="545" 
d="M100 317l-80 -30v53l80 29v331h55v-310l180 67v-52l-180 -68v-287h375v-50h-430v317z" />
    <glyph glyph-name="lslash" unicode="&#x142;" horiz-adv-x="240" 
d="M95 324l-75 -34v55l75 34v321h50v-299l75 34v-55l-75 -34v-346h-50v324z" />
    <glyph glyph-name="Nacute" unicode="&#x143;" horiz-adv-x="725" 
d="M90 700h75l410 -625h5v625h55v-700h-75l-410 625h-5v-625h-55v700zM430 910h70l-115 -140h-45z" />
    <glyph glyph-name="nacute" unicode="&#x144;" horiz-adv-x="550" 
d="M75 520h40l10 -80h5q26 45 66.5 67.5t93.5 22.5q41 0 76 -14.5t60.5 -41.5t39.5 -66t14 -88v-320h-50v320q0 36 -11.5 65.5t-31 50.5t-46 32.5t-56.5 11.5q-34 0 -63 -12.5t-50.5 -34t-34 -50.5t-12.5 -63v-320h-50v520zM350 740h70l-115 -140h-45z" />
    <glyph glyph-name="Ncommaaccent" unicode="&#x145;" horiz-adv-x="725" 
d="M90 700h75l410 -625h5v625h55v-700h-75l-410 625h-5v-625h-55v700zM335 -85h55l-65 -160h-35z" />
    <glyph glyph-name="ncommaaccent" unicode="&#x146;" horiz-adv-x="550" 
d="M75 520h40l10 -80h5q26 45 66.5 67.5t93.5 22.5q41 0 76 -14.5t60.5 -41.5t39.5 -66t14 -88v-320h-50v320q0 36 -11.5 65.5t-31 50.5t-46 32.5t-56.5 11.5q-34 0 -63 -12.5t-50.5 -34t-34 -50.5t-12.5 -63v-320h-50v520zM255 -85h55l-65 -160h-35z" />
    <glyph glyph-name="Ncaron" unicode="&#x147;" horiz-adv-x="725" 
d="M90 700h75l410 -625h5v625h55v-700h-75l-410 625h-5v-625h-55v700zM210 915h55l95 -105h5l95 105h55l-130 -145h-45z" />
    <glyph glyph-name="ncaron" unicode="&#x148;" horiz-adv-x="550" 
d="M75 520h40l10 -80h5q26 45 66.5 67.5t93.5 22.5q41 0 76 -14.5t60.5 -41.5t39.5 -66t14 -88v-320h-50v320q0 36 -11.5 65.5t-31 50.5t-46 32.5t-56.5 11.5q-34 0 -63 -12.5t-50.5 -34t-34 -50.5t-12.5 -63v-320h-50v520zM130 740h55l95 -105h5l95 105h55l-130 -145h-45z
" />
    <glyph glyph-name="napostrophe" unicode="&#x149;" horiz-adv-x="560" 
d="M80 520h40l10 -80h5q26 45 66.5 67.5t93.5 22.5q41 0 76 -14.5t60.5 -41.5t39.5 -66t14 -88v-320h-50v320q0 36 -11.5 65.5t-31 50.5t-46 32.5t-56.5 11.5q-34 0 -63 -12.5t-50.5 -34t-34 -50.5t-12.5 -63v-320h-50v520zM55 730h55l-65 -160h-35z" />
    <glyph glyph-name="Eng" unicode="&#x14a;" horiz-adv-x="725" 
d="M415 -150h45q57 0 88.5 33.5t31.5 101.5v15h-20l-410 625h-5v-625h-55v700h75l410 -625h5v625h55v-710q0 -94 -45.5 -142t-124.5 -48h-50v50z" />
    <glyph glyph-name="eng" unicode="&#x14b;" horiz-adv-x="550" 
d="M300 -150h65q30 0 47.5 17t17.5 43v410q0 36 -11.5 65.5t-31 50.5t-46 32.5t-56.5 11.5q-34 0 -63 -12.5t-50.5 -34t-34 -50.5t-12.5 -63v-320h-50v520h40l10 -80h5q26 45 66.5 67.5t93.5 22.5q41 0 76 -14.5t60.5 -41.5t39.5 -66t14 -88v-410q0 -49 -30.5 -79.5
t-79.5 -30.5h-70v50z" />
    <glyph glyph-name="Omacron" unicode="&#x14c;" horiz-adv-x="730" 
d="M365 -10q-68 0 -124.5 24t-98 70t-64.5 113t-23 153t23 153t64.5 113t98 70t124.5 24q67 0 124 -24t98.5 -70t64.5 -113t23 -153t-23 -153t-64.5 -113t-98.5 -70t-124 -24zM365 40q54 0 101 20.5t81 59.5t53.5 97t19.5 133t-19.5 133t-53.5 97t-81 59.5t-101 20.5
t-101 -20.5t-81 -59.5t-53.5 -97t-19.5 -133t19.5 -133t53.5 -97t81 -59.5t101 -20.5zM230 860h270v-45h-270v45z" />
    <glyph glyph-name="omacron" unicode="&#x14d;" horiz-adv-x="570" 
d="M285 -10q-51 0 -94 18.5t-74.5 53t-49 84.5t-17.5 114t17.5 114t49 84.5t74.5 53t94 18.5t94 -18.5t74.5 -53t49 -84.5t17.5 -114t-17.5 -114t-49 -84.5t-74.5 -53t-94 -18.5zM285 40q39 0 73 14.5t59 43t39 69t14 93.5q0 52 -14 93t-39 69.5t-59 43t-73 14.5t-73 -14.5
t-59 -43t-39 -69.5t-14 -93q0 -53 14 -93.5t39 -69t59 -43t73 -14.5zM150 690h270v-45h-270v45z" />
    <glyph glyph-name="Obreve" unicode="&#x14e;" horiz-adv-x="730" 
d="M365 -10q-68 0 -124.5 24t-98 70t-64.5 113t-23 153t23 153t64.5 113t98 70t124.5 24q67 0 124 -24t98.5 -70t64.5 -113t23 -153t-23 -153t-64.5 -113t-98.5 -70t-124 -24zM365 40q54 0 101 20.5t81 59.5t53.5 97t19.5 133t-19.5 133t-53.5 97t-81 59.5t-101 20.5
t-101 -20.5t-81 -59.5t-53.5 -97t-19.5 -133t19.5 -133t53.5 -97t81 -59.5t101 -20.5zM365 780q-26 0 -50.5 7t-44 21.5t-31.5 37t-14 54.5h50q4 -38 28 -56.5t62 -18.5t62 18.5t28 56.5h50q-2 -32 -14 -54.5t-31.5 -37t-44 -21.5t-50.5 -7z" />
    <glyph glyph-name="obreve" unicode="&#x14f;" horiz-adv-x="570" 
d="M285 -10q-51 0 -94 18.5t-74.5 53t-49 84.5t-17.5 114t17.5 114t49 84.5t74.5 53t94 18.5t94 -18.5t74.5 -53t49 -84.5t17.5 -114t-17.5 -114t-49 -84.5t-74.5 -53t-94 -18.5zM285 40q39 0 73 14.5t59 43t39 69t14 93.5q0 52 -14 93t-39 69.5t-59 43t-73 14.5t-73 -14.5
t-59 -43t-39 -69.5t-14 -93q0 -53 14 -93.5t39 -69t59 -43t73 -14.5zM285 610q-26 0 -50.5 7t-44 21.5t-31.5 37t-14 54.5h50q4 -38 28 -56.5t62 -18.5t62 18.5t28 56.5h50q-2 -32 -14 -54.5t-31.5 -37t-44 -21.5t-50.5 -7z" />
    <glyph glyph-name="Ohungarumlaut" unicode="&#x150;" horiz-adv-x="730" 
d="M365 -10q-68 0 -124.5 24t-98 70t-64.5 113t-23 153t23 153t64.5 113t98 70t124.5 24q67 0 124 -24t98.5 -70t64.5 -113t23 -153t-23 -153t-64.5 -113t-98.5 -70t-124 -24zM365 40q54 0 101 20.5t81 59.5t53.5 97t19.5 133t-19.5 133t-53.5 97t-81 59.5t-101 20.5
t-101 -20.5t-81 -59.5t-53.5 -97t-19.5 -133t19.5 -133t53.5 -97t81 -59.5t101 -20.5zM360 910h70l-115 -140h-45zM510 910h70l-115 -140h-45z" />
    <glyph glyph-name="ohungarumlaut" unicode="&#x151;" horiz-adv-x="570" 
d="M285 -10q-51 0 -94 18.5t-74.5 53t-49 84.5t-17.5 114t17.5 114t49 84.5t74.5 53t94 18.5t94 -18.5t74.5 -53t49 -84.5t17.5 -114t-17.5 -114t-49 -84.5t-74.5 -53t-94 -18.5zM285 40q39 0 73 14.5t59 43t39 69t14 93.5q0 52 -14 93t-39 69.5t-59 43t-73 14.5t-73 -14.5
t-59 -43t-39 -69.5t-14 -93q0 -53 14 -93.5t39 -69t59 -43t73 -14.5zM280 740h70l-115 -140h-45zM430 740h70l-115 -140h-45z" />
    <glyph glyph-name="OE" unicode="&#x152;" horiz-adv-x="1090" 
d="M350 -10q-62 0 -116 24t-93.5 70t-62.5 113t-23 153t23 153t62.5 113t93.5 70t116 24q79 0 145 -39t100 -111v140h425v-50h-370v-270h350v-50h-350v-280h380v-50h-435v140q-34 -72 -100 -111t-145 -39zM350 40q49 0 92.5 20.5t76.5 59.5t52 97t19 133t-19 133t-52 97
t-76.5 59.5t-92.5 20.5t-92.5 -20.5t-76.5 -59.5t-52 -97t-19 -133t19 -133t52 -97t76.5 -59.5t92.5 -20.5z" />
    <glyph glyph-name="oe" unicode="&#x153;" horiz-adv-x="955" 
d="M275 -10q-47 0 -88 18.5t-71.5 53t-48 84.5t-17.5 114t17.5 114t48 84.5t71.5 53t88 18.5q37 0 68.5 -11t57 -30.5t44.5 -46t30 -57.5q27 70 82 107.5t123 37.5q47 0 88 -18t71.5 -50t48 -77.5t17.5 -99.5q0 -10 -0.5 -17t-1.5 -12q-1 -6 -1 -11h-397q0 -45 15 -82.5
t39.5 -65t57 -42.5t68.5 -15q53 0 92.5 26.5t62.5 68.5h55q-13 -36 -35 -63t-49.5 -45t-59.5 -27.5t-66 -9.5q-72 0 -127 37.5t-83 107.5q-11 -31 -30 -57.5t-44.5 -46t-57 -30.5t-68.5 -11zM275 40q37 0 69.5 14t55.5 41.5t36.5 69t13.5 95.5t-13.5 95.5t-36.5 69
t-55.5 41.5t-69.5 14q-38 0 -70 -14t-55 -41.5t-36.5 -69t-13.5 -95.5t13.5 -95.5t36.5 -69t55 -41.5t70 -14zM855 290q-2 43 -16 78t-37.5 60t-54.5 38.5t-67 13.5q-38 0 -68.5 -14t-53 -39.5t-36 -60.5t-17.5 -76h350z" />
    <glyph glyph-name="Racute" unicode="&#x154;" horiz-adv-x="620" 
d="M90 700h255q106 0 163 -55.5t57 -149.5t-56.5 -149.5t-158.5 -55.5l210 -290h-65l-210 290h-140v-290h-55v700zM340 340q83 0 126.5 41.5t43.5 113.5t-43.5 113.5t-126.5 41.5h-195v-310h195zM380 910h70l-115 -140h-45z" />
    <glyph glyph-name="racute" unicode="&#x155;" horiz-adv-x="345" 
d="M75 520h40l10 -80h5q23 42 57.5 61t87.5 19h55v-50h-55q-34 0 -61.5 -11.5t-47 -31.5t-30.5 -47.5t-11 -59.5v-320h-50v520zM270 740h70l-115 -140h-45z" />
    <glyph glyph-name="Rcommaaccent" unicode="&#x156;" horiz-adv-x="620" 
d="M90 700h255q106 0 163 -55.5t57 -149.5t-56.5 -149.5t-158.5 -55.5l210 -290h-65l-210 290h-140v-290h-55v700zM340 340q83 0 126.5 41.5t43.5 113.5t-43.5 113.5t-126.5 41.5h-195v-310h195zM285 -85h55l-65 -160h-35z" />
    <glyph glyph-name="rcommaaccent" unicode="&#x157;" horiz-adv-x="345" 
d="M75 520h40l10 -80h5q23 42 57.5 61t87.5 19h55v-50h-55q-34 0 -61.5 -11.5t-47 -31.5t-30.5 -47.5t-11 -59.5v-320h-50v520zM75 -85h55l-65 -160h-35z" />
    <glyph glyph-name="Rcaron" unicode="&#x158;" horiz-adv-x="620" 
d="M90 700h255q106 0 163 -55.5t57 -149.5t-56.5 -149.5t-158.5 -55.5l210 -290h-65l-210 290h-140v-290h-55v700zM340 340q83 0 126.5 41.5t43.5 113.5t-43.5 113.5t-126.5 41.5h-195v-310h195zM160 915h55l95 -105h5l95 105h55l-130 -145h-45z" />
    <glyph glyph-name="rcaron" unicode="&#x159;" horiz-adv-x="345" 
d="M75 520h40l10 -80h5q23 42 57.5 61t87.5 19h55v-50h-55q-34 0 -61.5 -11.5t-47 -31.5t-30.5 -47.5t-11 -59.5v-320h-50v520zM50 740h55l95 -105h5l95 105h55l-130 -145h-45z" />
    <glyph glyph-name="Sacute" unicode="&#x15a;" horiz-adv-x="590" 
d="M300 -10q-53 0 -96.5 14t-76 39.5t-54 60.5t-28.5 76h55q12 -37 32 -63.5t46 -43.5t57 -25t65 -8q47 0 82.5 11.5t59.5 31t36 46t12 56.5q0 39 -18.5 64t-48 40.5t-68 25.5t-78 19.5t-78 22t-68 33.5t-48 53t-18.5 82q0 39 15.5 73t44.5 59t70.5 39t94.5 14
q94 0 157.5 -43.5t82.5 -126.5h-55q-8 21 -21.5 42t-35.5 38.5t-53.5 28.5t-74.5 11q-41 0 -73 -10.5t-53.5 -29t-32.5 -43t-11 -52.5q0 -39 18.5 -64t48 -40.5t68 -25.5t78 -19.5t78 -22t68 -33.5t48 -53t18.5 -82q0 -41 -16.5 -77t-48 -62t-77 -41t-103.5 -15zM365 910h70
l-115 -140h-45z" />
    <glyph glyph-name="sacute" unicode="&#x15b;" horiz-adv-x="470" 
d="M240 -10q-79 0 -132 40.5t-68 104.5h55q6 -19 17 -36t29 -30t42.5 -21t56.5 -8q75 0 107.5 26.5t32.5 68.5q0 38 -24 56.5t-60 29.5t-78.5 18.5t-78.5 23t-60 43.5t-24 79q0 30 12 56.5t35 46t56.5 31t76.5 11.5q68 0 117 -33t68 -97h-55q-6 13 -15.5 27t-25 26
t-37.5 19.5t-52 7.5q-68 0 -99 -26.5t-31 -68.5q0 -37 24 -56t60 -30t78.5 -18.5t78.5 -23t60 -43.5t24 -79q0 -30 -12 -56.5t-36 -46t-59.5 -31t-82.5 -11.5zM305 740h70l-115 -140h-45z" />
    <glyph glyph-name="Scircumflex" unicode="&#x15c;" horiz-adv-x="590" 
d="M300 -10q-53 0 -96.5 14t-76 39.5t-54 60.5t-28.5 76h55q12 -37 32 -63.5t46 -43.5t57 -25t65 -8q47 0 82.5 11.5t59.5 31t36 46t12 56.5q0 39 -18.5 64t-48 40.5t-68 25.5t-78 19.5t-78 22t-68 33.5t-48 53t-18.5 82q0 39 15.5 73t44.5 59t70.5 39t94.5 14
q94 0 157.5 -43.5t82.5 -126.5h-55q-8 21 -21.5 42t-35.5 38.5t-53.5 28.5t-74.5 11q-41 0 -73 -10.5t-53.5 -29t-32.5 -43t-11 -52.5q0 -39 18.5 -64t48 -40.5t68 -25.5t78 -19.5t78 -22t68 -33.5t48 -53t18.5 -82q0 -41 -16.5 -77t-48 -62t-77 -41t-103.5 -15zM275 915h45
l130 -145h-55l-95 105h-5l-95 -105h-55z" />
    <glyph glyph-name="scircumflex" unicode="&#x15d;" horiz-adv-x="470" 
d="M240 -10q-79 0 -132 40.5t-68 104.5h55q6 -19 17 -36t29 -30t42.5 -21t56.5 -8q75 0 107.5 26.5t32.5 68.5q0 38 -24 56.5t-60 29.5t-78.5 18.5t-78.5 23t-60 43.5t-24 79q0 30 12 56.5t35 46t56.5 31t76.5 11.5q68 0 117 -33t68 -97h-55q-6 13 -15.5 27t-25 26
t-37.5 19.5t-52 7.5q-68 0 -99 -26.5t-31 -68.5q0 -37 24 -56t60 -30t78.5 -18.5t78.5 -23t60 -43.5t24 -79q0 -30 -12 -56.5t-36 -46t-59.5 -31t-82.5 -11.5zM215 745h45l130 -145h-55l-95 105h-5l-95 -105h-55z" />
    <glyph glyph-name="Scedilla" unicode="&#x15e;" horiz-adv-x="590" 
d="M230 -165h50q23 0 36.5 13t13.5 32t-13.5 32t-36.5 13h-40v30l17 38q-88 11 -143 61.5t-69 125.5h55q12 -37 32 -63.5t46 -43.5t57 -25t65 -8q47 0 82.5 11.5t59.5 31t36 46t12 56.5q0 39 -18.5 64t-48 40.5t-68 25.5t-78 19.5t-78 22t-68 33.5t-48 53t-18.5 82
q0 39 15.5 73t44.5 59t70.5 39t94.5 14q94 0 157.5 -43.5t82.5 -126.5h-55q-8 21 -21.5 42t-35.5 38.5t-53.5 28.5t-74.5 11q-41 0 -73 -10.5t-53.5 -29t-32.5 -43t-11 -52.5q0 -39 18.5 -64t48 -40.5t68 -25.5t78 -19.5t78 -22t68 -33.5t48 -53t18.5 -82q0 -41 -16.5 -77
t-48 -62t-77 -41t-103.5 -15l-10 -25q38 -4 61.5 -25.5t23.5 -59.5t-26 -61.5t-64 -23.5h-55v40z" />
    <glyph glyph-name="scedilla" unicode="&#x15f;" horiz-adv-x="470" 
d="M180 -165h50q23 0 36.5 13t13.5 32t-13.5 32t-36.5 13h-40v30l16 37q-65 9 -108.5 47t-57.5 96h55q6 -19 17 -36t29 -30t42.5 -21t56.5 -8q75 0 107.5 26.5t32.5 68.5q0 38 -24 56.5t-60 29.5t-78.5 18.5t-78.5 23t-60 43.5t-24 79q0 30 12 56.5t35 46t56.5 31t76.5 11.5
q68 0 117 -33t68 -97h-55q-6 13 -15.5 27t-25 26t-37.5 19.5t-52 7.5q-68 0 -99 -26.5t-31 -68.5q0 -37 24 -56t60 -30t78.5 -18.5t78.5 -23t60 -43.5t24 -79q0 -29 -11.5 -55t-34 -45.5t-56.5 -31.5t-78 -13l-10 -25q38 -4 61.5 -25.5t23.5 -59.5t-26 -61.5t-64 -23.5h-55
v40z" />
    <glyph glyph-name="Scaron" unicode="&#x160;" horiz-adv-x="590" 
d="M300 -10q-53 0 -96.5 14t-76 39.5t-54 60.5t-28.5 76h55q12 -37 32 -63.5t46 -43.5t57 -25t65 -8q47 0 82.5 11.5t59.5 31t36 46t12 56.5q0 39 -18.5 64t-48 40.5t-68 25.5t-78 19.5t-78 22t-68 33.5t-48 53t-18.5 82q0 39 15.5 73t44.5 59t70.5 39t94.5 14
q94 0 157.5 -43.5t82.5 -126.5h-55q-8 21 -21.5 42t-35.5 38.5t-53.5 28.5t-74.5 11q-41 0 -73 -10.5t-53.5 -29t-32.5 -43t-11 -52.5q0 -39 18.5 -64t48 -40.5t68 -25.5t78 -19.5t78 -22t68 -33.5t48 -53t18.5 -82q0 -41 -16.5 -77t-48 -62t-77 -41t-103.5 -15zM145 915h55
l95 -105h5l95 105h55l-130 -145h-45z" />
    <glyph glyph-name="scaron" unicode="&#x161;" horiz-adv-x="470" 
d="M240 -10q-79 0 -132 40.5t-68 104.5h55q6 -19 17 -36t29 -30t42.5 -21t56.5 -8q75 0 107.5 26.5t32.5 68.5q0 38 -24 56.5t-60 29.5t-78.5 18.5t-78.5 23t-60 43.5t-24 79q0 30 12 56.5t35 46t56.5 31t76.5 11.5q68 0 117 -33t68 -97h-55q-6 13 -15.5 27t-25 26
t-37.5 19.5t-52 7.5q-68 0 -99 -26.5t-31 -68.5q0 -37 24 -56t60 -30t78.5 -18.5t78.5 -23t60 -43.5t24 -79q0 -30 -12 -56.5t-36 -46t-59.5 -31t-82.5 -11.5zM85 740h55l95 -105h5l95 105h55l-130 -145h-45z" />
    <glyph glyph-name="uni0162" unicode="&#x162;" horiz-adv-x="585" 
d="M245 -165h50q23 0 36.5 13t13.5 32t-13.5 32t-36.5 13h-40v30l20 45h-10v650h-240v50h535v-50h-240v-650l-15 -35q38 -4 61.5 -25.5t23.5 -59.5t-26 -61.5t-64 -23.5h-55v40z" />
    <glyph glyph-name="uni0163" unicode="&#x163;" horiz-adv-x="335" 
d="M135 -165h50q23 0 36.5 13t13.5 32t-13.5 32t-36.5 13h-40v30l24 56q-26 11 -42.5 36t-16.5 63v360h-85v50h85l10 140h40v-140h135v-50h-135v-360q0 -30 17.5 -45t47.5 -15h70v-50h-85l-15 -35q38 -4 61.5 -25.5t23.5 -59.5t-26 -61.5t-64 -23.5h-55v40z" />
    <glyph glyph-name="Tcaron" unicode="&#x164;" horiz-adv-x="585" 
d="M265 650h-240v50h535v-50h-240v-650h-55v650zM140 915h55l95 -105h5l95 105h55l-130 -145h-45z" />
    <glyph glyph-name="tcaron" unicode="&#x165;" horiz-adv-x="380" 
d="M225 0q-53 0 -84 28.5t-31 81.5v360h-85v50h85l10 140h40v-140h135v-50h-135v-360q0 -30 17.5 -45t47.5 -15h70v-50h-70v0z" />
    <glyph glyph-name="Tbar" unicode="&#x166;" horiz-adv-x="585" 
d="M265 440h-180v50h180v160h-240v50h535v-50h-240v-160h180v-50h-180v-440h-55v440z" />
    <glyph glyph-name="tbar" unicode="&#x167;" horiz-adv-x="335" 
d="M225 0q-53 0 -84 30.5t-31 79.5v185h-85v50h85v125h-85v50h85l10 140h40v-140h135v-50h-135v-125h135v-50h-135v-185q0 -26 17.5 -43t47.5 -17h70v-50h-70v0z" />
    <glyph glyph-name="Umacron" unicode="&#x16a;" horiz-adv-x="700" 
d="M350 -10q-60 0 -109 19.5t-83.5 56.5t-53.5 91t-19 123v420h55v-420q0 -58 15 -103t43 -75.5t66.5 -46t85.5 -15.5t85.5 15.5t66.5 46t43 75.5t15 103v420h55v-420q0 -69 -19 -123t-53.5 -91t-83.5 -56.5t-109 -19.5zM215 860h270v-45h-270v45z" />
    <glyph glyph-name="umacron" unicode="&#x16b;" horiz-adv-x="555" 
d="M265 -10q-41 0 -76 14.5t-60.5 41.5t-39.5 66t-14 88v320h50v-320q0 -36 11.5 -65.5t31 -50.5t46 -32.5t56.5 -11.5q34 0 63 12.5t50.5 34t34 50.5t12.5 63v320h50v-520h-40l-10 80h-5q-53 -90 -160 -90zM145 690h270v-45h-270v45z" />
    <glyph glyph-name="Ubreve" unicode="&#x16c;" horiz-adv-x="700" 
d="M350 -10q-60 0 -109 19.5t-83.5 56.5t-53.5 91t-19 123v420h55v-420q0 -58 15 -103t43 -75.5t66.5 -46t85.5 -15.5t85.5 15.5t66.5 46t43 75.5t15 103v420h55v-420q0 -69 -19 -123t-53.5 -91t-83.5 -56.5t-109 -19.5zM350 780q-26 0 -50.5 7t-44 21.5t-31.5 37t-14 54.5
h50q4 -38 28 -56.5t62 -18.5t62 18.5t28 56.5h50q-2 -32 -14 -54.5t-31.5 -37t-44 -21.5t-50.5 -7z" />
    <glyph glyph-name="ubreve" unicode="&#x16d;" horiz-adv-x="555" 
d="M265 -10q-41 0 -76 14.5t-60.5 41.5t-39.5 66t-14 88v320h50v-320q0 -36 11.5 -65.5t31 -50.5t46 -32.5t56.5 -11.5q34 0 63 12.5t50.5 34t34 50.5t12.5 63v320h50v-520h-40l-10 80h-5q-53 -90 -160 -90zM280 610q-26 0 -50.5 7t-44 21.5t-31.5 37t-14 54.5h50
q4 -38 28 -56.5t62 -18.5t62 18.5t28 56.5h50q-2 -32 -14 -54.5t-31.5 -37t-44 -21.5t-50.5 -7z" />
    <glyph glyph-name="Uring" unicode="&#x16e;" horiz-adv-x="700" 
d="M350 -10q-60 0 -109 19.5t-83.5 56.5t-53.5 91t-19 123v420h55v-420q0 -58 15 -103t43 -75.5t66.5 -46t85.5 -15.5t85.5 15.5t66.5 46t43 75.5t15 103v420h55v-420q0 -69 -19 -123t-53.5 -91t-83.5 -56.5t-109 -19.5zM350 750q-42 0 -68.5 26.5t-26.5 68.5t26.5 68.5
t68.5 26.5t68.5 -26.5t26.5 -68.5t-26.5 -68.5t-68.5 -26.5zM350 790q24 0 39.5 15.5t15.5 39.5t-15.5 39.5t-39.5 15.5t-39.5 -15.5t-15.5 -39.5t15.5 -39.5t39.5 -15.5z" />
    <glyph glyph-name="uring" unicode="&#x16f;" horiz-adv-x="555" 
d="M265 -10q-41 0 -76 14.5t-60.5 41.5t-39.5 66t-14 88v320h50v-320q0 -36 11.5 -65.5t31 -50.5t46 -32.5t56.5 -11.5q34 0 63 12.5t50.5 34t34 50.5t12.5 63v320h50v-520h-40l-10 80h-5q-53 -90 -160 -90zM280 580q-42 0 -68.5 26.5t-26.5 68.5t26.5 68.5t68.5 26.5
t68.5 -26.5t26.5 -68.5t-26.5 -68.5t-68.5 -26.5zM280 620q24 0 39.5 15.5t15.5 39.5t-15.5 39.5t-39.5 15.5t-39.5 -15.5t-15.5 -39.5t15.5 -39.5t39.5 -15.5z" />
    <glyph glyph-name="Uhungarumlaut" unicode="&#x170;" horiz-adv-x="700" 
d="M350 -10q-60 0 -109 19.5t-83.5 56.5t-53.5 91t-19 123v420h55v-420q0 -58 15 -103t43 -75.5t66.5 -46t85.5 -15.5t85.5 15.5t66.5 46t43 75.5t15 103v420h55v-420q0 -69 -19 -123t-53.5 -91t-83.5 -56.5t-109 -19.5zM340 910h70l-115 -140h-45zM490 910h70l-115 -140
h-45z" />
    <glyph glyph-name="uhungarumlaut" unicode="&#x171;" horiz-adv-x="555" 
d="M265 -10q-41 0 -76 14.5t-60.5 41.5t-39.5 66t-14 88v320h50v-320q0 -36 11.5 -65.5t31 -50.5t46 -32.5t56.5 -11.5q34 0 63 12.5t50.5 34t34 50.5t12.5 63v320h50v-520h-40l-10 80h-5q-53 -90 -160 -90zM270 740h70l-115 -140h-45zM420 740h70l-115 -140h-45z" />
    <glyph glyph-name="Uogonek" unicode="&#x172;" horiz-adv-x="700" 
d="M380 -185q-45 0 -70 21.5t-25 63.5q0 37 18 57.5t41 32.5q-59 1 -107 21t-81.5 56.5t-52 90t-18.5 122.5v420h55v-420q0 -58 15 -103t43 -75.5t66.5 -46t85.5 -15.5t85.5 15.5t66.5 46t43 75.5t15 103v420h55v-420q0 -125 -59 -199t-159 -88q-35 -20 -51 -38t-16 -50
q0 -23 14.5 -36.5t40.5 -13.5h35v-40h-40v0z" />
    <glyph glyph-name="uogonek" unicode="&#x173;" horiz-adv-x="555" 
d="M450 -185q-45 0 -70 21.5t-25 63.5q0 24 8.5 40.5t21 28t27.5 18.5t28 13l-10 80h-5q-53 -90 -160 -90q-41 0 -76 14.5t-60.5 41.5t-39.5 66t-14 88v320h50v-320q0 -36 11.5 -65.5t31 -50.5t46 -32.5t56.5 -11.5q34 0 63 12.5t50.5 34t34 50.5t12.5 63v320h50v-520
q-41 -23 -60.5 -42t-19.5 -53q0 -23 14.5 -36.5t40.5 -13.5h35v-40h-40v0z" />
    <glyph glyph-name="Wcircumflex" unicode="&#x174;" horiz-adv-x="895" 
d="M20 700h55l170 -630h5l160 630h75l160 -630h5l170 630h55l-190 -700h-75l-160 625h-5l-160 -625h-75zM425 915h45l130 -145h-55l-95 105h-5l-95 -105h-55z" />
    <glyph glyph-name="wcircumflex" unicode="&#x175;" horiz-adv-x="695" 
d="M10 520h50l127 -455h5l128 455h55l128 -455h5l127 455h50l-145 -520h-65l-125 440h-5l-125 -440h-65zM325 745h45l130 -145h-55l-95 105h-5l-95 -105h-55z" />
    <glyph glyph-name="Ycircumflex" unicode="&#x176;" horiz-adv-x="565" 
d="M255 270l-250 430h60l215 -375h5l215 375h60l-250 -430v-270h-55v270zM260 915h45l130 -145h-55l-95 105h-5l-95 -105h-55z" />
    <glyph glyph-name="ycircumflex" unicode="&#x177;" horiz-adv-x="490" 
d="M224 0l-219 520h55l188 -447h5l177 447h55l-285 -720h-55zM225 745h45l130 -145h-55l-95 105h-5l-95 -105h-55z" />
    <glyph glyph-name="Ydieresis" unicode="&#x178;" horiz-adv-x="565" 
d="M255 270l-250 430h60l215 -375h5l215 375h60l-250 -430v-270h-55v270zM200 800q-17 0 -28.5 11.5t-11.5 28.5t11.5 28.5t28.5 11.5t28.5 -11.5t11.5 -28.5t-11.5 -28.5t-28.5 -11.5zM370 800q-17 0 -28.5 11.5t-11.5 28.5t11.5 28.5t28.5 11.5t28.5 -11.5t11.5 -28.5
t-11.5 -28.5t-28.5 -11.5z" />
    <glyph glyph-name="Zacute" unicode="&#x179;" horiz-adv-x="555" 
d="M35 40l410 610h-400v50h470v-40l-410 -610h415v-50h-485v40zM345 910h70l-115 -140h-45z" />
    <glyph glyph-name="zacute" unicode="&#x17a;" horiz-adv-x="430" 
d="M25 40l310 430h-300v50h365v-40l-310 -430h315v-50h-380v40zM285 740h70l-115 -140h-45z" />
    <glyph glyph-name="Zdotaccent" unicode="&#x17b;" horiz-adv-x="555" 
d="M35 40l410 610h-400v50h470v-40l-410 -610h415v-50h-485v40zM280 800q-17 0 -28.5 11.5t-11.5 28.5t11.5 28.5t28.5 11.5t28.5 -11.5t11.5 -28.5t-11.5 -28.5t-28.5 -11.5z" />
    <glyph glyph-name="zdotaccent" unicode="&#x17c;" horiz-adv-x="430" 
d="M25 40l310 430h-300v50h365v-40l-310 -430h315v-50h-380v40zM215 630q-17 0 -28.5 11.5t-11.5 28.5t11.5 28.5t28.5 11.5t28.5 -11.5t11.5 -28.5t-11.5 -28.5t-28.5 -11.5z" />
    <glyph glyph-name="Zcaron" unicode="&#x17d;" horiz-adv-x="555" 
d="M35 40l410 610h-400v50h470v-40l-410 -610h415v-50h-485v40zM130 915h55l95 -105h5l95 105h55l-130 -145h-45z" />
    <glyph glyph-name="zcaron" unicode="&#x17e;" horiz-adv-x="430" 
d="M25 40l310 430h-300v50h365v-40l-310 -430h315v-50h-380v40zM65 740h55l95 -105h5l95 105h55l-130 -145h-45z" />
    <glyph glyph-name="uni018F" unicode="&#x18f;" horiz-adv-x="720" 
d="M355 -10q-66 0 -121 23t-94.5 68t-62 111.5t-22.5 152.5v25h554q-3 70 -23 124t-54 91t-79.5 56t-97.5 19q-75 0 -132.5 -36.5t-87.5 -108.5h-60q34 94 106 144.5t174 50.5q67 0 124 -24t98.5 -70t64.5 -113t23 -153t-23 -153t-64.5 -113t-98.5 -70t-124 -24zM355 40
q51 0 95.5 18.5t78.5 54t55 87.5t25 120h-499q4 -71 24.5 -124t53 -87.5t75.5 -51.5t92 -17z" />
    <glyph glyph-name="florin" unicode="&#x192;" horiz-adv-x="395" 
d="M-60 -130h70q34 0 48.5 15t21.5 45l100 450h-100l10 50h100l35 165q13 60 40 82.5t80 22.5h70l-10 -50h-60q-34 0 -48.5 -15t-21.5 -45l-35 -160h110l-10 -50h-110l-100 -455q-14 -60 -40.5 -82.5t-79.5 -22.5h-80z" />
    <glyph glyph-name="Gacute" unicode="&#x1f4;" horiz-adv-x="710" 
d="M365 -10q-68 0 -124.5 24t-98 70t-64.5 113t-23 153t23 153t64.5 113t98 70t124.5 24q102 0 174 -50.5t106 -144.5h-60q-30 72 -87.5 108.5t-132.5 36.5q-54 0 -101 -20.5t-81 -59.5t-53.5 -97t-19.5 -133t19.5 -133t53.5 -97t81 -59.5t101 -20.5t97.5 19.5t74 53.5
t47 81t16.5 101h-240v50h295v-30q0 -75 -20.5 -135t-58.5 -102.5t-91.5 -65t-119.5 -22.5zM430 910h70l-115 -140h-45z" />
    <glyph glyph-name="gacute" unicode="&#x1f5;" horiz-adv-x="585" 
d="M290 -200q-83 0 -143.5 38t-86.5 117h54q20 -49 64 -77t112 -28q83 0 126.5 41t43.5 109v125h-5q-26 -45 -72 -70t-103 -25q-49 0 -91 18t-73 51t-48.5 79t-17.5 102t17.5 102t48.5 79t73 51t91 18q57 0 103.5 -25.5t76.5 -74.5h5l5 90h40v-520q0 -90 -57.5 -145
t-162.5 -55zM280 80q37 0 70 14.5t57.5 40.5t38.5 63t14 82t-14 82t-38.5 63t-57.5 40.5t-70 14.5q-38 0 -70.5 -14.5t-57 -40.5t-38.5 -63t-14 -82t14 -82t38.5 -63t57 -40.5t70.5 -14.5zM365 740h70l-115 -140h-45z" />
    <glyph glyph-name="Aringacute" unicode="&#x1fa;" horiz-adv-x="615" 
d="M310 735q-42 0 -68.5 26.5t-26.5 68.5t26 68.5t64 26.5l25 55h60l-40 -63q23 -9 39 -33t16 -54q0 -42 -26.5 -68.5t-68.5 -26.5zM310 775q24 0 39.5 15.5t15.5 39.5t-15.5 39.5t-39.5 15.5t-39.5 -15.5t-15.5 -39.5t15.5 -39.5t39.5 -15.5zM275 700h65l265 -700h-55
l-70 185h-345l-70 -185h-55zM461 235l-151 400h-5l-151 -400h307z" />
    <glyph glyph-name="aringacute" unicode="&#x1fb;" horiz-adv-x="515" 
d="M260 570q-42 0 -68.5 26.5t-26.5 68.5t26 68.5t64 26.5l25 55h60l-40 -63q23 -9 39 -33t16 -54q0 -42 -26.5 -68.5t-68.5 -26.5zM260 610q24 0 39.5 15.5t15.5 39.5t-15.5 39.5t-39.5 15.5t-39.5 -15.5t-15.5 -39.5t15.5 -39.5t39.5 -15.5zM220 -10q-83 0 -129 43.5
t-46 111.5q0 34 12 62.5t35.5 49t58 32t79.5 11.5h165v40q0 68 -36.5 104t-108.5 36q-60 0 -92.5 -26.5t-47.5 -68.5h-50q15 64 65 104.5t125 40.5q91 0 143 -51.5t52 -138.5v-340h-40l-10 80h-5q-8 -17 -22.5 -33t-36 -29t-49.5 -20.5t-62 -7.5zM220 40q83 0 129 45t46 120
v45h-165q-68 0 -101.5 -30t-33.5 -75t32.5 -75t92.5 -30z" />
    <glyph glyph-name="AEacute" unicode="&#x1fc;" horiz-adv-x="925" 
d="M330 700h525v-50h-375v-270h355v-50h-355v-280h385v-50h-440v175h-294l-86 -175h-60zM425 230v420h-60l-207 -420h267zM530 910h70l-115 -140h-45z" />
    <glyph glyph-name="aeacute" unicode="&#x1fd;" horiz-adv-x="895" 
d="M220 -10q-41 0 -73.5 11.5t-55 31.5t-34.5 47.5t-12 59.5t12 59.5t34.5 47.5t55 31.5t73.5 11.5h175v50q0 68 -36.5 104t-108.5 36q-60 0 -92.5 -26.5t-47.5 -68.5h-50q15 64 65 104.5t125 40.5t120 -33.5t60 -86.5q30 60 80 90t110 30q47 0 88 -18t71.5 -50t48 -77.5
t17.5 -99.5q0 -10 -0.5 -17t-1.5 -12q-1 -6 -1 -11h-397q0 -45 15 -82.5t39.5 -65t57 -42.5t68.5 -15q53 0 92.5 26.5t62.5 68.5h55q-13 -36 -35 -63t-49.5 -45t-59.5 -27.5t-66 -9.5q-72 0 -123 34t-77 91q-26 -57 -76 -91t-129 -34zM220 40q83 0 129 45t46 120v35h-175
q-60 0 -92.5 -29t-32.5 -71q0 -45 34 -72.5t91 -27.5zM795 290q-2 43 -16 78t-37.5 60t-54.5 38.5t-67 13.5q-38 0 -68.5 -14t-53 -39.5t-36 -60.5t-17.5 -76h350zM510 740h70l-115 -140h-45z" />
    <glyph glyph-name="Oslashacute" unicode="&#x1fe;" horiz-adv-x="730" 
d="M171 56q-54 45 -85 118.5t-31 175.5q0 86 23 153t64.5 113t98 70t124.5 24q42 0 81.5 -10t73.5 -30l30 55h55l-46 -81q54 -45 85 -118.5t31 -175.5q0 -86 -23 -153t-64.5 -113t-98.5 -70t-124 -24q-42 0 -81.5 10t-73.5 30l-30 -55h-55zM493 626q-29 18 -61.5 26t-66.5 8
q-54 0 -101 -20.5t-81 -59.5t-53.5 -97t-19.5 -133q0 -83 24 -145.5t64 -100.5zM365 40q54 0 101 20.5t81 59.5t53.5 97t19.5 133q0 83 -24 145.5t-64 100.5l-295 -522q29 -18 61.5 -26t66.5 -8zM435 910h70l-115 -140h-45z" />
    <glyph glyph-name="oslashacute" unicode="&#x1ff;" horiz-adv-x="570" 
d="M126 52q-35 35 -55.5 87t-20.5 121q0 64 17.5 114t49 84.5t74.5 53t94 18.5q68 0 122 -34l28 44h55l-46 -72q35 -35 55.5 -87t20.5 -121q0 -64 -17.5 -114t-49 -84.5t-74.5 -53t-94 -18.5q-71 0 -123 33l-27 -43h-55zM380 453q-41 27 -95 27q-39 0 -73 -14.5t-59 -43
t-39 -69.5t-14 -93q0 -54 14 -94.5t40 -69.5zM285 40q39 0 73 14.5t59 43t39 69t14 93.5t-14.5 94t-39.5 69l-226 -357q41 -26 95 -26zM355 740h70l-115 -140h-45z" />
    <glyph glyph-name="Scommaaccent" unicode="&#x218;" horiz-adv-x="590" 
d="M300 -10q-53 0 -96.5 14t-76 39.5t-54 60.5t-28.5 76h55q12 -37 32 -63.5t46 -43.5t57 -25t65 -8q47 0 82.5 11.5t59.5 31t36 46t12 56.5q0 39 -18.5 64t-48 40.5t-68 25.5t-78 19.5t-78 22t-68 33.5t-48 53t-18.5 82q0 39 15.5 73t44.5 59t70.5 39t94.5 14
q94 0 157.5 -43.5t82.5 -126.5h-55q-8 21 -21.5 42t-35.5 38.5t-53.5 28.5t-74.5 11q-41 0 -73 -10.5t-53.5 -29t-32.5 -43t-11 -52.5q0 -39 18.5 -64t48 -40.5t68 -25.5t78 -19.5t78 -22t68 -33.5t48 -53t18.5 -82q0 -41 -16.5 -77t-48 -62t-77 -41t-103.5 -15zM270 -85h55
l-65 -160h-35z" />
    <glyph glyph-name="scommaaccent" unicode="&#x219;" horiz-adv-x="470" 
d="M240 -10q-79 0 -132 40.5t-68 104.5h55q6 -19 17 -36t29 -30t42.5 -21t56.5 -8q75 0 107.5 26.5t32.5 68.5q0 38 -24 56.5t-60 29.5t-78.5 18.5t-78.5 23t-60 43.5t-24 79q0 30 12 56.5t35 46t56.5 31t76.5 11.5q68 0 117 -33t68 -97h-55q-6 13 -15.5 27t-25 26
t-37.5 19.5t-52 7.5q-68 0 -99 -26.5t-31 -68.5q0 -37 24 -56t60 -30t78.5 -18.5t78.5 -23t60 -43.5t24 -79q0 -30 -12 -56.5t-36 -46t-59.5 -31t-82.5 -11.5zM210 -85h55l-65 -160h-35z" />
    <glyph glyph-name="uni021A" unicode="&#x21a;" horiz-adv-x="585" 
d="M265 650h-240v50h535v-50h-240v-650h-55v650zM265 -85h55l-65 -160h-35z" />
    <glyph glyph-name="uni021B" unicode="&#x21b;" horiz-adv-x="335" 
d="M225 0q-53 0 -84 28.5t-31 81.5v360h-85v50h85l10 140h40v-140h135v-50h-135v-360q0 -30 17.5 -45t47.5 -15h70v-50h-70v0zM170 -85h55l-65 -160h-35z" />
    <glyph glyph-name="uni0232" unicode="&#x232;" horiz-adv-x="565" 
d="M255 270l-250 430h60l215 -375h5l215 375h60l-250 -430v-270h-55v270zM150 860h270v-45h-270v45z" />
    <glyph glyph-name="uni0233" unicode="&#x233;" horiz-adv-x="490" 
d="M224 0l-219 520h55l188 -447h5l177 447h55l-285 -720h-55zM110 690h270v-45h-270v45z" />
    <glyph glyph-name="uni0244" unicode="&#x244;" horiz-adv-x="720" 
d="M360 -10q-60 0 -109 19.5t-83.5 56.5t-53.5 91t-19 123v170h-75v50h75v200h55v-200h420v200h55v-200h75v-50h-75v-170q0 -69 -19 -123t-53.5 -91t-83.5 -56.5t-109 -19.5zM360 40q47 0 85.5 15.5t66.5 46t43 75.5t15 103v170h-420v-170q0 -58 15 -103t43 -75.5t66.5 -46
t85.5 -15.5z" />
    <glyph glyph-name="uni0259" unicode="&#x259;" horiz-adv-x="560" 
d="M280 -10q-49 0 -91 18t-73 50t-48.5 77.5t-17.5 99.5v16.5t1 12.5q1 6 2 11h407q-2 45 -16 82.5t-38 65t-57.5 42.5t-73.5 15q-57 0 -95.5 -25t-64.5 -70h-55q26 72 83 108.5t132 36.5q51 0 94 -18.5t74.5 -53t49 -84.5t17.5 -114t-17.5 -114t-48.5 -84.5t-73 -53
t-91 -18.5zM280 40q39 0 71 14t55 39.5t36.5 60.5t17.5 76h-360q2 -43 16 -78t38 -60t56 -38.5t70 -13.5z" />
    <glyph glyph-name="uni0289" unicode="&#x289;" horiz-adv-x="585" 
d="M280 -10q-41 0 -76 14.5t-60.5 41.5t-39.5 66t-14 88v175h-70v50h70v95h50v-95h305v95h50v-95h70v-50h-70v-375h-40l-10 80h-5q-53 -90 -160 -90zM285 40q34 0 63 12.5t50.5 34t34 50.5t12.5 63v175h-305v-175q0 -36 11.5 -65.5t31 -50.5t46 -32.5t56.5 -11.5z" />
    <glyph glyph-name="uni02BC" unicode="&#x2bc;" horiz-adv-x="160" 
d="M75 700h55l-65 -160h-35z" />
    <glyph glyph-name="circumflex" unicode="&#x2c6;" horiz-adv-x="365" 
d="M160 745h45l130 -145h-55l-95 105h-5l-95 -105h-55z" />
    <glyph glyph-name="caron" unicode="&#x2c7;" horiz-adv-x="365" 
d="M30 740h55l95 -105h5l95 105h55l-130 -145h-45z" />
    <glyph glyph-name="breve" unicode="&#x2d8;" horiz-adv-x="340" 
d="M170 610q-26 0 -50.5 7t-44 21.5t-31.5 37t-14 54.5h50q4 -38 28 -56.5t62 -18.5t62 18.5t28 56.5h50q-2 -32 -14 -54.5t-31.5 -37t-44 -21.5t-50.5 -7z" />
    <glyph glyph-name="dotaccent" unicode="&#x2d9;" horiz-adv-x="140" 
d="M70 630q-17 0 -28.5 11.5t-11.5 28.5t11.5 28.5t28.5 11.5t28.5 -11.5t11.5 -28.5t-11.5 -28.5t-28.5 -11.5z" />
    <glyph glyph-name="ring" unicode="&#x2da;" horiz-adv-x="250" 
d="M125 580q-42 0 -68.5 26.5t-26.5 68.5t26.5 68.5t68.5 26.5t68.5 -26.5t26.5 -68.5t-26.5 -68.5t-68.5 -26.5zM125 620q24 0 39.5 15.5t15.5 39.5t-15.5 39.5t-39.5 15.5t-39.5 -15.5t-15.5 -39.5t15.5 -39.5t39.5 -15.5z" />
    <glyph glyph-name="ogonek" unicode="&#x2db;" horiz-adv-x="195" 
d="M125 -185q-45 0 -70 21.5t-25 63.5q0 22 7.5 38.5t19.5 28.5t26 19.5t27 13.5v10h45v-10q-41 -23 -60.5 -42t-19.5 -53q0 -23 14.5 -36.5t40.5 -13.5h35v-40h-40v0z" />
    <glyph glyph-name="tilde" unicode="&#x2dc;" horiz-adv-x="350" 
d="M240 620q-23 0 -39.5 8.5t-30.5 19t-27 19t-28 8.5t-25 -12t-10 -38h-50q0 49 21 72t59 23q22 0 39 -8.5t31 -19t27 -19t28 -8.5t25 12t10 38h50q0 -49 -21 -72t-59 -23z" />
    <glyph glyph-name="hungarumlaut" unicode="&#x2dd;" horiz-adv-x="370" 
d="M120 740h70l-115 -140h-45zM270 740h70l-115 -140h-45z" />
    <glyph glyph-name="acutecomb" unicode="&#x301;" horiz-adv-x="0" 
d="M-285 910h70l-115 -140h-45z" />
    <glyph glyph-name="uni0302" unicode="&#x302;" horiz-adv-x="0" 
d="M-370 915h45l130 -145h-55l-95 105h-5l-95 -105h-55z" />
    <glyph glyph-name="uni0304" unicode="&#x304;" horiz-adv-x="0" 
d="M-485 860h270v-45h-270v45z" />
    <glyph glyph-name="uni0306" unicode="&#x306;" horiz-adv-x="0" 
d="M-345 780q-26 0 -50.5 7t-44 21.5t-31.5 37t-14 54.5h50q4 -38 28 -56.5t62 -18.5t62 18.5t28 56.5h50q-2 -32 -14 -54.5t-31.5 -37t-44 -21.5t-50.5 -7z" />
    <glyph glyph-name="uni0307" unicode="&#x307;" horiz-adv-x="0" 
d="M-345 800q-17 0 -28.5 11.5t-11.5 28.5t11.5 28.5t28.5 11.5t28.5 -11.5t11.5 -28.5t-11.5 -28.5t-28.5 -11.5z" />
    <glyph glyph-name="uni0308" unicode="&#x308;" horiz-adv-x="0" 
d="M-435 800q-17 0 -28.5 11.5t-11.5 28.5t11.5 28.5t28.5 11.5t28.5 -11.5t11.5 -28.5t-11.5 -28.5t-28.5 -11.5zM-265 800q-17 0 -28.5 11.5t-11.5 28.5t11.5 28.5t28.5 11.5t28.5 -11.5t11.5 -28.5t-11.5 -28.5t-28.5 -11.5z" />
    <glyph glyph-name="uni030A" unicode="&#x30a;" horiz-adv-x="0" 
d="M-345 750q-42 0 -68.5 26.5t-26.5 68.5t26.5 68.5t68.5 26.5t68.5 -26.5t26.5 -68.5t-26.5 -68.5t-68.5 -26.5zM-345 790q24 0 39.5 15.5t15.5 39.5t-15.5 39.5t-39.5 15.5t-39.5 -15.5t-15.5 -39.5t15.5 -39.5t39.5 -15.5z" />
    <glyph glyph-name="uni030C" unicode="&#x30c;" horiz-adv-x="0" 
d="M-500 910h55l95 -105h5l95 105h55l-130 -145h-45z" />
    <glyph glyph-name="uni0326" unicode="&#x326;" horiz-adv-x="160" 
d="M75 -85h55l-65 -160h-35z" />
    <glyph glyph-name="uni0400" unicode="&#x400;" horiz-adv-x="590" 
d="M90 700h430v-50h-375v-270h355v-50h-355v-280h385v-50h-440v700zM175 910h70l90 -140h-45z" />
    <glyph glyph-name="uni0401" unicode="&#x401;" horiz-adv-x="590" 
d="M90 700h430v-50h-375v-270h355v-50h-355v-280h385v-50h-440v700zM225 800q-17 0 -28.5 11.5t-11.5 28.5t11.5 28.5t28.5 11.5t28.5 -11.5t11.5 -28.5t-11.5 -28.5t-28.5 -11.5zM395 800q-17 0 -28.5 11.5t-11.5 28.5t11.5 28.5t28.5 11.5t28.5 -11.5t11.5 -28.5
t-11.5 -28.5t-28.5 -11.5z" />
    <glyph glyph-name="uni0402" unicode="&#x402;" horiz-adv-x="705" 
d="M195 650h-190v50h430v-50h-185v-255q23 11 67 23t93 12q113 0 174 -56.5t61 -158.5t-60.5 -158.5t-169.5 -56.5h-50v50h45q87 0 133.5 41t46.5 124q0 43 -12.5 74t-36 51.5t-57 30t-74.5 9.5q-60 0 -100.5 -14.5t-59.5 -25.5v-340h-55v650z" />
    <glyph glyph-name="uni0403" unicode="&#x403;" horiz-adv-x="500" 
d="M90 700h390v-50h-335v-650h-55v700zM350 910h70l-115 -140h-45z" />
    <glyph glyph-name="uni0404" unicode="&#x404;" horiz-adv-x="690" 
d="M365 -10q-68 0 -124.5 24t-98 70t-64.5 113t-23 153t23 153t64.5 113t98 70t124.5 24q102 0 174 -50.5t106 -144.5h-60q-30 72 -87.5 108.5t-132.5 36.5q-52 0 -97 -18.5t-79 -54.5t-54.5 -89.5t-24.5 -122.5h310v-50h-310q4 -69 24.5 -122.5t54.5 -89.5t79 -54.5
t97 -18.5q75 0 132.5 36.5t87.5 108.5h60q-34 -94 -106 -144.5t-174 -50.5z" />
    <glyph glyph-name="uni0405" unicode="&#x405;" horiz-adv-x="590" 
d="M300 -10q-53 0 -96.5 14t-76 39.5t-54 60.5t-28.5 76h55q12 -37 32 -63.5t46 -43.5t57 -25t65 -8q47 0 82.5 11.5t59.5 31t36 46t12 56.5q0 39 -18.5 64t-48 40.5t-68 25.5t-78 19.5t-78 22t-68 33.5t-48 53t-18.5 82q0 39 15.5 73t44.5 59t70.5 39t94.5 14
q94 0 157.5 -43.5t82.5 -126.5h-55q-8 21 -21.5 42t-35.5 38.5t-53.5 28.5t-74.5 11q-41 0 -73 -10.5t-53.5 -29t-32.5 -43t-11 -52.5q0 -39 18.5 -64t48 -40.5t68 -25.5t78 -19.5t78 -22t68 -33.5t48 -53t18.5 -82q0 -41 -16.5 -77t-48 -62t-77 -41t-103.5 -15z" />
    <glyph glyph-name="uni0406" unicode="&#x406;" horiz-adv-x="235" 
d="M90 700h55v-700h-55v700z" />
    <glyph glyph-name="uni0407" unicode="&#x407;" horiz-adv-x="235" 
d="M90 700h55v-700h-55v700zM35 800q-17 0 -28.5 11.5t-11.5 28.5t11.5 28.5t28.5 11.5t28.5 -11.5t11.5 -28.5t-11.5 -28.5t-28.5 -11.5zM205 800q-17 0 -28.5 11.5t-11.5 28.5t11.5 28.5t28.5 11.5t28.5 -11.5t11.5 -28.5t-11.5 -28.5t-28.5 -11.5z" />
    <glyph glyph-name="uni0408" unicode="&#x408;" horiz-adv-x="535" 
d="M235 -10q-91 0 -145 49.5t-65 140.5h55q8 -64 49.5 -102t105.5 -38q72 0 116 45.5t44 139.5v475h55v-475q0 -58 -15.5 -102t-43.5 -73.5t-67.5 -44.5t-88.5 -15z" />
    <glyph glyph-name="uni0409" unicode="&#x409;" horiz-adv-x="1015" 
d="M10 50h10q34 0 58.5 14t40.5 49.5t23.5 96.5t7.5 155v335h415v-280h185q51 0 91.5 -15t69 -43t44 -66.5t15.5 -85.5t-15.5 -85.5t-44 -66.5t-69 -43t-91.5 -15h-240v650h-305v-285q0 -103 -9 -174t-31 -114.5t-57.5 -62.5t-87.5 -19h-10v55zM745 50q79 0 124.5 44
t45.5 116t-45.5 116t-124.5 44h-180v-320h180z" />
    <glyph glyph-name="uni040A" unicode="&#x40a;" horiz-adv-x="1040" 
d="M90 700h55v-300h390v300h55v-300h195q51 0 90 -16t65.5 -43t40.5 -63.5t14 -77.5t-14 -77.5t-40.5 -63.5t-65.5 -43t-90 -16h-250v350h-390v-350h-55v700zM780 50q39 0 69 11.5t50.5 31.5t30.5 47.5t10 59.5t-10 59.5t-30.5 47.5t-50.5 31.5t-69 11.5h-190v-300h190z" />
    <glyph glyph-name="uni040B" unicode="&#x40b;" horiz-adv-x="710" 
d="M195 650h-190v50h430v-50h-185v-255q23 11 67 23t93 12q109 0 164.5 -54.5t55.5 -160.5v-215h-55v215q0 165 -165 165q-60 0 -100.5 -14.5t-59.5 -25.5v-340h-55v650z" />
    <glyph glyph-name="uni040C" unicode="&#x40c;" horiz-adv-x="565" 
d="M90 700h55v-335l335 335h70l-345 -345l360 -355h-70l-350 345v-345h-55v700zM375 910h70l-115 -140h-45z" />
    <glyph glyph-name="uni040D" unicode="&#x40d;" horiz-adv-x="725" 
d="M90 700h55v-630h5l410 630h75v-700h-55v630h-5l-410 -630h-75v700zM225 910h70l90 -140h-45z" />
    <glyph glyph-name="uni040E" unicode="&#x40e;" horiz-adv-x="550" 
d="M256 210l-246 490h60l212 -425h5l193 425h60l-320 -700h-60zM275 780q-57 0 -96.5 28t-43.5 92h50q4 -38 28 -56.5t62 -18.5t62 18.5t28 56.5h50q-4 -64 -43.5 -92t-96.5 -28z" />
    <glyph glyph-name="uni040F" unicode="&#x40f;" horiz-adv-x="700" 
d="M325 0h-235v700h55v-650h410v650h55v-700h-235v-145h-50v145z" />
    <glyph glyph-name="uni0410" unicode="&#x410;" horiz-adv-x="615" 
d="M275 700h65l265 -700h-55l-70 185h-345l-70 -185h-55zM461 235l-151 400h-5l-151 -400h307z" />
    <glyph glyph-name="uni0411" unicode="&#x411;" horiz-adv-x="615" 
d="M90 700h430v-50h-375v-240h200q51 0 91.5 -15t69 -42.5t44 -65t15.5 -82.5t-15.5 -82.5t-44 -65t-69 -42.5t-91.5 -15h-255v700zM340 50q83 0 126.5 41.5t43.5 113.5t-43.5 113.5t-126.5 41.5h-195v-310h195z" />
    <glyph glyph-name="uni0412" unicode="&#x412;" horiz-adv-x="645" 
d="M90 700h285q94 0 147 -51.5t53 -138.5q0 -53 -28 -94.5t-77 -60.5q53 -19 84 -62t31 -103q0 -87 -53 -138.5t-147 -51.5h-295v700zM380 50q72 0 111 38t39 102q0 60 -39 97.5t-111 37.5h-235v-275h235zM370 375q72 0 111 37.5t39 97.5q0 64 -39 102t-111 38h-225v-275
h225z" />
    <glyph glyph-name="uni0413" unicode="&#x413;" horiz-adv-x="500" 
d="M90 700h390v-50h-335v-650h-55v700z" />
    <glyph glyph-name="uni0414" unicode="&#x414;" horiz-adv-x="675" 
d="M5 50h55q17 22 30 51t22 67t13.5 86.5t4.5 110.5v335h425v-650h85v-195h-50v145h-535v-145h-50v195zM500 50v600h-315v-285q0 -62 -4 -110t-12 -85.5t-20 -66.5t-29 -53h380z" />
    <glyph glyph-name="uni0415" unicode="&#x415;" horiz-adv-x="590" 
d="M90 700h430v-50h-375v-270h355v-50h-355v-280h385v-50h-440v700z" />
    <glyph glyph-name="uni0416" unicode="&#x416;" horiz-adv-x="835" 
d="M330 355l-315 345h70l305 -335v335h55v-335l305 335h70l-315 -345l330 -355h-70l-320 345v-345h-55v345l-320 -345h-70z" />
    <glyph glyph-name="uni0417" unicode="&#x417;" horiz-adv-x="595" 
d="M290 -10q-47 0 -90 13t-76.5 37.5t-55.5 61t-28 83.5h55q4 -26 18.5 -52t39 -46.5t59 -33.5t78.5 -13q47 0 82.5 11.5t59.5 31t36 46t12 56.5q0 28 -10 53.5t-31 44.5t-53 30.5t-76 11.5h-75v50h75q39 0 69 12t50.5 31.5t30.5 45t10 51.5q0 30 -12 56.5t-35.5 46t-58 31
t-79.5 11.5q-41 0 -73 -12t-54.5 -32.5t-35.5 -46.5t-17 -54h-55q15 94 78 144.5t157 50.5q56 0 100.5 -15t75.5 -41.5t47.5 -62t16.5 -76.5q0 -60 -30.5 -100.5t-79.5 -59.5q53 -19 86.5 -62.5t33.5 -107.5q0 -39 -16.5 -74.5t-48 -62.5t-77 -42.5t-103.5 -15.5z" />
    <glyph glyph-name="uni0418" unicode="&#x418;" horiz-adv-x="725" 
d="M90 700h55v-630h5l410 630h75v-700h-55v630h-5l-410 -630h-75v700z" />
    <glyph glyph-name="uni0419" unicode="&#x419;" horiz-adv-x="725" 
d="M90 700h55v-630h5l410 630h75v-700h-55v630h-5l-410 -630h-75v700zM365 780q-57 0 -96.5 28t-43.5 92h50q4 -38 28 -56.5t62 -18.5t62 18.5t28 56.5h50q-4 -64 -43.5 -92t-96.5 -28z" />
    <glyph glyph-name="uni041A" unicode="&#x41a;" horiz-adv-x="565" 
d="M90 700h55v-335l335 335h70l-345 -345l360 -355h-70l-350 345v-345h-55v700z" />
    <glyph glyph-name="uni041B" unicode="&#x41b;" horiz-adv-x="675" 
d="M10 50h10q34 0 58.5 14t40.5 49.5t23.5 96.5t7.5 155v335h435v-700h-55v650h-325v-285q0 -103 -9 -174t-31 -114.5t-57.5 -62.5t-87.5 -19h-10v55z" />
    <glyph glyph-name="uni041C" unicode="&#x41c;" horiz-adv-x="845" 
d="M90 700h85l245 -620h5l245 620h85v-700h-55v620h-5l-245 -620h-55l-245 620h-5v-620h-55v700z" />
    <glyph glyph-name="uni041D" unicode="&#x41d;" horiz-adv-x="700" 
d="M90 700h55v-320h410v320h55v-700h-55v330h-410v-330h-55v700z" />
    <glyph glyph-name="uni041E" unicode="&#x41e;" horiz-adv-x="730" 
d="M365 -10q-68 0 -124.5 24t-98 70t-64.5 113t-23 153t23 153t64.5 113t98 70t124.5 24q67 0 124 -24t98.5 -70t64.5 -113t23 -153t-23 -153t-64.5 -113t-98.5 -70t-124 -24zM365 40q54 0 101 20.5t81 59.5t53.5 97t19.5 133t-19.5 133t-53.5 97t-81 59.5t-101 20.5
t-101 -20.5t-81 -59.5t-53.5 -97t-19.5 -133t19.5 -133t53.5 -97t81 -59.5t101 -20.5z" />
    <glyph glyph-name="uni041F" unicode="&#x41f;" horiz-adv-x="695" 
d="M90 700h515v-700h-55v650h-405v-650h-55v700z" />
    <glyph glyph-name="uni0420" unicode="&#x420;" horiz-adv-x="620" 
d="M90 700h255q51 0 91.5 -15.5t69 -43.5t44 -67.5t15.5 -88.5t-15.5 -88.5t-44 -67.5t-69 -43.5t-91.5 -15.5h-200v-270h-55v700zM340 320q79 0 124.5 45t45.5 120t-45.5 120t-124.5 45h-195v-330h195z" />
    <glyph glyph-name="uni0421" unicode="&#x421;" horiz-adv-x="690" 
d="M365 -10q-68 0 -124.5 24t-98 70t-64.5 113t-23 153t23 153t64.5 113t98 70t124.5 24q102 0 174 -50.5t106 -144.5h-60q-30 72 -87.5 108.5t-132.5 36.5q-54 0 -101 -20.5t-81 -59.5t-53.5 -97t-19.5 -133t19.5 -133t53.5 -97t81 -59.5t101 -20.5q75 0 132.5 36.5
t87.5 108.5h60q-34 -94 -106 -144.5t-174 -50.5z" />
    <glyph glyph-name="uni0422" unicode="&#x422;" horiz-adv-x="585" 
d="M265 650h-240v50h535v-50h-240v-650h-55v650z" />
    <glyph glyph-name="uni0423" unicode="&#x423;" horiz-adv-x="550" 
d="M256 210l-246 490h60l212 -425h5l193 425h60l-320 -700h-60z" />
    <glyph glyph-name="uni0424" unicode="&#x424;" horiz-adv-x="795" 
d="M370 70q-77 0 -136.5 20.5t-100.5 58t-62 90t-21 116.5t21 116.5t62 90t100.5 58t136.5 20.5v70h55v-70q77 0 136.5 -20.5t100.5 -58t62 -90t21 -116.5t-21 -116.5t-62 -90t-100.5 -58t-136.5 -20.5v-80h-55v80zM370 590q-132 0 -198.5 -63t-66.5 -172t66.5 -172
t198.5 -63v470zM425 120q132 0 198.5 63t66.5 172t-66.5 172t-198.5 63v-470z" />
    <glyph glyph-name="uni0425" unicode="&#x425;" horiz-adv-x="570" 
d="M253 360l-228 340h65l195 -295l195 295h65l-228 -340l238 -360h-65l-205 310l-205 -310h-65z" />
    <glyph glyph-name="uni0426" unicode="&#x426;" horiz-adv-x="725" 
d="M640 0h-550v700h55v-650h405v650h55v-650h85v-195h-50v145z" />
    <glyph glyph-name="uni0427" unicode="&#x427;" horiz-adv-x="655" 
d="M510 280q-34 -19 -77 -32t-103 -13t-106.5 17t-78.5 48.5t-48.5 76t-16.5 98.5v225h55v-225q0 -87 50.5 -138.5t144.5 -51.5q64 0 105 13t75 33v369h55v-700h-55v280z" />
    <glyph glyph-name="uni0428" unicode="&#x428;" horiz-adv-x="935" 
d="M90 700h55v-650h295v650h55v-650h295v650h55v-700h-755v700z" />
    <glyph glyph-name="uni0429" unicode="&#x429;" horiz-adv-x="965" 
d="M880 0h-790v700h55v-650h295v650h55v-650h295v650h55v-650h85v-195h-50v145z" />
    <glyph glyph-name="uni042A" unicode="&#x42a;" horiz-adv-x="685" 
d="M165 650h-165v50h220v-280h200q51 0 91.5 -15t69 -43t44 -66.5t15.5 -85.5t-15.5 -85.5t-44 -66.5t-69 -43t-91.5 -15h-255v650zM415 50q79 0 124.5 44t45.5 116t-45.5 116t-124.5 44h-195v-320h195z" />
    <glyph glyph-name="uni042B" unicode="&#x42b;" horiz-adv-x="805" 
d="M90 700h55v-280h190q51 0 91.5 -15t69 -43t44 -66.5t15.5 -85.5t-15.5 -85.5t-44 -66.5t-69 -43t-91.5 -15h-245v700zM330 50q79 0 124.5 44t45.5 116t-45.5 116t-124.5 44h-185v-320h185zM660 700h55v-700h-55v700z" />
    <glyph glyph-name="uni042C" unicode="&#x42c;" horiz-adv-x="610" 
d="M90 700h55v-280h200q51 0 91.5 -15t69 -43t44 -66.5t15.5 -85.5t-15.5 -85.5t-44 -66.5t-69 -43t-91.5 -15h-255v700zM340 50q79 0 124.5 44t45.5 116t-45.5 116t-124.5 44h-195v-320h195z" />
    <glyph glyph-name="uni042D" unicode="&#x42d;" horiz-adv-x="685" 
d="M320 -10q-102 0 -174 50.5t-106 144.5h60q30 -72 87.5 -108.5t132.5 -36.5q52 0 97 18.5t79 54.5t54.5 89.5t24.5 122.5h-310v50h310q-4 69 -24.5 122.5t-54.5 89.5t-79 54.5t-97 18.5q-75 0 -132.5 -36.5t-87.5 -108.5h-60q34 94 106 144.5t174 50.5q67 0 124 -24
t98.5 -70t64.5 -113t23 -153t-23 -153t-64.5 -113t-98.5 -70t-124 -24z" />
    <glyph glyph-name="uni042E" unicode="&#x42e;" horiz-adv-x="915" 
d="M565 -10q-58 0 -110 21.5t-91.5 64t-63 106.5t-25.5 148h-130v-330h-55v700h55v-320h130q4 81 28 142.5t63 103t90 63t109 21.5q64 0 118 -23t93.5 -68.5t61.5 -113t22 -155.5t-22 -155.5t-61.5 -113t-93.5 -68.5t-118 -23zM565 40q51 0 94.5 19.5t76 58.5t51 97
t18.5 135t-18.5 135t-51 97t-76 58.5t-94.5 19.5q-47 0 -89.5 -19t-75 -57.5t-51.5 -96.5t-19 -137t19 -137t51.5 -96.5t75 -57.5t89.5 -19z" />
    <glyph glyph-name="uni042F" unicode="&#x42f;" horiz-adv-x="620" 
d="M285 290q-117 0 -173.5 55.5t-56.5 149.5t57 149.5t163 55.5h255v-700h-55v290h-125l-225 -290h-65zM475 340v310h-195q-83 0 -126.5 -41.5t-43.5 -113.5t43.5 -113.5t126.5 -41.5h195z" />
    <glyph glyph-name="uni0430" unicode="&#x430;" horiz-adv-x="515" 
d="M220 -10q-83 0 -129 43.5t-46 111.5q0 34 12 62.5t35.5 49t58 32t79.5 11.5h165v40q0 68 -36.5 104t-108.5 36q-60 0 -92.5 -26.5t-47.5 -68.5h-50q15 64 65 104.5t125 40.5q91 0 143 -51.5t52 -138.5v-340h-40l-10 80h-5q-8 -17 -22.5 -33t-36 -29t-49.5 -20.5t-62 -7.5
zM220 40q83 0 129 45t46 120v45h-165q-68 0 -101.5 -30t-33.5 -75t32.5 -75t92.5 -30z" />
    <glyph glyph-name="uni0431" unicode="&#x431;" horiz-adv-x="570" 
d="M290 -10q-53 0 -96 18t-74 54t-48 90.5t-17 127.5q0 112 17.5 189t50 123.5t80 67t107.5 20.5q64 0 109 10t71 25v-55q-23 -15 -71.5 -22.5t-108.5 -7.5q-47 0 -81.5 -13.5t-58.5 -43t-38.5 -76t-22.5 -112.5h5q27 49 72 77t109 28q49 0 90 -17.5t71 -49.5t47 -78.5
t17 -104.5t-17 -104.5t-47.5 -78.5t-72.5 -49.5t-93 -17.5zM290 40q39 0 72 13.5t57 39.5t37.5 63t13.5 84t-13.5 84t-37.5 63t-57 39.5t-72 13.5t-72 -13.5t-57 -39.5t-37.5 -63t-13.5 -84t13.5 -84t37.5 -63t57 -39.5t72 -13.5z" />
    <glyph glyph-name="uni0432" unicode="&#x432;" horiz-adv-x="510" 
d="M75 520h225q72 0 111 -40t39 -100q0 -42 -20.5 -73t-54.5 -42q42 -15 63.5 -46.5t21.5 -73.5q0 -64 -42.5 -104.5t-117.5 -40.5h-225v520zM300 50q56 0 83 25t27 70t-27 70t-83 25h-175v-190h175zM300 290q49 0 74.5 24t25.5 66t-25.5 66t-74.5 24h-175v-180h175z" />
    <glyph glyph-name="uni0433" unicode="&#x433;" horiz-adv-x="420" 
d="M75 520h325v-50h-275v-470h-50v520z" />
    <glyph glyph-name="uni0434" unicode="&#x434;" horiz-adv-x="545" 
d="M5 50h50q7 11 17 29t18 45.5t14 67t6 93.5v235h340v-470h70v-170h-50v120h-415v-120h-50v170zM400 50v420h-240v-185q0 -54 -6 -93.5t-14 -67t-18 -45.5t-17 -29h295z" />
    <glyph glyph-name="uni0435" unicode="&#x435;" horiz-adv-x="560" 
d="M285 -10q-51 0 -94 18.5t-74.5 53t-49 84.5t-17.5 114t17.5 114t48.5 84.5t73 53t91 18.5t91 -18t73 -50t48.5 -77.5t17.5 -99.5q0 -10 -0.5 -17t-1.5 -12q-1 -6 -1 -11h-407q2 -45 16 -82.5t38 -65t57 -42.5t74 -15q57 0 95.5 25t64.5 70h55q-26 -72 -83 -108.5
t-132 -36.5zM460 290q-2 43 -16 78t-38 60t-56.5 38.5t-69.5 13.5q-39 0 -71 -14t-55 -39.5t-36.5 -60.5t-17.5 -76h360z" />
    <glyph glyph-name="uni0436" unicode="&#x436;" horiz-adv-x="670" 
d="M255 265l-245 255h65l235 -245v245h50v-245l235 245h65l-245 -255l260 -265h-65l-250 255v-255h-50v255l-250 -255h-65z" />
    <glyph glyph-name="uni0437" unicode="&#x437;" horiz-adv-x="475" 
d="M235 -10q-87 0 -138 38.5t-62 106.5h50q8 -45 49 -70t101 -25q71 0 105.5 29.5t34.5 70.5q0 42 -32.5 71t-92.5 29h-70v50h70q28 0 49.5 8t36 21t22 30t7.5 36t-7.5 36t-23.5 30t-40.5 21t-58.5 8q-60 0 -92.5 -21t-47.5 -74h-50q11 72 61 108.5t129 36.5
q45 0 78.5 -11.5t56 -31t34 -46t11.5 -56.5q0 -49 -25.5 -79t-59.5 -41q42 -11 68.5 -45.5t26.5 -79.5q0 -32 -12 -59.5t-36 -47.5t-59.5 -31.5t-82.5 -11.5z" />
    <glyph glyph-name="uni0438" unicode="&#x438;" horiz-adv-x="565" 
d="M75 520h50v-450h5l295 450h65v-520h-50v450h-5l-295 -450h-65v520z" />
    <glyph glyph-name="uni0439" unicode="&#x439;" horiz-adv-x="565" 
d="M75 520h50v-450h5l295 450h65v-520h-50v450h-5l-295 -450h-65v520zM285 610q-53 0 -89.5 30t-40.5 90h50q4 -38 25 -56.5t55 -18.5t55 18.5t25 56.5h50q-4 -60 -40.5 -90t-89.5 -30z" />
    <glyph glyph-name="uni043A" unicode="&#x43a;" horiz-adv-x="465" 
d="M75 520h50v-250l265 250h65l-276 -260l291 -260h-65l-280 250v-250h-50v520z" />
    <glyph glyph-name="uni043B" unicode="&#x43b;" horiz-adv-x="540" 
d="M10 45h10q22 0 40 10.5t30 38.5t18.5 77.5t6.5 128.5v220h350v-520h-50v470h-250v-170q0 -88 -8.5 -146.5t-26.5 -94t-45.5 -50t-64.5 -14.5h-10v50z" />
    <glyph glyph-name="uni043C" unicode="&#x43c;" horiz-adv-x="685" 
d="M75 520h72l193 -450h5l193 450h72v-520h-50v440h-5l-190 -440h-45l-190 440h-5v-440h-50v520z" />
    <glyph glyph-name="uni043D" unicode="&#x43d;" horiz-adv-x="555" 
d="M75 520h50v-235h305v235h50v-520h-50v235h-305v-235h-50v520z" />
    <glyph glyph-name="uni043E" unicode="&#x43e;" horiz-adv-x="570" 
d="M285 -10q-51 0 -94 18.5t-74.5 53t-49 84.5t-17.5 114t17.5 114t49 84.5t74.5 53t94 18.5t94 -18.5t74.5 -53t49 -84.5t17.5 -114t-17.5 -114t-49 -84.5t-74.5 -53t-94 -18.5zM285 40q39 0 73 14.5t59 43t39 69t14 93.5q0 52 -14 93t-39 69.5t-59 43t-73 14.5t-73 -14.5
t-59 -43t-39 -69.5t-14 -93q0 -53 14 -93.5t39 -69t59 -43t73 -14.5z" />
    <glyph glyph-name="uni043F" unicode="&#x43f;" horiz-adv-x="550" 
d="M75 520h400v-520h-50v470h-300v-470h-50v520z" />
    <glyph glyph-name="uni0440" unicode="&#x440;" horiz-adv-x="585" 
d="M75 520h40l10 -90h5q30 49 76.5 74.5t103.5 25.5q49 0 90 -17.5t71 -52t47 -84.5t17 -116t-17 -116t-47 -84.5t-71 -52t-90 -17.5q-57 0 -103.5 25.5t-76.5 74.5h-5v-290h-50v720zM305 40q37 0 70 14.5t57.5 43t38.5 69t14 93.5q0 52 -14 93t-38.5 69.5t-57.5 43
t-70 14.5q-38 0 -70.5 -14.5t-57 -43t-38.5 -69.5t-14 -93q0 -53 14 -93.5t38.5 -69t57 -43t70.5 -14.5z" />
    <glyph glyph-name="uni0441" unicode="&#x441;" horiz-adv-x="540" 
d="M285 -10q-51 0 -94 18.5t-74.5 53t-49 84.5t-17.5 114t17.5 114t49 84.5t74.5 53t94 18.5q72 0 128.5 -35t86.5 -110h-55q-26 45 -64.5 70t-95.5 25q-39 0 -73 -14.5t-59 -43t-39 -69.5t-14 -93q0 -53 14 -93.5t39 -69t59 -43t73 -14.5q57 0 95.5 25t64.5 70h55
q-30 -75 -86.5 -110t-128.5 -35z" />
    <glyph glyph-name="uni0442" unicode="&#x442;" horiz-adv-x="450" 
d="M200 470h-185v50h420v-50h-185v-470h-50v470z" />
    <glyph glyph-name="uni0443" unicode="&#x443;" horiz-adv-x="490" 
d="M224 0l-219 520h55l188 -447h5l177 447h55l-285 -720h-55z" />
    <glyph glyph-name="uni0444" unicode="&#x444;" horiz-adv-x="680" 
d="M315 0q-62 0 -112 19t-85 53t-54 82t-19 106t19 106t54 82t85 53t112 19v200h50v-200q62 0 112 -19t85 -53t54 -82t19 -106t-19 -106t-54 -82t-85 -53t-112 -19v-200h-50v200zM315 470q-51 0 -91.5 -15t-69 -43t-44 -66.5t-15.5 -85.5t15.5 -85.5t44 -66.5t69 -43
t91.5 -15v420zM365 50q51 0 91.5 15t69 43t44 66.5t15.5 85.5t-15.5 85.5t-44 66.5t-69 43t-91.5 15v-420z" />
    <glyph glyph-name="uni0445" unicode="&#x445;" horiz-adv-x="450" 
d="M195 267l-175 253h60l145 -210l145 210h60l-175 -253l185 -267h-60l-155 225l-155 -225h-60z" />
    <glyph glyph-name="uni0446" unicode="&#x446;" horiz-adv-x="565" 
d="M490 0h-415v520h50v-470h295v470h50v-470h70v-170h-50v120z" />
    <glyph glyph-name="uni0447" unicode="&#x447;" horiz-adv-x="525" 
d="M400 210q-19 -11 -55 -23t-85 -12q-98 0 -146.5 46t-48.5 129v170h50v-170q0 -60 35 -92.5t110 -32.5q45 0 79.5 10t60.5 25v260h50v-520h-50v210z" />
    <glyph glyph-name="uni0448" unicode="&#x448;" horiz-adv-x="780" 
d="M75 520h50v-470h240v470h50v-470h240v470h50v-520h-630v520z" />
    <glyph glyph-name="uni0449" unicode="&#x449;" horiz-adv-x="800" 
d="M725 0h-650v520h50v-470h240v470h50v-470h240v470h50v-470h70v-170h-50v120z" />
    <glyph glyph-name="uni044A" unicode="&#x44a;" horiz-adv-x="550" 
d="M135 470h-135v50h185v-200h155q79 0 124.5 -42.5t45.5 -117.5t-45.5 -117.5t-124.5 -42.5h-205v470zM335 50q60 0 92.5 28.5t32.5 81.5t-32.5 81.5t-92.5 28.5h-150v-220h150z" />
    <glyph glyph-name="uni044B" unicode="&#x44b;" horiz-adv-x="650" 
d="M75 520h50v-200h145q79 0 124.5 -42.5t45.5 -117.5t-45.5 -117.5t-124.5 -42.5h-195v520zM265 50q60 0 92.5 28.5t32.5 81.5t-32.5 81.5t-92.5 28.5h-140v-220h140zM525 520h50v-520h-50v520z" />
    <glyph glyph-name="uni044C" unicode="&#x44c;" horiz-adv-x="490" 
d="M75 520h50v-200h155q79 0 124.5 -42.5t45.5 -117.5t-45.5 -117.5t-124.5 -42.5h-205v520zM275 50q60 0 92.5 28.5t32.5 81.5t-32.5 81.5t-92.5 28.5h-150v-220h150z" />
    <glyph glyph-name="uni044D" unicode="&#x44d;" horiz-adv-x="535" 
d="M250 -10q-79 0 -132 36.5t-83 108.5h55q23 -42 61.5 -68.5t98.5 -26.5q37 0 69 13t56.5 38t40 61t18.5 83h-224v50h224q-3 47 -18.5 83.5t-40 61t-56.5 37.5t-69 13q-60 0 -98.5 -26.5t-61.5 -68.5h-55q30 72 83 108.5t132 36.5q51 0 94 -18.5t74.5 -53t49 -84.5
t17.5 -114t-17.5 -114t-49 -84.5t-74.5 -53t-94 -18.5z" />
    <glyph glyph-name="uni044E" unicode="&#x44e;" horiz-adv-x="720" 
d="M445 -10q-47 0 -86.5 16t-69 47t-48 76.5t-21.5 105.5h-95v-235h-50v520h50v-235h95q3 60 21.5 105.5t48 76.5t69 47t86.5 16q49 0 90 -17.5t71 -52t47 -84.5t17 -116t-17 -116t-47 -84.5t-71 -52t-90 -17.5zM445 40q37 0 69.5 14t55.5 41.5t36.5 69t13.5 95.5
t-13.5 95.5t-36.5 69t-55.5 41.5t-69.5 14q-38 0 -70 -14t-55 -41.5t-36.5 -69t-13.5 -95.5t13.5 -95.5t36.5 -69t55 -41.5t70 -14z" />
    <glyph glyph-name="uni044F" unicode="&#x44f;" horiz-adv-x="500" 
d="M210 205q-75 4 -117.5 45.5t-42.5 109.5q0 72 45.5 116t124.5 44h205v-520h-50v205h-105l-165 -205h-60zM375 255v215h-155q-57 0 -88.5 -30.5t-31.5 -79.5q0 -45 31.5 -75t88.5 -30h155z" />
    <glyph glyph-name="uni0450" unicode="&#x450;" horiz-adv-x="560" 
d="M285 -10q-51 0 -94 18.5t-74.5 53t-49 84.5t-17.5 114t17.5 114t48.5 84.5t73 53t91 18.5t91 -18t73 -50t48.5 -77.5t17.5 -99.5q0 -10 -0.5 -17t-1.5 -12q-1 -6 -1 -11h-407q2 -45 16 -82.5t38 -65t57 -42.5t74 -15q57 0 95.5 25t64.5 70h55q-26 -72 -83 -108.5
t-132 -36.5zM460 290q-2 43 -16 78t-38 60t-56.5 38.5t-69.5 13.5q-39 0 -71 -14t-55 -39.5t-36.5 -60.5t-17.5 -76h360zM145 740h70l90 -140h-45z" />
    <glyph glyph-name="uni0451" unicode="&#x451;" horiz-adv-x="560" 
d="M285 -10q-51 0 -94 18.5t-74.5 53t-49 84.5t-17.5 114t17.5 114t48.5 84.5t73 53t91 18.5t91 -18t73 -50t48.5 -77.5t17.5 -99.5q0 -10 -0.5 -17t-1.5 -12q-1 -6 -1 -11h-407q2 -45 16 -82.5t38 -65t57 -42.5t74 -15q57 0 95.5 25t64.5 70h55q-26 -72 -83 -108.5
t-132 -36.5zM460 290q-2 43 -16 78t-38 60t-56.5 38.5t-69.5 13.5q-39 0 -71 -14t-55 -39.5t-36.5 -60.5t-17.5 -76h360zM200 630q-17 0 -28.5 11.5t-11.5 28.5t11.5 28.5t28.5 11.5t28.5 -11.5t11.5 -28.5t-11.5 -28.5t-28.5 -11.5zM370 630q-17 0 -28.5 11.5t-11.5 28.5
t11.5 28.5t28.5 11.5t28.5 -11.5t11.5 -28.5t-11.5 -28.5t-28.5 -11.5z" />
    <glyph glyph-name="uni0452" unicode="&#x452;" horiz-adv-x="560" 
d="M295 -150h60q45 0 65 19t20 61v320q0 36 -11.5 65.5t-31 50.5t-46 32.5t-56.5 11.5q-34 0 -63 -12.5t-50.5 -34t-34 -50.5t-12.5 -63v-250h-50v560h-80v50h80v90h50v-90h160v-50h-160v-190h5q26 45 66.5 67.5t93.5 22.5q41 0 76 -14.5t60.5 -41.5t39.5 -66t14 -88v-320
q0 -60 -35 -95t-95 -35h-65v50z" />
    <glyph glyph-name="uni0453" unicode="&#x453;" horiz-adv-x="420" 
d="M75 520h325v-50h-275v-470h-50v520zM305 740h70l-115 -140h-45z" />
    <glyph glyph-name="uni0454" unicode="&#x454;" horiz-adv-x="540" 
d="M285 -10q-51 0 -94 18.5t-74.5 53t-49 84.5t-17.5 114t17.5 114t49 84.5t74.5 53t94 18.5q79 0 132 -36.5t83 -108.5h-55q-23 42 -61.5 68.5t-98.5 26.5q-37 0 -69 -13t-56.5 -37.5t-40 -61t-18.5 -83.5h224v-50h-224q3 -47 18.5 -83t40 -61t56.5 -38t69 -13
q60 0 98.5 26.5t61.5 68.5h55q-30 -72 -83 -108.5t-132 -36.5z" />
    <glyph glyph-name="uni0455" unicode="&#x455;" horiz-adv-x="470" 
d="M240 -10q-79 0 -132 40.5t-68 104.5h55q6 -19 17 -36t29 -30t42.5 -21t56.5 -8q75 0 107.5 26.5t32.5 68.5q0 38 -24 56.5t-60 29.5t-78.5 18.5t-78.5 23t-60 43.5t-24 79q0 30 12 56.5t35 46t56.5 31t76.5 11.5q68 0 117 -33t68 -97h-55q-6 13 -15.5 27t-25 26
t-37.5 19.5t-52 7.5q-68 0 -99 -26.5t-31 -68.5q0 -37 24 -56t60 -30t78.5 -18.5t78.5 -23t60 -43.5t24 -79q0 -30 -12 -56.5t-36 -46t-59.5 -31t-82.5 -11.5z" />
    <glyph glyph-name="uni0456" unicode="&#x456;" horiz-adv-x="200" 
d="M75 520h50v-520h-50v520zM100 610q-17 0 -28.5 11.5t-11.5 28.5t11.5 28.5t28.5 11.5t28.5 -11.5t11.5 -28.5t-11.5 -28.5t-28.5 -11.5z" />
    <glyph glyph-name="uni0457" unicode="&#x457;" horiz-adv-x="200" 
d="M75 520h50v-520h-50v520zM15 630q-17 0 -28.5 11.5t-11.5 28.5t11.5 28.5t28.5 11.5t28.5 -11.5t11.5 -28.5t-11.5 -28.5t-28.5 -11.5zM185 630q-17 0 -28.5 11.5t-11.5 28.5t11.5 28.5t28.5 11.5t28.5 -11.5t11.5 -28.5t-11.5 -28.5t-28.5 -11.5z" />
    <glyph glyph-name="uni0458" unicode="&#x458;" horiz-adv-x="200" 
d="M-65 -150h75q30 0 47.5 15t17.5 45v610h50v-610q0 -53 -30.5 -81.5t-79.5 -28.5h-80v50zM100 610q-17 0 -28.5 11.5t-11.5 28.5t11.5 28.5t28.5 11.5t28.5 -11.5t11.5 -28.5t-11.5 -28.5t-28.5 -11.5z" />
    <glyph glyph-name="uni0459" unicode="&#x459;" horiz-adv-x="805" 
d="M10 45h10q22 0 40 10.5t30 38.5t18.5 77.5t6.5 128.5v220h335v-200h145q79 0 124.5 -42.5t45.5 -117.5t-45.5 -117.5t-124.5 -42.5h-195v470h-235v-170q0 -88 -8.5 -146.5t-26.5 -94t-45.5 -50t-64.5 -14.5h-10v50zM590 50q60 0 92.5 28.5t32.5 81.5t-32.5 81.5
t-92.5 28.5h-140v-220h140z" />
    <glyph glyph-name="uni045A" unicode="&#x45a;" horiz-adv-x="825" 
d="M75 520h50v-220h295v220h50v-220h160q72 0 113.5 -41t41.5 -109t-41.5 -109t-113.5 -41h-210v250h-295v-250h-50v520zM625 50q53 0 81.5 27.5t28.5 72.5t-28.5 72.5t-81.5 27.5h-155v-200h155z" />
    <glyph glyph-name="uni045B" unicode="&#x45b;" horiz-adv-x="560" 
d="M85 560h-80v50h80v90h50v-90h160v-50h-160v-190h5q26 45 66.5 67.5t93.5 22.5q41 0 76 -14.5t60.5 -41.5t39.5 -66t14 -88v-250h-50v250q0 36 -11.5 65.5t-31 50.5t-46 32.5t-56.5 11.5q-34 0 -63 -12.5t-50.5 -34t-34 -50.5t-12.5 -63v-250h-50v560z" />
    <glyph glyph-name="uni045C" unicode="&#x45c;" horiz-adv-x="465" 
d="M75 520h50v-250l265 250h65l-276 -260l291 -260h-65l-280 250v-250h-50v520zM325 740h70l-115 -140h-45z" />
    <glyph glyph-name="uni045D" unicode="&#x45d;" horiz-adv-x="565" 
d="M75 520h50v-450h5l295 450h65v-520h-50v450h-5l-295 -450h-65v520zM145 740h70l90 -140h-45z" />
    <glyph glyph-name="uni045E" unicode="&#x45e;" horiz-adv-x="490" 
d="M224 0l-219 520h55l188 -447h5l177 447h55l-285 -720h-55zM250 610q-53 0 -89.5 30t-40.5 90h50q4 -38 25 -56.5t55 -18.5t55 18.5t25 56.5h50q-4 -60 -40.5 -90t-89.5 -30z" />
    <glyph glyph-name="uni045F" unicode="&#x45f;" horiz-adv-x="550" 
d="M250 0h-175v520h50v-470h300v470h50v-520h-175v-120h-50v120z" />
    <glyph glyph-name="uni0490" unicode="&#x490;" horiz-adv-x="500" 
d="M90 700h335v140h55v-190h-335v-650h-55v700z" />
    <glyph glyph-name="uni0491" unicode="&#x491;" horiz-adv-x="420" 
d="M75 520h275v120h50v-170h-275v-470h-50v520z" />
    <glyph glyph-name="uni0492" unicode="&#x492;" horiz-adv-x="555" 
d="M115 320h-95v50h95v330h420v-50h-365v-280h220v-50h-220v-320h-55v320z" />
    <glyph glyph-name="uni0493" unicode="&#x493;" horiz-adv-x="430" 
d="M100 230h-80v50h80v240h310v-50h-260v-190h190v-50h-190v-230h-50v230z" />
    <glyph glyph-name="uni0494" unicode="&#x494;" horiz-adv-x="605" 
d="M320 -70q94 0 144.5 51.5t50.5 153.5q0 49 -14.5 86t-40 62.5t-61.5 38.5t-79 13q-42 0 -74 -9.5t-55 -20.5q-26 -13 -46 -30v-275h-55v700h420v-50h-365v-320q2 1 14 10t34 19t54 18t73 8q56 0 102 -17.5t79 -49.5t51 -78.5t18 -104.5q0 -121 -64.5 -188t-185.5 -67v50z
" />
    <glyph glyph-name="uni0495" unicode="&#x495;" horiz-adv-x="490" 
d="M265 -150q30 0 56.5 12t46 35.5t31 58t11.5 79.5q0 98 -41.5 144t-113.5 46q-29 0 -52.5 -8t-40.5 -17q-20 -11 -37 -25v-175h-50v520h310v-50h-260v-240q14 12 34 22q17 8 42 15.5t59 7.5q43 0 79.5 -15.5t63.5 -46t42 -75.5t15 -103q0 -56 -15 -100t-41.5 -74
t-62 -45.5t-76.5 -15.5v50z" />
    <glyph glyph-name="uni0496" unicode="&#x496;" horiz-adv-x="840" 
d="M795 0h-30l-320 345v-345h-55v345l-320 -345h-70l330 355l-315 345h70l305 -335v335h55v-335l305 335h70l-315 -345l283 -305h57v-195h-50v145z" />
    <glyph glyph-name="uni0497" unicode="&#x497;" horiz-adv-x="675" 
d="M635 0h-25l-250 255v-255h-50v255l-250 -255h-65l260 265l-245 255h65l235 -245v245h50v-245l235 245h65l-245 -255l211 -215h59v-170h-50v120z" />
    <glyph glyph-name="uni049A" unicode="&#x49a;" horiz-adv-x="570" 
d="M525 0h-30l-350 345v-345h-55v700h55v-335l335 335h70l-345 -345l309 -305h61v-195h-50v145z" />
    <glyph glyph-name="uni049B" unicode="&#x49b;" horiz-adv-x="470" 
d="M430 0h-25l-280 250v-250h-50v520h50v-250l265 250h65l-276 -260l235 -210h66v-170h-50v120z" />
    <glyph glyph-name="uni049C" unicode="&#x49c;" horiz-adv-x="610" 
d="M90 700h55v-320h70v130h50v-130h45l220 320h65l-238 -345l253 -355h-65l-235 330h-45v-135h-50v135h-70v-330h-55v700z" />
    <glyph glyph-name="uni049D" unicode="&#x49d;" horiz-adv-x="495" 
d="M75 520h50v-235h55v105h50v-105h40l150 235h60l-167 -260l177 -260h-60l-160 235h-40v-95h-50v95h-55v-235h-50v520z" />
    <glyph glyph-name="uni04A2" unicode="&#x4a2;" horiz-adv-x="730" 
d="M645 0h-90v330h-410v-330h-55v700h55v-320h410v320h55v-650h85v-195h-50v145z" />
    <glyph glyph-name="uni04A3" unicode="&#x4a3;" horiz-adv-x="575" 
d="M500 0h-70v235h-305v-235h-50v520h50v-235h305v235h50v-470h70v-170h-50v120z" />
    <glyph glyph-name="uni04AA" unicode="&#x4aa;" horiz-adv-x="690" 
d="M335 -8q-62 5 -113 31t-88.5 71.5t-58 110t-20.5 145.5q0 86 23 153t64.5 113t98 70t124.5 24q102 0 174 -50.5t106 -144.5h-60q-30 72 -87.5 108.5t-132.5 36.5q-54 0 -101 -20.5t-81 -59.5t-53.5 -97t-19.5 -133t19.5 -133t53.5 -97t81 -59.5t101 -20.5
q75 0 132.5 36.5t87.5 108.5h60q-32 -88 -97.5 -138t-157.5 -56v-131h-55v132z" />
    <glyph glyph-name="uni04AB" unicode="&#x4ab;" horiz-adv-x="540" 
d="M260 -9q-46 4 -84.5 24t-66.5 54.5t-43.5 82.5t-15.5 108q0 64 17.5 114t49 84.5t74.5 53t94 18.5q72 0 128.5 -35t86.5 -110h-55q-26 45 -64.5 70t-95.5 25q-39 0 -73 -14.5t-59 -43t-39 -69.5t-14 -93q0 -53 14 -93.5t39 -69t59 -43t73 -14.5q57 0 95.5 25t64.5 70h55
q-28 -69 -77.5 -104t-112.5 -40v-111h-50v111z" />
    <glyph glyph-name="uni04AE" unicode="&#x4ae;" horiz-adv-x="565" 
d="M255 270l-250 430h60l215 -375h5l215 375h60l-250 -430v-270h-55v270z" />
    <glyph glyph-name="uni04AF" unicode="&#x4af;" horiz-adv-x="475" 
d="M214 0h-14l-195 520h55l175 -470h5l175 470h55l-195 -520h-11v-200h-50v200z" />
    <glyph glyph-name="uni04B0" unicode="&#x4b0;" horiz-adv-x="565" 
d="M255 265h-160v55h131l-221 380h60l215 -375h5l215 375h60l-221 -380h131v-55h-160v-265h-55v265z" />
    <glyph glyph-name="uni04B1" unicode="&#x4b1;" horiz-adv-x="475" 
d="M213 0h-118v50h86l-176 470h55l175 -470h5l175 470h55l-177 -470h82v-50h-112v-200h-50v200z" />
    <glyph glyph-name="uni04B2" unicode="&#x4b2;" horiz-adv-x="570" 
d="M525 0h-35l-205 310l-205 -310h-65l238 360l-228 340h65l195 -295l195 295h65l-228 -340l205 -310h53v-195h-50v145z" />
    <glyph glyph-name="uni04B3" unicode="&#x4b3;" horiz-adv-x="455" 
d="M405 0h-25l-155 225l-155 -225h-60l185 267l-175 253h60l145 -210l145 210h60l-175 -253l150 -217h50v-170h-50v120z" />
    <glyph glyph-name="uni04B6" unicode="&#x4b6;" horiz-adv-x="685" 
d="M600 0h-90v280q-34 -19 -77 -32t-103 -13t-106.5 17t-78.5 48.5t-48.5 76t-16.5 98.5v225h55v-225q0 -87 50.5 -138.5t144.5 -51.5q64 0 105 13t75 33v369h55v-650h85v-195h-50v145z" />
    <glyph glyph-name="uni04B7" unicode="&#x4b7;" horiz-adv-x="545" 
d="M470 0h-70v210q-19 -11 -55 -23t-85 -12q-98 0 -146.5 46t-48.5 129v170h50v-170q0 -60 35 -92.5t110 -32.5q45 0 79.5 10t60.5 25v260h50v-470h70v-170h-50v120z" />
    <glyph glyph-name="uni04B8" unicode="&#x4b8;" horiz-adv-x="655" 
d="M510 280q-31 -17 -69.5 -30t-90.5 -15v-100h-55v101q-104 10 -159.5 74t-55.5 165v225h55v-225q0 -78 41 -128t119 -60v163h55v-165q55 2 91.5 15t68.5 31v369h55v-700h-55v280z" />
    <glyph glyph-name="uni04B9" unicode="&#x4b9;" horiz-adv-x="525" 
d="M400 210q-17 -11 -47.5 -21.5t-72.5 -13.5v-80h-45v81q-85 6 -127.5 51t-42.5 123v170h50v-170q0 -55 28.5 -87t91.5 -37v99h45v-100q38 2 67.5 11.5t52.5 23.5v260h50v-520h-50v210z" />
    <glyph glyph-name="uni04BA" unicode="&#x4ba;" horiz-adv-x="655" 
d="M90 700h55v-280q34 19 77 32t103 13t106.5 -17t78.5 -48.5t48.5 -76t16.5 -98.5v-225h-55v225q0 87 -50.5 138.5t-144.5 51.5q-64 0 -105 -13t-75 -33v-369h-55v700z" />
    <glyph glyph-name="uni04BB" unicode="&#x4bb;" horiz-adv-x="555" 
d="M80 700h50v-260h5q26 45 66.5 67.5t93.5 22.5q41 0 76 -14.5t60.5 -41.5t39.5 -66t14 -88v-320h-50v320q0 36 -11.5 65.5t-31 50.5t-46 32.5t-56.5 11.5q-34 0 -63 -12.5t-50.5 -34t-34 -50.5t-12.5 -63v-320h-50v700z" />
    <glyph glyph-name="uni04C1" unicode="&#x4c1;" horiz-adv-x="835" 
d="M330 355l-315 345h70l305 -335v335h55v-335l305 335h70l-315 -345l330 -355h-70l-320 345v-345h-55v345l-320 -345h-70zM420 780q-57 0 -96.5 28t-43.5 92h50q4 -38 28 -56.5t62 -18.5t62 18.5t28 56.5h50q-4 -64 -43.5 -92t-96.5 -28z" />
    <glyph glyph-name="uni04C2" unicode="&#x4c2;" horiz-adv-x="670" 
d="M255 265l-245 255h65l235 -245v245h50v-245l235 245h65l-245 -255l260 -265h-65l-250 255v-255h-50v255l-250 -255h-65zM335 610q-53 0 -89.5 30t-40.5 90h50q4 -38 25 -56.5t55 -18.5t55 18.5t25 56.5h50q-4 -60 -40.5 -90t-89.5 -30z" />
    <glyph glyph-name="uni04D2" unicode="&#x4d2;" horiz-adv-x="615" 
d="M275 700h65l265 -700h-55l-70 185h-345l-70 -185h-55zM461 235l-151 400h-5l-151 -400h307zM225 800q-17 0 -28.5 11.5t-11.5 28.5t11.5 28.5t28.5 11.5t28.5 -11.5t11.5 -28.5t-11.5 -28.5t-28.5 -11.5zM395 800q-17 0 -28.5 11.5t-11.5 28.5t11.5 28.5t28.5 11.5
t28.5 -11.5t11.5 -28.5t-11.5 -28.5t-28.5 -11.5z" />
    <glyph glyph-name="uni04D3" unicode="&#x4d3;" horiz-adv-x="515" 
d="M220 -10q-83 0 -129 43.5t-46 111.5q0 34 12 62.5t35.5 49t58 32t79.5 11.5h165v40q0 68 -36.5 104t-108.5 36q-60 0 -92.5 -26.5t-47.5 -68.5h-50q15 64 65 104.5t125 40.5q91 0 143 -51.5t52 -138.5v-340h-40l-10 80h-5q-8 -17 -22.5 -33t-36 -29t-49.5 -20.5t-62 -7.5
zM220 40q83 0 129 45t46 120v45h-165q-68 0 -101.5 -30t-33.5 -75t32.5 -75t92.5 -30zM175 630q-17 0 -28.5 11.5t-11.5 28.5t11.5 28.5t28.5 11.5t28.5 -11.5t11.5 -28.5t-11.5 -28.5t-28.5 -11.5zM345 630q-17 0 -28.5 11.5t-11.5 28.5t11.5 28.5t28.5 11.5t28.5 -11.5
t11.5 -28.5t-11.5 -28.5t-28.5 -11.5z" />
    <glyph glyph-name="uni04D8" unicode="&#x4d8;" horiz-adv-x="720" 
d="M355 -10q-66 0 -121 23t-94.5 68t-62 111.5t-22.5 152.5v25h554q-3 70 -23 124t-54 91t-79.5 56t-97.5 19q-75 0 -132.5 -36.5t-87.5 -108.5h-60q34 94 106 144.5t174 50.5q67 0 124 -24t98.5 -70t64.5 -113t23 -153t-23 -153t-64.5 -113t-98.5 -70t-124 -24zM355 40
q51 0 95.5 18.5t78.5 54t55 87.5t25 120h-499q4 -71 24.5 -124t53 -87.5t75.5 -51.5t92 -17z" />
    <glyph glyph-name="uni04D9" unicode="&#x4d9;" horiz-adv-x="560" 
d="M280 -10q-49 0 -91 18t-73 50t-48.5 77.5t-17.5 99.5v16.5t1 12.5q1 6 2 11h407q-2 45 -16 82.5t-38 65t-57.5 42.5t-73.5 15q-57 0 -95.5 -25t-64.5 -70h-55q26 72 83 108.5t132 36.5q51 0 94 -18.5t74.5 -53t49 -84.5t17.5 -114t-17.5 -114t-48.5 -84.5t-73 -53
t-91 -18.5zM280 40q39 0 71 14t55 39.5t36.5 60.5t17.5 76h-360q2 -43 16 -78t38 -60t56 -38.5t70 -13.5z" />
    <glyph glyph-name="uni04E0" unicode="&#x4e0;" horiz-adv-x="590" 
d="M285 -10q-47 0 -89 13t-75 37.5t-54 61t-27 83.5h55q4 -26 18 -52t38 -46.5t57.5 -33.5t76.5 -13q98 0 146.5 44t48.5 116q0 75 -48.5 120t-146.5 45h-125v50l280 235h-380v50h455v-50l-275 -230v-5h45q60 0 106.5 -16t78.5 -44.5t48.5 -68t16.5 -86.5q0 -45 -16.5 -83.5
t-48.5 -66.5t-78.5 -44t-106.5 -16z" />
    <glyph glyph-name="uni04E1" unicode="&#x4e1;" horiz-adv-x="485" 
d="M240 -200q-45 0 -83.5 14.5t-66.5 40t-44 61.5t-16 79h50q4 -64 46 -104.5t114 -40.5t116 45.5t44 124.5q0 165 -160 165h-110v45q59 60 117 120.5t118 119.5h-315v50h380v-50l-230 -235h40q102 0 156 -54.5t54 -160.5q0 -51 -15 -91.5t-43 -69t-66.5 -44t-85.5 -15.5z
" />
    <glyph glyph-name="uni04E2" unicode="&#x4e2;" horiz-adv-x="725" 
d="M90 700h55v-630h5l410 630h75v-700h-55v630h-5l-410 -630h-75v700zM230 860h270v-45h-270v45z" />
    <glyph glyph-name="uni04E3" unicode="&#x4e3;" horiz-adv-x="565" 
d="M75 520h50v-450h5l295 450h65v-520h-50v450h-5l-295 -450h-65v520zM150 690h270v-45h-270v45z" />
    <glyph glyph-name="uni04E6" unicode="&#x4e6;" horiz-adv-x="730" 
d="M365 -10q-68 0 -124.5 24t-98 70t-64.5 113t-23 153t23 153t64.5 113t98 70t124.5 24q67 0 124 -24t98.5 -70t64.5 -113t23 -153t-23 -153t-64.5 -113t-98.5 -70t-124 -24zM365 40q54 0 101 20.5t81 59.5t53.5 97t19.5 133t-19.5 133t-53.5 97t-81 59.5t-101 20.5
t-101 -20.5t-81 -59.5t-53.5 -97t-19.5 -133t19.5 -133t53.5 -97t81 -59.5t101 -20.5zM280 800q-17 0 -28.5 11.5t-11.5 28.5t11.5 28.5t28.5 11.5t28.5 -11.5t11.5 -28.5t-11.5 -28.5t-28.5 -11.5zM450 800q-17 0 -28.5 11.5t-11.5 28.5t11.5 28.5t28.5 11.5t28.5 -11.5
t11.5 -28.5t-11.5 -28.5t-28.5 -11.5z" />
    <glyph glyph-name="uni04E7" unicode="&#x4e7;" horiz-adv-x="570" 
d="M285 -10q-51 0 -94 18.5t-74.5 53t-49 84.5t-17.5 114t17.5 114t49 84.5t74.5 53t94 18.5t94 -18.5t74.5 -53t49 -84.5t17.5 -114t-17.5 -114t-49 -84.5t-74.5 -53t-94 -18.5zM285 40q39 0 73 14.5t59 43t39 69t14 93.5q0 52 -14 93t-39 69.5t-59 43t-73 14.5t-73 -14.5
t-59 -43t-39 -69.5t-14 -93q0 -53 14 -93.5t39 -69t59 -43t73 -14.5zM200 630q-17 0 -28.5 11.5t-11.5 28.5t11.5 28.5t28.5 11.5t28.5 -11.5t11.5 -28.5t-11.5 -28.5t-28.5 -11.5zM370 630q-17 0 -28.5 11.5t-11.5 28.5t11.5 28.5t28.5 11.5t28.5 -11.5t11.5 -28.5
t-11.5 -28.5t-28.5 -11.5z" />
    <glyph glyph-name="uni04E8" unicode="&#x4e8;" horiz-adv-x="730" 
d="M365 -10q-68 0 -124.5 24t-98 70t-64.5 113t-23 153t23 153t64.5 113t98 70t124.5 24q67 0 124 -24t98.5 -70t64.5 -113t23 -153t-23 -153t-64.5 -113t-98.5 -70t-124 -24zM365 40q52 0 97 18.5t78.5 55t54.5 89.5t24 122h-509q3 -69 24 -122t55 -89.5t79 -55t97 -18.5z
M619 375q-3 69 -24 122t-54.5 89.5t-78.5 55t-97 18.5t-97 -18.5t-79 -55t-55 -89.5t-24 -122h509z" />
    <glyph glyph-name="uni04E9" unicode="&#x4e9;" horiz-adv-x="570" 
d="M285 -10q-51 0 -94 18.5t-74.5 53t-49 84.5t-17.5 114t17.5 114t49 84.5t74.5 53t94 18.5t94 -18.5t74.5 -53t49 -84.5t17.5 -114t-17.5 -114t-49 -84.5t-74.5 -53t-94 -18.5zM285 40q74 0 125.5 50.5t59.5 144.5h-370q8 -94 59 -144.5t126 -50.5zM470 285
q-8 94 -59.5 144.5t-125.5 50.5q-75 0 -126 -50.5t-59 -144.5h370z" />
    <glyph glyph-name="uni04EE" unicode="&#x4ee;" horiz-adv-x="550" 
d="M256 210l-246 490h60l212 -425h5l193 425h60l-320 -700h-60zM140 860h270v-45h-270v45z" />
    <glyph glyph-name="uni04EF" unicode="&#x4ef;" horiz-adv-x="490" 
d="M224 0l-219 520h55l188 -447h5l177 447h55l-285 -720h-55zM110 690h270v-45h-270v45z" />
    <glyph glyph-name="uni04F0" unicode="&#x4f0;" horiz-adv-x="550" 
d="M256 210l-246 490h60l212 -425h5l193 425h60l-320 -700h-60zM190 800q-17 0 -28.5 11.5t-11.5 28.5t11.5 28.5t28.5 11.5t28.5 -11.5t11.5 -28.5t-11.5 -28.5t-28.5 -11.5zM360 800q-17 0 -28.5 11.5t-11.5 28.5t11.5 28.5t28.5 11.5t28.5 -11.5t11.5 -28.5t-11.5 -28.5
t-28.5 -11.5z" />
    <glyph glyph-name="uni04F1" unicode="&#x4f1;" horiz-adv-x="490" 
d="M224 0l-219 520h55l188 -447h5l177 447h55l-285 -720h-55zM160 630q-17 0 -28.5 11.5t-11.5 28.5t11.5 28.5t28.5 11.5t28.5 -11.5t11.5 -28.5t-11.5 -28.5t-28.5 -11.5zM330 630q-17 0 -28.5 11.5t-11.5 28.5t11.5 28.5t28.5 11.5t28.5 -11.5t11.5 -28.5t-11.5 -28.5
t-28.5 -11.5z" />
    <glyph glyph-name="Wgrave" unicode="&#x1e80;" horiz-adv-x="895" 
d="M20 700h55l170 -630h5l160 630h75l160 -630h5l170 630h55l-190 -700h-75l-160 625h-5l-160 -625h-75zM310 910h70l90 -140h-45z" />
    <glyph glyph-name="wgrave" unicode="&#x1e81;" horiz-adv-x="695" 
d="M10 520h50l127 -455h5l128 455h55l128 -455h5l127 455h50l-145 -520h-65l-125 440h-5l-125 -440h-65zM210 740h70l90 -140h-45z" />
    <glyph glyph-name="Wacute" unicode="&#x1e82;" horiz-adv-x="895" 
d="M20 700h55l170 -630h5l160 630h75l160 -630h5l170 630h55l-190 -700h-75l-160 625h-5l-160 -625h-75zM520 910h70l-115 -140h-45z" />
    <glyph glyph-name="wacute" unicode="&#x1e83;" horiz-adv-x="695" 
d="M10 520h50l127 -455h5l128 455h55l128 -455h5l127 455h50l-145 -520h-65l-125 440h-5l-125 -440h-65zM420 740h70l-115 -140h-45z" />
    <glyph glyph-name="Wdieresis" unicode="&#x1e84;" horiz-adv-x="895" 
d="M20 700h55l170 -630h5l160 630h75l160 -630h5l170 630h55l-190 -700h-75l-160 625h-5l-160 -625h-75zM365 800q-17 0 -28.5 11.5t-11.5 28.5t11.5 28.5t28.5 11.5t28.5 -11.5t11.5 -28.5t-11.5 -28.5t-28.5 -11.5zM535 800q-17 0 -28.5 11.5t-11.5 28.5t11.5 28.5
t28.5 11.5t28.5 -11.5t11.5 -28.5t-11.5 -28.5t-28.5 -11.5z" />
    <glyph glyph-name="wdieresis" unicode="&#x1e85;" horiz-adv-x="695" 
d="M10 520h50l127 -455h5l128 455h55l128 -455h5l127 455h50l-145 -520h-65l-125 440h-5l-125 -440h-65zM265 630q-17 0 -28.5 11.5t-11.5 28.5t11.5 28.5t28.5 11.5t28.5 -11.5t11.5 -28.5t-11.5 -28.5t-28.5 -11.5zM435 630q-17 0 -28.5 11.5t-11.5 28.5t11.5 28.5
t28.5 11.5t28.5 -11.5t11.5 -28.5t-11.5 -28.5t-28.5 -11.5z" />
    <glyph glyph-name="uni1E9E" unicode="&#x1e9e;" horiz-adv-x="665" 
d="M85 495q0 98 53 151.5t147 53.5h300v-45l-220 -250v-5h30q52 0 93 -15.5t69.5 -41.5t43 -62t14.5 -76q0 -45 -14 -82.5t-41 -65t-67.5 -42.5t-92.5 -15h-100v50h95q86 0 125.5 43.5t39.5 111.5q0 64 -43 104.5t-122 40.5h-85v65l205 235h-230q-68 0 -106.5 -40
t-38.5 -115v-495h-55v495z" />
    <glyph glyph-name="Ygrave" unicode="&#x1ef2;" horiz-adv-x="565" 
d="M255 270l-250 430h60l215 -375h5l215 375h60l-250 -430v-270h-55v270zM150 910h70l90 -140h-45z" />
    <glyph glyph-name="ygrave" unicode="&#x1ef3;" horiz-adv-x="490" 
d="M224 0l-219 520h55l188 -447h5l177 447h55l-285 -720h-55zM110 740h70l90 -140h-45z" />
    <glyph glyph-name="endash" unicode="&#x2013;" horiz-adv-x="500" 
d="M30 310h440v-50h-440v50z" />
    <glyph glyph-name="emdash" unicode="&#x2014;" horiz-adv-x="725" 
d="M30 310h665v-50h-665v50z" />
    <glyph glyph-name="quoteleft" unicode="&#x2018;" horiz-adv-x="190" 
d="M120 700h35l-45 -200h-55z" />
    <glyph glyph-name="quoteright" unicode="&#x2019;" horiz-adv-x="190" 
d="M100 700h55l-65 -200h-35z" />
    <glyph glyph-name="quotesinglbase" unicode="&#x201a;" horiz-adv-x="200" 
d="M80 100h55l-65 -200h-35z" />
    <glyph glyph-name="quotedblleft" unicode="&#x201c;" horiz-adv-x="325" 
d="M120 700h35l-45 -200h-55zM255 700h35l-45 -200h-55z" />
    <glyph glyph-name="quotedblright" unicode="&#x201d;" horiz-adv-x="325" 
d="M100 700h55l-65 -200h-35zM235 700h55l-65 -200h-35z" />
    <glyph glyph-name="quotedblbase" unicode="&#x201e;" horiz-adv-x="335" 
d="M80 100h55l-65 -200h-35zM215 100h55l-65 -200h-35z" />
    <glyph glyph-name="dagger" unicode="&#x2020;" horiz-adv-x="450" 
d="M200 475h-140v50h140v175h50v-175h140v-50h-140v-475h-50v475z" />
    <glyph glyph-name="daggerdbl" unicode="&#x2021;" horiz-adv-x="450" 
d="M200 175h-140v50h140v250h-140v50h140v175h50v-175h140v-50h-140v-250h140v-50h-140v-175h-50v175z" />
    <glyph glyph-name="bullet" unicode="&#x2022;" horiz-adv-x="380" 
d="M190 200q-30 0 -50 20t-20 50t20 50t50 20t50 -20t20 -50t-20 -50t-50 -20z" />
    <glyph glyph-name="ellipsis" unicode="&#x2026;" horiz-adv-x="640" 
d="M100 -5q-17 0 -28.5 11.5t-11.5 28.5t11.5 28.5t28.5 11.5t28.5 -11.5t11.5 -28.5t-11.5 -28.5t-28.5 -11.5zM320 -5q-17 0 -28.5 11.5t-11.5 28.5t11.5 28.5t28.5 11.5t28.5 -11.5t11.5 -28.5t-11.5 -28.5t-28.5 -11.5zM540 -5q-17 0 -28.5 11.5t-11.5 28.5t11.5 28.5
t28.5 11.5t28.5 -11.5t11.5 -28.5t-11.5 -28.5t-28.5 -11.5z" />
    <glyph glyph-name="perthousand" unicode="&#x2030;" horiz-adv-x="1105" 
d="M560 700h60l-435 -700h-60zM550 -10q-68 0 -109 41.5t-41 113.5t41 113.5t109 41.5t109 -41.5t41 -113.5t-41 -113.5t-109 -41.5zM550 35q45 0 72.5 28.5t27.5 81.5t-27.5 81.5t-72.5 28.5t-72.5 -28.5t-27.5 -81.5t27.5 -81.5t72.5 -28.5zM910 -10q-68 0 -109 41.5
t-41 113.5t41 113.5t109 41.5t109 -41.5t41 -113.5t-41 -113.5t-109 -41.5zM910 35q45 0 72.5 28.5t27.5 81.5t-27.5 81.5t-72.5 28.5t-72.5 -28.5t-27.5 -81.5t27.5 -81.5t72.5 -28.5zM195 400q-68 0 -109 41.5t-41 113.5t41 113.5t109 41.5t109 -41.5t41 -113.5
t-41 -113.5t-109 -41.5zM195 445q45 0 72.5 28.5t27.5 81.5t-27.5 81.5t-72.5 28.5t-72.5 -28.5t-27.5 -81.5t27.5 -81.5t72.5 -28.5z" />
    <glyph glyph-name="guilsinglleft" unicode="&#x2039;" horiz-adv-x="365" 
d="M50 265l205 230h70l-205 -228v-4l205 -228h-70z" />
    <glyph glyph-name="guilsinglright" unicode="&#x203a;" horiz-adv-x="365" 
d="M245 263v4l-205 228h70l205 -230l-205 -230h-70z" />
    <glyph glyph-name="fraction" unicode="&#x2044;" horiz-adv-x="140" 
d="M260 700h55l-435 -700h-55z" />
    <glyph glyph-name="uni2070" unicode="&#x2070;" horiz-adv-x="380" 
d="M190 395q-32 0 -59.5 12.5t-47.5 37.5t-31.5 63.5t-11.5 91.5q0 52 11.5 91t31.5 64t47.5 37.5t59.5 12.5t59.5 -12.5t47.5 -37.5t31.5 -64t11.5 -91q0 -53 -11.5 -91.5t-31.5 -63.5t-47.5 -37.5t-59.5 -12.5zM190 440q21 0 39 9t31.5 28t21.5 49.5t8 73.5t-8 73.5
t-21.5 49.5t-31.5 28t-39 9t-39 -9t-31.5 -28t-21.5 -49.5t-8 -73.5t8 -73.5t21.5 -49.5t31.5 -28t39 -9z" />
    <glyph glyph-name="uni2074" unicode="&#x2074;" horiz-adv-x="335" 
d="M215 490h-200v45l180 265h70v-265h55v-45h-55v-90h-50v90zM215 535v205h-5l-140 -205h145z" />
    <glyph glyph-name="uni2075" unicode="&#x2075;" horiz-adv-x="340" 
d="M165 395q-53 0 -90 30.5t-45 79.5h50q7 -26 25.5 -45.5t59.5 -19.5q42 0 66 25t24 70t-24 67.5t-66 22.5q-53 0 -75 -45h-50l25 220h220v-45h-182l-13 -115h5q8 8 26.5 19t48.5 11q28 0 52.5 -9t43 -26.5t29 -42.5t10.5 -57q0 -64 -38 -102t-102 -38z" />
    <glyph glyph-name="uni2076" unicode="&#x2076;" horiz-adv-x="340" 
d="M170 395q-30 0 -55.5 10t-44.5 28t-29.5 44t-10.5 58q0 38 11.5 68.5t28.5 56.5l90 140h55l-100 -155h5q6 6 15 10q8 4 19 7t26 3q26 0 49.5 -10t41.5 -27.5t28.5 -42.5t10.5 -55t-10.5 -55t-29.5 -42.5t-44.5 -27.5t-55.5 -10zM170 440q42 0 66 24t24 66t-24 66t-66 24
t-66 -24t-24 -66t24 -66t66 -24z" />
    <glyph glyph-name="uni2077" unicode="&#x2077;" horiz-adv-x="300" 
d="M230 755h-200v45h250v-45l-160 -355h-50z" />
    <glyph glyph-name="uni2078" unicode="&#x2078;" horiz-adv-x="350" 
d="M175 395q-60 0 -97.5 31t-37.5 84q0 30 15.5 57.5t49.5 42.5q-26 15 -40.5 35t-14.5 50q0 22 9 42t25.5 35t39.5 24t51 9t51 -9t39.5 -24t25.5 -35t9 -42q0 -30 -14.5 -50t-40.5 -35q34 -15 49.5 -42.5t15.5 -57.5q0 -53 -37.5 -84t-97.5 -31zM175 440q42 0 63.5 22.5
t21.5 52.5t-21.5 52.5t-63.5 22.5t-63.5 -22.5t-21.5 -52.5t21.5 -52.5t63.5 -22.5zM175 630q34 0 54.5 17.5t20.5 47.5t-20.5 47.5t-54.5 17.5t-54.5 -17.5t-20.5 -47.5t20.5 -47.5t54.5 -17.5z" />
    <glyph glyph-name="uni2079" unicode="&#x2079;" horiz-adv-x="340" 
d="M225 555h-5q-6 -6 -15 -10q-8 -4 -19 -7t-26 -3q-26 0 -49.5 10t-41.5 27.5t-28.5 42.5t-10.5 55t10.5 55t29.5 42.5t44.5 27.5t55.5 10t55.5 -10t44.5 -28t29.5 -44t10.5 -58q0 -38 -11.5 -68.5t-28.5 -56.5l-90 -140h-55zM170 580q42 0 66 24t24 66t-24 66t-66 24
t-66 -24t-24 -66t24 -66t66 -24z" />
    <glyph glyph-name="uni2080" unicode="&#x2080;" horiz-adv-x="380" 
d="M190 -105q-32 0 -59.5 12.5t-47.5 37.5t-31.5 63.5t-11.5 91.5q0 52 11.5 91t31.5 64t47.5 37.5t59.5 12.5t59.5 -12.5t47.5 -37.5t31.5 -64t11.5 -91q0 -53 -11.5 -91.5t-31.5 -63.5t-47.5 -37.5t-59.5 -12.5zM190 -60q21 0 39 9t31.5 28t21.5 49.5t8 73.5t-8 73.5
t-21.5 49.5t-31.5 28t-39 9t-39 -9t-31.5 -28t-21.5 -49.5t-8 -73.5t8 -73.5t21.5 -49.5t31.5 -28t39 -9z" />
    <glyph glyph-name="uni2081" unicode="&#x2081;" horiz-adv-x="230" 
d="M115 190h-85v50h60q25 0 25 25v35h50v-400h-50v290z" />
    <glyph glyph-name="uni2082" unicode="&#x2082;" horiz-adv-x="335" 
d="M35 -55l170 160q40 37 40 80q0 38 -20.5 56.5t-54.5 18.5q-42 0 -61.5 -20.5t-23.5 -54.5h-50q4 24 13.5 46t26 38.5t40 26t55.5 9.5q30 0 53.5 -9.5t39 -26t24 -38.5t8.5 -46q0 -30 -12.5 -55.5t-32.5 -44.5l-150 -140h190v-45h-255v45z" />
    <glyph glyph-name="uni2083" unicode="&#x2083;" horiz-adv-x="335" 
d="M160 -105q-53 0 -89.5 28t-45.5 77h50q6 -23 25 -41.5t60 -18.5q44 0 64.5 22.5t20.5 52.5t-19.5 50t-55.5 20h-50v45h55q30 0 47.5 15.5t17.5 44.5q0 34 -21 52t-59 18q-42 0 -62 -20.5t-26 -54.5h-47q2 24 11.5 46t26 38.5t41 26t56.5 9.5q64 0 97 -32.5t33 -77.5
q0 -34 -17 -56.5t-43 -33.5q38 -15 51.5 -39.5t13.5 -50.5q0 -53 -33.5 -86.5t-101.5 -33.5z" />
    <glyph glyph-name="uni2084" unicode="&#x2084;" horiz-adv-x="335" 
d="M215 -10h-200v45l180 265h70v-265h55v-45h-55v-90h-50v90zM215 35v205h-5l-140 -205h145z" />
    <glyph glyph-name="uni2085" unicode="&#x2085;" horiz-adv-x="340" 
d="M165 -105q-53 0 -90 30.5t-45 79.5h50q7 -26 25.5 -45.5t59.5 -19.5q42 0 66 25t24 70t-24 67.5t-66 22.5q-53 0 -75 -45h-50l25 220h220v-45h-182l-13 -115h5q8 8 26.5 19t48.5 11q28 0 52.5 -9t43 -26.5t29 -42.5t10.5 -57q0 -64 -38 -102t-102 -38z" />
    <glyph glyph-name="uni2086" unicode="&#x2086;" horiz-adv-x="340" 
d="M170 -105q-30 0 -55.5 10t-44.5 28t-29.5 44t-10.5 58q0 38 11.5 68.5t28.5 56.5l90 140h55l-100 -155h5q6 6 15 10q8 4 19 7t26 3q26 0 49.5 -10t41.5 -27.5t28.5 -42.5t10.5 -55t-10.5 -55t-29.5 -42.5t-44.5 -27.5t-55.5 -10zM170 -60q42 0 66 24t24 66t-24 66t-66 24
t-66 -24t-24 -66t24 -66t66 -24z" />
    <glyph glyph-name="uni2087" unicode="&#x2087;" horiz-adv-x="300" 
d="M230 255h-200v45h250v-45l-160 -355h-50z" />
    <glyph glyph-name="uni2088" unicode="&#x2088;" horiz-adv-x="350" 
d="M175 -105q-60 0 -97.5 31t-37.5 84q0 30 15.5 57.5t49.5 42.5q-26 15 -40.5 35t-14.5 50q0 22 9 42t25.5 35t39.5 24t51 9t51 -9t39.5 -24t25.5 -35t9 -42q0 -30 -14.5 -50t-40.5 -35q34 -15 49.5 -42.5t15.5 -57.5q0 -53 -37.5 -84t-97.5 -31zM175 -60q42 0 63.5 22.5
t21.5 52.5t-21.5 52.5t-63.5 22.5t-63.5 -22.5t-21.5 -52.5t21.5 -52.5t63.5 -22.5zM175 130q34 0 54.5 17.5t20.5 47.5t-20.5 47.5t-54.5 17.5t-54.5 -17.5t-20.5 -47.5t20.5 -47.5t54.5 -17.5z" />
    <glyph glyph-name="uni2089" unicode="&#x2089;" horiz-adv-x="340" 
d="M225 55h-5q-6 -6 -15 -10q-8 -4 -19 -7t-26 -3q-26 0 -49.5 10t-41.5 27.5t-28.5 42.5t-10.5 55t10.5 55t29.5 42.5t44.5 27.5t55.5 10t55.5 -10t44.5 -28t29.5 -44t10.5 -58q0 -38 -11.5 -68.5t-28.5 -56.5l-90 -140h-55zM170 80q42 0 66 24t24 66t-24 66t-66 24
t-66 -24t-24 -66t24 -66t66 -24z" />
    <glyph glyph-name="uni20A9" unicode="&#x20a9;" horiz-adv-x="915" 
d="M163 250h-143v50h131l-27 120h-104v50h93l-53 230h55l52 -230h197l56 230h75l56 -230h197l52 230h55l-53 -230h93v-50h-104l-27 -120h131v-50h-143l-57 -250h-80l-61 250h-193l-61 -250h-80zM265 60l46 190h-94l43 -190h5zM323 300l29 120h-174l27 -120h118zM541 300
l-29 120h-109l-29 -120h167zM655 60l43 190h-94l46 -190h5zM499 470l-39 160h-5l-39 -160h83zM710 300l27 120h-174l29 -120h118z" />
    <glyph glyph-name="Euro" unicode="&#x20ac;" horiz-adv-x="735" 
d="M415 -10q-56 0 -105 18t-87.5 51.5t-65 80.5t-37.5 105h-95v50h87q-1 8 -1 18q-1 8 -1 17.5v19.5v19t1 18q0 10 1 18h-87v50h95q11 58 37.5 105t65 80.5t87.5 51.5t105 18q94 0 166 -42t109 -133h-60q-30 64 -86.5 94.5t-128.5 30.5q-91 0 -154 -55.5t-86 -149.5h325v-50
h-332q-1 -8 -2 -18q-1 -8 -1 -18v-19v-19.5t1 -17.5q1 -10 2 -18h332v-50h-325q23 -94 86 -149.5t154 -55.5q72 0 128.5 30.5t86.5 94.5h60q-37 -91 -109 -133t-166 -42z" />
    <glyph glyph-name="uni20B4" unicode="&#x20b4;" horiz-adv-x="650" 
d="M330 -10q-53 0 -94.5 14.5t-70.5 38t-44.5 53t-15.5 59.5q0 34 9.5 57t20.5 38h-70v50h520v-50h-385q-15 -11 -27.5 -33.5t-12.5 -56.5q0 -23 11 -44.5t32.5 -38t53.5 -27t73 -10.5q72 0 116 30.5t59 79.5h55q-8 -34 -27 -63t-48.5 -50.5t-68.5 -34t-86 -12.5zM65 450
h385q15 11 27.5 33.5t12.5 56.5q0 22 -11 44t-32.5 38.5t-53.5 27t-73 10.5q-72 0 -116 -30.5t-59 -79.5h-55q7 34 26.5 63t49 50.5t68.5 34t86 12.5q52 0 94 -14.5t71 -38t44.5 -53t15.5 -59.5q0 -34 -9.5 -57t-20.5 -38h70v-50h-520v50z" />
    <glyph glyph-name="uni20B8" unicode="&#x20b8;" horiz-adv-x="585" 
d="M265 505h-240v50h535v-50h-240v-505h-55v505zM25 700h535v-50h-535v50z" />
    <glyph glyph-name="uni20B9" unicode="&#x20b9;" horiz-adv-x="580" 
d="M180 290h-135v50h205q75 0 118.5 35t50.5 95h-374v50h374q-7 60 -50.5 95t-118.5 35h-205v50h500v-50h-135q26 -23 43.5 -55.5t21.5 -74.5h70v-50h-70q-4 -38 -18.5 -70.5t-42 -57t-69.5 -38.5t-100 -14l220 -290h-65z" />
    <glyph glyph-name="uni20BA" unicode="&#x20ba;" horiz-adv-x="575" 
d="M125 290l-85 -30v50l85 30v105l-85 -30v50l85 30v205h55v-185l170 65v-50l-170 -65v-105l170 65v-50l-170 -65v-260q88 0 147.5 10.5t95.5 33.5t51.5 59t15.5 87h50q0 -62 -17.5 -107t-59.5 -74.5t-111 -44t-172 -14.5h-55v290z" />
    <glyph glyph-name="uni20BD" unicode="&#x20bd;" horiz-adv-x="635" 
d="M120 160h-95v50h95v90h-95v50h95v350h245q105 0 162.5 -55t57.5 -145t-57.5 -145t-162.5 -55h-190v-90h235v-50h-235v-160h-55v160zM360 350q87 0 128.5 39t41.5 111t-41.5 111t-128.5 39h-185v-300h185z" />
    <glyph glyph-name="uni20BF" unicode="&#x20bf;" horiz-adv-x="645" 
d="M195 0h-105v700h105v110h55v-110h105v110h55v-112q78 -10 121.5 -60t43.5 -128q0 -53 -28 -94.5t-77 -60.5q53 -19 84 -62t31 -103q0 -81 -46 -131.5t-129 -57.5v-111h-55v110h-105v-110h-55v110zM380 50q72 0 111 38t39 102q0 60 -39 97.5t-111 37.5h-235v-275h235z
M370 375q72 0 111 37.5t39 97.5q0 64 -39 102t-111 38h-225v-275h225z" />
    <glyph glyph-name="uni2113" unicode="&#x2113;" horiz-adv-x="390" 
d="M230 -10q-60 0 -92.5 33.5t-32.5 101.5v111q-12 -5 -26 -9q-12 -4 -28.5 -7t-35.5 -5v50q20 2 37 6t29 9q14 5 24 11v284q0 64 33.5 99.5t86.5 35.5t86.5 -36.5t33.5 -108.5q0 -54 -13.5 -101.5t-38 -87t-58.5 -70t-75 -51.5v-130q0 -42 20.5 -63.5t54.5 -21.5q25 0 43 5
q10 2 17 5v-50q-8 -3 -18 -5q-18 -5 -47 -5zM160 315q68 38 99 104t31 141q0 53 -19.5 76.5t-45.5 23.5q-30 0 -47.5 -20t-17.5 -65v-260z" />
    <glyph glyph-name="uni2116" unicode="&#x2116;" horiz-adv-x="1085" 
d="M90 700h75l410 -625h5v625h55v-700h-75l-410 625h-5v-625h-55v700zM740 50h280v-50h-280v50zM880 140q-32 0 -59.5 11t-47.5 31.5t-31.5 50t-11.5 67.5q0 37 11.5 67t31.5 50.5t47.5 31.5t59.5 11t59.5 -11t47.5 -31.5t31.5 -50.5t11.5 -67q0 -38 -11.5 -67.5t-31.5 -50
t-47.5 -31.5t-59.5 -11zM880 185q42 0 71 29t29 86t-29 86t-71 29t-71 -29t-29 -86t29 -86t71 -29z" />
    <glyph glyph-name="uni2117" unicode="&#x2117;" horiz-adv-x="850" 
d="M425 -10q-79 0 -145 26.5t-114 74.5t-74.5 114t-26.5 145t26.5 145t74.5 114t114 74.5t145 26.5t145 -26.5t114 -74.5t74.5 -114t26.5 -145t-26.5 -145t-74.5 -114t-114 -74.5t-145 -26.5zM425 35q67 0 124 23t98.5 65t64.5 100t23 127t-23 127t-64.5 100t-98.5 65
t-124 23q-68 0 -124.5 -23t-98 -65t-64.5 -100t-23 -127t23 -127t64.5 -100t98 -65t124.5 -23zM310 540h140q64 0 97 -31.5t33 -88.5t-33 -88.5t-97 -31.5h-95v-135h-45v375zM445 340q90 0 90 80t-90 80h-90v-160h90z" />
    <glyph glyph-name="trademark" unicode="&#x2122;" horiz-adv-x="700" 
d="M120 655h-100v45h245v-45h-100v-265h-45v265zM310 700h70l88 -255h5l87 255h70v-310h-45v250h-5l-85 -250h-50l-85 250h-5v-250h-45v310z" />
    <glyph glyph-name="uni2126" unicode="&#x2126;" horiz-adv-x="800" 
d="M90 50h155l-13.5 7t-34 22.5t-44.5 40t-44.5 59.5t-34.5 81t-14 105q0 79 24.5 142.5t69 108.5t107 69.5t139.5 24.5t139.5 -24.5t107 -69.5t69 -108.5t24.5 -142.5q0 -59 -14 -105t-34.5 -81t-44.5 -59.5t-44.5 -40t-34 -22.5l-13.5 -7h155v-50h-245v50q62 25 110 67
q21 18 40.5 41.5t35 53.5t25 67t9.5 81q0 71 -20.5 127t-58 94.5t-90 58.5t-116.5 20t-116.5 -20t-90 -58.5t-58 -94.5t-20.5 -127q0 -44 9.5 -81t25 -67t35 -53.5t40.5 -41.5q48 -42 110 -67v-50h-245v50z" />
    <glyph glyph-name="estimated" unicode="&#x212e;" horiz-adv-x="850" 
d="M440 -20q-83 0 -152.5 28t-120 77t-79 114.5t-28.5 140.5t28.5 140.5t78 114.5t117 77t146.5 28t146.5 -28t117 -77t78 -114.5t28.5 -140.5v-5h-575q-15 0 -15 -15v-197q0 -5 0.5 -12t4 -16t12 -18.5t23.5 -19.5q4 -2 17.5 -10.5t37.5 -17.5t57.5 -16.5t77.5 -7.5
q66 0 115 20.5t83 46.5q39 30 67 68h55q-33 -45 -81 -80q-41 -30 -100.5 -55t-138.5 -25zM635 360q15 0 15 15v185q0 4 -0.5 11t-4 16t-12 19.5t-23.5 19.5q-6 4 -21.5 12t-39 16t-53.5 14.5t-66 6.5t-66 -6.5t-53.5 -14.5t-39 -16t-21.5 -12q-15 -9 -23.5 -19.5t-12 -19.5
t-4 -16t-0.5 -11v-185q0 -15 15 -15h410z" />
    <glyph glyph-name="uni2150" unicode="&#x2150;" horiz-adv-x="760" 
d="M530 700h55l-435 -700h-55zM145 590h-85v50h60q25 0 25 25v35h50v-400h-50v290zM655 355h-200v45h250v-45l-160 -355h-50z" />
    <glyph glyph-name="uni2151" unicode="&#x2151;" horiz-adv-x="775" 
d="M530 700h55l-435 -700h-55zM145 590h-85v50h60q25 0 25 25v35h50v-400h-50v290zM630 155h-5q-6 -6 -15 -10q-8 -4 -19 -7t-26 -3q-26 0 -49.5 10t-41.5 27.5t-28.5 42.5t-10.5 55t10.5 55t29.5 42.5t44.5 27.5t55.5 10t55.5 -10t44.5 -28t29.5 -44t10.5 -58
q0 -38 -11.5 -68.5t-28.5 -56.5l-90 -140h-55zM575 180q42 0 66 24t24 66t-24 66t-66 24t-66 -24t-24 -66t24 -66t66 -24z" />
    <glyph glyph-name="uni2152" unicode="&#x2152;" horiz-adv-x="1005" 
d="M530 700h55l-435 -700h-55zM145 590h-85v50h60q25 0 25 25v35h50v-400h-50v290zM530 290h-85v50h60q25 0 25 25v35h50v-400h-50v290zM795 -5q-32 0 -59.5 12.5t-47.5 37.5t-31.5 63.5t-11.5 91.5q0 52 11.5 91t31.5 64t47.5 37.5t59.5 12.5t59.5 -12.5t47.5 -37.5
t31.5 -64t11.5 -91q0 -53 -11.5 -91.5t-31.5 -63.5t-47.5 -37.5t-59.5 -12.5zM795 40q21 0 39 9t31.5 28t21.5 49.5t8 73.5t-8 73.5t-21.5 49.5t-31.5 28t-39 9t-39 -9t-31.5 -28t-21.5 -49.5t-8 -73.5t8 -73.5t21.5 -49.5t31.5 -28t39 -9z" />
    <glyph glyph-name="onethird" unicode="&#x2153;" horiz-adv-x="770" 
d="M530 700h55l-435 -700h-55zM145 590h-85v50h60q25 0 25 25v35h50v-400h-50v290zM575 -5q-53 0 -89.5 28t-45.5 77h50q6 -23 25 -41.5t60 -18.5q44 0 64.5 22.5t20.5 52.5t-19.5 50t-55.5 20h-50v45h55q30 0 47.5 15.5t17.5 44.5q0 34 -21 52t-59 18q-42 0 -62 -20.5
t-26 -54.5h-47q2 24 11.5 46t26 38.5t41 26t56.5 9.5q64 0 97 -32.5t33 -77.5q0 -34 -17 -56.5t-43 -33.5q38 -15 51.5 -39.5t13.5 -50.5q0 -53 -33.5 -86.5t-101.5 -33.5z" />
    <glyph glyph-name="twothirds" unicode="&#x2154;" horiz-adv-x="850" 
d="M615 700h55l-435 -700h-55zM55 345l170 160q40 37 40 80q0 38 -20.5 56.5t-54.5 18.5q-42 0 -61.5 -20.5t-23.5 -54.5h-50q4 24 13.5 46t26 38.5t40 26t55.5 9.5q30 0 53.5 -9.5t39 -26t24 -38.5t8.5 -46q0 -30 -12.5 -55.5t-32.5 -44.5l-150 -140h190v-45h-255v45z
M655 -5q-53 0 -89.5 28t-45.5 77h50q6 -23 25 -41.5t60 -18.5q44 0 64.5 22.5t20.5 52.5t-19.5 50t-55.5 20h-50v45h55q30 0 47.5 15.5t17.5 44.5q0 34 -21 52t-59 18q-42 0 -62 -20.5t-26 -54.5h-47q2 24 11.5 46t26 38.5t41 26t56.5 9.5q64 0 97 -32.5t33 -77.5
q0 -34 -17 -56.5t-43 -33.5q38 -15 51.5 -39.5t13.5 -50.5q0 -53 -33.5 -86.5t-101.5 -33.5z" />
    <glyph glyph-name="uni2155" unicode="&#x2155;" horiz-adv-x="780" 
d="M530 700h55l-435 -700h-55zM145 590h-85v50h60q25 0 25 25v35h50v-400h-50v290zM580 -5q-53 0 -90 30.5t-45 79.5h50q7 -26 25.5 -45.5t59.5 -19.5q42 0 66 25t24 70t-24 67.5t-66 22.5q-53 0 -75 -45h-50l25 220h220v-45h-182l-13 -115h5q8 8 26.5 19t48.5 11
q28 0 52.5 -9t43 -26.5t29 -42.5t10.5 -57q0 -64 -38 -102t-102 -38z" />
    <glyph glyph-name="uni2156" unicode="&#x2156;" horiz-adv-x="870" 
d="M615 700h55l-435 -700h-55zM55 345l170 160q40 37 40 80q0 38 -20.5 56.5t-54.5 18.5q-42 0 -61.5 -20.5t-23.5 -54.5h-50q4 24 13.5 46t26 38.5t40 26t55.5 9.5q30 0 53.5 -9.5t39 -26t24 -38.5t8.5 -46q0 -30 -12.5 -55.5t-32.5 -44.5l-150 -140h190v-45h-255v45z
M670 -5q-53 0 -90 30.5t-45 79.5h50q7 -26 25.5 -45.5t59.5 -19.5q42 0 66 25t24 70t-24 67.5t-66 22.5q-53 0 -75 -45h-50l25 220h220v-45h-182l-13 -115h5q8 8 26.5 19t48.5 11q28 0 52.5 -9t43 -26.5t29 -42.5t10.5 -57q0 -64 -38 -102t-102 -38z" />
    <glyph glyph-name="uni2157" unicode="&#x2157;" horiz-adv-x="865" 
d="M615 700h55l-435 -700h-55zM190 295q-53 0 -89.5 28t-45.5 77h50q6 -23 25 -41.5t60 -18.5q44 0 64.5 22.5t20.5 52.5t-19.5 50t-55.5 20h-50v45h55q30 0 47.5 15.5t17.5 44.5q0 34 -21 52t-59 18q-42 0 -62 -20.5t-26 -54.5h-47q2 24 11.5 46t26 38.5t41 26t56.5 9.5
q64 0 97 -32.5t33 -77.5q0 -34 -17 -56.5t-43 -33.5q38 -15 51.5 -39.5t13.5 -50.5q0 -53 -33.5 -86.5t-101.5 -33.5zM665 -5q-53 0 -90 30.5t-45 79.5h50q7 -26 25.5 -45.5t59.5 -19.5q42 0 66 25t24 70t-24 67.5t-66 22.5q-53 0 -75 -45h-50l25 220h220v-45h-182l-13 -115
h5q8 8 26.5 19t48.5 11q28 0 52.5 -9t43 -26.5t29 -42.5t10.5 -57q0 -64 -38 -102t-102 -38z" />
    <glyph glyph-name="uni2158" unicode="&#x2158;" horiz-adv-x="865" 
d="M615 700h55l-435 -700h-55zM235 390h-200v45l180 265h70v-265h55v-45h-55v-90h-50v90zM235 435v205h-5l-140 -205h145zM665 -5q-53 0 -90 30.5t-45 79.5h50q7 -26 25.5 -45.5t59.5 -19.5q42 0 66 25t24 70t-24 67.5t-66 22.5q-53 0 -75 -45h-50l25 220h220v-45h-182
l-13 -115h5q8 8 26.5 19t48.5 11q28 0 52.5 -9t43 -26.5t29 -42.5t10.5 -57q0 -64 -38 -102t-102 -38z" />
    <glyph glyph-name="uni2159" unicode="&#x2159;" horiz-adv-x="755" 
d="M530 700h55l-435 -700h-55zM145 590h-85v50h60q25 0 25 25v35h50v-400h-50v290zM555 -5q-30 0 -55.5 10t-44.5 28t-29.5 44t-10.5 58q0 38 11.5 68.5t28.5 56.5l90 140h55l-100 -155h5q6 6 15 10q8 4 19 7t26 3q26 0 49.5 -10t41.5 -27.5t28.5 -42.5t10.5 -55t-10.5 -55
t-29.5 -42.5t-44.5 -27.5t-55.5 -10zM555 40q42 0 66 24t24 66t-24 66t-66 24t-66 -24t-24 -66t24 -66t66 -24z" />
    <glyph glyph-name="uni215A" unicode="&#x215a;" horiz-adv-x="845" 
d="M620 700h55l-435 -700h-55zM195 295q-53 0 -90 30.5t-45 79.5h50q7 -26 25.5 -45.5t59.5 -19.5q42 0 66 25t24 70t-24 67.5t-66 22.5q-53 0 -75 -45h-50l25 220h220v-45h-182l-13 -115h5q8 8 26.5 19t48.5 11q28 0 52.5 -9t43 -26.5t29 -42.5t10.5 -57q0 -64 -38 -102
t-102 -38zM645 -5q-30 0 -55.5 10t-44.5 28t-29.5 44t-10.5 58q0 38 11.5 68.5t28.5 56.5l90 140h55l-100 -155h5q6 6 15 10q8 4 19 7t26 3q26 0 49.5 -10t41.5 -27.5t28.5 -42.5t10.5 -55t-10.5 -55t-29.5 -42.5t-44.5 -27.5t-55.5 -10zM645 40q42 0 66 24t24 66t-24 66
t-66 24t-66 -24t-24 -66t24 -66t66 -24z" />
    <glyph glyph-name="oneeighth" unicode="&#x215b;" horiz-adv-x="780" 
d="M530 700h55l-435 -700h-55zM145 590h-85v50h60q25 0 25 25v35h50v-400h-50v290zM580 -5q-60 0 -97.5 31t-37.5 84q0 30 15.5 57.5t49.5 42.5q-26 15 -40.5 35t-14.5 50q0 22 9 42t25.5 35t39.5 24t51 9t51 -9t39.5 -24t25.5 -35t9 -42q0 -30 -14.5 -50t-40.5 -35
q34 -15 49.5 -42.5t15.5 -57.5q0 -53 -37.5 -84t-97.5 -31zM580 40q42 0 63.5 22.5t21.5 52.5t-21.5 52.5t-63.5 22.5t-63.5 -22.5t-21.5 -52.5t21.5 -52.5t63.5 -22.5zM580 230q34 0 54.5 17.5t20.5 47.5t-20.5 47.5t-54.5 17.5t-54.5 -17.5t-20.5 -47.5t20.5 -47.5
t54.5 -17.5z" />
    <glyph glyph-name="threeeighths" unicode="&#x215c;" horiz-adv-x="865" 
d="M615 700h55l-435 -700h-55zM190 295q-53 0 -89.5 28t-45.5 77h50q6 -23 25 -41.5t60 -18.5q44 0 64.5 22.5t20.5 52.5t-19.5 50t-55.5 20h-50v45h55q30 0 47.5 15.5t17.5 44.5q0 34 -21 52t-59 18q-42 0 -62 -20.5t-26 -54.5h-47q2 24 11.5 46t26 38.5t41 26t56.5 9.5
q64 0 97 -32.5t33 -77.5q0 -34 -17 -56.5t-43 -33.5q38 -15 51.5 -39.5t13.5 -50.5q0 -53 -33.5 -86.5t-101.5 -33.5zM665 -5q-60 0 -97.5 31t-37.5 84q0 30 15.5 57.5t49.5 42.5q-26 15 -40.5 35t-14.5 50q0 22 9 42t25.5 35t39.5 24t51 9t51 -9t39.5 -24t25.5 -35t9 -42
q0 -30 -14.5 -50t-40.5 -35q34 -15 49.5 -42.5t15.5 -57.5q0 -53 -37.5 -84t-97.5 -31zM665 40q42 0 63.5 22.5t21.5 52.5t-21.5 52.5t-63.5 22.5t-63.5 -22.5t-21.5 -52.5t21.5 -52.5t63.5 -22.5zM665 230q34 0 54.5 17.5t20.5 47.5t-20.5 47.5t-54.5 17.5t-54.5 -17.5
t-20.5 -47.5t20.5 -47.5t54.5 -17.5z" />
    <glyph glyph-name="fiveeighths" unicode="&#x215d;" horiz-adv-x="870" 
d="M620 700h55l-435 -700h-55zM195 295q-53 0 -90 30.5t-45 79.5h50q7 -26 25.5 -45.5t59.5 -19.5q42 0 66 25t24 70t-24 67.5t-66 22.5q-53 0 -75 -45h-50l25 220h220v-45h-182l-13 -115h5q8 8 26.5 19t48.5 11q28 0 52.5 -9t43 -26.5t29 -42.5t10.5 -57q0 -64 -38 -102
t-102 -38zM670 -5q-60 0 -97.5 31t-37.5 84q0 30 15.5 57.5t49.5 42.5q-26 15 -40.5 35t-14.5 50q0 22 9 42t25.5 35t39.5 24t51 9t51 -9t39.5 -24t25.5 -35t9 -42q0 -30 -14.5 -50t-40.5 -35q34 -15 49.5 -42.5t15.5 -57.5q0 -53 -37.5 -84t-97.5 -31zM670 40
q42 0 63.5 22.5t21.5 52.5t-21.5 52.5t-63.5 22.5t-63.5 -22.5t-21.5 -52.5t21.5 -52.5t63.5 -22.5zM670 230q34 0 54.5 17.5t20.5 47.5t-20.5 47.5t-54.5 17.5t-54.5 -17.5t-20.5 -47.5t20.5 -47.5t54.5 -17.5z" />
    <glyph glyph-name="seveneighths" unicode="&#x215e;" horiz-adv-x="785" 
d="M535 700h55l-435 -700h-55zM260 655h-200v45h250v-45l-160 -355h-50zM585 -5q-60 0 -97.5 31t-37.5 84q0 30 15.5 57.5t49.5 42.5q-26 15 -40.5 35t-14.5 50q0 22 9 42t25.5 35t39.5 24t51 9t51 -9t39.5 -24t25.5 -35t9 -42q0 -30 -14.5 -50t-40.5 -35q34 -15 49.5 -42.5
t15.5 -57.5q0 -53 -37.5 -84t-97.5 -31zM585 40q42 0 63.5 22.5t21.5 52.5t-21.5 52.5t-63.5 22.5t-63.5 -22.5t-21.5 -52.5t21.5 -52.5t63.5 -22.5zM585 230q34 0 54.5 17.5t20.5 47.5t-20.5 47.5t-54.5 17.5t-54.5 -17.5t-20.5 -47.5t20.5 -47.5t54.5 -17.5z" />
    <glyph glyph-name="uni215F" unicode="&#x215f;" horiz-adv-x="410" 
d="M530 700h55l-435 -700h-55zM145 590h-85v50h60q25 0 25 25v35h50v-400h-50v290z" />
    <glyph glyph-name="uni2190" unicode="&#x2190;" 
d="M150 345v5l215 215l40 -40l-150 -150h595v-55h-596l151 -150l-40 -40z" />
    <glyph glyph-name="uni2191" unicode="&#x2191;" 
d="M470 595l-150 -150l-40 40l215 215h5l215 -215l-40 -40l-150 150v-595h-55v595z" />
    <glyph glyph-name="uni2192" unicode="&#x2192;" 
d="M595 170l151 150h-596v55h595l-150 150l40 40l215 -215v-5l-215 -215z" />
    <glyph glyph-name="uni2193" unicode="&#x2193;" 
d="M280 215l40 40l150 -150v595h55v-595l150 150l40 -40l-215 -215h-5z" />
    <glyph glyph-name="uni2194" unicode="&#x2194;" 
d="M140 345v5l215 215l40 -40l-150 -150h510l-150 150l40 40l215 -215v-5l-215 -215l-40 40l151 150h-512l151 -150l-40 -40z" />
    <glyph glyph-name="uni2195" unicode="&#x2195;" 
d="M280 205l40 40l150 -150v510l-150 -150l-40 40l215 215h5l215 -215l-40 -40l-150 150v-510l150 150l40 -40l-215 -215h-5z" />
    <glyph glyph-name="uni2196" unicode="&#x2196;" 
d="M255 555v-215h-55v300l10 10h300v-55h-215l505 -505l-40 -40z" />
    <glyph glyph-name="uni2197" unicode="&#x2197;" 
d="M200 90l505 505h-215v55h300l10 -10v-300h-55v215l-505 -505z" />
    <glyph glyph-name="uni2198" unicode="&#x2198;" 
d="M490 105h215l-505 505l40 40l505 -505v215h55v-300l-10 -10h-300v55z" />
    <glyph glyph-name="uni2199" unicode="&#x2199;" 
d="M200 60v300h55v-215l505 505l40 -40l-505 -505h215v-55h-300z" />
    <glyph glyph-name="uni21C5" unicode="&#x21c5;" 
d="M305 595l-150 -150l-40 40l215 215h5l215 -215l-40 -40l-150 150v-595h-55v595zM450 215l40 40l150 -150v595h55v-595l150 150l40 -40l-215 -215h-5z" />
    <glyph glyph-name="uni21F5" unicode="&#x21f5;" 
d="M115 215l40 40l150 -150v595h55v-595l150 150l40 -40l-215 -215h-5zM640 595l-150 -150l-40 40l215 215h5l215 -215l-40 -40l-150 150v-595h-55v595z" />
    <glyph glyph-name="partialdiff" unicode="&#x2202;" horiz-adv-x="570" 
d="M270 -10q-43 0 -82 15t-68.5 44t-47 72t-17.5 99q0 54 15 97t42.5 72.5t65 45t82.5 15.5q67 0 111 -25.5t74 -59.5h5q0 67 -12.5 122t-36.5 93t-58.5 59t-77.5 21q-49 0 -76.5 -22.5t-38.5 -52.5h-60q15 53 57.5 89t117.5 36q54 0 98.5 -22.5t76 -67.5t48.5 -112.5
t17 -157.5q0 -94 -16.5 -162t-47 -112t-74 -65t-97.5 -21zM270 40q45 0 78 18.5t54.5 52t32 79.5t10.5 100q-17 30 -43 55q-22 20 -54.5 37.5t-77.5 17.5q-41 0 -71.5 -13.5t-50 -37.5t-29 -57t-9.5 -72q0 -83 44 -131.5t116 -48.5z" />
    <glyph glyph-name="emptyset" unicode="&#x2205;" horiz-adv-x="820" 
d="M410 -10q-65 0 -119.5 17t-98.5 49l-52 -61h-65l80 94q-46 47 -70.5 113t-24.5 148t25 149t71 113.5t110.5 72t143.5 25.5q65 0 119.5 -17.5t97.5 -49.5l53 62h65l-80 -94q45 -47 70 -113t25 -148q0 -83 -25 -149.5t-71 -113t-110.5 -72t-143.5 -25.5zM593 603
q-75 57 -183 57q-66 0 -120 -21.5t-93 -62t-60.5 -98t-21.5 -128.5q0 -69 19.5 -124t55.5 -95zM410 40q66 0 120 21.5t93 62t60.5 98t21.5 128.5q0 69 -20 124t-56 95l-402 -472q75 -57 183 -57z" />
    <glyph glyph-name="uni2206" unicode="&#x2206;" horiz-adv-x="640" 
d="M285 700h70l250 -700h-570zM535 50l-215 600l-215 -600h430z" />
    <glyph glyph-name="product" unicode="&#x220f;" horiz-adv-x="715" 
d="M110 700h495v-810h-55v760h-385v-760h-55v810z" />
    <glyph glyph-name="summation" unicode="&#x2211;" horiz-adv-x="570" 
d="M60 -60l250 375l-250 335v50h460v-50h-400l250 -335l-250 -375h400v-50h-460v50z" />
    <glyph glyph-name="minus" unicode="&#x2212;" horiz-adv-x="545" 
d="M45 325h455v-50h-455v50z" />
    <glyph glyph-name="radical" unicode="&#x221a;" horiz-adv-x="595" 
d="M140 160h-130v50h170l85 -260h10l240 775h55l-260 -835h-80z" />
    <glyph glyph-name="infinity" unicode="&#x221e;" horiz-adv-x="770" 
d="M205 200q-68 0 -106.5 41t-38.5 109t38.5 109t106.5 41q30 0 55 -9.5t46.5 -25.5t40.5 -37t38 -43q19 22 38 43t40.5 37t46.5 25.5t55 9.5q68 0 106.5 -41t38.5 -109t-38.5 -109t-106.5 -41q-30 0 -55 9.5t-46.5 25.5t-40.5 36.5t-38 43.5q-19 -23 -38 -43.5t-40.5 -36.5
t-46.5 -25.5t-55 -9.5zM205 245q23 0 44 8.5t40 23t36.5 33.5t34.5 40q-17 21 -34.5 40t-36.5 33.5t-40 23t-44 8.5q-45 0 -72.5 -28t-27.5 -77t27.5 -77t72.5 -28zM565 245q45 0 72.5 28t27.5 77t-27.5 77t-72.5 28q-23 0 -44 -8.5t-40 -23t-36.5 -33.5t-34.5 -40
q17 -21 34.5 -40t36.5 -33.5t40 -23t44 -8.5z" />
    <glyph glyph-name="integral" unicode="&#x222b;" horiz-adv-x="360" 
d="M35 -60h24q50 0 73 26t23 94v580q0 94 35.5 132t114.5 38h20v-50h-24q-50 0 -73 -26t-23 -94v-580q0 -94 -35.5 -132t-114.5 -38h-20v50z" />
    <glyph glyph-name="approxequal" unicode="&#x2248;" horiz-adv-x="565" 
d="M65 150q0 57 31.5 91t88.5 34q32 0 58 -11.5t49 -26t44 -26t44 -11.5q70 0 70 75h50q0 -57 -31.5 -91t-88.5 -34q-32 0 -57.5 11.5t-48 26t-44 26t-45.5 11.5q-70 0 -70 -75h-50zM65 330q0 57 31.5 91t88.5 34q32 0 58 -11.5t49 -26t44 -26t44 -11.5q70 0 70 75h50
q0 -57 -31.5 -91t-88.5 -34q-32 0 -57.5 11.5t-48 26t-44 26t-45.5 11.5q-70 0 -70 -75h-50z" />
    <glyph glyph-name="notequal" unicode="&#x2260;" horiz-adv-x="545" 
d="M194 185h-149v50h171l58 135h-229v50h251l49 110h55l-49 -110h149v-50h-171l-58 -135h229v-50h-251l-49 -110h-55z" />
    <glyph glyph-name="lessequal" unicode="&#x2264;" horiz-adv-x="540" 
d="M60 55h420v-45h-420v45zM60 290v60l420 185v-55l-370 -160l370 -160v-55z" />
    <glyph glyph-name="greaterequal" unicode="&#x2265;" horiz-adv-x="540" 
d="M60 55h420v-45h-420v45zM60 160l370 160l-370 160v55l420 -185v-60l-420 -185v55z" />
    <glyph glyph-name="uni2318" unicode="&#x2318;" horiz-adv-x="815" 
d="M195 0q-28 0 -52.5 10.5t-43 29t-29 43t-10.5 52.5q0 68 37.5 104t112.5 36h75v150h-75q-75 0 -112.5 36t-37.5 104q0 28 10.5 52.5t29 43t43 29t52.5 10.5q64 0 102 -36.5t38 -108.5v-85h145v85q0 72 38 108.5t102 36.5q28 0 52.5 -10.5t43 -29t29 -43t10.5 -52.5
q0 -68 -37.5 -104t-112.5 -36h-75v-150h75q75 0 112.5 -36t37.5 -104q0 -28 -10.5 -52.5t-29 -43t-43 -29t-52.5 -10.5q-64 0 -102 36.5t-38 108.5v85h-145v-85q0 -72 -38 -108.5t-102 -36.5zM200 50q38 0 61.5 24t23.5 66v90h-80q-44 0 -69.5 -24t-25.5 -66t24 -66t66 -24z
M480 275v150h-145v-150h145zM285 470v90q0 42 -23.5 66t-61.5 24q-42 0 -66 -24t-24 -66t25.5 -66t69.5 -24h80zM615 50q42 0 66 24t24 66t-25.5 66t-69.5 24h-80v-90q0 -42 23.5 -66t61.5 -24zM610 470q44 0 69.5 24t25.5 66t-24 66t-66 24q-38 0 -61.5 -24t-23.5 -66v-90
h80z" />
    <glyph glyph-name="uni2460" unicode="&#x2460;" 
d="M480 440h-85v50h60q25 0 25 25v35h50v-400h-50v290zM500 -70q-88 0 -164.5 32.5t-133.5 89.5t-89.5 133.5t-32.5 164.5t32.5 164.5t89.5 133.5t133.5 89.5t164.5 32.5t164.5 -32.5t133.5 -89.5t89.5 -133.5t32.5 -164.5t-32.5 -164.5t-89.5 -133.5t-133.5 -89.5
t-164.5 -32.5zM500 -25q79 0 147.5 29t119 79.5t79.5 119t29 147.5t-29 147.5t-79.5 119t-119 79.5t-147.5 29t-147.5 -29t-119 -79.5t-79.5 -119t-29 -147.5t29 -147.5t79.5 -119t119 -79.5t147.5 -29z" />
    <glyph glyph-name="uni2461" unicode="&#x2461;" 
d="M370 195l170 160q40 37 40 80q0 38 -20.5 56.5t-54.5 18.5q-42 0 -61.5 -20.5t-23.5 -54.5h-50q4 24 13.5 46t26 38.5t40 26t55.5 9.5q30 0 53.5 -9.5t39 -26t24 -38.5t8.5 -46q0 -30 -12.5 -55.5t-32.5 -44.5l-150 -140h190v-45h-255v45zM500 -70q-88 0 -164.5 32.5
t-133.5 89.5t-89.5 133.5t-32.5 164.5t32.5 164.5t89.5 133.5t133.5 89.5t164.5 32.5t164.5 -32.5t133.5 -89.5t89.5 -133.5t32.5 -164.5t-32.5 -164.5t-89.5 -133.5t-133.5 -89.5t-164.5 -32.5zM500 -25q79 0 147.5 29t119 79.5t79.5 119t29 147.5t-29 147.5t-79.5 119
t-119 79.5t-147.5 29t-147.5 -29t-119 -79.5t-79.5 -119t-29 -147.5t29 -147.5t79.5 -119t119 -79.5t147.5 -29z" />
    <glyph glyph-name="uni2462" unicode="&#x2462;" 
d="M505 145q-53 0 -89.5 28t-45.5 77h50q6 -23 25 -41.5t60 -18.5q44 0 64.5 22.5t20.5 52.5t-19.5 50t-55.5 20h-50v45h55q30 0 47.5 15.5t17.5 44.5q0 34 -21 52t-59 18q-42 0 -62 -20.5t-26 -54.5h-47q2 24 11.5 46t26 38.5t41 26t56.5 9.5q64 0 97 -32.5t33 -77.5
q0 -34 -17 -56.5t-43 -33.5q38 -15 51.5 -39.5t13.5 -50.5q0 -53 -33.5 -86.5t-101.5 -33.5zM500 -70q-88 0 -164.5 32.5t-133.5 89.5t-89.5 133.5t-32.5 164.5t32.5 164.5t89.5 133.5t133.5 89.5t164.5 32.5t164.5 -32.5t133.5 -89.5t89.5 -133.5t32.5 -164.5t-32.5 -164.5
t-89.5 -133.5t-133.5 -89.5t-164.5 -32.5zM500 -25q79 0 147.5 29t119 79.5t79.5 119t29 147.5t-29 147.5t-79.5 119t-119 79.5t-147.5 29t-147.5 -29t-119 -79.5t-79.5 -119t-29 -147.5t29 -147.5t79.5 -119t119 -79.5t147.5 -29z" />
    <glyph glyph-name="uni2463" unicode="&#x2463;" 
d="M530 240h-200v45l180 265h70v-265h55v-45h-55v-90h-50v90zM530 285v205h-5l-140 -205h145zM500 -70q-88 0 -164.5 32.5t-133.5 89.5t-89.5 133.5t-32.5 164.5t32.5 164.5t89.5 133.5t133.5 89.5t164.5 32.5t164.5 -32.5t133.5 -89.5t89.5 -133.5t32.5 -164.5
t-32.5 -164.5t-89.5 -133.5t-133.5 -89.5t-164.5 -32.5zM500 -25q79 0 147.5 29t119 79.5t79.5 119t29 147.5t-29 147.5t-79.5 119t-119 79.5t-147.5 29t-147.5 -29t-119 -79.5t-79.5 -119t-29 -147.5t29 -147.5t79.5 -119t119 -79.5t147.5 -29z" />
    <glyph glyph-name="uni2464" unicode="&#x2464;" 
d="M500 145q-53 0 -90 30.5t-45 79.5h50q7 -26 25.5 -45.5t59.5 -19.5q42 0 66 25t24 70t-24 67.5t-66 22.5q-53 0 -75 -45h-50l25 220h220v-45h-182l-13 -115h5q8 8 26.5 19t48.5 11q28 0 52.5 -9t43 -26.5t29 -42.5t10.5 -57q0 -64 -38 -102t-102 -38zM500 -70
q-88 0 -164.5 32.5t-133.5 89.5t-89.5 133.5t-32.5 164.5t32.5 164.5t89.5 133.5t133.5 89.5t164.5 32.5t164.5 -32.5t133.5 -89.5t89.5 -133.5t32.5 -164.5t-32.5 -164.5t-89.5 -133.5t-133.5 -89.5t-164.5 -32.5zM500 -25q79 0 147.5 29t119 79.5t79.5 119t29 147.5
t-29 147.5t-79.5 119t-119 79.5t-147.5 29t-147.5 -29t-119 -79.5t-79.5 -119t-29 -147.5t29 -147.5t79.5 -119t119 -79.5t147.5 -29z" />
    <glyph glyph-name="uni2465" unicode="&#x2465;" 
d="M500 145q-30 0 -55.5 10t-44.5 28t-29.5 44t-10.5 58q0 38 11.5 68.5t28.5 56.5l90 140h55l-100 -155h5q6 6 15 10q8 4 19 7t26 3q26 0 49.5 -10t41.5 -27.5t28.5 -42.5t10.5 -55t-10.5 -55t-29.5 -42.5t-44.5 -27.5t-55.5 -10zM500 190q42 0 66 24t24 66t-24 66t-66 24
t-66 -24t-24 -66t24 -66t66 -24zM500 -70q-88 0 -164.5 32.5t-133.5 89.5t-89.5 133.5t-32.5 164.5t32.5 164.5t89.5 133.5t133.5 89.5t164.5 32.5t164.5 -32.5t133.5 -89.5t89.5 -133.5t32.5 -164.5t-32.5 -164.5t-89.5 -133.5t-133.5 -89.5t-164.5 -32.5zM500 -25
q79 0 147.5 29t119 79.5t79.5 119t29 147.5t-29 147.5t-79.5 119t-119 79.5t-147.5 29t-147.5 -29t-119 -79.5t-79.5 -119t-29 -147.5t29 -147.5t79.5 -119t119 -79.5t147.5 -29z" />
    <glyph glyph-name="uni2466" unicode="&#x2466;" 
d="M580 505h-200v45h250v-45l-160 -355h-50zM500 -70q-88 0 -164.5 32.5t-133.5 89.5t-89.5 133.5t-32.5 164.5t32.5 164.5t89.5 133.5t133.5 89.5t164.5 32.5t164.5 -32.5t133.5 -89.5t89.5 -133.5t32.5 -164.5t-32.5 -164.5t-89.5 -133.5t-133.5 -89.5t-164.5 -32.5z
M500 -25q79 0 147.5 29t119 79.5t79.5 119t29 147.5t-29 147.5t-79.5 119t-119 79.5t-147.5 29t-147.5 -29t-119 -79.5t-79.5 -119t-29 -147.5t29 -147.5t79.5 -119t119 -79.5t147.5 -29z" />
    <glyph glyph-name="uni2467" unicode="&#x2467;" 
d="M500 145q-60 0 -97.5 31t-37.5 84q0 30 15.5 57.5t49.5 42.5q-26 15 -40.5 35t-14.5 50q0 22 9 42t25.5 35t39.5 24t51 9t51 -9t39.5 -24t25.5 -35t9 -42q0 -30 -14.5 -50t-40.5 -35q34 -15 49.5 -42.5t15.5 -57.5q0 -53 -37.5 -84t-97.5 -31zM500 190q42 0 63.5 22.5
t21.5 52.5t-21.5 52.5t-63.5 22.5t-63.5 -22.5t-21.5 -52.5t21.5 -52.5t63.5 -22.5zM500 380q34 0 54.5 17.5t20.5 47.5t-20.5 47.5t-54.5 17.5t-54.5 -17.5t-20.5 -47.5t20.5 -47.5t54.5 -17.5zM500 -70q-88 0 -164.5 32.5t-133.5 89.5t-89.5 133.5t-32.5 164.5t32.5 164.5
t89.5 133.5t133.5 89.5t164.5 32.5t164.5 -32.5t133.5 -89.5t89.5 -133.5t32.5 -164.5t-32.5 -164.5t-89.5 -133.5t-133.5 -89.5t-164.5 -32.5zM500 -25q79 0 147.5 29t119 79.5t79.5 119t29 147.5t-29 147.5t-79.5 119t-119 79.5t-147.5 29t-147.5 -29t-119 -79.5
t-79.5 -119t-29 -147.5t29 -147.5t79.5 -119t119 -79.5t147.5 -29z" />
    <glyph glyph-name="uni2468" unicode="&#x2468;" 
d="M555 305h-5q-6 -6 -15 -10q-8 -4 -19 -7t-26 -3q-26 0 -49.5 10t-41.5 27.5t-28.5 42.5t-10.5 55t10.5 55t29.5 42.5t44.5 27.5t55.5 10t55.5 -10t44.5 -28t29.5 -44t10.5 -58q0 -38 -11.5 -68.5t-28.5 -56.5l-90 -140h-55zM500 330q42 0 66 24t24 66t-24 66t-66 24
t-66 -24t-24 -66t24 -66t66 -24zM500 -70q-88 0 -164.5 32.5t-133.5 89.5t-89.5 133.5t-32.5 164.5t32.5 164.5t89.5 133.5t133.5 89.5t164.5 32.5t164.5 -32.5t133.5 -89.5t89.5 -133.5t32.5 -164.5t-32.5 -164.5t-89.5 -133.5t-133.5 -89.5t-164.5 -32.5zM500 -25
q79 0 147.5 29t119 79.5t79.5 119t29 147.5t-29 147.5t-79.5 119t-119 79.5t-147.5 29t-147.5 -29t-119 -79.5t-79.5 -119t-29 -147.5t29 -147.5t79.5 -119t119 -79.5t147.5 -29z" />
    <glyph glyph-name="uni2469" unicode="&#x2469;" 
d="M325 440h-85v50h60q25 0 25 25v35h50v-400h-50v290zM600 144q-32 0 -59.5 12.5t-47.5 37.5t-31.5 63.5t-11.5 91.5q0 52 11.5 91t31.5 64t47.5 37.5t59.5 12.5t59.5 -12.5t47.5 -37.5t31.5 -64t11.5 -91q0 -53 -11.5 -91.5t-31.5 -63.5t-47.5 -37.5t-59.5 -12.5zM600 189
q21 0 39 9t31.5 28t21.5 49.5t8 73.5t-8 73.5t-21.5 49.5t-31.5 28t-39 9t-39 -9t-31.5 -28t-21.5 -49.5t-8 -73.5t8 -73.5t21.5 -49.5t31.5 -28t39 -9zM500 -70q-88 0 -164.5 32.5t-133.5 89.5t-89.5 133.5t-32.5 164.5t32.5 164.5t89.5 133.5t133.5 89.5t164.5 32.5
t164.5 -32.5t133.5 -89.5t89.5 -133.5t32.5 -164.5t-32.5 -164.5t-89.5 -133.5t-133.5 -89.5t-164.5 -32.5zM500 -25q79 0 147.5 29t119 79.5t79.5 119t29 147.5t-29 147.5t-79.5 119t-119 79.5t-147.5 29t-147.5 -29t-119 -79.5t-79.5 -119t-29 -147.5t29 -147.5t79.5 -119
t119 -79.5t147.5 -29z" />
    <glyph glyph-name="uni246A" unicode="&#x246a;" 
d="M600 440h-85v50h60q25 0 25 25v35h50v-400h-50v290zM375 440h-85v50h60q25 0 25 25v35h50v-400h-50v290zM500 -70q-88 0 -164.5 32.5t-133.5 89.5t-89.5 133.5t-32.5 164.5t32.5 164.5t89.5 133.5t133.5 89.5t164.5 32.5t164.5 -32.5t133.5 -89.5t89.5 -133.5
t32.5 -164.5t-32.5 -164.5t-89.5 -133.5t-133.5 -89.5t-164.5 -32.5zM500 -25q79 0 147.5 29t119 79.5t79.5 119t29 147.5t-29 147.5t-79.5 119t-119 79.5t-147.5 29t-147.5 -29t-119 -79.5t-79.5 -119t-29 -147.5t29 -147.5t79.5 -119t119 -79.5t147.5 -29z" />
    <glyph glyph-name="uni246B" unicode="&#x246b;" 
d="M335 440h-85v50h60q25 0 25 25v35h50v-400h-50v290zM465 195l170 160q40 37 40 80q0 38 -20.5 56.5t-54.5 18.5q-42 0 -61.5 -20.5t-23.5 -54.5h-50q4 24 13.5 46t26 38.5t40 26t55.5 9.5q30 0 53.5 -9.5t39 -26t24 -38.5t8.5 -46q0 -30 -12.5 -55.5t-32.5 -44.5
l-150 -140h190v-45h-255v45zM500 -70q-88 0 -164.5 32.5t-133.5 89.5t-89.5 133.5t-32.5 164.5t32.5 164.5t89.5 133.5t133.5 89.5t164.5 32.5t164.5 -32.5t133.5 -89.5t89.5 -133.5t32.5 -164.5t-32.5 -164.5t-89.5 -133.5t-133.5 -89.5t-164.5 -32.5zM500 -25
q79 0 147.5 29t119 79.5t79.5 119t29 147.5t-29 147.5t-79.5 119t-119 79.5t-147.5 29t-147.5 -29t-119 -79.5t-79.5 -119t-29 -147.5t29 -147.5t79.5 -119t119 -79.5t147.5 -29z" />
    <glyph glyph-name="uni246C" unicode="&#x246c;" 
d="M330 440h-85v50h60q25 0 25 25v35h50v-400h-50v290zM590 145q-53 0 -89.5 28t-45.5 77h50q6 -23 25 -41.5t60 -18.5q44 0 64.5 22.5t20.5 52.5t-19.5 50t-55.5 20h-50v45h55q30 0 47.5 15.5t17.5 44.5q0 34 -21 52t-59 18q-42 0 -62 -20.5t-26 -54.5h-47q2 24 11.5 46
t26 38.5t41 26t56.5 9.5q64 0 97 -32.5t33 -77.5q0 -34 -17 -56.5t-43 -33.5q38 -15 51.5 -39.5t13.5 -50.5q0 -53 -33.5 -86.5t-101.5 -33.5zM500 -70q-88 0 -164.5 32.5t-133.5 89.5t-89.5 133.5t-32.5 164.5t32.5 164.5t89.5 133.5t133.5 89.5t164.5 32.5t164.5 -32.5
t133.5 -89.5t89.5 -133.5t32.5 -164.5t-32.5 -164.5t-89.5 -133.5t-133.5 -89.5t-164.5 -32.5zM500 -25q79 0 147.5 29t119 79.5t79.5 119t29 147.5t-29 147.5t-79.5 119t-119 79.5t-147.5 29t-147.5 -29t-119 -79.5t-79.5 -119t-29 -147.5t29 -147.5t79.5 -119t119 -79.5
t147.5 -29z" />
    <glyph glyph-name="uni246D" unicode="&#x246d;" 
d="M330 440h-85v50h60q25 0 25 25v35h50v-400h-50v290zM640 240h-200v45l180 265h70v-265h55v-45h-55v-90h-50v90zM640 285v205h-5l-140 -205h145zM500 -70q-88 0 -164.5 32.5t-133.5 89.5t-89.5 133.5t-32.5 164.5t32.5 164.5t89.5 133.5t133.5 89.5t164.5 32.5
t164.5 -32.5t133.5 -89.5t89.5 -133.5t32.5 -164.5t-32.5 -164.5t-89.5 -133.5t-133.5 -89.5t-164.5 -32.5zM500 -25q79 0 147.5 29t119 79.5t79.5 119t29 147.5t-29 147.5t-79.5 119t-119 79.5t-147.5 29t-147.5 -29t-119 -79.5t-79.5 -119t-29 -147.5t29 -147.5t79.5 -119
t119 -79.5t147.5 -29z" />
    <glyph glyph-name="uni246E" unicode="&#x246e;" 
d="M330 440h-85v50h60q25 0 25 25v35h50v-400h-50v290zM585 145q-53 0 -90 30.5t-45 79.5h50q7 -26 25.5 -45.5t59.5 -19.5q42 0 66 25t24 70t-24 67.5t-66 22.5q-53 0 -75 -45h-50l25 220h220v-45h-182l-13 -115h5q8 8 26.5 19t48.5 11q28 0 52.5 -9t43 -26.5t29 -42.5
t10.5 -57q0 -64 -38 -102t-102 -38zM500 -70q-88 0 -164.5 32.5t-133.5 89.5t-89.5 133.5t-32.5 164.5t32.5 164.5t89.5 133.5t133.5 89.5t164.5 32.5t164.5 -32.5t133.5 -89.5t89.5 -133.5t32.5 -164.5t-32.5 -164.5t-89.5 -133.5t-133.5 -89.5t-164.5 -32.5zM500 -25
q79 0 147.5 29t119 79.5t79.5 119t29 147.5t-29 147.5t-79.5 119t-119 79.5t-147.5 29t-147.5 -29t-119 -79.5t-79.5 -119t-29 -147.5t29 -147.5t79.5 -119t119 -79.5t147.5 -29z" />
    <glyph glyph-name="uni246F" unicode="&#x246f;" 
d="M325 440h-85v50h60q25 0 25 25v35h50v-400h-50v290zM590 145q-30 0 -55.5 10t-44.5 28t-29.5 44t-10.5 58q0 38 11.5 68.5t28.5 56.5l90 140h55l-100 -155h5q6 6 15 10q8 4 19 7t26 3q26 0 49.5 -10t41.5 -27.5t28.5 -42.5t10.5 -55t-10.5 -55t-29.5 -42.5t-44.5 -27.5
t-55.5 -10zM590 190q42 0 66 24t24 66t-24 66t-66 24t-66 -24t-24 -66t24 -66t66 -24zM500 -70q-88 0 -164.5 32.5t-133.5 89.5t-89.5 133.5t-32.5 164.5t32.5 164.5t89.5 133.5t133.5 89.5t164.5 32.5t164.5 -32.5t133.5 -89.5t89.5 -133.5t32.5 -164.5t-32.5 -164.5
t-89.5 -133.5t-133.5 -89.5t-164.5 -32.5zM500 -25q79 0 147.5 29t119 79.5t79.5 119t29 147.5t-29 147.5t-79.5 119t-119 79.5t-147.5 29t-147.5 -29t-119 -79.5t-79.5 -119t-29 -147.5t29 -147.5t79.5 -119t119 -79.5t147.5 -29z" />
    <glyph glyph-name="uni2470" unicode="&#x2470;" 
d="M355 440h-85v50h60q25 0 25 25v35h50v-400h-50v290zM675 505h-200v45h250v-45l-160 -355h-50zM500 -70q-88 0 -164.5 32.5t-133.5 89.5t-89.5 133.5t-32.5 164.5t32.5 164.5t89.5 133.5t133.5 89.5t164.5 32.5t164.5 -32.5t133.5 -89.5t89.5 -133.5t32.5 -164.5
t-32.5 -164.5t-89.5 -133.5t-133.5 -89.5t-164.5 -32.5zM500 -25q79 0 147.5 29t119 79.5t79.5 119t29 147.5t-29 147.5t-79.5 119t-119 79.5t-147.5 29t-147.5 -29t-119 -79.5t-79.5 -119t-29 -147.5t29 -147.5t79.5 -119t119 -79.5t147.5 -29z" />
    <glyph glyph-name="uni2471" unicode="&#x2471;" 
d="M330 440h-85v50h60q25 0 25 25v35h50v-400h-50v290zM595 145q-60 0 -97.5 31t-37.5 84q0 30 15.5 57.5t49.5 42.5q-26 15 -40.5 35t-14.5 50q0 22 9 42t25.5 35t39.5 24t51 9t51 -9t39.5 -24t25.5 -35t9 -42q0 -30 -14.5 -50t-40.5 -35q34 -15 49.5 -42.5t15.5 -57.5
q0 -53 -37.5 -84t-97.5 -31zM595 190q42 0 63.5 22.5t21.5 52.5t-21.5 52.5t-63.5 22.5t-63.5 -22.5t-21.5 -52.5t21.5 -52.5t63.5 -22.5zM595 380q34 0 54.5 17.5t20.5 47.5t-20.5 47.5t-54.5 17.5t-54.5 -17.5t-20.5 -47.5t20.5 -47.5t54.5 -17.5zM500 -70
q-88 0 -164.5 32.5t-133.5 89.5t-89.5 133.5t-32.5 164.5t32.5 164.5t89.5 133.5t133.5 89.5t164.5 32.5t164.5 -32.5t133.5 -89.5t89.5 -133.5t32.5 -164.5t-32.5 -164.5t-89.5 -133.5t-133.5 -89.5t-164.5 -32.5zM500 -25q79 0 147.5 29t119 79.5t79.5 119t29 147.5
t-29 147.5t-79.5 119t-119 79.5t-147.5 29t-147.5 -29t-119 -79.5t-79.5 -119t-29 -147.5t29 -147.5t79.5 -119t119 -79.5t147.5 -29z" />
    <glyph glyph-name="uni2472" unicode="&#x2472;" 
d="M335 440h-85v50h60q25 0 25 25v35h50v-400h-50v290zM650 305h-5q-6 -6 -15 -10q-8 -4 -19 -7t-26 -3q-26 0 -49.5 10t-41.5 27.5t-28.5 42.5t-10.5 55t10.5 55t29.5 42.5t44.5 27.5t55.5 10t55.5 -10t44.5 -28t29.5 -44t10.5 -58q0 -38 -11.5 -68.5t-28.5 -56.5l-90 -140
h-55zM595 330q42 0 66 24t24 66t-24 66t-66 24t-66 -24t-24 -66t24 -66t66 -24zM500 -70q-88 0 -164.5 32.5t-133.5 89.5t-89.5 133.5t-32.5 164.5t32.5 164.5t89.5 133.5t133.5 89.5t164.5 32.5t164.5 -32.5t133.5 -89.5t89.5 -133.5t32.5 -164.5t-32.5 -164.5
t-89.5 -133.5t-133.5 -89.5t-164.5 -32.5zM500 -25q79 0 147.5 29t119 79.5t79.5 119t29 147.5t-29 147.5t-79.5 119t-119 79.5t-147.5 29t-147.5 -29t-119 -79.5t-79.5 -119t-29 -147.5t29 -147.5t79.5 -119t119 -79.5t147.5 -29z" />
    <glyph glyph-name="uni2473" unicode="&#x2473;" 
d="M215 195l170 160q40 37 40 80q0 38 -20.5 56.5t-54.5 18.5q-42 0 -61.5 -20.5t-23.5 -54.5h-50q4 24 13.5 46t26 38.5t40 26t55.5 9.5q30 0 53.5 -9.5t39 -26t24 -38.5t8.5 -46q0 -30 -12.5 -55.5t-32.5 -44.5l-150 -140h190v-45h-255v45zM650 144q-32 0 -59.5 12.5
t-47.5 37.5t-31.5 63.5t-11.5 91.5q0 52 11.5 91t31.5 64t47.5 37.5t59.5 12.5t59.5 -12.5t47.5 -37.5t31.5 -64t11.5 -91q0 -53 -11.5 -91.5t-31.5 -63.5t-47.5 -37.5t-59.5 -12.5zM650 189q21 0 39 9t31.5 28t21.5 49.5t8 73.5t-8 73.5t-21.5 49.5t-31.5 28t-39 9t-39 -9
t-31.5 -28t-21.5 -49.5t-8 -73.5t8 -73.5t21.5 -49.5t31.5 -28t39 -9zM500 -70q-88 0 -164.5 32.5t-133.5 89.5t-89.5 133.5t-32.5 164.5t32.5 164.5t89.5 133.5t133.5 89.5t164.5 32.5t164.5 -32.5t133.5 -89.5t89.5 -133.5t32.5 -164.5t-32.5 -164.5t-89.5 -133.5
t-133.5 -89.5t-164.5 -32.5zM500 -25q79 0 147.5 29t119 79.5t79.5 119t29 147.5t-29 147.5t-79.5 119t-119 79.5t-147.5 29t-147.5 -29t-119 -79.5t-79.5 -119t-29 -147.5t29 -147.5t79.5 -119t119 -79.5t147.5 -29z" />
    <glyph glyph-name="uni24EA" unicode="&#x24ea;" 
d="M500 145q-32 0 -59.5 12.5t-47.5 37.5t-31.5 63.5t-11.5 91.5q0 52 11.5 91t31.5 64t47.5 37.5t59.5 12.5t59.5 -12.5t47.5 -37.5t31.5 -64t11.5 -91q0 -53 -11.5 -91.5t-31.5 -63.5t-47.5 -37.5t-59.5 -12.5zM500 190q21 0 39 9t31.5 28t21.5 49.5t8 73.5t-8 73.5
t-21.5 49.5t-31.5 28t-39 9t-39 -9t-31.5 -28t-21.5 -49.5t-8 -73.5t8 -73.5t21.5 -49.5t31.5 -28t39 -9zM500 -70q-88 0 -164.5 32.5t-133.5 89.5t-89.5 133.5t-32.5 164.5t32.5 164.5t89.5 133.5t133.5 89.5t164.5 32.5t164.5 -32.5t133.5 -89.5t89.5 -133.5t32.5 -164.5
t-32.5 -164.5t-89.5 -133.5t-133.5 -89.5t-164.5 -32.5zM500 -25q79 0 147.5 29t119 79.5t79.5 119t29 147.5t-29 147.5t-79.5 119t-119 79.5t-147.5 29t-147.5 -29t-119 -79.5t-79.5 -119t-29 -147.5t29 -147.5t79.5 -119t119 -79.5t147.5 -29z" />
    <glyph glyph-name="uni24EB" unicode="&#x24eb;" 
d="M500 -70q-88 0 -164.5 32.5t-133.5 89.5t-89.5 133.5t-32.5 164.5t32.5 164.5t89.5 133.5t133.5 89.5t164.5 32.5t164.5 -32.5t133.5 -89.5t89.5 -133.5t32.5 -164.5t-32.5 -164.5t-89.5 -133.5t-133.5 -89.5t-164.5 -32.5zM425 150v400h-50v-35q0 -25 -25 -25h-60v-50
h85v-290h50zM650 150v400h-50v-35q0 -25 -25 -25h-60v-50h85v-290h50z" />
    <glyph glyph-name="uni24EC" unicode="&#x24ec;" 
d="M500 -70q-88 0 -164.5 32.5t-133.5 89.5t-89.5 133.5t-32.5 164.5t32.5 164.5t89.5 133.5t133.5 89.5t164.5 32.5t164.5 -32.5t133.5 -89.5t89.5 -133.5t32.5 -164.5t-32.5 -164.5t-89.5 -133.5t-133.5 -89.5t-164.5 -32.5zM385 150v400h-50v-35q0 -25 -25 -25h-60v-50
h85v-290h50zM720 150v45h-190l150 140q20 19 32.5 44.5t12.5 55.5q0 24 -8.5 46t-24 38.5t-39 26t-53.5 9.5q-32 0 -55.5 -9.5t-40 -26t-26 -38.5t-13.5 -46h50q4 34 23.5 54.5t61.5 20.5q34 0 54.5 -18.5t20.5 -56.5q0 -43 -40 -80l-170 -160v-45h255z" />
    <glyph glyph-name="uni24ED" unicode="&#x24ed;" 
d="M500 -70q-88 0 -164.5 32.5t-133.5 89.5t-89.5 133.5t-32.5 164.5t32.5 164.5t89.5 133.5t133.5 89.5t164.5 32.5t164.5 -32.5t133.5 -89.5t89.5 -133.5t32.5 -164.5t-32.5 -164.5t-89.5 -133.5t-133.5 -89.5t-164.5 -32.5zM380 150v400h-50v-35q0 -25 -25 -25h-60v-50
h85v-290h50zM590 145q68 0 101.5 33.5t33.5 86.5q0 26 -13.5 50.5t-51.5 39.5q26 11 43 33.5t17 56.5q0 45 -33 77.5t-97 32.5q-32 0 -56.5 -9.5t-41 -26t-26 -38.5t-11.5 -46h47q6 34 26 54.5t62 20.5q38 0 59 -18t21 -52q0 -29 -17.5 -44.5t-47.5 -15.5h-55v-45h50
q36 0 55.5 -20t19.5 -50t-20.5 -52.5t-64.5 -22.5q-41 0 -60 18.5t-25 41.5h-50q9 -49 45.5 -77t89.5 -28z" />
    <glyph glyph-name="uni24EE" unicode="&#x24ee;" 
d="M500 -70q-88 0 -164.5 32.5t-133.5 89.5t-89.5 133.5t-32.5 164.5t32.5 164.5t89.5 133.5t133.5 89.5t164.5 32.5t164.5 -32.5t133.5 -89.5t89.5 -133.5t32.5 -164.5t-32.5 -164.5t-89.5 -133.5t-133.5 -89.5t-164.5 -32.5zM380 150v400h-50v-35q0 -25 -25 -25h-60v-50
h85v-290h50zM690 150v90h55v45h-55v265h-70l-180 -265v-45h200v-90h50zM635 490h5v-205h-145z" />
    <glyph glyph-name="uni24EF" unicode="&#x24ef;" 
d="M500 -70q-88 0 -164.5 32.5t-133.5 89.5t-89.5 133.5t-32.5 164.5t32.5 164.5t89.5 133.5t133.5 89.5t164.5 32.5t164.5 -32.5t133.5 -89.5t89.5 -133.5t32.5 -164.5t-32.5 -164.5t-89.5 -133.5t-133.5 -89.5t-164.5 -32.5zM380 150v400h-50v-35q0 -25 -25 -25h-60v-50
h85v-290h50zM585 145q64 0 102 38t38 102q0 32 -10.5 57t-29 42.5t-43 26.5t-52.5 9q-30 0 -48.5 -11t-26.5 -19h-5l13 115h182v45h-220l-25 -220h50q22 45 75 45q42 0 66 -22.5t24 -67.5t-24 -70t-66 -25q-41 0 -59.5 19.5t-25.5 45.5h-50q8 -49 45 -79.5t90 -30.5z" />
    <glyph glyph-name="uni24F0" unicode="&#x24f0;" 
d="M500 -70q-88 0 -164.5 32.5t-133.5 89.5t-89.5 133.5t-32.5 164.5t32.5 164.5t89.5 133.5t133.5 89.5t164.5 32.5t164.5 -32.5t133.5 -89.5t89.5 -133.5t32.5 -164.5t-32.5 -164.5t-89.5 -133.5t-133.5 -89.5t-164.5 -32.5zM375 150v400h-50v-35q0 -25 -25 -25h-60v-50
h85v-290h50zM590 145q30 0 55.5 10t44.5 27.5t29.5 42.5t10.5 55t-10.5 55t-28.5 42.5t-41.5 27.5t-49.5 10q-15 0 -26 -3t-19 -7q-9 -4 -15 -10h-5l100 155h-55l-90 -140q-17 -26 -28.5 -56.5t-11.5 -68.5q0 -32 10.5 -58t29.5 -44t44.5 -28t55.5 -10zM590 190
q-42 0 -66 24t-24 66t24 66t66 24t66 -24t24 -66t-24 -66t-66 -24z" />
    <glyph glyph-name="uni24F1" unicode="&#x24f1;" 
d="M500 -70q-88 0 -164.5 32.5t-133.5 89.5t-89.5 133.5t-32.5 164.5t32.5 164.5t89.5 133.5t133.5 89.5t164.5 32.5t164.5 -32.5t133.5 -89.5t89.5 -133.5t32.5 -164.5t-32.5 -164.5t-89.5 -133.5t-133.5 -89.5t-164.5 -32.5zM405 150v400h-50v-35q0 -25 -25 -25h-60v-50
h85v-290h50zM565 150l160 355v45h-250v-45h200l-160 -355h50z" />
    <glyph glyph-name="uni24F2" unicode="&#x24f2;" 
d="M500 -70q-88 0 -164.5 32.5t-133.5 89.5t-89.5 133.5t-32.5 164.5t32.5 164.5t89.5 133.5t133.5 89.5t164.5 32.5t164.5 -32.5t133.5 -89.5t89.5 -133.5t32.5 -164.5t-32.5 -164.5t-89.5 -133.5t-133.5 -89.5t-164.5 -32.5zM380 150v400h-50v-35q0 -25 -25 -25h-60v-50
h85v-290h50zM595 145q60 0 97.5 31t37.5 84q0 30 -15.5 57.5t-49.5 42.5q26 15 40.5 35t14.5 50q0 22 -9 42t-25.5 35t-39.5 24t-51 9t-51 -9t-39.5 -24t-25.5 -35t-9 -42q0 -30 14.5 -50t40.5 -35q-34 -15 -49.5 -42.5t-15.5 -57.5q0 -53 37.5 -84t97.5 -31zM595 190
q-42 0 -63.5 22.5t-21.5 52.5t21.5 52.5t63.5 22.5t63.5 -22.5t21.5 -52.5t-21.5 -52.5t-63.5 -22.5zM595 380q-34 0 -54.5 17.5t-20.5 47.5t20.5 47.5t54.5 17.5t54.5 -17.5t20.5 -47.5t-20.5 -47.5t-54.5 -17.5z" />
    <glyph glyph-name="uni24F3" unicode="&#x24f3;" 
d="M500 -70q-88 0 -164.5 32.5t-133.5 89.5t-89.5 133.5t-32.5 164.5t32.5 164.5t89.5 133.5t133.5 89.5t164.5 32.5t164.5 -32.5t133.5 -89.5t89.5 -133.5t32.5 -164.5t-32.5 -164.5t-89.5 -133.5t-133.5 -89.5t-164.5 -32.5zM385 150v400h-50v-35q0 -25 -25 -25h-60v-50
h85v-290h50zM605 150l90 140q17 26 28.5 56.5t11.5 68.5q0 32 -10.5 58t-29.5 44t-44.5 28t-55.5 10t-55.5 -10t-44.5 -27.5t-29.5 -42.5t-10.5 -55t10.5 -55t28.5 -42.5t41.5 -27.5t49.5 -10q15 0 26 3t19 7q9 4 15 10h5l-100 -155h55zM595 330q-42 0 -66 24t-24 66t24 66
t66 24t66 -24t24 -66t-24 -66t-66 -24z" />
    </font>
</defs>
</svg>
