<svg xmlns="http://www.w3.org/2000/svg">
<defs>
<font id="TTInterphases-Medium" horiz-adv-x="1000" >
  <font-face 
    font-family="TT Interphases Light"
    font-weight="500"
    font-stretch="normal"
    units-per-em="1000"
    panose-1="2 0 8 3 2 0 0 2 0 4"
    ascent="760"
    descent="-240"
    x-height="530"
    cap-height="700"
    bbox="-520 -250 1438 990"
    underline-thickness="50"
    underline-position="-200"
    unicode-range="U+000D-FB04"
  />
<missing-glyph horiz-adv-x="900" 
d="M100 284h45v-139h33v139h50v31h-128v126l19 -61h23l34 106l33 -106h23l54 170h-32l-34 -110l-35 110h-19l-35 -110l-31 103v157h700v-150h-110v-170h110v-91q-13 27 -50 27q-29 0 -44.5 -14.5t-15.5 -34.5q0 -22 13.5 -32t30 -15t30.5 -9.5t14 -16.5q0 -14 -9.5 -17.5
t-18.5 -3.5q-15 0 -21.5 7.5t-6.5 17.5h-33q0 -24 16.5 -39.5t44.5 -15.5q20 0 32.5 7.5t17.5 12.5v-163h-700v284zM328 143q38 0 60 25t22 61q0 37 -22.5 62t-59.5 25t-59.5 -25t-22.5 -62q0 -36 22 -61t60 -25zM328 174q-23 0 -37 16t-14 39q0 24 13.5 40t37.5 16
t37.5 -16t13.5 -40q0 -23 -14 -39t-37 -16zM549 315h-32v-106q0 -29 19.5 -47.5t48.5 -18.5t48 18.5t19 47.5v106h-32v-106q0 -15 -9 -25t-26 -10q-18 0 -27 11t-9 24v106zM344 380v62h24l35 -62h37l-40 67q36 16 36 50q0 21 -15.5 37t-41.5 16h-68v-170h33zM344 519h35
q10 0 17 -6t7 -17q0 -13 -8 -18t-16 -5h-35v46zM502 380v170h-33v-170h33zM800 262v-38q-11 10 -24 14.5t-24.5 8.5t-19.5 8t-8 12q0 9 7.5 14.5t18.5 5.5q10 0 18 -6.5t8 -18.5h24zM612 380v139h50v31h-132v-31h50v-139h32zM722 452h78v-41h-78v41zM722 519h78v-36h-78v36z
" />
    <glyph glyph-name="ff" unicode="ff" horiz-adv-x="660" 
d="M105 440h-85v90h85v40q0 64 38 102t102 38h85v-90h-75q-26 0 -40.5 -15.5t-14.5 -39.5v-35h215v40q0 64 38 102t102 38h85v-90h-75q-26 0 -40.5 -15.5t-14.5 -39.5v-35h130v-90h-130v-440h-95v440h-215v-440h-95v440z" />
    <glyph glyph-name="fi" unicode="fi" horiz-adv-x="575" 
d="M105 440h-85v90h85v40q0 64 38 102t102 38h85v-90h-75q-26 0 -40.5 -15.5t-14.5 -39.5v-35h310v-530h-95v440h-215v-440h-95v440zM463 590q-28 0 -45.5 17.5t-17.5 44.5q0 28 17.5 45.5t45.5 17.5q27 0 44.5 -17.5t17.5 -45.5q0 -27 -17.5 -44.5t-44.5 -17.5z" />
    <glyph glyph-name="fl" unicode="fl" horiz-adv-x="580" 
d="M105 440h-85v90h85v40q0 64 38 102t102 38h265v-710h-95v620h-160q-26 0 -40.5 -15.5t-14.5 -39.5v-35h130v-90h-130v-440h-95v440z" />
    <glyph glyph-name="ffi" unicode="ffi" horiz-adv-x="885" 
d="M105 440h-85v90h85v40q0 64 38 102t102 38h85v-90h-75q-26 0 -40.5 -15.5t-14.5 -39.5v-35h215v40q0 64 38 102t102 38h85v-90h-75q-26 0 -40.5 -15.5t-14.5 -39.5v-35h310v-530h-95v440h-215v-440h-95v440h-215v-440h-95v440zM773 590q-28 0 -45.5 17.5t-17.5 44.5
q0 28 17.5 45.5t45.5 17.5q27 0 44.5 -17.5t17.5 -45.5q0 -27 -17.5 -44.5t-44.5 -17.5z" />
    <glyph glyph-name="ffl" unicode="ffl" horiz-adv-x="890" 
d="M105 440h-85v90h85v40q0 64 38 102t102 38h85v-90h-75q-26 0 -40.5 -15.5t-14.5 -39.5v-35h215v40q0 64 38 102t102 38h265v-710h-95v620h-160q-26 0 -40.5 -15.5t-14.5 -39.5v-35h130v-90h-130v-440h-95v440h-215v-440h-95v440z" />
    <glyph glyph-name="f_f_j" unicode="ffj" horiz-adv-x="885" 
d="M590 -115h80q23 0 39 17t16 43v495h-215v-440h-95v440h-215v-440h-95v440h-85v90h85v40q0 64 38 102t102 38h85v-90h-75q-26 0 -40.5 -15.5t-14.5 -39.5v-35h215v40q0 64 38 102t102 38h85v-90h-75q-26 0 -40.5 -15.5t-14.5 -39.5v-35h310v-590q0 -64 -38 -102t-102 -38
h-90v85zM773 590q-28 0 -45.5 17.5t-17.5 44.5q0 28 17.5 45.5t45.5 17.5q27 0 44.5 -17.5t17.5 -45.5q0 -27 -17.5 -44.5t-44.5 -17.5z" />
    <glyph glyph-name="f_j" unicode="fj" horiz-adv-x="575" 
d="M280 -115h80q23 0 39 17t16 43v495h-215v-440h-95v440h-85v90h85v40q0 64 38 102t102 38h85v-90h-75q-26 0 -40.5 -15.5t-14.5 -39.5v-35h310v-590q0 -64 -38 -102t-102 -38h-90v85zM463 590q-28 0 -45.5 17.5t-17.5 44.5q0 28 17.5 45.5t45.5 17.5q27 0 44.5 -17.5
t17.5 -45.5q0 -27 -17.5 -44.5t-44.5 -17.5z" />
    <glyph glyph-name=".notdef" horiz-adv-x="900" 
d="M100 284h45v-139h33v139h50v31h-128v126l19 -61h23l34 106l33 -106h23l54 170h-32l-34 -110l-35 110h-19l-35 -110l-31 103v157h700v-150h-110v-170h110v-91q-13 27 -50 27q-29 0 -44.5 -14.5t-15.5 -34.5q0 -22 13.5 -32t30 -15t30.5 -9.5t14 -16.5q0 -14 -9.5 -17.5
t-18.5 -3.5q-15 0 -21.5 7.5t-6.5 17.5h-33q0 -24 16.5 -39.5t44.5 -15.5q20 0 32.5 7.5t17.5 12.5v-163h-700v284zM328 143q38 0 60 25t22 61q0 37 -22.5 62t-59.5 25t-59.5 -25t-22.5 -62q0 -36 22 -61t60 -25zM328 174q-23 0 -37 16t-14 39q0 24 13.5 40t37.5 16
t37.5 -16t13.5 -40q0 -23 -14 -39t-37 -16zM549 315h-32v-106q0 -29 19.5 -47.5t48.5 -18.5t48 18.5t19 47.5v106h-32v-106q0 -15 -9 -25t-26 -10q-18 0 -27 11t-9 24v106zM344 380v62h24l35 -62h37l-40 67q36 16 36 50q0 21 -15.5 37t-41.5 16h-68v-170h33zM344 519h35
q10 0 17 -6t7 -17q0 -13 -8 -18t-16 -5h-35v46zM502 380v170h-33v-170h33zM800 262v-38q-11 10 -24 14.5t-24.5 8.5t-19.5 8t-8 12q0 9 7.5 14.5t18.5 5.5q10 0 18 -6.5t8 -18.5h24zM612 380v139h50v31h-132v-31h50v-139h32zM722 452h78v-41h-78v41zM722 519h78v-36h-78v36z
" />
    <glyph glyph-name=".null" horiz-adv-x="0" 
 />
    <glyph glyph-name=".null" horiz-adv-x="0" 
 />
    <glyph glyph-name="nonmarkingreturn" unicode="&#xd;" horiz-adv-x="0" 
 />
    <glyph glyph-name="space" unicode=" " horiz-adv-x="220" 
 />
    <glyph glyph-name="exclam" unicode="!" horiz-adv-x="290" 
d="M145 -5q-30 0 -47.5 19.5t-17.5 45.5t17.5 45.5t47.5 19.5t47.5 -19.5t17.5 -45.5t-17.5 -45.5t-47.5 -19.5zM90 645v55h110v-55l-15 -435h-80z" />
    <glyph glyph-name="quotedbl" unicode="&#x22;" horiz-adv-x="380" 
d="M65 700h90v-225h-90v225zM225 700h90v-225h-90v225z" />
    <glyph glyph-name="numbersign" unicode="#" horiz-adv-x="655" 
d="M134 185h-114l20 85h112l35 160h-117l20 85h115l40 185h90l-40 -185h135l40 185h90l-40 -185h115l-20 -85h-113l-35 -160h118l-20 -85h-116l-39 -185h-90l39 185h-135l-39 -185h-90zM377 270l35 160h-135l-35 -160h135z" />
    <glyph glyph-name="dollar" unicode="$" horiz-adv-x="595" 
d="M245 -7q-89 11 -145.5 62.5t-69.5 134.5h105q30 -105 160 -105q79 0 117 30.5t38 79.5q0 31 -17 50t-45.5 31t-64.5 20t-73.5 17.5t-73 23t-64 36t-45.5 56.5t-17 86q0 76 52 128t143 64v103h105v-104q81 -12 129.5 -58t65.5 -118h-105q-15 38 -50 61.5t-95 23.5
q-68 0 -104 -29t-36 -71q0 -44 30 -66.5t75 -36.5t97.5 -25t97.5 -32t75 -58t30 -102q0 -37 -14 -70.5t-40.5 -60t-65.5 -45t-90 -25.5v-104h-105v103z" />
    <glyph glyph-name="percent" unicode="%" horiz-adv-x="755" 
d="M545 700h100l-435 -700h-100zM560 -10q-36 0 -65.5 11.5t-50.5 33.5t-32.5 52t-11.5 68q0 37 11.5 67.5t32.5 52.5t50.5 33.5t65.5 11.5t65.5 -11.5t50.5 -33.5t32.5 -52.5t11.5 -67.5q0 -38 -11.5 -68t-32.5 -52t-50.5 -33.5t-65.5 -11.5zM560 65q38 0 59 24t21 66
t-21 66t-59 24t-59 -24t-21 -66t21 -66t59 -24zM195 380q-36 0 -65.5 11.5t-50.5 33.5t-32.5 52t-11.5 68q0 37 11.5 67.5t32.5 52.5t50.5 33.5t65.5 11.5t65.5 -11.5t50.5 -33.5t32.5 -52.5t11.5 -67.5q0 -38 -11.5 -68t-32.5 -52t-50.5 -33.5t-65.5 -11.5zM195 455
q38 0 59 24t21 66t-21 66t-59 24t-59 -24t-21 -66t21 -66t59 -24z" />
    <glyph glyph-name="ampersand" unicode="&#x26;" horiz-adv-x="630" 
d="M245 -10q-53 0 -93 14t-67 38t-41 57t-14 71q0 59 27.5 97.5t72.5 72.5l40 30l-30 30q-30 30 -50 61.5t-20 78.5q0 34 13.5 65t38.5 54.5t60 37t78 13.5t77.5 -13t58.5 -35.5t36.5 -53.5t12.5 -68q0 -42 -21 -79.5t-74 -70.5l-40 -25l150 -150l85 85h130l-145 -150
l150 -150h-135l-80 80q-19 -15 -41 -31t-48.5 -29t-59 -21.5t-71.5 -8.5zM240 80q49 0 87 20t68 50l-160 155l-35 -25q-65 -46 -65 -105q0 -23 8.5 -40.5t23 -29.5t33.5 -18.5t40 -6.5zM290 455q26 20 40.5 39.5t14.5 45.5q0 34 -22.5 57t-62.5 23q-42 0 -66 -22.5
t-24 -62.5q0 -23 11 -42.5t34 -42.5l30 -30z" />
    <glyph glyph-name="quotesingle" unicode="'" horiz-adv-x="220" 
d="M65 700h90v-225h-90v225z" />
    <glyph glyph-name="parenleft" unicode="(" horiz-adv-x="320" 
d="M195 -200q-60 87 -95 206t-35 259t35 259t95 206h100q-60 -89 -95 -207t-35 -258t35 -258t95 -207h-100v0z" />
    <glyph glyph-name="parenright" unicode=")" horiz-adv-x="320" 
d="M25 -200q60 89 95 207t35 258t-35 258t-95 207h100q60 -87 95 -206t35 -259t-35 -259t-95 -206h-100v0z" />
    <glyph glyph-name="asterisk" unicode="*" horiz-adv-x="470" 
d="M85 375l100 115l-150 35l30 85l135 -55l-10 145h90l-10 -145l135 55l30 -85l-150 -35l100 -115l-75 -50l-75 125l-75 -125z" />
    <glyph glyph-name="plus" unicode="+" horiz-adv-x="555" 
d="M235 265h-195v85h195v195h85v-195h195v-85h-195v-195h-85v195z" />
    <glyph glyph-name="comma" unicode="," horiz-adv-x="220" 
d="M70 100h95l-60 -205h-75z" />
    <glyph glyph-name="hyphen" unicode="-" horiz-adv-x="390" 
d="M40 325h310v-90h-310v90z" />
    <glyph glyph-name="period" unicode="." horiz-adv-x="220" 
d="M110 -5q-30 0 -47.5 19.5t-17.5 45.5t17.5 45.5t47.5 19.5t47.5 -19.5t17.5 -45.5t-17.5 -45.5t-47.5 -19.5z" />
    <glyph glyph-name="slash" unicode="/" horiz-adv-x="390" 
d="M290 730h100l-290 -930h-100z" />
    <glyph glyph-name="zero" unicode="0" horiz-adv-x="670" 
d="M335 -10q-64 0 -117 22.5t-91.5 67.5t-60 112.5t-21.5 157.5t21.5 157.5t60 112.5t91.5 67.5t117 22.5t117 -22.5t91.5 -67.5t60 -112.5t21.5 -157.5t-21.5 -157.5t-60 -112.5t-91.5 -67.5t-117 -22.5zM335 85q37 0 71 15.5t59 48t40 82.5t15 119q0 68 -15 118t-40 82.5
t-59 48.5t-71 16q-38 0 -71.5 -16t-58.5 -48.5t-40 -82.5t-15 -118q0 -69 15 -119t40 -82.5t58.5 -48t71.5 -15.5z" />
    <glyph glyph-name="one" unicode="1" horiz-adv-x="350" 
d="M165 520h-135v90h95q40 0 40 41v49h105v-700h-105v520z" />
    <glyph glyph-name="two" unicode="2" horiz-adv-x="575" 
d="M45 95l310 300q27 26 41 51t14 59q0 53 -30.5 81.5t-94.5 28.5q-57 0 -92 -30.5t-43 -79.5h-105q6 43 23.5 80.5t47.5 65t72.5 43.5t96.5 16q56 0 100 -15t74 -42.5t45.5 -65t15.5 -82.5q0 -28 -7.5 -52t-20 -44.5t-29 -38.5t-33.5 -35l-245 -240h345v-95h-485v95z" />
    <glyph glyph-name="three" unicode="3" horiz-adv-x="580" 
d="M285 -10q-51 0 -95 12.5t-77.5 37.5t-55 63.5t-27.5 91.5h105q8 -49 50.5 -79.5t99.5 -30.5q68 0 104 30.5t36 79.5t-38.5 79.5t-104.5 30.5h-52v90h52q66 0 99.5 30.5t33.5 79.5t-33 79.5t-97 30.5q-53 0 -92.5 -28.5t-47.5 -81.5h-105q7 51 28 89t53 64t73.5 39
t90.5 13q54 0 97.5 -14.5t74 -40.5t47 -63t16.5 -82q0 -57 -28 -96.5t-77 -58.5q53 -19 84 -62t31 -103q0 -43 -16.5 -79.5t-48 -63.5t-77 -42t-103.5 -15z" />
    <glyph glyph-name="four" unicode="4" horiz-adv-x="570" 
d="M355 155h-335v95l295 450h145v-450h90v-95h-90v-155h-105v155zM355 250v335h-5l-220 -335h225z" />
    <glyph glyph-name="five" unicode="5" horiz-adv-x="585" 
d="M290 -10q-43 0 -83 13.5t-73 40t-56.5 64.5t-32.5 87h105q11 -49 49 -79.5t91 -30.5q72 0 111 38.5t39 106.5q0 32 -10 59.5t-29.5 47.5t-47 31.5t-63.5 11.5q-42 0 -74.5 -20t-55.5 -50h-100l35 390h410v-95h-320l-15 -180h5q26 23 58 34t77 11q51 0 94 -18.5t74.5 -51
t49 -76t17.5 -94.5q0 -53 -17.5 -97t-50 -75.5t-80 -49.5t-107.5 -18z" />
    <glyph glyph-name="six" unicode="6" horiz-adv-x="590" 
d="M295 -10q-58 0 -105 18t-80.5 50t-51.5 77.5t-18 99.5q0 98 70 210l160 255h120l-180 -270h5q37 25 93 25q53 0 97 -17.5t75 -48t48 -73t17 -91.5q0 -51 -17.5 -94t-49.5 -74.5t-78.5 -49t-104.5 -17.5zM295 85q68 0 106.5 38t38.5 102t-38.5 102t-106.5 38t-109 -38
t-41 -102t41 -102t109 -38z" />
    <glyph glyph-name="seven" unicode="7" horiz-adv-x="520" 
d="M375 605h-345v95h460v-95l-265 -605h-115z" />
    <glyph glyph-name="eight" unicode="8" horiz-adv-x="600" 
d="M300 -10q-60 0 -106.5 16t-78.5 43.5t-48.5 65.5t-16.5 82q0 27 9.5 52.5t25.5 47t36.5 38t43.5 25.5q-19 9 -37 24t-32 34t-22.5 42.5t-8.5 49.5q0 43 16.5 79.5t47.5 63.5t74 42t97 15t97 -15t74 -42t47.5 -63.5t16.5 -79.5q0 -26 -8.5 -49.5t-22.5 -42.5t-32 -34
t-37 -24q22 -9 43 -25.5t37 -38t25.5 -47t9.5 -52.5q0 -44 -16.5 -82t-48.5 -65.5t-78.5 -43.5t-106.5 -16zM300 85q68 0 106.5 31t38.5 84t-38.5 84t-106.5 31t-106.5 -31t-38.5 -84t38.5 -84t106.5 -31zM300 405q64 0 97 30t33 75t-33 75t-97 30t-97 -30t-33 -75t33 -75
t97 -30z" />
    <glyph glyph-name="nine" unicode="9" horiz-adv-x="590" 
d="M380 270h-5q-37 -25 -93 -25q-53 0 -97 17.5t-75 48t-48 72.5t-17 92q0 51 17.5 94t49.5 74.5t78.5 49t104.5 17.5t105 -18t80.5 -50t51.5 -77.5t18 -99.5q0 -98 -70 -210l-160 -255h-120zM295 335q68 0 109 38t41 102t-41 102t-109 38t-106.5 -38t-38.5 -102t38.5 -102
t106.5 -38z" />
    <glyph glyph-name="colon" unicode=":" horiz-adv-x="220" 
d="M110 -5q-30 0 -47.5 19.5t-17.5 45.5t17.5 45.5t47.5 19.5t47.5 -19.5t17.5 -45.5t-17.5 -45.5t-47.5 -19.5zM110 405q-30 0 -47.5 19.5t-17.5 45.5t17.5 45.5t47.5 19.5t47.5 -19.5t17.5 -45.5t-17.5 -45.5t-47.5 -19.5z" />
    <glyph glyph-name="semicolon" unicode=";" horiz-adv-x="220" 
d="M70 100h95l-60 -205h-75zM110 405q-30 0 -47.5 19.5t-17.5 45.5t17.5 45.5t47.5 19.5t47.5 -19.5t17.5 -45.5t-17.5 -45.5t-47.5 -19.5z" />
    <glyph glyph-name="less" unicode="&#x3c;" horiz-adv-x="530" 
d="M50 265v90l430 210v-95l-335 -160l335 -160v-95z" />
    <glyph glyph-name="equal" unicode="=" horiz-adv-x="555" 
d="M40 240h475v-85h-475v85zM40 450h475v-85h-475v85z" />
    <glyph glyph-name="greater" unicode="&#x3e;" horiz-adv-x="530" 
d="M50 150l335 160l-335 160v95l430 -210v-90l-430 -210v95z" />
    <glyph glyph-name="question" unicode="?" horiz-adv-x="510" 
d="M250 -5q-30 0 -47.5 19.5t-17.5 45.5t17.5 45.5t47.5 19.5t47.5 -19.5t17.5 -45.5t-17.5 -45.5t-47.5 -19.5zM195 255q0 42 12 70.5t29.5 48.5t38.5 35t38.5 30.5t29.5 35.5t12 50q0 42 -28.5 68.5t-81.5 26.5q-49 0 -78 -30t-37 -75h-100q6 47 24 83.5t46 61t65 37.5
t80 13q47 0 86.5 -12.5t68 -36.5t44.5 -58.5t16 -77.5q0 -40 -12 -67.5t-30.5 -48t-40 -36.5t-40 -32.5t-30.5 -36.5t-12 -49v-45h-100v45z" />
    <glyph glyph-name="at" unicode="@" horiz-adv-x="920" 
d="M435 -95q-84 0 -154 28t-120.5 79.5t-78 124.5t-27.5 163q0 87 29 159.5t83 125t129.5 81.5t168.5 29q94 0 170 -29.5t129.5 -81.5t82 -122.5t28.5 -151.5q0 -60 -12.5 -103.5t-35 -71.5t-53 -41.5t-67.5 -13.5q-34 0 -56 10.5t-36 24.5q-16 15 -25 35h-5
q-17 -29 -52 -49.5t-88 -20.5q-42 0 -76 15t-58.5 42.5t-37.5 66t-13 86.5q0 49 13 88t37 66t57 41.5t73 14.5q56 0 85.5 -15.5t44.5 -34.5h5l10 45h65v-275q0 -29 16 -44.5t39 -15.5q19 0 35 7t27 23.5t17 44.5t6 70q0 64 -22 120.5t-63.5 98.5t-102 66.5t-137.5 24.5
q-74 0 -134 -23t-102.5 -65t-65.5 -100t-23 -127q0 -72 21.5 -130.5t60.5 -99.5t93 -63t120 -22h175v-80h-175zM460 155q54 0 82 35.5t28 99.5t-28 99.5t-82 35.5q-57 0 -86 -35.5t-29 -99.5t30 -99.5t85 -35.5z" />
    <glyph glyph-name="A" unicode="A" horiz-adv-x="635" 
d="M255 700h125l260 -700h-110l-58 160h-309l-58 -160h-110zM438 255l-118 325h-5l-118 -325h241z" />
    <glyph glyph-name="B" unicode="B" horiz-adv-x="655" 
d="M80 700h307q100 0 154 -52t54 -143q0 -51 -24 -91t-66 -59q42 -19 71 -60.5t29 -99.5q0 -91 -54 -143t-154 -52h-317v700zM390 95q49 0 79.5 28t30.5 77t-30.5 77t-79.5 28h-205v-210h205zM380 395q49 0 79.5 28t30.5 77t-30.5 77t-79.5 28h-195v-210h195z" />
    <glyph glyph-name="C" unicode="C" horiz-adv-x="690" 
d="M365 -10q-71 0 -130 23t-101 68.5t-65.5 113t-23.5 155.5t23.5 155.5t65.5 113t101 68.5t130 23q112 0 184 -53.5t106 -151.5h-110q-26 57 -70 83.5t-110 26.5q-47 0 -86.5 -17t-68 -50t-44.5 -82.5t-16 -115.5t15.5 -115.5t44 -82.5t68 -50t87.5 -17q66 0 110 26.5
t70 83.5h110q-34 -98 -106 -151.5t-184 -53.5z" />
    <glyph glyph-name="D" unicode="D" horiz-adv-x="685" 
d="M80 700h247q70 0 128 -23t99 -67t63.5 -109.5t22.5 -150.5q0 -86 -22.5 -151t-63.5 -109.5t-99 -67t-128 -22.5h-247v700zM325 95q45 0 83.5 16t66.5 48t44 79.5t16 111.5t-16 111.5t-44 79.5t-66.5 48t-83.5 16h-140v-510h140z" />
    <glyph glyph-name="E" unicode="E" horiz-adv-x="590" 
d="M80 700h450v-95h-345v-205h325v-95h-325v-210h355v-95h-460v700z" />
    <glyph glyph-name="F" unicode="F" horiz-adv-x="570" 
d="M80 700h450v-95h-345v-220h320v-95h-320v-290h-105v700z" />
    <glyph glyph-name="G" unicode="G" horiz-adv-x="715" 
d="M365 -10q-71 0 -130 23t-101 68.5t-65.5 113t-23.5 155.5t23.5 155.5t65.5 113t101 68.5t130 23q112 0 184 -53.5t106 -151.5h-110q-26 57 -70 83.5t-110 26.5q-47 0 -86.5 -17t-68 -50t-44.5 -82.5t-16 -115.5t15.5 -115.5t44 -82.5t68 -50t87.5 -17t85 16t61.5 42
t38 59t15.5 68h-205v95h310v-45q0 -75 -21 -136t-60.5 -104t-96 -66.5t-127.5 -23.5z" />
    <glyph glyph-name="H" unicode="H" horiz-adv-x="710" 
d="M80 700h105v-300h340v300h105v-700h-105v305h-340v-305h-105v700z" />
    <glyph glyph-name="I" unicode="I" horiz-adv-x="265" 
d="M80 700h105v-700h-105v700z" />
    <glyph glyph-name="J" unicode="J" horiz-adv-x="560" 
d="M255 -10q-98 0 -156.5 51.5t-73.5 153.5h105q11 -57 43 -83.5t82 -26.5q57 0 91 38t34 117v460h105v-460q0 -124 -62.5 -187t-167.5 -63z" />
    <glyph glyph-name="K" unicode="K" horiz-adv-x="600" 
d="M80 700h105v-325l290 325h125l-310 -345l325 -355h-125l-305 335v-335h-105v700z" />
    <glyph glyph-name="L" unicode="L" horiz-adv-x="550" 
d="M80 700h105v-605h345v-95h-450v700z" />
    <glyph glyph-name="M" unicode="M" horiz-adv-x="880" 
d="M80 700h160l198 -545h4l198 545h160v-700h-105v565h-5l-205 -565h-90l-205 565h-5v-565h-105v700z" />
    <glyph glyph-name="N" unicode="N" horiz-adv-x="740" 
d="M80 700h145l325 -560h5v560h105v-700h-145l-325 560h-5v-560h-105v700z" />
    <glyph glyph-name="O" unicode="O" horiz-adv-x="730" 
d="M365 -10q-71 0 -130 23.5t-101 69t-65.5 113t-23.5 154.5t23.5 154t65.5 113t101 69.5t130 23.5q72 0 131 -23.5t101 -69.5t65 -113t23 -154t-23 -154.5t-65 -113t-101 -69t-131 -23.5zM365 85q47 0 86.5 17t68 50t44.5 82.5t16 115.5t-16 115.5t-44.5 82.5t-68 50
t-86.5 17t-86.5 -17t-68 -50t-44.5 -82.5t-16 -115.5t16 -115.5t44.5 -82.5t68 -50t86.5 -17z" />
    <glyph glyph-name="P" unicode="P" horiz-adv-x="630" 
d="M80 700h270q52 0 95.5 -17t74.5 -47t48 -71t17 -90t-17 -90t-48 -71t-74.5 -47t-95.5 -17h-165v-250h-105v700zM345 345q64 0 99.5 35t35.5 95t-35.5 95t-99.5 35h-160v-260h160z" />
    <glyph glyph-name="Q" unicode="Q" horiz-adv-x="730" 
d="M458 1q-46 -11 -93 -11q-71 0 -130 23.5t-101 69t-65.5 113t-23.5 154.5t23.5 154t65.5 113t101 69.5t130 23.5q72 0 131 -23.5t101 -69.5t65 -113t23 -154q0 -112 -36.5 -189.5t-101.5 -120.5l93 -140h-115zM365 85h14t11 1q5 0 10 1l-90 138h115l66 -100q42 32 65.5 87
t23.5 138q0 66 -16 115.5t-44.5 82.5t-68 50t-86.5 17t-86.5 -17t-68 -50t-44.5 -82.5t-16 -115.5t16 -115.5t44.5 -82.5t68 -50t86.5 -17z" />
    <glyph glyph-name="R" unicode="R" horiz-adv-x="640" 
d="M80 700h280q51 0 92.5 -15.5t71 -43.5t45.5 -67.5t16 -88.5q0 -54 -17.5 -93t-44 -65t-57 -39.5t-56.5 -17.5l190 -270h-120l-190 270h-105v-270h-105v700zM350 365q60 0 95 31.5t35 88.5t-35 88.5t-95 31.5h-165v-240h165z" />
    <glyph glyph-name="S" unicode="S" horiz-adv-x="595" 
d="M295 -10q-109 0 -179.5 53t-85.5 147h105q30 -105 160 -105q79 0 117 30.5t38 79.5q0 31 -17 50t-45.5 31t-64.5 20t-73.5 17.5t-73 23t-64 36t-45.5 56.5t-17 86q0 43 17 79t49 61.5t77.5 40t101.5 14.5q106 0 168.5 -48.5t81.5 -131.5h-105q-15 38 -50 61.5t-95 23.5
q-68 0 -104 -29t-36 -71q0 -44 30 -66.5t75 -36.5t97.5 -25t97.5 -32t75 -58t30 -102q0 -41 -17.5 -78.5t-51.5 -65.5t-83 -44.5t-113 -16.5z" />
    <glyph glyph-name="T" unicode="T" horiz-adv-x="585" 
d="M240 605h-220v95h545v-95h-220v-605h-105v605z" />
    <glyph glyph-name="U" unicode="U" horiz-adv-x="700" 
d="M350 -10q-128 0 -201.5 79t-73.5 226v405h105v-405q0 -102 47.5 -156t122.5 -54t122.5 54t47.5 156v405h105v-405q0 -147 -73.5 -226t-201.5 -79z" />
    <glyph glyph-name="V" unicode="V" horiz-adv-x="645" 
d="M5 700h115l200 -580h5l200 580h115l-250 -700h-135z" />
    <glyph glyph-name="W" unicode="W" horiz-adv-x="920" 
d="M10 700h110l135 -565h5l135 565h130l135 -565h5l135 565h110l-180 -700h-135l-133 560h-4l-133 -560h-135z" />
    <glyph glyph-name="X" unicode="X" horiz-adv-x="610" 
d="M240 360l-230 340h120l175 -265l175 265h120l-230 -340l240 -360h-120l-185 285l-185 -285h-120z" />
    <glyph glyph-name="Y" unicode="Y" horiz-adv-x="585" 
d="M240 260l-245 440h110l185 -335h5l185 335h110l-245 -440v-260h-105v260z" />
    <glyph glyph-name="Z" unicode="Z" horiz-adv-x="580" 
d="M35 80l375 525h-365v95h495v-80l-375 -525h380v-95h-510v80z" />
    <glyph glyph-name="bracketleft" unicode="[" horiz-adv-x="320" 
d="M80 730h215v-95h-120v-740h120v-95h-215v930z" />
    <glyph glyph-name="backslash" unicode="\" horiz-adv-x="390" 
d="M0 730h100l290 -930h-100z" />
    <glyph glyph-name="bracketright" unicode="]" horiz-adv-x="320" 
d="M25 -105h120v740h-120v95h215v-930h-215v95z" />
    <glyph glyph-name="asciicircum" unicode="^" horiz-adv-x="475" 
d="M190 700h95l150 -320h-90l-105 235h-5l-105 -235h-90z" />
    <glyph glyph-name="underscore" unicode="_" horiz-adv-x="400" 
d="M-20 -115h440v-90h-440v90z" />
    <glyph glyph-name="grave" unicode="`" horiz-adv-x="255" 
d="M30 745h105l90 -145h-80z" />
    <glyph glyph-name="a" unicode="a" horiz-adv-x="530" 
d="M215 -10q-41 0 -74.5 13t-57 35.5t-36 52.5t-12.5 64t13 64t38.5 52.5t63 35.5t85.5 13h140v25q0 49 -31 77t-84 28q-45 0 -71 -19.5t-34 -45.5h-100q7 32 25.5 60t45 49t61 33.5t73.5 12.5q51 0 90 -14.5t65.5 -40t40.5 -61.5t14 -79v-345h-80l-10 65h-5
q-8 -13 -22.5 -26.5t-35 -24t-46.5 -17.5t-56 -7zM230 75q68 0 106.5 36.5t38.5 93.5v30h-140q-54 0 -79.5 -22.5t-25.5 -57.5q0 -37 26 -58.5t74 -21.5z" />
    <glyph glyph-name="b" unicode="b" horiz-adv-x="595" 
d="M330 -10q-57 0 -98 23t-67 57h-5l-15 -70h-75v700h95v-235h5q23 30 61.5 52.5t98.5 22.5q49 0 90 -17.5t71 -52.5t47 -86.5t17 -118.5q0 -68 -17 -119t-47 -86t-71 -52.5t-90 -17.5zM315 80q64 0 104.5 45.5t40.5 139.5t-40.5 139.5t-104.5 45.5q-32 0 -59.5 -11.5
t-47.5 -34.5t-31.5 -57.5t-11.5 -81.5t11.5 -81.5t31.5 -57.5t47.5 -34.5t59.5 -11.5z" />
    <glyph glyph-name="c" unicode="c" horiz-adv-x="550" 
d="M290 -10q-56 0 -102 18.5t-79 53.5t-51 86t-18 117t18 117t51 86t79 53.5t102 18.5q87 0 144.5 -44t80.5 -116h-100q-19 34 -49.5 52t-75.5 18q-68 0 -111.5 -47.5t-43.5 -137.5t43.5 -137.5t111.5 -47.5q45 0 75.5 18t49.5 52h100q-23 -72 -80.5 -116t-144.5 -44z" />
    <glyph glyph-name="d" unicode="d" horiz-adv-x="595" 
d="M265 -10q-49 0 -90 17.5t-71 52.5t-47 86t-17 119q0 67 17 118.5t47.5 86.5t72.5 52.5t93 17.5q57 0 94.5 -22.5t60.5 -52.5h5v235h95v-700h-75l-15 70h-5q-26 -34 -67 -57t-98 -23zM280 80q32 0 59.5 11.5t47.5 34.5t31.5 57.5t11.5 81.5t-11.5 81.5t-31.5 57.5
t-47.5 34.5t-59.5 11.5q-64 0 -104.5 -45.5t-40.5 -139.5t40.5 -139.5t104.5 -45.5z" />
    <glyph glyph-name="e" unicode="e" horiz-adv-x="570" 
d="M290 -10q-56 0 -102 18.5t-79 53.5t-51 86t-18 117t18 117t50 86t77.5 53.5t99.5 18.5q60 0 106 -22t76.5 -58t46.5 -80.5t16 -89.5q0 -11 -1 -21t-2 -18q-1 -9 -2 -16h-386q5 -75 46 -115t105 -40q42 0 72 15.5t53 49.5h105q-26 -68 -84.5 -111.5t-145.5 -43.5zM432 315
q-9 64 -48 99.5t-99 35.5t-99 -35.5t-47 -99.5h293z" />
    <glyph glyph-name="f" unicode="f" horiz-adv-x="350" 
d="M105 440h-85v90h85v40q0 64 38 102t102 38h85v-90h-75q-26 0 -40.5 -15.5t-14.5 -39.5v-35h130v-90h-130v-440h-95v440z" />
    <glyph glyph-name="g" unicode="g" horiz-adv-x="590" 
d="M290 -200q-91 0 -152.5 43t-87.5 122h100q15 -38 51 -56.5t89 -18.5q64 0 102 30.5t38 94.5v85h-5q-23 -30 -63 -50t-97 -20q-49 0 -90 16.5t-71 49t-47 79.5t-17 109t17 110t47 80.5t71 49t90 16.5q56 0 98 -24t67 -56h5l15 70h75v-515q0 -102 -61 -158.5t-174 -56.5z
M280 120q32 0 59.5 11t47.5 32t31.5 51.5t11.5 69.5q0 40 -11.5 71t-31.5 52t-47.5 32t-59.5 11q-64 0 -104.5 -43t-40.5 -123q0 -78 40.5 -121t104.5 -43z" />
    <glyph glyph-name="h" unicode="h" horiz-adv-x="570" 
d="M70 700h95v-235h5q23 38 62 56.5t83 18.5q43 0 79 -15.5t61.5 -43.5t40 -67.5t14.5 -88.5v-325h-95v320q0 64 -33.5 97t-86.5 33q-28 0 -52 -10.5t-41 -28.5t-27 -41.5t-10 -49.5v-320h-95v700z" />
    <glyph glyph-name="i" unicode="i" horiz-adv-x="225" 
d="M65 530h95v-530h-95v530zM113 590q-28 0 -45.5 17.5t-17.5 44.5q0 28 17.5 45.5t45.5 17.5q27 0 44.5 -17.5t17.5 -45.5q0 -27 -17.5 -44.5t-44.5 -17.5z" />
    <glyph glyph-name="j" unicode="j" horiz-adv-x="225" 
d="M-70 -115h80q23 0 39 17t16 43v585h95v-590q0 -64 -38 -102t-102 -38h-90v85zM113 590q-28 0 -45.5 17.5t-17.5 44.5q0 28 17.5 45.5t45.5 17.5q27 0 44.5 -17.5t17.5 -45.5q0 -27 -17.5 -44.5t-44.5 -17.5z" />
    <glyph glyph-name="k" unicode="k" horiz-adv-x="515" 
d="M70 700h95v-415l230 245h120l-245 -260l260 -270h-120l-245 255v-255h-95v700z" />
    <glyph glyph-name="l" unicode="l" horiz-adv-x="235" 
d="M70 700h95v-700h-95v700z" />
    <glyph glyph-name="m" unicode="m" horiz-adv-x="860" 
d="M65 530h75l15 -70h5q26 42 59.5 61t75.5 19q57 0 94.5 -26.5t55.5 -68.5h5q23 42 65 68.5t100 26.5q39 0 73 -14.5t59 -42.5t39 -67.5t14 -90.5v-325h-95v320q0 64 -30.5 97t-79.5 33q-23 0 -43.5 -9t-36.5 -26t-25.5 -41t-9.5 -54v-320h-95v320q0 64 -30.5 97t-79.5 33
q-23 0 -43.5 -9t-36.5 -26t-25.5 -41t-9.5 -54v-320h-95v530z" />
    <glyph glyph-name="n" unicode="n" horiz-adv-x="565" 
d="M65 530h75l15 -70h5q26 42 66 61t84 19q43 0 79 -15.5t61.5 -43.5t40 -67.5t14.5 -88.5v-325h-95v320q0 64 -33.5 97t-86.5 33q-28 0 -52 -10.5t-41 -28.5t-27 -41.5t-10 -49.5v-320h-95v530z" />
    <glyph glyph-name="o" unicode="o" horiz-adv-x="570" 
d="M285 -10q-54 0 -99.5 18.5t-77.5 53.5t-50 86t-18 117t18 117t50 86t77.5 53.5t99.5 18.5t99.5 -18.5t77.5 -53.5t50 -86t18 -117t-18 -117t-50 -86t-77.5 -53.5t-99.5 -18.5zM285 80q32 0 59.5 11.5t47.5 34.5t31.5 57.5t11.5 81.5t-11.5 81.5t-31.5 57.5t-47.5 34.5
t-59.5 11.5t-59.5 -11.5t-47.5 -34.5t-31.5 -57.5t-11.5 -81.5t11.5 -81.5t31.5 -57.5t47.5 -34.5t59.5 -11.5z" />
    <glyph glyph-name="p" unicode="p" horiz-adv-x="590" 
d="M65 530h75l15 -70h5q26 34 67 57t98 23q49 0 90 -17.5t71 -52.5t47 -86.5t17 -118.5q0 -68 -17 -119t-47 -86t-71 -52.5t-90 -17.5q-60 0 -98.5 22.5t-61.5 52.5h-5v-265h-95v730zM310 80q64 0 104.5 45.5t40.5 139.5t-40.5 139.5t-104.5 45.5q-32 0 -59.5 -11.5
t-47.5 -34.5t-31.5 -57.5t-11.5 -81.5t11.5 -81.5t31.5 -57.5t47.5 -34.5t59.5 -11.5z" />
    <glyph glyph-name="q" unicode="q" horiz-adv-x="590" 
d="M430 65h-5q-23 -30 -61.5 -52.5t-98.5 -22.5q-49 0 -90 17.5t-71 52.5t-47 86t-17 119q0 67 17 118.5t47 86.5t71 52.5t90 17.5q57 0 98 -23t67 -57h5l15 70h75v-730h-95v265zM280 80q32 0 59.5 11.5t47.5 34.5t31.5 57.5t11.5 81.5t-11.5 81.5t-31.5 57.5t-47.5 34.5
t-59.5 11.5q-64 0 -104.5 -45.5t-40.5 -139.5t40.5 -139.5t104.5 -45.5z" />
    <glyph glyph-name="r" unicode="r" horiz-adv-x="370" 
d="M65 530h75l15 -70h5q23 38 56.5 54t78.5 16h60v-90h-55q-64 0 -102 -36.5t-38 -93.5v-310h-95v530z" />
    <glyph glyph-name="s" unicode="s" horiz-adv-x="480" 
d="M240 -10q-87 0 -143.5 43.5t-71.5 111.5h105q11 -34 39.5 -49.5t70.5 -15.5q60 0 87.5 19.5t27.5 45.5q0 29 -23 43t-57.5 22.5t-74.5 17t-74.5 25.5t-57.5 47.5t-23 84.5q0 32 13 60t37 49t59.5 33.5t80.5 12.5q83 0 139 -40.5t71 -104.5h-105q-11 23 -35.5 39t-69.5 16
q-49 0 -72 -17.5t-23 -47.5q0 -29 23 -43.5t57.5 -23.5t74.5 -17.5t74.5 -25.5t57.5 -47.5t23 -82.5q0 -32 -14 -60t-40.5 -49t-65.5 -33.5t-90 -12.5z" />
    <glyph glyph-name="t" unicode="t" horiz-adv-x="370" 
d="M245 0q-64 0 -102 39t-38 101v300h-85v90h85l15 140h80v-140h130v-90h-130v-290q0 -26 14.5 -43t40.5 -17h75v-90h-85v0z" />
    <glyph glyph-name="u" unicode="u" horiz-adv-x="570" 
d="M260 -10q-43 0 -79 15.5t-61.5 43.5t-40 67.5t-14.5 88.5v325h95v-320q0 -64 33.5 -97t86.5 -33q28 0 52 10.5t41 28.5t27 41.5t10 49.5v320h95v-530h-75l-15 70h-5q-26 -42 -66 -61t-84 -19z" />
    <glyph glyph-name="v" unicode="v" horiz-adv-x="515" 
d="M0 530h100l155 -420h5l155 420h100l-200 -530h-115z" />
    <glyph glyph-name="w" unicode="w" horiz-adv-x="755" 
d="M5 530h95l115 -405h5l105 405h105l105 -405h5l115 405h95l-150 -530h-115l-105 385h-5l-105 -385h-115z" />
    <glyph glyph-name="x" unicode="x" horiz-adv-x="470" 
d="M175 275l-170 255h105l125 -190l125 190h105l-170 -255l180 -275h-105l-135 210l-135 -210h-105z" />
    <glyph glyph-name="y" unicode="y" horiz-adv-x="525" 
d="M215 0l-215 530h100l160 -405h5l160 405h100l-290 -730h-100z" />
    <glyph glyph-name="z" unicode="z" horiz-adv-x="460" 
d="M30 75l275 365h-265v90h385v-75l-275 -365h280v-90h-400v75z" />
    <glyph glyph-name="braceleft" unicode="{" horiz-adv-x="330" 
d="M240 -200q-60 0 -95 35t-35 95v220q0 30 -20 47.5t-50 17.5v100q30 0 50 17.5t20 47.5v220q0 60 35 95t95 35h65v-95h-55q-40 0 -40 -45v-210q0 -53 -21.5 -77t-63.5 -28v-20q42 -4 63.5 -28t21.5 -77v-210q0 -45 40 -45h55v-95h-65v0z" />
    <glyph glyph-name="bar" unicode="|" horiz-adv-x="335" 
d="M120 730h95v-930h-95v930z" />
    <glyph glyph-name="braceright" unicode="}" horiz-adv-x="330" 
d="M25 -105h55q40 0 40 45v210q0 53 21.5 77t63.5 28v20q-42 4 -63.5 28t-21.5 77v210q0 45 -40 45h-55v95h65q60 0 95 -35t35 -95v-220q0 -30 20 -47.5t50 -17.5v-100q-30 0 -50 -17.5t-20 -47.5v-220q0 -60 -35 -95t-95 -35h-65v95z" />
    <glyph glyph-name="asciitilde" unicode="~" horiz-adv-x="585" 
d="M390 225q-39 0 -65 13.5t-45.5 29t-36.5 29t-38 13.5q-30 0 -47.5 -19t-17.5 -61h-90q0 79 38.5 119.5t106.5 40.5q39 0 65 -13.5t45.5 -29t36.5 -29t38 -13.5q30 0 47.5 19t17.5 61h90q0 -79 -38.5 -119.5t-106.5 -40.5z" />
    <glyph glyph-name="nonbreakingspace" unicode="&#xa0;" horiz-adv-x="220" 
 />
    <glyph glyph-name="exclamdown" unicode="&#xa1;" horiz-adv-x="280" 
d="M85 -145l15 470h80l15 -470v-55h-110v55zM140 410q-30 0 -47.5 19.5t-17.5 45.5t17.5 45.5t47.5 19.5t47.5 -19.5t17.5 -45.5t-17.5 -45.5t-47.5 -19.5z" />
    <glyph glyph-name="cent" unicode="&#xa2;" horiz-adv-x="550" 
d="M240 -6q-92 15 -146 84.5t-54 186.5t54 186.5t146 84.5v104h102v-105q66 -13 109.5 -54t63.5 -101h-100q-19 34 -49.5 52t-75.5 18q-68 0 -111.5 -47.5t-43.5 -137.5t43.5 -137.5t111.5 -47.5q45 0 75.5 18t49.5 52h100q-20 -60 -63.5 -101.5t-109.5 -53.5v-105h-102v104
z" />
    <glyph glyph-name="sterling" unicode="&#xa3;" horiz-adv-x="580" 
d="M35 95h25q55 0 55 70v125h-80v95h80v100q0 51 15.5 92.5t43.5 71t67.5 45.5t88.5 16q87 0 144.5 -49.5t65.5 -140.5h-110q-4 45 -29.5 70t-70.5 25q-49 0 -79.5 -31t-30.5 -99v-100h180v-95h-180v-125q0 -19 -4 -32.5t-9 -21.5q-5 -10 -12 -16h360v-95h-520v95z" />
    <glyph glyph-name="currency" unicode="&#xa4;" horiz-adv-x="590" 
d="M55 135l60 61q-18 26 -28 57.5t-10 66.5t10 66.5t28 57.5l-60 61l55 50l57 -58q27 19 59.5 29.5t68.5 10.5t68 -10.5t59 -29.5l58 58l55 -50l-61 -61q18 -26 28 -57.5t10 -66.5t-10 -66.5t-28 -57.5l61 -61l-55 -50l-58 58q-27 -20 -59 -30.5t-68 -10.5t-68.5 10.5
t-59.5 30.5l-57 -58zM295 180q30 0 55.5 10.5t44.5 29.5t29.5 44.5t10.5 55.5t-10.5 55.5t-29.5 44.5t-44.5 29.5t-55.5 10.5t-55.5 -10.5t-44.5 -29.5t-29.5 -44.5t-10.5 -55.5t10.5 -55.5t29.5 -44.5t44.5 -29.5t55.5 -10.5z" />
    <glyph glyph-name="yen" unicode="&#xa5;" horiz-adv-x="585" 
d="M240 120h-165v95h165v60h-165v95h110l-180 330h110l175 -330h5l175 330h110l-180 -330h110v-95h-165v-60h165v-95h-165v-120h-105v120z" />
    <glyph glyph-name="brokenbar" unicode="&#xa6;" horiz-adv-x="335" 
d="M120 172h95v-372h-95v372zM120 730h95v-373h-95v373z" />
    <glyph glyph-name="section" unicode="&#xa7;" horiz-adv-x="610" 
d="M315 -120q-98 0 -164.5 46.5t-85.5 133.5h105q11 -42 49.5 -66t95.5 -24q64 0 92 23.5t28 61.5q0 34 -28 50t-70.5 24t-91.5 15t-91.5 23t-70.5 48t-28 90q0 45 22 75.5t48 49.5q-23 19 -36.5 44t-13.5 61t14 67.5t42 55.5t70.5 38t98.5 14q98 0 162 -45.5t83 -124.5
h-105q-11 34 -47 57t-93 23q-64 0 -92 -23.5t-28 -61.5q0 -34 28 -50t70.5 -24t91.5 -15t91.5 -23t70.5 -48t28 -90q0 -45 -22 -75.5t-48 -49.5q23 -19 36.5 -44t13.5 -61t-14 -67.5t-42 -55.5t-70.5 -38t-98.5 -14zM410 200q23 15 34 36t11 44q0 37 -24.5 53.5t-61.5 24
t-81 12.5t-83 20q-23 -15 -34 -36t-11 -44q0 -38 24.5 -54t61.5 -23.5t81 -12.5t83 -20z" />
    <glyph glyph-name="dieresis" unicode="&#xa8;" horiz-adv-x="365" 
d="M90 615q-26 0 -43 17t-17 43t17 43t43 17t43 -17t17 -43t-17 -43t-43 -17zM275 615q-26 0 -43 17t-17 43t17 43t43 17t43 -17t17 -43t-17 -43t-43 -17z" />
    <glyph glyph-name="copyright" unicode="&#xa9;" horiz-adv-x="830" 
d="M415 -10q-79 0 -145 26.5t-114 74.5t-74.5 114t-26.5 145t26.5 145t74.5 114t114 74.5t145 26.5t145 -26.5t114 -74.5t74.5 -114t26.5 -145t-26.5 -145t-74.5 -114t-114 -74.5t-145 -26.5zM415 65q60 0 111 20.5t88.5 58t59 90t21.5 116.5t-21.5 116.5t-59 90t-88.5 58
t-111 20.5t-111.5 -20.5t-89 -58t-58.5 -90t-21 -116.5t21 -116.5t58.5 -90t89 -58t111.5 -20.5zM420 160q-83 0 -131.5 49.5t-48.5 140.5t48.5 140.5t131.5 49.5q34 0 60.5 -9.5t46 -26t32.5 -38.5t21 -46h-80q-8 23 -27 36.5t-53 13.5q-53 0 -79 -31.5t-26 -88.5t26 -88.5
t79 -31.5q34 0 53 13.5t27 36.5h80q-8 -24 -21 -46t-32.5 -38.5t-46 -26t-60.5 -9.5z" />
    <glyph glyph-name="ordfeminine" unicode="&#xaa;" horiz-adv-x="370" 
d="M151 350q-34 0 -58 10.5t-39 26.5t-22 35.5t-7 37.5q0 49 30.5 79.5t94.5 30.5h100v10q0 26 -15.5 43t-49.5 17q-26 0 -39 -10t-21 -25h-85q8 45 46 75t97 30q69 0 108 -35t39 -95v-225h-70l-5 45h-5q-11 -19 -33.5 -34.5t-65.5 -15.5zM165 420q38 0 61.5 22.5t23.5 52.5
v10h-100q-45 0 -45 -40q0 -45 60 -45z" />
    <glyph glyph-name="guillemotleft" unicode="&#xab;" horiz-adv-x="630" 
d="M35 267l215 238h120l-215 -235v-6l215 -234h-120zM270 267l215 238h120l-215 -235v-6l215 -234h-120z" />
    <glyph glyph-name="logicalnot" unicode="&#xac;" horiz-adv-x="520" 
d="M390 287h-350v83h435v-210h-85v127z" />
    <glyph glyph-name="uni00AD" unicode="&#xad;" horiz-adv-x="390" 
d="M40 325h310v-90h-310v90z" />
    <glyph glyph-name="registered" unicode="&#xae;" horiz-adv-x="830" 
d="M415 -10q-79 0 -145 26.5t-114 74.5t-74.5 114t-26.5 145t26.5 145t74.5 114t114 74.5t145 26.5t145 -26.5t114 -74.5t74.5 -114t26.5 -145t-26.5 -145t-74.5 -114t-114 -74.5t-145 -26.5zM415 65q60 0 111 20.5t88.5 58t59 90t21.5 116.5t-21.5 116.5t-59 90t-88.5 58
t-111 20.5t-111.5 -20.5t-89 -58t-58.5 -90t-21 -116.5t21 -116.5t58.5 -90t89 -58t111.5 -20.5zM290 540h155q64 0 98 -34t34 -89q0 -46 -25 -76t-70 -41l98 -135h-85l-48 66t-47 66h-35v-132h-75v375zM440 360q29 0 47 14t18 43q0 30 -17.5 44t-47.5 14h-75v-115h75z" />
    <glyph glyph-name="macron" unicode="&#xaf;" horiz-adv-x="345" 
d="M30 710h285v-75h-285v75z" />
    <glyph glyph-name="degree" unicode="&#xb0;" horiz-adv-x="380" 
d="M190 425q-34 0 -61 11.5t-45.5 31t-28.5 46t-10 56.5t10 56.5t28.5 46t45.5 31t61 11.5t60.5 -11.5t45.5 -31t29 -46t10 -56.5t-10 -56.5t-29 -46t-45.5 -31t-60.5 -11.5zM190 495q34 0 52 20.5t18 54.5t-18 54.5t-52 20.5t-52 -20.5t-18 -54.5t18 -54.5t52 -20.5z" />
    <glyph glyph-name="plusminus" unicode="&#xb1;" horiz-adv-x="555" 
d="M40 85h475v-85h-475v85zM235 305h-195v85h195v180h85v-180h195v-85h-195v-180h-85v180z" />
    <glyph glyph-name="uni00B2" unicode="&#xb2;" horiz-adv-x="335" 
d="M35 470l150 145q20 19 30 35t10 35t-14.5 32t-40.5 13q-34 0 -47 -15.5t-13 -34.5h-80q2 26 11.5 49t26.5 40t42.5 26.5t59.5 9.5q32 0 57 -9.5t42.5 -26t26.5 -38.5t9 -46q0 -32 -12 -56.5t-38 -48.5l-115 -110h160v-70h-265v70z" />
    <glyph glyph-name="uni00B3" unicode="&#xb3;" horiz-adv-x="340" 
d="M163 395q-59 0 -97 30.5t-46 79.5h80q14 -35 65 -35q30 0 42.5 16t12.5 39q0 45 -55 45h-40v70h40q30 0 40 13t10 32t-12.5 32t-42.5 13t-43 -15.5t-17 -34.5h-80q2 26 11.5 49t26.5 40t42.5 26.5t59.5 9.5q32 0 58 -9t44 -24t28 -35t10 -42q0 -34 -18 -56t-38 -31
q31 -14 46 -38t15 -50q0 -24 -9.5 -47t-27.5 -40t-44.5 -27.5t-60.5 -10.5z" />
    <glyph glyph-name="acute" unicode="&#xb4;" horiz-adv-x="255" 
d="M120 745h105l-115 -145h-80z" />
    <glyph glyph-name="uni00B5" unicode="&#xb5;" horiz-adv-x="570" 
d="M65 530h95v-320q0 -64 33.5 -97t86.5 -33q28 0 52 10.5t41 28.5t27 41.5t10 49.5v320h95v-530h-75l-15 70h-5q-23 -42 -63 -61t-82 -19q-29 0 -48.5 6t-32.5 14q-15 9 -24 20v-210h-95v710z" />
    <glyph glyph-name="paragraph" unicode="&#xb6;" horiz-adv-x="550" 
d="M205 330q-39 0 -70 14t-52 39t-32 59t-11 73t11 73t32 59t52 39t70 14h265v-810h-95v720h-75v-720h-95v440z" />
    <glyph glyph-name="periodcentered" unicode="&#xb7;" horiz-adv-x="220" 
d="M110 205q-30 0 -47.5 19.5t-17.5 45.5t17.5 45.5t47.5 19.5t47.5 -19.5t17.5 -45.5t-17.5 -45.5t-47.5 -19.5z" />
    <glyph glyph-name="cedilla" unicode="&#xb8;" horiz-adv-x="220" 
d="M30 -150h50q35 0 35 30t-35 30h-40v45l20 45h70l-15 -35q34 -4 54.5 -27.5t20.5 -57.5q0 -42 -27.5 -68.5t-72.5 -26.5h-60v65z" />
    <glyph glyph-name="uni00B9" unicode="&#xb9;" horiz-adv-x="260" 
d="M120 670h-90v75h65q25 0 25 25v30h80v-400h-80v270z" />
    <glyph glyph-name="ordmasculine" unicode="&#xba;" horiz-adv-x="390" 
d="M195 350q-72 0 -116 46.5t-44 133.5t44 133.5t116 46.5t116 -46.5t44 -133.5t-44 -133.5t-116 -46.5zM195 425q38 0 59 28t21 77t-21 77t-59 28t-59 -28t-21 -77t21 -77t59 -28z" />
    <glyph glyph-name="guillemotright" unicode="&#xbb;" horiz-adv-x="630" 
d="M240 264v6l-215 235h120l215 -238l-215 -237h-120zM475 264v6l-215 235h120l215 -238l-215 -237h-120z" />
    <glyph glyph-name="onequarter" unicode="&#xbc;" horiz-adv-x="760" 
d="M525 700h85l-435 -700h-85zM125 570h-90v75h65q25 0 25 25v30h80v-400h-80v270zM585 85h-180v70l160 245h100v-245h60v-70h-60v-85h-80v85zM585 155v145h-5l-95 -145h100z" />
    <glyph glyph-name="onehalf" unicode="&#xbd;" horiz-adv-x="770" 
d="M525 700h85l-435 -700h-85zM125 570h-90v75h65q25 0 25 25v30h80v-400h-80v270zM455 70l150 145q20 19 30 35t10 35t-14.5 32t-40.5 13q-34 0 -47 -15.5t-13 -34.5h-80q2 26 11.5 49t26.5 40t42.5 26.5t59.5 9.5q32 0 57 -9.5t42.5 -26t26.5 -38.5t9 -46q0 -32 -12 -56.5
t-38 -48.5l-115 -110h160v-70h-265v70z" />
    <glyph glyph-name="threequarters" unicode="&#xbe;" horiz-adv-x="840" 
d="M600 700h85l-435 -700h-85zM178 295q-59 0 -97 30.5t-46 79.5h80q14 -35 65 -35q30 0 42.5 16t12.5 39q0 45 -55 45h-40v70h40q30 0 40 13t10 32t-12.5 32t-42.5 13t-43 -15.5t-17 -34.5h-80q2 26 11.5 49t26.5 40t42.5 26.5t59.5 9.5q32 0 58 -9t44 -24t28 -35t10 -42
q0 -34 -18 -56t-38 -31q31 -14 46 -38t15 -50q0 -24 -9.5 -47t-27.5 -40t-44.5 -27.5t-60.5 -10.5zM665 85h-180v70l160 245h100v-245h60v-70h-60v-85h-80v85zM665 155v145h-5l-95 -145h100z" />
    <glyph glyph-name="questiondown" unicode="&#xbf;" horiz-adv-x="510" 
d="M265 -210q-47 0 -86.5 12.5t-68 36.5t-44.5 58.5t-16 77.5q0 46 12 76t30.5 51.5t40 37t40 33t30.5 40t12 57.5v55h100v-55q0 -48 -12 -78.5t-29.5 -51.5t-38.5 -36.5t-38.5 -32t-29.5 -39t-12 -57.5q0 -42 28.5 -68.5t81.5 -26.5q49 0 78 30t37 75h100q-6 -47 -24 -83.5
t-46 -61t-65 -37.5t-80 -13zM260 410q-30 0 -47.5 19.5t-17.5 45.5t17.5 45.5t47.5 19.5t47.5 -19.5t17.5 -45.5t-17.5 -45.5t-47.5 -19.5z" />
    <glyph glyph-name="Agrave" unicode="&#xc0;" horiz-adv-x="635" 
d="M255 700h125l260 -700h-110l-58 160h-309l-58 -160h-110zM438 255l-118 325h-5l-118 -325h241zM160 910h105l90 -145h-80z" />
    <glyph glyph-name="Aacute" unicode="&#xc1;" horiz-adv-x="635" 
d="M255 700h125l260 -700h-110l-58 160h-309l-58 -160h-110zM438 255l-118 325h-5l-118 -325h241zM370 910h105l-115 -145h-80z" />
    <glyph glyph-name="Acircumflex" unicode="&#xc2;" horiz-adv-x="635" 
d="M255 700h125l260 -700h-110l-58 160h-309l-58 -160h-110zM438 255l-118 325h-5l-118 -325h241zM280 915h75l130 -150h-90l-75 90h-5l-75 -90h-90z" />
    <glyph glyph-name="Atilde" unicode="&#xc3;" horiz-adv-x="635" 
d="M255 700h125l260 -700h-110l-58 160h-309l-58 -160h-110zM438 255l-118 325h-5l-118 -325h241zM390 780q-21 0 -38 8t-31.5 17t-27 17t-23.5 8q-15 0 -22.5 -13t-7.5 -32h-80q0 53 22.5 84t67.5 31q21 0 38 -8t31.5 -17t27 -17t23.5 -8q15 0 22.5 13t7.5 32h80
q0 -53 -22.5 -84t-67.5 -31z" />
    <glyph glyph-name="Adieresis" unicode="&#xc4;" horiz-adv-x="635" 
d="M255 700h125l260 -700h-110l-58 160h-309l-58 -160h-110zM438 255l-118 325h-5l-118 -325h241zM225 780q-26 0 -43 17t-17 43t17 43t43 17t43 -17t17 -43t-17 -43t-43 -17zM410 780q-26 0 -43 17t-17 43t17 43t43 17t43 -17t17 -43t-17 -43t-43 -17z" />
    <glyph glyph-name="Aring" unicode="&#xc5;" horiz-adv-x="635" 
d="M255 700h125l260 -700h-110l-58 160h-309l-58 -160h-110zM438 255l-118 325h-5l-118 -325h241zM320 745q-45 0 -72.5 27.5t-27.5 72.5t27.5 72.5t72.5 27.5t72.5 -27.5t27.5 -72.5t-27.5 -72.5t-72.5 -27.5zM320 805q40 0 40 40t-40 40t-40 -40t40 -40z" />
    <glyph glyph-name="AE" unicode="&#xc6;" horiz-adv-x="940" 
d="M317 700h563v-95h-345v-205h325v-95h-325v-210h355v-95h-460v155h-265l-75 -155h-115zM430 250v345h-55l-165 -345h220z" />
    <glyph glyph-name="Ccedilla" unicode="&#xc7;" horiz-adv-x="690" 
d="M295 -150h50q35 0 35 30t-35 30h-40v45l16 37q-62 7 -113 33t-87 71t-56 109t-20 145q0 88 23.5 155.5t65.5 113t101 68.5t130 23q112 0 184 -53.5t106 -151.5h-110q-26 57 -70 83.5t-110 26.5q-47 0 -86.5 -17t-68 -50t-44.5 -82.5t-16 -115.5t15.5 -115.5t44 -82.5
t68 -50t87.5 -17q66 0 110 26.5t70 83.5h110q-32 -93 -98 -145t-166 -59l-11 -26q34 -4 54.5 -27.5t20.5 -57.5q0 -42 -27.5 -68.5t-72.5 -26.5h-60v65z" />
    <glyph glyph-name="Egrave" unicode="&#xc8;" horiz-adv-x="590" 
d="M80 700h450v-95h-345v-205h325v-95h-325v-210h355v-95h-460v700zM160 910h105l90 -145h-80z" />
    <glyph glyph-name="Eacute" unicode="&#xc9;" horiz-adv-x="590" 
d="M80 700h450v-95h-345v-205h325v-95h-325v-210h355v-95h-460v700zM360 910h105l-115 -145h-80z" />
    <glyph glyph-name="Ecircumflex" unicode="&#xca;" horiz-adv-x="590" 
d="M80 700h450v-95h-345v-205h325v-95h-325v-210h355v-95h-460v700zM275 915h75l130 -150h-90l-75 90h-5l-75 -90h-90z" />
    <glyph glyph-name="Edieresis" unicode="&#xcb;" horiz-adv-x="590" 
d="M80 700h450v-95h-345v-205h325v-95h-325v-210h355v-95h-460v700zM220 780q-26 0 -43 17t-17 43t17 43t43 17t43 -17t17 -43t-17 -43t-43 -17zM405 780q-26 0 -43 17t-17 43t17 43t43 17t43 -17t17 -43t-17 -43t-43 -17z" />
    <glyph glyph-name="Igrave" unicode="&#xcc;" horiz-adv-x="265" 
d="M80 700h105v-700h-105v700zM-20 910h105l90 -145h-80z" />
    <glyph glyph-name="Iacute" unicode="&#xcd;" horiz-adv-x="265" 
d="M80 700h105v-700h-105v700zM185 910h105l-115 -145h-80z" />
    <glyph glyph-name="Icircumflex" unicode="&#xce;" horiz-adv-x="265" 
d="M80 700h105v-700h-105v700zM95 915h75l130 -150h-90l-75 90h-5l-75 -90h-90z" />
    <glyph glyph-name="Idieresis" unicode="&#xcf;" horiz-adv-x="265" 
d="M80 700h105v-700h-105v700zM40 780q-26 0 -43 17t-17 43t17 43t43 17t43 -17t17 -43t-17 -43t-43 -17zM225 780q-26 0 -43 17t-17 43t17 43t43 17t43 -17t17 -43t-17 -43t-43 -17z" />
    <glyph glyph-name="Eth" unicode="&#xd0;" horiz-adv-x="695" 
d="M90 305h-75v95h75v300h247q70 0 128 -23t99 -67t63.5 -109.5t22.5 -150.5q0 -86 -22.5 -151t-63.5 -109.5t-99 -67t-128 -22.5h-247v305zM335 95q45 0 83.5 16t66.5 48t44 79.5t16 111.5t-16 111.5t-44 79.5t-66.5 48t-83.5 16h-140v-205h170v-95h-170v-210h140z" />
    <glyph glyph-name="Ntilde" unicode="&#xd1;" horiz-adv-x="740" 
d="M80 700h145l325 -560h5v560h105v-700h-145l-325 560h-5v-560h-105v700zM440 780q-21 0 -38 8t-31.5 17t-27 17t-23.5 8q-15 0 -22.5 -13t-7.5 -32h-80q0 53 22.5 84t67.5 31q21 0 38 -8t31.5 -17t27 -17t23.5 -8q15 0 22.5 13t7.5 32h80q0 -53 -22.5 -84t-67.5 -31z" />
    <glyph glyph-name="Ograve" unicode="&#xd2;" horiz-adv-x="730" 
d="M365 -10q-71 0 -130 23.5t-101 69t-65.5 113t-23.5 154.5t23.5 154t65.5 113t101 69.5t130 23.5q72 0 131 -23.5t101 -69.5t65 -113t23 -154t-23 -154.5t-65 -113t-101 -69t-131 -23.5zM365 85q47 0 86.5 17t68 50t44.5 82.5t16 115.5t-16 115.5t-44.5 82.5t-68 50
t-86.5 17t-86.5 -17t-68 -50t-44.5 -82.5t-16 -115.5t16 -115.5t44.5 -82.5t68 -50t86.5 -17zM210 910h105l90 -145h-80z" />
    <glyph glyph-name="Oacute" unicode="&#xd3;" horiz-adv-x="730" 
d="M365 -10q-71 0 -130 23.5t-101 69t-65.5 113t-23.5 154.5t23.5 154t65.5 113t101 69.5t130 23.5q72 0 131 -23.5t101 -69.5t65 -113t23 -154t-23 -154.5t-65 -113t-101 -69t-131 -23.5zM365 85q47 0 86.5 17t68 50t44.5 82.5t16 115.5t-16 115.5t-44.5 82.5t-68 50
t-86.5 17t-86.5 -17t-68 -50t-44.5 -82.5t-16 -115.5t16 -115.5t44.5 -82.5t68 -50t86.5 -17zM415 910h105l-115 -145h-80z" />
    <glyph glyph-name="Ocircumflex" unicode="&#xd4;" horiz-adv-x="730" 
d="M365 -10q-71 0 -130 23.5t-101 69t-65.5 113t-23.5 154.5t23.5 154t65.5 113t101 69.5t130 23.5q72 0 131 -23.5t101 -69.5t65 -113t23 -154t-23 -154.5t-65 -113t-101 -69t-131 -23.5zM365 85q47 0 86.5 17t68 50t44.5 82.5t16 115.5t-16 115.5t-44.5 82.5t-68 50
t-86.5 17t-86.5 -17t-68 -50t-44.5 -82.5t-16 -115.5t16 -115.5t44.5 -82.5t68 -50t86.5 -17zM330 915h75l130 -150h-90l-75 90h-5l-75 -90h-90z" />
    <glyph glyph-name="Otilde" unicode="&#xd5;" horiz-adv-x="730" 
d="M365 -10q-71 0 -130 23.5t-101 69t-65.5 113t-23.5 154.5t23.5 154t65.5 113t101 69.5t130 23.5q72 0 131 -23.5t101 -69.5t65 -113t23 -154t-23 -154.5t-65 -113t-101 -69t-131 -23.5zM365 85q47 0 86.5 17t68 50t44.5 82.5t16 115.5t-16 115.5t-44.5 82.5t-68 50
t-86.5 17t-86.5 -17t-68 -50t-44.5 -82.5t-16 -115.5t16 -115.5t44.5 -82.5t68 -50t86.5 -17zM435 780q-21 0 -38 8t-31.5 17t-27 17t-23.5 8q-15 0 -22.5 -13t-7.5 -32h-80q0 53 22.5 84t67.5 31q21 0 38 -8t31.5 -17t27 -17t23.5 -8q15 0 22.5 13t7.5 32h80
q0 -53 -22.5 -84t-67.5 -31z" />
    <glyph glyph-name="Odieresis" unicode="&#xd6;" horiz-adv-x="730" 
d="M365 -10q-71 0 -130 23.5t-101 69t-65.5 113t-23.5 154.5t23.5 154t65.5 113t101 69.5t130 23.5q72 0 131 -23.5t101 -69.5t65 -113t23 -154t-23 -154.5t-65 -113t-101 -69t-131 -23.5zM365 85q47 0 86.5 17t68 50t44.5 82.5t16 115.5t-16 115.5t-44.5 82.5t-68 50
t-86.5 17t-86.5 -17t-68 -50t-44.5 -82.5t-16 -115.5t16 -115.5t44.5 -82.5t68 -50t86.5 -17zM275 780q-26 0 -43 17t-17 43t17 43t43 17t43 -17t17 -43t-17 -43t-43 -17zM460 780q-26 0 -43 17t-17 43t17 43t43 17t43 -17t17 -43t-17 -43t-43 -17z" />
    <glyph glyph-name="multiply" unicode="&#xd7;" horiz-adv-x="540" 
d="M45 155l170 170l-170 170l55 55l170 -170l170 170l55 -55l-170 -170l170 -170l-55 -55l-170 170l-170 -170z" />
    <glyph glyph-name="Oslash" unicode="&#xd8;" horiz-adv-x="730" 
d="M152 64q-51 46 -79 117.5t-28 168.5q0 87 23.5 154t65.5 113t101 69.5t130 23.5q77 0 142 -28l25 43h98l-52 -89q51 -46 79 -117.5t28 -168.5q0 -87 -23 -154.5t-65 -113t-101 -69t-131 -23.5q-77 0 -142 28l-25 -43h-98zM458 595q-42 20 -93 20q-47 0 -86.5 -17t-68 -50
t-44.5 -82.5t-16 -115.5q0 -63 15 -112t41 -81zM365 85q47 0 86.5 17t68 50t44.5 82.5t16 115.5q0 63 -15 112t-41 81l-252 -438q42 -20 93 -20z" />
    <glyph glyph-name="Ugrave" unicode="&#xd9;" horiz-adv-x="700" 
d="M350 -10q-128 0 -201.5 79t-73.5 226v405h105v-405q0 -102 47.5 -156t122.5 -54t122.5 54t47.5 156v405h105v-405q0 -147 -73.5 -226t-201.5 -79zM195 910h105l90 -145h-80z" />
    <glyph glyph-name="Uacute" unicode="&#xda;" horiz-adv-x="700" 
d="M350 -10q-128 0 -201.5 79t-73.5 226v405h105v-405q0 -102 47.5 -156t122.5 -54t122.5 54t47.5 156v405h105v-405q0 -147 -73.5 -226t-201.5 -79zM400 910h105l-115 -145h-80z" />
    <glyph glyph-name="Ucircumflex" unicode="&#xdb;" horiz-adv-x="700" 
d="M350 -10q-128 0 -201.5 79t-73.5 226v405h105v-405q0 -102 47.5 -156t122.5 -54t122.5 54t47.5 156v405h105v-405q0 -147 -73.5 -226t-201.5 -79zM315 915h75l130 -150h-90l-75 90h-5l-75 -90h-90z" />
    <glyph glyph-name="Udieresis" unicode="&#xdc;" horiz-adv-x="700" 
d="M350 -10q-128 0 -201.5 79t-73.5 226v405h105v-405q0 -102 47.5 -156t122.5 -54t122.5 54t47.5 156v405h105v-405q0 -147 -73.5 -226t-201.5 -79zM260 780q-26 0 -43 17t-17 43t17 43t43 17t43 -17t17 -43t-17 -43t-43 -17zM445 780q-26 0 -43 17t-17 43t17 43t43 17
t43 -17t17 -43t-17 -43t-43 -17z" />
    <glyph glyph-name="Yacute" unicode="&#xdd;" horiz-adv-x="585" 
d="M240 260l-245 440h110l185 -335h5l185 335h110l-245 -440v-260h-105v260zM340 910h105l-115 -145h-80z" />
    <glyph glyph-name="Thorn" unicode="&#xde;" horiz-adv-x="695" 
d="M80 700h105v-155h260q51 0 90 -14.5t65.5 -40t40.5 -61.5t14 -79t-14 -79t-40.5 -61.5t-65.5 -40t-90 -14.5h-260v-155h-105v700zM435 250q115 0 115 100t-115 100h-250v-200h250z" />
    <glyph glyph-name="germandbls" unicode="&#xdf;" horiz-adv-x="560" 
d="M65 505q0 45 14.5 82.5t43 65t69 42.5t93.5 15q54 0 94.5 -17t67.5 -44t40 -61t13 -68q0 -57 -27.5 -99t-72.5 -61q57 -15 91 -60.5t34 -109.5q0 -91 -58 -140.5t-169 -49.5h-53v90h55q64 0 97 28.5t33 81.5t-33 81.5t-97 28.5h-55v85h35q57 0 91 31t34 84
q0 49 -31.5 79.5t-88.5 30.5t-91 -33t-34 -82v-505h-95v505z" />
    <glyph glyph-name="agrave" unicode="&#xe0;" horiz-adv-x="530" 
d="M215 -10q-41 0 -74.5 13t-57 35.5t-36 52.5t-12.5 64t13 64t38.5 52.5t63 35.5t85.5 13h140v25q0 49 -31 77t-84 28q-45 0 -71 -19.5t-34 -45.5h-100q7 32 25.5 60t45 49t61 33.5t73.5 12.5q51 0 90 -14.5t65.5 -40t40.5 -61.5t14 -79v-345h-80l-10 65h-5
q-8 -13 -22.5 -26.5t-35 -24t-46.5 -17.5t-56 -7zM230 75q68 0 106.5 36.5t38.5 93.5v30h-140q-54 0 -79.5 -22.5t-25.5 -57.5q0 -37 26 -58.5t74 -21.5zM110 745h105l90 -145h-80z" />
    <glyph glyph-name="aacute" unicode="&#xe1;" horiz-adv-x="530" 
d="M215 -10q-41 0 -74.5 13t-57 35.5t-36 52.5t-12.5 64t13 64t38.5 52.5t63 35.5t85.5 13h140v25q0 49 -31 77t-84 28q-45 0 -71 -19.5t-34 -45.5h-100q7 32 25.5 60t45 49t61 33.5t73.5 12.5q51 0 90 -14.5t65.5 -40t40.5 -61.5t14 -79v-345h-80l-10 65h-5
q-8 -13 -22.5 -26.5t-35 -24t-46.5 -17.5t-56 -7zM230 75q68 0 106.5 36.5t38.5 93.5v30h-140q-54 0 -79.5 -22.5t-25.5 -57.5q0 -37 26 -58.5t74 -21.5zM315 745h105l-115 -145h-80z" />
    <glyph glyph-name="acircumflex" unicode="&#xe2;" horiz-adv-x="530" 
d="M215 -10q-41 0 -74.5 13t-57 35.5t-36 52.5t-12.5 64t13 64t38.5 52.5t63 35.5t85.5 13h140v25q0 49 -31 77t-84 28q-45 0 -71 -19.5t-34 -45.5h-100q7 32 25.5 60t45 49t61 33.5t73.5 12.5q51 0 90 -14.5t65.5 -40t40.5 -61.5t14 -79v-345h-80l-10 65h-5
q-8 -13 -22.5 -26.5t-35 -24t-46.5 -17.5t-56 -7zM230 75q68 0 106.5 36.5t38.5 93.5v30h-140q-54 0 -79.5 -22.5t-25.5 -57.5q0 -37 26 -58.5t74 -21.5zM230 750h75l130 -150h-90l-75 90h-5l-75 -90h-90z" />
    <glyph glyph-name="atilde" unicode="&#xe3;" horiz-adv-x="530" 
d="M215 -10q-41 0 -74.5 13t-57 35.5t-36 52.5t-12.5 64t13 64t38.5 52.5t63 35.5t85.5 13h140v25q0 49 -31 77t-84 28q-45 0 -71 -19.5t-34 -45.5h-100q7 32 25.5 60t45 49t61 33.5t73.5 12.5q51 0 90 -14.5t65.5 -40t40.5 -61.5t14 -79v-345h-80l-10 65h-5
q-8 -13 -22.5 -26.5t-35 -24t-46.5 -17.5t-56 -7zM230 75q68 0 106.5 36.5t38.5 93.5v30h-140q-54 0 -79.5 -22.5t-25.5 -57.5q0 -37 26 -58.5t74 -21.5zM340 620q-21 0 -38 8t-31.5 17t-27 17t-23.5 8q-15 0 -22.5 -13t-7.5 -32h-80q0 53 22.5 84t67.5 31q21 0 38 -8
t31.5 -17t27 -17t23.5 -8q15 0 22.5 13t7.5 32h80q0 -53 -22.5 -84t-67.5 -31z" />
    <glyph glyph-name="adieresis" unicode="&#xe4;" horiz-adv-x="530" 
d="M215 -10q-41 0 -74.5 13t-57 35.5t-36 52.5t-12.5 64t13 64t38.5 52.5t63 35.5t85.5 13h140v25q0 49 -31 77t-84 28q-45 0 -71 -19.5t-34 -45.5h-100q7 32 25.5 60t45 49t61 33.5t73.5 12.5q51 0 90 -14.5t65.5 -40t40.5 -61.5t14 -79v-345h-80l-10 65h-5
q-8 -13 -22.5 -26.5t-35 -24t-46.5 -17.5t-56 -7zM230 75q68 0 106.5 36.5t38.5 93.5v30h-140q-54 0 -79.5 -22.5t-25.5 -57.5q0 -37 26 -58.5t74 -21.5zM175 615q-26 0 -43 17t-17 43t17 43t43 17t43 -17t17 -43t-17 -43t-43 -17zM360 615q-26 0 -43 17t-17 43t17 43t43 17
t43 -17t17 -43t-17 -43t-43 -17z" />
    <glyph glyph-name="aring" unicode="&#xe5;" horiz-adv-x="530" 
d="M215 -10q-41 0 -74.5 13t-57 35.5t-36 52.5t-12.5 64t13 64t38.5 52.5t63 35.5t85.5 13h140v25q0 49 -31 77t-84 28q-45 0 -71 -19.5t-34 -45.5h-100q7 32 25.5 60t45 49t61 33.5t73.5 12.5q51 0 90 -14.5t65.5 -40t40.5 -61.5t14 -79v-345h-80l-10 65h-5
q-8 -13 -22.5 -26.5t-35 -24t-46.5 -17.5t-56 -7zM230 75q68 0 106.5 36.5t38.5 93.5v30h-140q-54 0 -79.5 -22.5t-25.5 -57.5q0 -37 26 -58.5t74 -21.5zM270 585q-45 0 -72.5 27.5t-27.5 72.5t27.5 72.5t72.5 27.5t72.5 -27.5t27.5 -72.5t-27.5 -72.5t-72.5 -27.5zM270 645
q40 0 40 40t-40 40t-40 -40t40 -40z" />
    <glyph glyph-name="ae" unicode="&#xe6;" horiz-adv-x="890" 
d="M215 -10q-41 0 -74.5 13t-57 35.5t-36 52.5t-12.5 64t13 63.5t38.5 51t63 33.5t85.5 12h140v30q0 49 -31 77t-84 28q-45 0 -71 -19.5t-34 -45.5h-100q7 32 25.5 60t45 49t61 33.5t73.5 12.5q68 0 112 -28.5t63 -66.5q30 42 74.5 68.5t102.5 26.5t102.5 -22t74.5 -58
t45.5 -80.5t15.5 -89.5q0 -11 -1 -21t-2 -18q-1 -9 -2 -16h-374q7 -75 45.5 -115t100.5 -40q40 0 70 15.5t51 49.5h102q-26 -68 -82 -111.5t-141 -43.5q-66 0 -116.5 27t-80.5 72q-23 -41 -72.5 -70t-132.5 -29zM230 75q68 0 106.5 36.5t38.5 93.5v25h-140
q-54 0 -79.5 -21.5t-25.5 -53.5q0 -37 26 -58.5t74 -21.5zM755 315q-9 64 -46.5 99.5t-96.5 35.5q-58 0 -95.5 -35.5t-45.5 -99.5h284z" />
    <glyph glyph-name="ccedilla" unicode="&#xe7;" horiz-adv-x="550" 
d="M215 -150h50q35 0 35 30t-35 30h-40v45l17 39q-93 14 -147.5 83.5t-54.5 187.5q0 66 18 117t51 86t79 53.5t102 18.5q87 0 144.5 -44t80.5 -116h-100q-19 34 -49.5 52t-75.5 18q-68 0 -111.5 -47.5t-43.5 -137.5t43.5 -137.5t111.5 -47.5q45 0 75.5 18t49.5 52h100
q-21 -67 -73.5 -110.5t-130.5 -48.5l-11 -26q34 -4 54.5 -27.5t20.5 -57.5q0 -42 -27.5 -68.5t-72.5 -26.5h-60v65z" />
    <glyph glyph-name="egrave" unicode="&#xe8;" horiz-adv-x="570" 
d="M290 -10q-56 0 -102 18.5t-79 53.5t-51 86t-18 117t18 117t50 86t77.5 53.5t99.5 18.5q60 0 106 -22t76.5 -58t46.5 -80.5t16 -89.5q0 -11 -1 -21t-2 -18q-1 -9 -2 -16h-386q5 -75 46 -115t105 -40q42 0 72 15.5t53 49.5h105q-26 -68 -84.5 -111.5t-145.5 -43.5zM432 315
q-9 64 -48 99.5t-99 35.5t-99 -35.5t-47 -99.5h293zM135 745h105l90 -145h-80z" />
    <glyph glyph-name="eacute" unicode="&#xe9;" horiz-adv-x="570" 
d="M290 -10q-56 0 -102 18.5t-79 53.5t-51 86t-18 117t18 117t50 86t77.5 53.5t99.5 18.5q60 0 106 -22t76.5 -58t46.5 -80.5t16 -89.5q0 -11 -1 -21t-2 -18q-1 -9 -2 -16h-386q5 -75 46 -115t105 -40q42 0 72 15.5t53 49.5h105q-26 -68 -84.5 -111.5t-145.5 -43.5zM432 315
q-9 64 -48 99.5t-99 35.5t-99 -35.5t-47 -99.5h293zM340 745h105l-115 -145h-80z" />
    <glyph glyph-name="ecircumflex" unicode="&#xea;" horiz-adv-x="570" 
d="M290 -10q-56 0 -102 18.5t-79 53.5t-51 86t-18 117t18 117t50 86t77.5 53.5t99.5 18.5q60 0 106 -22t76.5 -58t46.5 -80.5t16 -89.5q0 -11 -1 -21t-2 -18q-1 -9 -2 -16h-386q5 -75 46 -115t105 -40q42 0 72 15.5t53 49.5h105q-26 -68 -84.5 -111.5t-145.5 -43.5zM432 315
q-9 64 -48 99.5t-99 35.5t-99 -35.5t-47 -99.5h293zM255 750h75l130 -150h-90l-75 90h-5l-75 -90h-90z" />
    <glyph glyph-name="edieresis" unicode="&#xeb;" horiz-adv-x="570" 
d="M290 -10q-56 0 -102 18.5t-79 53.5t-51 86t-18 117t18 117t50 86t77.5 53.5t99.5 18.5q60 0 106 -22t76.5 -58t46.5 -80.5t16 -89.5q0 -11 -1 -21t-2 -18q-1 -9 -2 -16h-386q5 -75 46 -115t105 -40q42 0 72 15.5t53 49.5h105q-26 -68 -84.5 -111.5t-145.5 -43.5zM432 315
q-9 64 -48 99.5t-99 35.5t-99 -35.5t-47 -99.5h293zM200 615q-26 0 -43 17t-17 43t17 43t43 17t43 -17t17 -43t-17 -43t-43 -17zM385 615q-26 0 -43 17t-17 43t17 43t43 17t43 -17t17 -43t-17 -43t-43 -17z" />
    <glyph glyph-name="igrave" unicode="&#xec;" horiz-adv-x="225" 
d="M65 530h95v-530h-95v530zM-45 745h105l90 -145h-80z" />
    <glyph glyph-name="iacute" unicode="&#xed;" horiz-adv-x="225" 
d="M65 530h95v-530h-95v530zM165 745h105l-115 -145h-80z" />
    <glyph glyph-name="icircumflex" unicode="&#xee;" horiz-adv-x="225" 
d="M65 530h95v-530h-95v530zM75 750h75l130 -150h-90l-75 90h-5l-75 -90h-90z" />
    <glyph glyph-name="idieresis" unicode="&#xef;" horiz-adv-x="225" 
d="M65 530h95v-530h-95v530zM20 615q-26 0 -43 17t-17 43t17 43t43 17t43 -17t17 -43t-17 -43t-43 -17zM205 615q-26 0 -43 17t-17 43t17 43t43 17t43 -17t17 -43t-17 -43t-43 -17z" />
    <glyph glyph-name="eth" unicode="&#xf0;" horiz-adv-x="565" 
d="M273 -10q-54 0 -97.5 17t-73.5 49.5t-46 78.5t-16 105q0 60 16 106.5t45.5 78.5t71 48.5t92.5 16.5q42 0 74 -13t51 -32h5q-14 34 -38.5 65t-51.5 60l-130 -60l-30 65l105 50q-21 17 -44 33t-43 29.5t-34.5 22t-18.5 10.5h136q4 -2 12.5 -7.5t20 -13.5t25 -18t26.5 -20
l95 44l30 -65l-70 -35q30 -34 54.5 -71t42.5 -79.5t28 -92t10 -107.5q0 -61 -16.5 -110t-48 -83.5t-77.5 -53t-105 -18.5zM280 80q64 0 102 42.5t38 117.5t-38 117.5t-102 42.5q-68 0 -106.5 -42.5t-38.5 -117.5t38.5 -117.5t106.5 -42.5z" />
    <glyph glyph-name="ntilde" unicode="&#xf1;" horiz-adv-x="565" 
d="M65 530h75l15 -70h5q26 42 66 61t84 19q43 0 79 -15.5t61.5 -43.5t40 -67.5t14.5 -88.5v-325h-95v320q0 64 -33.5 97t-86.5 33q-28 0 -52 -10.5t-41 -28.5t-27 -41.5t-10 -49.5v-320h-95v530zM360 620q-21 0 -38 8t-31.5 17t-27 17t-23.5 8q-15 0 -22.5 -13t-7.5 -32h-80
q0 53 22.5 84t67.5 31q21 0 38 -8t31.5 -17t27 -17t23.5 -8q15 0 22.5 13t7.5 32h80q0 -53 -22.5 -84t-67.5 -31z" />
    <glyph glyph-name="ograve" unicode="&#xf2;" horiz-adv-x="570" 
d="M285 -10q-54 0 -99.5 18.5t-77.5 53.5t-50 86t-18 117t18 117t50 86t77.5 53.5t99.5 18.5t99.5 -18.5t77.5 -53.5t50 -86t18 -117t-18 -117t-50 -86t-77.5 -53.5t-99.5 -18.5zM285 80q32 0 59.5 11.5t47.5 34.5t31.5 57.5t11.5 81.5t-11.5 81.5t-31.5 57.5t-47.5 34.5
t-59.5 11.5t-59.5 -11.5t-47.5 -34.5t-31.5 -57.5t-11.5 -81.5t11.5 -81.5t31.5 -57.5t47.5 -34.5t59.5 -11.5zM130 745h105l90 -145h-80z" />
    <glyph glyph-name="oacute" unicode="&#xf3;" horiz-adv-x="570" 
d="M285 -10q-54 0 -99.5 18.5t-77.5 53.5t-50 86t-18 117t18 117t50 86t77.5 53.5t99.5 18.5t99.5 -18.5t77.5 -53.5t50 -86t18 -117t-18 -117t-50 -86t-77.5 -53.5t-99.5 -18.5zM285 80q32 0 59.5 11.5t47.5 34.5t31.5 57.5t11.5 81.5t-11.5 81.5t-31.5 57.5t-47.5 34.5
t-59.5 11.5t-59.5 -11.5t-47.5 -34.5t-31.5 -57.5t-11.5 -81.5t11.5 -81.5t31.5 -57.5t47.5 -34.5t59.5 -11.5zM335 745h105l-115 -145h-80z" />
    <glyph glyph-name="ocircumflex" unicode="&#xf4;" horiz-adv-x="570" 
d="M285 -10q-54 0 -99.5 18.5t-77.5 53.5t-50 86t-18 117t18 117t50 86t77.5 53.5t99.5 18.5t99.5 -18.5t77.5 -53.5t50 -86t18 -117t-18 -117t-50 -86t-77.5 -53.5t-99.5 -18.5zM285 80q32 0 59.5 11.5t47.5 34.5t31.5 57.5t11.5 81.5t-11.5 81.5t-31.5 57.5t-47.5 34.5
t-59.5 11.5t-59.5 -11.5t-47.5 -34.5t-31.5 -57.5t-11.5 -81.5t11.5 -81.5t31.5 -57.5t47.5 -34.5t59.5 -11.5zM250 750h75l130 -150h-90l-75 90h-5l-75 -90h-90z" />
    <glyph glyph-name="otilde" unicode="&#xf5;" horiz-adv-x="570" 
d="M285 -10q-54 0 -99.5 18.5t-77.5 53.5t-50 86t-18 117t18 117t50 86t77.5 53.5t99.5 18.5t99.5 -18.5t77.5 -53.5t50 -86t18 -117t-18 -117t-50 -86t-77.5 -53.5t-99.5 -18.5zM285 80q32 0 59.5 11.5t47.5 34.5t31.5 57.5t11.5 81.5t-11.5 81.5t-31.5 57.5t-47.5 34.5
t-59.5 11.5t-59.5 -11.5t-47.5 -34.5t-31.5 -57.5t-11.5 -81.5t11.5 -81.5t31.5 -57.5t47.5 -34.5t59.5 -11.5zM360 620q-21 0 -38 8t-31.5 17t-27 17t-23.5 8q-15 0 -22.5 -13t-7.5 -32h-80q0 53 22.5 84t67.5 31q21 0 38 -8t31.5 -17t27 -17t23.5 -8q15 0 22.5 13t7.5 32
h80q0 -53 -22.5 -84t-67.5 -31z" />
    <glyph glyph-name="odieresis" unicode="&#xf6;" horiz-adv-x="570" 
d="M285 -10q-54 0 -99.5 18.5t-77.5 53.5t-50 86t-18 117t18 117t50 86t77.5 53.5t99.5 18.5t99.5 -18.5t77.5 -53.5t50 -86t18 -117t-18 -117t-50 -86t-77.5 -53.5t-99.5 -18.5zM285 80q32 0 59.5 11.5t47.5 34.5t31.5 57.5t11.5 81.5t-11.5 81.5t-31.5 57.5t-47.5 34.5
t-59.5 11.5t-59.5 -11.5t-47.5 -34.5t-31.5 -57.5t-11.5 -81.5t11.5 -81.5t31.5 -57.5t47.5 -34.5t59.5 -11.5zM195 615q-26 0 -43 17t-17 43t17 43t43 17t43 -17t17 -43t-17 -43t-43 -17zM380 615q-26 0 -43 17t-17 43t17 43t43 17t43 -17t17 -43t-17 -43t-43 -17z" />
    <glyph glyph-name="divide" unicode="&#xf7;" horiz-adv-x="540" 
d="M270 55q-27 0 -41 16t-14 39t14.5 39t40.5 16t40.5 -16t14.5 -39t-14.5 -39t-40.5 -16zM40 350h460v-85h-460v85zM270 450q-26 0 -40.5 16t-14.5 39t14.5 39t40.5 16q27 0 41 -16t14 -39t-14.5 -39t-40.5 -16z" />
    <glyph glyph-name="oslash" unicode="&#xf8;" horiz-adv-x="570" 
d="M107 62q-32 35 -49.5 86t-17.5 117t18 117t50 86t77.5 53.5t99.5 18.5q61 0 113 -25l22 35h95l-53 -82q32 -35 50 -86t18 -117t-18 -117t-50 -86t-77.5 -53.5t-99.5 -18.5q-32 0 -60 6.5t-53 17.5l-22 -34h-95zM348 437q-31 13 -63 13t-59.5 -11.5t-47.5 -34.5
t-31.5 -57.5t-11.5 -81.5q0 -37 7 -66t20 -51zM285 80q32 0 59.5 11.5t47.5 34.5t31.5 57.5t11.5 81.5q0 72 -28 117l-185 -289q27 -13 63 -13z" />
    <glyph glyph-name="ugrave" unicode="&#xf9;" horiz-adv-x="570" 
d="M260 -10q-43 0 -79 15.5t-61.5 43.5t-40 67.5t-14.5 88.5v325h95v-320q0 -64 33.5 -97t86.5 -33q28 0 52 10.5t41 28.5t27 41.5t10 49.5v320h95v-530h-75l-15 70h-5q-26 -42 -66 -61t-84 -19zM135 745h105l90 -145h-80z" />
    <glyph glyph-name="uacute" unicode="&#xfa;" horiz-adv-x="570" 
d="M260 -10q-43 0 -79 15.5t-61.5 43.5t-40 67.5t-14.5 88.5v325h95v-320q0 -64 33.5 -97t86.5 -33q28 0 52 10.5t41 28.5t27 41.5t10 49.5v320h95v-530h-75l-15 70h-5q-26 -42 -66 -61t-84 -19zM335 745h105l-115 -145h-80z" />
    <glyph glyph-name="ucircumflex" unicode="&#xfb;" horiz-adv-x="570" 
d="M260 -10q-43 0 -79 15.5t-61.5 43.5t-40 67.5t-14.5 88.5v325h95v-320q0 -64 33.5 -97t86.5 -33q28 0 52 10.5t41 28.5t27 41.5t10 49.5v320h95v-530h-75l-15 70h-5q-26 -42 -66 -61t-84 -19zM250 750h75l130 -150h-90l-75 90h-5l-75 -90h-90z" />
    <glyph glyph-name="udieresis" unicode="&#xfc;" horiz-adv-x="570" 
d="M260 -10q-43 0 -79 15.5t-61.5 43.5t-40 67.5t-14.5 88.5v325h95v-320q0 -64 33.5 -97t86.5 -33q28 0 52 10.5t41 28.5t27 41.5t10 49.5v320h95v-530h-75l-15 70h-5q-26 -42 -66 -61t-84 -19zM195 615q-26 0 -43 17t-17 43t17 43t43 17t43 -17t17 -43t-17 -43t-43 -17z
M380 615q-26 0 -43 17t-17 43t17 43t43 17t43 -17t17 -43t-17 -43t-43 -17z" />
    <glyph glyph-name="yacute" unicode="&#xfd;" horiz-adv-x="525" 
d="M215 0l-215 530h100l160 -405h5l160 405h100l-290 -730h-100zM310 745h105l-115 -145h-80z" />
    <glyph glyph-name="thorn" unicode="&#xfe;" horiz-adv-x="600" 
d="M70 700h95v-235h5q23 29 63 52t97 23q49 0 90 -17.5t71 -52.5t47 -86.5t17 -118.5q0 -68 -17 -119t-47 -86t-71 -52.5t-90 -17.5q-60 0 -98.5 22.5t-61.5 52.5h-5v-265h-95v900zM315 80q64 0 104.5 45.5t40.5 139.5t-40.5 139.5t-104.5 45.5q-32 0 -59.5 -11.5
t-47.5 -34.5t-31.5 -57.5t-11.5 -81.5t11.5 -81.5t31.5 -57.5t47.5 -34.5t59.5 -11.5z" />
    <glyph glyph-name="ydieresis" unicode="&#xff;" horiz-adv-x="525" 
d="M215 0l-215 530h100l160 -405h5l160 405h100l-290 -730h-100zM170 615q-26 0 -43 17t-17 43t17 43t43 17t43 -17t17 -43t-17 -43t-43 -17zM355 615q-26 0 -43 17t-17 43t17 43t43 17t43 -17t17 -43t-17 -43t-43 -17z" />
    <glyph glyph-name="Amacron" unicode="&#x100;" horiz-adv-x="635" 
d="M255 700h125l260 -700h-110l-58 160h-309l-58 -160h-110zM438 255l-118 325h-5l-118 -325h241zM175 875h285v-75h-285v75z" />
    <glyph glyph-name="amacron" unicode="&#x101;" horiz-adv-x="530" 
d="M215 -10q-41 0 -74.5 13t-57 35.5t-36 52.5t-12.5 64t13 64t38.5 52.5t63 35.5t85.5 13h140v25q0 49 -31 77t-84 28q-45 0 -71 -19.5t-34 -45.5h-100q7 32 25.5 60t45 49t61 33.5t73.5 12.5q51 0 90 -14.5t65.5 -40t40.5 -61.5t14 -79v-345h-80l-10 65h-5
q-8 -13 -22.5 -26.5t-35 -24t-46.5 -17.5t-56 -7zM230 75q68 0 106.5 36.5t38.5 93.5v30h-140q-54 0 -79.5 -22.5t-25.5 -57.5q0 -37 26 -58.5t74 -21.5zM125 710h285v-75h-285v75z" />
    <glyph glyph-name="Abreve" unicode="&#x102;" horiz-adv-x="635" 
d="M255 700h125l260 -700h-110l-58 160h-309l-58 -160h-110zM438 255l-118 325h-5l-118 -325h241zM320 770q-30 0 -56.5 8t-47 24.5t-34 43t-17.5 64.5h80q4 -38 24.5 -54t50.5 -16t50.5 16t24.5 54h80q-4 -38 -17.5 -64.5t-34 -43t-47 -24.5t-56.5 -8z" />
    <glyph glyph-name="abreve" unicode="&#x103;" horiz-adv-x="530" 
d="M215 -10q-41 0 -74.5 13t-57 35.5t-36 52.5t-12.5 64t13 64t38.5 52.5t63 35.5t85.5 13h140v25q0 49 -31 77t-84 28q-45 0 -71 -19.5t-34 -45.5h-100q7 32 25.5 60t45 49t61 33.5t73.5 12.5q51 0 90 -14.5t65.5 -40t40.5 -61.5t14 -79v-345h-80l-10 65h-5
q-8 -13 -22.5 -26.5t-35 -24t-46.5 -17.5t-56 -7zM230 75q68 0 106.5 36.5t38.5 93.5v30h-140q-54 0 -79.5 -22.5t-25.5 -57.5q0 -37 26 -58.5t74 -21.5zM265 605q-30 0 -56.5 8t-47 24.5t-34 43t-17.5 64.5h80q4 -38 24.5 -54t50.5 -16t50.5 16t24.5 54h80
q-4 -38 -17.5 -64.5t-34 -43t-47 -24.5t-56.5 -8z" />
    <glyph glyph-name="Aogonek" unicode="&#x104;" horiz-adv-x="635" 
d="M570 -200q-60 0 -87.5 27.5t-27.5 72.5q0 21 7 37t17.5 28t24 20.5t26.5 14.5l-58 160h-309l-58 -160h-110l260 700h125l260 -700h-35q-38 -19 -56.5 -39.5t-18.5 -50.5q0 -19 12.5 -29.5t42.5 -10.5h25v-70h-40zM438 255l-118 325h-5l-118 -325h241z" />
    <glyph glyph-name="aogonek" unicode="&#x105;" horiz-adv-x="530" 
d="M435 -200q-60 0 -87.5 27.5t-27.5 72.5q0 21 7 37t17.5 28t24 20.5t26.5 14.5h-5l-10 65h-5q-8 -13 -22.5 -26.5t-35 -24t-46.5 -17.5t-56 -7q-41 0 -74.5 13t-57 35.5t-36 52.5t-12.5 64t13 64t38.5 52.5t63 35.5t85.5 13h140v25q0 49 -31 77t-84 28q-45 0 -71 -19.5
t-34 -45.5h-100q7 32 25.5 60t45 49t61 33.5t73.5 12.5q51 0 90 -14.5t65.5 -40t40.5 -61.5t14 -79v-345q-38 -19 -56.5 -39.5t-18.5 -50.5q0 -19 12.5 -29.5t42.5 -10.5h25v-70h-40zM230 75q68 0 106.5 36.5t38.5 93.5v30h-140q-54 0 -79.5 -22.5t-25.5 -57.5
q0 -37 26 -58.5t74 -21.5z" />
    <glyph glyph-name="Cacute" unicode="&#x106;" horiz-adv-x="690" 
d="M365 -10q-71 0 -130 23t-101 68.5t-65.5 113t-23.5 155.5t23.5 155.5t65.5 113t101 68.5t130 23q112 0 184 -53.5t106 -151.5h-110q-26 57 -70 83.5t-110 26.5q-47 0 -86.5 -17t-68 -50t-44.5 -82.5t-16 -115.5t15.5 -115.5t44 -82.5t68 -50t87.5 -17q66 0 110 26.5
t70 83.5h110q-34 -98 -106 -151.5t-184 -53.5zM410 910h105l-115 -145h-80z" />
    <glyph glyph-name="cacute" unicode="&#x107;" horiz-adv-x="550" 
d="M290 -10q-56 0 -102 18.5t-79 53.5t-51 86t-18 117t18 117t51 86t79 53.5t102 18.5q87 0 144.5 -44t80.5 -116h-100q-19 34 -49.5 52t-75.5 18q-68 0 -111.5 -47.5t-43.5 -137.5t43.5 -137.5t111.5 -47.5q45 0 75.5 18t49.5 52h100q-23 -72 -80.5 -116t-144.5 -44z
M340 745h105l-115 -145h-80z" />
    <glyph glyph-name="Ccircumflex" unicode="&#x108;" horiz-adv-x="690" 
d="M365 -10q-71 0 -130 23t-101 68.5t-65.5 113t-23.5 155.5t23.5 155.5t65.5 113t101 68.5t130 23q112 0 184 -53.5t106 -151.5h-110q-26 57 -70 83.5t-110 26.5q-47 0 -86.5 -17t-68 -50t-44.5 -82.5t-16 -115.5t15.5 -115.5t44 -82.5t68 -50t87.5 -17q66 0 110 26.5
t70 83.5h110q-34 -98 -106 -151.5t-184 -53.5zM325 915h75l130 -150h-90l-75 90h-5l-75 -90h-90z" />
    <glyph glyph-name="ccircumflex" unicode="&#x109;" horiz-adv-x="550" 
d="M290 -10q-56 0 -102 18.5t-79 53.5t-51 86t-18 117t18 117t51 86t79 53.5t102 18.5q87 0 144.5 -44t80.5 -116h-100q-19 34 -49.5 52t-75.5 18q-68 0 -111.5 -47.5t-43.5 -137.5t43.5 -137.5t111.5 -47.5q45 0 75.5 18t49.5 52h100q-23 -72 -80.5 -116t-144.5 -44z
M255 750h75l130 -150h-90l-75 90h-5l-75 -90h-90z" />
    <glyph glyph-name="Cdotaccent" unicode="&#x10a;" horiz-adv-x="690" 
d="M365 -10q-71 0 -130 23t-101 68.5t-65.5 113t-23.5 155.5t23.5 155.5t65.5 113t101 68.5t130 23q112 0 184 -53.5t106 -151.5h-110q-26 57 -70 83.5t-110 26.5q-47 0 -86.5 -17t-68 -50t-44.5 -82.5t-16 -115.5t15.5 -115.5t44 -82.5t68 -50t87.5 -17q66 0 110 26.5
t70 83.5h110q-34 -98 -106 -151.5t-184 -53.5zM365 780q-26 0 -43 17t-17 43t17 43t43 17t43 -17t17 -43t-17 -43t-43 -17z" />
    <glyph glyph-name="cdotaccent" unicode="&#x10b;" horiz-adv-x="550" 
d="M290 -10q-56 0 -102 18.5t-79 53.5t-51 86t-18 117t18 117t51 86t79 53.5t102 18.5q87 0 144.5 -44t80.5 -116h-100q-19 34 -49.5 52t-75.5 18q-68 0 -111.5 -47.5t-43.5 -137.5t43.5 -137.5t111.5 -47.5q45 0 75.5 18t49.5 52h100q-23 -72 -80.5 -116t-144.5 -44z
M290 615q-26 0 -43 17t-17 43t17 43t43 17t43 -17t17 -43t-17 -43t-43 -17z" />
    <glyph glyph-name="Ccaron" unicode="&#x10c;" horiz-adv-x="690" 
d="M365 -10q-71 0 -130 23t-101 68.5t-65.5 113t-23.5 155.5t23.5 155.5t65.5 113t101 68.5t130 23q112 0 184 -53.5t106 -151.5h-110q-26 57 -70 83.5t-110 26.5q-47 0 -86.5 -17t-68 -50t-44.5 -82.5t-16 -115.5t15.5 -115.5t44 -82.5t68 -50t87.5 -17q66 0 110 26.5
t70 83.5h110q-34 -98 -106 -151.5t-184 -53.5zM195 915h90l75 -90h5l75 90h90l-130 -150h-75z" />
    <glyph glyph-name="ccaron" unicode="&#x10d;" horiz-adv-x="550" 
d="M290 -10q-56 0 -102 18.5t-79 53.5t-51 86t-18 117t18 117t51 86t79 53.5t102 18.5q87 0 144.5 -44t80.5 -116h-100q-19 34 -49.5 52t-75.5 18q-68 0 -111.5 -47.5t-43.5 -137.5t43.5 -137.5t111.5 -47.5q45 0 75.5 18t49.5 52h100q-23 -72 -80.5 -116t-144.5 -44z
M125 745h90l75 -90h5l75 90h90l-130 -150h-75z" />
    <glyph glyph-name="Dcaron" unicode="&#x10e;" horiz-adv-x="685" 
d="M80 700h247q70 0 128 -23t99 -67t63.5 -109.5t22.5 -150.5q0 -86 -22.5 -151t-63.5 -109.5t-99 -67t-128 -22.5h-247v700zM325 95q45 0 83.5 16t66.5 48t44 79.5t16 111.5t-16 111.5t-44 79.5t-66.5 48t-83.5 16h-140v-510h140zM175 915h90l75 -90h5l75 90h90l-130 -150
h-75z" />
    <glyph glyph-name="dcaron" unicode="&#x10f;" horiz-adv-x="680" 
d="M265 -10q-49 0 -90 17.5t-71 52.5t-47 86t-17 119q0 67 17 118.5t47.5 86.5t72.5 52.5t93 17.5q57 0 94.5 -22.5t60.5 -52.5h5v235h95v-700h-75l-15 70h-5q-26 -34 -67 -57t-98 -23zM280 80q32 0 59.5 11.5t47.5 34.5t31.5 57.5t11.5 81.5t-11.5 81.5t-31.5 57.5
t-47.5 34.5t-59.5 11.5q-64 0 -104.5 -45.5t-40.5 -139.5t40.5 -139.5t104.5 -45.5z" />
    <glyph glyph-name="Dcroat" unicode="&#x110;" horiz-adv-x="695" 
d="M90 305h-75v95h75v300h247q70 0 128 -23t99 -67t63.5 -109.5t22.5 -150.5q0 -86 -22.5 -151t-63.5 -109.5t-99 -67t-128 -22.5h-247v305zM335 95q45 0 83.5 16t66.5 48t44 79.5t16 111.5t-16 111.5t-44 79.5t-66.5 48t-83.5 16h-140v-205h170v-95h-170v-210h140z" />
    <glyph glyph-name="dcroat" unicode="&#x111;" horiz-adv-x="595" 
d="M263 -10q-50 0 -91 16.5t-70.5 48.5t-45.5 78.5t-16 106.5t16 106.5t45.5 78.5t71 48.5t92.5 16.5q53 0 90 -22t60 -48h5v125h-140v85h140v70h95v-70h80v-85h-80v-545h-75l-15 70h-5q-23 -34 -61 -57t-96 -23zM280 80q64 0 102 40.5t38 119.5t-38 119.5t-102 40.5
t-104.5 -40.5t-40.5 -119.5q0 -78 40.5 -119t104.5 -41z" />
    <glyph glyph-name="Emacron" unicode="&#x112;" horiz-adv-x="590" 
d="M80 700h450v-95h-345v-205h325v-95h-325v-210h355v-95h-460v700zM165 875h285v-75h-285v75z" />
    <glyph glyph-name="emacron" unicode="&#x113;" horiz-adv-x="570" 
d="M290 -10q-56 0 -102 18.5t-79 53.5t-51 86t-18 117t18 117t50 86t77.5 53.5t99.5 18.5q60 0 106 -22t76.5 -58t46.5 -80.5t16 -89.5q0 -11 -1 -21t-2 -18q-1 -9 -2 -16h-386q5 -75 46 -115t105 -40q42 0 72 15.5t53 49.5h105q-26 -68 -84.5 -111.5t-145.5 -43.5zM432 315
q-9 64 -48 99.5t-99 35.5t-99 -35.5t-47 -99.5h293zM145 710h285v-75h-285v75z" />
    <glyph glyph-name="Ebreve" unicode="&#x114;" horiz-adv-x="590" 
d="M80 700h450v-95h-345v-205h325v-95h-325v-210h355v-95h-460v700zM310 770q-30 0 -56.5 8t-47 24.5t-34 43t-17.5 64.5h80q4 -38 24.5 -54t50.5 -16t50.5 16t24.5 54h80q-4 -38 -17.5 -64.5t-34 -43t-47 -24.5t-56.5 -8z" />
    <glyph glyph-name="ebreve" unicode="&#x115;" horiz-adv-x="570" 
d="M290 -10q-56 0 -102 18.5t-79 53.5t-51 86t-18 117t18 117t50 86t77.5 53.5t99.5 18.5q60 0 106 -22t76.5 -58t46.5 -80.5t16 -89.5q0 -11 -1 -21t-2 -18q-1 -9 -2 -16h-386q5 -75 46 -115t105 -40q42 0 72 15.5t53 49.5h105q-26 -68 -84.5 -111.5t-145.5 -43.5zM432 315
q-9 64 -48 99.5t-99 35.5t-99 -35.5t-47 -99.5h293zM290 605q-30 0 -56.5 8t-47 24.5t-34 43t-17.5 64.5h80q4 -38 24.5 -54t50.5 -16t50.5 16t24.5 54h80q-4 -38 -17.5 -64.5t-34 -43t-47 -24.5t-56.5 -8z" />
    <glyph glyph-name="Edotaccent" unicode="&#x116;" horiz-adv-x="590" 
d="M80 700h450v-95h-345v-205h325v-95h-325v-210h355v-95h-460v700zM315 780q-26 0 -43 17t-17 43t17 43t43 17t43 -17t17 -43t-17 -43t-43 -17z" />
    <glyph glyph-name="edotaccent" unicode="&#x117;" horiz-adv-x="570" 
d="M290 -10q-56 0 -102 18.5t-79 53.5t-51 86t-18 117t18 117t50 86t77.5 53.5t99.5 18.5q60 0 106 -22t76.5 -58t46.5 -80.5t16 -89.5q0 -11 -1 -21t-2 -18q-1 -9 -2 -16h-386q5 -75 46 -115t105 -40q42 0 72 15.5t53 49.5h105q-26 -68 -84.5 -111.5t-145.5 -43.5zM432 315
q-9 64 -48 99.5t-99 35.5t-99 -35.5t-47 -99.5h293zM290 615q-26 0 -43 17t-17 43t17 43t43 17t43 -17t17 -43t-17 -43t-43 -17z" />
    <glyph glyph-name="Eogonek" unicode="&#x118;" horiz-adv-x="590" 
d="M505 -200q-60 0 -87.5 27.5t-27.5 72.5q0 21 7 37t17.5 28t24 20.5t26.5 14.5h-385v700h450v-95h-345v-205h325v-95h-325v-210h355v-95q-38 -19 -56.5 -39.5t-18.5 -50.5q0 -19 12.5 -29.5t42.5 -10.5h25v-70h-40v0z" />
    <glyph glyph-name="eogonek" unicode="&#x119;" horiz-adv-x="570" 
d="M320 -200q-60 0 -87.5 27.5t-27.5 72.5q0 35 17 56.5t40 34.5q-102 9 -162 79.5t-60 194.5q0 66 18 117t50 86t77.5 53.5t99.5 18.5q60 0 106 -22t76.5 -58t46.5 -80.5t16 -89.5q0 -11 -1 -21t-2 -18q-1 -9 -2 -16h-386q5 -75 46 -115t105 -40q42 0 72 15.5t53 49.5h105
q-22 -57 -66 -96t-107 -53q-34 -17 -50.5 -37t-16.5 -49q0 -19 12.5 -29.5t42.5 -10.5h25v-70h-40zM432 315q-9 64 -48 99.5t-99 35.5t-99 -35.5t-47 -99.5h293z" />
    <glyph glyph-name="Ecaron" unicode="&#x11a;" horiz-adv-x="590" 
d="M80 700h450v-95h-345v-205h325v-95h-325v-210h355v-95h-460v700zM145 915h90l75 -90h5l75 90h90l-130 -150h-75z" />
    <glyph glyph-name="ecaron" unicode="&#x11b;" horiz-adv-x="570" 
d="M290 -10q-56 0 -102 18.5t-79 53.5t-51 86t-18 117t18 117t50 86t77.5 53.5t99.5 18.5q60 0 106 -22t76.5 -58t46.5 -80.5t16 -89.5q0 -11 -1 -21t-2 -18q-1 -9 -2 -16h-386q5 -75 46 -115t105 -40q42 0 72 15.5t53 49.5h105q-26 -68 -84.5 -111.5t-145.5 -43.5zM432 315
q-9 64 -48 99.5t-99 35.5t-99 -35.5t-47 -99.5h293zM125 745h90l75 -90h5l75 90h90l-130 -150h-75z" />
    <glyph glyph-name="Gcircumflex" unicode="&#x11c;" horiz-adv-x="715" 
d="M365 -10q-71 0 -130 23t-101 68.5t-65.5 113t-23.5 155.5t23.5 155.5t65.5 113t101 68.5t130 23q112 0 184 -53.5t106 -151.5h-110q-26 57 -70 83.5t-110 26.5q-47 0 -86.5 -17t-68 -50t-44.5 -82.5t-16 -115.5t15.5 -115.5t44 -82.5t68 -50t87.5 -17t85 16t61.5 42
t38 59t15.5 68h-205v95h310v-45q0 -75 -21 -136t-60.5 -104t-96 -66.5t-127.5 -23.5zM325 915h75l130 -150h-90l-75 90h-5l-75 -90h-90z" />
    <glyph glyph-name="gcircumflex" unicode="&#x11d;" horiz-adv-x="590" 
d="M290 -200q-91 0 -152.5 43t-87.5 122h100q15 -38 51 -56.5t89 -18.5q64 0 102 30.5t38 94.5v85h-5q-23 -30 -63 -50t-97 -20q-49 0 -90 16.5t-71 49t-47 79.5t-17 109t17 110t47 80.5t71 49t90 16.5q56 0 98 -24t67 -56h5l15 70h75v-515q0 -102 -61 -158.5t-174 -56.5z
M280 120q32 0 59.5 11t47.5 32t31.5 51.5t11.5 69.5q0 40 -11.5 71t-31.5 52t-47.5 32t-59.5 11q-64 0 -104.5 -43t-40.5 -123q0 -78 40.5 -121t104.5 -43zM260 750h75l130 -150h-90l-75 90h-5l-75 -90h-90z" />
    <glyph glyph-name="Gbreve" unicode="&#x11e;" horiz-adv-x="715" 
d="M365 -10q-71 0 -130 23t-101 68.5t-65.5 113t-23.5 155.5t23.5 155.5t65.5 113t101 68.5t130 23q112 0 184 -53.5t106 -151.5h-110q-26 57 -70 83.5t-110 26.5q-47 0 -86.5 -17t-68 -50t-44.5 -82.5t-16 -115.5t15.5 -115.5t44 -82.5t68 -50t87.5 -17t85 16t61.5 42
t38 59t15.5 68h-205v95h310v-45q0 -75 -21 -136t-60.5 -104t-96 -66.5t-127.5 -23.5zM360 770q-30 0 -56.5 8t-47 24.5t-34 43t-17.5 64.5h80q4 -38 24.5 -54t50.5 -16t50.5 16t24.5 54h80q-4 -38 -17.5 -64.5t-34 -43t-47 -24.5t-56.5 -8z" />
    <glyph glyph-name="gbreve" unicode="&#x11f;" horiz-adv-x="590" 
d="M290 -200q-91 0 -152.5 43t-87.5 122h100q15 -38 51 -56.5t89 -18.5q64 0 102 30.5t38 94.5v85h-5q-23 -30 -63 -50t-97 -20q-49 0 -90 16.5t-71 49t-47 79.5t-17 109t17 110t47 80.5t71 49t90 16.5q56 0 98 -24t67 -56h5l15 70h75v-515q0 -102 -61 -158.5t-174 -56.5z
M280 120q32 0 59.5 11t47.5 32t31.5 51.5t11.5 69.5q0 40 -11.5 71t-31.5 52t-47.5 32t-59.5 11q-64 0 -104.5 -43t-40.5 -123q0 -78 40.5 -121t104.5 -43zM295 605q-30 0 -56.5 8t-47 24.5t-34 43t-17.5 64.5h80q4 -38 24.5 -54t50.5 -16t50.5 16t24.5 54h80
q-4 -38 -17.5 -64.5t-34 -43t-47 -24.5t-56.5 -8z" />
    <glyph glyph-name="Gdotaccent" unicode="&#x120;" horiz-adv-x="715" 
d="M365 -10q-71 0 -130 23t-101 68.5t-65.5 113t-23.5 155.5t23.5 155.5t65.5 113t101 68.5t130 23q112 0 184 -53.5t106 -151.5h-110q-26 57 -70 83.5t-110 26.5q-47 0 -86.5 -17t-68 -50t-44.5 -82.5t-16 -115.5t15.5 -115.5t44 -82.5t68 -50t87.5 -17t85 16t61.5 42
t38 59t15.5 68h-205v95h310v-45q0 -75 -21 -136t-60.5 -104t-96 -66.5t-127.5 -23.5zM365 780q-26 0 -43 17t-17 43t17 43t43 17t43 -17t17 -43t-17 -43t-43 -17z" />
    <glyph glyph-name="gdotaccent" unicode="&#x121;" horiz-adv-x="590" 
d="M290 -200q-91 0 -152.5 43t-87.5 122h100q15 -38 51 -56.5t89 -18.5q64 0 102 30.5t38 94.5v85h-5q-23 -30 -63 -50t-97 -20q-49 0 -90 16.5t-71 49t-47 79.5t-17 109t17 110t47 80.5t71 49t90 16.5q56 0 98 -24t67 -56h5l15 70h75v-515q0 -102 -61 -158.5t-174 -56.5z
M280 120q32 0 59.5 11t47.5 32t31.5 51.5t11.5 69.5q0 40 -11.5 71t-31.5 52t-47.5 32t-59.5 11q-64 0 -104.5 -43t-40.5 -123q0 -78 40.5 -121t104.5 -43zM300 615q-26 0 -43 17t-17 43t17 43t43 17t43 -17t17 -43t-17 -43t-43 -17z" />
    <glyph glyph-name="Gcommaaccent" unicode="&#x122;" horiz-adv-x="715" 
d="M365 -10q-71 0 -130 23t-101 68.5t-65.5 113t-23.5 155.5t23.5 155.5t65.5 113t101 68.5t130 23q112 0 184 -53.5t106 -151.5h-110q-26 57 -70 83.5t-110 26.5q-47 0 -86.5 -17t-68 -50t-44.5 -82.5t-16 -115.5t15.5 -115.5t44 -82.5t68 -50t87.5 -17t85 16t61.5 42
t38 59t15.5 68h-205v95h310v-45q0 -75 -21 -136t-60.5 -104t-96 -66.5t-127.5 -23.5zM320 -85h95l-75 -165h-65z" />
    <glyph glyph-name="gcommaaccent" unicode="&#x123;" horiz-adv-x="590" 
d="M320 765h65l-45 -165h-95zM290 -200q-91 0 -152.5 43t-87.5 122h100q15 -38 51 -56.5t89 -18.5q64 0 102 30.5t38 94.5v85h-5q-23 -30 -63 -50t-97 -20q-49 0 -90 16.5t-71 49t-47 79.5t-17 109t17 110t47 80.5t71 49t90 16.5q56 0 98 -24t67 -56h5l15 70h75v-515
q0 -102 -61 -158.5t-174 -56.5zM280 120q32 0 59.5 11t47.5 32t31.5 51.5t11.5 69.5q0 40 -11.5 71t-31.5 52t-47.5 32t-59.5 11q-64 0 -104.5 -43t-40.5 -123q0 -78 40.5 -121t104.5 -43z" />
    <glyph glyph-name="Hcircumflex" unicode="&#x124;" horiz-adv-x="710" 
d="M80 700h105v-300h340v300h105v-700h-105v305h-340v-305h-105v700zM320 915h75l130 -150h-90l-75 90h-5l-75 -90h-90z" />
    <glyph glyph-name="hcircumflex" unicode="&#x125;" horiz-adv-x="570" 
d="M70 700h95v-235h5q23 38 62 56.5t83 18.5q43 0 79 -15.5t61.5 -43.5t40 -67.5t14.5 -88.5v-325h-95v320q0 64 -33.5 97t-86.5 33q-28 0 -52 -10.5t-41 -28.5t-27 -41.5t-10 -49.5v-320h-95v700zM255 920h75l130 -150h-90l-75 90h-5l-75 -90h-90z" />
    <glyph glyph-name="Hbar" unicode="&#x126;" horiz-adv-x="720" 
d="M85 515h-75v90h75v95h105v-95h340v95h105v-95h75v-90h-75v-515h-105v305h-340v-305h-105v515zM530 400v115h-340v-115h340z" />
    <glyph glyph-name="hbar" unicode="&#x127;" horiz-adv-x="575" 
d="M75 545h-75v85h75v70h95v-70h140v-85h-140v-150h5q23 38 62 56.5t83 18.5q43 0 79 -15.5t61.5 -43.5t40 -67.5t14.5 -88.5v-255h-95v250q0 64 -33.5 97t-86.5 33q-28 0 -52 -10.5t-41 -28.5t-27 -41.5t-10 -49.5v-250h-95v545z" />
    <glyph glyph-name="Imacron" unicode="&#x12a;" horiz-adv-x="265" 
d="M80 700h105v-700h-105v700zM-10 875h285v-75h-285v75z" />
    <glyph glyph-name="imacron" unicode="&#x12b;" horiz-adv-x="225" 
d="M65 530h95v-530h-95v530zM-30 710h285v-75h-285v75z" />
    <glyph glyph-name="Ibreve" unicode="&#x12c;" horiz-adv-x="265" 
d="M80 700h105v-700h-105v700zM135 770q-30 0 -56.5 8t-47 24.5t-34 43t-17.5 64.5h80q4 -38 24.5 -54t50.5 -16t50.5 16t24.5 54h80q-4 -38 -17.5 -64.5t-34 -43t-47 -24.5t-56.5 -8z" />
    <glyph glyph-name="ibreve" unicode="&#x12d;" horiz-adv-x="225" 
d="M65 530h95v-530h-95v530zM115 605q-30 0 -56.5 8t-47 24.5t-34 43t-17.5 64.5h80q4 -38 24.5 -54t50.5 -16t50.5 16t24.5 54h80q-4 -38 -17.5 -64.5t-34 -43t-47 -24.5t-56.5 -8z" />
    <glyph glyph-name="Iogonek" unicode="&#x12e;" horiz-adv-x="265" 
d="M150 -200q-60 0 -87.5 27.5t-27.5 72.5q0 21 7 37t17.5 28t24 20.5t26.5 14.5h-30v700h105v-700q-38 -19 -56.5 -39.5t-18.5 -50.5q0 -19 12.5 -29.5t42.5 -10.5h25v-70h-40v0z" />
    <glyph glyph-name="iogonek" unicode="&#x12f;" horiz-adv-x="225" 
d="M105 -200q-60 0 -87.5 27.5t-27.5 72.5q0 21 7 37t17.5 28t24 20.5t26.5 14.5v530h95v-530h-20q-38 -19 -56.5 -39.5t-18.5 -50.5q0 -19 12.5 -29.5t42.5 -10.5h25v-70h-40zM113 590q-28 0 -45.5 17.5t-17.5 44.5q0 28 17.5 45.5t45.5 17.5q27 0 44.5 -17.5t17.5 -45.5
q0 -27 -17.5 -44.5t-44.5 -17.5z" />
    <glyph glyph-name="Idotaccent" unicode="&#x130;" horiz-adv-x="265" 
d="M80 700h105v-700h-105v700zM135 780q-26 0 -43 17t-17 43t17 43t43 17t43 -17t17 -43t-17 -43t-43 -17z" />
    <glyph glyph-name="dotlessi" unicode="&#x131;" horiz-adv-x="225" 
d="M65 530h95v-530h-95v530z" />
    <glyph glyph-name="uni0132" unicode="&#x132;" horiz-adv-x="775" 
d="M80 700h105v-700h-105v700zM470 -10q-98 0 -156.5 51.5t-73.5 153.5h105q11 -57 43 -83.5t82 -26.5q57 0 91 38t34 117v460h105v-460q0 -124 -62.5 -187t-167.5 -63z" />
    <glyph glyph-name="uni0133" unicode="&#x133;" horiz-adv-x="460" 
d="M65 530h95v-530h-95v530zM113 590q-28 0 -45.5 17.5t-17.5 44.5q0 28 17.5 45.5t45.5 17.5q27 0 44.5 -17.5t17.5 -45.5q0 -27 -17.5 -44.5t-44.5 -17.5zM165 -115h80q23 0 39 17t16 43v585h95v-590q0 -64 -38 -102t-102 -38h-90v85zM348 590q-28 0 -45.5 17.5
t-17.5 44.5q0 28 17.5 45.5t45.5 17.5q27 0 44.5 -17.5t17.5 -45.5q0 -27 -17.5 -44.5t-44.5 -17.5z" />
    <glyph glyph-name="Jcircumflex" unicode="&#x134;" horiz-adv-x="560" 
d="M255 -10q-98 0 -156.5 51.5t-73.5 153.5h105q11 -57 43 -83.5t82 -26.5q57 0 91 38t34 117v460h105v-460q0 -124 -62.5 -187t-167.5 -63zM395 915h75l130 -150h-90l-75 90h-5l-75 -90h-90z" />
    <glyph glyph-name="jcircumflex" unicode="&#x135;" horiz-adv-x="225" 
d="M-70 -115h80q23 0 39 17t16 43v585h95v-590q0 -64 -38 -102t-102 -38h-90v85zM75 750h75l130 -150h-90l-75 90h-5l-75 -90h-90z" />
    <glyph glyph-name="Kcommaaccent" unicode="&#x136;" horiz-adv-x="600" 
d="M80 700h105v-325l290 325h125l-310 -345l325 -355h-125l-305 335v-335h-105v700zM285 -85h95l-75 -165h-65z" />
    <glyph glyph-name="kcommaaccent" unicode="&#x137;" horiz-adv-x="515" 
d="M70 700h95v-415l230 245h120l-245 -260l260 -270h-120l-245 255v-255h-95v700zM235 -85h95l-75 -165h-65z" />
    <glyph glyph-name="Lacute" unicode="&#x139;" horiz-adv-x="550" 
d="M80 700h105v-605h345v-95h-450v700zM185 910h105l-115 -145h-80z" />
    <glyph glyph-name="lacute" unicode="&#x13a;" horiz-adv-x="235" 
d="M70 700h95v-700h-95v700zM170 910h105l-115 -145h-80z" />
    <glyph glyph-name="Lcommaaccent" unicode="&#x13b;" horiz-adv-x="550" 
d="M80 700h105v-605h345v-95h-450v700zM260 -85h95l-75 -165h-65z" />
    <glyph glyph-name="lcommaaccent" unicode="&#x13c;" horiz-adv-x="235" 
d="M70 700h95v-700h-95v700zM70 -85h95l-75 -165h-65z" />
    <glyph glyph-name="Lcaron" unicode="&#x13d;" horiz-adv-x="550" 
d="M80 700h105v-605h345v-95h-450v700z" />
    <glyph glyph-name="lcaron" unicode="&#x13e;" horiz-adv-x="320" 
d="M70 700h95v-700h-95v700z" />
    <glyph glyph-name="Ldot" unicode="&#x13f;" horiz-adv-x="550" 
d="M405 320q-30 0 -47.5 19.5t-17.5 45.5t17.5 45.5t47.5 19.5t47.5 -19.5t17.5 -45.5t-17.5 -45.5t-47.5 -19.5zM80 700h105v-605h345v-95h-450v700z" />
    <glyph glyph-name="ldot" unicode="&#x140;" horiz-adv-x="365" 
d="M300 290q-30 0 -47.5 19.5t-17.5 45.5t17.5 45.5t47.5 19.5t47.5 -19.5t17.5 -45.5t-17.5 -45.5t-47.5 -19.5zM70 700h95v-700h-95v700z" />
    <glyph glyph-name="Lslash" unicode="&#x141;" horiz-adv-x="560" 
d="M90 286l-85 -31v100l85 31v314h105v-276l155 56v-100l-155 -56v-229h345v-95h-450v286z" />
    <glyph glyph-name="lslash" unicode="&#x142;" horiz-adv-x="280" 
d="M90 285l-70 -30v100l70 30v315h95v-273l75 33v-100l-75 -33v-327h-95v285z" />
    <glyph glyph-name="Nacute" unicode="&#x143;" horiz-adv-x="740" 
d="M80 700h145l325 -560h5v560h105v-700h-145l-325 560h-5v-560h-105v700zM420 910h105l-115 -145h-80z" />
    <glyph glyph-name="nacute" unicode="&#x144;" horiz-adv-x="565" 
d="M65 530h75l15 -70h5q26 42 66 61t84 19q43 0 79 -15.5t61.5 -43.5t40 -67.5t14.5 -88.5v-325h-95v320q0 64 -33.5 97t-86.5 33q-28 0 -52 -10.5t-41 -28.5t-27 -41.5t-10 -49.5v-320h-95v530zM340 745h105l-115 -145h-80z" />
    <glyph glyph-name="Ncommaaccent" unicode="&#x145;" horiz-adv-x="740" 
d="M80 700h145l325 -560h5v560h105v-700h-145l-325 560h-5v-560h-105v700zM325 -85h95l-75 -165h-65z" />
    <glyph glyph-name="ncommaaccent" unicode="&#x146;" horiz-adv-x="565" 
d="M65 530h75l15 -70h5q26 42 66 61t84 19q43 0 79 -15.5t61.5 -43.5t40 -67.5t14.5 -88.5v-325h-95v320q0 64 -33.5 97t-86.5 33q-28 0 -52 -10.5t-41 -28.5t-27 -41.5t-10 -49.5v-320h-95v530zM240 -85h95l-75 -165h-65z" />
    <glyph glyph-name="Ncaron" unicode="&#x147;" horiz-adv-x="740" 
d="M80 700h145l325 -560h5v560h105v-700h-145l-325 560h-5v-560h-105v700zM205 915h90l75 -90h5l75 90h90l-130 -150h-75z" />
    <glyph glyph-name="ncaron" unicode="&#x148;" horiz-adv-x="565" 
d="M65 530h75l15 -70h5q26 42 66 61t84 19q43 0 79 -15.5t61.5 -43.5t40 -67.5t14.5 -88.5v-325h-95v320q0 64 -33.5 97t-86.5 33q-28 0 -52 -10.5t-41 -28.5t-27 -41.5t-10 -49.5v-320h-95v530zM125 745h90l75 -90h5l75 90h90l-130 -150h-75z" />
    <glyph glyph-name="napostrophe" unicode="&#x149;" horiz-adv-x="595" 
d="M95 530h75l15 -70h5q26 42 66 61t84 19q43 0 79 -15.5t61.5 -43.5t40 -67.5t14.5 -88.5v-325h-95v320q0 64 -33.5 97t-86.5 33q-28 0 -52 -10.5t-41 -28.5t-27 -41.5t-10 -49.5v-320h-95v530zM45 730h90l-70 -165h-65z" />
    <glyph glyph-name="Eng" unicode="&#x14a;" horiz-adv-x="740" 
d="M400 -115h45q110 0 110 110v5h-40l-325 560h-5v-560h-105v700h145l325 -560h5v560h105v-695q0 -113 -54 -166.5t-156 -53.5h-50v100z" />
    <glyph glyph-name="eng" unicode="&#x14b;" horiz-adv-x="565" 
d="M275 -115h75q26 0 43 17t17 44v374q0 64 -33.5 97t-86.5 33q-28 0 -52 -10.5t-41 -28.5t-27 -41.5t-10 -49.5v-320h-95v530h75l15 -70h5q26 42 66 61t84 19q43 0 79 -15.5t61.5 -43.5t40 -67.5t14.5 -88.5v-387q0 -63 -38.5 -100.5t-104.5 -37.5h-87v85z" />
    <glyph glyph-name="Omacron" unicode="&#x14c;" horiz-adv-x="730" 
d="M365 -10q-71 0 -130 23.5t-101 69t-65.5 113t-23.5 154.5t23.5 154t65.5 113t101 69.5t130 23.5q72 0 131 -23.5t101 -69.5t65 -113t23 -154t-23 -154.5t-65 -113t-101 -69t-131 -23.5zM365 85q47 0 86.5 17t68 50t44.5 82.5t16 115.5t-16 115.5t-44.5 82.5t-68 50
t-86.5 17t-86.5 -17t-68 -50t-44.5 -82.5t-16 -115.5t16 -115.5t44.5 -82.5t68 -50t86.5 -17zM225 875h285v-75h-285v75z" />
    <glyph glyph-name="omacron" unicode="&#x14d;" horiz-adv-x="570" 
d="M285 -10q-54 0 -99.5 18.5t-77.5 53.5t-50 86t-18 117t18 117t50 86t77.5 53.5t99.5 18.5t99.5 -18.5t77.5 -53.5t50 -86t18 -117t-18 -117t-50 -86t-77.5 -53.5t-99.5 -18.5zM285 80q32 0 59.5 11.5t47.5 34.5t31.5 57.5t11.5 81.5t-11.5 81.5t-31.5 57.5t-47.5 34.5
t-59.5 11.5t-59.5 -11.5t-47.5 -34.5t-31.5 -57.5t-11.5 -81.5t11.5 -81.5t31.5 -57.5t47.5 -34.5t59.5 -11.5zM145 710h285v-75h-285v75z" />
    <glyph glyph-name="Obreve" unicode="&#x14e;" horiz-adv-x="730" 
d="M365 -10q-71 0 -130 23.5t-101 69t-65.5 113t-23.5 154.5t23.5 154t65.5 113t101 69.5t130 23.5q72 0 131 -23.5t101 -69.5t65 -113t23 -154t-23 -154.5t-65 -113t-101 -69t-131 -23.5zM365 85q47 0 86.5 17t68 50t44.5 82.5t16 115.5t-16 115.5t-44.5 82.5t-68 50
t-86.5 17t-86.5 -17t-68 -50t-44.5 -82.5t-16 -115.5t16 -115.5t44.5 -82.5t68 -50t86.5 -17zM365 770q-30 0 -56.5 8t-47 24.5t-34 43t-17.5 64.5h80q4 -38 24.5 -54t50.5 -16t50.5 16t24.5 54h80q-4 -38 -17.5 -64.5t-34 -43t-47 -24.5t-56.5 -8z" />
    <glyph glyph-name="obreve" unicode="&#x14f;" horiz-adv-x="570" 
d="M285 -10q-54 0 -99.5 18.5t-77.5 53.5t-50 86t-18 117t18 117t50 86t77.5 53.5t99.5 18.5t99.5 -18.5t77.5 -53.5t50 -86t18 -117t-18 -117t-50 -86t-77.5 -53.5t-99.5 -18.5zM285 80q32 0 59.5 11.5t47.5 34.5t31.5 57.5t11.5 81.5t-11.5 81.5t-31.5 57.5t-47.5 34.5
t-59.5 11.5t-59.5 -11.5t-47.5 -34.5t-31.5 -57.5t-11.5 -81.5t11.5 -81.5t31.5 -57.5t47.5 -34.5t59.5 -11.5zM285 605q-30 0 -56.5 8t-47 24.5t-34 43t-17.5 64.5h80q4 -38 24.5 -54t50.5 -16t50.5 16t24.5 54h80q-4 -38 -17.5 -64.5t-34 -43t-47 -24.5t-56.5 -8z" />
    <glyph glyph-name="Ohungarumlaut" unicode="&#x150;" horiz-adv-x="730" 
d="M365 -10q-71 0 -130 23.5t-101 69t-65.5 113t-23.5 154.5t23.5 154t65.5 113t101 69.5t130 23.5q72 0 131 -23.5t101 -69.5t65 -113t23 -154t-23 -154.5t-65 -113t-101 -69t-131 -23.5zM365 85q47 0 86.5 17t68 50t44.5 82.5t16 115.5t-16 115.5t-44.5 82.5t-68 50
t-86.5 17t-86.5 -17t-68 -50t-44.5 -82.5t-16 -115.5t16 -115.5t44.5 -82.5t68 -50t86.5 -17zM335 910h105l-115 -145h-80zM500 910h105l-115 -145h-80z" />
    <glyph glyph-name="ohungarumlaut" unicode="&#x151;" horiz-adv-x="570" 
d="M285 -10q-54 0 -99.5 18.5t-77.5 53.5t-50 86t-18 117t18 117t50 86t77.5 53.5t99.5 18.5t99.5 -18.5t77.5 -53.5t50 -86t18 -117t-18 -117t-50 -86t-77.5 -53.5t-99.5 -18.5zM285 80q32 0 59.5 11.5t47.5 34.5t31.5 57.5t11.5 81.5t-11.5 81.5t-31.5 57.5t-47.5 34.5
t-59.5 11.5t-59.5 -11.5t-47.5 -34.5t-31.5 -57.5t-11.5 -81.5t11.5 -81.5t31.5 -57.5t47.5 -34.5t59.5 -11.5zM255 745h105l-115 -145h-80zM420 745h105l-115 -145h-80z" />
    <glyph glyph-name="OE" unicode="&#x152;" horiz-adv-x="1065" 
d="M355 -10q-66 0 -122.5 23.5t-98 69.5t-65.5 113t-24 154t24 154t65.5 113t98 69.5t122.5 23.5q72 0 125.5 -26.5t79.5 -68.5v85h445v-95h-340v-205h320v-95h-320v-210h350v-95h-455v85q-26 -42 -79.5 -68.5t-125.5 -26.5zM355 85q41 0 78.5 17t65.5 50t44.5 82.5
t16.5 115.5t-16.5 115.5t-44.5 82.5t-65.5 50t-78.5 17t-78.5 -17t-65.5 -50t-44.5 -82.5t-16.5 -115.5t16.5 -115.5t44.5 -82.5t65.5 -50t78.5 -17z" />
    <glyph glyph-name="oe" unicode="&#x153;" horiz-adv-x="940" 
d="M280 -10q-53 0 -97.5 18.5t-76 53.5t-49 86t-17.5 117t17.5 117t49 86t76 53.5t97.5 18.5q68 0 116 -27.5t74 -72.5q26 45 76 72.5t114 27.5q59 0 104 -22t75 -58t45.5 -80.5t15.5 -89.5q0 -11 -1 -21t-2 -18q-1 -9 -2 -16h-375q8 -75 46.5 -115t98.5 -40q42 0 71.5 15.5
t51.5 49.5h102q-26 -68 -82.5 -111.5t-142.5 -43.5q-68 0 -118.5 27.5t-76.5 72.5q-26 -45 -76 -72.5t-114 -27.5zM280 80q30 0 56.5 11.5t46 34.5t31 57.5t11.5 81.5t-11.5 81.5t-31 57.5t-46 34.5t-56.5 11.5t-56.5 -11.5t-46 -34.5t-31 -57.5t-11.5 -81.5t11.5 -81.5
t31 -57.5t46 -34.5t56.5 -11.5zM805 315q-11 64 -48 99.5t-97 35.5q-57 0 -93 -35.5t-47 -99.5h285z" />
    <glyph glyph-name="Racute" unicode="&#x154;" horiz-adv-x="640" 
d="M80 700h280q51 0 92.5 -15.5t71 -43.5t45.5 -67.5t16 -88.5q0 -54 -17.5 -93t-44 -65t-57 -39.5t-56.5 -17.5l190 -270h-120l-190 270h-105v-270h-105v700zM350 365q60 0 95 31.5t35 88.5t-35 88.5t-95 31.5h-165v-240h165zM365 910h105l-115 -145h-80z" />
    <glyph glyph-name="racute" unicode="&#x155;" horiz-adv-x="370" 
d="M65 530h75l15 -70h5q23 38 56.5 54t78.5 16h60v-90h-55q-64 0 -102 -36.5t-38 -93.5v-310h-95v530zM260 745h105l-115 -145h-80z" />
    <glyph glyph-name="Rcommaaccent" unicode="&#x156;" horiz-adv-x="640" 
d="M80 700h280q51 0 92.5 -15.5t71 -43.5t45.5 -67.5t16 -88.5q0 -54 -17.5 -93t-44 -65t-57 -39.5t-56.5 -17.5l190 -270h-120l-190 270h-105v-270h-105v700zM350 365q60 0 95 31.5t35 88.5t-35 88.5t-95 31.5h-165v-240h165zM275 -85h95l-75 -165h-65z" />
    <glyph glyph-name="rcommaaccent" unicode="&#x157;" horiz-adv-x="370" 
d="M65 530h75l15 -70h5q23 38 56.5 54t78.5 16h60v-90h-55q-64 0 -102 -36.5t-38 -93.5v-310h-95v530zM65 -85h95l-75 -165h-65z" />
    <glyph glyph-name="Rcaron" unicode="&#x158;" horiz-adv-x="640" 
d="M80 700h280q51 0 92.5 -15.5t71 -43.5t45.5 -67.5t16 -88.5q0 -54 -17.5 -93t-44 -65t-57 -39.5t-56.5 -17.5l190 -270h-120l-190 270h-105v-270h-105v700zM350 365q60 0 95 31.5t35 88.5t-35 88.5t-95 31.5h-165v-240h165zM155 915h90l75 -90h5l75 90h90l-130 -150h-75z
" />
    <glyph glyph-name="rcaron" unicode="&#x159;" horiz-adv-x="370" 
d="M65 530h75l15 -70h5q23 38 56.5 54t78.5 16h60v-90h-55q-64 0 -102 -36.5t-38 -93.5v-310h-95v530zM45 745h90l75 -90h5l75 90h90l-130 -150h-75z" />
    <glyph glyph-name="Sacute" unicode="&#x15a;" horiz-adv-x="595" 
d="M295 -10q-109 0 -179.5 53t-85.5 147h105q30 -105 160 -105q79 0 117 30.5t38 79.5q0 31 -17 50t-45.5 31t-64.5 20t-73.5 17.5t-73 23t-64 36t-45.5 56.5t-17 86q0 43 17 79t49 61.5t77.5 40t101.5 14.5q106 0 168.5 -48.5t81.5 -131.5h-105q-15 38 -50 61.5t-95 23.5
q-68 0 -104 -29t-36 -71q0 -44 30 -66.5t75 -36.5t97.5 -25t97.5 -32t75 -58t30 -102q0 -41 -17.5 -78.5t-51.5 -65.5t-83 -44.5t-113 -16.5zM355 910h105l-115 -145h-80z" />
    <glyph glyph-name="sacute" unicode="&#x15b;" horiz-adv-x="480" 
d="M240 -10q-87 0 -143.5 43.5t-71.5 111.5h105q11 -34 39.5 -49.5t70.5 -15.5q60 0 87.5 19.5t27.5 45.5q0 29 -23 43t-57.5 22.5t-74.5 17t-74.5 25.5t-57.5 47.5t-23 84.5q0 32 13 60t37 49t59.5 33.5t80.5 12.5q83 0 139 -40.5t71 -104.5h-105q-11 23 -35.5 39t-69.5 16
q-49 0 -72 -17.5t-23 -47.5q0 -29 23 -43.5t57.5 -23.5t74.5 -17.5t74.5 -25.5t57.5 -47.5t23 -82.5q0 -32 -14 -60t-40.5 -49t-65.5 -33.5t-90 -12.5zM290 745h105l-115 -145h-80z" />
    <glyph glyph-name="Scircumflex" unicode="&#x15c;" horiz-adv-x="595" 
d="M295 -10q-109 0 -179.5 53t-85.5 147h105q30 -105 160 -105q79 0 117 30.5t38 79.5q0 31 -17 50t-45.5 31t-64.5 20t-73.5 17.5t-73 23t-64 36t-45.5 56.5t-17 86q0 43 17 79t49 61.5t77.5 40t101.5 14.5q106 0 168.5 -48.5t81.5 -131.5h-105q-15 38 -50 61.5t-95 23.5
q-68 0 -104 -29t-36 -71q0 -44 30 -66.5t75 -36.5t97.5 -25t97.5 -32t75 -58t30 -102q0 -41 -17.5 -78.5t-51.5 -65.5t-83 -44.5t-113 -16.5zM265 915h75l130 -150h-90l-75 90h-5l-75 -90h-90z" />
    <glyph glyph-name="scircumflex" unicode="&#x15d;" horiz-adv-x="480" 
d="M240 -10q-87 0 -143.5 43.5t-71.5 111.5h105q11 -34 39.5 -49.5t70.5 -15.5q60 0 87.5 19.5t27.5 45.5q0 29 -23 43t-57.5 22.5t-74.5 17t-74.5 25.5t-57.5 47.5t-23 84.5q0 32 13 60t37 49t59.5 33.5t80.5 12.5q83 0 139 -40.5t71 -104.5h-105q-11 23 -35.5 39t-69.5 16
q-49 0 -72 -17.5t-23 -47.5q0 -29 23 -43.5t57.5 -23.5t74.5 -17.5t74.5 -25.5t57.5 -47.5t23 -82.5q0 -32 -14 -60t-40.5 -49t-65.5 -33.5t-90 -12.5zM205 750h75l130 -150h-90l-75 90h-5l-75 -90h-90z" />
    <glyph glyph-name="Scedilla" unicode="&#x15e;" horiz-adv-x="595" 
d="M225 -150h50q35 0 35 30t-35 30h-40v45l16 37q-91 10 -149 61.5t-72 136.5h105q30 -105 160 -105q79 0 117 30.5t38 79.5q0 31 -17 50t-45.5 31t-64.5 20t-73.5 17.5t-73 23t-64 36t-45.5 56.5t-17 86q0 43 17 79t49 61.5t77.5 40t101.5 14.5q106 0 168.5 -48.5
t81.5 -131.5h-105q-15 38 -50 61.5t-95 23.5q-68 0 -104 -29t-36 -71q0 -44 30 -66.5t75 -36.5t97.5 -25t97.5 -32t75 -58t30 -102q0 -39 -16 -74.5t-46.5 -63.5t-75 -45.5t-101.5 -20.5l-11 -26q34 -4 54.5 -27.5t20.5 -57.5q0 -42 -27.5 -68.5t-72.5 -26.5h-60v65z" />
    <glyph glyph-name="scedilla" unicode="&#x15f;" horiz-adv-x="480" 
d="M180 -150h50q35 0 35 30t-35 30h-40v45l16 37q-73 8 -120 50t-61 103h105q11 -34 39.5 -49.5t70.5 -15.5q60 0 87.5 19.5t27.5 45.5q0 29 -23 43t-57.5 22.5t-74.5 17t-74.5 25.5t-57.5 47.5t-23 84.5q0 32 13 60t37 49t59.5 33.5t80.5 12.5q83 0 139 -40.5t71 -104.5
h-105q-11 23 -35.5 39t-69.5 16q-49 0 -72 -17.5t-23 -47.5q0 -29 23 -43.5t57.5 -23.5t74.5 -17.5t74.5 -25.5t57.5 -47.5t23 -82.5q0 -29 -11.5 -55t-33.5 -46.5t-54.5 -34t-74.5 -17.5l-11 -27q34 -4 54.5 -27.5t20.5 -57.5q0 -42 -27.5 -68.5t-72.5 -26.5h-60v65z" />
    <glyph glyph-name="Scaron" unicode="&#x160;" horiz-adv-x="595" 
d="M295 -10q-109 0 -179.5 53t-85.5 147h105q30 -105 160 -105q79 0 117 30.5t38 79.5q0 31 -17 50t-45.5 31t-64.5 20t-73.5 17.5t-73 23t-64 36t-45.5 56.5t-17 86q0 43 17 79t49 61.5t77.5 40t101.5 14.5q106 0 168.5 -48.5t81.5 -131.5h-105q-15 38 -50 61.5t-95 23.5
q-68 0 -104 -29t-36 -71q0 -44 30 -66.5t75 -36.5t97.5 -25t97.5 -32t75 -58t30 -102q0 -41 -17.5 -78.5t-51.5 -65.5t-83 -44.5t-113 -16.5zM135 915h90l75 -90h5l75 90h90l-130 -150h-75z" />
    <glyph glyph-name="scaron" unicode="&#x161;" horiz-adv-x="480" 
d="M240 -10q-87 0 -143.5 43.5t-71.5 111.5h105q11 -34 39.5 -49.5t70.5 -15.5q60 0 87.5 19.5t27.5 45.5q0 29 -23 43t-57.5 22.5t-74.5 17t-74.5 25.5t-57.5 47.5t-23 84.5q0 32 13 60t37 49t59.5 33.5t80.5 12.5q83 0 139 -40.5t71 -104.5h-105q-11 23 -35.5 39t-69.5 16
q-49 0 -72 -17.5t-23 -47.5q0 -29 23 -43.5t57.5 -23.5t74.5 -17.5t74.5 -25.5t57.5 -47.5t23 -82.5q0 -32 -14 -60t-40.5 -49t-65.5 -33.5t-90 -12.5zM75 745h90l75 -90h5l75 90h90l-130 -150h-75z" />
    <glyph glyph-name="uni0162" unicode="&#x162;" horiz-adv-x="585" 
d="M245 -150h50q35 0 35 30t-35 30h-40v45l20 45h-35v605h-220v95h545v-95h-220v-605l-15 -35q34 -4 54.5 -27.5t20.5 -57.5q0 -42 -27.5 -68.5t-72.5 -26.5h-60v65z" />
    <glyph glyph-name="uni0163" unicode="&#x163;" horiz-adv-x="370" 
d="M140 -150h50q35 0 35 30t-35 30h-40v45l27 60q-34 17 -53 49.5t-19 75.5v300h-85v90h85l15 140h80v-140h130v-90h-130v-290q0 -26 14.5 -43t40.5 -17h75v-90h-90l-15 -35q34 -4 54.5 -27.5t20.5 -57.5q0 -42 -27.5 -68.5t-72.5 -26.5h-60v65z" />
    <glyph glyph-name="Tcaron" unicode="&#x164;" horiz-adv-x="585" 
d="M240 605h-220v95h545v-95h-220v-605h-105v605zM125 915h90l75 -90h5l75 90h90l-130 -150h-75z" />
    <glyph glyph-name="tcaron" unicode="&#x165;" horiz-adv-x="430" 
d="M245 0q-64 0 -102 39t-38 101v300h-85v90h85l15 140h80v-140h130v-90h-130v-290q0 -26 14.5 -43t40.5 -17h75v-90h-85v0z" />
    <glyph glyph-name="Tbar" unicode="&#x166;" horiz-adv-x="585" 
d="M240 385h-165v95h165v125h-220v95h545v-95h-220v-125h165v-95h-165v-385h-105v385z" />
    <glyph glyph-name="tbar" unicode="&#x167;" horiz-adv-x="370" 
d="M245 0q-64 0 -102 39t-38 101v130h-85v85h85v85h-85v90h85l15 140h80v-140h130v-90h-130v-85h130v-85h-130v-120q0 -26 14.5 -43t40.5 -17h75v-90h-85v0z" />
    <glyph glyph-name="Umacron" unicode="&#x16a;" horiz-adv-x="700" 
d="M350 -10q-128 0 -201.5 79t-73.5 226v405h105v-405q0 -102 47.5 -156t122.5 -54t122.5 54t47.5 156v405h105v-405q0 -147 -73.5 -226t-201.5 -79zM210 875h285v-75h-285v75z" />
    <glyph glyph-name="umacron" unicode="&#x16b;" horiz-adv-x="570" 
d="M260 -10q-43 0 -79 15.5t-61.5 43.5t-40 67.5t-14.5 88.5v325h95v-320q0 -64 33.5 -97t86.5 -33q28 0 52 10.5t41 28.5t27 41.5t10 49.5v320h95v-530h-75l-15 70h-5q-26 -42 -66 -61t-84 -19zM140 710h285v-75h-285v75z" />
    <glyph glyph-name="Ubreve" unicode="&#x16c;" horiz-adv-x="700" 
d="M350 -10q-128 0 -201.5 79t-73.5 226v405h105v-405q0 -102 47.5 -156t122.5 -54t122.5 54t47.5 156v405h105v-405q0 -147 -73.5 -226t-201.5 -79zM350 770q-30 0 -56.5 8t-47 24.5t-34 43t-17.5 64.5h80q4 -38 24.5 -54t50.5 -16t50.5 16t24.5 54h80q-4 -38 -17.5 -64.5
t-34 -43t-47 -24.5t-56.5 -8z" />
    <glyph glyph-name="ubreve" unicode="&#x16d;" horiz-adv-x="570" 
d="M260 -10q-43 0 -79 15.5t-61.5 43.5t-40 67.5t-14.5 88.5v325h95v-320q0 -64 33.5 -97t86.5 -33q28 0 52 10.5t41 28.5t27 41.5t10 49.5v320h95v-530h-75l-15 70h-5q-26 -42 -66 -61t-84 -19zM285 605q-30 0 -56.5 8t-47 24.5t-34 43t-17.5 64.5h80q4 -38 24.5 -54
t50.5 -16t50.5 16t24.5 54h80q-4 -38 -17.5 -64.5t-34 -43t-47 -24.5t-56.5 -8z" />
    <glyph glyph-name="Uring" unicode="&#x16e;" horiz-adv-x="700" 
d="M350 -10q-128 0 -201.5 79t-73.5 226v405h105v-405q0 -102 47.5 -156t122.5 -54t122.5 54t47.5 156v405h105v-405q0 -147 -73.5 -226t-201.5 -79zM350 750q-45 0 -72.5 27.5t-27.5 72.5t27.5 72.5t72.5 27.5t72.5 -27.5t27.5 -72.5t-27.5 -72.5t-72.5 -27.5zM350 810
q40 0 40 40t-40 40t-40 -40t40 -40z" />
    <glyph glyph-name="uring" unicode="&#x16f;" horiz-adv-x="570" 
d="M260 -10q-43 0 -79 15.5t-61.5 43.5t-40 67.5t-14.5 88.5v325h95v-320q0 -64 33.5 -97t86.5 -33q28 0 52 10.5t41 28.5t27 41.5t10 49.5v320h95v-530h-75l-15 70h-5q-26 -42 -66 -61t-84 -19zM285 585q-45 0 -72.5 27.5t-27.5 72.5t27.5 72.5t72.5 27.5t72.5 -27.5
t27.5 -72.5t-27.5 -72.5t-72.5 -27.5zM285 645q40 0 40 40t-40 40t-40 -40t40 -40z" />
    <glyph glyph-name="Uhungarumlaut" unicode="&#x170;" horiz-adv-x="700" 
d="M350 -10q-128 0 -201.5 79t-73.5 226v405h105v-405q0 -102 47.5 -156t122.5 -54t122.5 54t47.5 156v405h105v-405q0 -147 -73.5 -226t-201.5 -79zM320 910h105l-115 -145h-80zM485 910h105l-115 -145h-80z" />
    <glyph glyph-name="uhungarumlaut" unicode="&#x171;" horiz-adv-x="570" 
d="M260 -10q-43 0 -79 15.5t-61.5 43.5t-40 67.5t-14.5 88.5v325h95v-320q0 -64 33.5 -97t86.5 -33q28 0 52 10.5t41 28.5t27 41.5t10 49.5v320h95v-530h-75l-15 70h-5q-26 -42 -66 -61t-84 -19zM250 745h105l-115 -145h-80zM415 745h105l-115 -145h-80z" />
    <glyph glyph-name="Uogonek" unicode="&#x172;" horiz-adv-x="700" 
d="M390 -200q-60 0 -87.5 27.5t-27.5 72.5q0 35 17 56.5t39 34.5q-120 6 -188 84t-68 220v405h105v-405q0 -102 47.5 -156t122.5 -54t122.5 54t47.5 156v405h105v-405q0 -127 -54.5 -202.5t-152.5 -95.5q-34 -18 -51 -38t-17 -49q0 -19 12.5 -29.5t42.5 -10.5h25v-70h-40v0z
" />
    <glyph glyph-name="uogonek" unicode="&#x173;" horiz-adv-x="570" 
d="M470 -200q-60 0 -87.5 27.5t-27.5 72.5q0 21 7 37t17.5 28t24 20.5t26.5 14.5l-15 70h-5q-26 -42 -66 -61t-84 -19q-43 0 -79 15.5t-61.5 43.5t-40 67.5t-14.5 88.5v325h95v-320q0 -64 33.5 -97t86.5 -33q28 0 52 10.5t41 28.5t27 41.5t10 49.5v320h95v-530
q-38 -19 -56.5 -39.5t-18.5 -50.5q0 -19 12.5 -29.5t42.5 -10.5h25v-70h-40v0z" />
    <glyph glyph-name="Wcircumflex" unicode="&#x174;" horiz-adv-x="920" 
d="M10 700h110l135 -565h5l135 565h130l135 -565h5l135 565h110l-180 -700h-135l-133 560h-4l-133 -560h-135zM425 915h75l130 -150h-90l-75 90h-5l-75 -90h-90z" />
    <glyph glyph-name="wcircumflex" unicode="&#x175;" horiz-adv-x="755" 
d="M5 530h95l115 -405h5l105 405h105l105 -405h5l115 405h95l-150 -530h-115l-105 385h-5l-105 -385h-115zM335 750h75l130 -150h-90l-75 90h-5l-75 -90h-90z" />
    <glyph glyph-name="Ycircumflex" unicode="&#x176;" horiz-adv-x="585" 
d="M240 260l-245 440h110l185 -335h5l185 335h110l-245 -440v-260h-105v260zM255 915h75l130 -150h-90l-75 90h-5l-75 -90h-90z" />
    <glyph glyph-name="ycircumflex" unicode="&#x177;" horiz-adv-x="525" 
d="M215 0l-215 530h100l160 -405h5l160 405h100l-290 -730h-100zM225 750h75l130 -150h-90l-75 90h-5l-75 -90h-90z" />
    <glyph glyph-name="Ydieresis" unicode="&#x178;" horiz-adv-x="585" 
d="M240 260l-245 440h110l185 -335h5l185 335h110l-245 -440v-260h-105v260zM200 780q-26 0 -43 17t-17 43t17 43t43 17t43 -17t17 -43t-17 -43t-43 -17zM385 780q-26 0 -43 17t-17 43t17 43t43 17t43 -17t17 -43t-17 -43t-43 -17z" />
    <glyph glyph-name="Zacute" unicode="&#x179;" horiz-adv-x="580" 
d="M35 80l375 525h-365v95h495v-80l-375 -525h380v-95h-510v80zM340 910h105l-115 -145h-80z" />
    <glyph glyph-name="zacute" unicode="&#x17a;" horiz-adv-x="460" 
d="M30 75l275 365h-265v90h385v-75l-275 -365h280v-90h-400v75zM275 745h105l-115 -145h-80z" />
    <glyph glyph-name="Zdotaccent" unicode="&#x17b;" horiz-adv-x="580" 
d="M35 80l375 525h-365v95h495v-80l-375 -525h380v-95h-510v80zM295 780q-26 0 -43 17t-17 43t17 43t43 17t43 -17t17 -43t-17 -43t-43 -17z" />
    <glyph glyph-name="zdotaccent" unicode="&#x17c;" horiz-adv-x="460" 
d="M30 75l275 365h-265v90h385v-75l-275 -365h280v-90h-400v75zM230 615q-26 0 -43 17t-17 43t17 43t43 17t43 -17t17 -43t-17 -43t-43 -17z" />
    <glyph glyph-name="Zcaron" unicode="&#x17d;" horiz-adv-x="580" 
d="M35 80l375 525h-365v95h495v-80l-375 -525h380v-95h-510v80zM125 915h90l75 -90h5l75 90h90l-130 -150h-75z" />
    <glyph glyph-name="zcaron" unicode="&#x17e;" horiz-adv-x="460" 
d="M30 75l275 365h-265v90h385v-75l-275 -365h280v-90h-400v75zM60 745h90l75 -90h5l75 90h90l-130 -150h-75z" />
    <glyph glyph-name="uni018F" unicode="&#x18f;" horiz-adv-x="725" 
d="M360 -10q-69 0 -127 22.5t-100 67.5t-65 112.5t-23 157.5v35h529q-7 113 -65 171.5t-149 58.5q-68 0 -111 -28.5t-69 -81.5h-110q34 94 105.5 149.5t184.5 55.5q71 0 130 -23t101 -68.5t65.5 -113t23.5 -155.5t-24 -155.5t-66.5 -113t-101.5 -68.5t-128 -23zM360 85
q88 0 145.5 54t67.5 156h-422q7 -60 26 -100.5t46.5 -64.5t62.5 -34.5t74 -10.5z" />
    <glyph glyph-name="florin" unicode="&#x192;" horiz-adv-x="405" 
d="M-50 -90h55q30 0 45 13.5t20 36.5l85 400h-100l20 90h100l30 140q25 120 145 120h80l-20 -90h-55q-51 0 -60 -45l-27 -125h112l-20 -90h-111l-89 -420q-14 -64 -50 -92t-100 -28h-80z" />
    <glyph glyph-name="Gacute" unicode="&#x1f4;" horiz-adv-x="715" 
d="M365 -10q-71 0 -130 23t-101 68.5t-65.5 113t-23.5 155.5t23.5 155.5t65.5 113t101 68.5t130 23q112 0 184 -53.5t106 -151.5h-110q-26 57 -70 83.5t-110 26.5q-47 0 -86.5 -17t-68 -50t-44.5 -82.5t-16 -115.5t15.5 -115.5t44 -82.5t68 -50t87.5 -17t85 16t61.5 42
t38 59t15.5 68h-205v95h310v-45q0 -75 -21 -136t-60.5 -104t-96 -66.5t-127.5 -23.5zM410 910h105l-115 -145h-80z" />
    <glyph glyph-name="gacute" unicode="&#x1f5;" horiz-adv-x="590" 
d="M290 -200q-91 0 -152.5 43t-87.5 122h100q15 -38 51 -56.5t89 -18.5q64 0 102 30.5t38 94.5v85h-5q-23 -30 -63 -50t-97 -20q-49 0 -90 16.5t-71 49t-47 79.5t-17 109t17 110t47 80.5t71 49t90 16.5q56 0 98 -24t67 -56h5l15 70h75v-515q0 -102 -61 -158.5t-174 -56.5z
M280 120q32 0 59.5 11t47.5 32t31.5 51.5t11.5 69.5q0 40 -11.5 71t-31.5 52t-47.5 32t-59.5 11q-64 0 -104.5 -43t-40.5 -123q0 -78 40.5 -121t104.5 -43zM345 745h105l-115 -145h-80z" />
    <glyph glyph-name="Aringacute" unicode="&#x1fa;" horiz-adv-x="635" 
d="M320 735q-45 0 -72.5 27.5t-27.5 72.5q0 41 23 67.5t61 31.5l26 56h85l-46 -66q24 -12 37.5 -35t13.5 -54q0 -45 -27.5 -72.5t-72.5 -27.5zM320 795q40 0 40 40t-40 40t-40 -40t40 -40zM255 700h125l260 -700h-110l-58 160h-309l-58 -160h-110zM438 255l-118 325h-5
l-118 -325h241z" />
    <glyph glyph-name="aringacute" unicode="&#x1fb;" horiz-adv-x="530" 
d="M270 570q-45 0 -72.5 27.5t-27.5 72.5q0 42 23 68t62 31l25 61h85l-47 -71q24 -11 38 -34t14 -55q0 -45 -27.5 -72.5t-72.5 -27.5zM270 630q40 0 40 40t-40 40t-40 -40t40 -40zM215 -10q-41 0 -74.5 13t-57 35.5t-36 52.5t-12.5 64t13 64t38.5 52.5t63 35.5t85.5 13h140
v25q0 49 -31 77t-84 28q-45 0 -71 -19.5t-34 -45.5h-100q7 32 25.5 60t45 49t61 33.5t73.5 12.5q51 0 90 -14.5t65.5 -40t40.5 -61.5t14 -79v-345h-80l-10 65h-5q-8 -13 -22.5 -26.5t-35 -24t-46.5 -17.5t-56 -7zM230 75q68 0 106.5 36.5t38.5 93.5v30h-140
q-54 0 -79.5 -22.5t-25.5 -57.5q0 -37 26 -58.5t74 -21.5z" />
    <glyph glyph-name="AEacute" unicode="&#x1fc;" horiz-adv-x="940" 
d="M317 700h563v-95h-345v-205h325v-95h-325v-210h355v-95h-460v155h-265l-75 -155h-115zM430 250v345h-55l-165 -345h220zM540 910h105l-115 -145h-80z" />
    <glyph glyph-name="aeacute" unicode="&#x1fd;" horiz-adv-x="890" 
d="M215 -10q-41 0 -74.5 13t-57 35.5t-36 52.5t-12.5 64t13 63.5t38.5 51t63 33.5t85.5 12h140v30q0 49 -31 77t-84 28q-45 0 -71 -19.5t-34 -45.5h-100q7 32 25.5 60t45 49t61 33.5t73.5 12.5q68 0 112 -28.5t63 -66.5q30 42 74.5 68.5t102.5 26.5t102.5 -22t74.5 -58
t45.5 -80.5t15.5 -89.5q0 -11 -1 -21t-2 -18q-1 -9 -2 -16h-374q7 -75 45.5 -115t100.5 -40q40 0 70 15.5t51 49.5h102q-26 -68 -82 -111.5t-141 -43.5q-66 0 -116.5 27t-80.5 72q-23 -41 -72.5 -70t-132.5 -29zM230 75q68 0 106.5 36.5t38.5 93.5v25h-140
q-54 0 -79.5 -21.5t-25.5 -53.5q0 -37 26 -58.5t74 -21.5zM755 315q-9 64 -46.5 99.5t-96.5 35.5q-58 0 -95.5 -35.5t-45.5 -99.5h284zM495 745h105l-115 -145h-80z" />
    <glyph glyph-name="Oslashacute" unicode="&#x1fe;" horiz-adv-x="730" 
d="M152 64q-51 46 -79 117.5t-28 168.5q0 87 23.5 154t65.5 113t101 69.5t130 23.5q77 0 142 -28l25 43h98l-52 -89q51 -46 79 -117.5t28 -168.5q0 -87 -23 -154.5t-65 -113t-101 -69t-131 -23.5q-77 0 -142 28l-25 -43h-98zM458 595q-42 20 -93 20q-47 0 -86.5 -17t-68 -50
t-44.5 -82.5t-16 -115.5q0 -63 15 -112t41 -81zM365 85q47 0 86.5 17t68 50t44.5 82.5t16 115.5q0 63 -15 112t-41 81l-252 -438q42 -20 93 -20zM415 910h105l-115 -145h-80z" />
    <glyph glyph-name="oslashacute" unicode="&#x1ff;" horiz-adv-x="570" 
d="M107 62q-32 35 -49.5 86t-17.5 117t18 117t50 86t77.5 53.5t99.5 18.5q61 0 113 -25l22 35h95l-53 -82q32 -35 50 -86t18 -117t-18 -117t-50 -86t-77.5 -53.5t-99.5 -18.5q-32 0 -60 6.5t-53 17.5l-22 -34h-95zM348 437q-31 13 -63 13t-59.5 -11.5t-47.5 -34.5
t-31.5 -57.5t-11.5 -81.5q0 -37 7 -66t20 -51zM285 80q32 0 59.5 11.5t47.5 34.5t31.5 57.5t11.5 81.5q0 72 -28 117l-185 -289q27 -13 63 -13zM335 745h105l-115 -145h-80z" />
    <glyph glyph-name="Scommaaccent" unicode="&#x218;" horiz-adv-x="595" 
d="M295 -10q-109 0 -179.5 53t-85.5 147h105q30 -105 160 -105q79 0 117 30.5t38 79.5q0 31 -17 50t-45.5 31t-64.5 20t-73.5 17.5t-73 23t-64 36t-45.5 56.5t-17 86q0 43 17 79t49 61.5t77.5 40t101.5 14.5q106 0 168.5 -48.5t81.5 -131.5h-105q-15 38 -50 61.5t-95 23.5
q-68 0 -104 -29t-36 -71q0 -44 30 -66.5t75 -36.5t97.5 -25t97.5 -32t75 -58t30 -102q0 -41 -17.5 -78.5t-51.5 -65.5t-83 -44.5t-113 -16.5zM260 -85h95l-75 -165h-65z" />
    <glyph glyph-name="scommaaccent" unicode="&#x219;" horiz-adv-x="480" 
d="M240 -10q-87 0 -143.5 43.5t-71.5 111.5h105q11 -34 39.5 -49.5t70.5 -15.5q60 0 87.5 19.5t27.5 45.5q0 29 -23 43t-57.5 22.5t-74.5 17t-74.5 25.5t-57.5 47.5t-23 84.5q0 32 13 60t37 49t59.5 33.5t80.5 12.5q83 0 139 -40.5t71 -104.5h-105q-11 23 -35.5 39t-69.5 16
q-49 0 -72 -17.5t-23 -47.5q0 -29 23 -43.5t57.5 -23.5t74.5 -17.5t74.5 -25.5t57.5 -47.5t23 -82.5q0 -32 -14 -60t-40.5 -49t-65.5 -33.5t-90 -12.5zM200 -85h95l-75 -165h-65z" />
    <glyph glyph-name="uni021A" unicode="&#x21a;" horiz-adv-x="585" 
d="M240 605h-220v95h545v-95h-220v-605h-105v605zM245 -85h95l-75 -165h-65z" />
    <glyph glyph-name="uni021B" unicode="&#x21b;" horiz-adv-x="370" 
d="M245 0q-64 0 -102 39t-38 101v300h-85v90h85l15 140h80v-140h130v-90h-130v-290q0 -26 14.5 -43t40.5 -17h75v-90h-85v0zM170 -85h95l-75 -165h-65z" />
    <glyph glyph-name="uni0232" unicode="&#x232;" horiz-adv-x="585" 
d="M240 260l-245 440h110l185 -335h5l185 335h110l-245 -440v-260h-105v260zM150 875h285v-75h-285v75z" />
    <glyph glyph-name="uni0233" unicode="&#x233;" horiz-adv-x="525" 
d="M215 0l-215 530h100l160 -405h5l160 405h100l-290 -730h-100zM120 710h285v-75h-285v75z" />
    <glyph glyph-name="uni0244" unicode="&#x244;" horiz-adv-x="720" 
d="M360 -10q-128 0 -201.5 79t-73.5 226v135h-75v90h75v180h105v-180h340v180h105v-180h75v-90h-75v-135q0 -147 -73.5 -226t-201.5 -79zM360 85q75 0 122.5 54t47.5 156v135h-340v-135q0 -102 47.5 -156t122.5 -54z" />
    <glyph glyph-name="uni0259" unicode="&#x259;" horiz-adv-x="570" 
d="M285 -10q-60 0 -106 22t-76.5 58t-46.5 80.5t-16 89.5q0 11 0.5 21t1.5 18q1 9 3 16h386q-5 75 -46 115t-105 40q-42 0 -72 -15.5t-53 -49.5h-105q26 68 84.5 111.5t145.5 43.5q56 0 102 -18.5t79 -53.5t51 -86t18 -117t-18 -117t-50 -86t-77.5 -53.5t-99.5 -18.5z
M285 80q60 0 99 35.5t47 99.5h-293q9 -64 48 -99.5t99 -35.5z" />
    <glyph glyph-name="uni0289" unicode="&#x289;" horiz-adv-x="610" 
d="M280 -10q-43 0 -79 15.5t-61.5 43.5t-40 67.5t-14.5 88.5v150h-65v85h65v90h95v-90h250v90h95v-90h65v-85h-65v-355h-75l-15 70h-5q-26 -42 -66 -61t-84 -19zM300 80q28 0 52 10.5t41 28.5t27 41.5t10 49.5v145h-250v-145q0 -64 33.5 -97t86.5 -33z" />
    <glyph glyph-name="uni02BC" unicode="&#x2bc;" horiz-adv-x="195" 
d="M75 700h90l-70 -165h-65z" />
    <glyph glyph-name="circumflex" unicode="&#x2c6;" horiz-adv-x="395" 
d="M160 750h75l130 -150h-90l-75 90h-5l-75 -90h-90z" />
    <glyph glyph-name="caron" unicode="&#x2c7;" horiz-adv-x="395" 
d="M30 745h90l75 -90h5l75 90h90l-130 -150h-75z" />
    <glyph glyph-name="breve" unicode="&#x2d8;" horiz-adv-x="370" 
d="M185 605q-30 0 -56.5 8t-47 24.5t-34 43t-17.5 64.5h80q4 -38 24.5 -54t50.5 -16t50.5 16t24.5 54h80q-4 -38 -17.5 -64.5t-34 -43t-47 -24.5t-56.5 -8z" />
    <glyph glyph-name="dotaccent" unicode="&#x2d9;" horiz-adv-x="180" 
d="M90 615q-26 0 -43 17t-17 43t17 43t43 17t43 -17t17 -43t-17 -43t-43 -17z" />
    <glyph glyph-name="ring" unicode="&#x2da;" horiz-adv-x="260" 
d="M130 585q-45 0 -72.5 27.5t-27.5 72.5t27.5 72.5t72.5 27.5t72.5 -27.5t27.5 -72.5t-27.5 -72.5t-72.5 -27.5zM130 645q40 0 40 40t-40 40t-40 -40t40 -40z" />
    <glyph glyph-name="ogonek" unicode="&#x2db;" horiz-adv-x="215" 
d="M145 -200q-60 0 -87.5 27.5t-27.5 72.5q0 21 7 37t17.5 28t24 20.5t26.5 14.5v10h75v-10q-38 -19 -56.5 -39.5t-18.5 -50.5q0 -19 12.5 -29.5t42.5 -10.5h25v-70h-40v0z" />
    <glyph glyph-name="tilde" unicode="&#x2dc;" horiz-adv-x="380" 
d="M260 615q-21 0 -38 8t-31.5 17t-27 17t-23.5 8q-15 0 -22.5 -13t-7.5 -32h-80q0 53 22.5 84t67.5 31q21 0 38 -8t31.5 -17t27 -17t23.5 -8q15 0 22.5 13t7.5 32h80q0 -53 -22.5 -84t-67.5 -31z" />
    <glyph glyph-name="hungarumlaut" unicode="&#x2dd;" horiz-adv-x="420" 
d="M120 745h105l-115 -145h-80zM285 745h105l-115 -145h-80z" />
    <glyph glyph-name="acutecomb" unicode="&#x301;" horiz-adv-x="0" 
d="M-310 910h105l-115 -145h-80z" />
    <glyph glyph-name="uni0302" unicode="&#x302;" horiz-adv-x="0" 
d="M-390 915h75l130 -150h-90l-75 90h-5l-75 -90h-90z" />
    <glyph glyph-name="uni0304" unicode="&#x304;" horiz-adv-x="0" 
d="M-500 875h285v-75h-285v75z" />
    <glyph glyph-name="uni0306" unicode="&#x306;" horiz-adv-x="0" 
d="M-350 770q-30 0 -56.5 8t-47 24.5t-34 43t-17.5 64.5h80q4 -38 24.5 -54t50.5 -16t50.5 16t24.5 54h80q-4 -38 -17.5 -64.5t-34 -43t-47 -24.5t-56.5 -8z" />
    <glyph glyph-name="uni0307" unicode="&#x307;" horiz-adv-x="0" 
d="M-350 780q-26 0 -43 17t-17 43t17 43t43 17t43 -17t17 -43t-17 -43t-43 -17z" />
    <glyph glyph-name="uni0308" unicode="&#x308;" horiz-adv-x="0" 
d="M-445 780q-26 0 -43 17t-17 43t17 43t43 17t43 -17t17 -43t-17 -43t-43 -17zM-260 780q-26 0 -43 17t-17 43t17 43t43 17t43 -17t17 -43t-17 -43t-43 -17z" />
    <glyph glyph-name="uni030A" unicode="&#x30a;" horiz-adv-x="0" 
d="M-350 750q-45 0 -72.5 27.5t-27.5 72.5t27.5 72.5t72.5 27.5t72.5 -27.5t27.5 -72.5t-27.5 -72.5t-72.5 -27.5zM-350 810q40 0 40 40t-40 40t-40 -40t40 -40z" />
    <glyph glyph-name="uni030C" unicode="&#x30c;" horiz-adv-x="0" 
d="M-520 910h90l75 -90h5l75 90h90l-130 -150h-75z" />
    <glyph glyph-name="uni0326" unicode="&#x326;" horiz-adv-x="200" 
d="M75 -85h95l-75 -165h-65z" />
    <glyph glyph-name="uni0400" unicode="&#x400;" horiz-adv-x="590" 
d="M80 700h450v-95h-345v-205h325v-95h-325v-210h355v-95h-460v700zM160 910h105l90 -145h-80z" />
    <glyph glyph-name="uni0401" unicode="&#x401;" horiz-adv-x="590" 
d="M80 700h450v-95h-345v-205h325v-95h-325v-210h355v-95h-460v700zM220 780q-26 0 -43 17t-17 43t17 43t43 17t43 -17t17 -43t-17 -43t-43 -17zM405 780q-26 0 -43 17t-17 43t17 43t43 17t43 -17t17 -43t-17 -43t-43 -17z" />
    <glyph glyph-name="uni0402" unicode="&#x402;" horiz-adv-x="710" 
d="M175 605h-180v95h460v-95h-175v-185q13 6 30 11t36 9.5t38 7t36 2.5q56 0 101.5 -16.5t77.5 -46.5t49 -72.5t17 -94.5q0 -49 -16.5 -89.5t-47 -69.5t-74.5 -45t-99 -16h-58v95h45q68 0 106.5 30.5t38.5 94.5q0 68 -38.5 101.5t-106.5 33.5q-49 0 -84.5 -11t-50.5 -19
v-325h-105v605z" />
    <glyph glyph-name="uni0403" unicode="&#x403;" horiz-adv-x="510" 
d="M80 700h410v-95h-305v-605h-105v700zM335 910h105l-115 -145h-80z" />
    <glyph glyph-name="uni0404" unicode="&#x404;" horiz-adv-x="690" 
d="M365 -10q-71 0 -130 23t-101 68.5t-65.5 113t-23.5 155.5t23.5 155.5t65.5 113t101 68.5t130 23q112 0 184 -53.5t106 -151.5h-110q-26 57 -70 83.5t-110 26.5q-86 0 -144 -55.5t-69 -164.5h278v-90h-278q11 -110 68 -165t145 -55q66 0 110 26.5t70 83.5h110
q-34 -98 -106 -151.5t-184 -53.5z" />
    <glyph glyph-name="uni0405" unicode="&#x405;" horiz-adv-x="595" 
d="M295 -10q-109 0 -179.5 53t-85.5 147h105q30 -105 160 -105q79 0 117 30.5t38 79.5q0 31 -17 50t-45.5 31t-64.5 20t-73.5 17.5t-73 23t-64 36t-45.5 56.5t-17 86q0 43 17 79t49 61.5t77.5 40t101.5 14.5q106 0 168.5 -48.5t81.5 -131.5h-105q-15 38 -50 61.5t-95 23.5
q-68 0 -104 -29t-36 -71q0 -44 30 -66.5t75 -36.5t97.5 -25t97.5 -32t75 -58t30 -102q0 -41 -17.5 -78.5t-51.5 -65.5t-83 -44.5t-113 -16.5z" />
    <glyph glyph-name="uni0406" unicode="&#x406;" horiz-adv-x="265" 
d="M80 700h105v-700h-105v700z" />
    <glyph glyph-name="uni0407" unicode="&#x407;" horiz-adv-x="265" 
d="M80 700h105v-700h-105v700zM40 780q-26 0 -43 17t-17 43t17 43t43 17t43 -17t17 -43t-17 -43t-43 -17zM225 780q-26 0 -43 17t-17 43t17 43t43 17t43 -17t17 -43t-17 -43t-43 -17z" />
    <glyph glyph-name="uni0408" unicode="&#x408;" horiz-adv-x="560" 
d="M255 -10q-98 0 -156.5 51.5t-73.5 153.5h105q11 -57 43 -83.5t82 -26.5q57 0 91 38t34 117v460h105v-460q0 -124 -62.5 -187t-167.5 -63z" />
    <glyph glyph-name="uni0409" unicode="&#x409;" horiz-adv-x="1005" 
d="M10 95h10q32 0 54 14t35.5 49.5t19.5 96.5t6 155v290h445v-260h155q54 0 97.5 -17t74 -46.5t47 -69.5t16.5 -87t-16.5 -87t-47 -69.5t-74 -46.5t-97.5 -17h-260v605h-235v-200q0 -107 -9 -185t-33.5 -129t-67.5 -76t-110 -25h-10v105zM730 95q60 0 97.5 34t37.5 91
t-37.5 91t-97.5 34h-150v-250h150z" />
    <glyph glyph-name="uni040A" unicode="&#x40a;" horiz-adv-x="1035" 
d="M80 700h105v-280h320v280h105v-280h170q51 0 91.5 -15t69 -43t44 -66.5t15.5 -85.5t-15.5 -85.5t-44 -66.5t-69 -43t-91.5 -15h-275v325h-320v-325h-105v700zM775 95q57 0 88.5 31t31.5 84t-31.5 84t-88.5 31h-165v-230h165z" />
    <glyph glyph-name="uni040B" unicode="&#x40b;" horiz-adv-x="720" 
d="M175 605h-180v95h460v-95h-175v-185q23 11 62.5 20.5t77.5 9.5q113 0 171.5 -59.5t58.5 -180.5v-210h-105v210q0 79 -33 112t-97 33q-49 0 -84.5 -11t-50.5 -18v-326h-105v605z" />
    <glyph glyph-name="uni040C" unicode="&#x40c;" horiz-adv-x="600" 
d="M80 700h105v-325l290 325h125l-310 -345l325 -355h-125l-305 335v-335h-105v700zM375 910h105l-115 -145h-80z" />
    <glyph glyph-name="uni040D" unicode="&#x40d;" horiz-adv-x="735" 
d="M80 700h105v-565h5l323 565h142v-700h-105v565h-5l-323 -565h-142v700zM215 910h105l90 -145h-80z" />
    <glyph glyph-name="uni040E" unicode="&#x40e;" horiz-adv-x="575" 
d="M240 195l-240 505h115l175 -380h5l170 380h110l-315 -700h-110zM290 770q-30 0 -57.5 8t-49 24.5t-35.5 43t-18 64.5h80q4 -38 27 -54t53 -16t53 16t27 54h80q-4 -38 -18 -64.5t-35.5 -43t-49 -24.5t-57.5 -8z" />
    <glyph glyph-name="uni040F" unicode="&#x40f;" horiz-adv-x="700" 
d="M300 0h-220v700h105v-605h330v605h105v-700h-220v-145h-100v145z" />
    <glyph glyph-name="uni0410" unicode="&#x410;" horiz-adv-x="635" 
d="M255 700h125l260 -700h-110l-58 160h-309l-58 -160h-110zM438 255l-118 325h-5l-118 -325h241z" />
    <glyph glyph-name="uni0411" unicode="&#x411;" horiz-adv-x="625" 
d="M80 700h455v-95h-350v-175h175q52 0 94 -16t71 -44.5t44.5 -68t15.5 -86.5t-15.5 -86.5t-44.5 -68t-71 -44.5t-94 -16h-280v700zM350 95q64 0 97 33.5t33 86.5t-35 86.5t-95 33.5h-165v-240h165z" />
    <glyph glyph-name="uni0412" unicode="&#x412;" horiz-adv-x="655" 
d="M80 700h307q100 0 154 -52t54 -143q0 -51 -24 -91t-66 -59q42 -19 71 -60.5t29 -99.5q0 -91 -54 -143t-154 -52h-317v700zM390 95q49 0 79.5 28t30.5 77t-30.5 77t-79.5 28h-205v-210h205zM380 395q49 0 79.5 28t30.5 77t-30.5 77t-79.5 28h-195v-210h195z" />
    <glyph glyph-name="uni0413" unicode="&#x413;" horiz-adv-x="510" 
d="M80 700h410v-95h-305v-605h-105v700z" />
    <glyph glyph-name="uni0414" unicode="&#x414;" horiz-adv-x="695" 
d="M5 95h60q19 30 30.5 64t18 74t9 86.5t2.5 100.5v280h460v-605h85v-240h-95v145h-475v-145h-95v240zM480 95v510h-250v-185q0 -109 -13 -187t-47 -138h310z" />
    <glyph glyph-name="uni0415" unicode="&#x415;" horiz-adv-x="590" 
d="M80 700h450v-95h-345v-205h325v-95h-325v-210h355v-95h-460v700z" />
    <glyph glyph-name="uni0416" unicode="&#x416;" horiz-adv-x="865" 
d="M275 355l-275 345h120l260 -325v325h105v-325l260 325h120l-275 -345l290 -355h-120l-275 335v-335h-105v335l-275 -335h-120z" />
    <glyph glyph-name="uni0417" unicode="&#x417;" horiz-adv-x="605" 
d="M292 -10q-53 0 -98.5 13t-80 38.5t-56 62.5t-27.5 86h105q6 -26 20 -46t35 -33t46.5 -19.5t53.5 -6.5q83 0 121.5 30.5t38.5 79.5q0 45 -39 77.5t-121 32.5h-60v90h60q75 0 112.5 30.5t37.5 79.5t-39 79.5t-111 30.5q-57 0 -97 -28.5t-48 -81.5h-105q15 98 82 151.5
t170 53.5q63 0 110.5 -15t79 -42t47.5 -63.5t16 -79.5q0 -60 -30 -100t-75 -55q49 -19 82 -60t33 -105q0 -41 -17 -77.5t-50 -63.5t-82 -43t-114 -16z" />
    <glyph glyph-name="uni0418" unicode="&#x418;" horiz-adv-x="735" 
d="M80 700h105v-565h5l323 565h142v-700h-105v565h-5l-323 -565h-142v700z" />
    <glyph glyph-name="uni0419" unicode="&#x419;" horiz-adv-x="735" 
d="M80 700h105v-565h5l323 565h142v-700h-105v565h-5l-323 -565h-142v700zM372 770q-30 0 -57.5 8t-49 24.5t-35.5 43t-18 64.5h80q4 -38 27 -54t53 -16t53 16t27 54h80q-4 -38 -18 -64.5t-35.5 -43t-49 -24.5t-57.5 -8z" />
    <glyph glyph-name="uni041A" unicode="&#x41a;" horiz-adv-x="600" 
d="M80 700h105v-325l290 325h125l-310 -345l325 -355h-125l-305 335v-335h-105v700z" />
    <glyph glyph-name="uni041B" unicode="&#x41b;" horiz-adv-x="680" 
d="M10 95h10q32 0 54 14t35.5 49.5t19.5 96.5t6 155v290h465v-700h-105v605h-255v-200q0 -107 -9 -185t-33.5 -129t-67.5 -76t-110 -25h-10v105z" />
    <glyph glyph-name="uni041C" unicode="&#x41c;" horiz-adv-x="880" 
d="M80 700h160l198 -545h4l198 545h160v-700h-105v565h-5l-205 -565h-90l-205 565h-5v-565h-105v700z" />
    <glyph glyph-name="uni041D" unicode="&#x41d;" horiz-adv-x="710" 
d="M80 700h105v-300h340v300h105v-700h-105v305h-340v-305h-105v700z" />
    <glyph glyph-name="uni041E" unicode="&#x41e;" horiz-adv-x="730" 
d="M365 -10q-71 0 -130 23.5t-101 69t-65.5 113t-23.5 154.5t23.5 154t65.5 113t101 69.5t130 23.5q72 0 131 -23.5t101 -69.5t65 -113t23 -154t-23 -154.5t-65 -113t-101 -69t-131 -23.5zM365 85q47 0 86.5 17t68 50t44.5 82.5t16 115.5t-16 115.5t-44.5 82.5t-68 50
t-86.5 17t-86.5 -17t-68 -50t-44.5 -82.5t-16 -115.5t16 -115.5t44.5 -82.5t68 -50t86.5 -17z" />
    <glyph glyph-name="uni041F" unicode="&#x41f;" horiz-adv-x="700" 
d="M80 700h540v-700h-105v605h-330v-605h-105v700z" />
    <glyph glyph-name="uni0420" unicode="&#x420;" horiz-adv-x="630" 
d="M80 700h270q52 0 95.5 -17t74.5 -47t48 -71t17 -90t-17 -90t-48 -71t-74.5 -47t-95.5 -17h-165v-250h-105v700zM345 345q64 0 99.5 35t35.5 95t-35.5 95t-99.5 35h-160v-260h160z" />
    <glyph glyph-name="uni0421" unicode="&#x421;" horiz-adv-x="690" 
d="M365 -10q-71 0 -130 23t-101 68.5t-65.5 113t-23.5 155.5t23.5 155.5t65.5 113t101 68.5t130 23q112 0 184 -53.5t106 -151.5h-110q-26 57 -70 83.5t-110 26.5q-47 0 -86.5 -17t-68 -50t-44.5 -82.5t-16 -115.5t15.5 -115.5t44 -82.5t68 -50t87.5 -17q66 0 110 26.5
t70 83.5h110q-34 -98 -106 -151.5t-184 -53.5z" />
    <glyph glyph-name="uni0422" unicode="&#x422;" horiz-adv-x="585" 
d="M240 605h-220v95h545v-95h-220v-605h-105v605z" />
    <glyph glyph-name="uni0423" unicode="&#x423;" horiz-adv-x="575" 
d="M240 195l-240 505h115l175 -380h5l170 380h110l-315 -700h-110z" />
    <glyph glyph-name="uni0424" unicode="&#x424;" horiz-adv-x="815" 
d="M355 70q-75 0 -133.5 22t-99 60.5t-61.5 90.5t-21 112t21 112t61.5 90.5t99 60.5t133.5 22v70h105v-70q75 0 133.5 -22t99 -60.5t61.5 -90.5t21 -112t-21 -112t-61.5 -90.5t-99 -60.5t-133.5 -22v-80h-105v80zM355 545q-54 0 -94 -14t-65.5 -39.5t-38 -60.5t-12.5 -76
t12.5 -76t38 -60.5t65.5 -39.5t94 -14v380zM460 165q54 0 94 14t65.5 39.5t38 60.5t12.5 76t-12.5 76t-38 60.5t-65.5 39.5t-94 14v-380z" />
    <glyph glyph-name="uni0425" unicode="&#x425;" horiz-adv-x="610" 
d="M240 360l-230 340h120l175 -265l175 265h120l-230 -340l240 -360h-120l-185 285l-185 -285h-120z" />
    <glyph glyph-name="uni0426" unicode="&#x426;" horiz-adv-x="730" 
d="M610 0h-530v700h105v-605h330v605h105v-605h85v-240h-95v145z" />
    <glyph glyph-name="uni0427" unicode="&#x427;" horiz-adv-x="675" 
d="M490 260q-34 -19 -75 -27t-90 -8q-124 0 -189.5 66t-65.5 179v230h105v-230q0 -75 41.5 -112.5t113.5 -37.5q53 0 89.5 7.5t70.5 22.5v350h105v-700h-105v260z" />
    <glyph glyph-name="uni0428" unicode="&#x428;" horiz-adv-x="955" 
d="M80 700h105v-605h240v605h105v-605h240v605h105v-700h-795v700z" />
    <glyph glyph-name="uni0429" unicode="&#x429;" horiz-adv-x="985" 
d="M865 0h-785v700h105v-605h240v605h105v-605h240v605h105v-605h85v-240h-95v145z" />
    <glyph glyph-name="uni042A" unicode="&#x42a;" horiz-adv-x="700" 
d="M160 605h-160v95h265v-260h165q54 0 97.5 -17t74 -46.5t47 -69.5t16.5 -87t-16.5 -87t-47 -69.5t-74 -46.5t-97.5 -17h-270v605zM425 95q60 0 97.5 34t37.5 91t-37.5 91t-97.5 34h-160v-250h160z" />
    <glyph glyph-name="uni042B" unicode="&#x42b;" horiz-adv-x="845" 
d="M80 700h105v-260h155q54 0 97.5 -17t74 -46.5t47 -69.5t16.5 -87t-16.5 -87t-47 -69.5t-74 -46.5t-97.5 -17h-260v700zM335 95q60 0 97.5 34t37.5 91t-37.5 91t-97.5 34h-150v-250h150zM660 700h105v-700h-105v700z" />
    <glyph glyph-name="uni042C" unicode="&#x42c;" horiz-adv-x="620" 
d="M80 700h105v-260h165q54 0 97.5 -17t74 -46.5t47 -69.5t16.5 -87t-16.5 -87t-47 -69.5t-74 -46.5t-97.5 -17h-270v700zM345 95q60 0 97.5 34t37.5 91t-37.5 91t-97.5 34h-160v-250h160z" />
    <glyph glyph-name="uni042D" unicode="&#x42d;" horiz-adv-x="685" 
d="M320 -10q-112 0 -184 53.5t-106 151.5h110q26 -57 70 -83.5t110 -26.5q88 0 145 55t68 165h-278v90h278q-11 109 -69 164.5t-144 55.5q-66 0 -110 -26.5t-70 -83.5h-110q34 98 106 151.5t184 53.5q71 0 130 -23t101 -68.5t65.5 -113t23.5 -155.5t-23.5 -155.5t-65.5 -113
t-101 -68.5t-130 -23z" />
    <glyph glyph-name="uni042E" unicode="&#x42e;" horiz-adv-x="950" 
d="M595 -10q-63 0 -116.5 20t-93 60t-64 99t-30.5 136h-106v-305h-105v700h105v-300h107q6 76 30.5 134t64.5 97t92.5 59t115.5 20q67 0 123.5 -23t96.5 -68.5t62.5 -113t22.5 -155.5t-22.5 -155.5t-62.5 -113t-96.5 -68.5t-123.5 -23zM595 85q43 0 79.5 16t63.5 49t42 82.5
t15 117.5q0 67 -15 117t-42 83t-63.5 49t-79.5 16t-79.5 -16t-63.5 -49t-42 -83t-15 -117q0 -68 15 -117.5t42 -82.5t63.5 -49t79.5 -16z" />
    <glyph glyph-name="uni042F" unicode="&#x42f;" horiz-adv-x="640" 
d="M250 270q-28 2 -62 14t-63.5 37.5t-49.5 65.5t-20 98q0 47 16 86.5t46 68t72 44.5t94 16h277v-700h-105v270h-85l-205 -270h-125zM455 365v240h-165q-60 0 -95 -31.5t-35 -88.5t35 -88.5t95 -31.5h165z" />
    <glyph glyph-name="uni0430" unicode="&#x430;" horiz-adv-x="530" 
d="M215 -10q-41 0 -74.5 13t-57 35.5t-36 52.5t-12.5 64t13 64t38.5 52.5t63 35.5t85.5 13h140v25q0 49 -31 77t-84 28q-45 0 -71 -19.5t-34 -45.5h-100q7 32 25.5 60t45 49t61 33.5t73.5 12.5q51 0 90 -14.5t65.5 -40t40.5 -61.5t14 -79v-345h-80l-10 65h-5
q-8 -13 -22.5 -26.5t-35 -24t-46.5 -17.5t-56 -7zM230 75q68 0 106.5 36.5t38.5 93.5v30h-140q-54 0 -79.5 -22.5t-25.5 -57.5q0 -37 26 -58.5t74 -21.5z" />
    <glyph glyph-name="uni0431" unicode="&#x431;" horiz-adv-x="575" 
d="M290 -10q-54 0 -99.5 18t-77.5 54.5t-50 92t-18 130.5q0 210 67.5 307.5t202.5 97.5q60 0 110 10t80 25v-90q-60 -30 -180 -30q-87 0 -130.5 -47t-54.5 -138h5q26 34 65.5 54.5t99.5 20.5q49 0 90 -17.5t71 -49.5t47 -78.5t17 -104.5q0 -60 -17 -107.5t-49 -80t-77.5 -50
t-101.5 -17.5zM290 80q68 0 109 43t41 122t-41 122t-109 43t-106.5 -43.5t-38.5 -121.5q0 -79 38.5 -122t106.5 -43z" />
    <glyph glyph-name="uni0432" unicode="&#x432;" horiz-adv-x="520" 
d="M65 530h250q72 0 113.5 -40.5t41.5 -104.5q0 -84 -70 -115q34 -15 57 -45.5t23 -71.5q0 -74 -43 -113.5t-122 -39.5h-250v530zM310 90q38 0 56.5 17.5t18.5 47.5q0 70 -75 70h-150v-135h150zM305 315q34 0 52 17.5t18 47.5q0 26 -18 43t-52 17h-145v-125h145z" />
    <glyph glyph-name="uni0433" unicode="&#x433;" horiz-adv-x="425" 
d="M65 530h340v-90h-245v-440h-95v530z" />
    <glyph glyph-name="uni0434" unicode="&#x434;" horiz-adv-x="565" 
d="M5 90h51q13 21 21.5 43t13.5 48t7 58t2 71v220h375v-440h70v-210h-90v120h-360v-120h-90v210zM380 90v350h-185v-130q0 -39 -3 -71t-8.5 -58t-14 -48t-19.5 -43h230z" />
    <glyph glyph-name="uni0435" unicode="&#x435;" horiz-adv-x="570" 
d="M290 -10q-56 0 -102 18.5t-79 53.5t-51 86t-18 117t18 117t50 86t77.5 53.5t99.5 18.5q60 0 106 -22t76.5 -58t46.5 -80.5t16 -89.5q0 -11 -1 -21t-2 -18q-1 -9 -2 -16h-386q5 -75 46 -115t105 -40q42 0 72 15.5t53 49.5h105q-26 -68 -84.5 -111.5t-145.5 -43.5zM432 315
q-9 64 -48 99.5t-99 35.5t-99 -35.5t-47 -99.5h293z" />
    <glyph glyph-name="uni0436" unicode="&#x436;" horiz-adv-x="735" 
d="M215 270l-215 260h120l200 -245v245h95v-245l200 245h120l-215 -260l230 -270h-120l-215 255v-255h-95v255l-215 -255h-120z" />
    <glyph glyph-name="uni0437" unicode="&#x437;" horiz-adv-x="485" 
d="M243 -10q-93 0 -150 40t-68 115h100q8 -34 39 -49.5t76 -15.5q34 0 56 6t35 16t18.5 22.5t5.5 25.5q0 30 -26.5 50t-83.5 20h-50v85h50q49 0 74.5 20.5t25.5 54.5q0 26 -26 48t-79 22q-45 0 -71 -20t-34 -50h-98q10 72 61 116t142 44q49 0 86 -13t62.5 -35t38.5 -51
t13 -61q0 -21 -7 -39.5t-18 -33.5t-25.5 -25.5t-29.5 -16.5q38 -15 64 -45t26 -75q0 -32 -12.5 -60t-38 -49t-64.5 -33.5t-92 -12.5z" />
    <glyph glyph-name="uni0438" unicode="&#x438;" horiz-adv-x="580" 
d="M65 530h95v-400h5l230 400h120v-530h-95v400h-5l-230 -400h-120v530z" />
    <glyph glyph-name="uni0439" unicode="&#x439;" horiz-adv-x="580" 
d="M65 530h95v-400h5l230 400h120v-530h-95v400h-5l-230 -400h-120v530zM295 605q-60 0 -101 32.5t-49 107.5h80q8 -70 70 -70t70 70h80q-8 -75 -49 -107.5t-101 -32.5z" />
    <glyph glyph-name="uni043A" unicode="&#x43a;" horiz-adv-x="510" 
d="M65 530h95v-245l230 245h120l-245 -260l260 -270h-120l-245 255v-255h-95v530z" />
    <glyph glyph-name="uni043B" unicode="&#x43b;" horiz-adv-x="550" 
d="M10 85h15q22 0 37.5 11.5t25 38t13.5 70.5t4 110v215h380v-530h-95v440h-190v-130q0 -79 -7.5 -138.5t-27 -100t-52 -61t-83.5 -20.5h-20v95z" />
    <glyph glyph-name="uni043C" unicode="&#x43c;" horiz-adv-x="705" 
d="M65 530h140l145 -390h5l145 390h140v-530h-95v390h-5l-150 -390h-75l-150 390h-5v-390h-95v530z" />
    <glyph glyph-name="uni043D" unicode="&#x43d;" horiz-adv-x="565" 
d="M65 530h95v-220h245v220h95v-530h-95v220h-245v-220h-95v530z" />
    <glyph glyph-name="uni043E" unicode="&#x43e;" horiz-adv-x="570" 
d="M285 -10q-54 0 -99.5 18.5t-77.5 53.5t-50 86t-18 117t18 117t50 86t77.5 53.5t99.5 18.5t99.5 -18.5t77.5 -53.5t50 -86t18 -117t-18 -117t-50 -86t-77.5 -53.5t-99.5 -18.5zM285 80q32 0 59.5 11.5t47.5 34.5t31.5 57.5t11.5 81.5t-11.5 81.5t-31.5 57.5t-47.5 34.5
t-59.5 11.5t-59.5 -11.5t-47.5 -34.5t-31.5 -57.5t-11.5 -81.5t11.5 -81.5t31.5 -57.5t47.5 -34.5t59.5 -11.5z" />
    <glyph glyph-name="uni043F" unicode="&#x43f;" horiz-adv-x="565" 
d="M65 530h435v-530h-95v440h-245v-440h-95v530z" />
    <glyph glyph-name="uni0440" unicode="&#x440;" horiz-adv-x="590" 
d="M65 530h75l15 -70h5q26 34 67 57t98 23q49 0 90 -17.5t71 -52.5t47 -86.5t17 -118.5q0 -68 -17 -119t-47 -86t-71 -52.5t-90 -17.5q-60 0 -98.5 22.5t-61.5 52.5h-5v-265h-95v730zM310 80q64 0 104.5 45.5t40.5 139.5t-40.5 139.5t-104.5 45.5q-32 0 -59.5 -11.5
t-47.5 -34.5t-31.5 -57.5t-11.5 -81.5t11.5 -81.5t31.5 -57.5t47.5 -34.5t59.5 -11.5z" />
    <glyph glyph-name="uni0441" unicode="&#x441;" horiz-adv-x="550" 
d="M290 -10q-56 0 -102 18.5t-79 53.5t-51 86t-18 117t18 117t51 86t79 53.5t102 18.5q87 0 144.5 -44t80.5 -116h-100q-19 34 -49.5 52t-75.5 18q-68 0 -111.5 -47.5t-43.5 -137.5t43.5 -137.5t111.5 -47.5q45 0 75.5 18t49.5 52h100q-23 -72 -80.5 -116t-144.5 -44z" />
    <glyph glyph-name="uni0442" unicode="&#x442;" horiz-adv-x="465" 
d="M185 440h-175v90h445v-90h-175v-440h-95v440z" />
    <glyph glyph-name="uni0443" unicode="&#x443;" horiz-adv-x="525" 
d="M215 0l-215 530h100l160 -405h5l160 405h100l-290 -730h-100z" />
    <glyph glyph-name="uni0444" unicode="&#x444;" horiz-adv-x="705" 
d="M305 0q-62 0 -112 19.5t-85 55t-54 84t-19 106.5t19 106.5t54 84t85 55t112 19.5v190h95v-190q62 0 112 -19.5t85 -55t54 -84t19 -106.5t-19 -106.5t-54 -84t-85 -55t-112 -19.5v-200h-95v200zM305 440q-83 0 -129 -48t-46 -127t46 -127t129 -48v350zM400 90q83 0 129 48
t46 127t-46 127t-129 48v-350z" />
    <glyph glyph-name="uni0445" unicode="&#x445;" horiz-adv-x="470" 
d="M175 275l-170 255h105l125 -190l125 190h105l-170 -255l180 -275h-105l-135 210l-135 -210h-105z" />
    <glyph glyph-name="uni0446" unicode="&#x446;" horiz-adv-x="585" 
d="M475 0h-410v530h95v-440h240v440h95v-440h70v-210h-90v120z" />
    <glyph glyph-name="uni0447" unicode="&#x447;" horiz-adv-x="535" 
d="M375 185q-23 -11 -52.5 -18t-67.5 -7q-98 0 -149 51.5t-51 138.5v180h95v-180q0 -100 110 -100q34 0 61.5 5t53.5 20v255h95v-530h-95v185z" />
    <glyph glyph-name="uni0448" unicode="&#x448;" horiz-adv-x="785" 
d="M65 530h95v-440h185v440h95v-440h185v440h95v-530h-655v530z" />
    <glyph glyph-name="uni0449" unicode="&#x449;" horiz-adv-x="810" 
d="M700 0h-635v530h95v-440h185v440h95v-440h185v440h95v-440h70v-207h-90v117z" />
    <glyph glyph-name="uni044A" unicode="&#x44a;" horiz-adv-x="560" 
d="M130 440h-130v90h225v-190h135q37 0 68.5 -12.5t54 -35t35 -54t12.5 -68.5q0 -38 -12.5 -69t-35 -53.5t-54 -35t-68.5 -12.5h-230v440zM350 90q42 0 63.5 21t21.5 59t-21.5 59t-63.5 21h-125v-160h125z" />
    <glyph glyph-name="uni044B" unicode="&#x44b;" horiz-adv-x="685" 
d="M65 530h95v-190h130q37 0 68.5 -12.5t54 -35t35 -54t12.5 -68.5q0 -38 -12.5 -69t-35 -53.5t-54 -35t-68.5 -12.5h-225v530zM280 90q42 0 63.5 21t21.5 59t-21.5 59t-63.5 21h-120v-160h120zM525 530h95v-530h-95v530z" />
    <glyph glyph-name="uni044C" unicode="&#x44c;" horiz-adv-x="495" 
d="M65 530h95v-190h135q37 0 68.5 -12.5t54 -35t35 -54t12.5 -68.5q0 -38 -12.5 -69t-35 -53.5t-54 -35t-68.5 -12.5h-230v530zM285 90q42 0 63.5 21t21.5 59t-21.5 59t-63.5 21h-125v-160h125z" />
    <glyph glyph-name="uni044D" unicode="&#x44d;" horiz-adv-x="545" 
d="M255 -10q-87 0 -144.5 44t-80.5 116h100q19 -34 49.5 -52t75.5 -18q59 0 100 35.5t52 104.5h-192v85h193q-10 71 -51.5 108t-101.5 37q-45 0 -75.5 -18t-49.5 -52h-100q23 72 80.5 116t144.5 44q56 0 102 -18.5t79 -53.5t51 -86t18 -117t-18 -117t-51 -86t-79 -53.5
t-102 -18.5z" />
    <glyph glyph-name="uni044E" unicode="&#x44e;" horiz-adv-x="750" 
d="M475 -10q-48 0 -88.5 15.5t-70.5 44.5t-49 72t-25 98h-82v-220h-95v530h95v-220h82q6 55 25 98t49 72t70.5 44.5t88.5 15.5q52 0 95.5 -18.5t74.5 -53.5t48 -86t17 -117t-17 -117t-48 -86t-74.5 -53.5t-95.5 -18.5zM475 80q60 0 100 45.5t40 139.5t-40 139.5t-100 45.5
t-100 -45.5t-40 -139.5t40 -139.5t100 -45.5z" />
    <glyph glyph-name="uni044F" unicode="&#x44f;" horiz-adv-x="515" 
d="M180 195q-24 2 -48.5 14.5t-43.5 34t-31 51t-12 65.5q0 37 13.5 68.5t36.5 54t55 35t70 12.5h230v-530h-95v190h-70l-145 -190h-110zM355 280v160h-130q-42 0 -63.5 -21t-21.5 -59t21.5 -59t63.5 -21h130z" />
    <glyph glyph-name="uni0450" unicode="&#x450;" horiz-adv-x="570" 
d="M290 -10q-56 0 -102 18.5t-79 53.5t-51 86t-18 117t18 117t50 86t77.5 53.5t99.5 18.5q60 0 106 -22t76.5 -58t46.5 -80.5t16 -89.5q0 -11 -1 -21t-2 -18q-1 -9 -2 -16h-386q5 -75 46 -115t105 -40q42 0 72 15.5t53 49.5h105q-26 -68 -84.5 -111.5t-145.5 -43.5zM432 315
q-9 64 -48 99.5t-99 35.5t-99 -35.5t-47 -99.5h293zM135 745h105l90 -145h-80z" />
    <glyph glyph-name="uni0451" unicode="&#x451;" horiz-adv-x="570" 
d="M290 -10q-56 0 -102 18.5t-79 53.5t-51 86t-18 117t18 117t50 86t77.5 53.5t99.5 18.5q60 0 106 -22t76.5 -58t46.5 -80.5t16 -89.5q0 -11 -1 -21t-2 -18q-1 -9 -2 -16h-386q5 -75 46 -115t105 -40q42 0 72 15.5t53 49.5h105q-26 -68 -84.5 -111.5t-145.5 -43.5zM432 315
q-9 64 -48 99.5t-99 35.5t-99 -35.5t-47 -99.5h293zM200 615q-26 0 -43 17t-17 43t17 43t43 17t43 -17t17 -43t-17 -43t-43 -17zM385 615q-26 0 -43 17t-17 43t17 43t43 17t43 -17t17 -43t-17 -43t-43 -17z" />
    <glyph glyph-name="uni0452" unicode="&#x452;" horiz-adv-x="575" 
d="M280 -115h70q70 0 70 75v290q0 64 -33.5 97t-86.5 33q-28 0 -52 -10.5t-41 -28.5t-27 -41.5t-10 -49.5v-250h-95v545h-75v85h75v70h95v-70h140v-85h-140v-150h5q23 38 62 56.5t83 18.5q43 0 79 -15.5t61.5 -43.5t40 -67.5t14.5 -88.5v-305q0 -72 -40 -111t-115 -39h-80
v85z" />
    <glyph glyph-name="uni0453" unicode="&#x453;" horiz-adv-x="425" 
d="M65 530h340v-90h-245v-440h-95v530zM285 745h105l-115 -145h-80z" />
    <glyph glyph-name="uni0454" unicode="&#x454;" horiz-adv-x="550" 
d="M290 -10q-56 0 -102 18.5t-79 53.5t-51 86t-18 117t18 117t51 86t79 53.5t102 18.5q87 0 144.5 -44t80.5 -116h-100q-19 34 -49.5 52t-75.5 18q-60 0 -101.5 -37t-51.5 -108h193v-85h-192q11 -69 52 -104.5t100 -35.5q45 0 75.5 18t49.5 52h100q-23 -72 -80.5 -116
t-144.5 -44z" />
    <glyph glyph-name="uni0455" unicode="&#x455;" horiz-adv-x="480" 
d="M240 -10q-87 0 -143.5 43.5t-71.5 111.5h105q11 -34 39.5 -49.5t70.5 -15.5q60 0 87.5 19.5t27.5 45.5q0 29 -23 43t-57.5 22.5t-74.5 17t-74.5 25.5t-57.5 47.5t-23 84.5q0 32 13 60t37 49t59.5 33.5t80.5 12.5q83 0 139 -40.5t71 -104.5h-105q-11 23 -35.5 39t-69.5 16
q-49 0 -72 -17.5t-23 -47.5q0 -29 23 -43.5t57.5 -23.5t74.5 -17.5t74.5 -25.5t57.5 -47.5t23 -82.5q0 -32 -14 -60t-40.5 -49t-65.5 -33.5t-90 -12.5z" />
    <glyph glyph-name="uni0456" unicode="&#x456;" horiz-adv-x="225" 
d="M65 530h95v-530h-95v530zM113 590q-28 0 -45.5 17.5t-17.5 44.5q0 28 17.5 45.5t45.5 17.5q27 0 44.5 -17.5t17.5 -45.5q0 -27 -17.5 -44.5t-44.5 -17.5z" />
    <glyph glyph-name="uni0457" unicode="&#x457;" horiz-adv-x="225" 
d="M65 530h95v-530h-95v530zM20 615q-26 0 -43 17t-17 43t17 43t43 17t43 -17t17 -43t-17 -43t-43 -17zM205 615q-26 0 -43 17t-17 43t17 43t43 17t43 -17t17 -43t-17 -43t-43 -17z" />
    <glyph glyph-name="uni0458" unicode="&#x458;" horiz-adv-x="225" 
d="M-70 -115h80q23 0 39 17t16 43v585h95v-590q0 -64 -38 -102t-102 -38h-90v85zM113 590q-28 0 -45.5 17.5t-17.5 44.5q0 28 17.5 45.5t45.5 17.5q27 0 44.5 -17.5t17.5 -45.5q0 -27 -17.5 -44.5t-44.5 -17.5z" />
    <glyph glyph-name="uni0459" unicode="&#x459;" horiz-adv-x="805" 
d="M10 85h15q22 0 37.5 11.5t25 38t13.5 70.5t4 110v215h370v-190h130q37 0 68.5 -12.5t54 -35t35 -54t12.5 -68.5q0 -38 -12.5 -69t-35 -53.5t-54 -35t-68.5 -12.5h-225v440h-180v-130q0 -79 -7.5 -138.5t-27 -100t-52 -61t-83.5 -20.5h-20v95zM595 90q42 0 63.5 21
t21.5 59t-21.5 59t-63.5 21h-120v-160h120z" />
    <glyph glyph-name="uni045A" unicode="&#x45a;" horiz-adv-x="820" 
d="M65 530h95v-210h235v210h95v-210h135q39 0 70 -12.5t52 -34t32 -50.5t11 -63t-11 -63t-32 -50.5t-52 -34t-70 -12.5h-230v230h-235v-230h-95v530zM615 90q38 0 59 18t21 52t-21 52t-59 18h-125v-140h125z" />
    <glyph glyph-name="uni045B" unicode="&#x45b;" horiz-adv-x="575" 
d="M75 545h-75v85h75v70h95v-70h140v-85h-140v-150h5q23 38 62 56.5t83 18.5q43 0 79 -15.5t61.5 -43.5t40 -67.5t14.5 -88.5v-255h-95v250q0 64 -33.5 97t-86.5 33q-28 0 -52 -10.5t-41 -28.5t-27 -41.5t-10 -49.5v-250h-95v545z" />
    <glyph glyph-name="uni045C" unicode="&#x45c;" horiz-adv-x="510" 
d="M65 530h95v-245l230 245h120l-245 -260l260 -270h-120l-245 255v-255h-95v530zM325 745h105l-115 -145h-80z" />
    <glyph glyph-name="uni045D" unicode="&#x45d;" horiz-adv-x="580" 
d="M65 530h95v-400h5l230 400h120v-530h-95v400h-5l-230 -400h-120v530zM135 745h105l90 -145h-80z" />
    <glyph glyph-name="uni045E" unicode="&#x45e;" horiz-adv-x="525" 
d="M215 0l-215 530h100l160 -405h5l160 405h100l-290 -730h-100zM265 605q-60 0 -101 32.5t-49 107.5h80q8 -70 70 -70t70 70h80q-8 -75 -49 -107.5t-101 -32.5z" />
    <glyph glyph-name="uni045F" unicode="&#x45f;" horiz-adv-x="565" 
d="M235 0h-170v530h95v-440h245v440h95v-530h-170v-120h-95v120z" />
    <glyph glyph-name="uni0490" unicode="&#x490;" horiz-adv-x="510" 
d="M80 700h305v140h105v-235h-305v-605h-105v700z" />
    <glyph glyph-name="uni0491" unicode="&#x491;" horiz-adv-x="425" 
d="M65 530h245v120h95v-210h-245v-440h-95v530z" />
    <glyph glyph-name="uni0492" unicode="&#x492;" horiz-adv-x="565" 
d="M105 290h-90v95h90v315h440v-95h-335v-220h195v-95h-195v-290h-105v290z" />
    <glyph glyph-name="uni0493" unicode="&#x493;" horiz-adv-x="430" 
d="M80 210h-75v85h75v235h330v-90h-235v-145h165v-85h-165v-210h-95v210z" />
    <glyph glyph-name="uni0494" unicode="&#x494;" horiz-adv-x="620" 
d="M320 -35q79 0 122 42.5t43 127.5q0 36 -11 66t-31.5 52t-50.5 34.5t-67 12.5q-34 0 -60 -6t-44 -14q-21 -9 -36 -20v-260h-105v700h435v-95h-330v-250q16 11 39 20q20 8 47.5 14t63.5 6q60 0 107.5 -18t80 -52t50 -82t17.5 -108q0 -62 -18.5 -111t-53 -83.5t-84.5 -52.5
t-114 -18v95z" />
    <glyph glyph-name="uni0495" unicode="&#x495;" horiz-adv-x="505" 
d="M270 -110q49 0 82 38t33 117q0 75 -30.5 115t-94.5 40q-23 0 -41.5 -5t-31.5 -10q-16 -7 -27 -15v-170h-95v530h335v-90h-240v-180q12 8 29 15q14 5 34.5 10t46.5 5q47 0 85.5 -16t66.5 -46.5t43 -76.5t15 -106t-15 -106t-43 -76.5t-66.5 -46.5t-85.5 -16v90z" />
    <glyph glyph-name="uni0496" unicode="&#x496;" horiz-adv-x="875" 
d="M795 0h-35l-275 335v-335h-105v335l-275 -335h-120l290 355l-275 345h120l260 -325v325h105v-325l260 325h120l-275 -345l212 -260h88v-240h-95v145z" />
    <glyph glyph-name="uni0497" unicode="&#x497;" horiz-adv-x="740" 
d="M660 0h-30l-215 255v-255h-95v255l-215 -255h-120l230 270l-215 260h120l200 -245v245h95v-245l200 245h120l-215 -260l153 -180h77v-210h-90v120z" />
    <glyph glyph-name="uni049A" unicode="&#x49a;" horiz-adv-x="605" 
d="M525 0h-35l-305 335v-335h-105v700h105v-325l290 325h125l-310 -345l238 -260h92v-240h-95v145z" />
    <glyph glyph-name="uni049B" unicode="&#x49b;" horiz-adv-x="515" 
d="M435 0h-30l-245 255v-255h-95v530h95v-245l230 245h120l-245 -260l173 -180h87v-210h-90v120z" />
    <glyph glyph-name="uni049C" unicode="&#x49c;" horiz-adv-x="635" 
d="M80 700h105v-300h35v110h75v-110h20l195 300h120l-225 -345l240 -355h-120l-205 305h-25v-110h-75v110h-35v-305h-105v700z" />
    <glyph glyph-name="uni049D" unicode="&#x49d;" horiz-adv-x="530" 
d="M65 530h95v-215h30v80h70v-80h20l130 215h110l-160 -260l175 -270h-115l-140 225h-20v-80h-70v80h-30v-225h-95v530z" />
    <glyph glyph-name="uni04A2" unicode="&#x4a2;" horiz-adv-x="740" 
d="M620 0h-95v305h-340v-305h-105v700h105v-300h340v300h105v-605h85v-240h-95v145z" />
    <glyph glyph-name="uni04A3" unicode="&#x4a3;" horiz-adv-x="590" 
d="M480 0h-75v220h-245v-220h-95v530h95v-220h245v220h95v-440h70v-210h-90v120z" />
    <glyph glyph-name="uni04AA" unicode="&#x4aa;" horiz-adv-x="690" 
d="M315 -7q-61 7 -111 34t-85 72t-54.5 108t-19.5 143q0 88 23.5 155.5t65.5 113t101 68.5t130 23q112 0 184 -53.5t106 -151.5h-110q-26 57 -70 83.5t-110 26.5q-47 0 -86.5 -17t-68 -50t-44.5 -82.5t-16 -115.5t15.5 -115.5t44 -82.5t68 -50t87.5 -17q66 0 110 26.5
t70 83.5h110q-30 -87 -89.5 -139t-150.5 -63v-135h-100v135z" />
    <glyph glyph-name="uni04AB" unicode="&#x4ab;" horiz-adv-x="550" 
d="M245 -7q-94 14 -149.5 84t-55.5 188q0 66 18 117t51 86t79 53.5t102 18.5q87 0 144.5 -44t80.5 -116h-100q-19 34 -49.5 52t-75.5 18q-68 0 -111.5 -47.5t-43.5 -137.5t43.5 -137.5t111.5 -47.5q45 0 75.5 18t49.5 52h100q-20 -61 -64.5 -102.5t-110.5 -52.5v-115h-95
v113z" />
    <glyph glyph-name="uni04AE" unicode="&#x4ae;" horiz-adv-x="585" 
d="M240 260l-245 440h110l185 -335h5l185 335h110l-245 -440v-260h-105v260z" />
    <glyph glyph-name="uni04AF" unicode="&#x4af;" horiz-adv-x="515" 
d="M210 0h-15l-195 530h100l155 -425h5l155 425h100l-195 -530h-15v-200h-95v200z" />
    <glyph glyph-name="uni04B0" unicode="&#x4b0;" horiz-adv-x="585" 
d="M240 250h-155v95h110l-200 355h110l185 -335h5l185 335h110l-200 -355h110v-95h-155v-250h-105v250z" />
    <glyph glyph-name="uni04B1" unicode="&#x4b1;" horiz-adv-x="515" 
d="M210 0h-115v90h65l-160 440h100l155 -425h5l155 425h100l-160 -440h65v-90h-115v-200h-95v200z" />
    <glyph glyph-name="uni04B2" unicode="&#x4b2;" horiz-adv-x="615" 
d="M520 0h-30l-185 285l-185 -285h-120l240 360l-230 340h120l175 -265l175 265h120l-230 -340l176 -265h69v-240h-95v145z" />
    <glyph glyph-name="uni04B3" unicode="&#x4b3;" horiz-adv-x="490" 
d="M400 0h-30l-135 210l-135 -210h-105l180 275l-170 255h105l125 -190l125 190h105l-170 -255l121 -185h74v-210h-90v120z" />
    <glyph glyph-name="uni04B6" unicode="&#x4b6;" horiz-adv-x="705" 
d="M585 0h-95v260q-34 -19 -75 -27t-90 -8q-124 0 -189.5 66t-65.5 179v230h105v-230q0 -75 41.5 -112.5t113.5 -37.5q53 0 89.5 7.5t70.5 22.5v350h105v-605h85v-240h-95v145z" />
    <glyph glyph-name="uni04B7" unicode="&#x4b7;" horiz-adv-x="560" 
d="M450 0h-75v185q-23 -11 -52.5 -18t-67.5 -7q-98 0 -149 51.5t-51 138.5v180h95v-180q0 -100 110 -100q34 0 61.5 5t53.5 20v255h95v-440h70v-210h-90v120z" />
    <glyph glyph-name="uni04B8" unicode="&#x4b8;" horiz-adv-x="675" 
d="M490 260q-25 -14 -54 -22t-61 -11v-102h-85v101q-108 10 -164 74.5t-56 169.5v230h105v-230q0 -64 30.5 -100.5t84.5 -46.5v127h85v-129q35 3 62 10t53 19v350h105v-700h-105v260z" />
    <glyph glyph-name="uni04B9" unicode="&#x4b9;" horiz-adv-x="535" 
d="M375 185q-15 -8 -32.5 -13.5t-37.5 -8.5v-68h-70v65q-88 6 -134 57t-46 133v180h95v-180q0 -89 85 -99v79h70v-78q37 4 70 23v255h95v-530h-95v185z" />
    <glyph glyph-name="uni04BA" unicode="&#x4ba;" horiz-adv-x="670" 
d="M80 700h105v-260q34 19 75 27t90 8q62 0 109.5 -17t80 -49t49 -77.5t16.5 -101.5v-230h-105v230q0 75 -41.5 112.5t-113.5 37.5q-53 0 -89.5 -7.5t-70.5 -22.5v-350h-105v700z" />
    <glyph glyph-name="uni04BB" unicode="&#x4bb;" horiz-adv-x="570" 
d="M70 700h95v-235h5q23 38 62 56.5t83 18.5q43 0 79 -15.5t61.5 -43.5t40 -67.5t14.5 -88.5v-325h-95v320q0 64 -33.5 97t-86.5 33q-28 0 -52 -10.5t-41 -28.5t-27 -41.5t-10 -49.5v-320h-95v700z" />
    <glyph glyph-name="uni04C1" unicode="&#x4c1;" horiz-adv-x="865" 
d="M275 355l-275 345h120l260 -325v325h105v-325l260 325h120l-275 -345l290 -355h-120l-275 335v-335h-105v335l-275 -335h-120zM435 770q-30 0 -57.5 8t-49 24.5t-35.5 43t-18 64.5h80q4 -38 27 -54t53 -16t53 16t27 54h80q-4 -38 -18 -64.5t-35.5 -43t-49 -24.5t-57.5 -8
z" />
    <glyph glyph-name="uni04C2" unicode="&#x4c2;" horiz-adv-x="735" 
d="M215 270l-215 260h120l200 -245v245h95v-245l200 245h120l-215 -260l230 -270h-120l-215 255v-255h-95v255l-215 -255h-120zM370 605q-60 0 -101 32.5t-49 107.5h80q8 -70 70 -70t70 70h80q-8 -75 -49 -107.5t-101 -32.5z" />
    <glyph glyph-name="uni04D2" unicode="&#x4d2;" horiz-adv-x="635" 
d="M255 700h125l260 -700h-110l-58 160h-309l-58 -160h-110zM438 255l-118 325h-5l-118 -325h241zM225 780q-26 0 -43 17t-17 43t17 43t43 17t43 -17t17 -43t-17 -43t-43 -17zM410 780q-26 0 -43 17t-17 43t17 43t43 17t43 -17t17 -43t-17 -43t-43 -17z" />
    <glyph glyph-name="uni04D3" unicode="&#x4d3;" horiz-adv-x="530" 
d="M215 -10q-41 0 -74.5 13t-57 35.5t-36 52.5t-12.5 64t13 64t38.5 52.5t63 35.5t85.5 13h140v25q0 49 -31 77t-84 28q-45 0 -71 -19.5t-34 -45.5h-100q7 32 25.5 60t45 49t61 33.5t73.5 12.5q51 0 90 -14.5t65.5 -40t40.5 -61.5t14 -79v-345h-80l-10 65h-5
q-8 -13 -22.5 -26.5t-35 -24t-46.5 -17.5t-56 -7zM230 75q68 0 106.5 36.5t38.5 93.5v30h-140q-54 0 -79.5 -22.5t-25.5 -57.5q0 -37 26 -58.5t74 -21.5zM175 615q-26 0 -43 17t-17 43t17 43t43 17t43 -17t17 -43t-17 -43t-43 -17zM360 615q-26 0 -43 17t-17 43t17 43t43 17
t43 -17t17 -43t-17 -43t-43 -17z" />
    <glyph glyph-name="uni04D8" unicode="&#x4d8;" horiz-adv-x="725" 
d="M360 -10q-69 0 -127 22.5t-100 67.5t-65 112.5t-23 157.5v35h529q-7 113 -65 171.5t-149 58.5q-68 0 -111 -28.5t-69 -81.5h-110q34 94 105.5 149.5t184.5 55.5q71 0 130 -23t101 -68.5t65.5 -113t23.5 -155.5t-24 -155.5t-66.5 -113t-101.5 -68.5t-128 -23zM360 85
q88 0 145.5 54t67.5 156h-422q7 -60 26 -100.5t46.5 -64.5t62.5 -34.5t74 -10.5z" />
    <glyph glyph-name="uni04D9" unicode="&#x4d9;" horiz-adv-x="570" 
d="M285 -10q-60 0 -106 22t-76.5 58t-46.5 80.5t-16 89.5q0 11 0.5 21t1.5 18q1 9 3 16h386q-5 75 -46 115t-105 40q-42 0 -72 -15.5t-53 -49.5h-105q26 68 84.5 111.5t145.5 43.5q56 0 102 -18.5t79 -53.5t51 -86t18 -117t-18 -117t-50 -86t-77.5 -53.5t-99.5 -18.5z
M285 80q60 0 99 35.5t47 99.5h-293q9 -64 48 -99.5t99 -35.5z" />
    <glyph glyph-name="uni04E0" unicode="&#x4e0;" horiz-adv-x="605" 
d="M290 -10q-54 0 -99.5 13.5t-79.5 40t-54.5 64.5t-26.5 87h105q4 -24 17.5 -44.5t34 -35t47 -22.5t56.5 -8q79 0 117 34t38 91t-36 91t-119 34h-130v87l230 183h-340v95h485v-90l-230 -185h5q56 0 100.5 -15.5t75.5 -43.5t47.5 -67.5t16.5 -88.5q0 -45 -16 -85t-48.5 -70
t-81 -47.5t-114.5 -17.5z" />
    <glyph glyph-name="uni04E1" unicode="&#x4e1;" horiz-adv-x="500" 
d="M247 -200q-51 0 -92.5 14.5t-70.5 40.5t-45.5 63t-18.5 82h95q4 -49 40.5 -79.5t89.5 -30.5q63 0 96.5 34.5t33.5 100.5q0 68 -34 104t-106 36h-110v80l205 195h-285v90h410v-90l-200 -190q54 -2 94.5 -20t67.5 -48t40 -71t13 -89q0 -50 -14.5 -90.5t-43 -70t-70 -45.5
t-95.5 -16z" />
    <glyph glyph-name="uni04E2" unicode="&#x4e2;" horiz-adv-x="735" 
d="M80 700h105v-565h5l323 565h142v-700h-105v565h-5l-323 -565h-142v700zM225 875h285v-75h-285v75z" />
    <glyph glyph-name="uni04E3" unicode="&#x4e3;" horiz-adv-x="580" 
d="M65 530h95v-400h5l230 400h120v-530h-95v400h-5l-230 -400h-120v530zM150 710h285v-75h-285v75z" />
    <glyph glyph-name="uni04E6" unicode="&#x4e6;" horiz-adv-x="730" 
d="M365 -10q-71 0 -130 23.5t-101 69t-65.5 113t-23.5 154.5t23.5 154t65.5 113t101 69.5t130 23.5q72 0 131 -23.5t101 -69.5t65 -113t23 -154t-23 -154.5t-65 -113t-101 -69t-131 -23.5zM365 85q47 0 86.5 17t68 50t44.5 82.5t16 115.5t-16 115.5t-44.5 82.5t-68 50
t-86.5 17t-86.5 -17t-68 -50t-44.5 -82.5t-16 -115.5t16 -115.5t44.5 -82.5t68 -50t86.5 -17zM275 780q-26 0 -43 17t-17 43t17 43t43 17t43 -17t17 -43t-17 -43t-43 -17zM460 780q-26 0 -43 17t-17 43t17 43t43 17t43 -17t17 -43t-17 -43t-43 -17z" />
    <glyph glyph-name="uni04E7" unicode="&#x4e7;" horiz-adv-x="570" 
d="M285 -10q-54 0 -99.5 18.5t-77.5 53.5t-50 86t-18 117t18 117t50 86t77.5 53.5t99.5 18.5t99.5 -18.5t77.5 -53.5t50 -86t18 -117t-18 -117t-50 -86t-77.5 -53.5t-99.5 -18.5zM285 80q32 0 59.5 11.5t47.5 34.5t31.5 57.5t11.5 81.5t-11.5 81.5t-31.5 57.5t-47.5 34.5
t-59.5 11.5t-59.5 -11.5t-47.5 -34.5t-31.5 -57.5t-11.5 -81.5t11.5 -81.5t31.5 -57.5t47.5 -34.5t59.5 -11.5zM195 615q-26 0 -43 17t-17 43t17 43t43 17t43 -17t17 -43t-17 -43t-43 -17zM380 615q-26 0 -43 17t-17 43t17 43t43 17t43 -17t17 -43t-17 -43t-43 -17z" />
    <glyph glyph-name="uni04E8" unicode="&#x4e8;" horiz-adv-x="730" 
d="M365 -10q-71 0 -130 23.5t-101 69t-65.5 113t-23.5 154.5t23.5 154t65.5 113t101 69.5t130 23.5q72 0 131 -23.5t101 -69.5t65 -113t23 -154t-23 -154.5t-65 -113t-101 -69t-131 -23.5zM365 85q87 0 144.5 55.5t68.5 164.5h-426q11 -109 68.5 -164.5t144.5 -55.5z
M578 395q-11 109 -68.5 164.5t-144.5 55.5t-144.5 -55.5t-68.5 -164.5h426z" />
    <glyph glyph-name="uni04E9" unicode="&#x4e9;" horiz-adv-x="570" 
d="M285 -10q-54 0 -99.5 18.5t-77.5 53.5t-50 86t-18 117t18 117t50 86t77.5 53.5t99.5 18.5t99.5 -18.5t77.5 -53.5t50 -86t18 -117t-18 -117t-50 -86t-77.5 -53.5t-99.5 -18.5zM285 80q56 0 96 34t51 106h-294q11 -72 51 -106t96 -34zM432 310q-11 71 -51 105.5t-96 34.5
t-96 -34.5t-51 -105.5h294z" />
    <glyph glyph-name="uni04EE" unicode="&#x4ee;" horiz-adv-x="575" 
d="M240 195l-240 505h115l175 -380h5l170 380h110l-315 -700h-110zM145 875h285v-75h-285v75z" />
    <glyph glyph-name="uni04EF" unicode="&#x4ef;" horiz-adv-x="525" 
d="M215 0l-215 530h100l160 -405h5l160 405h100l-290 -730h-100zM120 710h285v-75h-285v75z" />
    <glyph glyph-name="uni04F0" unicode="&#x4f0;" horiz-adv-x="575" 
d="M240 195l-240 505h115l175 -380h5l170 380h110l-315 -700h-110zM200 780q-26 0 -43 17t-17 43t17 43t43 17t43 -17t17 -43t-17 -43t-43 -17zM385 780q-26 0 -43 17t-17 43t17 43t43 17t43 -17t17 -43t-17 -43t-43 -17z" />
    <glyph glyph-name="uni04F1" unicode="&#x4f1;" horiz-adv-x="525" 
d="M215 0l-215 530h100l160 -405h5l160 405h100l-290 -730h-100zM170 615q-26 0 -43 17t-17 43t17 43t43 17t43 -17t17 -43t-17 -43t-43 -17zM355 615q-26 0 -43 17t-17 43t17 43t43 17t43 -17t17 -43t-17 -43t-43 -17z" />
    <glyph glyph-name="Wgrave" unicode="&#x1e80;" horiz-adv-x="920" 
d="M10 700h110l135 -565h5l135 565h130l135 -565h5l135 565h110l-180 -700h-135l-133 560h-4l-133 -560h-135zM305 910h105l90 -145h-80z" />
    <glyph glyph-name="wgrave" unicode="&#x1e81;" horiz-adv-x="755" 
d="M5 530h95l115 -405h5l105 405h105l105 -405h5l115 405h95l-150 -530h-115l-105 385h-5l-105 -385h-115zM220 745h105l90 -145h-80z" />
    <glyph glyph-name="Wacute" unicode="&#x1e82;" horiz-adv-x="920" 
d="M10 700h110l135 -565h5l135 565h130l135 -565h5l135 565h110l-180 -700h-135l-133 560h-4l-133 -560h-135zM515 910h105l-115 -145h-80z" />
    <glyph glyph-name="wacute" unicode="&#x1e83;" horiz-adv-x="755" 
d="M5 530h95l115 -405h5l105 405h105l105 -405h5l115 405h95l-150 -530h-115l-105 385h-5l-105 -385h-115zM430 745h105l-115 -145h-80z" />
    <glyph glyph-name="Wdieresis" unicode="&#x1e84;" horiz-adv-x="920" 
d="M10 700h110l135 -565h5l135 565h130l135 -565h5l135 565h110l-180 -700h-135l-133 560h-4l-133 -560h-135zM370 780q-26 0 -43 17t-17 43t17 43t43 17t43 -17t17 -43t-17 -43t-43 -17zM555 780q-26 0 -43 17t-17 43t17 43t43 17t43 -17t17 -43t-17 -43t-43 -17z" />
    <glyph glyph-name="wdieresis" unicode="&#x1e85;" horiz-adv-x="755" 
d="M5 530h95l115 -405h5l105 405h105l105 -405h5l115 405h95l-150 -530h-115l-105 385h-5l-105 -385h-115zM285 615q-26 0 -43 17t-17 43t17 43t43 17t43 -17t17 -43t-17 -43t-43 -17zM470 615q-26 0 -43 17t-17 43t17 43t43 17t43 -17t17 -43t-17 -43t-43 -17z" />
    <glyph glyph-name="uni1E9E" unicode="&#x1e9e;" horiz-adv-x="675" 
d="M75 485q0 102 56 158.5t154 56.5h320v-90l-175 -190v-5q45 -2 82.5 -17.5t65 -42t42.5 -63.5t15 -82q0 -46 -15 -84.5t-43.5 -66.5t-70.5 -43.5t-96 -15.5h-105v95h95q68 0 99 31t31 84t-31.5 84t-103.5 31h-80v97l165 183h-190q-49 0 -79.5 -31.5t-30.5 -88.5v-485h-105
v485z" />
    <glyph glyph-name="Ygrave" unicode="&#x1ef2;" horiz-adv-x="585" 
d="M240 260l-245 440h110l185 -335h5l185 335h110l-245 -440v-260h-105v260zM135 910h105l90 -145h-80z" />
    <glyph glyph-name="ygrave" unicode="&#x1ef3;" horiz-adv-x="525" 
d="M215 0l-215 530h100l160 -405h5l160 405h100l-290 -730h-100zM105 745h105l90 -145h-80z" />
    <glyph glyph-name="endash" unicode="&#x2013;" horiz-adv-x="540" 
d="M30 325h480v-90h-480v90z" />
    <glyph glyph-name="emdash" unicode="&#x2014;" horiz-adv-x="780" 
d="M30 325h720v-90h-720v90z" />
    <glyph glyph-name="quoteleft" unicode="&#x2018;" horiz-adv-x="210" 
d="M105 700h75l-40 -205h-95z" />
    <glyph glyph-name="quoteright" unicode="&#x2019;" horiz-adv-x="210" 
d="M85 700h95l-60 -205h-75z" />
    <glyph glyph-name="quotesinglbase" unicode="&#x201a;" horiz-adv-x="210" 
d="M70 100h95l-60 -205h-75z" />
    <glyph glyph-name="quotedblleft" unicode="&#x201c;" horiz-adv-x="365" 
d="M105 700h75l-40 -205h-95zM260 700h75l-40 -205h-95z" />
    <glyph glyph-name="quotedblright" unicode="&#x201d;" horiz-adv-x="365" 
d="M85 700h95l-60 -205h-75zM240 700h95l-60 -205h-75z" />
    <glyph glyph-name="quotedblbase" unicode="&#x201e;" horiz-adv-x="365" 
d="M70 100h95l-60 -205h-75zM225 100h95l-60 -205h-75z" />
    <glyph glyph-name="dagger" unicode="&#x2020;" horiz-adv-x="470" 
d="M185 440h-130v95h130v165h100v-165h130v-95h-130v-440h-100v440z" />
    <glyph glyph-name="daggerdbl" unicode="&#x2021;" horiz-adv-x="470" 
d="M185 165h-130v95h130v180h-130v95h130v165h100v-165h130v-95h-130v-180h130v-95h-130v-165h-100v165z" />
    <glyph glyph-name="bullet" unicode="&#x2022;" horiz-adv-x="440" 
d="M220 180q-42 0 -71 29t-29 71t29 71t71 29t71 -29t29 -71t-29 -71t-71 -29z" />
    <glyph glyph-name="ellipsis" unicode="&#x2026;" horiz-adv-x="710" 
d="M110 -5q-30 0 -47.5 19.5t-17.5 45.5t17.5 45.5t47.5 19.5t47.5 -19.5t17.5 -45.5t-17.5 -45.5t-47.5 -19.5zM355 -5q-30 0 -47.5 19.5t-17.5 45.5t17.5 45.5t47.5 19.5t47.5 -19.5t17.5 -45.5t-17.5 -45.5t-47.5 -19.5zM600 -5q-30 0 -47.5 19.5t-17.5 45.5t17.5 45.5
t47.5 19.5t47.5 -19.5t17.5 -45.5t-17.5 -45.5t-47.5 -19.5z" />
    <glyph glyph-name="perthousand" unicode="&#x2030;" horiz-adv-x="1125" 
d="M545 700h100l-435 -700h-100zM560 -10q-36 0 -65.5 11.5t-50.5 33.5t-32.5 52t-11.5 68q0 37 11.5 67.5t32.5 52.5t50.5 33.5t65.5 11.5t65.5 -11.5t50.5 -33.5t32.5 -52.5t11.5 -67.5q0 -38 -11.5 -68t-32.5 -52t-50.5 -33.5t-65.5 -11.5zM560 65q38 0 59 24t21 66
t-21 66t-59 24t-59 -24t-21 -66t21 -66t59 -24zM930 -10q-36 0 -65.5 11.5t-50.5 33.5t-32.5 52t-11.5 68q0 37 11.5 67.5t32.5 52.5t50.5 33.5t65.5 11.5t65.5 -11.5t50.5 -33.5t32.5 -52.5t11.5 -67.5q0 -38 -11.5 -68t-32.5 -52t-50.5 -33.5t-65.5 -11.5zM930 65
q38 0 59 24t21 66t-21 66t-59 24t-59 -24t-21 -66t21 -66t59 -24zM195 380q-36 0 -65.5 11.5t-50.5 33.5t-32.5 52t-11.5 68q0 37 11.5 67.5t32.5 52.5t50.5 33.5t65.5 11.5t65.5 -11.5t50.5 -33.5t32.5 -52.5t11.5 -67.5q0 -38 -11.5 -68t-32.5 -52t-50.5 -33.5
t-65.5 -11.5zM195 455q38 0 59 24t21 66t-21 66t-59 24t-59 -24t-21 -66t21 -66t59 -24z" />
    <glyph glyph-name="guilsinglleft" unicode="&#x2039;" horiz-adv-x="395" 
d="M35 267l215 238h120l-215 -235v-6l215 -234h-120z" />
    <glyph glyph-name="guilsinglright" unicode="&#x203a;" horiz-adv-x="395" 
d="M240 264v6l-215 235h120l215 -238l-215 -237h-120z" />
    <glyph glyph-name="fraction" unicode="&#x2044;" horiz-adv-x="140" 
d="M245 700h85l-435 -700h-85z" />
    <glyph glyph-name="uni2070" unicode="&#x2070;" horiz-adv-x="390" 
d="M195 395q-72 0 -116 53.5t-44 151.5t44 151.5t116 53.5t116 -53.5t44 -151.5t-44 -151.5t-116 -53.5zM195 470q34 0 57 33t23 97t-23 97t-57 33t-57 -33t-23 -97t23 -97t57 -33z" />
    <glyph glyph-name="uni2074" unicode="&#x2074;" horiz-adv-x="340" 
d="M190 485h-180v70l160 245h100v-245h60v-70h-60v-85h-80v85zM190 555v145h-5l-95 -145h100z" />
    <glyph glyph-name="uni2075" unicode="&#x2075;" horiz-adv-x="345" 
d="M165 395q-57 0 -97 33t-48 82h85q4 -15 19 -27.5t41 -12.5q30 0 50 17.5t20 47.5q0 34 -20 52t-50 18q-23 0 -35 -9.5t-20 -20.5h-80l25 225h240v-75h-175l-10 -70h5q7 3 17 7q8 3 20.5 5.5t27.5 2.5q60 0 97.5 -35.5t37.5 -99.5q0 -30 -11 -55.5t-30.5 -44.5t-47 -29.5
t-61.5 -10.5z" />
    <glyph glyph-name="uni2076" unicode="&#x2076;" horiz-adv-x="350" 
d="M170 395q-36 0 -63.5 12t-47 32.5t-29.5 46.5t-10 54q0 38 10.5 68.5t24.5 51.5l95 140h90l-90 -130q3 1 7 2t10.5 2t17.5 1q30 0 55 -10.5t42.5 -29.5t27.5 -44.5t10 -55.5q0 -28 -11.5 -53.5t-31.5 -44.5t-47.5 -30.5t-59.5 -11.5zM170 470q34 0 52 20t18 50t-18 50
t-52 20t-52 -20t-18 -50t18 -50t52 -20z" />
    <glyph glyph-name="uni2077" unicode="&#x2077;" horiz-adv-x="300" 
d="M205 730h-170v70h255v-70l-140 -330h-85z" />
    <glyph glyph-name="uni2078" unicode="&#x2078;" horiz-adv-x="360" 
d="M180 395q-64 0 -104.5 31.5t-40.5 88.5q0 26 13 53t47 42q-23 11 -36.5 35t-13.5 50q0 45 35.5 77.5t99.5 32.5t99.5 -32.5t35.5 -77.5q0 -26 -13.5 -50t-36.5 -35q34 -15 47 -42t13 -53q0 -57 -40.5 -88.5t-104.5 -31.5zM180 470q30 0 47.5 16t17.5 40q0 22 -17.5 38
t-47.5 16t-47.5 -16t-17.5 -38q0 -24 17.5 -40t47.5 -16zM180 640q26 0 40.5 13.5t14.5 30.5q0 18 -14.5 32t-40.5 14t-40.5 -14t-14.5 -32q0 -17 14.5 -30.5t40.5 -13.5z" />
    <glyph glyph-name="uni2079" unicode="&#x2079;" horiz-adv-x="350" 
d="M200 530q-3 -2 -7 -3t-10.5 -1.5t-17.5 -0.5q-30 0 -55 10.5t-42.5 29.5t-27.5 44.5t-10 55.5q0 28 11.5 53.5t31.5 44.5t47.5 30.5t59.5 11.5q36 0 63.5 -12t47 -32.5t29.5 -46.5t10 -54q0 -38 -10.5 -68.5t-24.5 -51.5l-95 -140h-90zM180 590q34 0 52 20t18 50t-18 50
t-52 20t-52 -20t-18 -50t18 -50t52 -20z" />
    <glyph glyph-name="uni2080" unicode="&#x2080;" horiz-adv-x="390" 
d="M195 -105q-72 0 -116 53.5t-44 151.5t44 151.5t116 53.5t116 -53.5t44 -151.5t-44 -151.5t-116 -53.5zM195 -30q34 0 57 33t23 97t-23 97t-57 33t-57 -33t-23 -97t23 -97t57 -33z" />
    <glyph glyph-name="uni2081" unicode="&#x2081;" horiz-adv-x="260" 
d="M120 170h-90v75h65q25 0 25 25v30h80v-400h-80v270z" />
    <glyph glyph-name="uni2082" unicode="&#x2082;" horiz-adv-x="335" 
d="M35 -30l150 145q20 19 30 35t10 35t-14.5 32t-40.5 13q-34 0 -47 -15.5t-13 -34.5h-80q2 26 11.5 49t26.5 40t42.5 26.5t59.5 9.5q32 0 57 -9.5t42.5 -26t26.5 -38.5t9 -46q0 -32 -12 -56.5t-38 -48.5l-115 -110h160v-70h-265v70z" />
    <glyph glyph-name="uni2083" unicode="&#x2083;" horiz-adv-x="340" 
d="M163 -105q-59 0 -97 30.5t-46 79.5h80q14 -35 65 -35q30 0 42.5 16t12.5 39q0 45 -55 45h-40v70h40q30 0 40 13t10 32t-12.5 32t-42.5 13t-43 -15.5t-17 -34.5h-80q2 26 11.5 49t26.5 40t42.5 26.5t59.5 9.5q32 0 58 -9t44 -24t28 -35t10 -42q0 -34 -18 -56t-38 -31
q31 -14 46 -38t15 -50q0 -24 -9.5 -47t-27.5 -40t-44.5 -27.5t-60.5 -10.5z" />
    <glyph glyph-name="uni2084" unicode="&#x2084;" horiz-adv-x="340" 
d="M190 -15h-180v70l160 245h100v-245h60v-70h-60v-85h-80v85zM190 55v145h-5l-95 -145h100z" />
    <glyph glyph-name="uni2085" unicode="&#x2085;" horiz-adv-x="345" 
d="M165 -105q-57 0 -97 33t-48 82h85q4 -15 19 -27.5t41 -12.5q30 0 50 17.5t20 47.5q0 34 -20 52t-50 18q-23 0 -35 -9.5t-20 -20.5h-80l25 225h240v-75h-175l-10 -70h5q7 3 17 7q8 3 20.5 5.5t27.5 2.5q60 0 97.5 -35.5t37.5 -99.5q0 -30 -11 -55.5t-30.5 -44.5t-47 -29.5
t-61.5 -10.5z" />
    <glyph glyph-name="uni2086" unicode="&#x2086;" horiz-adv-x="350" 
d="M170 -105q-36 0 -63.5 12t-47 32.5t-29.5 46.5t-10 54q0 38 10.5 68.5t24.5 51.5l95 140h90l-90 -130q3 1 7 2t10.5 2t17.5 1q30 0 55 -10.5t42.5 -29.5t27.5 -44.5t10 -55.5q0 -28 -11.5 -53.5t-31.5 -44.5t-47.5 -30.5t-59.5 -11.5zM170 -30q34 0 52 20t18 50t-18 50
t-52 20t-52 -20t-18 -50t18 -50t52 -20z" />
    <glyph glyph-name="uni2087" unicode="&#x2087;" horiz-adv-x="300" 
d="M205 230h-170v70h255v-70l-140 -330h-85z" />
    <glyph glyph-name="uni2088" unicode="&#x2088;" horiz-adv-x="360" 
d="M180 -105q-64 0 -104.5 31.5t-40.5 88.5q0 26 13 53t47 42q-23 11 -36.5 35t-13.5 50q0 45 35.5 77.5t99.5 32.5t99.5 -32.5t35.5 -77.5q0 -26 -13.5 -50t-36.5 -35q34 -15 47 -42t13 -53q0 -57 -40.5 -88.5t-104.5 -31.5zM180 -30q30 0 47.5 16t17.5 40q0 22 -17.5 38
t-47.5 16t-47.5 -16t-17.5 -38q0 -24 17.5 -40t47.5 -16zM180 140q26 0 40.5 13.5t14.5 30.5q0 18 -14.5 32t-40.5 14t-40.5 -14t-14.5 -32q0 -17 14.5 -30.5t40.5 -13.5z" />
    <glyph glyph-name="uni2089" unicode="&#x2089;" horiz-adv-x="350" 
d="M200 30q-3 -2 -7 -3t-10.5 -1.5t-17.5 -0.5q-30 0 -55 10.5t-42.5 29.5t-27.5 44.5t-10 55.5q0 28 11.5 53.5t31.5 44.5t47.5 30.5t59.5 11.5q36 0 63.5 -12t47 -32.5t29.5 -46.5t10 -54q0 -38 -10.5 -68.5t-24.5 -51.5l-95 -140h-90zM180 90q34 0 52 20t18 50t-18 50
t-52 20t-52 -20t-18 -50t18 -50t52 -20z" />
    <glyph glyph-name="uni20A9" unicode="&#x20a9;" horiz-adv-x="960" 
d="M158 220h-138v90h118l-19 90h-99v90h80l-45 210h115l37 -210h157l46 210h140l46 -210h156l38 210h115l-45 -210h80v-90h-99l-20 -90h119v-90h-138l-47 -220h-140l-50 220h-171l-49 -220h-140zM280 110l24 110h-49l20 -110h5zM324 310l20 90h-121l16 -90h85zM545 310
l-20 90h-90l-20 -90h130zM685 110l19 110h-48l24 -110h5zM504 490l-22 100h-4l-23 -100h49zM720 310l16 90h-120l20 -90h84z" />
    <glyph glyph-name="Euro" unicode="&#x20ac;" horiz-adv-x="740" 
d="M425 -10q-117 0 -198 59t-109 176h-103v85h90v80h-90v85h103q28 117 109 176t198 59q106 0 174 -47t106 -138h-110q-26 45 -66 67.5t-104 22.5q-79 0 -130 -36t-70 -104h280v-85h-295v-80h295v-85h-280q19 -68 70 -104t130 -36q64 0 104 22.5t66 67.5h110
q-38 -91 -106 -138t-174 -47z" />
    <glyph glyph-name="uni20B4" unicode="&#x20b4;" horiz-adv-x="640" 
d="M320 -10q-54 0 -97.5 14t-74 37t-47 52.5t-16.5 61.5q0 19 5 40t20 40h-60v80h540v-80h-375q-11 -11 -18 -29t-7 -41q0 -34 35 -57t95 -23t92.5 20.5t47.5 54.5h105q-19 -79 -83 -124.5t-162 -45.5zM50 465h375q11 11 18 29t7 41q0 34 -35 57t-95 23t-92.5 -20.5
t-47.5 -54.5h-105q19 79 83 124.5t162 45.5q54 0 97.5 -14t74 -37t47 -52.5t16.5 -61.5q0 -19 -5 -40t-20 -40h60v-80h-540v80z" />
    <glyph glyph-name="uni20B8" unicode="&#x20b8;" horiz-adv-x="605" 
d="M250 440h-220v95h545v-95h-220v-440h-105v440zM30 700h545v-95h-545v95z" />
    <glyph glyph-name="uni20B9" unicode="&#x20b9;" horiz-adv-x="585" 
d="M189 255h-154v90h225q53 0 87.5 21.5t42.5 63.5h-355v90h355q-8 42 -42.5 66t-87.5 24h-225v90h520v-90h-110q11 -10 22 -23q9 -11 17 -27.5t11 -39.5h60v-90h-60q-11 -79 -60.5 -120.5t-124.5 -49.5l190 -260h-125z" />
    <glyph glyph-name="uni20BA" unicode="&#x20ba;" horiz-adv-x="585" 
d="M115 257l-90 -32v90l90 32v72l-90 -34v90l90 34v191h105v-152l150 57v-90l-150 -57v-73l150 55v-90l-150 -55v-200q64 0 108.5 7.5t73 24.5t42.5 46t16 72h100q-4 -66 -24 -112.5t-60.5 -76t-104.5 -43t-156 -13.5h-100v257z" />
    <glyph glyph-name="uni20BD" unicode="&#x20bd;" horiz-adv-x="645" 
d="M105 125h-85v90h85v65h-85v95h85v325h270q52 0 94 -15t71 -43t44.5 -66.5t15.5 -85.5t-15.5 -85.5t-44.5 -66.5t-71 -43t-94 -15h-165v-65h210v-90h-210v-125h-105v125zM370 375q60 0 92.5 31t32.5 84t-32.5 84t-92.5 31h-160v-230h160z" />
    <glyph glyph-name="uni20BF" unicode="&#x20bf;" horiz-adv-x="655" 
d="M170 0h-90v700h90v110h95v-110h80v110h95v-115q75 -13 115 -62.5t40 -127.5q0 -51 -24 -91t-66 -59q42 -19 71 -60.5t29 -99.5q0 -81 -42.5 -131t-122.5 -61v-113h-95v110h-80v-110h-95v110zM390 95q49 0 79.5 28t30.5 77t-30.5 77t-79.5 28h-205v-210h205zM380 395
q49 0 79.5 28t30.5 77t-30.5 77t-79.5 28h-195v-210h195z" />
    <glyph glyph-name="uni2113" unicode="&#x2113;" horiz-adv-x="420" 
d="M250 -10q-73 0 -109 36t-36 104v90q-12 -4 -26 -7q-12 -2 -28.5 -4t-35.5 -2v78q19 0 35.5 3t28.5 7q14 4 26 10v267q0 66 35.5 102t99.5 36t102 -42.5t38 -117.5q0 -57 -15 -104t-40.5 -83.5t-60.5 -64.5t-74 -48v-120q0 -60 70 -60q13 0 24 2t19 4q10 3 17 6v-82
q-7 -3 -18 -5q-20 -5 -52 -5zM190 345q49 32 77 82.5t28 119.5q0 40 -15 61.5t-40 21.5q-23 0 -36.5 -15.5t-13.5 -49.5v-220z" />
    <glyph glyph-name="uni2116" unicode="&#x2116;" horiz-adv-x="1105" 
d="M80 700h145l325 -560h5v560h105v-700h-145l-325 560h-5v-560h-105v700zM750 90h300v-90h-300v90zM900 150q-36 0 -65.5 11.5t-50.5 33.5t-32.5 52t-11.5 68q0 37 11.5 67.5t32.5 52.5t50.5 33.5t65.5 11.5t65.5 -11.5t50.5 -33.5t32.5 -52.5t11.5 -67.5q0 -38 -11.5 -68
t-32.5 -52t-50.5 -33.5t-65.5 -11.5zM900 225q34 0 57 24t23 66t-23 66t-57 24t-57 -24t-23 -66t23 -66t57 -24z" />
    <glyph glyph-name="uni2117" unicode="&#x2117;" horiz-adv-x="830" 
d="M415 -10q-79 0 -145 26.5t-114 74.5t-74.5 114t-26.5 145t26.5 145t74.5 114t114 74.5t145 26.5t145 -26.5t114 -74.5t74.5 -114t26.5 -145t-26.5 -145t-74.5 -114t-114 -74.5t-145 -26.5zM415 65q60 0 111 20.5t88.5 58t59 90t21.5 116.5t-21.5 116.5t-59 90t-88.5 58
t-111 20.5t-111.5 -20.5t-89 -58t-58.5 -90t-21 -116.5t21 -116.5t58.5 -90t89 -58t111.5 -20.5zM290 540h152q35 0 60.5 -9.5t42 -26.5t24.5 -40t8 -49q0 -55 -32.5 -91.5t-102.5 -36.5h-77v-122h-75v375zM435 352q29 0 48 14.5t19 48.5q0 28 -16.5 44t-50.5 16h-70v-123
h70z" />
    <glyph glyph-name="trademark" unicode="&#x2122;" horiz-adv-x="735" 
d="M115 630h-95v70h265v-70h-95v-240h-75v240zM320 700h110l63 -215h4l63 215h110v-310h-75v200h-5l-60 -200h-70l-60 200h-5v-200h-75v310z" />
    <glyph glyph-name="uni2126" unicode="&#x2126;" horiz-adv-x="815" 
d="M90 80h120q-42 25 -75 65q-29 35 -52 90t-23 135q0 75 23.5 137.5t68.5 107.5t109.5 70t145.5 25q82 0 146.5 -25t109.5 -70t68.5 -107.5t23.5 -137.5q0 -80 -23.5 -135t-51.5 -90q-33 -40 -75 -65h120v-80h-250v80q53 26 95 66q18 17 35 39t30.5 49.5t21.5 60t8 70.5
q0 58 -18 106.5t-51.5 84t-81.5 55t-107 19.5q-61 0 -108.5 -19.5t-80.5 -55t-50.5 -84t-17.5 -106.5q0 -38 8 -70.5t21.5 -60t30.5 -49.5t35 -39q41 -40 95 -66v-80h-250v80z" />
    <glyph glyph-name="estimated" unicode="&#x212e;" horiz-adv-x="850" 
d="M440 -20q-83 0 -152.5 28t-120 77t-79 114.5t-28.5 140.5t28.5 140.5t78 114.5t117 77t146.5 28t146.5 -28t117 -77t78 -114.5t28.5 -140.5v-5h-576q-14 0 -14 -15v-196q0 -5 0.5 -13t4.5 -17t12 -18.5t23 -18.5q4 -2 17.5 -10.5t37.5 -17.5t57.5 -16.5t77.5 -7.5
q66 0 115 20.5t83 46.5q39 30 67 68h55q-33 -45 -81 -80q-41 -30 -100.5 -55t-138.5 -25zM635 360q15 0 15 15v185q0 4 -0.5 11.5t-4.5 16.5t-12 19t-23 19q-6 4 -21.5 12t-39 16t-54 14.5t-65.5 6.5q-36 0 -66.5 -6.5t-54 -14.5t-38.5 -16.5t-21 -11.5q-15 -9 -23 -19
t-12 -19t-4.5 -16.5t-0.5 -11.5v-185q0 -15 14 -15h411z" />
    <glyph glyph-name="uni2150" unicode="&#x2150;" horiz-adv-x="770" 
d="M525 700h85l-435 -700h-85zM125 570h-90v75h65q25 0 25 25v30h80v-400h-80v270zM645 330h-170v70h255v-70l-140 -330h-85z" />
    <glyph glyph-name="uni2151" unicode="&#x2151;" horiz-adv-x="785" 
d="M525 700h85l-435 -700h-85zM125 570h-90v75h65q25 0 25 25v30h80v-400h-80v270zM615 130q-3 -2 -7 -3t-10.5 -1.5t-17.5 -0.5q-30 0 -55 10.5t-42.5 29.5t-27.5 44.5t-10 55.5q0 28 11.5 53.5t31.5 44.5t47.5 30.5t59.5 11.5q36 0 63.5 -12t47 -32.5t29.5 -46.5t10 -54
q0 -38 -10.5 -68.5t-24.5 -51.5l-95 -140h-90zM595 190q34 0 52 20t18 50t-18 50t-52 20t-52 -20t-18 -50t18 -50t52 -20z" />
    <glyph glyph-name="uni2152" unicode="&#x2152;" horiz-adv-x="1035" 
d="M525 700h85l-435 -700h-85zM125 570h-90v75h65q25 0 25 25v30h80v-400h-80v270zM550 270h-90v75h65q25 0 25 25v30h80v-400h-80v270zM835 -5q-72 0 -116 53.5t-44 151.5t44 151.5t116 53.5t116 -53.5t44 -151.5t-44 -151.5t-116 -53.5zM835 70q34 0 57 33t23 97t-23 97
t-57 33t-57 -33t-23 -97t23 -97t57 -33z" />
    <glyph glyph-name="onethird" unicode="&#x2153;" horiz-adv-x="780" 
d="M525 700h85l-435 -700h-85zM125 570h-90v75h65q25 0 25 25v30h80v-400h-80v270zM593 -5q-59 0 -97 30.5t-46 79.5h80q14 -35 65 -35q30 0 42.5 16t12.5 39q0 45 -55 45h-40v70h40q30 0 40 13t10 32t-12.5 32t-42.5 13t-43 -15.5t-17 -34.5h-80q2 26 11.5 49t26.5 40
t42.5 26.5t59.5 9.5q32 0 58 -9t44 -24t28 -35t10 -42q0 -34 -18 -56t-38 -31q31 -14 46 -38t15 -50q0 -24 -9.5 -47t-27.5 -40t-44.5 -27.5t-60.5 -10.5z" />
    <glyph glyph-name="twothirds" unicode="&#x2154;" horiz-adv-x="850" 
d="M600 700h85l-435 -700h-85zM40 370l150 145q20 19 30 35t10 35t-14.5 32t-40.5 13q-34 0 -47 -15.5t-13 -34.5h-80q2 26 11.5 49t26.5 40t42.5 26.5t59.5 9.5q32 0 57 -9.5t42.5 -26t26.5 -38.5t9 -46q0 -32 -12 -56.5t-38 -48.5l-115 -110h160v-70h-265v70zM663 -5
q-59 0 -97 30.5t-46 79.5h80q14 -35 65 -35q30 0 42.5 16t12.5 39q0 45 -55 45h-40v70h40q30 0 40 13t10 32t-12.5 32t-42.5 13t-43 -15.5t-17 -34.5h-80q2 26 11.5 49t26.5 40t42.5 26.5t59.5 9.5q32 0 58 -9t44 -24t28 -35t10 -42q0 -34 -18 -56t-38 -31q31 -14 46 -38
t15 -50q0 -24 -9.5 -47t-27.5 -40t-44.5 -27.5t-60.5 -10.5z" />
    <glyph glyph-name="uni2155" unicode="&#x2155;" horiz-adv-x="790" 
d="M525 700h85l-435 -700h-85zM125 570h-90v75h65q25 0 25 25v30h80v-400h-80v270zM595 -5q-57 0 -97 33t-48 82h85q4 -15 19 -27.5t41 -12.5q30 0 50 17.5t20 47.5q0 34 -20 52t-50 18q-23 0 -35 -9.5t-20 -20.5h-80l25 225h240v-75h-175l-10 -70h5q7 3 17 7q8 3 20.5 5.5
t27.5 2.5q60 0 97.5 -35.5t37.5 -99.5q0 -30 -11 -55.5t-30.5 -44.5t-47 -29.5t-61.5 -10.5z" />
    <glyph glyph-name="uni2156" unicode="&#x2156;" horiz-adv-x="875" 
d="M600 700h85l-435 -700h-85zM40 370l150 145q20 19 30 35t10 35t-14.5 32t-40.5 13q-34 0 -47 -15.5t-13 -34.5h-80q2 26 11.5 49t26.5 40t42.5 26.5t59.5 9.5q32 0 57 -9.5t42.5 -26t26.5 -38.5t9 -46q0 -32 -12 -56.5t-38 -48.5l-115 -110h160v-70h-265v70zM680 -5
q-57 0 -97 33t-48 82h85q4 -15 19 -27.5t41 -12.5q30 0 50 17.5t20 47.5q0 34 -20 52t-50 18q-23 0 -35 -9.5t-20 -20.5h-80l25 225h240v-75h-175l-10 -70h5q7 3 17 7q8 3 20.5 5.5t27.5 2.5q60 0 97.5 -35.5t37.5 -99.5q0 -30 -11 -55.5t-30.5 -44.5t-47 -29.5t-61.5 -10.5
z" />
    <glyph glyph-name="uni2157" unicode="&#x2157;" horiz-adv-x="870" 
d="M600 700h85l-435 -700h-85zM178 295q-59 0 -97 30.5t-46 79.5h80q14 -35 65 -35q30 0 42.5 16t12.5 39q0 45 -55 45h-40v70h40q30 0 40 13t10 32t-12.5 32t-42.5 13t-43 -15.5t-17 -34.5h-80q2 26 11.5 49t26.5 40t42.5 26.5t59.5 9.5q32 0 58 -9t44 -24t28 -35t10 -42
q0 -34 -18 -56t-38 -31q31 -14 46 -38t15 -50q0 -24 -9.5 -47t-27.5 -40t-44.5 -27.5t-60.5 -10.5zM675 -5q-57 0 -97 33t-48 82h85q4 -15 19 -27.5t41 -12.5q30 0 50 17.5t20 47.5q0 34 -20 52t-50 18q-23 0 -35 -9.5t-20 -20.5h-80l25 225h240v-75h-175l-10 -70h5
q7 3 17 7q8 3 20.5 5.5t27.5 2.5q60 0 97.5 -35.5t37.5 -99.5q0 -30 -11 -55.5t-30.5 -44.5t-47 -29.5t-61.5 -10.5z" />
    <glyph glyph-name="uni2158" unicode="&#x2158;" horiz-adv-x="880" 
d="M615 700h85l-435 -700h-85zM200 385h-180v70l160 245h100v-245h60v-70h-60v-85h-80v85zM200 455v145h-5l-95 -145h100zM685 -5q-57 0 -97 33t-48 82h85q4 -15 19 -27.5t41 -12.5q30 0 50 17.5t20 47.5q0 34 -20 52t-50 18q-23 0 -35 -9.5t-20 -20.5h-80l25 225h240v-75
h-175l-10 -70h5q7 3 17 7q8 3 20.5 5.5t27.5 2.5q60 0 97.5 -35.5t37.5 -99.5q0 -30 -11 -55.5t-30.5 -44.5t-47 -29.5t-61.5 -10.5z" />
    <glyph glyph-name="uni2159" unicode="&#x2159;" horiz-adv-x="770" 
d="M525 700h85l-435 -700h-85zM125 570h-90v75h65q25 0 25 25v30h80v-400h-80v270zM580 -5q-36 0 -63.5 12t-47 32.5t-29.5 46.5t-10 54q0 38 10.5 68.5t24.5 51.5l95 140h90l-90 -130q3 1 7 2t10.5 2t17.5 1q30 0 55 -10.5t42.5 -29.5t27.5 -44.5t10 -55.5
q0 -28 -11.5 -53.5t-31.5 -44.5t-47.5 -30.5t-59.5 -11.5zM580 70q34 0 52 20t18 50t-18 50t-52 20t-52 -20t-18 -50t18 -50t52 -20z" />
    <glyph glyph-name="uni215A" unicode="&#x215a;" horiz-adv-x="865" 
d="M620 700h85l-435 -700h-85zM185 295q-57 0 -97 33t-48 82h85q4 -15 19 -27.5t41 -12.5q30 0 50 17.5t20 47.5q0 34 -20 52t-50 18q-23 0 -35 -9.5t-20 -20.5h-80l25 225h240v-75h-175l-10 -70h5q7 3 17 7q8 3 20.5 5.5t27.5 2.5q60 0 97.5 -35.5t37.5 -99.5
q0 -30 -11 -55.5t-30.5 -44.5t-47 -29.5t-61.5 -10.5zM675 -5q-36 0 -63.5 12t-47 32.5t-29.5 46.5t-10 54q0 38 10.5 68.5t24.5 51.5l95 140h90l-90 -130q3 1 7 2t10.5 2t17.5 1q30 0 55 -10.5t42.5 -29.5t27.5 -44.5t10 -55.5q0 -28 -11.5 -53.5t-31.5 -44.5t-47.5 -30.5
t-59.5 -11.5zM675 70q34 0 52 20t18 50t-18 50t-52 20t-52 -20t-18 -50t18 -50t52 -20z" />
    <glyph glyph-name="oneeighth" unicode="&#x215b;" horiz-adv-x="790" 
d="M525 700h85l-435 -700h-85zM125 570h-90v75h65q25 0 25 25v30h80v-400h-80v270zM600 -5q-64 0 -104.5 31.5t-40.5 88.5q0 26 13 53t47 42q-23 11 -36.5 35t-13.5 50q0 45 35.5 77.5t99.5 32.5t99.5 -32.5t35.5 -77.5q0 -26 -13.5 -50t-36.5 -35q34 -15 47 -42t13 -53
q0 -57 -40.5 -88.5t-104.5 -31.5zM600 70q30 0 47.5 16t17.5 40q0 22 -17.5 38t-47.5 16t-47.5 -16t-17.5 -38q0 -24 17.5 -40t47.5 -16zM600 240q26 0 40.5 13.5t14.5 30.5q0 18 -14.5 32t-40.5 14t-40.5 -14t-14.5 -32q0 -17 14.5 -30.5t40.5 -13.5z" />
    <glyph glyph-name="threeeighths" unicode="&#x215c;" horiz-adv-x="870" 
d="M600 700h85l-435 -700h-85zM178 295q-59 0 -97 30.5t-46 79.5h80q14 -35 65 -35q30 0 42.5 16t12.5 39q0 45 -55 45h-40v70h40q30 0 40 13t10 32t-12.5 32t-42.5 13t-43 -15.5t-17 -34.5h-80q2 26 11.5 49t26.5 40t42.5 26.5t59.5 9.5q32 0 58 -9t44 -24t28 -35t10 -42
q0 -34 -18 -56t-38 -31q31 -14 46 -38t15 -50q0 -24 -9.5 -47t-27.5 -40t-44.5 -27.5t-60.5 -10.5zM680 -5q-64 0 -104.5 31.5t-40.5 88.5q0 26 13 53t47 42q-23 11 -36.5 35t-13.5 50q0 45 35.5 77.5t99.5 32.5t99.5 -32.5t35.5 -77.5q0 -26 -13.5 -50t-36.5 -35
q34 -15 47 -42t13 -53q0 -57 -40.5 -88.5t-104.5 -31.5zM680 70q30 0 47.5 16t17.5 40q0 22 -17.5 38t-47.5 16t-47.5 -16t-17.5 -38q0 -24 17.5 -40t47.5 -16zM680 240q26 0 40.5 13.5t14.5 30.5q0 18 -14.5 32t-40.5 14t-40.5 -14t-14.5 -32q0 -17 14.5 -30.5t40.5 -13.5z
" />
    <glyph glyph-name="fiveeighths" unicode="&#x215d;" horiz-adv-x="885" 
d="M620 700h85l-435 -700h-85zM185 295q-57 0 -97 33t-48 82h85q4 -15 19 -27.5t41 -12.5q30 0 50 17.5t20 47.5q0 34 -20 52t-50 18q-23 0 -35 -9.5t-20 -20.5h-80l25 225h240v-75h-175l-10 -70h5q7 3 17 7q8 3 20.5 5.5t27.5 2.5q60 0 97.5 -35.5t37.5 -99.5
q0 -30 -11 -55.5t-30.5 -44.5t-47 -29.5t-61.5 -10.5zM695 -5q-64 0 -104.5 31.5t-40.5 88.5q0 26 13 53t47 42q-23 11 -36.5 35t-13.5 50q0 45 35.5 77.5t99.5 32.5t99.5 -32.5t35.5 -77.5q0 -26 -13.5 -50t-36.5 -35q34 -15 47 -42t13 -53q0 -57 -40.5 -88.5t-104.5 -31.5
zM695 70q30 0 47.5 16t17.5 40q0 22 -17.5 38t-47.5 16t-47.5 -16t-17.5 -38q0 -24 17.5 -40t47.5 -16zM695 240q26 0 40.5 13.5t14.5 30.5q0 18 -14.5 32t-40.5 14t-40.5 -14t-14.5 -32q0 -17 14.5 -30.5t40.5 -13.5z" />
    <glyph glyph-name="seveneighths" unicode="&#x215e;" horiz-adv-x="790" 
d="M525 700h85l-435 -700h-85zM215 630h-170v70h255v-70l-140 -330h-85zM600 -5q-64 0 -104.5 31.5t-40.5 88.5q0 26 13 53t47 42q-23 11 -36.5 35t-13.5 50q0 45 35.5 77.5t99.5 32.5t99.5 -32.5t35.5 -77.5q0 -26 -13.5 -50t-36.5 -35q34 -15 47 -42t13 -53
q0 -57 -40.5 -88.5t-104.5 -31.5zM600 70q30 0 47.5 16t17.5 40q0 22 -17.5 38t-47.5 16t-47.5 -16t-17.5 -38q0 -24 17.5 -40t47.5 -16zM600 240q26 0 40.5 13.5t14.5 30.5q0 18 -14.5 32t-40.5 14t-40.5 -14t-14.5 -32q0 -17 14.5 -30.5t40.5 -13.5z" />
    <glyph glyph-name="uni215F" unicode="&#x215f;" horiz-adv-x="420" 
d="M525 700h85l-435 -700h-85zM125 570h-90v75h65q25 0 25 25v30h80v-400h-80v270z" />
    <glyph glyph-name="uni2190" unicode="&#x2190;" 
d="M150 345v5l215 215l53 -52l-128 -128h560v-80h-555l123 -122l-53 -53z" />
    <glyph glyph-name="uni2191" unicode="&#x2191;" 
d="M455 555l-122 -123l-53 53l215 215h5l215 -215l-52 -53l-128 128v-560h-80v555z" />
    <glyph glyph-name="uni2192" unicode="&#x2192;" 
d="M582 183l123 122h-555v80h560l-128 128l53 52l215 -215v-5l-215 -215z" />
    <glyph glyph-name="uni2193" unicode="&#x2193;" 
d="M280 215l53 53l122 -123v555h80v-560l128 128l52 -53l-215 -215h-5z" />
    <glyph glyph-name="uni2194" unicode="&#x2194;" 
d="M130 345v5l215 215l53 -52l-128 -128h460l-128 128l53 52l215 -215v-5l-215 -215l-53 53l123 122h-450l123 -122l-53 -53z" />
    <glyph glyph-name="uni2195" unicode="&#x2195;" 
d="M280 195l53 53l122 -123v450l-122 -123l-53 53l215 215h5l215 -215l-52 -53l-128 128v-460l128 128l52 -53l-215 -215h-5z" />
    <glyph glyph-name="uni2196" unicode="&#x2196;" 
d="M280 515v-175h-80v300l10 10h300v-80h-180l467 -467l-52 -53z" />
    <glyph glyph-name="uni2197" unicode="&#x2197;" 
d="M203 103l467 467h-180v80h300l10 -10v-300h-80v175l-465 -465z" />
    <glyph glyph-name="uni2198" unicode="&#x2198;" 
d="M490 130h180l-467 467l52 53l465 -465v175h80v-300l-10 -10h-300v80z" />
    <glyph glyph-name="uni2199" unicode="&#x2199;" 
d="M200 60v300h80v-175l465 465l52 -53l-467 -467h180v-80h-300z" />
    <glyph glyph-name="uni21C5" unicode="&#x21c5;" 
d="M290 555l-122 -123l-53 53l215 215h5l215 -215l-52 -53l-128 128v-560h-80v555zM450 215l53 53l122 -123v555h80v-560l128 128l52 -53l-215 -215h-5z" />
    <glyph glyph-name="uni21F5" unicode="&#x21f5;" 
d="M115 215l53 53l122 -123v555h80v-560l128 128l52 -53l-215 -215h-5zM625 555l-122 -123l-53 53l215 215h5l215 -215l-52 -53l-128 128v-560h-80v555z" />
    <glyph glyph-name="partialdiff" unicode="&#x2202;" horiz-adv-x="575" 
d="M275 -10q-49 0 -91 15.5t-73 45.5t-48.5 74t-17.5 100q0 52 16 94.5t44.5 72.5t68 46.5t86.5 16.5q49 0 90 -15.5t75 -49.5h5q0 52 -11 95.5t-32 74.5t-52 48t-70 17q-38 0 -58.5 -13.5t-31.5 -36.5h-95q6 24 20 48.5t37 43.5t56 31t75 12q122 0 187 -89.5t65 -270.5
q0 -177 -58.5 -268.5t-186.5 -91.5zM275 75q68 0 109 50.5t41 159.5q-15 24 -36 42q-18 16 -46.5 29.5t-67.5 13.5q-64 0 -102 -38.5t-38 -106.5q0 -72 38 -111t102 -39z" />
    <glyph glyph-name="emptyset" unicode="&#x2205;" horiz-adv-x="830" 
d="M415 -10q-118 0 -204 54l-41 -49h-105l84 101q-43 47 -66 111.5t-23 142.5q0 81 25 147t71 113.5t112 73.5t147 26q60 0 110.5 -14.5t92.5 -40.5l42 50h105l-85 -101q44 -48 67 -112t23 -142q0 -81 -25 -147t-71 -113.5t-112 -73.5t-147 -26zM563 589q-31 20 -68 30.5
t-80 10.5q-61 0 -110 -21t-83.5 -58.5t-53 -88.5t-18.5 -112q0 -110 58 -185zM415 70q61 0 110 21t83.5 58.5t53 88.5t18.5 112q0 54 -15 101t-43 83l-355 -423q61 -41 148 -41z" />
    <glyph glyph-name="uni2206" unicode="&#x2206;" horiz-adv-x="650" 
d="M270 700h110l250 -700h-610zM510 80l-185 525l-185 -525h370z" />
    <glyph glyph-name="product" unicode="&#x220f;" horiz-adv-x="715" 
d="M100 700h515v-810h-90v730h-335v-730h-90v810z" />
    <glyph glyph-name="summation" unicode="&#x2211;" horiz-adv-x="585" 
d="M60 -30l230 345l-230 305v80h475v-80h-370l230 -305l-231 -345h371v-80h-475v80z" />
    <glyph glyph-name="minus" unicode="&#x2212;" horiz-adv-x="555" 
d="M40 350h475v-85h-475v85z" />
    <glyph glyph-name="radical" unicode="&#x221a;" horiz-adv-x="625" 
d="M130 140h-120v80h185l80 -230h10l225 735h90l-255 -835h-130z" />
    <glyph glyph-name="infinity" unicode="&#x221e;" horiz-adv-x="785" 
d="M215 190q-38 0 -67.5 11.5t-50 32.5t-31.5 50.5t-11 65.5t11 65.5t31.5 50.5t50 32.5t67.5 11.5q28 0 53.5 -9t47.5 -24t41 -34t35 -38q16 19 35 38t41.5 34t48 24t53.5 9q37 0 67 -11.5t50.5 -32.5t31.5 -50.5t11 -65.5t-11 -65.5t-31.5 -50.5t-50.5 -32.5t-67 -11.5
q-28 0 -53.5 9t-48 24t-41.5 33.5t-35 38.5q-16 -20 -35 -38.5t-41 -33.5t-47.5 -24t-53.5 -9zM215 260q21 0 41 7.5t38.5 20.5t34 29t26.5 33q-11 17 -26.5 33t-34 29t-38.5 20.5t-41 7.5q-42 0 -63.5 -26t-21.5 -64t21.5 -64t63.5 -26zM570 260q42 0 63.5 26t21.5 64
t-21.5 64t-63.5 26q-21 0 -41 -7.5t-38.5 -20.5t-34 -29t-26.5 -33q11 -17 26.5 -33t34 -29t38.5 -20.5t41 -7.5z" />
    <glyph glyph-name="integral" unicode="&#x222b;" horiz-adv-x="375" 
d="M40 -30h15q28 0 45.5 6t27.5 19.5t13.5 35.5t3.5 54v530q0 105 40 150t130 45h20v-80h-15q-28 0 -45.5 -6t-27.5 -19.5t-13.5 -35.5t-3.5 -54v-530q0 -105 -40 -150t-130 -45h-20v80z" />
    <glyph glyph-name="approxequal" unicode="&#x2248;" horiz-adv-x="590" 
d="M60 130q0 32 9 59.5t27 47.5t44 31.5t60 11.5q32 0 57.5 -10t47.5 -22.5t40 -22.5t35 -10q26 0 43 17.5t17 47.5h90q0 -32 -9 -59.5t-27 -47.5t-44 -31.5t-60 -11.5q-32 0 -57.5 10t-47.5 22.5t-40 22.5t-35 10q-26 0 -43 -17.5t-17 -47.5h-90zM60 325q0 32 9 59.5
t27 47.5t44 31.5t60 11.5q32 0 57.5 -10t47.5 -22.5t40 -22.5t35 -10q26 0 43 17.5t17 47.5h90q0 -32 -9 -59.5t-27 -47.5t-44 -31.5t-60 -11.5q-32 0 -57.5 10t-47.5 22.5t-40 22.5t-35 10q-26 0 -43 -17.5t-17 -47.5h-90z" />
    <glyph glyph-name="notequal" unicode="&#x2260;" horiz-adv-x="555" 
d="M171 155h-131v85h168l54 125h-222v85h258l37 85h85l-37 -85h132v-85h-168l-54 -125h222v-85h-259l-36 -85h-85z" />
    <glyph glyph-name="lessequal" unicode="&#x2264;" horiz-adv-x="530" 
d="M50 85h430v-80h-430v80zM50 295v90l430 180v-90l-335 -135l335 -135v-90z" />
    <glyph glyph-name="greaterequal" unicode="&#x2265;" horiz-adv-x="530" 
d="M50 85h430v-80h-430v80zM50 205l335 135l-335 135v90l430 -180v-90l-430 -180v90z" />
    <glyph glyph-name="uni2318" unicode="&#x2318;" horiz-adv-x="815" 
d="M200 0q-68 0 -109 40.5t-41 104.5q0 65 41.5 102.5t113.5 37.5h65v130h-65q-72 0 -113.5 37.5t-41.5 102.5q0 64 41 104.5t109 40.5q66 0 105.5 -37.5t39.5 -112.5v-65h125v65q0 75 39.5 112.5t105.5 37.5q68 0 109 -40.5t41 -104.5q0 -65 -41.5 -102.5t-113.5 -37.5h-65
v-130h65q72 0 113.5 -37.5t41.5 -102.5q0 -64 -41 -104.5t-109 -40.5q-66 0 -105.5 37.5t-39.5 112.5v65h-125v-65q0 -75 -39.5 -112.5t-105.5 -37.5zM195 70q34 0 54.5 20.5t20.5 54.5v70h-70q-34 0 -54.5 -18t-20.5 -52q0 -38 20 -56.5t50 -18.5zM470 285v130h-125v-130
h125zM270 485v70q0 34 -20.5 54.5t-54.5 20.5q-30 0 -50 -18.5t-20 -56.5q0 -34 20.5 -52t54.5 -18h70zM620 70q30 0 50 18.5t20 56.5q0 34 -20.5 52t-54.5 18h-70v-70q0 -34 20.5 -54.5t54.5 -20.5zM615 485q34 0 54.5 18t20.5 52q0 38 -20 56.5t-50 18.5
q-34 0 -54.5 -20.5t-20.5 -54.5v-70h70z" />
    <glyph glyph-name="uni2460" unicode="&#x2460;" 
d="M475 420h-90v75h65q25 0 25 25v30h80v-400h-80v270zM500 -75q-90 0 -167.5 33.5t-135 91t-90 135t-32.5 165.5t32.5 165.5t90 135t135 91t167.5 33.5t167.5 -33.5t135 -91t90 -135t32.5 -165.5t-32.5 -165.5t-90 -135t-135 -91t-167.5 -33.5zM500 -10q77 0 143 27.5
t114 75.5t75.5 114t27.5 143t-27.5 143t-75.5 114t-114 75.5t-143 27.5t-143 -27.5t-114 -75.5t-75.5 -114t-27.5 -143t27.5 -143t75.5 -114t114 -75.5t143 -27.5z" />
    <glyph glyph-name="uni2461" unicode="&#x2461;" 
d="M370 220l150 145q20 19 30 35t10 35t-14.5 32t-40.5 13q-34 0 -47 -15.5t-13 -34.5h-80q2 26 11.5 49t26.5 40t42.5 26.5t59.5 9.5q32 0 57 -9.5t42.5 -26t26.5 -38.5t9 -46q0 -32 -12 -56.5t-38 -48.5l-115 -110h160v-70h-265v70zM500 -75q-90 0 -167.5 33.5t-135 91
t-90 135t-32.5 165.5t32.5 165.5t90 135t135 91t167.5 33.5t167.5 -33.5t135 -91t90 -135t32.5 -165.5t-32.5 -165.5t-90 -135t-135 -91t-167.5 -33.5zM500 -10q77 0 143 27.5t114 75.5t75.5 114t27.5 143t-27.5 143t-75.5 114t-114 75.5t-143 27.5t-143 -27.5t-114 -75.5
t-75.5 -114t-27.5 -143t27.5 -143t75.5 -114t114 -75.5t143 -27.5z" />
    <glyph glyph-name="uni2462" unicode="&#x2462;" 
d="M503 145q-59 0 -97 30.5t-46 79.5h80q14 -35 65 -35q30 0 42.5 16t12.5 39q0 45 -55 45h-40v70h40q30 0 40 13t10 32t-12.5 32t-42.5 13t-43 -15.5t-17 -34.5h-80q2 26 11.5 49t26.5 40t42.5 26.5t59.5 9.5q32 0 58 -9t44 -24t28 -35t10 -42q0 -34 -18 -56t-38 -31
q31 -14 46 -38t15 -50q0 -24 -9.5 -47t-27.5 -40t-44.5 -27.5t-60.5 -10.5zM500 -75q-90 0 -167.5 33.5t-135 91t-90 135t-32.5 165.5t32.5 165.5t90 135t135 91t167.5 33.5t167.5 -33.5t135 -91t90 -135t32.5 -165.5t-32.5 -165.5t-90 -135t-135 -91t-167.5 -33.5zM500 -10
q77 0 143 27.5t114 75.5t75.5 114t27.5 143t-27.5 143t-75.5 114t-114 75.5t-143 27.5t-143 -27.5t-114 -75.5t-75.5 -114t-27.5 -143t27.5 -143t75.5 -114t114 -75.5t143 -27.5z" />
    <glyph glyph-name="uni2463" unicode="&#x2463;" 
d="M505 235h-180v70l160 245h100v-245h60v-70h-60v-85h-80v85zM505 305v145h-5l-95 -145h100zM500 -75q-90 0 -167.5 33.5t-135 91t-90 135t-32.5 165.5t32.5 165.5t90 135t135 91t167.5 33.5t167.5 -33.5t135 -91t90 -135t32.5 -165.5t-32.5 -165.5t-90 -135t-135 -91
t-167.5 -33.5zM500 -10q77 0 143 27.5t114 75.5t75.5 114t27.5 143t-27.5 143t-75.5 114t-114 75.5t-143 27.5t-143 -27.5t-114 -75.5t-75.5 -114t-27.5 -143t27.5 -143t75.5 -114t114 -75.5t143 -27.5z" />
    <glyph glyph-name="uni2464" unicode="&#x2464;" 
d="M500 145q-57 0 -97 33t-48 82h85q4 -15 19 -27.5t41 -12.5q30 0 50 17.5t20 47.5q0 34 -20 52t-50 18q-23 0 -35 -9.5t-20 -20.5h-80l25 225h240v-75h-175l-10 -70h5q7 3 17 7q8 3 20.5 5.5t27.5 2.5q60 0 97.5 -35.5t37.5 -99.5q0 -30 -11 -55.5t-30.5 -44.5t-47 -29.5
t-61.5 -10.5zM500 -75q-90 0 -167.5 33.5t-135 91t-90 135t-32.5 165.5t32.5 165.5t90 135t135 91t167.5 33.5t167.5 -33.5t135 -91t90 -135t32.5 -165.5t-32.5 -165.5t-90 -135t-135 -91t-167.5 -33.5zM500 -10q77 0 143 27.5t114 75.5t75.5 114t27.5 143t-27.5 143
t-75.5 114t-114 75.5t-143 27.5t-143 -27.5t-114 -75.5t-75.5 -114t-27.5 -143t27.5 -143t75.5 -114t114 -75.5t143 -27.5z" />
    <glyph glyph-name="uni2465" unicode="&#x2465;" 
d="M500 145q-36 0 -63.5 12t-47 32.5t-29.5 46.5t-10 54q0 38 10.5 68.5t24.5 51.5l95 140h90l-90 -130q3 1 7 2t10.5 2t17.5 1q30 0 55 -10.5t42.5 -29.5t27.5 -44.5t10 -55.5q0 -28 -11.5 -53.5t-31.5 -44.5t-47.5 -30.5t-59.5 -11.5zM500 220q34 0 52 20t18 50t-18 50
t-52 20t-52 -20t-18 -50t18 -50t52 -20zM500 -75q-90 0 -167.5 33.5t-135 91t-90 135t-32.5 165.5t32.5 165.5t90 135t135 91t167.5 33.5t167.5 -33.5t135 -91t90 -135t32.5 -165.5t-32.5 -165.5t-90 -135t-135 -91t-167.5 -33.5zM500 -10q77 0 143 27.5t114 75.5t75.5 114
t27.5 143t-27.5 143t-75.5 114t-114 75.5t-143 27.5t-143 -27.5t-114 -75.5t-75.5 -114t-27.5 -143t27.5 -143t75.5 -114t114 -75.5t143 -27.5z" />
    <glyph glyph-name="uni2466" unicode="&#x2466;" 
d="M545 480h-170v70h255v-70l-140 -330h-85zM500 -75q-90 0 -167.5 33.5t-135 91t-90 135t-32.5 165.5t32.5 165.5t90 135t135 91t167.5 33.5t167.5 -33.5t135 -91t90 -135t32.5 -165.5t-32.5 -165.5t-90 -135t-135 -91t-167.5 -33.5zM500 -10q77 0 143 27.5t114 75.5
t75.5 114t27.5 143t-27.5 143t-75.5 114t-114 75.5t-143 27.5t-143 -27.5t-114 -75.5t-75.5 -114t-27.5 -143t27.5 -143t75.5 -114t114 -75.5t143 -27.5z" />
    <glyph glyph-name="uni2467" unicode="&#x2467;" 
d="M500 145q-64 0 -104.5 31.5t-40.5 88.5q0 26 13 53t47 42q-23 11 -36.5 35t-13.5 50q0 45 35.5 77.5t99.5 32.5t99.5 -32.5t35.5 -77.5q0 -26 -13.5 -50t-36.5 -35q34 -15 47 -42t13 -53q0 -57 -40.5 -88.5t-104.5 -31.5zM500 220q30 0 47.5 16t17.5 40q0 22 -17.5 38
t-47.5 16t-47.5 -16t-17.5 -38q0 -24 17.5 -40t47.5 -16zM500 390q26 0 40.5 13.5t14.5 30.5q0 18 -14.5 32t-40.5 14t-40.5 -14t-14.5 -32q0 -17 14.5 -30.5t40.5 -13.5zM500 -75q-90 0 -167.5 33.5t-135 91t-90 135t-32.5 165.5t32.5 165.5t90 135t135 91t167.5 33.5
t167.5 -33.5t135 -91t90 -135t32.5 -165.5t-32.5 -165.5t-90 -135t-135 -91t-167.5 -33.5zM500 -10q77 0 143 27.5t114 75.5t75.5 114t27.5 143t-27.5 143t-75.5 114t-114 75.5t-143 27.5t-143 -27.5t-114 -75.5t-75.5 -114t-27.5 -143t27.5 -143t75.5 -114t114 -75.5
t143 -27.5z" />
    <glyph glyph-name="uni2468" unicode="&#x2468;" 
d="M520 280q-3 -2 -7 -3t-10.5 -1.5t-17.5 -0.5q-30 0 -55 10.5t-42.5 29.5t-27.5 44.5t-10 55.5q0 28 11.5 53.5t31.5 44.5t47.5 30.5t59.5 11.5q36 0 63.5 -12t47 -32.5t29.5 -46.5t10 -54q0 -38 -10.5 -68.5t-24.5 -51.5l-95 -140h-90zM500 340q34 0 52 20t18 50t-18 50
t-52 20t-52 -20t-18 -50t18 -50t52 -20zM500 -75q-90 0 -167.5 33.5t-135 91t-90 135t-32.5 165.5t32.5 165.5t90 135t135 91t167.5 33.5t167.5 -33.5t135 -91t90 -135t32.5 -165.5t-32.5 -165.5t-90 -135t-135 -91t-167.5 -33.5zM500 -10q77 0 143 27.5t114 75.5t75.5 114
t27.5 143t-27.5 143t-75.5 114t-114 75.5t-143 27.5t-143 -27.5t-114 -75.5t-75.5 -114t-27.5 -143t27.5 -143t75.5 -114t114 -75.5t143 -27.5z" />
    <glyph glyph-name="uni2469" unicode="&#x2469;" 
d="M314 420h-90v75h65q25 0 25 25v30h80v-400h-80v270zM610 145q-72 0 -116 53.5t-44 151.5t44 151.5t116 53.5t116 -53.5t44 -151.5t-44 -151.5t-116 -53.5zM610 220q34 0 57 33t23 97t-23 97t-57 33t-57 -33t-23 -97t23 -97t57 -33zM500 -75q-90 0 -167.5 33.5t-135 91
t-90 135t-32.5 165.5t32.5 165.5t90 135t135 91t167.5 33.5t167.5 -33.5t135 -91t90 -135t32.5 -165.5t-32.5 -165.5t-90 -135t-135 -91t-167.5 -33.5zM500 -10q77 0 143 27.5t114 75.5t75.5 114t27.5 143t-27.5 143t-75.5 114t-114 75.5t-143 27.5t-143 -27.5t-114 -75.5
t-75.5 -114t-27.5 -143t27.5 -143t75.5 -114t114 -75.5t143 -27.5z" />
    <glyph glyph-name="uni246A" unicode="&#x246a;" 
d="M595 420h-90v75h65q25 0 25 25v30h80v-400h-80v270zM360 420h-90v75h65q25 0 25 25v30h80v-400h-80v270zM500 -75q-90 0 -167.5 33.5t-135 91t-90 135t-32.5 165.5t32.5 165.5t90 135t135 91t167.5 33.5t167.5 -33.5t135 -91t90 -135t32.5 -165.5t-32.5 -165.5t-90 -135
t-135 -91t-167.5 -33.5zM500 -10q77 0 143 27.5t114 75.5t75.5 114t27.5 143t-27.5 143t-75.5 114t-114 75.5t-143 27.5t-143 -27.5t-114 -75.5t-75.5 -114t-27.5 -143t27.5 -143t75.5 -114t114 -75.5t143 -27.5z" />
    <glyph glyph-name="uni246B" unicode="&#x246b;" 
d="M325 420h-90v75h65q25 0 25 25v30h80v-400h-80v270zM470 220l150 145q20 19 30 35t10 35t-14.5 32t-40.5 13q-34 0 -47 -15.5t-13 -34.5h-80q2 26 11.5 49t26.5 40t42.5 26.5t59.5 9.5q32 0 57 -9.5t42.5 -26t26.5 -38.5t9 -46q0 -32 -12 -56.5t-38 -48.5l-115 -110h160
v-70h-265v70zM500 -75q-90 0 -167.5 33.5t-135 91t-90 135t-32.5 165.5t32.5 165.5t90 135t135 91t167.5 33.5t167.5 -33.5t135 -91t90 -135t32.5 -165.5t-32.5 -165.5t-90 -135t-135 -91t-167.5 -33.5zM500 -10q77 0 143 27.5t114 75.5t75.5 114t27.5 143t-27.5 143
t-75.5 114t-114 75.5t-143 27.5t-143 -27.5t-114 -75.5t-75.5 -114t-27.5 -143t27.5 -143t75.5 -114t114 -75.5t143 -27.5z" />
    <glyph glyph-name="uni246C" unicode="&#x246c;" 
d="M320 420h-90v75h65q25 0 25 25v30h80v-400h-80v270zM598 145q-59 0 -97 30.5t-46 79.5h80q14 -35 65 -35q30 0 42.5 16t12.5 39q0 45 -55 45h-40v70h40q30 0 40 13t10 32t-12.5 32t-42.5 13t-43 -15.5t-17 -34.5h-80q2 26 11.5 49t26.5 40t42.5 26.5t59.5 9.5q32 0 58 -9
t44 -24t28 -35t10 -42q0 -34 -18 -56t-38 -31q31 -14 46 -38t15 -50q0 -24 -9.5 -47t-27.5 -40t-44.5 -27.5t-60.5 -10.5zM500 -75q-90 0 -167.5 33.5t-135 91t-90 135t-32.5 165.5t32.5 165.5t90 135t135 91t167.5 33.5t167.5 -33.5t135 -91t90 -135t32.5 -165.5
t-32.5 -165.5t-90 -135t-135 -91t-167.5 -33.5zM500 -10q77 0 143 27.5t114 75.5t75.5 114t27.5 143t-27.5 143t-75.5 114t-114 75.5t-143 27.5t-143 -27.5t-114 -75.5t-75.5 -114t-27.5 -143t27.5 -143t75.5 -114t114 -75.5t143 -27.5z" />
    <glyph glyph-name="uni246D" unicode="&#x246d;" 
d="M320 420h-90v75h65q25 0 25 25v30h80v-400h-80v270zM625 235h-180v70l160 245h100v-245h60v-70h-60v-85h-80v85zM625 305v145h-5l-95 -145h100zM500 -75q-90 0 -167.5 33.5t-135 91t-90 135t-32.5 165.5t32.5 165.5t90 135t135 91t167.5 33.5t167.5 -33.5t135 -91
t90 -135t32.5 -165.5t-32.5 -165.5t-90 -135t-135 -91t-167.5 -33.5zM500 -10q77 0 143 27.5t114 75.5t75.5 114t27.5 143t-27.5 143t-75.5 114t-114 75.5t-143 27.5t-143 -27.5t-114 -75.5t-75.5 -114t-27.5 -143t27.5 -143t75.5 -114t114 -75.5t143 -27.5z" />
    <glyph glyph-name="uni246E" unicode="&#x246e;" 
d="M315 420h-90v75h65q25 0 25 25v30h80v-400h-80v270zM595 145q-57 0 -97 33t-48 82h85q4 -15 19 -27.5t41 -12.5q30 0 50 17.5t20 47.5q0 34 -20 52t-50 18q-23 0 -35 -9.5t-20 -20.5h-80l25 225h240v-75h-175l-10 -70h5q7 3 17 7q8 3 20.5 5.5t27.5 2.5q60 0 97.5 -35.5
t37.5 -99.5q0 -30 -11 -55.5t-30.5 -44.5t-47 -29.5t-61.5 -10.5zM500 -75q-90 0 -167.5 33.5t-135 91t-90 135t-32.5 165.5t32.5 165.5t90 135t135 91t167.5 33.5t167.5 -33.5t135 -91t90 -135t32.5 -165.5t-32.5 -165.5t-90 -135t-135 -91t-167.5 -33.5zM500 -10
q77 0 143 27.5t114 75.5t75.5 114t27.5 143t-27.5 143t-75.5 114t-114 75.5t-143 27.5t-143 -27.5t-114 -75.5t-75.5 -114t-27.5 -143t27.5 -143t75.5 -114t114 -75.5t143 -27.5z" />
    <glyph glyph-name="uni246F" unicode="&#x246f;" 
d="M315 420h-90v75h65q25 0 25 25v30h80v-400h-80v270zM605 145q-36 0 -63.5 12t-47 32.5t-29.5 46.5t-10 54q0 38 10.5 68.5t24.5 51.5l95 140h90l-90 -130q3 1 7 2t10.5 2t17.5 1q30 0 55 -10.5t42.5 -29.5t27.5 -44.5t10 -55.5q0 -28 -11.5 -53.5t-31.5 -44.5
t-47.5 -30.5t-59.5 -11.5zM605 220q34 0 52 20t18 50t-18 50t-52 20t-52 -20t-18 -50t18 -50t52 -20zM500 -75q-90 0 -167.5 33.5t-135 91t-90 135t-32.5 165.5t32.5 165.5t90 135t135 91t167.5 33.5t167.5 -33.5t135 -91t90 -135t32.5 -165.5t-32.5 -165.5t-90 -135
t-135 -91t-167.5 -33.5zM500 -10q77 0 143 27.5t114 75.5t75.5 114t27.5 143t-27.5 143t-75.5 114t-114 75.5t-143 27.5t-143 -27.5t-114 -75.5t-75.5 -114t-27.5 -143t27.5 -143t75.5 -114t114 -75.5t143 -27.5z" />
    <glyph glyph-name="uni2470" unicode="&#x2470;" 
d="M335 420h-90v75h65q25 0 25 25v30h80v-400h-80v270zM645 480h-170v70h255v-70l-140 -330h-85zM500 -75q-90 0 -167.5 33.5t-135 91t-90 135t-32.5 165.5t32.5 165.5t90 135t135 91t167.5 33.5t167.5 -33.5t135 -91t90 -135t32.5 -165.5t-32.5 -165.5t-90 -135t-135 -91
t-167.5 -33.5zM500 -10q77 0 143 27.5t114 75.5t75.5 114t27.5 143t-27.5 143t-75.5 114t-114 75.5t-143 27.5t-143 -27.5t-114 -75.5t-75.5 -114t-27.5 -143t27.5 -143t75.5 -114t114 -75.5t143 -27.5z" />
    <glyph glyph-name="uni2471" unicode="&#x2471;" 
d="M325 420h-90v75h65q25 0 25 25v30h80v-400h-80v270zM605 145q-64 0 -104.5 31.5t-40.5 88.5q0 26 13 53t47 42q-23 11 -36.5 35t-13.5 50q0 45 35.5 77.5t99.5 32.5t99.5 -32.5t35.5 -77.5q0 -26 -13.5 -50t-36.5 -35q34 -15 47 -42t13 -53q0 -57 -40.5 -88.5
t-104.5 -31.5zM605 220q30 0 47.5 16t17.5 40q0 22 -17.5 38t-47.5 16t-47.5 -16t-17.5 -38q0 -24 17.5 -40t47.5 -16zM605 390q26 0 40.5 13.5t14.5 30.5q0 18 -14.5 32t-40.5 14t-40.5 -14t-14.5 -32q0 -17 14.5 -30.5t40.5 -13.5zM500 -75q-90 0 -167.5 33.5t-135 91
t-90 135t-32.5 165.5t32.5 165.5t90 135t135 91t167.5 33.5t167.5 -33.5t135 -91t90 -135t32.5 -165.5t-32.5 -165.5t-90 -135t-135 -91t-167.5 -33.5zM500 -10q77 0 143 27.5t114 75.5t75.5 114t27.5 143t-27.5 143t-75.5 114t-114 75.5t-143 27.5t-143 -27.5t-114 -75.5
t-75.5 -114t-27.5 -143t27.5 -143t75.5 -114t114 -75.5t143 -27.5z" />
    <glyph glyph-name="uni2472" unicode="&#x2472;" 
d="M325 420h-90v75h65q25 0 25 25v30h80v-400h-80v270zM624 280q-3 -2 -7 -3t-10.5 -1.5t-17.5 -0.5q-30 0 -55 10.5t-42.5 29.5t-27.5 44.5t-10 55.5q0 28 11.5 53.5t31.5 44.5t47.5 30.5t59.5 11.5q36 0 63.5 -12t47 -32.5t29.5 -46.5t10 -54q0 -38 -10.5 -68.5
t-24.5 -51.5l-95 -140h-90zM604 340q34 0 52 20t18 50t-18 50t-52 20t-52 -20t-18 -50t18 -50t52 -20zM500 -75q-90 0 -167.5 33.5t-135 91t-90 135t-32.5 165.5t32.5 165.5t90 135t135 91t167.5 33.5t167.5 -33.5t135 -91t90 -135t32.5 -165.5t-32.5 -165.5t-90 -135
t-135 -91t-167.5 -33.5zM500 -10q77 0 143 27.5t114 75.5t75.5 114t27.5 143t-27.5 143t-75.5 114t-114 75.5t-143 27.5t-143 -27.5t-114 -75.5t-75.5 -114t-27.5 -143t27.5 -143t75.5 -114t114 -75.5t143 -27.5z" />
    <glyph glyph-name="uni2473" unicode="&#x2473;" 
d="M210 220l150 145q20 19 30 35t10 35t-14.5 32t-40.5 13q-34 0 -47 -15.5t-13 -34.5h-80q2 26 11.5 49t26.5 40t42.5 26.5t59.5 9.5q32 0 57 -9.5t42.5 -26t26.5 -38.5t9 -46q0 -32 -12 -56.5t-38 -48.5l-115 -110h160v-70h-265v70zM655 145q-72 0 -116 53.5t-44 151.5
t44 151.5t116 53.5t116 -53.5t44 -151.5t-44 -151.5t-116 -53.5zM655 220q34 0 57 33t23 97t-23 97t-57 33t-57 -33t-23 -97t23 -97t57 -33zM500 -75q-90 0 -167.5 33.5t-135 91t-90 135t-32.5 165.5t32.5 165.5t90 135t135 91t167.5 33.5t167.5 -33.5t135 -91t90 -135
t32.5 -165.5t-32.5 -165.5t-90 -135t-135 -91t-167.5 -33.5zM500 -10q77 0 143 27.5t114 75.5t75.5 114t27.5 143t-27.5 143t-75.5 114t-114 75.5t-143 27.5t-143 -27.5t-114 -75.5t-75.5 -114t-27.5 -143t27.5 -143t75.5 -114t114 -75.5t143 -27.5z" />
    <glyph glyph-name="uni24EA" unicode="&#x24ea;" 
d="M500 145q-72 0 -116 53.5t-44 151.5t44 151.5t116 53.5t116 -53.5t44 -151.5t-44 -151.5t-116 -53.5zM500 220q34 0 57 33t23 97t-23 97t-57 33t-57 -33t-23 -97t23 -97t57 -33zM500 -75q-90 0 -167.5 33.5t-135 91t-90 135t-32.5 165.5t32.5 165.5t90 135t135 91
t167.5 33.5t167.5 -33.5t135 -91t90 -135t32.5 -165.5t-32.5 -165.5t-90 -135t-135 -91t-167.5 -33.5zM500 -10q77 0 143 27.5t114 75.5t75.5 114t27.5 143t-27.5 143t-75.5 114t-114 75.5t-143 27.5t-143 -27.5t-114 -75.5t-75.5 -114t-27.5 -143t27.5 -143t75.5 -114
t114 -75.5t143 -27.5z" />
    <glyph glyph-name="uni24EB" unicode="&#x24eb;" 
d="M500 -75q-90 0 -167.5 33.5t-135 91t-90 135t-32.5 165.5t32.5 165.5t90 135t135 91t167.5 33.5t167.5 -33.5t135 -91t90 -135t32.5 -165.5t-32.5 -165.5t-90 -135t-135 -91t-167.5 -33.5zM440 150v400h-80v-30q0 -25 -25 -25h-65v-75h90v-270h80zM675 150v400h-80v-30
q0 -25 -25 -25h-65v-75h90v-270h80z" />
    <glyph glyph-name="uni24EC" unicode="&#x24ec;" 
d="M500 -75q-90 0 -167.5 33.5t-135 91t-90 135t-32.5 165.5t32.5 165.5t90 135t135 91t167.5 33.5t167.5 -33.5t135 -91t90 -135t32.5 -165.5t-32.5 -165.5t-90 -135t-135 -91t-167.5 -33.5zM405 150v400h-80v-30q0 -25 -25 -25h-65v-75h90v-270h80zM735 150v70h-160
l115 110q26 24 38 48.5t12 56.5q0 24 -9 46t-26.5 38.5t-42.5 26t-57 9.5q-34 0 -59.5 -9.5t-42.5 -26.5t-26.5 -40t-11.5 -49h80q0 23 15 39t45 16q26 0 40.5 -15.5t14.5 -34.5t-10 -35t-30 -35l-150 -145v-70h265z" />
    <glyph glyph-name="uni24ED" unicode="&#x24ed;" 
d="M500 -75q-90 0 -167.5 33.5t-135 91t-90 135t-32.5 165.5t32.5 165.5t90 135t135 91t167.5 33.5t167.5 -33.5t135 -91t90 -135t32.5 -165.5t-32.5 -165.5t-90 -135t-135 -91t-167.5 -33.5zM400 150v400h-80v-30q0 -25 -25 -25h-65v-75h90v-270h80zM598 145
q34 0 60.5 10.5t44.5 27.5t27.5 40t9.5 47q0 26 -15 50t-46 38q20 9 38 31t18 56q0 22 -10 42t-28 35t-44 24t-58 9q-34 0 -59.5 -9.5t-42.5 -26.5t-26.5 -40t-11.5 -49h80q4 19 17 34.5t43 15.5t42.5 -13t12.5 -32t-10 -32t-40 -13h-40v-70h40q55 0 55 -45q0 -23 -12.5 -39
t-42.5 -16q-51 0 -65 35h-80q8 -49 46 -79.5t97 -30.5z" />
    <glyph glyph-name="uni24EE" unicode="&#x24ee;" 
d="M500 -75q-90 0 -167.5 33.5t-135 91t-90 135t-32.5 165.5t32.5 165.5t90 135t135 91t167.5 33.5t167.5 -33.5t135 -91t90 -135t32.5 -165.5t-32.5 -165.5t-90 -135t-135 -91t-167.5 -33.5zM400 150v400h-80v-30q0 -25 -25 -25h-65v-75h90v-270h80zM705 150v85h60v70h-60
v245h-100l-160 -245v-70h180v-85h80zM620 450h5v-145h-100z" />
    <glyph glyph-name="uni24EF" unicode="&#x24ef;" 
d="M500 -75q-90 0 -167.5 33.5t-135 91t-90 135t-32.5 165.5t32.5 165.5t90 135t135 91t167.5 33.5t167.5 -33.5t135 -91t90 -135t32.5 -165.5t-32.5 -165.5t-90 -135t-135 -91t-167.5 -33.5zM395 150v400h-80v-30q0 -25 -25 -25h-65v-75h90v-270h80zM595 145
q34 0 61.5 10.5t47 29.5t30.5 44.5t11 55.5q0 64 -37.5 99.5t-97.5 35.5q-15 0 -27.5 -2.5t-20.5 -5.5q-10 -4 -17 -7h-5l10 70h175v75h-240l-25 -225h80q8 11 20 20.5t35 9.5q30 0 50 -18t20 -52q0 -30 -20 -47.5t-50 -17.5q-26 0 -41 12.5t-19 27.5h-85q8 -49 48 -82
t97 -33z" />
    <glyph glyph-name="uni24F0" unicode="&#x24f0;" 
d="M500 -75q-90 0 -167.5 33.5t-135 91t-90 135t-32.5 165.5t32.5 165.5t90 135t135 91t167.5 33.5t167.5 -33.5t135 -91t90 -135t32.5 -165.5t-32.5 -165.5t-90 -135t-135 -91t-167.5 -33.5zM395 150v400h-80v-30q0 -25 -25 -25h-65v-75h90v-270h80zM605 145
q32 0 59.5 11.5t47.5 30.5t31.5 44.5t11.5 53.5q0 30 -10 55.5t-27.5 44.5t-42.5 29.5t-55 10.5q-11 0 -17.5 -1t-10.5 -2t-7 -2l90 130h-90l-95 -140q-14 -21 -24.5 -51.5t-10.5 -68.5q0 -28 10 -54t29.5 -46.5t47 -32.5t63.5 -12zM605 220q-34 0 -52 20t-18 50t18 50
t52 20t52 -20t18 -50t-18 -50t-52 -20z" />
    <glyph glyph-name="uni24F1" unicode="&#x24f1;" 
d="M500 -75q-90 0 -167.5 33.5t-135 91t-90 135t-32.5 165.5t32.5 165.5t90 135t135 91t167.5 33.5t167.5 -33.5t135 -91t90 -135t32.5 -165.5t-32.5 -165.5t-90 -135t-135 -91t-167.5 -33.5zM415 150v400h-80v-30q0 -25 -25 -25h-65v-75h90v-270h80zM590 150l140 330v70
h-255v-70h170l-140 -330h85z" />
    <glyph glyph-name="uni24F2" unicode="&#x24f2;" 
d="M500 -75q-90 0 -167.5 33.5t-135 91t-90 135t-32.5 165.5t32.5 165.5t90 135t135 91t167.5 33.5t167.5 -33.5t135 -91t90 -135t32.5 -165.5t-32.5 -165.5t-90 -135t-135 -91t-167.5 -33.5zM405 150v400h-80v-30q0 -25 -25 -25h-65v-75h90v-270h80zM605 145
q64 0 104.5 31.5t40.5 88.5q0 26 -13 53t-47 42q23 11 36.5 35t13.5 50q0 45 -35.5 77.5t-99.5 32.5t-99.5 -32.5t-35.5 -77.5q0 -26 13.5 -50t36.5 -35q-34 -15 -47 -42t-13 -53q0 -57 40.5 -88.5t104.5 -31.5zM605 215q-30 0 -47.5 16.5t-17.5 41.5q0 24 17.5 40.5
t47.5 16.5t47.5 -16.5t17.5 -40.5q0 -25 -17.5 -41.5t-47.5 -16.5zM605 390q-26 0 -40.5 15t-14.5 32q0 21 14.5 34.5t40.5 13.5t40.5 -13.5t14.5 -34.5q0 -17 -14.5 -32t-40.5 -15z" />
    <glyph glyph-name="uni24F3" unicode="&#x24f3;" 
d="M500 -75q-90 0 -167.5 33.5t-135 91t-90 135t-32.5 165.5t32.5 165.5t90 135t135 91t167.5 33.5t167.5 -33.5t135 -91t90 -135t32.5 -165.5t-32.5 -165.5t-90 -135t-135 -91t-167.5 -33.5zM405 150v400h-80v-30q0 -25 -25 -25h-65v-75h90v-270h80zM624 150l95 140
q14 21 24.5 51.5t10.5 68.5q0 28 -10 54t-29.5 46.5t-47 32.5t-63.5 12q-32 0 -59.5 -11.5t-47.5 -30.5t-31.5 -44.5t-11.5 -53.5q0 -30 10 -55.5t27.5 -44.5t42.5 -29.5t55 -10.5q11 0 17.5 0.5t10.5 1.5t7 3l-90 -130h90zM604 340q-34 0 -52 20t-18 50t18 50t52 20t52 -20
t18 -50t-18 -50t-52 -20z" />
    <glyph glyph-name="uni24F4" unicode="&#x24f4;" 
d="M500 -75q-90 0 -167.5 33.5t-135 91t-90 135t-32.5 165.5t32.5 165.5t90 135t135 91t167.5 33.5t167.5 -33.5t135 -91t90 -135t32.5 -165.5t-32.5 -165.5t-90 -135t-135 -91t-167.5 -33.5zM475 150v70h-160l115 110q26 24 38 48.5t12 56.5q0 24 -9 46t-26.5 38.5
t-42.5 26t-57 9.5q-34 0 -59.5 -9.5t-42.5 -26.5t-26.5 -40t-11.5 -49h80q0 23 15 39t45 16q26 0 40.5 -15.5t14.5 -34.5t-10 -35t-30 -35l-150 -145v-70h265zM655 145q72 0 116 53.5t44 151.5t-44 151.5t-116 53.5t-116 -53.5t-44 -151.5t44 -151.5t116 -53.5zM655 220
q-34 0 -57 33t-23 97t23 97t57 33t57 -33t23 -97t-23 -97t-57 -33z" />
    <glyph glyph-name="uni24FF" unicode="&#x24ff;" 
d="M500 -75q-90 0 -167.5 33.5t-135 91t-90 135t-32.5 165.5t32.5 165.5t90 135t135 91t167.5 33.5t167.5 -33.5t135 -91t90 -135t32.5 -165.5t-32.5 -165.5t-90 -135t-135 -91t-167.5 -33.5zM500 145q72 0 116 53.5t44 151.5t-44 151.5t-116 53.5t-116 -53.5t-44 -151.5
t44 -151.5t116 -53.5zM500 220q-34 0 -57 33t-23 97t23 97t57 33t57 -33t23 -97t-23 -97t-57 -33z" />
    <glyph glyph-name="lozenge" unicode="&#x25ca;" horiz-adv-x="595" 
d="M40 350l225 350h65l225 -350l-225 -350h-65zM460 350l-163 255l-162 -255l162 -255z" />
    <glyph glyph-name="uni2776" unicode="&#x2776;" 
d="M500 -75q-90 0 -167.5 33.5t-135 91t-90 135t-32.5 165.5t32.5 165.5t90 135t135 91t167.5 33.5t167.5 -33.5t135 -91t90 -135t32.5 -165.5t-32.5 -165.5t-90 -135t-135 -91t-167.5 -33.5zM555 150v400h-80v-30q0 -25 -25 -25h-65v-75h90v-270h80z" />
    <glyph glyph-name="uni2777" unicode="&#x2777;" 
d="M500 -75q-90 0 -167.5 33.5t-135 91t-90 135t-32.5 165.5t32.5 165.5t90 135t135 91t167.5 33.5t167.5 -33.5t135 -91t90 -135t32.5 -165.5t-32.5 -165.5t-90 -135t-135 -91t-167.5 -33.5zM635 150v70h-160l115 110q26 24 38 48.5t12 56.5q0 24 -9 46t-26.5 38.5
t-42.5 26t-57 9.5q-34 0 -59.5 -9.5t-42.5 -26.5t-26.5 -40t-11.5 -49h80q0 23 15 39t45 16q26 0 40.5 -15.5t14.5 -34.5t-10 -35t-30 -35l-150 -145v-70h265z" />
    <glyph glyph-name="uni2778" unicode="&#x2778;" 
d="M500 -75q-90 0 -167.5 33.5t-135 91t-90 135t-32.5 165.5t32.5 165.5t90 135t135 91t167.5 33.5t167.5 -33.5t135 -91t90 -135t32.5 -165.5t-32.5 -165.5t-90 -135t-135 -91t-167.5 -33.5zM503 145q34 0 60.5 10.5t44.5 27.5t27.5 40t9.5 47q0 26 -15 50t-46 38
q20 9 38 31t18 56q0 22 -10 42t-28 35t-44 24t-58 9q-34 0 -59.5 -9.5t-42.5 -26.5t-26.5 -40t-11.5 -49h80q4 19 17 34.5t43 15.5t42.5 -13t12.5 -32t-10 -32t-40 -13h-40v-70h40q55 0 55 -45q0 -23 -12.5 -39t-42.5 -16q-51 0 -65 35h-80q8 -49 46 -79.5t97 -30.5z" />
    <glyph glyph-name="uni2779" unicode="&#x2779;" 
d="M500 -75q-90 0 -167.5 33.5t-135 91t-90 135t-32.5 165.5t32.5 165.5t90 135t135 91t167.5 33.5t167.5 -33.5t135 -91t90 -135t32.5 -165.5t-32.5 -165.5t-90 -135t-135 -91t-167.5 -33.5zM585 150v85h60v70h-60v245h-100l-160 -245v-70h180v-85h80zM500 450h5v-145h-100
z" />
    <glyph glyph-name="uni277A" unicode="&#x277a;" 
d="M500 -75q-90 0 -167.5 33.5t-135 91t-90 135t-32.5 165.5t32.5 165.5t90 135t135 91t167.5 33.5t167.5 -33.5t135 -91t90 -135t32.5 -165.5t-32.5 -165.5t-90 -135t-135 -91t-167.5 -33.5zM500 145q34 0 61.5 10.5t47 29.5t30.5 44.5t11 55.5q0 64 -37.5 99.5t-97.5 35.5
q-15 0 -27.5 -2.5t-20.5 -5.5q-10 -4 -17 -7h-5l10 70h175v75h-240l-25 -225h80q8 11 20 20.5t35 9.5q30 0 50 -18t20 -52q0 -30 -20 -47.5t-50 -17.5q-26 0 -41 12.5t-19 27.5h-85q8 -49 48 -82t97 -33z" />
    <glyph glyph-name="uni277B" unicode="&#x277b;" 
d="M500 -75q-90 0 -167.5 33.5t-135 91t-90 135t-32.5 165.5t32.5 165.5t90 135t135 91t167.5 33.5t167.5 -33.5t135 -91t90 -135t32.5 -165.5t-32.5 -165.5t-90 -135t-135 -91t-167.5 -33.5zM500 145q32 0 59.5 11.5t47.5 30.5t31.5 44.5t11.5 53.5q0 30 -10 55.5
t-27.5 44.5t-42.5 29.5t-55 10.5q-11 0 -17.5 -1t-10.5 -2t-7 -2l90 130h-90l-95 -140q-14 -21 -24.5 -51.5t-10.5 -68.5q0 -28 10 -54t29.5 -46.5t47 -32.5t63.5 -12zM500 220q-34 0 -52 20t-18 50t18 50t52 20t52 -20t18 -50t-18 -50t-52 -20z" />
    <glyph glyph-name="uni277C" unicode="&#x277c;" 
d="M500 -75q-90 0 -167.5 33.5t-135 91t-90 135t-32.5 165.5t32.5 165.5t90 135t135 91t167.5 33.5t167.5 -33.5t135 -91t90 -135t32.5 -165.5t-32.5 -165.5t-90 -135t-135 -91t-167.5 -33.5zM490 150l140 330v70h-255v-70h170l-140 -330h85z" />
    <glyph glyph-name="uni277D" unicode="&#x277d;" 
d="M500 -75q-90 0 -167.5 33.5t-135 91t-90 135t-32.5 165.5t32.5 165.5t90 135t135 91t167.5 33.5t167.5 -33.5t135 -91t90 -135t32.5 -165.5t-32.5 -165.5t-90 -135t-135 -91t-167.5 -33.5zM500 145q64 0 104.5 31.5t40.5 88.5q0 26 -13 53t-47 42q23 11 36.5 35t13.5 50
q0 45 -35.5 77.5t-99.5 32.5t-99.5 -32.5t-35.5 -77.5q0 -26 13.5 -50t36.5 -35q-34 -15 -47 -42t-13 -53q0 -57 40.5 -88.5t104.5 -31.5zM500 215q-30 0 -47.5 16.5t-17.5 41.5q0 24 17.5 40.5t47.5 16.5t47.5 -16.5t17.5 -40.5q0 -25 -17.5 -41.5t-47.5 -16.5zM500 390
q-26 0 -40.5 15t-14.5 32q0 21 14.5 34.5t40.5 13.5t40.5 -13.5t14.5 -34.5q0 -17 -14.5 -32t-40.5 -15z" />
    <glyph glyph-name="uni277E" unicode="&#x277e;" 
d="M500 -75q-90 0 -167.5 33.5t-135 91t-90 135t-32.5 165.5t32.5 165.5t90 135t135 91t167.5 33.5t167.5 -33.5t135 -91t90 -135t32.5 -165.5t-32.5 -165.5t-90 -135t-135 -91t-167.5 -33.5zM520 150l95 140q14 21 24.5 51.5t10.5 68.5q0 28 -10 54t-29.5 46.5t-47 32.5
t-63.5 12q-32 0 -59.5 -11.5t-47.5 -30.5t-31.5 -44.5t-11.5 -53.5q0 -30 10 -55.5t27.5 -44.5t42.5 -29.5t55 -10.5q11 0 17.5 0.5t10.5 1.5t7 3l-90 -130h90zM500 340q-34 0 -52 20t-18 50t18 50t52 20t52 -20t18 -50t-18 -50t-52 -20z" />
    <glyph glyph-name="uni277F" unicode="&#x277f;" 
d="M500 -75q-90 0 -167.5 33.5t-135 91t-90 135t-32.5 165.5t32.5 165.5t90 135t135 91t167.5 33.5t167.5 -33.5t135 -91t90 -135t32.5 -165.5t-32.5 -165.5t-90 -135t-135 -91t-167.5 -33.5zM394 150v400h-80v-30q0 -25 -25 -25h-65v-75h90v-270h80zM610 145q72 0 116 53.5
t44 151.5t-44 151.5t-116 53.5t-116 -53.5t-44 -151.5t44 -151.5t116 -53.5zM610 220q-34 0 -57 33t-23 97t23 97t57 33t57 -33t23 -97t-23 -97t-57 -33z" />
    <glyph glyph-name="uni2921" unicode="&#x2921;" 
d="M520 100h175l-445 445v-175h-80v300l10 10h300v-80h-180l450 -450v180h80v-300l-10 -10h-300v80z" />
    <glyph glyph-name="uni2922" unicode="&#x2922;" 
d="M170 30v300h80v-180l450 450h-180v80h300l10 -10v-300h-80v175l-445 -445h175v-80h-300z" />
    <glyph glyph-name="back_left.icon" unicode="&#xe000;" 
d="M295 215v5l215 215l53 -53l-123 -122h265q23 0 36.5 13.5t13.5 36.5v260q0 23 -13.5 36.5t-36.5 13.5h-540v80h540q57 0 93.5 -36.5t36.5 -93.5v-260q0 -57 -36.5 -93.5t-93.5 -36.5h-270l128 -128l-53 -52z" />
    <glyph glyph-name="back_right.icon" unicode="&#xe001;" 
d="M295 0q-57 0 -93.5 36.5t-36.5 93.5v260q0 57 36.5 93.5t93.5 36.5h270l-128 128l53 52l215 -215v-5l-215 -215l-53 53l123 122h-265q-23 0 -36.5 -13.5t-13.5 -36.5v-260q0 -23 13.5 -36.5t36.5 -13.5h540v-80h-540v0z" />
    <glyph glyph-name="angle_left.icon" unicode="&#xe002;" 
d="M312 353v4l293 253l50 -55l-228 -198v-4l228 -198l-50 -55z" />
    <glyph glyph-name="angle_up.icon" unicode="&#xe003;" 
d="M245 250l253 293h4l253 -293l-55 -50l-198 228h-4l-198 -228z" />
    <glyph glyph-name="angle_right.icon" unicode="&#xe004;" 
d="M345 155l228 198v4l-228 198l50 55l293 -253v-4l-293 -253z" />
    <glyph glyph-name="angle_down.icon" unicode="&#xe005;" 
d="M245 465l55 50l198 -228h4l198 228l55 -50l-253 -293h-4z" />
    <glyph glyph-name="angle_double_left.icon" unicode="&#xe006;" 
d="M210 353v4l293 253l50 -55l-228 -198v-4l228 -198l-50 -55zM402 353v4l293 253l50 -55l-228 -198v-4l228 -198l-50 -55z" />
    <glyph glyph-name="angle_double_up.icon" unicode="&#xe007;" 
d="M245 155l253 293h4l253 -293l-55 -50l-198 228h-4l-198 -228zM245 345l253 293h4l253 -293l-55 -50l-198 228h-4l-198 -228z" />
    <glyph glyph-name="angle_double_right.icon" unicode="&#xe008;" 
d="M255 155l228 198v4l-228 198l50 55l293 -253v-4l-293 -253zM447 155l228 198v4l-228 198l50 55l293 -253v-4l-293 -253z" />
    </font>
</defs>
</svg>
