<svg xmlns="http://www.w3.org/2000/svg">
<defs>
<font id="TTInterphases-Regular" horiz-adv-x="1000" >
  <font-face 
    font-family="TT Interphases"
    font-weight="400"
    font-stretch="normal"
    units-per-em="1000"
    panose-1="2 0 5 3 2 0 0 2 0 4"
    ascent="760"
    descent="-240"
    x-height="520"
    cap-height="700"
    bbox="-510 -245 1438 985"
    underline-thickness="50"
    underline-position="-200"
    unicode-range="U+000D-FB04"
  />
<missing-glyph horiz-adv-x="900" 
d="M100 284h45v-139h33v139h50v31h-128v126l19 -61h23l34 106l33 -106h23l54 170h-32l-34 -110l-35 110h-19l-35 -110l-31 103v157h700v-150h-110v-170h110v-91q-13 27 -50 27q-29 0 -44.5 -14.5t-15.5 -34.5q0 -22 13.5 -32t30 -15t30.5 -9.5t14 -16.5q0 -14 -9.5 -17.5
t-18.5 -3.5q-15 0 -21.5 7.5t-6.5 17.5h-33q0 -24 16.5 -39.5t44.5 -15.5q20 0 32.5 7.5t17.5 12.5v-163h-700v284zM328 143q38 0 60 25t22 61q0 37 -22.5 62t-59.5 25t-59.5 -25t-22.5 -62q0 -36 22 -61t60 -25zM328 174q-23 0 -37 16t-14 39q0 24 13.5 40t37.5 16
t37.5 -16t13.5 -40q0 -23 -14 -39t-37 -16zM549 315h-32v-106q0 -29 19.5 -47.5t48.5 -18.5t48 18.5t19 47.5v106h-32v-106q0 -15 -9 -25t-26 -10q-18 0 -27 11t-9 24v106zM344 380v62h24l35 -62h37l-40 67q36 16 36 50q0 21 -15.5 37t-41.5 16h-68v-170h33zM344 519h35
q10 0 17 -6t7 -17q0 -13 -8 -18t-16 -5h-35v46zM502 380v170h-33v-170h33zM800 262v-38q-11 10 -24 14.5t-24.5 8.5t-19.5 8t-8 12q0 9 7.5 14.5t18.5 5.5q10 0 18 -6.5t8 -18.5h24zM612 380v139h50v31h-132v-31h50v-139h32zM722 452h78v-41h-78v41zM722 519h78v-36h-78v36z
" />
    <glyph glyph-name="ff" unicode="ff" horiz-adv-x="635" 
d="M105 450h-80v70h80v50q0 57 36.5 93.5t93.5 36.5h80v-70h-75q-26 0 -43 -17t-17 -43v-50h225v50q0 57 36.5 93.5t93.5 36.5h80v-70h-75q-26 0 -43 -17t-17 -43v-50h135v-70h-135v-450h-75v450h-225v-450h-75v450z" />
    <glyph glyph-name="fi" unicode="fi" horiz-adv-x="550" 
d="M105 450h-80v70h80v50q0 57 36.5 93.5t93.5 36.5h80v-70h-75q-26 0 -43 -17t-17 -43v-50h300v-520h-75v450h-225v-450h-75v450zM443 595q-22 0 -37.5 15t-15.5 37t15 37.5t38 15.5q22 0 37 -15.5t15 -37.5q0 -21 -15 -36.5t-37 -15.5z" />
    <glyph glyph-name="fl" unicode="fl" horiz-adv-x="560" 
d="M105 450h-80v70h80v50q0 57 36.5 93.5t93.5 36.5h250v-700h-75v630h-170q-26 0 -43 -17t-17 -43v-50h135v-70h-135v-450h-75v450z" />
    <glyph glyph-name="ffi" unicode="ffi" horiz-adv-x="850" 
d="M105 450h-80v70h80v50q0 57 36.5 93.5t93.5 36.5h80v-70h-75q-26 0 -43 -17t-17 -43v-50h225v50q0 57 36.5 93.5t93.5 36.5h80v-70h-75q-26 0 -43 -17t-17 -43v-50h300v-520h-75v450h-225v-450h-75v450h-225v-450h-75v450zM743 595q-22 0 -37.5 15t-15.5 37t15 37.5
t38 15.5q22 0 37 -15.5t15 -37.5q0 -21 -15 -36.5t-37 -15.5z" />
    <glyph glyph-name="ffl" unicode="ffl" horiz-adv-x="860" 
d="M105 450h-80v70h80v50q0 57 36.5 93.5t93.5 36.5h80v-70h-75q-26 0 -43 -17t-17 -43v-50h225v50q0 57 36.5 93.5t93.5 36.5h250v-700h-75v630h-170q-26 0 -43 -17t-17 -43v-50h135v-70h-135v-450h-75v450h-225v-450h-75v450z" />
    <glyph glyph-name="f_f_j" unicode="ffj" horiz-adv-x="850" 
d="M570 -130h75q26 0 43 17t17 43v520h-225v-450h-75v450h-225v-450h-75v450h-80v70h80v50q0 57 36.5 93.5t93.5 36.5h80v-70h-75q-26 0 -43 -17t-17 -43v-50h225v50q0 57 36.5 93.5t93.5 36.5h80v-70h-75q-26 0 -43 -17t-17 -43v-50h300v-590q0 -57 -36.5 -93.5
t-93.5 -36.5h-80v70zM743 595q-22 0 -37.5 15t-15.5 37t15 37.5t38 15.5q22 0 37 -15.5t15 -37.5q0 -21 -15 -36.5t-37 -15.5z" />
    <glyph glyph-name="f_j" unicode="fj" horiz-adv-x="550" 
d="M270 -130h75q26 0 43 17t17 43v520h-225v-450h-75v450h-80v70h80v50q0 57 36.5 93.5t93.5 36.5h80v-70h-75q-26 0 -43 -17t-17 -43v-50h300v-590q0 -57 -36.5 -93.5t-93.5 -36.5h-80v70zM443 595q-22 0 -37.5 15t-15.5 37t15 37.5t38 15.5q22 0 37 -15.5t15 -37.5
q0 -21 -15 -36.5t-37 -15.5z" />
    <glyph glyph-name=".notdef" horiz-adv-x="900" 
d="M100 284h45v-139h33v139h50v31h-128v126l19 -61h23l34 106l33 -106h23l54 170h-32l-34 -110l-35 110h-19l-35 -110l-31 103v157h700v-150h-110v-170h110v-91q-13 27 -50 27q-29 0 -44.5 -14.5t-15.5 -34.5q0 -22 13.5 -32t30 -15t30.5 -9.5t14 -16.5q0 -14 -9.5 -17.5
t-18.5 -3.5q-15 0 -21.5 7.5t-6.5 17.5h-33q0 -24 16.5 -39.5t44.5 -15.5q20 0 32.5 7.5t17.5 12.5v-163h-700v284zM328 143q38 0 60 25t22 61q0 37 -22.5 62t-59.5 25t-59.5 -25t-22.5 -62q0 -36 22 -61t60 -25zM328 174q-23 0 -37 16t-14 39q0 24 13.5 40t37.5 16
t37.5 -16t13.5 -40q0 -23 -14 -39t-37 -16zM549 315h-32v-106q0 -29 19.5 -47.5t48.5 -18.5t48 18.5t19 47.5v106h-32v-106q0 -15 -9 -25t-26 -10q-18 0 -27 11t-9 24v106zM344 380v62h24l35 -62h37l-40 67q36 16 36 50q0 21 -15.5 37t-41.5 16h-68v-170h33zM344 519h35
q10 0 17 -6t7 -17q0 -13 -8 -18t-16 -5h-35v46zM502 380v170h-33v-170h33zM800 262v-38q-11 10 -24 14.5t-24.5 8.5t-19.5 8t-8 12q0 9 7.5 14.5t18.5 5.5q10 0 18 -6.5t8 -18.5h24zM612 380v139h50v31h-132v-31h50v-139h32zM722 452h78v-41h-78v41zM722 519h78v-36h-78v36z
" />
    <glyph glyph-name=".null" horiz-adv-x="0" 
 />
    <glyph glyph-name=".null" horiz-adv-x="0" 
 />
    <glyph glyph-name="nonmarkingreturn" unicode="&#xd;" horiz-adv-x="0" 
 />
    <glyph glyph-name="space" unicode=" " horiz-adv-x="220" 
 />
    <glyph glyph-name="exclam" unicode="!" horiz-adv-x="280" 
d="M140 -5q-23 0 -39 16t-16 39t16 39t39 16t39 -16t16 -39t-16 -39t-39 -16zM95 650v50h90v-50l-15 -450h-60z" />
    <glyph glyph-name="quotedbl" unicode="&#x22;" horiz-adv-x="365" 
d="M70 700h75v-220h-75v220zM220 700h75v-220h-75v220z" />
    <glyph glyph-name="numbersign" unicode="#" horiz-adv-x="645" 
d="M141 190h-121l15 70h121l39 180h-120l15 70h120l40 190h75l-40 -190h144l41 190h75l-41 -190h121l-15 -70h-121l-39 -180h120l-15 -70h-120l-40 -190h-75l40 190h-144l-41 -190h-75zM375 260l39 180h-144l-39 -180h144z" />
    <glyph glyph-name="dollar" unicode="$" horiz-adv-x="590" 
d="M255 -8q-88 10 -143 60t-72 128h85q19 -57 62.5 -86t107.5 -29q86 0 128 36t42 89q0 34 -17.5 55t-46 34.5t-65 22.5t-74 19t-74 23.5t-65 35.5t-46 55.5t-17.5 84.5q0 72 50.5 124.5t144.5 63.5v102h85v-103q76 -10 127 -52.5t68 -114.5h-85q-15 42 -53 68.5t-102 26.5
q-75 0 -112.5 -33t-37.5 -82q0 -36 17.5 -58.5t46 -37t65 -24t74 -19.5t74 -22.5t65 -34t46 -53.5t17.5 -81q0 -36 -13.5 -69t-40.5 -59.5t-66 -44.5t-90 -24v-103h-85v102z" />
    <glyph glyph-name="percent" unicode="%" horiz-adv-x="745" 
d="M545 700h90l-435 -700h-90zM555 -10q-34 0 -62.5 11t-49 31.5t-32 50t-11.5 67.5q0 37 11.5 67t32 50.5t49 31.5t62.5 11t62.5 -11t49 -31.5t32 -50.5t11.5 -67q0 -38 -11.5 -67.5t-32 -50t-49 -31.5t-62.5 -11zM555 55q38 0 61.5 25t23.5 70t-23.5 70t-61.5 25
t-61.5 -25t-23.5 -70t23.5 -70t61.5 -25zM190 390q-34 0 -62.5 11t-49 31.5t-32 50t-11.5 67.5q0 37 11.5 67t32 50.5t49 31.5t62.5 11t62.5 -11t49 -31.5t32 -50.5t11.5 -67q0 -38 -11.5 -67.5t-32 -50t-49 -31.5t-62.5 -11zM190 455q38 0 61.5 25t23.5 70t-23.5 70
t-61.5 25t-61.5 -25t-23.5 -70t23.5 -70t61.5 -25z" />
    <glyph glyph-name="ampersand" unicode="&#x26;" horiz-adv-x="620" 
d="M250 -10q-53 0 -92 14t-65.5 38.5t-39.5 57t-13 70.5q0 60 27.5 100t72.5 70l39 26l-34 34q-28 28 -46.5 59.5t-18.5 80.5q0 36 13.5 67t38 54t58.5 36t75 13t74.5 -12.5t57 -34.5t36 -52t12.5 -66q0 -41 -22 -80.5t-78 -74.5l-40 -25l170 -170l90 95h105l-144 -147
l144 -143h-115l-85 85q-17 -15 -38 -31.5t-47.5 -31t-60 -23.5t-74.5 -9zM245 65q53 0 94.5 22.5t74.5 53.5l-174 174l-45 -30q-41 -27 -55.5 -54t-14.5 -61q0 -26 10.5 -46t27 -33t38 -19.5t44.5 -6.5zM300 450q33 23 46.5 44t13.5 51q0 38 -25 64t-70 26t-72.5 -27.5
t-27.5 -72.5q0 -26 9.5 -45t35.5 -45l34 -34z" />
    <glyph glyph-name="quotesingle" unicode="'" horiz-adv-x="215" 
d="M70 700h75v-220h-75v220z" />
    <glyph glyph-name="parenleft" unicode="(" horiz-adv-x="310" 
d="M200 -200q-60 87 -95 206t-35 259t35 259t95 206h80q-60 -87 -95 -206t-35 -259t35 -259t95 -206h-80v0z" />
    <glyph glyph-name="parenright" unicode=")" horiz-adv-x="310" 
d="M30 -200q60 87 95 206t35 259t-35 259t-95 206h80q60 -87 95 -206t35 -259t-35 -259t-95 -206h-80v0z" />
    <glyph glyph-name="asterisk" unicode="*" horiz-adv-x="470" 
d="M90 375l100 115l-150 40l25 75l140 -55l-10 150h80l-10 -150l140 55l25 -75l-150 -40l100 -115l-65 -45l-80 125l-80 -125z" />
    <glyph glyph-name="plus" unicode="+" horiz-adv-x="560" 
d="M245 270h-205v70h205v205h70v-205h205v-70h-205v-205h-70v205z" />
    <glyph glyph-name="comma" unicode="," horiz-adv-x="220" 
d="M75 100h80l-60 -200h-60z" />
    <glyph glyph-name="hyphen" unicode="-" horiz-adv-x="390" 
d="M45 315h300v-70h-300v70z" />
    <glyph glyph-name="period" unicode="." horiz-adv-x="220" 
d="M110 -5q-23 0 -39 16t-16 39t16 39t39 16t39 -16t16 -39t-16 -39t-39 -16z" />
    <glyph glyph-name="slash" unicode="/" horiz-adv-x="370" 
d="M290 730h80l-290 -930h-80z" />
    <glyph glyph-name="zero" unicode="0" horiz-adv-x="670" 
d="M335 -10q-62 0 -114 22.5t-90 67.5t-59.5 112.5t-21.5 157.5t21.5 157.5t59.5 112.5t90 67.5t114 22.5t114 -22.5t90 -67.5t59.5 -112.5t21.5 -157.5t-21.5 -157.5t-59.5 -112.5t-90 -67.5t-114 -22.5zM335 65q41 0 77.5 17t63.5 52.5t43 89t16 126.5t-16 126.5t-43 89
t-63.5 52.5t-77.5 17t-77.5 -17t-63.5 -52.5t-43 -89t-16 -126.5t16 -126.5t43 -89t63.5 -52.5t77.5 -17z" />
    <glyph glyph-name="one" unicode="1" horiz-adv-x="335" 
d="M165 535h-135v75h95q40 0 40 40v50h85v-700h-85v535z" />
    <glyph glyph-name="two" unicode="2" horiz-adv-x="565" 
d="M45 75l315 320q26 26 43 53.5t17 61.5q0 60 -36 92.5t-104 32.5q-32 0 -58 -9.5t-45 -26t-31 -38.5t-16 -46h-85q7 43 26 79t48.5 61.5t69.5 40t91 14.5q52 0 94 -14.5t71 -40.5t44.5 -63t15.5 -82q0 -26 -7.5 -49.5t-20 -44t-27.5 -38.5t-30 -33l-265 -270h360v-75h-470
v75z" />
    <glyph glyph-name="three" unicode="3" horiz-adv-x="570" 
d="M275 -10q-47 0 -88 13t-73 37.5t-52.5 61t-26.5 83.5h85q4 -26 17.5 -48t34 -38t47 -25t56.5 -9q75 0 115 36t40 89t-40 89t-115 36h-50v70h50q36 0 63 9.5t45 26.5t27.5 40t9.5 49t-9.5 49t-27.5 40t-45 26.5t-63 9.5q-57 0 -97 -33.5t-48 -86.5h-85q15 94 77.5 144.5
t152.5 50.5q54 0 97 -15t72.5 -42t45 -63.5t15.5 -79.5q0 -57 -26 -96.5t-79 -58.5q57 -19 86 -63.5t29 -101.5q0 -41 -15.5 -77.5t-46 -63.5t-75.5 -43t-103 -16z" />
    <glyph glyph-name="four" unicode="4" horiz-adv-x="555" 
d="M355 165h-335v75l300 460h120v-460h90v-75h-90v-165h-85v165zM355 240v370h-5l-240 -370h245z" />
    <glyph glyph-name="five" unicode="5" horiz-adv-x="580" 
d="M290 -10q-43 0 -82.5 13t-71.5 37.5t-54.5 61t-31.5 83.5h85q15 -53 56.5 -86.5t98.5 -33.5q37 0 67 11.5t50.5 32.5t31.5 50.5t11 65.5t-11 66t-31.5 52t-50.5 34.5t-67 12.5q-45 0 -82 -20.5t-63 -54.5h-80l35 385h395v-75h-320l-20 -210h5q30 26 65 38t80 12
q51 0 93 -18.5t72.5 -51t47.5 -76t17 -94.5q0 -53 -17 -96t-49 -74t-77.5 -48t-101.5 -17z" />
    <glyph glyph-name="six" unicode="6" horiz-adv-x="580" 
d="M290 -10q-56 0 -101.5 17t-77.5 49t-49 77.5t-17 101.5q0 49 16 99.5t54 110.5q19 30 46 73t53 84q30 48 61 98h95l-185 -285h5q23 19 51.5 27t58.5 8q52 0 95.5 -17t74.5 -47.5t48 -72.5t17 -93q0 -49 -17 -91t-49 -73t-77.5 -48.5t-101.5 -17.5zM290 65q72 0 116 41.5
t44 113.5t-44 113.5t-116 41.5t-116 -41.5t-44 -113.5t44 -113.5t116 -41.5z" />
    <glyph glyph-name="seven" unicode="7" horiz-adv-x="515" 
d="M390 625h-360v75h450v-75l-275 -625h-90z" />
    <glyph glyph-name="eight" unicode="8" horiz-adv-x="590" 
d="M295 -10q-56 0 -100.5 16t-75.5 43.5t-47.5 65t-16.5 80.5q0 28 9.5 54t25.5 47.5t36.5 38t43.5 25.5q-19 9 -37 24t-32 34.5t-22.5 44t-8.5 52.5q0 41 15.5 76.5t44.5 62t70.5 41.5t94.5 15q52 0 94 -15t71 -41.5t44.5 -62t15.5 -76.5q0 -28 -8.5 -52.5t-22.5 -44
t-32 -34.5t-37 -24q22 -9 43 -25.5t37 -38t25.5 -47.5t9.5 -54q0 -43 -16.5 -80.5t-47.5 -65t-75.5 -43.5t-100.5 -16zM295 65q72 0 113.5 36.5t41.5 93.5t-41.5 93.5t-113.5 36.5t-113.5 -36.5t-41.5 -93.5t41.5 -93.5t113.5 -36.5zM295 395q64 0 102 33.5t38 86.5
t-38 86.5t-102 33.5t-102 -33.5t-38 -86.5t38 -86.5t102 -33.5z" />
    <glyph glyph-name="nine" unicode="9" horiz-adv-x="580" 
d="M395 285h-5q-23 -19 -51.5 -27t-58.5 -8q-53 0 -96 17t-74 47.5t-48 72.5t-17 93q0 49 17 91t49 73t77.5 48.5t101.5 17.5t101.5 -17t77.5 -49t49 -77.5t17 -101.5q0 -49 -16 -99.5t-54 -110.5q-19 -30 -46 -73.5t-53 -84.5q-30 -48 -61 -97h-95zM290 325q72 0 116 41.5
t44 113.5t-44 113.5t-116 41.5t-116 -41.5t-44 -113.5t44 -113.5t116 -41.5z" />
    <glyph glyph-name="colon" unicode=":" horiz-adv-x="220" 
d="M110 -5q-23 0 -39 16t-16 39t16 39t39 16t39 -16t16 -39t-16 -39t-39 -16zM110 415q-23 0 -39 16t-16 39t16 39t39 16t39 -16t16 -39t-16 -39t-39 -16z" />
    <glyph glyph-name="semicolon" unicode=";" horiz-adv-x="220" 
d="M75 100h80l-60 -200h-60zM110 415q-23 0 -39 16t-16 39t16 39t39 16t39 -16t16 -39t-16 -39t-39 -16z" />
    <glyph glyph-name="less" unicode="&#x3c;" horiz-adv-x="540" 
d="M55 265v80l430 210v-80l-355 -170l355 -170v-80z" />
    <glyph glyph-name="equal" unicode="=" horiz-adv-x="555" 
d="M40 235h475v-70h-475v70zM40 440h475v-70h-475v70z" />
    <glyph glyph-name="greater" unicode="&#x3e;" horiz-adv-x="540" 
d="M55 135l355 170l-355 170v80l430 -210v-80l-430 -210v80z" />
    <glyph glyph-name="question" unicode="?" horiz-adv-x="510" 
d="M245 -5q-23 0 -39 16t-16 39t16 39t39 16t39 -16t16 -39t-16 -39t-39 -16zM205 250q0 42 12 70t30.5 48t40 34.5t40 31t30.5 37.5t12 54q0 53 -34 84t-91 31q-53 0 -85 -33t-40 -82h-80q6 45 24 79.5t45 58t62 35.5t74 12q43 0 80.5 -12t65 -35.5t43.5 -58t16 -79.5
q0 -40 -12 -67.5t-30.5 -48t-40 -37t-40 -33.5t-30.5 -38t-12 -51v-50h-80v50z" />
    <glyph glyph-name="at" unicode="@" horiz-adv-x="920" 
d="M435 -90q-83 0 -151.5 28t-118.5 79t-77.5 123t-27.5 160q0 86 29 158t82 123.5t127.5 80t166.5 28.5t166.5 -28.5t127.5 -79.5t82 -122t29 -155q0 -60 -11.5 -102.5t-32.5 -70t-50.5 -40t-65.5 -12.5q-34 0 -56 10.5t-35 24.5q-16 15 -24 35h-5q-19 -30 -53 -50t-87 -20
q-41 0 -75 14.5t-58.5 41.5t-38 66t-13.5 88t13.5 88t37.5 66t57 41.5t72 14.5q53 0 82.5 -14.5t52.5 -40.5h5l10 50h55v-279q0 -31 17 -48.5t43 -17.5q19 0 34.5 7.5t26.5 25t17.5 47.5t6.5 75q0 69 -23.5 127t-66.5 100t-104 65t-136 23t-136 -23.5t-104 -65.5t-66.5 -101
t-23.5 -130q0 -73 22.5 -132t62 -101t94.5 -64.5t121 -22.5h175v-70h-175zM460 145q60 0 90 38.5t30 106.5t-30 106.5t-90 38.5t-90 -38.5t-30 -106.5t30 -106.5t90 -38.5z" />
    <glyph glyph-name="A" unicode="A" horiz-adv-x="625" 
d="M265 700h95l265 -700h-85l-65 175h-325l-65 -175h-85zM445 250l-130 355h-5l-130 -355h265z" />
    <glyph glyph-name="B" unicode="B" horiz-adv-x="650" 
d="M85 700h295q98 0 151.5 -52t53.5 -143q0 -49 -24 -90t-66 -60q42 -15 71 -59t29 -101q0 -91 -53.5 -143t-151.5 -52h-305v700zM385 75q57 0 91 31.5t34 88.5t-34 88.5t-91 31.5h-215v-240h215zM375 385q57 0 91 31.5t34 88.5t-34 88.5t-91 31.5h-205v-240h205z" />
    <glyph glyph-name="C" unicode="C" horiz-adv-x="690" 
d="M365 -10q-69 0 -127 23t-100 68.5t-65 113t-23 155.5t23 155.5t65 113t100 68.5t127 23q102 0 174.5 -48.5t110.5 -146.5h-90q-30 64 -78.5 92t-116.5 28q-51 0 -93 -18.5t-72.5 -54.5t-47.5 -89.5t-17 -122.5t17 -122.5t47.5 -89.5t72.5 -54.5t93 -18.5q68 0 116.5 28
t78.5 92h90q-38 -98 -110.5 -146.5t-174.5 -48.5z" />
    <glyph glyph-name="D" unicode="D" horiz-adv-x="685" 
d="M85 700h235q69 0 127 -22.5t100 -66.5t65 -109.5t23 -151.5t-23 -151.5t-65 -109.5t-100 -66.5t-127 -22.5h-235v700zM320 75q51 0 93 17.5t72.5 52.5t47.5 86t17 119q0 67 -17 118.5t-47.5 86.5t-72.5 52.5t-93 17.5h-150v-550h150z" />
    <glyph glyph-name="E" unicode="E" horiz-adv-x="590" 
d="M85 700h440v-75h-355v-235h335v-75h-335v-240h365v-75h-450v700z" />
    <glyph glyph-name="F" unicode="F" horiz-adv-x="570" 
d="M85 700h440v-75h-355v-245h330v-75h-330v-305h-85v700z" />
    <glyph glyph-name="G" unicode="G" horiz-adv-x="715" 
d="M365 -10q-69 0 -127 23t-100 68.5t-65 113t-23 155.5t23 155.5t65 113t100 68.5t127 23q102 0 174.5 -48.5t110.5 -146.5h-90q-30 64 -78.5 92t-116.5 28q-51 0 -93 -18.5t-72.5 -54.5t-47.5 -89.5t-17 -122.5t17 -122.5t47.5 -89.5t72.5 -54.5t93 -18.5q52 0 92.5 19
t67.5 49.5t41 69t14 77.5h-215v75h300v-40q0 -75 -21 -135t-60 -102.5t-94.5 -65t-124.5 -22.5z" />
    <glyph glyph-name="H" unicode="H" horiz-adv-x="710" 
d="M85 700h85v-310h370v310h85v-700h-85v315h-370v-315h-85v700z" />
    <glyph glyph-name="I" unicode="I" horiz-adv-x="255" 
d="M85 700h85v-700h-85v700z" />
    <glyph glyph-name="J" unicode="J" horiz-adv-x="555" 
d="M250 -10q-91 0 -148 48.5t-72 146.5h85q11 -60 46.5 -90t88.5 -30q64 0 102 44t38 131v460h85v-460q0 -62 -16 -108.5t-45.5 -78t-71 -47.5t-92.5 -16z" />
    <glyph glyph-name="K" unicode="K" horiz-adv-x="585" 
d="M85 700h85v-335l310 335h100l-320 -345l335 -355h-100l-325 345v-345h-85v700z" />
    <glyph glyph-name="L" unicode="L" horiz-adv-x="545" 
d="M85 700h85v-625h355v-75h-440v700z" />
    <glyph glyph-name="M" unicode="M" horiz-adv-x="865" 
d="M85 700h135l210 -575h5l210 575h135v-700h-85v595h-5l-220 -595h-75l-220 595h-5v-595h-85v700z" />
    <glyph glyph-name="N" unicode="N" horiz-adv-x="730" 
d="M85 700h120l350 -595h5v595h85v-700h-120l-350 595h-5v-595h-85v700z" />
    <glyph glyph-name="O" unicode="O" horiz-adv-x="730" 
d="M365 -10q-69 0 -127 23t-100 68.5t-65 113t-23 155.5t23 155.5t65 113t100 68.5t127 23t127 -23t100 -68.5t65 -113t23 -155.5t-23 -155.5t-65 -113t-100 -68.5t-127 -23zM365 65q51 0 93 18.5t72.5 54.5t47.5 89.5t17 122.5t-17 122.5t-47.5 89.5t-72.5 54.5t-93 18.5
t-93 -18.5t-72.5 -54.5t-47.5 -89.5t-17 -122.5t17 -122.5t47.5 -89.5t72.5 -54.5t93 -18.5z" />
    <glyph glyph-name="P" unicode="P" horiz-adv-x="625" 
d="M85 700h265q52 0 94 -17t71 -46.5t44.5 -69.5t15.5 -87t-15.5 -87t-44.5 -69.5t-71 -46.5t-94 -17h-180v-260h-85v700zM345 335q68 0 106.5 40.5t38.5 104.5t-38.5 104.5t-106.5 40.5h-175v-290h175z" />
    <glyph glyph-name="Q" unicode="Q" horiz-adv-x="730" 
d="M465 4q-48 -14 -100 -14q-69 0 -127 23t-100 68.5t-65 113t-23 155.5t23 155.5t65 113t100 68.5t127 23t127 -23t100 -68.5t65 -113t23 -155.5q0 -116 -39 -195t-107 -121l91 -134h-90zM365 65q28 0 54 6l-104 154h90l84 -124q50 33 78 95.5t28 153.5q0 69 -17 122.5
t-47.5 89.5t-72.5 54.5t-93 18.5t-93 -18.5t-72.5 -54.5t-47.5 -89.5t-17 -122.5t17 -122.5t47.5 -89.5t72.5 -54.5t93 -18.5z" />
    <glyph glyph-name="R" unicode="R" horiz-adv-x="635" 
d="M85 700h270q51 0 91.5 -15t69 -43t44 -66.5t15.5 -85.5q0 -53 -17.5 -90.5t-45.5 -63t-61.5 -39t-65.5 -17.5l200 -280h-95l-200 280h-120v-280h-85v700zM350 355q68 0 104 37.5t36 97.5t-36 97.5t-104 37.5h-180v-270h180z" />
    <glyph glyph-name="S" unicode="S" horiz-adv-x="590" 
d="M295 -10q-106 0 -171 51.5t-84 138.5h85q19 -57 62.5 -86t107.5 -29q86 0 128 36t42 89q0 34 -17.5 55t-46 34.5t-65 22.5t-74 19t-74 23.5t-65 35.5t-46 55.5t-17.5 84.5q0 39 15.5 74t45.5 60.5t74 40.5t100 15q94 0 157.5 -43.5t82.5 -126.5h-85q-15 42 -53 68.5
t-102 26.5q-75 0 -112.5 -33t-37.5 -82q0 -36 17.5 -58.5t46 -37t65 -24t74 -19.5t74 -22.5t65 -34t46 -53.5t17.5 -81q0 -39 -16.5 -75.5t-49 -64t-80 -44t-109.5 -16.5z" />
    <glyph glyph-name="T" unicode="T" horiz-adv-x="585" 
d="M250 625h-225v75h535v-75h-225v-625h-85v625z" />
    <glyph glyph-name="U" unicode="U" horiz-adv-x="700" 
d="M350 -10q-62 0 -112 19.5t-85 57.5t-54 94t-19 129v410h85v-410q0 -109 51 -167t134 -58t134 58t51 167v410h85v-410q0 -73 -19 -129t-54 -94t-85 -57.5t-112 -19.5z" />
    <glyph glyph-name="V" unicode="V" horiz-adv-x="635" 
d="M10 700h90l215 -605h5l215 605h90l-255 -700h-105z" />
    <glyph glyph-name="W" unicode="W" horiz-adv-x="915" 
d="M15 700h90l145 -605h5l145 605h115l145 -605h5l145 605h90l-175 -700h-125l-140 595h-5l-140 -595h-125z" />
    <glyph glyph-name="X" unicode="X" horiz-adv-x="590" 
d="M245 360l-230 340h95l185 -275l185 275h95l-230 -340l240 -360h-95l-195 295l-195 -295h-95z" />
    <glyph glyph-name="Y" unicode="Y" horiz-adv-x="585" 
d="M250 270l-245 430h90l195 -350h5l195 350h90l-245 -430v-270h-85v270z" />
    <glyph glyph-name="Z" unicode="Z" horiz-adv-x="570" 
d="M35 60l390 565h-380v75h485v-60l-390 -565h395v-75h-500v60z" />
    <glyph glyph-name="bracketleft" unicode="[" horiz-adv-x="315" 
d="M85 730h200v-75h-120v-780h120v-75h-200v930z" />
    <glyph glyph-name="backslash" unicode="\" horiz-adv-x="370" 
d="M0 730h80l290 -930h-80z" />
    <glyph glyph-name="bracketright" unicode="]" horiz-adv-x="315" 
d="M30 -125h120v780h-120v75h200v-930h-200v75z" />
    <glyph glyph-name="asciicircum" unicode="^" horiz-adv-x="475" 
d="M195 700h85l150 -320h-75l-115 250h-5l-115 -250h-75z" />
    <glyph glyph-name="underscore" unicode="_" horiz-adv-x="380" 
d="M-20 -120h420v-70h-420v70z" />
    <glyph glyph-name="grave" unicode="`" horiz-adv-x="245" 
d="M30 740h95l90 -140h-70z" />
    <glyph glyph-name="a" unicode="a" horiz-adv-x="520" 
d="M220 -10q-41 0 -74.5 12.5t-57 34t-36 50.5t-12.5 63t13 63t37.5 50.5t61 34t83.5 12.5h145v35q0 53 -34 84t-91 31q-49 0 -79 -20.5t-41 -54.5h-80q19 72 72 108.5t128 36.5q47 0 84 -13.5t63 -37.5t39.5 -58t13.5 -76v-345h-60l-10 70h-5q-8 -13 -22.5 -27t-35 -26
t-46.5 -19.5t-56 -7.5zM220 60q37 0 67 11.5t50.5 31t31.5 46t11 56.5v35h-145q-60 0 -90 -24t-30 -66t28 -66t77 -24z" />
    <glyph glyph-name="b" unicode="b" horiz-adv-x="590" 
d="M320 -10q-57 0 -100.5 21t-69.5 59h-5l-10 -70h-60v700h75v-245h5q26 34 67 54.5t98 20.5q49 0 90 -17.5t71 -52t47 -84.5t17 -116t-17 -116t-47 -84.5t-71 -52t-90 -17.5zM310 60q72 0 116 51t44 149t-44 149t-116 51t-116 -51t-44 -149t44 -149t116 -51z" />
    <glyph glyph-name="c" unicode="c" horiz-adv-x="535" 
d="M285 -10q-53 0 -97 17.5t-75.5 52t-49.5 84.5t-18 116t18 116t49.5 84.5t75.5 52t97 17.5q75 0 132 -36.5t83 -108.5h-80q-45 75 -135 75q-36 0 -66 -13t-52 -38.5t-34.5 -62.5t-12.5 -86t12.5 -86t34.5 -62.5t52 -38.5t66 -13q90 0 135 75h80q-26 -72 -83 -108.5
t-132 -36.5z" />
    <glyph glyph-name="d" unicode="d" horiz-adv-x="590" 
d="M270 -10q-49 0 -90 17.5t-71 52t-47 84.5t-17 116t17 116t47 84.5t71 52t90 17.5q57 0 98 -20.5t67 -54.5h5v245h75v-700h-60l-10 70h-5q-26 -38 -69.5 -59t-100.5 -21zM280 60q72 0 116 51t44 149t-44 149t-116 51t-116 -51t-44 -149t44 -149t116 -51z" />
    <glyph glyph-name="e" unicode="e" horiz-adv-x="560" 
d="M285 -10q-53 0 -97 17.5t-75.5 52t-49.5 84.5t-18 116t17.5 116t49 84.5t74.5 52t94 17.5q60 0 104 -22.5t73.5 -58t43.5 -78t14 -81.5q0 -11 -1 -20t-2 -16q-1 -8 -2 -14h-390q4 -90 50.5 -135t114.5 -45q90 0 135 75h80q-26 -72 -83 -108.5t-132 -36.5zM440 305
q-8 75 -52 115t-108 40t-108 -40t-52 -115h320z" />
    <glyph glyph-name="f" unicode="f" horiz-adv-x="335" 
d="M105 450h-80v70h80v50q0 57 36.5 93.5t93.5 36.5h80v-70h-75q-26 0 -43 -17t-17 -43v-50h135v-70h-135v-450h-75v450z" />
    <glyph glyph-name="g" unicode="g" horiz-adv-x="585" 
d="M285 -200q-39 0 -75 9.5t-66 28.5t-53 48.5t-36 68.5h80q19 -42 56 -63.5t94 -21.5q34 0 62.5 8.5t49 26t32 43.5t11.5 62v90h-5q-26 -34 -67 -52t-98 -18q-49 0 -90 16.5t-71 48.5t-47 78.5t-17 106.5t17 106.5t47 78.5t71 48.5t90 16.5q57 0 100.5 -20.5t69.5 -54.5h5
l10 65h60v-510q0 -51 -17 -90t-47.5 -65.5t-72.5 -40.5t-93 -14zM280 100q72 0 116 46.5t44 133.5t-44 133.5t-116 46.5t-116 -46.5t-44 -133.5t44 -133.5t116 -46.5z" />
    <glyph glyph-name="h" unicode="h" horiz-adv-x="560" 
d="M75 700h75v-245h5q26 42 63 58.5t82 16.5q39 0 74.5 -14t62.5 -40.5t42.5 -65.5t15.5 -90v-320h-75v320q0 68 -36.5 104t-93.5 36q-30 0 -55.5 -11.5t-44.5 -30.5t-29.5 -44.5t-10.5 -53.5v-320h-75v700z" />
    <glyph glyph-name="i" unicode="i" horiz-adv-x="215" 
d="M70 520h75v-520h-75v520zM108 595q-22 0 -37.5 15t-15.5 37t15 37.5t38 15.5q22 0 37 -15.5t15 -37.5q0 -21 -15 -36.5t-37 -15.5z" />
    <glyph glyph-name="j" unicode="j" horiz-adv-x="215" 
d="M-65 -130h75q26 0 43 17t17 43v590h75v-590q0 -57 -36.5 -93.5t-93.5 -36.5h-80v70zM108 595q-22 0 -37.5 15t-15.5 37t15 37.5t38 15.5q22 0 37 -15.5t15 -37.5q0 -21 -15 -36.5t-37 -15.5z" />
    <glyph glyph-name="k" unicode="k" horiz-adv-x="495" 
d="M75 700h75v-425l245 245h95l-255 -255l270 -265h-95l-260 255v-255h-75v700z" />
    <glyph glyph-name="l" unicode="l" horiz-adv-x="225" 
d="M75 700h75v-700h-75v700z" />
    <glyph glyph-name="m" unicode="m" horiz-adv-x="850" 
d="M70 520h60l10 -70h5q26 45 62 62.5t78 17.5q49 0 88 -25t62 -70h5q26 49 69 72t96 23q37 0 70 -14.5t57.5 -41.5t38.5 -66t14 -88v-320h-75v320q0 68 -33.5 104t-86.5 36q-26 0 -49 -10.5t-40 -29.5t-26.5 -44.5t-9.5 -55.5v-320h-75v320q0 68 -33.5 104t-86.5 36
q-24 0 -47 -10.5t-40 -29.5t-27.5 -44.5t-10.5 -55.5v-320h-75v520z" />
    <glyph glyph-name="n" unicode="n" horiz-adv-x="555" 
d="M70 520h60l10 -70h5q26 45 67.5 62.5t82.5 17.5t76.5 -14.5t62 -41.5t41.5 -66t15 -88v-320h-75v320q0 68 -36.5 104t-93.5 36q-30 0 -55.5 -11.5t-44.5 -30.5t-29.5 -44.5t-10.5 -53.5v-320h-75v520z" />
    <glyph glyph-name="o" unicode="o" horiz-adv-x="570" 
d="M285 -10q-53 0 -97 17.5t-75.5 52t-49.5 84.5t-18 116t18 116t49.5 84.5t75.5 52t97 17.5q52 0 96.5 -17.5t76 -52t49.5 -84.5t18 -116t-18 -116t-49.5 -84.5t-76 -52t-96.5 -17.5zM285 60q36 0 66 13t52 38.5t34.5 62.5t12.5 86t-12.5 86t-34.5 62.5t-52 38.5t-66 13
t-66 -13t-52 -38.5t-34.5 -62.5t-12.5 -86t12.5 -86t34.5 -62.5t52 -38.5t66 -13z" />
    <glyph glyph-name="p" unicode="p" horiz-adv-x="585" 
d="M70 520h60l10 -70h5q26 38 69.5 59t100.5 21q49 0 90 -17.5t71 -52t47 -84.5t17 -116t-17 -116t-47 -84.5t-71 -52t-90 -17.5q-57 0 -98 20.5t-67 54.5h-5v-265h-75v720zM305 60q72 0 116 51t44 149t-44 149t-116 51t-116 -51t-44 -149t44 -149t116 -51z" />
    <glyph glyph-name="q" unicode="q" horiz-adv-x="585" 
d="M440 65h-5q-26 -34 -67 -54.5t-98 -20.5q-49 0 -90 17.5t-71 52t-47 84.5t-17 116t17 116t47 84.5t71 52t90 17.5q57 0 100.5 -21t69.5 -59h5l10 70h60v-720h-75v265zM280 60q72 0 116 51t44 149t-44 149t-116 51t-116 -51t-44 -149t44 -149t116 -51z" />
    <glyph glyph-name="r" unicode="r" horiz-adv-x="355" 
d="M70 520h60l10 -70h5q23 38 57 54t83 16h55v-70h-55q-30 0 -55.5 -10t-44.5 -27t-29.5 -41t-10.5 -52v-320h-75v520z" />
    <glyph glyph-name="s" unicode="s" horiz-adv-x="470" 
d="M235 -10q-79 0 -132 40.5t-68 104.5h80q11 -38 44.5 -56.5t75.5 -18.5q64 0 94.5 23t30.5 57q0 32 -23 48.5t-57.5 26t-74.5 18t-74.5 24.5t-57.5 45.5t-23 82.5q0 28 12.5 54t36.5 46.5t58.5 32.5t77.5 12q34 0 65 -8.5t56.5 -25t43 -40.5t25.5 -56h-80q-11 26 -38 43
t-72 17q-57 0 -83.5 -20.5t-26.5 -54.5t23 -51.5t57.5 -28t74.5 -19t74.5 -24.5t57.5 -44t23 -78q0 -30 -13.5 -57t-39.5 -48t-63 -33t-84 -12z" />
    <glyph glyph-name="t" unicode="t" horiz-adv-x="355" 
d="M235 0q-57 0 -93.5 36.5t-36.5 93.5v320h-80v70h80l10 140h65v-140h135v-70h-135v-320q0 -26 17 -43t43 -17h75v-70h-80v0z" />
    <glyph glyph-name="u" unicode="u" horiz-adv-x="560" 
d="M265 -10q-41 0 -77 14.5t-62 41.5t-41 66t-15 88v320h75v-320q0 -68 36.5 -104t93.5 -36q30 0 55.5 11.5t44.5 30.5t29.5 44.5t10.5 53.5v320h75v-520h-60l-10 70h-5q-26 -45 -67.5 -62.5t-82.5 -17.5z" />
    <glyph glyph-name="v" unicode="v" horiz-adv-x="505" 
d="M5 520h80l165 -425h5l165 425h80l-205 -520h-85z" />
    <glyph glyph-name="w" unicode="w" horiz-adv-x="725" 
d="M10 520h75l115 -420h5l115 420h85l115 -420h5l115 420h75l-145 -520h-95l-110 405h-5l-110 -405h-95z" />
    <glyph glyph-name="x" unicode="x" horiz-adv-x="460" 
d="M185 270l-175 250h85l135 -195l135 195h85l-175 -250l185 -270h-85l-145 215l-145 -215h-85z" />
    <glyph glyph-name="y" unicode="y" horiz-adv-x="510" 
d="M220 0l-215 520h80l170 -415h5l165 415h80l-285 -720h-80z" />
    <glyph glyph-name="z" unicode="z" horiz-adv-x="435" 
d="M25 60l290 390h-280v70h370v-60l-290 -390h295v-70h-385v60z" />
    <glyph glyph-name="braceleft" unicode="{" horiz-adv-x="315" 
d="M230 -200q-24 0 -45 9t-36.5 24.5t-24.5 36.5t-9 45v245q0 30 -19.5 47.5t-45.5 17.5v80q26 0 45.5 17.5t19.5 47.5v245q0 24 9 45t24.5 36.5t36.5 24.5t45 9h55v-75h-50q-40 0 -40 -40v-245q0 -45 -23.5 -70.5t-61.5 -29.5v-10q38 -4 61.5 -29.5t23.5 -70.5v-245
q0 -40 40 -40h50v-75h-55v0z" />
    <glyph glyph-name="bar" unicode="|" horiz-adv-x="320" 
d="M120 730h80v-930h-80v930z" />
    <glyph glyph-name="braceright" unicode="}" horiz-adv-x="315" 
d="M30 -125h50q40 0 40 40v245q0 45 23.5 70.5t61.5 29.5v10q-38 4 -61.5 29.5t-23.5 70.5v245q0 40 -40 40h-50v75h55q24 0 45 -9t36.5 -24.5t24.5 -36.5t9 -45v-245q0 -30 19.5 -47.5t45.5 -17.5v-80q-26 0 -45.5 -17.5t-19.5 -47.5v-245q0 -24 -9 -45t-24.5 -36.5
t-36.5 -24.5t-45 -9h-55v75z" />
    <glyph glyph-name="asciitilde" unicode="~" horiz-adv-x="565" 
d="M380 230q-39 0 -65.5 14t-46.5 31t-38 31t-40 14q-30 0 -47.5 -20t-17.5 -65h-75q0 75 35.5 112.5t99.5 37.5q39 0 65.5 -14t46.5 -31t37.5 -31t40.5 -14q30 0 47.5 20t17.5 65h75q0 -75 -35.5 -112.5t-99.5 -37.5z" />
    <glyph glyph-name="nonbreakingspace" unicode="&#xa0;" horiz-adv-x="220" 
 />
    <glyph glyph-name="exclamdown" unicode="&#xa1;" horiz-adv-x="270" 
d="M90 -150l15 470h60l15 -470v-50h-90v50zM135 415q-23 0 -39 16t-16 39t16 39t39 16t39 -16t16 -39t-16 -39t-39 -16z" />
    <glyph glyph-name="cent" unicode="&#xa2;" horiz-adv-x="535" 
d="M245 -7q-45 6 -81.5 26.5t-63 54t-41 80.5t-14.5 106t14.5 106t41 80.5t63 54t81.5 26.5v103h85v-104q59 -9 103 -45t67 -96h-80q-45 75 -135 75q-36 0 -66 -13t-52 -38.5t-34.5 -62.5t-12.5 -86t12.5 -86t34.5 -62.5t52 -38.5t66 -13q90 0 135 75h80q-23 -60 -67 -96
t-103 -45v-104h-85v103z" />
    <glyph glyph-name="sterling" unicode="&#xa3;" horiz-adv-x="575" 
d="M40 75h25q26 0 40.5 16t14.5 54v155h-80v75h80v115q0 51 15 91.5t42.5 69t65 44t82.5 15.5q39 0 74 -11.5t62 -34t45 -56t24 -78.5h-85q-8 45 -37.5 75t-82.5 30t-86.5 -37.5t-33.5 -112.5v-110h185v-75h-185v-155q0 -21 -4 -34.5t-9 -21.5q-5 -10 -12 -14h365v-75h-505
v75z" />
    <glyph glyph-name="currency" unicode="&#xa4;" horiz-adv-x="590" 
d="M60 135l59 59q-19 26 -29 58t-10 68t10 68t29 58l-59 59l50 45l56 -56q27 20 59.5 30.5t69.5 10.5t69.5 -10.5t59.5 -30.5l56 56l50 -45l-59 -59q19 -26 29 -58t10 -68t-10 -68t-29 -58l59 -59l-50 -45l-56 56q-27 -20 -59.5 -30.5t-69.5 -10.5t-69.5 10.5t-59.5 30.5
l-56 -56zM295 175q32 0 58.5 10.5t46 30t30 46t10.5 58.5t-10.5 58.5t-30 46t-46 30t-58.5 10.5t-58.5 -10.5t-46 -30t-30 -46t-10.5 -58.5t10.5 -58.5t30 -46t46 -30t58.5 -10.5z" />
    <glyph glyph-name="yen" unicode="&#xa5;" horiz-adv-x="575" 
d="M245 135h-170v75h170v70h-170v75h124l-189 345h90l185 -345h5l185 345h90l-189 -345h124v-75h-170v-70h170v-75h-170v-135h-85v135z" />
    <glyph glyph-name="brokenbar" unicode="&#xa6;" horiz-adv-x="320" 
d="M120 170h80v-370h-80v370zM120 730h80v-370h-80v370z" />
    <glyph glyph-name="section" unicode="&#xa7;" horiz-adv-x="605" 
d="M310 -120q-45 0 -84.5 11t-71 33t-53.5 55t-31 76h85q15 -45 55 -72.5t100 -27.5q71 0 103 27t32 68q0 37 -28.5 54.5t-71.5 26t-92.5 15t-92.5 22.5t-71.5 47t-28.5 90q0 45 20 77.5t46 52.5q-21 17 -33.5 41.5t-12.5 63.5q0 34 14 64.5t41.5 54t69 37.5t95.5 14
q94 0 155 -45t80 -120h-85q-8 17 -20 33t-30.5 29t-43 20.5t-56.5 7.5q-71 0 -103 -27t-32 -68q0 -28 16.5 -44.5t43.5 -26t61.5 -14.5t71 -10.5t71 -15t61.5 -27t43.5 -45.5t16.5 -72q0 -45 -20.5 -77.5t-46.5 -52.5q22 -18 34.5 -42t12.5 -63q0 -34 -13.5 -64.5t-40.5 -54
t-68.5 -37.5t-97.5 -14zM416 189q26 15 37.5 39t11.5 52q0 41 -26.5 59.5t-67 27t-88 14t-90.5 20.5q-26 -16 -37 -40t-11 -51q0 -28 12 -44.5t33 -26.5t48 -15.5t57 -10t61 -9.5t60 -15z" />
    <glyph glyph-name="dieresis" unicode="&#xa8;" horiz-adv-x="345" 
d="M83 620q-22 0 -37.5 15t-15.5 37t15 37.5t38 15.5q22 0 37 -15.5t15 -37.5q0 -21 -15 -36.5t-37 -15.5zM263 620q-22 0 -37.5 15t-15.5 37t15 37.5t38 15.5q22 0 37 -15.5t15 -37.5q0 -21 -15 -36.5t-37 -15.5z" />
    <glyph glyph-name="copyright" unicode="&#xa9;" horiz-adv-x="840" 
d="M420 -10q-79 0 -145 26.5t-114 74.5t-74.5 114t-26.5 145t26.5 145t74.5 114t114 74.5t145 26.5t145 -26.5t114 -74.5t74.5 -114t26.5 -145t-26.5 -145t-74.5 -114t-114 -74.5t-145 -26.5zM420 55q62 0 115 21.5t92 60.5t61 93t22 120t-22 120t-61 93t-92 60.5t-115 21.5
t-115 -21.5t-92 -60.5t-61 -93t-22 -120t22 -120t61 -93t92 -60.5t115 -21.5zM425 160q-79 0 -127 49.5t-48 140.5t48 140.5t127 49.5q60 0 100 -30.5t55 -79.5h-70q-11 23 -31 36.5t-54 13.5q-57 0 -83.5 -35t-26.5 -95t26.5 -95t83.5 -35q34 0 54 13.5t31 36.5h70
q-15 -49 -55 -79.5t-100 -30.5z" />
    <glyph glyph-name="ordfeminine" unicode="&#xaa;" horiz-adv-x="370" 
d="M155 350q-34 0 -57.5 10t-38.5 26.5t-22 37t-7 41.5q0 45 30.5 75t94.5 30h105v10q0 26 -16.5 45.5t-58.5 19.5q-30 0 -43.5 -10t-21.5 -25h-75q8 42 45 71t90 29q68 0 109 -35t41 -95v-225h-60l-5 50h-5q-11 -19 -35.5 -37t-69.5 -18zM170 415q38 0 64 23.5t26 61.5v10
h-110q-26 0 -38 -13t-12 -32q0 -23 16 -36.5t54 -13.5z" />
    <glyph glyph-name="guillemotleft" unicode="&#xab;" horiz-adv-x="605" 
d="M40 265l210 235h105l-210 -232v-6l210 -232h-105zM260 265l210 235h105l-210 -232v-6l210 -232h-105z" />
    <glyph glyph-name="logicalnot" unicode="&#xac;" horiz-adv-x="510" 
d="M395 300h-355v70h425v-205h-70v135z" />
    <glyph glyph-name="uni00AD" unicode="&#xad;" horiz-adv-x="390" 
d="M45 315h300v-70h-300v70z" />
    <glyph glyph-name="registered" unicode="&#xae;" horiz-adv-x="840" 
d="M420 -10q-79 0 -145 26.5t-114 74.5t-74.5 114t-26.5 145t26.5 145t74.5 114t114 74.5t145 26.5t145 -26.5t114 -74.5t74.5 -114t26.5 -145t-26.5 -145t-74.5 -114t-114 -74.5t-145 -26.5zM420 55q62 0 115 21.5t92 60.5t61 93t22 120t-22 120t-61 93t-92 60.5t-115 21.5
t-115 -21.5t-92 -60.5t-61 -93t-22 -120t22 -120t61 -93t92 -60.5t115 -21.5zM300 540h150q64 0 97 -33.5t33 -86.5q0 -49 -26 -79.5t-74 -40.5l100 -135h-75l-100 135h-40v-135h-65v375zM445 355q70 0 70 65t-70 65h-80v-130h80z" />
    <glyph glyph-name="macron" unicode="&#xaf;" horiz-adv-x="340" 
d="M30 700h280v-65h-280v65z" />
    <glyph glyph-name="degree" unicode="&#xb0;" horiz-adv-x="380" 
d="M190 430q-32 0 -58 10.5t-44 29.5t-28 44.5t-10 55.5t10 55.5t28 44.5t44 29.5t58 10.5t58 -10.5t44 -29.5t28 -44.5t10 -55.5t-10 -55.5t-28 -44.5t-44 -29.5t-58 -10.5zM190 490q34 0 54.5 21t20.5 59t-20.5 59t-54.5 21t-54.5 -21t-20.5 -59t20.5 -59t54.5 -21z" />
    <glyph glyph-name="plusminus" unicode="&#xb1;" horiz-adv-x="560" 
d="M40 70h480v-70h-480v70zM245 295h-205v70h205v180h70v-180h205v-70h-205v-180h-70v180z" />
    <glyph glyph-name="uni00B2" unicode="&#xb2;" horiz-adv-x="335" 
d="M35 465l160 150q21 20 28 37.5t7 32.5q0 55 -60 55q-30 0 -45.5 -16t-19.5 -39h-70q4 24 13.5 46t26 38.5t40 26t55.5 9.5t56 -9.5t40.5 -26t25 -38.5t8.5 -46q0 -30 -10.5 -52.5t-31.5 -42.5l-133 -125h170v-65h-260v65z" />
    <glyph glyph-name="uni00B3" unicode="&#xb3;" horiz-adv-x="330" 
d="M160 395q-53 0 -91 28t-49 77h70q8 -19 24 -29.5t46 -10.5q34 0 49.5 18.5t15.5 41.5t-14.5 39t-45.5 16h-45v60h45q30 0 42.5 16t12.5 39q0 19 -15.5 34.5t-49.5 15.5t-47.5 -18t-17.5 -37h-70q4 24 13.5 46t26 38.5t40 26t55.5 9.5q64 0 99.5 -32.5t35.5 -77.5
q0 -34 -16 -56.5t-39 -33.5q34 -15 47 -39.5t13 -50.5q0 -24 -9 -46t-26.5 -38.5t-42.5 -26t-57 -9.5z" />
    <glyph glyph-name="acute" unicode="&#xb4;" horiz-adv-x="245" 
d="M120 740h95l-115 -140h-70z" />
    <glyph glyph-name="uni00B5" unicode="&#xb5;" horiz-adv-x="560" 
d="M70 520h75v-320q0 -68 35 -104t95 -36q30 0 55.5 10.5t44.5 29.5t29.5 44.5t10.5 55.5v320h75v-520h-60l-10 70h-5q-26 -45 -67.5 -62.5t-82.5 -17.5q-32 0 -55 7.5t-37 17.5q-17 11 -28 25v-220h-75v700z" />
    <glyph glyph-name="paragraph" unicode="&#xb6;" horiz-adv-x="530" 
d="M205 350q-39 0 -69 13.5t-50.5 36.5t-30.5 55t-10 70q0 37 10 69.5t30.5 55.5t50.5 36.5t69 13.5h240v-810h-80v740h-80v-740h-80v460z" />
    <glyph glyph-name="periodcentered" unicode="&#xb7;" horiz-adv-x="220" 
d="M110 210q-23 0 -39 16t-16 39t16 39t39 16t39 -16t16 -39t-16 -39t-39 -16z" />
    <glyph glyph-name="cedilla" unicode="&#xb8;" horiz-adv-x="210" 
d="M30 -155h50q40 0 40 40q0 15 -10.5 25t-29.5 10h-40v35l20 45h60l-15 -35q34 -4 54.5 -27t20.5 -53q0 -42 -26 -66t-64 -24h-60v50z" />
    <glyph glyph-name="uni00B9" unicode="&#xb9;" horiz-adv-x="250" 
d="M115 680h-85v65h60q25 0 25 25v30h70v-400h-70v280z" />
    <glyph glyph-name="ordmasculine" unicode="&#xba;" horiz-adv-x="390" 
d="M195 350q-34 0 -63 11t-50.5 33.5t-34 56.5t-12.5 79t12.5 78.5t34 56t50.5 34t63 11.5t63 -11.5t50.5 -34t34 -56t12.5 -78.5t-12.5 -79t-34 -56.5t-50.5 -33.5t-63 -11zM195 415q42 0 66 29t24 86t-24 86t-66 29t-66 -29t-24 -86t24 -86t66 -29z" />
    <glyph glyph-name="guillemotright" unicode="&#xbb;" horiz-adv-x="605" 
d="M240 262v6l-210 232h105l210 -235l-210 -235h-105zM460 262v6l-210 232h105l210 -235l-210 -235h-105z" />
    <glyph glyph-name="onequarter" unicode="&#xbc;" horiz-adv-x="755" 
d="M525 700h80l-435 -700h-80zM125 580h-85v65h60q25 0 25 25v30h70v-400h-70v280zM590 90h-185v65l160 245h95v-245h55v-65h-55v-90h-70v90zM590 155v165h-5l-105 -165h110z" />
    <glyph glyph-name="onehalf" unicode="&#xbd;" horiz-adv-x="765" 
d="M525 700h80l-435 -700h-80zM125 580h-85v65h60q25 0 25 25v30h70v-400h-70v280zM450 65l160 150q21 20 28 37.5t7 32.5q0 55 -60 55q-30 0 -45.5 -16t-19.5 -39h-70q4 24 13.5 46t26 38.5t40 26t55.5 9.5t56 -9.5t40.5 -26t25 -38.5t8.5 -46q0 -30 -10.5 -52.5
t-31.5 -42.5l-133 -125h170v-65h-260v65z" />
    <glyph glyph-name="threequarters" unicode="&#xbe;" horiz-adv-x="835" 
d="M605 700h80l-435 -700h-80zM180 295q-53 0 -91 28t-49 77h70q8 -19 24 -29.5t46 -10.5q34 0 49.5 18.5t15.5 41.5t-14.5 39t-45.5 16h-45v60h45q30 0 42.5 16t12.5 39q0 19 -15.5 34.5t-49.5 15.5t-47.5 -18t-17.5 -37h-70q4 24 13.5 46t26 38.5t40 26t55.5 9.5
q64 0 99.5 -32.5t35.5 -77.5q0 -34 -16 -56.5t-39 -33.5q34 -15 47 -39.5t13 -50.5q0 -24 -9 -46t-26.5 -38.5t-42.5 -26t-57 -9.5zM670 90h-185v65l160 245h95v-245h55v-65h-55v-90h-70v90zM670 155v165h-5l-105 -165h110z" />
    <glyph glyph-name="questiondown" unicode="&#xbf;" horiz-adv-x="510" 
d="M265 -210q-43 0 -80.5 12t-65 35.5t-43.5 58t-16 79.5t12 76t30.5 54t40 40t40 35t30.5 39t12 51v50h80v-50q0 -42 -12 -70t-30.5 -48.5t-40 -36.5t-40 -34.5t-30.5 -43.5t-12 -62q0 -53 34 -84t91 -31q53 0 85 33t40 82h80q-6 -45 -24 -79.5t-45 -58t-62 -35.5t-74 -12z
M265 415q-23 0 -39 16t-16 39t16 39t39 16t39 -16t16 -39t-16 -39t-39 -16z" />
    <glyph glyph-name="Agrave" unicode="&#xc0;" horiz-adv-x="625" 
d="M265 700h95l265 -700h-85l-65 175h-325l-65 -175h-85zM445 250l-130 355h-5l-130 -355h265zM160 910h95l90 -140h-70z" />
    <glyph glyph-name="Aacute" unicode="&#xc1;" horiz-adv-x="625" 
d="M265 700h95l265 -700h-85l-65 175h-325l-65 -175h-85zM445 250l-130 355h-5l-130 -355h265zM370 910h95l-115 -140h-70z" />
    <glyph glyph-name="Acircumflex" unicode="&#xc2;" horiz-adv-x="625" 
d="M265 700h95l265 -700h-85l-65 175h-325l-65 -175h-85zM445 250l-130 355h-5l-130 -355h265zM283 915h65l130 -145h-80l-80 90h-5l-80 -90h-80z" />
    <glyph glyph-name="Atilde" unicode="&#xc3;" horiz-adv-x="625" 
d="M265 700h95l265 -700h-85l-65 175h-325l-65 -175h-85zM445 250l-130 355h-5l-130 -355h265zM375 785q-21 0 -38 8t-31.5 17t-27 17t-23.5 8q-15 0 -22.5 -13t-7.5 -32h-70q0 45 22.5 75t67.5 30q21 0 38 -8t31.5 -17t27 -17t23.5 -8q15 0 22.5 13t7.5 32h70
q0 -45 -22.5 -75t-67.5 -30z" />
    <glyph glyph-name="Adieresis" unicode="&#xc4;" horiz-adv-x="625" 
d="M265 700h95l265 -700h-85l-65 175h-325l-65 -175h-85zM445 250l-130 355h-5l-130 -355h265zM223 790q-22 0 -37.5 15t-15.5 37t15 37.5t38 15.5q22 0 37 -15.5t15 -37.5q0 -21 -15 -36.5t-37 -15.5zM403 790q-22 0 -37.5 15t-15.5 37t15 37.5t38 15.5q22 0 37 -15.5
t15 -37.5q0 -21 -15 -36.5t-37 -15.5z" />
    <glyph glyph-name="Aring" unicode="&#xc5;" horiz-adv-x="625" 
d="M265 700h95l265 -700h-85l-65 175h-325l-65 -175h-85zM445 250l-130 355h-5l-130 -355h265zM312 750q-42 0 -69.5 26.5t-27.5 70.5t27 71t70 27q44 0 71 -27t27 -71t-28 -70.5t-70 -26.5zM312 800q23 0 35.5 12.5t12.5 34.5q0 21 -11.5 34.5t-36.5 13.5
q-24 0 -35.5 -13.5t-11.5 -34.5q0 -22 12 -34.5t35 -12.5z" />
    <glyph glyph-name="AE" unicode="&#xc6;" horiz-adv-x="935" 
d="M320 700h550v-75h-355v-235h335v-75h-335v-240h365v-75h-450v160h-280l-80 -160h-90zM430 240v370h-70l-175 -370h245z" />
    <glyph glyph-name="Ccedilla" unicode="&#xc7;" horiz-adv-x="690" 
d="M300 -155h50q40 0 40 40q0 15 -10.5 25t-29.5 10h-40v35l17 37q-62 7 -113 32.5t-87.5 70.5t-56.5 108.5t-20 146.5q0 88 23 155.5t65 113t100 68.5t127 23q102 0 174.5 -48.5t110.5 -146.5h-90q-30 64 -78.5 92t-116.5 28q-51 0 -93 -18.5t-72.5 -54.5t-47.5 -89.5
t-17 -122.5t17 -122.5t47.5 -89.5t72.5 -54.5t93 -18.5q68 0 116.5 28t78.5 92h90q-36 -93 -101.5 -140.5t-162.5 -54.5l-11 -25q34 -4 54.5 -27t20.5 -53q0 -42 -26 -66t-64 -24h-60v50z" />
    <glyph glyph-name="Egrave" unicode="&#xc8;" horiz-adv-x="590" 
d="M85 700h440v-75h-355v-235h335v-75h-335v-240h365v-75h-450v700zM160 910h95l90 -140h-70z" />
    <glyph glyph-name="Eacute" unicode="&#xc9;" horiz-adv-x="590" 
d="M85 700h440v-75h-355v-235h335v-75h-335v-240h365v-75h-450v700zM365 910h95l-115 -140h-70z" />
    <glyph glyph-name="Ecircumflex" unicode="&#xca;" horiz-adv-x="590" 
d="M85 700h440v-75h-355v-235h335v-75h-335v-240h365v-75h-450v700zM280 915h65l130 -145h-80l-80 90h-5l-80 -90h-80z" />
    <glyph glyph-name="Edieresis" unicode="&#xcb;" horiz-adv-x="590" 
d="M85 700h440v-75h-355v-235h335v-75h-335v-240h365v-75h-450v700zM223 790q-22 0 -37.5 15t-15.5 37t15 37.5t38 15.5q22 0 37 -15.5t15 -37.5q0 -21 -15 -36.5t-37 -15.5zM403 790q-22 0 -37.5 15t-15.5 37t15 37.5t38 15.5q22 0 37 -15.5t15 -37.5q0 -21 -15 -36.5
t-37 -15.5z" />
    <glyph glyph-name="Igrave" unicode="&#xcc;" horiz-adv-x="255" 
d="M85 700h85v-700h-85v700zM-25 910h95l90 -140h-70z" />
    <glyph glyph-name="Iacute" unicode="&#xcd;" horiz-adv-x="255" 
d="M85 700h85v-700h-85v700zM185 910h95l-115 -140h-70z" />
    <glyph glyph-name="Icircumflex" unicode="&#xce;" horiz-adv-x="255" 
d="M85 700h85v-700h-85v700zM95 915h65l130 -145h-80l-80 90h-5l-80 -90h-80z" />
    <glyph glyph-name="Idieresis" unicode="&#xcf;" horiz-adv-x="255" 
d="M85 700h85v-700h-85v700zM38 790q-22 0 -37.5 15t-15.5 37t15 37.5t38 15.5q22 0 37 -15.5t15 -37.5q0 -21 -15 -36.5t-37 -15.5zM218 790q-22 0 -37.5 15t-15.5 37t15 37.5t38 15.5q22 0 37 -15.5t15 -37.5q0 -21 -15 -36.5t-37 -15.5z" />
    <glyph glyph-name="Eth" unicode="&#xd0;" horiz-adv-x="695" 
d="M95 315h-75v75h75v310h235q71 0 129 -23t99.5 -67.5t64 -110t22.5 -149.5t-22.5 -149.5t-64 -110t-99.5 -67.5t-129 -23h-235v315zM330 75q51 0 93 17.5t72.5 52.5t47.5 86t17 119q0 67 -17 118.5t-47.5 86.5t-72.5 52.5t-93 17.5h-150v-235h180v-75h-180v-240h150z" />
    <glyph glyph-name="Ntilde" unicode="&#xd1;" horiz-adv-x="730" 
d="M85 700h120l350 -595h5v595h85v-700h-120l-350 595h-5v-595h-85v700zM430 785q-21 0 -38 8t-31.5 17t-27 17t-23.5 8q-15 0 -22.5 -13t-7.5 -32h-70q0 45 22.5 75t67.5 30q21 0 38 -8t31.5 -17t27 -17t23.5 -8q15 0 22.5 13t7.5 32h70q0 -45 -22.5 -75t-67.5 -30z" />
    <glyph glyph-name="Ograve" unicode="&#xd2;" horiz-adv-x="730" 
d="M365 -10q-69 0 -127 23t-100 68.5t-65 113t-23 155.5t23 155.5t65 113t100 68.5t127 23t127 -23t100 -68.5t65 -113t23 -155.5t-23 -155.5t-65 -113t-100 -68.5t-127 -23zM365 65q51 0 93 18.5t72.5 54.5t47.5 89.5t17 122.5t-17 122.5t-47.5 89.5t-72.5 54.5t-93 18.5
t-93 -18.5t-72.5 -54.5t-47.5 -89.5t-17 -122.5t17 -122.5t47.5 -89.5t72.5 -54.5t93 -18.5zM215 910h95l90 -140h-70z" />
    <glyph glyph-name="Oacute" unicode="&#xd3;" horiz-adv-x="730" 
d="M365 -10q-69 0 -127 23t-100 68.5t-65 113t-23 155.5t23 155.5t65 113t100 68.5t127 23t127 -23t100 -68.5t65 -113t23 -155.5t-23 -155.5t-65 -113t-100 -68.5t-127 -23zM365 65q51 0 93 18.5t72.5 54.5t47.5 89.5t17 122.5t-17 122.5t-47.5 89.5t-72.5 54.5t-93 18.5
t-93 -18.5t-72.5 -54.5t-47.5 -89.5t-17 -122.5t17 -122.5t47.5 -89.5t72.5 -54.5t93 -18.5zM420 910h95l-115 -140h-70z" />
    <glyph glyph-name="Ocircumflex" unicode="&#xd4;" horiz-adv-x="730" 
d="M365 -10q-69 0 -127 23t-100 68.5t-65 113t-23 155.5t23 155.5t65 113t100 68.5t127 23t127 -23t100 -68.5t65 -113t23 -155.5t-23 -155.5t-65 -113t-100 -68.5t-127 -23zM365 65q51 0 93 18.5t72.5 54.5t47.5 89.5t17 122.5t-17 122.5t-47.5 89.5t-72.5 54.5t-93 18.5
t-93 -18.5t-72.5 -54.5t-47.5 -89.5t-17 -122.5t17 -122.5t47.5 -89.5t72.5 -54.5t93 -18.5zM335 915h65l130 -145h-80l-80 90h-5l-80 -90h-80z" />
    <glyph glyph-name="Otilde" unicode="&#xd5;" horiz-adv-x="730" 
d="M365 -10q-69 0 -127 23t-100 68.5t-65 113t-23 155.5t23 155.5t65 113t100 68.5t127 23t127 -23t100 -68.5t65 -113t23 -155.5t-23 -155.5t-65 -113t-100 -68.5t-127 -23zM365 65q51 0 93 18.5t72.5 54.5t47.5 89.5t17 122.5t-17 122.5t-47.5 89.5t-72.5 54.5t-93 18.5
t-93 -18.5t-72.5 -54.5t-47.5 -89.5t-17 -122.5t17 -122.5t47.5 -89.5t72.5 -54.5t93 -18.5zM430 785q-21 0 -38 8t-31.5 17t-27 17t-23.5 8q-15 0 -22.5 -13t-7.5 -32h-70q0 45 22.5 75t67.5 30q21 0 38 -8t31.5 -17t27 -17t23.5 -8q15 0 22.5 13t7.5 32h70
q0 -45 -22.5 -75t-67.5 -30z" />
    <glyph glyph-name="Odieresis" unicode="&#xd6;" horiz-adv-x="730" 
d="M365 -10q-69 0 -127 23t-100 68.5t-65 113t-23 155.5t23 155.5t65 113t100 68.5t127 23t127 -23t100 -68.5t65 -113t23 -155.5t-23 -155.5t-65 -113t-100 -68.5t-127 -23zM365 65q51 0 93 18.5t72.5 54.5t47.5 89.5t17 122.5t-17 122.5t-47.5 89.5t-72.5 54.5t-93 18.5
t-93 -18.5t-72.5 -54.5t-47.5 -89.5t-17 -122.5t17 -122.5t47.5 -89.5t72.5 -54.5t93 -18.5zM278 790q-22 0 -37.5 15t-15.5 37t15 37.5t38 15.5q22 0 37 -15.5t15 -37.5q0 -21 -15 -36.5t-37 -15.5zM458 790q-22 0 -37.5 15t-15.5 37t15 37.5t38 15.5q22 0 37 -15.5
t15 -37.5q0 -21 -15 -36.5t-37 -15.5z" />
    <glyph glyph-name="multiply" unicode="&#xd7;" horiz-adv-x="540" 
d="M50 150l175 175l-175 175l45 45l175 -175l175 175l45 -45l-175 -175l175 -175l-45 -45l-175 175l-175 -175z" />
    <glyph glyph-name="Oslash" unicode="&#xd8;" horiz-adv-x="730" 
d="M159 61q-51 47 -80 117t-29 172q0 88 23 155.5t65 113t100 68.5t127 23q83 0 148 -33l27 48h80l-49 -86q51 -47 80 -117t29 -172q0 -88 -23 -155.5t-65 -113t-100 -68.5t-127 -23q-84 0 -148 33l-27 -48h-80zM474 609q-23 12 -51.5 19t-57.5 7q-51 0 -93 -18.5
t-72.5 -54.5t-47.5 -89.5t-17 -122.5q0 -71 17 -124.5t49 -89.5zM365 65q51 0 93 18.5t72.5 54.5t47.5 89.5t17 122.5q0 71 -17 124.5t-49 89.5l-273 -473q23 -12 51.5 -19t57.5 -7z" />
    <glyph glyph-name="Ugrave" unicode="&#xd9;" horiz-adv-x="700" 
d="M350 -10q-62 0 -112 19.5t-85 57.5t-54 94t-19 129v410h85v-410q0 -109 51 -167t134 -58t134 58t51 167v410h85v-410q0 -73 -19 -129t-54 -94t-85 -57.5t-112 -19.5zM200 910h95l90 -140h-70z" />
    <glyph glyph-name="Uacute" unicode="&#xda;" horiz-adv-x="700" 
d="M350 -10q-62 0 -112 19.5t-85 57.5t-54 94t-19 129v410h85v-410q0 -109 51 -167t134 -58t134 58t51 167v410h85v-410q0 -73 -19 -129t-54 -94t-85 -57.5t-112 -19.5zM405 910h95l-115 -140h-70z" />
    <glyph glyph-name="Ucircumflex" unicode="&#xdb;" horiz-adv-x="700" 
d="M350 -10q-62 0 -112 19.5t-85 57.5t-54 94t-19 129v410h85v-410q0 -109 51 -167t134 -58t134 58t51 167v410h85v-410q0 -73 -19 -129t-54 -94t-85 -57.5t-112 -19.5zM320 915h65l130 -145h-80l-80 90h-5l-80 -90h-80z" />
    <glyph glyph-name="Udieresis" unicode="&#xdc;" horiz-adv-x="700" 
d="M350 -10q-62 0 -112 19.5t-85 57.5t-54 94t-19 129v410h85v-410q0 -109 51 -167t134 -58t134 58t51 167v410h85v-410q0 -73 -19 -129t-54 -94t-85 -57.5t-112 -19.5zM263 790q-22 0 -37.5 15t-15.5 37t15 37.5t38 15.5q22 0 37 -15.5t15 -37.5q0 -21 -15 -36.5t-37 -15.5
zM443 790q-22 0 -37.5 15t-15.5 37t15 37.5t38 15.5q22 0 37 -15.5t15 -37.5q0 -21 -15 -36.5t-37 -15.5z" />
    <glyph glyph-name="Yacute" unicode="&#xdd;" horiz-adv-x="585" 
d="M250 270l-245 430h90l195 -350h5l195 350h90l-245 -430v-270h-85v270zM345 910h95l-115 -140h-70z" />
    <glyph glyph-name="Thorn" unicode="&#xde;" horiz-adv-x="690" 
d="M85 700h85v-165h275q98 0 149 -51t51 -134t-51 -134t-149 -51h-275v-165h-85v700zM440 240q60 0 90 28.5t30 81.5t-30 81.5t-90 28.5h-270v-220h270z" />
    <glyph glyph-name="germandbls" unicode="&#xdf;" horiz-adv-x="555" 
d="M70 510q0 45 14.5 82t41.5 63t66 40.5t88 14.5q52 0 91.5 -16.5t66 -42.5t39.5 -59t13 -67q0 -57 -27.5 -101.5t-72.5 -63.5q57 -15 91 -60.5t34 -109.5q0 -91 -57 -140.5t-163 -49.5h-55v70h55q72 0 108.5 34t36.5 91t-36.5 91t-108.5 34h-55v70h40q60 0 97.5 34
t37.5 91q0 26 -10 49t-27.5 40t-42.5 26.5t-55 9.5t-55 -10t-42.5 -27t-27.5 -41t-10 -52v-510h-75v510z" />
    <glyph glyph-name="agrave" unicode="&#xe0;" horiz-adv-x="520" 
d="M220 -10q-41 0 -74.5 12.5t-57 34t-36 50.5t-12.5 63t13 63t37.5 50.5t61 34t83.5 12.5h145v35q0 53 -34 84t-91 31q-49 0 -79 -20.5t-41 -54.5h-80q19 72 72 108.5t128 36.5q47 0 84 -13.5t63 -37.5t39.5 -58t13.5 -76v-345h-60l-10 70h-5q-8 -13 -22.5 -27t-35 -26
t-46.5 -19.5t-56 -7.5zM220 60q37 0 67 11.5t50.5 31t31.5 46t11 56.5v35h-145q-60 0 -90 -24t-30 -66t28 -66t77 -24zM110 740h95l90 -140h-70z" />
    <glyph glyph-name="aacute" unicode="&#xe1;" horiz-adv-x="520" 
d="M220 -10q-41 0 -74.5 12.5t-57 34t-36 50.5t-12.5 63t13 63t37.5 50.5t61 34t83.5 12.5h145v35q0 53 -34 84t-91 31q-49 0 -79 -20.5t-41 -54.5h-80q19 72 72 108.5t128 36.5q47 0 84 -13.5t63 -37.5t39.5 -58t13.5 -76v-345h-60l-10 70h-5q-8 -13 -22.5 -27t-35 -26
t-46.5 -19.5t-56 -7.5zM220 60q37 0 67 11.5t50.5 31t31.5 46t11 56.5v35h-145q-60 0 -90 -24t-30 -66t28 -66t77 -24zM315 740h95l-115 -140h-70z" />
    <glyph glyph-name="acircumflex" unicode="&#xe2;" horiz-adv-x="520" 
d="M220 -10q-41 0 -74.5 12.5t-57 34t-36 50.5t-12.5 63t13 63t37.5 50.5t61 34t83.5 12.5h145v35q0 53 -34 84t-91 31q-49 0 -79 -20.5t-41 -54.5h-80q19 72 72 108.5t128 36.5q47 0 84 -13.5t63 -37.5t39.5 -58t13.5 -76v-345h-60l-10 70h-5q-8 -13 -22.5 -27t-35 -26
t-46.5 -19.5t-56 -7.5zM220 60q37 0 67 11.5t50.5 31t31.5 46t11 56.5v35h-145q-60 0 -90 -24t-30 -66t28 -66t77 -24zM230 745h65l130 -145h-80l-80 90h-5l-80 -90h-80z" />
    <glyph glyph-name="atilde" unicode="&#xe3;" horiz-adv-x="520" 
d="M220 -10q-41 0 -74.5 12.5t-57 34t-36 50.5t-12.5 63t13 63t37.5 50.5t61 34t83.5 12.5h145v35q0 53 -34 84t-91 31q-49 0 -79 -20.5t-41 -54.5h-80q19 72 72 108.5t128 36.5q47 0 84 -13.5t63 -37.5t39.5 -58t13.5 -76v-345h-60l-10 70h-5q-8 -13 -22.5 -27t-35 -26
t-46.5 -19.5t-56 -7.5zM220 60q37 0 67 11.5t50.5 31t31.5 46t11 56.5v35h-145q-60 0 -90 -24t-30 -66t28 -66t77 -24zM325 615q-21 0 -38 8t-31.5 17t-27 17t-23.5 8q-15 0 -22.5 -13t-7.5 -32h-70q0 45 22.5 75t67.5 30q21 0 38 -8t31.5 -17t27 -17t23.5 -8q15 0 22.5 13
t7.5 32h70q0 -45 -22.5 -75t-67.5 -30z" />
    <glyph glyph-name="adieresis" unicode="&#xe4;" horiz-adv-x="520" 
d="M220 -10q-41 0 -74.5 12.5t-57 34t-36 50.5t-12.5 63t13 63t37.5 50.5t61 34t83.5 12.5h145v35q0 53 -34 84t-91 31q-49 0 -79 -20.5t-41 -54.5h-80q19 72 72 108.5t128 36.5q47 0 84 -13.5t63 -37.5t39.5 -58t13.5 -76v-345h-60l-10 70h-5q-8 -13 -22.5 -27t-35 -26
t-46.5 -19.5t-56 -7.5zM220 60q37 0 67 11.5t50.5 31t31.5 46t11 56.5v35h-145q-60 0 -90 -24t-30 -66t28 -66t77 -24zM173 620q-22 0 -37.5 15t-15.5 37t15 37.5t38 15.5q22 0 37 -15.5t15 -37.5q0 -21 -15 -36.5t-37 -15.5zM353 620q-22 0 -37.5 15t-15.5 37t15 37.5
t38 15.5q22 0 37 -15.5t15 -37.5q0 -21 -15 -36.5t-37 -15.5z" />
    <glyph glyph-name="aring" unicode="&#xe5;" horiz-adv-x="520" 
d="M220 -10q-41 0 -74.5 12.5t-57 34t-36 50.5t-12.5 63t13 63t37.5 50.5t61 34t83.5 12.5h145v35q0 53 -34 84t-91 31q-49 0 -79 -20.5t-41 -54.5h-80q19 72 72 108.5t128 36.5q47 0 84 -13.5t63 -37.5t39.5 -58t13.5 -76v-345h-60l-10 70h-5q-8 -13 -22.5 -27t-35 -26
t-46.5 -19.5t-56 -7.5zM220 60q37 0 67 11.5t50.5 31t31.5 46t11 56.5v35h-145q-60 0 -90 -24t-30 -66t28 -66t77 -24zM262 580q-42 0 -69.5 26.5t-27.5 70.5t27 71t70 27q44 0 71 -27t27 -71t-28 -70.5t-70 -26.5zM262 630q23 0 35.5 12.5t12.5 34.5q0 21 -11.5 34.5
t-36.5 13.5q-24 0 -35.5 -13.5t-11.5 -34.5q0 -22 12 -34.5t35 -12.5z" />
    <glyph glyph-name="ae" unicode="&#xe6;" horiz-adv-x="885" 
d="M220 -10q-41 0 -74.5 12.5t-57 34t-36 50.5t-12.5 63q0 32 12 60t36 49t59.5 33.5t82.5 12.5h150v40q0 53 -34 84t-91 31q-49 0 -79 -20.5t-41 -54.5h-80q19 72 72 108.5t128 36.5q64 0 110 -26.5t65 -68.5q34 49 78.5 72t101.5 23q60 0 103.5 -22.5t71.5 -58t41.5 -78
t13.5 -81.5q0 -11 -1 -20t-2 -16q-1 -8 -2 -14h-380q4 -91 48 -135.5t112 -44.5q45 0 76 18.5t54 56.5h80q-26 -72 -80.5 -108.5t-129.5 -36.5q-64 0 -114.5 26t-80.5 79q-11 -21 -29 -40t-43 -33.5t-57 -23t-71 -8.5zM220 60q37 0 67 11.5t50.5 31t31.5 46t11 56.5v30h-150
q-60 0 -87.5 -23.5t-27.5 -61.5q0 -42 28 -66t77 -24zM765 305q-8 75 -49.5 115t-105.5 40t-105.5 -40t-49.5 -115h310z" />
    <glyph glyph-name="ccedilla" unicode="&#xe7;" horiz-adv-x="535" 
d="M215 -155h50q40 0 40 40q0 15 -10.5 25t-29.5 10h-40v35l17 38q-44 6 -80 26.5t-62 54.5t-40.5 80.5t-14.5 105.5q0 66 18 116t49.5 84.5t75.5 52t97 17.5q75 0 132 -36.5t83 -108.5h-80q-45 75 -135 75q-36 0 -66 -13t-52 -38.5t-34.5 -62.5t-12.5 -86t12.5 -86
t34.5 -62.5t52 -38.5t66 -13q90 0 135 75h80q-25 -68 -77.5 -104t-121.5 -41l-11 -25q34 -4 54.5 -27t20.5 -53q0 -42 -26 -66t-64 -24h-60v50z" />
    <glyph glyph-name="egrave" unicode="&#xe8;" horiz-adv-x="560" 
d="M285 -10q-53 0 -97 17.5t-75.5 52t-49.5 84.5t-18 116t17.5 116t49 84.5t74.5 52t94 17.5q60 0 104 -22.5t73.5 -58t43.5 -78t14 -81.5q0 -11 -1 -20t-2 -16q-1 -8 -2 -14h-390q4 -90 50.5 -135t114.5 -45q90 0 135 75h80q-26 -72 -83 -108.5t-132 -36.5zM440 305
q-8 75 -52 115t-108 40t-108 -40t-52 -115h320zM135 740h95l90 -140h-70z" />
    <glyph glyph-name="eacute" unicode="&#xe9;" horiz-adv-x="560" 
d="M285 -10q-53 0 -97 17.5t-75.5 52t-49.5 84.5t-18 116t17.5 116t49 84.5t74.5 52t94 17.5q60 0 104 -22.5t73.5 -58t43.5 -78t14 -81.5q0 -11 -1 -20t-2 -16q-1 -8 -2 -14h-390q4 -90 50.5 -135t114.5 -45q90 0 135 75h80q-26 -72 -83 -108.5t-132 -36.5zM440 305
q-8 75 -52 115t-108 40t-108 -40t-52 -115h320zM340 740h95l-115 -140h-70z" />
    <glyph glyph-name="ecircumflex" unicode="&#xea;" horiz-adv-x="560" 
d="M285 -10q-53 0 -97 17.5t-75.5 52t-49.5 84.5t-18 116t17.5 116t49 84.5t74.5 52t94 17.5q60 0 104 -22.5t73.5 -58t43.5 -78t14 -81.5q0 -11 -1 -20t-2 -16q-1 -8 -2 -14h-390q4 -90 50.5 -135t114.5 -45q90 0 135 75h80q-26 -72 -83 -108.5t-132 -36.5zM440 305
q-8 75 -52 115t-108 40t-108 -40t-52 -115h320zM255 745h65l130 -145h-80l-80 90h-5l-80 -90h-80z" />
    <glyph glyph-name="edieresis" unicode="&#xeb;" horiz-adv-x="560" 
d="M285 -10q-53 0 -97 17.5t-75.5 52t-49.5 84.5t-18 116t17.5 116t49 84.5t74.5 52t94 17.5q60 0 104 -22.5t73.5 -58t43.5 -78t14 -81.5q0 -11 -1 -20t-2 -16q-1 -8 -2 -14h-390q4 -90 50.5 -135t114.5 -45q90 0 135 75h80q-26 -72 -83 -108.5t-132 -36.5zM440 305
q-8 75 -52 115t-108 40t-108 -40t-52 -115h320zM198 620q-22 0 -37.5 15t-15.5 37t15 37.5t38 15.5q22 0 37 -15.5t15 -37.5q0 -21 -15 -36.5t-37 -15.5zM378 620q-22 0 -37.5 15t-15.5 37t15 37.5t38 15.5q22 0 37 -15.5t15 -37.5q0 -21 -15 -36.5t-37 -15.5z" />
    <glyph glyph-name="igrave" unicode="&#xec;" horiz-adv-x="215" 
d="M70 520h75v-520h-75v520zM-45 740h95l90 -140h-70z" />
    <glyph glyph-name="iacute" unicode="&#xed;" horiz-adv-x="215" 
d="M70 520h75v-520h-75v520zM165 740h95l-115 -140h-70z" />
    <glyph glyph-name="icircumflex" unicode="&#xee;" horiz-adv-x="215" 
d="M70 520h75v-520h-75v520zM75 745h65l130 -145h-80l-80 90h-5l-80 -90h-80z" />
    <glyph glyph-name="idieresis" unicode="&#xef;" horiz-adv-x="215" 
d="M70 520h75v-520h-75v520zM18 620q-22 0 -37.5 15t-15.5 37t15 37.5t38 15.5q22 0 37 -15.5t15 -37.5q0 -21 -15 -36.5t-37 -15.5zM198 620q-22 0 -37.5 15t-15.5 37t15 37.5t38 15.5q22 0 37 -15.5t15 -37.5q0 -21 -15 -36.5t-37 -15.5z" />
    <glyph glyph-name="eth" unicode="&#xf0;" horiz-adv-x="560" 
d="M270 -10q-106 0 -165.5 64t-59.5 181q0 60 16 106t45 76.5t69.5 46.5t89.5 16q42 0 76.5 -13t53.5 -32h5q-15 38 -39.5 71.5t-53.5 63.5l-132 -60l-30 60l110 50q-21 17 -45.5 33t-45.5 29q-25 15 -49 28h120q14 -9 29 -19q13 -8 27.5 -19t28.5 -22l100 45l30 -60
l-78 -35q29 -32 54.5 -69.5t44 -81t29 -93.5t10.5 -106q0 -58 -15.5 -106t-46 -82t-75.5 -53t-103 -19zM275 60q34 0 62.5 11t49 33t32 55t11.5 76t-11.5 76t-32 55t-49 33t-62.5 11t-62.5 -11t-49 -33t-32 -55t-11.5 -76t11.5 -76t32 -55t49 -33t62.5 -11z" />
    <glyph glyph-name="ntilde" unicode="&#xf1;" horiz-adv-x="555" 
d="M70 520h60l10 -70h5q26 45 67.5 62.5t82.5 17.5t76.5 -14.5t62 -41.5t41.5 -66t15 -88v-320h-75v320q0 68 -36.5 104t-93.5 36q-30 0 -55.5 -11.5t-44.5 -30.5t-29.5 -44.5t-10.5 -53.5v-320h-75v520zM350 615q-21 0 -38 8t-31.5 17t-27 17t-23.5 8q-15 0 -22.5 -13
t-7.5 -32h-70q0 45 22.5 75t67.5 30q21 0 38 -8t31.5 -17t27 -17t23.5 -8q15 0 22.5 13t7.5 32h70q0 -45 -22.5 -75t-67.5 -30z" />
    <glyph glyph-name="ograve" unicode="&#xf2;" horiz-adv-x="570" 
d="M285 -10q-53 0 -97 17.5t-75.5 52t-49.5 84.5t-18 116t18 116t49.5 84.5t75.5 52t97 17.5q52 0 96.5 -17.5t76 -52t49.5 -84.5t18 -116t-18 -116t-49.5 -84.5t-76 -52t-96.5 -17.5zM285 60q36 0 66 13t52 38.5t34.5 62.5t12.5 86t-12.5 86t-34.5 62.5t-52 38.5t-66 13
t-66 -13t-52 -38.5t-34.5 -62.5t-12.5 -86t12.5 -86t34.5 -62.5t52 -38.5t66 -13zM135 740h95l90 -140h-70z" />
    <glyph glyph-name="oacute" unicode="&#xf3;" horiz-adv-x="570" 
d="M285 -10q-53 0 -97 17.5t-75.5 52t-49.5 84.5t-18 116t18 116t49.5 84.5t75.5 52t97 17.5q52 0 96.5 -17.5t76 -52t49.5 -84.5t18 -116t-18 -116t-49.5 -84.5t-76 -52t-96.5 -17.5zM285 60q36 0 66 13t52 38.5t34.5 62.5t12.5 86t-12.5 86t-34.5 62.5t-52 38.5t-66 13
t-66 -13t-52 -38.5t-34.5 -62.5t-12.5 -86t12.5 -86t34.5 -62.5t52 -38.5t66 -13zM340 740h95l-115 -140h-70z" />
    <glyph glyph-name="ocircumflex" unicode="&#xf4;" horiz-adv-x="570" 
d="M285 -10q-53 0 -97 17.5t-75.5 52t-49.5 84.5t-18 116t18 116t49.5 84.5t75.5 52t97 17.5q52 0 96.5 -17.5t76 -52t49.5 -84.5t18 -116t-18 -116t-49.5 -84.5t-76 -52t-96.5 -17.5zM285 60q36 0 66 13t52 38.5t34.5 62.5t12.5 86t-12.5 86t-34.5 62.5t-52 38.5t-66 13
t-66 -13t-52 -38.5t-34.5 -62.5t-12.5 -86t12.5 -86t34.5 -62.5t52 -38.5t66 -13zM255 745h65l130 -145h-80l-80 90h-5l-80 -90h-80z" />
    <glyph glyph-name="otilde" unicode="&#xf5;" horiz-adv-x="570" 
d="M285 -10q-53 0 -97 17.5t-75.5 52t-49.5 84.5t-18 116t18 116t49.5 84.5t75.5 52t97 17.5q52 0 96.5 -17.5t76 -52t49.5 -84.5t18 -116t-18 -116t-49.5 -84.5t-76 -52t-96.5 -17.5zM285 60q36 0 66 13t52 38.5t34.5 62.5t12.5 86t-12.5 86t-34.5 62.5t-52 38.5t-66 13
t-66 -13t-52 -38.5t-34.5 -62.5t-12.5 -86t12.5 -86t34.5 -62.5t52 -38.5t66 -13zM350 615q-21 0 -38 8t-31.5 17t-27 17t-23.5 8q-15 0 -22.5 -13t-7.5 -32h-70q0 45 22.5 75t67.5 30q21 0 38 -8t31.5 -17t27 -17t23.5 -8q15 0 22.5 13t7.5 32h70q0 -45 -22.5 -75
t-67.5 -30z" />
    <glyph glyph-name="odieresis" unicode="&#xf6;" horiz-adv-x="570" 
d="M285 -10q-53 0 -97 17.5t-75.5 52t-49.5 84.5t-18 116t18 116t49.5 84.5t75.5 52t97 17.5q52 0 96.5 -17.5t76 -52t49.5 -84.5t18 -116t-18 -116t-49.5 -84.5t-76 -52t-96.5 -17.5zM285 60q36 0 66 13t52 38.5t34.5 62.5t12.5 86t-12.5 86t-34.5 62.5t-52 38.5t-66 13
t-66 -13t-52 -38.5t-34.5 -62.5t-12.5 -86t12.5 -86t34.5 -62.5t52 -38.5t66 -13zM198 620q-22 0 -37.5 15t-15.5 37t15 37.5t38 15.5q22 0 37 -15.5t15 -37.5q0 -21 -15 -36.5t-37 -15.5zM378 620q-22 0 -37.5 15t-15.5 37t15 37.5t38 15.5q22 0 37 -15.5t15 -37.5
q0 -21 -15 -36.5t-37 -15.5z" />
    <glyph glyph-name="divide" unicode="&#xf7;" horiz-adv-x="545" 
d="M273 60q-23 0 -35.5 13.5t-12.5 33.5q0 21 12.5 34.5t35.5 13.5t35 -13.5t12 -34.5q0 -20 -12 -33.5t-35 -13.5zM40 340h465v-70h-465v70zM273 455q-23 0 -35.5 13.5t-12.5 34.5q0 20 12.5 33.5t35.5 13.5t35 -13.5t12 -33.5q0 -21 -12 -34.5t-35 -13.5z" />
    <glyph glyph-name="oslash" unicode="&#xf8;" horiz-adv-x="570" 
d="M114 58q-33 36 -51 85t-18 117q0 64 17 114t48.5 84.5t76 53t98.5 18.5q34 0 63 -7t53 -20l24 37h80l-49 -78q33 -36 51 -85t18 -117q0 -64 -17 -114t-48.5 -84.5t-76 -53t-98.5 -18.5q-34 0 -63 7t-53 20l-24 -37h-80zM362 442q-35 18 -77 18q-36 0 -66 -13t-52 -38.5
t-34.5 -62.5t-12.5 -86q0 -44 10 -78t27 -59zM285 60q36 0 66 13t52 38.5t34.5 62.5t12.5 86q0 44 -10 78t-27 59l-205 -319q34 -18 77 -18z" />
    <glyph glyph-name="ugrave" unicode="&#xf9;" horiz-adv-x="560" 
d="M265 -10q-41 0 -77 14.5t-62 41.5t-41 66t-15 88v320h75v-320q0 -68 36.5 -104t93.5 -36q30 0 55.5 11.5t44.5 30.5t29.5 44.5t10.5 53.5v320h75v-520h-60l-10 70h-5q-26 -45 -67.5 -62.5t-82.5 -17.5zM130 740h95l90 -140h-70z" />
    <glyph glyph-name="uacute" unicode="&#xfa;" horiz-adv-x="560" 
d="M265 -10q-41 0 -77 14.5t-62 41.5t-41 66t-15 88v320h75v-320q0 -68 36.5 -104t93.5 -36q30 0 55.5 11.5t44.5 30.5t29.5 44.5t10.5 53.5v320h75v-520h-60l-10 70h-5q-26 -45 -67.5 -62.5t-82.5 -17.5zM335 740h95l-115 -140h-70z" />
    <glyph glyph-name="ucircumflex" unicode="&#xfb;" horiz-adv-x="560" 
d="M265 -10q-41 0 -77 14.5t-62 41.5t-41 66t-15 88v320h75v-320q0 -68 36.5 -104t93.5 -36q30 0 55.5 11.5t44.5 30.5t29.5 44.5t10.5 53.5v320h75v-520h-60l-10 70h-5q-26 -45 -67.5 -62.5t-82.5 -17.5zM250 745h65l130 -145h-80l-80 90h-5l-80 -90h-80z" />
    <glyph glyph-name="udieresis" unicode="&#xfc;" horiz-adv-x="560" 
d="M265 -10q-41 0 -77 14.5t-62 41.5t-41 66t-15 88v320h75v-320q0 -68 36.5 -104t93.5 -36q30 0 55.5 11.5t44.5 30.5t29.5 44.5t10.5 53.5v320h75v-520h-60l-10 70h-5q-26 -45 -67.5 -62.5t-82.5 -17.5zM193 620q-22 0 -37.5 15t-15.5 37t15 37.5t38 15.5q22 0 37 -15.5
t15 -37.5q0 -21 -15 -36.5t-37 -15.5zM373 620q-22 0 -37.5 15t-15.5 37t15 37.5t38 15.5q22 0 37 -15.5t15 -37.5q0 -21 -15 -36.5t-37 -15.5z" />
    <glyph glyph-name="yacute" unicode="&#xfd;" horiz-adv-x="510" 
d="M220 0l-215 520h80l170 -415h5l165 415h80l-285 -720h-80zM310 740h95l-115 -140h-70z" />
    <glyph glyph-name="thorn" unicode="&#xfe;" horiz-adv-x="590" 
d="M75 700h75v-245h5q26 34 67 54.5t98 20.5q49 0 90 -17.5t71 -52t47 -84.5t17 -116t-17 -116t-47 -84.5t-71 -52t-90 -17.5q-57 0 -98 20.5t-67 54.5h-5v-265h-75v900zM310 60q72 0 116 51t44 149t-44 149t-116 51t-116 -51t-44 -149t44 -149t116 -51z" />
    <glyph glyph-name="ydieresis" unicode="&#xff;" horiz-adv-x="510" 
d="M220 0l-215 520h80l170 -415h5l165 415h80l-285 -720h-80zM168 620q-22 0 -37.5 15t-15.5 37t15 37.5t38 15.5q22 0 37 -15.5t15 -37.5q0 -21 -15 -36.5t-37 -15.5zM348 620q-22 0 -37.5 15t-15.5 37t15 37.5t38 15.5q22 0 37 -15.5t15 -37.5q0 -21 -15 -36.5t-37 -15.5z
" />
    <glyph glyph-name="Amacron" unicode="&#x100;" horiz-adv-x="625" 
d="M265 700h95l265 -700h-85l-65 175h-325l-65 -175h-85zM445 250l-130 355h-5l-130 -355h265zM175 870h280v-65h-280v65z" />
    <glyph glyph-name="amacron" unicode="&#x101;" horiz-adv-x="520" 
d="M220 -10q-41 0 -74.5 12.5t-57 34t-36 50.5t-12.5 63t13 63t37.5 50.5t61 34t83.5 12.5h145v35q0 53 -34 84t-91 31q-49 0 -79 -20.5t-41 -54.5h-80q19 72 72 108.5t128 36.5q47 0 84 -13.5t63 -37.5t39.5 -58t13.5 -76v-345h-60l-10 70h-5q-8 -13 -22.5 -27t-35 -26
t-46.5 -19.5t-56 -7.5zM220 60q37 0 67 11.5t50.5 31t31.5 46t11 56.5v35h-145q-60 0 -90 -24t-30 -66t28 -66t77 -24zM120 700h280v-65h-280v65z" />
    <glyph glyph-name="Abreve" unicode="&#x102;" horiz-adv-x="625" 
d="M265 700h95l265 -700h-85l-65 175h-325l-65 -175h-85zM445 250l-130 355h-5l-130 -355h265zM315 775q-28 0 -53.5 7t-46 22.5t-33.5 40t-17 60.5h70q4 -38 27 -54t53 -16t53 16t27 54h70q-4 -36 -17 -60.5t-33.5 -40t-46 -22.5t-53.5 -7z" />
    <glyph glyph-name="abreve" unicode="&#x103;" horiz-adv-x="520" 
d="M220 -10q-41 0 -74.5 12.5t-57 34t-36 50.5t-12.5 63t13 63t37.5 50.5t61 34t83.5 12.5h145v35q0 53 -34 84t-91 31q-49 0 -79 -20.5t-41 -54.5h-80q19 72 72 108.5t128 36.5q47 0 84 -13.5t63 -37.5t39.5 -58t13.5 -76v-345h-60l-10 70h-5q-8 -13 -22.5 -27t-35 -26
t-46.5 -19.5t-56 -7.5zM220 60q37 0 67 11.5t50.5 31t31.5 46t11 56.5v35h-145q-60 0 -90 -24t-30 -66t28 -66t77 -24zM260 605q-28 0 -53.5 7t-46 22.5t-33.5 40t-17 60.5h70q4 -38 27 -54t53 -16t53 16t27 54h70q-4 -36 -17 -60.5t-33.5 -40t-46 -22.5t-53.5 -7z" />
    <glyph glyph-name="Aogonek" unicode="&#x104;" horiz-adv-x="625" 
d="M570 -190q-53 0 -79 24t-26 66q0 21 7 37.5t17.5 29t24 20.5t26.5 13l-65 175h-325l-65 -175h-85l265 700h95l265 -700h-20q-42 -22 -61 -41.5t-19 -53.5q0 -17 14.5 -28.5t40.5 -11.5h25v-55h-35zM445 250l-130 355h-5l-130 -355h265z" />
    <glyph glyph-name="aogonek" unicode="&#x105;" horiz-adv-x="520" 
d="M420 -190q-53 0 -79 24t-26 66q0 41 25 65t55 35l-10 70h-5q-8 -13 -22.5 -27t-35 -26t-46.5 -19.5t-56 -7.5q-41 0 -74.5 12.5t-57 34t-36 50.5t-12.5 63t13 63t37.5 50.5t61 34t83.5 12.5h145v35q0 53 -34 84t-91 31q-49 0 -79 -20.5t-41 -54.5h-80q19 72 72 108.5
t128 36.5q47 0 84 -13.5t63 -37.5t39.5 -58t13.5 -76v-345q-42 -22 -61 -41.5t-19 -53.5q0 -17 14.5 -28.5t40.5 -11.5h25v-55h-35zM220 60q37 0 67 11.5t50.5 31t31.5 46t11 56.5v35h-145q-60 0 -90 -24t-30 -66t28 -66t77 -24z" />
    <glyph glyph-name="Cacute" unicode="&#x106;" horiz-adv-x="690" 
d="M365 -10q-69 0 -127 23t-100 68.5t-65 113t-23 155.5t23 155.5t65 113t100 68.5t127 23q102 0 174.5 -48.5t110.5 -146.5h-90q-30 64 -78.5 92t-116.5 28q-51 0 -93 -18.5t-72.5 -54.5t-47.5 -89.5t-17 -122.5t17 -122.5t47.5 -89.5t72.5 -54.5t93 -18.5q68 0 116.5 28
t78.5 92h90q-38 -98 -110.5 -146.5t-174.5 -48.5zM415 910h95l-115 -140h-70z" />
    <glyph glyph-name="cacute" unicode="&#x107;" horiz-adv-x="535" 
d="M285 -10q-53 0 -97 17.5t-75.5 52t-49.5 84.5t-18 116t18 116t49.5 84.5t75.5 52t97 17.5q75 0 132 -36.5t83 -108.5h-80q-45 75 -135 75q-36 0 -66 -13t-52 -38.5t-34.5 -62.5t-12.5 -86t12.5 -86t34.5 -62.5t52 -38.5t66 -13q90 0 135 75h80q-26 -72 -83 -108.5
t-132 -36.5zM340 740h95l-115 -140h-70z" />
    <glyph glyph-name="Ccircumflex" unicode="&#x108;" horiz-adv-x="690" 
d="M365 -10q-69 0 -127 23t-100 68.5t-65 113t-23 155.5t23 155.5t65 113t100 68.5t127 23q102 0 174.5 -48.5t110.5 -146.5h-90q-30 64 -78.5 92t-116.5 28q-51 0 -93 -18.5t-72.5 -54.5t-47.5 -89.5t-17 -122.5t17 -122.5t47.5 -89.5t72.5 -54.5t93 -18.5q68 0 116.5 28
t78.5 92h90q-38 -98 -110.5 -146.5t-174.5 -48.5zM330 915h65l130 -145h-80l-80 90h-5l-80 -90h-80z" />
    <glyph glyph-name="ccircumflex" unicode="&#x109;" horiz-adv-x="535" 
d="M285 -10q-53 0 -97 17.5t-75.5 52t-49.5 84.5t-18 116t18 116t49.5 84.5t75.5 52t97 17.5q75 0 132 -36.5t83 -108.5h-80q-45 75 -135 75q-36 0 -66 -13t-52 -38.5t-34.5 -62.5t-12.5 -86t12.5 -86t34.5 -62.5t52 -38.5t66 -13q90 0 135 75h80q-26 -72 -83 -108.5
t-132 -36.5zM255 745h65l130 -145h-80l-80 90h-5l-80 -90h-80z" />
    <glyph glyph-name="Cdotaccent" unicode="&#x10a;" horiz-adv-x="690" 
d="M365 -10q-69 0 -127 23t-100 68.5t-65 113t-23 155.5t23 155.5t65 113t100 68.5t127 23q102 0 174.5 -48.5t110.5 -146.5h-90q-30 64 -78.5 92t-116.5 28q-51 0 -93 -18.5t-72.5 -54.5t-47.5 -89.5t-17 -122.5t17 -122.5t47.5 -89.5t72.5 -54.5t93 -18.5q68 0 116.5 28
t78.5 92h90q-38 -98 -110.5 -146.5t-174.5 -48.5zM363 790q-22 0 -37.5 15t-15.5 37t15 37.5t38 15.5q22 0 37 -15.5t15 -37.5q0 -21 -15 -36.5t-37 -15.5z" />
    <glyph glyph-name="cdotaccent" unicode="&#x10b;" horiz-adv-x="535" 
d="M285 -10q-53 0 -97 17.5t-75.5 52t-49.5 84.5t-18 116t18 116t49.5 84.5t75.5 52t97 17.5q75 0 132 -36.5t83 -108.5h-80q-45 75 -135 75q-36 0 -66 -13t-52 -38.5t-34.5 -62.5t-12.5 -86t12.5 -86t34.5 -62.5t52 -38.5t66 -13q90 0 135 75h80q-26 -72 -83 -108.5
t-132 -36.5zM288 620q-22 0 -37.5 15t-15.5 37t15 37.5t38 15.5q22 0 37 -15.5t15 -37.5q0 -21 -15 -36.5t-37 -15.5z" />
    <glyph glyph-name="Ccaron" unicode="&#x10c;" horiz-adv-x="690" 
d="M365 -10q-69 0 -127 23t-100 68.5t-65 113t-23 155.5t23 155.5t65 113t100 68.5t127 23q102 0 174.5 -48.5t110.5 -146.5h-90q-30 64 -78.5 92t-116.5 28q-51 0 -93 -18.5t-72.5 -54.5t-47.5 -89.5t-17 -122.5t17 -122.5t47.5 -89.5t72.5 -54.5t93 -18.5q68 0 116.5 28
t78.5 92h90q-38 -98 -110.5 -146.5t-174.5 -48.5zM200 915h80l80 -90h5l80 90h80l-130 -145h-65z" />
    <glyph glyph-name="ccaron" unicode="&#x10d;" horiz-adv-x="535" 
d="M285 -10q-53 0 -97 17.5t-75.5 52t-49.5 84.5t-18 116t18 116t49.5 84.5t75.5 52t97 17.5q75 0 132 -36.5t83 -108.5h-80q-45 75 -135 75q-36 0 -66 -13t-52 -38.5t-34.5 -62.5t-12.5 -86t12.5 -86t34.5 -62.5t52 -38.5t66 -13q90 0 135 75h80q-26 -72 -83 -108.5
t-132 -36.5zM125 740h80l80 -90h5l80 90h80l-130 -145h-65z" />
    <glyph glyph-name="Dcaron" unicode="&#x10e;" horiz-adv-x="685" 
d="M85 700h235q69 0 127 -22.5t100 -66.5t65 -109.5t23 -151.5t-23 -151.5t-65 -109.5t-100 -66.5t-127 -22.5h-235v700zM320 75q51 0 93 17.5t72.5 52.5t47.5 86t17 119q0 67 -17 118.5t-47.5 86.5t-72.5 52.5t-93 17.5h-150v-550h150zM180 915h80l80 -90h5l80 90h80
l-130 -145h-65z" />
    <glyph glyph-name="dcaron" unicode="&#x10f;" horiz-adv-x="670" 
d="M270 -10q-49 0 -90 17.5t-71 52t-47 84.5t-17 116t17 116t47 84.5t71 52t90 17.5q57 0 98 -20.5t67 -54.5h5v245h75v-700h-60l-10 70h-5q-26 -38 -69.5 -59t-100.5 -21zM280 60q72 0 116 51t44 149t-44 149t-116 51t-116 -51t-44 -149t44 -149t116 -51z" />
    <glyph glyph-name="Dcroat" unicode="&#x110;" horiz-adv-x="695" 
d="M95 315h-75v75h75v310h235q71 0 129 -23t99.5 -67.5t64 -110t22.5 -149.5t-22.5 -149.5t-64 -110t-99.5 -67.5t-129 -23h-235v315zM330 75q51 0 93 17.5t72.5 52.5t47.5 86t17 119q0 67 -17 118.5t-47.5 86.5t-72.5 52.5t-93 17.5h-150v-235h180v-75h-180v-240h150z" />
    <glyph glyph-name="dcroat" unicode="&#x111;" horiz-adv-x="585" 
d="M265 -10q-49 0 -89.5 16t-69.5 46.5t-45 76.5t-16 106t16 106t45 76.5t69.5 46.5t89.5 16q53 0 93.5 -18t66.5 -52h5v140h-145v70h145v80h75v-80h80v-70h-80v-550h-60l-10 70h-5q-23 -34 -64 -57t-101 -23zM275 60q34 0 62.5 11t49 33t32 55t11.5 76t-11.5 76t-32 55
t-49 33t-62.5 11t-62.5 -11t-49 -33t-32 -55t-11.5 -76t11.5 -76t32 -55t49 -33t62.5 -11z" />
    <glyph glyph-name="Emacron" unicode="&#x112;" horiz-adv-x="590" 
d="M85 700h440v-75h-355v-235h335v-75h-335v-240h365v-75h-450v700zM170 870h280v-65h-280v65z" />
    <glyph glyph-name="emacron" unicode="&#x113;" horiz-adv-x="560" 
d="M285 -10q-53 0 -97 17.5t-75.5 52t-49.5 84.5t-18 116t17.5 116t49 84.5t74.5 52t94 17.5q60 0 104 -22.5t73.5 -58t43.5 -78t14 -81.5q0 -11 -1 -20t-2 -16q-1 -8 -2 -14h-390q4 -90 50.5 -135t114.5 -45q90 0 135 75h80q-26 -72 -83 -108.5t-132 -36.5zM440 305
q-8 75 -52 115t-108 40t-108 -40t-52 -115h320zM145 700h280v-65h-280v65z" />
    <glyph glyph-name="Ebreve" unicode="&#x114;" horiz-adv-x="590" 
d="M85 700h440v-75h-355v-235h335v-75h-335v-240h365v-75h-450v700zM310 775q-28 0 -53.5 7t-46 22.5t-33.5 40t-17 60.5h70q4 -38 27 -54t53 -16t53 16t27 54h70q-4 -36 -17 -60.5t-33.5 -40t-46 -22.5t-53.5 -7z" />
    <glyph glyph-name="ebreve" unicode="&#x115;" horiz-adv-x="560" 
d="M285 -10q-53 0 -97 17.5t-75.5 52t-49.5 84.5t-18 116t17.5 116t49 84.5t74.5 52t94 17.5q60 0 104 -22.5t73.5 -58t43.5 -78t14 -81.5q0 -11 -1 -20t-2 -16q-1 -8 -2 -14h-390q4 -90 50.5 -135t114.5 -45q90 0 135 75h80q-26 -72 -83 -108.5t-132 -36.5zM440 305
q-8 75 -52 115t-108 40t-108 -40t-52 -115h320zM285 605q-28 0 -53.5 7t-46 22.5t-33.5 40t-17 60.5h70q4 -38 27 -54t53 -16t53 16t27 54h70q-4 -36 -17 -60.5t-33.5 -40t-46 -22.5t-53.5 -7z" />
    <glyph glyph-name="Edotaccent" unicode="&#x116;" horiz-adv-x="590" 
d="M85 700h440v-75h-355v-235h335v-75h-335v-240h365v-75h-450v700zM313 790q-22 0 -37.5 15t-15.5 37t15 37.5t38 15.5q22 0 37 -15.5t15 -37.5q0 -21 -15 -36.5t-37 -15.5z" />
    <glyph glyph-name="edotaccent" unicode="&#x117;" horiz-adv-x="560" 
d="M285 -10q-53 0 -97 17.5t-75.5 52t-49.5 84.5t-18 116t17.5 116t49 84.5t74.5 52t94 17.5q60 0 104 -22.5t73.5 -58t43.5 -78t14 -81.5q0 -11 -1 -20t-2 -16q-1 -8 -2 -14h-390q4 -90 50.5 -135t114.5 -45q90 0 135 75h80q-26 -72 -83 -108.5t-132 -36.5zM440 305
q-8 75 -52 115t-108 40t-108 -40t-52 -115h320zM288 620q-22 0 -37.5 15t-15.5 37t15 37.5t38 15.5q22 0 37 -15.5t15 -37.5q0 -21 -15 -36.5t-37 -15.5z" />
    <glyph glyph-name="Eogonek" unicode="&#x118;" horiz-adv-x="590" 
d="M500 -190q-53 0 -79 24t-26 66q0 38 22.5 63.5t52.5 36.5h-385v700h440v-75h-355v-235h335v-75h-335v-240h365v-75q-41 -23 -60.5 -42t-19.5 -53q0 -15 14.5 -27.5t40.5 -12.5h25v-55h-35v0z" />
    <glyph glyph-name="eogonek" unicode="&#x119;" horiz-adv-x="560" 
d="M315 -190q-53 0 -79 24t-26 66q0 33 16.5 55.5t37.5 35.5q-48 3 -88.5 22.5t-69.5 53.5t-45 82.5t-16 110.5q0 66 17.5 116t49 84.5t74.5 52t94 17.5q60 0 104 -22.5t73.5 -58t43.5 -78t14 -81.5q0 -11 -1 -20t-2 -16q-1 -8 -2 -14h-390q4 -90 50.5 -135t114.5 -45
q90 0 135 75h80q-21 -57 -62 -92t-96 -47q-37 -20 -54.5 -39.5t-17.5 -51.5q0 -17 14.5 -28.5t40.5 -11.5h25v-55h-35zM440 305q-8 75 -52 115t-108 40t-108 -40t-52 -115h320z" />
    <glyph glyph-name="Ecaron" unicode="&#x11a;" horiz-adv-x="590" 
d="M85 700h440v-75h-355v-235h335v-75h-335v-240h365v-75h-450v700zM150 915h80l80 -90h5l80 90h80l-130 -145h-65z" />
    <glyph glyph-name="ecaron" unicode="&#x11b;" horiz-adv-x="560" 
d="M285 -10q-53 0 -97 17.5t-75.5 52t-49.5 84.5t-18 116t17.5 116t49 84.5t74.5 52t94 17.5q60 0 104 -22.5t73.5 -58t43.5 -78t14 -81.5q0 -11 -1 -20t-2 -16q-1 -8 -2 -14h-390q4 -90 50.5 -135t114.5 -45q90 0 135 75h80q-26 -72 -83 -108.5t-132 -36.5zM440 305
q-8 75 -52 115t-108 40t-108 -40t-52 -115h320zM125 740h80l80 -90h5l80 90h80l-130 -145h-65z" />
    <glyph glyph-name="Gcircumflex" unicode="&#x11c;" horiz-adv-x="715" 
d="M365 -10q-69 0 -127 23t-100 68.5t-65 113t-23 155.5t23 155.5t65 113t100 68.5t127 23q102 0 174.5 -48.5t110.5 -146.5h-90q-30 64 -78.5 92t-116.5 28q-51 0 -93 -18.5t-72.5 -54.5t-47.5 -89.5t-17 -122.5t17 -122.5t47.5 -89.5t72.5 -54.5t93 -18.5q52 0 92.5 19
t67.5 49.5t41 69t14 77.5h-215v75h300v-40q0 -75 -21 -135t-60 -102.5t-94.5 -65t-124.5 -22.5zM330 915h65l130 -145h-80l-80 90h-5l-80 -90h-80z" />
    <glyph glyph-name="gcircumflex" unicode="&#x11d;" horiz-adv-x="585" 
d="M285 -200q-39 0 -75 9.5t-66 28.5t-53 48.5t-36 68.5h80q19 -42 56 -63.5t94 -21.5q34 0 62.5 8.5t49 26t32 43.5t11.5 62v90h-5q-26 -34 -67 -52t-98 -18q-49 0 -90 16.5t-71 48.5t-47 78.5t-17 106.5t17 106.5t47 78.5t71 48.5t90 16.5q57 0 100.5 -20.5t69.5 -54.5h5
l10 65h60v-510q0 -51 -17 -90t-47.5 -65.5t-72.5 -40.5t-93 -14zM280 100q72 0 116 46.5t44 133.5t-44 133.5t-116 46.5t-116 -46.5t-44 -133.5t44 -133.5t116 -46.5zM265 745h65l130 -145h-80l-80 90h-5l-80 -90h-80z" />
    <glyph glyph-name="Gbreve" unicode="&#x11e;" horiz-adv-x="715" 
d="M365 -10q-69 0 -127 23t-100 68.5t-65 113t-23 155.5t23 155.5t65 113t100 68.5t127 23q102 0 174.5 -48.5t110.5 -146.5h-90q-30 64 -78.5 92t-116.5 28q-51 0 -93 -18.5t-72.5 -54.5t-47.5 -89.5t-17 -122.5t17 -122.5t47.5 -89.5t72.5 -54.5t93 -18.5q52 0 92.5 19
t67.5 49.5t41 69t14 77.5h-215v75h300v-40q0 -75 -21 -135t-60 -102.5t-94.5 -65t-124.5 -22.5zM360 775q-28 0 -53.5 7t-46 22.5t-33.5 40t-17 60.5h70q4 -38 27 -54t53 -16t53 16t27 54h70q-4 -36 -17 -60.5t-33.5 -40t-46 -22.5t-53.5 -7z" />
    <glyph glyph-name="gbreve" unicode="&#x11f;" horiz-adv-x="585" 
d="M285 -200q-39 0 -75 9.5t-66 28.5t-53 48.5t-36 68.5h80q19 -42 56 -63.5t94 -21.5q34 0 62.5 8.5t49 26t32 43.5t11.5 62v90h-5q-26 -34 -67 -52t-98 -18q-49 0 -90 16.5t-71 48.5t-47 78.5t-17 106.5t17 106.5t47 78.5t71 48.5t90 16.5q57 0 100.5 -20.5t69.5 -54.5h5
l10 65h60v-510q0 -51 -17 -90t-47.5 -65.5t-72.5 -40.5t-93 -14zM280 100q72 0 116 46.5t44 133.5t-44 133.5t-116 46.5t-116 -46.5t-44 -133.5t44 -133.5t116 -46.5zM295 605q-28 0 -53.5 7t-46 22.5t-33.5 40t-17 60.5h70q4 -38 27 -54t53 -16t53 16t27 54h70
q-4 -36 -17 -60.5t-33.5 -40t-46 -22.5t-53.5 -7z" />
    <glyph glyph-name="Gdotaccent" unicode="&#x120;" horiz-adv-x="715" 
d="M365 -10q-69 0 -127 23t-100 68.5t-65 113t-23 155.5t23 155.5t65 113t100 68.5t127 23q102 0 174.5 -48.5t110.5 -146.5h-90q-30 64 -78.5 92t-116.5 28q-51 0 -93 -18.5t-72.5 -54.5t-47.5 -89.5t-17 -122.5t17 -122.5t47.5 -89.5t72.5 -54.5t93 -18.5q52 0 92.5 19
t67.5 49.5t41 69t14 77.5h-215v75h300v-40q0 -75 -21 -135t-60 -102.5t-94.5 -65t-124.5 -22.5zM363 790q-22 0 -37.5 15t-15.5 37t15 37.5t38 15.5q22 0 37 -15.5t15 -37.5q0 -21 -15 -36.5t-37 -15.5z" />
    <glyph glyph-name="gdotaccent" unicode="&#x121;" horiz-adv-x="585" 
d="M285 -200q-39 0 -75 9.5t-66 28.5t-53 48.5t-36 68.5h80q19 -42 56 -63.5t94 -21.5q34 0 62.5 8.5t49 26t32 43.5t11.5 62v90h-5q-26 -34 -67 -52t-98 -18q-49 0 -90 16.5t-71 48.5t-47 78.5t-17 106.5t17 106.5t47 78.5t71 48.5t90 16.5q57 0 100.5 -20.5t69.5 -54.5h5
l10 65h60v-510q0 -51 -17 -90t-47.5 -65.5t-72.5 -40.5t-93 -14zM280 100q72 0 116 46.5t44 133.5t-44 133.5t-116 46.5t-116 -46.5t-44 -133.5t44 -133.5t116 -46.5zM298 620q-22 0 -37.5 15t-15.5 37t15 37.5t38 15.5q22 0 37 -15.5t15 -37.5q0 -21 -15 -36.5t-37 -15.5z
" />
    <glyph glyph-name="Gcommaaccent" unicode="&#x122;" horiz-adv-x="715" 
d="M365 -10q-69 0 -127 23t-100 68.5t-65 113t-23 155.5t23 155.5t65 113t100 68.5t127 23q102 0 174.5 -48.5t110.5 -146.5h-90q-30 64 -78.5 92t-116.5 28q-51 0 -93 -18.5t-72.5 -54.5t-47.5 -89.5t-17 -122.5t17 -122.5t47.5 -89.5t72.5 -54.5t93 -18.5q52 0 92.5 19
t67.5 49.5t41 69t14 77.5h-215v75h300v-40q0 -75 -21 -135t-60 -102.5t-94.5 -65t-124.5 -22.5zM320 -85h85l-70 -160h-60z" />
    <glyph glyph-name="gcommaaccent" unicode="&#x123;" horiz-adv-x="585" 
d="M320 760h60l-45 -160h-85zM285 -200q-39 0 -75 9.5t-66 28.5t-53 48.5t-36 68.5h80q19 -42 56 -63.5t94 -21.5q34 0 62.5 8.5t49 26t32 43.5t11.5 62v90h-5q-26 -34 -67 -52t-98 -18q-49 0 -90 16.5t-71 48.5t-47 78.5t-17 106.5t17 106.5t47 78.5t71 48.5t90 16.5
q57 0 100.5 -20.5t69.5 -54.5h5l10 65h60v-510q0 -51 -17 -90t-47.5 -65.5t-72.5 -40.5t-93 -14zM280 100q72 0 116 46.5t44 133.5t-44 133.5t-116 46.5t-116 -46.5t-44 -133.5t44 -133.5t116 -46.5z" />
    <glyph glyph-name="Hcircumflex" unicode="&#x124;" horiz-adv-x="710" 
d="M85 700h85v-310h370v310h85v-700h-85v315h-370v-315h-85v700zM325 915h65l130 -145h-80l-80 90h-5l-80 -90h-80z" />
    <glyph glyph-name="hcircumflex" unicode="&#x125;" horiz-adv-x="560" 
d="M75 700h75v-245h5q26 42 63 58.5t82 16.5q39 0 74.5 -14t62.5 -40.5t42.5 -65.5t15.5 -90v-320h-75v320q0 68 -36.5 104t-93.5 36q-30 0 -55.5 -11.5t-44.5 -30.5t-29.5 -44.5t-10.5 -53.5v-320h-75v700zM255 915h65l130 -145h-80l-80 90h-5l-80 -90h-80z" />
    <glyph glyph-name="Hbar" unicode="&#x126;" horiz-adv-x="720" 
d="M90 525h-75v75h75v100h85v-100h370v100h85v-100h75v-75h-75v-525h-85v315h-370v-315h-85v525zM545 390v135h-370v-135h370z" />
    <glyph glyph-name="hbar" unicode="&#x127;" horiz-adv-x="565" 
d="M80 550h-80v70h80v80h75v-80h145v-70h-145v-165h5q26 42 63 58.5t82 16.5q39 0 74.5 -14t62.5 -40.5t42.5 -65.5t15.5 -90v-250h-75v250q0 68 -36.5 104t-93.5 36q-30 0 -55.5 -11.5t-44.5 -30.5t-29.5 -44.5t-10.5 -53.5v-250h-75v550z" />
    <glyph glyph-name="Imacron" unicode="&#x12a;" horiz-adv-x="255" 
d="M85 700h85v-700h-85v700zM-10 870h280v-65h-280v65z" />
    <glyph glyph-name="imacron" unicode="&#x12b;" horiz-adv-x="215" 
d="M70 520h75v-520h-75v520zM-30 700h280v-65h-280v65z" />
    <glyph glyph-name="Ibreve" unicode="&#x12c;" horiz-adv-x="255" 
d="M85 700h85v-700h-85v700zM130 775q-28 0 -53.5 7t-46 22.5t-33.5 40t-17 60.5h70q4 -38 27 -54t53 -16t53 16t27 54h70q-4 -36 -17 -60.5t-33.5 -40t-46 -22.5t-53.5 -7z" />
    <glyph glyph-name="ibreve" unicode="&#x12d;" horiz-adv-x="215" 
d="M70 520h75v-520h-75v520zM110 605q-28 0 -53.5 7t-46 22.5t-33.5 40t-17 60.5h70q4 -38 27 -54t53 -16t53 16t27 54h70q-4 -36 -17 -60.5t-33.5 -40t-46 -22.5t-53.5 -7z" />
    <glyph glyph-name="Iogonek" unicode="&#x12e;" horiz-adv-x="255" 
d="M115 -190q-53 0 -79 24t-26 66q0 21 7 37t17.5 28t24 20.5t26.5 14.5v700h85v-700h-20q-41 -23 -60.5 -42t-19.5 -53q0 -15 14.5 -27.5t40.5 -12.5h25v-55h-35v0z" />
    <glyph glyph-name="iogonek" unicode="&#x12f;" horiz-adv-x="215" 
d="M100 -190q-53 0 -79 24t-26 66q0 21 7 37t17.5 28t24 20.5t26.5 14.5v520h75v-520h-10q-41 -23 -60.5 -42t-19.5 -53q0 -15 14.5 -27.5t40.5 -12.5h25v-55h-35zM108 595q-22 0 -37.5 15t-15.5 37t15 37.5t38 15.5q22 0 37 -15.5t15 -37.5q0 -21 -15 -36.5t-37 -15.5z" />
    <glyph glyph-name="Idotaccent" unicode="&#x130;" horiz-adv-x="255" 
d="M85 700h85v-700h-85v700zM128 790q-22 0 -37.5 15t-15.5 37t15 37.5t38 15.5q22 0 37 -15.5t15 -37.5q0 -21 -15 -36.5t-37 -15.5z" />
    <glyph glyph-name="dotlessi" unicode="&#x131;" horiz-adv-x="215" 
d="M70 520h75v-520h-75v520z" />
    <glyph glyph-name="uni0132" unicode="&#x132;" horiz-adv-x="755" 
d="M85 700h85v-700h-85v700zM450 -10q-91 0 -148 48.5t-72 146.5h85q11 -60 46.5 -90t88.5 -30q64 0 102 44t38 131v460h85v-460q0 -62 -16 -108.5t-45.5 -78t-71 -47.5t-92.5 -16z" />
    <glyph glyph-name="uni0133" unicode="&#x133;" horiz-adv-x="440" 
d="M70 520h75v-520h-75v520zM108 595q-22 0 -37.5 15t-15.5 37t15 37.5t38 15.5q22 0 37 -15.5t15 -37.5q0 -21 -15 -36.5t-37 -15.5zM160 -130h75q26 0 43 17t17 43v590h75v-590q0 -57 -36.5 -93.5t-93.5 -36.5h-80v70zM333 595q-22 0 -37.5 15t-15.5 37t15 37.5t38 15.5
q22 0 37 -15.5t15 -37.5q0 -21 -15 -36.5t-37 -15.5z" />
    <glyph glyph-name="Jcircumflex" unicode="&#x134;" horiz-adv-x="555" 
d="M250 -10q-91 0 -148 48.5t-72 146.5h85q11 -60 46.5 -90t88.5 -30q64 0 102 44t38 131v460h85v-460q0 -62 -16 -108.5t-45.5 -78t-71 -47.5t-92.5 -16zM400 915h65l130 -145h-80l-80 90h-5l-80 -90h-80z" />
    <glyph glyph-name="jcircumflex" unicode="&#x135;" horiz-adv-x="215" 
d="M-65 -130h75q26 0 43 17t17 43v590h75v-590q0 -57 -36.5 -93.5t-93.5 -36.5h-80v70zM75 745h65l130 -145h-80l-80 90h-5l-80 -90h-80z" />
    <glyph glyph-name="Kcommaaccent" unicode="&#x136;" horiz-adv-x="585" 
d="M85 700h85v-335l310 335h100l-320 -345l335 -355h-100l-325 345v-345h-85v700zM280 -85h85l-70 -160h-60z" />
    <glyph glyph-name="kcommaaccent" unicode="&#x137;" horiz-adv-x="495" 
d="M75 700h75v-425l245 245h95l-255 -255l270 -265h-95l-260 255v-255h-75v700zM230 -85h85l-70 -160h-60z" />
    <glyph glyph-name="Lacute" unicode="&#x139;" horiz-adv-x="545" 
d="M85 700h85v-625h355v-75h-440v700zM185 910h95l-115 -140h-70z" />
    <glyph glyph-name="lacute" unicode="&#x13a;" horiz-adv-x="225" 
d="M75 700h75v-700h-75v700zM170 910h95l-115 -140h-70z" />
    <glyph glyph-name="Lcommaaccent" unicode="&#x13b;" horiz-adv-x="545" 
d="M85 700h85v-625h355v-75h-440v700zM265 -85h85l-70 -160h-60z" />
    <glyph glyph-name="lcommaaccent" unicode="&#x13c;" horiz-adv-x="225" 
d="M75 700h75v-700h-75v700zM70 -85h85l-70 -160h-60z" />
    <glyph glyph-name="Lcaron" unicode="&#x13d;" horiz-adv-x="545" 
d="M85 700h85v-625h355v-75h-440v700z" />
    <glyph glyph-name="lcaron" unicode="&#x13e;" horiz-adv-x="305" 
d="M75 700h75v-700h-75v700z" />
    <glyph glyph-name="Ldot" unicode="&#x13f;" horiz-adv-x="545" 
d="M390 320q-23 0 -39 16t-16 39t16 39t39 16t39 -16t16 -39t-16 -39t-39 -16zM85 700h85v-625h355v-75h-440v700z" />
    <glyph glyph-name="ldot" unicode="&#x140;" horiz-adv-x="350" 
d="M285 300q-23 0 -39 16t-16 39t16 39t39 16t39 -16t16 -39t-16 -39t-39 -16zM75 700h75v-700h-75v700z" />
    <glyph glyph-name="Lslash" unicode="&#x141;" horiz-adv-x="556" 
d="M96 299l-80 -29v80l80 29v321h85v-289l160 59v-80l-160 -59v-256h355v-75h-440v299z" />
    <glyph glyph-name="lslash" unicode="&#x142;" horiz-adv-x="255" 
d="M90 301l-70 -31v85l70 31v314h75v-281l70 31v-85l-70 -31v-334h-75v301z" />
    <glyph glyph-name="Nacute" unicode="&#x143;" horiz-adv-x="730" 
d="M85 700h120l350 -595h5v595h85v-700h-120l-350 595h-5v-595h-85v700zM420 910h95l-115 -140h-70z" />
    <glyph glyph-name="nacute" unicode="&#x144;" horiz-adv-x="555" 
d="M70 520h60l10 -70h5q26 45 67.5 62.5t82.5 17.5t76.5 -14.5t62 -41.5t41.5 -66t15 -88v-320h-75v320q0 68 -36.5 104t-93.5 36q-30 0 -55.5 -11.5t-44.5 -30.5t-29.5 -44.5t-10.5 -53.5v-320h-75v520zM340 740h95l-115 -140h-70z" />
    <glyph glyph-name="Ncommaaccent" unicode="&#x145;" horiz-adv-x="730" 
d="M85 700h120l350 -595h5v595h85v-700h-120l-350 595h-5v-595h-85v700zM325 -85h85l-70 -160h-60z" />
    <glyph glyph-name="ncommaaccent" unicode="&#x146;" horiz-adv-x="555" 
d="M70 520h60l10 -70h5q26 45 67.5 62.5t82.5 17.5t76.5 -14.5t62 -41.5t41.5 -66t15 -88v-320h-75v320q0 68 -36.5 104t-93.5 36q-30 0 -55.5 -11.5t-44.5 -30.5t-29.5 -44.5t-10.5 -53.5v-320h-75v520zM245 -85h85l-70 -160h-60z" />
    <glyph glyph-name="Ncaron" unicode="&#x147;" horiz-adv-x="730" 
d="M85 700h120l350 -595h5v595h85v-700h-120l-350 595h-5v-595h-85v700zM205 915h80l80 -90h5l80 90h80l-130 -145h-65z" />
    <glyph glyph-name="ncaron" unicode="&#x148;" horiz-adv-x="555" 
d="M70 520h60l10 -70h5q26 45 67.5 62.5t82.5 17.5t76.5 -14.5t62 -41.5t41.5 -66t15 -88v-320h-75v320q0 68 -36.5 104t-93.5 36q-30 0 -55.5 -11.5t-44.5 -30.5t-29.5 -44.5t-10.5 -53.5v-320h-75v520zM125 740h80l80 -90h5l80 90h80l-130 -145h-65z" />
    <glyph glyph-name="napostrophe" unicode="&#x149;" horiz-adv-x="565" 
d="M80 520h60l10 -70h5q26 45 67.5 62.5t82.5 17.5t76.5 -14.5t62 -41.5t41.5 -66t15 -88v-320h-75v320q0 68 -36.5 104t-93.5 36q-30 0 -55.5 -11.5t-44.5 -30.5t-29.5 -44.5t-10.5 -53.5v-320h-75v520zM45 730h80l-70 -160h-55z" />
    <glyph glyph-name="Eng" unicode="&#x14a;" horiz-adv-x="730" 
d="M405 -125h45q57 0 83.5 28t26.5 92v5h-35l-350 595h-5v-595h-85v700h120l350 -595h5v595h85v-695q0 -102 -49 -153.5t-136 -51.5h-55v75z" />
    <glyph glyph-name="eng" unicode="&#x14b;" horiz-adv-x="555" 
d="M280 -130h75q26 0 43 17t17 43v390q0 68 -36.5 104t-93.5 36q-30 0 -55.5 -11.5t-44.5 -30.5t-29.5 -44.5t-10.5 -53.5v-320h-75v520h60l10 -70h5q26 45 67.5 62.5t82.5 17.5t76.5 -14.5t62 -41.5t41.5 -66t15 -88v-390q0 -57 -36.5 -93.5t-93.5 -36.5h-80v70z" />
    <glyph glyph-name="Omacron" unicode="&#x14c;" horiz-adv-x="730" 
d="M365 -10q-69 0 -127 23t-100 68.5t-65 113t-23 155.5t23 155.5t65 113t100 68.5t127 23t127 -23t100 -68.5t65 -113t23 -155.5t-23 -155.5t-65 -113t-100 -68.5t-127 -23zM365 65q51 0 93 18.5t72.5 54.5t47.5 89.5t17 122.5t-17 122.5t-47.5 89.5t-72.5 54.5t-93 18.5
t-93 -18.5t-72.5 -54.5t-47.5 -89.5t-17 -122.5t17 -122.5t47.5 -89.5t72.5 -54.5t93 -18.5zM225 870h280v-65h-280v65z" />
    <glyph glyph-name="omacron" unicode="&#x14d;" horiz-adv-x="570" 
d="M285 -10q-53 0 -97 17.5t-75.5 52t-49.5 84.5t-18 116t18 116t49.5 84.5t75.5 52t97 17.5q52 0 96.5 -17.5t76 -52t49.5 -84.5t18 -116t-18 -116t-49.5 -84.5t-76 -52t-96.5 -17.5zM285 60q36 0 66 13t52 38.5t34.5 62.5t12.5 86t-12.5 86t-34.5 62.5t-52 38.5t-66 13
t-66 -13t-52 -38.5t-34.5 -62.5t-12.5 -86t12.5 -86t34.5 -62.5t52 -38.5t66 -13zM145 700h280v-65h-280v65z" />
    <glyph glyph-name="Obreve" unicode="&#x14e;" horiz-adv-x="730" 
d="M365 -10q-69 0 -127 23t-100 68.5t-65 113t-23 155.5t23 155.5t65 113t100 68.5t127 23t127 -23t100 -68.5t65 -113t23 -155.5t-23 -155.5t-65 -113t-100 -68.5t-127 -23zM365 65q51 0 93 18.5t72.5 54.5t47.5 89.5t17 122.5t-17 122.5t-47.5 89.5t-72.5 54.5t-93 18.5
t-93 -18.5t-72.5 -54.5t-47.5 -89.5t-17 -122.5t17 -122.5t47.5 -89.5t72.5 -54.5t93 -18.5zM365 775q-28 0 -53.5 7t-46 22.5t-33.5 40t-17 60.5h70q4 -38 27 -54t53 -16t53 16t27 54h70q-4 -36 -17 -60.5t-33.5 -40t-46 -22.5t-53.5 -7z" />
    <glyph glyph-name="obreve" unicode="&#x14f;" horiz-adv-x="570" 
d="M285 -10q-53 0 -97 17.5t-75.5 52t-49.5 84.5t-18 116t18 116t49.5 84.5t75.5 52t97 17.5q52 0 96.5 -17.5t76 -52t49.5 -84.5t18 -116t-18 -116t-49.5 -84.5t-76 -52t-96.5 -17.5zM285 60q36 0 66 13t52 38.5t34.5 62.5t12.5 86t-12.5 86t-34.5 62.5t-52 38.5t-66 13
t-66 -13t-52 -38.5t-34.5 -62.5t-12.5 -86t12.5 -86t34.5 -62.5t52 -38.5t66 -13zM285 605q-28 0 -53.5 7t-46 22.5t-33.5 40t-17 60.5h70q4 -38 27 -54t53 -16t53 16t27 54h70q-4 -36 -17 -60.5t-33.5 -40t-46 -22.5t-53.5 -7z" />
    <glyph glyph-name="Ohungarumlaut" unicode="&#x150;" horiz-adv-x="730" 
d="M365 -10q-69 0 -127 23t-100 68.5t-65 113t-23 155.5t23 155.5t65 113t100 68.5t127 23t127 -23t100 -68.5t65 -113t23 -155.5t-23 -155.5t-65 -113t-100 -68.5t-127 -23zM365 65q51 0 93 18.5t72.5 54.5t47.5 89.5t17 122.5t-17 122.5t-47.5 89.5t-72.5 54.5t-93 18.5
t-93 -18.5t-72.5 -54.5t-47.5 -89.5t-17 -122.5t17 -122.5t47.5 -89.5t72.5 -54.5t93 -18.5zM340 910h95l-115 -140h-70zM500 910h95l-115 -140h-70z" />
    <glyph glyph-name="ohungarumlaut" unicode="&#x151;" horiz-adv-x="570" 
d="M285 -10q-53 0 -97 17.5t-75.5 52t-49.5 84.5t-18 116t18 116t49.5 84.5t75.5 52t97 17.5q52 0 96.5 -17.5t76 -52t49.5 -84.5t18 -116t-18 -116t-49.5 -84.5t-76 -52t-96.5 -17.5zM285 60q36 0 66 13t52 38.5t34.5 62.5t12.5 86t-12.5 86t-34.5 62.5t-52 38.5t-66 13
t-66 -13t-52 -38.5t-34.5 -62.5t-12.5 -86t12.5 -86t34.5 -62.5t52 -38.5t66 -13zM260 740h95l-115 -140h-70zM420 740h95l-115 -140h-70z" />
    <glyph glyph-name="OE" unicode="&#x152;" horiz-adv-x="1075" 
d="M355 -10q-64 0 -119.5 23t-97 68.5t-65 113t-23.5 155.5t23.5 155.5t65 113t97 68.5t119.5 23q72 0 129 -28t91 -77v95h435v-75h-350v-235h330v-75h-330v-240h360v-75h-445v95q-34 -49 -91 -77t-129 -28zM355 65q45 0 85 18.5t70 54.5t47.5 89.5t17.5 122.5t-17.5 122.5
t-47.5 89.5t-70 54.5t-85 18.5t-85 -18.5t-70 -54.5t-47.5 -89.5t-17.5 -122.5t17.5 -122.5t47.5 -89.5t70 -54.5t85 -18.5z" />
    <glyph glyph-name="oe" unicode="&#x153;" horiz-adv-x="945" 
d="M280 -10q-51 0 -94 17.5t-74.5 52t-49 84.5t-17.5 116t17.5 116t49 84.5t74.5 52t94 17.5q68 0 118.5 -31t76.5 -84q26 53 78.5 84t116.5 31q60 0 103.5 -22.5t71.5 -58t41.5 -78t13.5 -81.5q0 -11 -1 -20t-2 -16q-1 -8 -2 -14h-380q4 -91 48 -135.5t112 -44.5
q45 0 76 18.5t54 56.5h80q-26 -72 -80.5 -108.5t-129.5 -36.5q-68 0 -119 29t-81 86q-26 -53 -76.5 -84t-118.5 -31zM280 60q34 0 63 13t50.5 38.5t34 62.5t12.5 86t-12.5 86t-34 62.5t-50.5 38.5t-63 13t-63 -13t-50.5 -38.5t-34 -62.5t-12.5 -86t12.5 -86t34 -62.5
t50.5 -38.5t63 -13zM825 305q-8 75 -49.5 115t-105.5 40t-105.5 -40t-49.5 -115h310z" />
    <glyph glyph-name="Racute" unicode="&#x154;" horiz-adv-x="635" 
d="M85 700h270q51 0 91.5 -15t69 -43t44 -66.5t15.5 -85.5q0 -53 -17.5 -90.5t-45.5 -63t-61.5 -39t-65.5 -17.5l200 -280h-95l-200 280h-120v-280h-85v700zM350 355q68 0 104 37.5t36 97.5t-36 97.5t-104 37.5h-180v-270h180zM370 910h95l-115 -140h-70z" />
    <glyph glyph-name="racute" unicode="&#x155;" horiz-adv-x="355" 
d="M70 520h60l10 -70h5q23 38 57 54t83 16h55v-70h-55q-30 0 -55.5 -10t-44.5 -27t-29.5 -41t-10.5 -52v-320h-75v520zM260 740h95l-115 -140h-70z" />
    <glyph glyph-name="Rcommaaccent" unicode="&#x156;" horiz-adv-x="635" 
d="M85 700h270q51 0 91.5 -15t69 -43t44 -66.5t15.5 -85.5q0 -53 -17.5 -90.5t-45.5 -63t-61.5 -39t-65.5 -17.5l200 -280h-95l-200 280h-120v-280h-85v700zM350 355q68 0 104 37.5t36 97.5t-36 97.5t-104 37.5h-180v-270h180zM280 -85h85l-70 -160h-60z" />
    <glyph glyph-name="rcommaaccent" unicode="&#x157;" horiz-adv-x="355" 
d="M70 520h60l10 -70h5q23 38 57 54t83 16h55v-70h-55q-30 0 -55.5 -10t-44.5 -27t-29.5 -41t-10.5 -52v-320h-75v520zM65 -85h85l-70 -160h-60z" />
    <glyph glyph-name="Rcaron" unicode="&#x158;" horiz-adv-x="635" 
d="M85 700h270q51 0 91.5 -15t69 -43t44 -66.5t15.5 -85.5q0 -53 -17.5 -90.5t-45.5 -63t-61.5 -39t-65.5 -17.5l200 -280h-95l-200 280h-120v-280h-85v700zM350 355q68 0 104 37.5t36 97.5t-36 97.5t-104 37.5h-180v-270h180zM155 915h80l80 -90h5l80 90h80l-130 -145h-65z
" />
    <glyph glyph-name="rcaron" unicode="&#x159;" horiz-adv-x="355" 
d="M70 520h60l10 -70h5q23 38 57 54t83 16h55v-70h-55q-30 0 -55.5 -10t-44.5 -27t-29.5 -41t-10.5 -52v-320h-75v520zM45 740h80l80 -90h5l80 90h80l-130 -145h-65z" />
    <glyph glyph-name="Sacute" unicode="&#x15a;" horiz-adv-x="590" 
d="M295 -10q-106 0 -171 51.5t-84 138.5h85q19 -57 62.5 -86t107.5 -29q86 0 128 36t42 89q0 34 -17.5 55t-46 34.5t-65 22.5t-74 19t-74 23.5t-65 35.5t-46 55.5t-17.5 84.5q0 39 15.5 74t45.5 60.5t74 40.5t100 15q94 0 157.5 -43.5t82.5 -126.5h-85q-15 42 -53 68.5
t-102 26.5q-75 0 -112.5 -33t-37.5 -82q0 -36 17.5 -58.5t46 -37t65 -24t74 -19.5t74 -22.5t65 -34t46 -53.5t17.5 -81q0 -39 -16.5 -75.5t-49 -64t-80 -44t-109.5 -16.5zM355 910h95l-115 -140h-70z" />
    <glyph glyph-name="sacute" unicode="&#x15b;" horiz-adv-x="470" 
d="M235 -10q-79 0 -132 40.5t-68 104.5h80q11 -38 44.5 -56.5t75.5 -18.5q64 0 94.5 23t30.5 57q0 32 -23 48.5t-57.5 26t-74.5 18t-74.5 24.5t-57.5 45.5t-23 82.5q0 28 12.5 54t36.5 46.5t58.5 32.5t77.5 12q34 0 65 -8.5t56.5 -25t43 -40.5t25.5 -56h-80q-11 26 -38 43
t-72 17q-57 0 -83.5 -20.5t-26.5 -54.5t23 -51.5t57.5 -28t74.5 -19t74.5 -24.5t57.5 -44t23 -78q0 -30 -13.5 -57t-39.5 -48t-63 -33t-84 -12zM290 740h95l-115 -140h-70z" />
    <glyph glyph-name="Scircumflex" unicode="&#x15c;" horiz-adv-x="590" 
d="M295 -10q-106 0 -171 51.5t-84 138.5h85q19 -57 62.5 -86t107.5 -29q86 0 128 36t42 89q0 34 -17.5 55t-46 34.5t-65 22.5t-74 19t-74 23.5t-65 35.5t-46 55.5t-17.5 84.5q0 39 15.5 74t45.5 60.5t74 40.5t100 15q94 0 157.5 -43.5t82.5 -126.5h-85q-15 42 -53 68.5
t-102 26.5q-75 0 -112.5 -33t-37.5 -82q0 -36 17.5 -58.5t46 -37t65 -24t74 -19.5t74 -22.5t65 -34t46 -53.5t17.5 -81q0 -39 -16.5 -75.5t-49 -64t-80 -44t-109.5 -16.5zM270 915h65l130 -145h-80l-80 90h-5l-80 -90h-80z" />
    <glyph glyph-name="scircumflex" unicode="&#x15d;" horiz-adv-x="470" 
d="M235 -10q-79 0 -132 40.5t-68 104.5h80q11 -38 44.5 -56.5t75.5 -18.5q64 0 94.5 23t30.5 57q0 32 -23 48.5t-57.5 26t-74.5 18t-74.5 24.5t-57.5 45.5t-23 82.5q0 28 12.5 54t36.5 46.5t58.5 32.5t77.5 12q34 0 65 -8.5t56.5 -25t43 -40.5t25.5 -56h-80q-11 26 -38 43
t-72 17q-57 0 -83.5 -20.5t-26.5 -54.5t23 -51.5t57.5 -28t74.5 -19t74.5 -24.5t57.5 -44t23 -78q0 -30 -13.5 -57t-39.5 -48t-63 -33t-84 -12zM205 745h65l130 -145h-80l-80 90h-5l-80 -90h-80z" />
    <glyph glyph-name="Scedilla" unicode="&#x15e;" horiz-adv-x="590" 
d="M230 -155h50q40 0 40 40q0 15 -10.5 25t-29.5 10h-40v35l16 37q-88 10 -143.5 59.5t-72.5 128.5h85q19 -57 62.5 -86t107.5 -29q86 0 128 36t42 89q0 34 -17.5 55t-46 34.5t-65 22.5t-74 19t-74 23.5t-65 35.5t-46 55.5t-17.5 84.5q0 39 15.5 74t45.5 60.5t74 40.5
t100 15q94 0 157.5 -43.5t82.5 -126.5h-85q-15 42 -53 68.5t-102 26.5q-75 0 -112.5 -33t-37.5 -82q0 -36 17.5 -58.5t46 -37t65 -24t74 -19.5t74 -22.5t65 -34t46 -53.5t17.5 -81q0 -38 -15 -72.5t-44.5 -61.5t-73 -44.5t-101.5 -21.5l-11 -25q34 -4 54.5 -27t20.5 -53
q0 -42 -26 -66t-64 -24h-60v50z" />
    <glyph glyph-name="scedilla" unicode="&#x15f;" horiz-adv-x="470" 
d="M180 -155h50q40 0 40 40q0 15 -10.5 25t-29.5 10h-40v35l16 36q-65 7 -111 46t-60 98h80q11 -38 44.5 -56.5t75.5 -18.5q64 0 94.5 23t30.5 57q0 32 -23 48.5t-57.5 26t-74.5 18t-74.5 24.5t-57.5 45.5t-23 82.5q0 28 12.5 54t36.5 46.5t58.5 32.5t77.5 12q34 0 65 -8.5
t56.5 -25t43 -40.5t25.5 -56h-80q-11 26 -38 43t-72 17q-57 0 -83.5 -20.5t-26.5 -54.5t23 -51.5t57.5 -28t74.5 -19t74.5 -24.5t57.5 -44t23 -78q0 -27 -12 -52.5t-33.5 -46t-53 -34t-70.5 -16.5l-11 -26q34 -4 54.5 -27t20.5 -53q0 -42 -26 -66t-64 -24h-60v50z" />
    <glyph glyph-name="Scaron" unicode="&#x160;" horiz-adv-x="590" 
d="M295 -10q-106 0 -171 51.5t-84 138.5h85q19 -57 62.5 -86t107.5 -29q86 0 128 36t42 89q0 34 -17.5 55t-46 34.5t-65 22.5t-74 19t-74 23.5t-65 35.5t-46 55.5t-17.5 84.5q0 39 15.5 74t45.5 60.5t74 40.5t100 15q94 0 157.5 -43.5t82.5 -126.5h-85q-15 42 -53 68.5
t-102 26.5q-75 0 -112.5 -33t-37.5 -82q0 -36 17.5 -58.5t46 -37t65 -24t74 -19.5t74 -22.5t65 -34t46 -53.5t17.5 -81q0 -39 -16.5 -75.5t-49 -64t-80 -44t-109.5 -16.5zM140 915h80l80 -90h5l80 90h80l-130 -145h-65z" />
    <glyph glyph-name="scaron" unicode="&#x161;" horiz-adv-x="470" 
d="M235 -10q-79 0 -132 40.5t-68 104.5h80q11 -38 44.5 -56.5t75.5 -18.5q64 0 94.5 23t30.5 57q0 32 -23 48.5t-57.5 26t-74.5 18t-74.5 24.5t-57.5 45.5t-23 82.5q0 28 12.5 54t36.5 46.5t58.5 32.5t77.5 12q34 0 65 -8.5t56.5 -25t43 -40.5t25.5 -56h-80q-11 26 -38 43
t-72 17q-57 0 -83.5 -20.5t-26.5 -54.5t23 -51.5t57.5 -28t74.5 -19t74.5 -24.5t57.5 -44t23 -78q0 -30 -13.5 -57t-39.5 -48t-63 -33t-84 -12zM75 740h80l80 -90h5l80 90h80l-130 -145h-65z" />
    <glyph glyph-name="uni0162" unicode="&#x162;" horiz-adv-x="585" 
d="M245 -155h50q40 0 40 40q0 15 -10.5 25t-29.5 10h-40v35l20 45h-25v625h-225v75h535v-75h-225v-625l-15 -35q34 -4 54.5 -27t20.5 -53q0 -42 -26 -66t-64 -24h-60v50z" />
    <glyph glyph-name="uni0163" unicode="&#x163;" horiz-adv-x="355" 
d="M140 -155h50q40 0 40 40q0 15 -10.5 25t-29.5 10h-40v35l25 58q-32 16 -51 46.5t-19 70.5v320h-80v70h80l10 140h65v-140h135v-70h-135v-320q0 -26 17 -43t43 -17h75v-70h-80h-5l-15 -35q34 -4 54.5 -27t20.5 -53q0 -42 -24 -66t-66 -24h-60v50z" />
    <glyph glyph-name="Tcaron" unicode="&#x164;" horiz-adv-x="585" 
d="M250 625h-225v75h535v-75h-225v-625h-85v625zM130 915h80l80 -90h5l80 90h80l-130 -145h-65z" />
    <glyph glyph-name="tcaron" unicode="&#x165;" horiz-adv-x="410" 
d="M235 0q-57 0 -93.5 36.5t-36.5 93.5v320h-80v70h80l10 140h65v-140h135v-70h-135v-320q0 -26 17 -43t43 -17h75v-70h-80v0z" />
    <glyph glyph-name="Tbar" unicode="&#x166;" horiz-adv-x="585" 
d="M250 415h-165v75h165v135h-225v75h535v-75h-225v-135h165v-75h-165v-415h-85v415z" />
    <glyph glyph-name="tbar" unicode="&#x167;" horiz-adv-x="355" 
d="M235 0q-57 0 -93.5 36.5t-36.5 93.5v150h-80v70h80v100h-80v70h80l10 140h65v-140h135v-70h-135v-100h135v-70h-135v-150q0 -26 17 -43t43 -17h75v-70h-80v0z" />
    <glyph glyph-name="Umacron" unicode="&#x16a;" horiz-adv-x="700" 
d="M350 -10q-62 0 -112 19.5t-85 57.5t-54 94t-19 129v410h85v-410q0 -109 51 -167t134 -58t134 58t51 167v410h85v-410q0 -73 -19 -129t-54 -94t-85 -57.5t-112 -19.5zM210 870h280v-65h-280v65z" />
    <glyph glyph-name="umacron" unicode="&#x16b;" horiz-adv-x="560" 
d="M265 -10q-41 0 -77 14.5t-62 41.5t-41 66t-15 88v320h75v-320q0 -68 36.5 -104t93.5 -36q30 0 55.5 11.5t44.5 30.5t29.5 44.5t10.5 53.5v320h75v-520h-60l-10 70h-5q-26 -45 -67.5 -62.5t-82.5 -17.5zM140 700h280v-65h-280v65z" />
    <glyph glyph-name="Ubreve" unicode="&#x16c;" horiz-adv-x="700" 
d="M350 -10q-62 0 -112 19.5t-85 57.5t-54 94t-19 129v410h85v-410q0 -109 51 -167t134 -58t134 58t51 167v410h85v-410q0 -73 -19 -129t-54 -94t-85 -57.5t-112 -19.5zM350 775q-28 0 -53.5 7t-46 22.5t-33.5 40t-17 60.5h70q4 -38 27 -54t53 -16t53 16t27 54h70
q-4 -36 -17 -60.5t-33.5 -40t-46 -22.5t-53.5 -7z" />
    <glyph glyph-name="ubreve" unicode="&#x16d;" horiz-adv-x="560" 
d="M265 -10q-41 0 -77 14.5t-62 41.5t-41 66t-15 88v320h75v-320q0 -68 36.5 -104t93.5 -36q30 0 55.5 11.5t44.5 30.5t29.5 44.5t10.5 53.5v320h75v-520h-60l-10 70h-5q-26 -45 -67.5 -62.5t-82.5 -17.5zM280 605q-28 0 -53.5 7t-46 22.5t-33.5 40t-17 60.5h70
q4 -38 27 -54t53 -16t53 16t27 54h70q-4 -36 -17 -60.5t-33.5 -40t-46 -22.5t-53.5 -7z" />
    <glyph glyph-name="Uring" unicode="&#x16e;" horiz-adv-x="700" 
d="M350 -10q-62 0 -112 19.5t-85 57.5t-54 94t-19 129v410h85v-410q0 -109 51 -167t134 -58t134 58t51 167v410h85v-410q0 -73 -19 -129t-54 -94t-85 -57.5t-112 -19.5zM352 750q-42 0 -69.5 26.5t-27.5 70.5t27 71t70 27q44 0 71 -27t27 -71t-28 -70.5t-70 -26.5zM352 800
q23 0 35.5 12.5t12.5 34.5q0 21 -11.5 34.5t-36.5 13.5q-24 0 -35.5 -13.5t-11.5 -34.5q0 -22 12 -34.5t35 -12.5z" />
    <glyph glyph-name="uring" unicode="&#x16f;" horiz-adv-x="560" 
d="M265 -10q-41 0 -77 14.5t-62 41.5t-41 66t-15 88v320h75v-320q0 -68 36.5 -104t93.5 -36q30 0 55.5 11.5t44.5 30.5t29.5 44.5t10.5 53.5v320h75v-520h-60l-10 70h-5q-26 -45 -67.5 -62.5t-82.5 -17.5zM282 580q-42 0 -69.5 26.5t-27.5 70.5t27 71t70 27q44 0 71 -27
t27 -71t-28 -70.5t-70 -26.5zM282 630q23 0 35.5 12.5t12.5 34.5q0 21 -11.5 34.5t-36.5 13.5q-24 0 -35.5 -13.5t-11.5 -34.5q0 -22 12 -34.5t35 -12.5z" />
    <glyph glyph-name="Uhungarumlaut" unicode="&#x170;" horiz-adv-x="700" 
d="M350 -10q-62 0 -112 19.5t-85 57.5t-54 94t-19 129v410h85v-410q0 -109 51 -167t134 -58t134 58t51 167v410h85v-410q0 -73 -19 -129t-54 -94t-85 -57.5t-112 -19.5zM325 910h95l-115 -140h-70zM485 910h95l-115 -140h-70z" />
    <glyph glyph-name="uhungarumlaut" unicode="&#x171;" horiz-adv-x="560" 
d="M265 -10q-41 0 -77 14.5t-62 41.5t-41 66t-15 88v320h75v-320q0 -68 36.5 -104t93.5 -36q30 0 55.5 11.5t44.5 30.5t29.5 44.5t10.5 53.5v320h75v-520h-60l-10 70h-5q-26 -45 -67.5 -62.5t-82.5 -17.5zM255 740h95l-115 -140h-70zM415 740h95l-115 -140h-70z" />
    <glyph glyph-name="Uogonek" unicode="&#x172;" horiz-adv-x="700" 
d="M390 -190q-53 0 -79 24t-26 66q0 34 16.5 55.5t38.5 34.5q-59 2 -107 21.5t-82 57t-52.5 93t-18.5 128.5v410h85v-410q0 -109 51 -167t134 -58t134 58t51 167v410h85v-410q0 -125 -53.5 -199t-147.5 -94q-38 -21 -56 -40t-18 -52q0 -15 14.5 -27.5t40.5 -12.5h25v-55h-35
v0z" />
    <glyph glyph-name="uogonek" unicode="&#x173;" horiz-adv-x="560" 
d="M455 -190q-53 0 -79 24t-26 66q0 41 25 65t55 35l-10 70h-5q-26 -45 -67.5 -62.5t-82.5 -17.5t-77 14.5t-62 41.5t-41 66t-15 88v320h75v-320q0 -68 36.5 -104t93.5 -36q30 0 55.5 11.5t44.5 30.5t29.5 44.5t10.5 53.5v320h75v-520q-42 -22 -61 -41.5t-19 -53.5
q0 -17 14.5 -28.5t40.5 -11.5h25v-55h-35v0z" />
    <glyph glyph-name="Wcircumflex" unicode="&#x174;" horiz-adv-x="915" 
d="M15 700h90l145 -605h5l145 605h115l145 -605h5l145 605h90l-175 -700h-125l-140 595h-5l-140 -595h-125zM425 915h65l130 -145h-80l-80 90h-5l-80 -90h-80z" />
    <glyph glyph-name="wcircumflex" unicode="&#x175;" horiz-adv-x="725" 
d="M10 520h75l115 -420h5l115 420h85l115 -420h5l115 420h75l-145 -520h-95l-110 405h-5l-110 -405h-95zM330 745h65l130 -145h-80l-80 90h-5l-80 -90h-80z" />
    <glyph glyph-name="Ycircumflex" unicode="&#x176;" horiz-adv-x="585" 
d="M250 270l-245 430h90l195 -350h5l195 350h90l-245 -430v-270h-85v270zM260 915h65l130 -145h-80l-80 90h-5l-80 -90h-80z" />
    <glyph glyph-name="ycircumflex" unicode="&#x177;" horiz-adv-x="510" 
d="M220 0l-215 520h80l170 -415h5l165 415h80l-285 -720h-80zM225 745h65l130 -145h-80l-80 90h-5l-80 -90h-80z" />
    <glyph glyph-name="Ydieresis" unicode="&#x178;" horiz-adv-x="585" 
d="M250 270l-245 430h90l195 -350h5l195 350h90l-245 -430v-270h-85v270zM203 790q-22 0 -37.5 15t-15.5 37t15 37.5t38 15.5q22 0 37 -15.5t15 -37.5q0 -21 -15 -36.5t-37 -15.5zM383 790q-22 0 -37.5 15t-15.5 37t15 37.5t38 15.5q22 0 37 -15.5t15 -37.5q0 -21 -15 -36.5
t-37 -15.5z" />
    <glyph glyph-name="Zacute" unicode="&#x179;" horiz-adv-x="570" 
d="M35 60l390 565h-380v75h485v-60l-390 -565h395v-75h-500v60zM340 910h95l-115 -140h-70z" />
    <glyph glyph-name="zacute" unicode="&#x17a;" horiz-adv-x="435" 
d="M25 60l290 390h-280v70h370v-60l-290 -390h295v-70h-385v60zM275 740h95l-115 -140h-70z" />
    <glyph glyph-name="Zdotaccent" unicode="&#x17b;" horiz-adv-x="570" 
d="M35 60l390 565h-380v75h485v-60l-390 -565h395v-75h-500v60zM288 790q-22 0 -37.5 15t-15.5 37t15 37.5t38 15.5q22 0 37 -15.5t15 -37.5q0 -21 -15 -36.5t-37 -15.5z" />
    <glyph glyph-name="zdotaccent" unicode="&#x17c;" horiz-adv-x="435" 
d="M25 60l290 390h-280v70h370v-60l-290 -390h295v-70h-385v60zM223 620q-22 0 -37.5 15t-15.5 37t15 37.5t38 15.5q22 0 37 -15.5t15 -37.5q0 -21 -15 -36.5t-37 -15.5z" />
    <glyph glyph-name="Zcaron" unicode="&#x17d;" horiz-adv-x="570" 
d="M35 60l390 565h-380v75h485v-60l-390 -565h395v-75h-500v60zM125 915h80l80 -90h5l80 90h80l-130 -145h-65z" />
    <glyph glyph-name="zcaron" unicode="&#x17e;" horiz-adv-x="435" 
d="M25 60l290 390h-280v70h370v-60l-290 -390h295v-70h-385v60zM60 740h80l80 -90h5l80 90h80l-130 -145h-65z" />
    <glyph glyph-name="uni018F" unicode="&#x18f;" horiz-adv-x="725" 
d="M360 -10q-68 0 -124.5 22.5t-98 67t-64.5 111t-23 154.5v35h540q-7 125 -69.5 190t-160.5 65q-68 0 -116.5 -28t-78.5 -92h-90q38 98 110.5 146.5t174.5 48.5q69 0 127 -23t100 -68.5t65 -113t23 -155.5t-23 -155.5t-65 -113t-100 -68.5t-127 -23zM360 65q47 0 86.5 15.5
t69.5 46t49 75.5t25 103h-455q7 -69 28 -115.5t51 -74t67.5 -39t78.5 -11.5z" />
    <glyph glyph-name="florin" unicode="&#x192;" horiz-adv-x="380" 
d="M-60 -110h60q26 0 41 11.5t21 38.5l93 430h-100l15 70h100l33 151q13 60 46 84.5t86 24.5h70l-15 -70h-55q-23 0 -38.5 -11t-21.5 -39l-30 -140h110l-15 -70h-110l-96 -441q-14 -61 -46.5 -85t-85.5 -24h-77z" />
    <glyph glyph-name="Gacute" unicode="&#x1f4;" horiz-adv-x="715" 
d="M365 -10q-69 0 -127 23t-100 68.5t-65 113t-23 155.5t23 155.5t65 113t100 68.5t127 23q102 0 174.5 -48.5t110.5 -146.5h-90q-30 64 -78.5 92t-116.5 28q-51 0 -93 -18.5t-72.5 -54.5t-47.5 -89.5t-17 -122.5t17 -122.5t47.5 -89.5t72.5 -54.5t93 -18.5q52 0 92.5 19
t67.5 49.5t41 69t14 77.5h-215v75h300v-40q0 -75 -21 -135t-60 -102.5t-94.5 -65t-124.5 -22.5zM415 910h95l-115 -140h-70z" />
    <glyph glyph-name="gacute" unicode="&#x1f5;" horiz-adv-x="585" 
d="M285 -200q-39 0 -75 9.5t-66 28.5t-53 48.5t-36 68.5h80q19 -42 56 -63.5t94 -21.5q34 0 62.5 8.5t49 26t32 43.5t11.5 62v90h-5q-26 -34 -67 -52t-98 -18q-49 0 -90 16.5t-71 48.5t-47 78.5t-17 106.5t17 106.5t47 78.5t71 48.5t90 16.5q57 0 100.5 -20.5t69.5 -54.5h5
l10 65h60v-510q0 -51 -17 -90t-47.5 -65.5t-72.5 -40.5t-93 -14zM280 100q72 0 116 46.5t44 133.5t-44 133.5t-116 46.5t-116 -46.5t-44 -133.5t44 -133.5t116 -46.5zM350 740h95l-115 -140h-70z" />
    <glyph glyph-name="Aringacute" unicode="&#x1fa;" horiz-adv-x="625" 
d="M312 735q-42 0 -69.5 26.5t-27.5 70.5q0 41 24 67t62 30l22 56h80l-45 -65q24 -11 38 -34t14 -54q0 -44 -28 -70.5t-70 -26.5zM312 785q23 0 35.5 12.5t12.5 34.5q0 21 -11.5 34.5t-36.5 13.5q-24 0 -35.5 -13.5t-11.5 -34.5q0 -22 12 -34.5t35 -12.5zM265 700h95
l265 -700h-85l-65 175h-325l-65 -175h-85zM445 250l-130 355h-5l-130 -355h265z" />
    <glyph glyph-name="aringacute" unicode="&#x1fb;" horiz-adv-x="520" 
d="M262 565q-42 0 -69.5 26.5t-27.5 70.5q0 41 24 67t62 30l22 56h80l-45 -65q24 -11 38 -34t14 -54q0 -44 -28 -70.5t-70 -26.5zM262 615q23 0 35.5 12.5t12.5 34.5q0 21 -11.5 34.5t-36.5 13.5q-24 0 -35.5 -13.5t-11.5 -34.5q0 -22 12 -34.5t35 -12.5zM220 -10
q-41 0 -74.5 12.5t-57 34t-36 50.5t-12.5 63t13 63t37.5 50.5t61 34t83.5 12.5h145v35q0 53 -34 84t-91 31q-49 0 -79 -20.5t-41 -54.5h-80q19 72 72 108.5t128 36.5q47 0 84 -13.5t63 -37.5t39.5 -58t13.5 -76v-345h-60l-10 70h-5q-8 -13 -22.5 -27t-35 -26t-46.5 -19.5
t-56 -7.5zM220 60q37 0 67 11.5t50.5 31t31.5 46t11 56.5v35h-145q-60 0 -90 -24t-30 -66t28 -66t77 -24z" />
    <glyph glyph-name="AEacute" unicode="&#x1fc;" horiz-adv-x="935" 
d="M320 700h550v-75h-355v-235h335v-75h-335v-240h365v-75h-450v160h-280l-80 -160h-90zM430 240v370h-70l-175 -370h245zM535 910h95l-115 -140h-70z" />
    <glyph glyph-name="aeacute" unicode="&#x1fd;" horiz-adv-x="885" 
d="M220 -10q-41 0 -74.5 12.5t-57 34t-36 50.5t-12.5 63q0 32 12 60t36 49t59.5 33.5t82.5 12.5h150v40q0 53 -34 84t-91 31q-49 0 -79 -20.5t-41 -54.5h-80q19 72 72 108.5t128 36.5q64 0 110 -26.5t65 -68.5q34 49 78.5 72t101.5 23q60 0 103.5 -22.5t71.5 -58t41.5 -78
t13.5 -81.5q0 -11 -1 -20t-2 -16q-1 -8 -2 -14h-380q4 -91 48 -135.5t112 -44.5q45 0 76 18.5t54 56.5h80q-26 -72 -80.5 -108.5t-129.5 -36.5q-64 0 -114.5 26t-80.5 79q-11 -21 -29 -40t-43 -33.5t-57 -23t-71 -8.5zM220 60q37 0 67 11.5t50.5 31t31.5 46t11 56.5v30h-150
q-60 0 -87.5 -23.5t-27.5 -61.5q0 -42 28 -66t77 -24zM765 305q-8 75 -49.5 115t-105.5 40t-105.5 -40t-49.5 -115h310zM495 740h95l-115 -140h-70z" />
    <glyph glyph-name="Oslashacute" unicode="&#x1fe;" horiz-adv-x="730" 
d="M159 61q-51 47 -80 117t-29 172q0 88 23 155.5t65 113t100 68.5t127 23q83 0 148 -33l27 48h80l-49 -86q51 -47 80 -117t29 -172q0 -88 -23 -155.5t-65 -113t-100 -68.5t-127 -23q-84 0 -148 33l-27 -48h-80zM474 609q-23 12 -51.5 19t-57.5 7q-51 0 -93 -18.5
t-72.5 -54.5t-47.5 -89.5t-17 -122.5q0 -71 17 -124.5t49 -89.5zM365 65q51 0 93 18.5t72.5 54.5t47.5 89.5t17 122.5q0 71 -17 124.5t-49 89.5l-273 -473q23 -12 51.5 -19t57.5 -7zM420 910h95l-115 -140h-70z" />
    <glyph glyph-name="oslashacute" unicode="&#x1ff;" horiz-adv-x="570" 
d="M114 58q-33 36 -51 85t-18 117q0 64 17 114t48.5 84.5t76 53t98.5 18.5q34 0 63 -7t53 -20l24 37h80l-49 -78q33 -36 51 -85t18 -117q0 -64 -17 -114t-48.5 -84.5t-76 -53t-98.5 -18.5q-34 0 -63 7t-53 20l-24 -37h-80zM362 442q-35 18 -77 18q-36 0 -66 -13t-52 -38.5
t-34.5 -62.5t-12.5 -86q0 -44 10 -78t27 -59zM285 60q36 0 66 13t52 38.5t34.5 62.5t12.5 86q0 44 -10 78t-27 59l-205 -319q34 -18 77 -18zM340 740h95l-115 -140h-70z" />
    <glyph glyph-name="Scommaaccent" unicode="&#x218;" horiz-adv-x="590" 
d="M295 -10q-106 0 -171 51.5t-84 138.5h85q19 -57 62.5 -86t107.5 -29q86 0 128 36t42 89q0 34 -17.5 55t-46 34.5t-65 22.5t-74 19t-74 23.5t-65 35.5t-46 55.5t-17.5 84.5q0 39 15.5 74t45.5 60.5t74 40.5t100 15q94 0 157.5 -43.5t82.5 -126.5h-85q-15 42 -53 68.5
t-102 26.5q-75 0 -112.5 -33t-37.5 -82q0 -36 17.5 -58.5t46 -37t65 -24t74 -19.5t74 -22.5t65 -34t46 -53.5t17.5 -81q0 -39 -16.5 -75.5t-49 -64t-80 -44t-109.5 -16.5zM260 -85h85l-70 -160h-60z" />
    <glyph glyph-name="scommaaccent" unicode="&#x219;" horiz-adv-x="470" 
d="M235 -10q-79 0 -132 40.5t-68 104.5h80q11 -38 44.5 -56.5t75.5 -18.5q64 0 94.5 23t30.5 57q0 32 -23 48.5t-57.5 26t-74.5 18t-74.5 24.5t-57.5 45.5t-23 82.5q0 28 12.5 54t36.5 46.5t58.5 32.5t77.5 12q34 0 65 -8.5t56.5 -25t43 -40.5t25.5 -56h-80q-11 26 -38 43
t-72 17q-57 0 -83.5 -20.5t-26.5 -54.5t23 -51.5t57.5 -28t74.5 -19t74.5 -24.5t57.5 -44t23 -78q0 -30 -13.5 -57t-39.5 -48t-63 -33t-84 -12zM200 -85h85l-70 -160h-60z" />
    <glyph glyph-name="uni021A" unicode="&#x21a;" horiz-adv-x="585" 
d="M250 625h-225v75h535v-75h-225v-625h-85v625zM250 -85h85l-70 -160h-60z" />
    <glyph glyph-name="uni021B" unicode="&#x21b;" horiz-adv-x="355" 
d="M235 0q-57 0 -93.5 36.5t-36.5 93.5v320h-80v70h80l10 140h65v-140h135v-70h-135v-320q0 -26 17 -43t43 -17h75v-70h-80v0zM165 -85h85l-70 -160h-60z" />
    <glyph glyph-name="uni0232" unicode="&#x232;" horiz-adv-x="585" 
d="M250 270l-245 430h90l195 -350h5l195 350h90l-245 -430v-270h-85v270zM150 870h280v-65h-280v65z" />
    <glyph glyph-name="uni0233" unicode="&#x233;" horiz-adv-x="510" 
d="M220 0l-215 520h80l170 -415h5l165 415h80l-285 -720h-80zM115 700h280v-65h-280v65z" />
    <glyph glyph-name="uni0244" unicode="&#x244;" horiz-adv-x="710" 
d="M355 -10q-62 0 -112 19.5t-85 57.5t-54 94t-19 129v145h-75v75h75v190h85v-190h370v190h85v-190h75v-75h-75v-145q0 -73 -19 -129t-54 -94t-85 -57.5t-112 -19.5zM355 65q41 0 75 14t58.5 42t38 70.5t13.5 98.5v145h-370v-145q0 -56 13.5 -98.5t38 -70.5t58.5 -42t75 -14
z" />
    <glyph glyph-name="uni0259" unicode="&#x259;" horiz-adv-x="560" 
d="M280 -10q-60 0 -104 22.5t-73.5 58t-43.5 78t-14 81.5q0 11 0.5 20t1.5 16q1 8 3 14h390q-2 45 -15.5 78.5t-35.5 56t-51 34t-63 11.5q-90 0 -135 -75h-80q26 72 83 108.5t132 36.5q52 0 96.5 -17.5t76 -52t49.5 -84.5t18 -116t-17.5 -116t-49 -84.5t-74.5 -52t-94 -17.5
zM280 60q64 0 108 40t52 115h-320q8 -75 52 -115t108 -40z" />
    <glyph glyph-name="uni0289" unicode="&#x289;" horiz-adv-x="600" 
d="M285 -10q-41 0 -77 14.5t-62 41.5t-41 66t-15 88v165h-70v70h70v85h75v-85h270v85h75v-85h70v-70h-70v-365h-60l-10 70h-5q-26 -45 -67.5 -62.5t-82.5 -17.5zM295 60q30 0 55.5 11.5t44.5 30.5t29.5 44.5t10.5 53.5v165h-270v-165q0 -68 36.5 -104t93.5 -36z" />
    <glyph glyph-name="uni02BC" unicode="&#x2bc;" horiz-adv-x="185" 
d="M75 700h80l-70 -160h-55z" />
    <glyph glyph-name="circumflex" unicode="&#x2c6;" horiz-adv-x="385" 
d="M160 745h65l130 -145h-80l-80 90h-5l-80 -90h-80z" />
    <glyph glyph-name="caron" unicode="&#x2c7;" horiz-adv-x="385" 
d="M30 740h80l80 -90h5l80 90h80l-130 -145h-65z" />
    <glyph glyph-name="breve" unicode="&#x2d8;" horiz-adv-x="360" 
d="M180 605q-28 0 -53.5 7t-46 22.5t-33.5 40t-17 60.5h70q4 -38 27 -54t53 -16t53 16t27 54h70q-4 -36 -17 -60.5t-33.5 -40t-46 -22.5t-53.5 -7z" />
    <glyph glyph-name="dotaccent" unicode="&#x2d9;" horiz-adv-x="165" 
d="M83 620q-22 0 -37.5 15t-15.5 37t15 37.5t38 15.5q22 0 37 -15.5t15 -37.5q0 -21 -15 -36.5t-37 -15.5z" />
    <glyph glyph-name="ring" unicode="&#x2da;" horiz-adv-x="255" 
d="M127 580q-42 0 -69.5 26.5t-27.5 70.5t27 71t70 27q44 0 71 -27t27 -71t-28 -70.5t-70 -26.5zM127 630q23 0 35.5 12.5t12.5 34.5q0 21 -11.5 34.5t-36.5 13.5q-24 0 -35.5 -13.5t-11.5 -34.5q0 -22 12 -34.5t35 -12.5z" />
    <glyph glyph-name="ogonek" unicode="&#x2db;" horiz-adv-x="200" 
d="M135 -190q-53 0 -79 24t-26 66q0 21 7 37.5t17.5 29t24 20.5t26.5 13v10h65v-10q-42 -22 -61 -41.5t-19 -53.5q0 -17 14.5 -28.5t40.5 -11.5h25v-55h-35v0z" />
    <glyph glyph-name="tilde" unicode="&#x2dc;" horiz-adv-x="370" 
d="M250 615q-21 0 -38 8t-31.5 17t-27 17t-23.5 8q-15 0 -22.5 -13t-7.5 -32h-70q0 45 22.5 75t67.5 30q21 0 38 -8t31.5 -17t27 -17t23.5 -8q15 0 22.5 13t7.5 32h70q0 -45 -22.5 -75t-67.5 -30z" />
    <glyph glyph-name="hungarumlaut" unicode="&#x2dd;" horiz-adv-x="405" 
d="M120 740h95l-115 -140h-70zM280 740h95l-115 -140h-70z" />
    <glyph glyph-name="acutecomb" unicode="&#x301;" horiz-adv-x="0" 
d="M-300 910h95l-115 -140h-70z" />
    <glyph glyph-name="uni0302" unicode="&#x302;" horiz-adv-x="0" 
d="M-380 915h65l130 -145h-80l-80 90h-5l-80 -90h-80z" />
    <glyph glyph-name="uni0304" unicode="&#x304;" horiz-adv-x="0" 
d="M-495 870h280v-65h-280v65z" />
    <glyph glyph-name="uni0306" unicode="&#x306;" horiz-adv-x="0" 
d="M-350 775q-28 0 -53.5 7t-46 22.5t-33.5 40t-17 60.5h70q4 -38 27 -54t53 -16t53 16t27 54h70q-4 -36 -17 -60.5t-33.5 -40t-46 -22.5t-53.5 -7z" />
    <glyph glyph-name="uni0307" unicode="&#x307;" horiz-adv-x="0" 
d="M-347 790q-22 0 -37.5 15t-15.5 37t15 37.5t38 15.5q22 0 37 -15.5t15 -37.5q0 -21 -15 -36.5t-37 -15.5z" />
    <glyph glyph-name="uni0308" unicode="&#x308;" horiz-adv-x="0" 
d="M-442 790q-22 0 -37.5 15t-15.5 37t15 37.5t38 15.5q22 0 37 -15.5t15 -37.5q0 -21 -15 -36.5t-37 -15.5zM-262 790q-22 0 -37.5 15t-15.5 37t15 37.5t38 15.5q22 0 37 -15.5t15 -37.5q0 -21 -15 -36.5t-37 -15.5z" />
    <glyph glyph-name="uni030A" unicode="&#x30a;" horiz-adv-x="0" 
d="M-348 750q-42 0 -69.5 26.5t-27.5 70.5t27 71t70 27q44 0 71 -27t27 -71t-28 -70.5t-70 -26.5zM-348 800q23 0 35.5 12.5t12.5 34.5q0 21 -11.5 34.5t-36.5 13.5q-24 0 -35.5 -13.5t-11.5 -34.5q0 -22 12 -34.5t35 -12.5z" />
    <glyph glyph-name="uni030C" unicode="&#x30c;" horiz-adv-x="0" 
d="M-510 910h80l80 -90h5l80 90h80l-130 -145h-65z" />
    <glyph glyph-name="uni0326" unicode="&#x326;" horiz-adv-x="190" 
d="M75 -85h85l-70 -160h-60z" />
    <glyph glyph-name="uni0400" unicode="&#x400;" horiz-adv-x="590" 
d="M85 700h440v-75h-355v-235h335v-75h-335v-240h365v-75h-450v700zM160 910h95l90 -140h-70z" />
    <glyph glyph-name="uni0401" unicode="&#x401;" horiz-adv-x="590" 
d="M85 700h440v-75h-355v-235h335v-75h-335v-240h365v-75h-450v700zM223 790q-22 0 -37.5 15t-15.5 37t15 37.5t38 15.5q22 0 37 -15.5t15 -37.5q0 -21 -15 -36.5t-37 -15.5zM403 790q-22 0 -37.5 15t-15.5 37t15 37.5t38 15.5q22 0 37 -15.5t15 -37.5q0 -21 -15 -36.5
t-37 -15.5z" />
    <glyph glyph-name="uni0402" unicode="&#x402;" horiz-adv-x="710" 
d="M185 625h-185v75h450v-75h-180v-211q13 6 31 11.5t38.5 10t41 7t39.5 2.5q54 0 98.5 -15.5t76 -44.5t48.5 -71t17 -94q0 -49 -16.5 -89.5t-47 -69.5t-74 -45t-97.5 -16h-60v75h50q72 0 116 36.5t44 108.5q0 75 -44 112.5t-116 37.5q-53 0 -89.5 -11.5t-55.5 -20.5v-338
h-85v625z" />
    <glyph glyph-name="uni0403" unicode="&#x403;" horiz-adv-x="505" 
d="M85 700h400v-75h-315v-625h-85v700zM340 910h95l-115 -140h-70z" />
    <glyph glyph-name="uni0404" unicode="&#x404;" horiz-adv-x="690" 
d="M365 -10q-69 0 -127 23t-100 68.5t-65 113t-23 155.5t23 155.5t65 113t100 68.5t127 23q102 0 174.5 -48.5t110.5 -146.5h-90q-30 64 -78.5 92t-116.5 28q-47 0 -86.5 -16t-69.5 -47t-49 -76.5t-23 -105.5h293v-75h-294q4 -61 22.5 -107.5t48.5 -78t70.5 -48t87.5 -16.5
q68 0 116.5 28t78.5 92h90q-38 -98 -110.5 -146.5t-174.5 -48.5z" />
    <glyph glyph-name="uni0405" unicode="&#x405;" horiz-adv-x="590" 
d="M295 -10q-106 0 -171 51.5t-84 138.5h85q19 -57 62.5 -86t107.5 -29q86 0 128 36t42 89q0 34 -17.5 55t-46 34.5t-65 22.5t-74 19t-74 23.5t-65 35.5t-46 55.5t-17.5 84.5q0 39 15.5 74t45.5 60.5t74 40.5t100 15q94 0 157.5 -43.5t82.5 -126.5h-85q-15 42 -53 68.5
t-102 26.5q-75 0 -112.5 -33t-37.5 -82q0 -36 17.5 -58.5t46 -37t65 -24t74 -19.5t74 -22.5t65 -34t46 -53.5t17.5 -81q0 -39 -16.5 -75.5t-49 -64t-80 -44t-109.5 -16.5z" />
    <glyph glyph-name="uni0406" unicode="&#x406;" horiz-adv-x="255" 
d="M85 700h85v-700h-85v700z" />
    <glyph glyph-name="uni0407" unicode="&#x407;" horiz-adv-x="255" 
d="M85 700h85v-700h-85v700zM38 790q-22 0 -37.5 15t-15.5 37t15 37.5t38 15.5q22 0 37 -15.5t15 -37.5q0 -21 -15 -36.5t-37 -15.5zM218 790q-22 0 -37.5 15t-15.5 37t15 37.5t38 15.5q22 0 37 -15.5t15 -37.5q0 -21 -15 -36.5t-37 -15.5z" />
    <glyph glyph-name="uni0408" unicode="&#x408;" horiz-adv-x="555" 
d="M250 -10q-91 0 -148 48.5t-72 146.5h85q11 -60 46.5 -90t88.5 -30q64 0 102 44t38 131v460h85v-460q0 -62 -16 -108.5t-45.5 -78t-71 -47.5t-92.5 -16z" />
    <glyph glyph-name="uni0409" unicode="&#x409;" horiz-adv-x="1010" 
d="M10 75h10q28 0 50.5 11.5t38 47t23.5 101.5t8 175v290h435v-270h170q51 0 92.5 -16t71 -44.5t45.5 -68t16 -86.5t-16 -86.5t-45.5 -68t-71 -44.5t-92.5 -16h-255v625h-265v-215q0 -107 -8 -185t-30.5 -129t-62.5 -76t-104 -25h-10v80zM740 75q68 0 106.5 38t38.5 102
t-38.5 102t-106.5 38h-165v-280h165z" />
    <glyph glyph-name="uni040A" unicode="&#x40a;" horiz-adv-x="1040" 
d="M85 700h85v-290h350v290h85v-290h180q49 0 88.5 -15t67.5 -42.5t43.5 -65t15.5 -82.5t-15.5 -82.5t-43.5 -65t-67.5 -42.5t-88.5 -15h-265v335h-350v-335h-85v700zM780 75q64 0 99.5 35t35.5 95t-35.5 95t-99.5 35h-175v-260h175z" />
    <glyph glyph-name="uni040B" unicode="&#x40b;" horiz-adv-x="720" 
d="M185 625h-185v75h450v-75h-180v-211q13 6 31 11.5t38.5 10t41 7t39.5 2.5q109 0 167 -56.5t58 -173.5v-215h-85v215q0 83 -38.5 119t-106.5 36q-53 0 -89.5 -11.5t-55.5 -20.5v-338h-85v625z" />
    <glyph glyph-name="uni040C" unicode="&#x40c;" horiz-adv-x="585" 
d="M85 700h85v-335l310 335h100l-320 -345l335 -355h-100l-325 345v-345h-85v700zM375 910h95l-115 -140h-70z" />
    <glyph glyph-name="uni040D" unicode="&#x40d;" horiz-adv-x="730" 
d="M85 700h85v-603h5l350 603h120v-700h-85v603h-5l-350 -603h-120v700zM215 910h95l90 -140h-70z" />
    <glyph glyph-name="uni040E" unicode="&#x40e;" horiz-adv-x="575" 
d="M250 205l-240 495h90l190 -395h5l180 395h90l-320 -700h-90zM290 775q-28 0 -53.5 7t-46 22.5t-33.5 40t-17 60.5h70q4 -38 27 -54t53 -16t53 16t27 54h70q-4 -36 -17 -60.5t-33.5 -40t-46 -22.5t-53.5 -7z" />
    <glyph glyph-name="uni040F" unicode="&#x40f;" horiz-adv-x="700" 
d="M315 0h-230v700h85v-625h360v625h85v-700h-225v-145h-75v145z" />
    <glyph glyph-name="uni0410" unicode="&#x410;" horiz-adv-x="625" 
d="M265 700h95l265 -700h-85l-65 175h-325l-65 -175h-85zM445 250l-130 355h-5l-130 -355h265z" />
    <glyph glyph-name="uni0411" unicode="&#x411;" horiz-adv-x="620" 
d="M85 700h440v-75h-355v-205h185q51 0 91.5 -15t69 -43t44 -66.5t15.5 -85.5t-15.5 -85.5t-44 -66.5t-69 -43t-91.5 -15h-270v700zM350 75q68 0 104 37.5t36 97.5q0 64 -38 99.5t-102 35.5h-180v-270h180z" />
    <glyph glyph-name="uni0412" unicode="&#x412;" horiz-adv-x="650" 
d="M85 700h295q98 0 151.5 -52t53.5 -143q0 -49 -24 -90t-66 -60q42 -15 71 -59t29 -101q0 -91 -53.5 -143t-151.5 -52h-305v700zM385 75q57 0 91 31.5t34 88.5t-34 88.5t-91 31.5h-215v-240h215zM375 385q57 0 91 31.5t34 88.5t-34 88.5t-91 31.5h-205v-240h205z" />
    <glyph glyph-name="uni0413" unicode="&#x413;" horiz-adv-x="505" 
d="M85 700h400v-75h-315v-625h-85v700z" />
    <glyph glyph-name="uni0414" unicode="&#x414;" horiz-adv-x="685" 
d="M5 75h60q38 64 51.5 145t13.5 190v290h440v-625h85v-220h-75v145h-500v-145h-75v220zM485 75v550h-270v-215q0 -109 -13.5 -190t-51.5 -145h335z" />
    <glyph glyph-name="uni0415" unicode="&#x415;" horiz-adv-x="590" 
d="M85 700h440v-75h-355v-235h335v-75h-335v-240h365v-75h-450v700z" />
    <glyph glyph-name="uni0416" unicode="&#x416;" horiz-adv-x="855" 
d="M295 355l-290 345h100l280 -335v335h85v-335l280 335h100l-290 -345l305 -355h-100l-295 345v-345h-85v345l-295 -345h-100z" />
    <glyph glyph-name="uni0417" unicode="&#x417;" horiz-adv-x="595" 
d="M285 -10q-49 0 -92 13t-76 37.5t-54.5 61t-27.5 83.5h85q4 -26 18 -48t36 -38t50.5 -25t60.5 -9q86 0 128 36t42 89q0 26 -10.5 49t-31.5 40t-53 26.5t-75 9.5h-55v70h55q79 0 119.5 36t40.5 89t-40.5 89t-119.5 36q-30 0 -56.5 -9t-47 -25t-34 -38t-17.5 -48h-85
q7 47 28 83.5t52.5 61t72 37.5t87.5 13q60 0 106 -15t76.5 -42t46.5 -63.5t16 -79.5q0 -60 -30 -100t-75 -55q24 -8 45 -23t36.5 -37t24.5 -48.5t9 -56.5q0 -41 -16.5 -77.5t-49 -63.5t-80 -43t-109.5 -16z" />
    <glyph glyph-name="uni0418" unicode="&#x418;" horiz-adv-x="730" 
d="M85 700h85v-603h5l350 603h120v-700h-85v603h-5l-350 -603h-120v700z" />
    <glyph glyph-name="uni0419" unicode="&#x419;" horiz-adv-x="730" 
d="M85 700h85v-603h5l350 603h120v-700h-85v603h-5l-350 -603h-120v700zM365 775q-28 0 -53.5 7t-46 22.5t-33.5 40t-17 60.5h70q4 -38 27 -54t53 -16t53 16t27 54h70q-4 -36 -17 -60.5t-33.5 -40t-46 -22.5t-53.5 -7z" />
    <glyph glyph-name="uni041A" unicode="&#x41a;" horiz-adv-x="585" 
d="M85 700h85v-335l310 335h100l-320 -345l335 -355h-100l-325 345v-345h-85v700z" />
    <glyph glyph-name="uni041B" unicode="&#x41b;" horiz-adv-x="675" 
d="M10 75h10q34 0 57 16.5t37 55.5t20 103t6 160v290h450v-700h-85v625h-280v-215q0 -107 -8 -185t-30.5 -129t-62.5 -76t-104 -25h-10v80z" />
    <glyph glyph-name="uni041C" unicode="&#x41c;" horiz-adv-x="865" 
d="M85 700h135l210 -575h5l210 575h135v-700h-85v595h-5l-220 -595h-75l-220 595h-5v-595h-85v700z" />
    <glyph glyph-name="uni041D" unicode="&#x41d;" horiz-adv-x="710" 
d="M85 700h85v-310h370v310h85v-700h-85v315h-370v-315h-85v700z" />
    <glyph glyph-name="uni041E" unicode="&#x41e;" horiz-adv-x="730" 
d="M365 -10q-69 0 -127 23t-100 68.5t-65 113t-23 155.5t23 155.5t65 113t100 68.5t127 23t127 -23t100 -68.5t65 -113t23 -155.5t-23 -155.5t-65 -113t-100 -68.5t-127 -23zM365 65q51 0 93 18.5t72.5 54.5t47.5 89.5t17 122.5t-17 122.5t-47.5 89.5t-72.5 54.5t-93 18.5
t-93 -18.5t-72.5 -54.5t-47.5 -89.5t-17 -122.5t17 -122.5t47.5 -89.5t72.5 -54.5t93 -18.5z" />
    <glyph glyph-name="uni041F" unicode="&#x41f;" horiz-adv-x="700" 
d="M85 700h530v-700h-85v625h-360v-625h-85v700z" />
    <glyph glyph-name="uni0420" unicode="&#x420;" horiz-adv-x="625" 
d="M85 700h265q52 0 94 -17t71 -46.5t44.5 -69.5t15.5 -87t-15.5 -87t-44.5 -69.5t-71 -46.5t-94 -17h-180v-260h-85v700zM345 335q68 0 106.5 40.5t38.5 104.5t-38.5 104.5t-106.5 40.5h-175v-290h175z" />
    <glyph glyph-name="uni0421" unicode="&#x421;" horiz-adv-x="690" 
d="M365 -10q-69 0 -127 23t-100 68.5t-65 113t-23 155.5t23 155.5t65 113t100 68.5t127 23q102 0 174.5 -48.5t110.5 -146.5h-90q-30 64 -78.5 92t-116.5 28q-51 0 -93 -18.5t-72.5 -54.5t-47.5 -89.5t-17 -122.5t17 -122.5t47.5 -89.5t72.5 -54.5t93 -18.5q68 0 116.5 28
t78.5 92h90q-38 -98 -110.5 -146.5t-174.5 -48.5z" />
    <glyph glyph-name="uni0422" unicode="&#x422;" horiz-adv-x="585" 
d="M250 625h-225v75h535v-75h-225v-625h-85v625z" />
    <glyph glyph-name="uni0423" unicode="&#x423;" horiz-adv-x="575" 
d="M250 205l-240 495h90l190 -395h5l180 395h90l-320 -700h-90z" />
    <glyph glyph-name="uni0424" unicode="&#x424;" horiz-adv-x="805" 
d="M360 70q-77 0 -136 22t-98.5 60.5t-60 90.5t-20.5 112t20.5 112t60 90.5t98.5 60.5t136 22v70h85v-70q77 0 136 -22t98.5 -60.5t60 -90.5t20.5 -112t-20.5 -112t-60 -90.5t-98.5 -60.5t-136 -22v-80h-85v80zM360 565q-60 0 -103.5 -16t-71.5 -44t-41.5 -66.5t-13.5 -83.5
t13.5 -83.5t41.5 -66.5t71.5 -44t103.5 -16v420zM445 145q60 0 103.5 16t71.5 44t41.5 66.5t13.5 83.5t-13.5 83.5t-41.5 66.5t-71.5 44t-103.5 16v-420z" />
    <glyph glyph-name="uni0425" unicode="&#x425;" horiz-adv-x="590" 
d="M245 360l-230 340h95l185 -275l185 275h95l-230 -340l240 -360h-95l-195 295l-195 -295h-95z" />
    <glyph glyph-name="uni0426" unicode="&#x426;" horiz-adv-x="730" 
d="M625 0h-540v700h85v-625h360v625h85v-625h85v-220h-75v145z" />
    <glyph glyph-name="uni0427" unicode="&#x427;" horiz-adv-x="670" 
d="M500 270q-38 -19 -77.5 -27t-92.5 -8q-62 0 -109.5 17t-80 48.5t-49 76t-16.5 98.5v225h85v-225q0 -79 45.5 -122t124.5 -43q52 0 90.5 8t79.5 27v355h85v-700h-85v270z" />
    <glyph glyph-name="uni0428" unicode="&#x428;" horiz-adv-x="945" 
d="M85 700h85v-625h260v625h85v-625h260v625h85v-700h-775v700z" />
    <glyph glyph-name="uni0429" unicode="&#x429;" horiz-adv-x="975" 
d="M870 0h-785v700h85v-625h260v625h85v-625h260v625h85v-625h85v-220h-75v145z" />
    <glyph glyph-name="uni042A" unicode="&#x42a;" horiz-adv-x="690" 
d="M160 625h-160v75h245v-270h180q52 0 94 -16.5t71 -46t44.5 -68.5t15.5 -84t-15.5 -84t-44.5 -68.5t-71 -46t-94 -16.5h-265v625zM420 75q34 0 60.5 10.5t45.5 29.5t29 44.5t10 55.5t-10 55.5t-29 44.5t-45.5 29.5t-60.5 10.5h-175v-280h175z" />
    <glyph glyph-name="uni042B" unicode="&#x42b;" horiz-adv-x="830" 
d="M85 700h85v-270h170q52 0 94 -16.5t71 -46t44.5 -68.5t15.5 -84t-15.5 -84t-44.5 -68.5t-71 -46t-94 -16.5h-255v700zM335 75q34 0 60.5 10.5t45.5 29.5t29 44.5t10 55.5t-10 55.5t-29 44.5t-45.5 29.5t-60.5 10.5h-165v-280h165zM660 700h85v-700h-85v700z" />
    <glyph glyph-name="uni042C" unicode="&#x42c;" horiz-adv-x="615" 
d="M85 700h85v-270h180q52 0 94 -16.5t71 -46t44.5 -68.5t15.5 -84t-15.5 -84t-44.5 -68.5t-71 -46t-94 -16.5h-265v700zM345 75q34 0 60.5 10.5t45.5 29.5t29 44.5t10 55.5t-10 55.5t-29 44.5t-45.5 29.5t-60.5 10.5h-175v-280h175z" />
    <glyph glyph-name="uni042D" unicode="&#x42d;" horiz-adv-x="685" 
d="M320 -10q-102 0 -174.5 48.5t-110.5 146.5h90q30 -64 78.5 -92t116.5 -28q47 0 87.5 16.5t70.5 48t48.5 78t22.5 107.5h-294v75h293q-5 60 -23.5 105.5t-48.5 76.5t-69.5 47t-86.5 16q-68 0 -116.5 -28t-78.5 -92h-90q38 98 110.5 146.5t174.5 48.5q69 0 127 -23
t100 -68.5t65 -113t23 -155.5t-23 -155.5t-65 -113t-100 -68.5t-127 -23z" />
    <glyph glyph-name="uni042E" unicode="&#x42e;" horiz-adv-x="940" 
d="M585 -10q-62 0 -115 21t-92.5 62t-63.5 101.5t-28 140.5h-116v-315h-85v700h85v-310h116q5 78 29.5 138t63.5 100.5t91.5 61t114.5 20.5q66 0 121 -23t94.5 -68.5t62 -113t22.5 -155.5t-22.5 -155.5t-62 -113t-94.5 -68.5t-121 -23zM585 65q45 0 84 18t68.5 53.5t46 89
t16.5 124.5t-16.5 124.5t-46 89t-68.5 53.5t-84 18t-84 -18t-68.5 -53.5t-46 -89t-16.5 -124.5t16.5 -124.5t46 -89t68.5 -53.5t84 -18z" />
    <glyph glyph-name="uni042F" unicode="&#x42f;" horiz-adv-x="635" 
d="M270 280q-39 0 -77 13t-67.5 39.5t-47.5 65.5t-18 92q0 47 15.5 85.5t44 66.5t69 43t91.5 15h270v-700h-85v280h-100l-220 -280h-95zM465 355v270h-180q-68 0 -104 -37.5t-36 -97.5t36 -97.5t104 -37.5h180z" />
    <glyph glyph-name="uni0430" unicode="&#x430;" horiz-adv-x="520" 
d="M220 -10q-41 0 -74.5 12.5t-57 34t-36 50.5t-12.5 63t13 63t37.5 50.5t61 34t83.5 12.5h145v35q0 53 -34 84t-91 31q-49 0 -79 -20.5t-41 -54.5h-80q19 72 72 108.5t128 36.5q47 0 84 -13.5t63 -37.5t39.5 -58t13.5 -76v-345h-60l-10 70h-5q-8 -13 -22.5 -27t-35 -26
t-46.5 -19.5t-56 -7.5zM220 60q37 0 67 11.5t50.5 31t31.5 46t11 56.5v35h-145q-60 0 -90 -24t-30 -66t28 -66t77 -24z" />
    <glyph glyph-name="uni0431" unicode="&#x431;" horiz-adv-x="570" 
d="M290 -10q-53 0 -97 18t-75.5 54t-49.5 90.5t-18 127.5q0 107 16 183.5t48.5 126t81 72.5t114.5 23q60 0 107.5 10t77.5 25v-70q-30 -15 -72.5 -22.5t-102.5 -7.5q-87 0 -133 -52t-57 -158h5q30 42 71.5 61t98.5 19q49 0 89.5 -16.5t69.5 -48.5t45 -78.5t16 -106.5
t-17 -106.5t-48 -78.5t-74.5 -48.5t-95.5 -16.5zM290 60q72 0 116 46.5t44 133.5t-44 133.5t-116 46.5t-116 -46.5t-44 -133.5t44 -133.5t116 -46.5z" />
    <glyph glyph-name="uni0432" unicode="&#x432;" horiz-adv-x="515" 
d="M70 520h240q68 0 109 -38.5t41 -106.5q0 -38 -17.5 -66.5t-47.5 -43.5q34 -15 54.5 -46t20.5 -69q0 -72 -42.5 -111t-117.5 -39h-240v520zM310 70q38 0 61.5 21t23.5 59t-23.5 59t-61.5 21h-165v-160h165zM310 300q38 0 59 20.5t21 54.5t-21 54.5t-59 20.5h-165v-150h165
z" />
    <glyph glyph-name="uni0433" unicode="&#x433;" horiz-adv-x="420" 
d="M70 520h330v-70h-255v-450h-75v520z" />
    <glyph glyph-name="uni0434" unicode="&#x434;" horiz-adv-x="550" 
d="M5 70h55q26 45 35.5 103t9.5 137v210h355v-450h70v-190h-70v120h-385v-120h-70v190zM385 70v380h-205v-140q0 -79 -9.5 -137t-35.5 -103h250z" />
    <glyph glyph-name="uni0435" unicode="&#x435;" horiz-adv-x="560" 
d="M285 -10q-53 0 -97 17.5t-75.5 52t-49.5 84.5t-18 116t17.5 116t49 84.5t74.5 52t94 17.5q60 0 104 -22.5t73.5 -58t43.5 -78t14 -81.5q0 -11 -1 -20t-2 -16q-1 -8 -2 -14h-390q4 -90 50.5 -135t114.5 -45q90 0 135 75h80q-26 -72 -83 -108.5t-132 -36.5zM440 305
q-8 75 -52 115t-108 40t-108 -40t-52 -115h320z" />
    <glyph glyph-name="uni0436" unicode="&#x436;" horiz-adv-x="705" 
d="M230 265l-225 255h95l215 -245v245h75v-245l215 245h95l-225 -255l240 -265h-95l-230 255v-255h-75v255l-230 -255h-95z" />
    <glyph glyph-name="uni0437" unicode="&#x437;" horiz-adv-x="475" 
d="M235 -10q-41 0 -76 9.5t-62 27.5t-44 45t-23 63h75q8 -38 44.5 -56.5t85.5 -18.5q64 0 94.5 23t30.5 57t-30.5 59.5t-94.5 25.5h-45v70h45q57 0 86 23.5t29 61.5q0 34 -29 57t-86 23q-49 0 -80.5 -18.5t-39.5 -56.5h-75q11 72 63.5 108.5t131.5 36.5q45 0 80.5 -11.5
t59.5 -31.5t37 -47.5t13 -59.5q0 -21 -7 -40t-18.5 -35t-27 -27.5t-32.5 -17.5q19 -6 36 -17t30 -26.5t21 -35t8 -41.5q0 -32 -12.5 -59.5t-37 -47.5t-62 -31.5t-88.5 -11.5z" />
    <glyph glyph-name="uni0438" unicode="&#x438;" horiz-adv-x="570" 
d="M70 520h75v-426h5l250 426h100v-520h-75v426h-5l-250 -426h-100v520z" />
    <glyph glyph-name="uni0439" unicode="&#x439;" horiz-adv-x="570" 
d="M70 520h75v-426h5l250 426h100v-520h-75v426h-5l-250 -426h-100v520zM285 605q-53 0 -92.5 29t-47.5 101h70q8 -70 70 -70t70 70h70q-8 -72 -47.5 -101t-92.5 -29z" />
    <glyph glyph-name="uni043A" unicode="&#x43a;" horiz-adv-x="490" 
d="M70 520h75v-245l245 245h95l-255 -255l270 -265h-95l-260 255v-255h-75v520z" />
    <glyph glyph-name="uni043B" unicode="&#x43b;" horiz-adv-x="540" 
d="M10 70h10q24 0 40.5 11.5t26.5 39t14 74t4 115.5v210h365v-520h-75v450h-215v-140q0 -83 -7.5 -142.5t-25.5 -97.5t-49 -56.5t-78 -18.5h-10v75z" />
    <glyph glyph-name="uni043C" unicode="&#x43c;" horiz-adv-x="695" 
d="M70 520h110l165 -415h5l165 415h110v-520h-75v410h-5l-165 -410h-65l-165 410h-5v-410h-75v520z" />
    <glyph glyph-name="uni043D" unicode="&#x43d;" horiz-adv-x="560" 
d="M70 520h75v-225h270v225h75v-520h-75v225h-270v-225h-75v520z" />
    <glyph glyph-name="uni043E" unicode="&#x43e;" horiz-adv-x="570" 
d="M285 -10q-53 0 -97 17.5t-75.5 52t-49.5 84.5t-18 116t18 116t49.5 84.5t75.5 52t97 17.5q52 0 96.5 -17.5t76 -52t49.5 -84.5t18 -116t-18 -116t-49.5 -84.5t-76 -52t-96.5 -17.5zM285 60q36 0 66 13t52 38.5t34.5 62.5t12.5 86t-12.5 86t-34.5 62.5t-52 38.5t-66 13
t-66 -13t-52 -38.5t-34.5 -62.5t-12.5 -86t12.5 -86t34.5 -62.5t52 -38.5t66 -13z" />
    <glyph glyph-name="uni043F" unicode="&#x43f;" horiz-adv-x="555" 
d="M70 520h415v-520h-75v450h-265v-450h-75v520z" />
    <glyph glyph-name="uni0440" unicode="&#x440;" horiz-adv-x="585" 
d="M70 520h60l10 -70h5q26 38 69.5 59t100.5 21q49 0 90 -17.5t71 -52t47 -84.5t17 -116t-17 -116t-47 -84.5t-71 -52t-90 -17.5q-57 0 -98 20.5t-67 54.5h-5v-265h-75v720zM305 60q72 0 116 51t44 149t-44 149t-116 51t-116 -51t-44 -149t44 -149t116 -51z" />
    <glyph glyph-name="uni0441" unicode="&#x441;" horiz-adv-x="535" 
d="M285 -10q-53 0 -97 17.5t-75.5 52t-49.5 84.5t-18 116t18 116t49.5 84.5t75.5 52t97 17.5q75 0 132 -36.5t83 -108.5h-80q-45 75 -135 75q-36 0 -66 -13t-52 -38.5t-34.5 -62.5t-12.5 -86t12.5 -86t34.5 -62.5t52 -38.5t66 -13q90 0 135 75h80q-26 -72 -83 -108.5
t-132 -36.5z" />
    <glyph glyph-name="uni0442" unicode="&#x442;" horiz-adv-x="460" 
d="M190 450h-175v70h430v-70h-180v-450h-75v450z" />
    <glyph glyph-name="uni0443" unicode="&#x443;" horiz-adv-x="510" 
d="M220 0l-215 520h80l170 -415h5l165 415h80l-285 -720h-80z" />
    <glyph glyph-name="uni0444" unicode="&#x444;" horiz-adv-x="685" 
d="M305 0q-60 0 -109 19t-83.5 53t-53.5 82t-19 106t19 106t53.5 82t83.5 53t109 19v200h75v-200q60 0 109 -19t83.5 -53t53.5 -82t19 -106t-19 -106t-53.5 -82t-83.5 -53t-109 -19v-200h-75v200zM305 450q-91 0 -140.5 -51.5t-49.5 -138.5t49.5 -138.5t140.5 -51.5v380z
M380 70q91 0 140.5 51.5t49.5 138.5t-49.5 138.5t-140.5 51.5v-380z" />
    <glyph glyph-name="uni0445" unicode="&#x445;" horiz-adv-x="460" 
d="M185 270l-175 250h85l135 -195l135 195h85l-175 -250l185 -270h-85l-145 215l-145 -215h-85z" />
    <glyph glyph-name="uni0446" unicode="&#x446;" horiz-adv-x="570" 
d="M480 0h-410v520h75v-450h260v450h75v-450h70v-190h-70v120z" />
    <glyph glyph-name="uni0447" unicode="&#x447;" horiz-adv-x="525" 
d="M380 195q-26 -11 -56.5 -18t-68.5 -7q-94 0 -144.5 48.5t-50.5 131.5v170h75v-170q0 -53 30 -81.5t90 -28.5q38 0 66.5 5t58.5 20v255h75v-520h-75v195z" />
    <glyph glyph-name="uni0448" unicode="&#x448;" horiz-adv-x="775" 
d="M70 520h75v-450h205v450h75v-450h205v450h75v-520h-635v520z" />
    <glyph glyph-name="uni0449" unicode="&#x449;" horiz-adv-x="795" 
d="M705 0h-635v520h75v-450h205v450h75v-450h205v450h75v-450h70v-190h-70v120z" />
    <glyph glyph-name="uni044A" unicode="&#x44a;" horiz-adv-x="555" 
d="M130 450h-130v70h205v-190h145q37 0 68.5 -11.5t54 -33.5t35 -52.5t12.5 -67.5q0 -38 -12.5 -68t-35 -52t-54 -33.5t-68.5 -11.5h-220v450zM345 70q45 0 72.5 25t27.5 70t-27.5 70t-72.5 25h-140v-190h140z" />
    <glyph glyph-name="uni044B" unicode="&#x44b;" horiz-adv-x="670" 
d="M70 520h75v-190h135q37 0 68.5 -11.5t54 -33.5t35 -52.5t12.5 -67.5q0 -38 -12.5 -68t-35 -52t-54 -33.5t-68.5 -11.5h-210v520zM275 70q45 0 72.5 25t27.5 70t-27.5 70t-72.5 25h-130v-190h130zM525 520h75v-520h-75v520z" />
    <glyph glyph-name="uni044C" unicode="&#x44c;" horiz-adv-x="495" 
d="M70 520h75v-190h145q37 0 68.5 -11.5t54 -33.5t35 -52.5t12.5 -67.5q0 -38 -12.5 -68t-35 -52t-54 -33.5t-68.5 -11.5h-220v520zM285 70q45 0 72.5 25t27.5 70t-27.5 70t-72.5 25h-140v-190h140z" />
    <glyph glyph-name="uni044D" unicode="&#x44d;" horiz-adv-x="530" 
d="M245 -10q-75 0 -132 36.5t-83 108.5h80q45 -75 135 -75q32 0 60 10.5t49.5 31.5t35.5 52t18 71h-203v70h203q-4 40 -18 71t-35.5 52t-49.5 31.5t-60 10.5q-90 0 -135 -75h-80q26 72 83 108.5t132 36.5q52 0 96.5 -17.5t76 -52t49.5 -84.5t18 -116t-18 -116t-49.5 -84.5
t-76 -52t-96.5 -17.5z" />
    <glyph glyph-name="uni044E" unicode="&#x44e;" horiz-adv-x="735" 
d="M460 -10q-47 0 -86.5 15.5t-69.5 45t-49 73.5t-23 101h-87v-225h-75v520h75v-225h87q4 57 23 101t49 74t69.5 45t86.5 15q51 0 93 -17.5t72.5 -52t47.5 -84.5t17 -116t-17 -116t-47.5 -84.5t-72.5 -52t-93 -17.5zM460 60q68 0 111.5 51t43.5 149t-43.5 149t-111.5 51
t-111.5 -51t-43.5 -149t43.5 -149t111.5 -51z" />
    <glyph glyph-name="uni044F" unicode="&#x44f;" horiz-adv-x="510" 
d="M200 200q-24 0 -50.5 10t-48.5 30.5t-36.5 50.5t-14.5 69q0 36 12.5 65.5t35 50.5t53.5 32.5t69 11.5h220v-520h-75v200h-80l-160 -200h-85zM365 270v180h-140q-45 0 -72.5 -24t-27.5 -66t27.5 -66t72.5 -24h140z" />
    <glyph glyph-name="uni0450" unicode="&#x450;" horiz-adv-x="560" 
d="M285 -10q-53 0 -97 17.5t-75.5 52t-49.5 84.5t-18 116t17.5 116t49 84.5t74.5 52t94 17.5q60 0 104 -22.5t73.5 -58t43.5 -78t14 -81.5q0 -11 -1 -20t-2 -16q-1 -8 -2 -14h-390q4 -90 50.5 -135t114.5 -45q90 0 135 75h80q-26 -72 -83 -108.5t-132 -36.5zM440 305
q-8 75 -52 115t-108 40t-108 -40t-52 -115h320zM130 740h95l90 -140h-70z" />
    <glyph glyph-name="uni0451" unicode="&#x451;" horiz-adv-x="560" 
d="M285 -10q-53 0 -97 17.5t-75.5 52t-49.5 84.5t-18 116t17.5 116t49 84.5t74.5 52t94 17.5q60 0 104 -22.5t73.5 -58t43.5 -78t14 -81.5q0 -11 -1 -20t-2 -16q-1 -8 -2 -14h-390q4 -90 50.5 -135t114.5 -45q90 0 135 75h80q-26 -72 -83 -108.5t-132 -36.5zM440 305
q-8 75 -52 115t-108 40t-108 -40t-52 -115h320zM198 620q-22 0 -37.5 15t-15.5 37t15 37.5t38 15.5q22 0 37 -15.5t15 -37.5q0 -21 -15 -36.5t-37 -15.5zM378 620q-22 0 -37.5 15t-15.5 37t15 37.5t38 15.5q22 0 37 -15.5t15 -37.5q0 -21 -15 -36.5t-37 -15.5z" />
    <glyph glyph-name="uni0452" unicode="&#x452;" horiz-adv-x="565" 
d="M280 -130h65q80 0 80 80v300q0 68 -36.5 104t-93.5 36q-30 0 -55.5 -11.5t-44.5 -30.5t-29.5 -44.5t-10.5 -53.5v-250h-75v550h-80v70h80v80h75v-80h145v-70h-145v-165h5q26 42 63 58.5t82 16.5q39 0 74.5 -14t62.5 -40.5t42.5 -65.5t15.5 -90v-300q0 -72 -39 -111
t-111 -39h-70v70z" />
    <glyph glyph-name="uni0453" unicode="&#x453;" horiz-adv-x="420" 
d="M70 520h330v-70h-255v-450h-75v520zM290 740h95l-115 -140h-70z" />
    <glyph glyph-name="uni0454" unicode="&#x454;" horiz-adv-x="535" 
d="M285 -10q-53 0 -97 17.5t-75.5 52t-49.5 84.5t-18 116t18 116t49.5 84.5t75.5 52t97 17.5q75 0 132 -36.5t83 -108.5h-80q-45 75 -135 75q-32 0 -60 -10.5t-49.5 -31.5t-35.5 -52t-18 -71h203v-70h-203q4 -40 18 -71t35.5 -52t49.5 -31.5t60 -10.5q90 0 135 75h80
q-26 -72 -83 -108.5t-132 -36.5z" />
    <glyph glyph-name="uni0455" unicode="&#x455;" horiz-adv-x="470" 
d="M235 -10q-79 0 -132 40.5t-68 104.5h80q11 -38 44.5 -56.5t75.5 -18.5q64 0 94.5 23t30.5 57q0 32 -23 48.5t-57.5 26t-74.5 18t-74.5 24.5t-57.5 45.5t-23 82.5q0 28 12.5 54t36.5 46.5t58.5 32.5t77.5 12q34 0 65 -8.5t56.5 -25t43 -40.5t25.5 -56h-80q-11 26 -38 43
t-72 17q-57 0 -83.5 -20.5t-26.5 -54.5t23 -51.5t57.5 -28t74.5 -19t74.5 -24.5t57.5 -44t23 -78q0 -30 -13.5 -57t-39.5 -48t-63 -33t-84 -12z" />
    <glyph glyph-name="uni0456" unicode="&#x456;" horiz-adv-x="215" 
d="M70 520h75v-520h-75v520zM108 595q-22 0 -37.5 15t-15.5 37t15 37.5t38 15.5q22 0 37 -15.5t15 -37.5q0 -21 -15 -36.5t-37 -15.5z" />
    <glyph glyph-name="uni0457" unicode="&#x457;" horiz-adv-x="215" 
d="M70 520h75v-520h-75v520zM18 620q-22 0 -37.5 15t-15.5 37t15 37.5t38 15.5q22 0 37 -15.5t15 -37.5q0 -21 -15 -36.5t-37 -15.5zM198 620q-22 0 -37.5 15t-15.5 37t15 37.5t38 15.5q22 0 37 -15.5t15 -37.5q0 -21 -15 -36.5t-37 -15.5z" />
    <glyph glyph-name="uni0458" unicode="&#x458;" horiz-adv-x="215" 
d="M-65 -130h75q26 0 43 17t17 43v590h75v-590q0 -57 -36.5 -93.5t-93.5 -36.5h-80v70zM108 595q-22 0 -37.5 15t-15.5 37t15 37.5t38 15.5q22 0 37 -15.5t15 -37.5q0 -21 -15 -36.5t-37 -15.5z" />
    <glyph glyph-name="uni0459" unicode="&#x459;" horiz-adv-x="800" 
d="M10 70h10q24 0 40.5 11.5t26.5 39t14 74t4 115.5v210h355v-190h135q37 0 68.5 -12.5t54 -34.5t35 -52t12.5 -66t-12.5 -66t-35 -52t-54 -34.5t-68.5 -12.5h-210v450h-205v-140q0 -83 -7.5 -142.5t-25.5 -97.5t-49 -56.5t-78 -18.5h-10v75zM590 70q45 0 72.5 26.5
t27.5 68.5t-27.5 68.5t-72.5 26.5h-130v-190h130z" />
    <glyph glyph-name="uni045A" unicode="&#x45a;" horiz-adv-x="820" 
d="M70 520h75v-210h260v210h75v-210h140q37 0 67.5 -11.5t52.5 -32t33.5 -49t11.5 -62.5t-11.5 -62.5t-33.5 -49t-52.5 -32t-67.5 -11.5h-215v240h-260v-240h-75v520zM615 70q45 0 70 23.5t25 61.5t-25 61.5t-70 23.5h-135v-170h135z" />
    <glyph glyph-name="uni045B" unicode="&#x45b;" horiz-adv-x="565" 
d="M80 550h-80v70h80v80h75v-80h145v-70h-145v-165h5q26 42 63 58.5t82 16.5q39 0 74.5 -14t62.5 -40.5t42.5 -65.5t15.5 -90v-250h-75v250q0 68 -36.5 104t-93.5 36q-30 0 -55.5 -11.5t-44.5 -30.5t-29.5 -44.5t-10.5 -53.5v-250h-75v550z" />
    <glyph glyph-name="uni045C" unicode="&#x45c;" horiz-adv-x="490" 
d="M70 520h75v-245l245 245h95l-255 -255l270 -265h-95l-260 255v-255h-75v520zM320 740h95l-115 -140h-70z" />
    <glyph glyph-name="uni045D" unicode="&#x45d;" horiz-adv-x="570" 
d="M70 520h75v-426h5l250 426h100v-520h-75v426h-5l-250 -426h-100v520zM135 740h95l90 -140h-70z" />
    <glyph glyph-name="uni045E" unicode="&#x45e;" horiz-adv-x="510" 
d="M220 0l-215 520h80l170 -415h5l165 415h80l-285 -720h-80zM255 605q-53 0 -92.5 29t-47.5 101h70q8 -70 70 -70t70 70h70q-8 -72 -47.5 -101t-92.5 -29z" />
    <glyph glyph-name="uni045F" unicode="&#x45f;" horiz-adv-x="555" 
d="M240 0h-170v520h75v-450h265v450h75v-520h-175v-120h-70v120z" />
    <glyph glyph-name="uni0490" unicode="&#x490;" horiz-adv-x="505" 
d="M85 700h315v140h85v-215h-315v-625h-85v700z" />
    <glyph glyph-name="uni0491" unicode="&#x491;" horiz-adv-x="420" 
d="M70 520h255v120h75v-190h-255v-450h-75v520z" />
    <glyph glyph-name="uni0492" unicode="&#x492;" horiz-adv-x="560" 
d="M110 305h-90v75h90v320h430v-75h-345v-245h200v-75h-200v-305h-85v305z" />
    <glyph glyph-name="uni0493" unicode="&#x493;" horiz-adv-x="425" 
d="M85 220h-75v70h75v230h320v-70h-245v-160h175v-70h-175v-220h-75v220z" />
    <glyph glyph-name="uni0494" unicode="&#x494;" horiz-adv-x="610" 
d="M320 -45q83 0 129 47t46 138q0 87 -45.5 133.5t-124.5 46.5q-38 0 -66.5 -7.5t-48.5 -15.5q-23 -10 -40 -22v-275h-85v700h430v-75h-345v-270q4 2 15 8.5t30.5 13.5t46.5 12.5t63 5.5q121 0 188 -67t67 -188q0 -58 -16.5 -106t-49.5 -82t-81.5 -53t-112.5 -19v75z" />
    <glyph glyph-name="uni0495" unicode="&#x495;" horiz-adv-x="495" 
d="M265 -130q26 0 49.5 9.5t41.5 30.5t28.5 53t10.5 77q0 83 -36 126.5t-104 43.5q-25 0 -45 -5.5t-34 -12.5q-17 -8 -31 -17v-175h-75v520h320v-70h-245v-200q12 8 29 15q14 5 35.5 10t50.5 5q47 0 85.5 -15.5t66.5 -46t43 -75.5t15 -103q0 -60 -16 -105t-43.5 -75t-65 -45
t-80.5 -15v70z" />
    <glyph glyph-name="uni0496" unicode="&#x496;" horiz-adv-x="860" 
d="M795 0h-30l-295 345v-345h-85v345l-295 -345h-100l305 355l-290 345h100l280 -335v335h85v-335l280 335h100l-290 -345l240 -280h70v-220h-75v145z" />
    <glyph glyph-name="uni0497" unicode="&#x497;" horiz-adv-x="710" 
d="M650 0h-30l-230 255v-255h-75v255l-230 -255h-95l240 265l-225 255h95l215 -245v245h75v-245l215 245h95l-225 -255l176 -195h69v-190h-70v120z" />
    <glyph glyph-name="uni049A" unicode="&#x49a;" horiz-adv-x="590" 
d="M525 0h-30l-325 345v-345h-85v700h85v-335l310 335h100l-320 -345l264 -280h76v-220h-75v145z" />
    <glyph glyph-name="uni049B" unicode="&#x49b;" horiz-adv-x="495" 
d="M435 0h-30l-260 255v-255h-75v520h75v-245l245 245h95l-255 -255l198 -195h77v-190h-70v120z" />
    <glyph glyph-name="uni049C" unicode="&#x49c;" horiz-adv-x="620" 
d="M85 700h85v-310h40v120h75v-120h22l208 310h100l-235 -345l250 -355h-100l-219 315h-26v-120h-75v120h-40v-315h-85v700z" />
    <glyph glyph-name="uni049D" unicode="&#x49d;" horiz-adv-x="510" 
d="M70 520h75v-220h35v90h65v-90h25l140 220h90l-165 -255l175 -265h-90l-150 230h-25v-90h-65v90h-35v-230h-75v520z" />
    <glyph glyph-name="uni04A2" unicode="&#x4a2;" horiz-adv-x="740" 
d="M635 0h-95v315h-370v-315h-85v700h85v-310h370v310h85v-625h85v-220h-75v145z" />
    <glyph glyph-name="uni04A3" unicode="&#x4a3;" horiz-adv-x="580" 
d="M490 0h-75v225h-270v-225h-75v520h75v-225h270v225h75v-450h70v-190h-70v120z" />
    <glyph glyph-name="uni04AA" unicode="&#x4aa;" horiz-adv-x="690" 
d="M325 -8q-62 6 -112.5 32.5t-86.5 71.5t-56 108.5t-20 145.5q0 88 23 155.5t65 113t100 68.5t127 23q102 0 174.5 -48.5t110.5 -146.5h-90q-30 64 -78.5 92t-116.5 28q-51 0 -93 -18.5t-72.5 -54.5t-47.5 -89.5t-17 -122.5t17 -122.5t47.5 -89.5t72.5 -54.5t93 -18.5
q68 0 116.5 28t78.5 92h90q-34 -87 -94.5 -134.5t-145.5 -58.5v-132h-85v132z" />
    <glyph glyph-name="uni04AB" unicode="&#x4ab;" horiz-adv-x="535" 
d="M250 -8q-46 6 -83.5 26.5t-64.5 54.5t-42 81t-15 106q0 64 18 114t49.5 84.5t75.5 53t97 18.5q75 0 132 -36.5t83 -108.5h-80q-45 75 -135 75q-36 0 -66 -13t-52 -38.5t-34.5 -62.5t-12.5 -86t12.5 -86t34.5 -62.5t52 -38.5t66 -13q90 0 135 75h80q-23 -62 -68.5 -97.5
t-106.5 -44.5v-113h-75v112z" />
    <glyph glyph-name="uni04AE" unicode="&#x4ae;" horiz-adv-x="585" 
d="M250 270l-245 430h90l195 -350h5l195 350h90l-245 -430v-270h-85v270z" />
    <glyph glyph-name="uni04AF" unicode="&#x4af;" horiz-adv-x="495" 
d="M210 0h-15l-190 520h80l160 -435h5l160 435h80l-190 -520h-15v-200h-75v200z" />
    <glyph glyph-name="uni04B0" unicode="&#x4b0;" horiz-adv-x="585" 
d="M250 265h-150v75h110l-205 360h90l195 -350h5l195 350h90l-205 -360h110v-75h-150v-265h-85v265z" />
    <glyph glyph-name="uni04B1" unicode="&#x4b1;" horiz-adv-x="495" 
d="M210 0h-110v70h69l-164 450h80l160 -435h5l160 435h80l-165 -450h70v-70h-110v-200h-75v200z" />
    <glyph glyph-name="uni04B2" unicode="&#x4b2;" horiz-adv-x="600" 
d="M525 0h-35l-195 295l-195 -295h-95l240 360l-230 340h95l185 -275l185 275h95l-230 -340l190 -285h65v-220h-75v145z" />
    <glyph glyph-name="uni04B3" unicode="&#x4b3;" horiz-adv-x="475" 
d="M405 0h-30l-145 215l-145 -215h-85l185 270l-175 250h85l135 -195l135 195h85l-175 -250l137 -200h63v-190h-70v120z" />
    <glyph glyph-name="uni04B6" unicode="&#x4b6;" horiz-adv-x="700" 
d="M595 0h-95v270q-38 -19 -77.5 -27t-92.5 -8q-125 0 -190 63.5t-65 176.5v225h85v-225q0 -79 43.5 -122t126.5 -43q52 0 90.5 8t79.5 27v355h85v-625h85v-220h-75v145z" />
    <glyph glyph-name="uni04B7" unicode="&#x4b7;" horiz-adv-x="545" 
d="M455 0h-75v195q-26 -11 -56.5 -18t-68.5 -7q-94 0 -144.5 48.5t-50.5 131.5v170h75v-170q0 -53 30 -81.5t90 -28.5q38 0 66.5 5t58.5 20v255h75v-450h70v-190h-70v120z" />
    <glyph glyph-name="uni04B8" unicode="&#x4b8;" horiz-adv-x="670" 
d="M500 270q-32 -16 -61.5 -24t-68.5 -10v-101h-80v102q-106 10 -160.5 72t-54.5 166v225h85v-225q0 -69 33 -110.5t97 -51.5v137h80v-139q38 3 66.5 10.5t63.5 23.5v355h85v-700h-85v270z" />
    <glyph glyph-name="uni04B9" unicode="&#x4b9;" horiz-adv-x="525" 
d="M380 195q-39 -17 -85 -23v-77h-65v76q-82 7 -126 54t-44 125v170h75v-170q0 -97 95 -109v84h65v-84q23 2 43 7.5t42 16.5v255h75v-520h-75v195z" />
    <glyph glyph-name="uni04BA" unicode="&#x4ba;" horiz-adv-x="665" 
d="M85 700h85v-270q38 19 77.5 27t92.5 8q125 0 190 -63.5t65 -176.5v-225h-85v225q0 79 -43.5 122t-126.5 43q-26 0 -48 -2t-42.5 -6t-39.5 -11t-40 -16v-355h-85v700z" />
    <glyph glyph-name="uni04BB" unicode="&#x4bb;" horiz-adv-x="560" 
d="M75 700h75v-245h5q26 42 63 58.5t82 16.5q39 0 74.5 -14t62.5 -40.5t42.5 -65.5t15.5 -90v-320h-75v320q0 68 -36.5 104t-93.5 36q-30 0 -55.5 -11.5t-44.5 -30.5t-29.5 -44.5t-10.5 -53.5v-320h-75v700z" />
    <glyph glyph-name="uni04C1" unicode="&#x4c1;" horiz-adv-x="855" 
d="M295 355l-290 345h100l280 -335v335h85v-335l280 335h100l-290 -345l305 -355h-100l-295 345v-345h-85v345l-295 -345h-100zM430 775q-28 0 -53.5 7t-46 22.5t-33.5 40t-17 60.5h70q4 -38 27 -54t53 -16t53 16t27 54h70q-4 -36 -17 -60.5t-33.5 -40t-46 -22.5t-53.5 -7z
" />
    <glyph glyph-name="uni04C2" unicode="&#x4c2;" horiz-adv-x="725" 
d="M230 265l-225 255h95l215 -245v245h75v-245l215 245h95l-225 -255l240 -265h-95l-230 255v-255h-75v255l-230 -255h-95zM355 605q-53 0 -92.5 29t-47.5 101h70q8 -70 70 -70t70 70h70q-8 -72 -47.5 -101t-92.5 -29z" />
    <glyph glyph-name="uni04D2" unicode="&#x4d2;" horiz-adv-x="625" 
d="M265 700h95l265 -700h-85l-65 175h-325l-65 -175h-85zM445 250l-130 355h-5l-130 -355h265zM223 790q-22 0 -37.5 15t-15.5 37t15 37.5t38 15.5q22 0 37 -15.5t15 -37.5q0 -21 -15 -36.5t-37 -15.5zM403 790q-22 0 -37.5 15t-15.5 37t15 37.5t38 15.5q22 0 37 -15.5
t15 -37.5q0 -21 -15 -36.5t-37 -15.5z" />
    <glyph glyph-name="uni04D3" unicode="&#x4d3;" horiz-adv-x="520" 
d="M220 -10q-41 0 -74.5 12.5t-57 34t-36 50.5t-12.5 63t13 63t37.5 50.5t61 34t83.5 12.5h145v35q0 53 -34 84t-91 31q-49 0 -79 -20.5t-41 -54.5h-80q19 72 72 108.5t128 36.5q47 0 84 -13.5t63 -37.5t39.5 -58t13.5 -76v-345h-60l-10 70h-5q-8 -13 -22.5 -27t-35 -26
t-46.5 -19.5t-56 -7.5zM220 60q37 0 67 11.5t50.5 31t31.5 46t11 56.5v35h-145q-60 0 -90 -24t-30 -66t28 -66t77 -24zM173 620q-22 0 -37.5 15t-15.5 37t15 37.5t38 15.5q22 0 37 -15.5t15 -37.5q0 -21 -15 -36.5t-37 -15.5zM353 620q-22 0 -37.5 15t-15.5 37t15 37.5
t38 15.5q22 0 37 -15.5t15 -37.5q0 -21 -15 -36.5t-37 -15.5z" />
    <glyph glyph-name="uni04D8" unicode="&#x4d8;" horiz-adv-x="725" 
d="M360 -10q-68 0 -124.5 22.5t-98 67t-64.5 111t-23 154.5v35h540q-7 125 -69.5 190t-160.5 65q-68 0 -116.5 -28t-78.5 -92h-90q38 98 110.5 146.5t174.5 48.5q69 0 127 -23t100 -68.5t65 -113t23 -155.5t-23 -155.5t-65 -113t-100 -68.5t-127 -23zM360 65q47 0 86.5 15.5
t69.5 46t49 75.5t25 103h-455q7 -69 28 -115.5t51 -74t67.5 -39t78.5 -11.5z" />
    <glyph glyph-name="uni04D9" unicode="&#x4d9;" horiz-adv-x="560" 
d="M280 -10q-60 0 -104 22.5t-73.5 58t-43.5 78t-14 81.5q0 11 0.5 20t1.5 16q1 8 3 14h390q-2 45 -15.5 78.5t-35.5 56t-51 34t-63 11.5q-90 0 -135 -75h-80q26 72 83 108.5t132 36.5q52 0 96.5 -17.5t76 -52t49.5 -84.5t18 -116t-17.5 -116t-49 -84.5t-74.5 -52t-94 -17.5
zM280 60q64 0 108 40t52 115h-320q8 -75 52 -115t108 -40z" />
    <glyph glyph-name="uni04E0" unicode="&#x4e0;" horiz-adv-x="595" 
d="M285 -10q-49 0 -92 13t-76 37.5t-54.5 61t-27.5 83.5h85q4 -26 18 -48t36 -38t50.5 -25t60.5 -9q87 0 128.5 38t41.5 102t-41.5 102t-128.5 38h-130v75l255 205h-355v75h470v-75l-255 -205h15q62 0 109.5 -16t80 -44.5t49 -68t16.5 -86.5t-16.5 -86.5t-49 -68t-80 -44.5
t-109.5 -16z" />
    <glyph glyph-name="uni04E1" unicode="&#x4e1;" horiz-adv-x="490" 
d="M240 -200q-47 0 -85.5 13.5t-67 39t-44.5 61.5t-18 81h75q8 -57 44 -91t96 -34q68 0 104 39t36 111q0 75 -35.5 115t-114.5 40h-105v65l215 210h-295v70h395v-70l-210 -205q56 0 98.5 -16t70.5 -45.5t42 -71t14 -92.5q0 -102 -56.5 -161t-158.5 -59z" />
    <glyph glyph-name="uni04E2" unicode="&#x4e2;" horiz-adv-x="730" 
d="M85 700h85v-603h5l350 603h120v-700h-85v603h-5l-350 -603h-120v700zM225 870h280v-65h-280v65z" />
    <glyph glyph-name="uni04E3" unicode="&#x4e3;" horiz-adv-x="570" 
d="M70 520h75v-426h5l250 426h100v-520h-75v426h-5l-250 -426h-100v520zM145 700h280v-65h-280v65z" />
    <glyph glyph-name="uni04E6" unicode="&#x4e6;" horiz-adv-x="730" 
d="M365 -10q-69 0 -127 23t-100 68.5t-65 113t-23 155.5t23 155.5t65 113t100 68.5t127 23t127 -23t100 -68.5t65 -113t23 -155.5t-23 -155.5t-65 -113t-100 -68.5t-127 -23zM365 65q51 0 93 18.5t72.5 54.5t47.5 89.5t17 122.5t-17 122.5t-47.5 89.5t-72.5 54.5t-93 18.5
t-93 -18.5t-72.5 -54.5t-47.5 -89.5t-17 -122.5t17 -122.5t47.5 -89.5t72.5 -54.5t93 -18.5zM278 790q-22 0 -37.5 15t-15.5 37t15 37.5t38 15.5q22 0 37 -15.5t15 -37.5q0 -21 -15 -36.5t-37 -15.5zM458 790q-22 0 -37.5 15t-15.5 37t15 37.5t38 15.5q22 0 37 -15.5
t15 -37.5q0 -21 -15 -36.5t-37 -15.5z" />
    <glyph glyph-name="uni04E7" unicode="&#x4e7;" horiz-adv-x="570" 
d="M285 -10q-53 0 -97 17.5t-75.5 52t-49.5 84.5t-18 116t18 116t49.5 84.5t75.5 52t97 17.5q52 0 96.5 -17.5t76 -52t49.5 -84.5t18 -116t-18 -116t-49.5 -84.5t-76 -52t-96.5 -17.5zM285 60q36 0 66 13t52 38.5t34.5 62.5t12.5 86t-12.5 86t-34.5 62.5t-52 38.5t-66 13
t-66 -13t-52 -38.5t-34.5 -62.5t-12.5 -86t12.5 -86t34.5 -62.5t52 -38.5t66 -13zM198 620q-22 0 -37.5 15t-15.5 37t15 37.5t38 15.5q22 0 37 -15.5t15 -37.5q0 -21 -15 -36.5t-37 -15.5zM378 620q-22 0 -37.5 15t-15.5 37t15 37.5t38 15.5q22 0 37 -15.5t15 -37.5
q0 -21 -15 -36.5t-37 -15.5z" />
    <glyph glyph-name="uni04E8" unicode="&#x4e8;" horiz-adv-x="730" 
d="M365 -10q-69 0 -127 23t-100 68.5t-65 113t-23 155.5t23 155.5t65 113t100 68.5t127 23t127 -23t100 -68.5t65 -113t23 -155.5t-23 -155.5t-65 -113t-100 -68.5t-127 -23zM365 65q47 0 87 16.5t70.5 48.5t49 78.5t21.5 106.5h-456q3 -60 21.5 -106.5t49 -78.5t70.5 -48.5
t87 -16.5zM593 385q-3 60 -21.5 106.5t-49 78.5t-70.5 48.5t-87 16.5t-87 -16.5t-70.5 -48.5t-49 -78.5t-21.5 -106.5h456z" />
    <glyph glyph-name="uni04E9" unicode="&#x4e9;" horiz-adv-x="570" 
d="M285 -10q-53 0 -97 18.5t-75.5 53t-49.5 84.5t-18 114t18 114t49.5 84.5t75.5 53t97 18.5q52 0 96.5 -18.5t76 -53t49.5 -84.5t18 -114t-18 -114t-49.5 -84.5t-76 -53t-96.5 -18.5zM285 60q65 0 109.5 42t53.5 123h-326q4 -41 18 -71.5t35.5 -51.5t49.5 -31.5t60 -10.5z
M448 295q-9 81 -53.5 123t-109.5 42q-32 0 -60 -10.5t-49.5 -31.5t-35.5 -52t-18 -71h326z" />
    <glyph glyph-name="uni04EE" unicode="&#x4ee;" horiz-adv-x="575" 
d="M250 205l-240 495h90l190 -395h5l180 395h90l-320 -700h-90zM150 870h280v-65h-280v65z" />
    <glyph glyph-name="uni04EF" unicode="&#x4ef;" horiz-adv-x="510" 
d="M220 0l-215 520h80l170 -415h5l165 415h80l-285 -720h-80zM115 700h280v-65h-280v65z" />
    <glyph glyph-name="uni04F0" unicode="&#x4f0;" horiz-adv-x="575" 
d="M250 205l-240 495h90l190 -395h5l180 395h90l-320 -700h-90zM198 790q-22 0 -37.5 15t-15.5 37t15 37.5t38 15.5q22 0 37 -15.5t15 -37.5q0 -21 -15 -36.5t-37 -15.5zM378 790q-22 0 -37.5 15t-15.5 37t15 37.5t38 15.5q22 0 37 -15.5t15 -37.5q0 -21 -15 -36.5
t-37 -15.5z" />
    <glyph glyph-name="uni04F1" unicode="&#x4f1;" horiz-adv-x="510" 
d="M220 0l-215 520h80l170 -415h5l165 415h80l-285 -720h-80zM168 620q-22 0 -37.5 15t-15.5 37t15 37.5t38 15.5q22 0 37 -15.5t15 -37.5q0 -21 -15 -36.5t-37 -15.5zM348 620q-22 0 -37.5 15t-15.5 37t15 37.5t38 15.5q22 0 37 -15.5t15 -37.5q0 -21 -15 -36.5t-37 -15.5z
" />
    <glyph glyph-name="Wgrave" unicode="&#x1e80;" horiz-adv-x="915" 
d="M15 700h90l145 -605h5l145 605h115l145 -605h5l145 605h90l-175 -700h-125l-140 595h-5l-140 -595h-125zM305 910h95l90 -140h-70z" />
    <glyph glyph-name="wgrave" unicode="&#x1e81;" horiz-adv-x="725" 
d="M10 520h75l115 -420h5l115 420h85l115 -420h5l115 420h75l-145 -520h-95l-110 405h-5l-110 -405h-95zM210 740h95l90 -140h-70z" />
    <glyph glyph-name="Wacute" unicode="&#x1e82;" horiz-adv-x="915" 
d="M15 700h90l145 -605h5l145 605h115l145 -605h5l145 605h90l-175 -700h-125l-140 595h-5l-140 -595h-125zM515 910h95l-115 -140h-70z" />
    <glyph glyph-name="wacute" unicode="&#x1e83;" horiz-adv-x="725" 
d="M10 520h75l115 -420h5l115 420h85l115 -420h5l115 420h75l-145 -520h-95l-110 405h-5l-110 -405h-95zM420 740h95l-115 -140h-70z" />
    <glyph glyph-name="Wdieresis" unicode="&#x1e84;" horiz-adv-x="915" 
d="M15 700h90l145 -605h5l145 605h115l145 -605h5l145 605h90l-175 -700h-125l-140 595h-5l-140 -595h-125zM368 790q-22 0 -37.5 15t-15.5 37t15 37.5t38 15.5q22 0 37 -15.5t15 -37.5q0 -21 -15 -36.5t-37 -15.5zM548 790q-22 0 -37.5 15t-15.5 37t15 37.5t38 15.5
q22 0 37 -15.5t15 -37.5q0 -21 -15 -36.5t-37 -15.5z" />
    <glyph glyph-name="wdieresis" unicode="&#x1e85;" horiz-adv-x="725" 
d="M10 520h75l115 -420h5l115 420h85l115 -420h5l115 420h75l-145 -520h-95l-110 405h-5l-110 -405h-95zM273 620q-22 0 -37.5 15t-15.5 37t15 37.5t38 15.5q22 0 37 -15.5t15 -37.5q0 -21 -15 -36.5t-37 -15.5zM453 620q-22 0 -37.5 15t-15.5 37t15 37.5t38 15.5
q22 0 37 -15.5t15 -37.5q0 -21 -15 -36.5t-37 -15.5z" />
    <glyph glyph-name="uni1E9E" unicode="&#x1e9e;" horiz-adv-x="670" 
d="M80 490q0 98 55.5 154t149.5 56h310v-70l-190 -215v-5q51 0 91.5 -14.5t69 -41t44 -64.5t15.5 -85q0 -43 -14 -80.5t-42 -65t-69 -43.5t-95 -16h-105v75h95q75 0 110 35t35 95t-35 95t-110 35h-85v85l180 205h-205q-53 0 -86.5 -35.5t-33.5 -99.5v-490h-85v490z" />
    <glyph glyph-name="Ygrave" unicode="&#x1ef2;" horiz-adv-x="585" 
d="M250 270l-245 430h90l195 -350h5l195 350h90l-245 -430v-270h-85v270zM140 910h95l90 -140h-70z" />
    <glyph glyph-name="ygrave" unicode="&#x1ef3;" horiz-adv-x="510" 
d="M220 0l-215 520h80l170 -415h5l165 415h80l-285 -720h-80zM105 740h95l90 -140h-70z" />
    <glyph glyph-name="endash" unicode="&#x2013;" horiz-adv-x="520" 
d="M30 315h460v-70h-460v70z" />
    <glyph glyph-name="emdash" unicode="&#x2014;" horiz-adv-x="750" 
d="M30 315h690v-70h-690v70z" />
    <glyph glyph-name="quoteleft" unicode="&#x2018;" horiz-adv-x="210" 
d="M115 700h60l-40 -200h-80z" />
    <glyph glyph-name="quoteright" unicode="&#x2019;" horiz-adv-x="210" 
d="M95 700h80l-60 -200h-60z" />
    <glyph glyph-name="quotesinglbase" unicode="&#x201a;" horiz-adv-x="210" 
d="M75 100h80l-60 -200h-60z" />
    <glyph glyph-name="quotedblleft" unicode="&#x201c;" horiz-adv-x="355" 
d="M115 700h60l-40 -200h-80zM260 700h60l-40 -200h-80z" />
    <glyph glyph-name="quotedblright" unicode="&#x201d;" horiz-adv-x="355" 
d="M95 700h80l-60 -200h-60zM240 700h80l-60 -200h-60z" />
    <glyph glyph-name="quotedblbase" unicode="&#x201e;" horiz-adv-x="355" 
d="M75 100h80l-60 -200h-60zM220 100h80l-60 -200h-60z" />
    <glyph glyph-name="dagger" unicode="&#x2020;" horiz-adv-x="470" 
d="M195 455h-135v75h135v170h80v-170h135v-75h-135v-455h-80v455z" />
    <glyph glyph-name="daggerdbl" unicode="&#x2021;" horiz-adv-x="470" 
d="M195 170h-135v75h135v210h-135v75h135v170h80v-170h135v-75h-135v-210h135v-75h-135v-170h-80v170z" />
    <glyph glyph-name="bullet" unicode="&#x2022;" horiz-adv-x="420" 
d="M210 190q-38 0 -64 26t-26 64t26 64t64 26t64 -26t26 -64t-26 -64t-64 -26z" />
    <glyph glyph-name="ellipsis" unicode="&#x2026;" horiz-adv-x="680" 
d="M110 -5q-23 0 -39 16t-16 39t16 39t39 16t39 -16t16 -39t-16 -39t-39 -16zM340 -5q-23 0 -39 16t-16 39t16 39t39 16t39 -16t16 -39t-16 -39t-39 -16zM570 -5q-23 0 -39 16t-16 39t16 39t39 16t39 -16t16 -39t-16 -39t-39 -16z" />
    <glyph glyph-name="perthousand" unicode="&#x2030;" horiz-adv-x="1115" 
d="M545 700h90l-435 -700h-90zM555 -10q-34 0 -62.5 11t-49 31.5t-32 50t-11.5 67.5q0 37 11.5 67t32 50.5t49 31.5t62.5 11t62.5 -11t49 -31.5t32 -50.5t11.5 -67q0 -38 -11.5 -67.5t-32 -50t-49 -31.5t-62.5 -11zM555 55q38 0 61.5 25t23.5 70t-23.5 70t-61.5 25
t-61.5 -25t-23.5 -70t23.5 -70t61.5 -25zM925 -10q-34 0 -62.5 11t-49 31.5t-32 50t-11.5 67.5q0 37 11.5 67t32 50.5t49 31.5t62.5 11t62.5 -11t49 -31.5t32 -50.5t11.5 -67q0 -38 -11.5 -67.5t-32 -50t-49 -31.5t-62.5 -11zM925 55q38 0 61.5 25t23.5 70t-23.5 70
t-61.5 25t-61.5 -25t-23.5 -70t23.5 -70t61.5 -25zM190 390q-34 0 -62.5 11t-49 31.5t-32 50t-11.5 67.5q0 37 11.5 67t32 50.5t49 31.5t62.5 11t62.5 -11t49 -31.5t32 -50.5t11.5 -67q0 -38 -11.5 -67.5t-32 -50t-49 -31.5t-62.5 -11zM190 455q38 0 61.5 25t23.5 70
t-23.5 70t-61.5 25t-61.5 -25t-23.5 -70t23.5 -70t61.5 -25z" />
    <glyph glyph-name="guilsinglleft" unicode="&#x2039;" horiz-adv-x="385" 
d="M40 265l210 235h105l-210 -232v-6l210 -232h-105z" />
    <glyph glyph-name="guilsinglright" unicode="&#x203a;" horiz-adv-x="385" 
d="M240 262v6l-210 232h105l210 -235l-210 -235h-105z" />
    <glyph glyph-name="fraction" unicode="&#x2044;" horiz-adv-x="125" 
d="M240 700h80l-435 -700h-80z" />
    <glyph glyph-name="uni2070" unicode="&#x2070;" horiz-adv-x="385" 
d="M193 395q-74 0 -113.5 55.5t-39.5 149.5t39.5 149.5t113.5 55.5q73 0 112.5 -55.5t39.5 -149.5t-39.5 -149.5t-112.5 -55.5zM193 460q39 0 60.5 36t21.5 104t-21.5 104t-60.5 36q-40 0 -61.5 -36t-21.5 -104t21.5 -104t61.5 -36z" />
    <glyph glyph-name="uni2074" unicode="&#x2074;" horiz-adv-x="335" 
d="M200 490h-185v65l160 245h95v-245h55v-65h-55v-90h-70v90zM200 555v165h-5l-105 -165h110z" />
    <glyph glyph-name="uni2075" unicode="&#x2075;" horiz-adv-x="335" 
d="M165 395q-53 0 -92.5 30.5t-47.5 79.5h70q8 -19 24 -32t46 -13t50 20.5t20 54.5q0 38 -20.5 56.5t-54.5 18.5q-23 0 -37.5 -9.5t-22.5 -20.5h-65l25 220h225v-65h-170l-10 -85h5q6 6 15 10q8 4 19 7t26 3q28 0 52.5 -9t43 -26.5t29 -42.5t10.5 -57t-10.5 -58t-29.5 -44
t-44.5 -28t-55.5 -10z" />
    <glyph glyph-name="uni2076" unicode="&#x2076;" horiz-adv-x="350" 
d="M175 395q-34 0 -61 11.5t-45.5 30.5t-28.5 44.5t-10 53.5q0 38 10.5 67.5t24.5 52.5l95 145h78l-99 -145h5l10 5q5 2 12.5 3.5t18.5 1.5q28 0 52.5 -10t43 -27.5t29 -42.5t10.5 -55t-11.5 -55t-31 -42.5t-46 -27.5t-56.5 -10zM175 460q38 0 56.5 22.5t18.5 52.5
t-18.5 52.5t-56.5 22.5t-56.5 -22.5t-18.5 -52.5t18.5 -52.5t56.5 -22.5z" />
    <glyph glyph-name="uni2077" unicode="&#x2077;" horiz-adv-x="300" 
d="M205 735h-175v65h250v-65l-148 -335h-75z" />
    <glyph glyph-name="uni2078" unicode="&#x2078;" horiz-adv-x="350" 
d="M175 395q-64 0 -102 33.5t-38 86.5q0 26 13 53t47 42q-23 15 -36.5 35t-13.5 50q0 45 35 77.5t95 32.5t95 -32.5t35 -77.5q0 -30 -13.5 -50t-36.5 -35q34 -15 47 -42t13 -53q0 -53 -38 -86.5t-102 -33.5zM175 460q34 0 52 17t18 43t-18 43t-52 17t-52 -17t-18 -43t18 -43
t52 -17zM175 640q26 0 43 14.5t17 35.5t-17 35.5t-43 14.5t-43 -14.5t-17 -35.5t17 -35.5t43 -14.5z" />
    <glyph glyph-name="uni2079" unicode="&#x2079;" horiz-adv-x="350" 
d="M211 545h-5q-4 -3 -10 -5q-12 -5 -31 -5q-28 0 -52.5 10t-43 27.5t-29 42.5t-10.5 55t11.5 55t31 42.5t46 27.5t56.5 10q34 0 60.5 -11.5t45.5 -30.5t29 -44.5t10 -53.5q0 -38 -10.5 -67.5t-24.5 -52.5l-95 -145h-78zM175 590q38 0 56.5 22.5t18.5 52.5t-18.5 52.5
t-56.5 22.5t-56.5 -22.5t-18.5 -52.5t18.5 -52.5t56.5 -22.5z" />
    <glyph glyph-name="uni2080" unicode="&#x2080;" horiz-adv-x="385" 
d="M193 -105q-74 0 -113.5 55.5t-39.5 149.5t39.5 149.5t113.5 55.5q73 0 112.5 -55.5t39.5 -149.5t-39.5 -149.5t-112.5 -55.5zM193 -40q39 0 60.5 36t21.5 104t-21.5 104t-60.5 36q-40 0 -61.5 -36t-21.5 -104t21.5 -104t61.5 -36z" />
    <glyph glyph-name="uni2081" unicode="&#x2081;" horiz-adv-x="250" 
d="M115 180h-85v65h60q25 0 25 25v30h70v-400h-70v280z" />
    <glyph glyph-name="uni2082" unicode="&#x2082;" horiz-adv-x="340" 
d="M35 -35l160 150q21 20 28 37.5t7 32.5q0 55 -60 55q-30 0 -45.5 -16t-19.5 -39h-70q4 24 13.5 46t26 38.5t40 26t55.5 9.5t56 -9.5t40.5 -26t25 -38.5t8.5 -46q0 -30 -10.5 -52.5t-31.5 -42.5l-133 -125h170v-65h-260v65z" />
    <glyph glyph-name="uni2083" unicode="&#x2083;" horiz-adv-x="330" 
d="M160 -105q-53 0 -91 28t-49 77h70q8 -19 24 -29.5t46 -10.5q34 0 49.5 18.5t15.5 41.5t-14.5 39t-45.5 16h-45v60h45q30 0 42.5 16t12.5 39q0 19 -15.5 34.5t-49.5 15.5t-47.5 -18t-17.5 -37h-70q4 24 13.5 46t26 38.5t40 26t55.5 9.5q64 0 99.5 -32.5t35.5 -77.5
q0 -34 -16 -56.5t-39 -33.5q34 -15 47 -39.5t13 -50.5q0 -24 -9 -46t-26.5 -38.5t-42.5 -26t-57 -9.5z" />
    <glyph glyph-name="uni2084" unicode="&#x2084;" horiz-adv-x="335" 
d="M200 -10h-185v65l160 245h95v-245h55v-65h-55v-90h-70v90zM200 55v165h-5l-105 -165h110z" />
    <glyph glyph-name="uni2085" unicode="&#x2085;" horiz-adv-x="335" 
d="M165 -105q-53 0 -92.5 30.5t-47.5 79.5h70q8 -19 24 -32t46 -13t50 20.5t20 54.5q0 38 -20.5 56.5t-54.5 18.5q-23 0 -37.5 -9.5t-22.5 -20.5h-65l25 220h225v-65h-170l-10 -85h5q6 6 15 10q8 4 19 7t26 3q28 0 52.5 -9t43 -26.5t29 -42.5t10.5 -57t-10.5 -58t-29.5 -44
t-44.5 -28t-55.5 -10z" />
    <glyph glyph-name="uni2086" unicode="&#x2086;" horiz-adv-x="350" 
d="M175 -105q-34 0 -61 11.5t-45.5 30.5t-28.5 44.5t-10 53.5q0 38 10.5 67.5t24.5 52.5l95 145h78l-99 -145h5l10 5q5 2 12.5 3.5t18.5 1.5q28 0 52.5 -10t43 -27.5t29 -42.5t10.5 -55t-11.5 -55t-31 -42.5t-46 -27.5t-56.5 -10zM175 -40q38 0 56.5 22.5t18.5 52.5
t-18.5 52.5t-56.5 22.5t-56.5 -22.5t-18.5 -52.5t18.5 -52.5t56.5 -22.5z" />
    <glyph glyph-name="uni2087" unicode="&#x2087;" horiz-adv-x="300" 
d="M205 235h-175v65h250v-65l-148 -335h-75z" />
    <glyph glyph-name="uni2088" unicode="&#x2088;" horiz-adv-x="350" 
d="M175 -105q-64 0 -102 33.5t-38 86.5q0 26 13 53t47 42q-23 15 -36.5 35t-13.5 50q0 45 35 77.5t95 32.5t95 -32.5t35 -77.5q0 -30 -13.5 -50t-36.5 -35q34 -15 47 -42t13 -53q0 -53 -38 -86.5t-102 -33.5zM175 -40q34 0 52 17t18 43t-18 43t-52 17t-52 -17t-18 -43
t18 -43t52 -17zM175 140q26 0 43 14.5t17 35.5t-17 35.5t-43 14.5t-43 -14.5t-17 -35.5t17 -35.5t43 -14.5z" />
    <glyph glyph-name="uni2089" unicode="&#x2089;" horiz-adv-x="350" 
d="M211 45h-5q-4 -3 -10 -5q-12 -5 -31 -5q-28 0 -52.5 10t-43 27.5t-29 42.5t-10.5 55t11.5 55t31 42.5t46 27.5t56.5 10q34 0 60.5 -11.5t45.5 -30.5t29 -44.5t10 -53.5q0 -38 -10.5 -67.5t-24.5 -52.5l-95 -145h-78zM175 90q38 0 56.5 22.5t18.5 52.5t-18.5 52.5
t-56.5 22.5t-56.5 -22.5t-18.5 -52.5t18.5 -52.5t56.5 -22.5z" />
    <glyph glyph-name="uni20A9" unicode="&#x20a9;" horiz-adv-x="945" 
d="M159 235h-139v75h124l-21 95h-103v75h87l-47 220h90l42 -220h171l52 220h115l52 -220h171l42 220h90l-47 -220h87v-75h-103l-21 -95h124v-75h-139l-51 -235h-125l-54 235h-167l-54 -235h-125zM275 85l31 150h-66l30 -150h5zM323 310l23 95h-139l18 -95h98zM539 310
l-22 95h-89l-22 -95h133zM675 85l30 150h-66l31 -150h5zM500 480l-25 135h-5l-25 -135h55zM720 310l18 95h-139l23 -95h98z" />
    <glyph glyph-name="Euro" unicode="&#x20ac;" horiz-adv-x="740" 
d="M425 -10q-113 0 -193.5 59.5t-109.5 180.5h-102v75h90v90h-90v75h102q29 121 109.5 180.5t193.5 59.5q102 0 169.5 -44t105.5 -131h-90q-30 49 -73.5 74.5t-111.5 25.5q-83 0 -140 -43t-80 -122h305v-75h-315v-90h315v-75h-305q23 -79 80 -122t140 -43q68 0 111.5 25.5
t73.5 74.5h90q-38 -87 -105.5 -131t-169.5 -44z" />
    <glyph glyph-name="uni20B4" unicode="&#x20b4;" horiz-adv-x="640" 
d="M320 -10q-53 0 -94.5 13.5t-70.5 36t-44.5 51.5t-15.5 59q0 48 26 85h-66v75h530v-75h-375q-13 -13 -21.5 -32t-8.5 -43q0 -38 36 -66.5t104 -28.5q64 0 102 23.5t53 61.5h85q-19 -75 -82.5 -117.5t-157.5 -42.5zM55 465h375q13 13 21.5 32t8.5 43q0 38 -36 66.5
t-104 28.5q-64 0 -102 -23.5t-53 -61.5h-85q19 75 82.5 117.5t157.5 42.5q52 0 94 -14t71 -36.5t44.5 -51t15.5 -58.5q0 -48 -26 -85h66v-75h-530v75z" />
    <glyph glyph-name="uni20B8" unicode="&#x20b8;" horiz-adv-x="595" 
d="M255 470h-225v75h535v-75h-225v-470h-85v470zM30 700h535v-75h-535v75z" />
    <glyph glyph-name="uni20B9" unicode="&#x20b9;" horiz-adv-x="580" 
d="M185 275h-145v75h230q53 0 90 25.5t45 74.5h-365v75h365q-8 49 -45 74.5t-90 25.5h-230v75h510v-75h-115q15 -11 26 -26q10 -13 18.5 -31.5t10.5 -42.5h60v-75h-60q-8 -79 -60.5 -125.5t-139.5 -54.5l200 -270h-100z" />
    <glyph glyph-name="uni20BA" unicode="&#x20ba;" horiz-adv-x="575" 
d="M115 271l-85 -31v75l85 31v80l-85 -31v75l85 31v199h85v-167l155 58v-75l-155 -58v-80l155 58v-75l-155 -58v-228q73 0 123.5 9t82.5 28.5t47 51t17 76.5h75q-2 -64 -20 -109.5t-58.5 -74.5t-105.5 -42.5t-161 -13.5h-85v271z" />
    <glyph glyph-name="uni20BD" unicode="&#x20bd;" horiz-adv-x="645" 
d="M115 135h-90v75h90v80h-90v75h90v335h260q52 0 93 -15t69.5 -42.5t43 -65t14.5 -82.5t-14.5 -82.5t-43 -65t-69.5 -42.5t-93 -15h-175v-80h215v-75h-215v-135h-85v135zM370 365q68 0 104 35t36 95t-36 95t-104 35h-170v-260h170z" />
    <glyph glyph-name="uni20BF" unicode="&#x20bf;" horiz-adv-x="650" 
d="M175 0h-90v700h90v110h85v-110h85v110h85v-114q75 -13 115 -63t40 -128q0 -53 -23 -90t-57 -60q38 -23 64 -63t26 -97q0 -81 -43 -132t-122 -60v-113h-85v110h-85v-110h-85v110zM385 75q57 0 91 31.5t34 88.5t-34 88.5t-91 31.5h-215v-240h215zM375 385q57 0 91 31.5
t34 88.5t-34 88.5t-91 31.5h-205v-240h205z" />
    <glyph glyph-name="uni2113" unicode="&#x2113;" horiz-adv-x="410" 
d="M245 -10q-72 0 -106 35.5t-34 99.5v100q-12 -4 -26 -8q-12 -3 -28.5 -5t-35.5 -2v75q19 0 35.5 3t28.5 7q14 4 26 10v270q0 64 35 99.5t95 35.5q64 0 99.5 -41.5t35.5 -113.5q0 -58 -14 -105.5t-39 -85t-59 -65.5t-73 -49v-125q0 -60 70 -60q25 0 43 5q10 2 17 5v-75
q-7 -3 -18 -5q-20 -5 -52 -5zM185 340q49 30 77 84t28 126q0 85 -55 85q-23 0 -36.5 -15.5t-13.5 -49.5v-230z" />
    <glyph glyph-name="uni2116" unicode="&#x2116;" horiz-adv-x="1090" 
d="M85 700h120l350 -595h5v595h85v-700h-120l-350 595h-5v-595h-85v700zM740 75h290v-75h-290v75zM885 140q-34 0 -62.5 11t-49 31.5t-32 50t-11.5 67.5q0 37 11.5 67t32 50.5t49 31.5t62.5 11t62.5 -11t49 -31.5t32 -50.5t11.5 -67q0 -38 -11.5 -67.5t-32 -50t-49 -31.5
t-62.5 -11zM885 205q38 0 61.5 25t23.5 70t-23.5 70t-61.5 25t-61.5 -25t-23.5 -70t23.5 -70t61.5 -25z" />
    <glyph glyph-name="uni2117" unicode="&#x2117;" horiz-adv-x="840" 
d="M420 -10q-79 0 -145 26.5t-114 74.5t-74.5 114t-26.5 145t26.5 145t74.5 114t114 74.5t145 26.5t145 -26.5t114 -74.5t74.5 -114t26.5 -145t-26.5 -145t-74.5 -114t-114 -74.5t-145 -26.5zM420 55q62 0 115 21.5t92 60.5t61 93t22 120t-22 120t-61 93t-92 60.5t-115 21.5
t-115 -21.5t-92 -60.5t-61 -93t-22 -120t22 -120t61 -93t92 -60.5t115 -21.5zM300 540h145q36 0 61.5 -9.5t42 -26.5t24 -40t7.5 -49q0 -53 -32 -89t-103 -36h-80v-125h-65v375zM440 345q75 0 75 70t-75 70h-75v-140h75z" />
    <glyph glyph-name="trademark" unicode="&#x2122;" horiz-adv-x="735" 
d="M120 640h-100v60h265v-60h-100v-250h-65v250zM320 700h100l70 -230h5l70 230h100v-310h-65v226h-5l-70 -226h-65l-70 226h-5v-226h-65v310z" />
    <glyph glyph-name="uni2126" unicode="&#x2126;" horiz-adv-x="810" 
d="M90 75h125l-11.5 7t-28.5 22t-37 38t-37.5 56t-29 75.5t-11.5 96.5q0 75 23.5 137.5t68 107.5t108.5 70t145 25t145 -25t108.5 -70t68 -107.5t23.5 -137.5q0 -54 -11.5 -96.5t-29 -75.5t-37.5 -56t-37 -38t-28.5 -22l-11.5 -7h125v-75h-250v75q54 26 97 66q18 17 36 39
t31.5 49t22 59.5t8.5 71.5q0 60 -17.5 110.5t-50.5 87t-81.5 57t-110.5 20.5t-110.5 -20.5t-81.5 -57t-50.5 -87t-17.5 -110.5q0 -39 8.5 -71.5t22 -59.5t31 -49t35.5 -39q43 -40 98 -66v-75h-250v75z" />
    <glyph glyph-name="estimated" unicode="&#x212e;" horiz-adv-x="850" 
d="M440 -20q-83 0 -152.5 28t-120 77t-79 114.5t-28.5 140.5t28.5 140.5t78 114.5t117 77t146.5 28t146.5 -28t117 -77t78 -114.5t28.5 -140.5v-5h-576q-14 0 -14 -15v-197q0 -5 0.5 -12t4 -16t12 -18.5t23.5 -19.5q4 -2 17.5 -10.5t37.5 -17.5t57.5 -16.5t77.5 -7.5
q66 0 115 20.5t83 46.5q39 30 67 68h55q-33 -45 -81 -80q-41 -30 -100.5 -55t-138.5 -25zM636 360q14 0 14 15v185q0 5 -0.5 12t-4 16t-12 18.5t-23.5 19.5q-6 3 -21.5 11.5t-39 16.5t-53.5 14.5t-66 6.5t-66 -6.5t-53.5 -14.5t-39 -16.5t-21.5 -11.5q-15 -10 -23.5 -19.5
t-12 -18.5t-4 -16t-0.5 -12v-185q0 -15 14 -15h412z" />
    <glyph glyph-name="uni2150" unicode="&#x2150;" horiz-adv-x="760" 
d="M525 700h80l-435 -700h-80zM125 580h-85v65h60q25 0 25 25v30h70v-400h-70v280zM645 335h-175v65h250v-65l-148 -335h-75z" />
    <glyph glyph-name="uni2151" unicode="&#x2151;" horiz-adv-x="775" 
d="M525 700h80l-435 -700h-80zM125 580h-85v65h60q25 0 25 25v30h70v-400h-70v280zM626 145h-5q-4 -3 -10 -5q-12 -5 -31 -5q-28 0 -52.5 10t-43 27.5t-29 42.5t-10.5 55t11.5 55t31 42.5t46 27.5t56.5 10q34 0 60.5 -11.5t45.5 -30.5t29 -44.5t10 -53.5q0 -38 -10.5 -67.5
t-24.5 -52.5l-95 -145h-78zM590 190q38 0 56.5 22.5t18.5 52.5t-18.5 52.5t-56.5 22.5t-56.5 -22.5t-18.5 -52.5t18.5 -52.5t56.5 -22.5z" />
    <glyph glyph-name="uni2152" unicode="&#x2152;" horiz-adv-x="1015" 
d="M525 700h80l-435 -700h-80zM125 580h-85v65h60q25 0 25 25v30h70v-400h-70v280zM550 280h-85v65h60q25 0 25 25v30h70v-400h-70v280zM823 -5q-74 0 -113.5 55.5t-39.5 149.5t39.5 149.5t113.5 55.5q73 0 112.5 -55.5t39.5 -149.5t-39.5 -149.5t-112.5 -55.5zM823 60
q39 0 60.5 36t21.5 104t-21.5 104t-60.5 36q-40 0 -61.5 -36t-21.5 -104t21.5 -104t61.5 -36z" />
    <glyph glyph-name="onethird" unicode="&#x2153;" horiz-adv-x="775" 
d="M525 700h80l-435 -700h-80zM125 580h-85v65h60q25 0 25 25v30h70v-400h-70v280zM590 -5q-53 0 -91 28t-49 77h70q8 -19 24 -29.5t46 -10.5q34 0 49.5 18.5t15.5 41.5t-14.5 39t-45.5 16h-45v60h45q30 0 42.5 16t12.5 39q0 19 -15.5 34.5t-49.5 15.5t-47.5 -18t-17.5 -37
h-70q4 24 13.5 46t26 38.5t40 26t55.5 9.5q64 0 99.5 -32.5t35.5 -77.5q0 -34 -16 -56.5t-39 -33.5q34 -15 47 -39.5t13 -50.5q0 -24 -9 -46t-26.5 -38.5t-42.5 -26t-57 -9.5z" />
    <glyph glyph-name="twothirds" unicode="&#x2154;" horiz-adv-x="840" 
d="M600 700h80l-435 -700h-80zM40 365l160 150q21 20 28 37.5t7 32.5q0 55 -60 55q-30 0 -45.5 -16t-19.5 -39h-70q4 24 13.5 46t26 38.5t40 26t55.5 9.5t56 -9.5t40.5 -26t25 -38.5t8.5 -46q0 -30 -10.5 -52.5t-31.5 -42.5l-133 -125h170v-65h-260v65zM655 -5q-53 0 -91 28
t-49 77h70q8 -19 24 -29.5t46 -10.5q34 0 49.5 18.5t15.5 41.5t-14.5 39t-45.5 16h-45v60h45q30 0 42.5 16t12.5 39q0 19 -15.5 34.5t-49.5 15.5t-47.5 -18t-17.5 -37h-70q4 24 13.5 46t26 38.5t40 26t55.5 9.5q64 0 99.5 -32.5t35.5 -77.5q0 -34 -16 -56.5t-39 -33.5
q34 -15 47 -39.5t13 -50.5q0 -24 -9 -46t-26.5 -38.5t-42.5 -26t-57 -9.5z" />
    <glyph glyph-name="uni2155" unicode="&#x2155;" horiz-adv-x="775" 
d="M525 700h80l-435 -700h-80zM125 580h-85v65h60q25 0 25 25v30h70v-400h-70v280zM595 -5q-53 0 -92.5 30.5t-47.5 79.5h70q8 -19 24 -32t46 -13t50 20.5t20 54.5q0 38 -20.5 56.5t-54.5 18.5q-23 0 -37.5 -9.5t-22.5 -20.5h-65l25 220h225v-65h-170l-10 -85h5q6 6 15 10
q8 4 19 7t26 3q28 0 52.5 -9t43 -26.5t29 -42.5t10.5 -57t-10.5 -58t-29.5 -44t-44.5 -28t-55.5 -10z" />
    <glyph glyph-name="uni2156" unicode="&#x2156;" horiz-adv-x="860" 
d="M600 700h80l-435 -700h-80zM40 365l160 150q21 20 28 37.5t7 32.5q0 55 -60 55q-30 0 -45.5 -16t-19.5 -39h-70q4 24 13.5 46t26 38.5t40 26t55.5 9.5t56 -9.5t40.5 -26t25 -38.5t8.5 -46q0 -30 -10.5 -52.5t-31.5 -42.5l-133 -125h170v-65h-260v65zM680 -5
q-53 0 -92.5 30.5t-47.5 79.5h70q8 -19 24 -32t46 -13t50 20.5t20 54.5q0 38 -20.5 56.5t-54.5 18.5q-23 0 -37.5 -9.5t-22.5 -20.5h-65l25 220h225v-65h-170l-10 -85h5q6 6 15 10q8 4 19 7t26 3q28 0 52.5 -9t43 -26.5t29 -42.5t10.5 -57t-10.5 -58t-29.5 -44t-44.5 -28
t-55.5 -10z" />
    <glyph glyph-name="uni2157" unicode="&#x2157;" horiz-adv-x="855" 
d="M605 700h80l-435 -700h-80zM180 295q-53 0 -91 28t-49 77h70q8 -19 24 -29.5t46 -10.5q34 0 49.5 18.5t15.5 41.5t-14.5 39t-45.5 16h-45v60h45q30 0 42.5 16t12.5 39q0 19 -15.5 34.5t-49.5 15.5t-47.5 -18t-17.5 -37h-70q4 24 13.5 46t26 38.5t40 26t55.5 9.5
q64 0 99.5 -32.5t35.5 -77.5q0 -34 -16 -56.5t-39 -33.5q34 -15 47 -39.5t13 -50.5q0 -24 -9 -46t-26.5 -38.5t-42.5 -26t-57 -9.5zM675 -5q-53 0 -92.5 30.5t-47.5 79.5h70q8 -19 24 -32t46 -13t50 20.5t20 54.5q0 38 -20.5 56.5t-54.5 18.5q-23 0 -37.5 -9.5t-22.5 -20.5
h-65l25 220h225v-65h-170l-10 -85h5q6 6 15 10q8 4 19 7t26 3q28 0 52.5 -9t43 -26.5t29 -42.5t10.5 -57t-10.5 -58t-29.5 -44t-44.5 -28t-55.5 -10z" />
    <glyph glyph-name="uni2158" unicode="&#x2158;" horiz-adv-x="865" 
d="M615 700h80l-435 -700h-80zM205 390h-185v65l160 245h95v-245h55v-65h-55v-90h-70v90zM205 455v165h-5l-105 -165h110zM685 -5q-53 0 -92.5 30.5t-47.5 79.5h70q8 -19 24 -32t46 -13t50 20.5t20 54.5q0 38 -20.5 56.5t-54.5 18.5q-23 0 -37.5 -9.5t-22.5 -20.5h-65
l25 220h225v-65h-170l-10 -85h5q6 6 15 10q8 4 19 7t26 3q28 0 52.5 -9t43 -26.5t29 -42.5t10.5 -57t-10.5 -58t-29.5 -44t-44.5 -28t-55.5 -10z" />
    <glyph glyph-name="uni2159" unicode="&#x2159;" horiz-adv-x="760" 
d="M525 700h80l-435 -700h-80zM125 580h-85v65h60q25 0 25 25v30h70v-400h-70v280zM575 -5q-34 0 -61 11.5t-45.5 30.5t-28.5 44.5t-10 53.5q0 38 10.5 67.5t24.5 52.5l95 145h78l-99 -145h5l10 5q5 2 12.5 3.5t18.5 1.5q28 0 52.5 -10t43 -27.5t29 -42.5t10.5 -55
t-11.5 -55t-31 -42.5t-46 -27.5t-56.5 -10zM575 60q38 0 56.5 22.5t18.5 52.5t-18.5 52.5t-56.5 22.5t-56.5 -22.5t-18.5 -52.5t18.5 -52.5t56.5 -22.5z" />
    <glyph glyph-name="uni215A" unicode="&#x215a;" horiz-adv-x="855" 
d="M620 700h80l-435 -700h-80zM190 295q-53 0 -92.5 30.5t-47.5 79.5h70q8 -19 24 -32t46 -13t50 20.5t20 54.5q0 38 -20.5 56.5t-54.5 18.5q-23 0 -37.5 -9.5t-22.5 -20.5h-65l25 220h225v-65h-170l-10 -85h5q6 6 15 10q8 4 19 7t26 3q28 0 52.5 -9t43 -26.5t29 -42.5
t10.5 -57t-10.5 -58t-29.5 -44t-44.5 -28t-55.5 -10zM670 -5q-34 0 -61 11.5t-45.5 30.5t-28.5 44.5t-10 53.5q0 38 10.5 67.5t24.5 52.5l95 145h78l-99 -145h5l10 5q5 2 12.5 3.5t18.5 1.5q28 0 52.5 -10t43 -27.5t29 -42.5t10.5 -55t-11.5 -55t-31 -42.5t-46 -27.5
t-56.5 -10zM670 60q38 0 56.5 22.5t18.5 52.5t-18.5 52.5t-56.5 22.5t-56.5 -22.5t-18.5 -52.5t18.5 -52.5t56.5 -22.5z" />
    <glyph glyph-name="oneeighth" unicode="&#x215b;" horiz-adv-x="785" 
d="M525 700h80l-435 -700h-80zM125 580h-85v65h60q25 0 25 25v30h70v-400h-70v280zM595 -5q-64 0 -102 33.5t-38 86.5q0 26 13 53t47 42q-23 15 -36.5 35t-13.5 50q0 45 35 77.5t95 32.5t95 -32.5t35 -77.5q0 -30 -13.5 -50t-36.5 -35q34 -15 47 -42t13 -53q0 -53 -38 -86.5
t-102 -33.5zM595 60q34 0 52 17t18 43t-18 43t-52 17t-52 -17t-18 -43t18 -43t52 -17zM595 240q26 0 43 14.5t17 35.5t-17 35.5t-43 14.5t-43 -14.5t-17 -35.5t17 -35.5t43 -14.5z" />
    <glyph glyph-name="threeeighths" unicode="&#x215c;" horiz-adv-x="865" 
d="M605 700h80l-435 -700h-80zM180 295q-53 0 -91 28t-49 77h70q8 -19 24 -29.5t46 -10.5q34 0 49.5 18.5t15.5 41.5t-14.5 39t-45.5 16h-45v60h45q30 0 42.5 16t12.5 39q0 19 -15.5 34.5t-49.5 15.5t-47.5 -18t-17.5 -37h-70q4 24 13.5 46t26 38.5t40 26t55.5 9.5
q64 0 99.5 -32.5t35.5 -77.5q0 -34 -16 -56.5t-39 -33.5q34 -15 47 -39.5t13 -50.5q0 -24 -9 -46t-26.5 -38.5t-42.5 -26t-57 -9.5zM675 -5q-64 0 -102 33.5t-38 86.5q0 26 13 53t47 42q-23 15 -36.5 35t-13.5 50q0 45 35 77.5t95 32.5t95 -32.5t35 -77.5q0 -30 -13.5 -50
t-36.5 -35q34 -15 47 -42t13 -53q0 -53 -38 -86.5t-102 -33.5zM675 60q34 0 52 17t18 43t-18 43t-52 17t-52 -17t-18 -43t18 -43t52 -17zM675 240q26 0 43 14.5t17 35.5t-17 35.5t-43 14.5t-43 -14.5t-17 -35.5t17 -35.5t43 -14.5z" />
    <glyph glyph-name="fiveeighths" unicode="&#x215d;" horiz-adv-x="880" 
d="M620 700h80l-435 -700h-80zM190 295q-53 0 -92.5 30.5t-47.5 79.5h70q8 -19 24 -32t46 -13t50 20.5t20 54.5q0 38 -20.5 56.5t-54.5 18.5q-23 0 -37.5 -9.5t-22.5 -20.5h-65l25 220h225v-65h-170l-10 -85h5q6 6 15 10q8 4 19 7t26 3q28 0 52.5 -9t43 -26.5t29 -42.5
t10.5 -57t-10.5 -58t-29.5 -44t-44.5 -28t-55.5 -10zM690 -5q-64 0 -102 33.5t-38 86.5q0 26 13 53t47 42q-23 15 -36.5 35t-13.5 50q0 45 35 77.5t95 32.5t95 -32.5t35 -77.5q0 -30 -13.5 -50t-36.5 -35q34 -15 47 -42t13 -53q0 -53 -38 -86.5t-102 -33.5zM690 60
q34 0 52 17t18 43t-18 43t-52 17t-52 -17t-18 -43t18 -43t52 -17zM690 240q26 0 43 14.5t17 35.5t-17 35.5t-43 14.5t-43 -14.5t-17 -35.5t17 -35.5t43 -14.5z" />
    <glyph glyph-name="seveneighths" unicode="&#x215e;" horiz-adv-x="790" 
d="M530 700h80l-435 -700h-80zM225 635h-175v65h250v-65l-148 -335h-75zM600 -5q-64 0 -102 33.5t-38 86.5q0 26 13 53t47 42q-23 15 -36.5 35t-13.5 50q0 45 35 77.5t95 32.5t95 -32.5t35 -77.5q0 -30 -13.5 -50t-36.5 -35q34 -15 47 -42t13 -53q0 -53 -38 -86.5
t-102 -33.5zM600 60q34 0 52 17t18 43t-18 43t-52 17t-52 -17t-18 -43t18 -43t52 -17zM600 240q26 0 43 14.5t17 35.5t-17 35.5t-43 14.5t-43 -14.5t-17 -35.5t17 -35.5t43 -14.5z" />
    <glyph glyph-name="uni215F" unicode="&#x215f;" horiz-adv-x="410" 
d="M525 700h80l-435 -700h-80zM125 580h-85v65h60q25 0 25 25v30h70v-400h-70v280z" />
    <glyph glyph-name="uni2190" unicode="&#x2190;" 
d="M150 345v5l215 215l50 -50l-130 -130h565v-75h-565l130 -130l-50 -50z" />
    <glyph glyph-name="uni2191" unicode="&#x2191;" 
d="M460 565l-130 -130l-50 50l215 215h5l215 -215l-50 -50l-130 130v-565h-75v565z" />
    <glyph glyph-name="uni2192" unicode="&#x2192;" 
d="M585 180l130 130h-565v75h565l-130 130l50 50l215 -215v-5l-215 -215z" />
    <glyph glyph-name="uni2193" unicode="&#x2193;" 
d="M280 215l50 50l130 -130v565h75v-565l130 130l50 -50l-215 -215h-5z" />
    <glyph glyph-name="uni2194" unicode="&#x2194;" 
d="M130 345v5l215 215l50 -50l-130 -130h470l-130 130l50 50l215 -215v-5l-215 -215l-50 50l130 130h-470l130 -130l-50 -50z" />
    <glyph glyph-name="uni2195" unicode="&#x2195;" 
d="M280 195l50 50l130 -130v470l-130 -130l-50 50l215 215h5l215 -215l-50 -50l-130 130v-470l130 130l50 -50l-215 -215h-5z" />
    <glyph glyph-name="uni2196" unicode="&#x2196;" 
d="M275 525v-185h-75v300l10 10h300v-75h-185l475 -475l-50 -50z" />
    <glyph glyph-name="uni2197" unicode="&#x2197;" 
d="M200 100l475 475h-185v75h300l10 -10v-300h-75v185l-475 -475z" />
    <glyph glyph-name="uni2198" unicode="&#x2198;" 
d="M490 125h185l-475 475l50 50l475 -475v185h75v-300l-10 -10h-300v75z" />
    <glyph glyph-name="uni2199" unicode="&#x2199;" 
d="M200 60v300h75v-185l475 475l50 -50l-475 -475h185v-75h-300z" />
    <glyph glyph-name="uni21C5" unicode="&#x21c5;" 
d="M295 565l-130 -130l-50 50l215 215h5l215 -215l-50 -50l-130 130v-565h-75v565zM450 215l50 50l130 -130v565h75v-565l130 130l50 -50l-215 -215h-5z" />
    <glyph glyph-name="uni21F5" unicode="&#x21f5;" 
d="M115 215l50 50l130 -130v565h75v-565l130 130l50 -50l-215 -215h-5zM630 565l-130 -130l-50 50l215 215h5l215 -215l-50 -50l-130 130v-565h-75v565z" />
    <glyph glyph-name="partialdiff" unicode="&#x2202;" horiz-adv-x="575" 
d="M275 -10q-45 0 -86 15t-71.5 44t-49 72t-18.5 99q0 52 16.5 94.5t46 72.5t68.5 46.5t84 16.5q49 0 90 -15.5t75 -49.5h5q0 56 -11 102t-32.5 79t-53.5 51t-73 18q-38 0 -61 -15.5t-34 -34.5h-85q7 24 21.5 47t36.5 40t52.5 27.5t69.5 10.5q121 0 185.5 -89.5t64.5 -270.5
q0 -188 -62 -274t-178 -86zM275 65q72 0 113.5 55.5t41.5 164.5q-14 25 -36 45q-19 17 -48 31t-71 14q-68 0 -104 -41.5t-36 -113.5t36 -113.5t104 -41.5z" />
    <glyph glyph-name="emptyset" unicode="&#x2205;" horiz-adv-x="830" 
d="M415 -10q-61 0 -113 14.5t-94 41.5l-43 -51h-100l84 100q-44 48 -66.5 112t-22.5 143q0 81 24.5 147t70.5 113.5t111.5 73.5t148.5 26q61 0 113 -14.5t94 -41.5l43 51h100l-84 -100q44 -48 66.5 -112t22.5 -143q0 -81 -24.5 -147t-70.5 -113.5t-112 -73.5t-148 -26z
M569 592q-31 20 -69.5 31.5t-84.5 11.5q-64 0 -114 -21.5t-84.5 -59.5t-53 -90t-18.5 -114q0 -57 15 -105t44 -85zM415 65q64 0 114 21.5t84.5 59.5t53 90t18.5 114q0 57 -15 105t-44 85l-365 -432q31 -20 69.5 -31.5t84.5 -11.5z" />
    <glyph glyph-name="uni2206" unicode="&#x2206;" horiz-adv-x="650" 
d="M275 700h100l250 -700h-600zM515 75l-190 535l-190 -535h380z" />
    <glyph glyph-name="product" unicode="&#x220f;" horiz-adv-x="715" 
d="M100 700h515v-810h-85v735h-345v-735h-85v810z" />
    <glyph glyph-name="summation" unicode="&#x2211;" horiz-adv-x="580" 
d="M60 -35l235 350l-235 310v75h470v-75h-375l235 -310l-235 -350h375v-75h-470v75z" />
    <glyph glyph-name="minus" unicode="&#x2212;" horiz-adv-x="555" 
d="M40 340h475v-70h-475v70z" />
    <glyph glyph-name="radical" unicode="&#x221a;" horiz-adv-x="615" 
d="M135 145h-125v75h185l75 -230h10l225 735h80l-255 -835h-110z" />
    <glyph glyph-name="infinity" unicode="&#x221e;" horiz-adv-x="780" 
d="M215 195q-75 0 -115 43.5t-40 111.5t40 111.5t115 43.5q28 0 52.5 -8.5t46 -23t40.5 -33.5t36 -40q17 21 36 40t40.5 33.5t46 23t52.5 8.5q75 0 115 -43.5t40 -111.5t-40 -111.5t-115 -43.5q-28 0 -52.5 8.5t-46 23t-40.5 33.5t-36 40q-17 -21 -36 -40t-40.5 -33.5
t-46 -23t-52.5 -8.5zM215 255q21 0 41 8.5t38.5 22t34 30.5t26.5 34q-11 17 -26.5 34t-34 30.5t-38.5 22t-41 8.5q-45 0 -67.5 -28.5t-22.5 -66.5t22.5 -66.5t67.5 -28.5zM565 255q45 0 67.5 28.5t22.5 66.5t-22.5 66.5t-67.5 28.5q-21 0 -41 -8.5t-38.5 -22t-34 -30.5
t-26.5 -34q11 -17 26.5 -34t34 -30.5t38.5 -22t41 -8.5z" />
    <glyph glyph-name="integral" unicode="&#x222b;" horiz-adv-x="370" 
d="M40 -40h20q28 0 45.5 7t27.5 21.5t13.5 37t3.5 54.5v540q0 101 37 145.5t123 44.5h20v-70h-15q-28 0 -45.5 -7t-27.5 -21.5t-13.5 -37t-3.5 -54.5v-540q0 -101 -37 -145.5t-123 -44.5h-25v70z" />
    <glyph glyph-name="approxequal" unicode="&#x2248;" horiz-adv-x="575" 
d="M60 145q0 60 33 97.5t97 37.5q32 0 58.5 -11t49.5 -24t43 -24t39 -11q26 0 43 18t17 52h75q0 -60 -33 -97.5t-97 -37.5q-32 0 -58.5 11t-49.5 24t-43 24t-39 11q-26 0 -43 -18t-17 -52h-75zM60 330q0 60 33 97.5t97 37.5q32 0 58.5 -11t49.5 -24t43 -24t39 -11
q26 0 43 18t17 52h75q0 -60 -33 -97.5t-97 -37.5q-32 0 -58.5 11t-49.5 24t-43 24t-39 11q-26 0 -43 -18t-17 -52h-75z" />
    <glyph glyph-name="notequal" unicode="&#x2260;" horiz-adv-x="555" 
d="M180 165h-140v70h170l60 135h-230v70h260l40 90h75l-40 -90h140v-70h-170l-60 -135h230v-70h-260l-40 -90h-75z" />
    <glyph glyph-name="lessequal" unicode="&#x2264;" horiz-adv-x="540" 
d="M55 75h430v-65h-430v65zM55 290v80l430 180v-75l-355 -145l355 -145v-75z" />
    <glyph glyph-name="greaterequal" unicode="&#x2265;" horiz-adv-x="540" 
d="M55 75h430v-65h-430v65zM55 185l355 145l-355 145v75l430 -180v-80l-430 -180v75z" />
    <glyph glyph-name="uni2318" unicode="&#x2318;" horiz-adv-x="815" 
d="M195 0q-34 0 -61 10.5t-45.5 29.5t-28.5 44.5t-10 55.5q0 68 39 104t111 36h70v140h-70q-72 0 -111 36t-39 104q0 30 10 55.5t28.5 44.5t45.5 29.5t61 10.5q68 0 106.5 -39t38.5 -111v-65h135v65q0 72 38.5 111t106.5 39q34 0 60.5 -10.5t45.5 -29.5t29 -44.5t10 -55.5
q0 -68 -39 -104t-111 -36h-70v-140h70q72 0 111 -36t39 -104q0 -30 -10 -55.5t-29 -44.5t-45.5 -29.5t-60.5 -10.5q-68 0 -106.5 39t-38.5 111v65h-135v-65q0 -72 -38.5 -111t-106.5 -39zM195 70q34 0 54.5 20.5t20.5 54.5v70h-70q-34 0 -54.5 -18t-20.5 -52q0 -38 20 -56.5
t50 -18.5zM475 280v140h-135v-140h135zM270 485v70q0 34 -20.5 54.5t-54.5 20.5q-30 0 -50 -18.5t-20 -56.5q0 -34 20.5 -52t54.5 -18h70zM620 70q30 0 50 18.5t20 56.5q0 34 -20.5 52t-54.5 18h-70v-70q0 -34 20.5 -54.5t54.5 -20.5zM615 485q34 0 54.5 18t20.5 52
q0 38 -20 56.5t-50 18.5q-34 0 -54.5 -20.5t-20.5 -54.5v-70h70z" />
    <glyph glyph-name="uni2460" unicode="&#x2460;" 
d="M475 430h-85v65h60q25 0 25 25v30h70v-400h-70v280zM500 -70q-88 0 -164.5 32.5t-133.5 89.5t-89.5 133.5t-32.5 164.5t32.5 164.5t89.5 133.5t133.5 89.5t164.5 32.5t164.5 -32.5t133.5 -89.5t89.5 -133.5t32.5 -164.5t-32.5 -164.5t-89.5 -133.5t-133.5 -89.5
t-164.5 -32.5zM500 -10q77 0 143 27.5t114 75.5t75.5 114t27.5 143t-27.5 143t-75.5 114t-114 75.5t-143 27.5t-143 -27.5t-114 -75.5t-75.5 -114t-27.5 -143t27.5 -143t75.5 -114t114 -75.5t143 -27.5z" />
    <glyph glyph-name="uni2461" unicode="&#x2461;" 
d="M370 215l160 150q21 20 28 37.5t7 32.5q0 55 -60 55q-30 0 -45.5 -16t-19.5 -39h-70q4 24 13.5 46t26 38.5t40 26t55.5 9.5t56 -9.5t40.5 -26t25 -38.5t8.5 -46q0 -30 -10.5 -52.5t-31.5 -42.5l-133 -125h170v-65h-260v65zM500 -70q-88 0 -164.5 32.5t-133.5 89.5
t-89.5 133.5t-32.5 164.5t32.5 164.5t89.5 133.5t133.5 89.5t164.5 32.5t164.5 -32.5t133.5 -89.5t89.5 -133.5t32.5 -164.5t-32.5 -164.5t-89.5 -133.5t-133.5 -89.5t-164.5 -32.5zM500 -10q77 0 143 27.5t114 75.5t75.5 114t27.5 143t-27.5 143t-75.5 114t-114 75.5
t-143 27.5t-143 -27.5t-114 -75.5t-75.5 -114t-27.5 -143t27.5 -143t75.5 -114t114 -75.5t143 -27.5z" />
    <glyph glyph-name="uni2462" unicode="&#x2462;" 
d="M505 145q-53 0 -91 28t-49 77h70q8 -19 24 -29.5t46 -10.5q34 0 49.5 18.5t15.5 41.5t-14.5 39t-45.5 16h-45v60h45q30 0 42.5 16t12.5 39q0 19 -15.5 34.5t-49.5 15.5t-47.5 -18t-17.5 -37h-70q4 24 13.5 46t26 38.5t40 26t55.5 9.5q64 0 99.5 -32.5t35.5 -77.5
q0 -34 -16 -56.5t-39 -33.5q34 -15 47 -39.5t13 -50.5q0 -24 -9 -46t-26.5 -38.5t-42.5 -26t-57 -9.5zM500 -70q-88 0 -164.5 32.5t-133.5 89.5t-89.5 133.5t-32.5 164.5t32.5 164.5t89.5 133.5t133.5 89.5t164.5 32.5t164.5 -32.5t133.5 -89.5t89.5 -133.5t32.5 -164.5
t-32.5 -164.5t-89.5 -133.5t-133.5 -89.5t-164.5 -32.5zM500 -10q77 0 143 27.5t114 75.5t75.5 114t27.5 143t-27.5 143t-75.5 114t-114 75.5t-143 27.5t-143 -27.5t-114 -75.5t-75.5 -114t-27.5 -143t27.5 -143t75.5 -114t114 -75.5t143 -27.5z" />
    <glyph glyph-name="uni2463" unicode="&#x2463;" 
d="M515 240h-185v65l160 245h95v-245h55v-65h-55v-90h-70v90zM515 305v165h-5l-105 -165h110zM500 -70q-88 0 -164.5 32.5t-133.5 89.5t-89.5 133.5t-32.5 164.5t32.5 164.5t89.5 133.5t133.5 89.5t164.5 32.5t164.5 -32.5t133.5 -89.5t89.5 -133.5t32.5 -164.5
t-32.5 -164.5t-89.5 -133.5t-133.5 -89.5t-164.5 -32.5zM500 -10q77 0 143 27.5t114 75.5t75.5 114t27.5 143t-27.5 143t-75.5 114t-114 75.5t-143 27.5t-143 -27.5t-114 -75.5t-75.5 -114t-27.5 -143t27.5 -143t75.5 -114t114 -75.5t143 -27.5z" />
    <glyph glyph-name="uni2464" unicode="&#x2464;" 
d="M505 145q-53 0 -92.5 30.5t-47.5 79.5h70q8 -19 24 -32t46 -13t50 20.5t20 54.5q0 38 -20.5 56.5t-54.5 18.5q-23 0 -37.5 -9.5t-22.5 -20.5h-65l25 220h225v-65h-170l-10 -85h5q6 6 15 10q8 4 19 7t26 3q28 0 52.5 -9t43 -26.5t29 -42.5t10.5 -57t-10.5 -58t-29.5 -44
t-44.5 -28t-55.5 -10zM500 -70q-88 0 -164.5 32.5t-133.5 89.5t-89.5 133.5t-32.5 164.5t32.5 164.5t89.5 133.5t133.5 89.5t164.5 32.5t164.5 -32.5t133.5 -89.5t89.5 -133.5t32.5 -164.5t-32.5 -164.5t-89.5 -133.5t-133.5 -89.5t-164.5 -32.5zM500 -10q77 0 143 27.5
t114 75.5t75.5 114t27.5 143t-27.5 143t-75.5 114t-114 75.5t-143 27.5t-143 -27.5t-114 -75.5t-75.5 -114t-27.5 -143t27.5 -143t75.5 -114t114 -75.5t143 -27.5z" />
    <glyph glyph-name="uni2465" unicode="&#x2465;" 
d="M500 145q-34 0 -61 11.5t-45.5 30.5t-28.5 44.5t-10 53.5q0 38 10.5 67.5t24.5 52.5l95 145h78l-99 -145h5l10 5q5 2 12.5 3.5t18.5 1.5q28 0 52.5 -10t43 -27.5t29 -42.5t10.5 -55t-11.5 -55t-31 -42.5t-46 -27.5t-56.5 -10zM500 210q38 0 56.5 22.5t18.5 52.5
t-18.5 52.5t-56.5 22.5t-56.5 -22.5t-18.5 -52.5t18.5 -52.5t56.5 -22.5zM500 -70q-88 0 -164.5 32.5t-133.5 89.5t-89.5 133.5t-32.5 164.5t32.5 164.5t89.5 133.5t133.5 89.5t164.5 32.5t164.5 -32.5t133.5 -89.5t89.5 -133.5t32.5 -164.5t-32.5 -164.5t-89.5 -133.5
t-133.5 -89.5t-164.5 -32.5zM500 -10q77 0 143 27.5t114 75.5t75.5 114t27.5 143t-27.5 143t-75.5 114t-114 75.5t-143 27.5t-143 -27.5t-114 -75.5t-75.5 -114t-27.5 -143t27.5 -143t75.5 -114t114 -75.5t143 -27.5z" />
    <glyph glyph-name="uni2466" unicode="&#x2466;" 
d="M555 485h-175v65h250v-65l-148 -335h-75zM500 -70q-88 0 -164.5 32.5t-133.5 89.5t-89.5 133.5t-32.5 164.5t32.5 164.5t89.5 133.5t133.5 89.5t164.5 32.5t164.5 -32.5t133.5 -89.5t89.5 -133.5t32.5 -164.5t-32.5 -164.5t-89.5 -133.5t-133.5 -89.5t-164.5 -32.5z
M500 -10q77 0 143 27.5t114 75.5t75.5 114t27.5 143t-27.5 143t-75.5 114t-114 75.5t-143 27.5t-143 -27.5t-114 -75.5t-75.5 -114t-27.5 -143t27.5 -143t75.5 -114t114 -75.5t143 -27.5z" />
    <glyph glyph-name="uni2467" unicode="&#x2467;" 
d="M500 145q-64 0 -102 33.5t-38 86.5q0 26 13 53t47 42q-23 15 -36.5 35t-13.5 50q0 45 35 77.5t95 32.5t95 -32.5t35 -77.5q0 -30 -13.5 -50t-36.5 -35q34 -15 47 -42t13 -53q0 -53 -38 -86.5t-102 -33.5zM500 210q34 0 52 17t18 43t-18 43t-52 17t-52 -17t-18 -43t18 -43
t52 -17zM500 390q26 0 43 14.5t17 35.5t-17 35.5t-43 14.5t-43 -14.5t-17 -35.5t17 -35.5t43 -14.5zM500 -70q-88 0 -164.5 32.5t-133.5 89.5t-89.5 133.5t-32.5 164.5t32.5 164.5t89.5 133.5t133.5 89.5t164.5 32.5t164.5 -32.5t133.5 -89.5t89.5 -133.5t32.5 -164.5
t-32.5 -164.5t-89.5 -133.5t-133.5 -89.5t-164.5 -32.5zM500 -10q77 0 143 27.5t114 75.5t75.5 114t27.5 143t-27.5 143t-75.5 114t-114 75.5t-143 27.5t-143 -27.5t-114 -75.5t-75.5 -114t-27.5 -143t27.5 -143t75.5 -114t114 -75.5t143 -27.5z" />
    <glyph glyph-name="uni2468" unicode="&#x2468;" 
d="M536 295h-5q-4 -3 -10 -5q-12 -5 -31 -5q-28 0 -52.5 10t-43 27.5t-29 42.5t-10.5 55t11.5 55t31 42.5t46 27.5t56.5 10q34 0 60.5 -11.5t45.5 -30.5t29 -44.5t10 -53.5q0 -38 -10.5 -67.5t-24.5 -52.5l-95 -145h-78zM500 340q38 0 56.5 22.5t18.5 52.5t-18.5 52.5
t-56.5 22.5t-56.5 -22.5t-18.5 -52.5t18.5 -52.5t56.5 -22.5zM500 -70q-88 0 -164.5 32.5t-133.5 89.5t-89.5 133.5t-32.5 164.5t32.5 164.5t89.5 133.5t133.5 89.5t164.5 32.5t164.5 -32.5t133.5 -89.5t89.5 -133.5t32.5 -164.5t-32.5 -164.5t-89.5 -133.5t-133.5 -89.5
t-164.5 -32.5zM500 -10q77 0 143 27.5t114 75.5t75.5 114t27.5 143t-27.5 143t-75.5 114t-114 75.5t-143 27.5t-143 -27.5t-114 -75.5t-75.5 -114t-27.5 -143t27.5 -143t75.5 -114t114 -75.5t143 -27.5z" />
    <glyph glyph-name="uni2469" unicode="&#x2469;" 
d="M320 430h-85v65h60q25 0 25 25v30h70v-400h-70v280zM608 145q-74 0 -113.5 55.5t-39.5 149.5t39.5 149.5t113.5 55.5q73 0 112.5 -55.5t39.5 -149.5t-39.5 -149.5t-112.5 -55.5zM608 210q39 0 60.5 36t21.5 104t-21.5 104t-60.5 36q-40 0 -61.5 -36t-21.5 -104t21.5 -104
t61.5 -36zM500 -70q-88 0 -164.5 32.5t-133.5 89.5t-89.5 133.5t-32.5 164.5t32.5 164.5t89.5 133.5t133.5 89.5t164.5 32.5t164.5 -32.5t133.5 -89.5t89.5 -133.5t32.5 -164.5t-32.5 -164.5t-89.5 -133.5t-133.5 -89.5t-164.5 -32.5zM500 -10q77 0 143 27.5t114 75.5
t75.5 114t27.5 143t-27.5 143t-75.5 114t-114 75.5t-143 27.5t-143 -27.5t-114 -75.5t-75.5 -114t-27.5 -143t27.5 -143t75.5 -114t114 -75.5t143 -27.5z" />
    <glyph glyph-name="uni246A" unicode="&#x246a;" 
d="M365 430h-85v65h60q25 0 25 25v30h70v-400h-70v280zM590 430h-85v65h60q25 0 25 25v30h70v-400h-70v280zM500 -70q-88 0 -164.5 32.5t-133.5 89.5t-89.5 133.5t-32.5 164.5t32.5 164.5t89.5 133.5t133.5 89.5t164.5 32.5t164.5 -32.5t133.5 -89.5t89.5 -133.5
t32.5 -164.5t-32.5 -164.5t-89.5 -133.5t-133.5 -89.5t-164.5 -32.5zM500 -10q77 0 143 27.5t114 75.5t75.5 114t27.5 143t-27.5 143t-75.5 114t-114 75.5t-143 27.5t-143 -27.5t-114 -75.5t-75.5 -114t-27.5 -143t27.5 -143t75.5 -114t114 -75.5t143 -27.5z" />
    <glyph glyph-name="uni246B" unicode="&#x246b;" 
d="M330 430h-85v65h60q25 0 25 25v30h70v-400h-70v280zM465 215l160 150q21 20 28 37.5t7 32.5q0 55 -60 55q-30 0 -45.5 -16t-19.5 -39h-70q4 24 13.5 46t26 38.5t40 26t55.5 9.5t56 -9.5t40.5 -26t25 -38.5t8.5 -46q0 -30 -10.5 -52.5t-31.5 -42.5l-133 -125h170v-65h-260
v65zM500 -70q-88 0 -164.5 32.5t-133.5 89.5t-89.5 133.5t-32.5 164.5t32.5 164.5t89.5 133.5t133.5 89.5t164.5 32.5t164.5 -32.5t133.5 -89.5t89.5 -133.5t32.5 -164.5t-32.5 -164.5t-89.5 -133.5t-133.5 -89.5t-164.5 -32.5zM500 -10q77 0 143 27.5t114 75.5t75.5 114
t27.5 143t-27.5 143t-75.5 114t-114 75.5t-143 27.5t-143 -27.5t-114 -75.5t-75.5 -114t-27.5 -143t27.5 -143t75.5 -114t114 -75.5t143 -27.5z" />
    <glyph glyph-name="uni246C" unicode="&#x246c;" 
d="M325 430h-85v65h60q25 0 25 25v30h70v-400h-70v280zM600 145q-53 0 -91 28t-49 77h70q8 -19 24 -29.5t46 -10.5q34 0 49.5 18.5t15.5 41.5t-14.5 39t-45.5 16h-45v60h45q30 0 42.5 16t12.5 39q0 19 -15.5 34.5t-49.5 15.5t-47.5 -18t-17.5 -37h-70q4 24 13.5 46t26 38.5
t40 26t55.5 9.5q64 0 99.5 -32.5t35.5 -77.5q0 -34 -16 -56.5t-39 -33.5q34 -15 47 -39.5t13 -50.5q0 -24 -9 -46t-26.5 -38.5t-42.5 -26t-57 -9.5zM500 -70q-88 0 -164.5 32.5t-133.5 89.5t-89.5 133.5t-32.5 164.5t32.5 164.5t89.5 133.5t133.5 89.5t164.5 32.5
t164.5 -32.5t133.5 -89.5t89.5 -133.5t32.5 -164.5t-32.5 -164.5t-89.5 -133.5t-133.5 -89.5t-164.5 -32.5zM500 -10q77 0 143 27.5t114 75.5t75.5 114t27.5 143t-27.5 143t-75.5 114t-114 75.5t-143 27.5t-143 -27.5t-114 -75.5t-75.5 -114t-27.5 -143t27.5 -143t75.5 -114
t114 -75.5t143 -27.5z" />
    <glyph glyph-name="uni246D" unicode="&#x246d;" 
d="M325 430h-85v65h60q25 0 25 25v30h70v-400h-70v280zM630 240h-185v65l160 245h95v-245h55v-65h-55v-90h-70v90zM630 305v165h-5l-105 -165h110zM500 -70q-88 0 -164.5 32.5t-133.5 89.5t-89.5 133.5t-32.5 164.5t32.5 164.5t89.5 133.5t133.5 89.5t164.5 32.5
t164.5 -32.5t133.5 -89.5t89.5 -133.5t32.5 -164.5t-32.5 -164.5t-89.5 -133.5t-133.5 -89.5t-164.5 -32.5zM500 -10q77 0 143 27.5t114 75.5t75.5 114t27.5 143t-27.5 143t-75.5 114t-114 75.5t-143 27.5t-143 -27.5t-114 -75.5t-75.5 -114t-27.5 -143t27.5 -143t75.5 -114
t114 -75.5t143 -27.5z" />
    <glyph glyph-name="uni246E" unicode="&#x246e;" 
d="M320 430h-85v65h60q25 0 25 25v30h70v-400h-70v280zM595 145q-53 0 -92.5 30.5t-47.5 79.5h70q8 -19 24 -32t46 -13t50 20.5t20 54.5q0 38 -20.5 56.5t-54.5 18.5q-23 0 -37.5 -9.5t-22.5 -20.5h-65l25 220h225v-65h-170l-10 -85h5q6 6 15 10q8 4 19 7t26 3q28 0 52.5 -9
t43 -26.5t29 -42.5t10.5 -57t-10.5 -58t-29.5 -44t-44.5 -28t-55.5 -10zM500 -70q-88 0 -164.5 32.5t-133.5 89.5t-89.5 133.5t-32.5 164.5t32.5 164.5t89.5 133.5t133.5 89.5t164.5 32.5t164.5 -32.5t133.5 -89.5t89.5 -133.5t32.5 -164.5t-32.5 -164.5t-89.5 -133.5
t-133.5 -89.5t-164.5 -32.5zM500 -10q77 0 143 27.5t114 75.5t75.5 114t27.5 143t-27.5 143t-75.5 114t-114 75.5t-143 27.5t-143 -27.5t-114 -75.5t-75.5 -114t-27.5 -143t27.5 -143t75.5 -114t114 -75.5t143 -27.5z" />
    <glyph glyph-name="uni246F" unicode="&#x246f;" 
d="M320 430h-85v65h60q25 0 25 25v30h70v-400h-70v280zM600 145q-34 0 -61 11.5t-45.5 30.5t-28.5 44.5t-10 53.5q0 38 10.5 67.5t24.5 52.5l95 145h78l-99 -145h5l10 5q5 2 12.5 3.5t18.5 1.5q28 0 52.5 -10t43 -27.5t29 -42.5t10.5 -55t-11.5 -55t-31 -42.5t-46 -27.5
t-56.5 -10zM600 210q38 0 56.5 22.5t18.5 52.5t-18.5 52.5t-56.5 22.5t-56.5 -22.5t-18.5 -52.5t18.5 -52.5t56.5 -22.5zM500 -70q-88 0 -164.5 32.5t-133.5 89.5t-89.5 133.5t-32.5 164.5t32.5 164.5t89.5 133.5t133.5 89.5t164.5 32.5t164.5 -32.5t133.5 -89.5
t89.5 -133.5t32.5 -164.5t-32.5 -164.5t-89.5 -133.5t-133.5 -89.5t-164.5 -32.5zM500 -10q77 0 143 27.5t114 75.5t75.5 114t27.5 143t-27.5 143t-75.5 114t-114 75.5t-143 27.5t-143 -27.5t-114 -75.5t-75.5 -114t-27.5 -143t27.5 -143t75.5 -114t114 -75.5t143 -27.5z
" />
    <glyph glyph-name="uni2470" unicode="&#x2470;" 
d="M345 430h-85v65h60q25 0 25 25v30h70v-400h-70v280zM655 485h-175v65h250v-65l-148 -335h-75zM500 -70q-88 0 -164.5 32.5t-133.5 89.5t-89.5 133.5t-32.5 164.5t32.5 164.5t89.5 133.5t133.5 89.5t164.5 32.5t164.5 -32.5t133.5 -89.5t89.5 -133.5t32.5 -164.5
t-32.5 -164.5t-89.5 -133.5t-133.5 -89.5t-164.5 -32.5zM500 -10q77 0 143 27.5t114 75.5t75.5 114t27.5 143t-27.5 143t-75.5 114t-114 75.5t-143 27.5t-143 -27.5t-114 -75.5t-75.5 -114t-27.5 -143t27.5 -143t75.5 -114t114 -75.5t143 -27.5z" />
    <glyph glyph-name="uni2471" unicode="&#x2471;" 
d="M325 430h-85v65h60q25 0 25 25v30h70v-400h-70v280zM600 145q-64 0 -102 33.5t-38 86.5q0 26 13 53t47 42q-23 15 -36.5 35t-13.5 50q0 45 35 77.5t95 32.5t95 -32.5t35 -77.5q0 -30 -13.5 -50t-36.5 -35q34 -15 47 -42t13 -53q0 -53 -38 -86.5t-102 -33.5zM600 210
q34 0 52 17t18 43t-18 43t-52 17t-52 -17t-18 -43t18 -43t52 -17zM600 390q26 0 43 14.5t17 35.5t-17 35.5t-43 14.5t-43 -14.5t-17 -35.5t17 -35.5t43 -14.5zM500 -70q-88 0 -164.5 32.5t-133.5 89.5t-89.5 133.5t-32.5 164.5t32.5 164.5t89.5 133.5t133.5 89.5t164.5 32.5
t164.5 -32.5t133.5 -89.5t89.5 -133.5t32.5 -164.5t-32.5 -164.5t-89.5 -133.5t-133.5 -89.5t-164.5 -32.5zM500 -10q77 0 143 27.5t114 75.5t75.5 114t27.5 143t-27.5 143t-75.5 114t-114 75.5t-143 27.5t-143 -27.5t-114 -75.5t-75.5 -114t-27.5 -143t27.5 -143t75.5 -114
t114 -75.5t143 -27.5z" />
    <glyph glyph-name="uni2472" unicode="&#x2472;" 
d="M330 430h-85v65h60q25 0 25 25v30h70v-400h-70v280zM636 295h-5q-4 -3 -10 -5q-12 -5 -31 -5q-28 0 -52.5 10t-43 27.5t-29 42.5t-10.5 55t11.5 55t31 42.5t46 27.5t56.5 10q34 0 60.5 -11.5t45.5 -30.5t29 -44.5t10 -53.5q0 -38 -10.5 -67.5t-24.5 -52.5l-95 -145h-78z
M600 340q38 0 56.5 22.5t18.5 52.5t-18.5 52.5t-56.5 22.5t-56.5 -22.5t-18.5 -52.5t18.5 -52.5t56.5 -22.5zM500 -70q-88 0 -164.5 32.5t-133.5 89.5t-89.5 133.5t-32.5 164.5t32.5 164.5t89.5 133.5t133.5 89.5t164.5 32.5t164.5 -32.5t133.5 -89.5t89.5 -133.5
t32.5 -164.5t-32.5 -164.5t-89.5 -133.5t-133.5 -89.5t-164.5 -32.5zM500 -10q77 0 143 27.5t114 75.5t75.5 114t27.5 143t-27.5 143t-75.5 114t-114 75.5t-143 27.5t-143 -27.5t-114 -75.5t-75.5 -114t-27.5 -143t27.5 -143t75.5 -114t114 -75.5t143 -27.5z" />
    <glyph glyph-name="uni2473" unicode="&#x2473;" 
d="M210 215l160 150q21 20 28 37.5t7 32.5q0 55 -60 55q-30 0 -45.5 -16t-19.5 -39h-70q4 24 13.5 46t26 38.5t40 26t55.5 9.5t56 -9.5t40.5 -26t25 -38.5t8.5 -46q0 -30 -10.5 -52.5t-31.5 -42.5l-133 -125h170v-65h-260v65zM653 145q-74 0 -113.5 55.5t-39.5 149.5
t39.5 149.5t113.5 55.5q73 0 112.5 -55.5t39.5 -149.5t-39.5 -149.5t-112.5 -55.5zM653 210q39 0 60.5 36t21.5 104t-21.5 104t-60.5 36q-40 0 -61.5 -36t-21.5 -104t21.5 -104t61.5 -36zM500 -70q-88 0 -164.5 32.5t-133.5 89.5t-89.5 133.5t-32.5 164.5t32.5 164.5
t89.5 133.5t133.5 89.5t164.5 32.5t164.5 -32.5t133.5 -89.5t89.5 -133.5t32.5 -164.5t-32.5 -164.5t-89.5 -133.5t-133.5 -89.5t-164.5 -32.5zM500 -10q77 0 143 27.5t114 75.5t75.5 114t27.5 143t-27.5 143t-75.5 114t-114 75.5t-143 27.5t-143 -27.5t-114 -75.5
t-75.5 -114t-27.5 -143t27.5 -143t75.5 -114t114 -75.5t143 -27.5z" />
    <glyph glyph-name="uni24EA" unicode="&#x24ea;" 
d="M500 145q-74 0 -113.5 55.5t-39.5 149.5t39.5 149.5t113.5 55.5q73 0 112.5 -55.5t39.5 -149.5t-39.5 -149.5t-112.5 -55.5zM500 210q39 0 60.5 36t21.5 104t-21.5 104t-60.5 36q-40 0 -61.5 -36t-21.5 -104t21.5 -104t61.5 -36zM500 -70q-88 0 -164.5 32.5t-133.5 89.5
t-89.5 133.5t-32.5 164.5t32.5 164.5t89.5 133.5t133.5 89.5t164.5 32.5t164.5 -32.5t133.5 -89.5t89.5 -133.5t32.5 -164.5t-32.5 -164.5t-89.5 -133.5t-133.5 -89.5t-164.5 -32.5zM500 -10q77 0 143 27.5t114 75.5t75.5 114t27.5 143t-27.5 143t-75.5 114t-114 75.5
t-143 27.5t-143 -27.5t-114 -75.5t-75.5 -114t-27.5 -143t27.5 -143t75.5 -114t114 -75.5t143 -27.5z" />
    <glyph glyph-name="uni24EB" unicode="&#x24eb;" 
d="M500 -70q-88 0 -164.5 32.5t-133.5 89.5t-89.5 133.5t-32.5 164.5t32.5 164.5t89.5 133.5t133.5 89.5t164.5 32.5t164.5 -32.5t133.5 -89.5t89.5 -133.5t32.5 -164.5t-32.5 -164.5t-89.5 -133.5t-133.5 -89.5t-164.5 -32.5zM435 150v400h-70v-30q0 -25 -25 -25h-60v-65
h85v-280h70zM660 150v400h-70v-30q0 -25 -25 -25h-60v-65h85v-280h70z" />
    <glyph glyph-name="uni24EC" unicode="&#x24ec;" 
d="M500 -70q-88 0 -164.5 32.5t-133.5 89.5t-89.5 133.5t-32.5 164.5t32.5 164.5t89.5 133.5t133.5 89.5t164.5 32.5t164.5 -32.5t133.5 -89.5t89.5 -133.5t32.5 -164.5t-32.5 -164.5t-89.5 -133.5t-133.5 -89.5t-164.5 -32.5zM400 150v400h-70v-30q0 -25 -25 -25h-60v-65
h85v-280h70zM725 150v65h-170l133 125q21 20 31.5 42.5t10.5 52.5q0 24 -8.5 46t-25 38.5t-40.5 26t-56 9.5t-55.5 -9.5t-40 -26t-26 -38.5t-13.5 -46h70q4 23 19.5 39t45.5 16q60 0 60 -55q0 -15 -7 -32.5t-28 -37.5l-160 -150v-65h260z" />
    <glyph glyph-name="uni24ED" unicode="&#x24ed;" 
d="M500 -70q-88 0 -164.5 32.5t-133.5 89.5t-89.5 133.5t-32.5 164.5t32.5 164.5t89.5 133.5t133.5 89.5t164.5 32.5t164.5 -32.5t133.5 -89.5t89.5 -133.5t32.5 -164.5t-32.5 -164.5t-89.5 -133.5t-133.5 -89.5t-164.5 -32.5zM395 150v400h-70v-30q0 -25 -25 -25h-60v-65
h85v-280h70zM600 145q32 0 57 9.5t42.5 26t26.5 38.5t9 46q0 26 -13 50.5t-47 39.5q23 11 39 33.5t16 56.5q0 45 -35.5 77.5t-99.5 32.5q-32 0 -55.5 -9.5t-40 -26t-26 -38.5t-13.5 -46h70q4 19 17.5 37t47.5 18t49.5 -15.5t15.5 -34.5q0 -23 -12.5 -39t-42.5 -16h-45v-60
h45q31 0 45.5 -16t14.5 -39t-15.5 -41.5t-49.5 -18.5q-30 0 -46 10.5t-24 29.5h-70q11 -49 49 -77t91 -28z" />
    <glyph glyph-name="uni24EE" unicode="&#x24ee;" 
d="M500 -70q-88 0 -164.5 32.5t-133.5 89.5t-89.5 133.5t-32.5 164.5t32.5 164.5t89.5 133.5t133.5 89.5t164.5 32.5t164.5 -32.5t133.5 -89.5t89.5 -133.5t32.5 -164.5t-32.5 -164.5t-89.5 -133.5t-133.5 -89.5t-164.5 -32.5zM395 150v400h-70v-30q0 -25 -25 -25h-60v-65
h85v-280h70zM700 150v90h55v65h-55v245h-95l-160 -245v-65h185v-90h70zM625 470h5v-165h-110z" />
    <glyph glyph-name="uni24EF" unicode="&#x24ef;" 
d="M500 -70q-88 0 -164.5 32.5t-133.5 89.5t-89.5 133.5t-32.5 164.5t32.5 164.5t89.5 133.5t133.5 89.5t164.5 32.5t164.5 -32.5t133.5 -89.5t89.5 -133.5t32.5 -164.5t-32.5 -164.5t-89.5 -133.5t-133.5 -89.5t-164.5 -32.5zM390 150v400h-70v-30q0 -25 -25 -25h-60v-65
h85v-280h70zM595 145q30 0 55.5 10t44.5 28t29.5 44t10.5 58t-10.5 57t-29 42.5t-43 26.5t-52.5 9q-15 0 -26 -3t-19 -7q-9 -4 -15 -10h-5l10 85h170v65h-225l-25 -220h65q8 11 22.5 20.5t37.5 9.5q34 0 54.5 -18.5t20.5 -56.5q0 -34 -20 -54.5t-50 -20.5t-46 13t-24 32h-70
q8 -49 47.5 -79.5t92.5 -30.5z" />
    <glyph glyph-name="uni24F0" unicode="&#x24f0;" 
d="M500 -70q-88 0 -164.5 32.5t-133.5 89.5t-89.5 133.5t-32.5 164.5t32.5 164.5t89.5 133.5t133.5 89.5t164.5 32.5t164.5 -32.5t133.5 -89.5t89.5 -133.5t32.5 -164.5t-32.5 -164.5t-89.5 -133.5t-133.5 -89.5t-164.5 -32.5zM390 150v400h-70v-30q0 -25 -25 -25h-60v-65
h85v-280h70zM600 145q30 0 56.5 10t46 27.5t31 42.5t11.5 55t-10.5 55t-29 42.5t-43 27.5t-52.5 10q-11 0 -18.5 -1.5t-12.5 -3.5l-10 -5h-5l99 145h-78l-95 -145q-14 -23 -24.5 -52.5t-10.5 -67.5q0 -28 10 -53.5t28.5 -44.5t45.5 -30.5t61 -11.5zM600 210
q-38 0 -56.5 22.5t-18.5 52.5t18.5 52.5t56.5 22.5t56.5 -22.5t18.5 -52.5t-18.5 -52.5t-56.5 -22.5z" />
    <glyph glyph-name="uni24F1" unicode="&#x24f1;" 
d="M500 -70q-88 0 -164.5 32.5t-133.5 89.5t-89.5 133.5t-32.5 164.5t32.5 164.5t89.5 133.5t133.5 89.5t164.5 32.5t164.5 -32.5t133.5 -89.5t89.5 -133.5t32.5 -164.5t-32.5 -164.5t-89.5 -133.5t-133.5 -89.5t-164.5 -32.5zM415 150v400h-70v-30q0 -25 -25 -25h-60v-65
h85v-280h70zM582 150l148 335v65h-250v-65h175l-148 -335h75z" />
    <glyph glyph-name="uni24F2" unicode="&#x24f2;" 
d="M500 -70q-88 0 -164.5 32.5t-133.5 89.5t-89.5 133.5t-32.5 164.5t32.5 164.5t89.5 133.5t133.5 89.5t164.5 32.5t164.5 -32.5t133.5 -89.5t89.5 -133.5t32.5 -164.5t-32.5 -164.5t-89.5 -133.5t-133.5 -89.5t-164.5 -32.5zM395 150v400h-70v-30q0 -25 -25 -25h-60v-65
h85v-280h70zM600 145q64 0 102 33.5t38 86.5q0 26 -13 53t-47 42q23 15 36.5 35t13.5 50q0 45 -35 77.5t-95 32.5t-95 -32.5t-35 -77.5q0 -30 13.5 -50t36.5 -35q-34 -15 -47 -42t-13 -53q0 -53 38 -86.5t102 -33.5zM600 210q-34 0 -52 17t-18 43t18 43t52 17t52 -17t18 -43
t-18 -43t-52 -17zM600 390q-26 0 -43 14.5t-17 35.5t17 35.5t43 14.5t43 -14.5t17 -35.5t-17 -35.5t-43 -14.5z" />
    <glyph glyph-name="uni24F3" unicode="&#x24f3;" 
d="M500 -70q-88 0 -164.5 32.5t-133.5 89.5t-89.5 133.5t-32.5 164.5t32.5 164.5t89.5 133.5t133.5 89.5t164.5 32.5t164.5 -32.5t133.5 -89.5t89.5 -133.5t32.5 -164.5t-32.5 -164.5t-89.5 -133.5t-133.5 -89.5t-164.5 -32.5zM400 150v400h-70v-30q0 -25 -25 -25h-60v-65
h85v-280h70zM615 150l95 145q14 23 24.5 52.5t10.5 67.5q0 28 -10 53.5t-29 44.5t-45.5 30.5t-60.5 11.5q-30 0 -56.5 -10t-46 -27.5t-31 -42.5t-11.5 -55t10.5 -55t29 -42.5t43 -27.5t52.5 -10q19 0 31 5q6 2 10 5h5l-99 -145h78zM600 340q-38 0 -56.5 22.5t-18.5 52.5
t18.5 52.5t56.5 22.5t56.5 -22.5t18.5 -52.5t-18.5 -52.5t-56.5 -22.5z" />
    <glyph glyph-name="uni24F4" unicode="&#x24f4;" 
d="M500 -70q-88 0 -164.5 32.5t-133.5 89.5t-89.5 133.5t-32.5 164.5t32.5 164.5t89.5 133.5t133.5 89.5t164.5 32.5t164.5 -32.5t133.5 -89.5t89.5 -133.5t32.5 -164.5t-32.5 -164.5t-89.5 -133.5t-133.5 -89.5t-164.5 -32.5zM470 150v65h-170l133 125q21 20 31.5 42.5
t10.5 52.5q0 24 -8.5 46t-25 38.5t-40.5 26t-56 9.5t-55.5 -9.5t-40 -26t-26 -38.5t-13.5 -46h70q4 23 19.5 39t45.5 16q60 0 60 -55q0 -15 -7 -32.5t-28 -37.5l-160 -150v-65h260zM653 145q73 0 112.5 55.5t39.5 149.5t-39.5 149.5t-112.5 55.5q-74 0 -113.5 -55.5
t-39.5 -149.5t39.5 -149.5t113.5 -55.5zM653 210q-40 0 -61.5 36t-21.5 104t21.5 104t61.5 36q39 0 60.5 -36t21.5 -104t-21.5 -104t-60.5 -36z" />
    <glyph glyph-name="uni24FF" unicode="&#x24ff;" 
d="M500 -70q-88 0 -164.5 32.5t-133.5 89.5t-89.5 133.5t-32.5 164.5t32.5 164.5t89.5 133.5t133.5 89.5t164.5 32.5t164.5 -32.5t133.5 -89.5t89.5 -133.5t32.5 -164.5t-32.5 -164.5t-89.5 -133.5t-133.5 -89.5t-164.5 -32.5zM500 145q73 0 112.5 55.5t39.5 149.5
t-39.5 149.5t-112.5 55.5q-74 0 -113.5 -55.5t-39.5 -149.5t39.5 -149.5t113.5 -55.5zM500 210q-40 0 -61.5 36t-21.5 104t21.5 104t61.5 36q39 0 60.5 -36t21.5 -104t-21.5 -104t-60.5 -36z" />
    <glyph glyph-name="lozenge" unicode="&#x25ca;" horiz-adv-x="590" 
d="M40 350l225 350h60l225 -350l-225 -350h-60zM460 350l-165 260l-165 -260l165 -260z" />
    <glyph glyph-name="uni2776" unicode="&#x2776;" 
d="M500 -70q-88 0 -164.5 32.5t-133.5 89.5t-89.5 133.5t-32.5 164.5t32.5 164.5t89.5 133.5t133.5 89.5t164.5 32.5t164.5 -32.5t133.5 -89.5t89.5 -133.5t32.5 -164.5t-32.5 -164.5t-89.5 -133.5t-133.5 -89.5t-164.5 -32.5zM545 150v400h-70v-30q0 -25 -25 -25h-60v-65
h85v-280h70z" />
    <glyph glyph-name="uni2777" unicode="&#x2777;" 
d="M500 -70q-88 0 -164.5 32.5t-133.5 89.5t-89.5 133.5t-32.5 164.5t32.5 164.5t89.5 133.5t133.5 89.5t164.5 32.5t164.5 -32.5t133.5 -89.5t89.5 -133.5t32.5 -164.5t-32.5 -164.5t-89.5 -133.5t-133.5 -89.5t-164.5 -32.5zM630 150v65h-170l133 125q21 20 31.5 42.5
t10.5 52.5q0 24 -8.5 46t-25 38.5t-40.5 26t-56 9.5t-55.5 -9.5t-40 -26t-26 -38.5t-13.5 -46h70q4 23 19.5 39t45.5 16q60 0 60 -55q0 -15 -7 -32.5t-28 -37.5l-160 -150v-65h260z" />
    <glyph glyph-name="uni2778" unicode="&#x2778;" 
d="M500 -70q-88 0 -164.5 32.5t-133.5 89.5t-89.5 133.5t-32.5 164.5t32.5 164.5t89.5 133.5t133.5 89.5t164.5 32.5t164.5 -32.5t133.5 -89.5t89.5 -133.5t32.5 -164.5t-32.5 -164.5t-89.5 -133.5t-133.5 -89.5t-164.5 -32.5zM505 145q32 0 57 9.5t42.5 26t26.5 38.5t9 46
q0 26 -13 50.5t-47 39.5q23 11 39 33.5t16 56.5q0 45 -35.5 77.5t-99.5 32.5q-32 0 -55.5 -9.5t-40 -26t-26 -38.5t-13.5 -46h70q4 19 17.5 37t47.5 18t49.5 -15.5t15.5 -34.5q0 -23 -12.5 -39t-42.5 -16h-45v-60h45q31 0 45.5 -16t14.5 -39t-15.5 -41.5t-49.5 -18.5
q-30 0 -46 10.5t-24 29.5h-70q11 -49 49 -77t91 -28z" />
    <glyph glyph-name="uni2779" unicode="&#x2779;" 
d="M500 -70q-88 0 -164.5 32.5t-133.5 89.5t-89.5 133.5t-32.5 164.5t32.5 164.5t89.5 133.5t133.5 89.5t164.5 32.5t164.5 -32.5t133.5 -89.5t89.5 -133.5t32.5 -164.5t-32.5 -164.5t-89.5 -133.5t-133.5 -89.5t-164.5 -32.5zM585 150v90h55v65h-55v245h-95l-160 -245v-65
h185v-90h70zM510 470h5v-165h-110z" />
    <glyph glyph-name="uni277A" unicode="&#x277a;" 
d="M500 -70q-88 0 -164.5 32.5t-133.5 89.5t-89.5 133.5t-32.5 164.5t32.5 164.5t89.5 133.5t133.5 89.5t164.5 32.5t164.5 -32.5t133.5 -89.5t89.5 -133.5t32.5 -164.5t-32.5 -164.5t-89.5 -133.5t-133.5 -89.5t-164.5 -32.5zM505 145q30 0 55.5 10t44.5 28t29.5 44
t10.5 58t-10.5 57t-29 42.5t-43 26.5t-52.5 9q-15 0 -26 -3t-19 -7q-9 -4 -15 -10h-5l10 85h170v65h-225l-25 -220h65q8 11 22.5 20.5t37.5 9.5q34 0 54.5 -18.5t20.5 -56.5q0 -34 -20 -54.5t-50 -20.5t-46 13t-24 32h-70q8 -49 47.5 -79.5t92.5 -30.5z" />
    <glyph glyph-name="uni277B" unicode="&#x277b;" 
d="M500 -70q-88 0 -164.5 32.5t-133.5 89.5t-89.5 133.5t-32.5 164.5t32.5 164.5t89.5 133.5t133.5 89.5t164.5 32.5t164.5 -32.5t133.5 -89.5t89.5 -133.5t32.5 -164.5t-32.5 -164.5t-89.5 -133.5t-133.5 -89.5t-164.5 -32.5zM500 145q30 0 56.5 10t46 27.5t31 42.5
t11.5 55t-10.5 55t-29 42.5t-43 27.5t-52.5 10q-11 0 -18.5 -1.5t-12.5 -3.5l-10 -5h-5l99 145h-78l-95 -145q-14 -23 -24.5 -52.5t-10.5 -67.5q0 -28 10 -53.5t28.5 -44.5t45.5 -30.5t61 -11.5zM500 210q-38 0 -56.5 22.5t-18.5 52.5t18.5 52.5t56.5 22.5t56.5 -22.5
t18.5 -52.5t-18.5 -52.5t-56.5 -22.5z" />
    <glyph glyph-name="uni277C" unicode="&#x277c;" 
d="M500 -70q-88 0 -164.5 32.5t-133.5 89.5t-89.5 133.5t-32.5 164.5t32.5 164.5t89.5 133.5t133.5 89.5t164.5 32.5t164.5 -32.5t133.5 -89.5t89.5 -133.5t32.5 -164.5t-32.5 -164.5t-89.5 -133.5t-133.5 -89.5t-164.5 -32.5zM482 150l148 335v65h-250v-65h175l-148 -335
h75z" />
    </font>
</defs>
</svg>
