<?xml version="1.0" encoding="utf-8"?>
<!-- Generator: Adobe Illustrator 23.0.3, SVG Export Plug-In . SVG Version: 6.00 Build 0)  -->
<svg version="1.1" id="Layer_1" xmlns="http://www.w3.org/2000/svg" xmlns:xlink="http://www.w3.org/1999/xlink" x="0px" y="0px"
	 viewBox="0 0 725.4 176.4" enable-background="new 0 0 725.4 176.4" xml:space="preserve">
<g>
	<polygon fill="#27AAE1" points="70.8,7.1 0,176.4 46.5,176.4 95.8,49.4 118.3,106.9 95.7,106.9 110,144.3 132.8,144.3 145.2,176.4 
		191.4,176.4 117.9,0.5 	"/>
	<path fill="#27AAE1" d="M216.9,176.3V6.3l40.9-5.7v175.7H216.9z"/>
	<path fill="#27AAE1" d="M457.6,109c-7.8,42.2-41.7,66.8-84.9,66.8c-50,0-89.4-38.4-89.4-87.9c0-49.2,39.4-87.9,89.4-87.9
		c41.5,0,76.6,24.6,84.7,64.6l-40.7,9.5c-5.3-24.4-22.4-36.2-44-36.2c-26.6,0-48,21.4-48,50s21.4,50.2,48,50.2
		c21.4,0,38.4-12.1,44.2-37.2L457.6,109z"/>
	<path fill="#27AAE1" d="M657.5,109c-7.8,42.2-41.7,66.8-84.9,66.8c-50,0-89.4-38.4-89.4-87.9c0-49.2,39.4-87.9,89.4-87.9
		c41.5,0,76.6,24.6,84.7,64.6l-40.7,9.5c-5.3-24.4-22.4-36.2-44-36.2c-26.6,0-48,21.4-48,50s21.4,50.2,48,50.2
		c21.4,0,38.4-12.1,44.2-37.2L657.5,109z"/>
	<path fill="#27AAE1" d="M684.5,175.8V5.7l40.9-5.7v175.7H684.5z"/>
</g>
</svg>
