<?xml version="1.0" encoding="utf-8"?>
<!-- Generator: Adobe Illustrator 23.0.3, SVG Export Plug-In . SVG Version: 6.00 Build 0)  -->
<svg version="1.1" id="Layer_1" xmlns="http://www.w3.org/2000/svg" xmlns:xlink="http://www.w3.org/1999/xlink" x="0px" y="0px"
	 viewBox="0 0 708.7 127.6" enable-background="new 0 0 708.7 127.6" xml:space="preserve">
<g>
	<polygon points="0.2,18 0.2,127.9 708.9,127.9 708.9,0.4 17.9,0.4 	"/>
</g>
<g>
	<rect x="265.6" y="3.7" fill="#FFFFFF" width="440" height="120.2"/>
	<path fill="#1D1D1B" d="M706.1,124.4h-441V3.2h441V124.4z M266.1,123.4h439V4.2h-439V123.4z"/>
</g>
<g>
	<g>
		<path fill="#FFFFFF" d="M135.4,111V16.6h14.1V111H135.4z"/>
	</g>
	<g>
		<path fill="#FFFFFF" d="M167.1,26.7V16.6h94.2v10.1H221V111h-13.9V26.7H167.1z"/>
	</g>
	<g>
		<path fill="#1D1D1B" d="M269.1,16.6h14.4l28.8,81.7l28.9-81.7H361l29.1,81.7l28.8-81.7h14.5L399.1,111h-17.8l-30.1-83.1L321.5,111
			H303L269.1,16.6z"/>
	</g>
	<g>
		<path fill="#1D1D1B" d="M443.4,111V16.6h14.1V111H443.4z"/>
	</g>
	<g>
		<path fill="#1D1D1B" d="M483.1,80.2h14.1V82c0,5.6,0.6,9.8,1.7,12.4c1.1,2.7,3,4.5,5.6,5.6c2,0.8,5.1,1.4,9.4,1.8
			c4.2,0.4,12.9,0.5,26.1,0.5c7.2,0,12.7-0.3,16.6-1c3.9-0.7,6.9-1.8,8.8-3.4c1.1-0.8,1.9-2.3,2.4-4.3s0.8-4.8,0.8-8.2
			c0-7-0.9-11.4-2.8-13.2c-1.9-1.8-5.6-2.9-11.2-3.2l-38.7-2.3C504,66,496,63.8,491.6,60.1c-4.5-3.7-6.7-9.9-6.7-18.6
			c0-5.5,0.7-9.9,2.2-13.3c1.5-3.3,3.8-6.1,7.1-8.3c2.5-1.7,6.1-2.9,10.7-3.6c4.6-0.7,12.6-1,24.2-1h4.5c12.9,0,22,0.5,27.3,1.4
			s9.7,2.5,13.2,4.8c2.4,1.5,4.2,3.7,5.4,6.5s1.7,6.3,1.7,10.5c0,1.2,0,2.2,0,2.8c0,0.7-0.1,1.2-0.1,1.7H567v-2.3
			c0-3.5-0.3-6.1-0.8-7.9c-0.5-1.8-1.4-3.2-2.6-4.1c-1.7-1.3-4.9-2.2-9.3-2.8c-4.5-0.5-13-0.8-25.4-0.8c-12.9,0-21.1,1.1-24.4,3.3
			s-5,6.6-5,13.2c0,5.4,1.1,9.1,3.2,11.2c2.2,2,6.3,3.3,12.5,3.6l39.5,2.5c10.4,0.7,17.7,2.8,21.9,6.4s6.3,9.7,6.3,18.1
			c0,6.2-0.5,10.8-1.6,13.9s-2.8,5.7-5.3,7.8c-3,2.6-7.1,4.4-12.3,5.4s-14.6,1.6-28.2,1.6H529c-11.6,0-19.8-0.4-24.7-1.3
			c-4.8-0.9-8.8-2.4-12.1-4.6c-3.2-2-5.5-4.8-7-8.3S483,90,483,84.7v-4.5H483.1z"/>
	</g>
	<g>
		<g>
			<path fill="#FFFFFF" d="M48.6,67.1h18.6c6.7,0,12.2,0.3,16.3,0.8c4.2,0.5,7,1.3,8.6,2.2c1.6,1,2.8,2.6,3.6,4.8
				c0.8,2.2,1.2,5,1.2,8.4c0,4-0.4,7.3-1.1,9.8s-1.8,4.2-3.2,5.2c-1.4,1-3.5,1.7-6.3,2.1c-2.8,0.5-6.3,0.7-10.4,0.7H53H16.3v10h27.1
				h27.1c8.2,0,15.1-0.4,20.6-1.3s9.6-2.2,12.3-4c2.7-1.8,4.8-4.4,6.2-7.9c1.4-3.5,2-7.8,2-13c0-3.8-0.3-7.1-1-9.8
				c-0.7-2.7-1.6-4.9-2.9-6.5s-3.1-3-5.4-4.1s-5.1-2-8.5-2.6c1.9-0.4,4.5-0.6,7.2-1.4c2.7-0.8,5.3-2.1,7.2-4.7
				c1.1-1.5,1.9-3.5,2.5-6.1c0.5-2.6,0.8-5.7,0.8-9.4c0-4.8-0.6-8.7-1.7-11.9s-2.8-5.5-5-7.1c-2.2-1.5-5.6-2.7-10.1-3.5
				s-10.1-1.2-16.9-1.2H47H16.3v5.1v5.1h6.9h6.9h21.1h21.1c5.6,0,10.1,0.2,13.5,0.6c3.5,0.4,5.9,1,7.2,1.9c1.4,0.8,2.4,2.3,3,4.3
				c0.7,2,1,4.7,1,7.9c0,3.4-0.3,6.2-1,8.4c-0.6,2.2-1.6,3.8-2.9,4.8s-3.1,1.7-5.6,2.2s-5.6,0.7-9.3,0.7h-24H30h-6.9h-6.9v9.6
				L48.6,67.1z"/>
		</g>
	</g>
	<g>
		<g>
			<path fill="#1D1D1B" d="M660,67.1h-18.6c-6.7,0-12.2,0.3-16.3,0.7c-4.2,0.5-7,1.3-8.6,2.3s-2.8,2.6-3.6,4.8
				c-0.8,2.2-1.2,5-1.2,8.4c0,4,0.4,7.3,1.1,9.8c0.7,2.5,1.8,4.2,3.2,5.2s3.5,1.7,6.3,2.1c2.8,0.5,6.3,0.7,10.4,0.7h23h36.7v10
				h-27.1h-27.1c-8.2,0-15.1-0.4-20.6-1.3s-9.6-2.2-12.3-4s-4.8-4.4-6.1-7.9c-1.4-3.5-2.1-7.8-2.1-13c0-3.8,0.3-7.1,1-9.8
				c0.7-2.7,1.6-4.9,3-6.5c1.3-1.6,3.1-3,5.4-4.1c2.3-1.1,5.1-2,8.5-2.6c-1.9-0.4-4.5-0.6-7.2-1.4c-2.7-0.8-5.3-2.1-7.2-4.7
				c-1.1-1.5-1.9-3.5-2.5-6.1c-0.5-2.6-0.8-5.7-0.8-9.4c0-4.8,0.6-8.7,1.7-11.9c1.1-3.2,2.8-5.5,5-7.1c2.2-1.5,5.6-2.7,10.1-3.5
				s10.1-1.2,16.9-1.2h30.8h30.8v5.1v5.1h-6.9h-6.9h-21.1h-21.1c-5.6,0-10.1,0.2-13.5,0.6c-3.5,0.4-5.9,1-7.2,1.9
				c-1.4,0.8-2.4,2.3-3,4.3c-0.7,2-1,4.7-1,7.9c0,3.4,0.3,6.2,1,8.4c0.6,2.2,1.6,3.8,2.9,4.8c1.3,1,3.1,1.7,5.6,2.2s5.6,0.7,9.3,0.7
				h24.1h24.1h6.9h6.9v9.6L660,67.1z"/>
		</g>
	</g>
</g>
</svg>
