<svg xmlns="http://www.w3.org/2000/svg" viewBox="0 0 485.3 154.7"><g fill="#325C87"><path d="M213.1 55.9c.9.9 2.1 1.3 3.6 1.3h5.3c1.5 0 2.8-.4 3.6-1.3.9-.9 1.3-2.1 1.3-3.7v-1.5c0-1.6-.4-2.8-1.3-3.7-.9-.9-2.1-1.3-3.6-1.3h-5.3c-1.5 0-2.8.5-3.6 1.3-.9.9-1.3 2.1-1.3 3.7v1.5c-.1 1.6.4 2.8 1.3 3.7M205.6 56.8a2.732 2.732 0 0 0 2.7-2.7v-4.8c0-.7-.2-1.3-.7-1.8-.5-.5-1.7-.9-3.5-1.3-1.9-.3-5.1-.5-9.8-.5-9.1 0-15.5 1.7-19.2 5.1-3.6 3.4-5.4 9.1-5.4 17.2v38.4c0 .8.2 1.4.7 1.9.5.5 1.1.7 1.9.7h9.6c.7 0 1.4-.2 1.9-.7.5-.5.8-1.1.8-1.9V79.3h15.5c.8 0 1.4-.2 1.9-.7.5-.5.7-1.1.7-1.9v-5.2c0-.8-.2-1.4-.7-1.9-.5-.5-1.1-.8-1.9-.8h-15.5v-.7c0-4.9.9-8.1 2.6-9.7 1.7-1.6 5.4-2.3 11.1-2.3l5.9.7h1.4zM212.6 108.4c.5.5 1.1.7 1.9.7h9.6c.7 0 1.4-.2 1.9-.7.5-.5.8-1.1.8-1.9V65.1c0-.8-.2-1.4-.7-1.9-.5-.5-1.1-.8-1.9-.8h-9.6c-.7 0-1.4.2-1.9.7-.5.5-.8 1.1-.8 1.9v41.4c0 .8.2 1.5.7 2M235.6 108.4c.5.5 1.1.7 1.9.7h9.6c.7 0 1.4-.2 1.9-.7.5-.5.8-1.1.8-1.9V77.2c2.9-4.2 6-6.2 9.1-6.2 5 0 7.5 3.4 7.5 10.4v25c0 .8.2 1.4.8 1.9.5.5 1.1.8 1.9.8h9.6c.7 0 1.4-.2 1.9-.7.5-.5.8-1.1.8-1.9v-25c0-1.3-.1-2.5-.3-3.8 3.2-4.4 6.4-6.7 9.4-6.7 5 0 7.5 3.4 7.5 10.4v25c0 .8.3 1.4.8 1.9s1.1.8 1.9.8h9.6c.8 0 1.4-.2 1.9-.7.5-.5.7-1.1.7-1.9v-25c0-7.2-1.6-12.4-4.9-15.9-3.3-3.4-7.7-5.1-13.3-5.1-5.6 0-11.1 2.8-16.4 8.4-3.4-5.6-8.5-8.4-15.2-8.4-2.8 0-5.2.5-7.2 1.6s-4 2.7-6.1 4.7V64c0-.8-.2-1.4-.7-1.9-.5-.5-1.1-.8-1.9-.8h-9.6a2.732 2.732 0 0 0-2.7 2.7v42.4c0 .8.2 1.5.7 2M354.4 85.2c0 5-.8 8.6-2.5 10.9-1.6 2.3-4.4 3.4-8.3 3.4-2.5 0-5.6-.6-9.3-1.8V74.9c4.1-2.6 7.7-3.9 10.8-3.9 3.1 0 5.4 1.1 7 3.4 1.5 2.2 2.3 5.9 2.3 10.8m15.3.1c0-8-2-14.1-6-18.4-4-4.3-9-6.4-15-6.4s-11.2 1.6-15.8 4.9V64c0-.8-.3-1.4-.8-1.9s-1.1-.8-1.9-.8H322c-.7 0-1.4.3-1.9.8s-.7 1.2-.7 1.9v57.1c0 .8.2 1.4.7 1.9.5.5 1.1.8 1.9.8h9.6a2.732 2.732 0 0 0 2.7-2.7v-13.4c4.6 1.5 8.8 2.2 12.4 2.2 7 0 12.6-2.1 16.8-6.4 4.1-4.1 6.2-10.2 6.2-18.2M408.4 80.7h-20c.3-6.9 3.7-10.3 10-10.3 6.4 0 9.7 3.4 10 10.3m15.1 6.4v-2.5c0-7.8-2.2-13.8-6.6-17.9-4.4-4.2-10.5-6.3-18.4-6.3-7.9 0-14 2.1-18.5 6.4-4.4 4.3-6.7 10.4-6.7 18.4 0 8 2.2 14.1 6.6 18.3 4.4 4.2 10.6 6.4 18.5 6.4 15.7 0 23.5-4.1 23.5-12.5 0-.8-.2-1.4-.8-1.9-.5-.5-1.1-.8-1.9-.8h-6.4c-2.1 0-3.8.9-5.2 2.7-1.4 1.7-4 2.6-7.8 2.6s-6.6-.8-8.3-2.4c-1.7-1.6-2.7-4.2-3-7.8h32.3c.8 0 1.4-.3 1.9-.8.5-.4.8-1.1.8-1.9M471 106.2c4.3-2.6 6.4-6.3 6.4-11.3 0-.8-.3-1.4-.8-1.9s-1.1-.8-1.9-.8h-6.4c-1.9 0-3.6 1.1-4.9 3.2-1.7 2.7-4.7 4.1-9.1 4.1-4.4 0-7.4-1.1-9.2-3.4-1.8-2.2-2.6-5.9-2.6-10.9s.8-8.7 2.6-10.9c1.7-2.2 4.7-3.3 9-3.3s7.3 1.4 9 4.1c1.3 2.1 3 3.2 4.9 3.2h6.4c.8 0 1.4-.2 1.9-.7.5-.5.7-1.1.7-1.9 0-5-2.1-8.8-6.4-11.3-4.2-2.6-10.3-3.8-18.2-3.8-7.9 0-14.1 2.1-18.5 6.3-4.4 4.2-6.7 10.4-6.7 18.5s2.2 14.3 6.7 18.5c4.5 4.2 10.7 6.3 18.7 6.3 8-.2 14.1-1.5 18.4-4"/></g><path fill="#325C87" d="M46.8 126.2l34.9-35.4-21.5-21.9-34.9 35.5zM67.6 115.3l-15.8 16 7.2 7.3c14.3 14.5 27.6 1 27.6 1l2.5-2.5-21.5-21.8z"/><path fill="#B1B2B4" d="M93.8 132.3l40.8-41.4s13.3-13.5-1-28l-7.2-7.3-54.1 54.9 21.5 21.8zM99.8 28.7L64.9 64.1l21.5 21.8 34.9-35.4z"/><path fill="#325C87" d="M52.8 22.5L12.1 63.9s-13.3 13.5 1 28l7.2 7.3 54.1-54.9-21.6-21.8z"/><path fill="#B1B2B4" d="M79 39.6l15.8-16-7.2-7.3c-14.3-14.5-27.6-1-27.6-1l-2.5 2.5L79 39.6z"/></svg>