<svg xmlns="http://www.w3.org/2000/svg" viewBox="0 0 924 162" width="1232" height="216"><path d="M901.3 1.27c.94-.89 1.84-1.14 2.69-.76 2.21.17 2.02 4.07-.16 4.32-2.18.47-3.52-1.62-2.53-3.56zM914.16.38c.38 1.42 1.14 2.5.09 3.84-1.17 1.29-3.88.69-3.91-1.17-.67-2.47 2.07-2.73 3.82-2.67z"></path><path d="M.53 3.6c15.33-.01 30.66 0 45.99 0 .02 52.8 0 105.6.01 158.4h-46c0-52.8-.01-105.6 0-158.4z" fill="#005bbe"></path><path d="M48.66 3.61c28.62-.02 57.24-.02 85.86 0-14.28 14.32-28.61 28.59-42.91 42.88C78.07 33.02 64.57 19.52 51.06 6.03c-.8-.81-1.6-1.61-2.4-2.42z" fill="#ffd200"></path><path d="M136.29 3.61c15.33-.02 30.67-.01 46-.01.01 52.8 0 105.6 0 158.4h-46c0-52.8.01-105.6 0-158.39z" fill="#005bbe"></path><path d="M253.76 7.37c-3.37 3.45-6.8 6.84-10.2 10.27 3.71 4.85 7.43 9.69 11.13 14.55-2.06.01-4.11.02-6.16.02-2.87-3.7-5.67-7.46-8.53-11.17-.77 1-2.08 1.97-2.52 3.16-.29 2.64-.12 5.34-.12 8h-4.94c-.01-8.27-.01-16.53-.01-24.8h4.94v10.59c3.17-3.07 6.19-6.29 9.38-9.34 1.57-2 4.72-1.05 7.03-1.28zM276.22 7.23c7.05-1.76 14.41 2.58 15.84 9.78 1.63 7.37-3.45 14.82-11.04 15.54-6.89.89-13.17-3.65-14.32-10.5-1.22-6.66 2.9-13.25 9.52-14.82zM308.39 7.5c1.61-.13 3.23-.12 4.84-.15.05 4.57-.07 9.14.02 13.7.11 1.86.17 3.69 1.49 5.14 2.9 3.15 9.25 2.18 10.17-2.34.71-5.39.16-11 .33-16.45h4.93c-.04 4.88.11 9.77-.03 14.65-.09 2.47-.66 4.83-2.21 6.8-5 6.28-17.34 4.77-19.19-3.68-.88-5.74-.39-11.86-.35-17.67zM347.45 7.5c1.61-.13 3.23-.13 4.84-.15.01 6.75 0 13.5.01 20.25h12.29c0 1.53 0 3.07-.01 4.6h-17.23c.09-8.23-.16-16.48.1-24.7zM384.53 7.4c.04 4.54-.07 9.09.01 13.63.1 1.82.14 3.62 1.39 5.07 2.77 3.19 9.19 2.35 10.2-2.09.75-5.44.17-11.11.34-16.61h5c-.06 4.88.12 9.76-.06 14.63-.15 3.05-.98 5.95-3.32 8.04-3.33 2.92-8.69 3.28-12.65 1.6-3.51-1.5-5.48-4.89-5.73-8.62-.31-5.2-.04-10.44-.12-15.65h4.94zM437.05 7.4c.01 1.53.01 3.06.01 4.6-2.61.01-5.22-.01-7.83 0 .01 6.74.01 13.47 0 20.2h-4.94V12h-7.76V7.4h20.52zM452.18 7.4h4.94c.03 4.55-.07 9.1.01 13.65.1 1.92.15 3.75 1.54 5.23 1.92 2.02 5.23 2.15 7.64 1.02 1.93-1.12 2.6-3.13 2.69-5.25.19-4.88 0-9.77.06-14.65h5c-.23 5.97.59 12.3-.63 18.15-1.98 7.74-12.88 9.26-18.23 4.23-2.06-2.07-2.89-4.86-2.99-7.73-.13-4.88.01-9.77-.03-14.65zM504.77 8.27c2.18 1.14 3.1 3.2 4.4 5.17-1.53.47-3.06.93-4.59 1.39-1.59-2.02-2.64-3.81-5.54-3.67-2.34-.26-5.21 2.51-2.46 4.24 3.22 1.92 8.04 2.59 10.84 5.21 2.83 2.72 2.14 7.63-.86 9.94-3.25 2.52-8.45 2.74-12.06.94-2.67-1.34-3.77-3.64-5.16-6.12 1.56-.46 3.13-.91 4.7-1.35 1.39 1.96 2.41 3.76 5.03 4.09 2.41.48 5.91-.88 4.75-3.88-3.12-2.96-8.74-3.05-11.87-6.16-2.27-2.45-1.91-6.4.51-8.6 3.27-2.88 8.55-3.5 12.31-1.2zM541.01 7.45c1.88-.08 3.78-.06 5.66-.07-3.37 3.43-6.78 6.84-10.17 10.26 3.71 4.85 7.43 9.7 11.14 14.56-2.08 0-4.16 0-6.23-.01-2.83-3.72-5.65-7.46-8.51-11.16-.81 1.01-1.85 1.94-2.48 3.08-.28 2.67-.12 5.4-.12 8.09h-4.95c0-8.27 0-16.54.01-24.8 1.64 0 3.29 0 4.93.01 0 3.52 0 7.05.01 10.57 3.59-3.48 7-7.17 10.71-10.53zM567.53 7.4c.17 5.5-.41 11.17.34 16.61.98 4.05 6.02 4.95 9.23 3.05 1.75-1.26 2.26-3.17 2.37-5.22.18-4.8 0-9.63.06-14.44h4.94c-.05 4.88.12 9.76-.06 14.63-.15 3.05-.98 5.95-3.32 8.04-3.35 2.93-8.75 3.28-12.72 1.57-3.47-1.51-5.41-4.89-5.66-8.59-.31-5.2-.04-10.44-.12-15.65h4.94zM606.48 7.4c4.01 5.23 8.08 10.41 12.07 15.66-.04-5.22-.02-10.44-.02-15.66h4.94v24.8h-4.67c-4.04-5.3-8.15-10.55-12.13-15.9.07 5.3.03 10.6.03 15.9h-4.93c-.01-8.27 0-16.53-.01-24.8h4.72zM638.95 7.4h20.52V12h-7.82v20.2h-4.94c0-6.73-.01-13.46 0-20.2-2.59-.01-5.18.01-7.77 0 0-1.54 0-3.07.01-4.6zM684.87 7.33c4.14 8.22 7.99 16.58 12.02 24.85-1.81.02-3.63.03-5.44.05-.69-1.4-1.36-2.81-2.04-4.21-4.13-.03-8.25-.02-12.37-.02-.65 1.4-1.32 2.8-1.97 4.2h-5.52c3.77-7.8 7.48-15.64 11.29-23.42.68-2.06 2.31-1.17 4.03-1.45zM704.47 7.4h6.03c2.11 2.92 4.23 5.84 6.29 8.79 2.09-2.96 4.22-5.89 6.37-8.8 1.99.01 3.98.01 5.96.01-3.12 4.63-6.85 8.98-9.66 13.78-.4 3.63-.1 7.36-.16 11.02h-5c-.01-3.71-.01-7.42 0-11.13-3.27-4.56-6.56-9.11-9.83-13.67zM760.18 7.4h4.94v24.8h-4.94V22h-10.77v10.2h-4.94V7.4h4.94c0 3.27 0 6.54.01 9.8h10.75c.01-3.27.01-6.53.01-9.8zM801.24 7.4c0 1.54 0 3.07-.01 4.6-2.6.01-5.21-.01-7.82.01V32.2h-4.88V12.01c-2.59-.02-5.17 0-7.76-.01-.01-1.53-.01-3.06-.01-4.6h20.48zM815.49 7.44c1.98-.08 3.97-.05 5.95-.05 2.1 2.94 4.23 5.86 6.3 8.81 2.1-2.95 4.23-5.89 6.38-8.81 1.99.01 3.98.01 5.97.01-3.28 4.59-6.59 9.16-9.86 13.75.01 3.68.01 7.36 0 11.05h-4.99c-.01-3.7-.01-7.41 0-11.11-3.21-4.58-6.6-9.03-9.75-13.65zM855.51 7.5c1.53-.13 3.07-.12 4.6-.14 2.47 3.86 4.99 7.7 7.45 11.56 2.47-3.87 4.94-7.74 7.49-11.55 1.55.02 3.11.03 4.66.05-.01 8.26 0 16.52 0 24.78h-5c0-5.23-.03-10.46.02-15.68-1.97 3.2-4.06 6.35-6.14 9.49-.69-.01-1.39-.02-2.09-.02-2.06-3.16-4.14-6.3-6.16-9.49.02 5.23.01 10.46.01 15.7h-4.93c.07-8.22-.17-16.48.09-24.7zM909.72 7.33c4.13 8.22 7.98 16.6 12.02 24.87h-5.49c-.66-1.4-1.33-2.8-1.99-4.2h-12.35c-.66 1.4-1.34 2.8-2 4.2-1.83 0-3.66 0-5.5-.01 3.8-7.81 7.5-15.69 11.32-23.5.63-1.95 2.36-1.09 3.99-1.36z"></path><path class="do-not-fill" d="M277.12 12.01c3.56-.93 7.36.43 9.15 3.7 1.47 2.94 1.19 7.01-.98 9.55-2.89 3.39-8.73 3.45-11.67.1-3.58-4.34-2.22-11.64 3.5-13.35zM683.22 14.83c1.34 2.86 2.7 5.71 4.05 8.57h-8.08c1.35-2.86 2.7-5.71 4.03-8.57zM908.08 14.81c1.33 2.87 2.69 5.73 4.03 8.59h-8.07c1.35-2.86 2.7-5.72 4.04-8.59z" fill="#fff"></path><path d="M84.22 50.09c12.17-2.56 25.18 2.04 33 11.7 7.89 9.5 9.95 23.06 5.12 34.45-5.62 13.79-20.52 22.68-35.36 20.68-16.41-1.79-29.69-16.38-29.81-32.92-.52-16.08 11.27-30.83 27.05-33.91z" fill="#d20c30"></path><path d="M636.05 50.23c12.23-2.35 25.81.08 35.44 8.31 5.9 4.93 9.61 11.67 11.47 19.07-4.14 1.11-8.29 2.18-12.41 3.32-1.08-3.81-2.35-7.44-4.86-10.57-4.76-6.07-12.07-9.21-19.69-9.5-6.47-.22-13.79.99-18.96 5.17-4.83 3.62-6.94 10.86-4.46 16.4 2.19 4.55 6.83 6.86 11.25 8.75 9.97 4.02 20.8 6.15 30.67 10.43 5.7 2.55 11.25 5.76 14.98 10.91 5.08 6.9 5.9 16.23 3.4 24.28-2.31 7.33-7.66 13.1-14.34 16.75-8.65 4.71-18.88 5.93-28.57 5.01-9.62-1.02-18.78-4.95-25.37-12.16-4.89-5.25-7.75-11.73-9.38-18.66 4.22-1.15 8.46-2.28 12.69-3.41 1.08 5.77 3.31 11.03 7.69 15.07 7.83 7.38 20.03 8.98 30.16 6.39 6.79-1.97 12.81-6.04 14.62-13.24 1.65-6.59-.86-12.72-6.38-16.53-12.76-8.73-30.84-9.63-44.11-17.89-4.79-2.89-8.69-7-10.5-12.36-2.72-8.1-.81-17.25 4.68-23.75 5.51-6.68 13.63-10.19 21.98-11.79zM312.53 51.4v12.2h-35.06v93.2h-13.12V63.6h-34.88V51.4h83.06zM353.84 51.56c2.71-.34 5.52-.14 8.26-.15 17.57 35.13 35.14 70.26 52.7 105.39h-14.44c-4.26-8.54-8.56-17.05-12.81-25.59-19.76-.02-39.52 0-59.27-.01-4.26 8.53-8.54 17.05-12.79 25.59-4.82.02-9.63.01-14.45 0 16.32-32.63 32.65-65.27 48.97-97.9 1.24-2.44 2.33-5.04 3.83-7.33zM396.97 51.39c4.91.01 9.83.01 14.74.01 12.76 26.89 25.48 53.8 38.24 80.69.85 1.84 1.57 3.73 2.27 5.63 1.47-3.87 3.3-7.55 5.08-11.28 11.85-25.01 23.7-50.02 35.54-75.03 4.87-.01 9.73-.01 14.6-.01-16.71 35.14-33.44 70.26-50.14 105.39-3.34.01-6.69.01-10.03.01-16.76-35.14-33.54-70.27-50.3-105.41zM542.56 51.55c2.72-.31 5.5-.14 8.24-.15 17.59 35.12 35.14 70.26 52.72 105.39-4.81.01-9.61.01-14.42.01-4.29-8.52-8.55-17.05-12.8-25.59-19.77-.02-39.53 0-59.3-.01-4.25 8.53-8.55 17.04-12.78 25.58-4.82.03-9.64.02-14.46.02 16.33-32.68 32.69-65.34 49.02-98.02 1.23-2.41 2.3-4.97 3.78-7.23zM688.28 51.49c27.54-.21 55.32-.03 82.89-.09.01 4.07.01 8.13 0 12.2h-35.05v93.2h-13.06V63.6h-34.88c.05-4.03-.16-8.09.1-12.11zM785.39 51.5c4.31-.26 8.65-.04 12.96-.09V156.8h-13.06c.07-35-.13-70.35.1-105.3zM862.51 51.46c2.76-.12 5.52-.07 8.28-.07 15.9 31.72 31.74 63.47 47.63 95.19 1.78 3.52 3.15 6.93 5.58 10.07v.18c-4.96-.16-9.94.04-14.9-.03a6780.4 6780.4 0 01-12.8-25.59c-19.77-.02-39.53 0-59.3-.01-4.25 8.53-8.55 17.04-12.78 25.58-4.82.03-9.64.02-14.46.02 17.57-35.07 35.09-70.33 52.75-105.34z"></path><path class="do-not-fill" d="M357.92 70.88c1.58 4.57 3.93 8.69 6.06 13.01 5.84 11.71 11.7 23.4 17.54 35.1-15.73.02-31.47.01-47.2.01 6.97-13.93 13.91-27.87 20.91-41.78 1.04-2.05 1.89-4.19 2.69-6.34zM546.64 70.86c1.53 4.45 3.79 8.46 5.86 12.65 5.91 11.83 11.84 23.66 17.74 35.49h-47.2c5.98-11.97 11.96-23.93 17.94-35.89 2.01-4.05 4.19-7.95 5.66-12.25zM866.64 70.86c1.53 4.45 3.79 8.46 5.86 12.65 5.91 11.83 11.84 23.66 17.74 35.49h-47.2c5.98-11.97 11.96-23.93 17.94-35.89 2.01-4.05 4.19-7.95 5.66-12.25z" fill="#fff"></path><path d="M91.61 119.62c14.28 14.02 28.28 28.38 42.57 42.38H49.03c14.28-14.02 28.28-28.37 42.58-42.38z" fill="#ffd200"></path></svg>
